<?xml version="1.0" encoding="UTF-8" standalone="no"?>
<!DOCTYPE svg PUBLIC "-//W3C//DTD SVG 1.1//EN"
 "http://www.w3.org/Graphics/SVG/1.1/DTD/svg11.dtd">
<!-- Generated by graphviz version 7.0.0 (20221023.0053)
 -->
<!-- Title: G Pages: 1 -->
<svg width="352pt" height="332pt"
 viewBox="0.00 0.00 351.95 332.00" xmlns="http://www.w3.org/2000/svg" xmlns:xlink="http://www.w3.org/1999/xlink">
<g id="graph0" class="graph" transform="scale(1 1) rotate(0) translate(4 328)">
<title>G</title>
<polygon fill="white" stroke="none" points="-4,4 -4,-328 347.95,-328 347.95,4 -4,4"/>
<!-- any -->
<g id="node1" class="node">
<title>any</title>
<ellipse fill="none" stroke="black" cx="155.95" cy="-306" rx="27" ry="18"/>
<text text-anchor="middle" x="155.95" y="-302.3" font-family="Times,serif" font-size="14.00">any</text>
</g>
<!-- error -->
<g id="node2" class="node">
<title>error</title>
<ellipse fill="none" stroke="black" cx="27.95" cy="-90" rx="27.9" ry="18"/>
<text text-anchor="middle" x="27.95" y="-86.3" font-family="Times,serif" font-size="14.00">error</text>
</g>
<!-- any&#45;&gt;error -->
<g id="edge1" class="edge">
<title>any&#45;&gt;error</title>
<path fill="none" stroke="black" d="M129.12,-302.06C99.46,-297.23 52.99,-284.62 30.95,-252 4.07,-212.22 11.9,-153.35 19.97,-118.91"/>
<polygon fill="black" stroke="black" points="23.35,-119.84 22.41,-109.28 16.56,-118.12 23.35,-119.84"/>
</g>
<!-- string -->
<g id="node3" class="node">
<title>string</title>
<ellipse fill="none" stroke="black" cx="186.95" cy="-162" rx="30.59" ry="18"/>
<text text-anchor="middle" x="186.95" y="-158.3" font-family="Times,serif" font-size="14.00">string</text>
</g>
<!-- any&#45;&gt;string -->
<g id="edge2" class="edge">
<title>any&#45;&gt;string</title>
<path fill="none" stroke="black" d="M159.53,-287.92C163.3,-270 169.45,-241 174.95,-216 176.72,-207.95 178.68,-199.23 180.49,-191.22"/>
<polygon fill="black" stroke="black" points="183.86,-192.18 182.67,-181.65 177.04,-190.62 183.86,-192.18"/>
</g>
<!-- type_info -->
<g id="node4" class="node">
<title>type_info</title>
<ellipse fill="none" stroke="black" cx="83.95" cy="-234" rx="44.39" ry="18"/>
<text text-anchor="middle" x="83.95" y="-230.3" font-family="Times,serif" font-size="14.00">type_info</text>
</g>
<!-- any&#45;&gt;type_info -->
<g id="edge3" class="edge">
<title>any&#45;&gt;type_info</title>
<path fill="none" stroke="black" d="M141.03,-290.5C131.67,-281.4 119.37,-269.44 108.59,-258.96"/>
<polygon fill="black" stroke="black" points="111.05,-256.47 101.44,-252 106.17,-261.49 111.05,-256.47"/>
</g>
<!-- from_bcs -->
<g id="node5" class="node">
<title>from_bcs</title>
<ellipse fill="none" stroke="black" cx="227.95" cy="-234" rx="44.39" ry="18"/>
<text text-anchor="middle" x="227.95" y="-230.3" font-family="Times,serif" font-size="14.00">from_bcs</text>
</g>
<!-- any&#45;&gt;from_bcs -->
<g id="edge4" class="edge">
<title>any&#45;&gt;from_bcs</title>
<path fill="none" stroke="black" d="M170.87,-290.5C180.23,-281.4 192.52,-269.44 203.3,-258.96"/>
<polygon fill="black" stroke="black" points="205.73,-261.49 210.46,-252 200.85,-256.47 205.73,-261.49"/>
</g>
<!-- bcs -->
<g id="node6" class="node">
<title>bcs</title>
<ellipse fill="none" stroke="black" cx="316.95" cy="-234" rx="27" ry="18"/>
<text text-anchor="middle" x="316.95" y="-230.3" font-family="Times,serif" font-size="14.00">bcs</text>
</g>
<!-- any&#45;&gt;bcs -->
<g id="edge5" class="edge">
<title>any&#45;&gt;bcs</title>
<path fill="none" stroke="black" d="M178.65,-295.7C203.79,-285.32 245.45,-267.9 280.95,-252 282.26,-251.41 283.6,-250.81 284.95,-250.19"/>
<polygon fill="black" stroke="black" points="286.34,-253.41 293.94,-246.03 283.39,-247.06 286.34,-253.41"/>
</g>
<!-- vector -->
<g id="node7" class="node">
<title>vector</title>
<ellipse fill="none" stroke="black" cx="208.95" cy="-18" rx="32.49" ry="18"/>
<text text-anchor="middle" x="208.95" y="-14.3" font-family="Times,serif" font-size="14.00">vector</text>
</g>
<!-- string&#45;&gt;vector -->
<g id="edge6" class="edge">
<title>string&#45;&gt;vector</title>
<path fill="none" stroke="black" d="M188.68,-143.54C190.56,-125.56 193.86,-96.73 197.95,-72 199.29,-63.9 200.99,-55.16 202.66,-47.16"/>
<polygon fill="black" stroke="black" points="206.03,-48.11 204.71,-37.6 199.19,-46.64 206.03,-48.11"/>
</g>
<!-- option -->
<g id="node8" class="node">
<title>option</title>
<ellipse fill="none" stroke="black" cx="239.95" cy="-90" rx="33.29" ry="18"/>
<text text-anchor="middle" x="239.95" y="-86.3" font-family="Times,serif" font-size="14.00">option</text>
</g>
<!-- string&#45;&gt;option -->
<g id="edge7" class="edge">
<title>string&#45;&gt;option</title>
<path fill="none" stroke="black" d="M198.97,-145.12C205.55,-136.43 213.83,-125.49 221.23,-115.72"/>
<polygon fill="black" stroke="black" points="223.81,-118.11 227.05,-108.03 218.23,-113.89 223.81,-118.11"/>
</g>
<!-- type_info&#45;&gt;error -->
<g id="edge8" class="edge">
<title>type_info&#45;&gt;error</title>
<path fill="none" stroke="black" d="M72.75,-216.39C66.27,-206.22 58.36,-192.76 52.95,-180 44.6,-160.34 38.18,-137.07 33.93,-119.26"/>
<polygon fill="black" stroke="black" points="37.37,-118.62 31.74,-109.64 30.55,-120.17 37.37,-118.62"/>
</g>
<!-- type_info&#45;&gt;string -->
<g id="edge9" class="edge">
<title>type_info&#45;&gt;string</title>
<path fill="none" stroke="black" d="M106.04,-217.98C121.26,-207.64 141.63,-193.8 158.13,-182.59"/>
<polygon fill="black" stroke="black" points="159.77,-185.7 166.07,-177.19 155.83,-179.91 159.77,-185.7"/>
</g>
<!-- features -->
<g id="node9" class="node">
<title>features</title>
<ellipse fill="none" stroke="black" cx="99.95" cy="-162" rx="38.19" ry="18"/>
<text text-anchor="middle" x="99.95" y="-158.3" font-family="Times,serif" font-size="14.00">features</text>
</g>
<!-- type_info&#45;&gt;features -->
<g id="edge10" class="edge">
<title>type_info&#45;&gt;features</title>
<path fill="none" stroke="black" d="M87.9,-215.7C89.59,-208.32 91.6,-199.52 93.49,-191.25"/>
<polygon fill="black" stroke="black" points="96.88,-192.11 95.7,-181.58 90.06,-190.55 96.88,-192.11"/>
</g>
<!-- from_bcs&#45;&gt;string -->
<g id="edge11" class="edge">
<title>from_bcs&#45;&gt;string</title>
<path fill="none" stroke="black" d="M218.02,-216.05C213.27,-207.94 207.47,-198.04 202.18,-189.01"/>
<polygon fill="black" stroke="black" points="205.34,-187.47 197.26,-180.61 199.3,-191.01 205.34,-187.47"/>
</g>
<!-- option&#45;&gt;vector -->
<g id="edge12" class="edge">
<title>option&#45;&gt;vector</title>
<path fill="none" stroke="black" d="M232.44,-72.05C229.02,-64.32 224.87,-54.96 221.02,-46.27"/>
<polygon fill="black" stroke="black" points="224.25,-44.9 217,-37.17 217.84,-47.73 224.25,-44.9"/>
</g>
<!-- features&#45;&gt;error -->
<g id="edge13" class="edge">
<title>features&#45;&gt;error</title>
<path fill="none" stroke="black" d="M83.97,-145.46C74.29,-136.06 61.79,-123.9 51.05,-113.46"/>
<polygon fill="black" stroke="black" points="53.59,-111.05 43.98,-106.59 48.71,-116.07 53.59,-111.05"/>
</g>
<!-- signer -->
<g id="node10" class="node">
<title>signer</title>
<ellipse fill="none" stroke="black" cx="105.95" cy="-90" rx="32.49" ry="18"/>
<text text-anchor="middle" x="105.95" y="-86.3" font-family="Times,serif" font-size="14.00">signer</text>
</g>
<!-- features&#45;&gt;signer -->
<g id="edge14" class="edge">
<title>features&#45;&gt;signer</title>
<path fill="none" stroke="black" d="M101.43,-143.7C102.06,-136.41 102.8,-127.73 103.5,-119.54"/>
<polygon fill="black" stroke="black" points="106.99,-119.87 104.35,-109.61 100.01,-119.28 106.99,-119.87"/>
</g>
</g>
</svg>
