<?xml version="1.0" encoding="UTF-8" standalone="no"?>
<!DOCTYPE svg PUBLIC "-//W3C//DTD SVG 1.1//EN"
 "http://www.w3.org/Graphics/SVG/1.1/DTD/svg11.dtd">
<!-- Generated by graphviz version 7.0.0 (20221023.0053)
 -->
<!-- Title: G Pages: 1 -->
<svg width="538pt" height="526pt"
 viewBox="0.00 0.00 538.00 526.00" xmlns="http://www.w3.org/2000/svg" xmlns:xlink="http://www.w3.org/1999/xlink">
<g id="graph0" class="graph" transform="scale(1 1) rotate(0) translate(4 522)">
<title>G</title>
<polygon fill="white" stroke="none" points="-4,4 -4,-522 534,-522 534,4 -4,4"/>
<g id="clust1" class="cluster">
<title>cluster_simple_map</title>
<polygon fill="none" stroke="black" points="8,-64 8,-211 522,-211 522,-64 8,-64"/>
<text text-anchor="middle" x="265" y="-195.8" font-family="Times,serif" font-size="14.00">simple_map</text>
</g>
<g id="clust2" class="cluster">
<title>cluster_pool_u64</title>
<polygon fill="none" stroke="black" points="37,-219 37,-510 465,-510 465,-219 37,-219"/>
<text text-anchor="middle" x="251" y="-494.8" font-family="Times,serif" font-size="14.00">pool_u64</text>
</g>
<!-- compare -->
<g id="node1" class="node">
<title>compare</title>
<ellipse fill="none" stroke="black" cx="277" cy="-18" rx="41.69" ry="18"/>
<text text-anchor="middle" x="277" y="-14.3" font-family="Times,serif" font-size="14.00">compare</text>
</g>
<!-- simple_map::find -->
<g id="node2" class="node">
<title>simple_map::find</title>
<ellipse fill="none" stroke="black" cx="277" cy="-90" rx="27" ry="18"/>
<text text-anchor="middle" x="277" y="-86.3" font-family="Times,serif" font-size="14.00">find</text>
</g>
<!-- simple_map::find&#45;&gt;compare -->
<g id="edge1" class="edge">
<title>simple_map::find&#45;&gt;compare</title>
<path fill="none" stroke="black" d="M277,-71.7C277,-64.41 277,-55.73 277,-47.54"/>
<polygon fill="black" stroke="black" points="280.5,-47.62 277,-37.62 273.5,-47.62 280.5,-47.62"/>
</g>
<!-- simple_map::borrow -->
<g id="node3" class="node">
<title>simple_map::borrow</title>
<ellipse fill="none" stroke="black" cx="185" cy="-162" rx="36.29" ry="18"/>
<text text-anchor="middle" x="185" y="-158.3" font-family="Times,serif" font-size="14.00">borrow</text>
</g>
<!-- simple_map::borrow&#45;&gt;simple_map::find -->
<g id="edge2" class="edge">
<title>simple_map::borrow&#45;&gt;simple_map::find</title>
<path fill="none" stroke="black" d="M204.06,-146.5C217.66,-136.15 236.11,-122.11 251.05,-110.75"/>
<polygon fill="black" stroke="black" points="252.78,-113.83 258.62,-104.99 248.54,-108.26 252.78,-113.83"/>
</g>
<!-- simple_map::borrow_mut -->
<g id="node4" class="node">
<title>simple_map::borrow_mut</title>
<ellipse fill="none" stroke="black" cx="387" cy="-162" rx="54.69" ry="18"/>
<text text-anchor="middle" x="387" y="-158.3" font-family="Times,serif" font-size="14.00">borrow_mut</text>
</g>
<!-- simple_map::borrow_mut&#45;&gt;simple_map::find -->
<g id="edge3" class="edge">
<title>simple_map::borrow_mut&#45;&gt;simple_map::find</title>
<path fill="none" stroke="black" d="M362.59,-145.46C345.6,-134.66 322.92,-120.22 305.17,-108.92"/>
<polygon fill="black" stroke="black" points="307.47,-106.24 297.16,-103.83 303.72,-112.15 307.47,-106.24"/>
</g>
<!-- simple_map::remove -->
<g id="node5" class="node">
<title>simple_map::remove</title>
<ellipse fill="none" stroke="black" cx="277" cy="-162" rx="37.89" ry="18"/>
<text text-anchor="middle" x="277" y="-158.3" font-family="Times,serif" font-size="14.00">remove</text>
</g>
<!-- simple_map::remove&#45;&gt;simple_map::find -->
<g id="edge4" class="edge">
<title>simple_map::remove&#45;&gt;simple_map::find</title>
<path fill="none" stroke="black" d="M277,-143.7C277,-136.41 277,-127.73 277,-119.54"/>
<polygon fill="black" stroke="black" points="280.5,-119.62 277,-109.62 273.5,-119.62 280.5,-119.62"/>
</g>
<!-- simple_map::add -->
<g id="node6" class="node">
<title>simple_map::add</title>
<ellipse fill="none" stroke="black" cx="487" cy="-162" rx="27" ry="18"/>
<text text-anchor="middle" x="487" y="-158.3" font-family="Times,serif" font-size="14.00">add</text>
</g>
<!-- simple_map::add&#45;&gt;simple_map::find -->
<g id="edge5" class="edge">
<title>simple_map::add&#45;&gt;simple_map::find</title>
<path fill="none" stroke="black" d="M465.9,-150.41C461.06,-148.16 455.9,-145.89 451,-144 404.21,-125.94 348.51,-109.89 312.96,-100.31"/>
<polygon fill="black" stroke="black" points="314.19,-97.01 303.63,-97.82 312.39,-103.78 314.19,-97.01"/>
</g>
<!-- simple_map::contains_key -->
<g id="node7" class="node">
<title>simple_map::contains_key</title>
<ellipse fill="none" stroke="black" cx="73" cy="-162" rx="57.39" ry="18"/>
<text text-anchor="middle" x="73" y="-158.3" font-family="Times,serif" font-size="14.00">contains_key</text>
</g>
<!-- simple_map::contains_key&#45;&gt;simple_map::find -->
<g id="edge6" class="edge">
<title>simple_map::contains_key&#45;&gt;simple_map::find</title>
<path fill="none" stroke="black" d="M110.42,-148.16C148.15,-135.21 205.92,-115.39 242.56,-102.82"/>
<polygon fill="black" stroke="black" points="243.45,-106.21 251.77,-99.66 241.18,-99.59 243.45,-106.21"/>
</g>
<!-- pool_u64::shares -->
<g id="node8" class="node">
<title>pool_u64::shares</title>
<ellipse fill="none" stroke="black" cx="179" cy="-317" rx="32.49" ry="18"/>
<text text-anchor="middle" x="179" y="-313.3" font-family="Times,serif" font-size="14.00">shares</text>
</g>
<!-- pool_u64::shares&#45;&gt;simple_map::borrow -->
<g id="edge7" class="edge">
<title>pool_u64::shares&#45;&gt;simple_map::borrow</title>
<path fill="none" stroke="black" d="M179.68,-298.75C180.7,-272.69 182.65,-223.01 183.88,-191.52"/>
<polygon fill="black" stroke="black" points="187.36,-192.07 184.26,-181.94 180.37,-191.79 187.36,-192.07"/>
</g>
<!-- pool_u64::contains -->
<g id="node11" class="node">
<title>pool_u64::contains</title>
<ellipse fill="none" stroke="black" cx="102" cy="-245" rx="40.09" ry="18"/>
<text text-anchor="middle" x="102" y="-241.3" font-family="Times,serif" font-size="14.00">contains</text>
</g>
<!-- pool_u64::shares&#45;&gt;pool_u64::contains -->
<g id="edge24" class="edge">
<title>pool_u64::shares&#45;&gt;pool_u64::contains</title>
<path fill="none" stroke="black" d="M162.67,-301.15C152.47,-291.88 139.12,-279.74 127.54,-269.21"/>
<polygon fill="black" stroke="black" points="129.98,-266.71 120.23,-262.57 125.27,-271.89 129.98,-266.71"/>
</g>
<!-- pool_u64::add_shares -->
<g id="node9" class="node">
<title>pool_u64::add_shares</title>
<ellipse fill="none" stroke="black" cx="407" cy="-389" rx="50.09" ry="18"/>
<text text-anchor="middle" x="407" y="-385.3" font-family="Times,serif" font-size="14.00">add_shares</text>
</g>
<!-- pool_u64::add_shares&#45;&gt;simple_map::borrow_mut -->
<g id="edge8" class="edge">
<title>pool_u64::add_shares&#45;&gt;simple_map::borrow_mut</title>
<path fill="none" stroke="black" d="M405.46,-370.72C402.04,-332.19 393.75,-238.93 389.54,-191.59"/>
<polygon fill="black" stroke="black" points="393.05,-191.5 388.68,-181.85 386.07,-192.12 393.05,-191.5"/>
</g>
<!-- pool_u64::add_shares&#45;&gt;simple_map::add -->
<g id="edge11" class="edge">
<title>pool_u64::add_shares&#45;&gt;simple_map::add</title>
<path fill="none" stroke="black" d="M413.14,-370.72C426.94,-331.93 460.45,-237.68 477.17,-190.65"/>
<polygon fill="black" stroke="black" points="480.38,-192.05 480.44,-181.46 473.79,-189.71 480.38,-192.05"/>
</g>
<!-- pool_u64::add_shares&#45;&gt;pool_u64::contains -->
<g id="edge21" class="edge">
<title>pool_u64::add_shares&#45;&gt;pool_u64::contains</title>
<path fill="none" stroke="black" d="M380.94,-373.23C347.95,-354.79 289.13,-322.79 237,-299 206.1,-284.89 170.27,-270.94 143.3,-260.89"/>
<polygon fill="black" stroke="black" points="144.7,-257.68 134.11,-257.49 142.27,-264.24 144.7,-257.68"/>
</g>
<!-- pool_u64::deduct_shares -->
<g id="node10" class="node">
<title>pool_u64::deduct_shares</title>
<ellipse fill="none" stroke="black" cx="279" cy="-389" rx="60.39" ry="18"/>
<text text-anchor="middle" x="279" y="-385.3" font-family="Times,serif" font-size="14.00">deduct_shares</text>
</g>
<!-- pool_u64::deduct_shares&#45;&gt;simple_map::borrow_mut -->
<g id="edge9" class="edge">
<title>pool_u64::deduct_shares&#45;&gt;simple_map::borrow_mut</title>
<path fill="none" stroke="black" d="M287.3,-370.72C305.95,-331.85 351.35,-237.28 373.87,-190.35"/>
<polygon fill="black" stroke="black" points="377,-191.93 378.17,-181.4 370.69,-188.9 377,-191.93"/>
</g>
<!-- pool_u64::deduct_shares&#45;&gt;simple_map::remove -->
<g id="edge10" class="edge">
<title>pool_u64::deduct_shares&#45;&gt;simple_map::remove</title>
<path fill="none" stroke="black" d="M278.85,-370.72C278.5,-332.19 277.67,-238.93 277.25,-191.59"/>
<polygon fill="black" stroke="black" points="280.76,-191.82 277.17,-181.85 273.76,-191.88 280.76,-191.82"/>
</g>
<!-- pool_u64::deduct_shares&#45;&gt;pool_u64::shares -->
<g id="edge14" class="edge">
<title>pool_u64::deduct_shares&#45;&gt;pool_u64::shares</title>
<path fill="none" stroke="black" d="M256.31,-372.12C241.9,-362.03 223.12,-348.88 207.68,-338.07"/>
<polygon fill="black" stroke="black" points="210,-335.43 199.8,-332.56 205.99,-341.17 210,-335.43"/>
</g>
<!-- pool_u64::deduct_shares&#45;&gt;pool_u64::contains -->
<g id="edge22" class="edge">
<title>pool_u64::deduct_shares&#45;&gt;pool_u64::contains</title>
<path fill="none" stroke="black" d="M268.13,-371.09C251.99,-346.04 223.23,-301.74 220,-299 198.57,-280.81 169.88,-267.74 146.16,-259.13"/>
<polygon fill="black" stroke="black" points="147.34,-255.83 136.74,-255.86 145.05,-262.44 147.34,-255.83"/>
</g>
<!-- pool_u64::contains&#45;&gt;simple_map::contains_key -->
<g id="edge12" class="edge">
<title>pool_u64::contains&#45;&gt;simple_map::contains_key</title>
<path fill="none" stroke="black" d="M95.85,-226.82C92.12,-216.41 87.27,-202.87 83,-190.94"/>
<polygon fill="black" stroke="black" points="86.32,-189.81 79.65,-181.58 79.73,-192.17 86.32,-189.81"/>
</g>
<!-- pool_u64::balance -->
<g id="node12" class="node">
<title>pool_u64::balance</title>
<ellipse fill="none" stroke="black" cx="123" cy="-389" rx="37.89" ry="18"/>
<text text-anchor="middle" x="123" y="-385.3" font-family="Times,serif" font-size="14.00">balance</text>
</g>
<!-- pool_u64::balance&#45;&gt;pool_u64::shares -->
<g id="edge13" class="edge">
<title>pool_u64::balance&#45;&gt;pool_u64::shares</title>
<path fill="none" stroke="black" d="M135.99,-371.76C142.94,-363.07 151.65,-352.19 159.41,-342.49"/>
<polygon fill="black" stroke="black" points="162.01,-344.84 165.52,-334.85 156.54,-340.47 162.01,-344.84"/>
</g>
<!-- pool_u64::redeem_shares -->
<g id="node13" class="node">
<title>pool_u64::redeem_shares</title>
<ellipse fill="none" stroke="black" cx="134" cy="-461" rx="63.89" ry="18"/>
<text text-anchor="middle" x="134" y="-457.3" font-family="Times,serif" font-size="14.00">redeem_shares</text>
</g>
<!-- pool_u64::redeem_shares&#45;&gt;pool_u64::shares -->
<g id="edge15" class="edge">
<title>pool_u64::redeem_shares&#45;&gt;pool_u64::shares</title>
<path fill="none" stroke="black" d="M148.72,-443.07C156.42,-433.22 165.21,-420.17 170,-407 177.03,-387.67 179.19,-364.52 179.65,-346.68"/>
<polygon fill="black" stroke="black" points="183.14,-346.82 179.71,-336.8 176.14,-346.77 183.14,-346.82"/>
</g>
<!-- pool_u64::redeem_shares&#45;&gt;pool_u64::deduct_shares -->
<g id="edge19" class="edge">
<title>pool_u64::redeem_shares&#45;&gt;pool_u64::deduct_shares</title>
<path fill="none" stroke="black" d="M165.11,-444.98C186.39,-434.71 214.84,-420.97 237.98,-409.8"/>
<polygon fill="black" stroke="black" points="239.35,-413.03 246.83,-405.53 236.3,-406.73 239.35,-413.03"/>
</g>
<!-- pool_u64::redeem_shares&#45;&gt;pool_u64::contains -->
<g id="edge23" class="edge">
<title>pool_u64::redeem_shares&#45;&gt;pool_u64::contains</title>
<path fill="none" stroke="black" d="M101.31,-445.2C86.11,-436.44 69.54,-423.74 61,-407 39.2,-364.24 45.48,-344.42 61,-299 64.59,-288.49 71.21,-278.45 78.09,-269.99"/>
<polygon fill="black" stroke="black" points="80.59,-272.45 84.54,-262.62 75.32,-267.84 80.59,-272.45"/>
</g>
<!-- pool_u64::transfer_shares -->
<g id="node14" class="node">
<title>pool_u64::transfer_shares</title>
<ellipse fill="none" stroke="black" cx="279" cy="-461" rx="63.89" ry="18"/>
<text text-anchor="middle" x="279" y="-457.3" font-family="Times,serif" font-size="14.00">transfer_shares</text>
</g>
<!-- pool_u64::transfer_shares&#45;&gt;pool_u64::shares -->
<g id="edge16" class="edge">
<title>pool_u64::transfer_shares&#45;&gt;pool_u64::shares</title>
<path fill="none" stroke="black" d="M251.63,-444.37C237.5,-435.09 220.97,-422.18 210,-407 196.89,-388.85 188.94,-364.68 184.38,-346.11"/>
<polygon fill="black" stroke="black" points="187.84,-345.57 182.24,-336.58 181.01,-347.1 187.84,-345.57"/>
</g>
<!-- pool_u64::transfer_shares&#45;&gt;pool_u64::add_shares -->
<g id="edge18" class="edge">
<title>pool_u64::transfer_shares&#45;&gt;pool_u64::add_shares</title>
<path fill="none" stroke="black" d="M307.41,-444.46C325.97,-434.31 350.4,-420.96 370.41,-410.01"/>
<polygon fill="black" stroke="black" points="372,-413.13 379.09,-405.26 368.64,-406.99 372,-413.13"/>
</g>
<!-- pool_u64::transfer_shares&#45;&gt;pool_u64::deduct_shares -->
<g id="edge20" class="edge">
<title>pool_u64::transfer_shares&#45;&gt;pool_u64::deduct_shares</title>
<path fill="none" stroke="black" d="M279,-442.7C279,-435.41 279,-426.73 279,-418.54"/>
<polygon fill="black" stroke="black" points="282.5,-418.62 279,-408.62 275.5,-418.62 282.5,-418.62"/>
</g>
<!-- pool_u64::transfer_shares&#45;&gt;pool_u64::contains -->
<g id="edge25" class="edge">
<title>pool_u64::transfer_shares&#45;&gt;pool_u64::contains</title>
<path fill="none" stroke="black" d="M231.88,-448.45C172.67,-433.83 78.44,-410.16 76,-407 45.73,-367.81 68.96,-307.02 86.71,-272.43"/>
<polygon fill="black" stroke="black" points="89.63,-274.4 91.27,-263.93 83.46,-271.09 89.63,-274.4"/>
</g>
<!-- pool_u64::buy_in -->
<g id="node15" class="node">
<title>pool_u64::buy_in</title>
<ellipse fill="none" stroke="black" cx="407" cy="-461" rx="35.19" ry="18"/>
<text text-anchor="middle" x="407" y="-457.3" font-family="Times,serif" font-size="14.00">buy_in</text>
</g>
<!-- pool_u64::buy_in&#45;&gt;pool_u64::add_shares -->
<g id="edge17" class="edge">
<title>pool_u64::buy_in&#45;&gt;pool_u64::add_shares</title>
<path fill="none" stroke="black" d="M407,-442.7C407,-435.41 407,-426.73 407,-418.54"/>
<polygon fill="black" stroke="black" points="410.5,-418.62 407,-408.62 403.5,-418.62 410.5,-418.62"/>
</g>
</g>
</svg>
