<?xml version="1.0" encoding="UTF-8" standalone="no"?>
<!DOCTYPE svg PUBLIC "-//W3C//DTD SVG 1.1//EN"
 "http://www.w3.org/Graphics/SVG/1.1/DTD/svg11.dtd">
<!-- Generated by graphviz version 7.0.0 (20221023.0053)
 -->
<!-- Title: G Pages: 1 -->
<svg width="408pt" height="332pt"
 viewBox="0.00 0.00 407.95 332.00" xmlns="http://www.w3.org/2000/svg" xmlns:xlink="http://www.w3.org/1999/xlink">
<g id="graph0" class="graph" transform="scale(1 1) rotate(0) translate(4 328)">
<title>G</title>
<polygon fill="white" stroke="none" points="-4,4 -4,-328 403.95,-328 403.95,4 -4,4"/>
<!-- ed25519 -->
<g id="node1" class="node">
<title>ed25519</title>
<ellipse fill="none" stroke="black" cx="245.95" cy="-306" rx="40.89" ry="18"/>
<text text-anchor="middle" x="245.95" y="-302.3" font-family="Times,serif" font-size="14.00">ed25519</text>
</g>
<!-- error -->
<g id="node2" class="node">
<title>error</title>
<ellipse fill="none" stroke="black" cx="27.95" cy="-90" rx="27.9" ry="18"/>
<text text-anchor="middle" x="27.95" y="-86.3" font-family="Times,serif" font-size="14.00">error</text>
</g>
<!-- ed25519&#45;&gt;error -->
<g id="edge1" class="edge">
<title>ed25519&#45;&gt;error</title>
<path fill="none" stroke="black" d="M207.49,-299.39C172.56,-292.77 120.99,-279.05 83.95,-252 52.07,-228.72 44.93,-217.28 31.95,-180 25.21,-160.66 24.37,-137.51 25.13,-119.67"/>
<polygon fill="black" stroke="black" points="28.62,-119.99 25.77,-109.79 21.63,-119.54 28.62,-119.99"/>
</g>
<!-- option -->
<g id="node3" class="node">
<title>option</title>
<ellipse fill="none" stroke="black" cx="245.95" cy="-90" rx="33.29" ry="18"/>
<text text-anchor="middle" x="245.95" y="-86.3" font-family="Times,serif" font-size="14.00">option</text>
</g>
<!-- ed25519&#45;&gt;option -->
<g id="edge2" class="edge">
<title>ed25519&#45;&gt;option</title>
<path fill="none" stroke="black" d="M245.95,-287.85C245.95,-251.14 245.95,-164.66 245.95,-119.53"/>
<polygon fill="black" stroke="black" points="249.45,-119.75 245.95,-109.75 242.45,-119.75 249.45,-119.75"/>
</g>
<!-- type_info -->
<g id="node4" class="node">
<title>type_info</title>
<ellipse fill="none" stroke="black" cx="136.95" cy="-234" rx="44.39" ry="18"/>
<text text-anchor="middle" x="136.95" y="-230.3" font-family="Times,serif" font-size="14.00">type_info</text>
</g>
<!-- ed25519&#45;&gt;type_info -->
<g id="edge3" class="edge">
<title>ed25519&#45;&gt;type_info</title>
<path fill="none" stroke="black" d="M223.63,-290.67C207.97,-280.61 186.78,-267 169.28,-255.76"/>
<polygon fill="black" stroke="black" points="171.57,-253.07 161.26,-250.62 167.79,-258.96 171.57,-253.07"/>
</g>
<!-- bcs -->
<g id="node5" class="node">
<title>bcs</title>
<ellipse fill="none" stroke="black" cx="300.95" cy="-234" rx="27" ry="18"/>
<text text-anchor="middle" x="300.95" y="-230.3" font-family="Times,serif" font-size="14.00">bcs</text>
</g>
<!-- ed25519&#45;&gt;bcs -->
<g id="edge4" class="edge">
<title>ed25519&#45;&gt;bcs</title>
<path fill="none" stroke="black" d="M258.7,-288.76C265.63,-279.95 274.33,-268.88 282.03,-259.08"/>
<polygon fill="black" stroke="black" points="284.65,-261.4 288.08,-251.38 279.15,-257.08 284.65,-261.4"/>
</g>
<!-- hash -->
<g id="node6" class="node">
<title>hash</title>
<ellipse fill="none" stroke="black" cx="372.95" cy="-234" rx="27" ry="18"/>
<text text-anchor="middle" x="372.95" y="-230.3" font-family="Times,serif" font-size="14.00">hash</text>
</g>
<!-- ed25519&#45;&gt;hash -->
<g id="edge5" class="edge">
<title>ed25519&#45;&gt;hash</title>
<path fill="none" stroke="black" d="M270.74,-291.34C291.43,-279.93 320.98,-263.64 342.99,-251.51"/>
<polygon fill="black" stroke="black" points="344.42,-254.72 351.49,-246.83 341.04,-248.59 344.42,-254.72"/>
</g>
<!-- vector -->
<g id="node7" class="node">
<title>vector</title>
<ellipse fill="none" stroke="black" cx="214.95" cy="-18" rx="32.49" ry="18"/>
<text text-anchor="middle" x="214.95" y="-14.3" font-family="Times,serif" font-size="14.00">vector</text>
</g>
<!-- option&#45;&gt;vector -->
<g id="edge6" class="edge">
<title>option&#45;&gt;vector</title>
<path fill="none" stroke="black" d="M238.44,-72.05C235.02,-64.32 230.87,-54.96 227.02,-46.27"/>
<polygon fill="black" stroke="black" points="230.25,-44.9 223,-37.17 223.84,-47.73 230.25,-44.9"/>
</g>
<!-- type_info&#45;&gt;error -->
<g id="edge7" class="edge">
<title>type_info&#45;&gt;error</title>
<path fill="none" stroke="black" d="M106.49,-220.58C88.46,-211.77 66.56,-198.24 52.95,-180 39.88,-162.48 33.64,-138.42 30.66,-119.73"/>
<polygon fill="black" stroke="black" points="34.14,-119.29 29.34,-109.85 27.2,-120.22 34.14,-119.29"/>
</g>
<!-- string -->
<g id="node8" class="node">
<title>string</title>
<ellipse fill="none" stroke="black" cx="186.95" cy="-162" rx="30.59" ry="18"/>
<text text-anchor="middle" x="186.95" y="-158.3" font-family="Times,serif" font-size="14.00">string</text>
</g>
<!-- type_info&#45;&gt;string -->
<g id="edge8" class="edge">
<title>type_info&#45;&gt;string</title>
<path fill="none" stroke="black" d="M148.8,-216.41C154.8,-208.01 162.21,-197.63 168.9,-188.26"/>
<polygon fill="black" stroke="black" points="171.68,-190.39 174.65,-180.22 165.99,-186.32 171.68,-190.39"/>
</g>
<!-- features -->
<g id="node9" class="node">
<title>features</title>
<ellipse fill="none" stroke="black" cx="99.95" cy="-162" rx="38.19" ry="18"/>
<text text-anchor="middle" x="99.95" y="-158.3" font-family="Times,serif" font-size="14.00">features</text>
</g>
<!-- type_info&#45;&gt;features -->
<g id="edge9" class="edge">
<title>type_info&#45;&gt;features</title>
<path fill="none" stroke="black" d="M127.99,-216.05C123.81,-208.14 118.73,-198.54 114.05,-189.69"/>
<polygon fill="black" stroke="black" points="117.3,-188.33 109.53,-181.13 111.11,-191.6 117.3,-188.33"/>
</g>
<!-- string&#45;&gt;option -->
<g id="edge11" class="edge">
<title>string&#45;&gt;option</title>
<path fill="none" stroke="black" d="M200.04,-145.46C207.53,-136.58 217.08,-125.25 225.53,-115.22"/>
<polygon fill="black" stroke="black" points="228.15,-117.55 231.91,-107.65 222.79,-113.04 228.15,-117.55"/>
</g>
<!-- string&#45;&gt;vector -->
<g id="edge10" class="edge">
<title>string&#45;&gt;vector</title>
<path fill="none" stroke="black" d="M190.13,-143.92C193.48,-125.99 198.97,-96.99 203.95,-72 205.55,-63.95 207.34,-55.22 209,-47.22"/>
<polygon fill="black" stroke="black" points="212.38,-48.16 211,-37.65 205.53,-46.73 212.38,-48.16"/>
</g>
<!-- features&#45;&gt;error -->
<g id="edge12" class="edge">
<title>features&#45;&gt;error</title>
<path fill="none" stroke="black" d="M83.97,-145.46C74.29,-136.06 61.79,-123.9 51.05,-113.46"/>
<polygon fill="black" stroke="black" points="53.59,-111.05 43.98,-106.59 48.71,-116.07 53.59,-111.05"/>
</g>
<!-- signer -->
<g id="node10" class="node">
<title>signer</title>
<ellipse fill="none" stroke="black" cx="105.95" cy="-90" rx="32.49" ry="18"/>
<text text-anchor="middle" x="105.95" y="-86.3" font-family="Times,serif" font-size="14.00">signer</text>
</g>
<!-- features&#45;&gt;signer -->
<g id="edge13" class="edge">
<title>features&#45;&gt;signer</title>
<path fill="none" stroke="black" d="M101.43,-143.7C102.06,-136.41 102.8,-127.73 103.5,-119.54"/>
<polygon fill="black" stroke="black" points="106.99,-119.87 104.35,-109.61 100.01,-119.28 106.99,-119.87"/>
</g>
</g>
</svg>
