<?xml version="1.0" encoding="UTF-8" standalone="no"?>
<!DOCTYPE svg PUBLIC "-//W3C//DTD SVG 1.1//EN"
 "http://www.w3.org/Graphics/SVG/1.1/DTD/svg11.dtd">
<!-- Generated by graphviz version 7.0.0 (20221023.0053)
 -->
<!-- Title: G Pages: 1 -->
<svg width="454pt" height="404pt"
 viewBox="0.00 0.00 454.18 404.00" xmlns="http://www.w3.org/2000/svg" xmlns:xlink="http://www.w3.org/1999/xlink">
<g id="graph0" class="graph" transform="scale(1 1) rotate(0) translate(4 400)">
<title>G</title>
<polygon fill="white" stroke="none" points="-4,4 -4,-400 450.18,-400 450.18,4 -4,4"/>
<!-- multi_ed25519 -->
<g id="node1" class="node">
<title>multi_ed25519</title>
<ellipse fill="none" stroke="black" cx="345.15" cy="-378" rx="64.19" ry="18"/>
<text text-anchor="middle" x="345.15" y="-374.3" font-family="Times,serif" font-size="14.00">multi_ed25519</text>
</g>
<!-- error -->
<g id="node2" class="node">
<title>error</title>
<ellipse fill="none" stroke="black" cx="271.15" cy="-90" rx="27.9" ry="18"/>
<text text-anchor="middle" x="271.15" y="-86.3" font-family="Times,serif" font-size="14.00">error</text>
</g>
<!-- multi_ed25519&#45;&gt;error -->
<g id="edge1" class="edge">
<title>multi_ed25519&#45;&gt;error</title>
<path fill="none" stroke="black" d="M367.02,-360.69C402.63,-332.04 466.54,-270.52 439.15,-216 411.19,-160.35 345.43,-123.21 304.97,-104.72"/>
<polygon fill="black" stroke="black" points="306.48,-101.56 295.92,-100.72 303.65,-107.96 306.48,-101.56"/>
</g>
<!-- option -->
<g id="node3" class="node">
<title>option</title>
<ellipse fill="none" stroke="black" cx="33.15" cy="-90" rx="33.29" ry="18"/>
<text text-anchor="middle" x="33.15" y="-86.3" font-family="Times,serif" font-size="14.00">option</text>
</g>
<!-- multi_ed25519&#45;&gt;option -->
<g id="edge2" class="edge">
<title>multi_ed25519&#45;&gt;option</title>
<path fill="none" stroke="black" d="M300.13,-364.82C243.3,-347.57 145.12,-311.35 80.15,-252 52.46,-226.71 46.91,-215.92 36.15,-180 30.27,-160.39 29.67,-137.25 30.46,-119.48"/>
<polygon fill="black" stroke="black" points="33.94,-119.86 31.09,-109.66 26.96,-119.41 33.94,-119.86"/>
</g>
<!-- bcs -->
<g id="node4" class="node">
<title>bcs</title>
<ellipse fill="none" stroke="black" cx="331.15" cy="-234" rx="27" ry="18"/>
<text text-anchor="middle" x="331.15" y="-230.3" font-family="Times,serif" font-size="14.00">bcs</text>
</g>
<!-- multi_ed25519&#45;&gt;bcs -->
<g id="edge3" class="edge">
<title>multi_ed25519&#45;&gt;bcs</title>
<path fill="none" stroke="black" d="M343.43,-359.59C341.07,-335.61 336.78,-292.14 333.95,-263.42"/>
<polygon fill="black" stroke="black" points="337.45,-263.23 332.98,-253.62 330.48,-263.91 337.45,-263.23"/>
</g>
<!-- hash -->
<g id="node5" class="node">
<title>hash</title>
<ellipse fill="none" stroke="black" cx="403.15" cy="-234" rx="27" ry="18"/>
<text text-anchor="middle" x="403.15" y="-230.3" font-family="Times,serif" font-size="14.00">hash</text>
</g>
<!-- multi_ed25519&#45;&gt;hash -->
<g id="edge4" class="edge">
<title>multi_ed25519&#45;&gt;hash</title>
<path fill="none" stroke="black" d="M352.14,-359.87C362.04,-335.65 380.22,-291.12 391.99,-262.31"/>
<polygon fill="black" stroke="black" points="395.19,-263.73 395.73,-253.15 388.71,-261.08 395.19,-263.73"/>
</g>
<!-- ed25519 -->
<g id="node6" class="node">
<title>ed25519</title>
<ellipse fill="none" stroke="black" cx="276.15" cy="-306" rx="40.89" ry="18"/>
<text text-anchor="middle" x="276.15" y="-302.3" font-family="Times,serif" font-size="14.00">ed25519</text>
</g>
<!-- multi_ed25519&#45;&gt;ed25519 -->
<g id="edge5" class="edge">
<title>multi_ed25519&#45;&gt;ed25519</title>
<path fill="none" stroke="black" d="M328.8,-360.41C320.16,-351.66 309.42,-340.75 299.89,-331.08"/>
<polygon fill="black" stroke="black" points="302.48,-328.73 292.97,-324.07 297.5,-333.64 302.48,-328.73"/>
</g>
<!-- vector -->
<g id="node7" class="node">
<title>vector</title>
<ellipse fill="none" stroke="black" cx="63.15" cy="-18" rx="32.49" ry="18"/>
<text text-anchor="middle" x="63.15" y="-14.3" font-family="Times,serif" font-size="14.00">vector</text>
</g>
<!-- option&#45;&gt;vector -->
<g id="edge6" class="edge">
<title>option&#45;&gt;vector</title>
<path fill="none" stroke="black" d="M40.41,-72.05C43.73,-64.32 47.74,-54.96 51.46,-46.27"/>
<polygon fill="black" stroke="black" points="54.63,-47.75 55.36,-37.18 48.2,-44.99 54.63,-47.75"/>
</g>
<!-- ed25519&#45;&gt;error -->
<g id="edge7" class="edge">
<title>ed25519&#45;&gt;error</title>
<path fill="none" stroke="black" d="M275.75,-287.85C274.89,-251.14 272.87,-164.66 271.81,-119.53"/>
<polygon fill="black" stroke="black" points="275.32,-119.66 271.59,-109.75 268.32,-119.82 275.32,-119.66"/>
</g>
<!-- ed25519&#45;&gt;option -->
<g id="edge8" class="edge">
<title>ed25519&#45;&gt;option</title>
<path fill="none" stroke="black" d="M240.5,-296.89C188.65,-282.96 94.15,-249.08 53.15,-180 42.26,-161.65 37.29,-137.97 35.03,-119.65"/>
<polygon fill="black" stroke="black" points="38.51,-119.33 34.03,-109.73 31.55,-120.03 38.51,-119.33"/>
</g>
<!-- ed25519&#45;&gt;bcs -->
<g id="edge10" class="edge">
<title>ed25519&#45;&gt;bcs</title>
<path fill="none" stroke="black" d="M288.9,-288.76C295.83,-279.95 304.53,-268.88 312.23,-259.08"/>
<polygon fill="black" stroke="black" points="314.85,-261.4 318.28,-251.38 309.35,-257.08 314.85,-261.4"/>
</g>
<!-- ed25519&#45;&gt;hash -->
<g id="edge11" class="edge">
<title>ed25519&#45;&gt;hash</title>
<path fill="none" stroke="black" d="M300.94,-291.34C321.62,-279.93 351.18,-263.64 373.19,-251.51"/>
<polygon fill="black" stroke="black" points="374.62,-254.72 381.69,-246.83 371.24,-248.59 374.62,-254.72"/>
</g>
<!-- type_info -->
<g id="node8" class="node">
<title>type_info</title>
<ellipse fill="none" stroke="black" cx="188.15" cy="-234" rx="44.39" ry="18"/>
<text text-anchor="middle" x="188.15" y="-230.3" font-family="Times,serif" font-size="14.00">type_info</text>
</g>
<!-- ed25519&#45;&gt;type_info -->
<g id="edge9" class="edge">
<title>ed25519&#45;&gt;type_info</title>
<path fill="none" stroke="black" d="M257.05,-289.81C245.14,-280.34 229.6,-267.97 216.29,-257.39"/>
<polygon fill="black" stroke="black" points="218.7,-254.83 208.69,-251.34 214.34,-260.31 218.7,-254.83"/>
</g>
<!-- type_info&#45;&gt;error -->
<g id="edge12" class="edge">
<title>type_info&#45;&gt;error</title>
<path fill="none" stroke="black" d="M201.21,-216.81C209.18,-206.57 219.31,-192.88 227.15,-180 239.32,-160 250.96,-136.17 259.21,-118.21"/>
<polygon fill="black" stroke="black" points="262.33,-119.8 263.26,-109.25 255.95,-116.92 262.33,-119.8"/>
</g>
<!-- string -->
<g id="node9" class="node">
<title>string</title>
<ellipse fill="none" stroke="black" cx="93.15" cy="-162" rx="30.59" ry="18"/>
<text text-anchor="middle" x="93.15" y="-158.3" font-family="Times,serif" font-size="14.00">string</text>
</g>
<!-- type_info&#45;&gt;string -->
<g id="edge13" class="edge">
<title>type_info&#45;&gt;string</title>
<path fill="none" stroke="black" d="M167.53,-217.81C153.92,-207.78 135.93,-194.52 121.04,-183.55"/>
<polygon fill="black" stroke="black" points="123.13,-180.75 113.01,-177.63 118.98,-186.38 123.13,-180.75"/>
</g>
<!-- features -->
<g id="node10" class="node">
<title>features</title>
<ellipse fill="none" stroke="black" cx="180.15" cy="-162" rx="38.19" ry="18"/>
<text text-anchor="middle" x="180.15" y="-158.3" font-family="Times,serif" font-size="14.00">features</text>
</g>
<!-- type_info&#45;&gt;features -->
<g id="edge14" class="edge">
<title>type_info&#45;&gt;features</title>
<path fill="none" stroke="black" d="M186.17,-215.7C185.34,-208.41 184.34,-199.73 183.41,-191.54"/>
<polygon fill="black" stroke="black" points="186.89,-191.15 182.27,-181.61 179.93,-191.94 186.89,-191.15"/>
</g>
<!-- string&#45;&gt;option -->
<g id="edge16" class="edge">
<title>string&#45;&gt;option</title>
<path fill="none" stroke="black" d="M79.83,-145.46C72.22,-136.58 62.5,-125.25 53.91,-115.22"/>
<polygon fill="black" stroke="black" points="56.58,-112.96 47.41,-107.64 51.26,-117.51 56.58,-112.96"/>
</g>
<!-- string&#45;&gt;vector -->
<g id="edge15" class="edge">
<title>string&#45;&gt;vector</title>
<path fill="none" stroke="black" d="M89.81,-143.91C86.29,-125.98 80.5,-96.97 75.15,-72 73.42,-63.94 71.48,-55.21 69.66,-47.21"/>
<polygon fill="black" stroke="black" points="73.11,-46.61 67.48,-37.64 66.29,-48.17 73.11,-46.61"/>
</g>
<!-- features&#45;&gt;error -->
<g id="edge17" class="edge">
<title>features&#45;&gt;error</title>
<path fill="none" stroke="black" d="M199.45,-146.15C212.63,-136.02 230.26,-122.45 244.74,-111.31"/>
<polygon fill="black" stroke="black" points="246.73,-114.2 252.52,-105.33 242.46,-108.65 246.73,-114.2"/>
</g>
<!-- signer -->
<g id="node11" class="node">
<title>signer</title>
<ellipse fill="none" stroke="black" cx="180.15" cy="-90" rx="32.49" ry="18"/>
<text text-anchor="middle" x="180.15" y="-86.3" font-family="Times,serif" font-size="14.00">signer</text>
</g>
<!-- features&#45;&gt;signer -->
<g id="edge18" class="edge">
<title>features&#45;&gt;signer</title>
<path fill="none" stroke="black" d="M180.15,-143.7C180.15,-136.41 180.15,-127.73 180.15,-119.54"/>
<polygon fill="black" stroke="black" points="183.65,-119.62 180.15,-109.62 176.65,-119.62 183.65,-119.62"/>
</g>
</g>
</svg>
