<?xml version="1.0" encoding="UTF-8" standalone="no"?>
<!DOCTYPE svg PUBLIC "-//W3C//DTD SVG 1.1//EN"
 "http://www.w3.org/Graphics/SVG/1.1/DTD/svg11.dtd">
<!-- Generated by graphviz version 7.0.0 (20221023.0053)
 -->
<!-- Title: G Pages: 1 -->
<svg width="289pt" height="260pt"
 viewBox="0.00 0.00 288.54 260.00" xmlns="http://www.w3.org/2000/svg" xmlns:xlink="http://www.w3.org/1999/xlink">
<g id="graph0" class="graph" transform="scale(1 1) rotate(0) translate(4 256)">
<title>G</title>
<polygon fill="white" stroke="none" points="-4,4 -4,-256 284.54,-256 284.54,4 -4,4"/>
<!-- pool_u64 -->
<g id="node1" class="node">
<title>pool_u64</title>
<ellipse fill="none" stroke="black" cx="44.2" cy="-234" rx="44.39" ry="18"/>
<text text-anchor="middle" x="44.2" y="-230.3" font-family="Times,serif" font-size="14.00">pool_u64</text>
</g>
<!-- vector -->
<g id="node2" class="node">
<title>vector</title>
<ellipse fill="none" stroke="black" cx="60.2" cy="-18" rx="32.49" ry="18"/>
<text text-anchor="middle" x="60.2" y="-14.3" font-family="Times,serif" font-size="14.00">vector</text>
</g>
<!-- pool_u64&#45;&gt;vector -->
<g id="edge1" class="edge">
<title>pool_u64&#45;&gt;vector</title>
<path fill="none" stroke="black" d="M34.56,-216.01C18.89,-186.04 -8.46,-122.22 11.2,-72 15.83,-60.15 24.5,-49.36 33.27,-40.66"/>
<polygon fill="black" stroke="black" points="35.5,-43.37 40.48,-34.01 30.75,-38.22 35.5,-43.37"/>
</g>
<!-- error -->
<g id="node3" class="node">
<title>error</title>
<ellipse fill="none" stroke="black" cx="48.2" cy="-90" rx="27.9" ry="18"/>
<text text-anchor="middle" x="48.2" y="-86.3" font-family="Times,serif" font-size="14.00">error</text>
</g>
<!-- pool_u64&#45;&gt;error -->
<g id="edge2" class="edge">
<title>pool_u64&#45;&gt;error</title>
<path fill="none" stroke="black" d="M44.69,-215.59C45.36,-191.61 46.59,-148.14 47.4,-119.42"/>
<polygon fill="black" stroke="black" points="50.89,-119.72 47.67,-109.62 43.89,-119.52 50.89,-119.72"/>
</g>
<!-- simple_map -->
<g id="node4" class="node">
<title>simple_map</title>
<ellipse fill="none" stroke="black" cx="127.2" cy="-162" rx="54.69" ry="18"/>
<text text-anchor="middle" x="127.2" y="-158.3" font-family="Times,serif" font-size="14.00">simple_map</text>
</g>
<!-- pool_u64&#45;&gt;simple_map -->
<g id="edge3" class="edge">
<title>pool_u64&#45;&gt;simple_map</title>
<path fill="none" stroke="black" d="M62.62,-217.46C73.45,-208.32 87.37,-196.59 99.51,-186.35"/>
<polygon fill="black" stroke="black" points="101.42,-189.32 106.8,-180.2 96.9,-183.97 101.42,-189.32"/>
</g>
<!-- simple_map&#45;&gt;error -->
<g id="edge4" class="edge">
<title>simple_map&#45;&gt;error</title>
<path fill="none" stroke="black" d="M108.87,-144.76C98.05,-135.17 84.21,-122.91 72.49,-112.52"/>
<polygon fill="black" stroke="black" points="74.96,-110.03 65.15,-106.02 70.31,-115.27 74.96,-110.03"/>
</g>
<!-- option -->
<g id="node5" class="node">
<title>option</title>
<ellipse fill="none" stroke="black" cx="127.2" cy="-90" rx="33.29" ry="18"/>
<text text-anchor="middle" x="127.2" y="-86.3" font-family="Times,serif" font-size="14.00">option</text>
</g>
<!-- simple_map&#45;&gt;option -->
<g id="edge5" class="edge">
<title>simple_map&#45;&gt;option</title>
<path fill="none" stroke="black" d="M127.2,-143.7C127.2,-136.41 127.2,-127.73 127.2,-119.54"/>
<polygon fill="black" stroke="black" points="130.7,-119.62 127.2,-109.62 123.7,-119.62 130.7,-119.62"/>
</g>
<!-- comparator -->
<g id="node6" class="node">
<title>comparator</title>
<ellipse fill="none" stroke="black" cx="229.2" cy="-90" rx="51.19" ry="18"/>
<text text-anchor="middle" x="229.2" y="-86.3" font-family="Times,serif" font-size="14.00">comparator</text>
</g>
<!-- simple_map&#45;&gt;comparator -->
<g id="edge6" class="edge">
<title>simple_map&#45;&gt;comparator</title>
<path fill="none" stroke="black" d="M150.09,-145.29C164.1,-135.68 182.22,-123.24 197.58,-112.69"/>
<polygon fill="black" stroke="black" points="199.22,-115.82 205.48,-107.27 195.26,-110.05 199.22,-115.82"/>
</g>
<!-- option&#45;&gt;vector -->
<g id="edge7" class="edge">
<title>option&#45;&gt;vector</title>
<path fill="none" stroke="black" d="M112.33,-73.46C103.65,-64.4 92.53,-52.79 82.8,-42.61"/>
<polygon fill="black" stroke="black" points="85.51,-40.39 76.07,-35.59 80.46,-45.23 85.51,-40.39"/>
</g>
<!-- bcs -->
<g id="node7" class="node">
<title>bcs</title>
<ellipse fill="none" stroke="black" cx="229.2" cy="-18" rx="27" ry="18"/>
<text text-anchor="middle" x="229.2" y="-14.3" font-family="Times,serif" font-size="14.00">bcs</text>
</g>
<!-- comparator&#45;&gt;bcs -->
<g id="edge8" class="edge">
<title>comparator&#45;&gt;bcs</title>
<path fill="none" stroke="black" d="M229.2,-71.7C229.2,-64.41 229.2,-55.73 229.2,-47.54"/>
<polygon fill="black" stroke="black" points="232.7,-47.62 229.2,-37.62 225.7,-47.62 232.7,-47.62"/>
</g>
</g>
</svg>
