<?xml version="1.0" encoding="UTF-8" standalone="no"?>
<!DOCTYPE svg PUBLIC "-//W3C//DTD SVG 1.1//EN"
 "http://www.w3.org/Graphics/SVG/1.1/DTD/svg11.dtd">
<!-- Generated by graphviz version 7.0.0 (20221023.0053)
 -->
<!-- Title: G Pages: 1 -->
<svg width="1093pt" height="603pt"
 viewBox="0.00 0.00 1093.00 603.00" xmlns="http://www.w3.org/2000/svg" xmlns:xlink="http://www.w3.org/1999/xlink">
<g id="graph0" class="graph" transform="scale(1 1) rotate(0) translate(4 599)">
<title>G</title>
<polygon fill="white" stroke="none" points="-4,4 -4,-599 1089,-599 1089,4 -4,4"/>
<g id="clust1" class="cluster">
<title>cluster_error</title>
<polygon fill="none" stroke="black" points="8,-174 8,-332 300,-332 300,-174 8,-174"/>
<text text-anchor="middle" x="154" y="-316.8" font-family="Times,serif" font-size="14.00">error</text>
</g>
<g id="clust2" class="cluster">
<title>cluster_simple_map</title>
<polygon fill="none" stroke="black" points="308,-257 308,-407 638,-407 638,-257 308,-257"/>
<text text-anchor="middle" x="473" y="-391.8" font-family="Times,serif" font-size="14.00">simple_map</text>
</g>
<g id="clust3" class="cluster">
<title>cluster_option</title>
<polygon fill="none" stroke="black" points="382,-91 382,-249 713,-249 713,-91 382,-91"/>
<text text-anchor="middle" x="547.5" y="-233.8" font-family="Times,serif" font-size="14.00">option</text>
</g>
<g id="clust4" class="cluster">
<title>cluster_vector</title>
<polygon fill="none" stroke="black" points="463,-8 463,-83 670,-83 670,-8 463,-8"/>
<text text-anchor="middle" x="566.5" y="-67.8" font-family="Times,serif" font-size="14.00">vector</text>
</g>
<g id="clust5" class="cluster">
<title>cluster_comparator</title>
<polygon fill="none" stroke="black" points="825,-91 825,-249 1077,-249 1077,-91 825,-91"/>
<text text-anchor="middle" x="951" y="-233.8" font-family="Times,serif" font-size="14.00">comparator</text>
</g>
<g id="clust6" class="cluster">
<title>cluster_bcs</title>
<polygon fill="none" stroke="black" points="721,-91 721,-166 817,-166 817,-91 721,-91"/>
<text text-anchor="middle" x="769" y="-150.8" font-family="Times,serif" font-size="14.00">bcs</text>
</g>
<!-- buy_in -->
<g id="node1" class="node">
<title>buy_in</title>
<ellipse fill="none" stroke="black" cx="371" cy="-577" rx="35.19" ry="18"/>
<text text-anchor="middle" x="371" y="-573.3" font-family="Times,serif" font-size="14.00">buy_in</text>
</g>
<!-- error::invalid_argument -->
<g id="node2" class="node">
<title>error::invalid_argument</title>
<ellipse fill="none" stroke="black" cx="219" cy="-283" rx="73.39" ry="18"/>
<text text-anchor="middle" x="219" y="-279.3" font-family="Times,serif" font-size="14.00">invalid_argument</text>
</g>
<!-- buy_in&#45;&gt;error::invalid_argument -->
<g id="edge1" class="edge">
<title>buy_in&#45;&gt;error::invalid_argument</title>
<path fill="none" stroke="black" d="M351.26,-561.74C338.76,-551.94 322.95,-538.02 312,-523 263.12,-455.99 236.14,-359.95 225.06,-312.61"/>
<polygon fill="black" stroke="black" points="228.48,-311.87 222.86,-302.88 221.65,-313.41 228.48,-311.87"/>
</g>
<!-- add_shares -->
<g id="node3" class="node">
<title>add_shares</title>
<ellipse fill="none" stroke="black" cx="371" cy="-505" rx="50.09" ry="18"/>
<text text-anchor="middle" x="371" y="-501.3" font-family="Times,serif" font-size="14.00">add_shares</text>
</g>
<!-- buy_in&#45;&gt;add_shares -->
<g id="edge2" class="edge">
<title>buy_in&#45;&gt;add_shares</title>
<path fill="none" stroke="black" d="M371,-558.7C371,-551.41 371,-542.73 371,-534.54"/>
<polygon fill="black" stroke="black" points="374.5,-534.62 371,-524.62 367.5,-534.62 374.5,-534.62"/>
</g>
<!-- amount_to_shares -->
<g id="node4" class="node">
<title>amount_to_shares</title>
<ellipse fill="none" stroke="black" cx="593" cy="-505" rx="75.29" ry="18"/>
<text text-anchor="middle" x="593" y="-501.3" font-family="Times,serif" font-size="14.00">amount_to_shares</text>
</g>
<!-- buy_in&#45;&gt;amount_to_shares -->
<g id="edge3" class="edge">
<title>buy_in&#45;&gt;amount_to_shares</title>
<path fill="none" stroke="black" d="M400.48,-566.7C435.42,-555.69 494.37,-537.1 537.85,-523.39"/>
<polygon fill="black" stroke="black" points="538.9,-526.73 547.39,-520.38 536.8,-520.05 538.9,-526.73"/>
</g>
<!-- error::canonical -->
<g id="node5" class="node">
<title>error::canonical</title>
<ellipse fill="none" stroke="black" cx="145" cy="-200" rx="44.39" ry="18"/>
<text text-anchor="middle" x="145" y="-196.3" font-family="Times,serif" font-size="14.00">canonical</text>
</g>
<!-- error::invalid_argument&#45;&gt;error::canonical -->
<g id="edge4" class="edge">
<title>error::invalid_argument&#45;&gt;error::canonical</title>
<path fill="none" stroke="black" d="M203.67,-265.22C193.21,-253.77 179.19,-238.42 167.48,-225.6"/>
<polygon fill="black" stroke="black" points="170.16,-223.35 160.83,-218.33 164.99,-228.07 170.16,-223.35"/>
</g>
<!-- add_shares&#45;&gt;error::invalid_argument -->
<g id="edge5" class="edge">
<title>add_shares&#45;&gt;error::invalid_argument</title>
<path fill="none" stroke="black" d="M358.79,-487.06C345.09,-467.88 322.37,-435.58 304,-407 285.25,-377.83 283.8,-368.47 264,-340 256.84,-329.71 248.37,-318.87 240.72,-309.49"/>
<polygon fill="black" stroke="black" points="243.46,-307.32 234.38,-301.85 238.07,-311.78 243.46,-307.32"/>
</g>
<!-- error::invalid_state -->
<g id="node6" class="node">
<title>error::invalid_state</title>
<ellipse fill="none" stroke="black" cx="72" cy="-283" rx="55.79" ry="18"/>
<text text-anchor="middle" x="72" y="-279.3" font-family="Times,serif" font-size="14.00">invalid_state</text>
</g>
<!-- add_shares&#45;&gt;error::invalid_state -->
<g id="edge6" class="edge">
<title>add_shares&#45;&gt;error::invalid_state</title>
<path fill="none" stroke="black" d="M349.69,-488.36C308.56,-458.17 215.34,-389.72 137,-332 125.82,-323.76 113.56,-314.72 102.74,-306.72"/>
<polygon fill="black" stroke="black" points="105,-304.04 94.88,-300.91 100.84,-309.67 105,-304.04"/>
</g>
<!-- simple_map::borrow_mut -->
<g id="node7" class="node">
<title>simple_map::borrow_mut</title>
<ellipse fill="none" stroke="black" cx="371" cy="-358" rx="54.69" ry="18"/>
<text text-anchor="middle" x="371" y="-354.3" font-family="Times,serif" font-size="14.00">borrow_mut</text>
</g>
<!-- add_shares&#45;&gt;simple_map::borrow_mut -->
<g id="edge7" class="edge">
<title>add_shares&#45;&gt;simple_map::borrow_mut</title>
<path fill="none" stroke="black" d="M371,-486.51C371,-461.88 371,-416.71 371,-387.28"/>
<polygon fill="black" stroke="black" points="374.5,-387.62 371,-377.62 367.5,-387.62 374.5,-387.62"/>
</g>
<!-- simple_map::add -->
<g id="node8" class="node">
<title>simple_map::add</title>
<ellipse fill="none" stroke="black" cx="471" cy="-358" rx="27" ry="18"/>
<text text-anchor="middle" x="471" y="-354.3" font-family="Times,serif" font-size="14.00">add</text>
</g>
<!-- add_shares&#45;&gt;simple_map::add -->
<g id="edge8" class="edge">
<title>add_shares&#45;&gt;simple_map::add</title>
<path fill="none" stroke="black" d="M382.67,-487.08C400.16,-461.71 433.31,-413.65 453.65,-384.15"/>
<polygon fill="black" stroke="black" points="456.36,-386.39 459.16,-376.17 450.6,-382.42 456.36,-386.39"/>
</g>
<!-- contains -->
<g id="node9" class="node">
<title>contains</title>
<ellipse fill="none" stroke="black" cx="523" cy="-433" rx="40.09" ry="18"/>
<text text-anchor="middle" x="523" y="-429.3" font-family="Times,serif" font-size="14.00">contains</text>
</g>
<!-- add_shares&#45;&gt;contains -->
<g id="edge9" class="edge">
<title>add_shares&#45;&gt;contains</title>
<path fill="none" stroke="black" d="M401.03,-490.17C425.21,-479.03 459.34,-463.32 485.35,-451.34"/>
<polygon fill="black" stroke="black" points="486.59,-454.62 494.21,-447.26 483.66,-448.26 486.59,-454.62"/>
</g>
<!-- amount_to_shares_with_total_coins -->
<g id="node10" class="node">
<title>amount_to_shares_with_total_coins</title>
<ellipse fill="none" stroke="black" cx="727" cy="-433" rx="137.58" ry="18"/>
<text text-anchor="middle" x="727" y="-429.3" font-family="Times,serif" font-size="14.00">amount_to_shares_with_total_coins</text>
</g>
<!-- amount_to_shares&#45;&gt;amount_to_shares_with_total_coins -->
<g id="edge10" class="edge">
<title>amount_to_shares&#45;&gt;amount_to_shares_with_total_coins</title>
<path fill="none" stroke="black" d="M623.41,-488.12C641.56,-478.64 664.87,-466.46 684.79,-456.05"/>
<polygon fill="black" stroke="black" points="686.26,-459.23 693.5,-451.5 683.02,-453.03 686.26,-459.23"/>
</g>
<!-- error::invalid_state&#45;&gt;error::canonical -->
<g id="edge11" class="edge">
<title>error::invalid_state&#45;&gt;error::canonical</title>
<path fill="none" stroke="black" d="M87.13,-265.22C97.44,-253.77 111.27,-238.42 122.83,-225.6"/>
<polygon fill="black" stroke="black" points="125.28,-228.1 129.38,-218.33 120.08,-223.42 125.28,-228.1"/>
</g>
<!-- simple_map::borrow_mut&#45;&gt;error::invalid_argument -->
<g id="edge12" class="edge">
<title>simple_map::borrow_mut&#45;&gt;error::invalid_argument</title>
<path fill="none" stroke="black" d="M334.06,-344.4C324.17,-340.7 313.57,-336.45 304,-332 287.52,-324.33 269.93,-314.66 255.05,-306.02"/>
<polygon fill="black" stroke="black" points="256.93,-303.06 246.54,-301 253.38,-309.09 256.93,-303.06"/>
</g>
<!-- option::extract -->
<g id="node11" class="node">
<title>option::extract</title>
<ellipse fill="none" stroke="black" cx="424" cy="-200" rx="34.39" ry="18"/>
<text text-anchor="middle" x="424" y="-196.3" font-family="Times,serif" font-size="14.00">extract</text>
</g>
<!-- simple_map::borrow_mut&#45;&gt;option::extract -->
<g id="edge13" class="edge">
<title>simple_map::borrow_mut&#45;&gt;option::extract</title>
<path fill="none" stroke="black" d="M376.87,-339.71C386,-312.86 403.65,-260.9 414.57,-228.76"/>
<polygon fill="black" stroke="black" points="417.87,-229.92 417.77,-219.33 411.24,-227.67 417.87,-229.92"/>
</g>
<!-- option::is_some -->
<g id="node12" class="node">
<title>option::is_some</title>
<ellipse fill="none" stroke="black" cx="430" cy="-117" rx="40.09" ry="18"/>
<text text-anchor="middle" x="430" y="-113.3" font-family="Times,serif" font-size="14.00">is_some</text>
</g>
<!-- simple_map::borrow_mut&#45;&gt;option::is_some -->
<g id="edge14" class="edge">
<title>simple_map::borrow_mut&#45;&gt;option::is_some</title>
<path fill="none" stroke="black" d="M362.62,-339.93C347.3,-306.1 318.92,-229.07 348,-174 357.13,-156.7 374.28,-143.74 390.54,-134.67"/>
<polygon fill="black" stroke="black" points="391.86,-137.92 399.12,-130.21 388.63,-131.71 391.86,-137.92"/>
</g>
<!-- simple_map::find -->
<g id="node13" class="node">
<title>simple_map::find</title>
<ellipse fill="none" stroke="black" cx="599" cy="-283" rx="27" ry="18"/>
<text text-anchor="middle" x="599" y="-279.3" font-family="Times,serif" font-size="14.00">find</text>
</g>
<!-- simple_map::borrow_mut&#45;&gt;simple_map::find -->
<g id="edge15" class="edge">
<title>simple_map::borrow_mut&#45;&gt;simple_map::find</title>
<path fill="none" stroke="black" d="M409.16,-344.78C452.48,-330.91 522.52,-308.49 564.33,-295.1"/>
<polygon fill="black" stroke="black" points="565.18,-298.5 573.64,-292.12 563.04,-291.84 565.18,-298.5"/>
</g>
<!-- simple_map::add&#45;&gt;error::invalid_argument -->
<g id="edge16" class="edge">
<title>simple_map::add&#45;&gt;error::invalid_argument</title>
<path fill="none" stroke="black" d="M450.56,-345.72C445.6,-343.44 440.22,-341.34 435,-340 378.5,-325.51 359.94,-348.54 304,-332 285.34,-326.48 266.31,-316.25 251.01,-306.65"/>
<polygon fill="black" stroke="black" points="253.09,-303.83 242.8,-301.32 249.27,-309.7 253.09,-303.83"/>
</g>
<!-- simple_map::add&#45;&gt;option::extract -->
<g id="edge17" class="edge">
<title>simple_map::add&#45;&gt;option::extract</title>
<path fill="none" stroke="black" d="M465.88,-340.01C457.83,-313.28 442.12,-261.15 432.4,-228.88"/>
<polygon fill="black" stroke="black" points="435.79,-227.99 429.55,-219.42 429.08,-230 435.79,-227.99"/>
</g>
<!-- simple_map::add&#45;&gt;simple_map::find -->
<g id="edge19" class="edge">
<title>simple_map::add&#45;&gt;simple_map::find</title>
<path fill="none" stroke="black" d="M491,-345.59C512.04,-333.59 545.38,-314.58 569.45,-300.85"/>
<polygon fill="black" stroke="black" points="570.87,-304.07 577.83,-296.08 567.41,-297.99 570.87,-304.07"/>
</g>
<!-- option::is_none -->
<g id="node14" class="node">
<title>option::is_none</title>
<ellipse fill="none" stroke="black" cx="515" cy="-200" rx="38.19" ry="18"/>
<text text-anchor="middle" x="515" y="-196.3" font-family="Times,serif" font-size="14.00">is_none</text>
</g>
<!-- simple_map::add&#45;&gt;option::is_none -->
<g id="edge18" class="edge">
<title>simple_map::add&#45;&gt;option::is_none</title>
<path fill="none" stroke="black" d="M475.79,-340.01C483.33,-313.28 498.03,-261.15 507.14,-228.88"/>
<polygon fill="black" stroke="black" points="510.46,-230 509.8,-219.43 503.72,-228.1 510.46,-230"/>
</g>
<!-- simple_map::contains_key -->
<g id="node15" class="node">
<title>simple_map::contains_key</title>
<ellipse fill="none" stroke="black" cx="573" cy="-358" rx="57.39" ry="18"/>
<text text-anchor="middle" x="573" y="-354.3" font-family="Times,serif" font-size="14.00">contains_key</text>
</g>
<!-- contains&#45;&gt;simple_map::contains_key -->
<g id="edge20" class="edge">
<title>contains&#45;&gt;simple_map::contains_key</title>
<path fill="none" stroke="black" d="M534.35,-415.44C540.46,-406.51 548.14,-395.29 555.05,-385.21"/>
<polygon fill="black" stroke="black" points="557.73,-387.48 560.5,-377.25 551.96,-383.53 557.73,-387.48"/>
</g>
<!-- multiply_then_divide -->
<g id="node16" class="node">
<title>multiply_then_divide</title>
<ellipse fill="none" stroke="black" cx="735" cy="-358" rx="87.18" ry="18"/>
<text text-anchor="middle" x="735" y="-354.3" font-family="Times,serif" font-size="14.00">multiply_then_divide</text>
</g>
<!-- amount_to_shares_with_total_coins&#45;&gt;multiply_then_divide -->
<g id="edge21" class="edge">
<title>amount_to_shares_with_total_coins&#45;&gt;multiply_then_divide</title>
<path fill="none" stroke="black" d="M728.9,-414.7C729.78,-406.67 730.85,-396.9 731.84,-387.8"/>
<polygon fill="black" stroke="black" points="735.31,-388.26 732.93,-377.93 728.36,-387.49 735.31,-388.26"/>
</g>
<!-- option::extract&#45;&gt;option::is_some -->
<g id="edge22" class="edge">
<title>option::extract&#45;&gt;option::is_some</title>
<path fill="none" stroke="black" d="M425.27,-181.82C426.03,-171.58 427.01,-158.33 427.89,-146.55"/>
<polygon fill="black" stroke="black" points="431.35,-147.17 428.6,-136.94 424.37,-146.66 431.35,-147.17"/>
</g>
<!-- vector::is_empty -->
<g id="node17" class="node">
<title>vector::is_empty</title>
<ellipse fill="none" stroke="black" cx="515" cy="-34" rx="43.59" ry="18"/>
<text text-anchor="middle" x="515" y="-30.3" font-family="Times,serif" font-size="14.00">is_empty</text>
</g>
<!-- option::is_some&#45;&gt;vector::is_empty -->
<g id="edge23" class="edge">
<title>option::is_some&#45;&gt;vector::is_empty</title>
<path fill="none" stroke="black" d="M446.39,-100.38C458.77,-88.58 475.99,-72.18 490.08,-58.75"/>
<polygon fill="black" stroke="black" points="492.45,-61.32 497.28,-51.89 487.62,-56.26 492.45,-61.32"/>
</g>
<!-- option::none -->
<g id="node18" class="node">
<title>option::none</title>
<ellipse fill="none" stroke="black" cx="599" cy="-200" rx="27.9" ry="18"/>
<text text-anchor="middle" x="599" y="-196.3" font-family="Times,serif" font-size="14.00">none</text>
</g>
<!-- simple_map::find&#45;&gt;option::none -->
<g id="edge24" class="edge">
<title>simple_map::find&#45;&gt;option::none</title>
<path fill="none" stroke="black" d="M599,-264.82C599,-254.69 599,-241.6 599,-229.92"/>
<polygon fill="black" stroke="black" points="602.5,-229.95 599,-219.95 595.5,-229.95 602.5,-229.95"/>
</g>
<!-- option::some -->
<g id="node19" class="node">
<title>option::some</title>
<ellipse fill="none" stroke="black" cx="675" cy="-200" rx="29.8" ry="18"/>
<text text-anchor="middle" x="675" y="-196.3" font-family="Times,serif" font-size="14.00">some</text>
</g>
<!-- simple_map::find&#45;&gt;option::some -->
<g id="edge25" class="edge">
<title>simple_map::find&#45;&gt;option::some</title>
<path fill="none" stroke="black" d="M615.36,-268.4C621.99,-262.65 629.58,-255.72 636,-249 642.96,-241.71 650.06,-233.32 656.26,-225.61"/>
<polygon fill="black" stroke="black" points="658.93,-227.87 662.37,-217.85 653.43,-223.54 658.93,-227.87"/>
</g>
<!-- comparator::compare -->
<g id="node20" class="node">
<title>comparator::compare</title>
<ellipse fill="none" stroke="black" cx="875" cy="-200" rx="41.69" ry="18"/>
<text text-anchor="middle" x="875" y="-196.3" font-family="Times,serif" font-size="14.00">compare</text>
</g>
<!-- simple_map::find&#45;&gt;comparator::compare -->
<g id="edge26" class="edge">
<title>simple_map::find&#45;&gt;comparator::compare</title>
<path fill="none" stroke="black" d="M623.33,-274.82C640.74,-269.72 664.77,-262.79 686,-257 699.73,-253.26 703.3,-252.85 717,-249 755.89,-238.08 799.83,-224.64 831.48,-214.76"/>
<polygon fill="black" stroke="black" points="832.19,-218.21 840.69,-211.88 830.1,-211.53 832.19,-218.21"/>
</g>
<!-- comparator::is_smaller_than -->
<g id="node21" class="node">
<title>comparator::is_smaller_than</title>
<ellipse fill="none" stroke="black" cx="1002" cy="-200" rx="66.89" ry="18"/>
<text text-anchor="middle" x="1002" y="-196.3" font-family="Times,serif" font-size="14.00">is_smaller_than</text>
</g>
<!-- simple_map::find&#45;&gt;comparator::is_smaller_than -->
<g id="edge27" class="edge">
<title>simple_map::find&#45;&gt;comparator::is_smaller_than</title>
<path fill="none" stroke="black" d="M622.28,-273.61C639.6,-267.79 663.96,-260.48 686,-257 738.71,-248.68 874.99,-264.68 926,-249 942.8,-243.83 959.54,-233.92 973.01,-224.43"/>
<polygon fill="black" stroke="black" points="974.99,-227.32 980.97,-218.58 970.84,-221.68 974.99,-227.32"/>
</g>
<!-- option::is_none&#45;&gt;vector::is_empty -->
<g id="edge28" class="edge">
<title>option::is_none&#45;&gt;vector::is_empty</title>
<path fill="none" stroke="black" d="M515,-181.76C515,-153.63 515,-97.6 515,-63.49"/>
<polygon fill="black" stroke="black" points="518.5,-63.52 515,-53.52 511.5,-63.52 518.5,-63.52"/>
</g>
<!-- simple_map::contains_key&#45;&gt;option::is_some -->
<g id="edge29" class="edge">
<title>simple_map::contains_key&#45;&gt;option::is_some</title>
<path fill="none" stroke="black" d="M528.7,-346.16C482.56,-332.24 412.66,-303.14 381,-249 364.17,-220.23 369.28,-205.2 381,-174 385.63,-161.69 394.33,-150.31 403.12,-141.07"/>
<polygon fill="black" stroke="black" points="405.36,-143.78 410.04,-134.28 400.45,-138.79 405.36,-143.78"/>
</g>
<!-- simple_map::contains_key&#45;&gt;simple_map::find -->
<g id="edge30" class="edge">
<title>simple_map::contains_key&#45;&gt;simple_map::find</title>
<path fill="none" stroke="black" d="M579.16,-339.7C582.16,-331.28 585.84,-320.94 589.21,-311.48"/>
<polygon fill="black" stroke="black" points="592.41,-312.94 592.46,-302.35 585.81,-310.6 592.41,-312.94"/>
</g>
<!-- to_u128 -->
<g id="node22" class="node">
<title>to_u128</title>
<ellipse fill="none" stroke="black" cx="735" cy="-283" rx="39.79" ry="18"/>
<text text-anchor="middle" x="735" y="-279.3" font-family="Times,serif" font-size="14.00">to_u128</text>
</g>
<!-- multiply_then_divide&#45;&gt;to_u128 -->
<g id="edge31" class="edge">
<title>multiply_then_divide&#45;&gt;to_u128</title>
<path fill="none" stroke="black" d="M735,-339.7C735,-331.67 735,-321.9 735,-312.8"/>
<polygon fill="black" stroke="black" points="738.5,-312.94 735,-302.94 731.5,-312.94 738.5,-312.94"/>
</g>
<!-- vector::singleton -->
<g id="node23" class="node">
<title>vector::singleton</title>
<ellipse fill="none" stroke="black" cx="619" cy="-34" rx="42.79" ry="18"/>
<text text-anchor="middle" x="619" y="-30.3" font-family="Times,serif" font-size="14.00">singleton</text>
</g>
<!-- option::some&#45;&gt;vector::singleton -->
<g id="edge32" class="edge">
<title>option::some&#45;&gt;vector::singleton</title>
<path fill="none" stroke="black" d="M669.22,-182.07C659.58,-153.83 640.13,-96.87 628.47,-62.72"/>
<polygon fill="black" stroke="black" points="631.87,-61.85 625.32,-53.52 625.24,-64.11 631.87,-61.85"/>
</g>
<!-- bcs::to_bytes -->
<g id="node24" class="node">
<title>bcs::to_bytes</title>
<ellipse fill="none" stroke="black" cx="769" cy="-117" rx="40.09" ry="18"/>
<text text-anchor="middle" x="769" y="-113.3" font-family="Times,serif" font-size="14.00">to_bytes</text>
</g>
<!-- comparator::compare&#45;&gt;bcs::to_bytes -->
<g id="edge33" class="edge">
<title>comparator::compare&#45;&gt;bcs::to_bytes</title>
<path fill="none" stroke="black" d="M850.14,-185.2C840.74,-179.63 830.12,-172.89 821,-166 811.29,-158.67 801.32,-149.83 792.73,-141.74"/>
<polygon fill="black" stroke="black" points="795.4,-139.45 785.76,-135.04 790.55,-144.5 795.4,-139.45"/>
</g>
<!-- comparator::compare_u8_vector -->
<g id="node25" class="node">
<title>comparator::compare_u8_vector</title>
<ellipse fill="none" stroke="black" cx="914" cy="-117" rx="81.49" ry="18"/>
<text text-anchor="middle" x="914" y="-113.3" font-family="Times,serif" font-size="14.00">compare_u8_vector</text>
</g>
<!-- comparator::compare&#45;&gt;comparator::compare_u8_vector -->
<g id="edge34" class="edge">
<title>comparator::compare&#45;&gt;comparator::compare_u8_vector</title>
<path fill="none" stroke="black" d="M883.08,-182.22C888.19,-171.61 894.91,-157.65 900.78,-145.45"/>
<polygon fill="black" stroke="black" points="903.82,-147.21 905,-136.68 897.51,-144.18 903.82,-147.21"/>
</g>
</g>
</svg>
