<?xml version="1.0" encoding="UTF-8" standalone="no"?>
<!DOCTYPE svg PUBLIC "-//W3C//DTD SVG 1.1//EN"
 "http://www.w3.org/Graphics/SVG/1.1/DTD/svg11.dtd">
<!-- Generated by graphviz version 7.0.0 (20221023.0053)
 -->
<!-- Title: G Pages: 1 -->
<svg width="1236pt" height="603pt"
 viewBox="0.00 0.00 1235.98 603.00" xmlns="http://www.w3.org/2000/svg" xmlns:xlink="http://www.w3.org/1999/xlink">
<g id="graph0" class="graph" transform="scale(1 1) rotate(0) translate(4 599)">
<title>G</title>
<polygon fill="white" stroke="none" points="-4,4 -4,-599 1231.98,-599 1231.98,4 -4,4"/>
<g id="clust1" class="cluster">
<title>cluster_error</title>
<polygon fill="none" stroke="black" points="8,-174 8,-332 300,-332 300,-174 8,-174"/>
<text text-anchor="middle" x="154" y="-316.8" font-family="Times,serif" font-size="14.00">error</text>
</g>
<g id="clust2" class="cluster">
<title>cluster_simple_map</title>
<polygon fill="none" stroke="black" points="338,-257 338,-407 851,-407 851,-257 338,-257"/>
<text text-anchor="middle" x="594.5" y="-391.8" font-family="Times,serif" font-size="14.00">simple_map</text>
</g>
<g id="clust3" class="cluster">
<title>cluster_vector</title>
<polygon fill="none" stroke="black" points="484,-8 484,-83 886,-83 886,-8 484,-8"/>
<text text-anchor="middle" x="685" y="-67.8" font-family="Times,serif" font-size="14.00">vector</text>
</g>
<g id="clust4" class="cluster">
<title>cluster_option</title>
<polygon fill="none" stroke="black" points="496,-91 496,-249 827,-249 827,-91 496,-91"/>
<text text-anchor="middle" x="661.5" y="-233.8" font-family="Times,serif" font-size="14.00">option</text>
</g>
<g id="clust5" class="cluster">
<title>cluster_comparator</title>
<polygon fill="none" stroke="black" points="939,-91 939,-249 1191,-249 1191,-91 939,-91"/>
<text text-anchor="middle" x="1065" y="-233.8" font-family="Times,serif" font-size="14.00">comparator</text>
</g>
<g id="clust6" class="cluster">
<title>cluster_bcs</title>
<polygon fill="none" stroke="black" points="835,-91 835,-166 931,-166 931,-91 835,-91"/>
<text text-anchor="middle" x="883" y="-150.8" font-family="Times,serif" font-size="14.00">bcs</text>
</g>
<!-- transfer_shares -->
<g id="node1" class="node">
<title>transfer_shares</title>
<ellipse fill="none" stroke="black" cx="517" cy="-577" rx="63.89" ry="18"/>
<text text-anchor="middle" x="517" y="-573.3" font-family="Times,serif" font-size="14.00">transfer_shares</text>
</g>
<!-- error::invalid_argument -->
<g id="node2" class="node">
<title>error::invalid_argument</title>
<ellipse fill="none" stroke="black" cx="219" cy="-283" rx="73.39" ry="18"/>
<text text-anchor="middle" x="219" y="-279.3" font-family="Times,serif" font-size="14.00">invalid_argument</text>
</g>
<!-- transfer_shares&#45;&gt;error::invalid_argument -->
<g id="edge1" class="edge">
<title>transfer_shares&#45;&gt;error::invalid_argument</title>
<path fill="none" stroke="black" d="M475.75,-562.82C421.93,-544.17 326.77,-506.11 260,-451 241.15,-435.44 235.48,-429.93 227,-407 215.65,-376.3 215,-338.37 216.33,-312.81"/>
<polygon fill="black" stroke="black" points="219.82,-313.07 216.99,-302.86 212.83,-312.6 219.82,-313.07"/>
</g>
<!-- contains -->
<g id="node3" class="node">
<title>contains</title>
<ellipse fill="none" stroke="black" cx="939" cy="-358" rx="40.09" ry="18"/>
<text text-anchor="middle" x="939" y="-354.3" font-family="Times,serif" font-size="14.00">contains</text>
</g>
<!-- transfer_shares&#45;&gt;contains -->
<g id="edge2" class="edge">
<title>transfer_shares&#45;&gt;contains</title>
<path fill="none" stroke="black" d="M580.96,-575.62C670.92,-571.38 833.48,-549.53 920,-451 935.13,-433.77 939.37,-407.71 940.12,-387.72"/>
<polygon fill="black" stroke="black" points="943.62,-388.02 940.2,-377.99 936.62,-387.96 943.62,-388.02"/>
</g>
<!-- add_shares -->
<g id="node4" class="node">
<title>add_shares</title>
<ellipse fill="none" stroke="black" cx="401" cy="-433" rx="50.09" ry="18"/>
<text text-anchor="middle" x="401" y="-429.3" font-family="Times,serif" font-size="14.00">add_shares</text>
</g>
<!-- transfer_shares&#45;&gt;add_shares -->
<g id="edge3" class="edge">
<title>transfer_shares&#45;&gt;add_shares</title>
<path fill="none" stroke="black" d="M491.19,-560.13C477.18,-550.61 460.27,-537.55 448,-523 432.44,-504.55 419.99,-480.11 411.82,-461.5"/>
<polygon fill="black" stroke="black" points="415.11,-460.29 408,-452.44 408.66,-463.01 415.11,-460.29"/>
</g>
<!-- deduct_shares -->
<g id="node5" class="node">
<title>deduct_shares</title>
<ellipse fill="none" stroke="black" cx="517" cy="-505" rx="60.39" ry="18"/>
<text text-anchor="middle" x="517" y="-501.3" font-family="Times,serif" font-size="14.00">deduct_shares</text>
</g>
<!-- transfer_shares&#45;&gt;deduct_shares -->
<g id="edge4" class="edge">
<title>transfer_shares&#45;&gt;deduct_shares</title>
<path fill="none" stroke="black" d="M517,-558.7C517,-551.41 517,-542.73 517,-534.54"/>
<polygon fill="black" stroke="black" points="520.5,-534.62 517,-524.62 513.5,-534.62 520.5,-534.62"/>
</g>
<!-- shares -->
<g id="node6" class="node">
<title>shares</title>
<ellipse fill="none" stroke="black" cx="879" cy="-433" rx="32.49" ry="18"/>
<text text-anchor="middle" x="879" y="-429.3" font-family="Times,serif" font-size="14.00">shares</text>
</g>
<!-- transfer_shares&#45;&gt;shares -->
<g id="edge5" class="edge">
<title>transfer_shares&#45;&gt;shares</title>
<path fill="none" stroke="black" d="M553.37,-561.73C622.8,-534.5 773.51,-475.38 842.81,-448.2"/>
<polygon fill="black" stroke="black" points="843.77,-451.58 851.8,-444.67 841.21,-445.06 843.77,-451.58"/>
</g>
<!-- error::canonical -->
<g id="node7" class="node">
<title>error::canonical</title>
<ellipse fill="none" stroke="black" cx="145" cy="-200" rx="44.39" ry="18"/>
<text text-anchor="middle" x="145" y="-196.3" font-family="Times,serif" font-size="14.00">canonical</text>
</g>
<!-- error::invalid_argument&#45;&gt;error::canonical -->
<g id="edge6" class="edge">
<title>error::invalid_argument&#45;&gt;error::canonical</title>
<path fill="none" stroke="black" d="M203.67,-265.22C193.21,-253.77 179.19,-238.42 167.48,-225.6"/>
<polygon fill="black" stroke="black" points="170.16,-223.35 160.83,-218.33 164.99,-228.07 170.16,-223.35"/>
</g>
<!-- simple_map::contains_key -->
<g id="node8" class="node">
<title>simple_map::contains_key</title>
<ellipse fill="none" stroke="black" cx="786" cy="-358" rx="57.39" ry="18"/>
<text text-anchor="middle" x="786" y="-354.3" font-family="Times,serif" font-size="14.00">contains_key</text>
</g>
<!-- contains&#45;&gt;simple_map::contains_key -->
<g id="edge7" class="edge">
<title>contains&#45;&gt;simple_map::contains_key</title>
<path fill="none" stroke="black" d="M898.41,-358C883.87,-358 869.33,-358 854.79,-358"/>
<polygon fill="black" stroke="black" points="855.19,-354.5 845.19,-358 855.19,-361.5 855.19,-354.5"/>
</g>
<!-- add_shares&#45;&gt;error::invalid_argument -->
<g id="edge8" class="edge">
<title>add_shares&#45;&gt;error::invalid_argument</title>
<path fill="none" stroke="black" d="M362.66,-421.14C352.87,-417.47 342.68,-412.79 334,-407 294.18,-380.45 258.27,-337.56 237.54,-310.09"/>
<polygon fill="black" stroke="black" points="240.52,-308.23 231.76,-302.28 234.9,-312.4 240.52,-308.23"/>
</g>
<!-- add_shares&#45;&gt;contains -->
<g id="edge12" class="edge">
<title>add_shares&#45;&gt;contains</title>
<path fill="none" stroke="black" d="M450.82,-430.55C560.7,-427.17 817.1,-418.19 855,-407 874.43,-401.27 894.19,-390.28 909.66,-380.27"/>
<polygon fill="black" stroke="black" points="911.55,-383.22 917.91,-374.74 907.65,-377.4 911.55,-383.22"/>
</g>
<!-- error::invalid_state -->
<g id="node9" class="node">
<title>error::invalid_state</title>
<ellipse fill="none" stroke="black" cx="72" cy="-283" rx="55.79" ry="18"/>
<text text-anchor="middle" x="72" y="-279.3" font-family="Times,serif" font-size="14.00">invalid_state</text>
</g>
<!-- add_shares&#45;&gt;error::invalid_state -->
<g id="edge9" class="edge">
<title>add_shares&#45;&gt;error::invalid_state</title>
<path fill="none" stroke="black" d="M352.47,-428.03C324.46,-424.62 288.96,-418.37 259,-407 196.64,-383.33 133.83,-336.1 99.21,-307.55"/>
<polygon fill="black" stroke="black" points="101.7,-305.07 91.79,-301.34 97.21,-310.44 101.7,-305.07"/>
</g>
<!-- simple_map::borrow_mut -->
<g id="node10" class="node">
<title>simple_map::borrow_mut</title>
<ellipse fill="none" stroke="black" cx="401" cy="-358" rx="54.69" ry="18"/>
<text text-anchor="middle" x="401" y="-354.3" font-family="Times,serif" font-size="14.00">borrow_mut</text>
</g>
<!-- add_shares&#45;&gt;simple_map::borrow_mut -->
<g id="edge10" class="edge">
<title>add_shares&#45;&gt;simple_map::borrow_mut</title>
<path fill="none" stroke="black" d="M401,-414.7C401,-406.67 401,-396.9 401,-387.8"/>
<polygon fill="black" stroke="black" points="404.5,-387.94 401,-377.94 397.5,-387.94 404.5,-387.94"/>
</g>
<!-- simple_map::add -->
<g id="node11" class="node">
<title>simple_map::add</title>
<ellipse fill="none" stroke="black" cx="684" cy="-358" rx="27" ry="18"/>
<text text-anchor="middle" x="684" y="-354.3" font-family="Times,serif" font-size="14.00">add</text>
</g>
<!-- add_shares&#45;&gt;simple_map::add -->
<g id="edge11" class="edge">
<title>add_shares&#45;&gt;simple_map::add</title>
<path fill="none" stroke="black" d="M451.28,-431.61C513.56,-430.33 615.44,-425.39 648,-407 657,-401.92 664.43,-393.57 670.15,-385.25"/>
<polygon fill="black" stroke="black" points="672.99,-387.32 675.29,-376.97 667.04,-383.63 672.99,-387.32"/>
</g>
<!-- deduct_shares&#45;&gt;error::invalid_argument -->
<g id="edge15" class="edge">
<title>deduct_shares&#45;&gt;error::invalid_argument</title>
<path fill="none" stroke="black" d="M460.64,-498.2C415.89,-491.72 352.92,-478.3 304,-451 279.57,-437.37 273.75,-430.77 259,-407 240.62,-377.39 229.82,-338.46 224.17,-312.41"/>
<polygon fill="black" stroke="black" points="227.66,-312 222.23,-302.9 220.8,-313.4 227.66,-312"/>
</g>
<!-- deduct_shares&#45;&gt;contains -->
<g id="edge18" class="edge">
<title>deduct_shares&#45;&gt;contains</title>
<path fill="none" stroke="black" d="M571.51,-496.93C640.84,-487.37 756.21,-469.39 795,-451 817.52,-440.32 815.37,-425.45 838,-415 857.24,-406.11 865.9,-416.17 885,-407 897.12,-401.18 908.56,-391.82 917.76,-382.9"/>
<polygon fill="black" stroke="black" points="919.99,-385.63 924.48,-376.04 914.98,-380.74 919.99,-385.63"/>
</g>
<!-- deduct_shares&#45;&gt;shares -->
<g id="edge19" class="edge">
<title>deduct_shares&#45;&gt;shares</title>
<path fill="none" stroke="black" d="M573.04,-497.83C636.75,-490.07 743.5,-474.82 833,-451 836.16,-450.16 839.41,-449.19 842.65,-448.14"/>
<polygon fill="black" stroke="black" points="843.75,-451.47 852.06,-444.89 841.46,-444.85 843.75,-451.47"/>
</g>
<!-- deduct_shares&#45;&gt;simple_map::borrow_mut -->
<g id="edge16" class="edge">
<title>deduct_shares&#45;&gt;simple_map::borrow_mut</title>
<path fill="none" stroke="black" d="M507.63,-486.77C497.17,-468.2 479.17,-438.2 460,-415 450.58,-403.6 439,-392.16 428.6,-382.62"/>
<polygon fill="black" stroke="black" points="431.12,-380.18 421.34,-376.1 426.45,-385.39 431.12,-380.18"/>
</g>
<!-- vector::index_of -->
<g id="node12" class="node">
<title>vector::index_of</title>
<ellipse fill="none" stroke="black" cx="836" cy="-34" rx="42.49" ry="18"/>
<text text-anchor="middle" x="836" y="-30.3" font-family="Times,serif" font-size="14.00">index_of</text>
</g>
<!-- deduct_shares&#45;&gt;vector::index_of -->
<g id="edge13" class="edge">
<title>deduct_shares&#45;&gt;vector::index_of</title>
<path fill="none" stroke="black" d="M552.86,-490.25C605.28,-470.68 706.25,-434.96 795,-415 821.25,-409.1 832.96,-422.43 855,-407 882.52,-387.73 864.08,-361.38 890,-340 999.13,-249.99 1110.47,-362.43 1195,-249 1236.96,-192.69 1240.67,-144.34 1195,-91 1156.39,-45.9 980.44,-36.85 890.01,-35.21"/>
<polygon fill="black" stroke="black" points="890.2,-31.72 880.15,-35.06 890.09,-38.72 890.2,-31.72"/>
</g>
<!-- vector::remove -->
<g id="node13" class="node">
<title>vector::remove</title>
<ellipse fill="none" stroke="black" cx="530" cy="-34" rx="37.89" ry="18"/>
<text text-anchor="middle" x="530" y="-30.3" font-family="Times,serif" font-size="14.00">remove</text>
</g>
<!-- deduct_shares&#45;&gt;vector::remove -->
<g id="edge14" class="edge">
<title>deduct_shares&#45;&gt;vector::remove</title>
<path fill="none" stroke="black" d="M457.48,-501.33C419.03,-496.35 370.95,-483.46 342,-451 312.52,-417.95 310.91,-343.04 334,-257 358.67,-165.06 450.19,-89.98 498.95,-55.47"/>
<polygon fill="black" stroke="black" points="500.64,-58.56 506.85,-49.98 496.64,-52.81 500.64,-58.56"/>
</g>
<!-- simple_map::remove -->
<g id="node14" class="node">
<title>simple_map::remove</title>
<ellipse fill="none" stroke="black" cx="511" cy="-358" rx="37.89" ry="18"/>
<text text-anchor="middle" x="511" y="-354.3" font-family="Times,serif" font-size="14.00">remove</text>
</g>
<!-- deduct_shares&#45;&gt;simple_map::remove -->
<g id="edge17" class="edge">
<title>deduct_shares&#45;&gt;simple_map::remove</title>
<path fill="none" stroke="black" d="M516.28,-486.51C515.26,-461.88 513.39,-416.71 512.17,-387.28"/>
<polygon fill="black" stroke="black" points="515.68,-387.46 511.77,-377.61 508.69,-387.75 515.68,-387.46"/>
</g>
<!-- shares&#45;&gt;contains -->
<g id="edge21" class="edge">
<title>shares&#45;&gt;contains</title>
<path fill="none" stroke="black" d="M892.02,-416.16C899.7,-406.82 909.59,-394.79 918.31,-384.17"/>
<polygon fill="black" stroke="black" points="920.98,-386.43 924.63,-376.48 915.58,-381.99 920.98,-386.43"/>
</g>
<!-- simple_map::borrow -->
<g id="node15" class="node">
<title>simple_map::borrow</title>
<ellipse fill="none" stroke="black" cx="603" cy="-358" rx="36.29" ry="18"/>
<text text-anchor="middle" x="603" y="-354.3" font-family="Times,serif" font-size="14.00">borrow</text>
</g>
<!-- shares&#45;&gt;simple_map::borrow -->
<g id="edge20" class="edge">
<title>shares&#45;&gt;simple_map::borrow</title>
<path fill="none" stroke="black" d="M846.39,-431.24C791.18,-429.5 682.02,-423.97 648,-407 637.38,-401.7 627.97,-392.8 620.53,-384.09"/>
<polygon fill="black" stroke="black" points="623.42,-382.1 614.47,-376.42 617.93,-386.44 623.42,-382.1"/>
</g>
<!-- option::is_some -->
<g id="node16" class="node">
<title>option::is_some</title>
<ellipse fill="none" stroke="black" cx="544" cy="-117" rx="40.09" ry="18"/>
<text text-anchor="middle" x="544" y="-113.3" font-family="Times,serif" font-size="14.00">is_some</text>
</g>
<!-- simple_map::contains_key&#45;&gt;option::is_some -->
<g id="edge22" class="edge">
<title>simple_map::contains_key&#45;&gt;option::is_some</title>
<path fill="none" stroke="black" d="M743.12,-345.62C735.44,-343.68 727.49,-341.73 720,-340 702.76,-336.01 697.75,-337.7 681,-332 608.92,-307.49 598.54,-283.04 527,-257 513.22,-251.99 504.02,-260.56 495,-249 474.49,-222.73 483.28,-205.2 495,-174 499.63,-161.69 508.33,-150.31 517.12,-141.07"/>
<polygon fill="black" stroke="black" points="519.36,-143.78 524.04,-134.28 514.45,-138.79 519.36,-143.78"/>
</g>
<!-- simple_map::find -->
<g id="node17" class="node">
<title>simple_map::find</title>
<ellipse fill="none" stroke="black" cx="717" cy="-283" rx="27" ry="18"/>
<text text-anchor="middle" x="717" y="-279.3" font-family="Times,serif" font-size="14.00">find</text>
</g>
<!-- simple_map::contains_key&#45;&gt;simple_map::find -->
<g id="edge23" class="edge">
<title>simple_map::contains_key&#45;&gt;simple_map::find</title>
<path fill="none" stroke="black" d="M770.34,-340.44C760.93,-330.48 748.82,-317.66 738.52,-306.76"/>
<polygon fill="black" stroke="black" points="741.18,-304.49 731.77,-299.62 736.09,-309.29 741.18,-304.49"/>
</g>
<!-- error::invalid_state&#45;&gt;error::canonical -->
<g id="edge24" class="edge">
<title>error::invalid_state&#45;&gt;error::canonical</title>
<path fill="none" stroke="black" d="M87.13,-265.22C97.44,-253.77 111.27,-238.42 122.83,-225.6"/>
<polygon fill="black" stroke="black" points="125.28,-228.1 129.38,-218.33 120.08,-223.42 125.28,-228.1"/>
</g>
<!-- simple_map::borrow_mut&#45;&gt;error::invalid_argument -->
<g id="edge25" class="edge">
<title>simple_map::borrow_mut&#45;&gt;error::invalid_argument</title>
<path fill="none" stroke="black" d="M365.44,-344.02C355.25,-340.22 344.16,-336.01 334,-332 311.13,-322.96 285.89,-312.49 264.9,-303.63"/>
<polygon fill="black" stroke="black" points="266.31,-300.43 255.74,-299.75 263.58,-306.87 266.31,-300.43"/>
</g>
<!-- simple_map::borrow_mut&#45;&gt;option::is_some -->
<g id="edge27" class="edge">
<title>simple_map::borrow_mut&#45;&gt;option::is_some</title>
<path fill="none" stroke="black" d="M396.16,-339.7C387.49,-304.8 373.35,-224.94 409,-174 428.48,-146.17 464.51,-132.13 494.46,-125.07"/>
<polygon fill="black" stroke="black" points="495.06,-128.52 504.1,-123.01 493.59,-121.67 495.06,-128.52"/>
</g>
<!-- simple_map::borrow_mut&#45;&gt;simple_map::find -->
<g id="edge28" class="edge">
<title>simple_map::borrow_mut&#45;&gt;simple_map::find</title>
<path fill="none" stroke="black" d="M441.94,-345.66C449.27,-343.72 456.85,-341.76 464,-340 540.65,-321.19 631.06,-301.86 680.37,-291.56"/>
<polygon fill="black" stroke="black" points="680.86,-295.03 689.93,-289.57 679.43,-288.18 680.86,-295.03"/>
</g>
<!-- option::extract -->
<g id="node18" class="node">
<title>option::extract</title>
<ellipse fill="none" stroke="black" cx="538" cy="-200" rx="34.39" ry="18"/>
<text text-anchor="middle" x="538" y="-196.3" font-family="Times,serif" font-size="14.00">extract</text>
</g>
<!-- simple_map::borrow_mut&#45;&gt;option::extract -->
<g id="edge26" class="edge">
<title>simple_map::borrow_mut&#45;&gt;option::extract</title>
<path fill="none" stroke="black" d="M415.66,-340.31C440.02,-312.57 488.9,-256.91 516.94,-224.98"/>
<polygon fill="black" stroke="black" points="519.29,-227.61 523.26,-217.78 514.03,-222.99 519.29,-227.61"/>
</g>
<!-- simple_map::add&#45;&gt;error::invalid_argument -->
<g id="edge29" class="edge">
<title>simple_map::add&#45;&gt;error::invalid_argument</title>
<path fill="none" stroke="black" d="M663.98,-345.76C658.91,-343.42 653.38,-341.28 648,-340 580.09,-323.86 402.26,-346.58 334,-332 307.82,-326.41 280.08,-315.01 258.4,-304.72"/>
<polygon fill="black" stroke="black" points="260.16,-301.68 249.64,-300.45 257.1,-307.98 260.16,-301.68"/>
</g>
<!-- simple_map::add&#45;&gt;simple_map::find -->
<g id="edge32" class="edge">
<title>simple_map::add&#45;&gt;simple_map::find</title>
<path fill="none" stroke="black" d="M691.49,-340.44C695.43,-331.72 700.35,-320.83 704.82,-310.94"/>
<polygon fill="black" stroke="black" points="707.87,-312.69 708.8,-302.13 701.5,-309.8 707.87,-312.69"/>
</g>
<!-- simple_map::add&#45;&gt;option::extract -->
<g id="edge30" class="edge">
<title>simple_map::add&#45;&gt;option::extract</title>
<path fill="none" stroke="black" d="M663.51,-345.88C657.2,-341.95 650.49,-337.2 645,-332 615.18,-303.75 618.52,-287.5 591,-257 587.41,-253.03 585.81,-252.76 582,-249 574.31,-241.43 566.24,-232.83 559.14,-225.02"/>
<polygon fill="black" stroke="black" points="562.18,-223.17 552.89,-218.07 556.97,-227.85 562.18,-223.17"/>
</g>
<!-- option::is_none -->
<g id="node19" class="node">
<title>option::is_none</title>
<ellipse fill="none" stroke="black" cx="629" cy="-200" rx="38.19" ry="18"/>
<text text-anchor="middle" x="629" y="-196.3" font-family="Times,serif" font-size="14.00">is_none</text>
</g>
<!-- simple_map::add&#45;&gt;option::is_none -->
<g id="edge31" class="edge">
<title>simple_map::add&#45;&gt;option::is_none</title>
<path fill="none" stroke="black" d="M678.01,-340.01C668.55,-313.17 650.05,-260.69 638.68,-228.45"/>
<polygon fill="black" stroke="black" points="642.11,-227.67 635.49,-219.4 635.51,-229.99 642.11,-227.67"/>
</g>
<!-- simple_map::remove&#45;&gt;error::invalid_argument -->
<g id="edge33" class="edge">
<title>simple_map::remove&#45;&gt;error::invalid_argument</title>
<path fill="none" stroke="black" d="M483.66,-345.41C477.61,-343.27 471.17,-341.3 465,-340 407.92,-327.98 390.82,-345.2 334,-332 308.1,-325.99 280.57,-314.68 258.94,-304.56"/>
<polygon fill="black" stroke="black" points="260.72,-301.53 250.19,-300.36 257.69,-307.84 260.72,-301.53"/>
</g>
<!-- simple_map::remove&#45;&gt;option::is_some -->
<g id="edge35" class="edge">
<title>simple_map::remove&#45;&gt;option::is_some</title>
<path fill="none" stroke="black" d="M493.33,-341.63C458.36,-309.31 386.77,-232.45 424,-174 439.83,-149.14 469.9,-135.14 495.97,-127.35"/>
<polygon fill="black" stroke="black" points="496.66,-130.79 505.39,-124.78 494.82,-124.04 496.66,-130.79"/>
</g>
<!-- simple_map::remove&#45;&gt;simple_map::find -->
<g id="edge36" class="edge">
<title>simple_map::remove&#45;&gt;simple_map::find</title>
<path fill="none" stroke="black" d="M540.57,-346.26C546.35,-344.18 552.36,-342.01 558,-340 600.9,-324.69 650.41,-307.29 682.63,-296.01"/>
<polygon fill="black" stroke="black" points="683.56,-299.39 691.84,-292.79 681.25,-292.79 683.56,-299.39"/>
</g>
<!-- simple_map::remove&#45;&gt;option::extract -->
<g id="edge34" class="edge">
<title>simple_map::remove&#45;&gt;option::extract</title>
<path fill="none" stroke="black" d="M513.99,-339.71C518.59,-313.12 527.46,-261.9 533.03,-229.69"/>
<polygon fill="black" stroke="black" points="536.48,-230.31 534.74,-219.86 529.58,-229.12 536.48,-230.31"/>
</g>
<!-- simple_map::borrow&#45;&gt;error::invalid_argument -->
<g id="edge37" class="edge">
<title>simple_map::borrow&#45;&gt;error::invalid_argument</title>
<path fill="none" stroke="black" d="M576.29,-345.29C570.37,-343.15 564.06,-341.22 558,-340 460.34,-320.36 431.31,-353.31 334,-332 307.85,-326.27 280.11,-314.87 258.42,-304.61"/>
<polygon fill="black" stroke="black" points="260.19,-301.58 249.66,-300.36 257.13,-307.87 260.19,-301.58"/>
</g>
<!-- simple_map::borrow&#45;&gt;option::is_some -->
<g id="edge39" class="edge">
<title>simple_map::borrow&#45;&gt;option::is_some</title>
<path fill="none" stroke="black" d="M578.16,-344.39C571.45,-340.67 564.3,-336.4 558,-332 546.44,-323.92 467.86,-261.82 462,-249 448.14,-218.69 446.44,-203.48 462,-174 471.13,-156.7 488.28,-143.74 504.54,-134.67"/>
<polygon fill="black" stroke="black" points="505.86,-137.92 513.12,-130.21 502.63,-131.71 505.86,-137.92"/>
</g>
<!-- simple_map::borrow&#45;&gt;simple_map::find -->
<g id="edge40" class="edge">
<title>simple_map::borrow&#45;&gt;simple_map::find</title>
<path fill="none" stroke="black" d="M624.71,-343.1C642.84,-331.49 668.81,-314.86 688.59,-302.19"/>
<polygon fill="black" stroke="black" points="690.21,-305.31 696.74,-296.97 686.44,-299.42 690.21,-305.31"/>
</g>
<!-- simple_map::borrow&#45;&gt;option::extract -->
<g id="edge38" class="edge">
<title>simple_map::borrow&#45;&gt;option::extract</title>
<path fill="none" stroke="black" d="M595.92,-340.01C584.74,-313.17 562.87,-260.69 549.44,-228.45"/>
<polygon fill="black" stroke="black" points="552.73,-227.25 545.65,-219.37 546.27,-229.94 552.73,-227.25"/>
</g>
<!-- vector::is_empty -->
<g id="node20" class="node">
<title>vector::is_empty</title>
<ellipse fill="none" stroke="black" cx="629" cy="-34" rx="43.59" ry="18"/>
<text text-anchor="middle" x="629" y="-30.3" font-family="Times,serif" font-size="14.00">is_empty</text>
</g>
<!-- option::is_some&#45;&gt;vector::is_empty -->
<g id="edge41" class="edge">
<title>option::is_some&#45;&gt;vector::is_empty</title>
<path fill="none" stroke="black" d="M560.39,-100.38C572.77,-88.58 589.99,-72.18 604.08,-58.75"/>
<polygon fill="black" stroke="black" points="606.45,-61.32 611.28,-51.89 601.62,-56.26 606.45,-61.32"/>
</g>
<!-- option::none -->
<g id="node21" class="node">
<title>option::none</title>
<ellipse fill="none" stroke="black" cx="713" cy="-200" rx="27.9" ry="18"/>
<text text-anchor="middle" x="713" y="-196.3" font-family="Times,serif" font-size="14.00">none</text>
</g>
<!-- simple_map::find&#45;&gt;option::none -->
<g id="edge42" class="edge">
<title>simple_map::find&#45;&gt;option::none</title>
<path fill="none" stroke="black" d="M716.15,-264.82C715.65,-254.69 715,-241.6 714.43,-229.92"/>
<polygon fill="black" stroke="black" points="717.92,-229.76 713.94,-219.94 710.93,-230.1 717.92,-229.76"/>
</g>
<!-- option::some -->
<g id="node22" class="node">
<title>option::some</title>
<ellipse fill="none" stroke="black" cx="789" cy="-200" rx="29.8" ry="18"/>
<text text-anchor="middle" x="789" y="-196.3" font-family="Times,serif" font-size="14.00">some</text>
</g>
<!-- simple_map::find&#45;&gt;option::some -->
<g id="edge43" class="edge">
<title>simple_map::find&#45;&gt;option::some</title>
<path fill="none" stroke="black" d="M731.79,-267.86C737.6,-262.13 744.25,-255.38 750,-249 756.65,-241.63 763.58,-233.33 769.72,-225.72"/>
<polygon fill="black" stroke="black" points="772.31,-228.09 775.81,-218.09 766.84,-223.72 772.31,-228.09"/>
</g>
<!-- comparator::compare -->
<g id="node23" class="node">
<title>comparator::compare</title>
<ellipse fill="none" stroke="black" cx="989" cy="-200" rx="41.69" ry="18"/>
<text text-anchor="middle" x="989" y="-196.3" font-family="Times,serif" font-size="14.00">compare</text>
</g>
<!-- simple_map::find&#45;&gt;comparator::compare -->
<g id="edge44" class="edge">
<title>simple_map::find&#45;&gt;comparator::compare</title>
<path fill="none" stroke="black" d="M741.49,-275.01C764.59,-268.4 800.18,-258.14 831,-249 869.6,-237.55 913.4,-224.22 945.08,-214.51"/>
<polygon fill="black" stroke="black" points="945.77,-217.96 954.3,-211.68 943.71,-211.27 945.77,-217.96"/>
</g>
<!-- comparator::is_smaller_than -->
<g id="node24" class="node">
<title>comparator::is_smaller_than</title>
<ellipse fill="none" stroke="black" cx="1116" cy="-200" rx="66.89" ry="18"/>
<text text-anchor="middle" x="1116" y="-196.3" font-family="Times,serif" font-size="14.00">is_smaller_than</text>
</g>
<!-- simple_map::find&#45;&gt;comparator::is_smaller_than -->
<g id="edge45" class="edge">
<title>simple_map::find&#45;&gt;comparator::is_smaller_than</title>
<path fill="none" stroke="black" d="M743.85,-280.84C811.12,-277.68 985.39,-267.86 1040,-249 1056.5,-243.3 1073.09,-233.42 1086.54,-224.1"/>
<polygon fill="black" stroke="black" points="1088.44,-227.04 1094.51,-218.36 1084.35,-221.36 1088.44,-227.04"/>
</g>
<!-- option::extract&#45;&gt;option::is_some -->
<g id="edge46" class="edge">
<title>option::extract&#45;&gt;option::is_some</title>
<path fill="none" stroke="black" d="M539.27,-181.82C540.03,-171.58 541.01,-158.33 541.89,-146.55"/>
<polygon fill="black" stroke="black" points="545.35,-147.17 542.6,-136.94 538.37,-146.66 545.35,-147.17"/>
</g>
<!-- option::is_none&#45;&gt;vector::is_empty -->
<g id="edge47" class="edge">
<title>option::is_none&#45;&gt;vector::is_empty</title>
<path fill="none" stroke="black" d="M629,-181.76C629,-153.63 629,-97.6 629,-63.49"/>
<polygon fill="black" stroke="black" points="632.5,-63.52 629,-53.52 625.5,-63.52 632.5,-63.52"/>
</g>
<!-- vector::singleton -->
<g id="node25" class="node">
<title>vector::singleton</title>
<ellipse fill="none" stroke="black" cx="733" cy="-34" rx="42.79" ry="18"/>
<text text-anchor="middle" x="733" y="-30.3" font-family="Times,serif" font-size="14.00">singleton</text>
</g>
<!-- option::some&#45;&gt;vector::singleton -->
<g id="edge48" class="edge">
<title>option::some&#45;&gt;vector::singleton</title>
<path fill="none" stroke="black" d="M783.22,-182.07C773.58,-153.83 754.13,-96.87 742.47,-62.72"/>
<polygon fill="black" stroke="black" points="745.87,-61.85 739.32,-53.52 739.24,-64.11 745.87,-61.85"/>
</g>
<!-- bcs::to_bytes -->
<g id="node26" class="node">
<title>bcs::to_bytes</title>
<ellipse fill="none" stroke="black" cx="883" cy="-117" rx="40.09" ry="18"/>
<text text-anchor="middle" x="883" y="-113.3" font-family="Times,serif" font-size="14.00">to_bytes</text>
</g>
<!-- comparator::compare&#45;&gt;bcs::to_bytes -->
<g id="edge49" class="edge">
<title>comparator::compare&#45;&gt;bcs::to_bytes</title>
<path fill="none" stroke="black" d="M964.14,-185.2C954.74,-179.63 944.12,-172.89 935,-166 925.29,-158.67 915.32,-149.83 906.73,-141.74"/>
<polygon fill="black" stroke="black" points="909.4,-139.45 899.76,-135.04 904.55,-144.5 909.4,-139.45"/>
</g>
<!-- comparator::compare_u8_vector -->
<g id="node27" class="node">
<title>comparator::compare_u8_vector</title>
<ellipse fill="none" stroke="black" cx="1028" cy="-117" rx="81.49" ry="18"/>
<text text-anchor="middle" x="1028" y="-113.3" font-family="Times,serif" font-size="14.00">compare_u8_vector</text>
</g>
<!-- comparator::compare&#45;&gt;comparator::compare_u8_vector -->
<g id="edge50" class="edge">
<title>comparator::compare&#45;&gt;comparator::compare_u8_vector</title>
<path fill="none" stroke="black" d="M997.08,-182.22C1002.19,-171.61 1008.91,-157.65 1014.78,-145.45"/>
<polygon fill="black" stroke="black" points="1017.82,-147.21 1019,-136.68 1011.51,-144.18 1017.82,-147.21"/>
</g>
</g>
</svg>
