<?xml version="1.0" encoding="UTF-8" standalone="no"?>
<!DOCTYPE svg PUBLIC "-//W3C//DTD SVG 1.1//EN"
 "http://www.w3.org/Graphics/SVG/1.1/DTD/svg11.dtd">
<!-- Generated by graphviz version 7.0.0 (20221023.0053)
 -->
<!-- Title: G Pages: 1 -->
<svg width="967pt" height="603pt"
 viewBox="0.00 0.00 967.09 603.00" xmlns="http://www.w3.org/2000/svg" xmlns:xlink="http://www.w3.org/1999/xlink">
<g id="graph0" class="graph" transform="scale(1 1) rotate(0) translate(4 599)">
<title>G</title>
<polygon fill="white" stroke="none" points="-4,4 -4,-599 963.09,-599 963.09,4 -4,4"/>
<g id="clust1" class="cluster">
<title>cluster_simple_map</title>
<polygon fill="none" stroke="black" points="451,-257 451,-407 672,-407 672,-257 451,-257"/>
<text text-anchor="middle" x="561.5" y="-391.8" font-family="Times,serif" font-size="14.00">simple_map</text>
</g>
<g id="clust2" class="cluster">
<title>cluster_error</title>
<polygon fill="none" stroke="black" points="686,-174 686,-332 848,-332 848,-174 686,-174"/>
<text text-anchor="middle" x="767" y="-316.8" font-family="Times,serif" font-size="14.00">error</text>
</g>
<g id="clust3" class="cluster">
<title>cluster_option</title>
<polygon fill="none" stroke="black" points="372,-91 372,-249 608,-249 608,-91 372,-91"/>
<text text-anchor="middle" x="490" y="-233.8" font-family="Times,serif" font-size="14.00">option</text>
</g>
<g id="clust4" class="cluster">
<title>cluster_vector</title>
<polygon fill="none" stroke="black" points="393,-8 393,-83 600,-83 600,-8 393,-8"/>
<text text-anchor="middle" x="496.5" y="-67.8" font-family="Times,serif" font-size="14.00">vector</text>
</g>
<g id="clust5" class="cluster">
<title>cluster_comparator</title>
<polygon fill="none" stroke="black" points="112,-91 112,-249 364,-249 364,-91 112,-91"/>
<text text-anchor="middle" x="238" y="-233.8" font-family="Times,serif" font-size="14.00">comparator</text>
</g>
<g id="clust6" class="cluster">
<title>cluster_bcs</title>
<polygon fill="none" stroke="black" points="8,-91 8,-166 104,-166 104,-91 8,-91"/>
<text text-anchor="middle" x="56" y="-150.8" font-family="Times,serif" font-size="14.00">bcs</text>
</g>
<!-- balance -->
<g id="node1" class="node">
<title>balance</title>
<ellipse fill="none" stroke="black" cx="691" cy="-577" rx="37.89" ry="18"/>
<text text-anchor="middle" x="691" y="-573.3" font-family="Times,serif" font-size="14.00">balance</text>
</g>
<!-- shares -->
<g id="node2" class="node">
<title>shares</title>
<ellipse fill="none" stroke="black" cx="628" cy="-505" rx="32.49" ry="18"/>
<text text-anchor="middle" x="628" y="-501.3" font-family="Times,serif" font-size="14.00">shares</text>
</g>
<!-- balance&#45;&gt;shares -->
<g id="edge1" class="edge">
<title>balance&#45;&gt;shares</title>
<path fill="none" stroke="black" d="M676.7,-560.12C668.62,-551.13 658.35,-539.72 649.33,-529.7"/>
<polygon fill="black" stroke="black" points="652.11,-527.56 642.82,-522.47 646.91,-532.24 652.11,-527.56"/>
</g>
<!-- shares_to_amount -->
<g id="node3" class="node">
<title>shares_to_amount</title>
<ellipse fill="none" stroke="black" cx="774" cy="-505" rx="75.29" ry="18"/>
<text text-anchor="middle" x="774" y="-501.3" font-family="Times,serif" font-size="14.00">shares_to_amount</text>
</g>
<!-- balance&#45;&gt;shares_to_amount -->
<g id="edge2" class="edge">
<title>balance&#45;&gt;shares_to_amount</title>
<path fill="none" stroke="black" d="M709.01,-560.81C719.75,-551.75 733.63,-540.05 745.79,-529.79"/>
<polygon fill="black" stroke="black" points="747.74,-532.73 753.13,-523.6 743.23,-527.38 747.74,-532.73"/>
</g>
<!-- simple_map::borrow -->
<g id="node4" class="node">
<title>simple_map::borrow</title>
<ellipse fill="none" stroke="black" cx="628" cy="-358" rx="36.29" ry="18"/>
<text text-anchor="middle" x="628" y="-354.3" font-family="Times,serif" font-size="14.00">borrow</text>
</g>
<!-- shares&#45;&gt;simple_map::borrow -->
<g id="edge3" class="edge">
<title>shares&#45;&gt;simple_map::borrow</title>
<path fill="none" stroke="black" d="M628,-486.51C628,-461.88 628,-416.71 628,-387.28"/>
<polygon fill="black" stroke="black" points="631.5,-387.62 628,-377.62 624.5,-387.62 631.5,-387.62"/>
</g>
<!-- contains -->
<g id="node5" class="node">
<title>contains</title>
<ellipse fill="none" stroke="black" cx="538" cy="-433" rx="40.09" ry="18"/>
<text text-anchor="middle" x="538" y="-429.3" font-family="Times,serif" font-size="14.00">contains</text>
</g>
<!-- shares&#45;&gt;contains -->
<g id="edge4" class="edge">
<title>shares&#45;&gt;contains</title>
<path fill="none" stroke="black" d="M609.79,-489.83C597.32,-480.13 580.53,-467.08 566.32,-456.03"/>
<polygon fill="black" stroke="black" points="568.67,-453.42 558.63,-450.04 564.37,-458.94 568.67,-453.42"/>
</g>
<!-- shares_to_amount_with_total_coins -->
<g id="node6" class="node">
<title>shares_to_amount_with_total_coins</title>
<ellipse fill="none" stroke="black" cx="820" cy="-433" rx="137.58" ry="18"/>
<text text-anchor="middle" x="820" y="-429.3" font-family="Times,serif" font-size="14.00">shares_to_amount_with_total_coins</text>
</g>
<!-- shares_to_amount&#45;&gt;shares_to_amount_with_total_coins -->
<g id="edge5" class="edge">
<title>shares_to_amount&#45;&gt;shares_to_amount_with_total_coins</title>
<path fill="none" stroke="black" d="M785.14,-487.05C790.31,-479.18 796.59,-469.62 802.39,-460.79"/>
<polygon fill="black" stroke="black" points="805.25,-462.82 807.82,-452.54 799.4,-458.98 805.25,-462.82"/>
</g>
<!-- error::invalid_argument -->
<g id="node7" class="node">
<title>error::invalid_argument</title>
<ellipse fill="none" stroke="black" cx="767" cy="-283" rx="73.39" ry="18"/>
<text text-anchor="middle" x="767" y="-279.3" font-family="Times,serif" font-size="14.00">invalid_argument</text>
</g>
<!-- simple_map::borrow&#45;&gt;error::invalid_argument -->
<g id="edge6" class="edge">
<title>simple_map::borrow&#45;&gt;error::invalid_argument</title>
<path fill="none" stroke="black" d="M652.43,-344.31C659.99,-340.37 668.34,-336.01 676,-332 692.74,-323.23 711.19,-313.5 727.08,-305.12"/>
<polygon fill="black" stroke="black" points="728.56,-308.29 735.76,-300.53 725.29,-302.1 728.56,-308.29"/>
</g>
<!-- option::extract -->
<g id="node8" class="node">
<title>option::extract</title>
<ellipse fill="none" stroke="black" cx="566" cy="-200" rx="34.39" ry="18"/>
<text text-anchor="middle" x="566" y="-196.3" font-family="Times,serif" font-size="14.00">extract</text>
</g>
<!-- simple_map::borrow&#45;&gt;option::extract -->
<g id="edge7" class="edge">
<title>simple_map::borrow&#45;&gt;option::extract</title>
<path fill="none" stroke="black" d="M621.25,-340.01C610.58,-313.17 589.72,-260.69 576.91,-228.45"/>
<polygon fill="black" stroke="black" points="580.25,-227.38 573.3,-219.38 573.74,-229.96 580.25,-227.38"/>
</g>
<!-- option::is_some -->
<g id="node9" class="node">
<title>option::is_some</title>
<ellipse fill="none" stroke="black" cx="560" cy="-117" rx="40.09" ry="18"/>
<text text-anchor="middle" x="560" y="-113.3" font-family="Times,serif" font-size="14.00">is_some</text>
</g>
<!-- simple_map::borrow&#45;&gt;option::is_some -->
<g id="edge8" class="edge">
<title>simple_map::borrow&#45;&gt;option::is_some</title>
<path fill="none" stroke="black" d="M632.47,-339.81C640.29,-306.1 653.25,-229.76 627,-174 619.98,-159.1 606.86,-146.76 594.07,-137.49"/>
<polygon fill="black" stroke="black" points="596.41,-134.85 586.17,-132.14 592.49,-140.65 596.41,-134.85"/>
</g>
<!-- simple_map::find -->
<g id="node10" class="node">
<title>simple_map::find</title>
<ellipse fill="none" stroke="black" cx="486" cy="-283" rx="27" ry="18"/>
<text text-anchor="middle" x="486" y="-279.3" font-family="Times,serif" font-size="14.00">find</text>
</g>
<!-- simple_map::borrow&#45;&gt;simple_map::find -->
<g id="edge9" class="edge">
<title>simple_map::borrow&#45;&gt;simple_map::find</title>
<path fill="none" stroke="black" d="M599.44,-346.42C585.6,-341.17 570.57,-335.27 564,-332 546.77,-323.42 528.39,-312.22 513.81,-302.8"/>
<polygon fill="black" stroke="black" points="515.92,-300 505.64,-297.44 512.08,-305.85 515.92,-300"/>
</g>
<!-- simple_map::contains_key -->
<g id="node11" class="node">
<title>simple_map::contains_key</title>
<ellipse fill="none" stroke="black" cx="516" cy="-358" rx="57.39" ry="18"/>
<text text-anchor="middle" x="516" y="-354.3" font-family="Times,serif" font-size="14.00">contains_key</text>
</g>
<!-- contains&#45;&gt;simple_map::contains_key -->
<g id="edge10" class="edge">
<title>contains&#45;&gt;simple_map::contains_key</title>
<path fill="none" stroke="black" d="M532.79,-414.7C530.29,-406.43 527.25,-396.31 524.43,-386.99"/>
<polygon fill="black" stroke="black" points="527.85,-386.19 521.61,-377.62 521.15,-388.21 527.85,-386.19"/>
</g>
<!-- multiply_then_divide -->
<g id="node12" class="node">
<title>multiply_then_divide</title>
<ellipse fill="none" stroke="black" cx="872" cy="-358" rx="87.18" ry="18"/>
<text text-anchor="middle" x="872" y="-354.3" font-family="Times,serif" font-size="14.00">multiply_then_divide</text>
</g>
<!-- shares_to_amount_with_total_coins&#45;&gt;multiply_then_divide -->
<g id="edge11" class="edge">
<title>shares_to_amount_with_total_coins&#45;&gt;multiply_then_divide</title>
<path fill="none" stroke="black" d="M832.32,-414.7C838.54,-405.97 846.22,-395.2 853.15,-385.46"/>
<polygon fill="black" stroke="black" points="855.94,-387.58 858.89,-377.41 850.23,-383.52 855.94,-387.58"/>
</g>
<!-- error::canonical -->
<g id="node13" class="node">
<title>error::canonical</title>
<ellipse fill="none" stroke="black" cx="767" cy="-200" rx="44.39" ry="18"/>
<text text-anchor="middle" x="767" y="-196.3" font-family="Times,serif" font-size="14.00">canonical</text>
</g>
<!-- error::invalid_argument&#45;&gt;error::canonical -->
<g id="edge12" class="edge">
<title>error::invalid_argument&#45;&gt;error::canonical</title>
<path fill="none" stroke="black" d="M767,-264.82C767,-254.69 767,-241.6 767,-229.92"/>
<polygon fill="black" stroke="black" points="770.5,-229.95 767,-219.95 763.5,-229.95 770.5,-229.95"/>
</g>
<!-- option::extract&#45;&gt;option::is_some -->
<g id="edge13" class="edge">
<title>option::extract&#45;&gt;option::is_some</title>
<path fill="none" stroke="black" d="M564.73,-181.82C563.97,-171.58 562.99,-158.33 562.11,-146.55"/>
<polygon fill="black" stroke="black" points="565.63,-146.66 561.4,-136.94 558.65,-147.17 565.63,-146.66"/>
</g>
<!-- vector::is_empty -->
<g id="node14" class="node">
<title>vector::is_empty</title>
<ellipse fill="none" stroke="black" cx="548" cy="-34" rx="43.59" ry="18"/>
<text text-anchor="middle" x="548" y="-30.3" font-family="Times,serif" font-size="14.00">is_empty</text>
</g>
<!-- option::is_some&#45;&gt;vector::is_empty -->
<g id="edge14" class="edge">
<title>option::is_some&#45;&gt;vector::is_empty</title>
<path fill="none" stroke="black" d="M557.46,-98.82C555.94,-88.58 553.97,-75.33 552.23,-63.55"/>
<polygon fill="black" stroke="black" points="555.73,-63.31 550.8,-53.93 548.81,-64.33 555.73,-63.31"/>
</g>
<!-- option::none -->
<g id="node15" class="node">
<title>option::none</title>
<ellipse fill="none" stroke="black" cx="486" cy="-200" rx="27.9" ry="18"/>
<text text-anchor="middle" x="486" y="-196.3" font-family="Times,serif" font-size="14.00">none</text>
</g>
<!-- simple_map::find&#45;&gt;option::none -->
<g id="edge15" class="edge">
<title>simple_map::find&#45;&gt;option::none</title>
<path fill="none" stroke="black" d="M486,-264.82C486,-254.69 486,-241.6 486,-229.92"/>
<polygon fill="black" stroke="black" points="489.5,-229.95 486,-219.95 482.5,-229.95 489.5,-229.95"/>
</g>
<!-- option::some -->
<g id="node16" class="node">
<title>option::some</title>
<ellipse fill="none" stroke="black" cx="410" cy="-200" rx="29.8" ry="18"/>
<text text-anchor="middle" x="410" y="-196.3" font-family="Times,serif" font-size="14.00">some</text>
</g>
<!-- simple_map::find&#45;&gt;option::some -->
<g id="edge16" class="edge">
<title>simple_map::find&#45;&gt;option::some</title>
<path fill="none" stroke="black" d="M469.64,-268.4C463.01,-262.65 455.42,-255.72 449,-249 442.04,-241.71 434.94,-233.32 428.74,-225.61"/>
<polygon fill="black" stroke="black" points="431.57,-223.54 422.63,-217.85 426.07,-227.87 431.57,-223.54"/>
</g>
<!-- comparator::compare -->
<g id="node17" class="node">
<title>comparator::compare</title>
<ellipse fill="none" stroke="black" cx="314" cy="-200" rx="41.69" ry="18"/>
<text text-anchor="middle" x="314" y="-196.3" font-family="Times,serif" font-size="14.00">compare</text>
</g>
<!-- simple_map::find&#45;&gt;comparator::compare -->
<g id="edge17" class="edge">
<title>simple_map::find&#45;&gt;comparator::compare</title>
<path fill="none" stroke="black" d="M459.86,-278.19C435.05,-273.79 397.31,-265 368,-249 356.49,-242.71 345.37,-233.55 336.24,-224.92"/>
<polygon fill="black" stroke="black" points="338.8,-222.52 329.23,-217.97 333.87,-227.5 338.8,-222.52"/>
</g>
<!-- comparator::is_smaller_than -->
<g id="node18" class="node">
<title>comparator::is_smaller_than</title>
<ellipse fill="none" stroke="black" cx="187" cy="-200" rx="66.89" ry="18"/>
<text text-anchor="middle" x="187" y="-196.3" font-family="Times,serif" font-size="14.00">is_smaller_than</text>
</g>
<!-- simple_map::find&#45;&gt;comparator::is_smaller_than -->
<g id="edge18" class="edge">
<title>simple_map::find&#45;&gt;comparator::is_smaller_than</title>
<path fill="none" stroke="black" d="M458.68,-281.57C415.72,-280.1 330.34,-273.97 263,-249 246.75,-242.97 230.3,-233.14 216.88,-223.94"/>
<polygon fill="black" stroke="black" points="219.1,-221.23 208.92,-218.3 215.05,-226.94 219.1,-221.23"/>
</g>
<!-- simple_map::contains_key&#45;&gt;option::is_some -->
<g id="edge19" class="edge">
<title>simple_map::contains_key&#45;&gt;option::is_some</title>
<path fill="none" stroke="black" d="M536.69,-340.96C559.42,-321.9 594.62,-287.74 609,-249 620.6,-217.75 620.72,-205.2 609,-174 604.37,-161.69 595.67,-150.31 586.88,-141.07"/>
<polygon fill="black" stroke="black" points="589.55,-138.79 579.96,-134.28 584.64,-143.78 589.55,-138.79"/>
</g>
<!-- simple_map::contains_key&#45;&gt;simple_map::find -->
<g id="edge20" class="edge">
<title>simple_map::contains_key&#45;&gt;simple_map::find</title>
<path fill="none" stroke="black" d="M508.89,-339.7C505.4,-331.21 501.12,-320.79 497.21,-311.27"/>
<polygon fill="black" stroke="black" points="500.47,-309.99 493.43,-302.07 493.99,-312.65 500.47,-309.99"/>
</g>
<!-- to_u128 -->
<g id="node19" class="node">
<title>to_u128</title>
<ellipse fill="none" stroke="black" cx="898" cy="-283" rx="39.79" ry="18"/>
<text text-anchor="middle" x="898" y="-279.3" font-family="Times,serif" font-size="14.00">to_u128</text>
</g>
<!-- multiply_then_divide&#45;&gt;to_u128 -->
<g id="edge21" class="edge">
<title>multiply_then_divide&#45;&gt;to_u128</title>
<path fill="none" stroke="black" d="M878.16,-339.7C881.11,-331.43 884.71,-321.31 888.03,-311.99"/>
<polygon fill="black" stroke="black" points="891.32,-313.2 891.37,-302.6 884.72,-310.85 891.32,-313.2"/>
</g>
<!-- vector::singleton -->
<g id="node20" class="node">
<title>vector::singleton</title>
<ellipse fill="none" stroke="black" cx="444" cy="-34" rx="42.79" ry="18"/>
<text text-anchor="middle" x="444" y="-30.3" font-family="Times,serif" font-size="14.00">singleton</text>
</g>
<!-- option::some&#45;&gt;vector::singleton -->
<g id="edge22" class="edge">
<title>option::some&#45;&gt;vector::singleton</title>
<path fill="none" stroke="black" d="M413.57,-181.76C419.43,-153.51 431.12,-97.11 438.19,-63.04"/>
<polygon fill="black" stroke="black" points="441.56,-63.99 440.17,-53.49 434.71,-62.57 441.56,-63.99"/>
</g>
<!-- bcs::to_bytes -->
<g id="node21" class="node">
<title>bcs::to_bytes</title>
<ellipse fill="none" stroke="black" cx="56" cy="-117" rx="40.09" ry="18"/>
<text text-anchor="middle" x="56" y="-113.3" font-family="Times,serif" font-size="14.00">to_bytes</text>
</g>
<!-- comparator::compare&#45;&gt;bcs::to_bytes -->
<g id="edge23" class="edge">
<title>comparator::compare&#45;&gt;bcs::to_bytes</title>
<path fill="none" stroke="black" d="M290.13,-184.83C281.82,-180.57 272.26,-176.4 263,-174 229.61,-165.34 139.79,-179.38 108,-166 95.99,-160.94 85,-151.83 76.25,-142.9"/>
<polygon fill="black" stroke="black" points="78.94,-140.66 69.61,-135.64 73.78,-145.38 78.94,-140.66"/>
</g>
<!-- comparator::compare_u8_vector -->
<g id="node22" class="node">
<title>comparator::compare_u8_vector</title>
<ellipse fill="none" stroke="black" cx="275" cy="-117" rx="81.49" ry="18"/>
<text text-anchor="middle" x="275" y="-113.3" font-family="Times,serif" font-size="14.00">compare_u8_vector</text>
</g>
<!-- comparator::compare&#45;&gt;comparator::compare_u8_vector -->
<g id="edge24" class="edge">
<title>comparator::compare&#45;&gt;comparator::compare_u8_vector</title>
<path fill="none" stroke="black" d="M305.92,-182.22C300.81,-171.61 294.09,-157.65 288.22,-145.45"/>
<polygon fill="black" stroke="black" points="291.49,-144.18 284,-136.68 285.18,-147.21 291.49,-144.18"/>
</g>
</g>
</svg>
