<?xml version="1.0" encoding="UTF-8" standalone="no"?>
<!DOCTYPE svg PUBLIC "-//W3C//DTD SVG 1.1//EN"
 "http://www.w3.org/Graphics/SVG/1.1/DTD/svg11.dtd">
<!-- Generated by graphviz version 7.0.0 (20221023.0053)
 -->
<!-- Title: G Pages: 1 -->
<svg width="745pt" height="531pt"
 viewBox="0.00 0.00 745.00 531.00" xmlns="http://www.w3.org/2000/svg" xmlns:xlink="http://www.w3.org/1999/xlink">
<g id="graph0" class="graph" transform="scale(1 1) rotate(0) translate(4 527)">
<title>G</title>
<polygon fill="white" stroke="none" points="-4,4 -4,-527 741,-527 741,4 -4,4"/>
<g id="clust1" class="cluster">
<title>cluster_simple_map</title>
<polygon fill="none" stroke="black" points="445,-257 445,-407 666,-407 666,-257 445,-257"/>
<text text-anchor="middle" x="555.5" y="-391.8" font-family="Times,serif" font-size="14.00">simple_map</text>
</g>
<g id="clust2" class="cluster">
<title>cluster_error</title>
<polygon fill="none" stroke="black" points="8,-174 8,-332 170,-332 170,-174 8,-174"/>
<text text-anchor="middle" x="89" y="-316.8" font-family="Times,serif" font-size="14.00">error</text>
</g>
<g id="clust3" class="cluster">
<title>cluster_option</title>
<polygon fill="none" stroke="black" points="438,-91 438,-249 674,-249 674,-91 438,-91"/>
<text text-anchor="middle" x="556" y="-233.8" font-family="Times,serif" font-size="14.00">option</text>
</g>
<g id="clust4" class="cluster">
<title>cluster_vector</title>
<polygon fill="none" stroke="black" points="456,-8 456,-83 663,-83 663,-8 456,-8"/>
<text text-anchor="middle" x="559.5" y="-67.8" font-family="Times,serif" font-size="14.00">vector</text>
</g>
<g id="clust5" class="cluster">
<title>cluster_comparator</title>
<polygon fill="none" stroke="black" points="178,-91 178,-249 430,-249 430,-91 178,-91"/>
<text text-anchor="middle" x="304" y="-233.8" font-family="Times,serif" font-size="14.00">comparator</text>
</g>
<g id="clust6" class="cluster">
<title>cluster_bcs</title>
<polygon fill="none" stroke="black" points="74,-91 74,-166 170,-166 170,-91 74,-91"/>
<text text-anchor="middle" x="122" y="-150.8" font-family="Times,serif" font-size="14.00">bcs</text>
</g>
<!-- shares -->
<g id="node1" class="node">
<title>shares</title>
<ellipse fill="none" stroke="black" cx="545" cy="-505" rx="32.49" ry="18"/>
<text text-anchor="middle" x="545" y="-501.3" font-family="Times,serif" font-size="14.00">shares</text>
</g>
<!-- simple_map::borrow -->
<g id="node2" class="node">
<title>simple_map::borrow</title>
<ellipse fill="none" stroke="black" cx="489" cy="-358" rx="36.29" ry="18"/>
<text text-anchor="middle" x="489" y="-354.3" font-family="Times,serif" font-size="14.00">borrow</text>
</g>
<!-- shares&#45;&gt;simple_map::borrow -->
<g id="edge1" class="edge">
<title>shares&#45;&gt;simple_map::borrow</title>
<path fill="none" stroke="black" d="M538.47,-487.08C528.9,-462.31 510.97,-415.89 499.53,-386.26"/>
<polygon fill="black" stroke="black" points="502.9,-385.29 496.04,-377.22 496.38,-387.81 502.9,-385.29"/>
</g>
<!-- contains -->
<g id="node3" class="node">
<title>contains</title>
<ellipse fill="none" stroke="black" cx="590" cy="-433" rx="40.09" ry="18"/>
<text text-anchor="middle" x="590" y="-429.3" font-family="Times,serif" font-size="14.00">contains</text>
</g>
<!-- shares&#45;&gt;contains -->
<g id="edge2" class="edge">
<title>shares&#45;&gt;contains</title>
<path fill="none" stroke="black" d="M555.44,-487.76C560.7,-479.58 567.21,-469.45 573.16,-460.2"/>
<polygon fill="black" stroke="black" points="576.03,-462.21 578.49,-451.91 570.14,-458.43 576.03,-462.21"/>
</g>
<!-- error::invalid_argument -->
<g id="node4" class="node">
<title>error::invalid_argument</title>
<ellipse fill="none" stroke="black" cx="89" cy="-283" rx="73.39" ry="18"/>
<text text-anchor="middle" x="89" y="-279.3" font-family="Times,serif" font-size="14.00">invalid_argument</text>
</g>
<!-- simple_map::borrow&#45;&gt;error::invalid_argument -->
<g id="edge3" class="edge">
<title>simple_map::borrow&#45;&gt;error::invalid_argument</title>
<path fill="none" stroke="black" d="M455.24,-350.84C389.81,-338.9 244.56,-312.39 157.93,-296.58"/>
<polygon fill="black" stroke="black" points="158.58,-293.14 148.12,-294.79 157.33,-300.03 158.58,-293.14"/>
</g>
<!-- option::extract -->
<g id="node5" class="node">
<title>option::extract</title>
<ellipse fill="none" stroke="black" cx="632" cy="-200" rx="34.39" ry="18"/>
<text text-anchor="middle" x="632" y="-196.3" font-family="Times,serif" font-size="14.00">extract</text>
</g>
<!-- simple_map::borrow&#45;&gt;option::extract -->
<g id="edge4" class="edge">
<title>simple_map::borrow&#45;&gt;option::extract</title>
<path fill="none" stroke="black" d="M508.16,-342.47C512.19,-339.16 516.33,-335.57 520,-332 555.32,-297.68 591.52,-253.34 612.87,-226.05"/>
<polygon fill="black" stroke="black" points="615.48,-228.39 618.85,-218.35 609.95,-224.1 615.48,-228.39"/>
</g>
<!-- option::is_some -->
<g id="node6" class="node">
<title>option::is_some</title>
<ellipse fill="none" stroke="black" cx="626" cy="-117" rx="40.09" ry="18"/>
<text text-anchor="middle" x="626" y="-113.3" font-family="Times,serif" font-size="14.00">is_some</text>
</g>
<!-- simple_map::borrow&#45;&gt;option::is_some -->
<g id="edge5" class="edge">
<title>simple_map::borrow&#45;&gt;option::is_some</title>
<path fill="none" stroke="black" d="M517.06,-346.12C522.95,-343.98 529.15,-341.83 535,-340 548.58,-335.75 553.2,-338.21 566,-332 620.78,-305.42 647.97,-303.56 675,-249 689.8,-219.13 686.72,-205.2 675,-174 670.37,-161.69 661.67,-150.31 652.88,-141.07"/>
<polygon fill="black" stroke="black" points="655.55,-138.79 645.96,-134.28 650.64,-143.78 655.55,-138.79"/>
</g>
<!-- simple_map::find -->
<g id="node7" class="node">
<title>simple_map::find</title>
<ellipse fill="none" stroke="black" cx="484" cy="-283" rx="27" ry="18"/>
<text text-anchor="middle" x="484" y="-279.3" font-family="Times,serif" font-size="14.00">find</text>
</g>
<!-- simple_map::borrow&#45;&gt;simple_map::find -->
<g id="edge6" class="edge">
<title>simple_map::borrow&#45;&gt;simple_map::find</title>
<path fill="none" stroke="black" d="M487.82,-339.7C487.26,-331.67 486.6,-321.9 485.97,-312.8"/>
<polygon fill="black" stroke="black" points="489.47,-312.68 485.3,-302.94 482.49,-313.15 489.47,-312.68"/>
</g>
<!-- simple_map::contains_key -->
<g id="node8" class="node">
<title>simple_map::contains_key</title>
<ellipse fill="none" stroke="black" cx="601" cy="-358" rx="57.39" ry="18"/>
<text text-anchor="middle" x="601" y="-354.3" font-family="Times,serif" font-size="14.00">contains_key</text>
</g>
<!-- contains&#45;&gt;simple_map::contains_key -->
<g id="edge7" class="edge">
<title>contains&#45;&gt;simple_map::contains_key</title>
<path fill="none" stroke="black" d="M592.61,-414.7C593.82,-406.67 595.29,-396.9 596.66,-387.8"/>
<polygon fill="black" stroke="black" points="600.12,-388.34 598.15,-377.93 593.2,-387.29 600.12,-388.34"/>
</g>
<!-- error::canonical -->
<g id="node9" class="node">
<title>error::canonical</title>
<ellipse fill="none" stroke="black" cx="89" cy="-200" rx="44.39" ry="18"/>
<text text-anchor="middle" x="89" y="-196.3" font-family="Times,serif" font-size="14.00">canonical</text>
</g>
<!-- error::invalid_argument&#45;&gt;error::canonical -->
<g id="edge8" class="edge">
<title>error::invalid_argument&#45;&gt;error::canonical</title>
<path fill="none" stroke="black" d="M89,-264.82C89,-254.69 89,-241.6 89,-229.92"/>
<polygon fill="black" stroke="black" points="92.5,-229.95 89,-219.95 85.5,-229.95 92.5,-229.95"/>
</g>
<!-- option::extract&#45;&gt;option::is_some -->
<g id="edge9" class="edge">
<title>option::extract&#45;&gt;option::is_some</title>
<path fill="none" stroke="black" d="M630.73,-181.82C629.97,-171.58 628.99,-158.33 628.11,-146.55"/>
<polygon fill="black" stroke="black" points="631.63,-146.66 627.4,-136.94 624.65,-147.17 631.63,-146.66"/>
</g>
<!-- vector::is_empty -->
<g id="node10" class="node">
<title>vector::is_empty</title>
<ellipse fill="none" stroke="black" cx="611" cy="-34" rx="43.59" ry="18"/>
<text text-anchor="middle" x="611" y="-30.3" font-family="Times,serif" font-size="14.00">is_empty</text>
</g>
<!-- option::is_some&#45;&gt;vector::is_empty -->
<g id="edge10" class="edge">
<title>option::is_some&#45;&gt;vector::is_empty</title>
<path fill="none" stroke="black" d="M622.82,-98.82C620.92,-88.58 618.47,-75.33 616.29,-63.55"/>
<polygon fill="black" stroke="black" points="619.77,-63.12 614.5,-53.92 612.88,-64.39 619.77,-63.12"/>
</g>
<!-- option::none -->
<g id="node11" class="node">
<title>option::none</title>
<ellipse fill="none" stroke="black" cx="552" cy="-200" rx="27.9" ry="18"/>
<text text-anchor="middle" x="552" y="-196.3" font-family="Times,serif" font-size="14.00">none</text>
</g>
<!-- simple_map::find&#45;&gt;option::none -->
<g id="edge11" class="edge">
<title>simple_map::find&#45;&gt;option::none</title>
<path fill="none" stroke="black" d="M498.2,-267.5C503.59,-261.84 509.7,-255.22 515,-249 521.24,-241.68 527.74,-233.47 533.52,-225.93"/>
<polygon fill="black" stroke="black" points="536.22,-228.16 539.46,-218.08 530.64,-223.93 536.22,-228.16"/>
</g>
<!-- option::some -->
<g id="node12" class="node">
<title>option::some</title>
<ellipse fill="none" stroke="black" cx="476" cy="-200" rx="29.8" ry="18"/>
<text text-anchor="middle" x="476" y="-196.3" font-family="Times,serif" font-size="14.00">some</text>
</g>
<!-- simple_map::find&#45;&gt;option::some -->
<g id="edge12" class="edge">
<title>simple_map::find&#45;&gt;option::some</title>
<path fill="none" stroke="black" d="M482.3,-264.82C481.29,-254.58 479.98,-241.33 478.82,-229.55"/>
<polygon fill="black" stroke="black" points="482.34,-229.55 477.87,-219.94 475.37,-230.23 482.34,-229.55"/>
</g>
<!-- comparator::compare -->
<g id="node13" class="node">
<title>comparator::compare</title>
<ellipse fill="none" stroke="black" cx="380" cy="-200" rx="41.69" ry="18"/>
<text text-anchor="middle" x="380" y="-196.3" font-family="Times,serif" font-size="14.00">compare</text>
</g>
<!-- simple_map::find&#45;&gt;comparator::compare -->
<g id="edge13" class="edge">
<title>simple_map::find&#45;&gt;comparator::compare</title>
<path fill="none" stroke="black" d="M464.56,-270.09C455.12,-264.07 443.73,-256.48 434,-249 424.15,-241.44 413.85,-232.54 404.91,-224.48"/>
<polygon fill="black" stroke="black" points="407.35,-221.97 397.61,-217.8 402.62,-227.13 407.35,-221.97"/>
</g>
<!-- comparator::is_smaller_than -->
<g id="node14" class="node">
<title>comparator::is_smaller_than</title>
<ellipse fill="none" stroke="black" cx="253" cy="-200" rx="66.89" ry="18"/>
<text text-anchor="middle" x="253" y="-196.3" font-family="Times,serif" font-size="14.00">is_smaller_than</text>
</g>
<!-- simple_map::find&#45;&gt;comparator::is_smaller_than -->
<g id="edge14" class="edge">
<title>simple_map::find&#45;&gt;comparator::is_smaller_than</title>
<path fill="none" stroke="black" d="M457.1,-279.19C425.5,-275.24 371.94,-266.48 329,-249 313.18,-242.56 297,-232.86 283.65,-223.85"/>
<polygon fill="black" stroke="black" points="285.94,-221.18 275.73,-218.34 281.94,-226.92 285.94,-221.18"/>
</g>
<!-- simple_map::contains_key&#45;&gt;option::is_some -->
<g id="edge15" class="edge">
<title>simple_map::contains_key&#45;&gt;option::is_some</title>
<path fill="none" stroke="black" d="M654.07,-350.82C677.33,-346.92 700.95,-340.89 708,-332 751.64,-276.99 740.79,-236.1 708,-174 698.87,-156.7 681.72,-143.74 665.46,-134.67"/>
<polygon fill="black" stroke="black" points="667.37,-131.71 656.88,-130.21 664.14,-137.92 667.37,-131.71"/>
</g>
<!-- simple_map::contains_key&#45;&gt;simple_map::find -->
<g id="edge16" class="edge">
<title>simple_map::contains_key&#45;&gt;simple_map::find</title>
<path fill="none" stroke="black" d="M575.9,-341.34C557.37,-329.78 532.13,-314.03 512.78,-301.96"/>
<polygon fill="black" stroke="black" points="514.89,-299.15 504.56,-296.83 511.19,-305.09 514.89,-299.15"/>
</g>
<!-- vector::singleton -->
<g id="node15" class="node">
<title>vector::singleton</title>
<ellipse fill="none" stroke="black" cx="507" cy="-34" rx="42.79" ry="18"/>
<text text-anchor="middle" x="507" y="-30.3" font-family="Times,serif" font-size="14.00">singleton</text>
</g>
<!-- option::some&#45;&gt;vector::singleton -->
<g id="edge17" class="edge">
<title>option::some&#45;&gt;vector::singleton</title>
<path fill="none" stroke="black" d="M479.26,-181.76C484.6,-153.51 495.26,-97.11 501.7,-63.04"/>
<polygon fill="black" stroke="black" points="505.09,-63.97 503.5,-53.5 498.21,-62.67 505.09,-63.97"/>
</g>
<!-- bcs::to_bytes -->
<g id="node16" class="node">
<title>bcs::to_bytes</title>
<ellipse fill="none" stroke="black" cx="122" cy="-117" rx="40.09" ry="18"/>
<text text-anchor="middle" x="122" y="-113.3" font-family="Times,serif" font-size="14.00">to_bytes</text>
</g>
<!-- comparator::compare&#45;&gt;bcs::to_bytes -->
<g id="edge18" class="edge">
<title>comparator::compare&#45;&gt;bcs::to_bytes</title>
<path fill="none" stroke="black" d="M356.13,-184.83C347.82,-180.57 338.26,-176.4 329,-174 295.61,-165.34 205.79,-179.38 174,-166 161.99,-160.94 151,-151.83 142.25,-142.9"/>
<polygon fill="black" stroke="black" points="144.94,-140.66 135.61,-135.64 139.78,-145.38 144.94,-140.66"/>
</g>
<!-- comparator::compare_u8_vector -->
<g id="node17" class="node">
<title>comparator::compare_u8_vector</title>
<ellipse fill="none" stroke="black" cx="341" cy="-117" rx="81.49" ry="18"/>
<text text-anchor="middle" x="341" y="-113.3" font-family="Times,serif" font-size="14.00">compare_u8_vector</text>
</g>
<!-- comparator::compare&#45;&gt;comparator::compare_u8_vector -->
<g id="edge19" class="edge">
<title>comparator::compare&#45;&gt;comparator::compare_u8_vector</title>
<path fill="none" stroke="black" d="M371.92,-182.22C366.81,-171.61 360.09,-157.65 354.22,-145.45"/>
<polygon fill="black" stroke="black" points="357.49,-144.18 350,-136.68 351.18,-147.21 357.49,-144.18"/>
</g>
</g>
</svg>
