<?xml version="1.0" encoding="UTF-8" standalone="no"?>
<!DOCTYPE svg PUBLIC "-//W3C//DTD SVG 1.1//EN"
 "http://www.w3.org/Graphics/SVG/1.1/DTD/svg11.dtd">
<!-- Generated by graphviz version 7.0.0 (20221023.0053)
 -->
<!-- Title: G Pages: 1 -->
<svg width="1075pt" height="531pt"
 viewBox="0.00 0.00 1074.70 531.00" xmlns="http://www.w3.org/2000/svg" xmlns:xlink="http://www.w3.org/1999/xlink">
<g id="graph0" class="graph" transform="scale(1 1) rotate(0) translate(4 527)">
<title>G</title>
<polygon fill="white" stroke="none" points="-4,4 -4,-527 1070.7,-527 1070.7,4 -4,4"/>
<g id="clust1" class="cluster">
<title>cluster_error</title>
<polygon fill="none" stroke="black" points="8,-174 8,-332 300,-332 300,-174 8,-174"/>
<text text-anchor="middle" x="154" y="-316.8" font-family="Times,serif" font-size="14.00">error</text>
</g>
<g id="clust2" class="cluster">
<title>cluster_simple_map</title>
<polygon fill="none" stroke="black" points="623,-257 623,-407 953,-407 953,-257 623,-257"/>
<text text-anchor="middle" x="788" y="-391.8" font-family="Times,serif" font-size="14.00">simple_map</text>
</g>
<g id="clust3" class="cluster">
<title>cluster_option</title>
<polygon fill="none" stroke="black" points="672,-91 672,-249 1003,-249 1003,-91 672,-91"/>
<text text-anchor="middle" x="837.5" y="-233.8" font-family="Times,serif" font-size="14.00">option</text>
</g>
<g id="clust4" class="cluster">
<title>cluster_vector</title>
<polygon fill="none" stroke="black" points="733,-8 733,-83 940,-83 940,-8 733,-8"/>
<text text-anchor="middle" x="836.5" y="-67.8" font-family="Times,serif" font-size="14.00">vector</text>
</g>
<g id="clust5" class="cluster">
<title>cluster_comparator</title>
<polygon fill="none" stroke="black" points="308,-91 308,-249 560,-249 560,-91 308,-91"/>
<text text-anchor="middle" x="434" y="-233.8" font-family="Times,serif" font-size="14.00">comparator</text>
</g>
<g id="clust6" class="cluster">
<title>cluster_bcs</title>
<polygon fill="none" stroke="black" points="568,-91 568,-166 664,-166 664,-91 568,-91"/>
<text text-anchor="middle" x="616" y="-150.8" font-family="Times,serif" font-size="14.00">bcs</text>
</g>
<!-- add_shares -->
<g id="node1" class="node">
<title>add_shares</title>
<ellipse fill="none" stroke="black" cx="658" cy="-505" rx="50.09" ry="18"/>
<text text-anchor="middle" x="658" y="-501.3" font-family="Times,serif" font-size="14.00">add_shares</text>
</g>
<!-- error::invalid_argument -->
<g id="node2" class="node">
<title>error::invalid_argument</title>
<ellipse fill="none" stroke="black" cx="219" cy="-283" rx="73.39" ry="18"/>
<text text-anchor="middle" x="219" y="-279.3" font-family="Times,serif" font-size="14.00">invalid_argument</text>
</g>
<!-- add_shares&#45;&gt;error::invalid_argument -->
<g id="edge1" class="edge">
<title>add_shares&#45;&gt;error::invalid_argument</title>
<path fill="none" stroke="black" d="M630.23,-489.86C574.15,-461.33 443.32,-394.93 333,-340 309.25,-328.18 282.65,-315.1 261.11,-304.55"/>
<polygon fill="black" stroke="black" points="262.87,-301.51 252.35,-300.26 259.79,-307.8 262.87,-301.51"/>
</g>
<!-- error::invalid_state -->
<g id="node3" class="node">
<title>error::invalid_state</title>
<ellipse fill="none" stroke="black" cx="72" cy="-283" rx="55.79" ry="18"/>
<text text-anchor="middle" x="72" y="-279.3" font-family="Times,serif" font-size="14.00">invalid_state</text>
</g>
<!-- add_shares&#45;&gt;error::invalid_state -->
<g id="edge2" class="edge">
<title>add_shares&#45;&gt;error::invalid_state</title>
<path fill="none" stroke="black" d="M615.02,-495.38C523.07,-475.79 302.23,-422.43 137,-332 124.12,-324.95 110.9,-315.64 99.78,-307.09"/>
<polygon fill="black" stroke="black" points="102.19,-304.54 92.17,-301.1 97.86,-310.04 102.19,-304.54"/>
</g>
<!-- simple_map::borrow_mut -->
<g id="node4" class="node">
<title>simple_map::borrow_mut</title>
<ellipse fill="none" stroke="black" cx="758" cy="-358" rx="54.69" ry="18"/>
<text text-anchor="middle" x="758" y="-354.3" font-family="Times,serif" font-size="14.00">borrow_mut</text>
</g>
<!-- add_shares&#45;&gt;simple_map::borrow_mut -->
<g id="edge3" class="edge">
<title>add_shares&#45;&gt;simple_map::borrow_mut</title>
<path fill="none" stroke="black" d="M669.67,-487.08C686.98,-461.98 719.61,-414.66 740,-385.1"/>
<polygon fill="black" stroke="black" points="742.75,-387.27 745.55,-377.06 736.99,-383.3 742.75,-387.27"/>
</g>
<!-- simple_map::add -->
<g id="node5" class="node">
<title>simple_map::add</title>
<ellipse fill="none" stroke="black" cx="658" cy="-358" rx="27" ry="18"/>
<text text-anchor="middle" x="658" y="-354.3" font-family="Times,serif" font-size="14.00">add</text>
</g>
<!-- add_shares&#45;&gt;simple_map::add -->
<g id="edge4" class="edge">
<title>add_shares&#45;&gt;simple_map::add</title>
<path fill="none" stroke="black" d="M658,-486.51C658,-461.88 658,-416.71 658,-387.28"/>
<polygon fill="black" stroke="black" points="661.5,-387.62 658,-377.62 654.5,-387.62 661.5,-387.62"/>
</g>
<!-- contains -->
<g id="node6" class="node">
<title>contains</title>
<ellipse fill="none" stroke="black" cx="841" cy="-433" rx="40.09" ry="18"/>
<text text-anchor="middle" x="841" y="-429.3" font-family="Times,serif" font-size="14.00">contains</text>
</g>
<!-- add_shares&#45;&gt;contains -->
<g id="edge5" class="edge">
<title>add_shares&#45;&gt;contains</title>
<path fill="none" stroke="black" d="M691.57,-491.16C722.34,-479.39 767.98,-461.93 800.71,-449.41"/>
<polygon fill="black" stroke="black" points="801.78,-452.75 809.87,-445.91 799.28,-446.21 801.78,-452.75"/>
</g>
<!-- error::canonical -->
<g id="node7" class="node">
<title>error::canonical</title>
<ellipse fill="none" stroke="black" cx="145" cy="-200" rx="44.39" ry="18"/>
<text text-anchor="middle" x="145" y="-196.3" font-family="Times,serif" font-size="14.00">canonical</text>
</g>
<!-- error::invalid_argument&#45;&gt;error::canonical -->
<g id="edge6" class="edge">
<title>error::invalid_argument&#45;&gt;error::canonical</title>
<path fill="none" stroke="black" d="M203.67,-265.22C193.21,-253.77 179.19,-238.42 167.48,-225.6"/>
<polygon fill="black" stroke="black" points="170.16,-223.35 160.83,-218.33 164.99,-228.07 170.16,-223.35"/>
</g>
<!-- error::invalid_state&#45;&gt;error::canonical -->
<g id="edge7" class="edge">
<title>error::invalid_state&#45;&gt;error::canonical</title>
<path fill="none" stroke="black" d="M87.13,-265.22C97.44,-253.77 111.27,-238.42 122.83,-225.6"/>
<polygon fill="black" stroke="black" points="125.28,-228.1 129.38,-218.33 120.08,-223.42 125.28,-228.1"/>
</g>
<!-- simple_map::borrow_mut&#45;&gt;error::invalid_argument -->
<g id="edge8" class="edge">
<title>simple_map::borrow_mut&#45;&gt;error::invalid_argument</title>
<path fill="none" stroke="black" d="M717.93,-345.35C710.04,-343.34 701.8,-341.44 694,-340 661.04,-333.9 652.31,-335.77 619,-332 505.83,-319.17 374.79,-303.24 294.4,-293.35"/>
<polygon fill="black" stroke="black" points="295.25,-289.93 284.9,-292.18 294.4,-296.87 295.25,-289.93"/>
</g>
<!-- option::extract -->
<g id="node8" class="node">
<title>option::extract</title>
<ellipse fill="none" stroke="black" cx="961" cy="-200" rx="34.39" ry="18"/>
<text text-anchor="middle" x="961" y="-196.3" font-family="Times,serif" font-size="14.00">extract</text>
</g>
<!-- simple_map::borrow_mut&#45;&gt;option::extract -->
<g id="edge9" class="edge">
<title>simple_map::borrow_mut&#45;&gt;option::extract</title>
<path fill="none" stroke="black" d="M798.09,-345.46C805.97,-343.45 814.21,-341.51 822,-340 836.07,-337.27 874.07,-339.95 886,-332 922.36,-307.78 943.17,-259.56 953.26,-228.86"/>
<polygon fill="black" stroke="black" points="956.55,-230.07 956.17,-219.48 949.86,-228 956.55,-230.07"/>
</g>
<!-- option::is_some -->
<g id="node9" class="node">
<title>option::is_some</title>
<ellipse fill="none" stroke="black" cx="955" cy="-117" rx="40.09" ry="18"/>
<text text-anchor="middle" x="955" y="-113.3" font-family="Times,serif" font-size="14.00">is_some</text>
</g>
<!-- simple_map::borrow_mut&#45;&gt;option::is_some -->
<g id="edge10" class="edge">
<title>simple_map::borrow_mut&#45;&gt;option::is_some</title>
<path fill="none" stroke="black" d="M797.7,-345.25C805.69,-343.22 814.07,-341.34 822,-340 845.07,-336.09 905.92,-342.17 927,-332 972.32,-310.14 985.62,-295.84 1004,-249 1016.18,-217.97 1015.72,-205.2 1004,-174 999.37,-161.69 990.67,-150.31 981.88,-141.07"/>
<polygon fill="black" stroke="black" points="984.55,-138.79 974.96,-134.28 979.64,-143.78 984.55,-138.79"/>
</g>
<!-- simple_map::find -->
<g id="node10" class="node">
<title>simple_map::find</title>
<ellipse fill="none" stroke="black" cx="708" cy="-283" rx="27" ry="18"/>
<text text-anchor="middle" x="708" y="-279.3" font-family="Times,serif" font-size="14.00">find</text>
</g>
<!-- simple_map::borrow_mut&#45;&gt;simple_map::find -->
<g id="edge11" class="edge">
<title>simple_map::borrow_mut&#45;&gt;simple_map::find</title>
<path fill="none" stroke="black" d="M746.4,-340.07C740.11,-330.88 732.2,-319.33 725.2,-309.11"/>
<polygon fill="black" stroke="black" points="728.24,-307.36 719.7,-301.09 722.47,-311.32 728.24,-307.36"/>
</g>
<!-- simple_map::add&#45;&gt;error::invalid_argument -->
<g id="edge12" class="edge">
<title>simple_map::add&#45;&gt;error::invalid_argument</title>
<path fill="none" stroke="black" d="M631.85,-352.65C565.56,-341.63 389.12,-312.29 289.68,-295.75"/>
<polygon fill="black" stroke="black" points="290.47,-292.34 280.03,-294.15 289.32,-299.24 290.47,-292.34"/>
</g>
<!-- simple_map::add&#45;&gt;option::extract -->
<g id="edge13" class="edge">
<title>simple_map::add&#45;&gt;option::extract</title>
<path fill="none" stroke="black" d="M678.45,-345.77C683.41,-343.49 688.79,-341.38 694,-340 739.68,-327.93 756.42,-350.24 800,-332 846.79,-312.43 841.13,-280.64 886,-257 898.59,-250.37 904.8,-256.32 917,-249 926.82,-243.1 935.76,-234.35 942.98,-225.93"/>
<polygon fill="black" stroke="black" points="945.61,-228.24 949.15,-218.25 940.16,-223.86 945.61,-228.24"/>
</g>
<!-- simple_map::add&#45;&gt;simple_map::find -->
<g id="edge15" class="edge">
<title>simple_map::add&#45;&gt;simple_map::find</title>
<path fill="none" stroke="black" d="M668.85,-341.16C675.27,-331.79 683.55,-319.7 690.84,-309.06"/>
<polygon fill="black" stroke="black" points="693.55,-311.29 696.32,-301.06 687.78,-307.33 693.55,-311.29"/>
</g>
<!-- option::is_none -->
<g id="node11" class="node">
<title>option::is_none</title>
<ellipse fill="none" stroke="black" cx="870" cy="-200" rx="38.19" ry="18"/>
<text text-anchor="middle" x="870" y="-196.3" font-family="Times,serif" font-size="14.00">is_none</text>
</g>
<!-- simple_map::add&#45;&gt;option::is_none -->
<g id="edge14" class="edge">
<title>simple_map::add&#45;&gt;option::is_none</title>
<path fill="none" stroke="black" d="M678.54,-346.08C683.5,-343.79 688.85,-341.59 694,-340 715.5,-333.35 724.06,-342.43 744,-332 791.69,-307.07 831.76,-257.21 853.2,-226.71"/>
<polygon fill="black" stroke="black" points="855.86,-229.02 858.63,-218.79 850.09,-225.06 855.86,-229.02"/>
</g>
<!-- simple_map::contains_key -->
<g id="node12" class="node">
<title>simple_map::contains_key</title>
<ellipse fill="none" stroke="black" cx="888" cy="-358" rx="57.39" ry="18"/>
<text text-anchor="middle" x="888" y="-354.3" font-family="Times,serif" font-size="14.00">contains_key</text>
</g>
<!-- contains&#45;&gt;simple_map::contains_key -->
<g id="edge16" class="edge">
<title>contains&#45;&gt;simple_map::contains_key</title>
<path fill="none" stroke="black" d="M851.67,-415.44C857.35,-406.6 864.49,-395.52 870.92,-385.52"/>
<polygon fill="black" stroke="black" points="873.76,-387.58 876.23,-377.28 867.88,-383.79 873.76,-387.58"/>
</g>
<!-- option::extract&#45;&gt;option::is_some -->
<g id="edge17" class="edge">
<title>option::extract&#45;&gt;option::is_some</title>
<path fill="none" stroke="black" d="M959.73,-181.82C958.97,-171.58 957.99,-158.33 957.11,-146.55"/>
<polygon fill="black" stroke="black" points="960.63,-146.66 956.4,-136.94 953.65,-147.17 960.63,-146.66"/>
</g>
<!-- vector::is_empty -->
<g id="node13" class="node">
<title>vector::is_empty</title>
<ellipse fill="none" stroke="black" cx="888" cy="-34" rx="43.59" ry="18"/>
<text text-anchor="middle" x="888" y="-30.3" font-family="Times,serif" font-size="14.00">is_empty</text>
</g>
<!-- option::is_some&#45;&gt;vector::is_empty -->
<g id="edge18" class="edge">
<title>option::is_some&#45;&gt;vector::is_empty</title>
<path fill="none" stroke="black" d="M941.44,-99.61C932.09,-88.3 919.47,-73.05 908.85,-60.2"/>
<polygon fill="black" stroke="black" points="911.57,-58.01 902.5,-52.53 906.18,-62.47 911.57,-58.01"/>
</g>
<!-- option::none -->
<g id="node14" class="node">
<title>option::none</title>
<ellipse fill="none" stroke="black" cx="708" cy="-200" rx="27.9" ry="18"/>
<text text-anchor="middle" x="708" y="-196.3" font-family="Times,serif" font-size="14.00">none</text>
</g>
<!-- simple_map::find&#45;&gt;option::none -->
<g id="edge19" class="edge">
<title>simple_map::find&#45;&gt;option::none</title>
<path fill="none" stroke="black" d="M708,-264.82C708,-254.69 708,-241.6 708,-229.92"/>
<polygon fill="black" stroke="black" points="711.5,-229.95 708,-219.95 704.5,-229.95 711.5,-229.95"/>
</g>
<!-- option::some -->
<g id="node15" class="node">
<title>option::some</title>
<ellipse fill="none" stroke="black" cx="784" cy="-200" rx="29.8" ry="18"/>
<text text-anchor="middle" x="784" y="-196.3" font-family="Times,serif" font-size="14.00">some</text>
</g>
<!-- simple_map::find&#45;&gt;option::some -->
<g id="edge20" class="edge">
<title>simple_map::find&#45;&gt;option::some</title>
<path fill="none" stroke="black" d="M724.36,-268.4C730.99,-262.65 738.58,-255.72 745,-249 751.96,-241.71 759.06,-233.32 765.26,-225.61"/>
<polygon fill="black" stroke="black" points="767.93,-227.87 771.37,-217.85 762.43,-223.54 767.93,-227.87"/>
</g>
<!-- comparator::compare -->
<g id="node16" class="node">
<title>comparator::compare</title>
<ellipse fill="none" stroke="black" cx="358" cy="-200" rx="41.69" ry="18"/>
<text text-anchor="middle" x="358" y="-196.3" font-family="Times,serif" font-size="14.00">compare</text>
</g>
<!-- simple_map::find&#45;&gt;comparator::compare -->
<g id="edge21" class="edge">
<title>simple_map::find&#45;&gt;comparator::compare</title>
<path fill="none" stroke="black" d="M681.05,-281.2C616.94,-278.95 457.13,-271.22 409,-249 397.29,-243.59 386.52,-234.42 377.93,-225.54"/>
<polygon fill="black" stroke="black" points="380.73,-223.42 371.42,-218.36 375.55,-228.12 380.73,-223.42"/>
</g>
<!-- comparator::is_smaller_than -->
<g id="node17" class="node">
<title>comparator::is_smaller_than</title>
<ellipse fill="none" stroke="black" cx="485" cy="-200" rx="66.89" ry="18"/>
<text text-anchor="middle" x="485" y="-196.3" font-family="Times,serif" font-size="14.00">is_smaller_than</text>
</g>
<!-- simple_map::find&#45;&gt;comparator::is_smaller_than -->
<g id="edge22" class="edge">
<title>simple_map::find&#45;&gt;comparator::is_smaller_than</title>
<path fill="none" stroke="black" d="M684.56,-273.48C649.15,-260.62 581.22,-235.95 534.53,-218.99"/>
<polygon fill="black" stroke="black" points="535.76,-215.71 525.16,-215.59 533.37,-222.29 535.76,-215.71"/>
</g>
<!-- option::is_none&#45;&gt;vector::is_empty -->
<g id="edge23" class="edge">
<title>option::is_none&#45;&gt;vector::is_empty</title>
<path fill="none" stroke="black" d="M871.89,-181.76C874.99,-153.51 881.18,-97.11 884.92,-63.04"/>
<polygon fill="black" stroke="black" points="888.36,-63.84 885.97,-53.51 881.4,-63.07 888.36,-63.84"/>
</g>
<!-- simple_map::contains_key&#45;&gt;option::is_some -->
<g id="edge24" class="edge">
<title>simple_map::contains_key&#45;&gt;option::is_some</title>
<path fill="none" stroke="black" d="M944.75,-354.89C981.69,-352.18 1025.14,-346.02 1037,-332 1082.36,-278.39 1069.79,-236.1 1037,-174 1027.87,-156.7 1010.72,-143.74 994.46,-134.67"/>
<polygon fill="black" stroke="black" points="996.37,-131.71 985.88,-130.21 993.14,-137.92 996.37,-131.71"/>
</g>
<!-- simple_map::contains_key&#45;&gt;simple_map::find -->
<g id="edge25" class="edge">
<title>simple_map::contains_key&#45;&gt;simple_map::find</title>
<path fill="none" stroke="black" d="M853.72,-343.1C821.42,-330 773.33,-310.5 741.34,-297.52"/>
<polygon fill="black" stroke="black" points="742.73,-294.31 732.15,-293.8 740.1,-300.8 742.73,-294.31"/>
</g>
<!-- vector::singleton -->
<g id="node18" class="node">
<title>vector::singleton</title>
<ellipse fill="none" stroke="black" cx="784" cy="-34" rx="42.79" ry="18"/>
<text text-anchor="middle" x="784" y="-30.3" font-family="Times,serif" font-size="14.00">singleton</text>
</g>
<!-- option::some&#45;&gt;vector::singleton -->
<g id="edge26" class="edge">
<title>option::some&#45;&gt;vector::singleton</title>
<path fill="none" stroke="black" d="M784,-181.76C784,-153.63 784,-97.6 784,-63.49"/>
<polygon fill="black" stroke="black" points="787.5,-63.52 784,-53.52 780.5,-63.52 787.5,-63.52"/>
</g>
<!-- bcs::to_bytes -->
<g id="node19" class="node">
<title>bcs::to_bytes</title>
<ellipse fill="none" stroke="black" cx="616" cy="-117" rx="40.09" ry="18"/>
<text text-anchor="middle" x="616" y="-113.3" font-family="Times,serif" font-size="14.00">to_bytes</text>
</g>
<!-- comparator::compare&#45;&gt;bcs::to_bytes -->
<g id="edge27" class="edge">
<title>comparator::compare&#45;&gt;bcs::to_bytes</title>
<path fill="none" stroke="black" d="M381.87,-184.83C390.18,-180.57 399.74,-176.4 409,-174 442.39,-165.34 532.21,-179.38 564,-166 576.01,-160.94 587,-151.83 595.75,-142.9"/>
<polygon fill="black" stroke="black" points="598.22,-145.38 602.39,-135.64 593.06,-140.66 598.22,-145.38"/>
</g>
<!-- comparator::compare_u8_vector -->
<g id="node20" class="node">
<title>comparator::compare_u8_vector</title>
<ellipse fill="none" stroke="black" cx="397" cy="-117" rx="81.49" ry="18"/>
<text text-anchor="middle" x="397" y="-113.3" font-family="Times,serif" font-size="14.00">compare_u8_vector</text>
</g>
<!-- comparator::compare&#45;&gt;comparator::compare_u8_vector -->
<g id="edge28" class="edge">
<title>comparator::compare&#45;&gt;comparator::compare_u8_vector</title>
<path fill="none" stroke="black" d="M366.08,-182.22C371.19,-171.61 377.91,-157.65 383.78,-145.45"/>
<polygon fill="black" stroke="black" points="386.82,-147.21 388,-136.68 380.51,-144.18 386.82,-147.21"/>
</g>
</g>
</svg>
