<?xml version="1.0" encoding="UTF-8" standalone="no"?>
<!DOCTYPE svg PUBLIC "-//W3C//DTD SVG 1.1//EN"
 "http://www.w3.org/Graphics/SVG/1.1/DTD/svg11.dtd">
<!-- Generated by graphviz version 7.0.0 (20221023.0053)
 -->
<!-- Title: G Pages: 1 -->
<svg width="1036pt" height="603pt"
 viewBox="0.00 0.00 1036.00 603.00" xmlns="http://www.w3.org/2000/svg" xmlns:xlink="http://www.w3.org/1999/xlink">
<g id="graph0" class="graph" transform="scale(1 1) rotate(0) translate(4 599)">
<title>G</title>
<polygon fill="white" stroke="none" points="-4,4 -4,-599 1032,-599 1032,4 -4,4"/>
<g id="clust1" class="cluster">
<title>cluster_vector</title>
<polygon fill="none" stroke="black" points="40,-8 40,-83 443,-83 443,-8 40,-8"/>
<text text-anchor="middle" x="241.5" y="-67.8" font-family="Times,serif" font-size="14.00">vector</text>
</g>
<g id="clust2" class="cluster">
<title>cluster_error</title>
<polygon fill="none" stroke="black" points="858,-174 858,-332 1020,-332 1020,-174 858,-174"/>
<text text-anchor="middle" x="939" y="-316.8" font-family="Times,serif" font-size="14.00">error</text>
</g>
<g id="clust3" class="cluster">
<title>cluster_simple_map</title>
<polygon fill="none" stroke="black" points="408,-257 408,-407 850,-407 850,-257 408,-257"/>
<text text-anchor="middle" x="629" y="-391.8" font-family="Times,serif" font-size="14.00">simple_map</text>
</g>
<g id="clust4" class="cluster">
<title>cluster_option</title>
<polygon fill="none" stroke="black" points="422,-91 422,-249 658,-249 658,-91 422,-91"/>
<text text-anchor="middle" x="540" y="-233.8" font-family="Times,serif" font-size="14.00">option</text>
</g>
<g id="clust5" class="cluster">
<title>cluster_comparator</title>
<polygon fill="none" stroke="black" points="58,-91 58,-249 310,-249 310,-91 58,-91"/>
<text text-anchor="middle" x="184" y="-233.8" font-family="Times,serif" font-size="14.00">comparator</text>
</g>
<g id="clust6" class="cluster">
<title>cluster_bcs</title>
<polygon fill="none" stroke="black" points="318,-91 318,-166 414,-166 414,-91 318,-91"/>
<text text-anchor="middle" x="366" y="-150.8" font-family="Times,serif" font-size="14.00">bcs</text>
</g>
<!-- deduct_shares -->
<g id="node1" class="node">
<title>deduct_shares</title>
<ellipse fill="none" stroke="black" cx="529" cy="-577" rx="60.39" ry="18"/>
<text text-anchor="middle" x="529" y="-573.3" font-family="Times,serif" font-size="14.00">deduct_shares</text>
</g>
<!-- vector::index_of -->
<g id="node2" class="node">
<title>vector::index_of</title>
<ellipse fill="none" stroke="black" cx="90" cy="-34" rx="42.49" ry="18"/>
<text text-anchor="middle" x="90" y="-30.3" font-family="Times,serif" font-size="14.00">index_of</text>
</g>
<!-- deduct_shares&#45;&gt;vector::index_of -->
<g id="edge1" class="edge">
<title>deduct_shares&#45;&gt;vector::index_of</title>
<path fill="none" stroke="black" d="M469.12,-574.37C362.04,-570.58 142.71,-558.6 76,-523 30.11,-498.51 0,-486.02 0,-434 0,-434 0,-434 0,-199 0,-149.3 3.23,-133.49 29,-91 36.88,-78 48.66,-66.19 59.77,-56.8"/>
<polygon fill="black" stroke="black" points="61.68,-59.76 67.27,-50.76 57.29,-54.3 61.68,-59.76"/>
</g>
<!-- vector::remove -->
<g id="node3" class="node">
<title>vector::remove</title>
<ellipse fill="none" stroke="black" cx="188" cy="-34" rx="37.89" ry="18"/>
<text text-anchor="middle" x="188" y="-30.3" font-family="Times,serif" font-size="14.00">remove</text>
</g>
<!-- deduct_shares&#45;&gt;vector::remove -->
<g id="edge2" class="edge">
<title>deduct_shares&#45;&gt;vector::remove</title>
<path fill="none" stroke="black" d="M471.23,-571.55C341.44,-559.95 38,-523.29 38,-434 38,-434 38,-434 38,-199 38,-150.48 18.75,-124.35 54,-91 68.1,-77.66 123.47,-91.34 141,-83 152.06,-77.74 161.95,-68.72 169.78,-59.91"/>
<polygon fill="black" stroke="black" points="172.24,-62.42 175.91,-52.48 166.85,-57.96 172.24,-62.42"/>
</g>
<!-- error::invalid_argument -->
<g id="node4" class="node">
<title>error::invalid_argument</title>
<ellipse fill="none" stroke="black" cx="939" cy="-283" rx="73.39" ry="18"/>
<text text-anchor="middle" x="939" y="-279.3" font-family="Times,serif" font-size="14.00">invalid_argument</text>
</g>
<!-- deduct_shares&#45;&gt;error::invalid_argument -->
<g id="edge3" class="edge">
<title>deduct_shares&#45;&gt;error::invalid_argument</title>
<path fill="none" stroke="black" d="M567.93,-562.84C632.86,-539.44 764.93,-485.56 854,-407 885.28,-379.41 910.78,-338 925.43,-310.99"/>
<polygon fill="black" stroke="black" points="928.39,-312.87 929.97,-302.4 922.2,-309.6 928.39,-312.87"/>
</g>
<!-- simple_map::borrow_mut -->
<g id="node5" class="node">
<title>simple_map::borrow_mut</title>
<ellipse fill="none" stroke="black" cx="787" cy="-358" rx="54.69" ry="18"/>
<text text-anchor="middle" x="787" y="-354.3" font-family="Times,serif" font-size="14.00">borrow_mut</text>
</g>
<!-- deduct_shares&#45;&gt;simple_map::borrow_mut -->
<g id="edge4" class="edge">
<title>deduct_shares&#45;&gt;simple_map::borrow_mut</title>
<path fill="none" stroke="black" d="M548.39,-559.69C593.7,-521.58 706.64,-426.59 759.24,-382.35"/>
<polygon fill="black" stroke="black" points="761.18,-385.29 766.58,-376.18 756.67,-379.94 761.18,-385.29"/>
</g>
<!-- simple_map::remove -->
<g id="node6" class="node">
<title>simple_map::remove</title>
<ellipse fill="none" stroke="black" cx="586" cy="-358" rx="37.89" ry="18"/>
<text text-anchor="middle" x="586" y="-354.3" font-family="Times,serif" font-size="14.00">remove</text>
</g>
<!-- deduct_shares&#45;&gt;simple_map::remove -->
<g id="edge5" class="edge">
<title>deduct_shares&#45;&gt;simple_map::remove</title>
<path fill="none" stroke="black" d="M545.8,-559.42C554.58,-549.68 564.59,-536.62 570,-523 587.86,-478.01 589.1,-420.84 587.89,-387.25"/>
<polygon fill="black" stroke="black" points="591.4,-387.34 587.43,-377.52 584.4,-387.67 591.4,-387.34"/>
</g>
<!-- contains -->
<g id="node7" class="node">
<title>contains</title>
<ellipse fill="none" stroke="black" cx="473" cy="-433" rx="40.09" ry="18"/>
<text text-anchor="middle" x="473" y="-429.3" font-family="Times,serif" font-size="14.00">contains</text>
</g>
<!-- deduct_shares&#45;&gt;contains -->
<g id="edge6" class="edge">
<title>deduct_shares&#45;&gt;contains</title>
<path fill="none" stroke="black" d="M512.57,-559.27C503.9,-549.48 493.88,-536.43 488,-523 479.68,-503.99 475.95,-480.83 474.29,-462.9"/>
<polygon fill="black" stroke="black" points="477.79,-462.66 473.56,-452.95 470.8,-463.18 477.79,-462.66"/>
</g>
<!-- shares -->
<g id="node8" class="node">
<title>shares</title>
<ellipse fill="none" stroke="black" cx="529" cy="-505" rx="32.49" ry="18"/>
<text text-anchor="middle" x="529" y="-501.3" font-family="Times,serif" font-size="14.00">shares</text>
</g>
<!-- deduct_shares&#45;&gt;shares -->
<g id="edge7" class="edge">
<title>deduct_shares&#45;&gt;shares</title>
<path fill="none" stroke="black" d="M529,-558.7C529,-551.41 529,-542.73 529,-534.54"/>
<polygon fill="black" stroke="black" points="532.5,-534.62 529,-524.62 525.5,-534.62 532.5,-534.62"/>
</g>
<!-- error::canonical -->
<g id="node9" class="node">
<title>error::canonical</title>
<ellipse fill="none" stroke="black" cx="939" cy="-200" rx="44.39" ry="18"/>
<text text-anchor="middle" x="939" y="-196.3" font-family="Times,serif" font-size="14.00">canonical</text>
</g>
<!-- error::invalid_argument&#45;&gt;error::canonical -->
<g id="edge8" class="edge">
<title>error::invalid_argument&#45;&gt;error::canonical</title>
<path fill="none" stroke="black" d="M939,-264.82C939,-254.69 939,-241.6 939,-229.92"/>
<polygon fill="black" stroke="black" points="942.5,-229.95 939,-219.95 935.5,-229.95 942.5,-229.95"/>
</g>
<!-- simple_map::borrow_mut&#45;&gt;error::invalid_argument -->
<g id="edge9" class="edge">
<title>simple_map::borrow_mut&#45;&gt;error::invalid_argument</title>
<path fill="none" stroke="black" d="M823.94,-344.4C833.83,-340.7 844.43,-336.45 854,-332 870.48,-324.33 888.07,-314.66 902.95,-306.02"/>
<polygon fill="black" stroke="black" points="904.62,-309.09 911.46,-301 901.07,-303.06 904.62,-309.09"/>
</g>
<!-- option::extract -->
<g id="node10" class="node">
<title>option::extract</title>
<ellipse fill="none" stroke="black" cx="616" cy="-200" rx="34.39" ry="18"/>
<text text-anchor="middle" x="616" y="-196.3" font-family="Times,serif" font-size="14.00">extract</text>
</g>
<!-- simple_map::borrow_mut&#45;&gt;option::extract -->
<g id="edge10" class="edge">
<title>simple_map::borrow_mut&#45;&gt;option::extract</title>
<path fill="none" stroke="black" d="M769.02,-340.6C738.19,-312.47 675.21,-255.01 640.43,-223.28"/>
<polygon fill="black" stroke="black" points="643.09,-220.98 633.35,-216.82 638.38,-226.15 643.09,-220.98"/>
</g>
<!-- option::is_some -->
<g id="node11" class="node">
<title>option::is_some</title>
<ellipse fill="none" stroke="black" cx="610" cy="-117" rx="40.09" ry="18"/>
<text text-anchor="middle" x="610" y="-113.3" font-family="Times,serif" font-size="14.00">is_some</text>
</g>
<!-- simple_map::borrow_mut&#45;&gt;option::is_some -->
<g id="edge11" class="edge">
<title>simple_map::borrow_mut&#45;&gt;option::is_some</title>
<path fill="none" stroke="black" d="M786.15,-339.65C783.53,-304.29 772.91,-223.12 730,-174 710.76,-151.98 681.02,-138.02 655.96,-129.54"/>
<polygon fill="black" stroke="black" points="657.23,-126.27 646.64,-126.59 655.11,-132.94 657.23,-126.27"/>
</g>
<!-- simple_map::find -->
<g id="node12" class="node">
<title>simple_map::find</title>
<ellipse fill="none" stroke="black" cx="504" cy="-283" rx="27" ry="18"/>
<text text-anchor="middle" x="504" y="-279.3" font-family="Times,serif" font-size="14.00">find</text>
</g>
<!-- simple_map::borrow_mut&#45;&gt;simple_map::find -->
<g id="edge12" class="edge">
<title>simple_map::borrow_mut&#45;&gt;simple_map::find</title>
<path fill="none" stroke="black" d="M745.36,-345.88C737.92,-343.91 730.23,-341.88 723,-340 658.65,-323.23 583.53,-304.12 540.09,-293.12"/>
<polygon fill="black" stroke="black" points="541,-289.74 530.45,-290.68 539.28,-296.53 541,-289.74"/>
</g>
<!-- simple_map::remove&#45;&gt;error::invalid_argument -->
<g id="edge13" class="edge">
<title>simple_map::remove&#45;&gt;error::invalid_argument</title>
<path fill="none" stroke="black" d="M613.68,-345.38C619.93,-343.21 626.61,-341.24 633,-340 681.24,-330.64 806.7,-345.35 854,-332 872.86,-326.67 892.03,-316.36 907.38,-306.66"/>
<polygon fill="black" stroke="black" points="909.17,-309.67 915.61,-301.26 905.33,-303.82 909.17,-309.67"/>
</g>
<!-- simple_map::remove&#45;&gt;option::extract -->
<g id="edge14" class="edge">
<title>simple_map::remove&#45;&gt;option::extract</title>
<path fill="none" stroke="black" d="M589.33,-339.71C594.46,-313 604.38,-261.45 610.56,-229.27"/>
<polygon fill="black" stroke="black" points="613.92,-230.34 612.37,-219.85 607.05,-229.01 613.92,-230.34"/>
</g>
<!-- simple_map::remove&#45;&gt;option::is_some -->
<g id="edge15" class="edge">
<title>simple_map::remove&#45;&gt;option::is_some</title>
<path fill="none" stroke="black" d="M615.38,-346.34C633.59,-339.71 653.6,-332.37 654,-332 683.77,-304.44 683.36,-288.64 692,-249 699.1,-216.43 707.56,-203.48 692,-174 682.87,-156.7 665.72,-143.74 649.46,-134.67"/>
<polygon fill="black" stroke="black" points="651.37,-131.71 640.88,-130.21 648.14,-137.92 651.37,-131.71"/>
</g>
<!-- simple_map::remove&#45;&gt;simple_map::find -->
<g id="edge16" class="edge">
<title>simple_map::remove&#45;&gt;simple_map::find</title>
<path fill="none" stroke="black" d="M568.61,-341.52C556.85,-331.04 541.15,-317.07 528.17,-305.52"/>
<polygon fill="black" stroke="black" points="530.63,-303.02 520.83,-298.98 525.97,-308.25 530.63,-303.02"/>
</g>
<!-- simple_map::contains_key -->
<g id="node13" class="node">
<title>simple_map::contains_key</title>
<ellipse fill="none" stroke="black" cx="473" cy="-358" rx="57.39" ry="18"/>
<text text-anchor="middle" x="473" y="-354.3" font-family="Times,serif" font-size="14.00">contains_key</text>
</g>
<!-- contains&#45;&gt;simple_map::contains_key -->
<g id="edge17" class="edge">
<title>contains&#45;&gt;simple_map::contains_key</title>
<path fill="none" stroke="black" d="M473,-414.7C473,-406.67 473,-396.9 473,-387.8"/>
<polygon fill="black" stroke="black" points="476.5,-387.94 473,-377.94 469.5,-387.94 476.5,-387.94"/>
</g>
<!-- shares&#45;&gt;contains -->
<g id="edge19" class="edge">
<title>shares&#45;&gt;contains</title>
<path fill="none" stroke="black" d="M516.29,-488.12C509.45,-479.56 500.84,-468.8 493.11,-459.13"/>
<polygon fill="black" stroke="black" points="495.97,-457.11 486.99,-451.49 490.51,-461.48 495.97,-457.11"/>
</g>
<!-- simple_map::borrow -->
<g id="node14" class="node">
<title>simple_map::borrow</title>
<ellipse fill="none" stroke="black" cx="678" cy="-358" rx="36.29" ry="18"/>
<text text-anchor="middle" x="678" y="-354.3" font-family="Times,serif" font-size="14.00">borrow</text>
</g>
<!-- shares&#45;&gt;simple_map::borrow -->
<g id="edge18" class="edge">
<title>shares&#45;&gt;simple_map::borrow</title>
<path fill="none" stroke="black" d="M545.53,-489.21C566.32,-470.47 602.93,-436.99 633,-407 640.72,-399.3 648.94,-390.67 656.22,-382.87"/>
<polygon fill="black" stroke="black" points="658.42,-385.64 662.64,-375.93 653.28,-380.89 658.42,-385.64"/>
</g>
<!-- option::extract&#45;&gt;option::is_some -->
<g id="edge20" class="edge">
<title>option::extract&#45;&gt;option::is_some</title>
<path fill="none" stroke="black" d="M614.73,-181.82C613.97,-171.58 612.99,-158.33 612.11,-146.55"/>
<polygon fill="black" stroke="black" points="615.63,-146.66 611.4,-136.94 608.65,-147.17 615.63,-146.66"/>
</g>
<!-- vector::is_empty -->
<g id="node15" class="node">
<title>vector::is_empty</title>
<ellipse fill="none" stroke="black" cx="391" cy="-34" rx="43.59" ry="18"/>
<text text-anchor="middle" x="391" y="-30.3" font-family="Times,serif" font-size="14.00">is_empty</text>
</g>
<!-- option::is_some&#45;&gt;vector::is_empty -->
<g id="edge21" class="edge">
<title>option::is_some&#45;&gt;vector::is_empty</title>
<path fill="none" stroke="black" d="M580.01,-104.91C542.07,-90.88 476.52,-66.63 433.46,-50.7"/>
<polygon fill="black" stroke="black" points="434.77,-47.46 424.18,-47.27 432.34,-54.02 434.77,-47.46"/>
</g>
<!-- option::none -->
<g id="node16" class="node">
<title>option::none</title>
<ellipse fill="none" stroke="black" cx="536" cy="-200" rx="27.9" ry="18"/>
<text text-anchor="middle" x="536" y="-196.3" font-family="Times,serif" font-size="14.00">none</text>
</g>
<!-- simple_map::find&#45;&gt;option::none -->
<g id="edge22" class="edge">
<title>simple_map::find&#45;&gt;option::none</title>
<path fill="none" stroke="black" d="M510.63,-265.22C514.84,-254.57 520.37,-240.56 525.2,-228.33"/>
<polygon fill="black" stroke="black" points="528.4,-229.76 528.82,-219.17 521.89,-227.18 528.4,-229.76"/>
</g>
<!-- option::some -->
<g id="node17" class="node">
<title>option::some</title>
<ellipse fill="none" stroke="black" cx="460" cy="-200" rx="29.8" ry="18"/>
<text text-anchor="middle" x="460" y="-196.3" font-family="Times,serif" font-size="14.00">some</text>
</g>
<!-- simple_map::find&#45;&gt;option::some -->
<g id="edge23" class="edge">
<title>simple_map::find&#45;&gt;option::some</title>
<path fill="none" stroke="black" d="M495.1,-265.61C489.17,-254.7 481.25,-240.13 474.44,-227.58"/>
<polygon fill="black" stroke="black" points="477.61,-226.09 469.76,-218.98 471.46,-229.43 477.61,-226.09"/>
</g>
<!-- comparator::compare -->
<g id="node18" class="node">
<title>comparator::compare</title>
<ellipse fill="none" stroke="black" cx="260" cy="-200" rx="41.69" ry="18"/>
<text text-anchor="middle" x="260" y="-196.3" font-family="Times,serif" font-size="14.00">compare</text>
</g>
<!-- simple_map::find&#45;&gt;comparator::compare -->
<g id="edge24" class="edge">
<title>simple_map::find&#45;&gt;comparator::compare</title>
<path fill="none" stroke="black" d="M480.16,-274.09C439.16,-260.48 354.74,-232.45 303.17,-215.33"/>
<polygon fill="black" stroke="black" points="304.41,-212.06 293.82,-212.23 302.21,-218.7 304.41,-212.06"/>
</g>
<!-- comparator::is_smaller_than -->
<g id="node19" class="node">
<title>comparator::is_smaller_than</title>
<ellipse fill="none" stroke="black" cx="133" cy="-200" rx="66.89" ry="18"/>
<text text-anchor="middle" x="133" y="-196.3" font-family="Times,serif" font-size="14.00">is_smaller_than</text>
</g>
<!-- simple_map::find&#45;&gt;comparator::is_smaller_than -->
<g id="edge25" class="edge">
<title>simple_map::find&#45;&gt;comparator::is_smaller_than</title>
<path fill="none" stroke="black" d="M477.18,-280.54C414.16,-276.87 258.24,-266.27 209,-249 192.53,-243.22 175.94,-233.33 162.49,-224.02"/>
<polygon fill="black" stroke="black" points="164.68,-221.29 154.52,-218.3 160.6,-226.97 164.68,-221.29"/>
</g>
<!-- simple_map::contains_key&#45;&gt;option::is_some -->
<g id="edge26" class="edge">
<title>simple_map::contains_key&#45;&gt;option::is_some</title>
<path fill="none" stroke="black" d="M511.99,-344.34C521.36,-340.79 531.2,-336.61 540,-332 568.55,-317.02 644.09,-277.58 659,-249 674.42,-219.45 670.72,-205.2 659,-174 654.37,-161.69 645.67,-150.31 636.88,-141.07"/>
<polygon fill="black" stroke="black" points="639.55,-138.79 629.96,-134.28 634.64,-143.78 639.55,-138.79"/>
</g>
<!-- simple_map::contains_key&#45;&gt;simple_map::find -->
<g id="edge27" class="edge">
<title>simple_map::contains_key&#45;&gt;simple_map::find</title>
<path fill="none" stroke="black" d="M480.35,-339.7C483.99,-331.12 488.47,-320.57 492.55,-310.96"/>
<polygon fill="black" stroke="black" points="495.64,-312.64 496.33,-302.07 489.2,-309.9 495.64,-312.64"/>
</g>
<!-- simple_map::borrow&#45;&gt;error::invalid_argument -->
<g id="edge28" class="edge">
<title>simple_map::borrow&#45;&gt;error::invalid_argument</title>
<path fill="none" stroke="black" d="M704.73,-345.4C710.65,-343.26 716.96,-341.29 723,-340 780.04,-327.78 798.06,-348.54 854,-332 872.66,-326.48 891.69,-316.25 906.99,-306.65"/>
<polygon fill="black" stroke="black" points="908.73,-309.7 915.2,-301.32 904.91,-303.83 908.73,-309.7"/>
</g>
<!-- simple_map::borrow&#45;&gt;option::extract -->
<g id="edge29" class="edge">
<title>simple_map::borrow&#45;&gt;option::extract</title>
<path fill="none" stroke="black" d="M671.25,-340.01C660.58,-313.17 639.72,-260.69 626.91,-228.45"/>
<polygon fill="black" stroke="black" points="630.25,-227.38 623.3,-219.38 623.74,-229.96 630.25,-227.38"/>
</g>
<!-- simple_map::borrow&#45;&gt;option::is_some -->
<g id="edge30" class="edge">
<title>simple_map::borrow&#45;&gt;option::is_some</title>
<path fill="none" stroke="black" d="M687.86,-340.28C706.41,-306.44 741.88,-228.4 710,-174 697.92,-153.39 675.17,-139.79 654.42,-131.16"/>
<polygon fill="black" stroke="black" points="655.82,-127.95 645.23,-127.64 653.31,-134.49 655.82,-127.95"/>
</g>
<!-- simple_map::borrow&#45;&gt;simple_map::find -->
<g id="edge31" class="edge">
<title>simple_map::borrow&#45;&gt;simple_map::find</title>
<path fill="none" stroke="black" d="M650.81,-345.59C620.07,-332.7 570.01,-311.7 537.04,-297.86"/>
<polygon fill="black" stroke="black" points="538.54,-294.7 527.96,-294.05 535.83,-301.15 538.54,-294.7"/>
</g>
<!-- vector::singleton -->
<g id="node20" class="node">
<title>vector::singleton</title>
<ellipse fill="none" stroke="black" cx="287" cy="-34" rx="42.79" ry="18"/>
<text text-anchor="middle" x="287" y="-30.3" font-family="Times,serif" font-size="14.00">singleton</text>
</g>
<!-- option::some&#45;&gt;vector::singleton -->
<g id="edge32" class="edge">
<title>option::some&#45;&gt;vector::singleton</title>
<path fill="none" stroke="black" d="M458.72,-181.89C455.88,-157.4 446.83,-112.91 418,-91 403.77,-80.19 354.26,-90.41 338,-83 326.26,-77.65 315.49,-68.49 306.91,-59.6"/>
<polygon fill="black" stroke="black" points="309.7,-57.48 300.4,-52.41 304.51,-62.17 309.7,-57.48"/>
</g>
<!-- bcs::to_bytes -->
<g id="node21" class="node">
<title>bcs::to_bytes</title>
<ellipse fill="none" stroke="black" cx="366" cy="-117" rx="40.09" ry="18"/>
<text text-anchor="middle" x="366" y="-113.3" font-family="Times,serif" font-size="14.00">to_bytes</text>
</g>
<!-- comparator::compare&#45;&gt;bcs::to_bytes -->
<g id="edge33" class="edge">
<title>comparator::compare&#45;&gt;bcs::to_bytes</title>
<path fill="none" stroke="black" d="M284.86,-185.2C294.26,-179.63 304.88,-172.89 314,-166 323.71,-158.67 333.68,-149.83 342.27,-141.74"/>
<polygon fill="black" stroke="black" points="344.45,-144.5 349.24,-135.04 339.6,-139.45 344.45,-144.5"/>
</g>
<!-- comparator::compare_u8_vector -->
<g id="node22" class="node">
<title>comparator::compare_u8_vector</title>
<ellipse fill="none" stroke="black" cx="221" cy="-117" rx="81.49" ry="18"/>
<text text-anchor="middle" x="221" y="-113.3" font-family="Times,serif" font-size="14.00">compare_u8_vector</text>
</g>
<!-- comparator::compare&#45;&gt;comparator::compare_u8_vector -->
<g id="edge34" class="edge">
<title>comparator::compare&#45;&gt;comparator::compare_u8_vector</title>
<path fill="none" stroke="black" d="M251.92,-182.22C246.81,-171.61 240.09,-157.65 234.22,-145.45"/>
<polygon fill="black" stroke="black" points="237.49,-144.18 230,-136.68 231.18,-147.21 237.49,-144.18"/>
</g>
</g>
</svg>
