<?xml version="1.0" encoding="UTF-8" standalone="no"?>
<!DOCTYPE svg PUBLIC "-//W3C//DTD SVG 1.1//EN"
 "http://www.w3.org/Graphics/SVG/1.1/DTD/svg11.dtd">
<!-- Generated by graphviz version 7.0.0 (20221023.0053)
 -->
<!-- Title: G Pages: 1 -->
<svg width="826pt" height="376pt"
 viewBox="0.00 0.00 826.00 376.00" xmlns="http://www.w3.org/2000/svg" xmlns:xlink="http://www.w3.org/1999/xlink">
<g id="graph0" class="graph" transform="scale(1 1) rotate(0) translate(4 372)">
<title>G</title>
<polygon fill="white" stroke="none" points="-4,4 -4,-372 822,-372 822,4 -4,4"/>
<g id="clust1" class="cluster">
<title>cluster_error</title>
<polygon fill="none" stroke="black" points="8,-174 8,-324 170,-324 170,-174 8,-174"/>
<text text-anchor="middle" x="89" y="-308.8" font-family="Times,serif" font-size="14.00">error</text>
</g>
<g id="clust2" class="cluster">
<title>cluster_option</title>
<polygon fill="none" stroke="black" points="210,-91 210,-249 446,-249 446,-91 210,-91"/>
<text text-anchor="middle" x="328" y="-233.8" font-family="Times,serif" font-size="14.00">option</text>
</g>
<g id="clust3" class="cluster">
<title>cluster_vector</title>
<polygon fill="none" stroke="black" points="217,-8 217,-83 424,-83 424,-8 217,-8"/>
<text text-anchor="middle" x="320.5" y="-67.8" font-family="Times,serif" font-size="14.00">vector</text>
</g>
<g id="clust4" class="cluster">
<title>cluster_comparator</title>
<polygon fill="none" stroke="black" points="454,-91 454,-249 706,-249 706,-91 454,-91"/>
<text text-anchor="middle" x="580" y="-233.8" font-family="Times,serif" font-size="14.00">comparator</text>
</g>
<g id="clust5" class="cluster">
<title>cluster_bcs</title>
<polygon fill="none" stroke="black" points="714,-91 714,-166 810,-166 810,-91 714,-91"/>
<text text-anchor="middle" x="762" y="-150.8" font-family="Times,serif" font-size="14.00">bcs</text>
</g>
<!-- borrow -->
<g id="node1" class="node">
<title>borrow</title>
<ellipse fill="none" stroke="black" cx="215" cy="-350" rx="36.29" ry="18"/>
<text text-anchor="middle" x="215" y="-346.3" font-family="Times,serif" font-size="14.00">borrow</text>
</g>
<!-- error::invalid_argument -->
<g id="node2" class="node">
<title>error::invalid_argument</title>
<ellipse fill="none" stroke="black" cx="89" cy="-275" rx="73.39" ry="18"/>
<text text-anchor="middle" x="89" y="-271.3" font-family="Times,serif" font-size="14.00">invalid_argument</text>
</g>
<!-- borrow&#45;&gt;error::invalid_argument -->
<g id="edge1" class="edge">
<title>borrow&#45;&gt;error::invalid_argument</title>
<path fill="none" stroke="black" d="M191.89,-335.61C173.61,-325.02 147.73,-310.02 126.49,-297.72"/>
<polygon fill="black" stroke="black" points="128.52,-294.85 118.11,-292.87 125.01,-300.91 128.52,-294.85"/>
</g>
<!-- option::extract -->
<g id="node3" class="node">
<title>option::extract</title>
<ellipse fill="none" stroke="black" cx="252" cy="-200" rx="34.39" ry="18"/>
<text text-anchor="middle" x="252" y="-196.3" font-family="Times,serif" font-size="14.00">extract</text>
</g>
<!-- borrow&#45;&gt;option::extract -->
<g id="edge2" class="edge">
<title>borrow&#45;&gt;option::extract</title>
<path fill="none" stroke="black" d="M219.32,-331.73C225.61,-306.56 237.38,-259.49 244.94,-229.23"/>
<polygon fill="black" stroke="black" points="248.31,-230.18 247.34,-219.63 241.52,-228.48 248.31,-230.18"/>
</g>
<!-- option::is_some -->
<g id="node4" class="node">
<title>option::is_some</title>
<ellipse fill="none" stroke="black" cx="258" cy="-117" rx="40.09" ry="18"/>
<text text-anchor="middle" x="258" y="-113.3" font-family="Times,serif" font-size="14.00">is_some</text>
</g>
<!-- borrow&#45;&gt;option::is_some -->
<g id="edge3" class="edge">
<title>borrow&#45;&gt;option::is_some</title>
<path fill="none" stroke="black" d="M210.21,-331.9C202.11,-299.76 188.47,-228.64 209,-174 213.63,-161.69 222.33,-150.31 231.12,-141.07"/>
<polygon fill="black" stroke="black" points="233.36,-143.78 238.04,-134.28 228.45,-138.79 233.36,-143.78"/>
</g>
<!-- find -->
<g id="node5" class="node">
<title>find</title>
<ellipse fill="none" stroke="black" cx="408" cy="-275" rx="27" ry="18"/>
<text text-anchor="middle" x="408" y="-271.3" font-family="Times,serif" font-size="14.00">find</text>
</g>
<!-- borrow&#45;&gt;find -->
<g id="edge4" class="edge">
<title>borrow&#45;&gt;find</title>
<path fill="none" stroke="black" d="M243.06,-338.39C277.89,-325.21 337.22,-302.77 374.42,-288.7"/>
<polygon fill="black" stroke="black" points="375.22,-292.14 383.33,-285.33 372.74,-285.59 375.22,-292.14"/>
</g>
<!-- error::canonical -->
<g id="node6" class="node">
<title>error::canonical</title>
<ellipse fill="none" stroke="black" cx="89" cy="-200" rx="44.39" ry="18"/>
<text text-anchor="middle" x="89" y="-196.3" font-family="Times,serif" font-size="14.00">canonical</text>
</g>
<!-- error::invalid_argument&#45;&gt;error::canonical -->
<g id="edge5" class="edge">
<title>error::invalid_argument&#45;&gt;error::canonical</title>
<path fill="none" stroke="black" d="M89,-256.7C89,-248.67 89,-238.9 89,-229.8"/>
<polygon fill="black" stroke="black" points="92.5,-229.94 89,-219.94 85.5,-229.94 92.5,-229.94"/>
</g>
<!-- option::extract&#45;&gt;option::is_some -->
<g id="edge6" class="edge">
<title>option::extract&#45;&gt;option::is_some</title>
<path fill="none" stroke="black" d="M253.27,-181.82C254.03,-171.58 255.01,-158.33 255.89,-146.55"/>
<polygon fill="black" stroke="black" points="259.35,-147.17 256.6,-136.94 252.37,-146.66 259.35,-147.17"/>
</g>
<!-- vector::is_empty -->
<g id="node7" class="node">
<title>vector::is_empty</title>
<ellipse fill="none" stroke="black" cx="269" cy="-34" rx="43.59" ry="18"/>
<text text-anchor="middle" x="269" y="-30.3" font-family="Times,serif" font-size="14.00">is_empty</text>
</g>
<!-- option::is_some&#45;&gt;vector::is_empty -->
<g id="edge7" class="edge">
<title>option::is_some&#45;&gt;vector::is_empty</title>
<path fill="none" stroke="black" d="M260.33,-98.82C261.72,-88.58 263.52,-75.33 265.12,-63.55"/>
<polygon fill="black" stroke="black" points="268.55,-64.31 266.43,-53.93 261.62,-63.37 268.55,-64.31"/>
</g>
<!-- option::none -->
<g id="node8" class="node">
<title>option::none</title>
<ellipse fill="none" stroke="black" cx="332" cy="-200" rx="27.9" ry="18"/>
<text text-anchor="middle" x="332" y="-196.3" font-family="Times,serif" font-size="14.00">none</text>
</g>
<!-- find&#45;&gt;option::none -->
<g id="edge8" class="edge">
<title>find&#45;&gt;option::none</title>
<path fill="none" stroke="black" d="M387.61,-262.77C381.31,-258.84 374.57,-254.11 369,-249 361.61,-242.23 354.6,-233.85 348.7,-225.99"/>
<polygon fill="black" stroke="black" points="351.68,-224.13 343,-218.05 345.99,-228.22 351.68,-224.13"/>
</g>
<!-- option::some -->
<g id="node9" class="node">
<title>option::some</title>
<ellipse fill="none" stroke="black" cx="408" cy="-200" rx="29.8" ry="18"/>
<text text-anchor="middle" x="408" y="-196.3" font-family="Times,serif" font-size="14.00">some</text>
</g>
<!-- find&#45;&gt;option::some -->
<g id="edge9" class="edge">
<title>find&#45;&gt;option::some</title>
<path fill="none" stroke="black" d="M408,-256.7C408,-248.67 408,-238.9 408,-229.8"/>
<polygon fill="black" stroke="black" points="411.5,-229.94 408,-219.94 404.5,-229.94 411.5,-229.94"/>
</g>
<!-- comparator::compare -->
<g id="node10" class="node">
<title>comparator::compare</title>
<ellipse fill="none" stroke="black" cx="656" cy="-200" rx="41.69" ry="18"/>
<text text-anchor="middle" x="656" y="-196.3" font-family="Times,serif" font-size="14.00">compare</text>
</g>
<!-- find&#45;&gt;comparator::compare -->
<g id="edge10" class="edge">
<title>find&#45;&gt;comparator::compare</title>
<path fill="none" stroke="black" d="M434.99,-272.64C481.7,-269.94 575.45,-262.93 605,-249 616.67,-243.5 627.42,-234.31 636.02,-225.44"/>
<polygon fill="black" stroke="black" points="638.39,-228.03 642.54,-218.28 633.22,-223.32 638.39,-228.03"/>
</g>
<!-- comparator::is_smaller_than -->
<g id="node11" class="node">
<title>comparator::is_smaller_than</title>
<ellipse fill="none" stroke="black" cx="529" cy="-200" rx="66.89" ry="18"/>
<text text-anchor="middle" x="529" y="-196.3" font-family="Times,serif" font-size="14.00">is_smaller_than</text>
</g>
<!-- find&#45;&gt;comparator::is_smaller_than -->
<g id="edge11" class="edge">
<title>find&#45;&gt;comparator::is_smaller_than</title>
<path fill="none" stroke="black" d="M427.68,-262.34C434.73,-258.14 442.73,-253.37 450,-249 464.28,-240.41 479.96,-230.9 493.57,-222.62"/>
<polygon fill="black" stroke="black" points="495.05,-225.82 501.77,-217.63 491.41,-219.84 495.05,-225.82"/>
</g>
<!-- vector::singleton -->
<g id="node12" class="node">
<title>vector::singleton</title>
<ellipse fill="none" stroke="black" cx="373" cy="-34" rx="42.79" ry="18"/>
<text text-anchor="middle" x="373" y="-30.3" font-family="Times,serif" font-size="14.00">singleton</text>
</g>
<!-- option::some&#45;&gt;vector::singleton -->
<g id="edge12" class="edge">
<title>option::some&#45;&gt;vector::singleton</title>
<path fill="none" stroke="black" d="M404.32,-181.76C398.29,-153.51 386.25,-97.11 378.99,-63.04"/>
<polygon fill="black" stroke="black" points="382.46,-62.54 376.95,-53.49 375.61,-64 382.46,-62.54"/>
</g>
<!-- bcs::to_bytes -->
<g id="node13" class="node">
<title>bcs::to_bytes</title>
<ellipse fill="none" stroke="black" cx="762" cy="-117" rx="40.09" ry="18"/>
<text text-anchor="middle" x="762" y="-113.3" font-family="Times,serif" font-size="14.00">to_bytes</text>
</g>
<!-- comparator::compare&#45;&gt;bcs::to_bytes -->
<g id="edge13" class="edge">
<title>comparator::compare&#45;&gt;bcs::to_bytes</title>
<path fill="none" stroke="black" d="M680.86,-185.2C690.26,-179.63 700.88,-172.89 710,-166 719.71,-158.67 729.68,-149.83 738.27,-141.74"/>
<polygon fill="black" stroke="black" points="740.45,-144.5 745.24,-135.04 735.6,-139.45 740.45,-144.5"/>
</g>
<!-- comparator::compare_u8_vector -->
<g id="node14" class="node">
<title>comparator::compare_u8_vector</title>
<ellipse fill="none" stroke="black" cx="617" cy="-117" rx="81.49" ry="18"/>
<text text-anchor="middle" x="617" y="-113.3" font-family="Times,serif" font-size="14.00">compare_u8_vector</text>
</g>
<!-- comparator::compare&#45;&gt;comparator::compare_u8_vector -->
<g id="edge14" class="edge">
<title>comparator::compare&#45;&gt;comparator::compare_u8_vector</title>
<path fill="none" stroke="black" d="M647.92,-182.22C642.81,-171.61 636.09,-157.65 630.22,-145.45"/>
<polygon fill="black" stroke="black" points="633.49,-144.18 626,-136.68 627.18,-147.21 633.49,-144.18"/>
</g>
</g>
</svg>
