<?xml version="1.0" encoding="UTF-8" standalone="no"?>
<!DOCTYPE svg PUBLIC "-//W3C//DTD SVG 1.1//EN"
 "http://www.w3.org/Graphics/SVG/1.1/DTD/svg11.dtd">
<!-- Generated by graphviz version 7.0.0 (20221023.0053)
 -->
<!-- Title: G Pages: 1 -->
<svg width="268pt" height="188pt"
 viewBox="0.00 0.00 268.29 188.00" xmlns="http://www.w3.org/2000/svg" xmlns:xlink="http://www.w3.org/1999/xlink">
<g id="graph0" class="graph" transform="scale(1 1) rotate(0) translate(4 184)">
<title>G</title>
<polygon fill="white" stroke="none" points="-4,4 -4,-184 264.29,-184 264.29,4 -4,4"/>
<!-- simple_map -->
<g id="node1" class="node">
<title>simple_map</title>
<ellipse fill="none" stroke="black" cx="106.95" cy="-162" rx="54.69" ry="18"/>
<text text-anchor="middle" x="106.95" y="-158.3" font-family="Times,serif" font-size="14.00">simple_map</text>
</g>
<!-- error -->
<g id="node2" class="node">
<title>error</title>
<ellipse fill="none" stroke="black" cx="27.95" cy="-90" rx="27.9" ry="18"/>
<text text-anchor="middle" x="27.95" y="-86.3" font-family="Times,serif" font-size="14.00">error</text>
</g>
<!-- simple_map&#45;&gt;error -->
<g id="edge1" class="edge">
<title>simple_map&#45;&gt;error</title>
<path fill="none" stroke="black" d="M88.62,-144.76C77.8,-135.17 63.96,-122.91 52.24,-112.52"/>
<polygon fill="black" stroke="black" points="54.71,-110.03 44.9,-106.02 50.06,-115.27 54.71,-110.03"/>
</g>
<!-- option -->
<g id="node3" class="node">
<title>option</title>
<ellipse fill="none" stroke="black" cx="106.95" cy="-90" rx="33.29" ry="18"/>
<text text-anchor="middle" x="106.95" y="-86.3" font-family="Times,serif" font-size="14.00">option</text>
</g>
<!-- simple_map&#45;&gt;option -->
<g id="edge2" class="edge">
<title>simple_map&#45;&gt;option</title>
<path fill="none" stroke="black" d="M106.95,-143.7C106.95,-136.41 106.95,-127.73 106.95,-119.54"/>
<polygon fill="black" stroke="black" points="110.45,-119.62 106.95,-109.62 103.45,-119.62 110.45,-119.62"/>
</g>
<!-- comparator -->
<g id="node4" class="node">
<title>comparator</title>
<ellipse fill="none" stroke="black" cx="208.95" cy="-90" rx="51.19" ry="18"/>
<text text-anchor="middle" x="208.95" y="-86.3" font-family="Times,serif" font-size="14.00">comparator</text>
</g>
<!-- simple_map&#45;&gt;comparator -->
<g id="edge3" class="edge">
<title>simple_map&#45;&gt;comparator</title>
<path fill="none" stroke="black" d="M129.84,-145.29C143.85,-135.68 161.97,-123.24 177.34,-112.69"/>
<polygon fill="black" stroke="black" points="178.97,-115.82 185.24,-107.27 175.01,-110.05 178.97,-115.82"/>
</g>
<!-- vector -->
<g id="node5" class="node">
<title>vector</title>
<ellipse fill="none" stroke="black" cx="106.95" cy="-18" rx="32.49" ry="18"/>
<text text-anchor="middle" x="106.95" y="-14.3" font-family="Times,serif" font-size="14.00">vector</text>
</g>
<!-- option&#45;&gt;vector -->
<g id="edge4" class="edge">
<title>option&#45;&gt;vector</title>
<path fill="none" stroke="black" d="M106.95,-71.7C106.95,-64.41 106.95,-55.73 106.95,-47.54"/>
<polygon fill="black" stroke="black" points="110.45,-47.62 106.95,-37.62 103.45,-47.62 110.45,-47.62"/>
</g>
<!-- bcs -->
<g id="node6" class="node">
<title>bcs</title>
<ellipse fill="none" stroke="black" cx="208.95" cy="-18" rx="27" ry="18"/>
<text text-anchor="middle" x="208.95" y="-14.3" font-family="Times,serif" font-size="14.00">bcs</text>
</g>
<!-- comparator&#45;&gt;bcs -->
<g id="edge5" class="edge">
<title>comparator&#45;&gt;bcs</title>
<path fill="none" stroke="black" d="M208.95,-71.7C208.95,-64.41 208.95,-55.73 208.95,-47.54"/>
<polygon fill="black" stroke="black" points="212.45,-47.62 208.95,-37.62 205.45,-47.62 212.45,-47.62"/>
</g>
</g>
</svg>
