<?xml version="1.0" encoding="UTF-8" standalone="no"?>
<!DOCTYPE svg PUBLIC "-//W3C//DTD SVG 1.1//EN"
 "http://www.w3.org/Graphics/SVG/1.1/DTD/svg11.dtd">
<!-- Generated by graphviz version 7.0.0 (20221023.0053)
 -->
<!-- Title: G Pages: 1 -->
<svg width="595pt" height="290pt"
 viewBox="0.00 0.00 595.00 290.00" xmlns="http://www.w3.org/2000/svg" xmlns:xlink="http://www.w3.org/1999/xlink">
<g id="graph0" class="graph" transform="scale(1 1) rotate(0) translate(4 286)">
<title>G</title>
<polygon fill="white" stroke="none" points="-4,4 -4,-286 591,-286 591,4 -4,4"/>
<g id="clust1" class="cluster">
<title>cluster_option</title>
<polygon fill="none" stroke="black" points="297,-91 297,-166 545,-166 545,-91 297,-91"/>
<text text-anchor="middle" x="421" y="-150.8" font-family="Times,serif" font-size="14.00">option</text>
</g>
<g id="clust2" class="cluster">
<title>cluster_vector</title>
<polygon fill="none" stroke="black" points="372,-8 372,-83 579,-83 579,-8 372,-8"/>
<text text-anchor="middle" x="475.5" y="-67.8" font-family="Times,serif" font-size="14.00">vector</text>
</g>
<g id="clust3" class="cluster">
<title>cluster_comparator</title>
<polygon fill="none" stroke="black" points="8,-8 8,-166 260,-166 260,-8 8,-8"/>
<text text-anchor="middle" x="134" y="-150.8" font-family="Times,serif" font-size="14.00">comparator</text>
</g>
<g id="clust4" class="cluster">
<title>cluster_bcs</title>
<polygon fill="none" stroke="black" points="268,-8 268,-83 364,-83 364,-8 268,-8"/>
<text text-anchor="middle" x="316" y="-67.8" font-family="Times,serif" font-size="14.00">bcs</text>
</g>
<!-- contains_key -->
<g id="node1" class="node">
<title>contains_key</title>
<ellipse fill="none" stroke="black" cx="362" cy="-264" rx="57.39" ry="18"/>
<text text-anchor="middle" x="362" y="-260.3" font-family="Times,serif" font-size="14.00">contains_key</text>
</g>
<!-- option::is_some -->
<g id="node2" class="node">
<title>option::is_some</title>
<ellipse fill="none" stroke="black" cx="497" cy="-117" rx="40.09" ry="18"/>
<text text-anchor="middle" x="497" y="-113.3" font-family="Times,serif" font-size="14.00">is_some</text>
</g>
<!-- contains_key&#45;&gt;option::is_some -->
<g id="edge1" class="edge">
<title>contains_key&#45;&gt;option::is_some</title>
<path fill="none" stroke="black" d="M377.49,-246.37C401.31,-220.77 447.08,-171.62 474.55,-142.12"/>
<polygon fill="black" stroke="black" points="476.82,-144.81 481.07,-135.11 471.7,-140.04 476.82,-144.81"/>
</g>
<!-- find -->
<g id="node3" class="node">
<title>find</title>
<ellipse fill="none" stroke="black" cx="335" cy="-192" rx="27" ry="18"/>
<text text-anchor="middle" x="335" y="-188.3" font-family="Times,serif" font-size="14.00">find</text>
</g>
<!-- contains_key&#45;&gt;find -->
<g id="edge2" class="edge">
<title>contains_key&#45;&gt;find</title>
<path fill="none" stroke="black" d="M355.33,-245.7C352.37,-238.04 348.83,-228.85 345.53,-220.3"/>
<polygon fill="black" stroke="black" points="348.82,-219.1 341.96,-211.03 342.29,-221.62 348.82,-219.1"/>
</g>
<!-- vector::is_empty -->
<g id="node4" class="node">
<title>vector::is_empty</title>
<ellipse fill="none" stroke="black" cx="527" cy="-34" rx="43.59" ry="18"/>
<text text-anchor="middle" x="527" y="-30.3" font-family="Times,serif" font-size="14.00">is_empty</text>
</g>
<!-- option::is_some&#45;&gt;vector::is_empty -->
<g id="edge3" class="edge">
<title>option::is_some&#45;&gt;vector::is_empty</title>
<path fill="none" stroke="black" d="M503.36,-98.82C507.22,-88.41 512.23,-74.87 516.65,-62.94"/>
<polygon fill="black" stroke="black" points="519.93,-64.17 520.12,-53.57 513.37,-61.73 519.93,-64.17"/>
</g>
<!-- option::none -->
<g id="node5" class="node">
<title>option::none</title>
<ellipse fill="none" stroke="black" cx="411" cy="-117" rx="27.9" ry="18"/>
<text text-anchor="middle" x="411" y="-113.3" font-family="Times,serif" font-size="14.00">none</text>
</g>
<!-- find&#45;&gt;option::none -->
<g id="edge4" class="edge">
<title>find&#45;&gt;option::none</title>
<path fill="none" stroke="black" d="M355.39,-179.77C361.69,-175.84 368.43,-171.11 374,-166 381.39,-159.23 388.4,-150.85 394.3,-142.99"/>
<polygon fill="black" stroke="black" points="397.01,-145.22 400,-135.05 391.32,-141.13 397.01,-145.22"/>
</g>
<!-- option::some -->
<g id="node6" class="node">
<title>option::some</title>
<ellipse fill="none" stroke="black" cx="335" cy="-117" rx="29.8" ry="18"/>
<text text-anchor="middle" x="335" y="-113.3" font-family="Times,serif" font-size="14.00">some</text>
</g>
<!-- find&#45;&gt;option::some -->
<g id="edge5" class="edge">
<title>find&#45;&gt;option::some</title>
<path fill="none" stroke="black" d="M335,-173.7C335,-165.67 335,-155.9 335,-146.8"/>
<polygon fill="black" stroke="black" points="338.5,-146.94 335,-136.94 331.5,-146.94 338.5,-146.94"/>
</g>
<!-- comparator::compare -->
<g id="node7" class="node">
<title>comparator::compare</title>
<ellipse fill="none" stroke="black" cx="210" cy="-117" rx="41.69" ry="18"/>
<text text-anchor="middle" x="210" y="-113.3" font-family="Times,serif" font-size="14.00">compare</text>
</g>
<!-- find&#45;&gt;comparator::compare -->
<g id="edge6" class="edge">
<title>find&#45;&gt;comparator::compare</title>
<path fill="none" stroke="black" d="M315.19,-179.43C296,-168.23 266.53,-151.01 243.66,-137.66"/>
<polygon fill="black" stroke="black" points="245.7,-134.79 235.3,-132.77 242.17,-140.84 245.7,-134.79"/>
</g>
<!-- comparator::is_smaller_than -->
<g id="node8" class="node">
<title>comparator::is_smaller_than</title>
<ellipse fill="none" stroke="black" cx="83" cy="-117" rx="66.89" ry="18"/>
<text text-anchor="middle" x="83" y="-113.3" font-family="Times,serif" font-size="14.00">is_smaller_than</text>
</g>
<!-- find&#45;&gt;comparator::is_smaller_than -->
<g id="edge7" class="edge">
<title>find&#45;&gt;comparator::is_smaller_than</title>
<path fill="none" stroke="black" d="M307.6,-190.64C272.23,-189.39 209.26,-184.47 159,-166 142.73,-160.02 126.28,-150.2 112.86,-140.99"/>
<polygon fill="black" stroke="black" points="115.08,-138.28 104.91,-135.33 111.03,-143.98 115.08,-138.28"/>
</g>
<!-- vector::singleton -->
<g id="node9" class="node">
<title>vector::singleton</title>
<ellipse fill="none" stroke="black" cx="423" cy="-34" rx="42.79" ry="18"/>
<text text-anchor="middle" x="423" y="-30.3" font-family="Times,serif" font-size="14.00">singleton</text>
</g>
<!-- option::some&#45;&gt;vector::singleton -->
<g id="edge8" class="edge">
<title>option::some&#45;&gt;vector::singleton</title>
<path fill="none" stroke="black" d="M350.73,-101.52C363.71,-89.57 382.37,-72.39 397.48,-58.49"/>
<polygon fill="black" stroke="black" points="399.8,-61.11 404.79,-51.76 395.06,-55.96 399.8,-61.11"/>
</g>
<!-- bcs::to_bytes -->
<g id="node10" class="node">
<title>bcs::to_bytes</title>
<ellipse fill="none" stroke="black" cx="316" cy="-34" rx="40.09" ry="18"/>
<text text-anchor="middle" x="316" y="-30.3" font-family="Times,serif" font-size="14.00">to_bytes</text>
</g>
<!-- comparator::compare&#45;&gt;bcs::to_bytes -->
<g id="edge9" class="edge">
<title>comparator::compare&#45;&gt;bcs::to_bytes</title>
<path fill="none" stroke="black" d="M234.86,-102.2C244.26,-96.63 254.88,-89.89 264,-83 273.71,-75.67 283.68,-66.83 292.27,-58.74"/>
<polygon fill="black" stroke="black" points="294.45,-61.5 299.24,-52.04 289.6,-56.45 294.45,-61.5"/>
</g>
<!-- comparator::compare_u8_vector -->
<g id="node11" class="node">
<title>comparator::compare_u8_vector</title>
<ellipse fill="none" stroke="black" cx="171" cy="-34" rx="81.49" ry="18"/>
<text text-anchor="middle" x="171" y="-30.3" font-family="Times,serif" font-size="14.00">compare_u8_vector</text>
</g>
<!-- comparator::compare&#45;&gt;comparator::compare_u8_vector -->
<g id="edge10" class="edge">
<title>comparator::compare&#45;&gt;comparator::compare_u8_vector</title>
<path fill="none" stroke="black" d="M201.92,-99.22C196.81,-88.61 190.09,-74.65 184.22,-62.45"/>
<polygon fill="black" stroke="black" points="187.49,-61.18 180,-53.68 181.18,-64.21 187.49,-61.18"/>
</g>
</g>
</svg>
