<?xml version="1.0" encoding="UTF-8" standalone="no"?>
<!DOCTYPE svg PUBLIC "-//W3C//DTD SVG 1.1//EN"
 "http://www.w3.org/Graphics/SVG/1.1/DTD/svg11.dtd">
<!-- Generated by graphviz version 7.0.0 (20221023.0053)
 -->
<!-- Title: G Pages: 1 -->
<svg width="889pt" height="376pt"
 viewBox="0.00 0.00 889.00 376.00" xmlns="http://www.w3.org/2000/svg" xmlns:xlink="http://www.w3.org/1999/xlink">
<g id="graph0" class="graph" transform="scale(1 1) rotate(0) translate(4 372)">
<title>G</title>
<polygon fill="white" stroke="none" points="-4,4 -4,-372 885,-372 885,4 -4,4"/>
<g id="clust1" class="cluster">
<title>cluster_error</title>
<polygon fill="none" stroke="black" points="8,-174 8,-324 170,-324 170,-174 8,-174"/>
<text text-anchor="middle" x="89" y="-308.8" font-family="Times,serif" font-size="14.00">error</text>
</g>
<g id="clust2" class="cluster">
<title>cluster_option</title>
<polygon fill="none" stroke="black" points="178,-91 178,-249 509,-249 509,-91 178,-91"/>
<text text-anchor="middle" x="343.5" y="-233.8" font-family="Times,serif" font-size="14.00">option</text>
</g>
<g id="clust3" class="cluster">
<title>cluster_vector</title>
<polygon fill="none" stroke="black" points="241,-8 241,-83 448,-83 448,-8 241,-8"/>
<text text-anchor="middle" x="344.5" y="-67.8" font-family="Times,serif" font-size="14.00">vector</text>
</g>
<g id="clust4" class="cluster">
<title>cluster_comparator</title>
<polygon fill="none" stroke="black" points="517,-91 517,-249 769,-249 769,-91 517,-91"/>
<text text-anchor="middle" x="643" y="-233.8" font-family="Times,serif" font-size="14.00">comparator</text>
</g>
<g id="clust5" class="cluster">
<title>cluster_bcs</title>
<polygon fill="none" stroke="black" points="777,-91 777,-166 873,-166 873,-91 777,-91"/>
<text text-anchor="middle" x="825" y="-150.8" font-family="Times,serif" font-size="14.00">bcs</text>
</g>
<!-- add -->
<g id="node1" class="node">
<title>add</title>
<ellipse fill="none" stroke="black" cx="265" cy="-350" rx="27" ry="18"/>
<text text-anchor="middle" x="265" y="-346.3" font-family="Times,serif" font-size="14.00">add</text>
</g>
<!-- error::invalid_argument -->
<g id="node2" class="node">
<title>error::invalid_argument</title>
<ellipse fill="none" stroke="black" cx="89" cy="-275" rx="73.39" ry="18"/>
<text text-anchor="middle" x="89" y="-271.3" font-family="Times,serif" font-size="14.00">invalid_argument</text>
</g>
<!-- add&#45;&gt;error::invalid_argument -->
<g id="edge1" class="edge">
<title>add&#45;&gt;error::invalid_argument</title>
<path fill="none" stroke="black" d="M242.35,-339.61C215.51,-328.47 170.09,-309.63 135.63,-295.34"/>
<polygon fill="black" stroke="black" points="137.29,-292.24 126.72,-291.64 134.61,-298.71 137.29,-292.24"/>
</g>
<!-- option::extract -->
<g id="node3" class="node">
<title>option::extract</title>
<ellipse fill="none" stroke="black" cx="220" cy="-200" rx="34.39" ry="18"/>
<text text-anchor="middle" x="220" y="-196.3" font-family="Times,serif" font-size="14.00">extract</text>
</g>
<!-- add&#45;&gt;option::extract -->
<g id="edge2" class="edge">
<title>add&#45;&gt;option::extract</title>
<path fill="none" stroke="black" d="M259.84,-332.02C252.18,-306.84 237.73,-259.31 228.5,-228.95"/>
<polygon fill="black" stroke="black" points="231.94,-228.23 225.68,-219.68 225.24,-230.27 231.94,-228.23"/>
</g>
<!-- option::is_none -->
<g id="node4" class="node">
<title>option::is_none</title>
<ellipse fill="none" stroke="black" cx="311" cy="-200" rx="38.19" ry="18"/>
<text text-anchor="middle" x="311" y="-196.3" font-family="Times,serif" font-size="14.00">is_none</text>
</g>
<!-- add&#45;&gt;option::is_none -->
<g id="edge3" class="edge">
<title>add&#45;&gt;option::is_none</title>
<path fill="none" stroke="black" d="M270.28,-332.02C278.1,-306.84 292.88,-259.31 302.31,-228.95"/>
<polygon fill="black" stroke="black" points="305.57,-230.27 305.19,-219.68 298.88,-228.19 305.57,-230.27"/>
</g>
<!-- find -->
<g id="node5" class="node">
<title>find</title>
<ellipse fill="none" stroke="black" cx="473" cy="-275" rx="27" ry="18"/>
<text text-anchor="middle" x="473" y="-271.3" font-family="Times,serif" font-size="14.00">find</text>
</g>
<!-- add&#45;&gt;find -->
<g id="edge4" class="edge">
<title>add&#45;&gt;find</title>
<path fill="none" stroke="black" d="M288.46,-340.77C325.13,-327.9 396.22,-302.95 438.66,-288.05"/>
<polygon fill="black" stroke="black" points="439.61,-291.43 447.88,-284.82 437.29,-284.82 439.61,-291.43"/>
</g>
<!-- error::canonical -->
<g id="node6" class="node">
<title>error::canonical</title>
<ellipse fill="none" stroke="black" cx="89" cy="-200" rx="44.39" ry="18"/>
<text text-anchor="middle" x="89" y="-196.3" font-family="Times,serif" font-size="14.00">canonical</text>
</g>
<!-- error::invalid_argument&#45;&gt;error::canonical -->
<g id="edge5" class="edge">
<title>error::invalid_argument&#45;&gt;error::canonical</title>
<path fill="none" stroke="black" d="M89,-256.7C89,-248.67 89,-238.9 89,-229.8"/>
<polygon fill="black" stroke="black" points="92.5,-229.94 89,-219.94 85.5,-229.94 92.5,-229.94"/>
</g>
<!-- option::is_some -->
<g id="node7" class="node">
<title>option::is_some</title>
<ellipse fill="none" stroke="black" cx="231" cy="-117" rx="40.09" ry="18"/>
<text text-anchor="middle" x="231" y="-113.3" font-family="Times,serif" font-size="14.00">is_some</text>
</g>
<!-- option::extract&#45;&gt;option::is_some -->
<g id="edge6" class="edge">
<title>option::extract&#45;&gt;option::is_some</title>
<path fill="none" stroke="black" d="M222.33,-181.82C223.72,-171.58 225.52,-158.33 227.12,-146.55"/>
<polygon fill="black" stroke="black" points="230.55,-147.31 228.43,-136.93 223.62,-146.37 230.55,-147.31"/>
</g>
<!-- vector::is_empty -->
<g id="node8" class="node">
<title>vector::is_empty</title>
<ellipse fill="none" stroke="black" cx="293" cy="-34" rx="43.59" ry="18"/>
<text text-anchor="middle" x="293" y="-30.3" font-family="Times,serif" font-size="14.00">is_empty</text>
</g>
<!-- option::is_none&#45;&gt;vector::is_empty -->
<g id="edge7" class="edge">
<title>option::is_none&#45;&gt;vector::is_empty</title>
<path fill="none" stroke="black" d="M309.11,-181.76C306.01,-153.51 299.82,-97.11 296.08,-63.04"/>
<polygon fill="black" stroke="black" points="299.6,-63.07 295.03,-53.51 292.64,-63.84 299.6,-63.07"/>
</g>
<!-- option::none -->
<g id="node9" class="node">
<title>option::none</title>
<ellipse fill="none" stroke="black" cx="473" cy="-200" rx="27.9" ry="18"/>
<text text-anchor="middle" x="473" y="-196.3" font-family="Times,serif" font-size="14.00">none</text>
</g>
<!-- find&#45;&gt;option::none -->
<g id="edge8" class="edge">
<title>find&#45;&gt;option::none</title>
<path fill="none" stroke="black" d="M473,-256.7C473,-248.67 473,-238.9 473,-229.8"/>
<polygon fill="black" stroke="black" points="476.5,-229.94 473,-219.94 469.5,-229.94 476.5,-229.94"/>
</g>
<!-- option::some -->
<g id="node10" class="node">
<title>option::some</title>
<ellipse fill="none" stroke="black" cx="397" cy="-200" rx="29.8" ry="18"/>
<text text-anchor="middle" x="397" y="-196.3" font-family="Times,serif" font-size="14.00">some</text>
</g>
<!-- find&#45;&gt;option::some -->
<g id="edge9" class="edge">
<title>find&#45;&gt;option::some</title>
<path fill="none" stroke="black" d="M453.38,-262.3C447.52,-258.4 441.26,-253.82 436,-249 428.57,-242.2 421.34,-233.93 415.17,-226.19"/>
<polygon fill="black" stroke="black" points="418.02,-224.14 409.15,-218.34 412.46,-228.4 418.02,-224.14"/>
</g>
<!-- comparator::compare -->
<g id="node11" class="node">
<title>comparator::compare</title>
<ellipse fill="none" stroke="black" cx="719" cy="-200" rx="41.69" ry="18"/>
<text text-anchor="middle" x="719" y="-196.3" font-family="Times,serif" font-size="14.00">compare</text>
</g>
<!-- find&#45;&gt;comparator::compare -->
<g id="edge10" class="edge">
<title>find&#45;&gt;comparator::compare</title>
<path fill="none" stroke="black" d="M500.09,-272.59C546.45,-269.84 638.84,-262.78 668,-249 679.66,-243.49 690.42,-234.3 699.02,-225.43"/>
<polygon fill="black" stroke="black" points="701.39,-228.02 705.54,-218.28 696.22,-223.31 701.39,-228.02"/>
</g>
<!-- comparator::is_smaller_than -->
<g id="node12" class="node">
<title>comparator::is_smaller_than</title>
<ellipse fill="none" stroke="black" cx="592" cy="-200" rx="66.89" ry="18"/>
<text text-anchor="middle" x="592" y="-196.3" font-family="Times,serif" font-size="14.00">is_smaller_than</text>
</g>
<!-- find&#45;&gt;comparator::is_smaller_than -->
<g id="edge11" class="edge">
<title>find&#45;&gt;comparator::is_smaller_than</title>
<path fill="none" stroke="black" d="M492.38,-262.11C509.67,-251.51 535.41,-235.72 556.39,-222.84"/>
<polygon fill="black" stroke="black" points="557.97,-225.98 564.66,-217.77 554.31,-220.02 557.97,-225.98"/>
</g>
<!-- option::is_some&#45;&gt;vector::is_empty -->
<g id="edge12" class="edge">
<title>option::is_some&#45;&gt;vector::is_empty</title>
<path fill="none" stroke="black" d="M243.55,-99.61C252.15,-88.37 263.72,-73.25 273.51,-60.46"/>
<polygon fill="black" stroke="black" points="276.04,-62.92 279.34,-52.85 270.48,-58.66 276.04,-62.92"/>
</g>
<!-- vector::singleton -->
<g id="node13" class="node">
<title>vector::singleton</title>
<ellipse fill="none" stroke="black" cx="397" cy="-34" rx="42.79" ry="18"/>
<text text-anchor="middle" x="397" y="-30.3" font-family="Times,serif" font-size="14.00">singleton</text>
</g>
<!-- option::some&#45;&gt;vector::singleton -->
<g id="edge13" class="edge">
<title>option::some&#45;&gt;vector::singleton</title>
<path fill="none" stroke="black" d="M397,-181.76C397,-153.63 397,-97.6 397,-63.49"/>
<polygon fill="black" stroke="black" points="400.5,-63.52 397,-53.52 393.5,-63.52 400.5,-63.52"/>
</g>
<!-- bcs::to_bytes -->
<g id="node14" class="node">
<title>bcs::to_bytes</title>
<ellipse fill="none" stroke="black" cx="825" cy="-117" rx="40.09" ry="18"/>
<text text-anchor="middle" x="825" y="-113.3" font-family="Times,serif" font-size="14.00">to_bytes</text>
</g>
<!-- comparator::compare&#45;&gt;bcs::to_bytes -->
<g id="edge14" class="edge">
<title>comparator::compare&#45;&gt;bcs::to_bytes</title>
<path fill="none" stroke="black" d="M743.86,-185.2C753.26,-179.63 763.88,-172.89 773,-166 782.71,-158.67 792.68,-149.83 801.27,-141.74"/>
<polygon fill="black" stroke="black" points="803.45,-144.5 808.24,-135.04 798.6,-139.45 803.45,-144.5"/>
</g>
<!-- comparator::compare_u8_vector -->
<g id="node15" class="node">
<title>comparator::compare_u8_vector</title>
<ellipse fill="none" stroke="black" cx="680" cy="-117" rx="81.49" ry="18"/>
<text text-anchor="middle" x="680" y="-113.3" font-family="Times,serif" font-size="14.00">compare_u8_vector</text>
</g>
<!-- comparator::compare&#45;&gt;comparator::compare_u8_vector -->
<g id="edge15" class="edge">
<title>comparator::compare&#45;&gt;comparator::compare_u8_vector</title>
<path fill="none" stroke="black" d="M710.92,-182.22C705.81,-171.61 699.09,-157.65 693.22,-145.45"/>
<polygon fill="black" stroke="black" points="696.49,-144.18 689,-136.68 690.18,-147.21 696.49,-144.18"/>
</g>
</g>
</svg>
