<?xml version="1.0" encoding="UTF-8" standalone="no"?>
<!DOCTYPE svg PUBLIC "-//W3C//DTD SVG 1.1//EN"
 "http://www.w3.org/Graphics/SVG/1.1/DTD/svg11.dtd">
<!-- Generated by graphviz version 7.0.0 (20221023.0053)
 -->
<!-- Title: G Pages: 1 -->
<svg width="261pt" height="260pt"
 viewBox="0.00 0.00 260.99 260.00" xmlns="http://www.w3.org/2000/svg" xmlns:xlink="http://www.w3.org/1999/xlink">
<g id="graph0" class="graph" transform="scale(1 1) rotate(0) translate(4 256)">
<title>G</title>
<polygon fill="white" stroke="none" points="-4,4 -4,-256 256.99,-256 256.99,4 -4,4"/>
<!-- type_info -->
<g id="node1" class="node">
<title>type_info</title>
<ellipse fill="none" stroke="black" cx="132.5" cy="-234" rx="44.39" ry="18"/>
<text text-anchor="middle" x="132.5" y="-230.3" font-family="Times,serif" font-size="14.00">type_info</text>
</g>
<!-- error -->
<g id="node2" class="node">
<title>error</title>
<ellipse fill="none" stroke="black" cx="142.5" cy="-90" rx="27.9" ry="18"/>
<text text-anchor="middle" x="142.5" y="-86.3" font-family="Times,serif" font-size="14.00">error</text>
</g>
<!-- type_info&#45;&gt;error -->
<g id="edge1" class="edge">
<title>type_info&#45;&gt;error</title>
<path fill="none" stroke="black" d="M133.72,-215.59C135.41,-191.61 138.47,-148.14 140.5,-119.42"/>
<polygon fill="black" stroke="black" points="143.97,-119.84 141.19,-109.62 136.99,-119.35 143.97,-119.84"/>
</g>
<!-- string -->
<g id="node3" class="node">
<title>string</title>
<ellipse fill="none" stroke="black" cx="63.5" cy="-162" rx="30.59" ry="18"/>
<text text-anchor="middle" x="63.5" y="-158.3" font-family="Times,serif" font-size="14.00">string</text>
</g>
<!-- type_info&#45;&gt;string -->
<g id="edge2" class="edge">
<title>type_info&#45;&gt;string</title>
<path fill="none" stroke="black" d="M116.49,-216.76C107.54,-207.68 96.22,-196.19 86.34,-186.18"/>
<polygon fill="black" stroke="black" points="89.04,-183.93 79.53,-179.27 84.06,-188.85 89.04,-183.93"/>
</g>
<!-- features -->
<g id="node4" class="node">
<title>features</title>
<ellipse fill="none" stroke="black" cx="198.5" cy="-162" rx="38.19" ry="18"/>
<text text-anchor="middle" x="198.5" y="-158.3" font-family="Times,serif" font-size="14.00">features</text>
</g>
<!-- type_info&#45;&gt;features -->
<g id="edge3" class="edge">
<title>type_info&#45;&gt;features</title>
<path fill="none" stroke="black" d="M147.8,-216.76C156.17,-207.89 166.69,-196.74 175.97,-186.89"/>
<polygon fill="black" stroke="black" points="178.37,-189.44 182.69,-179.77 173.28,-184.64 178.37,-189.44"/>
</g>
<!-- vector -->
<g id="node5" class="node">
<title>vector</title>
<ellipse fill="none" stroke="black" cx="32.5" cy="-18" rx="32.49" ry="18"/>
<text text-anchor="middle" x="32.5" y="-14.3" font-family="Times,serif" font-size="14.00">vector</text>
</g>
<!-- string&#45;&gt;vector -->
<g id="edge4" class="edge">
<title>string&#45;&gt;vector</title>
<path fill="none" stroke="black" d="M47.5,-146.48C37.94,-136.68 26.67,-122.86 21.5,-108 14.61,-88.22 18,-64.65 22.77,-46.74"/>
<polygon fill="black" stroke="black" points="26.07,-47.91 25.57,-37.33 19.36,-45.91 26.07,-47.91"/>
</g>
<!-- option -->
<g id="node6" class="node">
<title>option</title>
<ellipse fill="none" stroke="black" cx="63.5" cy="-90" rx="33.29" ry="18"/>
<text text-anchor="middle" x="63.5" y="-86.3" font-family="Times,serif" font-size="14.00">option</text>
</g>
<!-- string&#45;&gt;option -->
<g id="edge5" class="edge">
<title>string&#45;&gt;option</title>
<path fill="none" stroke="black" d="M63.5,-143.7C63.5,-136.41 63.5,-127.73 63.5,-119.54"/>
<polygon fill="black" stroke="black" points="67,-119.62 63.5,-109.62 60,-119.62 67,-119.62"/>
</g>
<!-- features&#45;&gt;error -->
<g id="edge6" class="edge">
<title>features&#45;&gt;error</title>
<path fill="none" stroke="black" d="M185.51,-144.76C178.46,-135.95 169.6,-124.88 161.76,-115.08"/>
<polygon fill="black" stroke="black" points="164.57,-112.99 155.59,-107.37 159.11,-117.37 164.57,-112.99"/>
</g>
<!-- signer -->
<g id="node7" class="node">
<title>signer</title>
<ellipse fill="none" stroke="black" cx="220.5" cy="-90" rx="32.49" ry="18"/>
<text text-anchor="middle" x="220.5" y="-86.3" font-family="Times,serif" font-size="14.00">signer</text>
</g>
<!-- features&#45;&gt;signer -->
<g id="edge7" class="edge">
<title>features&#45;&gt;signer</title>
<path fill="none" stroke="black" d="M203.94,-143.7C206.28,-136.24 209.08,-127.32 211.71,-118.97"/>
<polygon fill="black" stroke="black" points="215.01,-120.14 214.67,-109.55 208.33,-118.04 215.01,-120.14"/>
</g>
<!-- option&#45;&gt;vector -->
<g id="edge8" class="edge">
<title>option&#45;&gt;vector</title>
<path fill="none" stroke="black" d="M55.99,-72.05C52.57,-64.32 48.42,-54.96 44.57,-46.27"/>
<polygon fill="black" stroke="black" points="47.79,-44.9 40.55,-37.17 41.39,-47.73 47.79,-44.9"/>
</g>
</g>
</svg>
