<?xml version="1.0" encoding="UTF-8" standalone="no"?>
<!DOCTYPE svg PUBLIC "-//W3C//DTD SVG 1.1//EN"
 "http://www.w3.org/Graphics/SVG/1.1/DTD/svg11.dtd">
<!-- Generated by graphviz version 7.0.0 (20221023.0053)
 -->
<!-- Title: G Pages: 1 -->
<svg width="1288pt" height="681pt"
 viewBox="0.00 0.00 1288.00 681.00" xmlns="http://www.w3.org/2000/svg" xmlns:xlink="http://www.w3.org/1999/xlink">
<g id="graph0" class="graph" transform="scale(1 1) rotate(0) translate(4 677)">
<title>G</title>
<polygon fill="white" stroke="none" points="-4,4 -4,-677 1284,-677 1284,4 -4,4"/>
<g id="clust1" class="cluster">
<title>cluster_staking_contract</title>
<polygon fill="none" stroke="black" points="9,-136 9,-366 299,-366 299,-136 9,-136"/>
<text text-anchor="middle" x="154" y="-350.8" font-family="Times,serif" font-size="14.00">staking_contract</text>
</g>
<g id="clust2" class="cluster">
<title>cluster_vesting</title>
<polygon fill="none" stroke="black" points="307,-219 307,-366 575,-366 575,-219 307,-219"/>
<text text-anchor="middle" x="441" y="-350.8" font-family="Times,serif" font-size="14.00">vesting</text>
</g>
<g id="clust3" class="cluster">
<title>cluster_resource_account</title>
<polygon fill="none" stroke="black" points="399,-136 399,-211 1272,-211 1272,-136 399,-136"/>
<text text-anchor="middle" x="835.5" y="-195.8" font-family="Times,serif" font-size="14.00">resource_account</text>
</g>
<g id="clust4" class="cluster">
<title>cluster_genesis</title>
<polygon fill="none" stroke="black" points="8,-374 8,-665 464,-665 464,-374 8,-374"/>
<text text-anchor="middle" x="236" y="-649.8" font-family="Times,serif" font-size="14.00">genesis</text>
</g>
<!-- create_resource_address -->
<g id="node1" class="node">
<title>create_resource_address</title>
<ellipse fill="none" stroke="black" cx="585" cy="-18" rx="96.68" ry="18"/>
<text text-anchor="middle" x="585" y="-14.3" font-family="Times,serif" font-size="14.00">create_resource_address</text>
</g>
<!-- create_resource_account -->
<g id="node2" class="node">
<title>create_resource_account</title>
<ellipse fill="none" stroke="black" cx="585" cy="-90" rx="97.48" ry="18"/>
<text text-anchor="middle" x="585" y="-86.3" font-family="Times,serif" font-size="14.00">create_resource_account</text>
</g>
<!-- create_resource_account&#45;&gt;create_resource_address -->
<g id="edge1" class="edge">
<title>create_resource_account&#45;&gt;create_resource_address</title>
<path fill="none" stroke="black" d="M585,-71.7C585,-64.41 585,-55.73 585,-47.54"/>
<polygon fill="black" stroke="black" points="588.5,-47.62 585,-37.62 581.5,-47.62 588.5,-47.62"/>
</g>
<!-- staking_contract::create_stake_pool -->
<g id="node3" class="node">
<title>staking_contract::create_stake_pool</title>
<ellipse fill="none" stroke="black" cx="185" cy="-162" rx="74.19" ry="18"/>
<text text-anchor="middle" x="185" y="-158.3" font-family="Times,serif" font-size="14.00">create_stake_pool</text>
</g>
<!-- staking_contract::create_stake_pool&#45;&gt;create_resource_account -->
<g id="edge2" class="edge">
<title>staking_contract::create_stake_pool&#45;&gt;create_resource_account</title>
<path fill="none" stroke="black" d="M244.02,-150.67C313.1,-138.58 427.83,-118.5 504.9,-105.02"/>
<polygon fill="black" stroke="black" points="505.25,-108.51 514.5,-103.34 504.05,-101.61 505.25,-108.51"/>
</g>
<!-- vesting::create_vesting_contract_account -->
<g id="node4" class="node">
<title>vesting::create_vesting_contract_account</title>
<ellipse fill="none" stroke="black" cx="441" cy="-245" rx="126.18" ry="18"/>
<text text-anchor="middle" x="441" y="-241.3" font-family="Times,serif" font-size="14.00">create_vesting_contract_account</text>
</g>
<!-- vesting::create_vesting_contract_account&#45;&gt;create_resource_account -->
<g id="edge3" class="edge">
<title>vesting::create_vesting_contract_account&#45;&gt;create_resource_account</title>
<path fill="none" stroke="black" d="M408.88,-227.12C403.28,-222.66 398.23,-217.3 395,-211 379.78,-181.35 374.32,-162.15 395,-136 407.67,-119.98 450.5,-109.07 492.29,-102.01"/>
<polygon fill="black" stroke="black" points="492.64,-105.5 501.95,-100.45 491.52,-98.59 492.64,-105.5"/>
</g>
<!-- resource_account::create_resource_account -->
<g id="node5" class="node">
<title>resource_account::create_resource_account</title>
<ellipse fill="none" stroke="black" cx="1167" cy="-162" rx="97.48" ry="18"/>
<text text-anchor="middle" x="1167" y="-158.3" font-family="Times,serif" font-size="14.00">create_resource_account</text>
</g>
<!-- resource_account::create_resource_account&#45;&gt;create_resource_account -->
<g id="edge4" class="edge">
<title>resource_account::create_resource_account&#45;&gt;create_resource_account</title>
<path fill="none" stroke="black" d="M1112.3,-146.72C1095.61,-142.77 1077.13,-138.8 1060,-136 933,-115.25 785.22,-103.11 688.65,-96.77"/>
<polygon fill="black" stroke="black" points="689.14,-93.3 678.93,-96.15 688.68,-100.28 689.14,-93.3"/>
</g>
<!-- resource_account::create_resource_account_and_fund -->
<g id="node6" class="node">
<title>resource_account::create_resource_account_and_fund</title>
<ellipse fill="none" stroke="black" cx="916" cy="-162" rx="135.38" ry="18"/>
<text text-anchor="middle" x="916" y="-158.3" font-family="Times,serif" font-size="14.00">create_resource_account_and_fund</text>
</g>
<!-- resource_account::create_resource_account_and_fund&#45;&gt;create_resource_account -->
<g id="edge5" class="edge">
<title>resource_account::create_resource_account_and_fund&#45;&gt;create_resource_account</title>
<path fill="none" stroke="black" d="M846.21,-146.24C791.08,-134.58 714.38,-118.36 658.35,-106.51"/>
<polygon fill="black" stroke="black" points="659.42,-103.16 648.92,-104.52 657.98,-110.01 659.42,-103.16"/>
</g>
<!-- resource_account::create_resource_account_and_publish_package -->
<g id="node7" class="node">
<title>resource_account::create_resource_account_and_publish_package</title>
<ellipse fill="none" stroke="black" cx="585" cy="-162" rx="178.17" ry="18"/>
<text text-anchor="middle" x="585" y="-158.3" font-family="Times,serif" font-size="14.00">create_resource_account_and_publish_package</text>
</g>
<!-- resource_account::create_resource_account_and_publish_package&#45;&gt;create_resource_account -->
<g id="edge6" class="edge">
<title>resource_account::create_resource_account_and_publish_package&#45;&gt;create_resource_account</title>
<path fill="none" stroke="black" d="M585,-143.7C585,-136.41 585,-127.73 585,-119.54"/>
<polygon fill="black" stroke="black" points="588.5,-119.62 585,-109.62 581.5,-119.62 588.5,-119.62"/>
</g>
<!-- staking_contract::create_staking_contract_with_coins -->
<g id="node8" class="node">
<title>staking_contract::create_staking_contract_with_coins</title>
<ellipse fill="none" stroke="black" cx="154" cy="-245" rx="137.28" ry="18"/>
<text text-anchor="middle" x="154" y="-241.3" font-family="Times,serif" font-size="14.00">create_staking_contract_with_coins</text>
</g>
<!-- staking_contract::create_staking_contract_with_coins&#45;&gt;staking_contract::create_stake_pool -->
<g id="edge7" class="edge">
<title>staking_contract::create_staking_contract_with_coins&#45;&gt;staking_contract::create_stake_pool</title>
<path fill="none" stroke="black" d="M160.57,-226.82C164.6,-216.3 169.85,-202.59 174.45,-190.57"/>
<polygon fill="black" stroke="black" points="177.59,-192.16 177.89,-181.57 171.05,-189.66 177.59,-192.16"/>
</g>
<!-- vesting::create_vesting_contract -->
<g id="node9" class="node">
<title>vesting::create_vesting_contract</title>
<ellipse fill="none" stroke="black" cx="409" cy="-317" rx="94.48" ry="18"/>
<text text-anchor="middle" x="409" y="-313.3" font-family="Times,serif" font-size="14.00">create_vesting_contract</text>
</g>
<!-- vesting::create_vesting_contract&#45;&gt;vesting::create_vesting_contract_account -->
<g id="edge8" class="edge">
<title>vesting::create_vesting_contract&#45;&gt;vesting::create_vesting_contract_account</title>
<path fill="none" stroke="black" d="M416.91,-298.7C420.4,-291.07 424.58,-281.92 428.48,-273.4"/>
<polygon fill="black" stroke="black" points="431.58,-275.03 432.55,-264.48 425.21,-272.12 431.58,-275.03"/>
</g>
<!-- vesting::create_vesting_contract&#45;&gt;staking_contract::create_staking_contract_with_coins -->
<g id="edge10" class="edge">
<title>vesting::create_vesting_contract&#45;&gt;staking_contract::create_staking_contract_with_coins</title>
<path fill="none" stroke="black" d="M356.78,-301.67C317.99,-291.02 264.72,-276.39 222.51,-264.81"/>
<polygon fill="black" stroke="black" points="223.51,-261.45 212.94,-262.18 221.65,-268.2 223.51,-261.45"/>
</g>
<!-- staking_contract::create_staking_contract -->
<g id="node10" class="node">
<title>staking_contract::create_staking_contract</title>
<ellipse fill="none" stroke="black" cx="163" cy="-317" rx="94.48" ry="18"/>
<text text-anchor="middle" x="163" y="-313.3" font-family="Times,serif" font-size="14.00">create_staking_contract</text>
</g>
<!-- staking_contract::create_staking_contract&#45;&gt;staking_contract::create_staking_contract_with_coins -->
<g id="edge9" class="edge">
<title>staking_contract::create_staking_contract&#45;&gt;staking_contract::create_staking_contract_with_coins</title>
<path fill="none" stroke="black" d="M160.78,-298.7C159.83,-291.32 158.7,-282.52 157.63,-274.25"/>
<polygon fill="black" stroke="black" points="161.14,-274.08 156.39,-264.61 154.2,-274.97 161.14,-274.08"/>
</g>
<!-- genesis::create_employee_validators -->
<g id="node11" class="node">
<title>genesis::create_employee_validators</title>
<ellipse fill="none" stroke="black" cx="346" cy="-616" rx="109.68" ry="18"/>
<text text-anchor="middle" x="346" y="-612.3" font-family="Times,serif" font-size="14.00">create_employee_validators</text>
</g>
<!-- genesis::create_employee_validators&#45;&gt;vesting::create_vesting_contract -->
<g id="edge11" class="edge">
<title>genesis::create_employee_validators&#45;&gt;vesting::create_vesting_contract</title>
<path fill="none" stroke="black" d="M349.79,-597.62C355.05,-573.48 364.83,-528.44 373,-490 383.79,-439.28 396.12,-380.09 403.19,-346.04"/>
<polygon fill="black" stroke="black" points="406.55,-347.08 405.15,-336.58 399.69,-345.66 406.55,-347.08"/>
</g>
<!-- genesis::create_initialize_validator -->
<g id="node12" class="node">
<title>genesis::create_initialize_validator</title>
<ellipse fill="none" stroke="black" cx="172" cy="-400" rx="102.88" ry="18"/>
<text text-anchor="middle" x="172" y="-396.3" font-family="Times,serif" font-size="14.00">create_initialize_validator</text>
</g>
<!-- genesis::create_initialize_validator&#45;&gt;staking_contract::create_staking_contract -->
<g id="edge12" class="edge">
<title>genesis::create_initialize_validator&#45;&gt;staking_contract::create_staking_contract</title>
<path fill="none" stroke="black" d="M170.09,-381.82C168.95,-371.58 167.48,-358.33 166.17,-346.55"/>
<polygon fill="black" stroke="black" points="169.69,-346.49 165.1,-336.94 162.73,-347.26 169.69,-346.49"/>
</g>
<!-- genesis::create_initialize_validators_with_commission -->
<g id="node13" class="node">
<title>genesis::create_initialize_validators_with_commission</title>
<ellipse fill="none" stroke="black" cx="190" cy="-472" rx="173.57" ry="18"/>
<text text-anchor="middle" x="190" y="-468.3" font-family="Times,serif" font-size="14.00">create_initialize_validators_with_commission</text>
</g>
<!-- genesis::create_initialize_validators_with_commission&#45;&gt;genesis::create_initialize_validator -->
<g id="edge13" class="edge">
<title>genesis::create_initialize_validators_with_commission&#45;&gt;genesis::create_initialize_validator</title>
<path fill="none" stroke="black" d="M185.55,-453.7C183.65,-446.32 181.39,-437.52 179.26,-429.25"/>
<polygon fill="black" stroke="black" points="182.66,-428.38 176.78,-419.57 175.88,-430.13 182.66,-428.38"/>
</g>
<!-- genesis::create_initialize_validators -->
<g id="node14" class="node">
<title>genesis::create_initialize_validators</title>
<ellipse fill="none" stroke="black" cx="156" cy="-544" rx="105.88" ry="18"/>
<text text-anchor="middle" x="156" y="-540.3" font-family="Times,serif" font-size="14.00">create_initialize_validators</text>
</g>
<!-- genesis::create_initialize_validators&#45;&gt;genesis::create_initialize_validators_with_commission -->
<g id="edge14" class="edge">
<title>genesis::create_initialize_validators&#45;&gt;genesis::create_initialize_validators_with_commission</title>
<path fill="none" stroke="black" d="M164.4,-525.7C168.11,-518.07 172.56,-508.92 176.69,-500.4"/>
<polygon fill="black" stroke="black" points="179.81,-501.99 181.03,-491.47 173.51,-498.93 179.81,-501.99"/>
</g>
<!-- genesis::initialize_for_verification -->
<g id="node15" class="node">
<title>genesis::initialize_for_verification</title>
<ellipse fill="none" stroke="black" cx="117" cy="-616" rx="100.98" ry="18"/>
<text text-anchor="middle" x="117" y="-612.3" font-family="Times,serif" font-size="14.00">initialize_for_verification</text>
</g>
<!-- genesis::initialize_for_verification&#45;&gt;genesis::create_initialize_validators -->
<g id="edge15" class="edge">
<title>genesis::initialize_for_verification&#45;&gt;genesis::create_initialize_validators</title>
<path fill="none" stroke="black" d="M126.64,-597.7C130.94,-589.98 136.1,-580.71 140.89,-572.11"/>
<polygon fill="black" stroke="black" points="143.92,-573.87 145.73,-563.43 137.81,-570.46 143.92,-573.87"/>
</g>
</g>
</svg>
