<?xml version="1.0" encoding="UTF-8" standalone="no"?>
<!DOCTYPE svg PUBLIC "-//W3C//DTD SVG 1.1//EN"
 "http://www.w3.org/Graphics/SVG/1.1/DTD/svg11.dtd">
<!-- Generated by graphviz version 7.0.0 (20221023.0053)
 -->
<!-- Title: G Pages: 1 -->
<svg width="1288pt" height="609pt"
 viewBox="0.00 0.00 1288.00 609.00" xmlns="http://www.w3.org/2000/svg" xmlns:xlink="http://www.w3.org/1999/xlink">
<g id="graph0" class="graph" transform="scale(1 1) rotate(0) translate(4 605)">
<title>G</title>
<polygon fill="white" stroke="none" points="-4,4 -4,-605 1284,-605 1284,4 -4,4"/>
<g id="clust1" class="cluster">
<title>cluster_staking_contract</title>
<polygon fill="none" stroke="black" points="9,-64 9,-294 299,-294 299,-64 9,-64"/>
<text text-anchor="middle" x="154" y="-278.8" font-family="Times,serif" font-size="14.00">staking_contract</text>
</g>
<g id="clust2" class="cluster">
<title>cluster_vesting</title>
<polygon fill="none" stroke="black" points="307,-147 307,-294 575,-294 575,-147 307,-147"/>
<text text-anchor="middle" x="441" y="-278.8" font-family="Times,serif" font-size="14.00">vesting</text>
</g>
<g id="clust3" class="cluster">
<title>cluster_resource_account</title>
<polygon fill="none" stroke="black" points="399,-64 399,-139 1272,-139 1272,-64 399,-64"/>
<text text-anchor="middle" x="835.5" y="-123.8" font-family="Times,serif" font-size="14.00">resource_account</text>
</g>
<g id="clust4" class="cluster">
<title>cluster_genesis</title>
<polygon fill="none" stroke="black" points="8,-302 8,-593 464,-593 464,-302 8,-302"/>
<text text-anchor="middle" x="236" y="-577.8" font-family="Times,serif" font-size="14.00">genesis</text>
</g>
<!-- create_resource_account -->
<g id="node1" class="node">
<title>create_resource_account</title>
<ellipse fill="none" stroke="black" cx="585" cy="-18" rx="97.48" ry="18"/>
<text text-anchor="middle" x="585" y="-14.3" font-family="Times,serif" font-size="14.00">create_resource_account</text>
</g>
<!-- staking_contract::create_stake_pool -->
<g id="node2" class="node">
<title>staking_contract::create_stake_pool</title>
<ellipse fill="none" stroke="black" cx="185" cy="-90" rx="74.19" ry="18"/>
<text text-anchor="middle" x="185" y="-86.3" font-family="Times,serif" font-size="14.00">create_stake_pool</text>
</g>
<!-- staking_contract::create_stake_pool&#45;&gt;create_resource_account -->
<g id="edge1" class="edge">
<title>staking_contract::create_stake_pool&#45;&gt;create_resource_account</title>
<path fill="none" stroke="black" d="M244.02,-78.67C313.1,-66.58 427.83,-46.5 504.9,-33.02"/>
<polygon fill="black" stroke="black" points="505.25,-36.51 514.5,-31.34 504.05,-29.61 505.25,-36.51"/>
</g>
<!-- vesting::create_vesting_contract_account -->
<g id="node3" class="node">
<title>vesting::create_vesting_contract_account</title>
<ellipse fill="none" stroke="black" cx="441" cy="-173" rx="126.18" ry="18"/>
<text text-anchor="middle" x="441" y="-169.3" font-family="Times,serif" font-size="14.00">create_vesting_contract_account</text>
</g>
<!-- vesting::create_vesting_contract_account&#45;&gt;create_resource_account -->
<g id="edge2" class="edge">
<title>vesting::create_vesting_contract_account&#45;&gt;create_resource_account</title>
<path fill="none" stroke="black" d="M408.88,-155.12C403.28,-150.66 398.23,-145.3 395,-139 379.78,-109.35 374.32,-90.15 395,-64 407.67,-47.98 450.5,-37.07 492.29,-30.01"/>
<polygon fill="black" stroke="black" points="492.64,-33.5 501.95,-28.45 491.52,-26.59 492.64,-33.5"/>
</g>
<!-- resource_account::create_resource_account -->
<g id="node4" class="node">
<title>resource_account::create_resource_account</title>
<ellipse fill="none" stroke="black" cx="1167" cy="-90" rx="97.48" ry="18"/>
<text text-anchor="middle" x="1167" y="-86.3" font-family="Times,serif" font-size="14.00">create_resource_account</text>
</g>
<!-- resource_account::create_resource_account&#45;&gt;create_resource_account -->
<g id="edge3" class="edge">
<title>resource_account::create_resource_account&#45;&gt;create_resource_account</title>
<path fill="none" stroke="black" d="M1112.3,-74.72C1095.61,-70.77 1077.13,-66.8 1060,-64 933,-43.25 785.22,-31.11 688.65,-24.77"/>
<polygon fill="black" stroke="black" points="689.14,-21.3 678.93,-24.15 688.68,-28.28 689.14,-21.3"/>
</g>
<!-- resource_account::create_resource_account_and_fund -->
<g id="node5" class="node">
<title>resource_account::create_resource_account_and_fund</title>
<ellipse fill="none" stroke="black" cx="916" cy="-90" rx="135.38" ry="18"/>
<text text-anchor="middle" x="916" y="-86.3" font-family="Times,serif" font-size="14.00">create_resource_account_and_fund</text>
</g>
<!-- resource_account::create_resource_account_and_fund&#45;&gt;create_resource_account -->
<g id="edge4" class="edge">
<title>resource_account::create_resource_account_and_fund&#45;&gt;create_resource_account</title>
<path fill="none" stroke="black" d="M846.21,-74.24C791.08,-62.58 714.38,-46.36 658.35,-34.51"/>
<polygon fill="black" stroke="black" points="659.42,-31.16 648.92,-32.52 657.98,-38.01 659.42,-31.16"/>
</g>
<!-- resource_account::create_resource_account_and_publish_package -->
<g id="node6" class="node">
<title>resource_account::create_resource_account_and_publish_package</title>
<ellipse fill="none" stroke="black" cx="585" cy="-90" rx="178.17" ry="18"/>
<text text-anchor="middle" x="585" y="-86.3" font-family="Times,serif" font-size="14.00">create_resource_account_and_publish_package</text>
</g>
<!-- resource_account::create_resource_account_and_publish_package&#45;&gt;create_resource_account -->
<g id="edge5" class="edge">
<title>resource_account::create_resource_account_and_publish_package&#45;&gt;create_resource_account</title>
<path fill="none" stroke="black" d="M585,-71.7C585,-64.41 585,-55.73 585,-47.54"/>
<polygon fill="black" stroke="black" points="588.5,-47.62 585,-37.62 581.5,-47.62 588.5,-47.62"/>
</g>
<!-- staking_contract::create_staking_contract_with_coins -->
<g id="node7" class="node">
<title>staking_contract::create_staking_contract_with_coins</title>
<ellipse fill="none" stroke="black" cx="154" cy="-173" rx="137.28" ry="18"/>
<text text-anchor="middle" x="154" y="-169.3" font-family="Times,serif" font-size="14.00">create_staking_contract_with_coins</text>
</g>
<!-- staking_contract::create_staking_contract_with_coins&#45;&gt;staking_contract::create_stake_pool -->
<g id="edge6" class="edge">
<title>staking_contract::create_staking_contract_with_coins&#45;&gt;staking_contract::create_stake_pool</title>
<path fill="none" stroke="black" d="M160.57,-154.82C164.6,-144.3 169.85,-130.59 174.45,-118.57"/>
<polygon fill="black" stroke="black" points="177.59,-120.16 177.89,-109.57 171.05,-117.66 177.59,-120.16"/>
</g>
<!-- vesting::create_vesting_contract -->
<g id="node8" class="node">
<title>vesting::create_vesting_contract</title>
<ellipse fill="none" stroke="black" cx="409" cy="-245" rx="94.48" ry="18"/>
<text text-anchor="middle" x="409" y="-241.3" font-family="Times,serif" font-size="14.00">create_vesting_contract</text>
</g>
<!-- vesting::create_vesting_contract&#45;&gt;vesting::create_vesting_contract_account -->
<g id="edge7" class="edge">
<title>vesting::create_vesting_contract&#45;&gt;vesting::create_vesting_contract_account</title>
<path fill="none" stroke="black" d="M416.91,-226.7C420.4,-219.07 424.58,-209.92 428.48,-201.4"/>
<polygon fill="black" stroke="black" points="431.58,-203.03 432.55,-192.48 425.21,-200.12 431.58,-203.03"/>
</g>
<!-- vesting::create_vesting_contract&#45;&gt;staking_contract::create_staking_contract_with_coins -->
<g id="edge9" class="edge">
<title>vesting::create_vesting_contract&#45;&gt;staking_contract::create_staking_contract_with_coins</title>
<path fill="none" stroke="black" d="M356.78,-229.67C317.99,-219.02 264.72,-204.39 222.51,-192.81"/>
<polygon fill="black" stroke="black" points="223.51,-189.45 212.94,-190.18 221.65,-196.2 223.51,-189.45"/>
</g>
<!-- staking_contract::create_staking_contract -->
<g id="node9" class="node">
<title>staking_contract::create_staking_contract</title>
<ellipse fill="none" stroke="black" cx="163" cy="-245" rx="94.48" ry="18"/>
<text text-anchor="middle" x="163" y="-241.3" font-family="Times,serif" font-size="14.00">create_staking_contract</text>
</g>
<!-- staking_contract::create_staking_contract&#45;&gt;staking_contract::create_staking_contract_with_coins -->
<g id="edge8" class="edge">
<title>staking_contract::create_staking_contract&#45;&gt;staking_contract::create_staking_contract_with_coins</title>
<path fill="none" stroke="black" d="M160.78,-226.7C159.83,-219.32 158.7,-210.52 157.63,-202.25"/>
<polygon fill="black" stroke="black" points="161.14,-202.08 156.39,-192.61 154.2,-202.97 161.14,-202.08"/>
</g>
<!-- genesis::create_employee_validators -->
<g id="node10" class="node">
<title>genesis::create_employee_validators</title>
<ellipse fill="none" stroke="black" cx="346" cy="-544" rx="109.68" ry="18"/>
<text text-anchor="middle" x="346" y="-540.3" font-family="Times,serif" font-size="14.00">create_employee_validators</text>
</g>
<!-- genesis::create_employee_validators&#45;&gt;vesting::create_vesting_contract -->
<g id="edge10" class="edge">
<title>genesis::create_employee_validators&#45;&gt;vesting::create_vesting_contract</title>
<path fill="none" stroke="black" d="M349.79,-525.62C355.05,-501.48 364.83,-456.44 373,-418 383.79,-367.28 396.12,-308.09 403.19,-274.04"/>
<polygon fill="black" stroke="black" points="406.55,-275.08 405.15,-264.58 399.69,-273.66 406.55,-275.08"/>
</g>
<!-- genesis::create_initialize_validator -->
<g id="node11" class="node">
<title>genesis::create_initialize_validator</title>
<ellipse fill="none" stroke="black" cx="172" cy="-328" rx="102.88" ry="18"/>
<text text-anchor="middle" x="172" y="-324.3" font-family="Times,serif" font-size="14.00">create_initialize_validator</text>
</g>
<!-- genesis::create_initialize_validator&#45;&gt;staking_contract::create_staking_contract -->
<g id="edge11" class="edge">
<title>genesis::create_initialize_validator&#45;&gt;staking_contract::create_staking_contract</title>
<path fill="none" stroke="black" d="M170.09,-309.82C168.95,-299.58 167.48,-286.33 166.17,-274.55"/>
<polygon fill="black" stroke="black" points="169.69,-274.49 165.1,-264.94 162.73,-275.26 169.69,-274.49"/>
</g>
<!-- genesis::create_initialize_validators_with_commission -->
<g id="node12" class="node">
<title>genesis::create_initialize_validators_with_commission</title>
<ellipse fill="none" stroke="black" cx="190" cy="-400" rx="173.57" ry="18"/>
<text text-anchor="middle" x="190" y="-396.3" font-family="Times,serif" font-size="14.00">create_initialize_validators_with_commission</text>
</g>
<!-- genesis::create_initialize_validators_with_commission&#45;&gt;genesis::create_initialize_validator -->
<g id="edge12" class="edge">
<title>genesis::create_initialize_validators_with_commission&#45;&gt;genesis::create_initialize_validator</title>
<path fill="none" stroke="black" d="M185.55,-381.7C183.65,-374.32 181.39,-365.52 179.26,-357.25"/>
<polygon fill="black" stroke="black" points="182.66,-356.38 176.78,-347.57 175.88,-358.13 182.66,-356.38"/>
</g>
<!-- genesis::create_initialize_validators -->
<g id="node13" class="node">
<title>genesis::create_initialize_validators</title>
<ellipse fill="none" stroke="black" cx="156" cy="-472" rx="105.88" ry="18"/>
<text text-anchor="middle" x="156" y="-468.3" font-family="Times,serif" font-size="14.00">create_initialize_validators</text>
</g>
<!-- genesis::create_initialize_validators&#45;&gt;genesis::create_initialize_validators_with_commission -->
<g id="edge13" class="edge">
<title>genesis::create_initialize_validators&#45;&gt;genesis::create_initialize_validators_with_commission</title>
<path fill="none" stroke="black" d="M164.4,-453.7C168.11,-446.07 172.56,-436.92 176.69,-428.4"/>
<polygon fill="black" stroke="black" points="179.81,-429.99 181.03,-419.47 173.51,-426.93 179.81,-429.99"/>
</g>
<!-- genesis::initialize_for_verification -->
<g id="node14" class="node">
<title>genesis::initialize_for_verification</title>
<ellipse fill="none" stroke="black" cx="117" cy="-544" rx="100.98" ry="18"/>
<text text-anchor="middle" x="117" y="-540.3" font-family="Times,serif" font-size="14.00">initialize_for_verification</text>
</g>
<!-- genesis::initialize_for_verification&#45;&gt;genesis::create_initialize_validators -->
<g id="edge14" class="edge">
<title>genesis::initialize_for_verification&#45;&gt;genesis::create_initialize_validators</title>
<path fill="none" stroke="black" d="M126.64,-525.7C130.94,-517.98 136.1,-508.71 140.89,-500.11"/>
<polygon fill="black" stroke="black" points="143.92,-501.87 145.73,-491.43 137.81,-498.46 143.92,-501.87"/>
</g>
</g>
</svg>
