<?xml version="1.0" encoding="UTF-8" standalone="no"?>
<!DOCTYPE svg PUBLIC "-//W3C//DTD SVG 1.1//EN"
 "http://www.w3.org/Graphics/SVG/1.1/DTD/svg11.dtd">
<!-- Generated by graphviz version 7.0.0 (20221023.0053)
 -->
<!-- Title: G Pages: 1 -->
<svg width="728pt" height="446pt"
 viewBox="0.00 0.00 728.00 446.00" xmlns="http://www.w3.org/2000/svg" xmlns:xlink="http://www.w3.org/1999/xlink">
<g id="graph0" class="graph" transform="scale(1 1) rotate(0) translate(4 442)">
<title>G</title>
<polygon fill="white" stroke="none" points="-4,4 -4,-442 724,-442 724,4 -4,4"/>
<g id="clust1" class="cluster">
<title>cluster_aptos_account</title>
<polygon fill="none" stroke="black" points="8,-64 8,-211 152,-211 152,-64 8,-64"/>
<text text-anchor="middle" x="80" y="-195.8" font-family="Times,serif" font-size="14.00">aptos_account</text>
</g>
<g id="clust2" class="cluster">
<title>cluster_genesis</title>
<polygon fill="none" stroke="black" points="160,-64 160,-430 712,-430 712,-64 160,-64"/>
<text text-anchor="middle" x="436" y="-414.8" font-family="Times,serif" font-size="14.00">genesis</text>
</g>
<!-- create_account -->
<g id="node1" class="node">
<title>create_account</title>
<ellipse fill="none" stroke="black" cx="365" cy="-18" rx="63.89" ry="18"/>
<text text-anchor="middle" x="365" y="-14.3" font-family="Times,serif" font-size="14.00">create_account</text>
</g>
<!-- aptos_account::create_account -->
<g id="node2" class="node">
<title>aptos_account::create_account</title>
<ellipse fill="none" stroke="black" cx="80" cy="-90" rx="63.89" ry="18"/>
<text text-anchor="middle" x="80" y="-86.3" font-family="Times,serif" font-size="14.00">create_account</text>
</g>
<!-- aptos_account::create_account&#45;&gt;create_account -->
<g id="edge1" class="edge">
<title>aptos_account::create_account&#45;&gt;create_account</title>
<path fill="none" stroke="black" d="M118.81,-75.36C130.67,-71.43 143.8,-67.31 156,-64 204.4,-50.87 259.93,-39.06 301.58,-30.84"/>
<polygon fill="black" stroke="black" points="302.04,-34.32 311.18,-28.96 300.7,-27.45 302.04,-34.32"/>
</g>
<!-- genesis::create_account -->
<g id="node3" class="node">
<title>genesis::create_account</title>
<ellipse fill="none" stroke="black" cx="365" cy="-90" rx="63.89" ry="18"/>
<text text-anchor="middle" x="365" y="-86.3" font-family="Times,serif" font-size="14.00">create_account</text>
</g>
<!-- genesis::create_account&#45;&gt;create_account -->
<g id="edge2" class="edge">
<title>genesis::create_account&#45;&gt;create_account</title>
<path fill="none" stroke="black" d="M365,-71.7C365,-64.41 365,-55.73 365,-47.54"/>
<polygon fill="black" stroke="black" points="368.5,-47.62 365,-37.62 361.5,-47.62 368.5,-47.62"/>
</g>
<!-- genesis::initialize_core_resources_and_aptos_coin -->
<g id="node4" class="node">
<title>genesis::initialize_core_resources_and_aptos_coin</title>
<ellipse fill="none" stroke="black" cx="546" cy="-381" rx="157.87" ry="18"/>
<text text-anchor="middle" x="546" y="-377.3" font-family="Times,serif" font-size="14.00">initialize_core_resources_and_aptos_coin</text>
</g>
<!-- genesis::initialize_core_resources_and_aptos_coin&#45;&gt;create_account -->
<g id="edge3" class="edge">
<title>genesis::initialize_core_resources_and_aptos_coin&#45;&gt;create_account</title>
<path fill="none" stroke="black" d="M547.62,-362.53C549.96,-335.75 554,-282.94 554,-238 554,-238 554,-238 554,-161 554,-93.67 476.38,-54.32 420.62,-34.74"/>
<polygon fill="black" stroke="black" points="421.82,-31.45 411.22,-31.56 419.58,-38.08 421.82,-31.45"/>
</g>
<!-- aptos_account::transfer -->
<g id="node5" class="node">
<title>aptos_account::transfer</title>
<ellipse fill="none" stroke="black" cx="80" cy="-162" rx="37.89" ry="18"/>
<text text-anchor="middle" x="80" y="-158.3" font-family="Times,serif" font-size="14.00">transfer</text>
</g>
<!-- aptos_account::transfer&#45;&gt;aptos_account::create_account -->
<g id="edge4" class="edge">
<title>aptos_account::transfer&#45;&gt;aptos_account::create_account</title>
<path fill="none" stroke="black" d="M80,-143.7C80,-136.41 80,-127.73 80,-119.54"/>
<polygon fill="black" stroke="black" points="83.5,-119.62 80,-109.62 76.5,-119.62 83.5,-119.62"/>
</g>
<!-- genesis::create_accounts -->
<g id="node6" class="node">
<title>genesis::create_accounts</title>
<ellipse fill="none" stroke="black" cx="459" cy="-162" rx="66.89" ry="18"/>
<text text-anchor="middle" x="459" y="-158.3" font-family="Times,serif" font-size="14.00">create_accounts</text>
</g>
<!-- genesis::create_accounts&#45;&gt;genesis::create_account -->
<g id="edge5" class="edge">
<title>genesis::create_accounts&#45;&gt;genesis::create_account</title>
<path fill="none" stroke="black" d="M437.2,-144.76C424.86,-135.58 409.23,-123.94 395.67,-113.84"/>
<polygon fill="black" stroke="black" points="398.01,-111.22 387.9,-108.05 393.83,-116.83 398.01,-111.22"/>
</g>
<!-- genesis::create_initialize_validator -->
<g id="node7" class="node">
<title>genesis::create_initialize_validator</title>
<ellipse fill="none" stroke="black" cx="271" cy="-162" rx="102.88" ry="18"/>
<text text-anchor="middle" x="271" y="-158.3" font-family="Times,serif" font-size="14.00">create_initialize_validator</text>
</g>
<!-- genesis::create_initialize_validator&#45;&gt;genesis::create_account -->
<g id="edge6" class="edge">
<title>genesis::create_initialize_validator&#45;&gt;genesis::create_account</title>
<path fill="none" stroke="black" d="M293.75,-144.05C305.82,-135.07 320.83,-123.9 333.95,-114.12"/>
<polygon fill="black" stroke="black" points="335.96,-116.99 341.89,-108.21 331.78,-111.38 335.96,-116.99"/>
</g>
<!-- genesis::create_initialize_validators_with_commission -->
<g id="node8" class="node">
<title>genesis::create_initialize_validators_with_commission</title>
<ellipse fill="none" stroke="black" cx="342" cy="-237" rx="173.57" ry="18"/>
<text text-anchor="middle" x="342" y="-233.3" font-family="Times,serif" font-size="14.00">create_initialize_validators_with_commission</text>
</g>
<!-- genesis::create_initialize_validators_with_commission&#45;&gt;genesis::create_initialize_validator -->
<g id="edge7" class="edge">
<title>genesis::create_initialize_validators_with_commission&#45;&gt;genesis::create_initialize_validator</title>
<path fill="none" stroke="black" d="M325.17,-218.7C316.33,-209.61 305.33,-198.3 295.55,-188.25"/>
<polygon fill="black" stroke="black" points="298.24,-185.99 288.76,-181.26 293.22,-190.87 298.24,-185.99"/>
</g>
<!-- genesis::create_initialize_validators -->
<g id="node9" class="node">
<title>genesis::create_initialize_validators</title>
<ellipse fill="none" stroke="black" cx="308" cy="-309" rx="105.88" ry="18"/>
<text text-anchor="middle" x="308" y="-305.3" font-family="Times,serif" font-size="14.00">create_initialize_validators</text>
</g>
<!-- genesis::create_initialize_validators&#45;&gt;genesis::create_initialize_validators_with_commission -->
<g id="edge8" class="edge">
<title>genesis::create_initialize_validators&#45;&gt;genesis::create_initialize_validators_with_commission</title>
<path fill="none" stroke="black" d="M316.4,-290.7C320.11,-283.07 324.56,-273.92 328.69,-265.4"/>
<polygon fill="black" stroke="black" points="331.81,-266.99 333.03,-256.47 325.51,-263.93 331.81,-266.99"/>
</g>
<!-- genesis::initialize_for_verification -->
<g id="node10" class="node">
<title>genesis::initialize_for_verification</title>
<ellipse fill="none" stroke="black" cx="269" cy="-381" rx="100.98" ry="18"/>
<text text-anchor="middle" x="269" y="-377.3" font-family="Times,serif" font-size="14.00">initialize_for_verification</text>
</g>
<!-- genesis::initialize_for_verification&#45;&gt;genesis::create_initialize_validators -->
<g id="edge9" class="edge">
<title>genesis::initialize_for_verification&#45;&gt;genesis::create_initialize_validators</title>
<path fill="none" stroke="black" d="M278.64,-362.7C282.94,-354.98 288.1,-345.71 292.89,-337.11"/>
<polygon fill="black" stroke="black" points="295.92,-338.87 297.73,-328.43 289.81,-335.46 295.92,-338.87"/>
</g>
</g>
</svg>
