<?xml version="1.0" encoding="UTF-8" standalone="no"?>
<!DOCTYPE svg PUBLIC "-//W3C//DTD SVG 1.1//EN"
 "http://www.w3.org/Graphics/SVG/1.1/DTD/svg11.dtd">
<!-- Generated by graphviz version 7.0.0 (20221023.0053)
 -->
<!-- Title: G Pages: 1 -->
<svg width="560pt" height="207pt"
 viewBox="0.00 0.00 560.00 207.00" xmlns="http://www.w3.org/2000/svg" xmlns:xlink="http://www.w3.org/1999/xlink">
<g id="graph0" class="graph" transform="scale(1 1) rotate(0) translate(4 203)">
<title>G</title>
<polygon fill="white" stroke="none" points="-4,4 -4,-203 556,-203 556,4 -4,4"/>
<g id="clust1" class="cluster">
<title>cluster_vector</title>
<polygon fill="none" stroke="black" points="8,-8 8,-155 202,-155 202,-8 8,-8"/>
<text text-anchor="middle" x="105" y="-139.8" font-family="Times,serif" font-size="14.00">vector</text>
</g>
<g id="clust2" class="cluster">
<title>cluster_hash</title>
<polygon fill="none" stroke="black" points="210,-80 210,-155 314,-155 314,-80 210,-80"/>
<text text-anchor="middle" x="262" y="-139.8" font-family="Times,serif" font-size="14.00">hash</text>
</g>
<g id="clust3" class="cluster">
<title>cluster_bcs</title>
<polygon fill="none" stroke="black" points="322,-80 322,-155 418,-155 418,-80 322,-80"/>
<text text-anchor="middle" x="370" y="-139.8" font-family="Times,serif" font-size="14.00">bcs</text>
</g>
<g id="clust4" class="cluster">
<title>cluster_from_bcs</title>
<polygon fill="none" stroke="black" points="426,-8 426,-155 544,-155 544,-8 426,-8"/>
<text text-anchor="middle" x="485" y="-139.8" font-family="Times,serif" font-size="14.00">from_bcs</text>
</g>
<!-- create_resource_address -->
<g id="node1" class="node">
<title>create_resource_address</title>
<ellipse fill="none" stroke="black" cx="316" cy="-181" rx="96.68" ry="18"/>
<text text-anchor="middle" x="316" y="-177.3" font-family="Times,serif" font-size="14.00">create_resource_address</text>
</g>
<!-- vector::append -->
<g id="node2" class="node">
<title>vector::append</title>
<ellipse fill="none" stroke="black" cx="158" cy="-106" rx="36.29" ry="18"/>
<text text-anchor="middle" x="158" y="-102.3" font-family="Times,serif" font-size="14.00">append</text>
</g>
<!-- create_resource_address&#45;&gt;vector::append -->
<g id="edge1" class="edge">
<title>create_resource_address&#45;&gt;vector::append</title>
<path fill="none" stroke="black" d="M241.7,-169.13C229.33,-165.65 216.97,-161.06 206,-155 195.43,-149.17 185.64,-140.32 177.69,-131.8"/>
<polygon fill="black" stroke="black" points="180.35,-129.52 171.12,-124.32 175.09,-134.14 180.35,-129.52"/>
</g>
<!-- hash::sha3_256 -->
<g id="node3" class="node">
<title>hash::sha3_256</title>
<ellipse fill="none" stroke="black" cx="262" cy="-106" rx="44.39" ry="18"/>
<text text-anchor="middle" x="262" y="-102.3" font-family="Times,serif" font-size="14.00">sha3_256</text>
</g>
<!-- create_resource_address&#45;&gt;hash::sha3_256 -->
<g id="edge2" class="edge">
<title>create_resource_address&#45;&gt;hash::sha3_256</title>
<path fill="none" stroke="black" d="M303.2,-162.7C296.58,-153.75 288.38,-142.66 281.03,-132.73"/>
<polygon fill="black" stroke="black" points="283.99,-130.85 275.23,-124.89 278.37,-135.01 283.99,-130.85"/>
</g>
<!-- bcs::to_bytes -->
<g id="node4" class="node">
<title>bcs::to_bytes</title>
<ellipse fill="none" stroke="black" cx="370" cy="-106" rx="40.09" ry="18"/>
<text text-anchor="middle" x="370" y="-102.3" font-family="Times,serif" font-size="14.00">to_bytes</text>
</g>
<!-- create_resource_address&#45;&gt;bcs::to_bytes -->
<g id="edge3" class="edge">
<title>create_resource_address&#45;&gt;bcs::to_bytes</title>
<path fill="none" stroke="black" d="M328.8,-162.7C335.51,-153.63 343.86,-142.34 351.28,-132.3"/>
<polygon fill="black" stroke="black" points="354,-134.51 357.13,-124.39 348.37,-130.35 354,-134.51"/>
</g>
<!-- from_bcs::to_address -->
<g id="node5" class="node">
<title>from_bcs::to_address</title>
<ellipse fill="none" stroke="black" cx="483" cy="-106" rx="48.19" ry="18"/>
<text text-anchor="middle" x="483" y="-102.3" font-family="Times,serif" font-size="14.00">to_address</text>
</g>
<!-- create_resource_address&#45;&gt;from_bcs::to_address -->
<g id="edge4" class="edge">
<title>create_resource_address&#45;&gt;from_bcs::to_address</title>
<path fill="none" stroke="black" d="M385.64,-168.16C398.08,-164.77 410.67,-160.46 422,-155 434.86,-148.8 447.53,-139.51 457.96,-130.75"/>
<polygon fill="black" stroke="black" points="460.13,-133.49 465.35,-124.27 455.52,-128.23 460.13,-133.49"/>
</g>
<!-- vector::is_empty -->
<g id="node6" class="node">
<title>vector::is_empty</title>
<ellipse fill="none" stroke="black" cx="60" cy="-34" rx="43.59" ry="18"/>
<text text-anchor="middle" x="60" y="-30.3" font-family="Times,serif" font-size="14.00">is_empty</text>
</g>
<!-- vector::append&#45;&gt;vector::is_empty -->
<g id="edge5" class="edge">
<title>vector::append&#45;&gt;vector::is_empty</title>
<path fill="none" stroke="black" d="M138.17,-90.83C124.46,-81.04 105.96,-67.83 90.4,-56.71"/>
<polygon fill="black" stroke="black" points="92.56,-53.96 82.39,-50.99 88.49,-59.65 92.56,-53.96"/>
</g>
<!-- vector::reverse -->
<g id="node7" class="node">
<title>vector::reverse</title>
<ellipse fill="none" stroke="black" cx="158" cy="-34" rx="36.29" ry="18"/>
<text text-anchor="middle" x="158" y="-30.3" font-family="Times,serif" font-size="14.00">reverse</text>
</g>
<!-- vector::append&#45;&gt;vector::reverse -->
<g id="edge6" class="edge">
<title>vector::append&#45;&gt;vector::reverse</title>
<path fill="none" stroke="black" d="M158,-87.7C158,-80.41 158,-71.73 158,-63.54"/>
<polygon fill="black" stroke="black" points="161.5,-63.62 158,-53.62 154.5,-63.62 161.5,-63.62"/>
</g>
<!-- from_bcs::from_bytes -->
<g id="node8" class="node">
<title>from_bcs::from_bytes</title>
<ellipse fill="none" stroke="black" cx="485" cy="-34" rx="51.19" ry="18"/>
<text text-anchor="middle" x="485" y="-30.3" font-family="Times,serif" font-size="14.00">from_bytes</text>
</g>
<!-- from_bcs::to_address&#45;&gt;from_bcs::from_bytes -->
<g id="edge7" class="edge">
<title>from_bcs::to_address&#45;&gt;from_bcs::from_bytes</title>
<path fill="none" stroke="black" d="M483.49,-87.7C483.7,-80.41 483.95,-71.73 484.18,-63.54"/>
<polygon fill="black" stroke="black" points="487.68,-63.71 484.47,-53.62 480.68,-63.51 487.68,-63.71"/>
</g>
</g>
</svg>
