<?xml version="1.0" encoding="UTF-8" standalone="no"?>
<!DOCTYPE svg PUBLIC "-//W3C//DTD SVG 1.1//EN"
 "http://www.w3.org/Graphics/SVG/1.1/DTD/svg11.dtd">
<!-- Generated by graphviz version 7.0.0 (20221023.0053)
 -->
<!-- Title: G Pages: 1 -->
<svg width="1452pt" height="476pt"
 viewBox="0.00 0.00 1452.00 476.00" xmlns="http://www.w3.org/2000/svg" xmlns:xlink="http://www.w3.org/1999/xlink">
<g id="graph0" class="graph" transform="scale(1 1) rotate(0) translate(4 472)">
<title>G</title>
<polygon fill="white" stroke="none" points="-4,4 -4,-472 1448,-472 1448,4 -4,4"/>
<!-- account -->
<g id="node1" class="node">
<title>account</title>
<ellipse fill="none" stroke="black" cx="531" cy="-18" rx="38.19" ry="18"/>
<text text-anchor="middle" x="531" y="-14.3" font-family="Times,serif" font-size="14.00">account</text>
</g>
<!-- coin -->
<g id="node2" class="node">
<title>coin</title>
<ellipse fill="none" stroke="black" cx="780" cy="-90" rx="27" ry="18"/>
<text text-anchor="middle" x="780" y="-86.3" font-family="Times,serif" font-size="14.00">coin</text>
</g>
<!-- coin&#45;&gt;account -->
<g id="edge1" class="edge">
<title>coin&#45;&gt;account</title>
<path fill="none" stroke="black" d="M755.21,-82.03C712.93,-70.14 626.34,-45.8 574.01,-31.09"/>
<polygon fill="black" stroke="black" points="575.11,-27.76 564.54,-28.43 573.22,-34.5 575.11,-27.76"/>
</g>
<!-- aptos_account -->
<g id="node3" class="node">
<title>aptos_account</title>
<ellipse fill="none" stroke="black" cx="1317" cy="-234" rx="61.19" ry="18"/>
<text text-anchor="middle" x="1317" y="-230.3" font-family="Times,serif" font-size="14.00">aptos_account</text>
</g>
<!-- aptos_account&#45;&gt;account -->
<g id="edge2" class="edge">
<title>aptos_account&#45;&gt;account</title>
<path fill="none" stroke="black" d="M1312.64,-215.64C1303.03,-181.38 1276.5,-105.49 1223,-72 1168.88,-38.12 729.92,-24.01 580.55,-20.16"/>
<polygon fill="black" stroke="black" points="581.08,-16.67 570.99,-19.91 580.9,-23.67 581.08,-16.67"/>
</g>
<!-- aptos_account&#45;&gt;coin -->
<g id="edge14" class="edge">
<title>aptos_account&#45;&gt;coin</title>
<path fill="none" stroke="black" d="M1293.1,-217.12C1261.21,-196.74 1202.31,-161.89 1147,-144 1031.15,-106.52 886.15,-95.49 818.31,-92.29"/>
<polygon fill="black" stroke="black" points="818.61,-88.8 808.46,-91.86 818.3,-95.79 818.61,-88.8"/>
</g>
<!-- aptos_coin -->
<g id="node14" class="node">
<title>aptos_coin</title>
<ellipse fill="none" stroke="black" cx="902" cy="-162" rx="48.99" ry="18"/>
<text text-anchor="middle" x="902" y="-158.3" font-family="Times,serif" font-size="14.00">aptos_coin</text>
</g>
<!-- aptos_account&#45;&gt;aptos_coin -->
<g id="edge47" class="edge">
<title>aptos_account&#45;&gt;aptos_coin</title>
<path fill="none" stroke="black" d="M1264.86,-224.21C1186.06,-210.91 1037.31,-185.82 956.91,-172.26"/>
<polygon fill="black" stroke="black" points="957.97,-168.89 947.52,-170.68 956.8,-175.79 957.97,-168.89"/>
</g>
<!-- voting -->
<g id="node4" class="node">
<title>voting</title>
<ellipse fill="none" stroke="black" cx="346" cy="-90" rx="33.29" ry="18"/>
<text text-anchor="middle" x="346" y="-86.3" font-family="Times,serif" font-size="14.00">voting</text>
</g>
<!-- voting&#45;&gt;account -->
<g id="edge3" class="edge">
<title>voting&#45;&gt;account</title>
<path fill="none" stroke="black" d="M372.9,-78.82C404.05,-67.03 455.65,-47.51 491.39,-33.99"/>
<polygon fill="black" stroke="black" points="492.4,-37.35 500.52,-30.53 489.92,-30.8 492.4,-37.35"/>
</g>
<!-- stake -->
<g id="node5" class="node">
<title>stake</title>
<ellipse fill="none" stroke="black" cx="664" cy="-234" rx="28.7" ry="18"/>
<text text-anchor="middle" x="664" y="-230.3" font-family="Times,serif" font-size="14.00">stake</text>
</g>
<!-- stake&#45;&gt;account -->
<g id="edge4" class="edge">
<title>stake&#45;&gt;account</title>
<path fill="none" stroke="black" d="M654,-216.92C631.19,-180.21 575.13,-90 547.26,-45.17"/>
<polygon fill="black" stroke="black" points="550.35,-43.5 542.09,-36.85 544.4,-47.19 550.35,-43.5"/>
</g>
<!-- stake&#45;&gt;coin -->
<g id="edge15" class="edge">
<title>stake&#45;&gt;coin</title>
<path fill="none" stroke="black" d="M658.94,-216.08C654.3,-196.97 650.05,-165.71 664,-144 681.23,-117.19 715.75,-103.77 742.68,-97.16"/>
<polygon fill="black" stroke="black" points="743.2,-100.63 752.2,-95.06 741.68,-93.8 743.2,-100.63"/>
</g>
<!-- stake&#45;&gt;aptos_coin -->
<g id="edge48" class="edge">
<title>stake&#45;&gt;aptos_coin</title>
<path fill="none" stroke="black" d="M689.47,-225.51C728.6,-214 804.18,-191.77 853.86,-177.16"/>
<polygon fill="black" stroke="black" points="854.6,-180.59 863.21,-174.41 852.62,-173.87 854.6,-180.59"/>
</g>
<!-- reconfiguration -->
<g id="node6" class="node">
<title>reconfiguration</title>
<ellipse fill="none" stroke="black" cx="276" cy="-306" rx="64.99" ry="18"/>
<text text-anchor="middle" x="276" y="-302.3" font-family="Times,serif" font-size="14.00">reconfiguration</text>
</g>
<!-- reconfiguration&#45;&gt;account -->
<g id="edge5" class="edge">
<title>reconfiguration&#45;&gt;account</title>
<path fill="none" stroke="black" d="M272.13,-287.73C263.69,-245.11 248.54,-133.91 304,-72 327.35,-45.93 422.78,-30.89 482.22,-23.88"/>
<polygon fill="black" stroke="black" points="482.56,-27.37 492.09,-22.76 481.76,-20.41 482.56,-27.37"/>
</g>
<!-- reconfiguration&#45;&gt;stake -->
<g id="edge26" class="edge">
<title>reconfiguration&#45;&gt;stake</title>
<path fill="none" stroke="black" d="M331.96,-296.39C394.52,-286.56 498.78,-269.54 588,-252 600.47,-249.55 614.02,-246.61 626.18,-243.86"/>
<polygon fill="black" stroke="black" points="626.89,-247.29 635.86,-241.65 625.34,-240.47 626.89,-247.29"/>
</g>
<!-- aptos_governance -->
<g id="node7" class="node">
<title>aptos_governance</title>
<ellipse fill="none" stroke="black" cx="646" cy="-378" rx="74.19" ry="18"/>
<text text-anchor="middle" x="646" y="-374.3" font-family="Times,serif" font-size="14.00">aptos_governance</text>
</g>
<!-- aptos_governance&#45;&gt;account -->
<g id="edge6" class="edge">
<title>aptos_governance&#45;&gt;account</title>
<path fill="none" stroke="black" d="M606,-362.49C537.96,-336.57 407,-280.73 407,-235 407,-235 407,-235 407,-161 407,-105.87 460.69,-61.81 497.41,-38.12"/>
<polygon fill="black" stroke="black" points="498.88,-41.33 505.51,-33.07 495.18,-35.39 498.88,-41.33"/>
</g>
<!-- aptos_governance&#45;&gt;coin -->
<g id="edge16" class="edge">
<title>aptos_governance&#45;&gt;coin</title>
<path fill="none" stroke="black" d="M639.62,-359.8C624.93,-316.87 594.14,-204.11 651,-144 675.27,-118.34 713.78,-104.71 742.41,-97.74"/>
<polygon fill="black" stroke="black" points="743.15,-101.16 752.14,-95.55 741.62,-94.33 743.15,-101.16"/>
</g>
<!-- aptos_governance&#45;&gt;voting -->
<g id="edge25" class="edge">
<title>aptos_governance&#45;&gt;voting</title>
<path fill="none" stroke="black" d="M590.72,-365.61C516.54,-350.31 393.88,-324.89 393,-324 338.2,-268.79 338.62,-168.53 342.65,-119.52"/>
<polygon fill="black" stroke="black" points="346.12,-120.02 343.58,-109.73 339.15,-119.35 346.12,-120.02"/>
</g>
<!-- aptos_governance&#45;&gt;stake -->
<g id="edge27" class="edge">
<title>aptos_governance&#45;&gt;stake</title>
<path fill="none" stroke="black" d="M648.21,-359.59C651.25,-335.61 656.76,-292.14 660.4,-263.42"/>
<polygon fill="black" stroke="black" points="663.86,-263.97 661.64,-253.61 656.91,-263.09 663.86,-263.97"/>
</g>
<!-- aptos_governance&#45;&gt;reconfiguration -->
<g id="edge33" class="edge">
<title>aptos_governance&#45;&gt;reconfiguration</title>
<path fill="none" stroke="black" d="M591.13,-365.51C581.76,-363.62 572.11,-361.72 563,-360 470.81,-342.59 447.1,-341.87 355,-324 349.06,-322.85 342.88,-321.6 336.71,-320.32"/>
<polygon fill="black" stroke="black" points="337.65,-316.95 327.15,-318.32 336.21,-323.8 337.65,-316.95"/>
</g>
<!-- aptos_governance&#45;&gt;aptos_coin -->
<g id="edge49" class="edge">
<title>aptos_governance&#45;&gt;aptos_coin</title>
<path fill="none" stroke="black" d="M656.83,-359.76C677.73,-327.67 726.58,-258.22 783,-216 804.65,-199.8 832.04,-187.17 855.08,-178.31"/>
<polygon fill="black" stroke="black" points="856.08,-181.67 864.24,-174.91 853.64,-175.11 856.08,-181.67"/>
</g>
<!-- block -->
<g id="node8" class="node">
<title>block</title>
<ellipse fill="none" stroke="black" cx="97" cy="-378" rx="30.59" ry="18"/>
<text text-anchor="middle" x="97" y="-374.3" font-family="Times,serif" font-size="14.00">block</text>
</g>
<!-- block&#45;&gt;account -->
<g id="edge7" class="edge">
<title>block&#45;&gt;account</title>
<path fill="none" stroke="black" d="M97.2,-359.51C97.49,-332.71 98,-279.87 98,-235 98,-235 98,-235 98,-161 98,-80.77 369.79,-38.54 482.71,-24.45"/>
<polygon fill="black" stroke="black" points="483.08,-27.93 492.58,-23.24 482.23,-20.98 483.08,-27.93"/>
</g>
<!-- block&#45;&gt;stake -->
<g id="edge28" class="edge">
<title>block&#45;&gt;stake</title>
<path fill="none" stroke="black" d="M113.1,-362.42C139.87,-338.31 191.65,-292.35 202,-288 360.83,-221.21 417.81,-278.86 588,-252 600.65,-250 614.35,-247.16 626.58,-244.36"/>
<polygon fill="black" stroke="black" points="627.37,-247.77 636.31,-242.08 625.77,-240.96 627.37,-247.77"/>
</g>
<!-- block&#45;&gt;reconfiguration -->
<g id="edge34" class="edge">
<title>block&#45;&gt;reconfiguration</title>
<path fill="none" stroke="black" d="M121.89,-367.27C149.45,-356.49 194.53,-338.86 228.83,-325.45"/>
<polygon fill="black" stroke="black" points="230.1,-328.71 238.14,-321.81 227.55,-322.19 230.1,-328.71"/>
</g>
<!-- staking_contract -->
<g id="node9" class="node">
<title>staking_contract</title>
<ellipse fill="none" stroke="black" cx="1166" cy="-306" rx="68.79" ry="18"/>
<text text-anchor="middle" x="1166" y="-302.3" font-family="Times,serif" font-size="14.00">staking_contract</text>
</g>
<!-- staking_contract&#45;&gt;account -->
<g id="edge8" class="edge">
<title>staking_contract&#45;&gt;account</title>
<path fill="none" stroke="black" d="M1229.05,-298.51C1287.28,-291.07 1367.61,-276.59 1387,-252 1452.02,-169.55 1420.98,-152.38 1255,-72 1194.61,-42.76 733.71,-25.49 580.41,-20.51"/>
<polygon fill="black" stroke="black" points="580.69,-17.02 570.58,-20.2 580.46,-24.01 580.69,-17.02"/>
</g>
<!-- staking_contract&#45;&gt;coin -->
<g id="edge17" class="edge">
<title>staking_contract&#45;&gt;coin</title>
<path fill="none" stroke="black" d="M1151.85,-287.96C1123.15,-254.62 1054.47,-180.8 980,-144 926.83,-117.73 859.06,-103.3 817.64,-96.37"/>
<polygon fill="black" stroke="black" points="818.35,-92.94 807.93,-94.81 817.24,-99.85 818.35,-92.94"/>
</g>
<!-- staking_contract&#45;&gt;stake -->
<g id="edge29" class="edge">
<title>staking_contract&#45;&gt;stake</title>
<path fill="none" stroke="black" d="M1107.3,-296.29C1088.96,-293.6 1068.64,-290.65 1050,-288 923.38,-270.03 773.25,-249.7 703.4,-240.29"/>
<polygon fill="black" stroke="black" points="703.98,-236.84 693.6,-238.97 703.05,-243.77 703.98,-236.84"/>
</g>
<!-- staking_contract&#45;&gt;aptos_coin -->
<g id="edge50" class="edge">
<title>staking_contract&#45;&gt;aptos_coin</title>
<path fill="none" stroke="black" d="M1138.57,-289.23C1121.6,-279.14 1099.59,-265.47 1081,-252 1060.82,-237.37 1059.45,-228.69 1038,-216 1010.49,-199.72 977.08,-186.62 950.26,-177.52"/>
<polygon fill="black" stroke="black" points="951.61,-174.28 941.01,-174.46 949.41,-180.92 951.61,-174.28"/>
</g>
<!-- vesting -->
<g id="node10" class="node">
<title>vesting</title>
<ellipse fill="none" stroke="black" cx="1247" cy="-378" rx="36.29" ry="18"/>
<text text-anchor="middle" x="1247" y="-374.3" font-family="Times,serif" font-size="14.00">vesting</text>
</g>
<!-- vesting&#45;&gt;account -->
<g id="edge9" class="edge">
<title>vesting&#45;&gt;account</title>
<path fill="none" stroke="black" d="M1279.53,-369.52C1335.48,-354.52 1444,-315.1 1444,-235 1444,-235 1444,-235 1444,-161 1444,-87.27 1374.05,-95.01 1304,-72 1168.84,-27.6 729.31,-20.39 580.65,-19.22"/>
<polygon fill="black" stroke="black" points="580.77,-15.72 570.74,-19.15 580.72,-22.72 580.77,-15.72"/>
</g>
<!-- vesting&#45;&gt;coin -->
<g id="edge18" class="edge">
<title>vesting&#45;&gt;coin</title>
<path fill="none" stroke="black" d="M1255.29,-360.09C1263.08,-341.8 1272.24,-312.03 1263,-288 1247.52,-247.76 1233.28,-240.78 1198,-216 1076.55,-130.69 896.14,-102.74 818.17,-94.33"/>
<polygon fill="black" stroke="black" points="818.81,-90.87 808.5,-93.33 818.09,-97.84 818.81,-90.87"/>
</g>
<!-- vesting&#45;&gt;aptos_account -->
<g id="edge24" class="edge">
<title>vesting&#45;&gt;aptos_account</title>
<path fill="none" stroke="black" d="M1272.13,-364.77C1287.51,-355.81 1305.93,-342.06 1315,-324 1324.29,-305.51 1324.41,-282.02 1322.41,-263.81"/>
<polygon fill="black" stroke="black" points="1325.88,-263.36 1321.03,-253.95 1318.95,-264.33 1325.88,-263.36"/>
</g>
<!-- vesting&#45;&gt;stake -->
<g id="edge30" class="edge">
<title>vesting&#45;&gt;stake</title>
<path fill="none" stroke="black" d="M1211.04,-374.71C1126.56,-368.92 917.78,-352.14 854,-324 831.2,-313.94 832.69,-300.28 811,-288 768.43,-263.9 752.87,-269 707,-252 704.13,-250.94 701.17,-249.82 698.2,-248.68"/>
<polygon fill="black" stroke="black" points="699.58,-245.46 689,-245.09 697.04,-251.98 699.58,-245.46"/>
</g>
<!-- vesting&#45;&gt;staking_contract -->
<g id="edge41" class="edge">
<title>vesting&#45;&gt;staking_contract</title>
<path fill="none" stroke="black" d="M1229.42,-361.81C1219.04,-352.84 1205.66,-341.28 1193.87,-331.09"/>
<polygon fill="black" stroke="black" points="1196.24,-328.51 1186.39,-324.62 1191.66,-333.8 1196.24,-328.51"/>
</g>
<!-- vesting&#45;&gt;aptos_coin -->
<g id="edge51" class="edge">
<title>vesting&#45;&gt;aptos_coin</title>
<path fill="none" stroke="black" d="M1251.47,-359.92C1255.46,-340.66 1258.64,-309.27 1244,-288 1180.79,-196.19 1042.4,-171.55 962.39,-165.11"/>
<polygon fill="black" stroke="black" points="962.76,-161.63 952.53,-164.39 962.25,-168.61 962.76,-161.63"/>
</g>
<!-- transaction_validation -->
<g id="node11" class="node">
<title>transaction_validation</title>
<ellipse fill="none" stroke="black" cx="952" cy="-306" rx="89.08" ry="18"/>
<text text-anchor="middle" x="952" y="-302.3" font-family="Times,serif" font-size="14.00">transaction_validation</text>
</g>
<!-- transaction_validation&#45;&gt;account -->
<g id="edge10" class="edge">
<title>transaction_validation&#45;&gt;account</title>
<path fill="none" stroke="black" d="M993.93,-289.84C1010.77,-281.44 1028.42,-269.15 1038,-252 1064.56,-204.43 1023.27,-177.11 980,-144 857.77,-50.47 669.3,-26.92 580.5,-20.99"/>
<polygon fill="black" stroke="black" points="580.87,-17.51 570.67,-20.39 580.44,-24.49 580.87,-17.51"/>
</g>
<!-- transaction_validation&#45;&gt;coin -->
<g id="edge20" class="edge">
<title>transaction_validation&#45;&gt;coin</title>
<path fill="none" stroke="black" d="M925.57,-288.35C911.62,-278.78 894.8,-265.91 882,-252 843.19,-209.81 810.19,-150.99 792.92,-117.37"/>
<polygon fill="black" stroke="black" points="796.19,-116.09 788.56,-108.74 789.94,-119.24 796.19,-116.09"/>
</g>
<!-- transaction_validation&#45;&gt;aptos_coin -->
<g id="edge53" class="edge">
<title>transaction_validation&#45;&gt;aptos_coin</title>
<path fill="none" stroke="black" d="M924.37,-288.43C912.02,-279.38 898.74,-266.95 892,-252 883.36,-232.84 886.63,-209.1 891.65,-190.96"/>
<polygon fill="black" stroke="black" points="894.91,-192.25 894.54,-181.66 888.23,-190.17 894.91,-192.25"/>
</g>
<!-- transaction_fee -->
<g id="node15" class="node">
<title>transaction_fee</title>
<ellipse fill="none" stroke="black" cx="965" cy="-234" rx="64.19" ry="18"/>
<text text-anchor="middle" x="965" y="-230.3" font-family="Times,serif" font-size="14.00">transaction_fee</text>
</g>
<!-- transaction_validation&#45;&gt;transaction_fee -->
<g id="edge56" class="edge">
<title>transaction_validation&#45;&gt;transaction_fee</title>
<path fill="none" stroke="black" d="M955.21,-287.7C956.58,-280.32 958.22,-271.52 959.75,-263.25"/>
<polygon fill="black" stroke="black" points="963.16,-264.06 961.55,-253.59 956.28,-262.79 963.16,-264.06"/>
</g>
<!-- genesis -->
<g id="node12" class="node">
<title>genesis</title>
<ellipse fill="none" stroke="black" cx="582" cy="-450" rx="36.29" ry="18"/>
<text text-anchor="middle" x="582" y="-446.3" font-family="Times,serif" font-size="14.00">genesis</text>
</g>
<!-- genesis&#45;&gt;account -->
<g id="edge11" class="edge">
<title>genesis&#45;&gt;account</title>
<path fill="none" stroke="black" d="M545.68,-447.38C432.03,-442.05 88.3,-423.76 47,-396 9.88,-371.04 0,-351.73 0,-307 0,-307 0,-307 0,-161 0,-61.88 349.64,-30.12 481.48,-21.67"/>
<polygon fill="black" stroke="black" points="481.54,-25.17 491.3,-21.06 481.1,-18.19 481.54,-25.17"/>
</g>
<!-- genesis&#45;&gt;coin -->
<g id="edge21" class="edge">
<title>genesis&#45;&gt;coin</title>
<path fill="none" stroke="black" d="M545.71,-448.09C432.24,-444.88 89.75,-432.23 57,-396 46.27,-384.13 49.77,-374.28 57,-360 123.19,-229.23 604.69,-125.44 742.96,-98.08"/>
<polygon fill="black" stroke="black" points="743.54,-101.54 752.67,-96.18 742.19,-94.67 743.54,-101.54"/>
</g>
<!-- genesis&#45;&gt;stake -->
<g id="edge31" class="edge">
<title>genesis&#45;&gt;stake</title>
<path fill="none" stroke="black" d="M618.31,-447.18C653.18,-443.27 704.13,-431.41 729,-396 760.04,-351.81 715.8,-290.62 686.44,-257.87"/>
<polygon fill="black" stroke="black" points="689.02,-255.5 679.66,-250.53 683.88,-260.25 689.02,-255.5"/>
</g>
<!-- genesis&#45;&gt;reconfiguration -->
<g id="edge38" class="edge">
<title>genesis&#45;&gt;reconfiguration</title>
<path fill="none" stroke="black" d="M545.99,-446.98C451.03,-441.3 199.36,-423.74 175,-396 164.44,-383.98 166.72,-373.69 175,-360 185.11,-343.28 202.42,-331.58 219.88,-323.51"/>
<polygon fill="black" stroke="black" points="220.9,-326.88 228.74,-319.76 218.17,-320.44 220.9,-326.88"/>
</g>
<!-- genesis&#45;&gt;aptos_governance -->
<g id="edge39" class="edge">
<title>genesis&#45;&gt;aptos_governance</title>
<path fill="none" stroke="black" d="M596.52,-433.12C604.32,-424.59 614.1,-413.89 622.91,-404.25"/>
<polygon fill="black" stroke="black" points="625.46,-406.66 629.62,-396.91 620.29,-401.93 625.46,-406.66"/>
</g>
<!-- genesis&#45;&gt;block -->
<g id="edge40" class="edge">
<title>genesis&#45;&gt;block</title>
<path fill="none" stroke="black" d="M545.54,-447.58C469.49,-443.97 288.84,-432.02 142,-396 138.81,-395.22 135.53,-394.27 132.27,-393.23"/>
<polygon fill="black" stroke="black" points="133.44,-389.94 122.85,-389.95 131.14,-396.54 133.44,-389.94"/>
</g>
<!-- genesis&#45;&gt;staking_contract -->
<g id="edge42" class="edge">
<title>genesis&#45;&gt;staking_contract</title>
<path fill="none" stroke="black" d="M618.35,-447.79C688.75,-444.64 848.03,-433.61 976,-396 1031.74,-379.61 1091.78,-349.1 1129.12,-328.42"/>
<polygon fill="black" stroke="black" points="1130.7,-331.55 1137.71,-323.61 1127.28,-325.44 1130.7,-331.55"/>
</g>
<!-- genesis&#45;&gt;vesting -->
<g id="edge44" class="edge">
<title>genesis&#45;&gt;vesting</title>
<path fill="none" stroke="black" d="M617.7,-445.75C703.15,-437.89 926.16,-416.99 1112,-396 1141.65,-392.65 1174.9,-388.47 1200.99,-385.09"/>
<polygon fill="black" stroke="black" points="1201.1,-388.61 1210.56,-383.84 1200.2,-381.66 1201.1,-388.61"/>
</g>
<!-- genesis&#45;&gt;transaction_validation -->
<g id="edge46" class="edge">
<title>genesis&#45;&gt;transaction_validation</title>
<path fill="none" stroke="black" d="M616.57,-443.8C660.38,-436.49 737.71,-421.18 800,-396 843.3,-378.5 889.04,-350.2 918.89,-330.22"/>
<polygon fill="black" stroke="black" points="920.81,-333.14 927.13,-324.64 916.89,-327.35 920.81,-333.14"/>
</g>
<!-- genesis&#45;&gt;aptos_coin -->
<g id="edge54" class="edge">
<title>genesis&#45;&gt;aptos_coin</title>
<path fill="none" stroke="black" d="M617.23,-444.72C653.17,-438.86 709.04,-425.49 748,-396 821.35,-340.48 870.56,-239.28 891.13,-190.6"/>
<polygon fill="black" stroke="black" points="894.25,-192.21 894.83,-181.63 887.78,-189.54 894.25,-192.21"/>
</g>
<!-- genesis&#45;&gt;transaction_fee -->
<g id="edge57" class="edge">
<title>genesis&#45;&gt;transaction_fee</title>
<path fill="none" stroke="black" d="M616.38,-443.8C667.44,-435.7 766.07,-418.63 848,-396 870.97,-389.66 1036.27,-343.47 1050,-324 1059.22,-310.92 1057.76,-301.99 1050,-288 1041.84,-273.3 1027.72,-262.14 1013.3,-253.95"/>
<polygon fill="black" stroke="black" points="1015.17,-250.98 1004.69,-249.44 1011.93,-257.18 1015.17,-250.98"/>
</g>
<!-- consensus_config -->
<g id="node18" class="node">
<title>consensus_config</title>
<ellipse fill="none" stroke="black" cx="257" cy="-378" rx="73.39" ry="18"/>
<text text-anchor="middle" x="257" y="-374.3" font-family="Times,serif" font-size="14.00">consensus_config</text>
</g>
<!-- genesis&#45;&gt;consensus_config -->
<g id="edge58" class="edge">
<title>genesis&#45;&gt;consensus_config</title>
<path fill="none" stroke="black" d="M549.05,-441.9C495.93,-430.46 390.39,-407.73 321.8,-392.96"/>
<polygon fill="black" stroke="black" points="322.7,-389.57 312.18,-390.89 321.22,-396.41 322.7,-389.57"/>
</g>
<!-- gas_schedule -->
<g id="node19" class="node">
<title>gas_schedule</title>
<ellipse fill="none" stroke="black" cx="406" cy="-378" rx="57.69" ry="18"/>
<text text-anchor="middle" x="406" y="-374.3" font-family="Times,serif" font-size="14.00">gas_schedule</text>
</g>
<!-- genesis&#45;&gt;gas_schedule -->
<g id="edge59" class="edge">
<title>genesis&#45;&gt;gas_schedule</title>
<path fill="none" stroke="black" d="M554.5,-438.06C526.88,-427.08 483.84,-409.96 451.2,-396.98"/>
<polygon fill="black" stroke="black" points="452.55,-393.75 441.97,-393.31 449.97,-400.25 452.55,-393.75"/>
</g>
<!-- version -->
<g id="node20" class="node">
<title>version</title>
<ellipse fill="none" stroke="black" cx="518" cy="-378" rx="36.29" ry="18"/>
<text text-anchor="middle" x="518" y="-374.3" font-family="Times,serif" font-size="14.00">version</text>
</g>
<!-- genesis&#45;&gt;version -->
<g id="edge60" class="edge">
<title>genesis&#45;&gt;version</title>
<path fill="none" stroke="black" d="M567.48,-433.12C559.38,-424.26 549.12,-413.04 540.05,-403.12"/>
<polygon fill="black" stroke="black" points="542.82,-400.96 533.49,-395.94 537.65,-405.68 542.82,-400.96"/>
</g>
<!-- resource_account -->
<g id="node13" class="node">
<title>resource_account</title>
<ellipse fill="none" stroke="black" cx="507" cy="-234" rx="72.29" ry="18"/>
<text text-anchor="middle" x="507" y="-230.3" font-family="Times,serif" font-size="14.00">resource_account</text>
</g>
<!-- resource_account&#45;&gt;account -->
<g id="edge12" class="edge">
<title>resource_account&#45;&gt;account</title>
<path fill="none" stroke="black" d="M508.92,-215.85C513.04,-179.14 522.74,-92.66 527.8,-47.53"/>
<polygon fill="black" stroke="black" points="531.26,-48.06 528.9,-37.74 524.31,-47.28 531.26,-48.06"/>
</g>
<!-- resource_account&#45;&gt;coin -->
<g id="edge23" class="edge">
<title>resource_account&#45;&gt;coin</title>
<path fill="none" stroke="black" d="M518.98,-215.97C534.02,-195.85 561.66,-162.76 593,-144 640.07,-115.83 702.77,-102.06 742.26,-95.77"/>
<polygon fill="black" stroke="black" points="742.62,-99.25 751.99,-94.31 741.58,-92.33 742.62,-99.25"/>
</g>
<!-- resource_account&#45;&gt;aptos_coin -->
<g id="edge55" class="edge">
<title>resource_account&#45;&gt;aptos_coin</title>
<path fill="none" stroke="black" d="M564.44,-222.82C640.35,-209.37 773.14,-185.84 847.54,-172.65"/>
<polygon fill="black" stroke="black" points="847.79,-176.16 857.03,-170.97 846.57,-169.27 847.79,-176.16"/>
</g>
<!-- aptos_coin&#45;&gt;coin -->
<g id="edge13" class="edge">
<title>aptos_coin&#45;&gt;coin</title>
<path fill="none" stroke="black" d="M876.42,-146.33C856.94,-135.15 830.07,-119.73 809.65,-108.01"/>
<polygon fill="black" stroke="black" points="811.64,-105.12 801.23,-103.18 808.16,-111.19 811.64,-105.12"/>
</g>
<!-- transaction_fee&#45;&gt;coin -->
<g id="edge19" class="edge">
<title>transaction_fee&#45;&gt;coin</title>
<path fill="none" stroke="black" d="M969.43,-215.55C973.29,-195.96 976.05,-164.25 960,-144 926.41,-101.62 860.69,-91.92 818.64,-90.33"/>
<polygon fill="black" stroke="black" points="818.78,-86.84 808.71,-90.11 818.63,-93.83 818.78,-86.84"/>
</g>
<!-- transaction_fee&#45;&gt;aptos_coin -->
<g id="edge52" class="edge">
<title>transaction_fee&#45;&gt;aptos_coin</title>
<path fill="none" stroke="black" d="M949.75,-216.05C942.13,-207.59 932.77,-197.19 924.36,-187.84"/>
<polygon fill="black" stroke="black" points="926.98,-185.52 917.69,-180.43 921.78,-190.21 926.98,-185.52"/>
</g>
<!-- managed_coin -->
<g id="node16" class="node">
<title>managed_coin</title>
<ellipse fill="none" stroke="black" cx="735" cy="-162" rx="62.29" ry="18"/>
<text text-anchor="middle" x="735" y="-158.3" font-family="Times,serif" font-size="14.00">managed_coin</text>
</g>
<!-- managed_coin&#45;&gt;coin -->
<g id="edge22" class="edge">
<title>managed_coin&#45;&gt;coin</title>
<path fill="none" stroke="black" d="M745.89,-144.05C751.24,-135.73 757.8,-125.54 763.72,-116.32"/>
<polygon fill="black" stroke="black" points="766.54,-118.41 769.01,-108.1 760.65,-114.62 766.54,-118.41"/>
</g>
<!-- staking_proxy -->
<g id="node17" class="node">
<title>staking_proxy</title>
<ellipse fill="none" stroke="black" cx="1166" cy="-450" rx="61.19" ry="18"/>
<text text-anchor="middle" x="1166" y="-446.3" font-family="Times,serif" font-size="14.00">staking_proxy</text>
</g>
<!-- staking_proxy&#45;&gt;stake -->
<g id="edge32" class="edge">
<title>staking_proxy&#45;&gt;stake</title>
<path fill="none" stroke="black" d="M1122.79,-436.93C1054.8,-417.24 919.4,-375.23 811,-324 767.81,-303.59 721.14,-273.89 692.24,-254.51"/>
<polygon fill="black" stroke="black" points="694.29,-251.67 684.05,-248.97 690.37,-257.47 694.29,-251.67"/>
</g>
<!-- staking_proxy&#45;&gt;staking_contract -->
<g id="edge43" class="edge">
<title>staking_proxy&#45;&gt;staking_contract</title>
<path fill="none" stroke="black" d="M1166,-431.59C1166,-407.61 1166,-364.14 1166,-335.42"/>
<polygon fill="black" stroke="black" points="1169.5,-335.62 1166,-325.62 1162.5,-335.62 1169.5,-335.62"/>
</g>
<!-- staking_proxy&#45;&gt;vesting -->
<g id="edge45" class="edge">
<title>staking_proxy&#45;&gt;vesting</title>
<path fill="none" stroke="black" d="M1184.79,-432.76C1195.51,-423.5 1209.12,-411.73 1220.88,-401.58"/>
<polygon fill="black" stroke="black" points="1223,-404.37 1228.28,-395.18 1218.42,-399.07 1223,-404.37"/>
</g>
<!-- consensus_config&#45;&gt;reconfiguration -->
<g id="edge35" class="edge">
<title>consensus_config&#45;&gt;reconfiguration</title>
<path fill="none" stroke="black" d="M261.7,-359.7C263.72,-352.24 266.14,-343.32 268.41,-334.97"/>
<polygon fill="black" stroke="black" points="271.72,-336.13 270.96,-325.57 264.96,-334.3 271.72,-336.13"/>
</g>
<!-- gas_schedule&#45;&gt;reconfiguration -->
<g id="edge36" class="edge">
<title>gas_schedule&#45;&gt;reconfiguration</title>
<path fill="none" stroke="black" d="M378.11,-361.98C359.6,-352.02 335.06,-338.8 314.67,-327.82"/>
<polygon fill="black" stroke="black" points="316.54,-324.85 306.07,-323.19 313.22,-331.02 316.54,-324.85"/>
</g>
<!-- version&#45;&gt;reconfiguration -->
<g id="edge37" class="edge">
<title>version&#45;&gt;reconfiguration</title>
<path fill="none" stroke="black" d="M490.55,-366.14C484.79,-364 478.72,-361.85 473,-360 427.04,-345.17 374.14,-331.11 334.75,-321.19"/>
<polygon fill="black" stroke="black" points="335.77,-317.84 325.22,-318.81 334.07,-324.63 335.77,-317.84"/>
</g>
</g>
</svg>
