<?xml version="1.0" encoding="UTF-8" standalone="no"?>
<!DOCTYPE svg PUBLIC "-//W3C//DTD SVG 1.1//EN"
 "http://www.w3.org/Graphics/SVG/1.1/DTD/svg11.dtd">
<!-- Generated by graphviz version 7.0.0 (20221023.0053)
 -->
<!-- Title: G Pages: 1 -->
<svg width="1672pt" height="543pt"
 viewBox="0.00 0.00 1672.00 543.00" xmlns="http://www.w3.org/2000/svg" xmlns:xlink="http://www.w3.org/1999/xlink">
<g id="graph0" class="graph" transform="scale(1 1) rotate(0) translate(4 539)">
<title>G</title>
<polygon fill="white" stroke="none" points="-4,4 -4,-539 1668,-539 1668,4 -4,4"/>
<g id="clust1" class="cluster">
<title>cluster_coin</title>
<polygon fill="none" stroke="black" points="1095,-64 1095,-139 1185,-139 1185,-64 1095,-64"/>
<text text-anchor="middle" x="1140" y="-123.8" font-family="Times,serif" font-size="14.00">coin</text>
</g>
<g id="clust2" class="cluster">
<title>cluster_aptos_coin</title>
<polygon fill="none" stroke="black" points="1082,-377 1082,-452 1318,-452 1318,-377 1082,-377"/>
<text text-anchor="middle" x="1200" y="-436.8" font-family="Times,serif" font-size="14.00">aptos_coin</text>
</g>
<g id="clust3" class="cluster">
<title>cluster_aptos_account</title>
<polygon fill="none" stroke="black" points="1114,-147 1114,-297 1258,-297 1258,-147 1114,-147"/>
<text text-anchor="middle" x="1186" y="-281.8" font-family="Times,serif" font-size="14.00">aptos_account</text>
</g>
<g id="clust4" class="cluster">
<title>cluster_vesting</title>
<polygon fill="none" stroke="black" points="806,-305 806,-452 1074,-452 1074,-305 806,-305"/>
<text text-anchor="middle" x="940" y="-436.8" font-family="Times,serif" font-size="14.00">vesting</text>
</g>
<g id="clust5" class="cluster">
<title>cluster_genesis</title>
<polygon fill="none" stroke="black" points="8,-147 8,-527 798,-527 798,-147 8,-147"/>
<text text-anchor="middle" x="403" y="-511.8" font-family="Times,serif" font-size="14.00">genesis</text>
</g>
<g id="clust6" class="cluster">
<title>cluster_managed_coin</title>
<polygon fill="none" stroke="black" points="1266,-147 1266,-222 1362,-222 1362,-147 1266,-147"/>
<text text-anchor="middle" x="1314" y="-206.8" font-family="Times,serif" font-size="14.00">managed_coin</text>
</g>
<g id="clust7" class="cluster">
<title>cluster_resource_account</title>
<polygon fill="none" stroke="black" points="1370,-147 1370,-222 1656,-222 1656,-147 1370,-147"/>
<text text-anchor="middle" x="1513" y="-206.8" font-family="Times,serif" font-size="14.00">resource_account</text>
</g>
<!-- register_coin -->
<g id="node1" class="node">
<title>register_coin</title>
<ellipse fill="none" stroke="black" cx="1140" cy="-18" rx="56.59" ry="18"/>
<text text-anchor="middle" x="1140" y="-14.3" font-family="Times,serif" font-size="14.00">register_coin</text>
</g>
<!-- coin::register -->
<g id="node2" class="node">
<title>coin::register</title>
<ellipse fill="none" stroke="black" cx="1140" cy="-90" rx="37.09" ry="18"/>
<text text-anchor="middle" x="1140" y="-86.3" font-family="Times,serif" font-size="14.00">register</text>
</g>
<!-- coin::register&#45;&gt;register_coin -->
<g id="edge1" class="edge">
<title>coin::register&#45;&gt;register_coin</title>
<path fill="none" stroke="black" d="M1140,-71.7C1140,-64.41 1140,-55.73 1140,-47.54"/>
<polygon fill="black" stroke="black" points="1143.5,-47.62 1140,-37.62 1136.5,-47.62 1143.5,-47.62"/>
</g>
<!-- aptos_coin::configure_accounts_for_test -->
<g id="node3" class="node">
<title>aptos_coin::configure_accounts_for_test</title>
<ellipse fill="none" stroke="black" cx="1200" cy="-403" rx="110.48" ry="18"/>
<text text-anchor="middle" x="1200" y="-399.3" font-family="Times,serif" font-size="14.00">configure_accounts_for_test</text>
</g>
<!-- aptos_coin::configure_accounts_for_test&#45;&gt;coin::register -->
<g id="edge2" class="edge">
<title>aptos_coin::configure_accounts_for_test&#45;&gt;coin::register</title>
<path fill="none" stroke="black" d="M1178.37,-385.03C1156.35,-366.24 1123.58,-333.7 1110,-297 1086.87,-234.47 1093.77,-211.66 1110,-147 1112.61,-136.58 1117.58,-125.99 1122.73,-116.86"/>
<polygon fill="black" stroke="black" points="1125.57,-118.94 1127.72,-108.56 1119.57,-115.33 1125.57,-118.94"/>
</g>
<!-- aptos_account::create_account -->
<g id="node4" class="node">
<title>aptos_account::create_account</title>
<ellipse fill="none" stroke="black" cx="1186" cy="-173" rx="63.89" ry="18"/>
<text text-anchor="middle" x="1186" y="-169.3" font-family="Times,serif" font-size="14.00">create_account</text>
</g>
<!-- aptos_account::create_account&#45;&gt;coin::register -->
<g id="edge3" class="edge">
<title>aptos_account::create_account&#45;&gt;coin::register</title>
<path fill="none" stroke="black" d="M1176.24,-154.82C1170.1,-144.01 1162.05,-129.84 1155.1,-117.59"/>
<polygon fill="black" stroke="black" points="1158.31,-116.16 1150.33,-109.19 1152.23,-119.62 1158.31,-116.16"/>
</g>
<!-- vesting::create_vesting_contract_account -->
<g id="node5" class="node">
<title>vesting::create_vesting_contract_account</title>
<ellipse fill="none" stroke="black" cx="940" cy="-331" rx="126.18" ry="18"/>
<text text-anchor="middle" x="940" y="-327.3" font-family="Times,serif" font-size="14.00">create_vesting_contract_account</text>
</g>
<!-- vesting::create_vesting_contract_account&#45;&gt;coin::register -->
<g id="edge4" class="edge">
<title>vesting::create_vesting_contract_account&#45;&gt;coin::register</title>
<path fill="none" stroke="black" d="M951.84,-312.6C974.91,-279.16 1028.14,-204.2 1080,-147 1090.5,-135.42 1103.01,-123.49 1113.89,-113.62"/>
<polygon fill="black" stroke="black" points="1115.94,-116.49 1121.07,-107.21 1111.28,-111.27 1115.94,-116.49"/>
</g>
<!-- genesis::create_account -->
<g id="node6" class="node">
<title>genesis::create_account</title>
<ellipse fill="none" stroke="black" cx="551" cy="-173" rx="63.89" ry="18"/>
<text text-anchor="middle" x="551" y="-169.3" font-family="Times,serif" font-size="14.00">create_account</text>
</g>
<!-- genesis::create_account&#45;&gt;coin::register -->
<g id="edge5" class="edge">
<title>genesis::create_account&#45;&gt;coin::register</title>
<path fill="none" stroke="black" d="M607.48,-164.23C723.34,-148.3 986.04,-112.17 1093.18,-97.44"/>
<polygon fill="black" stroke="black" points="1093.63,-100.91 1103.06,-96.08 1092.68,-93.98 1093.63,-100.91"/>
</g>
<!-- managed_coin::register -->
<g id="node7" class="node">
<title>managed_coin::register</title>
<ellipse fill="none" stroke="black" cx="1311" cy="-173" rx="37.09" ry="18"/>
<text text-anchor="middle" x="1311" y="-169.3" font-family="Times,serif" font-size="14.00">register</text>
</g>
<!-- managed_coin::register&#45;&gt;coin::register -->
<g id="edge6" class="edge">
<title>managed_coin::register&#45;&gt;coin::register</title>
<path fill="none" stroke="black" d="M1286.42,-159.21C1278.65,-155.23 1269.99,-150.87 1262,-147 1233.68,-133.28 1201.3,-118.46 1177.01,-107.51"/>
<polygon fill="black" stroke="black" points="1178.74,-104.45 1168.18,-103.54 1175.87,-110.83 1178.74,-104.45"/>
</g>
<!-- resource_account::create_resource_account_and_fund -->
<g id="node8" class="node">
<title>resource_account::create_resource_account_and_fund</title>
<ellipse fill="none" stroke="black" cx="1513" cy="-173" rx="135.38" ry="18"/>
<text text-anchor="middle" x="1513" y="-169.3" font-family="Times,serif" font-size="14.00">create_resource_account_and_fund</text>
</g>
<!-- resource_account::create_resource_account_and_fund&#45;&gt;coin::register -->
<g id="edge7" class="edge">
<title>resource_account::create_resource_account_and_fund&#45;&gt;coin::register</title>
<path fill="none" stroke="black" d="M1444.59,-157.14C1368.8,-140.68 1248.81,-114.63 1184.38,-100.64"/>
<polygon fill="black" stroke="black" points="1185.39,-97.28 1174.88,-98.57 1183.91,-104.12 1185.39,-97.28"/>
</g>
<!-- genesis::initialize_core_resources_and_aptos_coin -->
<g id="node9" class="node">
<title>genesis::initialize_core_resources_and_aptos_coin</title>
<ellipse fill="none" stroke="black" cx="632" cy="-478" rx="157.87" ry="18"/>
<text text-anchor="middle" x="632" y="-474.3" font-family="Times,serif" font-size="14.00">initialize_core_resources_and_aptos_coin</text>
</g>
<!-- genesis::initialize_core_resources_and_aptos_coin&#45;&gt;aptos_coin::configure_accounts_for_test -->
<g id="edge8" class="edge">
<title>genesis::initialize_core_resources_and_aptos_coin&#45;&gt;aptos_coin::configure_accounts_for_test</title>
<path fill="none" stroke="black" d="M785.72,-473.57C892.18,-470.21 1024.07,-463.8 1078,-452 1104.78,-446.14 1133.36,-435.17 1156.12,-425.2"/>
<polygon fill="black" stroke="black" points="1157.4,-428.46 1165.09,-421.18 1154.53,-422.08 1157.4,-428.46"/>
</g>
<!-- aptos_account::transfer -->
<g id="node10" class="node">
<title>aptos_account::transfer</title>
<ellipse fill="none" stroke="black" cx="1186" cy="-248" rx="37.89" ry="18"/>
<text text-anchor="middle" x="1186" y="-244.3" font-family="Times,serif" font-size="14.00">transfer</text>
</g>
<!-- aptos_account::transfer&#45;&gt;aptos_account::create_account -->
<g id="edge9" class="edge">
<title>aptos_account::transfer&#45;&gt;aptos_account::create_account</title>
<path fill="none" stroke="black" d="M1186,-229.7C1186,-221.67 1186,-211.9 1186,-202.8"/>
<polygon fill="black" stroke="black" points="1189.5,-202.94 1186,-192.94 1182.5,-202.94 1189.5,-202.94"/>
</g>
<!-- vesting::create_vesting_contract -->
<g id="node11" class="node">
<title>vesting::create_vesting_contract</title>
<ellipse fill="none" stroke="black" cx="924" cy="-403" rx="94.48" ry="18"/>
<text text-anchor="middle" x="924" y="-399.3" font-family="Times,serif" font-size="14.00">create_vesting_contract</text>
</g>
<!-- vesting::create_vesting_contract&#45;&gt;vesting::create_vesting_contract_account -->
<g id="edge10" class="edge">
<title>vesting::create_vesting_contract&#45;&gt;vesting::create_vesting_contract_account</title>
<path fill="none" stroke="black" d="M927.96,-384.7C929.64,-377.32 931.65,-368.52 933.54,-360.25"/>
<polygon fill="black" stroke="black" points="936.94,-361.11 935.75,-350.58 930.11,-359.55 936.94,-361.11"/>
</g>
<!-- genesis::create_accounts -->
<g id="node12" class="node">
<title>genesis::create_accounts</title>
<ellipse fill="none" stroke="black" cx="551" cy="-248" rx="66.89" ry="18"/>
<text text-anchor="middle" x="551" y="-244.3" font-family="Times,serif" font-size="14.00">create_accounts</text>
</g>
<!-- genesis::create_accounts&#45;&gt;genesis::create_account -->
<g id="edge11" class="edge">
<title>genesis::create_accounts&#45;&gt;genesis::create_account</title>
<path fill="none" stroke="black" d="M551,-229.7C551,-221.67 551,-211.9 551,-202.8"/>
<polygon fill="black" stroke="black" points="554.5,-202.94 551,-192.94 547.5,-202.94 554.5,-202.94"/>
</g>
<!-- genesis::create_initialize_validator -->
<g id="node13" class="node">
<title>genesis::create_initialize_validator</title>
<ellipse fill="none" stroke="black" cx="303" cy="-248" rx="102.88" ry="18"/>
<text text-anchor="middle" x="303" y="-244.3" font-family="Times,serif" font-size="14.00">create_initialize_validator</text>
</g>
<!-- genesis::create_initialize_validator&#45;&gt;genesis::create_account -->
<g id="edge12" class="edge">
<title>genesis::create_initialize_validator&#45;&gt;genesis::create_account</title>
<path fill="none" stroke="black" d="M354.09,-231.96C395.74,-219.7 454.41,-202.43 496.87,-189.93"/>
<polygon fill="black" stroke="black" points="497.78,-193.31 506.39,-187.13 495.8,-186.6 497.78,-193.31"/>
</g>
<!-- genesis::create_employee_validators -->
<g id="node14" class="node">
<title>genesis::create_employee_validators</title>
<ellipse fill="none" stroke="black" cx="346" cy="-478" rx="109.68" ry="18"/>
<text text-anchor="middle" x="346" y="-474.3" font-family="Times,serif" font-size="14.00">create_employee_validators</text>
</g>
<!-- genesis::create_employee_validators&#45;&gt;vesting::create_vesting_contract -->
<g id="edge13" class="edge">
<title>genesis::create_employee_validators&#45;&gt;vesting::create_vesting_contract</title>
<path fill="none" stroke="black" d="M422.35,-464.73C436.49,-462.85 451.17,-461.15 465,-460 539.65,-453.8 728.57,-466.83 802,-452 829.35,-446.48 858.48,-435.24 881.42,-425.02"/>
<polygon fill="black" stroke="black" points="882.8,-428.24 890.44,-420.9 879.89,-421.87 882.8,-428.24"/>
</g>
<!-- genesis::create_initialize_validators_with_commission -->
<g id="node15" class="node">
<title>genesis::create_initialize_validators_with_commission</title>
<ellipse fill="none" stroke="black" cx="273" cy="-331" rx="173.57" ry="18"/>
<text text-anchor="middle" x="273" y="-327.3" font-family="Times,serif" font-size="14.00">create_initialize_validators_with_commission</text>
</g>
<!-- genesis::create_initialize_validators_with_commission&#45;&gt;genesis::create_initialize_validator -->
<g id="edge14" class="edge">
<title>genesis::create_initialize_validators_with_commission&#45;&gt;genesis::create_initialize_validator</title>
<path fill="none" stroke="black" d="M279.36,-312.82C283.19,-302.48 288.17,-289.05 292.56,-277.18"/>
<polygon fill="black" stroke="black" points="295.83,-278.44 296.02,-267.85 289.26,-276.01 295.83,-278.44"/>
</g>
<!-- genesis::create_initialize_validators -->
<g id="node16" class="node">
<title>genesis::create_initialize_validators</title>
<ellipse fill="none" stroke="black" cx="242" cy="-403" rx="105.88" ry="18"/>
<text text-anchor="middle" x="242" y="-399.3" font-family="Times,serif" font-size="14.00">create_initialize_validators</text>
</g>
<!-- genesis::create_initialize_validators&#45;&gt;genesis::create_initialize_validators_with_commission -->
<g id="edge15" class="edge">
<title>genesis::create_initialize_validators&#45;&gt;genesis::create_initialize_validators_with_commission</title>
<path fill="none" stroke="black" d="M249.66,-384.7C253.04,-377.07 257.09,-367.92 260.87,-359.4"/>
<polygon fill="black" stroke="black" points="263.96,-361.05 264.81,-350.49 257.56,-358.21 263.96,-361.05"/>
</g>
<!-- genesis::initialize_for_verification -->
<g id="node17" class="node">
<title>genesis::initialize_for_verification</title>
<ellipse fill="none" stroke="black" cx="117" cy="-478" rx="100.98" ry="18"/>
<text text-anchor="middle" x="117" y="-474.3" font-family="Times,serif" font-size="14.00">initialize_for_verification</text>
</g>
<!-- genesis::initialize_for_verification&#45;&gt;genesis::create_initialize_validators -->
<g id="edge16" class="edge">
<title>genesis::initialize_for_verification&#45;&gt;genesis::create_initialize_validators</title>
<path fill="none" stroke="black" d="M145.36,-460.44C162.58,-450.38 184.79,-437.41 203.57,-426.44"/>
<polygon fill="black" stroke="black" points="205.14,-429.58 212.01,-421.52 201.61,-423.54 205.14,-429.58"/>
</g>
</g>
</svg>
