<?xml version="1.0" encoding="UTF-8" standalone="no"?>
<!DOCTYPE svg PUBLIC "-//W3C//DTD SVG 1.1//EN"
 "http://www.w3.org/Graphics/SVG/1.1/DTD/svg11.dtd">
<!-- Generated by graphviz version 7.0.0 (20221023.0053)
 -->
<!-- Title: G Pages: 1 -->
<svg width="2206pt" height="853pt"
 viewBox="0.00 0.00 2206.00 853.00" xmlns="http://www.w3.org/2000/svg" xmlns:xlink="http://www.w3.org/1999/xlink">
<g id="graph0" class="graph" transform="scale(1 1) rotate(0) translate(4 849)">
<title>G</title>
<polygon fill="white" stroke="none" points="-4,4 -4,-849 2202,-849 2202,4 -4,4"/>
<g id="clust1" class="cluster">
<title>cluster_coin</title>
<polygon fill="none" stroke="black" points="1583,-302 1583,-377 1673,-377 1673,-302 1583,-302"/>
<text text-anchor="middle" x="1628" y="-361.8" font-family="Times,serif" font-size="14.00">coin</text>
</g>
<g id="clust2" class="cluster">
<title>cluster_voting</title>
<polygon fill="none" stroke="black" points="1023,-136 1023,-211 1113,-211 1113,-136 1023,-136"/>
<text text-anchor="middle" x="1068" y="-195.8" font-family="Times,serif" font-size="14.00">voting</text>
</g>
<g id="clust3" class="cluster">
<title>cluster_stake</title>
<polygon fill="none" stroke="black" points="116,-136 116,-294 485,-294 485,-136 116,-136"/>
<text text-anchor="middle" x="300.5" y="-278.8" font-family="Times,serif" font-size="14.00">stake</text>
</g>
<g id="clust4" class="cluster">
<title>cluster_reconfiguration</title>
<polygon fill="none" stroke="black" points="8,-136 8,-211 108,-211 108,-136 8,-136"/>
<text text-anchor="middle" x="58" y="-195.8" font-family="Times,serif" font-size="14.00">reconfiguration</text>
</g>
<g id="clust5" class="cluster">
<title>cluster_aptos_governance</title>
<polygon fill="none" stroke="black" points="956,-219 956,-377 1174,-377 1174,-219 956,-219"/>
<text text-anchor="middle" x="1065" y="-361.8" font-family="Times,serif" font-size="14.00">aptos_governance</text>
</g>
<g id="clust6" class="cluster">
<title>cluster_block</title>
<polygon fill="none" stroke="black" points="883,-136 883,-211 983,-211 983,-136 883,-136"/>
<text text-anchor="middle" x="933" y="-195.8" font-family="Times,serif" font-size="14.00">block</text>
</g>
<g id="clust7" class="cluster">
<title>cluster_staking_contract</title>
<polygon fill="none" stroke="black" points="116,-302 116,-543 534,-543 534,-302 116,-302"/>
<text text-anchor="middle" x="325" y="-527.8" font-family="Times,serif" font-size="14.00">staking_contract</text>
</g>
<g id="clust8" class="cluster">
<title>cluster_vesting</title>
<polygon fill="none" stroke="black" points="1340,-385 1340,-543 1608,-543 1608,-385 1340,-385"/>
<text text-anchor="middle" x="1474" y="-527.8" font-family="Times,serif" font-size="14.00">vesting</text>
</g>
<g id="clust9" class="cluster">
<title>cluster_aptos_coin</title>
<polygon fill="none" stroke="black" points="1425,-687 1425,-762 1661,-762 1661,-687 1425,-687"/>
<text text-anchor="middle" x="1543" y="-746.8" font-family="Times,serif" font-size="14.00">aptos_coin</text>
</g>
<g id="clust10" class="cluster">
<title>cluster_aptos_account</title>
<polygon fill="none" stroke="black" points="1648,-385 1648,-543 1792,-543 1792,-385 1648,-385"/>
<text text-anchor="middle" x="1720" y="-527.8" font-family="Times,serif" font-size="14.00">aptos_account</text>
</g>
<g id="clust11" class="cluster">
<title>cluster_genesis</title>
<polygon fill="none" stroke="black" points="542,-468 542,-837 1332,-837 1332,-468 542,-468"/>
<text text-anchor="middle" x="937" y="-821.8" font-family="Times,serif" font-size="14.00">genesis</text>
</g>
<g id="clust12" class="cluster">
<title>cluster_managed_coin</title>
<polygon fill="none" stroke="black" points="1800,-385 1800,-460 1896,-460 1896,-385 1800,-385"/>
<text text-anchor="middle" x="1848" y="-444.8" font-family="Times,serif" font-size="14.00">managed_coin</text>
</g>
<g id="clust13" class="cluster">
<title>cluster_resource_account</title>
<polygon fill="none" stroke="black" points="1904,-385 1904,-460 2190,-460 2190,-385 1904,-385"/>
<text text-anchor="middle" x="2047" y="-444.8" font-family="Times,serif" font-size="14.00">resource_account</text>
</g>
<!-- create_guid -->
<g id="node1" class="node">
<title>create_guid</title>
<ellipse fill="none" stroke="black" cx="968" cy="-18" rx="51.99" ry="18"/>
<text text-anchor="middle" x="968" y="-14.3" font-family="Times,serif" font-size="14.00">create_guid</text>
</g>
<!-- new_event_handle -->
<g id="node2" class="node">
<title>new_event_handle</title>
<ellipse fill="none" stroke="black" cx="968" cy="-90" rx="76.89" ry="18"/>
<text text-anchor="middle" x="968" y="-86.3" font-family="Times,serif" font-size="14.00">new_event_handle</text>
</g>
<!-- new_event_handle&#45;&gt;create_guid -->
<g id="edge1" class="edge">
<title>new_event_handle&#45;&gt;create_guid</title>
<path fill="none" stroke="black" d="M968,-71.7C968,-64.41 968,-55.73 968,-47.54"/>
<polygon fill="black" stroke="black" points="971.5,-47.62 968,-37.62 964.5,-47.62 971.5,-47.62"/>
</g>
<!-- coin::register -->
<g id="node3" class="node">
<title>coin::register</title>
<ellipse fill="none" stroke="black" cx="1628" cy="-328" rx="37.09" ry="18"/>
<text text-anchor="middle" x="1628" y="-324.3" font-family="Times,serif" font-size="14.00">register</text>
</g>
<!-- coin::register&#45;&gt;new_event_handle -->
<g id="edge2" class="edge">
<title>coin::register&#45;&gt;new_event_handle</title>
<path fill="none" stroke="black" d="M1607.43,-312.67C1554.44,-276.5 1407.81,-181.24 1271,-136 1199.94,-112.5 1115.43,-101.24 1053.74,-95.86"/>
<polygon fill="black" stroke="black" points="1054.26,-92.39 1044,-95.05 1053.68,-99.37 1054.26,-92.39"/>
</g>
<!-- voting::register -->
<g id="node4" class="node">
<title>voting::register</title>
<ellipse fill="none" stroke="black" cx="1068" cy="-162" rx="37.09" ry="18"/>
<text text-anchor="middle" x="1068" y="-158.3" font-family="Times,serif" font-size="14.00">register</text>
</g>
<!-- voting::register&#45;&gt;new_event_handle -->
<g id="edge3" class="edge">
<title>voting::register&#45;&gt;new_event_handle</title>
<path fill="none" stroke="black" d="M1047.76,-146.83C1034.34,-137.44 1016.42,-124.89 1000.96,-114.08"/>
<polygon fill="black" stroke="black" points="1003.16,-111.34 992.96,-108.47 999.15,-117.08 1003.16,-111.34"/>
</g>
<!-- stake::initialize_owner -->
<g id="node5" class="node">
<title>stake::initialize_owner</title>
<ellipse fill="none" stroke="black" cx="387" cy="-162" rx="67.69" ry="18"/>
<text text-anchor="middle" x="387" y="-158.3" font-family="Times,serif" font-size="14.00">initialize_owner</text>
</g>
<!-- stake::initialize_owner&#45;&gt;new_event_handle -->
<g id="edge4" class="edge">
<title>stake::initialize_owner&#45;&gt;new_event_handle</title>
<path fill="none" stroke="black" d="M447.81,-153.67C553.83,-140.9 772.4,-114.57 889.64,-100.44"/>
<polygon fill="black" stroke="black" points="889.99,-103.92 899.5,-99.25 889.15,-96.97 889.99,-103.92"/>
</g>
<!-- reconfiguration::initialize -->
<g id="node6" class="node">
<title>reconfiguration::initialize</title>
<ellipse fill="none" stroke="black" cx="58" cy="-162" rx="41.69" ry="18"/>
<text text-anchor="middle" x="58" y="-158.3" font-family="Times,serif" font-size="14.00">initialize</text>
</g>
<!-- reconfiguration::initialize&#45;&gt;new_event_handle -->
<g id="edge5" class="edge">
<title>reconfiguration::initialize&#45;&gt;new_event_handle</title>
<path fill="none" stroke="black" d="M82.82,-147.1C91.75,-142.76 102.07,-138.46 112,-136 255.34,-100.46 690.92,-92.98 879.46,-91.41"/>
<polygon fill="black" stroke="black" points="879.48,-94.91 889.45,-91.33 879.43,-87.91 879.48,-94.91"/>
</g>
<!-- aptos_governance::initialize -->
<g id="node7" class="node">
<title>aptos_governance::initialize</title>
<ellipse fill="none" stroke="black" cx="1065" cy="-245" rx="41.69" ry="18"/>
<text text-anchor="middle" x="1065" y="-241.3" font-family="Times,serif" font-size="14.00">initialize</text>
</g>
<!-- aptos_governance::initialize&#45;&gt;new_event_handle -->
<g id="edge6" class="edge">
<title>aptos_governance::initialize&#45;&gt;new_event_handle</title>
<path fill="none" stroke="black" d="M1040.47,-230.07C1032.84,-224.85 1024.9,-218.37 1019,-211 1018.61,-210.51 994.58,-153.81 979.65,-118.53"/>
<polygon fill="black" stroke="black" points="983.05,-117.6 975.93,-109.75 976.61,-120.32 983.05,-117.6"/>
</g>
<!-- aptos_governance::initialize&#45;&gt;voting::register -->
<g id="edge16" class="edge">
<title>aptos_governance::initialize&#45;&gt;voting::register</title>
<path fill="none" stroke="black" d="M1065.64,-226.82C1066.01,-216.69 1066.5,-203.6 1066.93,-191.92"/>
<polygon fill="black" stroke="black" points="1070.43,-192.07 1067.3,-181.95 1063.43,-191.81 1070.43,-192.07"/>
</g>
<!-- block::initialize -->
<g id="node8" class="node">
<title>block::initialize</title>
<ellipse fill="none" stroke="black" cx="933" cy="-162" rx="41.69" ry="18"/>
<text text-anchor="middle" x="933" y="-158.3" font-family="Times,serif" font-size="14.00">initialize</text>
</g>
<!-- block::initialize&#45;&gt;new_event_handle -->
<g id="edge7" class="edge">
<title>block::initialize&#45;&gt;new_event_handle</title>
<path fill="none" stroke="black" d="M941.47,-144.05C945.33,-136.35 949.99,-127.03 954.32,-118.36"/>
<polygon fill="black" stroke="black" points="957.34,-120.14 958.69,-109.63 951.08,-117.01 957.34,-120.14"/>
</g>
<!-- staking_contract::new_staking_contracts_holder -->
<g id="node9" class="node">
<title>staking_contract::new_staking_contracts_holder</title>
<ellipse fill="none" stroke="black" cx="408" cy="-328" rx="118.08" ry="18"/>
<text text-anchor="middle" x="408" y="-324.3" font-family="Times,serif" font-size="14.00">new_staking_contracts_holder</text>
</g>
<!-- staking_contract::new_staking_contracts_holder&#45;&gt;new_event_handle -->
<g id="edge8" class="edge">
<title>staking_contract::new_staking_contracts_holder&#45;&gt;new_event_handle</title>
<path fill="none" stroke="black" d="M448.42,-310.66C461.4,-305.38 475.82,-299.48 489,-294 648.37,-227.77 836.69,-147.32 921.95,-110.77"/>
<polygon fill="black" stroke="black" points="923.12,-114.08 930.93,-106.92 920.36,-107.64 923.12,-114.08"/>
</g>
<!-- vesting::create_vesting_contract -->
<g id="node10" class="node">
<title>vesting::create_vesting_contract</title>
<ellipse fill="none" stroke="black" cx="1442" cy="-494" rx="94.48" ry="18"/>
<text text-anchor="middle" x="1442" y="-490.3" font-family="Times,serif" font-size="14.00">create_vesting_contract</text>
</g>
<!-- vesting::create_vesting_contract&#45;&gt;new_event_handle -->
<g id="edge9" class="edge">
<title>vesting::create_vesting_contract&#45;&gt;new_event_handle</title>
<path fill="none" stroke="black" d="M1378.36,-480.27C1364.46,-475.48 1350.49,-468.93 1339,-460 1284.77,-417.84 1257,-397.69 1257,-329 1257,-329 1257,-329 1257,-244 1257,-149.6 1135.07,-113.28 1049.6,-99.42"/>
<polygon fill="black" stroke="black" points="1050.24,-95.98 1039.82,-97.92 1049.18,-102.9 1050.24,-95.98"/>
</g>
<!-- vesting::create_vesting_contract_account -->
<g id="node13" class="node">
<title>vesting::create_vesting_contract_account</title>
<ellipse fill="none" stroke="black" cx="1474" cy="-411" rx="126.18" ry="18"/>
<text text-anchor="middle" x="1474" y="-407.3" font-family="Times,serif" font-size="14.00">create_vesting_contract_account</text>
</g>
<!-- vesting::create_vesting_contract&#45;&gt;vesting::create_vesting_contract_account -->
<g id="edge26" class="edge">
<title>vesting::create_vesting_contract&#45;&gt;vesting::create_vesting_contract_account</title>
<path fill="none" stroke="black" d="M1448.79,-475.82C1452.92,-465.37 1458.29,-451.77 1463.01,-439.81"/>
<polygon fill="black" stroke="black" points="1466.14,-441.43 1466.56,-430.84 1459.63,-438.85 1466.14,-441.43"/>
</g>
<!-- staking_contract::create_staking_contract_with_coins -->
<g id="node21" class="node">
<title>staking_contract::create_staking_contract_with_coins</title>
<ellipse fill="none" stroke="black" cx="389" cy="-411" rx="137.28" ry="18"/>
<text text-anchor="middle" x="389" y="-407.3" font-family="Times,serif" font-size="14.00">create_staking_contract_with_coins</text>
</g>
<!-- vesting::create_vesting_contract&#45;&gt;staking_contract::create_staking_contract_with_coins -->
<g id="edge34" class="edge">
<title>vesting::create_vesting_contract&#45;&gt;staking_contract::create_staking_contract_with_coins</title>
<path fill="none" stroke="black" d="M1389.24,-478.66C1372.35,-474.59 1353.49,-470.56 1336,-468 1296.65,-462.24 777.56,-433.29 525.07,-419.43"/>
<polygon fill="black" stroke="black" points="525.31,-415.93 515.13,-418.88 524.93,-422.92 525.31,-415.93"/>
</g>
<!-- aptos_coin::configure_accounts_for_test -->
<g id="node11" class="node">
<title>aptos_coin::configure_accounts_for_test</title>
<ellipse fill="none" stroke="black" cx="1543" cy="-713" rx="110.48" ry="18"/>
<text text-anchor="middle" x="1543" y="-709.3" font-family="Times,serif" font-size="14.00">configure_accounts_for_test</text>
</g>
<!-- aptos_coin::configure_accounts_for_test&#45;&gt;coin::register -->
<g id="edge10" class="edge">
<title>aptos_coin::configure_accounts_for_test&#45;&gt;coin::register</title>
<path fill="none" stroke="black" d="M1561.44,-695.15C1586.44,-670.36 1628,-621.43 1628,-570 1628,-570 1628,-570 1628,-493 1628,-445.54 1628,-390.34 1628,-357.62"/>
<polygon fill="black" stroke="black" points="1631.5,-357.75 1628,-347.75 1624.5,-357.75 1631.5,-357.75"/>
</g>
<!-- aptos_account::create_account -->
<g id="node12" class="node">
<title>aptos_account::create_account</title>
<ellipse fill="none" stroke="black" cx="1720" cy="-411" rx="63.89" ry="18"/>
<text text-anchor="middle" x="1720" y="-407.3" font-family="Times,serif" font-size="14.00">create_account</text>
</g>
<!-- aptos_account::create_account&#45;&gt;coin::register -->
<g id="edge11" class="edge">
<title>aptos_account::create_account&#45;&gt;coin::register</title>
<path fill="none" stroke="black" d="M1701.38,-393.61C1687.69,-381.55 1668.9,-365.01 1653.77,-351.69"/>
<polygon fill="black" stroke="black" points="1656.3,-349.25 1646.48,-345.27 1651.67,-354.51 1656.3,-349.25"/>
</g>
<!-- vesting::create_vesting_contract_account&#45;&gt;coin::register -->
<g id="edge12" class="edge">
<title>vesting::create_vesting_contract_account&#45;&gt;coin::register</title>
<path fill="none" stroke="black" d="M1505.91,-393.22C1531.58,-379.72 1567.56,-360.79 1593.81,-346.98"/>
<polygon fill="black" stroke="black" points="1595.15,-350.23 1602.37,-342.48 1591.89,-344.04 1595.15,-350.23"/>
</g>
<!-- genesis::create_account -->
<g id="node14" class="node">
<title>genesis::create_account</title>
<ellipse fill="none" stroke="black" cx="841" cy="-494" rx="63.89" ry="18"/>
<text text-anchor="middle" x="841" y="-490.3" font-family="Times,serif" font-size="14.00">create_account</text>
</g>
<!-- genesis::create_account&#45;&gt;coin::register -->
<g id="edge13" class="edge">
<title>genesis::create_account&#45;&gt;coin::register</title>
<path fill="none" stroke="black" d="M889.74,-481.94C978.41,-461.91 1172.07,-418.6 1336,-385 1423.05,-367.16 1525.06,-347.99 1582.55,-337.35"/>
<polygon fill="black" stroke="black" points="1583.09,-340.81 1592.29,-335.55 1581.82,-333.92 1583.09,-340.81"/>
</g>
<!-- managed_coin::register -->
<g id="node15" class="node">
<title>managed_coin::register</title>
<ellipse fill="none" stroke="black" cx="1845" cy="-411" rx="37.09" ry="18"/>
<text text-anchor="middle" x="1845" y="-407.3" font-family="Times,serif" font-size="14.00">register</text>
</g>
<!-- managed_coin::register&#45;&gt;coin::register -->
<g id="edge14" class="edge">
<title>managed_coin::register&#45;&gt;coin::register</title>
<path fill="none" stroke="black" d="M1820.91,-396.8C1813.09,-392.76 1804.28,-388.47 1796,-385 1754.04,-367.42 1704.45,-351.45 1670.08,-341.11"/>
<polygon fill="black" stroke="black" points="1671.51,-337.88 1660.93,-338.38 1669.51,-344.59 1671.51,-337.88"/>
</g>
<!-- resource_account::create_resource_account_and_fund -->
<g id="node16" class="node">
<title>resource_account::create_resource_account_and_fund</title>
<ellipse fill="none" stroke="black" cx="2047" cy="-411" rx="135.38" ry="18"/>
<text text-anchor="middle" x="2047" y="-407.3" font-family="Times,serif" font-size="14.00">create_resource_account_and_fund</text>
</g>
<!-- resource_account::create_resource_account_and_fund&#45;&gt;coin::register -->
<g id="edge15" class="edge">
<title>resource_account::create_resource_account_and_fund&#45;&gt;coin::register</title>
<path fill="none" stroke="black" d="M1972.57,-395.61C1885.63,-378.8 1744.58,-351.54 1672.9,-337.68"/>
<polygon fill="black" stroke="black" points="1673.97,-334.32 1663.49,-335.86 1672.65,-341.2 1673.97,-334.32"/>
</g>
<!-- stake::initialize_stake_owner -->
<g id="node17" class="node">
<title>stake::initialize_stake_owner</title>
<ellipse fill="none" stroke="black" cx="387" cy="-245" rx="90.18" ry="18"/>
<text text-anchor="middle" x="387" y="-241.3" font-family="Times,serif" font-size="14.00">initialize_stake_owner</text>
</g>
<!-- stake::initialize_stake_owner&#45;&gt;stake::initialize_owner -->
<g id="edge17" class="edge">
<title>stake::initialize_stake_owner&#45;&gt;stake::initialize_owner</title>
<path fill="none" stroke="black" d="M387,-226.82C387,-216.69 387,-203.6 387,-191.92"/>
<polygon fill="black" stroke="black" points="390.5,-191.95 387,-181.95 383.5,-191.95 390.5,-191.95"/>
</g>
<!-- stake::initialize_validator -->
<g id="node18" class="node">
<title>stake::initialize_validator</title>
<ellipse fill="none" stroke="black" cx="201" cy="-245" rx="77.19" ry="18"/>
<text text-anchor="middle" x="201" y="-241.3" font-family="Times,serif" font-size="14.00">initialize_validator</text>
</g>
<!-- stake::initialize_validator&#45;&gt;stake::initialize_owner -->
<g id="edge18" class="edge">
<title>stake::initialize_validator&#45;&gt;stake::initialize_owner</title>
<path fill="none" stroke="black" d="M236.42,-228.57C266.44,-215.5 309.66,-196.68 342.1,-182.55"/>
<polygon fill="black" stroke="black" points="343.49,-185.76 351.26,-178.56 340.7,-179.35 343.49,-185.76"/>
</g>
<!-- genesis::initialize -->
<g id="node19" class="node">
<title>genesis::initialize</title>
<ellipse fill="none" stroke="black" cx="592" cy="-713" rx="41.69" ry="18"/>
<text text-anchor="middle" x="592" y="-709.3" font-family="Times,serif" font-size="14.00">initialize</text>
</g>
<!-- genesis::initialize&#45;&gt;reconfiguration::initialize -->
<g id="edge19" class="edge">
<title>genesis::initialize&#45;&gt;reconfiguration::initialize</title>
<path fill="none" stroke="black" d="M550.54,-709.9C425.08,-702.41 58,-671.81 58,-570 58,-570 58,-570 58,-327 58,-279.54 58,-224.34 58,-191.62"/>
<polygon fill="black" stroke="black" points="61.5,-191.75 58,-181.75 54.5,-191.75 61.5,-191.75"/>
</g>
<!-- genesis::initialize&#45;&gt;block::initialize -->
<g id="edge21" class="edge">
<title>genesis::initialize&#45;&gt;block::initialize</title>
<path fill="none" stroke="black" d="M616.2,-697.97C624.46,-693.78 633.9,-689.61 643,-687 700.76,-670.41 866.25,-697.97 912,-659 943.19,-632.43 936,-610.97 936,-570 936,-570 936,-570 936,-327 936,-279.53 934.73,-224.34 933.84,-191.61"/>
<polygon fill="black" stroke="black" points="937.34,-191.65 933.56,-181.75 930.35,-191.84 937.34,-191.65"/>
</g>
<!-- aptos_governance::initialize_for_verification -->
<g id="node20" class="node">
<title>aptos_governance::initialize_for_verification</title>
<ellipse fill="none" stroke="black" cx="1065" cy="-328" rx="100.98" ry="18"/>
<text text-anchor="middle" x="1065" y="-324.3" font-family="Times,serif" font-size="14.00">initialize_for_verification</text>
</g>
<!-- aptos_governance::initialize_for_verification&#45;&gt;aptos_governance::initialize -->
<g id="edge20" class="edge">
<title>aptos_governance::initialize_for_verification&#45;&gt;aptos_governance::initialize</title>
<path fill="none" stroke="black" d="M1065,-309.82C1065,-299.69 1065,-286.6 1065,-274.92"/>
<polygon fill="black" stroke="black" points="1068.5,-274.95 1065,-264.95 1061.5,-274.95 1068.5,-274.95"/>
</g>
<!-- staking_contract::create_staking_contract_with_coins&#45;&gt;staking_contract::new_staking_contracts_holder -->
<g id="edge22" class="edge">
<title>staking_contract::create_staking_contract_with_coins&#45;&gt;staking_contract::new_staking_contracts_holder</title>
<path fill="none" stroke="black" d="M393.03,-392.82C395.43,-382.58 398.54,-369.33 401.3,-357.55"/>
<polygon fill="black" stroke="black" points="404.69,-358.44 403.57,-347.91 397.87,-356.84 404.69,-358.44"/>
</g>
<!-- staking_contract::create_stake_pool -->
<g id="node27" class="node">
<title>staking_contract::create_stake_pool</title>
<ellipse fill="none" stroke="black" cx="198" cy="-328" rx="74.19" ry="18"/>
<text text-anchor="middle" x="198" y="-324.3" font-family="Times,serif" font-size="14.00">create_stake_pool</text>
</g>
<!-- staking_contract::create_staking_contract_with_coins&#45;&gt;staking_contract::create_stake_pool -->
<g id="edge36" class="edge">
<title>staking_contract::create_staking_contract_with_coins&#45;&gt;staking_contract::create_stake_pool</title>
<path fill="none" stroke="black" d="M329.27,-394.4C313.32,-389.52 296.28,-383.65 281,-377 264.38,-369.77 246.89,-360.01 232.27,-351.17"/>
<polygon fill="black" stroke="black" points="234.29,-348.31 223.94,-346.04 230.62,-354.27 234.29,-348.31"/>
</g>
<!-- genesis::create_employee_validators -->
<g id="node22" class="node">
<title>genesis::create_employee_validators</title>
<ellipse fill="none" stroke="black" cx="880" cy="-788" rx="109.68" ry="18"/>
<text text-anchor="middle" x="880" y="-784.3" font-family="Times,serif" font-size="14.00">create_employee_validators</text>
</g>
<!-- genesis::create_employee_validators&#45;&gt;vesting::create_vesting_contract -->
<g id="edge23" class="edge">
<title>genesis::create_employee_validators&#45;&gt;vesting::create_vesting_contract</title>
<path fill="none" stroke="black" d="M961.69,-775.64C987.37,-771.46 1012.11,-766.61 1024,-762 1184.3,-699.8 1348.84,-572.19 1413.48,-519.05"/>
<polygon fill="black" stroke="black" points="1415.64,-521.8 1421.12,-512.73 1411.18,-516.41 1415.64,-521.8"/>
</g>
<!-- genesis::initialize_core_resources_and_aptos_coin -->
<g id="node23" class="node">
<title>genesis::initialize_core_resources_and_aptos_coin</title>
<ellipse fill="none" stroke="black" cx="1166" cy="-788" rx="157.87" ry="18"/>
<text text-anchor="middle" x="1166" y="-784.3" font-family="Times,serif" font-size="14.00">initialize_core_resources_and_aptos_coin</text>
</g>
<!-- genesis::initialize_core_resources_and_aptos_coin&#45;&gt;aptos_coin::configure_accounts_for_test -->
<g id="edge24" class="edge">
<title>genesis::initialize_core_resources_and_aptos_coin&#45;&gt;aptos_coin::configure_accounts_for_test</title>
<path fill="none" stroke="black" d="M1266.01,-773.69C1289.06,-770.23 1313.43,-766.27 1336,-762 1382.39,-753.23 1434.12,-741.23 1474.27,-731.43"/>
<polygon fill="black" stroke="black" points="1474.92,-734.87 1483.8,-729.08 1473.25,-728.07 1474.92,-734.87"/>
</g>
<!-- aptos_account::transfer -->
<g id="node24" class="node">
<title>aptos_account::transfer</title>
<ellipse fill="none" stroke="black" cx="1720" cy="-494" rx="37.89" ry="18"/>
<text text-anchor="middle" x="1720" y="-490.3" font-family="Times,serif" font-size="14.00">transfer</text>
</g>
<!-- aptos_account::transfer&#45;&gt;aptos_account::create_account -->
<g id="edge25" class="edge">
<title>aptos_account::transfer&#45;&gt;aptos_account::create_account</title>
<path fill="none" stroke="black" d="M1720,-475.82C1720,-465.69 1720,-452.6 1720,-440.92"/>
<polygon fill="black" stroke="black" points="1723.5,-440.95 1720,-430.95 1716.5,-440.95 1723.5,-440.95"/>
</g>
<!-- genesis::create_accounts -->
<g id="node25" class="node">
<title>genesis::create_accounts</title>
<ellipse fill="none" stroke="black" cx="841" cy="-569" rx="66.89" ry="18"/>
<text text-anchor="middle" x="841" y="-565.3" font-family="Times,serif" font-size="14.00">create_accounts</text>
</g>
<!-- genesis::create_accounts&#45;&gt;genesis::create_account -->
<g id="edge27" class="edge">
<title>genesis::create_accounts&#45;&gt;genesis::create_account</title>
<path fill="none" stroke="black" d="M841,-550.7C841,-542.67 841,-532.9 841,-523.8"/>
<polygon fill="black" stroke="black" points="844.5,-523.94 841,-513.94 837.5,-523.94 844.5,-523.94"/>
</g>
<!-- genesis::create_initialize_validator -->
<g id="node26" class="node">
<title>genesis::create_initialize_validator</title>
<ellipse fill="none" stroke="black" cx="653" cy="-569" rx="102.88" ry="18"/>
<text text-anchor="middle" x="653" y="-565.3" font-family="Times,serif" font-size="14.00">create_initialize_validator</text>
</g>
<!-- genesis::create_initialize_validator&#45;&gt;genesis::create_account -->
<g id="edge28" class="edge">
<title>genesis::create_initialize_validator&#45;&gt;genesis::create_account</title>
<path fill="none" stroke="black" d="M693.79,-552.16C723.26,-540.72 763.12,-525.24 793.93,-513.28"/>
<polygon fill="black" stroke="black" points="794.96,-516.63 803.01,-509.75 792.42,-510.11 794.96,-516.63"/>
</g>
<!-- genesis::create_initialize_validator&#45;&gt;stake::initialize_stake_owner -->
<g id="edge30" class="edge">
<title>genesis::create_initialize_validator&#45;&gt;stake::initialize_stake_owner</title>
<path fill="none" stroke="black" d="M550.36,-566.86C397.66,-564.66 126.87,-558.58 112,-543 75.01,-504.27 75.01,-340.72 112,-302 125.45,-287.93 268.12,-298.75 287,-294 308.96,-288.47 331.84,-277.9 350.17,-268.08"/>
<polygon fill="black" stroke="black" points="351.73,-271.21 358.79,-263.31 348.34,-265.08 351.73,-271.21"/>
</g>
<!-- staking_contract::create_staking_contract -->
<g id="node29" class="node">
<title>staking_contract::create_staking_contract</title>
<ellipse fill="none" stroke="black" cx="410" cy="-494" rx="94.48" ry="18"/>
<text text-anchor="middle" x="410" y="-490.3" font-family="Times,serif" font-size="14.00">create_staking_contract</text>
</g>
<!-- genesis::create_initialize_validator&#45;&gt;staking_contract::create_staking_contract -->
<g id="edge37" class="edge">
<title>genesis::create_initialize_validator&#45;&gt;staking_contract::create_staking_contract</title>
<path fill="none" stroke="black" d="M585.39,-555.01C569.72,-551.53 553.19,-547.47 538,-543 511.25,-535.12 482.09,-524.36 458.37,-515.03"/>
<polygon fill="black" stroke="black" points="459.87,-511.86 449.28,-511.41 457.28,-518.36 459.87,-511.86"/>
</g>
<!-- staking_contract::create_stake_pool&#45;&gt;stake::initialize_stake_owner -->
<g id="edge29" class="edge">
<title>staking_contract::create_stake_pool&#45;&gt;stake::initialize_stake_owner</title>
<path fill="none" stroke="black" d="M239.07,-312.67C254.25,-307.14 271.53,-300.57 287,-294 306.41,-285.76 327.52,-275.79 345.31,-267.07"/>
<polygon fill="black" stroke="black" points="346.59,-270.34 354.01,-262.78 343.49,-264.07 346.59,-270.34"/>
</g>
<!-- genesis::initialize_for_verification -->
<g id="node28" class="node">
<title>genesis::initialize_for_verification</title>
<ellipse fill="none" stroke="black" cx="651" cy="-788" rx="100.98" ry="18"/>
<text text-anchor="middle" x="651" y="-784.3" font-family="Times,serif" font-size="14.00">initialize_for_verification</text>
</g>
<!-- genesis::initialize_for_verification&#45;&gt;genesis::initialize -->
<g id="edge31" class="edge">
<title>genesis::initialize_for_verification&#45;&gt;genesis::initialize</title>
<path fill="none" stroke="black" d="M637.02,-769.7C629.61,-760.53 620.37,-749.11 612.2,-738.99"/>
<polygon fill="black" stroke="black" points="615.03,-736.93 606.02,-731.35 609.59,-741.33 615.03,-736.93"/>
</g>
<!-- genesis::initialize_for_verification&#45;&gt;aptos_governance::initialize_for_verification -->
<g id="edge32" class="edge">
<title>genesis::initialize_for_verification&#45;&gt;aptos_governance::initialize_for_verification</title>
<path fill="none" stroke="black" d="M723.07,-775C735.69,-773.14 748.71,-771.39 761,-770 785.8,-767.2 849.97,-771.61 873,-762 947.7,-730.83 1010,-722.94 1010,-642 1010,-642 1010,-642 1010,-493 1010,-442.55 1033.69,-387.68 1049.97,-355.92"/>
<polygon fill="black" stroke="black" points="1052.89,-357.9 1054.46,-347.42 1046.7,-354.63 1052.89,-357.9"/>
</g>
<!-- genesis::create_initialize_validators -->
<g id="node31" class="node">
<title>genesis::create_initialize_validators</title>
<ellipse fill="none" stroke="black" cx="758" cy="-713" rx="105.88" ry="18"/>
<text text-anchor="middle" x="758" y="-709.3" font-family="Times,serif" font-size="14.00">create_initialize_validators</text>
</g>
<!-- genesis::initialize_for_verification&#45;&gt;genesis::create_initialize_validators -->
<g id="edge39" class="edge">
<title>genesis::initialize_for_verification&#45;&gt;genesis::create_initialize_validators</title>
<path fill="none" stroke="black" d="M675.82,-770.07C690.13,-760.3 708.34,-747.88 723.97,-737.22"/>
<polygon fill="black" stroke="black" points="725.78,-740.22 732.07,-731.69 721.83,-734.44 725.78,-740.22"/>
</g>
<!-- staking_contract::create_staking_contract&#45;&gt;staking_contract::create_staking_contract_with_coins -->
<g id="edge33" class="edge">
<title>staking_contract::create_staking_contract&#45;&gt;staking_contract::create_staking_contract_with_coins</title>
<path fill="none" stroke="black" d="M405.55,-475.82C402.89,-465.58 399.45,-452.33 396.4,-440.55"/>
<polygon fill="black" stroke="black" points="399.8,-439.7 393.9,-430.9 393.02,-441.46 399.8,-439.7"/>
</g>
<!-- genesis::create_initialize_validators_with_commission -->
<g id="node30" class="node">
<title>genesis::create_initialize_validators_with_commission</title>
<ellipse fill="none" stroke="black" cx="729" cy="-641" rx="173.57" ry="18"/>
<text text-anchor="middle" x="729" y="-637.3" font-family="Times,serif" font-size="14.00">create_initialize_validators_with_commission</text>
</g>
<!-- genesis::create_initialize_validators_with_commission&#45;&gt;genesis::create_initialize_validator -->
<g id="edge35" class="edge">
<title>genesis::create_initialize_validators_with_commission&#45;&gt;genesis::create_initialize_validator</title>
<path fill="none" stroke="black" d="M710.21,-622.7C701.1,-614.3 689.99,-604.07 679.99,-594.86"/>
<polygon fill="black" stroke="black" points="682.41,-592.33 672.68,-588.13 677.67,-597.48 682.41,-592.33"/>
</g>
<!-- genesis::create_initialize_validators&#45;&gt;genesis::create_initialize_validators_with_commission -->
<g id="edge38" class="edge">
<title>genesis::create_initialize_validators&#45;&gt;genesis::create_initialize_validators_with_commission</title>
<path fill="none" stroke="black" d="M750.83,-694.7C747.71,-687.15 743.96,-678.12 740.47,-669.68"/>
<polygon fill="black" stroke="black" points="743.73,-668.4 736.67,-660.5 737.26,-671.08 743.73,-668.4"/>
</g>
</g>
</svg>
