<?xml version="1.0" encoding="UTF-8" standalone="no"?>
<!DOCTYPE svg PUBLIC "-//W3C//DTD SVG 1.1//EN"
 "http://www.w3.org/Graphics/SVG/1.1/DTD/svg11.dtd">
<!-- Generated by graphviz version 7.0.0 (20221023.0053)
 -->
<!-- Title: G Pages: 1 -->
<svg width="1740pt" height="681pt"
 viewBox="0.00 0.00 1740.00 681.00" xmlns="http://www.w3.org/2000/svg" xmlns:xlink="http://www.w3.org/1999/xlink">
<g id="graph0" class="graph" transform="scale(1 1) rotate(0) translate(4 677)">
<title>G</title>
<polygon fill="white" stroke="none" points="-4,4 -4,-677 1736,-677 1736,4 -4,4"/>
<g id="clust1" class="cluster">
<title>cluster_genesis</title>
<polygon fill="none" stroke="black" points="8,-374 8,-665 798,-665 798,-374 8,-374"/>
<text text-anchor="middle" x="403" y="-649.8" font-family="Times,serif" font-size="14.00">genesis</text>
</g>
<g id="clust2" class="cluster">
<title>cluster_resource_account</title>
<polygon fill="none" stroke="black" points="592,-64 592,-211 1724,-211 1724,-64 592,-64"/>
<text text-anchor="middle" x="1158" y="-195.8" font-family="Times,serif" font-size="14.00">resource_account</text>
</g>
<g id="clust3" class="cluster">
<title>cluster_staking_contract</title>
<polygon fill="none" stroke="black" points="264,-136 264,-366 554,-366 554,-136 264,-136"/>
<text text-anchor="middle" x="409" y="-350.8" font-family="Times,serif" font-size="14.00">staking_contract</text>
</g>
<g id="clust4" class="cluster">
<title>cluster_vesting</title>
<polygon fill="none" stroke="black" points="562,-219 562,-366 830,-366 830,-219 562,-219"/>
<text text-anchor="middle" x="696" y="-350.8" font-family="Times,serif" font-size="14.00">vesting</text>
</g>
<!-- rotate_authentication_key_internal -->
<g id="node1" class="node">
<title>rotate_authentication_key_internal</title>
<ellipse fill="none" stroke="black" cx="650" cy="-18" rx="133.48" ry="18"/>
<text text-anchor="middle" x="650" y="-14.3" font-family="Times,serif" font-size="14.00">rotate_authentication_key_internal</text>
</g>
<!-- create_resource_account -->
<g id="node2" class="node">
<title>create_resource_account</title>
<ellipse fill="none" stroke="black" cx="487" cy="-90" rx="97.48" ry="18"/>
<text text-anchor="middle" x="487" y="-86.3" font-family="Times,serif" font-size="14.00">create_resource_account</text>
</g>
<!-- create_resource_account&#45;&gt;rotate_authentication_key_internal -->
<g id="edge1" class="edge">
<title>create_resource_account&#45;&gt;rotate_authentication_key_internal</title>
<path fill="none" stroke="black" d="M524.4,-72.94C547.07,-63.2 576.27,-50.66 600.81,-40.12"/>
<polygon fill="black" stroke="black" points="602.16,-43.35 609.97,-36.19 599.4,-36.92 602.16,-43.35"/>
</g>
<!-- genesis::initialize_core_resources_and_aptos_coin -->
<g id="node3" class="node">
<title>genesis::initialize_core_resources_and_aptos_coin</title>
<ellipse fill="none" stroke="black" cx="174" cy="-616" rx="157.87" ry="18"/>
<text text-anchor="middle" x="174" y="-612.3" font-family="Times,serif" font-size="14.00">initialize_core_resources_and_aptos_coin</text>
</g>
<!-- genesis::initialize_core_resources_and_aptos_coin&#45;&gt;rotate_authentication_key_internal -->
<g id="edge2" class="edge">
<title>genesis::initialize_core_resources_and_aptos_coin&#45;&gt;rotate_authentication_key_internal</title>
<path fill="none" stroke="black" d="M180.27,-597.78C189.33,-571.32 205,-518.92 205,-473 205,-473 205,-473 205,-161 205,-90.92 407.84,-50.74 539.63,-32.03"/>
<polygon fill="black" stroke="black" points="540.04,-35.51 549.46,-30.66 539.08,-28.58 540.04,-35.51"/>
</g>
<!-- resource_account::retrieve_resource_account_cap -->
<g id="node4" class="node">
<title>resource_account::retrieve_resource_account_cap</title>
<ellipse fill="none" stroke="black" cx="1596" cy="-162" rx="120.48" ry="18"/>
<text text-anchor="middle" x="1596" y="-158.3" font-family="Times,serif" font-size="14.00">retrieve_resource_account_cap</text>
</g>
<!-- resource_account::retrieve_resource_account_cap&#45;&gt;rotate_authentication_key_internal -->
<g id="edge3" class="edge">
<title>resource_account::retrieve_resource_account_cap&#45;&gt;rotate_authentication_key_internal</title>
<path fill="none" stroke="black" d="M1541.45,-145.58C1462.59,-123.89 1311.81,-84.72 1181,-64 1047.84,-42.91 894.23,-31.25 786.59,-25.12"/>
<polygon fill="black" stroke="black" points="787.03,-21.64 776.85,-24.57 786.64,-28.62 787.03,-21.64"/>
</g>
<!-- resource_account::rotate_account_authentication_key_and_store_capability -->
<g id="node5" class="node">
<title>resource_account::rotate_account_authentication_key_and_store_capability</title>
<ellipse fill="none" stroke="black" cx="961" cy="-90" rx="211.46" ry="18"/>
<text text-anchor="middle" x="961" y="-86.3" font-family="Times,serif" font-size="14.00">rotate_account_authentication_key_and_store_capability</text>
</g>
<!-- resource_account::rotate_account_authentication_key_and_store_capability&#45;&gt;rotate_authentication_key_internal -->
<g id="edge4" class="edge">
<title>resource_account::rotate_account_authentication_key_and_store_capability&#45;&gt;rotate_authentication_key_internal</title>
<path fill="none" stroke="black" d="M888.48,-72.68C840.25,-61.82 776.97,-47.58 727.71,-36.49"/>
<polygon fill="black" stroke="black" points="728.79,-33.15 718.27,-34.37 727.25,-39.98 728.79,-33.15"/>
</g>
<!-- staking_contract::create_stake_pool -->
<g id="node6" class="node">
<title>staking_contract::create_stake_pool</title>
<ellipse fill="none" stroke="black" cx="439" cy="-162" rx="74.19" ry="18"/>
<text text-anchor="middle" x="439" y="-158.3" font-family="Times,serif" font-size="14.00">create_stake_pool</text>
</g>
<!-- staking_contract::create_stake_pool&#45;&gt;create_resource_account -->
<g id="edge5" class="edge">
<title>staking_contract::create_stake_pool&#45;&gt;create_resource_account</title>
<path fill="none" stroke="black" d="M450.62,-144.05C456.08,-136.09 462.72,-126.41 468.82,-117.51"/>
<polygon fill="black" stroke="black" points="471.53,-119.75 474.3,-109.52 465.76,-115.79 471.53,-119.75"/>
</g>
<!-- vesting::create_vesting_contract_account -->
<g id="node7" class="node">
<title>vesting::create_vesting_contract_account</title>
<ellipse fill="none" stroke="black" cx="696" cy="-245" rx="126.18" ry="18"/>
<text text-anchor="middle" x="696" y="-241.3" font-family="Times,serif" font-size="14.00">create_vesting_contract_account</text>
</g>
<!-- vesting::create_vesting_contract_account&#45;&gt;create_resource_account -->
<g id="edge6" class="edge">
<title>vesting::create_vesting_contract_account&#45;&gt;create_resource_account</title>
<path fill="none" stroke="black" d="M619.91,-230.27C608.25,-225.6 597.09,-219.36 588,-211 561.57,-186.7 580.94,-163.62 558,-136 550.66,-127.16 541.11,-119.5 531.42,-113.13"/>
<polygon fill="black" stroke="black" points="533.39,-110.24 523.04,-107.99 529.73,-116.2 533.39,-110.24"/>
</g>
<!-- resource_account::create_resource_account -->
<g id="node8" class="node">
<title>resource_account::create_resource_account</title>
<ellipse fill="none" stroke="black" cx="1360" cy="-162" rx="97.48" ry="18"/>
<text text-anchor="middle" x="1360" y="-158.3" font-family="Times,serif" font-size="14.00">create_resource_account</text>
</g>
<!-- resource_account::create_resource_account&#45;&gt;create_resource_account -->
<g id="edge7" class="edge">
<title>resource_account::create_resource_account&#45;&gt;create_resource_account</title>
<path fill="none" stroke="black" d="M1306.76,-146.49C1289.71,-142.4 1270.67,-138.41 1253,-136 959.91,-95.95 882.21,-138.83 588,-108 580.57,-107.22 572.87,-106.24 565.17,-105.15"/>
<polygon fill="black" stroke="black" points="565.84,-101.71 555.43,-103.69 564.81,-108.63 565.84,-101.71"/>
</g>
<!-- resource_account::create_resource_account&#45;&gt;resource_account::rotate_account_authentication_key_and_store_capability -->
<g id="edge10" class="edge">
<title>resource_account::create_resource_account&#45;&gt;resource_account::rotate_account_authentication_key_and_store_capability</title>
<path fill="none" stroke="black" d="M1303.53,-146.95C1287.28,-143.14 1269.48,-139.19 1253,-136 1196.82,-125.12 1134.15,-115.18 1081.31,-107.42"/>
<polygon fill="black" stroke="black" points="1082.09,-104 1071.69,-106.02 1081.08,-110.93 1082.09,-104"/>
</g>
<!-- resource_account::create_resource_account_and_fund -->
<g id="node9" class="node">
<title>resource_account::create_resource_account_and_fund</title>
<ellipse fill="none" stroke="black" cx="1109" cy="-162" rx="135.38" ry="18"/>
<text text-anchor="middle" x="1109" y="-158.3" font-family="Times,serif" font-size="14.00">create_resource_account_and_fund</text>
</g>
<!-- resource_account::create_resource_account_and_fund&#45;&gt;create_resource_account -->
<g id="edge8" class="edge">
<title>resource_account::create_resource_account_and_fund&#45;&gt;create_resource_account</title>
<path fill="none" stroke="black" d="M1034.1,-146.57C1011.92,-142.68 987.54,-138.79 965,-136 798.25,-115.38 754.8,-128.19 588,-108 580.85,-107.13 573.43,-106.12 566.01,-105.02"/>
<polygon fill="black" stroke="black" points="566.7,-101.58 556.28,-103.53 565.64,-108.5 566.7,-101.58"/>
</g>
<!-- resource_account::create_resource_account_and_fund&#45;&gt;resource_account::rotate_account_authentication_key_and_store_capability -->
<g id="edge11" class="edge">
<title>resource_account::create_resource_account_and_fund&#45;&gt;resource_account::rotate_account_authentication_key_and_store_capability</title>
<path fill="none" stroke="black" d="M1073.55,-144.23C1053.71,-134.85 1028.73,-123.04 1007.36,-112.93"/>
<polygon fill="black" stroke="black" points="1009.09,-109.88 998.56,-108.76 1006.1,-116.2 1009.09,-109.88"/>
</g>
<!-- resource_account::create_resource_account_and_publish_package -->
<g id="node10" class="node">
<title>resource_account::create_resource_account_and_publish_package</title>
<ellipse fill="none" stroke="black" cx="778" cy="-162" rx="178.17" ry="18"/>
<text text-anchor="middle" x="778" y="-158.3" font-family="Times,serif" font-size="14.00">create_resource_account_and_publish_package</text>
</g>
<!-- resource_account::create_resource_account_and_publish_package&#45;&gt;create_resource_account -->
<g id="edge9" class="edge">
<title>resource_account::create_resource_account_and_publish_package&#45;&gt;create_resource_account</title>
<path fill="none" stroke="black" d="M711.24,-144.94C664.64,-133.73 602.61,-118.81 555.61,-107.5"/>
<polygon fill="black" stroke="black" points="556.62,-104.15 546.08,-105.21 554.98,-110.95 556.62,-104.15"/>
</g>
<!-- resource_account::create_resource_account_and_publish_package&#45;&gt;resource_account::rotate_account_authentication_key_and_store_capability -->
<g id="edge12" class="edge">
<title>resource_account::create_resource_account_and_publish_package&#45;&gt;resource_account::rotate_account_authentication_key_and_store_capability</title>
<path fill="none" stroke="black" d="M821.83,-144.23C847.13,-134.56 879.17,-122.3 906.13,-111.99"/>
<polygon fill="black" stroke="black" points="907.07,-115.38 915.16,-108.54 904.57,-108.84 907.07,-115.38"/>
</g>
<!-- staking_contract::create_staking_contract_with_coins -->
<g id="node11" class="node">
<title>staking_contract::create_staking_contract_with_coins</title>
<ellipse fill="none" stroke="black" cx="409" cy="-245" rx="137.28" ry="18"/>
<text text-anchor="middle" x="409" y="-241.3" font-family="Times,serif" font-size="14.00">create_staking_contract_with_coins</text>
</g>
<!-- staking_contract::create_staking_contract_with_coins&#45;&gt;staking_contract::create_stake_pool -->
<g id="edge13" class="edge">
<title>staking_contract::create_staking_contract_with_coins&#45;&gt;staking_contract::create_stake_pool</title>
<path fill="none" stroke="black" d="M415.36,-226.82C419.22,-216.41 424.23,-202.87 428.65,-190.94"/>
<polygon fill="black" stroke="black" points="431.93,-192.17 432.12,-181.57 425.37,-189.73 431.93,-192.17"/>
</g>
<!-- vesting::create_vesting_contract -->
<g id="node12" class="node">
<title>vesting::create_vesting_contract</title>
<ellipse fill="none" stroke="black" cx="680" cy="-317" rx="94.48" ry="18"/>
<text text-anchor="middle" x="680" y="-313.3" font-family="Times,serif" font-size="14.00">create_vesting_contract</text>
</g>
<!-- vesting::create_vesting_contract&#45;&gt;vesting::create_vesting_contract_account -->
<g id="edge14" class="edge">
<title>vesting::create_vesting_contract&#45;&gt;vesting::create_vesting_contract_account</title>
<path fill="none" stroke="black" d="M683.96,-298.7C685.64,-291.32 687.65,-282.52 689.54,-274.25"/>
<polygon fill="black" stroke="black" points="692.94,-275.11 691.75,-264.58 686.11,-273.55 692.94,-275.11"/>
</g>
<!-- vesting::create_vesting_contract&#45;&gt;staking_contract::create_staking_contract_with_coins -->
<g id="edge16" class="edge">
<title>vesting::create_vesting_contract&#45;&gt;staking_contract::create_staking_contract_with_coins</title>
<path fill="none" stroke="black" d="M625.49,-301.92C583.65,-291.11 525.54,-276.1 480.06,-264.35"/>
<polygon fill="black" stroke="black" points="481.11,-261.01 470.55,-261.9 479.35,-267.79 481.11,-261.01"/>
</g>
<!-- staking_contract::create_staking_contract -->
<g id="node13" class="node">
<title>staking_contract::create_staking_contract</title>
<ellipse fill="none" stroke="black" cx="420" cy="-317" rx="94.48" ry="18"/>
<text text-anchor="middle" x="420" y="-313.3" font-family="Times,serif" font-size="14.00">create_staking_contract</text>
</g>
<!-- staking_contract::create_staking_contract&#45;&gt;staking_contract::create_staking_contract_with_coins -->
<g id="edge15" class="edge">
<title>staking_contract::create_staking_contract&#45;&gt;staking_contract::create_staking_contract_with_coins</title>
<path fill="none" stroke="black" d="M417.28,-298.7C416.12,-291.32 414.74,-282.52 413.44,-274.25"/>
<polygon fill="black" stroke="black" points="416.93,-273.93 411.92,-264.6 410.02,-275.02 416.93,-273.93"/>
</g>
<!-- genesis::create_employee_validators -->
<g id="node14" class="node">
<title>genesis::create_employee_validators</title>
<ellipse fill="none" stroke="black" cx="680" cy="-616" rx="109.68" ry="18"/>
<text text-anchor="middle" x="680" y="-612.3" font-family="Times,serif" font-size="14.00">create_employee_validators</text>
</g>
<!-- genesis::create_employee_validators&#45;&gt;vesting::create_vesting_contract -->
<g id="edge17" class="edge">
<title>genesis::create_employee_validators&#45;&gt;vesting::create_vesting_contract</title>
<path fill="none" stroke="black" d="M680,-597.75C680,-548.64 680,-407.71 680,-346.71"/>
<polygon fill="black" stroke="black" points="683.5,-346.81 680,-336.81 676.5,-346.81 683.5,-346.81"/>
</g>
<!-- genesis::create_initialize_validator -->
<g id="node15" class="node">
<title>genesis::create_initialize_validator</title>
<ellipse fill="none" stroke="black" cx="426" cy="-400" rx="102.88" ry="18"/>
<text text-anchor="middle" x="426" y="-396.3" font-family="Times,serif" font-size="14.00">create_initialize_validator</text>
</g>
<!-- genesis::create_initialize_validator&#45;&gt;staking_contract::create_staking_contract -->
<g id="edge18" class="edge">
<title>genesis::create_initialize_validator&#45;&gt;staking_contract::create_staking_contract</title>
<path fill="none" stroke="black" d="M424.73,-381.82C423.97,-371.58 422.99,-358.33 422.11,-346.55"/>
<polygon fill="black" stroke="black" points="425.63,-346.66 421.4,-336.94 418.65,-347.17 425.63,-346.66"/>
</g>
<!-- genesis::create_initialize_validators_with_commission -->
<g id="node16" class="node">
<title>genesis::create_initialize_validators_with_commission</title>
<ellipse fill="none" stroke="black" cx="432" cy="-472" rx="173.57" ry="18"/>
<text text-anchor="middle" x="432" y="-468.3" font-family="Times,serif" font-size="14.00">create_initialize_validators_with_commission</text>
</g>
<!-- genesis::create_initialize_validators_with_commission&#45;&gt;genesis::create_initialize_validator -->
<g id="edge19" class="edge">
<title>genesis::create_initialize_validators_with_commission&#45;&gt;genesis::create_initialize_validator</title>
<path fill="none" stroke="black" d="M430.52,-453.7C429.89,-446.41 429.15,-437.73 428.45,-429.54"/>
<polygon fill="black" stroke="black" points="431.94,-429.28 427.6,-419.61 424.96,-429.87 431.94,-429.28"/>
</g>
<!-- genesis::create_initialize_validators -->
<g id="node17" class="node">
<title>genesis::create_initialize_validators</title>
<ellipse fill="none" stroke="black" cx="438" cy="-544" rx="105.88" ry="18"/>
<text text-anchor="middle" x="438" y="-540.3" font-family="Times,serif" font-size="14.00">create_initialize_validators</text>
</g>
<!-- genesis::create_initialize_validators&#45;&gt;genesis::create_initialize_validators_with_commission -->
<g id="edge20" class="edge">
<title>genesis::create_initialize_validators&#45;&gt;genesis::create_initialize_validators_with_commission</title>
<path fill="none" stroke="black" d="M436.52,-525.7C435.89,-518.41 435.15,-509.73 434.45,-501.54"/>
<polygon fill="black" stroke="black" points="437.94,-501.28 433.6,-491.61 430.96,-501.87 437.94,-501.28"/>
</g>
<!-- genesis::initialize_for_verification -->
<g id="node18" class="node">
<title>genesis::initialize_for_verification</title>
<ellipse fill="none" stroke="black" cx="451" cy="-616" rx="100.98" ry="18"/>
<text text-anchor="middle" x="451" y="-612.3" font-family="Times,serif" font-size="14.00">initialize_for_verification</text>
</g>
<!-- genesis::initialize_for_verification&#45;&gt;genesis::create_initialize_validators -->
<g id="edge21" class="edge">
<title>genesis::initialize_for_verification&#45;&gt;genesis::create_initialize_validators</title>
<path fill="none" stroke="black" d="M447.79,-597.7C446.42,-590.32 444.78,-581.52 443.25,-573.25"/>
<polygon fill="black" stroke="black" points="446.72,-572.79 441.45,-563.59 439.84,-574.06 446.72,-572.79"/>
</g>
</g>
</svg>
