<?xml version="1.0" encoding="UTF-8" standalone="no"?>
<!DOCTYPE svg PUBLIC "-//W3C//DTD SVG 1.1//EN"
 "http://www.w3.org/Graphics/SVG/1.1/DTD/svg11.dtd">
<!-- Generated by graphviz version 7.0.0 (20221023.0053)
 -->
<!-- Title: G Pages: 1 -->
<svg width="3537pt" height="767pt"
 viewBox="0.00 0.00 3537.00 767.00" xmlns="http://www.w3.org/2000/svg" xmlns:xlink="http://www.w3.org/1999/xlink">
<g id="graph0" class="graph" transform="scale(1 1) rotate(0) translate(4 763)">
<title>G</title>
<polygon fill="white" stroke="none" points="-4,4 -4,-763 3533,-763 3533,4 -4,4"/>
<g id="clust2" class="cluster">
<title>cluster_transaction_validation</title>
<polygon fill="none" stroke="black" points="2966,-64 2966,-211 3521,-211 3521,-64 2966,-64"/>
<text text-anchor="middle" x="3243.5" y="-195.8" font-family="Times,serif" font-size="14.00">transaction_validation</text>
</g>
<g id="clust1" class="cluster">
<title>cluster_aptos_account</title>
<polygon fill="none" stroke="black" points="1104,-219 1104,-377 1497,-377 1497,-219 1104,-219"/>
<text text-anchor="middle" x="1300.5" y="-361.8" font-family="Times,serif" font-size="14.00">aptos_account</text>
</g>
<g id="clust3" class="cluster">
<title>cluster_genesis</title>
<polygon fill="none" stroke="black" points="8,-385 8,-751 798,-751 798,-385 8,-385"/>
<text text-anchor="middle" x="403" y="-735.8" font-family="Times,serif" font-size="14.00">genesis</text>
</g>
<g id="clust4" class="cluster">
<title>cluster_staking_contract</title>
<polygon fill="none" stroke="black" points="806,-219 806,-460 1096,-460 1096,-219 806,-219"/>
<text text-anchor="middle" x="951" y="-444.8" font-family="Times,serif" font-size="14.00">staking_contract</text>
</g>
<g id="clust5" class="cluster">
<title>cluster_vesting</title>
<polygon fill="none" stroke="black" points="1505,-302 1505,-460 1856,-460 1856,-302 1505,-302"/>
<text text-anchor="middle" x="1680.5" y="-444.8" font-family="Times,serif" font-size="14.00">vesting</text>
</g>
<g id="clust6" class="cluster">
<title>cluster_resource_account</title>
<polygon fill="none" stroke="black" points="1827,-136 1827,-294 2958,-294 2958,-136 1827,-136"/>
<text text-anchor="middle" x="2392.5" y="-278.8" font-family="Times,serif" font-size="14.00">resource_account</text>
</g>
<!-- exists_at -->
<g id="node1" class="node">
<title>exists_at</title>
<ellipse fill="none" stroke="black" cx="1660" cy="-18" rx="41.69" ry="18"/>
<text text-anchor="middle" x="1660" y="-14.3" font-family="Times,serif" font-size="14.00">exists_at</text>
</g>
<!-- create_authorized_signer -->
<g id="node2" class="node">
<title>create_authorized_signer</title>
<ellipse fill="none" stroke="black" cx="277" cy="-90" rx="98.58" ry="18"/>
<text text-anchor="middle" x="277" y="-86.3" font-family="Times,serif" font-size="14.00">create_authorized_signer</text>
</g>
<!-- create_authorized_signer&#45;&gt;exists_at -->
<g id="edge1" class="edge">
<title>create_authorized_signer&#45;&gt;exists_at</title>
<path fill="none" stroke="black" d="M332.11,-74.7C350.41,-70.52 370.97,-66.42 390,-64 631.11,-33.32 1397.96,-22.12 1606.96,-19.59"/>
<polygon fill="black" stroke="black" points="1606.73,-23.09 1616.69,-19.47 1606.65,-16.09 1606.73,-23.09"/>
</g>
<!-- create_resource_account -->
<g id="node3" class="node">
<title>create_resource_account</title>
<ellipse fill="none" stroke="black" cx="1722" cy="-162" rx="97.48" ry="18"/>
<text text-anchor="middle" x="1722" y="-158.3" font-family="Times,serif" font-size="14.00">create_resource_account</text>
</g>
<!-- create_resource_account&#45;&gt;exists_at -->
<g id="edge2" class="edge">
<title>create_resource_account&#45;&gt;exists_at</title>
<path fill="none" stroke="black" d="M1726.48,-143.79C1730.79,-123.51 1734.93,-89.35 1722,-64 1716.61,-53.42 1707.44,-44.75 1697.78,-37.94"/>
<polygon fill="black" stroke="black" points="1699.68,-35 1689.36,-32.57 1695.91,-40.9 1699.68,-35"/>
</g>
<!-- rotate_authentication_key_internal -->
<g id="node7" class="node">
<title>rotate_authentication_key_internal</title>
<ellipse fill="none" stroke="black" cx="1580" cy="-90" rx="133.48" ry="18"/>
<text text-anchor="middle" x="1580" y="-86.3" font-family="Times,serif" font-size="14.00">rotate_authentication_key_internal</text>
</g>
<!-- create_resource_account&#45;&gt;rotate_authentication_key_internal -->
<g id="edge18" class="edge">
<title>create_resource_account&#45;&gt;rotate_authentication_key_internal</title>
<path fill="none" stroke="black" d="M1689.07,-144.76C1669.86,-135.3 1645.38,-123.23 1624.48,-112.93"/>
<polygon fill="black" stroke="black" points="1626.11,-109.83 1615.6,-108.55 1623.02,-116.11 1626.11,-109.83"/>
</g>
<!-- offer_signer_capability -->
<g id="node4" class="node">
<title>offer_signer_capability</title>
<ellipse fill="none" stroke="black" cx="1862" cy="-90" rx="92.88" ry="18"/>
<text text-anchor="middle" x="1862" y="-86.3" font-family="Times,serif" font-size="14.00">offer_signer_capability</text>
</g>
<!-- offer_signer_capability&#45;&gt;exists_at -->
<g id="edge3" class="edge">
<title>offer_signer_capability&#45;&gt;exists_at</title>
<path fill="none" stroke="black" d="M1818.17,-73.81C1783.83,-61.91 1736.33,-45.45 1702.37,-33.68"/>
<polygon fill="black" stroke="black" points="1703.88,-30.5 1693.28,-30.53 1701.59,-37.12 1703.88,-30.5"/>
</g>
<!-- revoke_signer_capability -->
<g id="node5" class="node">
<title>revoke_signer_capability</title>
<ellipse fill="none" stroke="black" cx="2072" cy="-90" rx="99.38" ry="18"/>
<text text-anchor="middle" x="2072" y="-86.3" font-family="Times,serif" font-size="14.00">revoke_signer_capability</text>
</g>
<!-- revoke_signer_capability&#45;&gt;exists_at -->
<g id="edge4" class="edge">
<title>revoke_signer_capability&#45;&gt;exists_at</title>
<path fill="none" stroke="black" d="M2015.01,-74.9C1998.6,-71.09 1980.64,-67.15 1964,-64 1875.36,-47.21 1771.18,-32.96 1710.66,-25.23"/>
<polygon fill="black" stroke="black" points="1711.38,-21.79 1701.02,-24.01 1710.5,-28.74 1711.38,-21.79"/>
</g>
<!-- rotate_authentication_key -->
<g id="node6" class="node">
<title>rotate_authentication_key</title>
<ellipse fill="none" stroke="black" cx="2291" cy="-90" rx="102.08" ry="18"/>
<text text-anchor="middle" x="2291" y="-86.3" font-family="Times,serif" font-size="14.00">rotate_authentication_key</text>
</g>
<!-- rotate_authentication_key&#45;&gt;exists_at -->
<g id="edge5" class="edge">
<title>rotate_authentication_key&#45;&gt;exists_at</title>
<path fill="none" stroke="black" d="M2234.24,-74.67C2216.92,-70.71 2197.76,-66.76 2180,-64 2010.45,-37.69 1807.23,-25.68 1712.91,-21.21"/>
<polygon fill="black" stroke="black" points="1713.35,-17.73 1703.2,-20.76 1713.02,-24.72 1713.35,-17.73"/>
</g>
<!-- rotate_authentication_key_internal&#45;&gt;exists_at -->
<g id="edge6" class="edge">
<title>rotate_authentication_key_internal&#45;&gt;exists_at</title>
<path fill="none" stroke="black" d="M1599.37,-72.05C1609.66,-63.05 1622.45,-51.85 1633.64,-42.07"/>
<polygon fill="black" stroke="black" points="1635.82,-44.81 1641.04,-35.59 1631.21,-39.54 1635.82,-44.81"/>
</g>
<!-- aptos_account::transfer -->
<g id="node8" class="node">
<title>aptos_account::transfer</title>
<ellipse fill="none" stroke="black" cx="1451" cy="-328" rx="37.89" ry="18"/>
<text text-anchor="middle" x="1451" y="-324.3" font-family="Times,serif" font-size="14.00">transfer</text>
</g>
<!-- aptos_account::transfer&#45;&gt;exists_at -->
<g id="edge7" class="edge">
<title>aptos_account::transfer&#45;&gt;exists_at</title>
<path fill="none" stroke="black" d="M1443.31,-310.17C1423.79,-264.61 1377.96,-137.44 1438,-64 1459,-38.31 1548.78,-26.94 1607.54,-22.17"/>
<polygon fill="black" stroke="black" points="1607.63,-25.67 1617.33,-21.41 1607.1,-18.69 1607.63,-25.67"/>
</g>
<!-- aptos_account::assert_account_exists -->
<g id="node9" class="node">
<title>aptos_account::assert_account_exists</title>
<ellipse fill="none" stroke="black" cx="1287" cy="-245" rx="87.18" ry="18"/>
<text text-anchor="middle" x="1287" y="-241.3" font-family="Times,serif" font-size="14.00">assert_account_exists</text>
</g>
<!-- aptos_account::assert_account_exists&#45;&gt;exists_at -->
<g id="edge8" class="edge">
<title>aptos_account::assert_account_exists&#45;&gt;exists_at</title>
<path fill="none" stroke="black" d="M1292.91,-226.74C1306.42,-190.12 1343.22,-104.71 1405,-64 1437.58,-42.53 1543.21,-29.49 1607.85,-23.31"/>
<polygon fill="black" stroke="black" points="1607.89,-26.83 1617.52,-22.42 1607.24,-19.86 1607.89,-26.83"/>
</g>
<!-- transaction_validation::multi_agent_script_prologue -->
<g id="node10" class="node">
<title>transaction_validation::multi_agent_script_prologue</title>
<ellipse fill="none" stroke="black" cx="3401" cy="-162" rx="112.38" ry="18"/>
<text text-anchor="middle" x="3401" y="-158.3" font-family="Times,serif" font-size="14.00">multi_agent_script_prologue</text>
</g>
<!-- transaction_validation::multi_agent_script_prologue&#45;&gt;exists_at -->
<g id="edge9" class="edge">
<title>transaction_validation::multi_agent_script_prologue&#45;&gt;exists_at</title>
<path fill="none" stroke="black" d="M3376.62,-144.02C3341.78,-120.85 3274.87,-80.34 3211,-64 3063.61,-26.28 1968.6,-20.09 1713.16,-19.16"/>
<polygon fill="black" stroke="black" points="1713.51,-15.66 1703.5,-19.12 1713.49,-22.66 1713.51,-15.66"/>
</g>
<!-- transaction_validation::prologue_common -->
<g id="node11" class="node">
<title>transaction_validation::prologue_common</title>
<ellipse fill="none" stroke="black" cx="3124" cy="-90" rx="77.99" ry="18"/>
<text text-anchor="middle" x="3124" y="-86.3" font-family="Times,serif" font-size="14.00">prologue_common</text>
</g>
<!-- transaction_validation::multi_agent_script_prologue&#45;&gt;transaction_validation::prologue_common -->
<g id="edge24" class="edge">
<title>transaction_validation::multi_agent_script_prologue&#45;&gt;transaction_validation::prologue_common</title>
<path fill="none" stroke="black" d="M3342.59,-146.24C3296.75,-134.65 3233.06,-118.56 3186.25,-106.73"/>
<polygon fill="black" stroke="black" points="3187.36,-103.4 3176.8,-104.34 3185.64,-110.19 3187.36,-103.4"/>
</g>
<!-- transaction_validation::prologue_common&#45;&gt;exists_at -->
<g id="edge10" class="edge">
<title>transaction_validation::prologue_common&#45;&gt;exists_at</title>
<path fill="none" stroke="black" d="M3048.12,-85.37C2787.66,-72.92 1933.94,-32.1 1712.73,-21.52"/>
<polygon fill="black" stroke="black" points="1713.14,-18.04 1702.98,-21.06 1712.8,-25.03 1713.14,-18.04"/>
</g>
<!-- genesis::create_account -->
<g id="node12" class="node">
<title>genesis::create_account</title>
<ellipse fill="none" stroke="black" cx="687" cy="-411" rx="63.89" ry="18"/>
<text text-anchor="middle" x="687" y="-407.3" font-family="Times,serif" font-size="14.00">create_account</text>
</g>
<!-- genesis::create_account&#45;&gt;exists_at -->
<g id="edge11" class="edge">
<title>genesis::create_account&#45;&gt;exists_at</title>
<path fill="none" stroke="black" d="M695.94,-392.81C710.32,-363.51 737,-301.66 737,-246 737,-246 737,-246 737,-161 737,-72.32 1411.12,-31.5 1607.14,-21.51"/>
<polygon fill="black" stroke="black" points="1607.22,-25.01 1617.04,-21.01 1606.87,-18.02 1607.22,-25.01"/>
</g>
<!-- genesis::create_employee_validators -->
<g id="node13" class="node">
<title>genesis::create_employee_validators</title>
<ellipse fill="none" stroke="black" cx="346" cy="-702" rx="109.68" ry="18"/>
<text text-anchor="middle" x="346" y="-698.3" font-family="Times,serif" font-size="14.00">create_employee_validators</text>
</g>
<!-- genesis::create_employee_validators&#45;&gt;exists_at -->
<g id="edge12" class="edge">
<title>genesis::create_employee_validators&#45;&gt;exists_at</title>
<path fill="none" stroke="black" d="M358.02,-683.99C375.01,-658.23 404,-607.2 404,-559 404,-559 404,-559 404,-161 404,-37.99 1367.47,-21.53 1606.72,-19.33"/>
<polygon fill="black" stroke="black" points="1606.73,-22.83 1616.7,-19.25 1606.67,-15.84 1606.73,-22.83"/>
</g>
<!-- vesting::create_vesting_contract -->
<g id="node28" class="node">
<title>vesting::create_vesting_contract</title>
<ellipse fill="none" stroke="black" cx="1754" cy="-411" rx="94.48" ry="18"/>
<text text-anchor="middle" x="1754" y="-407.3" font-family="Times,serif" font-size="14.00">create_vesting_contract</text>
</g>
<!-- genesis::create_employee_validators&#45;&gt;vesting::create_vesting_contract -->
<g id="edge38" class="edge">
<title>genesis::create_employee_validators&#45;&gt;vesting::create_vesting_contract</title>
<path fill="none" stroke="black" d="M426.41,-689.4C495.6,-679.2 598.04,-663.59 687,-648 1116.53,-572.72 1235.05,-594.11 1650,-460 1671.45,-453.07 1694.3,-442.86 1713.11,-433.64"/>
<polygon fill="black" stroke="black" points="1714.65,-436.78 1722.03,-429.18 1711.52,-430.52 1714.65,-436.78"/>
</g>
<!-- staking_contract::create_stake_pool -->
<g id="node14" class="node">
<title>staking_contract::create_stake_pool</title>
<ellipse fill="none" stroke="black" cx="982" cy="-245" rx="74.19" ry="18"/>
<text text-anchor="middle" x="982" y="-241.3" font-family="Times,serif" font-size="14.00">create_stake_pool</text>
</g>
<!-- staking_contract::create_stake_pool&#45;&gt;create_resource_account -->
<g id="edge13" class="edge">
<title>staking_contract::create_stake_pool&#45;&gt;create_resource_account</title>
<path fill="none" stroke="black" d="M1033.45,-231.71C1054.05,-227.16 1078.05,-222.3 1100,-219 1281.17,-191.75 1494.17,-176.08 1618.04,-168.57"/>
<polygon fill="black" stroke="black" points="1618.1,-172.07 1627.87,-167.98 1617.68,-165.08 1618.1,-172.07"/>
</g>
<!-- vesting::create_vesting_contract_account -->
<g id="node15" class="node">
<title>vesting::create_vesting_contract_account</title>
<ellipse fill="none" stroke="black" cx="1722" cy="-328" rx="126.18" ry="18"/>
<text text-anchor="middle" x="1722" y="-324.3" font-family="Times,serif" font-size="14.00">create_vesting_contract_account</text>
</g>
<!-- vesting::create_vesting_contract_account&#45;&gt;create_resource_account -->
<g id="edge14" class="edge">
<title>vesting::create_vesting_contract_account&#45;&gt;create_resource_account</title>
<path fill="none" stroke="black" d="M1722,-309.76C1722,-281.63 1722,-225.6 1722,-191.49"/>
<polygon fill="black" stroke="black" points="1725.5,-191.52 1722,-181.52 1718.5,-191.52 1725.5,-191.52"/>
</g>
<!-- resource_account::create_resource_account -->
<g id="node16" class="node">
<title>resource_account::create_resource_account</title>
<ellipse fill="none" stroke="black" cx="2853" cy="-245" rx="97.48" ry="18"/>
<text text-anchor="middle" x="2853" y="-241.3" font-family="Times,serif" font-size="14.00">create_resource_account</text>
</g>
<!-- resource_account::create_resource_account&#45;&gt;create_resource_account -->
<g id="edge15" class="edge">
<title>resource_account::create_resource_account&#45;&gt;create_resource_account</title>
<path fill="none" stroke="black" d="M2800.89,-229.39C2783.57,-225.19 2764.09,-221.16 2746,-219 2695.08,-212.91 1872.97,-222.5 1823,-211 1800.6,-205.84 1777.31,-195.19 1758.75,-185.22"/>
<polygon fill="black" stroke="black" points="1760.45,-182.16 1750.01,-180.37 1757.05,-188.29 1760.45,-182.16"/>
</g>
<!-- resource_account::rotate_account_authentication_key_and_store_capability -->
<g id="node21" class="node">
<title>resource_account::rotate_account_authentication_key_and_store_capability</title>
<ellipse fill="none" stroke="black" cx="2436" cy="-162" rx="211.46" ry="18"/>
<text text-anchor="middle" x="2436" y="-158.3" font-family="Times,serif" font-size="14.00">rotate_account_authentication_key_and_store_capability</text>
</g>
<!-- resource_account::create_resource_account&#45;&gt;resource_account::rotate_account_authentication_key_and_store_capability -->
<g id="edge30" class="edge">
<title>resource_account::create_resource_account&#45;&gt;resource_account::rotate_account_authentication_key_and_store_capability</title>
<path fill="none" stroke="black" d="M2795.64,-230.03C2779.61,-226.28 2762.16,-222.34 2746,-219 2677.68,-204.86 2600.48,-190.91 2540.21,-180.47"/>
<polygon fill="black" stroke="black" points="2541.1,-177.07 2530.65,-178.81 2539.91,-183.96 2541.1,-177.07"/>
</g>
<!-- resource_account::create_resource_account_and_fund -->
<g id="node17" class="node">
<title>resource_account::create_resource_account_and_fund</title>
<ellipse fill="none" stroke="black" cx="2602" cy="-245" rx="135.38" ry="18"/>
<text text-anchor="middle" x="2602" y="-241.3" font-family="Times,serif" font-size="14.00">create_resource_account_and_fund</text>
</g>
<!-- resource_account::create_resource_account_and_fund&#45;&gt;create_resource_account -->
<g id="edge16" class="edge">
<title>resource_account::create_resource_account_and_fund&#45;&gt;create_resource_account</title>
<path fill="none" stroke="black" d="M2530.52,-229.28C2507.47,-225.15 2481.75,-221.2 2458,-219 2387.74,-212.5 1891.73,-226.96 1823,-211 1800.61,-205.8 1777.32,-195.14 1758.76,-185.18"/>
<polygon fill="black" stroke="black" points="1760.46,-182.13 1750.01,-180.34 1757.07,-188.25 1760.46,-182.13"/>
</g>
<!-- resource_account::create_resource_account_and_fund&#45;&gt;resource_account::rotate_account_authentication_key_and_store_capability -->
<g id="edge31" class="edge">
<title>resource_account::create_resource_account_and_fund&#45;&gt;resource_account::rotate_account_authentication_key_and_store_capability</title>
<path fill="none" stroke="black" d="M2567.6,-227.22C2542.59,-215.01 2508.49,-198.37 2481.27,-185.09"/>
<polygon fill="black" stroke="black" points="2483.09,-182.08 2472.57,-180.84 2480.02,-188.37 2483.09,-182.08"/>
</g>
<!-- resource_account::create_resource_account_and_publish_package -->
<g id="node18" class="node">
<title>resource_account::create_resource_account_and_publish_package</title>
<ellipse fill="none" stroke="black" cx="2271" cy="-245" rx="178.17" ry="18"/>
<text text-anchor="middle" x="2271" y="-241.3" font-family="Times,serif" font-size="14.00">create_resource_account_and_publish_package</text>
</g>
<!-- resource_account::create_resource_account_and_publish_package&#45;&gt;create_resource_account -->
<g id="edge17" class="edge">
<title>resource_account::create_resource_account_and_publish_package&#45;&gt;create_resource_account</title>
<path fill="none" stroke="black" d="M2176.07,-229.4C2146.63,-225.38 2114.03,-221.46 2084,-219 2026.17,-214.26 1879.4,-224.63 1823,-211 1800.81,-205.64 1777.7,-195.08 1759.19,-185.22"/>
<polygon fill="black" stroke="black" points="1760.92,-182.18 1750.47,-180.43 1757.55,-188.31 1760.92,-182.18"/>
</g>
<!-- resource_account::create_resource_account_and_publish_package&#45;&gt;resource_account::rotate_account_authentication_key_and_store_capability -->
<g id="edge32" class="edge">
<title>resource_account::create_resource_account_and_publish_package&#45;&gt;resource_account::rotate_account_authentication_key_and_store_capability</title>
<path fill="none" stroke="black" d="M2305.59,-227.02C2330.28,-214.9 2363.74,-198.47 2390.58,-185.3"/>
<polygon fill="black" stroke="black" points="2392.09,-188.45 2399.53,-180.9 2389.01,-182.17 2392.09,-188.45"/>
</g>
<!-- genesis::initialize_core_resources_and_aptos_coin -->
<g id="node19" class="node">
<title>genesis::initialize_core_resources_and_aptos_coin</title>
<ellipse fill="none" stroke="black" cx="632" cy="-702" rx="157.87" ry="18"/>
<text text-anchor="middle" x="632" y="-698.3" font-family="Times,serif" font-size="14.00">initialize_core_resources_and_aptos_coin</text>
</g>
<!-- genesis::initialize_core_resources_and_aptos_coin&#45;&gt;rotate_authentication_key_internal -->
<g id="edge19" class="edge">
<title>genesis::initialize_core_resources_and_aptos_coin&#45;&gt;rotate_authentication_key_internal</title>
<path fill="none" stroke="black" d="M788.29,-699.12C1122.41,-693.03 1876,-667.28 1876,-559 1876,-559 1876,-559 1876,-410 1876,-361.48 1893.16,-337.42 1860,-302 1848.5,-289.72 1839.22,-298.47 1823,-294 1711.77,-263.31 1644.3,-304.73 1577,-211 1557.94,-184.46 1563.36,-145.41 1570.41,-119.14"/>
<polygon fill="black" stroke="black" points="1573.68,-120.43 1573.15,-109.84 1566.97,-118.45 1573.68,-120.43"/>
</g>
<!-- resource_account::retrieve_resource_account_cap -->
<g id="node20" class="node">
<title>resource_account::retrieve_resource_account_cap</title>
<ellipse fill="none" stroke="black" cx="1955" cy="-245" rx="120.48" ry="18"/>
<text text-anchor="middle" x="1955" y="-241.3" font-family="Times,serif" font-size="14.00">retrieve_resource_account_cap</text>
</g>
<!-- resource_account::retrieve_resource_account_cap&#45;&gt;rotate_authentication_key_internal -->
<g id="edge20" class="edge">
<title>resource_account::retrieve_resource_account_cap&#45;&gt;rotate_authentication_key_internal</title>
<path fill="none" stroke="black" d="M1880.48,-230.44C1854.18,-226.12 1824.36,-221.76 1797,-219 1776.97,-216.98 1631.88,-223.37 1616,-211 1588.5,-189.58 1581.32,-147.94 1579.8,-119.8"/>
<polygon fill="black" stroke="black" points="1583.3,-119.7 1579.49,-109.81 1576.3,-119.92 1583.3,-119.7"/>
</g>
<!-- resource_account::rotate_account_authentication_key_and_store_capability&#45;&gt;rotate_authentication_key_internal -->
<g id="edge21" class="edge">
<title>resource_account::rotate_account_authentication_key_and_store_capability&#45;&gt;rotate_authentication_key_internal</title>
<path fill="none" stroke="black" d="M2280.21,-149.49C2143.16,-139.2 1938.27,-123.41 1760,-108 1739.59,-106.24 1717.88,-104.27 1696.87,-102.31"/>
<polygon fill="black" stroke="black" points="1697.41,-98.85 1687.13,-101.4 1696.76,-105.82 1697.41,-98.85"/>
</g>
<!-- aptos_account::assert_account_is_registered_for_apt -->
<g id="node22" class="node">
<title>aptos_account::assert_account_is_registered_for_apt</title>
<ellipse fill="none" stroke="black" cx="1254" cy="-328" rx="141.88" ry="18"/>
<text text-anchor="middle" x="1254" y="-324.3" font-family="Times,serif" font-size="14.00">assert_account_is_registered_for_apt</text>
</g>
<!-- aptos_account::assert_account_is_registered_for_apt&#45;&gt;aptos_account::assert_account_exists -->
<g id="edge22" class="edge">
<title>aptos_account::assert_account_is_registered_for_apt&#45;&gt;aptos_account::assert_account_exists</title>
<path fill="none" stroke="black" d="M1261,-309.82C1265.26,-299.37 1270.8,-285.77 1275.67,-273.81"/>
<polygon fill="black" stroke="black" points="1278.8,-275.42 1279.33,-264.83 1272.31,-272.77 1278.8,-275.42"/>
</g>
<!-- transaction_validation::module_prologue -->
<g id="node23" class="node">
<title>transaction_validation::module_prologue</title>
<ellipse fill="none" stroke="black" cx="3197" cy="-162" rx="73.39" ry="18"/>
<text text-anchor="middle" x="3197" y="-158.3" font-family="Times,serif" font-size="14.00">module_prologue</text>
</g>
<!-- transaction_validation::module_prologue&#45;&gt;transaction_validation::prologue_common -->
<g id="edge23" class="edge">
<title>transaction_validation::module_prologue&#45;&gt;transaction_validation::prologue_common</title>
<path fill="none" stroke="black" d="M3179.33,-144.05C3170.45,-135.54 3159.53,-125.07 3149.74,-115.68"/>
<polygon fill="black" stroke="black" points="3152.24,-113.23 3142.6,-108.84 3147.4,-118.28 3152.24,-113.23"/>
</g>
<!-- transaction_validation::script_prologue -->
<g id="node24" class="node">
<title>transaction_validation::script_prologue</title>
<ellipse fill="none" stroke="black" cx="3040" cy="-162" rx="65.79" ry="18"/>
<text text-anchor="middle" x="3040" y="-158.3" font-family="Times,serif" font-size="14.00">script_prologue</text>
</g>
<!-- transaction_validation::script_prologue&#45;&gt;transaction_validation::prologue_common -->
<g id="edge25" class="edge">
<title>transaction_validation::script_prologue&#45;&gt;transaction_validation::prologue_common</title>
<path fill="none" stroke="black" d="M3059.91,-144.41C3070.5,-135.58 3083.71,-124.57 3095.39,-114.84"/>
<polygon fill="black" stroke="black" points="3097.34,-117.77 3102.78,-108.68 3092.86,-112.39 3097.34,-117.77"/>
</g>
<!-- genesis::create_accounts -->
<g id="node25" class="node">
<title>genesis::create_accounts</title>
<ellipse fill="none" stroke="black" cx="499" cy="-486" rx="66.89" ry="18"/>
<text text-anchor="middle" x="499" y="-482.3" font-family="Times,serif" font-size="14.00">create_accounts</text>
</g>
<!-- genesis::create_accounts&#45;&gt;genesis::create_account -->
<g id="edge26" class="edge">
<title>genesis::create_accounts&#45;&gt;genesis::create_account</title>
<path fill="none" stroke="black" d="M536.14,-470.58C565.95,-459 607.97,-442.69 640.09,-430.21"/>
<polygon fill="black" stroke="black" points="641.11,-433.57 649.16,-426.69 638.57,-427.05 641.11,-433.57"/>
</g>
<!-- genesis::create_initialize_validator -->
<g id="node26" class="node">
<title>genesis::create_initialize_validator</title>
<ellipse fill="none" stroke="black" cx="687" cy="-486" rx="102.88" ry="18"/>
<text text-anchor="middle" x="687" y="-482.3" font-family="Times,serif" font-size="14.00">create_initialize_validator</text>
</g>
<!-- genesis::create_initialize_validator&#45;&gt;genesis::create_account -->
<g id="edge27" class="edge">
<title>genesis::create_initialize_validator&#45;&gt;genesis::create_account</title>
<path fill="none" stroke="black" d="M687,-467.7C687,-459.67 687,-449.9 687,-440.8"/>
<polygon fill="black" stroke="black" points="690.5,-440.94 687,-430.94 683.5,-440.94 690.5,-440.94"/>
</g>
<!-- staking_contract::create_staking_contract -->
<g id="node31" class="node">
<title>staking_contract::create_staking_contract</title>
<ellipse fill="none" stroke="black" cx="929" cy="-411" rx="94.48" ry="18"/>
<text text-anchor="middle" x="929" y="-407.3" font-family="Times,serif" font-size="14.00">create_staking_contract</text>
</g>
<!-- genesis::create_initialize_validator&#45;&gt;staking_contract::create_staking_contract -->
<g id="edge40" class="edge">
<title>genesis::create_initialize_validator&#45;&gt;staking_contract::create_staking_contract</title>
<path fill="none" stroke="black" d="M754.62,-472.04C770.29,-468.56 786.82,-464.49 802,-460 828.56,-452.14 857.49,-441.38 881.03,-432.04"/>
<polygon fill="black" stroke="black" points="882.05,-435.41 890.03,-428.43 879.44,-428.91 882.05,-435.41"/>
</g>
<!-- staking_contract::create_staking_contract_with_coins -->
<g id="node27" class="node">
<title>staking_contract::create_staking_contract_with_coins</title>
<ellipse fill="none" stroke="black" cx="951" cy="-328" rx="137.28" ry="18"/>
<text text-anchor="middle" x="951" y="-324.3" font-family="Times,serif" font-size="14.00">create_staking_contract_with_coins</text>
</g>
<!-- staking_contract::create_staking_contract_with_coins&#45;&gt;staking_contract::create_stake_pool -->
<g id="edge28" class="edge">
<title>staking_contract::create_staking_contract_with_coins&#45;&gt;staking_contract::create_stake_pool</title>
<path fill="none" stroke="black" d="M957.57,-309.82C961.6,-299.3 966.85,-285.59 971.45,-273.57"/>
<polygon fill="black" stroke="black" points="974.59,-275.16 974.89,-264.57 968.05,-272.66 974.59,-275.16"/>
</g>
<!-- vesting::create_vesting_contract&#45;&gt;vesting::create_vesting_contract_account -->
<g id="edge29" class="edge">
<title>vesting::create_vesting_contract&#45;&gt;vesting::create_vesting_contract_account</title>
<path fill="none" stroke="black" d="M1747.21,-392.82C1743.08,-382.37 1737.71,-368.77 1732.99,-356.81"/>
<polygon fill="black" stroke="black" points="1736.37,-355.85 1729.44,-347.84 1729.86,-358.43 1736.37,-355.85"/>
</g>
<!-- vesting::create_vesting_contract&#45;&gt;aptos_account::assert_account_is_registered_for_apt -->
<g id="edge33" class="edge">
<title>vesting::create_vesting_contract&#45;&gt;aptos_account::assert_account_is_registered_for_apt</title>
<path fill="none" stroke="black" d="M1702.82,-395.51C1686.11,-391.37 1667.39,-387.35 1650,-385 1541.59,-370.36 1511.79,-395.63 1404,-377 1370.55,-371.22 1334.27,-359.76 1305.77,-349.49"/>
<polygon fill="black" stroke="black" points="1307.26,-346.31 1296.67,-346.14 1304.85,-352.88 1307.26,-346.31"/>
</g>
<!-- vesting::create_vesting_contract&#45;&gt;staking_contract::create_staking_contract_with_coins -->
<g id="edge37" class="edge">
<title>vesting::create_vesting_contract&#45;&gt;staking_contract::create_staking_contract_with_coins</title>
<path fill="none" stroke="black" d="M1703.1,-395.39C1686.34,-391.21 1667.5,-387.2 1650,-385 1528.72,-369.73 1220.61,-396.85 1100,-377 1066.47,-371.48 1030.15,-359.91 1001.77,-349.5"/>
<polygon fill="black" stroke="black" points="1003.31,-346.34 992.72,-346.12 1000.86,-352.9 1003.31,-346.34"/>
</g>
<!-- vesting::set_beneficiary -->
<g id="node29" class="node">
<title>vesting::set_beneficiary</title>
<ellipse fill="none" stroke="black" cx="1577" cy="-411" rx="64.19" ry="18"/>
<text text-anchor="middle" x="1577" y="-407.3" font-family="Times,serif" font-size="14.00">set_beneficiary</text>
</g>
<!-- vesting::set_beneficiary&#45;&gt;aptos_account::assert_account_is_registered_for_apt -->
<g id="edge34" class="edge">
<title>vesting::set_beneficiary&#45;&gt;aptos_account::assert_account_is_registered_for_apt</title>
<path fill="none" stroke="black" d="M1522.08,-401.28C1487.89,-395.41 1443.11,-386.95 1404,-377 1372.89,-369.09 1338.76,-358.33 1310.93,-349.01"/>
<polygon fill="black" stroke="black" points="1312.23,-345.76 1301.63,-345.87 1309.99,-352.39 1312.23,-345.76"/>
</g>
<!-- genesis::create_initialize_validators_with_commission -->
<g id="node30" class="node">
<title>genesis::create_initialize_validators_with_commission</title>
<ellipse fill="none" stroke="black" cx="611" cy="-558" rx="173.57" ry="18"/>
<text text-anchor="middle" x="611" y="-554.3" font-family="Times,serif" font-size="14.00">create_initialize_validators_with_commission</text>
</g>
<!-- genesis::create_initialize_validators_with_commission&#45;&gt;genesis::create_initialize_validator -->
<g id="edge35" class="edge">
<title>genesis::create_initialize_validators_with_commission&#45;&gt;genesis::create_initialize_validator</title>
<path fill="none" stroke="black" d="M629.79,-539.7C638.9,-531.3 650.01,-521.07 660.01,-511.86"/>
<polygon fill="black" stroke="black" points="662.33,-514.48 667.32,-505.13 657.59,-509.33 662.33,-514.48"/>
</g>
<!-- staking_contract::create_staking_contract&#45;&gt;staking_contract::create_staking_contract_with_coins -->
<g id="edge36" class="edge">
<title>staking_contract::create_staking_contract&#45;&gt;staking_contract::create_staking_contract_with_coins</title>
<path fill="none" stroke="black" d="M933.67,-392.82C936.48,-382.48 940.12,-369.05 943.35,-357.18"/>
<polygon fill="black" stroke="black" points="946.63,-358.46 945.87,-347.89 939.87,-356.63 946.63,-358.46"/>
</g>
<!-- genesis::create_initialize_validators -->
<g id="node32" class="node">
<title>genesis::create_initialize_validators</title>
<ellipse fill="none" stroke="black" cx="572" cy="-630" rx="105.88" ry="18"/>
<text text-anchor="middle" x="572" y="-626.3" font-family="Times,serif" font-size="14.00">create_initialize_validators</text>
</g>
<!-- genesis::create_initialize_validators&#45;&gt;genesis::create_initialize_validators_with_commission -->
<g id="edge39" class="edge">
<title>genesis::create_initialize_validators&#45;&gt;genesis::create_initialize_validators_with_commission</title>
<path fill="none" stroke="black" d="M581.64,-611.7C585.94,-603.98 591.1,-594.71 595.89,-586.11"/>
<polygon fill="black" stroke="black" points="598.92,-587.87 600.73,-577.43 592.81,-584.46 598.92,-587.87"/>
</g>
<!-- genesis::initialize_for_verification -->
<g id="node33" class="node">
<title>genesis::initialize_for_verification</title>
<ellipse fill="none" stroke="black" cx="117" cy="-702" rx="100.98" ry="18"/>
<text text-anchor="middle" x="117" y="-698.3" font-family="Times,serif" font-size="14.00">initialize_for_verification</text>
</g>
<!-- genesis::initialize_for_verification&#45;&gt;genesis::create_initialize_validators -->
<g id="edge41" class="edge">
<title>genesis::initialize_for_verification&#45;&gt;genesis::create_initialize_validators</title>
<path fill="none" stroke="black" d="M191.55,-689.47C203.41,-687.64 215.54,-685.77 227,-684 314.37,-670.54 414.19,-655.21 483.91,-644.51"/>
<polygon fill="black" stroke="black" points="484.41,-647.97 493.77,-643 483.35,-641.06 484.41,-647.97"/>
</g>
</g>
</svg>
