<?xml version="1.0" encoding="UTF-8" standalone="no"?>
<!DOCTYPE svg PUBLIC "-//W3C//DTD SVG 1.1//EN"
 "http://www.w3.org/Graphics/SVG/1.1/DTD/svg11.dtd">
<!-- Generated by graphviz version 7.0.0 (20221023.0053)
 -->
<!-- Title: G Pages: 1 -->
<svg width="2451pt" height="676pt"
 viewBox="0.00 0.00 2451.00 676.00" xmlns="http://www.w3.org/2000/svg" xmlns:xlink="http://www.w3.org/1999/xlink">
<g id="graph0" class="graph" transform="scale(1 1) rotate(0) translate(4 672)">
<title>G</title>
<polygon fill="white" stroke="none" points="-4,4 -4,-672 2447,-672 2447,4 -4,4"/>
<g id="clust1" class="cluster">
<title>cluster_aptos_account</title>
<polygon fill="none" stroke="black" points="8,-291 8,-441 152,-441 152,-291 8,-291"/>
<text text-anchor="middle" x="80" y="-425.8" font-family="Times,serif" font-size="14.00">aptos_account</text>
</g>
<g id="clust2" class="cluster">
<title>cluster_genesis</title>
<polygon fill="none" stroke="black" points="160,-291 160,-660 950,-660 950,-291 160,-291"/>
<text text-anchor="middle" x="555" y="-644.8" font-family="Times,serif" font-size="14.00">genesis</text>
</g>
<g id="clust3" class="cluster">
<title>cluster_staking_contract</title>
<polygon fill="none" stroke="black" points="1869,-136 1869,-366 2159,-366 2159,-136 1869,-136"/>
<text text-anchor="middle" x="2014" y="-350.8" font-family="Times,serif" font-size="14.00">staking_contract</text>
</g>
<g id="clust4" class="cluster">
<title>cluster_vesting</title>
<polygon fill="none" stroke="black" points="2167,-219 2167,-366 2435,-366 2435,-219 2167,-219"/>
<text text-anchor="middle" x="2301" y="-350.8" font-family="Times,serif" font-size="14.00">vesting</text>
</g>
<g id="clust5" class="cluster">
<title>cluster_resource_account</title>
<polygon fill="none" stroke="black" points="988,-136 988,-211 1861,-211 1861,-136 988,-136"/>
<text text-anchor="middle" x="1424.5" y="-195.8" font-family="Times,serif" font-size="14.00">resource_account</text>
</g>
<!-- create_account_unchecked -->
<g id="node1" class="node">
<title>create_account_unchecked</title>
<ellipse fill="none" stroke="black" cx="968" cy="-18" rx="105.08" ry="18"/>
<text text-anchor="middle" x="968" y="-14.3" font-family="Times,serif" font-size="14.00">create_account_unchecked</text>
</g>
<!-- create_account -->
<g id="node2" class="node">
<title>create_account</title>
<ellipse fill="none" stroke="black" cx="374" cy="-245" rx="63.89" ry="18"/>
<text text-anchor="middle" x="374" y="-241.3" font-family="Times,serif" font-size="14.00">create_account</text>
</g>
<!-- create_account&#45;&gt;create_account_unchecked -->
<g id="edge1" class="edge">
<title>create_account&#45;&gt;create_account_unchecked</title>
<path fill="none" stroke="black" d="M411.16,-229.93C513.12,-191.3 797.55,-83.56 915.61,-38.85"/>
<polygon fill="black" stroke="black" points="916.64,-42.2 924.75,-35.38 914.16,-35.65 916.64,-42.2"/>
</g>
<!-- create_framework_reserved_account -->
<g id="node3" class="node">
<title>create_framework_reserved_account</title>
<ellipse fill="none" stroke="black" cx="1099" cy="-467" rx="141.07" ry="18"/>
<text text-anchor="middle" x="1099" y="-463.3" font-family="Times,serif" font-size="14.00">create_framework_reserved_account</text>
</g>
<!-- create_framework_reserved_account&#45;&gt;create_account_unchecked -->
<g id="edge2" class="edge">
<title>create_framework_reserved_account&#45;&gt;create_account_unchecked</title>
<path fill="none" stroke="black" d="M1067.95,-448.96C1029.22,-425.16 968,-378.05 968,-318 968,-318 968,-318 968,-161 968,-121.74 968,-76.38 968,-47.69"/>
<polygon fill="black" stroke="black" points="971.5,-48 968,-38 964.5,-48 971.5,-48"/>
</g>
<!-- create_resource_account -->
<g id="node4" class="node">
<title>create_resource_account</title>
<ellipse fill="none" stroke="black" cx="1552" cy="-90" rx="97.48" ry="18"/>
<text text-anchor="middle" x="1552" y="-86.3" font-family="Times,serif" font-size="14.00">create_resource_account</text>
</g>
<!-- create_resource_account&#45;&gt;create_account_unchecked -->
<g id="edge3" class="edge">
<title>create_resource_account&#45;&gt;create_account_unchecked</title>
<path fill="none" stroke="black" d="M1472.02,-79.41C1365.45,-66.64 1177.14,-44.07 1063.32,-30.43"/>
<polygon fill="black" stroke="black" points="1064.05,-26.99 1053.71,-29.27 1063.22,-33.94 1064.05,-26.99"/>
</g>
<!-- aptos_account::create_account -->
<g id="node5" class="node">
<title>aptos_account::create_account</title>
<ellipse fill="none" stroke="black" cx="80" cy="-317" rx="63.89" ry="18"/>
<text text-anchor="middle" x="80" y="-313.3" font-family="Times,serif" font-size="14.00">create_account</text>
</g>
<!-- aptos_account::create_account&#45;&gt;create_account -->
<g id="edge4" class="edge">
<title>aptos_account::create_account&#45;&gt;create_account</title>
<path fill="none" stroke="black" d="M118.8,-302.29C130.65,-298.36 143.79,-294.26 156,-291 207.07,-277.38 265.8,-265.46 309.42,-257.32"/>
<polygon fill="black" stroke="black" points="310.06,-260.77 319.25,-255.51 308.78,-253.88 310.06,-260.77"/>
</g>
<!-- genesis::create_account -->
<g id="node6" class="node">
<title>genesis::create_account</title>
<ellipse fill="none" stroke="black" cx="421" cy="-317" rx="63.89" ry="18"/>
<text text-anchor="middle" x="421" y="-313.3" font-family="Times,serif" font-size="14.00">create_account</text>
</g>
<!-- genesis::create_account&#45;&gt;create_account -->
<g id="edge5" class="edge">
<title>genesis::create_account&#45;&gt;create_account</title>
<path fill="none" stroke="black" d="M409.62,-299.05C404.2,-290.97 397.58,-281.12 391.53,-272.11"/>
<polygon fill="black" stroke="black" points="394.6,-270.4 386.12,-264.05 388.78,-274.3 394.6,-270.4"/>
</g>
<!-- genesis::initialize_core_resources_and_aptos_coin -->
<g id="node7" class="node">
<title>genesis::initialize_core_resources_and_aptos_coin</title>
<ellipse fill="none" stroke="black" cx="326" cy="-611" rx="157.87" ry="18"/>
<text text-anchor="middle" x="326" y="-607.3" font-family="Times,serif" font-size="14.00">initialize_core_resources_and_aptos_coin</text>
</g>
<!-- genesis::initialize_core_resources_and_aptos_coin&#45;&gt;create_account -->
<g id="edge6" class="edge">
<title>genesis::initialize_core_resources_and_aptos_coin&#45;&gt;create_account</title>
<path fill="none" stroke="black" d="M326,-592.51C326,-565.71 326,-512.87 326,-468 326,-468 326,-468 326,-391 326,-345.49 331.53,-333.42 348,-291 350.43,-284.75 353.63,-278.34 356.97,-272.38"/>
<polygon fill="black" stroke="black" points="359.72,-274.59 361.8,-264.2 353.7,-271.03 359.72,-274.59"/>
</g>
<!-- genesis::initialize -->
<g id="node8" class="node">
<title>genesis::initialize</title>
<ellipse fill="none" stroke="black" cx="835" cy="-539" rx="41.69" ry="18"/>
<text text-anchor="middle" x="835" y="-535.3" font-family="Times,serif" font-size="14.00">initialize</text>
</g>
<!-- genesis::initialize&#45;&gt;create_framework_reserved_account -->
<g id="edge7" class="edge">
<title>genesis::initialize&#45;&gt;create_framework_reserved_account</title>
<path fill="none" stroke="black" d="M869.78,-528.78C910.03,-518.11 977.32,-500.26 1028.61,-486.66"/>
<polygon fill="black" stroke="black" points="1029.39,-490.08 1038.16,-484.13 1027.6,-483.31 1029.39,-490.08"/>
</g>
<!-- staking_contract::create_stake_pool -->
<g id="node9" class="node">
<title>staking_contract::create_stake_pool</title>
<ellipse fill="none" stroke="black" cx="1982" cy="-162" rx="74.19" ry="18"/>
<text text-anchor="middle" x="1982" y="-158.3" font-family="Times,serif" font-size="14.00">create_stake_pool</text>
</g>
<!-- staking_contract::create_stake_pool&#45;&gt;create_resource_account -->
<g id="edge8" class="edge">
<title>staking_contract::create_stake_pool&#45;&gt;create_resource_account</title>
<path fill="none" stroke="black" d="M1929.44,-148.98C1909.34,-144.59 1886.16,-139.78 1865,-136 1790.18,-122.64 1704.75,-110.57 1642.06,-102.3"/>
<polygon fill="black" stroke="black" points="1642.9,-98.88 1632.53,-101.05 1641.99,-105.82 1642.9,-98.88"/>
</g>
<!-- vesting::create_vesting_contract_account -->
<g id="node10" class="node">
<title>vesting::create_vesting_contract_account</title>
<ellipse fill="none" stroke="black" cx="2301" cy="-245" rx="126.18" ry="18"/>
<text text-anchor="middle" x="2301" y="-241.3" font-family="Times,serif" font-size="14.00">create_vesting_contract_account</text>
</g>
<!-- vesting::create_vesting_contract_account&#45;&gt;create_resource_account -->
<g id="edge9" class="edge">
<title>vesting::create_vesting_contract_account&#45;&gt;create_resource_account</title>
<path fill="none" stroke="black" d="M2285.63,-226.73C2262.08,-201.62 2214.36,-155.85 2163,-136 2074.26,-101.7 1811.16,-93.37 1660.74,-91.45"/>
<polygon fill="black" stroke="black" points="1661.21,-87.96 1651.17,-91.34 1661.13,-94.96 1661.21,-87.96"/>
</g>
<!-- resource_account::create_resource_account -->
<g id="node11" class="node">
<title>resource_account::create_resource_account</title>
<ellipse fill="none" stroke="black" cx="1093" cy="-162" rx="97.48" ry="18"/>
<text text-anchor="middle" x="1093" y="-158.3" font-family="Times,serif" font-size="14.00">create_resource_account</text>
</g>
<!-- resource_account::create_resource_account&#45;&gt;create_resource_account -->
<g id="edge10" class="edge">
<title>resource_account::create_resource_account&#45;&gt;create_resource_account</title>
<path fill="none" stroke="black" d="M1148.86,-146.81C1165.27,-142.95 1183.29,-139.01 1200,-136 1286.33,-120.44 1385.52,-108.27 1456.55,-100.53"/>
<polygon fill="black" stroke="black" points="1456.63,-104.04 1466.2,-99.49 1455.88,-97.08 1456.63,-104.04"/>
</g>
<!-- resource_account::create_resource_account_and_fund -->
<g id="node12" class="node">
<title>resource_account::create_resource_account_and_fund</title>
<ellipse fill="none" stroke="black" cx="1718" cy="-162" rx="135.38" ry="18"/>
<text text-anchor="middle" x="1718" y="-158.3" font-family="Times,serif" font-size="14.00">create_resource_account_and_fund</text>
</g>
<!-- resource_account::create_resource_account_and_fund&#45;&gt;create_resource_account -->
<g id="edge11" class="edge">
<title>resource_account::create_resource_account_and_fund&#45;&gt;create_resource_account</title>
<path fill="none" stroke="black" d="M1678.66,-144.41C1655.17,-134.51 1625.16,-121.85 1600.25,-111.34"/>
<polygon fill="black" stroke="black" points="1601.88,-108.24 1591.31,-107.58 1599.16,-114.69 1601.88,-108.24"/>
</g>
<!-- resource_account::create_resource_account_and_publish_package -->
<g id="node13" class="node">
<title>resource_account::create_resource_account_and_publish_package</title>
<ellipse fill="none" stroke="black" cx="1387" cy="-162" rx="178.17" ry="18"/>
<text text-anchor="middle" x="1387" y="-158.3" font-family="Times,serif" font-size="14.00">create_resource_account_and_publish_package</text>
</g>
<!-- resource_account::create_resource_account_and_publish_package&#45;&gt;create_resource_account -->
<g id="edge12" class="edge">
<title>resource_account::create_resource_account_and_publish_package&#45;&gt;create_resource_account</title>
<path fill="none" stroke="black" d="M1426.94,-144.05C1450.12,-134.22 1479.47,-121.77 1503.92,-111.4"/>
<polygon fill="black" stroke="black" points="1505.18,-114.67 1513.01,-107.54 1502.44,-108.22 1505.18,-114.67"/>
</g>
<!-- aptos_account::transfer -->
<g id="node14" class="node">
<title>aptos_account::transfer</title>
<ellipse fill="none" stroke="black" cx="80" cy="-392" rx="37.89" ry="18"/>
<text text-anchor="middle" x="80" y="-388.3" font-family="Times,serif" font-size="14.00">transfer</text>
</g>
<!-- aptos_account::transfer&#45;&gt;aptos_account::create_account -->
<g id="edge13" class="edge">
<title>aptos_account::transfer&#45;&gt;aptos_account::create_account</title>
<path fill="none" stroke="black" d="M80,-373.7C80,-365.67 80,-355.9 80,-346.8"/>
<polygon fill="black" stroke="black" points="83.5,-346.94 80,-336.94 76.5,-346.94 83.5,-346.94"/>
</g>
<!-- genesis::create_accounts -->
<g id="node15" class="node">
<title>genesis::create_accounts</title>
<ellipse fill="none" stroke="black" cx="421" cy="-392" rx="66.89" ry="18"/>
<text text-anchor="middle" x="421" y="-388.3" font-family="Times,serif" font-size="14.00">create_accounts</text>
</g>
<!-- genesis::create_accounts&#45;&gt;genesis::create_account -->
<g id="edge14" class="edge">
<title>genesis::create_accounts&#45;&gt;genesis::create_account</title>
<path fill="none" stroke="black" d="M421,-373.7C421,-365.67 421,-355.9 421,-346.8"/>
<polygon fill="black" stroke="black" points="424.5,-346.94 421,-336.94 417.5,-346.94 424.5,-346.94"/>
</g>
<!-- genesis::create_initialize_validator -->
<g id="node16" class="node">
<title>genesis::create_initialize_validator</title>
<ellipse fill="none" stroke="black" cx="609" cy="-392" rx="102.88" ry="18"/>
<text text-anchor="middle" x="609" y="-388.3" font-family="Times,serif" font-size="14.00">create_initialize_validator</text>
</g>
<!-- genesis::create_initialize_validator&#45;&gt;genesis::create_account -->
<g id="edge15" class="edge">
<title>genesis::create_initialize_validator&#45;&gt;genesis::create_account</title>
<path fill="none" stroke="black" d="M568.21,-375.16C538.74,-363.72 498.88,-348.24 468.07,-336.28"/>
<polygon fill="black" stroke="black" points="469.58,-333.11 458.99,-332.75 467.04,-339.63 469.58,-333.11"/>
</g>
<!-- staking_contract::create_staking_contract -->
<g id="node21" class="node">
<title>staking_contract::create_staking_contract</title>
<ellipse fill="none" stroke="black" cx="1992" cy="-317" rx="94.48" ry="18"/>
<text text-anchor="middle" x="1992" y="-313.3" font-family="Times,serif" font-size="14.00">create_staking_contract</text>
</g>
<!-- genesis::create_initialize_validator&#45;&gt;staking_contract::create_staking_contract -->
<g id="edge24" class="edge">
<title>genesis::create_initialize_validator&#45;&gt;staking_contract::create_staking_contract</title>
<path fill="none" stroke="black" d="M706.25,-385.87C958.88,-372.53 1634.11,-336.89 1890.94,-323.33"/>
<polygon fill="black" stroke="black" points="1890.8,-326.85 1900.6,-322.82 1890.43,-319.86 1890.8,-326.85"/>
</g>
<!-- genesis::initialize_for_verification -->
<g id="node17" class="node">
<title>genesis::initialize_for_verification</title>
<ellipse fill="none" stroke="black" cx="603" cy="-611" rx="100.98" ry="18"/>
<text text-anchor="middle" x="603" y="-607.3" font-family="Times,serif" font-size="14.00">initialize_for_verification</text>
</g>
<!-- genesis::initialize_for_verification&#45;&gt;genesis::initialize -->
<g id="edge16" class="edge">
<title>genesis::initialize_for_verification&#45;&gt;genesis::initialize</title>
<path fill="none" stroke="black" d="M652.77,-594.98C693.7,-582.63 751.16,-565.3 790.56,-553.41"/>
<polygon fill="black" stroke="black" points="791.4,-556.81 799.96,-550.57 789.38,-550.11 791.4,-556.81"/>
</g>
<!-- genesis::create_initialize_validators -->
<g id="node23" class="node">
<title>genesis::create_initialize_validators</title>
<ellipse fill="none" stroke="black" cx="604" cy="-539" rx="105.88" ry="18"/>
<text text-anchor="middle" x="604" y="-535.3" font-family="Times,serif" font-size="14.00">create_initialize_validators</text>
</g>
<!-- genesis::initialize_for_verification&#45;&gt;genesis::create_initialize_validators -->
<g id="edge25" class="edge">
<title>genesis::initialize_for_verification&#45;&gt;genesis::create_initialize_validators</title>
<path fill="none" stroke="black" d="M603.25,-592.7C603.35,-585.41 603.48,-576.73 603.59,-568.54"/>
<polygon fill="black" stroke="black" points="607.09,-568.67 603.73,-558.62 600.09,-568.57 607.09,-568.67"/>
</g>
<!-- staking_contract::create_staking_contract_with_coins -->
<g id="node18" class="node">
<title>staking_contract::create_staking_contract_with_coins</title>
<ellipse fill="none" stroke="black" cx="2014" cy="-245" rx="137.28" ry="18"/>
<text text-anchor="middle" x="2014" y="-241.3" font-family="Times,serif" font-size="14.00">create_staking_contract_with_coins</text>
</g>
<!-- staking_contract::create_staking_contract_with_coins&#45;&gt;staking_contract::create_stake_pool -->
<g id="edge17" class="edge">
<title>staking_contract::create_staking_contract_with_coins&#45;&gt;staking_contract::create_stake_pool</title>
<path fill="none" stroke="black" d="M2007.21,-226.82C2003.06,-216.3 1997.64,-202.59 1992.89,-190.57"/>
<polygon fill="black" stroke="black" points="1996.26,-189.58 1989.33,-181.56 1989.75,-192.15 1996.26,-189.58"/>
</g>
<!-- vesting::create_vesting_contract -->
<g id="node19" class="node">
<title>vesting::create_vesting_contract</title>
<ellipse fill="none" stroke="black" cx="2269" cy="-317" rx="94.48" ry="18"/>
<text text-anchor="middle" x="2269" y="-313.3" font-family="Times,serif" font-size="14.00">create_vesting_contract</text>
</g>
<!-- vesting::create_vesting_contract&#45;&gt;vesting::create_vesting_contract_account -->
<g id="edge18" class="edge">
<title>vesting::create_vesting_contract&#45;&gt;vesting::create_vesting_contract_account</title>
<path fill="none" stroke="black" d="M2276.91,-298.7C2280.4,-291.07 2284.58,-281.92 2288.48,-273.4"/>
<polygon fill="black" stroke="black" points="2291.58,-275.03 2292.55,-264.48 2285.21,-272.12 2291.58,-275.03"/>
</g>
<!-- vesting::create_vesting_contract&#45;&gt;staking_contract::create_staking_contract_with_coins -->
<g id="edge21" class="edge">
<title>vesting::create_vesting_contract&#45;&gt;staking_contract::create_staking_contract_with_coins</title>
<path fill="none" stroke="black" d="M2216.78,-301.67C2177.99,-291.02 2124.72,-276.39 2082.51,-264.81"/>
<polygon fill="black" stroke="black" points="2083.51,-261.45 2072.94,-262.18 2081.65,-268.2 2083.51,-261.45"/>
</g>
<!-- genesis::create_initialize_validators_with_commission -->
<g id="node20" class="node">
<title>genesis::create_initialize_validators_with_commission</title>
<ellipse fill="none" stroke="black" cx="606" cy="-467" rx="173.57" ry="18"/>
<text text-anchor="middle" x="606" y="-463.3" font-family="Times,serif" font-size="14.00">create_initialize_validators_with_commission</text>
</g>
<!-- genesis::create_initialize_validators_with_commission&#45;&gt;genesis::create_initialize_validator -->
<g id="edge19" class="edge">
<title>genesis::create_initialize_validators_with_commission&#45;&gt;genesis::create_initialize_validator</title>
<path fill="none" stroke="black" d="M606.71,-448.7C607.04,-440.67 607.44,-430.9 607.82,-421.8"/>
<polygon fill="black" stroke="black" points="611.31,-422.08 608.22,-411.94 604.31,-421.79 611.31,-422.08"/>
</g>
<!-- staking_contract::create_staking_contract&#45;&gt;staking_contract::create_staking_contract_with_coins -->
<g id="edge20" class="edge">
<title>staking_contract::create_staking_contract&#45;&gt;staking_contract::create_staking_contract_with_coins</title>
<path fill="none" stroke="black" d="M1997.44,-298.7C1999.78,-291.24 2002.58,-282.32 2005.21,-273.97"/>
<polygon fill="black" stroke="black" points="2008.51,-275.14 2008.17,-264.55 2001.83,-273.04 2008.51,-275.14"/>
</g>
<!-- genesis::create_employee_validators -->
<g id="node22" class="node">
<title>genesis::create_employee_validators</title>
<ellipse fill="none" stroke="black" cx="832" cy="-611" rx="109.68" ry="18"/>
<text text-anchor="middle" x="832" y="-607.3" font-family="Times,serif" font-size="14.00">create_employee_validators</text>
</g>
<!-- genesis::create_employee_validators&#45;&gt;vesting::create_vesting_contract -->
<g id="edge22" class="edge">
<title>genesis::create_employee_validators&#45;&gt;vesting::create_vesting_contract</title>
<path fill="none" stroke="black" d="M924.23,-600.93C1143.23,-577.71 1710.1,-507.72 2163,-366 2185.12,-359.08 2208.71,-348.72 2228.01,-339.39"/>
<polygon fill="black" stroke="black" points="2229.47,-342.57 2236.89,-335.01 2226.37,-336.29 2229.47,-342.57"/>
</g>
<!-- genesis::create_initialize_validators&#45;&gt;genesis::create_initialize_validators_with_commission -->
<g id="edge23" class="edge">
<title>genesis::create_initialize_validators&#45;&gt;genesis::create_initialize_validators_with_commission</title>
<path fill="none" stroke="black" d="M604.49,-520.7C604.7,-513.41 604.95,-504.73 605.18,-496.54"/>
<polygon fill="black" stroke="black" points="608.68,-496.71 605.47,-486.62 601.68,-496.51 608.68,-496.71"/>
</g>
</g>
</svg>
