<?xml version="1.0" encoding="UTF-8" standalone="no"?>
<!DOCTYPE svg PUBLIC "-//W3C//DTD SVG 1.1//EN"
 "http://www.w3.org/Graphics/SVG/1.1/DTD/svg11.dtd">
<!-- Generated by graphviz version 7.0.0 (20221023.0053)
 -->
<!-- Title: G Pages: 1 -->
<svg width="963pt" height="476pt"
 viewBox="0.00 0.00 962.99 476.00" xmlns="http://www.w3.org/2000/svg" xmlns:xlink="http://www.w3.org/1999/xlink">
<g id="graph0" class="graph" transform="scale(1 1) rotate(0) translate(4 472)">
<title>G</title>
<polygon fill="white" stroke="none" points="-4,4 -4,-472 958.99,-472 958.99,4 -4,4"/>
<!-- account -->
<g id="node1" class="node">
<title>account</title>
<ellipse fill="none" stroke="black" cx="535.99" cy="-450" rx="38.19" ry="18"/>
<text text-anchor="middle" x="535.99" y="-446.3" font-family="Times,serif" font-size="14.00">account</text>
</g>
<!-- vector -->
<g id="node2" class="node">
<title>vector</title>
<ellipse fill="none" stroke="black" cx="516.99" cy="-18" rx="32.49" ry="18"/>
<text text-anchor="middle" x="516.99" y="-14.3" font-family="Times,serif" font-size="14.00">vector</text>
</g>
<!-- account&#45;&gt;vector -->
<g id="edge1" class="edge">
<title>account&#45;&gt;vector</title>
<path fill="none" stroke="black" d="M497.47,-449.65C409.81,-448.93 202.99,-433.8 202.99,-307 202.99,-307 202.99,-307 202.99,-161 202.99,-43.88 386.59,-22.85 473,-19.43"/>
<polygon fill="black" stroke="black" points="472.88,-22.94 482.76,-19.12 472.65,-15.94 472.88,-22.94"/>
</g>
<!-- option -->
<g id="node3" class="node">
<title>option</title>
<ellipse fill="none" stroke="black" cx="674.99" cy="-90" rx="33.29" ry="18"/>
<text text-anchor="middle" x="674.99" y="-86.3" font-family="Times,serif" font-size="14.00">option</text>
</g>
<!-- account&#45;&gt;option -->
<g id="edge2" class="edge">
<title>account&#45;&gt;option</title>
<path fill="none" stroke="black" d="M574.45,-448.08C659.2,-445.35 858.74,-434.86 911.99,-396 947.48,-370.11 954.99,-350.93 954.99,-307 954.99,-307 954.99,-307 954.99,-233 954.99,-128.58 798.18,-100.92 719.26,-93.61"/>
<polygon fill="black" stroke="black" points="719.98,-90.16 709.72,-92.8 719.39,-97.14 719.98,-90.16"/>
</g>
<!-- signer -->
<g id="node4" class="node">
<title>signer</title>
<ellipse fill="none" stroke="black" cx="101.99" cy="-90" rx="32.49" ry="18"/>
<text text-anchor="middle" x="101.99" y="-86.3" font-family="Times,serif" font-size="14.00">signer</text>
</g>
<!-- account&#45;&gt;signer -->
<g id="edge3" class="edge">
<title>account&#45;&gt;signer</title>
<path fill="none" stroke="black" d="M497.94,-447.12C375.72,-440.04 0.99,-409.94 0.99,-307 0.99,-307 0.99,-307 0.99,-233 0.99,-192.55 -2.97,-177.3 19.99,-144 31.38,-127.47 49.78,-114.9 66.27,-106.15"/>
<polygon fill="black" stroke="black" points="67.46,-109.47 74.85,-101.87 64.34,-103.2 67.46,-109.47"/>
</g>
<!-- error -->
<g id="node5" class="node">
<title>error</title>
<ellipse fill="none" stroke="black" cx="353.99" cy="-90" rx="27.9" ry="18"/>
<text text-anchor="middle" x="353.99" y="-86.3" font-family="Times,serif" font-size="14.00">error</text>
</g>
<!-- account&#45;&gt;error -->
<g id="edge4" class="edge">
<title>account&#45;&gt;error</title>
<path fill="none" stroke="black" d="M501.89,-441.51C444.55,-426.67 334.99,-387.75 334.99,-307 334.99,-307 334.99,-307 334.99,-233 334.99,-193.17 342.42,-147.61 347.99,-119.07"/>
<polygon fill="black" stroke="black" points="351.39,-119.93 349.94,-109.43 344.53,-118.54 351.39,-119.93"/>
</g>
<!-- type_info -->
<g id="node6" class="node">
<title>type_info</title>
<ellipse fill="none" stroke="black" cx="444.99" cy="-234" rx="44.39" ry="18"/>
<text text-anchor="middle" x="444.99" y="-230.3" font-family="Times,serif" font-size="14.00">type_info</text>
</g>
<!-- account&#45;&gt;type_info -->
<g id="edge5" class="edge">
<title>account&#45;&gt;type_info</title>
<path fill="none" stroke="black" d="M500.76,-442.68C474.62,-435.95 440.73,-422.45 423.99,-396 398,-354.95 416.52,-296.2 431.4,-262.19"/>
<polygon fill="black" stroke="black" points="434.43,-263.99 435.42,-253.45 428.06,-261.08 434.43,-263.99"/>
</g>
<!-- table -->
<g id="node7" class="node">
<title>table</title>
<ellipse fill="none" stroke="black" cx="460.99" cy="-378" rx="27.9" ry="18"/>
<text text-anchor="middle" x="460.99" y="-374.3" font-family="Times,serif" font-size="14.00">table</text>
</g>
<!-- account&#45;&gt;table -->
<g id="edge6" class="edge">
<title>account&#45;&gt;table</title>
<path fill="none" stroke="black" d="M519.35,-433.46C509.1,-423.9 495.8,-411.49 484.49,-400.93"/>
<polygon fill="black" stroke="black" points="487.12,-398.6 477.42,-394.33 482.34,-403.71 487.12,-398.6"/>
</g>
<!-- system_addresses -->
<g id="node8" class="node">
<title>system_addresses</title>
<ellipse fill="none" stroke="black" cx="101.99" cy="-162" rx="73.39" ry="18"/>
<text text-anchor="middle" x="101.99" y="-158.3" font-family="Times,serif" font-size="14.00">system_addresses</text>
</g>
<!-- account&#45;&gt;system_addresses -->
<g id="edge7" class="edge">
<title>account&#45;&gt;system_addresses</title>
<path fill="none" stroke="black" d="M497.84,-447.93C417.78,-444.95 235.81,-434.05 188.99,-396 125.53,-344.42 108.35,-241.64 103.71,-191.64"/>
<polygon fill="black" stroke="black" points="107.21,-191.6 102.92,-181.92 100.24,-192.17 107.21,-191.6"/>
</g>
<!-- hash -->
<g id="node9" class="node">
<title>hash</title>
<ellipse fill="none" stroke="black" cx="581.99" cy="-234" rx="27" ry="18"/>
<text text-anchor="middle" x="581.99" y="-230.3" font-family="Times,serif" font-size="14.00">hash</text>
</g>
<!-- account&#45;&gt;hash -->
<g id="edge8" class="edge">
<title>account&#45;&gt;hash</title>
<path fill="none" stroke="black" d="M539.68,-431.85C547.58,-395.07 566.24,-308.29 575.92,-263.24"/>
<polygon fill="black" stroke="black" points="579.29,-264.22 577.97,-253.71 572.44,-262.75 579.29,-264.22"/>
</g>
<!-- bcs -->
<g id="node10" class="node">
<title>bcs</title>
<ellipse fill="none" stroke="black" cx="796.99" cy="-234" rx="27" ry="18"/>
<text text-anchor="middle" x="796.99" y="-230.3" font-family="Times,serif" font-size="14.00">bcs</text>
</g>
<!-- account&#45;&gt;bcs -->
<g id="edge9" class="edge">
<title>account&#45;&gt;bcs</title>
<path fill="none" stroke="black" d="M574.5,-448.22C618.63,-445.4 690.91,-434.65 737.99,-396 778.09,-363.07 790.94,-300.35 795.05,-263.67"/>
<polygon fill="black" stroke="black" points="798.53,-264.1 795.99,-253.81 791.56,-263.44 798.53,-264.1"/>
</g>
<!-- ed25519 -->
<g id="node11" class="node">
<title>ed25519</title>
<ellipse fill="none" stroke="black" cx="661.99" cy="-306" rx="40.89" ry="18"/>
<text text-anchor="middle" x="661.99" y="-302.3" font-family="Times,serif" font-size="14.00">ed25519</text>
</g>
<!-- account&#45;&gt;ed25519 -->
<g id="edge10" class="edge">
<title>account&#45;&gt;ed25519</title>
<path fill="none" stroke="black" d="M572.28,-443.76C620.65,-435.94 702.25,-419.57 719.99,-396 729.61,-383.22 726.44,-374.64 719.99,-360 714.46,-347.45 704.32,-336.58 694.06,-328.01"/>
<polygon fill="black" stroke="black" points="696.36,-325.37 686.31,-322.01 692.07,-330.9 696.36,-325.37"/>
</g>
<!-- multi_ed25519 -->
<g id="node12" class="node">
<title>multi_ed25519</title>
<ellipse fill="none" stroke="black" cx="646.99" cy="-378" rx="64.19" ry="18"/>
<text text-anchor="middle" x="646.99" y="-374.3" font-family="Times,serif" font-size="14.00">multi_ed25519</text>
</g>
<!-- account&#45;&gt;multi_ed25519 -->
<g id="edge11" class="edge">
<title>account&#45;&gt;multi_ed25519</title>
<path fill="none" stroke="black" d="M558.19,-435C573.67,-425.24 594.63,-412.02 612.31,-400.87"/>
<polygon fill="black" stroke="black" points="613.86,-404.03 620.45,-395.74 610.12,-398.11 613.86,-404.03"/>
</g>
<!-- guid -->
<g id="node13" class="node">
<title>guid</title>
<ellipse fill="none" stroke="black" cx="899.99" cy="-306" rx="27" ry="18"/>
<text text-anchor="middle" x="899.99" y="-302.3" font-family="Times,serif" font-size="14.00">guid</text>
</g>
<!-- account&#45;&gt;guid -->
<g id="edge12" class="edge">
<title>account&#45;&gt;guid</title>
<path fill="none" stroke="black" d="M574.59,-448.96C657.42,-448.01 848.2,-440.87 890.99,-396 905.99,-380.27 907.28,-355.14 905.37,-335.59"/>
<polygon fill="black" stroke="black" points="908.85,-335.22 904.05,-325.77 901.91,-336.15 908.85,-335.22"/>
</g>
<!-- from_bcs -->
<g id="node14" class="node">
<title>from_bcs</title>
<ellipse fill="none" stroke="black" cx="482.99" cy="-306" rx="44.39" ry="18"/>
<text text-anchor="middle" x="482.99" y="-302.3" font-family="Times,serif" font-size="14.00">from_bcs</text>
</g>
<!-- account&#45;&gt;from_bcs -->
<g id="edge13" class="edge">
<title>account&#45;&gt;from_bcs</title>
<path fill="none" stroke="black" d="M529.6,-431.87C520.6,-407.78 504.12,-363.6 493.36,-334.77"/>
<polygon fill="black" stroke="black" points="496.71,-333.75 489.93,-325.61 490.15,-336.2 496.71,-333.75"/>
</g>
<!-- event -->
<g id="node15" class="node">
<title>event</title>
<ellipse fill="none" stroke="black" cx="851.99" cy="-378" rx="29.8" ry="18"/>
<text text-anchor="middle" x="851.99" y="-374.3" font-family="Times,serif" font-size="14.00">event</text>
</g>
<!-- account&#45;&gt;event -->
<g id="edge14" class="edge">
<title>account&#45;&gt;event</title>
<path fill="none" stroke="black" d="M572.55,-443.97C625.23,-436.26 725.24,-419.85 807.99,-396 811.09,-395.11 814.27,-394.09 817.45,-393"/>
<polygon fill="black" stroke="black" points="818.43,-396.37 826.62,-389.65 816.03,-389.79 818.43,-396.37"/>
</g>
<!-- option&#45;&gt;vector -->
<g id="edge15" class="edge">
<title>option&#45;&gt;vector</title>
<path fill="none" stroke="black" d="M649.95,-77.91C623.61,-66.23 581.91,-47.76 552.24,-34.62"/>
<polygon fill="black" stroke="black" points="553.85,-31.5 543.29,-30.65 551.02,-37.9 553.85,-31.5"/>
</g>
<!-- type_info&#45;&gt;error -->
<g id="edge17" class="edge">
<title>type_info&#45;&gt;error</title>
<path fill="none" stroke="black" d="M434.19,-216.15C418.36,-191.44 388.72,-145.19 370.24,-116.36"/>
<polygon fill="black" stroke="black" points="373.37,-114.76 365.03,-108.23 367.48,-118.54 373.37,-114.76"/>
</g>
<!-- string -->
<g id="node16" class="node">
<title>string</title>
<ellipse fill="none" stroke="black" cx="516.99" cy="-162" rx="30.59" ry="18"/>
<text text-anchor="middle" x="516.99" y="-158.3" font-family="Times,serif" font-size="14.00">string</text>
</g>
<!-- type_info&#45;&gt;string -->
<g id="edge16" class="edge">
<title>type_info&#45;&gt;string</title>
<path fill="none" stroke="black" d="M461.33,-217.12C470.89,-207.82 483.12,-195.93 493.67,-185.67"/>
<polygon fill="black" stroke="black" points="495.89,-188.4 500.62,-178.92 491.01,-183.38 495.89,-188.4"/>
</g>
<!-- features -->
<g id="node17" class="node">
<title>features</title>
<ellipse fill="none" stroke="black" cx="268.99" cy="-162" rx="38.19" ry="18"/>
<text text-anchor="middle" x="268.99" y="-158.3" font-family="Times,serif" font-size="14.00">features</text>
</g>
<!-- type_info&#45;&gt;features -->
<g id="edge18" class="edge">
<title>type_info&#45;&gt;features</title>
<path fill="none" stroke="black" d="M413.93,-220.65C384.32,-208.87 339.63,-191.09 307.71,-178.4"/>
<polygon fill="black" stroke="black" points="309.4,-175.31 298.82,-174.86 306.82,-181.81 309.4,-175.31"/>
</g>
<!-- system_addresses&#45;&gt;signer -->
<g id="edge19" class="edge">
<title>system_addresses&#45;&gt;signer</title>
<path fill="none" stroke="black" d="M101.99,-143.7C101.99,-136.41 101.99,-127.73 101.99,-119.54"/>
<polygon fill="black" stroke="black" points="105.49,-119.62 101.99,-109.62 98.49,-119.62 105.49,-119.62"/>
</g>
<!-- system_addresses&#45;&gt;error -->
<g id="edge20" class="edge">
<title>system_addresses&#45;&gt;error</title>
<path fill="none" stroke="black" d="M149.39,-147.83C198.31,-134.24 273.55,-113.34 317.87,-101.03"/>
<polygon fill="black" stroke="black" points="318.54,-104.48 327.24,-98.43 316.67,-97.74 318.54,-104.48"/>
</g>
<!-- ed25519&#45;&gt;option -->
<g id="edge21" class="edge">
<title>ed25519&#45;&gt;option</title>
<path fill="none" stroke="black" d="M663.03,-287.85C665.26,-251.14 670.52,-164.66 673.26,-119.53"/>
<polygon fill="black" stroke="black" points="676.74,-119.94 673.85,-109.74 669.75,-119.51 676.74,-119.94"/>
</g>
<!-- ed25519&#45;&gt;error -->
<g id="edge22" class="edge">
<title>ed25519&#45;&gt;error</title>
<path fill="none" stroke="black" d="M656.33,-287.84C644.16,-253.93 612.07,-178.66 556.99,-144 505.99,-111.91 436.12,-99.16 393.08,-94.16"/>
<polygon fill="black" stroke="black" points="393.5,-90.68 383.19,-93.1 392.76,-97.64 393.5,-90.68"/>
</g>
<!-- ed25519&#45;&gt;type_info -->
<g id="edge23" class="edge">
<title>ed25519&#45;&gt;type_info</title>
<path fill="none" stroke="black" d="M629.97,-294.67C592.85,-282.7 531.43,-262.88 489.63,-249.4"/>
<polygon fill="black" stroke="black" points="490.96,-246.15 480.37,-246.41 488.81,-252.81 490.96,-246.15"/>
</g>
<!-- ed25519&#45;&gt;hash -->
<g id="edge24" class="edge">
<title>ed25519&#45;&gt;hash</title>
<path fill="none" stroke="black" d="M644.24,-289.46C633.05,-279.68 618.46,-266.91 606.22,-256.2"/>
<polygon fill="black" stroke="black" points="608.77,-253.78 598.94,-249.83 604.16,-259.05 608.77,-253.78"/>
</g>
<!-- ed25519&#45;&gt;bcs -->
<g id="edge25" class="edge">
<title>ed25519&#45;&gt;bcs</title>
<path fill="none" stroke="black" d="M687.7,-291.67C710.09,-280.06 742.6,-263.2 766.34,-250.89"/>
<polygon fill="black" stroke="black" points="767.63,-254.17 774.89,-246.46 764.41,-247.95 767.63,-254.17"/>
</g>
<!-- multi_ed25519&#45;&gt;option -->
<g id="edge26" class="edge">
<title>multi_ed25519&#45;&gt;option</title>
<path fill="none" stroke="black" d="M675.85,-361.61C689.5,-352.63 704.43,-339.91 711.99,-324 744.78,-254.96 710.1,-162.76 688.9,-117.86"/>
<polygon fill="black" stroke="black" points="692.16,-116.57 684.64,-109.11 685.87,-119.64 692.16,-116.57"/>
</g>
<!-- multi_ed25519&#45;&gt;error -->
<g id="edge27" class="edge">
<title>multi_ed25519&#45;&gt;error</title>
<path fill="none" stroke="black" d="M583.53,-375.12C536.74,-370.73 473.87,-358.22 429.99,-324 366.29,-274.32 355.27,-170.19 353.83,-119.68"/>
<polygon fill="black" stroke="black" points="357.33,-119.8 353.67,-109.86 350.34,-119.92 357.33,-119.8"/>
</g>
<!-- multi_ed25519&#45;&gt;hash -->
<g id="edge28" class="edge">
<title>multi_ed25519&#45;&gt;hash</title>
<path fill="none" stroke="black" d="M634.14,-360.01C626.93,-349.93 618.18,-336.68 611.99,-324 602.42,-304.41 594.66,-281 589.44,-263.11"/>
<polygon fill="black" stroke="black" points="592.87,-262.38 586.78,-253.7 586.13,-264.28 592.87,-262.38"/>
</g>
<!-- multi_ed25519&#45;&gt;bcs -->
<g id="edge29" class="edge">
<title>multi_ed25519&#45;&gt;bcs</title>
<path fill="none" stroke="black" d="M683.59,-362.99C703.46,-354.05 727.47,-340.95 744.99,-324 763.05,-306.52 776.95,-281.44 785.81,-262.35"/>
<polygon fill="black" stroke="black" points="788.97,-263.85 789.83,-253.29 782.57,-261.02 788.97,-263.85"/>
</g>
<!-- multi_ed25519&#45;&gt;ed25519 -->
<g id="edge30" class="edge">
<title>multi_ed25519&#45;&gt;ed25519</title>
<path fill="none" stroke="black" d="M650.7,-359.7C652.28,-352.32 654.16,-343.52 655.94,-335.25"/>
<polygon fill="black" stroke="black" points="659.33,-336.1 658.01,-325.58 652.49,-334.63 659.33,-336.1"/>
</g>
<!-- from_bcs&#45;&gt;string -->
<g id="edge31" class="edge">
<title>from_bcs&#45;&gt;string</title>
<path fill="none" stroke="black" d="M488.14,-287.89C491.18,-277.54 495,-264.07 497.99,-252 503,-231.82 507.88,-208.86 511.44,-191.32"/>
<polygon fill="black" stroke="black" points="514.85,-192.11 513.38,-181.62 507.98,-190.74 514.85,-192.11"/>
</g>
<!-- event&#45;&gt;bcs -->
<g id="edge32" class="edge">
<title>event&#45;&gt;bcs</title>
<path fill="none" stroke="black" d="M846.61,-360.1C840.75,-342.08 830.89,-312.77 820.99,-288 817.55,-279.39 813.49,-270.14 809.7,-261.82"/>
<polygon fill="black" stroke="black" points="812.96,-260.52 805.58,-252.92 806.6,-263.46 812.96,-260.52"/>
</g>
<!-- event&#45;&gt;guid -->
<g id="edge33" class="edge">
<title>event&#45;&gt;guid</title>
<path fill="none" stroke="black" d="M862.88,-361.12C868.77,-352.52 876.19,-341.72 882.83,-332.02"/>
<polygon fill="black" stroke="black" points="885.52,-334.3 888.29,-324.07 879.74,-330.34 885.52,-334.3"/>
</g>
<!-- string&#45;&gt;vector -->
<g id="edge34" class="edge">
<title>string&#45;&gt;vector</title>
<path fill="none" stroke="black" d="M516.99,-143.59C516.99,-119.61 516.99,-76.14 516.99,-47.42"/>
<polygon fill="black" stroke="black" points="520.49,-47.62 516.99,-37.62 513.49,-47.62 520.49,-47.62"/>
</g>
<!-- string&#45;&gt;option -->
<g id="edge35" class="edge">
<title>string&#45;&gt;option</title>
<path fill="none" stroke="black" d="M540.99,-150.37C567.13,-138.79 609.22,-120.14 639.25,-106.83"/>
<polygon fill="black" stroke="black" points="640.61,-110.06 648.34,-102.81 637.78,-103.66 640.61,-110.06"/>
</g>
<!-- features&#45;&gt;signer -->
<g id="edge36" class="edge">
<title>features&#45;&gt;signer</title>
<path fill="none" stroke="black" d="M241.04,-149.28C212.63,-137.38 168.53,-118.89 137.63,-105.94"/>
<polygon fill="black" stroke="black" points="139.27,-102.83 128.69,-102.19 136.56,-109.29 139.27,-102.83"/>
</g>
<!-- features&#45;&gt;error -->
<g id="edge37" class="edge">
<title>features&#45;&gt;error</title>
<path fill="none" stroke="black" d="M287.43,-145.81C299.49,-135.88 315.41,-122.77 328.65,-111.87"/>
<polygon fill="black" stroke="black" points="330.65,-114.76 336.14,-105.7 326.2,-109.35 330.65,-114.76"/>
</g>
</g>
</svg>
