<?xml version="1.0" encoding="UTF-8" standalone="no"?>
<!DOCTYPE svg PUBLIC "-//W3C//DTD SVG 1.1//EN"
 "http://www.w3.org/Graphics/SVG/1.1/DTD/svg11.dtd">
<!-- Generated by graphviz version 7.0.0 (20221023.0053)
 -->
<!-- Title: G Pages: 1 -->
<svg width="2334pt" height="385pt"
 viewBox="0.00 0.00 2334.00 385.00" xmlns="http://www.w3.org/2000/svg" xmlns:xlink="http://www.w3.org/1999/xlink">
<g id="graph0" class="graph" transform="scale(1 1) rotate(0) translate(4 381)">
<title>G</title>
<polygon fill="white" stroke="none" points="-4,4 -4,-381 2330,-381 2330,4 -4,4"/>
<g id="clust1" class="cluster">
<title>cluster_aptos_governance</title>
<polygon fill="none" stroke="black" points="8,-64 8,-214 304,-214 304,-64 8,-64"/>
<text text-anchor="middle" x="156" y="-198.8" font-family="Times,serif" font-size="14.00">aptos_governance</text>
</g>
<g id="clust2" class="cluster">
<title>cluster_vesting</title>
<polygon fill="none" stroke="black" points="312,-64 312,-369 1589,-369 1589,-64 312,-64"/>
<text text-anchor="middle" x="950.5" y="-353.8" font-family="Times,serif" font-size="14.00">vesting</text>
</g>
<g id="clust3" class="cluster">
<title>cluster_resource_account</title>
<polygon fill="none" stroke="black" points="1597,-64 1597,-139 1853,-139 1853,-64 1597,-64"/>
<text text-anchor="middle" x="1725" y="-123.8" font-family="Times,serif" font-size="14.00">resource_account</text>
</g>
<g id="clust4" class="cluster">
<title>cluster_staking_proxy</title>
<polygon fill="none" stroke="black" points="1841,-222 1841,-369 2318,-369 2318,-222 1841,-222"/>
<text text-anchor="middle" x="2079.5" y="-353.8" font-family="Times,serif" font-size="14.00">staking_proxy</text>
</g>
<g id="clust5" class="cluster">
<title>cluster_genesis</title>
<polygon fill="none" stroke="black" points="1597,-294 1597,-369 1833,-369 1833,-294 1597,-294"/>
<text text-anchor="middle" x="1715" y="-353.8" font-family="Times,serif" font-size="14.00">genesis</text>
</g>
<!-- create_signer_with_capability -->
<g id="node1" class="node">
<title>create_signer_with_capability</title>
<ellipse fill="none" stroke="black" cx="930" cy="-18" rx="116.18" ry="18"/>
<text text-anchor="middle" x="930" y="-14.3" font-family="Times,serif" font-size="14.00">create_signer_with_capability</text>
</g>
<!-- aptos_governance::get_signer -->
<g id="node2" class="node">
<title>aptos_governance::get_signer</title>
<ellipse fill="none" stroke="black" cx="249" cy="-90" rx="47.39" ry="18"/>
<text text-anchor="middle" x="249" y="-86.3" font-family="Times,serif" font-size="14.00">get_signer</text>
</g>
<!-- aptos_governance::get_signer&#45;&gt;create_signer_with_capability -->
<g id="edge1" class="edge">
<title>aptos_governance::get_signer&#45;&gt;create_signer_with_capability</title>
<path fill="none" stroke="black" d="M276.87,-74.97C286.5,-70.73 297.51,-66.53 308,-64 399.26,-42 652.29,-29.16 806.05,-23.16"/>
<polygon fill="black" stroke="black" points="806.03,-26.66 815.89,-22.78 805.77,-19.67 806.03,-26.66"/>
</g>
<!-- vesting::get_vesting_account_signer_internal -->
<g id="node3" class="node">
<title>vesting::get_vesting_account_signer_internal</title>
<ellipse fill="none" stroke="black" cx="930" cy="-90" rx="139.98" ry="18"/>
<text text-anchor="middle" x="930" y="-86.3" font-family="Times,serif" font-size="14.00">get_vesting_account_signer_internal</text>
</g>
<!-- vesting::get_vesting_account_signer_internal&#45;&gt;create_signer_with_capability -->
<g id="edge2" class="edge">
<title>vesting::get_vesting_account_signer_internal&#45;&gt;create_signer_with_capability</title>
<path fill="none" stroke="black" d="M930,-71.7C930,-64.41 930,-55.73 930,-47.54"/>
<polygon fill="black" stroke="black" points="933.5,-47.62 930,-37.62 926.5,-47.62 933.5,-47.62"/>
</g>
<!-- resource_account::retrieve_resource_account_cap -->
<g id="node4" class="node">
<title>resource_account::retrieve_resource_account_cap</title>
<ellipse fill="none" stroke="black" cx="1725" cy="-90" rx="120.48" ry="18"/>
<text text-anchor="middle" x="1725" y="-86.3" font-family="Times,serif" font-size="14.00">retrieve_resource_account_cap</text>
</g>
<!-- resource_account::retrieve_resource_account_cap&#45;&gt;create_signer_with_capability -->
<g id="edge3" class="edge">
<title>resource_account::retrieve_resource_account_cap&#45;&gt;create_signer_with_capability</title>
<path fill="none" stroke="black" d="M1657.76,-74.66C1637.07,-70.68 1614.17,-66.71 1593,-64 1406.2,-40.06 1188.04,-28.35 1054.48,-23.01"/>
<polygon fill="black" stroke="black" points="1054.66,-19.52 1044.53,-22.62 1054.38,-26.51 1054.66,-19.52"/>
</g>
<!-- aptos_governance::resolve -->
<g id="node5" class="node">
<title>aptos_governance::resolve</title>
<ellipse fill="none" stroke="black" cx="260" cy="-165" rx="36.29" ry="18"/>
<text text-anchor="middle" x="260" y="-161.3" font-family="Times,serif" font-size="14.00">resolve</text>
</g>
<!-- aptos_governance::resolve&#45;&gt;aptos_governance::get_signer -->
<g id="edge4" class="edge">
<title>aptos_governance::resolve&#45;&gt;aptos_governance::get_signer</title>
<path fill="none" stroke="black" d="M257.39,-146.7C256.18,-138.67 254.71,-128.9 253.34,-119.8"/>
<polygon fill="black" stroke="black" points="256.8,-119.29 251.85,-109.93 249.88,-120.34 256.8,-119.29"/>
</g>
<!-- aptos_governance::get_signer_testnet_only -->
<g id="node6" class="node">
<title>aptos_governance::get_signer_testnet_only</title>
<ellipse fill="none" stroke="black" cx="111" cy="-165" rx="94.78" ry="18"/>
<text text-anchor="middle" x="111" y="-161.3" font-family="Times,serif" font-size="14.00">get_signer_testnet_only</text>
</g>
<!-- aptos_governance::get_signer_testnet_only&#45;&gt;aptos_governance::get_signer -->
<g id="edge5" class="edge">
<title>aptos_governance::get_signer_testnet_only&#45;&gt;aptos_governance::get_signer</title>
<path fill="none" stroke="black" d="M141.97,-147.62C162.82,-136.59 190.42,-121.99 212.37,-110.38"/>
<polygon fill="black" stroke="black" points="213.78,-113.59 220.98,-105.82 210.51,-107.4 213.78,-113.59"/>
</g>
<!-- vesting::reset_lockup -->
<g id="node7" class="node">
<title>vesting::reset_lockup</title>
<ellipse fill="none" stroke="black" cx="1525" cy="-165" rx="55.79" ry="18"/>
<text text-anchor="middle" x="1525" y="-161.3" font-family="Times,serif" font-size="14.00">reset_lockup</text>
</g>
<!-- vesting::reset_lockup&#45;&gt;vesting::get_vesting_account_signer_internal -->
<g id="edge6" class="edge">
<title>vesting::reset_lockup&#45;&gt;vesting::get_vesting_account_signer_internal</title>
<path fill="none" stroke="black" d="M1484.59,-152.25C1476.81,-150.28 1468.69,-148.42 1461,-147 1327.61,-122.4 1173.23,-107.63 1065.43,-99.48"/>
<polygon fill="black" stroke="black" points="1065.91,-96.01 1055.67,-98.76 1065.39,-102.99 1065.91,-96.01"/>
</g>
<!-- vesting::unlock_rewards -->
<g id="node8" class="node">
<title>vesting::unlock_rewards</title>
<ellipse fill="none" stroke="black" cx="669" cy="-165" rx="66.89" ry="18"/>
<text text-anchor="middle" x="669" y="-161.3" font-family="Times,serif" font-size="14.00">unlock_rewards</text>
</g>
<!-- vesting::unlock_rewards&#45;&gt;vesting::get_vesting_account_signer_internal -->
<g id="edge7" class="edge">
<title>vesting::unlock_rewards&#45;&gt;vesting::get_vesting_account_signer_internal</title>
<path fill="none" stroke="black" d="M714.16,-151.37C755.09,-139.92 815.96,-122.9 862.63,-109.84"/>
<polygon fill="black" stroke="black" points="863.42,-113.26 872.11,-107.19 861.54,-106.51 863.42,-113.26"/>
</g>
<!-- vesting::unlock_stake -->
<g id="node9" class="node">
<title>vesting::unlock_stake</title>
<ellipse fill="none" stroke="black" cx="527" cy="-165" rx="57.39" ry="18"/>
<text text-anchor="middle" x="527" y="-161.3" font-family="Times,serif" font-size="14.00">unlock_stake</text>
</g>
<!-- vesting::unlock_stake&#45;&gt;vesting::get_vesting_account_signer_internal -->
<g id="edge8" class="edge">
<title>vesting::unlock_stake&#45;&gt;vesting::get_vesting_account_signer_internal</title>
<path fill="none" stroke="black" d="M569.48,-152.48C577.27,-150.53 585.36,-148.62 593,-147 671.19,-130.47 760.44,-115.82 827.43,-105.66"/>
<polygon fill="black" stroke="black" points="827.55,-109.18 836.92,-104.23 826.51,-102.26 827.55,-109.18"/>
</g>
<!-- vesting::update_voter -->
<g id="node10" class="node">
<title>vesting::update_voter</title>
<ellipse fill="none" stroke="black" cx="1395" cy="-165" rx="56.59" ry="18"/>
<text text-anchor="middle" x="1395" y="-161.3" font-family="Times,serif" font-size="14.00">update_voter</text>
</g>
<!-- vesting::update_voter&#45;&gt;vesting::get_vesting_account_signer_internal -->
<g id="edge9" class="edge">
<title>vesting::update_voter&#45;&gt;vesting::get_vesting_account_signer_internal</title>
<path fill="none" stroke="black" d="M1353.56,-152.39C1345.77,-150.43 1337.66,-148.53 1330,-147 1234.94,-127.98 1125.9,-113.17 1045.7,-103.57"/>
<polygon fill="black" stroke="black" points="1046.42,-100.14 1036.08,-102.43 1045.6,-107.09 1046.42,-100.14"/>
</g>
<!-- vesting::get_vesting_account_signer -->
<g id="node11" class="node">
<title>vesting::get_vesting_account_signer</title>
<ellipse fill="none" stroke="black" cx="1212" cy="-165" rx="108.58" ry="18"/>
<text text-anchor="middle" x="1212" y="-161.3" font-family="Times,serif" font-size="14.00">get_vesting_account_signer</text>
</g>
<!-- vesting::get_vesting_account_signer&#45;&gt;vesting::get_vesting_account_signer_internal -->
<g id="edge10" class="edge">
<title>vesting::get_vesting_account_signer&#45;&gt;vesting::get_vesting_account_signer_internal</title>
<path fill="none" stroke="black" d="M1155.27,-149.32C1110.96,-137.84 1049.1,-121.83 1001.41,-109.49"/>
<polygon fill="black" stroke="black" points="1002.56,-106.17 992,-107.05 1000.81,-112.95 1002.56,-106.17"/>
</g>
<!-- vesting::set_management_role -->
<g id="node12" class="node">
<title>vesting::set_management_role</title>
<ellipse fill="none" stroke="black" cx="843" cy="-165" rx="89.08" ry="18"/>
<text text-anchor="middle" x="843" y="-161.3" font-family="Times,serif" font-size="14.00">set_management_role</text>
</g>
<!-- vesting::set_management_role&#45;&gt;vesting::get_vesting_account_signer_internal -->
<g id="edge11" class="edge">
<title>vesting::set_management_role&#45;&gt;vesting::get_vesting_account_signer_internal</title>
<path fill="none" stroke="black" d="M863.18,-147.07C874.41,-137.65 888.58,-125.75 900.98,-115.35"/>
<polygon fill="black" stroke="black" points="903.06,-118.17 908.47,-109.07 898.56,-112.81 903.06,-118.17"/>
</g>
<!-- vesting::update_operator -->
<g id="node13" class="node">
<title>vesting::update_operator</title>
<ellipse fill="none" stroke="black" cx="1018" cy="-165" rx="67.69" ry="18"/>
<text text-anchor="middle" x="1018" y="-161.3" font-family="Times,serif" font-size="14.00">update_operator</text>
</g>
<!-- vesting::update_operator&#45;&gt;vesting::get_vesting_account_signer_internal -->
<g id="edge12" class="edge">
<title>vesting::update_operator&#45;&gt;vesting::get_vesting_account_signer_internal</title>
<path fill="none" stroke="black" d="M998.03,-147.44C986.69,-138.02 972.27,-126.06 959.63,-115.58"/>
<polygon fill="black" stroke="black" points="961.9,-112.92 951.97,-109.23 957.43,-118.31 961.9,-112.92"/>
</g>
<!-- vesting::withdraw_stake -->
<g id="node14" class="node">
<title>vesting::withdraw_stake</title>
<ellipse fill="none" stroke="black" cx="386" cy="-165" rx="66.09" ry="18"/>
<text text-anchor="middle" x="386" y="-161.3" font-family="Times,serif" font-size="14.00">withdraw_stake</text>
</g>
<!-- vesting::withdraw_stake&#45;&gt;vesting::get_vesting_account_signer_internal -->
<g id="edge13" class="edge">
<title>vesting::withdraw_stake&#45;&gt;vesting::get_vesting_account_signer_internal</title>
<path fill="none" stroke="black" d="M434.27,-152.28C443.13,-150.35 452.32,-148.5 461,-147 577.48,-126.9 711.47,-111.68 806.34,-102.22"/>
<polygon fill="black" stroke="black" points="806.59,-105.71 816.2,-101.24 805.9,-98.75 806.59,-105.71"/>
</g>
<!-- vesting::vest -->
<g id="node15" class="node">
<title>vesting::vest</title>
<ellipse fill="none" stroke="black" cx="651" cy="-248" rx="27" ry="18"/>
<text text-anchor="middle" x="651" y="-244.3" font-family="Times,serif" font-size="14.00">vest</text>
</g>
<!-- vesting::vest&#45;&gt;vesting::unlock_rewards -->
<g id="edge14" class="edge">
<title>vesting::vest&#45;&gt;vesting::unlock_rewards</title>
<path fill="none" stroke="black" d="M654.82,-229.82C657.09,-219.58 660.04,-206.33 662.66,-194.55"/>
<polygon fill="black" stroke="black" points="666.05,-195.43 664.8,-184.91 659.21,-193.91 666.05,-195.43"/>
</g>
<!-- vesting::vest&#45;&gt;vesting::unlock_stake -->
<g id="edge16" class="edge">
<title>vesting::vest&#45;&gt;vesting::unlock_stake</title>
<path fill="none" stroke="black" d="M630.27,-235.94C619.06,-229.77 605.07,-221.79 593,-214 580.91,-206.2 568.02,-197.03 556.88,-188.81"/>
<polygon fill="black" stroke="black" points="559.3,-186.25 549.19,-183.08 555.12,-191.87 559.3,-186.25"/>
</g>
<!-- vesting::terminate_vesting_contract -->
<g id="node16" class="node">
<title>vesting::terminate_vesting_contract</title>
<ellipse fill="none" stroke="black" cx="555" cy="-320" rx="106.68" ry="18"/>
<text text-anchor="middle" x="555" y="-316.3" font-family="Times,serif" font-size="14.00">terminate_vesting_contract</text>
</g>
<!-- vesting::terminate_vesting_contract&#45;&gt;vesting::unlock_stake -->
<g id="edge15" class="edge">
<title>vesting::terminate_vesting_contract&#45;&gt;vesting::unlock_stake</title>
<path fill="none" stroke="black" d="M564.86,-301.75C574.78,-282.01 587.28,-248.94 577,-222 572.46,-210.1 564.09,-199.12 555.49,-190.09"/>
<polygon fill="black" stroke="black" points="557.96,-187.62 548.37,-183.13 553.07,-192.62 557.96,-187.62"/>
</g>
<!-- vesting::distribute -->
<g id="node21" class="node">
<title>vesting::distribute</title>
<ellipse fill="none" stroke="black" cx="524" cy="-248" rx="44.39" ry="18"/>
<text text-anchor="middle" x="524" y="-244.3" font-family="Times,serif" font-size="14.00">distribute</text>
</g>
<!-- vesting::terminate_vesting_contract&#45;&gt;vesting::distribute -->
<g id="edge26" class="edge">
<title>vesting::terminate_vesting_contract&#45;&gt;vesting::distribute</title>
<path fill="none" stroke="black" d="M547.34,-301.7C543.96,-294.07 539.91,-284.92 536.13,-276.4"/>
<polygon fill="black" stroke="black" points="539.44,-275.21 532.19,-267.49 533.04,-278.05 539.44,-275.21"/>
</g>
<!-- staking_proxy::set_vesting_contract_voter -->
<g id="node17" class="node">
<title>staking_proxy::set_vesting_contract_voter</title>
<ellipse fill="none" stroke="black" cx="2205" cy="-248" rx="105.08" ry="18"/>
<text text-anchor="middle" x="2205" y="-244.3" font-family="Times,serif" font-size="14.00">set_vesting_contract_voter</text>
</g>
<!-- staking_proxy::set_vesting_contract_voter&#45;&gt;vesting::update_voter -->
<g id="edge17" class="edge">
<title>staking_proxy::set_vesting_contract_voter&#45;&gt;vesting::update_voter</title>
<path fill="none" stroke="black" d="M2148.64,-232.38C2130.09,-228.2 2109.29,-224.2 2090,-222 2055.22,-218.04 1493.18,-225.16 1460,-214 1445.21,-209.03 1430.99,-199.31 1419.65,-189.91"/>
<polygon fill="black" stroke="black" points="1422.19,-187.48 1412.36,-183.54 1417.58,-192.75 1422.19,-187.48"/>
</g>
<!-- vesting::set_beneficiary_resetter -->
<g id="node18" class="node">
<title>vesting::set_beneficiary_resetter</title>
<ellipse fill="none" stroke="black" cx="843" cy="-248" rx="94.78" ry="18"/>
<text text-anchor="middle" x="843" y="-244.3" font-family="Times,serif" font-size="14.00">set_beneficiary_resetter</text>
</g>
<!-- vesting::set_beneficiary_resetter&#45;&gt;vesting::set_management_role -->
<g id="edge18" class="edge">
<title>vesting::set_beneficiary_resetter&#45;&gt;vesting::set_management_role</title>
<path fill="none" stroke="black" d="M843,-229.82C843,-219.69 843,-206.6 843,-194.92"/>
<polygon fill="black" stroke="black" points="846.5,-194.95 843,-184.95 839.5,-194.95 846.5,-194.95"/>
</g>
<!-- vesting::update_operator_with_same_commission -->
<g id="node19" class="node">
<title>vesting::update_operator_with_same_commission</title>
<ellipse fill="none" stroke="black" cx="1114" cy="-248" rx="158.67" ry="18"/>
<text text-anchor="middle" x="1114" y="-244.3" font-family="Times,serif" font-size="14.00">update_operator_with_same_commission</text>
</g>
<!-- vesting::update_operator_with_same_commission&#45;&gt;vesting::update_operator -->
<g id="edge19" class="edge">
<title>vesting::update_operator_with_same_commission&#45;&gt;vesting::update_operator</title>
<path fill="none" stroke="black" d="M1093.64,-229.82C1079.84,-218.18 1061.41,-202.63 1046.2,-189.79"/>
<polygon fill="black" stroke="black" points="1048.73,-187.35 1038.83,-183.58 1044.22,-192.7 1048.73,-187.35"/>
</g>
<!-- staking_proxy::set_vesting_contract_operator -->
<g id="node20" class="node">
<title>staking_proxy::set_vesting_contract_operator</title>
<ellipse fill="none" stroke="black" cx="1965" cy="-248" rx="116.18" ry="18"/>
<text text-anchor="middle" x="1965" y="-244.3" font-family="Times,serif" font-size="14.00">set_vesting_contract_operator</text>
</g>
<!-- staking_proxy::set_vesting_contract_operator&#45;&gt;vesting::update_operator -->
<g id="edge20" class="edge">
<title>staking_proxy::set_vesting_contract_operator&#45;&gt;vesting::update_operator</title>
<path fill="none" stroke="black" d="M1864.03,-238.81C1789.25,-233.09 1684.84,-225.82 1593,-222 1565.3,-220.85 1120.57,-221.92 1094,-214 1077.03,-208.94 1060.18,-198.94 1046.66,-189.37"/>
<polygon fill="black" stroke="black" points="1048.8,-186.59 1038.68,-183.45 1044.63,-192.22 1048.8,-186.59"/>
</g>
<!-- vesting::distribute&#45;&gt;vesting::withdraw_stake -->
<g id="edge21" class="edge">
<title>vesting::distribute&#45;&gt;vesting::withdraw_stake</title>
<path fill="none" stroke="black" d="M496.74,-233.38C485.55,-227.61 472.53,-220.69 461,-214 447.15,-205.96 432.23,-196.57 419.37,-188.23"/>
<polygon fill="black" stroke="black" points="421.54,-185.47 411.26,-182.93 417.71,-191.33 421.54,-185.47"/>
</g>
<!-- vesting::admin_withdraw -->
<g id="node22" class="node">
<title>vesting::admin_withdraw</title>
<ellipse fill="none" stroke="black" cx="391" cy="-248" rx="70.69" ry="18"/>
<text text-anchor="middle" x="391" y="-244.3" font-family="Times,serif" font-size="14.00">admin_withdraw</text>
</g>
<!-- vesting::admin_withdraw&#45;&gt;vesting::withdraw_stake -->
<g id="edge22" class="edge">
<title>vesting::admin_withdraw&#45;&gt;vesting::withdraw_stake</title>
<path fill="none" stroke="black" d="M389.94,-229.82C389.31,-219.69 388.51,-206.6 387.79,-194.92"/>
<polygon fill="black" stroke="black" points="391.28,-194.71 387.17,-184.94 384.29,-195.14 391.28,-194.71"/>
</g>
<!-- staking_proxy::set_voter -->
<g id="node23" class="node">
<title>staking_proxy::set_voter</title>
<ellipse fill="none" stroke="black" cx="2205" cy="-320" rx="42.79" ry="18"/>
<text text-anchor="middle" x="2205" y="-316.3" font-family="Times,serif" font-size="14.00">set_voter</text>
</g>
<!-- staking_proxy::set_voter&#45;&gt;staking_proxy::set_vesting_contract_voter -->
<g id="edge23" class="edge">
<title>staking_proxy::set_voter&#45;&gt;staking_proxy::set_vesting_contract_voter</title>
<path fill="none" stroke="black" d="M2205,-301.7C2205,-294.41 2205,-285.73 2205,-277.54"/>
<polygon fill="black" stroke="black" points="2208.5,-277.62 2205,-267.62 2201.5,-277.62 2208.5,-277.62"/>
</g>
<!-- genesis::create_employee_validators -->
<g id="node24" class="node">
<title>genesis::create_employee_validators</title>
<ellipse fill="none" stroke="black" cx="1715" cy="-320" rx="109.68" ry="18"/>
<text text-anchor="middle" x="1715" y="-316.3" font-family="Times,serif" font-size="14.00">create_employee_validators</text>
</g>
<!-- genesis::create_employee_validators&#45;&gt;vesting::set_beneficiary_resetter -->
<g id="edge24" class="edge">
<title>genesis::create_employee_validators&#45;&gt;vesting::set_beneficiary_resetter</title>
<path fill="none" stroke="black" d="M1654.5,-304.62C1634.98,-300.52 1613.17,-296.49 1593,-294 1307.34,-258.78 1232.29,-295.71 946,-266 937.79,-265.15 929.24,-264.06 920.73,-262.85"/>
<polygon fill="black" stroke="black" points="921.51,-259.43 911.1,-261.42 920.48,-266.35 921.51,-259.43"/>
</g>
<!-- staking_proxy::set_operator -->
<g id="node25" class="node">
<title>staking_proxy::set_operator</title>
<ellipse fill="none" stroke="black" cx="1965" cy="-320" rx="53.89" ry="18"/>
<text text-anchor="middle" x="1965" y="-316.3" font-family="Times,serif" font-size="14.00">set_operator</text>
</g>
<!-- staking_proxy::set_operator&#45;&gt;staking_proxy::set_vesting_contract_operator -->
<g id="edge25" class="edge">
<title>staking_proxy::set_operator&#45;&gt;staking_proxy::set_vesting_contract_operator</title>
<path fill="none" stroke="black" d="M1965,-301.7C1965,-294.41 1965,-285.73 1965,-277.54"/>
<polygon fill="black" stroke="black" points="1968.5,-277.62 1965,-267.62 1961.5,-277.62 1968.5,-277.62"/>
</g>
</g>
</svg>
