<?xml version="1.0" encoding="UTF-8" standalone="no"?>
<!DOCTYPE svg PUBLIC "-//W3C//DTD SVG 1.1//EN"
 "http://www.w3.org/Graphics/SVG/1.1/DTD/svg11.dtd">
<!-- Generated by graphviz version 7.0.0 (20221023.0053)
 -->
<!-- Title: G Pages: 1 -->
<svg width="2206pt" height="781pt"
 viewBox="0.00 0.00 2206.00 781.00" xmlns="http://www.w3.org/2000/svg" xmlns:xlink="http://www.w3.org/1999/xlink">
<g id="graph0" class="graph" transform="scale(1 1) rotate(0) translate(4 777)">
<title>G</title>
<polygon fill="white" stroke="none" points="-4,4 -4,-777 2202,-777 2202,4 -4,4"/>
<g id="clust1" class="cluster">
<title>cluster_coin</title>
<polygon fill="none" stroke="black" points="1583,-230 1583,-305 1673,-305 1673,-230 1583,-230"/>
<text text-anchor="middle" x="1628" y="-289.8" font-family="Times,serif" font-size="14.00">coin</text>
</g>
<g id="clust2" class="cluster">
<title>cluster_voting</title>
<polygon fill="none" stroke="black" points="1023,-64 1023,-139 1113,-139 1113,-64 1023,-64"/>
<text text-anchor="middle" x="1068" y="-123.8" font-family="Times,serif" font-size="14.00">voting</text>
</g>
<g id="clust3" class="cluster">
<title>cluster_stake</title>
<polygon fill="none" stroke="black" points="116,-64 116,-222 485,-222 485,-64 116,-64"/>
<text text-anchor="middle" x="300.5" y="-206.8" font-family="Times,serif" font-size="14.00">stake</text>
</g>
<g id="clust4" class="cluster">
<title>cluster_reconfiguration</title>
<polygon fill="none" stroke="black" points="8,-64 8,-139 108,-139 108,-64 8,-64"/>
<text text-anchor="middle" x="58" y="-123.8" font-family="Times,serif" font-size="14.00">reconfiguration</text>
</g>
<g id="clust5" class="cluster">
<title>cluster_aptos_governance</title>
<polygon fill="none" stroke="black" points="956,-147 956,-305 1174,-305 1174,-147 956,-147"/>
<text text-anchor="middle" x="1065" y="-289.8" font-family="Times,serif" font-size="14.00">aptos_governance</text>
</g>
<g id="clust6" class="cluster">
<title>cluster_block</title>
<polygon fill="none" stroke="black" points="883,-64 883,-139 983,-139 983,-64 883,-64"/>
<text text-anchor="middle" x="933" y="-123.8" font-family="Times,serif" font-size="14.00">block</text>
</g>
<g id="clust7" class="cluster">
<title>cluster_staking_contract</title>
<polygon fill="none" stroke="black" points="116,-230 116,-471 534,-471 534,-230 116,-230"/>
<text text-anchor="middle" x="325" y="-455.8" font-family="Times,serif" font-size="14.00">staking_contract</text>
</g>
<g id="clust8" class="cluster">
<title>cluster_vesting</title>
<polygon fill="none" stroke="black" points="1340,-313 1340,-471 1608,-471 1608,-313 1340,-313"/>
<text text-anchor="middle" x="1474" y="-455.8" font-family="Times,serif" font-size="14.00">vesting</text>
</g>
<g id="clust9" class="cluster">
<title>cluster_aptos_coin</title>
<polygon fill="none" stroke="black" points="1425,-615 1425,-690 1661,-690 1661,-615 1425,-615"/>
<text text-anchor="middle" x="1543" y="-674.8" font-family="Times,serif" font-size="14.00">aptos_coin</text>
</g>
<g id="clust10" class="cluster">
<title>cluster_aptos_account</title>
<polygon fill="none" stroke="black" points="1648,-313 1648,-471 1792,-471 1792,-313 1648,-313"/>
<text text-anchor="middle" x="1720" y="-455.8" font-family="Times,serif" font-size="14.00">aptos_account</text>
</g>
<g id="clust11" class="cluster">
<title>cluster_genesis</title>
<polygon fill="none" stroke="black" points="542,-396 542,-765 1332,-765 1332,-396 542,-396"/>
<text text-anchor="middle" x="937" y="-749.8" font-family="Times,serif" font-size="14.00">genesis</text>
</g>
<g id="clust12" class="cluster">
<title>cluster_managed_coin</title>
<polygon fill="none" stroke="black" points="1800,-313 1800,-388 1896,-388 1896,-313 1800,-313"/>
<text text-anchor="middle" x="1848" y="-372.8" font-family="Times,serif" font-size="14.00">managed_coin</text>
</g>
<g id="clust13" class="cluster">
<title>cluster_resource_account</title>
<polygon fill="none" stroke="black" points="1904,-313 1904,-388 2190,-388 2190,-313 1904,-313"/>
<text text-anchor="middle" x="2047" y="-372.8" font-family="Times,serif" font-size="14.00">resource_account</text>
</g>
<!-- new_event_handle -->
<g id="node1" class="node">
<title>new_event_handle</title>
<ellipse fill="none" stroke="black" cx="968" cy="-18" rx="76.89" ry="18"/>
<text text-anchor="middle" x="968" y="-14.3" font-family="Times,serif" font-size="14.00">new_event_handle</text>
</g>
<!-- coin::register -->
<g id="node2" class="node">
<title>coin::register</title>
<ellipse fill="none" stroke="black" cx="1628" cy="-256" rx="37.09" ry="18"/>
<text text-anchor="middle" x="1628" y="-252.3" font-family="Times,serif" font-size="14.00">register</text>
</g>
<!-- coin::register&#45;&gt;new_event_handle -->
<g id="edge1" class="edge">
<title>coin::register&#45;&gt;new_event_handle</title>
<path fill="none" stroke="black" d="M1607.43,-240.67C1554.44,-204.5 1407.81,-109.24 1271,-64 1199.94,-40.5 1115.43,-29.24 1053.74,-23.86"/>
<polygon fill="black" stroke="black" points="1054.26,-20.39 1044,-23.05 1053.68,-27.37 1054.26,-20.39"/>
</g>
<!-- voting::register -->
<g id="node3" class="node">
<title>voting::register</title>
<ellipse fill="none" stroke="black" cx="1068" cy="-90" rx="37.09" ry="18"/>
<text text-anchor="middle" x="1068" y="-86.3" font-family="Times,serif" font-size="14.00">register</text>
</g>
<!-- voting::register&#45;&gt;new_event_handle -->
<g id="edge2" class="edge">
<title>voting::register&#45;&gt;new_event_handle</title>
<path fill="none" stroke="black" d="M1047.76,-74.83C1034.34,-65.44 1016.42,-52.89 1000.96,-42.08"/>
<polygon fill="black" stroke="black" points="1003.16,-39.34 992.96,-36.47 999.15,-45.08 1003.16,-39.34"/>
</g>
<!-- stake::initialize_owner -->
<g id="node4" class="node">
<title>stake::initialize_owner</title>
<ellipse fill="none" stroke="black" cx="387" cy="-90" rx="67.69" ry="18"/>
<text text-anchor="middle" x="387" y="-86.3" font-family="Times,serif" font-size="14.00">initialize_owner</text>
</g>
<!-- stake::initialize_owner&#45;&gt;new_event_handle -->
<g id="edge3" class="edge">
<title>stake::initialize_owner&#45;&gt;new_event_handle</title>
<path fill="none" stroke="black" d="M447.81,-81.67C553.83,-68.9 772.4,-42.57 889.64,-28.44"/>
<polygon fill="black" stroke="black" points="889.99,-31.92 899.5,-27.25 889.15,-24.97 889.99,-31.92"/>
</g>
<!-- reconfiguration::initialize -->
<g id="node5" class="node">
<title>reconfiguration::initialize</title>
<ellipse fill="none" stroke="black" cx="58" cy="-90" rx="41.69" ry="18"/>
<text text-anchor="middle" x="58" y="-86.3" font-family="Times,serif" font-size="14.00">initialize</text>
</g>
<!-- reconfiguration::initialize&#45;&gt;new_event_handle -->
<g id="edge4" class="edge">
<title>reconfiguration::initialize&#45;&gt;new_event_handle</title>
<path fill="none" stroke="black" d="M82.82,-75.1C91.75,-70.76 102.07,-66.46 112,-64 255.34,-28.46 690.92,-20.98 879.46,-19.41"/>
<polygon fill="black" stroke="black" points="879.48,-22.91 889.45,-19.33 879.43,-15.91 879.48,-22.91"/>
</g>
<!-- aptos_governance::initialize -->
<g id="node6" class="node">
<title>aptos_governance::initialize</title>
<ellipse fill="none" stroke="black" cx="1065" cy="-173" rx="41.69" ry="18"/>
<text text-anchor="middle" x="1065" y="-169.3" font-family="Times,serif" font-size="14.00">initialize</text>
</g>
<!-- aptos_governance::initialize&#45;&gt;new_event_handle -->
<g id="edge5" class="edge">
<title>aptos_governance::initialize&#45;&gt;new_event_handle</title>
<path fill="none" stroke="black" d="M1040.47,-158.07C1032.84,-152.85 1024.9,-146.37 1019,-139 1018.61,-138.51 994.58,-81.81 979.65,-46.53"/>
<polygon fill="black" stroke="black" points="983.05,-45.6 975.93,-37.75 976.61,-48.32 983.05,-45.6"/>
</g>
<!-- aptos_governance::initialize&#45;&gt;voting::register -->
<g id="edge15" class="edge">
<title>aptos_governance::initialize&#45;&gt;voting::register</title>
<path fill="none" stroke="black" d="M1065.64,-154.82C1066.01,-144.69 1066.5,-131.6 1066.93,-119.92"/>
<polygon fill="black" stroke="black" points="1070.43,-120.07 1067.3,-109.95 1063.43,-119.81 1070.43,-120.07"/>
</g>
<!-- block::initialize -->
<g id="node7" class="node">
<title>block::initialize</title>
<ellipse fill="none" stroke="black" cx="933" cy="-90" rx="41.69" ry="18"/>
<text text-anchor="middle" x="933" y="-86.3" font-family="Times,serif" font-size="14.00">initialize</text>
</g>
<!-- block::initialize&#45;&gt;new_event_handle -->
<g id="edge6" class="edge">
<title>block::initialize&#45;&gt;new_event_handle</title>
<path fill="none" stroke="black" d="M941.47,-72.05C945.33,-64.35 949.99,-55.03 954.32,-46.36"/>
<polygon fill="black" stroke="black" points="957.34,-48.14 958.69,-37.63 951.08,-45.01 957.34,-48.14"/>
</g>
<!-- staking_contract::new_staking_contracts_holder -->
<g id="node8" class="node">
<title>staking_contract::new_staking_contracts_holder</title>
<ellipse fill="none" stroke="black" cx="408" cy="-256" rx="118.08" ry="18"/>
<text text-anchor="middle" x="408" y="-252.3" font-family="Times,serif" font-size="14.00">new_staking_contracts_holder</text>
</g>
<!-- staking_contract::new_staking_contracts_holder&#45;&gt;new_event_handle -->
<g id="edge7" class="edge">
<title>staking_contract::new_staking_contracts_holder&#45;&gt;new_event_handle</title>
<path fill="none" stroke="black" d="M448.42,-238.66C461.4,-233.38 475.82,-227.48 489,-222 648.37,-155.77 836.69,-75.32 921.95,-38.77"/>
<polygon fill="black" stroke="black" points="923.12,-42.08 930.93,-34.92 920.36,-35.64 923.12,-42.08"/>
</g>
<!-- vesting::create_vesting_contract -->
<g id="node9" class="node">
<title>vesting::create_vesting_contract</title>
<ellipse fill="none" stroke="black" cx="1442" cy="-422" rx="94.48" ry="18"/>
<text text-anchor="middle" x="1442" y="-418.3" font-family="Times,serif" font-size="14.00">create_vesting_contract</text>
</g>
<!-- vesting::create_vesting_contract&#45;&gt;new_event_handle -->
<g id="edge8" class="edge">
<title>vesting::create_vesting_contract&#45;&gt;new_event_handle</title>
<path fill="none" stroke="black" d="M1378.36,-408.27C1364.46,-403.48 1350.49,-396.93 1339,-388 1284.77,-345.84 1257,-325.69 1257,-257 1257,-257 1257,-257 1257,-172 1257,-77.6 1135.07,-41.28 1049.6,-27.42"/>
<polygon fill="black" stroke="black" points="1050.24,-23.98 1039.82,-25.92 1049.18,-30.9 1050.24,-23.98"/>
</g>
<!-- vesting::create_vesting_contract_account -->
<g id="node12" class="node">
<title>vesting::create_vesting_contract_account</title>
<ellipse fill="none" stroke="black" cx="1474" cy="-339" rx="126.18" ry="18"/>
<text text-anchor="middle" x="1474" y="-335.3" font-family="Times,serif" font-size="14.00">create_vesting_contract_account</text>
</g>
<!-- vesting::create_vesting_contract&#45;&gt;vesting::create_vesting_contract_account -->
<g id="edge25" class="edge">
<title>vesting::create_vesting_contract&#45;&gt;vesting::create_vesting_contract_account</title>
<path fill="none" stroke="black" d="M1448.79,-403.82C1452.92,-393.37 1458.29,-379.77 1463.01,-367.81"/>
<polygon fill="black" stroke="black" points="1466.14,-369.43 1466.56,-358.84 1459.63,-366.85 1466.14,-369.43"/>
</g>
<!-- staking_contract::create_staking_contract_with_coins -->
<g id="node20" class="node">
<title>staking_contract::create_staking_contract_with_coins</title>
<ellipse fill="none" stroke="black" cx="389" cy="-339" rx="137.28" ry="18"/>
<text text-anchor="middle" x="389" y="-335.3" font-family="Times,serif" font-size="14.00">create_staking_contract_with_coins</text>
</g>
<!-- vesting::create_vesting_contract&#45;&gt;staking_contract::create_staking_contract_with_coins -->
<g id="edge33" class="edge">
<title>vesting::create_vesting_contract&#45;&gt;staking_contract::create_staking_contract_with_coins</title>
<path fill="none" stroke="black" d="M1389.24,-406.66C1372.35,-402.59 1353.49,-398.56 1336,-396 1296.65,-390.24 777.56,-361.29 525.07,-347.43"/>
<polygon fill="black" stroke="black" points="525.31,-343.93 515.13,-346.88 524.93,-350.92 525.31,-343.93"/>
</g>
<!-- aptos_coin::configure_accounts_for_test -->
<g id="node10" class="node">
<title>aptos_coin::configure_accounts_for_test</title>
<ellipse fill="none" stroke="black" cx="1543" cy="-641" rx="110.48" ry="18"/>
<text text-anchor="middle" x="1543" y="-637.3" font-family="Times,serif" font-size="14.00">configure_accounts_for_test</text>
</g>
<!-- aptos_coin::configure_accounts_for_test&#45;&gt;coin::register -->
<g id="edge9" class="edge">
<title>aptos_coin::configure_accounts_for_test&#45;&gt;coin::register</title>
<path fill="none" stroke="black" d="M1561.44,-623.15C1586.44,-598.36 1628,-549.43 1628,-498 1628,-498 1628,-498 1628,-421 1628,-373.54 1628,-318.34 1628,-285.62"/>
<polygon fill="black" stroke="black" points="1631.5,-285.75 1628,-275.75 1624.5,-285.75 1631.5,-285.75"/>
</g>
<!-- aptos_account::create_account -->
<g id="node11" class="node">
<title>aptos_account::create_account</title>
<ellipse fill="none" stroke="black" cx="1720" cy="-339" rx="63.89" ry="18"/>
<text text-anchor="middle" x="1720" y="-335.3" font-family="Times,serif" font-size="14.00">create_account</text>
</g>
<!-- aptos_account::create_account&#45;&gt;coin::register -->
<g id="edge10" class="edge">
<title>aptos_account::create_account&#45;&gt;coin::register</title>
<path fill="none" stroke="black" d="M1701.38,-321.61C1687.69,-309.55 1668.9,-293.01 1653.77,-279.69"/>
<polygon fill="black" stroke="black" points="1656.3,-277.25 1646.48,-273.27 1651.67,-282.51 1656.3,-277.25"/>
</g>
<!-- vesting::create_vesting_contract_account&#45;&gt;coin::register -->
<g id="edge11" class="edge">
<title>vesting::create_vesting_contract_account&#45;&gt;coin::register</title>
<path fill="none" stroke="black" d="M1505.91,-321.22C1531.58,-307.72 1567.56,-288.79 1593.81,-274.98"/>
<polygon fill="black" stroke="black" points="1595.15,-278.23 1602.37,-270.48 1591.89,-272.04 1595.15,-278.23"/>
</g>
<!-- genesis::create_account -->
<g id="node13" class="node">
<title>genesis::create_account</title>
<ellipse fill="none" stroke="black" cx="841" cy="-422" rx="63.89" ry="18"/>
<text text-anchor="middle" x="841" y="-418.3" font-family="Times,serif" font-size="14.00">create_account</text>
</g>
<!-- genesis::create_account&#45;&gt;coin::register -->
<g id="edge12" class="edge">
<title>genesis::create_account&#45;&gt;coin::register</title>
<path fill="none" stroke="black" d="M889.74,-409.94C978.41,-389.91 1172.07,-346.6 1336,-313 1423.05,-295.16 1525.06,-275.99 1582.55,-265.35"/>
<polygon fill="black" stroke="black" points="1583.09,-268.81 1592.29,-263.55 1581.82,-261.92 1583.09,-268.81"/>
</g>
<!-- managed_coin::register -->
<g id="node14" class="node">
<title>managed_coin::register</title>
<ellipse fill="none" stroke="black" cx="1845" cy="-339" rx="37.09" ry="18"/>
<text text-anchor="middle" x="1845" y="-335.3" font-family="Times,serif" font-size="14.00">register</text>
</g>
<!-- managed_coin::register&#45;&gt;coin::register -->
<g id="edge13" class="edge">
<title>managed_coin::register&#45;&gt;coin::register</title>
<path fill="none" stroke="black" d="M1820.91,-324.8C1813.09,-320.76 1804.28,-316.47 1796,-313 1754.04,-295.42 1704.45,-279.45 1670.08,-269.11"/>
<polygon fill="black" stroke="black" points="1671.51,-265.88 1660.93,-266.38 1669.51,-272.59 1671.51,-265.88"/>
</g>
<!-- resource_account::create_resource_account_and_fund -->
<g id="node15" class="node">
<title>resource_account::create_resource_account_and_fund</title>
<ellipse fill="none" stroke="black" cx="2047" cy="-339" rx="135.38" ry="18"/>
<text text-anchor="middle" x="2047" y="-335.3" font-family="Times,serif" font-size="14.00">create_resource_account_and_fund</text>
</g>
<!-- resource_account::create_resource_account_and_fund&#45;&gt;coin::register -->
<g id="edge14" class="edge">
<title>resource_account::create_resource_account_and_fund&#45;&gt;coin::register</title>
<path fill="none" stroke="black" d="M1972.57,-323.61C1885.63,-306.8 1744.58,-279.54 1672.9,-265.68"/>
<polygon fill="black" stroke="black" points="1673.97,-262.32 1663.49,-263.86 1672.65,-269.2 1673.97,-262.32"/>
</g>
<!-- stake::initialize_stake_owner -->
<g id="node16" class="node">
<title>stake::initialize_stake_owner</title>
<ellipse fill="none" stroke="black" cx="387" cy="-173" rx="90.18" ry="18"/>
<text text-anchor="middle" x="387" y="-169.3" font-family="Times,serif" font-size="14.00">initialize_stake_owner</text>
</g>
<!-- stake::initialize_stake_owner&#45;&gt;stake::initialize_owner -->
<g id="edge16" class="edge">
<title>stake::initialize_stake_owner&#45;&gt;stake::initialize_owner</title>
<path fill="none" stroke="black" d="M387,-154.82C387,-144.69 387,-131.6 387,-119.92"/>
<polygon fill="black" stroke="black" points="390.5,-119.95 387,-109.95 383.5,-119.95 390.5,-119.95"/>
</g>
<!-- stake::initialize_validator -->
<g id="node17" class="node">
<title>stake::initialize_validator</title>
<ellipse fill="none" stroke="black" cx="201" cy="-173" rx="77.19" ry="18"/>
<text text-anchor="middle" x="201" y="-169.3" font-family="Times,serif" font-size="14.00">initialize_validator</text>
</g>
<!-- stake::initialize_validator&#45;&gt;stake::initialize_owner -->
<g id="edge17" class="edge">
<title>stake::initialize_validator&#45;&gt;stake::initialize_owner</title>
<path fill="none" stroke="black" d="M236.42,-156.57C266.44,-143.5 309.66,-124.68 342.1,-110.55"/>
<polygon fill="black" stroke="black" points="343.49,-113.76 351.26,-106.56 340.7,-107.35 343.49,-113.76"/>
</g>
<!-- genesis::initialize -->
<g id="node18" class="node">
<title>genesis::initialize</title>
<ellipse fill="none" stroke="black" cx="592" cy="-641" rx="41.69" ry="18"/>
<text text-anchor="middle" x="592" y="-637.3" font-family="Times,serif" font-size="14.00">initialize</text>
</g>
<!-- genesis::initialize&#45;&gt;reconfiguration::initialize -->
<g id="edge18" class="edge">
<title>genesis::initialize&#45;&gt;reconfiguration::initialize</title>
<path fill="none" stroke="black" d="M550.54,-637.9C425.08,-630.41 58,-599.81 58,-498 58,-498 58,-498 58,-255 58,-207.54 58,-152.34 58,-119.62"/>
<polygon fill="black" stroke="black" points="61.5,-119.75 58,-109.75 54.5,-119.75 61.5,-119.75"/>
</g>
<!-- genesis::initialize&#45;&gt;block::initialize -->
<g id="edge20" class="edge">
<title>genesis::initialize&#45;&gt;block::initialize</title>
<path fill="none" stroke="black" d="M616.2,-625.97C624.46,-621.78 633.9,-617.61 643,-615 700.76,-598.41 866.25,-625.97 912,-587 943.19,-560.43 936,-538.97 936,-498 936,-498 936,-498 936,-255 936,-207.53 934.73,-152.34 933.84,-119.61"/>
<polygon fill="black" stroke="black" points="937.34,-119.65 933.56,-109.75 930.35,-119.84 937.34,-119.65"/>
</g>
<!-- aptos_governance::initialize_for_verification -->
<g id="node19" class="node">
<title>aptos_governance::initialize_for_verification</title>
<ellipse fill="none" stroke="black" cx="1065" cy="-256" rx="100.98" ry="18"/>
<text text-anchor="middle" x="1065" y="-252.3" font-family="Times,serif" font-size="14.00">initialize_for_verification</text>
</g>
<!-- aptos_governance::initialize_for_verification&#45;&gt;aptos_governance::initialize -->
<g id="edge19" class="edge">
<title>aptos_governance::initialize_for_verification&#45;&gt;aptos_governance::initialize</title>
<path fill="none" stroke="black" d="M1065,-237.82C1065,-227.69 1065,-214.6 1065,-202.92"/>
<polygon fill="black" stroke="black" points="1068.5,-202.95 1065,-192.95 1061.5,-202.95 1068.5,-202.95"/>
</g>
<!-- staking_contract::create_staking_contract_with_coins&#45;&gt;staking_contract::new_staking_contracts_holder -->
<g id="edge21" class="edge">
<title>staking_contract::create_staking_contract_with_coins&#45;&gt;staking_contract::new_staking_contracts_holder</title>
<path fill="none" stroke="black" d="M393.03,-320.82C395.43,-310.58 398.54,-297.33 401.3,-285.55"/>
<polygon fill="black" stroke="black" points="404.69,-286.44 403.57,-275.91 397.87,-284.84 404.69,-286.44"/>
</g>
<!-- staking_contract::create_stake_pool -->
<g id="node26" class="node">
<title>staking_contract::create_stake_pool</title>
<ellipse fill="none" stroke="black" cx="198" cy="-256" rx="74.19" ry="18"/>
<text text-anchor="middle" x="198" y="-252.3" font-family="Times,serif" font-size="14.00">create_stake_pool</text>
</g>
<!-- staking_contract::create_staking_contract_with_coins&#45;&gt;staking_contract::create_stake_pool -->
<g id="edge35" class="edge">
<title>staking_contract::create_staking_contract_with_coins&#45;&gt;staking_contract::create_stake_pool</title>
<path fill="none" stroke="black" d="M329.27,-322.4C313.32,-317.52 296.28,-311.65 281,-305 264.38,-297.77 246.89,-288.01 232.27,-279.17"/>
<polygon fill="black" stroke="black" points="234.29,-276.31 223.94,-274.04 230.62,-282.27 234.29,-276.31"/>
</g>
<!-- genesis::create_employee_validators -->
<g id="node21" class="node">
<title>genesis::create_employee_validators</title>
<ellipse fill="none" stroke="black" cx="880" cy="-716" rx="109.68" ry="18"/>
<text text-anchor="middle" x="880" y="-712.3" font-family="Times,serif" font-size="14.00">create_employee_validators</text>
</g>
<!-- genesis::create_employee_validators&#45;&gt;vesting::create_vesting_contract -->
<g id="edge22" class="edge">
<title>genesis::create_employee_validators&#45;&gt;vesting::create_vesting_contract</title>
<path fill="none" stroke="black" d="M961.69,-703.64C987.37,-699.46 1012.11,-694.61 1024,-690 1184.3,-627.8 1348.84,-500.19 1413.48,-447.05"/>
<polygon fill="black" stroke="black" points="1415.64,-449.8 1421.12,-440.73 1411.18,-444.41 1415.64,-449.8"/>
</g>
<!-- genesis::initialize_core_resources_and_aptos_coin -->
<g id="node22" class="node">
<title>genesis::initialize_core_resources_and_aptos_coin</title>
<ellipse fill="none" stroke="black" cx="1166" cy="-716" rx="157.87" ry="18"/>
<text text-anchor="middle" x="1166" y="-712.3" font-family="Times,serif" font-size="14.00">initialize_core_resources_and_aptos_coin</text>
</g>
<!-- genesis::initialize_core_resources_and_aptos_coin&#45;&gt;aptos_coin::configure_accounts_for_test -->
<g id="edge23" class="edge">
<title>genesis::initialize_core_resources_and_aptos_coin&#45;&gt;aptos_coin::configure_accounts_for_test</title>
<path fill="none" stroke="black" d="M1266.01,-701.69C1289.06,-698.23 1313.43,-694.27 1336,-690 1382.39,-681.23 1434.12,-669.23 1474.27,-659.43"/>
<polygon fill="black" stroke="black" points="1474.92,-662.87 1483.8,-657.08 1473.25,-656.07 1474.92,-662.87"/>
</g>
<!-- aptos_account::transfer -->
<g id="node23" class="node">
<title>aptos_account::transfer</title>
<ellipse fill="none" stroke="black" cx="1720" cy="-422" rx="37.89" ry="18"/>
<text text-anchor="middle" x="1720" y="-418.3" font-family="Times,serif" font-size="14.00">transfer</text>
</g>
<!-- aptos_account::transfer&#45;&gt;aptos_account::create_account -->
<g id="edge24" class="edge">
<title>aptos_account::transfer&#45;&gt;aptos_account::create_account</title>
<path fill="none" stroke="black" d="M1720,-403.82C1720,-393.69 1720,-380.6 1720,-368.92"/>
<polygon fill="black" stroke="black" points="1723.5,-368.95 1720,-358.95 1716.5,-368.95 1723.5,-368.95"/>
</g>
<!-- genesis::create_accounts -->
<g id="node24" class="node">
<title>genesis::create_accounts</title>
<ellipse fill="none" stroke="black" cx="841" cy="-497" rx="66.89" ry="18"/>
<text text-anchor="middle" x="841" y="-493.3" font-family="Times,serif" font-size="14.00">create_accounts</text>
</g>
<!-- genesis::create_accounts&#45;&gt;genesis::create_account -->
<g id="edge26" class="edge">
<title>genesis::create_accounts&#45;&gt;genesis::create_account</title>
<path fill="none" stroke="black" d="M841,-478.7C841,-470.67 841,-460.9 841,-451.8"/>
<polygon fill="black" stroke="black" points="844.5,-451.94 841,-441.94 837.5,-451.94 844.5,-451.94"/>
</g>
<!-- genesis::create_initialize_validator -->
<g id="node25" class="node">
<title>genesis::create_initialize_validator</title>
<ellipse fill="none" stroke="black" cx="653" cy="-497" rx="102.88" ry="18"/>
<text text-anchor="middle" x="653" y="-493.3" font-family="Times,serif" font-size="14.00">create_initialize_validator</text>
</g>
<!-- genesis::create_initialize_validator&#45;&gt;genesis::create_account -->
<g id="edge27" class="edge">
<title>genesis::create_initialize_validator&#45;&gt;genesis::create_account</title>
<path fill="none" stroke="black" d="M693.79,-480.16C723.26,-468.72 763.12,-453.24 793.93,-441.28"/>
<polygon fill="black" stroke="black" points="794.96,-444.63 803.01,-437.75 792.42,-438.11 794.96,-444.63"/>
</g>
<!-- genesis::create_initialize_validator&#45;&gt;stake::initialize_stake_owner -->
<g id="edge29" class="edge">
<title>genesis::create_initialize_validator&#45;&gt;stake::initialize_stake_owner</title>
<path fill="none" stroke="black" d="M550.36,-494.86C397.66,-492.66 126.87,-486.58 112,-471 75.01,-432.27 75.01,-268.72 112,-230 125.45,-215.93 268.12,-226.75 287,-222 308.96,-216.47 331.84,-205.9 350.17,-196.08"/>
<polygon fill="black" stroke="black" points="351.73,-199.21 358.79,-191.31 348.34,-193.08 351.73,-199.21"/>
</g>
<!-- staking_contract::create_staking_contract -->
<g id="node28" class="node">
<title>staking_contract::create_staking_contract</title>
<ellipse fill="none" stroke="black" cx="410" cy="-422" rx="94.48" ry="18"/>
<text text-anchor="middle" x="410" y="-418.3" font-family="Times,serif" font-size="14.00">create_staking_contract</text>
</g>
<!-- genesis::create_initialize_validator&#45;&gt;staking_contract::create_staking_contract -->
<g id="edge36" class="edge">
<title>genesis::create_initialize_validator&#45;&gt;staking_contract::create_staking_contract</title>
<path fill="none" stroke="black" d="M585.39,-483.01C569.72,-479.53 553.19,-475.47 538,-471 511.25,-463.12 482.09,-452.36 458.37,-443.03"/>
<polygon fill="black" stroke="black" points="459.87,-439.86 449.28,-439.41 457.28,-446.36 459.87,-439.86"/>
</g>
<!-- staking_contract::create_stake_pool&#45;&gt;stake::initialize_stake_owner -->
<g id="edge28" class="edge">
<title>staking_contract::create_stake_pool&#45;&gt;stake::initialize_stake_owner</title>
<path fill="none" stroke="black" d="M239.07,-240.67C254.25,-235.14 271.53,-228.57 287,-222 306.41,-213.76 327.52,-203.79 345.31,-195.07"/>
<polygon fill="black" stroke="black" points="346.59,-198.34 354.01,-190.78 343.49,-192.07 346.59,-198.34"/>
</g>
<!-- genesis::initialize_for_verification -->
<g id="node27" class="node">
<title>genesis::initialize_for_verification</title>
<ellipse fill="none" stroke="black" cx="651" cy="-716" rx="100.98" ry="18"/>
<text text-anchor="middle" x="651" y="-712.3" font-family="Times,serif" font-size="14.00">initialize_for_verification</text>
</g>
<!-- genesis::initialize_for_verification&#45;&gt;genesis::initialize -->
<g id="edge30" class="edge">
<title>genesis::initialize_for_verification&#45;&gt;genesis::initialize</title>
<path fill="none" stroke="black" d="M637.02,-697.7C629.61,-688.53 620.37,-677.11 612.2,-666.99"/>
<polygon fill="black" stroke="black" points="615.03,-664.93 606.02,-659.35 609.59,-669.33 615.03,-664.93"/>
</g>
<!-- genesis::initialize_for_verification&#45;&gt;aptos_governance::initialize_for_verification -->
<g id="edge31" class="edge">
<title>genesis::initialize_for_verification&#45;&gt;aptos_governance::initialize_for_verification</title>
<path fill="none" stroke="black" d="M723.07,-703C735.69,-701.14 748.71,-699.39 761,-698 785.8,-695.2 849.97,-699.61 873,-690 947.7,-658.83 1010,-650.94 1010,-570 1010,-570 1010,-570 1010,-421 1010,-370.55 1033.69,-315.68 1049.97,-283.92"/>
<polygon fill="black" stroke="black" points="1052.89,-285.9 1054.46,-275.42 1046.7,-282.63 1052.89,-285.9"/>
</g>
<!-- genesis::create_initialize_validators -->
<g id="node30" class="node">
<title>genesis::create_initialize_validators</title>
<ellipse fill="none" stroke="black" cx="758" cy="-641" rx="105.88" ry="18"/>
<text text-anchor="middle" x="758" y="-637.3" font-family="Times,serif" font-size="14.00">create_initialize_validators</text>
</g>
<!-- genesis::initialize_for_verification&#45;&gt;genesis::create_initialize_validators -->
<g id="edge38" class="edge">
<title>genesis::initialize_for_verification&#45;&gt;genesis::create_initialize_validators</title>
<path fill="none" stroke="black" d="M675.82,-698.07C690.13,-688.3 708.34,-675.88 723.97,-665.22"/>
<polygon fill="black" stroke="black" points="725.78,-668.22 732.07,-659.69 721.83,-662.44 725.78,-668.22"/>
</g>
<!-- staking_contract::create_staking_contract&#45;&gt;staking_contract::create_staking_contract_with_coins -->
<g id="edge32" class="edge">
<title>staking_contract::create_staking_contract&#45;&gt;staking_contract::create_staking_contract_with_coins</title>
<path fill="none" stroke="black" d="M405.55,-403.82C402.89,-393.58 399.45,-380.33 396.4,-368.55"/>
<polygon fill="black" stroke="black" points="399.8,-367.7 393.9,-358.9 393.02,-369.46 399.8,-367.7"/>
</g>
<!-- genesis::create_initialize_validators_with_commission -->
<g id="node29" class="node">
<title>genesis::create_initialize_validators_with_commission</title>
<ellipse fill="none" stroke="black" cx="729" cy="-569" rx="173.57" ry="18"/>
<text text-anchor="middle" x="729" y="-565.3" font-family="Times,serif" font-size="14.00">create_initialize_validators_with_commission</text>
</g>
<!-- genesis::create_initialize_validators_with_commission&#45;&gt;genesis::create_initialize_validator -->
<g id="edge34" class="edge">
<title>genesis::create_initialize_validators_with_commission&#45;&gt;genesis::create_initialize_validator</title>
<path fill="none" stroke="black" d="M710.21,-550.7C701.1,-542.3 689.99,-532.07 679.99,-522.86"/>
<polygon fill="black" stroke="black" points="682.41,-520.33 672.68,-516.13 677.67,-525.48 682.41,-520.33"/>
</g>
<!-- genesis::create_initialize_validators&#45;&gt;genesis::create_initialize_validators_with_commission -->
<g id="edge37" class="edge">
<title>genesis::create_initialize_validators&#45;&gt;genesis::create_initialize_validators_with_commission</title>
<path fill="none" stroke="black" d="M750.83,-622.7C747.71,-615.15 743.96,-606.12 740.47,-597.68"/>
<polygon fill="black" stroke="black" points="743.73,-596.4 736.67,-588.5 737.26,-599.08 743.73,-596.4"/>
</g>
</g>
</svg>
