<?xml version="1.0" encoding="UTF-8" standalone="no"?>
<!DOCTYPE svg PUBLIC "-//W3C//DTD SVG 1.1//EN"
 "http://www.w3.org/Graphics/SVG/1.1/DTD/svg11.dtd">
<!-- Generated by graphviz version 7.0.0 (20221023.0053)
 -->
<!-- Title: G Pages: 1 -->
<svg width="242pt" height="476pt"
 viewBox="0.00 0.00 242.00 476.00" xmlns="http://www.w3.org/2000/svg" xmlns:xlink="http://www.w3.org/1999/xlink">
<g id="graph0" class="graph" transform="scale(1 1) rotate(0) translate(4 472)">
<title>G</title>
<polygon fill="white" stroke="none" points="-4,4 -4,-472 238,-472 238,4 -4,4"/>
<g id="clust2" class="cluster">
<title>cluster_coin</title>
<polygon fill="none" stroke="black" points="8,-147 8,-294 122,-294 122,-147 8,-147"/>
<text text-anchor="middle" x="65" y="-278.8" font-family="Times,serif" font-size="14.00">coin</text>
</g>
<g id="clust3" class="cluster">
<title>cluster_managed_coin</title>
<polygon fill="none" stroke="black" points="130,-219 130,-294 226,-294 226,-219 130,-219"/>
<text text-anchor="middle" x="178" y="-278.8" font-family="Times,serif" font-size="14.00">managed_coin</text>
</g>
<g id="clust4" class="cluster">
<title>cluster_transaction_fee</title>
<polygon fill="none" stroke="black" points="15,-302 15,-377 115,-377 115,-302 15,-302"/>
<text text-anchor="middle" x="65" y="-361.8" font-family="Times,serif" font-size="14.00">transaction_fee</text>
</g>
<g id="clust1" class="cluster">
<title>cluster_optional_aggregator</title>
<polygon fill="none" stroke="black" points="30,-64 30,-139 155,-139 155,-64 30,-64"/>
<text text-anchor="middle" x="92.5" y="-123.8" font-family="Times,serif" font-size="14.00">optional_aggregator</text>
</g>
<g id="clust5" class="cluster">
<title>cluster_transaction_validation</title>
<polygon fill="none" stroke="black" points="12,-385 12,-460 149,-460 149,-385 12,-385"/>
<text text-anchor="middle" x="80.5" y="-444.8" font-family="Times,serif" font-size="14.00">transaction_validation</text>
</g>
<!-- sub -->
<g id="node1" class="node">
<title>sub</title>
<ellipse fill="none" stroke="black" cx="76" cy="-18" rx="27" ry="18"/>
<text text-anchor="middle" x="76" y="-14.3" font-family="Times,serif" font-size="14.00">sub</text>
</g>
<!-- optional_aggregator::sub -->
<g id="node2" class="node">
<title>optional_aggregator::sub</title>
<ellipse fill="none" stroke="black" cx="76" cy="-90" rx="27" ry="18"/>
<text text-anchor="middle" x="76" y="-86.3" font-family="Times,serif" font-size="14.00">sub</text>
</g>
<!-- optional_aggregator::sub&#45;&gt;sub -->
<g id="edge1" class="edge">
<title>optional_aggregator::sub&#45;&gt;sub</title>
<path fill="none" stroke="black" d="M76,-71.7C76,-64.41 76,-55.73 76,-47.54"/>
<polygon fill="black" stroke="black" points="79.5,-47.62 76,-37.62 72.5,-47.62 79.5,-47.62"/>
</g>
<!-- coin::burn -->
<g id="node3" class="node">
<title>coin::burn</title>
<ellipse fill="none" stroke="black" cx="76" cy="-173" rx="27" ry="18"/>
<text text-anchor="middle" x="76" y="-169.3" font-family="Times,serif" font-size="14.00">burn</text>
</g>
<!-- coin::burn&#45;&gt;optional_aggregator::sub -->
<g id="edge2" class="edge">
<title>coin::burn&#45;&gt;optional_aggregator::sub</title>
<path fill="none" stroke="black" d="M76,-154.82C76,-144.69 76,-131.6 76,-119.92"/>
<polygon fill="black" stroke="black" points="79.5,-119.95 76,-109.95 72.5,-119.95 79.5,-119.95"/>
</g>
<!-- coin::burn_from -->
<g id="node4" class="node">
<title>coin::burn_from</title>
<ellipse fill="none" stroke="black" cx="65" cy="-245" rx="48.99" ry="18"/>
<text text-anchor="middle" x="65" y="-241.3" font-family="Times,serif" font-size="14.00">burn_from</text>
</g>
<!-- coin::burn_from&#45;&gt;coin::burn -->
<g id="edge3" class="edge">
<title>coin::burn_from&#45;&gt;coin::burn</title>
<path fill="none" stroke="black" d="M67.72,-226.7C68.88,-219.32 70.26,-210.52 71.56,-202.25"/>
<polygon fill="black" stroke="black" points="74.98,-203.02 73.08,-192.6 68.07,-201.93 74.98,-203.02"/>
</g>
<!-- managed_coin::burn -->
<g id="node5" class="node">
<title>managed_coin::burn</title>
<ellipse fill="none" stroke="black" cx="165" cy="-245" rx="27" ry="18"/>
<text text-anchor="middle" x="165" y="-241.3" font-family="Times,serif" font-size="14.00">burn</text>
</g>
<!-- managed_coin::burn&#45;&gt;coin::burn -->
<g id="edge4" class="edge">
<title>managed_coin::burn&#45;&gt;coin::burn</title>
<path fill="none" stroke="black" d="M148.26,-230.83C135.17,-220.54 116.73,-206.04 101.76,-194.26"/>
<polygon fill="black" stroke="black" points="104.18,-191.71 94.16,-188.28 99.85,-197.21 104.18,-191.71"/>
</g>
<!-- transaction_fee::burn_fee -->
<g id="node6" class="node">
<title>transaction_fee::burn_fee</title>
<ellipse fill="none" stroke="black" cx="65" cy="-328" rx="42.49" ry="18"/>
<text text-anchor="middle" x="65" y="-324.3" font-family="Times,serif" font-size="14.00">burn_fee</text>
</g>
<!-- transaction_fee::burn_fee&#45;&gt;coin::burn_from -->
<g id="edge5" class="edge">
<title>transaction_fee::burn_fee&#45;&gt;coin::burn_from</title>
<path fill="none" stroke="black" d="M65,-309.82C65,-299.69 65,-286.6 65,-274.92"/>
<polygon fill="black" stroke="black" points="68.5,-274.95 65,-264.95 61.5,-274.95 68.5,-274.95"/>
</g>
<!-- transaction_validation::epilogue -->
<g id="node7" class="node">
<title>transaction_validation::epilogue</title>
<ellipse fill="none" stroke="black" cx="65" cy="-411" rx="40.89" ry="18"/>
<text text-anchor="middle" x="65" y="-407.3" font-family="Times,serif" font-size="14.00">epilogue</text>
</g>
<!-- transaction_validation::epilogue&#45;&gt;transaction_fee::burn_fee -->
<g id="edge6" class="edge">
<title>transaction_validation::epilogue&#45;&gt;transaction_fee::burn_fee</title>
<path fill="none" stroke="black" d="M65,-392.82C65,-382.69 65,-369.6 65,-357.92"/>
<polygon fill="black" stroke="black" points="68.5,-357.95 65,-347.95 61.5,-357.95 68.5,-357.95"/>
</g>
</g>
</svg>
