<?xml version="1.0" encoding="UTF-8" standalone="no"?>
<!DOCTYPE svg PUBLIC "-//W3C//DTD SVG 1.1//EN"
 "http://www.w3.org/Graphics/SVG/1.1/DTD/svg11.dtd">
<!-- Generated by graphviz version 7.0.0 (20221023.0053)
 -->
<!-- Title: G Pages: 1 -->
<svg width="599pt" height="692pt"
 viewBox="0.00 0.00 599.44 692.00" xmlns="http://www.w3.org/2000/svg" xmlns:xlink="http://www.w3.org/1999/xlink">
<g id="graph0" class="graph" transform="scale(1 1) rotate(0) translate(4 688)">
<title>G</title>
<polygon fill="white" stroke="none" points="-4,4 -4,-688 595.44,-688 595.44,4 -4,4"/>
<g id="clust2" class="cluster">
<title>cluster_coin</title>
<polygon fill="none" stroke="black" points="9.44,-291 9.44,-438 561.44,-438 561.44,-291 9.44,-291"/>
<text text-anchor="middle" x="285.44" y="-422.8" font-family="Times,serif" font-size="14.00">coin</text>
</g>
<g id="clust3" class="cluster">
<title>cluster_managed_coin</title>
<polygon fill="none" stroke="black" points="9.44,-446 9.44,-521 109.44,-521 109.44,-446 9.44,-446"/>
<text text-anchor="middle" x="59.44" y="-505.8" font-family="Times,serif" font-size="14.00">managed_coin</text>
</g>
<g id="clust4" class="cluster">
<title>cluster_aptos_coin</title>
<polygon fill="none" stroke="black" points="210.44,-446 210.44,-521 310.44,-521 310.44,-446 210.44,-446"/>
<text text-anchor="middle" x="260.44" y="-505.8" font-family="Times,serif" font-size="14.00">aptos_coin</text>
</g>
<g id="clust5" class="cluster">
<title>cluster_genesis</title>
<polygon fill="none" stroke="black" points="31.44,-529 31.44,-676 583.44,-676 583.44,-529 31.44,-529"/>
<text text-anchor="middle" x="307.44" y="-660.8" font-family="Times,serif" font-size="14.00">genesis</text>
</g>
<g id="clust1" class="cluster">
<title>cluster_optional_aggregator</title>
<polygon fill="none" stroke="black" points="157.44,-64 157.44,-283 451.44,-283 451.44,-64 157.44,-64"/>
<text text-anchor="middle" x="304.44" y="-267.8" font-family="Times,serif" font-size="14.00">optional_aggregator</text>
</g>
<!-- create_aggregator_internal -->
<g id="node1" class="node">
<title>create_aggregator_internal</title>
<ellipse fill="none" stroke="black" cx="304.44" cy="-18" rx="104.78" ry="18"/>
<text text-anchor="middle" x="304.44" y="-14.3" font-family="Times,serif" font-size="14.00">create_aggregator_internal</text>
</g>
<!-- create_aggregator -->
<g id="node2" class="node">
<title>create_aggregator</title>
<ellipse fill="none" stroke="black" cx="73.44" cy="-90" rx="73.39" ry="18"/>
<text text-anchor="middle" x="73.44" y="-86.3" font-family="Times,serif" font-size="14.00">create_aggregator</text>
</g>
<!-- create_aggregator&#45;&gt;create_aggregator_internal -->
<g id="edge1" class="edge">
<title>create_aggregator&#45;&gt;create_aggregator_internal</title>
<path fill="none" stroke="black" d="M117.42,-75.14C129.12,-71.49 141.75,-67.57 153.44,-64 182.53,-55.12 214.84,-45.47 242.07,-37.38"/>
<polygon fill="black" stroke="black" points="242.98,-40.77 251.57,-34.57 240.99,-34.06 242.98,-40.77"/>
</g>
<!-- optional_aggregator::new -->
<g id="node3" class="node">
<title>optional_aggregator::new</title>
<ellipse fill="none" stroke="black" cx="287.44" cy="-234" rx="27" ry="18"/>
<text text-anchor="middle" x="287.44" y="-230.3" font-family="Times,serif" font-size="14.00">new</text>
</g>
<!-- optional_aggregator::new&#45;&gt;create_aggregator_internal -->
<g id="edge2" class="edge">
<title>optional_aggregator::new&#45;&gt;create_aggregator_internal</title>
<path fill="none" stroke="black" d="M311.17,-225.08C348.37,-212.48 417.06,-188.45 425.44,-180 449.51,-155.74 446.35,-141.63 452.44,-108 455.93,-88.76 464.09,-79.71 452.44,-64 440.81,-48.31 423.85,-37.9 405.51,-31.04"/>
<polygon fill="black" stroke="black" points="406.62,-27.72 396.03,-27.88 404.41,-34.36 406.62,-27.72"/>
</g>
<!-- optional_aggregator::switch_to_aggregator_and_zero_out -->
<g id="node4" class="node">
<title>optional_aggregator::switch_to_aggregator_and_zero_out</title>
<ellipse fill="none" stroke="black" cx="304.44" cy="-90" rx="139.18" ry="18"/>
<text text-anchor="middle" x="304.44" y="-86.3" font-family="Times,serif" font-size="14.00">switch_to_aggregator_and_zero_out</text>
</g>
<!-- optional_aggregator::switch_to_aggregator_and_zero_out&#45;&gt;create_aggregator_internal -->
<g id="edge3" class="edge">
<title>optional_aggregator::switch_to_aggregator_and_zero_out&#45;&gt;create_aggregator_internal</title>
<path fill="none" stroke="black" d="M304.44,-71.7C304.44,-64.41 304.44,-55.73 304.44,-47.54"/>
<polygon fill="black" stroke="black" points="307.94,-47.62 304.44,-37.62 300.94,-47.62 307.94,-47.62"/>
</g>
<!-- coin::initialize_internal -->
<g id="node5" class="node">
<title>coin::initialize_internal</title>
<ellipse fill="none" stroke="black" cx="260.44" cy="-317" rx="72.59" ry="18"/>
<text text-anchor="middle" x="260.44" y="-313.3" font-family="Times,serif" font-size="14.00">initialize_internal</text>
</g>
<!-- coin::initialize_internal&#45;&gt;optional_aggregator::new -->
<g id="edge4" class="edge">
<title>coin::initialize_internal&#45;&gt;optional_aggregator::new</title>
<path fill="none" stroke="black" d="M266.17,-298.82C269.67,-288.33 274.22,-274.68 278.21,-262.7"/>
<polygon fill="black" stroke="black" points="281.5,-263.91 281.34,-253.31 274.86,-261.69 281.5,-263.91"/>
</g>
<!-- optional_aggregator::switch_and_zero_out -->
<g id="node6" class="node">
<title>optional_aggregator::switch_and_zero_out</title>
<ellipse fill="none" stroke="black" cx="330.44" cy="-162" rx="85.59" ry="18"/>
<text text-anchor="middle" x="330.44" y="-158.3" font-family="Times,serif" font-size="14.00">switch_and_zero_out</text>
</g>
<!-- optional_aggregator::switch_and_zero_out&#45;&gt;optional_aggregator::switch_to_aggregator_and_zero_out -->
<g id="edge5" class="edge">
<title>optional_aggregator::switch_and_zero_out&#45;&gt;optional_aggregator::switch_to_aggregator_and_zero_out</title>
<path fill="none" stroke="black" d="M324.02,-143.7C321.21,-136.15 317.86,-127.12 314.72,-118.68"/>
<polygon fill="black" stroke="black" points="318.09,-117.68 311.32,-109.52 311.52,-120.12 318.09,-117.68"/>
</g>
<!-- coin::initialize -->
<g id="node7" class="node">
<title>coin::initialize</title>
<ellipse fill="none" stroke="black" cx="59.44" cy="-389" rx="41.69" ry="18"/>
<text text-anchor="middle" x="59.44" y="-385.3" font-family="Times,serif" font-size="14.00">initialize</text>
</g>
<!-- coin::initialize&#45;&gt;coin::initialize_internal -->
<g id="edge6" class="edge">
<title>coin::initialize&#45;&gt;coin::initialize_internal</title>
<path fill="none" stroke="black" d="M91.29,-376.91C122.93,-365.89 171.95,-348.82 209.09,-335.88"/>
<polygon fill="black" stroke="black" points="209.99,-339.28 218.28,-332.68 207.69,-332.67 209.99,-339.28"/>
</g>
<!-- coin::initialize_with_parallelizable_supply -->
<g id="node8" class="node">
<title>coin::initialize_with_parallelizable_supply</title>
<ellipse fill="none" stroke="black" cx="260.44" cy="-389" rx="141.07" ry="18"/>
<text text-anchor="middle" x="260.44" y="-385.3" font-family="Times,serif" font-size="14.00">initialize_with_parallelizable_supply</text>
</g>
<!-- coin::initialize_with_parallelizable_supply&#45;&gt;coin::initialize_internal -->
<g id="edge7" class="edge">
<title>coin::initialize_with_parallelizable_supply&#45;&gt;coin::initialize_internal</title>
<path fill="none" stroke="black" d="M260.44,-370.7C260.44,-363.41 260.44,-354.73 260.44,-346.54"/>
<polygon fill="black" stroke="black" points="263.94,-346.62 260.44,-336.62 256.94,-346.62 263.94,-346.62"/>
</g>
<!-- optional_aggregator::switch -->
<g id="node9" class="node">
<title>optional_aggregator::switch</title>
<ellipse fill="none" stroke="black" cx="382.44" cy="-234" rx="33.6" ry="18"/>
<text text-anchor="middle" x="382.44" y="-230.3" font-family="Times,serif" font-size="14.00">switch</text>
</g>
<!-- optional_aggregator::switch&#45;&gt;optional_aggregator::switch_and_zero_out -->
<g id="edge8" class="edge">
<title>optional_aggregator::switch&#45;&gt;optional_aggregator::switch_and_zero_out</title>
<path fill="none" stroke="black" d="M370.38,-216.76C364.33,-208.61 356.84,-198.53 349.99,-189.31"/>
<polygon fill="black" stroke="black" points="352.84,-187.28 344.07,-181.34 347.22,-191.45 352.84,-187.28"/>
</g>
<!-- managed_coin::initialize -->
<g id="node10" class="node">
<title>managed_coin::initialize</title>
<ellipse fill="none" stroke="black" cx="59.44" cy="-472" rx="41.69" ry="18"/>
<text text-anchor="middle" x="59.44" y="-468.3" font-family="Times,serif" font-size="14.00">initialize</text>
</g>
<!-- managed_coin::initialize&#45;&gt;coin::initialize -->
<g id="edge9" class="edge">
<title>managed_coin::initialize&#45;&gt;coin::initialize</title>
<path fill="none" stroke="black" d="M59.44,-453.82C59.44,-443.69 59.44,-430.6 59.44,-418.92"/>
<polygon fill="black" stroke="black" points="62.94,-418.95 59.44,-408.95 55.94,-418.95 62.94,-418.95"/>
</g>
<!-- aptos_coin::initialize -->
<g id="node11" class="node">
<title>aptos_coin::initialize</title>
<ellipse fill="none" stroke="black" cx="260.44" cy="-472" rx="41.69" ry="18"/>
<text text-anchor="middle" x="260.44" y="-468.3" font-family="Times,serif" font-size="14.00">initialize</text>
</g>
<!-- aptos_coin::initialize&#45;&gt;coin::initialize_with_parallelizable_supply -->
<g id="edge10" class="edge">
<title>aptos_coin::initialize&#45;&gt;coin::initialize_with_parallelizable_supply</title>
<path fill="none" stroke="black" d="M260.44,-453.82C260.44,-443.69 260.44,-430.6 260.44,-418.92"/>
<polygon fill="black" stroke="black" points="263.94,-418.95 260.44,-408.95 256.94,-418.95 263.94,-418.95"/>
</g>
<!-- coin::upgrade_supply -->
<g id="node12" class="node">
<title>coin::upgrade_supply</title>
<ellipse fill="none" stroke="black" cx="486.44" cy="-389" rx="66.89" ry="18"/>
<text text-anchor="middle" x="486.44" y="-385.3" font-family="Times,serif" font-size="14.00">upgrade_supply</text>
</g>
<!-- coin::upgrade_supply&#45;&gt;optional_aggregator::switch -->
<g id="edge11" class="edge">
<title>coin::upgrade_supply&#45;&gt;optional_aggregator::switch</title>
<path fill="none" stroke="black" d="M474.92,-371.04C456.69,-344.22 421.09,-291.85 399.77,-260.49"/>
<polygon fill="black" stroke="black" points="402.76,-258.66 394.24,-252.36 396.97,-262.6 402.76,-258.66"/>
</g>
<!-- genesis::initialize_aptos_coin -->
<g id="node13" class="node">
<title>genesis::initialize_aptos_coin</title>
<ellipse fill="none" stroke="black" cx="161.44" cy="-555" rx="83.69" ry="18"/>
<text text-anchor="middle" x="161.44" y="-551.3" font-family="Times,serif" font-size="14.00">initialize_aptos_coin</text>
</g>
<!-- genesis::initialize_aptos_coin&#45;&gt;aptos_coin::initialize -->
<g id="edge12" class="edge">
<title>genesis::initialize_aptos_coin&#45;&gt;aptos_coin::initialize</title>
<path fill="none" stroke="black" d="M181.96,-537.22C196.77,-525.1 216.93,-508.6 233.11,-495.36"/>
<polygon fill="black" stroke="black" points="234.94,-498.39 240.46,-489.35 230.5,-492.97 234.94,-498.39"/>
</g>
<!-- genesis::initialize_core_resources_and_aptos_coin -->
<g id="node14" class="node">
<title>genesis::initialize_core_resources_and_aptos_coin</title>
<ellipse fill="none" stroke="black" cx="417.44" cy="-627" rx="157.87" ry="18"/>
<text text-anchor="middle" x="417.44" y="-623.3" font-family="Times,serif" font-size="14.00">initialize_core_resources_and_aptos_coin</text>
</g>
<!-- genesis::initialize_core_resources_and_aptos_coin&#45;&gt;aptos_coin::initialize -->
<g id="edge13" class="edge">
<title>genesis::initialize_core_resources_and_aptos_coin&#45;&gt;aptos_coin::initialize</title>
<path fill="none" stroke="black" d="M399.74,-608.75C371.47,-581.2 316.1,-527.24 284.35,-496.29"/>
<polygon fill="black" stroke="black" points="287.12,-494.11 277.52,-489.64 282.24,-499.13 287.12,-494.11"/>
</g>
<!-- genesis::initialize_for_verification -->
<g id="node15" class="node">
<title>genesis::initialize_for_verification</title>
<ellipse fill="none" stroke="black" cx="140.44" cy="-627" rx="100.98" ry="18"/>
<text text-anchor="middle" x="140.44" y="-623.3" font-family="Times,serif" font-size="14.00">initialize_for_verification</text>
</g>
<!-- genesis::initialize_for_verification&#45;&gt;genesis::initialize_aptos_coin -->
<g id="edge14" class="edge">
<title>genesis::initialize_for_verification&#45;&gt;genesis::initialize_aptos_coin</title>
<path fill="none" stroke="black" d="M145.63,-608.7C147.87,-601.24 150.55,-592.32 153.05,-583.97"/>
<polygon fill="black" stroke="black" points="156.36,-585.14 155.88,-574.55 149.65,-583.13 156.36,-585.14"/>
</g>
</g>
</svg>
