<?xml version="1.0" encoding="UTF-8" standalone="no"?>
<!DOCTYPE svg PUBLIC "-//W3C//DTD SVG 1.1//EN"
 "http://www.w3.org/Graphics/SVG/1.1/DTD/svg11.dtd">
<!-- Generated by graphviz version 7.0.0 (20221023.0053)
 -->
<!-- Title: G Pages: 1 -->
<svg width="1303pt" height="620pt"
 viewBox="0.00 0.00 1303.09 620.00" xmlns="http://www.w3.org/2000/svg" xmlns:xlink="http://www.w3.org/1999/xlink">
<g id="graph0" class="graph" transform="scale(1 1) rotate(0) translate(4 616)">
<title>G</title>
<polygon fill="white" stroke="none" points="-4,4 -4,-616 1299.09,-616 1299.09,4 -4,4"/>
<!-- aggregator -->
<g id="node1" class="node">
<title>aggregator</title>
<ellipse fill="none" stroke="black" cx="1063.09" cy="-18" rx="48.19" ry="18"/>
<text text-anchor="middle" x="1063.09" y="-14.3" font-family="Times,serif" font-size="14.00">aggregator</text>
</g>
<!-- aggregator_factory -->
<g id="node2" class="node">
<title>aggregator_factory</title>
<ellipse fill="none" stroke="black" cx="1116.09" cy="-90" rx="77.19" ry="18"/>
<text text-anchor="middle" x="1116.09" y="-86.3" font-family="Times,serif" font-size="14.00">aggregator_factory</text>
</g>
<!-- aggregator_factory&#45;&gt;aggregator -->
<g id="edge1" class="edge">
<title>aggregator_factory&#45;&gt;aggregator</title>
<path fill="none" stroke="black" d="M1103.26,-72.05C1097.08,-63.89 1089.53,-53.91 1082.65,-44.82"/>
<polygon fill="black" stroke="black" points="1085.55,-42.86 1076.72,-37 1079.97,-47.08 1085.55,-42.86"/>
</g>
<!-- optional_aggregator -->
<g id="node3" class="node">
<title>optional_aggregator</title>
<ellipse fill="none" stroke="black" cx="1011.09" cy="-162" rx="81.49" ry="18"/>
<text text-anchor="middle" x="1011.09" y="-158.3" font-family="Times,serif" font-size="14.00">optional_aggregator</text>
</g>
<!-- optional_aggregator&#45;&gt;aggregator -->
<g id="edge2" class="edge">
<title>optional_aggregator&#45;&gt;aggregator</title>
<path fill="none" stroke="black" d="M1012.98,-143.75C1015.39,-125.43 1020.46,-95.88 1030.09,-72 1033.79,-62.85 1039.02,-53.51 1044.24,-45.27"/>
<polygon fill="black" stroke="black" points="1047.04,-47.38 1049.65,-37.11 1041.21,-43.51 1047.04,-47.38"/>
</g>
<!-- optional_aggregator&#45;&gt;aggregator_factory -->
<g id="edge3" class="edge">
<title>optional_aggregator&#45;&gt;aggregator_factory</title>
<path fill="none" stroke="black" d="M1035.98,-144.41C1049.71,-135.26 1066.96,-123.76 1081.94,-113.77"/>
<polygon fill="black" stroke="black" points="1083.75,-116.77 1090.13,-108.31 1079.87,-110.94 1083.75,-116.77"/>
</g>
<!-- genesis -->
<g id="node4" class="node">
<title>genesis</title>
<ellipse fill="none" stroke="black" cx="703.09" cy="-594" rx="36.29" ry="18"/>
<text text-anchor="middle" x="703.09" y="-590.3" font-family="Times,serif" font-size="14.00">genesis</text>
</g>
<!-- genesis&#45;&gt;aggregator_factory -->
<g id="edge4" class="edge">
<title>genesis&#45;&gt;aggregator_factory</title>
<path fill="none" stroke="black" d="M739.57,-591.7C837.85,-587.77 1106.19,-574.13 1187.09,-540 1244.4,-515.83 1295.09,-513.2 1295.09,-451 1295.09,-451 1295.09,-451 1295.09,-233 1295.09,-169.36 1224.78,-129.71 1172.29,-108.98"/>
<polygon fill="black" stroke="black" points="1173.73,-105.78 1163.14,-105.5 1171.25,-112.33 1173.73,-105.78"/>
</g>
<!-- coin -->
<g id="node5" class="node">
<title>coin</title>
<ellipse fill="none" stroke="black" cx="854.09" cy="-234" rx="27" ry="18"/>
<text text-anchor="middle" x="854.09" y="-230.3" font-family="Times,serif" font-size="14.00">coin</text>
</g>
<!-- genesis&#45;&gt;coin -->
<g id="edge14" class="edge">
<title>genesis&#45;&gt;coin</title>
<path fill="none" stroke="black" d="M739.44,-591.54C862.69,-585.6 1257.09,-558.23 1257.09,-451 1257.09,-451 1257.09,-451 1257.09,-377 1257.09,-319.14 1213.9,-313.77 1162.09,-288 1072.83,-243.6 953.03,-235.63 892.51,-234.67"/>
<polygon fill="black" stroke="black" points="892.78,-231.17 882.74,-234.58 892.71,-238.17 892.78,-231.17"/>
</g>
<!-- aptos_coin -->
<g id="node6" class="node">
<title>aptos_coin</title>
<ellipse fill="none" stroke="black" cx="758.09" cy="-306" rx="48.99" ry="18"/>
<text text-anchor="middle" x="758.09" y="-302.3" font-family="Times,serif" font-size="14.00">aptos_coin</text>
</g>
<!-- genesis&#45;&gt;aptos_coin -->
<g id="edge24" class="edge">
<title>genesis&#45;&gt;aptos_coin</title>
<path fill="none" stroke="black" d="M738.47,-589.49C793.65,-583.21 896.16,-567.99 918.09,-540 948.12,-501.67 835.44,-382.75 783.27,-331.22"/>
<polygon fill="black" stroke="black" points="785.82,-328.82 776.23,-324.32 780.92,-333.82 785.82,-328.82"/>
</g>
<!-- stake -->
<g id="node8" class="node">
<title>stake</title>
<ellipse fill="none" stroke="black" cx="676.09" cy="-378" rx="28.7" ry="18"/>
<text text-anchor="middle" x="676.09" y="-374.3" font-family="Times,serif" font-size="14.00">stake</text>
</g>
<!-- genesis&#45;&gt;stake -->
<g id="edge32" class="edge">
<title>genesis&#45;&gt;stake</title>
<path fill="none" stroke="black" d="M707.56,-575.95C710.03,-565.63 712.85,-552.15 714.09,-540 715.73,-524.08 716.45,-519.83 714.09,-504 708.95,-469.37 696.19,-431.05 686.87,-406.09"/>
<polygon fill="black" stroke="black" points="690.25,-405.13 683.41,-397.03 683.71,-407.62 690.25,-405.13"/>
</g>
<!-- aptos_governance -->
<g id="node9" class="node">
<title>aptos_governance</title>
<ellipse fill="none" stroke="black" cx="835.09" cy="-522" rx="74.19" ry="18"/>
<text text-anchor="middle" x="835.09" y="-518.3" font-family="Times,serif" font-size="14.00">aptos_governance</text>
</g>
<!-- genesis&#45;&gt;aptos_governance -->
<g id="edge34" class="edge">
<title>genesis&#45;&gt;aptos_governance</title>
<path fill="none" stroke="black" d="M727.31,-580.16C746.32,-570.08 773.21,-555.82 795.37,-544.07"/>
<polygon fill="black" stroke="black" points="796.96,-547.18 804.15,-539.41 793.68,-541 796.96,-547.18"/>
</g>
<!-- staking_contract -->
<g id="node10" class="node">
<title>staking_contract</title>
<ellipse fill="none" stroke="black" cx="236.09" cy="-450" rx="68.79" ry="18"/>
<text text-anchor="middle" x="236.09" y="-446.3" font-family="Times,serif" font-size="14.00">staking_contract</text>
</g>
<!-- genesis&#45;&gt;staking_contract -->
<g id="edge36" class="edge">
<title>genesis&#45;&gt;staking_contract</title>
<path fill="none" stroke="black" d="M666.58,-591.85C557.33,-588.03 238.68,-574.03 208.09,-540 192.51,-522.66 203.3,-496.69 215.73,-477.27"/>
<polygon fill="black" stroke="black" points="218.61,-479.26 221.39,-469.04 212.84,-475.3 218.61,-479.26"/>
</g>
<!-- vesting -->
<g id="node11" class="node">
<title>vesting</title>
<ellipse fill="none" stroke="black" cx="125.09" cy="-522" rx="36.29" ry="18"/>
<text text-anchor="middle" x="125.09" y="-518.3" font-family="Times,serif" font-size="14.00">vesting</text>
</g>
<!-- genesis&#45;&gt;vesting -->
<g id="edge38" class="edge">
<title>genesis&#45;&gt;vesting</title>
<path fill="none" stroke="black" d="M666.48,-592.18C580.01,-589.64 356.73,-579.45 175.09,-540 171.51,-539.22 167.83,-538.27 164.16,-537.22"/>
<polygon fill="black" stroke="black" points="165.37,-533.93 154.78,-534.3 163.29,-540.62 165.37,-533.93"/>
</g>
<!-- transaction_fee -->
<g id="node12" class="node">
<title>transaction_fee</title>
<ellipse fill="none" stroke="black" cx="927.09" cy="-378" rx="64.19" ry="18"/>
<text text-anchor="middle" x="927.09" y="-374.3" font-family="Times,serif" font-size="14.00">transaction_fee</text>
</g>
<!-- genesis&#45;&gt;transaction_fee -->
<g id="edge41" class="edge">
<title>genesis&#45;&gt;transaction_fee</title>
<path fill="none" stroke="black" d="M739.29,-590.69C801.57,-585.89 924.86,-572.43 951.09,-540 982.02,-501.77 959.82,-441.13 942.42,-406.21"/>
<polygon fill="black" stroke="black" points="945.66,-404.85 937.94,-397.59 939.45,-408.08 945.66,-404.85"/>
</g>
<!-- transaction_validation -->
<g id="node13" class="node">
<title>transaction_validation</title>
<ellipse fill="none" stroke="black" cx="1092.09" cy="-450" rx="89.08" ry="18"/>
<text text-anchor="middle" x="1092.09" y="-446.3" font-family="Times,serif" font-size="14.00">transaction_validation</text>
</g>
<!-- genesis&#45;&gt;transaction_validation -->
<g id="edge42" class="edge">
<title>genesis&#45;&gt;transaction_validation</title>
<path fill="none" stroke="black" d="M739.28,-592.29C795.44,-589.91 905.8,-580.02 989.09,-540 1020.97,-524.69 1050.77,-496.87 1070.03,-476.4"/>
<polygon fill="black" stroke="black" points="1072.41,-478.98 1076.59,-469.25 1067.25,-474.25 1072.41,-478.98"/>
</g>
<!-- reconfiguration -->
<g id="node16" class="node">
<title>reconfiguration</title>
<ellipse fill="none" stroke="black" cx="583.09" cy="-450" rx="64.99" ry="18"/>
<text text-anchor="middle" x="583.09" y="-446.3" font-family="Times,serif" font-size="14.00">reconfiguration</text>
</g>
<!-- genesis&#45;&gt;reconfiguration -->
<g id="edge48" class="edge">
<title>genesis&#45;&gt;reconfiguration</title>
<path fill="none" stroke="black" d="M667.19,-590.18C608.07,-584.7 494.35,-570.4 470.09,-540 460.11,-527.49 461.51,-517.5 470.09,-504 481.82,-485.55 501.85,-473.41 521.82,-465.48"/>
<polygon fill="black" stroke="black" points="522.9,-468.81 531.11,-462.11 520.51,-462.23 522.9,-468.81"/>
</g>
<!-- block -->
<g id="node17" class="node">
<title>block</title>
<ellipse fill="none" stroke="black" cx="674.09" cy="-522" rx="30.59" ry="18"/>
<text text-anchor="middle" x="674.09" y="-518.3" font-family="Times,serif" font-size="14.00">block</text>
</g>
<!-- genesis&#45;&gt;block -->
<g id="edge49" class="edge">
<title>genesis&#45;&gt;block</title>
<path fill="none" stroke="black" d="M696.07,-576.05C692.87,-568.32 688.99,-558.96 685.39,-550.27"/>
<polygon fill="black" stroke="black" points="688.69,-549.09 681.63,-541.19 682.22,-551.77 688.69,-549.09"/>
</g>
<!-- consensus_config -->
<g id="node19" class="node">
<title>consensus_config</title>
<ellipse fill="none" stroke="black" cx="552.09" cy="-522" rx="73.39" ry="18"/>
<text text-anchor="middle" x="552.09" y="-518.3" font-family="Times,serif" font-size="14.00">consensus_config</text>
</g>
<!-- genesis&#45;&gt;consensus_config -->
<g id="edge50" class="edge">
<title>genesis&#45;&gt;consensus_config</title>
<path fill="none" stroke="black" d="M677.14,-580.97C654.73,-570.58 621.9,-555.36 595.5,-543.12"/>
<polygon fill="black" stroke="black" points="597.29,-540.09 586.74,-539.06 594.34,-546.44 597.29,-540.09"/>
</g>
<!-- gas_schedule -->
<g id="node20" class="node">
<title>gas_schedule</title>
<ellipse fill="none" stroke="black" cx="275.09" cy="-522" rx="57.69" ry="18"/>
<text text-anchor="middle" x="275.09" y="-518.3" font-family="Times,serif" font-size="14.00">gas_schedule</text>
</g>
<!-- genesis&#45;&gt;gas_schedule -->
<g id="edge51" class="edge">
<title>genesis&#45;&gt;gas_schedule</title>
<path fill="none" stroke="black" d="M667.79,-589.04C602.92,-581.49 460.59,-563.67 342.09,-540 337.78,-539.14 333.33,-538.18 328.87,-537.16"/>
<polygon fill="black" stroke="black" points="329.85,-533.79 319.31,-534.89 328.23,-540.6 329.85,-533.79"/>
</g>
<!-- version -->
<g id="node21" class="node">
<title>version</title>
<ellipse fill="none" stroke="black" cx="387.09" cy="-522" rx="36.29" ry="18"/>
<text text-anchor="middle" x="387.09" y="-518.3" font-family="Times,serif" font-size="14.00">version</text>
</g>
<!-- genesis&#45;&gt;version -->
<g id="edge52" class="edge">
<title>genesis&#45;&gt;version</title>
<path fill="none" stroke="black" d="M668.75,-587.64C617.75,-579.34 519.18,-562.03 437.09,-540 433.6,-539.06 429.99,-538.01 426.39,-536.9"/>
<polygon fill="black" stroke="black" points="427.75,-533.66 417.16,-533.92 425.6,-540.32 427.75,-533.66"/>
</g>
<!-- coin&#45;&gt;optional_aggregator -->
<g id="edge5" class="edge">
<title>coin&#45;&gt;optional_aggregator</title>
<path fill="none" stroke="black" d="M876.26,-223.12C899.37,-212.81 936.25,-196.37 965.6,-183.28"/>
<polygon fill="black" stroke="black" points="966.95,-186.52 974.65,-179.25 964.09,-180.12 966.95,-186.52"/>
</g>
<!-- aptos_coin&#45;&gt;coin -->
<g id="edge6" class="edge">
<title>aptos_coin&#45;&gt;coin</title>
<path fill="none" stroke="black" d="M779.4,-289.46C793.58,-279.12 812.32,-265.46 827.48,-254.41"/>
<polygon fill="black" stroke="black" points="829.14,-257.52 835.16,-248.8 825.02,-251.87 829.14,-257.52"/>
</g>
<!-- aptos_account -->
<g id="node7" class="node">
<title>aptos_account</title>
<ellipse fill="none" stroke="black" cx="325.09" cy="-378" rx="61.19" ry="18"/>
<text text-anchor="middle" x="325.09" y="-374.3" font-family="Times,serif" font-size="14.00">aptos_account</text>
</g>
<!-- aptos_account&#45;&gt;coin -->
<g id="edge7" class="edge">
<title>aptos_account&#45;&gt;coin</title>
<path fill="none" stroke="black" d="M369.29,-365.14C471.91,-337.59 724.72,-269.73 818.41,-244.58"/>
<polygon fill="black" stroke="black" points="819.07,-248.03 827.82,-242.05 817.25,-241.27 819.07,-248.03"/>
</g>
<!-- aptos_account&#45;&gt;aptos_coin -->
<g id="edge17" class="edge">
<title>aptos_account&#45;&gt;aptos_coin</title>
<path fill="none" stroke="black" d="M371.39,-365.93C380.86,-363.83 390.78,-361.74 400.09,-360 505.69,-340.25 629.93,-323.24 700.81,-314.12"/>
<polygon fill="black" stroke="black" points="701.16,-317.6 710.63,-312.86 700.27,-310.66 701.16,-317.6"/>
</g>
<!-- stake&#45;&gt;coin -->
<g id="edge8" class="edge">
<title>stake&#45;&gt;coin</title>
<path fill="none" stroke="black" d="M676.15,-359.64C677.14,-339.84 681.74,-307.65 700.09,-288 730.27,-255.7 781.02,-243.08 815.96,-238.16"/>
<polygon fill="black" stroke="black" points="816.16,-241.66 825.65,-236.95 815.3,-234.71 816.16,-241.66"/>
</g>
<!-- stake&#45;&gt;aptos_coin -->
<g id="edge18" class="edge">
<title>stake&#45;&gt;aptos_coin</title>
<path fill="none" stroke="black" d="M692.69,-362.83C703.53,-353.58 717.96,-341.26 730.51,-330.55"/>
<polygon fill="black" stroke="black" points="732.75,-333.24 738.08,-324.09 728.2,-327.92 732.75,-333.24"/>
</g>
<!-- aptos_governance&#45;&gt;coin -->
<g id="edge9" class="edge">
<title>aptos_governance&#45;&gt;coin</title>
<path fill="none" stroke="black" d="M836.25,-503.54C839.43,-455.76 848.28,-322.51 852.19,-263.61"/>
<polygon fill="black" stroke="black" points="855.68,-263.95 852.85,-253.74 848.69,-263.49 855.68,-263.95"/>
</g>
<!-- aptos_governance&#45;&gt;aptos_coin -->
<g id="edge19" class="edge">
<title>aptos_governance&#45;&gt;aptos_coin</title>
<path fill="none" stroke="black" d="M827.19,-503.86C816.37,-480.01 796.73,-435.3 783.09,-396 776.14,-375.95 769.69,-352.86 765.09,-335.22"/>
<polygon fill="black" stroke="black" points="768.53,-334.54 762.66,-325.72 761.75,-336.27 768.53,-334.54"/>
</g>
<!-- aptos_governance&#45;&gt;stake -->
<g id="edge28" class="edge">
<title>aptos_governance&#45;&gt;stake</title>
<path fill="none" stroke="black" d="M816.23,-504.15C787.36,-478.37 732.21,-429.12 700.39,-400.69"/>
<polygon fill="black" stroke="black" points="702.99,-398.32 693.2,-394.27 698.32,-403.55 702.99,-398.32"/>
</g>
<!-- aptos_governance&#45;&gt;reconfiguration -->
<g id="edge43" class="edge">
<title>aptos_governance&#45;&gt;reconfiguration</title>
<path fill="none" stroke="black" d="M787.7,-507.83C745.37,-496.08 683.35,-478.85 638.7,-466.45"/>
<polygon fill="black" stroke="black" points="639.77,-463.11 629.2,-463.81 637.9,-469.86 639.77,-463.11"/>
</g>
<!-- staking_contract&#45;&gt;coin -->
<g id="edge10" class="edge">
<title>staking_contract&#45;&gt;coin</title>
<path fill="none" stroke="black" d="M234.81,-431.5C234.35,-411.56 236.82,-379.25 255.09,-360 332.96,-277.97 695.72,-245.92 815.56,-237.46"/>
<polygon fill="black" stroke="black" points="815.78,-240.95 825.51,-236.77 815.3,-233.97 815.78,-240.95"/>
</g>
<!-- staking_contract&#45;&gt;aptos_coin -->
<g id="edge20" class="edge">
<title>staking_contract&#45;&gt;aptos_coin</title>
<path fill="none" stroke="black" d="M286.46,-437.41C318.77,-428.75 360.93,-415.08 395.09,-396 416.85,-383.85 415.45,-370.4 438.09,-360 522.63,-321.17 631.31,-310.39 697.78,-307.62"/>
<polygon fill="black" stroke="black" points="697.5,-311.13 707.36,-307.27 697.24,-304.14 697.5,-311.13"/>
</g>
<!-- staking_contract&#45;&gt;stake -->
<g id="edge30" class="edge">
<title>staking_contract&#45;&gt;stake</title>
<path fill="none" stroke="black" d="M293.62,-439.85C384.57,-425.38 559.24,-397.59 637.04,-385.21"/>
<polygon fill="black" stroke="black" points="637.41,-388.7 646.74,-383.67 636.31,-381.78 637.41,-388.7"/>
</g>
<!-- vesting&#45;&gt;coin -->
<g id="edge11" class="edge">
<title>vesting&#45;&gt;coin</title>
<path fill="none" stroke="black" d="M122.81,-503.8C121.14,-484.99 120.95,-454.53 133.09,-432 181.85,-341.5 218.82,-326.6 314.09,-288 405.4,-251.01 707.98,-239.08 815.65,-235.96"/>
<polygon fill="black" stroke="black" points="815.5,-239.46 825.4,-235.69 815.3,-232.47 815.5,-239.46"/>
</g>
<!-- vesting&#45;&gt;aptos_coin -->
<g id="edge21" class="edge">
<title>vesting&#45;&gt;aptos_coin</title>
<path fill="none" stroke="black" d="M156.74,-512.9C194.46,-503.06 259.26,-485.6 314.09,-468 462.85,-420.25 636.13,-354.39 715.03,-323.83"/>
<polygon fill="black" stroke="black" points="716.05,-327.19 724.11,-320.31 713.52,-320.66 716.05,-327.19"/>
</g>
<!-- vesting&#45;&gt;aptos_account -->
<g id="edge26" class="edge">
<title>vesting&#45;&gt;aptos_account</title>
<path fill="none" stroke="black" d="M126.95,-503.81C130.01,-483.85 137.94,-451.22 158.09,-432 184.6,-406.73 223.11,-393.51 256.47,-386.59"/>
<polygon fill="black" stroke="black" points="256.91,-390.07 266.08,-384.76 255.6,-383.19 256.91,-390.07"/>
</g>
<!-- vesting&#45;&gt;stake -->
<g id="edge31" class="edge">
<title>vesting&#45;&gt;stake</title>
<path fill="none" stroke="black" d="M157.72,-513.82C172.98,-510.59 191.42,-506.87 208.09,-504 322.2,-484.37 360.28,-514.98 466.09,-468 488.87,-457.89 487.25,-444 509.09,-432 550.3,-409.38 602.61,-394.75 637.6,-386.72"/>
<polygon fill="black" stroke="black" points="638.28,-390.15 647.29,-384.57 636.77,-383.32 638.28,-390.15"/>
</g>
<!-- vesting&#45;&gt;staking_contract -->
<g id="edge35" class="edge">
<title>vesting&#45;&gt;staking_contract</title>
<path fill="none" stroke="black" d="M147.02,-507.17C162.48,-497.42 183.51,-484.16 201.25,-472.97"/>
<polygon fill="black" stroke="black" points="202.84,-476.11 209.43,-467.81 199.11,-470.19 202.84,-476.11"/>
</g>
<!-- transaction_fee&#45;&gt;coin -->
<g id="edge12" class="edge">
<title>transaction_fee&#45;&gt;coin</title>
<path fill="none" stroke="black" d="M917.08,-359.97C911.11,-349.65 903.47,-336.18 897.09,-324 886.28,-303.36 874.84,-279.57 866.48,-261.78"/>
<polygon fill="black" stroke="black" points="869.75,-260.51 862.34,-252.93 863.41,-263.48 869.75,-260.51"/>
</g>
<!-- transaction_fee&#45;&gt;aptos_coin -->
<g id="edge22" class="edge">
<title>transaction_fee&#45;&gt;aptos_coin</title>
<path fill="none" stroke="black" d="M892.08,-362.5C865.33,-351.42 828.37,-336.11 800.04,-324.37"/>
<polygon fill="black" stroke="black" points="801.62,-321.24 791.05,-320.65 798.94,-327.71 801.62,-321.24"/>
</g>
<!-- transaction_validation&#45;&gt;coin -->
<g id="edge13" class="edge">
<title>transaction_validation&#45;&gt;coin</title>
<path fill="none" stroke="black" d="M1146.97,-435.42C1167.27,-427.45 1188.22,-415.06 1200.09,-396 1208.56,-382.42 1208.17,-373.81 1200.09,-360 1137.2,-252.46 969.26,-236.23 892.88,-234.6"/>
<polygon fill="black" stroke="black" points="893,-231.1 882.95,-234.47 892.91,-238.1 893,-231.1"/>
</g>
<!-- transaction_validation&#45;&gt;aptos_coin -->
<g id="edge23" class="edge">
<title>transaction_validation&#45;&gt;aptos_coin</title>
<path fill="none" stroke="black" d="M1074.89,-432.13C1048.89,-406.66 1002.35,-361.21 1000.09,-360 968.43,-343.02 874.99,-325.62 813.92,-315.59"/>
<polygon fill="black" stroke="black" points="814.84,-312.2 804.41,-314.05 813.72,-319.1 814.84,-312.2"/>
</g>
<!-- transaction_validation&#45;&gt;transaction_fee -->
<g id="edge40" class="edge">
<title>transaction_validation&#45;&gt;transaction_fee</title>
<path fill="none" stroke="black" d="M1055.07,-433.29C1030.43,-422.84 997.93,-409.05 971.85,-397.99"/>
<polygon fill="black" stroke="black" points="973.43,-394.86 962.86,-394.17 970.7,-401.3 973.43,-394.86"/>
</g>
<!-- managed_coin -->
<g id="node14" class="node">
<title>managed_coin</title>
<ellipse fill="none" stroke="black" cx="1001.09" cy="-306" rx="62.29" ry="18"/>
<text text-anchor="middle" x="1001.09" y="-302.3" font-family="Times,serif" font-size="14.00">managed_coin</text>
</g>
<!-- managed_coin&#45;&gt;coin -->
<g id="edge15" class="edge">
<title>managed_coin&#45;&gt;coin</title>
<path fill="none" stroke="black" d="M969.92,-290.15C945.25,-278.41 910.94,-262.07 886.07,-250.22"/>
<polygon fill="black" stroke="black" points="887.61,-247.08 877.07,-245.94 884.6,-253.4 887.61,-247.08"/>
</g>
<!-- resource_account -->
<g id="node15" class="node">
<title>resource_account</title>
<ellipse fill="none" stroke="black" cx="1119.09" cy="-378" rx="72.29" ry="18"/>
<text text-anchor="middle" x="1119.09" y="-374.3" font-family="Times,serif" font-size="14.00">resource_account</text>
</g>
<!-- resource_account&#45;&gt;coin -->
<g id="edge16" class="edge">
<title>resource_account&#45;&gt;coin</title>
<path fill="none" stroke="black" d="M1065.36,-365.61C1017.78,-354.86 952.49,-338.32 930.09,-324 923.04,-319.49 893.53,-283.85 873.43,-259.06"/>
<polygon fill="black" stroke="black" points="876.21,-256.94 867.2,-251.36 870.76,-261.34 876.21,-256.94"/>
</g>
<!-- resource_account&#45;&gt;aptos_coin -->
<g id="edge25" class="edge">
<title>resource_account&#45;&gt;aptos_coin</title>
<path fill="none" stroke="black" d="M1064.05,-366.08C1053.76,-364.05 1043.1,-361.95 1033.09,-360 956.3,-345.01 867.4,-327.92 811.95,-317.3"/>
<polygon fill="black" stroke="black" points="812.94,-313.93 802.46,-315.48 811.63,-320.8 812.94,-313.93"/>
</g>
<!-- reconfiguration&#45;&gt;stake -->
<g id="edge27" class="edge">
<title>reconfiguration&#45;&gt;stake</title>
<path fill="none" stroke="black" d="M604.66,-432.76C617.96,-422.76 635.11,-409.85 649.27,-399.19"/>
<polygon fill="black" stroke="black" points="650.99,-402.28 656.87,-393.47 646.78,-396.69 650.99,-402.28"/>
</g>
<!-- block&#45;&gt;stake -->
<g id="edge29" class="edge">
<title>block&#45;&gt;stake</title>
<path fill="none" stroke="black" d="M674.34,-503.59C674.68,-479.61 675.29,-436.14 675.69,-407.42"/>
<polygon fill="black" stroke="black" points="679.19,-407.67 675.83,-397.62 672.19,-407.57 679.19,-407.67"/>
</g>
<!-- block&#45;&gt;reconfiguration -->
<g id="edge44" class="edge">
<title>block&#45;&gt;reconfiguration</title>
<path fill="none" stroke="black" d="M656.12,-507.17C643.88,-497.76 627.39,-485.07 613.17,-474.14"/>
<polygon fill="black" stroke="black" points="615.49,-471.5 605.43,-468.18 611.22,-477.05 615.49,-471.5"/>
</g>
<!-- staking_proxy -->
<g id="node18" class="node">
<title>staking_proxy</title>
<ellipse fill="none" stroke="black" cx="61.09" cy="-594" rx="61.19" ry="18"/>
<text text-anchor="middle" x="61.09" y="-590.3" font-family="Times,serif" font-size="14.00">staking_proxy</text>
</g>
<!-- staking_proxy&#45;&gt;stake -->
<g id="edge33" class="edge">
<title>staking_proxy&#45;&gt;stake</title>
<path fill="none" stroke="black" d="M56.44,-575.88C52.32,-557.14 48.58,-526.75 60.09,-504 84.5,-455.78 107.66,-451.43 158.09,-432 202.39,-414.93 522.78,-390.19 636.33,-381.86"/>
<polygon fill="black" stroke="black" points="636.36,-385.37 646.07,-381.15 635.85,-378.38 636.36,-385.37"/>
</g>
<!-- staking_proxy&#45;&gt;staking_contract -->
<g id="edge37" class="edge">
<title>staking_proxy&#45;&gt;staking_contract</title>
<path fill="none" stroke="black" d="M60.03,-575.71C59.79,-555.97 62.46,-523.84 80.09,-504 93.07,-489.41 136.57,-475.31 174.35,-465.32"/>
<polygon fill="black" stroke="black" points="175.06,-468.75 183.87,-462.87 173.32,-461.98 175.06,-468.75"/>
</g>
<!-- staking_proxy&#45;&gt;vesting -->
<g id="edge39" class="edge">
<title>staking_proxy&#45;&gt;vesting</title>
<path fill="none" stroke="black" d="M76.26,-576.41C84.3,-567.62 94.32,-556.66 103.18,-546.96"/>
<polygon fill="black" stroke="black" points="105.73,-549.37 109.89,-539.63 100.56,-544.65 105.73,-549.37"/>
</g>
<!-- consensus_config&#45;&gt;reconfiguration -->
<g id="edge45" class="edge">
<title>consensus_config&#45;&gt;reconfiguration</title>
<path fill="none" stroke="black" d="M559.76,-503.7C563.14,-496.07 567.19,-486.92 570.96,-478.4"/>
<polygon fill="black" stroke="black" points="574.06,-480.05 574.91,-469.49 567.66,-477.21 574.06,-480.05"/>
</g>
<!-- gas_schedule&#45;&gt;reconfiguration -->
<g id="edge46" class="edge">
<title>gas_schedule&#45;&gt;reconfiguration</title>
<path fill="none" stroke="black" d="M318.29,-509.82C326.2,-507.84 334.39,-505.82 342.09,-504 375.63,-496.06 462.19,-477.17 521.89,-464.23"/>
<polygon fill="black" stroke="black" points="522.57,-467.66 531.6,-462.12 521.09,-460.82 522.57,-467.66"/>
</g>
<!-- version&#45;&gt;reconfiguration -->
<g id="edge47" class="edge">
<title>version&#45;&gt;reconfiguration</title>
<path fill="none" stroke="black" d="M416.02,-510.67C446.93,-499.63 496.51,-481.92 533.65,-468.66"/>
<polygon fill="black" stroke="black" points="534.58,-472.04 542.83,-465.38 532.23,-465.45 534.58,-472.04"/>
</g>
</g>
</svg>
