<?xml version="1.0" encoding="UTF-8" standalone="no"?>
<!DOCTYPE svg PUBLIC "-//W3C//DTD SVG 1.1//EN"
 "http://www.w3.org/Graphics/SVG/1.1/DTD/svg11.dtd">
<!-- Generated by graphviz version 7.0.0 (20221023.0053)
 -->
<!-- Title: G Pages: 1 -->
<svg width="292pt" height="393pt"
 viewBox="0.00 0.00 292.00 393.00" xmlns="http://www.w3.org/2000/svg" xmlns:xlink="http://www.w3.org/1999/xlink">
<g id="graph0" class="graph" transform="scale(1 1) rotate(0) translate(4 389)">
<title>G</title>
<polygon fill="white" stroke="none" points="-4,4 -4,-389 288,-389 288,4 -4,4"/>
<g id="clust1" class="cluster">
<title>cluster_optional_aggregator</title>
<polygon fill="none" stroke="black" points="118,-64 118,-211 243,-211 243,-64 118,-64"/>
<text text-anchor="middle" x="180.5" y="-195.8" font-family="Times,serif" font-size="14.00">optional_aggregator</text>
</g>
<g id="clust2" class="cluster">
<title>cluster_coin</title>
<polygon fill="none" stroke="black" points="40,-219 40,-294 276,-294 276,-219 40,-219"/>
<text text-anchor="middle" x="158" y="-278.8" font-family="Times,serif" font-size="14.00">coin</text>
</g>
<g id="clust3" class="cluster">
<title>cluster_aptos_governance</title>
<polygon fill="none" stroke="black" points="8,-302 8,-377 156,-377 156,-302 8,-302"/>
<text text-anchor="middle" x="82" y="-361.8" font-family="Times,serif" font-size="14.00">aptos_governance</text>
</g>
<!-- read -->
<g id="node1" class="node">
<title>read</title>
<ellipse fill="none" stroke="black" cx="156" cy="-18" rx="27" ry="18"/>
<text text-anchor="middle" x="156" y="-14.3" font-family="Times,serif" font-size="14.00">read</text>
</g>
<!-- optional_aggregator::read -->
<g id="node2" class="node">
<title>optional_aggregator::read</title>
<ellipse fill="none" stroke="black" cx="156" cy="-90" rx="27" ry="18"/>
<text text-anchor="middle" x="156" y="-86.3" font-family="Times,serif" font-size="14.00">read</text>
</g>
<!-- optional_aggregator::read&#45;&gt;read -->
<g id="edge1" class="edge">
<title>optional_aggregator::read&#45;&gt;read</title>
<path fill="none" stroke="black" d="M156,-71.7C156,-64.41 156,-55.73 156,-47.54"/>
<polygon fill="black" stroke="black" points="159.5,-47.62 156,-37.62 152.5,-47.62 159.5,-47.62"/>
</g>
<!-- optional_aggregator::switch -->
<g id="node3" class="node">
<title>optional_aggregator::switch</title>
<ellipse fill="none" stroke="black" cx="180" cy="-162" rx="33.6" ry="18"/>
<text text-anchor="middle" x="180" y="-158.3" font-family="Times,serif" font-size="14.00">switch</text>
</g>
<!-- optional_aggregator::switch&#45;&gt;optional_aggregator::read -->
<g id="edge2" class="edge">
<title>optional_aggregator::switch&#45;&gt;optional_aggregator::read</title>
<path fill="none" stroke="black" d="M174.19,-144.05C171.57,-136.4 168.4,-127.16 165.45,-118.56"/>
<polygon fill="black" stroke="black" points="168.8,-117.55 162.25,-109.22 162.18,-119.82 168.8,-117.55"/>
</g>
<!-- coin::supply -->
<g id="node4" class="node">
<title>coin::supply</title>
<ellipse fill="none" stroke="black" cx="82" cy="-245" rx="34.39" ry="18"/>
<text text-anchor="middle" x="82" y="-241.3" font-family="Times,serif" font-size="14.00">supply</text>
</g>
<!-- coin::supply&#45;&gt;optional_aggregator::read -->
<g id="edge3" class="edge">
<title>coin::supply&#45;&gt;optional_aggregator::read</title>
<path fill="none" stroke="black" d="M90.2,-227.04C102.99,-200.59 127.8,-149.3 143.03,-117.81"/>
<polygon fill="black" stroke="black" points="146.12,-119.46 147.33,-108.93 139.82,-116.41 146.12,-119.46"/>
</g>
<!-- coin::upgrade_supply -->
<g id="node5" class="node">
<title>coin::upgrade_supply</title>
<ellipse fill="none" stroke="black" cx="201" cy="-245" rx="66.89" ry="18"/>
<text text-anchor="middle" x="201" y="-241.3" font-family="Times,serif" font-size="14.00">upgrade_supply</text>
</g>
<!-- coin::upgrade_supply&#45;&gt;optional_aggregator::switch -->
<g id="edge4" class="edge">
<title>coin::upgrade_supply&#45;&gt;optional_aggregator::switch</title>
<path fill="none" stroke="black" d="M196.55,-226.82C193.85,-216.41 190.34,-202.87 187.24,-190.94"/>
<polygon fill="black" stroke="black" points="190.72,-190.42 184.83,-181.62 183.95,-192.18 190.72,-190.42"/>
</g>
<!-- aptos_governance::create_proposal -->
<g id="node6" class="node">
<title>aptos_governance::create_proposal</title>
<ellipse fill="none" stroke="black" cx="82" cy="-328" rx="66.09" ry="18"/>
<text text-anchor="middle" x="82" y="-324.3" font-family="Times,serif" font-size="14.00">create_proposal</text>
</g>
<!-- aptos_governance::create_proposal&#45;&gt;coin::supply -->
<g id="edge5" class="edge">
<title>aptos_governance::create_proposal&#45;&gt;coin::supply</title>
<path fill="none" stroke="black" d="M82,-309.82C82,-299.69 82,-286.6 82,-274.92"/>
<polygon fill="black" stroke="black" points="85.5,-274.95 82,-264.95 78.5,-274.95 85.5,-274.95"/>
</g>
</g>
</svg>
