<?xml version="1.0" encoding="UTF-8" standalone="no"?>
<!DOCTYPE svg PUBLIC "-//W3C//DTD SVG 1.1//EN"
 "http://www.w3.org/Graphics/SVG/1.1/DTD/svg11.dtd">
<!-- Generated by graphviz version 7.0.0 (20221023.0053)
 -->
<!-- Title: G Pages: 1 -->
<svg width="1303pt" height="548pt"
 viewBox="0.00 0.00 1303.09 548.00" xmlns="http://www.w3.org/2000/svg" xmlns:xlink="http://www.w3.org/1999/xlink">
<g id="graph0" class="graph" transform="scale(1 1) rotate(0) translate(4 544)">
<title>G</title>
<polygon fill="white" stroke="none" points="-4,4 -4,-544 1299.09,-544 1299.09,4 -4,4"/>
<!-- aggregator_factory -->
<g id="node1" class="node">
<title>aggregator_factory</title>
<ellipse fill="none" stroke="black" cx="1065.09" cy="-18" rx="77.19" ry="18"/>
<text text-anchor="middle" x="1065.09" y="-14.3" font-family="Times,serif" font-size="14.00">aggregator_factory</text>
</g>
<!-- optional_aggregator -->
<g id="node2" class="node">
<title>optional_aggregator</title>
<ellipse fill="none" stroke="black" cx="1011.09" cy="-90" rx="81.49" ry="18"/>
<text text-anchor="middle" x="1011.09" y="-86.3" font-family="Times,serif" font-size="14.00">optional_aggregator</text>
</g>
<!-- optional_aggregator&#45;&gt;aggregator_factory -->
<g id="edge1" class="edge">
<title>optional_aggregator&#45;&gt;aggregator_factory</title>
<path fill="none" stroke="black" d="M1024.17,-72.05C1030.47,-63.89 1038.16,-53.91 1045.17,-44.82"/>
<polygon fill="black" stroke="black" points="1047.88,-47.04 1051.22,-36.99 1042.34,-42.77 1047.88,-47.04"/>
</g>
<!-- genesis -->
<g id="node3" class="node">
<title>genesis</title>
<ellipse fill="none" stroke="black" cx="703.09" cy="-522" rx="36.29" ry="18"/>
<text text-anchor="middle" x="703.09" y="-518.3" font-family="Times,serif" font-size="14.00">genesis</text>
</g>
<!-- genesis&#45;&gt;aggregator_factory -->
<g id="edge2" class="edge">
<title>genesis&#45;&gt;aggregator_factory</title>
<path fill="none" stroke="black" d="M739.57,-519.7C837.85,-515.77 1106.19,-502.13 1187.09,-468 1244.4,-443.83 1295.09,-441.2 1295.09,-379 1295.09,-379 1295.09,-379 1295.09,-161 1295.09,-85.65 1204.62,-48.96 1137.16,-32.08"/>
<polygon fill="black" stroke="black" points="1138.14,-28.71 1127.6,-29.79 1136.51,-35.52 1138.14,-28.71"/>
</g>
<!-- coin -->
<g id="node4" class="node">
<title>coin</title>
<ellipse fill="none" stroke="black" cx="854.09" cy="-162" rx="27" ry="18"/>
<text text-anchor="middle" x="854.09" y="-158.3" font-family="Times,serif" font-size="14.00">coin</text>
</g>
<!-- genesis&#45;&gt;coin -->
<g id="edge12" class="edge">
<title>genesis&#45;&gt;coin</title>
<path fill="none" stroke="black" d="M739.44,-519.54C862.69,-513.6 1257.09,-486.23 1257.09,-379 1257.09,-379 1257.09,-379 1257.09,-305 1257.09,-247.14 1213.9,-241.77 1162.09,-216 1072.83,-171.6 953.03,-163.63 892.51,-162.67"/>
<polygon fill="black" stroke="black" points="892.78,-159.17 882.74,-162.58 892.71,-166.17 892.78,-159.17"/>
</g>
<!-- aptos_coin -->
<g id="node5" class="node">
<title>aptos_coin</title>
<ellipse fill="none" stroke="black" cx="758.09" cy="-234" rx="48.99" ry="18"/>
<text text-anchor="middle" x="758.09" y="-230.3" font-family="Times,serif" font-size="14.00">aptos_coin</text>
</g>
<!-- genesis&#45;&gt;aptos_coin -->
<g id="edge22" class="edge">
<title>genesis&#45;&gt;aptos_coin</title>
<path fill="none" stroke="black" d="M738.47,-517.49C793.65,-511.21 896.16,-495.99 918.09,-468 948.12,-429.67 835.44,-310.75 783.27,-259.22"/>
<polygon fill="black" stroke="black" points="785.82,-256.82 776.23,-252.32 780.92,-261.82 785.82,-256.82"/>
</g>
<!-- stake -->
<g id="node7" class="node">
<title>stake</title>
<ellipse fill="none" stroke="black" cx="676.09" cy="-306" rx="28.7" ry="18"/>
<text text-anchor="middle" x="676.09" y="-302.3" font-family="Times,serif" font-size="14.00">stake</text>
</g>
<!-- genesis&#45;&gt;stake -->
<g id="edge30" class="edge">
<title>genesis&#45;&gt;stake</title>
<path fill="none" stroke="black" d="M707.56,-503.95C710.03,-493.63 712.85,-480.15 714.09,-468 715.73,-452.08 716.45,-447.83 714.09,-432 708.95,-397.37 696.19,-359.05 686.87,-334.09"/>
<polygon fill="black" stroke="black" points="690.25,-333.13 683.41,-325.03 683.71,-335.62 690.25,-333.13"/>
</g>
<!-- aptos_governance -->
<g id="node8" class="node">
<title>aptos_governance</title>
<ellipse fill="none" stroke="black" cx="835.09" cy="-450" rx="74.19" ry="18"/>
<text text-anchor="middle" x="835.09" y="-446.3" font-family="Times,serif" font-size="14.00">aptos_governance</text>
</g>
<!-- genesis&#45;&gt;aptos_governance -->
<g id="edge32" class="edge">
<title>genesis&#45;&gt;aptos_governance</title>
<path fill="none" stroke="black" d="M727.31,-508.16C746.32,-498.08 773.21,-483.82 795.37,-472.07"/>
<polygon fill="black" stroke="black" points="796.96,-475.18 804.15,-467.41 793.68,-469 796.96,-475.18"/>
</g>
<!-- staking_contract -->
<g id="node9" class="node">
<title>staking_contract</title>
<ellipse fill="none" stroke="black" cx="236.09" cy="-378" rx="68.79" ry="18"/>
<text text-anchor="middle" x="236.09" y="-374.3" font-family="Times,serif" font-size="14.00">staking_contract</text>
</g>
<!-- genesis&#45;&gt;staking_contract -->
<g id="edge34" class="edge">
<title>genesis&#45;&gt;staking_contract</title>
<path fill="none" stroke="black" d="M666.58,-519.85C557.33,-516.03 238.68,-502.03 208.09,-468 192.51,-450.66 203.3,-424.69 215.73,-405.27"/>
<polygon fill="black" stroke="black" points="218.61,-407.26 221.39,-397.04 212.84,-403.3 218.61,-407.26"/>
</g>
<!-- vesting -->
<g id="node10" class="node">
<title>vesting</title>
<ellipse fill="none" stroke="black" cx="125.09" cy="-450" rx="36.29" ry="18"/>
<text text-anchor="middle" x="125.09" y="-446.3" font-family="Times,serif" font-size="14.00">vesting</text>
</g>
<!-- genesis&#45;&gt;vesting -->
<g id="edge36" class="edge">
<title>genesis&#45;&gt;vesting</title>
<path fill="none" stroke="black" d="M666.48,-520.18C580.01,-517.64 356.73,-507.45 175.09,-468 171.51,-467.22 167.83,-466.27 164.16,-465.22"/>
<polygon fill="black" stroke="black" points="165.37,-461.93 154.78,-462.3 163.29,-468.62 165.37,-461.93"/>
</g>
<!-- transaction_fee -->
<g id="node11" class="node">
<title>transaction_fee</title>
<ellipse fill="none" stroke="black" cx="927.09" cy="-306" rx="64.19" ry="18"/>
<text text-anchor="middle" x="927.09" y="-302.3" font-family="Times,serif" font-size="14.00">transaction_fee</text>
</g>
<!-- genesis&#45;&gt;transaction_fee -->
<g id="edge39" class="edge">
<title>genesis&#45;&gt;transaction_fee</title>
<path fill="none" stroke="black" d="M739.29,-518.69C801.57,-513.89 924.86,-500.43 951.09,-468 982.02,-429.77 959.82,-369.13 942.42,-334.21"/>
<polygon fill="black" stroke="black" points="945.66,-332.85 937.94,-325.59 939.45,-336.08 945.66,-332.85"/>
</g>
<!-- transaction_validation -->
<g id="node12" class="node">
<title>transaction_validation</title>
<ellipse fill="none" stroke="black" cx="1092.09" cy="-378" rx="89.08" ry="18"/>
<text text-anchor="middle" x="1092.09" y="-374.3" font-family="Times,serif" font-size="14.00">transaction_validation</text>
</g>
<!-- genesis&#45;&gt;transaction_validation -->
<g id="edge40" class="edge">
<title>genesis&#45;&gt;transaction_validation</title>
<path fill="none" stroke="black" d="M739.28,-520.29C795.44,-517.91 905.8,-508.02 989.09,-468 1020.97,-452.69 1050.77,-424.87 1070.03,-404.4"/>
<polygon fill="black" stroke="black" points="1072.41,-406.98 1076.59,-397.25 1067.25,-402.25 1072.41,-406.98"/>
</g>
<!-- reconfiguration -->
<g id="node15" class="node">
<title>reconfiguration</title>
<ellipse fill="none" stroke="black" cx="583.09" cy="-378" rx="64.99" ry="18"/>
<text text-anchor="middle" x="583.09" y="-374.3" font-family="Times,serif" font-size="14.00">reconfiguration</text>
</g>
<!-- genesis&#45;&gt;reconfiguration -->
<g id="edge46" class="edge">
<title>genesis&#45;&gt;reconfiguration</title>
<path fill="none" stroke="black" d="M667.19,-518.18C608.07,-512.7 494.35,-498.4 470.09,-468 460.11,-455.49 461.51,-445.5 470.09,-432 481.82,-413.55 501.85,-401.41 521.82,-393.48"/>
<polygon fill="black" stroke="black" points="522.9,-396.81 531.11,-390.11 520.51,-390.23 522.9,-396.81"/>
</g>
<!-- block -->
<g id="node16" class="node">
<title>block</title>
<ellipse fill="none" stroke="black" cx="674.09" cy="-450" rx="30.59" ry="18"/>
<text text-anchor="middle" x="674.09" y="-446.3" font-family="Times,serif" font-size="14.00">block</text>
</g>
<!-- genesis&#45;&gt;block -->
<g id="edge47" class="edge">
<title>genesis&#45;&gt;block</title>
<path fill="none" stroke="black" d="M696.07,-504.05C692.87,-496.32 688.99,-486.96 685.39,-478.27"/>
<polygon fill="black" stroke="black" points="688.69,-477.09 681.63,-469.19 682.22,-479.77 688.69,-477.09"/>
</g>
<!-- consensus_config -->
<g id="node18" class="node">
<title>consensus_config</title>
<ellipse fill="none" stroke="black" cx="552.09" cy="-450" rx="73.39" ry="18"/>
<text text-anchor="middle" x="552.09" y="-446.3" font-family="Times,serif" font-size="14.00">consensus_config</text>
</g>
<!-- genesis&#45;&gt;consensus_config -->
<g id="edge48" class="edge">
<title>genesis&#45;&gt;consensus_config</title>
<path fill="none" stroke="black" d="M677.14,-508.97C654.73,-498.58 621.9,-483.36 595.5,-471.12"/>
<polygon fill="black" stroke="black" points="597.29,-468.09 586.74,-467.06 594.34,-474.44 597.29,-468.09"/>
</g>
<!-- gas_schedule -->
<g id="node19" class="node">
<title>gas_schedule</title>
<ellipse fill="none" stroke="black" cx="275.09" cy="-450" rx="57.69" ry="18"/>
<text text-anchor="middle" x="275.09" y="-446.3" font-family="Times,serif" font-size="14.00">gas_schedule</text>
</g>
<!-- genesis&#45;&gt;gas_schedule -->
<g id="edge49" class="edge">
<title>genesis&#45;&gt;gas_schedule</title>
<path fill="none" stroke="black" d="M667.79,-517.04C602.92,-509.49 460.59,-491.67 342.09,-468 337.78,-467.14 333.33,-466.18 328.87,-465.16"/>
<polygon fill="black" stroke="black" points="329.85,-461.79 319.31,-462.89 328.23,-468.6 329.85,-461.79"/>
</g>
<!-- version -->
<g id="node20" class="node">
<title>version</title>
<ellipse fill="none" stroke="black" cx="387.09" cy="-450" rx="36.29" ry="18"/>
<text text-anchor="middle" x="387.09" y="-446.3" font-family="Times,serif" font-size="14.00">version</text>
</g>
<!-- genesis&#45;&gt;version -->
<g id="edge50" class="edge">
<title>genesis&#45;&gt;version</title>
<path fill="none" stroke="black" d="M668.75,-515.64C617.75,-507.34 519.18,-490.03 437.09,-468 433.6,-467.06 429.99,-466.01 426.39,-464.9"/>
<polygon fill="black" stroke="black" points="427.75,-461.66 417.16,-461.92 425.6,-468.32 427.75,-461.66"/>
</g>
<!-- coin&#45;&gt;optional_aggregator -->
<g id="edge3" class="edge">
<title>coin&#45;&gt;optional_aggregator</title>
<path fill="none" stroke="black" d="M876.26,-151.12C899.37,-140.81 936.25,-124.37 965.6,-111.28"/>
<polygon fill="black" stroke="black" points="966.95,-114.52 974.65,-107.25 964.09,-108.12 966.95,-114.52"/>
</g>
<!-- aptos_coin&#45;&gt;coin -->
<g id="edge4" class="edge">
<title>aptos_coin&#45;&gt;coin</title>
<path fill="none" stroke="black" d="M779.4,-217.46C793.58,-207.12 812.32,-193.46 827.48,-182.41"/>
<polygon fill="black" stroke="black" points="829.14,-185.52 835.16,-176.8 825.02,-179.87 829.14,-185.52"/>
</g>
<!-- aptos_account -->
<g id="node6" class="node">
<title>aptos_account</title>
<ellipse fill="none" stroke="black" cx="325.09" cy="-306" rx="61.19" ry="18"/>
<text text-anchor="middle" x="325.09" y="-302.3" font-family="Times,serif" font-size="14.00">aptos_account</text>
</g>
<!-- aptos_account&#45;&gt;coin -->
<g id="edge5" class="edge">
<title>aptos_account&#45;&gt;coin</title>
<path fill="none" stroke="black" d="M369.29,-293.14C471.91,-265.59 724.72,-197.73 818.41,-172.58"/>
<polygon fill="black" stroke="black" points="819.07,-176.03 827.82,-170.05 817.25,-169.27 819.07,-176.03"/>
</g>
<!-- aptos_account&#45;&gt;aptos_coin -->
<g id="edge15" class="edge">
<title>aptos_account&#45;&gt;aptos_coin</title>
<path fill="none" stroke="black" d="M371.39,-293.93C380.86,-291.83 390.78,-289.74 400.09,-288 505.69,-268.25 629.93,-251.24 700.81,-242.12"/>
<polygon fill="black" stroke="black" points="701.16,-245.6 710.63,-240.86 700.27,-238.66 701.16,-245.6"/>
</g>
<!-- stake&#45;&gt;coin -->
<g id="edge6" class="edge">
<title>stake&#45;&gt;coin</title>
<path fill="none" stroke="black" d="M676.15,-287.64C677.14,-267.84 681.74,-235.65 700.09,-216 730.27,-183.7 781.02,-171.08 815.96,-166.16"/>
<polygon fill="black" stroke="black" points="816.16,-169.66 825.65,-164.95 815.3,-162.71 816.16,-169.66"/>
</g>
<!-- stake&#45;&gt;aptos_coin -->
<g id="edge16" class="edge">
<title>stake&#45;&gt;aptos_coin</title>
<path fill="none" stroke="black" d="M692.69,-290.83C703.53,-281.58 717.96,-269.26 730.51,-258.55"/>
<polygon fill="black" stroke="black" points="732.75,-261.24 738.08,-252.09 728.2,-255.92 732.75,-261.24"/>
</g>
<!-- aptos_governance&#45;&gt;coin -->
<g id="edge7" class="edge">
<title>aptos_governance&#45;&gt;coin</title>
<path fill="none" stroke="black" d="M836.25,-431.54C839.43,-383.76 848.28,-250.51 852.19,-191.61"/>
<polygon fill="black" stroke="black" points="855.68,-191.95 852.85,-181.74 848.69,-191.49 855.68,-191.95"/>
</g>
<!-- aptos_governance&#45;&gt;aptos_coin -->
<g id="edge17" class="edge">
<title>aptos_governance&#45;&gt;aptos_coin</title>
<path fill="none" stroke="black" d="M827.19,-431.86C816.37,-408.01 796.73,-363.3 783.09,-324 776.14,-303.95 769.69,-280.86 765.09,-263.22"/>
<polygon fill="black" stroke="black" points="768.53,-262.54 762.66,-253.72 761.75,-264.27 768.53,-262.54"/>
</g>
<!-- aptos_governance&#45;&gt;stake -->
<g id="edge26" class="edge">
<title>aptos_governance&#45;&gt;stake</title>
<path fill="none" stroke="black" d="M816.23,-432.15C787.36,-406.37 732.21,-357.12 700.39,-328.69"/>
<polygon fill="black" stroke="black" points="702.99,-326.32 693.2,-322.27 698.32,-331.55 702.99,-326.32"/>
</g>
<!-- aptos_governance&#45;&gt;reconfiguration -->
<g id="edge41" class="edge">
<title>aptos_governance&#45;&gt;reconfiguration</title>
<path fill="none" stroke="black" d="M787.7,-435.83C745.37,-424.08 683.35,-406.85 638.7,-394.45"/>
<polygon fill="black" stroke="black" points="639.77,-391.11 629.2,-391.81 637.9,-397.86 639.77,-391.11"/>
</g>
<!-- staking_contract&#45;&gt;coin -->
<g id="edge8" class="edge">
<title>staking_contract&#45;&gt;coin</title>
<path fill="none" stroke="black" d="M234.81,-359.5C234.35,-339.56 236.82,-307.25 255.09,-288 332.96,-205.97 695.72,-173.92 815.56,-165.46"/>
<polygon fill="black" stroke="black" points="815.78,-168.95 825.51,-164.77 815.3,-161.97 815.78,-168.95"/>
</g>
<!-- staking_contract&#45;&gt;aptos_coin -->
<g id="edge18" class="edge">
<title>staking_contract&#45;&gt;aptos_coin</title>
<path fill="none" stroke="black" d="M286.46,-365.41C318.77,-356.75 360.93,-343.08 395.09,-324 416.85,-311.85 415.45,-298.4 438.09,-288 522.63,-249.17 631.31,-238.39 697.78,-235.62"/>
<polygon fill="black" stroke="black" points="697.5,-239.13 707.36,-235.27 697.24,-232.14 697.5,-239.13"/>
</g>
<!-- staking_contract&#45;&gt;stake -->
<g id="edge28" class="edge">
<title>staking_contract&#45;&gt;stake</title>
<path fill="none" stroke="black" d="M293.62,-367.85C384.57,-353.38 559.24,-325.59 637.04,-313.21"/>
<polygon fill="black" stroke="black" points="637.41,-316.7 646.74,-311.67 636.31,-309.78 637.41,-316.7"/>
</g>
<!-- vesting&#45;&gt;coin -->
<g id="edge9" class="edge">
<title>vesting&#45;&gt;coin</title>
<path fill="none" stroke="black" d="M122.81,-431.8C121.14,-412.99 120.95,-382.53 133.09,-360 181.85,-269.5 218.82,-254.6 314.09,-216 405.4,-179.01 707.98,-167.08 815.65,-163.96"/>
<polygon fill="black" stroke="black" points="815.5,-167.46 825.4,-163.69 815.3,-160.47 815.5,-167.46"/>
</g>
<!-- vesting&#45;&gt;aptos_coin -->
<g id="edge19" class="edge">
<title>vesting&#45;&gt;aptos_coin</title>
<path fill="none" stroke="black" d="M156.74,-440.9C194.46,-431.06 259.26,-413.6 314.09,-396 462.85,-348.25 636.13,-282.39 715.03,-251.83"/>
<polygon fill="black" stroke="black" points="716.05,-255.19 724.11,-248.31 713.52,-248.66 716.05,-255.19"/>
</g>
<!-- vesting&#45;&gt;aptos_account -->
<g id="edge24" class="edge">
<title>vesting&#45;&gt;aptos_account</title>
<path fill="none" stroke="black" d="M126.95,-431.81C130.01,-411.85 137.94,-379.22 158.09,-360 184.6,-334.73 223.11,-321.51 256.47,-314.59"/>
<polygon fill="black" stroke="black" points="256.91,-318.07 266.08,-312.76 255.6,-311.19 256.91,-318.07"/>
</g>
<!-- vesting&#45;&gt;stake -->
<g id="edge29" class="edge">
<title>vesting&#45;&gt;stake</title>
<path fill="none" stroke="black" d="M157.72,-441.82C172.98,-438.59 191.42,-434.87 208.09,-432 322.2,-412.37 360.28,-442.98 466.09,-396 488.87,-385.89 487.25,-372 509.09,-360 550.3,-337.38 602.61,-322.75 637.6,-314.72"/>
<polygon fill="black" stroke="black" points="638.28,-318.15 647.29,-312.57 636.77,-311.32 638.28,-318.15"/>
</g>
<!-- vesting&#45;&gt;staking_contract -->
<g id="edge33" class="edge">
<title>vesting&#45;&gt;staking_contract</title>
<path fill="none" stroke="black" d="M147.02,-435.17C162.48,-425.42 183.51,-412.16 201.25,-400.97"/>
<polygon fill="black" stroke="black" points="202.84,-404.11 209.43,-395.81 199.11,-398.19 202.84,-404.11"/>
</g>
<!-- transaction_fee&#45;&gt;coin -->
<g id="edge10" class="edge">
<title>transaction_fee&#45;&gt;coin</title>
<path fill="none" stroke="black" d="M917.08,-287.97C911.11,-277.65 903.47,-264.18 897.09,-252 886.28,-231.36 874.84,-207.57 866.48,-189.78"/>
<polygon fill="black" stroke="black" points="869.75,-188.51 862.34,-180.93 863.41,-191.48 869.75,-188.51"/>
</g>
<!-- transaction_fee&#45;&gt;aptos_coin -->
<g id="edge20" class="edge">
<title>transaction_fee&#45;&gt;aptos_coin</title>
<path fill="none" stroke="black" d="M892.08,-290.5C865.33,-279.42 828.37,-264.11 800.04,-252.37"/>
<polygon fill="black" stroke="black" points="801.62,-249.24 791.05,-248.65 798.94,-255.71 801.62,-249.24"/>
</g>
<!-- transaction_validation&#45;&gt;coin -->
<g id="edge11" class="edge">
<title>transaction_validation&#45;&gt;coin</title>
<path fill="none" stroke="black" d="M1146.97,-363.42C1167.27,-355.45 1188.22,-343.06 1200.09,-324 1208.56,-310.42 1208.17,-301.81 1200.09,-288 1137.2,-180.46 969.26,-164.23 892.88,-162.6"/>
<polygon fill="black" stroke="black" points="893,-159.1 882.95,-162.47 892.91,-166.1 893,-159.1"/>
</g>
<!-- transaction_validation&#45;&gt;aptos_coin -->
<g id="edge21" class="edge">
<title>transaction_validation&#45;&gt;aptos_coin</title>
<path fill="none" stroke="black" d="M1074.89,-360.13C1048.89,-334.66 1002.35,-289.21 1000.09,-288 968.43,-271.02 874.99,-253.62 813.92,-243.59"/>
<polygon fill="black" stroke="black" points="814.84,-240.2 804.41,-242.05 813.72,-247.1 814.84,-240.2"/>
</g>
<!-- transaction_validation&#45;&gt;transaction_fee -->
<g id="edge38" class="edge">
<title>transaction_validation&#45;&gt;transaction_fee</title>
<path fill="none" stroke="black" d="M1055.07,-361.29C1030.43,-350.84 997.93,-337.05 971.85,-325.99"/>
<polygon fill="black" stroke="black" points="973.43,-322.86 962.86,-322.17 970.7,-329.3 973.43,-322.86"/>
</g>
<!-- managed_coin -->
<g id="node13" class="node">
<title>managed_coin</title>
<ellipse fill="none" stroke="black" cx="1001.09" cy="-234" rx="62.29" ry="18"/>
<text text-anchor="middle" x="1001.09" y="-230.3" font-family="Times,serif" font-size="14.00">managed_coin</text>
</g>
<!-- managed_coin&#45;&gt;coin -->
<g id="edge13" class="edge">
<title>managed_coin&#45;&gt;coin</title>
<path fill="none" stroke="black" d="M969.92,-218.15C945.25,-206.41 910.94,-190.07 886.07,-178.22"/>
<polygon fill="black" stroke="black" points="887.61,-175.08 877.07,-173.94 884.6,-181.4 887.61,-175.08"/>
</g>
<!-- resource_account -->
<g id="node14" class="node">
<title>resource_account</title>
<ellipse fill="none" stroke="black" cx="1119.09" cy="-306" rx="72.29" ry="18"/>
<text text-anchor="middle" x="1119.09" y="-302.3" font-family="Times,serif" font-size="14.00">resource_account</text>
</g>
<!-- resource_account&#45;&gt;coin -->
<g id="edge14" class="edge">
<title>resource_account&#45;&gt;coin</title>
<path fill="none" stroke="black" d="M1065.36,-293.61C1017.78,-282.86 952.49,-266.32 930.09,-252 923.04,-247.49 893.53,-211.85 873.43,-187.06"/>
<polygon fill="black" stroke="black" points="876.21,-184.94 867.2,-179.36 870.76,-189.34 876.21,-184.94"/>
</g>
<!-- resource_account&#45;&gt;aptos_coin -->
<g id="edge23" class="edge">
<title>resource_account&#45;&gt;aptos_coin</title>
<path fill="none" stroke="black" d="M1064.05,-294.08C1053.76,-292.05 1043.1,-289.95 1033.09,-288 956.3,-273.01 867.4,-255.92 811.95,-245.3"/>
<polygon fill="black" stroke="black" points="812.94,-241.93 802.46,-243.48 811.63,-248.8 812.94,-241.93"/>
</g>
<!-- reconfiguration&#45;&gt;stake -->
<g id="edge25" class="edge">
<title>reconfiguration&#45;&gt;stake</title>
<path fill="none" stroke="black" d="M604.66,-360.76C617.96,-350.76 635.11,-337.85 649.27,-327.19"/>
<polygon fill="black" stroke="black" points="650.99,-330.28 656.87,-321.47 646.78,-324.69 650.99,-330.28"/>
</g>
<!-- block&#45;&gt;stake -->
<g id="edge27" class="edge">
<title>block&#45;&gt;stake</title>
<path fill="none" stroke="black" d="M674.34,-431.59C674.68,-407.61 675.29,-364.14 675.69,-335.42"/>
<polygon fill="black" stroke="black" points="679.19,-335.67 675.83,-325.62 672.19,-335.57 679.19,-335.67"/>
</g>
<!-- block&#45;&gt;reconfiguration -->
<g id="edge42" class="edge">
<title>block&#45;&gt;reconfiguration</title>
<path fill="none" stroke="black" d="M656.12,-435.17C643.88,-425.76 627.39,-413.07 613.17,-402.14"/>
<polygon fill="black" stroke="black" points="615.49,-399.5 605.43,-396.18 611.22,-405.05 615.49,-399.5"/>
</g>
<!-- staking_proxy -->
<g id="node17" class="node">
<title>staking_proxy</title>
<ellipse fill="none" stroke="black" cx="61.09" cy="-522" rx="61.19" ry="18"/>
<text text-anchor="middle" x="61.09" y="-518.3" font-family="Times,serif" font-size="14.00">staking_proxy</text>
</g>
<!-- staking_proxy&#45;&gt;stake -->
<g id="edge31" class="edge">
<title>staking_proxy&#45;&gt;stake</title>
<path fill="none" stroke="black" d="M56.44,-503.88C52.32,-485.14 48.58,-454.75 60.09,-432 84.5,-383.78 107.66,-379.43 158.09,-360 202.39,-342.93 522.78,-318.19 636.33,-309.86"/>
<polygon fill="black" stroke="black" points="636.36,-313.37 646.07,-309.15 635.85,-306.38 636.36,-313.37"/>
</g>
<!-- staking_proxy&#45;&gt;staking_contract -->
<g id="edge35" class="edge">
<title>staking_proxy&#45;&gt;staking_contract</title>
<path fill="none" stroke="black" d="M60.03,-503.71C59.79,-483.97 62.46,-451.84 80.09,-432 93.07,-417.41 136.57,-403.31 174.35,-393.32"/>
<polygon fill="black" stroke="black" points="175.06,-396.75 183.87,-390.87 173.32,-389.98 175.06,-396.75"/>
</g>
<!-- staking_proxy&#45;&gt;vesting -->
<g id="edge37" class="edge">
<title>staking_proxy&#45;&gt;vesting</title>
<path fill="none" stroke="black" d="M76.26,-504.41C84.3,-495.62 94.32,-484.66 103.18,-474.96"/>
<polygon fill="black" stroke="black" points="105.73,-477.37 109.89,-467.63 100.56,-472.65 105.73,-477.37"/>
</g>
<!-- consensus_config&#45;&gt;reconfiguration -->
<g id="edge43" class="edge">
<title>consensus_config&#45;&gt;reconfiguration</title>
<path fill="none" stroke="black" d="M559.76,-431.7C563.14,-424.07 567.19,-414.92 570.96,-406.4"/>
<polygon fill="black" stroke="black" points="574.06,-408.05 574.91,-397.49 567.66,-405.21 574.06,-408.05"/>
</g>
<!-- gas_schedule&#45;&gt;reconfiguration -->
<g id="edge44" class="edge">
<title>gas_schedule&#45;&gt;reconfiguration</title>
<path fill="none" stroke="black" d="M318.29,-437.82C326.2,-435.84 334.39,-433.82 342.09,-432 375.63,-424.06 462.19,-405.17 521.89,-392.23"/>
<polygon fill="black" stroke="black" points="522.57,-395.66 531.6,-390.12 521.09,-388.82 522.57,-395.66"/>
</g>
<!-- version&#45;&gt;reconfiguration -->
<g id="edge45" class="edge">
<title>version&#45;&gt;reconfiguration</title>
<path fill="none" stroke="black" d="M416.02,-438.67C446.93,-427.63 496.51,-409.92 533.65,-396.66"/>
<polygon fill="black" stroke="black" points="534.58,-400.04 542.83,-393.38 532.23,-393.45 534.58,-400.04"/>
</g>
</g>
</svg>
