<?xml version="1.0" encoding="UTF-8" standalone="no"?>
<!DOCTYPE svg PUBLIC "-//W3C//DTD SVG 1.1//EN"
 "http://www.w3.org/Graphics/SVG/1.1/DTD/svg11.dtd">
<!-- Generated by graphviz version 7.0.0 (20221023.0053)
 -->
<!-- Title: G Pages: 1 -->
<svg width="599pt" height="764pt"
 viewBox="0.00 0.00 599.44 764.00" xmlns="http://www.w3.org/2000/svg" xmlns:xlink="http://www.w3.org/1999/xlink">
<g id="graph0" class="graph" transform="scale(1 1) rotate(0) translate(4 760)">
<title>G</title>
<polygon fill="white" stroke="none" points="-4,4 -4,-760 595.44,-760 595.44,4 -4,4"/>
<g id="clust2" class="cluster">
<title>cluster_coin</title>
<polygon fill="none" stroke="black" points="9.44,-363 9.44,-510 561.44,-510 561.44,-363 9.44,-363"/>
<text text-anchor="middle" x="285.44" y="-494.8" font-family="Times,serif" font-size="14.00">coin</text>
</g>
<g id="clust3" class="cluster">
<title>cluster_managed_coin</title>
<polygon fill="none" stroke="black" points="9.44,-518 9.44,-593 109.44,-593 109.44,-518 9.44,-518"/>
<text text-anchor="middle" x="59.44" y="-577.8" font-family="Times,serif" font-size="14.00">managed_coin</text>
</g>
<g id="clust4" class="cluster">
<title>cluster_aptos_coin</title>
<polygon fill="none" stroke="black" points="210.44,-518 210.44,-593 310.44,-593 310.44,-518 210.44,-518"/>
<text text-anchor="middle" x="260.44" y="-577.8" font-family="Times,serif" font-size="14.00">aptos_coin</text>
</g>
<g id="clust5" class="cluster">
<title>cluster_genesis</title>
<polygon fill="none" stroke="black" points="31.44,-601 31.44,-748 583.44,-748 583.44,-601 31.44,-601"/>
<text text-anchor="middle" x="307.44" y="-732.8" font-family="Times,serif" font-size="14.00">genesis</text>
</g>
<g id="clust1" class="cluster">
<title>cluster_optional_aggregator</title>
<polygon fill="none" stroke="black" points="157.44,-136 157.44,-355 451.44,-355 451.44,-136 157.44,-136"/>
<text text-anchor="middle" x="304.44" y="-339.8" font-family="Times,serif" font-size="14.00">optional_aggregator</text>
</g>
<!-- new_aggregator -->
<g id="node1" class="node">
<title>new_aggregator</title>
<ellipse fill="none" stroke="black" cx="304.44" cy="-18" rx="67.69" ry="18"/>
<text text-anchor="middle" x="304.44" y="-14.3" font-family="Times,serif" font-size="14.00">new_aggregator</text>
</g>
<!-- create_aggregator_internal -->
<g id="node2" class="node">
<title>create_aggregator_internal</title>
<ellipse fill="none" stroke="black" cx="304.44" cy="-90" rx="104.78" ry="18"/>
<text text-anchor="middle" x="304.44" y="-86.3" font-family="Times,serif" font-size="14.00">create_aggregator_internal</text>
</g>
<!-- create_aggregator_internal&#45;&gt;new_aggregator -->
<g id="edge1" class="edge">
<title>create_aggregator_internal&#45;&gt;new_aggregator</title>
<path fill="none" stroke="black" d="M304.44,-71.7C304.44,-64.41 304.44,-55.73 304.44,-47.54"/>
<polygon fill="black" stroke="black" points="307.94,-47.62 304.44,-37.62 300.94,-47.62 307.94,-47.62"/>
</g>
<!-- create_aggregator -->
<g id="node3" class="node">
<title>create_aggregator</title>
<ellipse fill="none" stroke="black" cx="73.44" cy="-162" rx="73.39" ry="18"/>
<text text-anchor="middle" x="73.44" y="-158.3" font-family="Times,serif" font-size="14.00">create_aggregator</text>
</g>
<!-- create_aggregator&#45;&gt;create_aggregator_internal -->
<g id="edge2" class="edge">
<title>create_aggregator&#45;&gt;create_aggregator_internal</title>
<path fill="none" stroke="black" d="M117.42,-147.14C129.12,-143.49 141.75,-139.57 153.44,-136 182.53,-127.12 214.84,-117.47 242.07,-109.38"/>
<polygon fill="black" stroke="black" points="242.98,-112.77 251.57,-106.57 240.99,-106.06 242.98,-112.77"/>
</g>
<!-- optional_aggregator::new -->
<g id="node4" class="node">
<title>optional_aggregator::new</title>
<ellipse fill="none" stroke="black" cx="287.44" cy="-306" rx="27" ry="18"/>
<text text-anchor="middle" x="287.44" y="-302.3" font-family="Times,serif" font-size="14.00">new</text>
</g>
<!-- optional_aggregator::new&#45;&gt;create_aggregator_internal -->
<g id="edge3" class="edge">
<title>optional_aggregator::new&#45;&gt;create_aggregator_internal</title>
<path fill="none" stroke="black" d="M311.17,-297.08C348.37,-284.48 417.06,-260.45 425.44,-252 449.51,-227.74 446.35,-213.63 452.44,-180 455.93,-160.76 464.09,-151.71 452.44,-136 440.81,-120.31 423.85,-109.9 405.51,-103.04"/>
<polygon fill="black" stroke="black" points="406.62,-99.72 396.03,-99.88 404.41,-106.36 406.62,-99.72"/>
</g>
<!-- optional_aggregator::switch_to_aggregator_and_zero_out -->
<g id="node5" class="node">
<title>optional_aggregator::switch_to_aggregator_and_zero_out</title>
<ellipse fill="none" stroke="black" cx="304.44" cy="-162" rx="139.18" ry="18"/>
<text text-anchor="middle" x="304.44" y="-158.3" font-family="Times,serif" font-size="14.00">switch_to_aggregator_and_zero_out</text>
</g>
<!-- optional_aggregator::switch_to_aggregator_and_zero_out&#45;&gt;create_aggregator_internal -->
<g id="edge4" class="edge">
<title>optional_aggregator::switch_to_aggregator_and_zero_out&#45;&gt;create_aggregator_internal</title>
<path fill="none" stroke="black" d="M304.44,-143.7C304.44,-136.41 304.44,-127.73 304.44,-119.54"/>
<polygon fill="black" stroke="black" points="307.94,-119.62 304.44,-109.62 300.94,-119.62 307.94,-119.62"/>
</g>
<!-- coin::initialize_internal -->
<g id="node6" class="node">
<title>coin::initialize_internal</title>
<ellipse fill="none" stroke="black" cx="260.44" cy="-389" rx="72.59" ry="18"/>
<text text-anchor="middle" x="260.44" y="-385.3" font-family="Times,serif" font-size="14.00">initialize_internal</text>
</g>
<!-- coin::initialize_internal&#45;&gt;optional_aggregator::new -->
<g id="edge5" class="edge">
<title>coin::initialize_internal&#45;&gt;optional_aggregator::new</title>
<path fill="none" stroke="black" d="M266.17,-370.82C269.67,-360.33 274.22,-346.68 278.21,-334.7"/>
<polygon fill="black" stroke="black" points="281.5,-335.91 281.34,-325.31 274.86,-333.69 281.5,-335.91"/>
</g>
<!-- optional_aggregator::switch_and_zero_out -->
<g id="node7" class="node">
<title>optional_aggregator::switch_and_zero_out</title>
<ellipse fill="none" stroke="black" cx="330.44" cy="-234" rx="85.59" ry="18"/>
<text text-anchor="middle" x="330.44" y="-230.3" font-family="Times,serif" font-size="14.00">switch_and_zero_out</text>
</g>
<!-- optional_aggregator::switch_and_zero_out&#45;&gt;optional_aggregator::switch_to_aggregator_and_zero_out -->
<g id="edge6" class="edge">
<title>optional_aggregator::switch_and_zero_out&#45;&gt;optional_aggregator::switch_to_aggregator_and_zero_out</title>
<path fill="none" stroke="black" d="M324.02,-215.7C321.21,-208.15 317.86,-199.12 314.72,-190.68"/>
<polygon fill="black" stroke="black" points="318.09,-189.68 311.32,-181.52 311.52,-192.12 318.09,-189.68"/>
</g>
<!-- coin::initialize -->
<g id="node8" class="node">
<title>coin::initialize</title>
<ellipse fill="none" stroke="black" cx="59.44" cy="-461" rx="41.69" ry="18"/>
<text text-anchor="middle" x="59.44" y="-457.3" font-family="Times,serif" font-size="14.00">initialize</text>
</g>
<!-- coin::initialize&#45;&gt;coin::initialize_internal -->
<g id="edge7" class="edge">
<title>coin::initialize&#45;&gt;coin::initialize_internal</title>
<path fill="none" stroke="black" d="M91.29,-448.91C122.93,-437.89 171.95,-420.82 209.09,-407.88"/>
<polygon fill="black" stroke="black" points="209.99,-411.28 218.28,-404.68 207.69,-404.67 209.99,-411.28"/>
</g>
<!-- coin::initialize_with_parallelizable_supply -->
<g id="node9" class="node">
<title>coin::initialize_with_parallelizable_supply</title>
<ellipse fill="none" stroke="black" cx="260.44" cy="-461" rx="141.07" ry="18"/>
<text text-anchor="middle" x="260.44" y="-457.3" font-family="Times,serif" font-size="14.00">initialize_with_parallelizable_supply</text>
</g>
<!-- coin::initialize_with_parallelizable_supply&#45;&gt;coin::initialize_internal -->
<g id="edge8" class="edge">
<title>coin::initialize_with_parallelizable_supply&#45;&gt;coin::initialize_internal</title>
<path fill="none" stroke="black" d="M260.44,-442.7C260.44,-435.41 260.44,-426.73 260.44,-418.54"/>
<polygon fill="black" stroke="black" points="263.94,-418.62 260.44,-408.62 256.94,-418.62 263.94,-418.62"/>
</g>
<!-- optional_aggregator::switch -->
<g id="node10" class="node">
<title>optional_aggregator::switch</title>
<ellipse fill="none" stroke="black" cx="382.44" cy="-306" rx="33.6" ry="18"/>
<text text-anchor="middle" x="382.44" y="-302.3" font-family="Times,serif" font-size="14.00">switch</text>
</g>
<!-- optional_aggregator::switch&#45;&gt;optional_aggregator::switch_and_zero_out -->
<g id="edge9" class="edge">
<title>optional_aggregator::switch&#45;&gt;optional_aggregator::switch_and_zero_out</title>
<path fill="none" stroke="black" d="M370.38,-288.76C364.33,-280.61 356.84,-270.53 349.99,-261.31"/>
<polygon fill="black" stroke="black" points="352.84,-259.28 344.07,-253.34 347.22,-263.45 352.84,-259.28"/>
</g>
<!-- managed_coin::initialize -->
<g id="node11" class="node">
<title>managed_coin::initialize</title>
<ellipse fill="none" stroke="black" cx="59.44" cy="-544" rx="41.69" ry="18"/>
<text text-anchor="middle" x="59.44" y="-540.3" font-family="Times,serif" font-size="14.00">initialize</text>
</g>
<!-- managed_coin::initialize&#45;&gt;coin::initialize -->
<g id="edge10" class="edge">
<title>managed_coin::initialize&#45;&gt;coin::initialize</title>
<path fill="none" stroke="black" d="M59.44,-525.82C59.44,-515.69 59.44,-502.6 59.44,-490.92"/>
<polygon fill="black" stroke="black" points="62.94,-490.95 59.44,-480.95 55.94,-490.95 62.94,-490.95"/>
</g>
<!-- aptos_coin::initialize -->
<g id="node12" class="node">
<title>aptos_coin::initialize</title>
<ellipse fill="none" stroke="black" cx="260.44" cy="-544" rx="41.69" ry="18"/>
<text text-anchor="middle" x="260.44" y="-540.3" font-family="Times,serif" font-size="14.00">initialize</text>
</g>
<!-- aptos_coin::initialize&#45;&gt;coin::initialize_with_parallelizable_supply -->
<g id="edge11" class="edge">
<title>aptos_coin::initialize&#45;&gt;coin::initialize_with_parallelizable_supply</title>
<path fill="none" stroke="black" d="M260.44,-525.82C260.44,-515.69 260.44,-502.6 260.44,-490.92"/>
<polygon fill="black" stroke="black" points="263.94,-490.95 260.44,-480.95 256.94,-490.95 263.94,-490.95"/>
</g>
<!-- coin::upgrade_supply -->
<g id="node13" class="node">
<title>coin::upgrade_supply</title>
<ellipse fill="none" stroke="black" cx="486.44" cy="-461" rx="66.89" ry="18"/>
<text text-anchor="middle" x="486.44" y="-457.3" font-family="Times,serif" font-size="14.00">upgrade_supply</text>
</g>
<!-- coin::upgrade_supply&#45;&gt;optional_aggregator::switch -->
<g id="edge12" class="edge">
<title>coin::upgrade_supply&#45;&gt;optional_aggregator::switch</title>
<path fill="none" stroke="black" d="M474.92,-443.04C456.69,-416.22 421.09,-363.85 399.77,-332.49"/>
<polygon fill="black" stroke="black" points="402.76,-330.66 394.24,-324.36 396.97,-334.6 402.76,-330.66"/>
</g>
<!-- genesis::initialize_aptos_coin -->
<g id="node14" class="node">
<title>genesis::initialize_aptos_coin</title>
<ellipse fill="none" stroke="black" cx="161.44" cy="-627" rx="83.69" ry="18"/>
<text text-anchor="middle" x="161.44" y="-623.3" font-family="Times,serif" font-size="14.00">initialize_aptos_coin</text>
</g>
<!-- genesis::initialize_aptos_coin&#45;&gt;aptos_coin::initialize -->
<g id="edge13" class="edge">
<title>genesis::initialize_aptos_coin&#45;&gt;aptos_coin::initialize</title>
<path fill="none" stroke="black" d="M181.96,-609.22C196.77,-597.1 216.93,-580.6 233.11,-567.36"/>
<polygon fill="black" stroke="black" points="234.94,-570.39 240.46,-561.35 230.5,-564.97 234.94,-570.39"/>
</g>
<!-- genesis::initialize_core_resources_and_aptos_coin -->
<g id="node15" class="node">
<title>genesis::initialize_core_resources_and_aptos_coin</title>
<ellipse fill="none" stroke="black" cx="417.44" cy="-699" rx="157.87" ry="18"/>
<text text-anchor="middle" x="417.44" y="-695.3" font-family="Times,serif" font-size="14.00">initialize_core_resources_and_aptos_coin</text>
</g>
<!-- genesis::initialize_core_resources_and_aptos_coin&#45;&gt;aptos_coin::initialize -->
<g id="edge14" class="edge">
<title>genesis::initialize_core_resources_and_aptos_coin&#45;&gt;aptos_coin::initialize</title>
<path fill="none" stroke="black" d="M399.74,-680.75C371.47,-653.2 316.1,-599.24 284.35,-568.29"/>
<polygon fill="black" stroke="black" points="287.12,-566.11 277.52,-561.64 282.24,-571.13 287.12,-566.11"/>
</g>
<!-- genesis::initialize_for_verification -->
<g id="node16" class="node">
<title>genesis::initialize_for_verification</title>
<ellipse fill="none" stroke="black" cx="140.44" cy="-699" rx="100.98" ry="18"/>
<text text-anchor="middle" x="140.44" y="-695.3" font-family="Times,serif" font-size="14.00">initialize_for_verification</text>
</g>
<!-- genesis::initialize_for_verification&#45;&gt;genesis::initialize_aptos_coin -->
<g id="edge15" class="edge">
<title>genesis::initialize_for_verification&#45;&gt;genesis::initialize_aptos_coin</title>
<path fill="none" stroke="black" d="M145.63,-680.7C147.87,-673.24 150.55,-664.32 153.05,-655.97"/>
<polygon fill="black" stroke="black" points="156.36,-657.14 155.88,-646.55 149.65,-655.13 156.36,-657.14"/>
</g>
</g>
</svg>
