<?xml version="1.0" encoding="UTF-8" standalone="no"?>
<!DOCTYPE svg PUBLIC "-//W3C//DTD SVG 1.1//EN"
 "http://www.w3.org/Graphics/SVG/1.1/DTD/svg11.dtd">
<!-- Generated by graphviz version 7.0.0 (20221023.0053)
 -->
<!-- Title: G Pages: 1 -->
<svg width="1562pt" height="542pt"
 viewBox="0.00 0.00 1562.00 542.00" xmlns="http://www.w3.org/2000/svg" xmlns:xlink="http://www.w3.org/1999/xlink">
<g id="graph0" class="graph" transform="scale(1 1) rotate(0) translate(4 538)">
<title>G</title>
<polygon fill="white" stroke="none" points="-4,4 -4,-538 1558,-538 1558,4 -4,4"/>
<g id="clust1" class="cluster">
<title>cluster_error</title>
<polygon fill="none" stroke="black" points="420,-174 420,-332 906,-332 906,-174 420,-174"/>
<text text-anchor="middle" x="663" y="-316.8" font-family="Times,serif" font-size="14.00">error</text>
</g>
<g id="clust2" class="cluster">
<title>cluster_system_addresses</title>
<polygon fill="none" stroke="black" points="8,-257 8,-490 254,-490 254,-257 8,-257"/>
<text text-anchor="middle" x="131" y="-474.8" font-family="Times,serif" font-size="14.00">system_addresses</text>
</g>
<g id="clust3" class="cluster">
<title>cluster_aptos_coin</title>
<polygon fill="none" stroke="black" points="313,-415 313,-490 495,-490 495,-415 313,-415"/>
<text text-anchor="middle" x="404" y="-474.8" font-family="Times,serif" font-size="14.00">aptos_coin</text>
</g>
<g id="clust4" class="cluster">
<title>cluster_signer</title>
<polygon fill="none" stroke="black" points="262,-257 262,-407 412,-407 412,-257 262,-257"/>
<text text-anchor="middle" x="337" y="-391.8" font-family="Times,serif" font-size="14.00">signer</text>
</g>
<g id="clust5" class="cluster">
<title>cluster_account</title>
<polygon fill="none" stroke="black" points="1104,-257 1104,-407 1352,-407 1352,-257 1104,-257"/>
<text text-anchor="middle" x="1228" y="-391.8" font-family="Times,serif" font-size="14.00">account</text>
</g>
<g id="clust6" class="cluster">
<title>cluster_simple_map</title>
<polygon fill="none" stroke="black" points="1008,-257 1008,-407 1096,-407 1096,-257 1008,-257"/>
<text text-anchor="middle" x="1052" y="-391.8" font-family="Times,serif" font-size="14.00">simple_map</text>
</g>
<g id="clust7" class="cluster">
<title>cluster_option</title>
<polygon fill="none" stroke="black" points="946,-91 946,-249 1182,-249 1182,-91 946,-91"/>
<text text-anchor="middle" x="1064" y="-233.8" font-family="Times,serif" font-size="14.00">option</text>
</g>
<g id="clust8" class="cluster">
<title>cluster_vector</title>
<polygon fill="none" stroke="black" points="953,-8 953,-83 1160,-83 1160,-8 953,-8"/>
<text text-anchor="middle" x="1056.5" y="-67.8" font-family="Times,serif" font-size="14.00">vector</text>
</g>
<g id="clust9" class="cluster">
<title>cluster_comparator</title>
<polygon fill="none" stroke="black" points="1190,-91 1190,-249 1442,-249 1442,-91 1190,-91"/>
<text text-anchor="middle" x="1316" y="-233.8" font-family="Times,serif" font-size="14.00">comparator</text>
</g>
<g id="clust10" class="cluster">
<title>cluster_bcs</title>
<polygon fill="none" stroke="black" points="1450,-91 1450,-166 1546,-166 1546,-91 1450,-91"/>
<text text-anchor="middle" x="1498" y="-150.8" font-family="Times,serif" font-size="14.00">bcs</text>
</g>
<!-- get_signer_testnet_only -->
<g id="node1" class="node">
<title>get_signer_testnet_only</title>
<ellipse fill="none" stroke="black" cx="485" cy="-516" rx="94.78" ry="18"/>
<text text-anchor="middle" x="485" y="-512.3" font-family="Times,serif" font-size="14.00">get_signer_testnet_only</text>
</g>
<!-- error::unauthenticated -->
<g id="node2" class="node">
<title>error::unauthenticated</title>
<ellipse fill="none" stroke="black" cx="667" cy="-283" rx="66.09" ry="18"/>
<text text-anchor="middle" x="667" y="-279.3" font-family="Times,serif" font-size="14.00">unauthenticated</text>
</g>
<!-- get_signer_testnet_only&#45;&gt;error::unauthenticated -->
<g id="edge1" class="edge">
<title>get_signer_testnet_only&#45;&gt;error::unauthenticated</title>
<path fill="none" stroke="black" d="M498.38,-498.01C529.94,-457.96 609.15,-357.43 646.67,-309.8"/>
<polygon fill="black" stroke="black" points="649.22,-312.22 652.66,-302.2 643.72,-307.89 649.22,-312.22"/>
</g>
<!-- system_addresses::assert_core_resource -->
<g id="node3" class="node">
<title>system_addresses::assert_core_resource</title>
<ellipse fill="none" stroke="black" cx="162" cy="-441" rx="84.49" ry="18"/>
<text text-anchor="middle" x="162" y="-437.3" font-family="Times,serif" font-size="14.00">assert_core_resource</text>
</g>
<!-- get_signer_testnet_only&#45;&gt;system_addresses::assert_core_resource -->
<g id="edge2" class="edge">
<title>get_signer_testnet_only&#45;&gt;system_addresses::assert_core_resource</title>
<path fill="none" stroke="black" d="M403.84,-506.48C373.83,-502.54 339.66,-497.13 309,-490 276.56,-482.46 241.05,-470.96 213.06,-461.11"/>
<polygon fill="black" stroke="black" points="214.35,-457.85 203.76,-457.79 212,-464.44 214.35,-457.85"/>
</g>
<!-- aptos_coin::has_mint_capability -->
<g id="node4" class="node">
<title>aptos_coin::has_mint_capability</title>
<ellipse fill="none" stroke="black" cx="404" cy="-441" rx="82.59" ry="18"/>
<text text-anchor="middle" x="404" y="-437.3" font-family="Times,serif" font-size="14.00">has_mint_capability</text>
</g>
<!-- get_signer_testnet_only&#45;&gt;aptos_coin::has_mint_capability -->
<g id="edge3" class="edge">
<title>get_signer_testnet_only&#45;&gt;aptos_coin::has_mint_capability</title>
<path fill="none" stroke="black" d="M466.21,-498.07C455.79,-488.67 442.63,-476.82 431.11,-466.43"/>
<polygon fill="black" stroke="black" points="433.58,-463.95 423.81,-459.85 428.89,-469.15 433.58,-463.95"/>
</g>
<!-- get_signer -->
<g id="node5" class="node">
<title>get_signer</title>
<ellipse fill="none" stroke="black" cx="1052" cy="-441" rx="47.39" ry="18"/>
<text text-anchor="middle" x="1052" y="-437.3" font-family="Times,serif" font-size="14.00">get_signer</text>
</g>
<!-- get_signer_testnet_only&#45;&gt;get_signer -->
<g id="edge4" class="edge">
<title>get_signer_testnet_only&#45;&gt;get_signer</title>
<path fill="none" stroke="black" d="M561.76,-505.12C677.56,-490.21 894.19,-462.32 996.19,-449.19"/>
<polygon fill="black" stroke="black" points="996.48,-452.68 1005.95,-447.93 995.59,-445.73 996.48,-452.68"/>
</g>
<!-- error::canonical -->
<g id="node6" class="node">
<title>error::canonical</title>
<ellipse fill="none" stroke="black" cx="667" cy="-200" rx="44.39" ry="18"/>
<text text-anchor="middle" x="667" y="-196.3" font-family="Times,serif" font-size="14.00">canonical</text>
</g>
<!-- error::unauthenticated&#45;&gt;error::canonical -->
<g id="edge5" class="edge">
<title>error::unauthenticated&#45;&gt;error::canonical</title>
<path fill="none" stroke="black" d="M667,-264.82C667,-254.69 667,-241.6 667,-229.92"/>
<polygon fill="black" stroke="black" points="670.5,-229.95 667,-219.95 663.5,-229.95 670.5,-229.95"/>
</g>
<!-- signer::address_of -->
<g id="node7" class="node">
<title>signer::address_of</title>
<ellipse fill="none" stroke="black" cx="337" cy="-358" rx="48.99" ry="18"/>
<text text-anchor="middle" x="337" y="-354.3" font-family="Times,serif" font-size="14.00">address_of</text>
</g>
<!-- system_addresses::assert_core_resource&#45;&gt;signer::address_of -->
<g id="edge6" class="edge">
<title>system_addresses::assert_core_resource&#45;&gt;signer::address_of</title>
<path fill="none" stroke="black" d="M209.67,-425.86C225.35,-420.62 242.68,-414.18 258,-407 274.02,-399.49 290.89,-389.54 304.91,-380.66"/>
<polygon fill="black" stroke="black" points="306.79,-383.61 313.29,-375.24 302.99,-377.73 306.79,-383.61"/>
</g>
<!-- system_addresses::assert_core_resource_address -->
<g id="node8" class="node">
<title>system_addresses::assert_core_resource_address</title>
<ellipse fill="none" stroke="black" cx="131" cy="-358" rx="115.08" ry="18"/>
<text text-anchor="middle" x="131" y="-354.3" font-family="Times,serif" font-size="14.00">assert_core_resource_address</text>
</g>
<!-- system_addresses::assert_core_resource&#45;&gt;system_addresses::assert_core_resource_address -->
<g id="edge7" class="edge">
<title>system_addresses::assert_core_resource&#45;&gt;system_addresses::assert_core_resource_address</title>
<path fill="none" stroke="black" d="M155.43,-422.82C151.47,-412.48 146.33,-399.05 141.79,-387.18"/>
<polygon fill="black" stroke="black" points="145.06,-385.93 138.21,-377.85 138.52,-388.44 145.06,-385.93"/>
</g>
<!-- aptos_coin::has_mint_capability&#45;&gt;signer::address_of -->
<g id="edge8" class="edge">
<title>aptos_coin::has_mint_capability&#45;&gt;signer::address_of</title>
<path fill="none" stroke="black" d="M389.79,-422.82C380.52,-411.61 368.25,-396.78 357.88,-384.24"/>
<polygon fill="black" stroke="black" points="360.77,-382.24 351.69,-376.77 355.37,-386.7 360.77,-382.24"/>
</g>
<!-- account::create_signer_with_capability -->
<g id="node9" class="node">
<title>account::create_signer_with_capability</title>
<ellipse fill="none" stroke="black" cx="1228" cy="-358" rx="116.18" ry="18"/>
<text text-anchor="middle" x="1228" y="-354.3" font-family="Times,serif" font-size="14.00">create_signer_with_capability</text>
</g>
<!-- get_signer&#45;&gt;account::create_signer_with_capability -->
<g id="edge9" class="edge">
<title>get_signer&#45;&gt;account::create_signer_with_capability</title>
<path fill="none" stroke="black" d="M1081.46,-426.44C1108.8,-413.86 1149.94,-394.92 1181.68,-380.32"/>
<polygon fill="black" stroke="black" points="1183.05,-383.54 1190.67,-376.18 1180.13,-377.18 1183.05,-383.54"/>
</g>
<!-- simple_map::borrow -->
<g id="node10" class="node">
<title>simple_map::borrow</title>
<ellipse fill="none" stroke="black" cx="1052" cy="-358" rx="36.29" ry="18"/>
<text text-anchor="middle" x="1052" y="-354.3" font-family="Times,serif" font-size="14.00">borrow</text>
</g>
<!-- get_signer&#45;&gt;simple_map::borrow -->
<g id="edge10" class="edge">
<title>get_signer&#45;&gt;simple_map::borrow</title>
<path fill="none" stroke="black" d="M1052,-422.82C1052,-412.69 1052,-399.6 1052,-387.92"/>
<polygon fill="black" stroke="black" points="1055.5,-387.95 1052,-377.95 1048.5,-387.95 1055.5,-387.95"/>
</g>
<!-- signer::borrow_address -->
<g id="node11" class="node">
<title>signer::borrow_address</title>
<ellipse fill="none" stroke="black" cx="337" cy="-283" rx="66.89" ry="18"/>
<text text-anchor="middle" x="337" y="-279.3" font-family="Times,serif" font-size="14.00">borrow_address</text>
</g>
<!-- signer::address_of&#45;&gt;signer::borrow_address -->
<g id="edge11" class="edge">
<title>signer::address_of&#45;&gt;signer::borrow_address</title>
<path fill="none" stroke="black" d="M337,-339.7C337,-331.67 337,-321.9 337,-312.8"/>
<polygon fill="black" stroke="black" points="340.5,-312.94 337,-302.94 333.5,-312.94 340.5,-312.94"/>
</g>
<!-- error::permission_denied -->
<g id="node12" class="node">
<title>error::permission_denied</title>
<ellipse fill="none" stroke="black" cx="505" cy="-283" rx="77.19" ry="18"/>
<text text-anchor="middle" x="505" y="-279.3" font-family="Times,serif" font-size="14.00">permission_denied</text>
</g>
<!-- system_addresses::assert_core_resource_address&#45;&gt;error::permission_denied -->
<g id="edge12" class="edge">
<title>system_addresses::assert_core_resource_address&#45;&gt;error::permission_denied</title>
<path fill="none" stroke="black" d="M212.87,-345.03C227.86,-343.13 243.38,-341.35 258,-340 293.01,-336.78 382.14,-341.47 416,-332 435.6,-326.52 455.7,-316.16 471.83,-306.46"/>
<polygon fill="black" stroke="black" points="473.39,-309.61 480.03,-301.36 469.69,-303.67 473.39,-309.61"/>
</g>
<!-- system_addresses::is_core_resource_address -->
<g id="node13" class="node">
<title>system_addresses::is_core_resource_address</title>
<ellipse fill="none" stroke="black" cx="131" cy="-283" rx="100.98" ry="18"/>
<text text-anchor="middle" x="131" y="-279.3" font-family="Times,serif" font-size="14.00">is_core_resource_address</text>
</g>
<!-- system_addresses::assert_core_resource_address&#45;&gt;system_addresses::is_core_resource_address -->
<g id="edge13" class="edge">
<title>system_addresses::assert_core_resource_address&#45;&gt;system_addresses::is_core_resource_address</title>
<path fill="none" stroke="black" d="M131,-339.7C131,-331.67 131,-321.9 131,-312.8"/>
<polygon fill="black" stroke="black" points="134.5,-312.94 131,-302.94 127.5,-312.94 134.5,-312.94"/>
</g>
<!-- account::create_signer -->
<g id="node14" class="node">
<title>account::create_signer</title>
<ellipse fill="none" stroke="black" cx="1228" cy="-283" rx="57.69" ry="18"/>
<text text-anchor="middle" x="1228" y="-279.3" font-family="Times,serif" font-size="14.00">create_signer</text>
</g>
<!-- account::create_signer_with_capability&#45;&gt;account::create_signer -->
<g id="edge14" class="edge">
<title>account::create_signer_with_capability&#45;&gt;account::create_signer</title>
<path fill="none" stroke="black" d="M1228,-339.7C1228,-331.67 1228,-321.9 1228,-312.8"/>
<polygon fill="black" stroke="black" points="1231.5,-312.94 1228,-302.94 1224.5,-312.94 1231.5,-312.94"/>
</g>
<!-- option::extract -->
<g id="node15" class="node">
<title>option::extract</title>
<ellipse fill="none" stroke="black" cx="988" cy="-200" rx="34.39" ry="18"/>
<text text-anchor="middle" x="988" y="-196.3" font-family="Times,serif" font-size="14.00">extract</text>
</g>
<!-- simple_map::borrow&#45;&gt;option::extract -->
<g id="edge15" class="edge">
<title>simple_map::borrow&#45;&gt;option::extract</title>
<path fill="none" stroke="black" d="M1033.37,-342.35C1030.24,-339.2 1027.27,-335.7 1025,-332 1005.43,-300.05 995.91,-257.43 991.5,-229.61"/>
<polygon fill="black" stroke="black" points="994.97,-229.21 990.07,-219.81 988.05,-230.21 994.97,-229.21"/>
</g>
<!-- option::is_some -->
<g id="node16" class="node">
<title>option::is_some</title>
<ellipse fill="none" stroke="black" cx="994" cy="-117" rx="40.09" ry="18"/>
<text text-anchor="middle" x="994" y="-113.3" font-family="Times,serif" font-size="14.00">is_some</text>
</g>
<!-- simple_map::borrow&#45;&gt;option::is_some -->
<g id="edge16" class="edge">
<title>simple_map::borrow&#45;&gt;option::is_some</title>
<path fill="none" stroke="black" d="M1021.05,-348.2C1011.3,-344.35 1001,-339.07 993,-332 961.07,-303.79 956.04,-290.16 945,-249 936.36,-216.81 933.28,-205.2 945,-174 949.63,-161.69 958.33,-150.31 967.12,-141.07"/>
<polygon fill="black" stroke="black" points="969.36,-143.78 974.04,-134.28 964.45,-138.79 969.36,-143.78"/>
</g>
<!-- error::invalid_argument -->
<g id="node17" class="node">
<title>error::invalid_argument</title>
<ellipse fill="none" stroke="black" cx="825" cy="-283" rx="73.39" ry="18"/>
<text text-anchor="middle" x="825" y="-279.3" font-family="Times,serif" font-size="14.00">invalid_argument</text>
</g>
<!-- simple_map::borrow&#45;&gt;error::invalid_argument -->
<g id="edge17" class="edge">
<title>simple_map::borrow&#45;&gt;error::invalid_argument</title>
<path fill="none" stroke="black" d="M1016.37,-353.89C987.57,-350.61 946.33,-344.16 912,-332 893.73,-325.53 874.73,-315.49 859.17,-306.26"/>
<polygon fill="black" stroke="black" points="861.13,-303.36 850.77,-301.14 857.49,-309.34 861.13,-303.36"/>
</g>
<!-- simple_map::find -->
<g id="node18" class="node">
<title>simple_map::find</title>
<ellipse fill="none" stroke="black" cx="1061" cy="-283" rx="27" ry="18"/>
<text text-anchor="middle" x="1061" y="-279.3" font-family="Times,serif" font-size="14.00">find</text>
</g>
<!-- simple_map::borrow&#45;&gt;simple_map::find -->
<g id="edge18" class="edge">
<title>simple_map::borrow&#45;&gt;simple_map::find</title>
<path fill="none" stroke="black" d="M1054.13,-339.7C1055.12,-331.67 1056.33,-321.9 1057.45,-312.8"/>
<polygon fill="black" stroke="black" points="1060.92,-313.28 1058.67,-302.93 1053.97,-312.43 1060.92,-313.28"/>
</g>
<!-- error::permission_denied&#45;&gt;error::canonical -->
<g id="edge19" class="edge">
<title>error::permission_denied&#45;&gt;error::canonical</title>
<path fill="none" stroke="black" d="M536.62,-266.19C563.24,-252.88 601.36,-233.82 629.51,-219.74"/>
<polygon fill="black" stroke="black" points="631.03,-222.9 638.41,-215.29 627.9,-216.64 631.03,-222.9"/>
</g>
<!-- option::extract&#45;&gt;option::is_some -->
<g id="edge20" class="edge">
<title>option::extract&#45;&gt;option::is_some</title>
<path fill="none" stroke="black" d="M989.27,-181.82C990.03,-171.58 991.01,-158.33 991.89,-146.55"/>
<polygon fill="black" stroke="black" points="995.35,-147.17 992.6,-136.94 988.37,-146.66 995.35,-147.17"/>
</g>
<!-- vector::is_empty -->
<g id="node19" class="node">
<title>vector::is_empty</title>
<ellipse fill="none" stroke="black" cx="1005" cy="-34" rx="43.59" ry="18"/>
<text text-anchor="middle" x="1005" y="-30.3" font-family="Times,serif" font-size="14.00">is_empty</text>
</g>
<!-- option::is_some&#45;&gt;vector::is_empty -->
<g id="edge21" class="edge">
<title>option::is_some&#45;&gt;vector::is_empty</title>
<path fill="none" stroke="black" d="M996.33,-98.82C997.72,-88.58 999.52,-75.33 1001.12,-63.55"/>
<polygon fill="black" stroke="black" points="1004.55,-64.31 1002.43,-53.93 997.62,-63.37 1004.55,-64.31"/>
</g>
<!-- error::invalid_argument&#45;&gt;error::canonical -->
<g id="edge22" class="edge">
<title>error::invalid_argument&#45;&gt;error::canonical</title>
<path fill="none" stroke="black" d="M794.16,-266.19C768.28,-252.92 731.25,-233.94 703.82,-219.87"/>
<polygon fill="black" stroke="black" points="705.66,-216.89 695.16,-215.44 702.47,-223.12 705.66,-216.89"/>
</g>
<!-- option::none -->
<g id="node20" class="node">
<title>option::none</title>
<ellipse fill="none" stroke="black" cx="1068" cy="-200" rx="27.9" ry="18"/>
<text text-anchor="middle" x="1068" y="-196.3" font-family="Times,serif" font-size="14.00">none</text>
</g>
<!-- simple_map::find&#45;&gt;option::none -->
<g id="edge23" class="edge">
<title>simple_map::find&#45;&gt;option::none</title>
<path fill="none" stroke="black" d="M1062.48,-264.82C1063.37,-254.58 1064.52,-241.33 1065.53,-229.55"/>
<polygon fill="black" stroke="black" points="1068.99,-230.2 1066.36,-219.94 1062.02,-229.6 1068.99,-230.2"/>
</g>
<!-- option::some -->
<g id="node21" class="node">
<title>option::some</title>
<ellipse fill="none" stroke="black" cx="1144" cy="-200" rx="29.8" ry="18"/>
<text text-anchor="middle" x="1144" y="-196.3" font-family="Times,serif" font-size="14.00">some</text>
</g>
<!-- simple_map::find&#45;&gt;option::some -->
<g id="edge24" class="edge">
<title>simple_map::find&#45;&gt;option::some</title>
<path fill="none" stroke="black" d="M1079.35,-269.77C1087.57,-263.92 1097.15,-256.55 1105,-249 1112.26,-242.01 1119.44,-233.7 1125.62,-225.97"/>
<polygon fill="black" stroke="black" points="1128.32,-228.2 1131.68,-218.16 1122.78,-223.92 1128.32,-228.2"/>
</g>
<!-- comparator::compare -->
<g id="node22" class="node">
<title>comparator::compare</title>
<ellipse fill="none" stroke="black" cx="1392" cy="-200" rx="41.69" ry="18"/>
<text text-anchor="middle" x="1392" y="-196.3" font-family="Times,serif" font-size="14.00">compare</text>
</g>
<!-- simple_map::find&#45;&gt;comparator::compare -->
<g id="edge25" class="edge">
<title>simple_map::find&#45;&gt;comparator::compare</title>
<path fill="none" stroke="black" d="M1077.86,-268.39C1084.38,-263.9 1092.17,-259.44 1100,-257 1151.17,-241.08 1291.52,-269.58 1341,-249 1352.91,-244.05 1363.71,-234.95 1372.27,-226.01"/>
<polygon fill="black" stroke="black" points="1374.71,-228.53 1378.75,-218.74 1369.48,-223.87 1374.71,-228.53"/>
</g>
<!-- comparator::is_smaller_than -->
<g id="node23" class="node">
<title>comparator::is_smaller_than</title>
<ellipse fill="none" stroke="black" cx="1265" cy="-200" rx="66.89" ry="18"/>
<text text-anchor="middle" x="1265" y="-196.3" font-family="Times,serif" font-size="14.00">is_smaller_than</text>
</g>
<!-- simple_map::find&#45;&gt;comparator::is_smaller_than -->
<g id="edge26" class="edge">
<title>simple_map::find&#45;&gt;comparator::is_smaller_than</title>
<path fill="none" stroke="black" d="M1077.94,-268.64C1084.48,-264.18 1092.24,-259.67 1100,-257 1136.3,-244.51 1149.55,-261.05 1186,-249 1203.21,-243.31 1220.61,-233.3 1234.68,-223.89"/>
<polygon fill="black" stroke="black" points="1236.39,-226.96 1242.61,-218.39 1232.4,-221.21 1236.39,-226.96"/>
</g>
<!-- vector::singleton -->
<g id="node24" class="node">
<title>vector::singleton</title>
<ellipse fill="none" stroke="black" cx="1109" cy="-34" rx="42.79" ry="18"/>
<text text-anchor="middle" x="1109" y="-30.3" font-family="Times,serif" font-size="14.00">singleton</text>
</g>
<!-- option::some&#45;&gt;vector::singleton -->
<g id="edge27" class="edge">
<title>option::some&#45;&gt;vector::singleton</title>
<path fill="none" stroke="black" d="M1140.32,-181.76C1134.29,-153.51 1122.25,-97.11 1114.99,-63.04"/>
<polygon fill="black" stroke="black" points="1118.46,-62.54 1112.95,-53.49 1111.61,-64 1118.46,-62.54"/>
</g>
<!-- bcs::to_bytes -->
<g id="node25" class="node">
<title>bcs::to_bytes</title>
<ellipse fill="none" stroke="black" cx="1498" cy="-117" rx="40.09" ry="18"/>
<text text-anchor="middle" x="1498" y="-113.3" font-family="Times,serif" font-size="14.00">to_bytes</text>
</g>
<!-- comparator::compare&#45;&gt;bcs::to_bytes -->
<g id="edge28" class="edge">
<title>comparator::compare&#45;&gt;bcs::to_bytes</title>
<path fill="none" stroke="black" d="M1416.86,-185.2C1426.26,-179.63 1436.88,-172.89 1446,-166 1455.71,-158.67 1465.68,-149.83 1474.27,-141.74"/>
<polygon fill="black" stroke="black" points="1476.45,-144.5 1481.24,-135.04 1471.6,-139.45 1476.45,-144.5"/>
</g>
<!-- comparator::compare_u8_vector -->
<g id="node26" class="node">
<title>comparator::compare_u8_vector</title>
<ellipse fill="none" stroke="black" cx="1353" cy="-117" rx="81.49" ry="18"/>
<text text-anchor="middle" x="1353" y="-113.3" font-family="Times,serif" font-size="14.00">compare_u8_vector</text>
</g>
<!-- comparator::compare&#45;&gt;comparator::compare_u8_vector -->
<g id="edge29" class="edge">
<title>comparator::compare&#45;&gt;comparator::compare_u8_vector</title>
<path fill="none" stroke="black" d="M1383.92,-182.22C1378.81,-171.61 1372.09,-157.65 1366.22,-145.45"/>
<polygon fill="black" stroke="black" points="1369.49,-144.18 1362,-136.68 1363.18,-147.21 1369.49,-144.18"/>
</g>
</g>
</svg>
