<?xml version="1.0" encoding="UTF-8" standalone="no"?>
<!DOCTYPE svg PUBLIC "-//W3C//DTD SVG 1.1//EN"
 "http://www.w3.org/Graphics/SVG/1.1/DTD/svg11.dtd">
<!-- Generated by graphviz version 7.0.0 (20221023.0053)
 -->
<!-- Title: G Pages: 1 -->
<svg width="338pt" height="116pt"
 viewBox="0.00 0.00 337.69 116.00" xmlns="http://www.w3.org/2000/svg" xmlns:xlink="http://www.w3.org/1999/xlink">
<g id="graph0" class="graph" transform="scale(1 1) rotate(0) translate(4 112)">
<title>G</title>
<polygon fill="white" stroke="none" points="-4,4 -4,-112 333.69,-112 333.69,4 -4,4"/>
<!-- add_approved_script_hash -->
<g id="node1" class="node">
<title>add_approved_script_hash</title>
<ellipse fill="none" stroke="black" cx="114" cy="-18" rx="104.78" ry="18"/>
<text text-anchor="middle" x="114" y="-14.3" font-family="Times,serif" font-size="14.00">add_approved_script_hash</text>
</g>
<!-- vote -->
<g id="node2" class="node">
<title>vote</title>
<ellipse fill="none" stroke="black" cx="27" cy="-90" rx="27" ry="18"/>
<text text-anchor="middle" x="27" y="-86.3" font-family="Times,serif" font-size="14.00">vote</text>
</g>
<!-- vote&#45;&gt;add_approved_script_hash -->
<g id="edge1" class="edge">
<title>vote&#45;&gt;add_approved_script_hash</title>
<path fill="none" stroke="black" d="M43.77,-75.5C55.17,-66.34 70.56,-53.95 84.02,-43.12"/>
<polygon fill="black" stroke="black" points="86.19,-45.87 91.79,-36.87 81.8,-40.41 86.19,-45.87"/>
</g>
<!-- add_approved_script_hash_script -->
<g id="node3" class="node">
<title>add_approved_script_hash_script</title>
<ellipse fill="none" stroke="black" cx="201" cy="-90" rx="128.88" ry="18"/>
<text text-anchor="middle" x="201" y="-86.3" font-family="Times,serif" font-size="14.00">add_approved_script_hash_script</text>
</g>
<!-- add_approved_script_hash_script&#45;&gt;add_approved_script_hash -->
<g id="edge2" class="edge">
<title>add_approved_script_hash_script&#45;&gt;add_approved_script_hash</title>
<path fill="none" stroke="black" d="M179.94,-72.05C169.12,-63.35 155.75,-52.59 143.88,-43.04"/>
<polygon fill="black" stroke="black" points="146.33,-40.52 136.35,-36.98 141.94,-45.98 146.33,-40.52"/>
</g>
</g>
</svg>
