<?xml version="1.0" encoding="UTF-8" standalone="no"?>
<!DOCTYPE svg PUBLIC "-//W3C//DTD SVG 1.1//EN"
 "http://www.w3.org/Graphics/SVG/1.1/DTD/svg11.dtd">
<!-- Generated by graphviz version 7.0.0 (20221023.0053)
 -->
<!-- Title: G Pages: 1 -->
<svg width="1526pt" height="606pt"
 viewBox="0.00 0.00 1526.00 606.00" xmlns="http://www.w3.org/2000/svg" xmlns:xlink="http://www.w3.org/1999/xlink">
<g id="graph0" class="graph" transform="scale(1 1) rotate(0) translate(4 602)">
<title>G</title>
<polygon fill="white" stroke="none" points="-4,4 -4,-602 1522,-602 1522,4 -4,4"/>
<g id="clust1" class="cluster">
<title>cluster_error</title>
<polygon fill="none" stroke="black" points="1348,-174 1348,-332 1510,-332 1510,-174 1348,-174"/>
<text text-anchor="middle" x="1429" y="-316.8" font-family="Times,serif" font-size="14.00">error</text>
</g>
<g id="clust2" class="cluster">
<title>cluster_simple_map</title>
<polygon fill="none" stroke="black" points="801,-257 801,-407 1003,-407 1003,-257 801,-257"/>
<text text-anchor="middle" x="902" y="-391.8" font-family="Times,serif" font-size="14.00">simple_map</text>
</g>
<g id="clust3" class="cluster">
<title>cluster_voting</title>
<polygon fill="none" stroke="black" points="302,-257 302,-482 700,-482 700,-257 302,-257"/>
<text text-anchor="middle" x="501" y="-466.8" font-family="Times,serif" font-size="14.00">voting</text>
</g>
<g id="clust4" class="cluster">
<title>cluster_option</title>
<polygon fill="none" stroke="black" points="658,-91 658,-249 1080,-249 1080,-91 658,-91"/>
<text text-anchor="middle" x="869" y="-233.8" font-family="Times,serif" font-size="14.00">option</text>
</g>
<g id="clust5" class="cluster">
<title>cluster_table</title>
<polygon fill="none" stroke="black" points="8,-174 8,-332 294,-332 294,-174 8,-174"/>
<text text-anchor="middle" x="151" y="-316.8" font-family="Times,serif" font-size="14.00">table</text>
</g>
<g id="clust6" class="cluster">
<title>cluster_vector</title>
<polygon fill="none" stroke="black" points="812,-8 812,-83 1019,-83 1019,-8 812,-8"/>
<text text-anchor="middle" x="915.5" y="-67.8" font-family="Times,serif" font-size="14.00">vector</text>
</g>
<g id="clust7" class="cluster">
<title>cluster_comparator</title>
<polygon fill="none" stroke="black" points="1088,-91 1088,-249 1340,-249 1340,-91 1088,-91"/>
<text text-anchor="middle" x="1214" y="-233.8" font-family="Times,serif" font-size="14.00">comparator</text>
</g>
<g id="clust8" class="cluster">
<title>cluster_bcs</title>
<polygon fill="none" stroke="black" points="1348,-91 1348,-166 1444,-166 1444,-91 1348,-91"/>
<text text-anchor="middle" x="1396" y="-150.8" font-family="Times,serif" font-size="14.00">bcs</text>
</g>
<g id="clust9" class="cluster">
<title>cluster_timestamp</title>
<polygon fill="none" stroke="black" points="313,-91 313,-249 487,-249 487,-91 313,-91"/>
<text text-anchor="middle" x="400" y="-233.8" font-family="Times,serif" font-size="14.00">timestamp</text>
</g>
<!-- add_approved_script_hash_script -->
<g id="node1" class="node">
<title>add_approved_script_hash_script</title>
<ellipse fill="none" stroke="black" cx="866" cy="-580" rx="128.88" ry="18"/>
<text text-anchor="middle" x="866" y="-576.3" font-family="Times,serif" font-size="14.00">add_approved_script_hash_script</text>
</g>
<!-- add_approved_script_hash -->
<g id="node2" class="node">
<title>add_approved_script_hash</title>
<ellipse fill="none" stroke="black" cx="866" cy="-508" rx="104.78" ry="18"/>
<text text-anchor="middle" x="866" y="-504.3" font-family="Times,serif" font-size="14.00">add_approved_script_hash</text>
</g>
<!-- add_approved_script_hash_script&#45;&gt;add_approved_script_hash -->
<g id="edge1" class="edge">
<title>add_approved_script_hash_script&#45;&gt;add_approved_script_hash</title>
<path fill="none" stroke="black" d="M866,-561.7C866,-554.41 866,-545.73 866,-537.54"/>
<polygon fill="black" stroke="black" points="869.5,-537.62 866,-527.62 862.5,-537.62 869.5,-537.62"/>
</g>
<!-- error::invalid_argument -->
<g id="node3" class="node">
<title>error::invalid_argument</title>
<ellipse fill="none" stroke="black" cx="1429" cy="-283" rx="73.39" ry="18"/>
<text text-anchor="middle" x="1429" y="-279.3" font-family="Times,serif" font-size="14.00">invalid_argument</text>
</g>
<!-- add_approved_script_hash&#45;&gt;error::invalid_argument -->
<g id="edge2" class="edge">
<title>add_approved_script_hash&#45;&gt;error::invalid_argument</title>
<path fill="none" stroke="black" d="M906.49,-490.96C1007.77,-450.85 1271.76,-346.28 1380.8,-303.09"/>
<polygon fill="black" stroke="black" points="1382.06,-306.36 1390.07,-299.42 1379.48,-299.85 1382.06,-306.36"/>
</g>
<!-- simple_map::add -->
<g id="node4" class="node">
<title>simple_map::add</title>
<ellipse fill="none" stroke="black" cx="968" cy="-358" rx="27" ry="18"/>
<text text-anchor="middle" x="968" y="-354.3" font-family="Times,serif" font-size="14.00">add</text>
</g>
<!-- add_approved_script_hash&#45;&gt;simple_map::add -->
<g id="edge3" class="edge">
<title>add_approved_script_hash&#45;&gt;simple_map::add</title>
<path fill="none" stroke="black" d="M877.9,-489.73C895.84,-463.7 929.92,-414.26 950.63,-384.2"/>
<polygon fill="black" stroke="black" points="953.45,-386.28 956.24,-376.06 947.69,-382.3 953.45,-386.28"/>
</g>
<!-- simple_map::contains_key -->
<g id="node5" class="node">
<title>simple_map::contains_key</title>
<ellipse fill="none" stroke="black" cx="866" cy="-358" rx="57.39" ry="18"/>
<text text-anchor="middle" x="866" y="-354.3" font-family="Times,serif" font-size="14.00">contains_key</text>
</g>
<!-- add_approved_script_hash&#45;&gt;simple_map::contains_key -->
<g id="edge4" class="edge">
<title>add_approved_script_hash&#45;&gt;simple_map::contains_key</title>
<path fill="none" stroke="black" d="M866,-489.73C866,-464.67 866,-417.9 866,-387.63"/>
<polygon fill="black" stroke="black" points="869.5,-387.67 866,-377.67 862.5,-387.67 869.5,-387.67"/>
</g>
<!-- voting::get_execution_hash -->
<g id="node6" class="node">
<title>voting::get_execution_hash</title>
<ellipse fill="none" stroke="black" cx="391" cy="-433" rx="80.69" ry="18"/>
<text text-anchor="middle" x="391" y="-429.3" font-family="Times,serif" font-size="14.00">get_execution_hash</text>
</g>
<!-- add_approved_script_hash&#45;&gt;voting::get_execution_hash -->
<g id="edge5" class="edge">
<title>add_approved_script_hash&#45;&gt;voting::get_execution_hash</title>
<path fill="none" stroke="black" d="M762.03,-505.25C666.08,-502.73 530.99,-496.64 480,-482 460.44,-476.38 440.34,-466.01 424.2,-456.34"/>
<polygon fill="black" stroke="black" points="426.34,-453.54 416,-451.25 422.65,-459.49 426.34,-453.54"/>
</g>
<!-- voting::get_proposal_state -->
<g id="node7" class="node">
<title>voting::get_proposal_state</title>
<ellipse fill="none" stroke="black" cx="566" cy="-433" rx="76.89" ry="18"/>
<text text-anchor="middle" x="566" y="-429.3" font-family="Times,serif" font-size="14.00">get_proposal_state</text>
</g>
<!-- add_approved_script_hash&#45;&gt;voting::get_proposal_state -->
<g id="edge6" class="edge">
<title>add_approved_script_hash&#45;&gt;voting::get_proposal_state</title>
<path fill="none" stroke="black" d="M807.44,-492.75C756.02,-480.24 681.42,-462.09 628.78,-449.28"/>
<polygon fill="black" stroke="black" points="629.91,-445.95 619.37,-446.99 628.26,-452.75 629.91,-445.95"/>
</g>
<!-- error::canonical -->
<g id="node8" class="node">
<title>error::canonical</title>
<ellipse fill="none" stroke="black" cx="1429" cy="-200" rx="44.39" ry="18"/>
<text text-anchor="middle" x="1429" y="-196.3" font-family="Times,serif" font-size="14.00">canonical</text>
</g>
<!-- error::invalid_argument&#45;&gt;error::canonical -->
<g id="edge7" class="edge">
<title>error::invalid_argument&#45;&gt;error::canonical</title>
<path fill="none" stroke="black" d="M1429,-264.82C1429,-254.69 1429,-241.6 1429,-229.92"/>
<polygon fill="black" stroke="black" points="1432.5,-229.95 1429,-219.95 1425.5,-229.95 1432.5,-229.95"/>
</g>
<!-- simple_map::add&#45;&gt;error::invalid_argument -->
<g id="edge10" class="edge">
<title>simple_map::add&#45;&gt;error::invalid_argument</title>
<path fill="none" stroke="black" d="M994.11,-352.87C1063.3,-341.91 1253.23,-311.83 1357.74,-295.28"/>
<polygon fill="black" stroke="black" points="1357.99,-298.79 1367.32,-293.77 1356.89,-291.87 1357.99,-298.79"/>
</g>
<!-- option::extract -->
<g id="node9" class="node">
<title>option::extract</title>
<ellipse fill="none" stroke="black" cx="791" cy="-200" rx="34.39" ry="18"/>
<text text-anchor="middle" x="791" y="-196.3" font-family="Times,serif" font-size="14.00">extract</text>
</g>
<!-- simple_map::add&#45;&gt;option::extract -->
<g id="edge8" class="edge">
<title>simple_map::add&#45;&gt;option::extract</title>
<path fill="none" stroke="black" d="M947.04,-346.03C942.19,-343.8 936.99,-341.64 932,-340 914.36,-334.21 906.77,-341.79 891,-332 850.12,-306.61 819.8,-258.05 803.8,-227.71"/>
<polygon fill="black" stroke="black" points="807.1,-226.47 799.43,-219.16 800.86,-229.66 807.1,-226.47"/>
</g>
<!-- option::is_none -->
<g id="node10" class="node">
<title>option::is_none</title>
<ellipse fill="none" stroke="black" cx="882" cy="-200" rx="38.19" ry="18"/>
<text text-anchor="middle" x="882" y="-196.3" font-family="Times,serif" font-size="14.00">is_none</text>
</g>
<!-- simple_map::add&#45;&gt;option::is_none -->
<g id="edge9" class="edge">
<title>simple_map::add&#45;&gt;option::is_none</title>
<path fill="none" stroke="black" d="M947.54,-345.9C941.92,-342.08 936.22,-337.39 932,-332 907.97,-301.31 894.44,-257.76 887.68,-229.44"/>
<polygon fill="black" stroke="black" points="891.12,-228.79 885.51,-219.8 884.29,-230.33 891.12,-228.79"/>
</g>
<!-- simple_map::find -->
<g id="node11" class="node">
<title>simple_map::find</title>
<ellipse fill="none" stroke="black" cx="968" cy="-283" rx="27" ry="18"/>
<text text-anchor="middle" x="968" y="-279.3" font-family="Times,serif" font-size="14.00">find</text>
</g>
<!-- simple_map::add&#45;&gt;simple_map::find -->
<g id="edge11" class="edge">
<title>simple_map::add&#45;&gt;simple_map::find</title>
<path fill="none" stroke="black" d="M968,-339.7C968,-331.67 968,-321.9 968,-312.8"/>
<polygon fill="black" stroke="black" points="971.5,-312.94 968,-302.94 964.5,-312.94 971.5,-312.94"/>
</g>
<!-- simple_map::contains_key&#45;&gt;simple_map::find -->
<g id="edge13" class="edge">
<title>simple_map::contains_key&#45;&gt;simple_map::find</title>
<path fill="none" stroke="black" d="M888.38,-340.98C903.88,-329.89 924.57,-315.08 940.98,-303.34"/>
<polygon fill="black" stroke="black" points="942.75,-306.37 948.85,-297.71 938.68,-300.68 942.75,-306.37"/>
</g>
<!-- option::is_some -->
<g id="node12" class="node">
<title>option::is_some</title>
<ellipse fill="none" stroke="black" cx="706" cy="-117" rx="40.09" ry="18"/>
<text text-anchor="middle" x="706" y="-113.3" font-family="Times,serif" font-size="14.00">is_some</text>
</g>
<!-- simple_map::contains_key&#45;&gt;option::is_some -->
<g id="edge12" class="edge">
<title>simple_map::contains_key&#45;&gt;option::is_some</title>
<path fill="none" stroke="black" d="M836.3,-342.13C830.18,-338.9 823.83,-335.43 818,-332 765.7,-301.29 760.43,-279.23 704,-257 684.29,-249.23 670.67,-265.19 657,-249 635.5,-223.53 645.28,-205.2 657,-174 661.63,-161.69 670.33,-150.31 679.12,-141.07"/>
<polygon fill="black" stroke="black" points="681.36,-143.78 686.04,-134.28 676.45,-138.79 681.36,-143.78"/>
</g>
<!-- table::borrow_mut -->
<g id="node13" class="node">
<title>table::borrow_mut</title>
<ellipse fill="none" stroke="black" cx="231" cy="-283" rx="54.69" ry="18"/>
<text text-anchor="middle" x="231" y="-279.3" font-family="Times,serif" font-size="14.00">borrow_mut</text>
</g>
<!-- voting::get_execution_hash&#45;&gt;table::borrow_mut -->
<g id="edge14" class="edge">
<title>voting::get_execution_hash&#45;&gt;table::borrow_mut</title>
<path fill="none" stroke="black" d="M372.65,-415.02C344.16,-388.68 289.23,-337.86 256.78,-307.84"/>
<polygon fill="black" stroke="black" points="259.48,-305.58 249.76,-301.36 254.73,-310.72 259.48,-305.58"/>
</g>
<!-- table::borrow -->
<g id="node14" class="node">
<title>table::borrow</title>
<ellipse fill="none" stroke="black" cx="96" cy="-283" rx="36.29" ry="18"/>
<text text-anchor="middle" x="96" y="-279.3" font-family="Times,serif" font-size="14.00">borrow</text>
</g>
<!-- voting::get_proposal_state&#45;&gt;table::borrow -->
<g id="edge15" class="edge">
<title>voting::get_proposal_state&#45;&gt;table::borrow</title>
<path fill="none" stroke="black" d="M510.81,-420.18C500.91,-418.28 490.67,-416.47 481,-415 446.98,-409.84 437.69,-414 404,-407 295.83,-384.51 266.46,-380.1 167,-332 151.95,-324.72 136.43,-314.59 123.76,-305.5"/>
<polygon fill="black" stroke="black" points="126.03,-302.82 115.9,-299.72 121.88,-308.47 126.03,-302.82"/>
</g>
<!-- voting::is_voting_closed -->
<g id="node15" class="node">
<title>voting::is_voting_closed</title>
<ellipse fill="none" stroke="black" cx="483" cy="-358" rx="70.39" ry="18"/>
<text text-anchor="middle" x="483" y="-354.3" font-family="Times,serif" font-size="14.00">is_voting_closed</text>
</g>
<!-- voting::get_proposal_state&#45;&gt;voting::is_voting_closed -->
<g id="edge16" class="edge">
<title>voting::get_proposal_state&#45;&gt;voting::is_voting_closed</title>
<path fill="none" stroke="black" d="M547.17,-415.44C536.31,-405.89 522.48,-393.72 510.43,-383.13"/>
<polygon fill="black" stroke="black" points="513,-380.73 503.18,-376.75 508.38,-385.98 513,-380.73"/>
</g>
<!-- option::extract&#45;&gt;option::is_some -->
<g id="edge17" class="edge">
<title>option::extract&#45;&gt;option::is_some</title>
<path fill="none" stroke="black" d="M775.01,-183.76C762.47,-171.81 744.8,-154.97 730.48,-141.32"/>
<polygon fill="black" stroke="black" points="733.25,-139.13 723.59,-134.76 728.42,-144.2 733.25,-139.13"/>
</g>
<!-- vector::is_empty -->
<g id="node16" class="node">
<title>vector::is_empty</title>
<ellipse fill="none" stroke="black" cx="864" cy="-34" rx="43.59" ry="18"/>
<text text-anchor="middle" x="864" y="-30.3" font-family="Times,serif" font-size="14.00">is_empty</text>
</g>
<!-- option::is_none&#45;&gt;vector::is_empty -->
<g id="edge18" class="edge">
<title>option::is_none&#45;&gt;vector::is_empty</title>
<path fill="none" stroke="black" d="M880.11,-181.76C877.01,-153.51 870.82,-97.11 867.08,-63.04"/>
<polygon fill="black" stroke="black" points="870.6,-63.07 866.03,-53.51 863.64,-63.84 870.6,-63.07"/>
</g>
<!-- option::none -->
<g id="node17" class="node">
<title>option::none</title>
<ellipse fill="none" stroke="black" cx="1044" cy="-200" rx="27.9" ry="18"/>
<text text-anchor="middle" x="1044" y="-196.3" font-family="Times,serif" font-size="14.00">none</text>
</g>
<!-- simple_map::find&#45;&gt;option::none -->
<g id="edge19" class="edge">
<title>simple_map::find&#45;&gt;option::none</title>
<path fill="none" stroke="black" d="M985.01,-268.93C992.11,-263.14 1000.26,-256.05 1007,-249 1013.75,-241.94 1020.46,-233.69 1026.29,-226.04"/>
<polygon fill="black" stroke="black" points="1029.08,-228.14 1032.22,-218.02 1023.46,-223.98 1029.08,-228.14"/>
</g>
<!-- option::some -->
<g id="node18" class="node">
<title>option::some</title>
<ellipse fill="none" stroke="black" cx="968" cy="-200" rx="29.8" ry="18"/>
<text text-anchor="middle" x="968" y="-196.3" font-family="Times,serif" font-size="14.00">some</text>
</g>
<!-- simple_map::find&#45;&gt;option::some -->
<g id="edge20" class="edge">
<title>simple_map::find&#45;&gt;option::some</title>
<path fill="none" stroke="black" d="M968,-264.82C968,-254.69 968,-241.6 968,-229.92"/>
<polygon fill="black" stroke="black" points="971.5,-229.95 968,-219.95 964.5,-229.95 971.5,-229.95"/>
</g>
<!-- comparator::compare -->
<g id="node19" class="node">
<title>comparator::compare</title>
<ellipse fill="none" stroke="black" cx="1138" cy="-200" rx="41.69" ry="18"/>
<text text-anchor="middle" x="1138" y="-196.3" font-family="Times,serif" font-size="14.00">compare</text>
</g>
<!-- simple_map::find&#45;&gt;comparator::compare -->
<g id="edge21" class="edge">
<title>simple_map::find&#45;&gt;comparator::compare</title>
<path fill="none" stroke="black" d="M994.16,-278.02C1018.55,-273.53 1055.37,-264.71 1084,-249 1095.33,-242.78 1106.29,-233.79 1115.34,-225.27"/>
<polygon fill="black" stroke="black" points="1117.64,-227.92 1122.31,-218.41 1112.73,-222.93 1117.64,-227.92"/>
</g>
<!-- comparator::is_smaller_than -->
<g id="node20" class="node">
<title>comparator::is_smaller_than</title>
<ellipse fill="none" stroke="black" cx="1265" cy="-200" rx="66.89" ry="18"/>
<text text-anchor="middle" x="1265" y="-196.3" font-family="Times,serif" font-size="14.00">is_smaller_than</text>
</g>
<!-- simple_map::find&#45;&gt;comparator::is_smaller_than -->
<g id="edge22" class="edge">
<title>simple_map::find&#45;&gt;comparator::is_smaller_than</title>
<path fill="none" stroke="black" d="M995.08,-281.52C1037.66,-280 1122.27,-273.8 1189,-249 1205.24,-242.96 1221.7,-233.13 1235.12,-223.93"/>
<polygon fill="black" stroke="black" points="1236.95,-226.93 1243.08,-218.29 1232.9,-221.22 1236.95,-226.93"/>
</g>
<!-- option::is_some&#45;&gt;vector::is_empty -->
<g id="edge23" class="edge">
<title>option::is_some&#45;&gt;vector::is_empty</title>
<path fill="none" stroke="black" d="M731.74,-102.81C757.78,-89.45 798.29,-68.69 827.62,-53.65"/>
<polygon fill="black" stroke="black" points="828.83,-56.96 836.14,-49.28 825.64,-50.73 828.83,-56.96"/>
</g>
<!-- table::borrow_box_mut -->
<g id="node21" class="node">
<title>table::borrow_box_mut</title>
<ellipse fill="none" stroke="black" cx="214" cy="-200" rx="72.29" ry="18"/>
<text text-anchor="middle" x="214" y="-196.3" font-family="Times,serif" font-size="14.00">borrow_box_mut</text>
</g>
<!-- table::borrow_mut&#45;&gt;table::borrow_box_mut -->
<g id="edge24" class="edge">
<title>table::borrow_mut&#45;&gt;table::borrow_box_mut</title>
<path fill="none" stroke="black" d="M227.39,-264.82C225.25,-254.58 222.46,-241.33 219.99,-229.55"/>
<polygon fill="black" stroke="black" points="223.45,-228.98 217.97,-219.91 216.6,-230.42 223.45,-228.98"/>
</g>
<!-- table::borrow_box -->
<g id="node22" class="node">
<title>table::borrow_box</title>
<ellipse fill="none" stroke="black" cx="70" cy="-200" rx="53.89" ry="18"/>
<text text-anchor="middle" x="70" y="-196.3" font-family="Times,serif" font-size="14.00">borrow_box</text>
</g>
<!-- table::borrow&#45;&gt;table::borrow_box -->
<g id="edge25" class="edge">
<title>table::borrow&#45;&gt;table::borrow_box</title>
<path fill="none" stroke="black" d="M90.49,-264.82C87.14,-254.41 82.8,-240.87 78.97,-228.94"/>
<polygon fill="black" stroke="black" points="82.36,-228.05 75.97,-219.59 75.69,-230.19 82.36,-228.05"/>
</g>
<!-- voting::is_voting_closed&#45;&gt;table::borrow_mut -->
<g id="edge26" class="edge">
<title>voting::is_voting_closed&#45;&gt;table::borrow_mut</title>
<path fill="none" stroke="black" d="M416.93,-351.46C372.82,-347.11 319.16,-340.4 298,-332 283.41,-326.21 269.03,-316.57 257.35,-307.44"/>
<polygon fill="black" stroke="black" points="259.74,-304.88 249.78,-301.27 255.32,-310.3 259.74,-304.88"/>
</g>
<!-- voting::can_be_resolved_early -->
<g id="node23" class="node">
<title>voting::can_be_resolved_early</title>
<ellipse fill="none" stroke="black" cx="600" cy="-283" rx="91.78" ry="18"/>
<text text-anchor="middle" x="600" y="-279.3" font-family="Times,serif" font-size="14.00">can_be_resolved_early</text>
</g>
<!-- voting::is_voting_closed&#45;&gt;voting::can_be_resolved_early -->
<g id="edge27" class="edge">
<title>voting::is_voting_closed&#45;&gt;voting::can_be_resolved_early</title>
<path fill="none" stroke="black" d="M508.97,-340.8C525.1,-330.73 546.07,-317.65 563.82,-306.57"/>
<polygon fill="black" stroke="black" points="565.38,-309.73 572.01,-301.46 561.67,-303.79 565.38,-309.73"/>
</g>
<!-- voting::is_voting_period_over -->
<g id="node24" class="node">
<title>voting::is_voting_period_over</title>
<ellipse fill="none" stroke="black" cx="400" cy="-283" rx="90.18" ry="18"/>
<text text-anchor="middle" x="400" y="-279.3" font-family="Times,serif" font-size="14.00">is_voting_period_over</text>
</g>
<!-- voting::is_voting_closed&#45;&gt;voting::is_voting_period_over -->
<g id="edge28" class="edge">
<title>voting::is_voting_closed&#45;&gt;voting::is_voting_period_over</title>
<path fill="none" stroke="black" d="M464.17,-340.44C453.39,-330.96 439.67,-318.89 427.69,-308.35"/>
<polygon fill="black" stroke="black" points="430.29,-305.98 420.47,-302.01 425.67,-311.24 430.29,-305.98"/>
</g>
<!-- vector::singleton -->
<g id="node25" class="node">
<title>vector::singleton</title>
<ellipse fill="none" stroke="black" cx="968" cy="-34" rx="42.79" ry="18"/>
<text text-anchor="middle" x="968" y="-30.3" font-family="Times,serif" font-size="14.00">singleton</text>
</g>
<!-- option::some&#45;&gt;vector::singleton -->
<g id="edge29" class="edge">
<title>option::some&#45;&gt;vector::singleton</title>
<path fill="none" stroke="black" d="M968,-181.76C968,-153.63 968,-97.6 968,-63.49"/>
<polygon fill="black" stroke="black" points="971.5,-63.52 968,-53.52 964.5,-63.52 971.5,-63.52"/>
</g>
<!-- bcs::to_bytes -->
<g id="node26" class="node">
<title>bcs::to_bytes</title>
<ellipse fill="none" stroke="black" cx="1396" cy="-117" rx="40.09" ry="18"/>
<text text-anchor="middle" x="1396" y="-113.3" font-family="Times,serif" font-size="14.00">to_bytes</text>
</g>
<!-- comparator::compare&#45;&gt;bcs::to_bytes -->
<g id="edge30" class="edge">
<title>comparator::compare&#45;&gt;bcs::to_bytes</title>
<path fill="none" stroke="black" d="M1161.87,-184.83C1170.18,-180.57 1179.74,-176.4 1189,-174 1222.39,-165.34 1312.21,-179.38 1344,-166 1356.01,-160.94 1367,-151.83 1375.75,-142.9"/>
<polygon fill="black" stroke="black" points="1378.22,-145.38 1382.39,-135.64 1373.06,-140.66 1378.22,-145.38"/>
</g>
<!-- comparator::compare_u8_vector -->
<g id="node27" class="node">
<title>comparator::compare_u8_vector</title>
<ellipse fill="none" stroke="black" cx="1177" cy="-117" rx="81.49" ry="18"/>
<text text-anchor="middle" x="1177" y="-113.3" font-family="Times,serif" font-size="14.00">compare_u8_vector</text>
</g>
<!-- comparator::compare&#45;&gt;comparator::compare_u8_vector -->
<g id="edge31" class="edge">
<title>comparator::compare&#45;&gt;comparator::compare_u8_vector</title>
<path fill="none" stroke="black" d="M1146.08,-182.22C1151.19,-171.61 1157.91,-157.65 1163.78,-145.45"/>
<polygon fill="black" stroke="black" points="1166.82,-147.21 1168,-136.68 1160.51,-144.18 1166.82,-147.21"/>
</g>
<!-- voting::can_be_resolved_early&#45;&gt;option::is_some -->
<g id="edge33" class="edge">
<title>voting::can_be_resolved_early&#45;&gt;option::is_some</title>
<path fill="none" stroke="black" d="M600.03,-264.77C600.86,-242.08 605.16,-201.83 624,-174 635.05,-157.69 652.57,-144.78 668.59,-135.49"/>
<polygon fill="black" stroke="black" points="669.88,-138.77 676.97,-130.9 666.52,-132.63 669.88,-138.77"/>
</g>
<!-- option::borrow -->
<g id="node28" class="node">
<title>option::borrow</title>
<ellipse fill="none" stroke="black" cx="702" cy="-200" rx="36.29" ry="18"/>
<text text-anchor="middle" x="702" y="-196.3" font-family="Times,serif" font-size="14.00">borrow</text>
</g>
<!-- voting::can_be_resolved_early&#45;&gt;option::borrow -->
<g id="edge32" class="edge">
<title>voting::can_be_resolved_early&#45;&gt;option::borrow</title>
<path fill="none" stroke="black" d="M621.13,-265.22C636.59,-252.94 657.71,-236.17 674.48,-222.85"/>
<polygon fill="black" stroke="black" points="676.45,-225.76 682.11,-216.8 672.1,-220.27 676.45,-225.76"/>
</g>
<!-- timestamp::now_seconds -->
<g id="node29" class="node">
<title>timestamp::now_seconds</title>
<ellipse fill="none" stroke="black" cx="400" cy="-200" rx="57.69" ry="18"/>
<text text-anchor="middle" x="400" y="-196.3" font-family="Times,serif" font-size="14.00">now_seconds</text>
</g>
<!-- voting::is_voting_period_over&#45;&gt;timestamp::now_seconds -->
<g id="edge34" class="edge">
<title>voting::is_voting_period_over&#45;&gt;timestamp::now_seconds</title>
<path fill="none" stroke="black" d="M400,-264.82C400,-254.69 400,-241.6 400,-229.92"/>
<polygon fill="black" stroke="black" points="403.5,-229.95 400,-219.95 396.5,-229.95 403.5,-229.95"/>
</g>
<!-- option::borrow&#45;&gt;option::is_some -->
<g id="edge35" class="edge">
<title>option::borrow&#45;&gt;option::is_some</title>
<path fill="none" stroke="black" d="M702.85,-181.82C703.35,-171.69 704,-158.6 704.57,-146.92"/>
<polygon fill="black" stroke="black" points="708.07,-147.1 705.06,-136.94 701.08,-146.76 708.07,-147.1"/>
</g>
<!-- timestamp::now_microseconds -->
<g id="node30" class="node">
<title>timestamp::now_microseconds</title>
<ellipse fill="none" stroke="black" cx="400" cy="-117" rx="79.09" ry="18"/>
<text text-anchor="middle" x="400" y="-113.3" font-family="Times,serif" font-size="14.00">now_microseconds</text>
</g>
<!-- timestamp::now_seconds&#45;&gt;timestamp::now_microseconds -->
<g id="edge36" class="edge">
<title>timestamp::now_seconds&#45;&gt;timestamp::now_microseconds</title>
<path fill="none" stroke="black" d="M400,-181.82C400,-171.69 400,-158.6 400,-146.92"/>
<polygon fill="black" stroke="black" points="403.5,-146.95 400,-136.95 396.5,-146.95 403.5,-146.95"/>
</g>
</g>
</svg>
