<?xml version="1.0" encoding="UTF-8" standalone="no"?>
<!DOCTYPE svg PUBLIC "-//W3C//DTD SVG 1.1//EN"
 "http://www.w3.org/Graphics/SVG/1.1/DTD/svg11.dtd">
<!-- Generated by graphviz version 7.0.0 (20221023.0053)
 -->
<!-- Title: G Pages: 1 -->
<svg width="1075pt" height="459pt"
 viewBox="0.00 0.00 1075.00 459.00" xmlns="http://www.w3.org/2000/svg" xmlns:xlink="http://www.w3.org/1999/xlink">
<g id="graph0" class="graph" transform="scale(1 1) rotate(0) translate(4 455)">
<title>G</title>
<polygon fill="white" stroke="none" points="-4,4 -4,-455 1071,-455 1071,4 -4,4"/>
<g id="clust1" class="cluster">
<title>cluster_string</title>
<polygon fill="none" stroke="black" points="8,-257 8,-407 186,-407 186,-257 8,-257"/>
<text text-anchor="middle" x="97" y="-391.8" font-family="Times,serif" font-size="14.00">string</text>
</g>
<g id="clust2" class="cluster">
<title>cluster_error</title>
<polygon fill="none" stroke="black" points="194,-174 194,-332 356,-332 356,-174 194,-174"/>
<text text-anchor="middle" x="275" y="-316.8" font-family="Times,serif" font-size="14.00">error</text>
</g>
<g id="clust3" class="cluster">
<title>cluster_simple_map</title>
<polygon fill="none" stroke="black" points="435,-257 435,-407 587,-407 587,-257 435,-257"/>
<text text-anchor="middle" x="511" y="-391.8" font-family="Times,serif" font-size="14.00">simple_map</text>
</g>
<g id="clust4" class="cluster">
<title>cluster_option</title>
<polygon fill="none" stroke="black" points="364,-91 364,-249 695,-249 695,-91 364,-91"/>
<text text-anchor="middle" x="529.5" y="-233.8" font-family="Times,serif" font-size="14.00">option</text>
</g>
<g id="clust5" class="cluster">
<title>cluster_vector</title>
<polygon fill="none" stroke="black" points="427,-8 427,-83 634,-83 634,-8 427,-8"/>
<text text-anchor="middle" x="530.5" y="-67.8" font-family="Times,serif" font-size="14.00">vector</text>
</g>
<g id="clust6" class="cluster">
<title>cluster_comparator</title>
<polygon fill="none" stroke="black" points="703,-91 703,-249 955,-249 955,-91 703,-91"/>
<text text-anchor="middle" x="829" y="-233.8" font-family="Times,serif" font-size="14.00">comparator</text>
</g>
<g id="clust7" class="cluster">
<title>cluster_bcs</title>
<polygon fill="none" stroke="black" points="963,-91 963,-166 1059,-166 1059,-91 963,-91"/>
<text text-anchor="middle" x="1011" y="-150.8" font-family="Times,serif" font-size="14.00">bcs</text>
</g>
<!-- create_proposal_metadata -->
<g id="node1" class="node">
<title>create_proposal_metadata</title>
<ellipse fill="none" stroke="black" cx="275" cy="-433" rx="102.88" ry="18"/>
<text text-anchor="middle" x="275" y="-429.3" font-family="Times,serif" font-size="14.00">create_proposal_metadata</text>
</g>
<!-- string::length -->
<g id="node2" class="node">
<title>string::length</title>
<ellipse fill="none" stroke="black" cx="146" cy="-358" rx="32.49" ry="18"/>
<text text-anchor="middle" x="146" y="-354.3" font-family="Times,serif" font-size="14.00">length</text>
</g>
<!-- create_proposal_metadata&#45;&gt;string::length -->
<g id="edge1" class="edge">
<title>create_proposal_metadata&#45;&gt;string::length</title>
<path fill="none" stroke="black" d="M245.73,-415.44C225.51,-403.99 198.62,-388.78 177.86,-377.03"/>
<polygon fill="black" stroke="black" points="179.67,-374.03 169.24,-372.15 176.22,-380.12 179.67,-374.03"/>
</g>
<!-- string::utf8 -->
<g id="node3" class="node">
<title>string::utf8</title>
<ellipse fill="none" stroke="black" cx="69" cy="-358" rx="27" ry="18"/>
<text text-anchor="middle" x="69" y="-354.3" font-family="Times,serif" font-size="14.00">utf8</text>
</g>
<!-- create_proposal_metadata&#45;&gt;string::utf8 -->
<g id="edge2" class="edge">
<title>create_proposal_metadata&#45;&gt;string::utf8</title>
<path fill="none" stroke="black" d="M182.75,-424.69C150.37,-420.81 118.65,-415.12 105,-407 96.12,-401.72 88.72,-393.32 82.98,-385.02"/>
<polygon fill="black" stroke="black" points="86.1,-383.41 77.82,-376.79 80.17,-387.12 86.1,-383.41"/>
</g>
<!-- error::invalid_argument -->
<g id="node4" class="node">
<title>error::invalid_argument</title>
<ellipse fill="none" stroke="black" cx="275" cy="-283" rx="73.39" ry="18"/>
<text text-anchor="middle" x="275" y="-279.3" font-family="Times,serif" font-size="14.00">invalid_argument</text>
</g>
<!-- create_proposal_metadata&#45;&gt;error::invalid_argument -->
<g id="edge3" class="edge">
<title>create_proposal_metadata&#45;&gt;error::invalid_argument</title>
<path fill="none" stroke="black" d="M275,-414.73C275,-389.67 275,-342.9 275,-312.63"/>
<polygon fill="black" stroke="black" points="278.5,-312.67 275,-302.67 271.5,-312.67 278.5,-312.67"/>
</g>
<!-- simple_map::add -->
<g id="node5" class="node">
<title>simple_map::add</title>
<ellipse fill="none" stroke="black" cx="552" cy="-358" rx="27" ry="18"/>
<text text-anchor="middle" x="552" y="-354.3" font-family="Times,serif" font-size="14.00">add</text>
</g>
<!-- create_proposal_metadata&#45;&gt;simple_map::add -->
<g id="edge4" class="edge">
<title>create_proposal_metadata&#45;&gt;simple_map::add</title>
<path fill="none" stroke="black" d="M376.34,-429.54C431.14,-426.64 492.35,-420.4 516,-407 524.99,-401.91 532.42,-393.56 538.14,-385.24"/>
<polygon fill="black" stroke="black" points="540.98,-387.31 543.28,-376.96 535.03,-383.61 540.98,-387.31"/>
</g>
<!-- simple_map::create -->
<g id="node6" class="node">
<title>simple_map::create</title>
<ellipse fill="none" stroke="black" cx="475" cy="-358" rx="31.7" ry="18"/>
<text text-anchor="middle" x="475" y="-354.3" font-family="Times,serif" font-size="14.00">create</text>
</g>
<!-- create_proposal_metadata&#45;&gt;simple_map::create -->
<g id="edge5" class="edge">
<title>create_proposal_metadata&#45;&gt;simple_map::create</title>
<path fill="none" stroke="black" d="M317.91,-416.34C353.74,-403.26 404.29,-384.81 438.28,-372.4"/>
<polygon fill="black" stroke="black" points="439.08,-375.84 447.27,-369.12 436.68,-369.26 439.08,-375.84"/>
</g>
<!-- string::internal_check_utf8 -->
<g id="node7" class="node">
<title>string::internal_check_utf8</title>
<ellipse fill="none" stroke="black" cx="97" cy="-283" rx="81.49" ry="18"/>
<text text-anchor="middle" x="97" y="-279.3" font-family="Times,serif" font-size="14.00">internal_check_utf8</text>
</g>
<!-- string::utf8&#45;&gt;string::internal_check_utf8 -->
<g id="edge6" class="edge">
<title>string::utf8&#45;&gt;string::internal_check_utf8</title>
<path fill="none" stroke="black" d="M75.49,-340.07C78.7,-331.71 82.65,-321.42 86.29,-311.94"/>
<polygon fill="black" stroke="black" points="89.49,-313.35 89.8,-302.76 82.96,-310.84 89.49,-313.35"/>
</g>
<!-- error::canonical -->
<g id="node8" class="node">
<title>error::canonical</title>
<ellipse fill="none" stroke="black" cx="275" cy="-200" rx="44.39" ry="18"/>
<text text-anchor="middle" x="275" y="-196.3" font-family="Times,serif" font-size="14.00">canonical</text>
</g>
<!-- error::invalid_argument&#45;&gt;error::canonical -->
<g id="edge7" class="edge">
<title>error::invalid_argument&#45;&gt;error::canonical</title>
<path fill="none" stroke="black" d="M275,-264.82C275,-254.69 275,-241.6 275,-229.92"/>
<polygon fill="black" stroke="black" points="278.5,-229.95 275,-219.95 271.5,-229.95 278.5,-229.95"/>
</g>
<!-- simple_map::add&#45;&gt;error::invalid_argument -->
<g id="edge10" class="edge">
<title>simple_map::add&#45;&gt;error::invalid_argument</title>
<path fill="none" stroke="black" d="M531.54,-345.79C526.58,-343.52 521.21,-341.39 516,-340 473.78,-328.71 460.81,-340.8 418,-332 385.28,-325.28 349.66,-313.33 322.15,-303.05"/>
<polygon fill="black" stroke="black" points="323.66,-299.87 313.07,-299.59 321.17,-306.42 323.66,-299.87"/>
</g>
<!-- option::extract -->
<g id="node9" class="node">
<title>option::extract</title>
<ellipse fill="none" stroke="black" cx="406" cy="-200" rx="34.39" ry="18"/>
<text text-anchor="middle" x="406" y="-196.3" font-family="Times,serif" font-size="14.00">extract</text>
</g>
<!-- simple_map::add&#45;&gt;option::extract -->
<g id="edge8" class="edge">
<title>simple_map::add&#45;&gt;option::extract</title>
<path fill="none" stroke="black" d="M530.88,-346.46C526.05,-344.21 520.89,-341.93 516,-340 505.15,-335.72 500.27,-339.08 491,-332 455.47,-304.85 430.44,-258.31 417.13,-228.63"/>
<polygon fill="black" stroke="black" points="420.38,-227.34 413.2,-219.55 413.96,-230.12 420.38,-227.34"/>
</g>
<!-- option::is_none -->
<g id="node10" class="node">
<title>option::is_none</title>
<ellipse fill="none" stroke="black" cx="497" cy="-200" rx="38.19" ry="18"/>
<text text-anchor="middle" x="497" y="-196.3" font-family="Times,serif" font-size="14.00">is_none</text>
</g>
<!-- simple_map::add&#45;&gt;option::is_none -->
<g id="edge9" class="edge">
<title>simple_map::add&#45;&gt;option::is_none</title>
<path fill="none" stroke="black" d="M530.76,-346.44C525.12,-342.64 519.6,-337.82 516,-332 496.73,-300.84 494.09,-257.69 494.84,-229.57"/>
<polygon fill="black" stroke="black" points="498.34,-229.82 495.29,-219.67 491.34,-229.5 498.34,-229.82"/>
</g>
<!-- simple_map::find -->
<g id="node11" class="node">
<title>simple_map::find</title>
<ellipse fill="none" stroke="black" cx="552" cy="-283" rx="27" ry="18"/>
<text text-anchor="middle" x="552" y="-279.3" font-family="Times,serif" font-size="14.00">find</text>
</g>
<!-- simple_map::add&#45;&gt;simple_map::find -->
<g id="edge11" class="edge">
<title>simple_map::add&#45;&gt;simple_map::find</title>
<path fill="none" stroke="black" d="M552,-339.7C552,-331.67 552,-321.9 552,-312.8"/>
<polygon fill="black" stroke="black" points="555.5,-312.94 552,-302.94 548.5,-312.94 555.5,-312.94"/>
</g>
<!-- option::is_some -->
<g id="node12" class="node">
<title>option::is_some</title>
<ellipse fill="none" stroke="black" cx="417" cy="-117" rx="40.09" ry="18"/>
<text text-anchor="middle" x="417" y="-113.3" font-family="Times,serif" font-size="14.00">is_some</text>
</g>
<!-- option::extract&#45;&gt;option::is_some -->
<g id="edge12" class="edge">
<title>option::extract&#45;&gt;option::is_some</title>
<path fill="none" stroke="black" d="M408.33,-181.82C409.72,-171.58 411.52,-158.33 413.12,-146.55"/>
<polygon fill="black" stroke="black" points="416.55,-147.31 414.43,-136.93 409.62,-146.37 416.55,-147.31"/>
</g>
<!-- vector::is_empty -->
<g id="node13" class="node">
<title>vector::is_empty</title>
<ellipse fill="none" stroke="black" cx="479" cy="-34" rx="43.59" ry="18"/>
<text text-anchor="middle" x="479" y="-30.3" font-family="Times,serif" font-size="14.00">is_empty</text>
</g>
<!-- option::is_none&#45;&gt;vector::is_empty -->
<g id="edge13" class="edge">
<title>option::is_none&#45;&gt;vector::is_empty</title>
<path fill="none" stroke="black" d="M495.11,-181.76C492.01,-153.51 485.82,-97.11 482.08,-63.04"/>
<polygon fill="black" stroke="black" points="485.6,-63.07 481.03,-53.51 478.64,-63.84 485.6,-63.07"/>
</g>
<!-- option::none -->
<g id="node14" class="node">
<title>option::none</title>
<ellipse fill="none" stroke="black" cx="659" cy="-200" rx="27.9" ry="18"/>
<text text-anchor="middle" x="659" y="-196.3" font-family="Times,serif" font-size="14.00">none</text>
</g>
<!-- simple_map::find&#45;&gt;option::none -->
<g id="edge14" class="edge">
<title>simple_map::find&#45;&gt;option::none</title>
<path fill="none" stroke="black" d="M575.96,-273.97C590.28,-268.41 608.28,-260.03 622,-249 629.81,-242.72 636.93,-234.46 642.8,-226.58"/>
<polygon fill="black" stroke="black" points="645.56,-228.74 648.42,-218.53 639.82,-224.72 645.56,-228.74"/>
</g>
<!-- option::some -->
<g id="node15" class="node">
<title>option::some</title>
<ellipse fill="none" stroke="black" cx="583" cy="-200" rx="29.8" ry="18"/>
<text text-anchor="middle" x="583" y="-196.3" font-family="Times,serif" font-size="14.00">some</text>
</g>
<!-- simple_map::find&#45;&gt;option::some -->
<g id="edge15" class="edge">
<title>simple_map::find&#45;&gt;option::some</title>
<path fill="none" stroke="black" d="M558.42,-265.22C562.47,-254.64 567.79,-240.74 572.45,-228.58"/>
<polygon fill="black" stroke="black" points="575.63,-230.04 575.94,-219.45 569.09,-227.54 575.63,-230.04"/>
</g>
<!-- comparator::compare -->
<g id="node16" class="node">
<title>comparator::compare</title>
<ellipse fill="none" stroke="black" cx="905" cy="-200" rx="41.69" ry="18"/>
<text text-anchor="middle" x="905" y="-196.3" font-family="Times,serif" font-size="14.00">compare</text>
</g>
<!-- simple_map::find&#45;&gt;comparator::compare -->
<g id="edge16" class="edge">
<title>simple_map::find&#45;&gt;comparator::compare</title>
<path fill="none" stroke="black" d="M579.22,-281.22C643.97,-279.03 805.38,-271.41 854,-249 865.71,-243.6 876.48,-234.43 885.07,-225.55"/>
<polygon fill="black" stroke="black" points="887.45,-228.12 891.58,-218.37 882.27,-223.42 887.45,-228.12"/>
</g>
<!-- comparator::is_smaller_than -->
<g id="node17" class="node">
<title>comparator::is_smaller_than</title>
<ellipse fill="none" stroke="black" cx="778" cy="-200" rx="66.89" ry="18"/>
<text text-anchor="middle" x="778" y="-196.3" font-family="Times,serif" font-size="14.00">is_smaller_than</text>
</g>
<!-- simple_map::find&#45;&gt;comparator::is_smaller_than -->
<g id="edge17" class="edge">
<title>simple_map::find&#45;&gt;comparator::is_smaller_than</title>
<path fill="none" stroke="black" d="M578.53,-278.69C608.58,-274.35 658.61,-265.29 699,-249 715.29,-242.43 732.09,-232.71 745.98,-223.72"/>
<polygon fill="black" stroke="black" points="747.89,-226.66 754.28,-218.21 744.01,-220.83 747.89,-226.66"/>
</g>
<!-- option::is_some&#45;&gt;vector::is_empty -->
<g id="edge18" class="edge">
<title>option::is_some&#45;&gt;vector::is_empty</title>
<path fill="none" stroke="black" d="M429.55,-99.61C438.15,-88.37 449.72,-73.25 459.51,-60.46"/>
<polygon fill="black" stroke="black" points="462.04,-62.92 465.34,-52.85 456.48,-58.66 462.04,-62.92"/>
</g>
<!-- vector::singleton -->
<g id="node18" class="node">
<title>vector::singleton</title>
<ellipse fill="none" stroke="black" cx="583" cy="-34" rx="42.79" ry="18"/>
<text text-anchor="middle" x="583" y="-30.3" font-family="Times,serif" font-size="14.00">singleton</text>
</g>
<!-- option::some&#45;&gt;vector::singleton -->
<g id="edge19" class="edge">
<title>option::some&#45;&gt;vector::singleton</title>
<path fill="none" stroke="black" d="M583,-181.76C583,-153.63 583,-97.6 583,-63.49"/>
<polygon fill="black" stroke="black" points="586.5,-63.52 583,-53.52 579.5,-63.52 586.5,-63.52"/>
</g>
<!-- bcs::to_bytes -->
<g id="node19" class="node">
<title>bcs::to_bytes</title>
<ellipse fill="none" stroke="black" cx="1011" cy="-117" rx="40.09" ry="18"/>
<text text-anchor="middle" x="1011" y="-113.3" font-family="Times,serif" font-size="14.00">to_bytes</text>
</g>
<!-- comparator::compare&#45;&gt;bcs::to_bytes -->
<g id="edge20" class="edge">
<title>comparator::compare&#45;&gt;bcs::to_bytes</title>
<path fill="none" stroke="black" d="M929.86,-185.2C939.26,-179.63 949.88,-172.89 959,-166 968.71,-158.67 978.68,-149.83 987.27,-141.74"/>
<polygon fill="black" stroke="black" points="989.45,-144.5 994.24,-135.04 984.6,-139.45 989.45,-144.5"/>
</g>
<!-- comparator::compare_u8_vector -->
<g id="node20" class="node">
<title>comparator::compare_u8_vector</title>
<ellipse fill="none" stroke="black" cx="866" cy="-117" rx="81.49" ry="18"/>
<text text-anchor="middle" x="866" y="-113.3" font-family="Times,serif" font-size="14.00">compare_u8_vector</text>
</g>
<!-- comparator::compare&#45;&gt;comparator::compare_u8_vector -->
<g id="edge21" class="edge">
<title>comparator::compare&#45;&gt;comparator::compare_u8_vector</title>
<path fill="none" stroke="black" d="M896.92,-182.22C891.81,-171.61 885.09,-157.65 879.22,-145.45"/>
<polygon fill="black" stroke="black" points="882.49,-144.18 875,-136.68 876.18,-147.21 882.49,-144.18"/>
</g>
</g>
</svg>
