<?xml version="1.0" encoding="UTF-8" standalone="no"?>
<!DOCTYPE svg PUBLIC "-//W3C//DTD SVG 1.1//EN"
 "http://www.w3.org/Graphics/SVG/1.1/DTD/svg11.dtd">
<!-- Generated by graphviz version 7.0.0 (20221023.0053)
 -->
<!-- Title: G Pages: 1 -->
<svg width="1522pt" height="459pt"
 viewBox="0.00 0.00 1522.00 459.00" xmlns="http://www.w3.org/2000/svg" xmlns:xlink="http://www.w3.org/1999/xlink">
<g id="graph0" class="graph" transform="scale(1 1) rotate(0) translate(4 455)">
<title>G</title>
<polygon fill="white" stroke="none" points="-4,4 -4,-455 1518,-455 1518,4 -4,4"/>
<g id="clust1" class="cluster">
<title>cluster_system_addresses</title>
<polygon fill="none" stroke="black" points="8,-174 8,-407 302,-407 302,-174 8,-174"/>
<text text-anchor="middle" x="155" y="-391.8" font-family="Times,serif" font-size="14.00">system_addresses</text>
</g>
<g id="clust2" class="cluster">
<title>cluster_simple_map</title>
<polygon fill="none" stroke="black" points="905,-257 905,-407 1057,-407 1057,-257 905,-257"/>
<text text-anchor="middle" x="981" y="-391.8" font-family="Times,serif" font-size="14.00">simple_map</text>
</g>
<g id="clust3" class="cluster">
<title>cluster_signer</title>
<polygon fill="none" stroke="black" points="310,-174 310,-332 460,-332 460,-174 310,-174"/>
<text text-anchor="middle" x="385" y="-316.8" font-family="Times,serif" font-size="14.00">signer</text>
</g>
<g id="clust4" class="cluster">
<title>cluster_error</title>
<polygon fill="none" stroke="black" points="468,-174 468,-332 803,-332 803,-174 468,-174"/>
<text text-anchor="middle" x="635.5" y="-316.8" font-family="Times,serif" font-size="14.00">error</text>
</g>
<g id="clust5" class="cluster">
<title>cluster_option</title>
<polygon fill="none" stroke="black" points="811,-91 811,-249 1142,-249 1142,-91 811,-91"/>
<text text-anchor="middle" x="976.5" y="-233.8" font-family="Times,serif" font-size="14.00">option</text>
</g>
<g id="clust6" class="cluster">
<title>cluster_vector</title>
<polygon fill="none" stroke="black" points="874,-8 874,-83 1081,-83 1081,-8 874,-8"/>
<text text-anchor="middle" x="977.5" y="-67.8" font-family="Times,serif" font-size="14.00">vector</text>
</g>
<g id="clust7" class="cluster">
<title>cluster_comparator</title>
<polygon fill="none" stroke="black" points="1150,-91 1150,-249 1402,-249 1402,-91 1150,-91"/>
<text text-anchor="middle" x="1276" y="-233.8" font-family="Times,serif" font-size="14.00">comparator</text>
</g>
<g id="clust8" class="cluster">
<title>cluster_bcs</title>
<polygon fill="none" stroke="black" points="1410,-91 1410,-166 1506,-166 1506,-91 1410,-91"/>
<text text-anchor="middle" x="1458" y="-150.8" font-family="Times,serif" font-size="14.00">bcs</text>
</g>
<!-- store_signer_cap -->
<g id="node1" class="node">
<title>store_signer_cap</title>
<ellipse fill="none" stroke="black" cx="945" cy="-433" rx="70.39" ry="18"/>
<text text-anchor="middle" x="945" y="-429.3" font-family="Times,serif" font-size="14.00">store_signer_cap</text>
</g>
<!-- system_addresses::assert_framework_reserved_address -->
<g id="node2" class="node">
<title>system_addresses::assert_framework_reserved_address</title>
<ellipse fill="none" stroke="black" cx="155" cy="-358" rx="139.18" ry="18"/>
<text text-anchor="middle" x="155" y="-354.3" font-family="Times,serif" font-size="14.00">assert_framework_reserved_address</text>
</g>
<!-- store_signer_cap&#45;&gt;system_addresses::assert_framework_reserved_address -->
<g id="edge1" class="edge">
<title>store_signer_cap&#45;&gt;system_addresses::assert_framework_reserved_address</title>
<path fill="none" stroke="black" d="M879.68,-425.96C747.53,-413.75 446.66,-385.95 277.08,-370.28"/>
<polygon fill="black" stroke="black" points="277.64,-366.82 267.36,-369.38 277,-373.79 277.64,-366.82"/>
</g>
<!-- simple_map::add -->
<g id="node3" class="node">
<title>simple_map::add</title>
<ellipse fill="none" stroke="black" cx="1022" cy="-358" rx="27" ry="18"/>
<text text-anchor="middle" x="1022" y="-354.3" font-family="Times,serif" font-size="14.00">add</text>
</g>
<!-- store_signer_cap&#45;&gt;simple_map::add -->
<g id="edge2" class="edge">
<title>store_signer_cap&#45;&gt;simple_map::add</title>
<path fill="none" stroke="black" d="M973.79,-416.39C978.08,-413.52 982.3,-410.36 986,-407 993.26,-400.4 1000.06,-392.16 1005.74,-384.37"/>
<polygon fill="black" stroke="black" points="1008.62,-386.37 1011.44,-376.16 1002.86,-382.38 1008.62,-386.37"/>
</g>
<!-- simple_map::create -->
<g id="node4" class="node">
<title>simple_map::create</title>
<ellipse fill="none" stroke="black" cx="945" cy="-358" rx="31.7" ry="18"/>
<text text-anchor="middle" x="945" y="-354.3" font-family="Times,serif" font-size="14.00">create</text>
</g>
<!-- store_signer_cap&#45;&gt;simple_map::create -->
<g id="edge3" class="edge">
<title>store_signer_cap&#45;&gt;simple_map::create</title>
<path fill="none" stroke="black" d="M945,-414.7C945,-406.67 945,-396.9 945,-387.8"/>
<polygon fill="black" stroke="black" points="948.5,-387.94 945,-377.94 941.5,-387.94 948.5,-387.94"/>
</g>
<!-- signer::address_of -->
<g id="node5" class="node">
<title>signer::address_of</title>
<ellipse fill="none" stroke="black" cx="376" cy="-283" rx="48.99" ry="18"/>
<text text-anchor="middle" x="376" y="-279.3" font-family="Times,serif" font-size="14.00">address_of</text>
</g>
<!-- system_addresses::assert_framework_reserved_address&#45;&gt;signer::address_of -->
<g id="edge4" class="edge">
<title>system_addresses::assert_framework_reserved_address&#45;&gt;signer::address_of</title>
<path fill="none" stroke="black" d="M259.4,-345.86C275.33,-342.41 291.33,-337.9 306,-332 321.14,-325.91 336.29,-316.1 348.59,-306.93"/>
<polygon fill="black" stroke="black" points="350.44,-309.93 356.21,-301.05 346.16,-304.39 350.44,-309.93"/>
</g>
<!-- error::permission_denied -->
<g id="node6" class="node">
<title>error::permission_denied</title>
<ellipse fill="none" stroke="black" cx="553" cy="-283" rx="77.19" ry="18"/>
<text text-anchor="middle" x="553" y="-279.3" font-family="Times,serif" font-size="14.00">permission_denied</text>
</g>
<!-- system_addresses::assert_framework_reserved_address&#45;&gt;error::permission_denied -->
<g id="edge5" class="edge">
<title>system_addresses::assert_framework_reserved_address&#45;&gt;error::permission_denied</title>
<path fill="none" stroke="black" d="M286.35,-351.74C354.92,-347.92 431.23,-341.7 464,-332 483.38,-326.27 503.32,-315.98 519.41,-306.4"/>
<polygon fill="black" stroke="black" points="520.91,-309.59 527.6,-301.37 517.24,-303.63 520.91,-309.59"/>
</g>
<!-- system_addresses::is_framework_reserved_address -->
<g id="node7" class="node">
<title>system_addresses::is_framework_reserved_address</title>
<ellipse fill="none" stroke="black" cx="155" cy="-283" rx="124.58" ry="18"/>
<text text-anchor="middle" x="155" y="-279.3" font-family="Times,serif" font-size="14.00">is_framework_reserved_address</text>
</g>
<!-- system_addresses::assert_framework_reserved_address&#45;&gt;system_addresses::is_framework_reserved_address -->
<g id="edge6" class="edge">
<title>system_addresses::assert_framework_reserved_address&#45;&gt;system_addresses::is_framework_reserved_address</title>
<path fill="none" stroke="black" d="M155,-339.7C155,-331.67 155,-321.9 155,-312.8"/>
<polygon fill="black" stroke="black" points="158.5,-312.94 155,-302.94 151.5,-312.94 158.5,-312.94"/>
</g>
<!-- option::extract -->
<g id="node8" class="node">
<title>option::extract</title>
<ellipse fill="none" stroke="black" cx="853" cy="-200" rx="34.39" ry="18"/>
<text text-anchor="middle" x="853" y="-196.3" font-family="Times,serif" font-size="14.00">extract</text>
</g>
<!-- simple_map::add&#45;&gt;option::extract -->
<g id="edge7" class="edge">
<title>simple_map::add&#45;&gt;option::extract</title>
<path fill="none" stroke="black" d="M1001.01,-346.11C996.17,-343.87 990.97,-341.69 986,-340 970.07,-334.59 963.11,-341.16 949,-332 909.4,-306.3 880.53,-258.18 865.3,-227.96"/>
<polygon fill="black" stroke="black" points="868.5,-226.53 860.97,-219.07 862.2,-229.59 868.5,-226.53"/>
</g>
<!-- option::is_none -->
<g id="node9" class="node">
<title>option::is_none</title>
<ellipse fill="none" stroke="black" cx="944" cy="-200" rx="38.19" ry="18"/>
<text text-anchor="middle" x="944" y="-196.3" font-family="Times,serif" font-size="14.00">is_none</text>
</g>
<!-- simple_map::add&#45;&gt;option::is_none -->
<g id="edge8" class="edge">
<title>simple_map::add&#45;&gt;option::is_none</title>
<path fill="none" stroke="black" d="M1001.36,-346.04C995.73,-342.23 990.07,-337.51 986,-332 963.25,-301.26 952.53,-257.72 947.69,-229.42"/>
<polygon fill="black" stroke="black" points="951.19,-229.15 946.19,-219.81 944.27,-230.23 951.19,-229.15"/>
</g>
<!-- error::invalid_argument -->
<g id="node10" class="node">
<title>error::invalid_argument</title>
<ellipse fill="none" stroke="black" cx="722" cy="-283" rx="73.39" ry="18"/>
<text text-anchor="middle" x="722" y="-279.3" font-family="Times,serif" font-size="14.00">invalid_argument</text>
</g>
<!-- simple_map::add&#45;&gt;error::invalid_argument -->
<g id="edge9" class="edge">
<title>simple_map::add&#45;&gt;error::invalid_argument</title>
<path fill="none" stroke="black" d="M1001.56,-345.73C996.6,-343.46 991.22,-341.35 986,-340 933.83,-326.48 917.87,-342.44 865,-332 832.11,-325.51 796.36,-313.51 768.83,-303.13"/>
<polygon fill="black" stroke="black" points="770.33,-299.96 759.74,-299.64 767.82,-306.49 770.33,-299.96"/>
</g>
<!-- simple_map::find -->
<g id="node11" class="node">
<title>simple_map::find</title>
<ellipse fill="none" stroke="black" cx="1022" cy="-283" rx="27" ry="18"/>
<text text-anchor="middle" x="1022" y="-279.3" font-family="Times,serif" font-size="14.00">find</text>
</g>
<!-- simple_map::add&#45;&gt;simple_map::find -->
<g id="edge10" class="edge">
<title>simple_map::add&#45;&gt;simple_map::find</title>
<path fill="none" stroke="black" d="M1022,-339.7C1022,-331.67 1022,-321.9 1022,-312.8"/>
<polygon fill="black" stroke="black" points="1025.5,-312.94 1022,-302.94 1018.5,-312.94 1025.5,-312.94"/>
</g>
<!-- signer::borrow_address -->
<g id="node12" class="node">
<title>signer::borrow_address</title>
<ellipse fill="none" stroke="black" cx="385" cy="-200" rx="66.89" ry="18"/>
<text text-anchor="middle" x="385" y="-196.3" font-family="Times,serif" font-size="14.00">borrow_address</text>
</g>
<!-- signer::address_of&#45;&gt;signer::borrow_address -->
<g id="edge11" class="edge">
<title>signer::address_of&#45;&gt;signer::borrow_address</title>
<path fill="none" stroke="black" d="M377.91,-264.82C379.05,-254.58 380.52,-241.33 381.83,-229.55"/>
<polygon fill="black" stroke="black" points="385.27,-230.26 382.9,-219.94 378.31,-229.49 385.27,-230.26"/>
</g>
<!-- error::canonical -->
<g id="node13" class="node">
<title>error::canonical</title>
<ellipse fill="none" stroke="black" cx="637" cy="-200" rx="44.39" ry="18"/>
<text text-anchor="middle" x="637" y="-196.3" font-family="Times,serif" font-size="14.00">canonical</text>
</g>
<!-- error::permission_denied&#45;&gt;error::canonical -->
<g id="edge12" class="edge">
<title>error::permission_denied&#45;&gt;error::canonical</title>
<path fill="none" stroke="black" d="M570.4,-265.22C582.58,-253.47 599.02,-237.62 612.52,-224.61"/>
<polygon fill="black" stroke="black" points="614.62,-227.45 619.39,-217.99 609.76,-222.41 614.62,-227.45"/>
</g>
<!-- system_addresses::is_aptos_framework_address -->
<g id="node14" class="node">
<title>system_addresses::is_aptos_framework_address</title>
<ellipse fill="none" stroke="black" cx="155" cy="-200" rx="113.98" ry="18"/>
<text text-anchor="middle" x="155" y="-196.3" font-family="Times,serif" font-size="14.00">is_aptos_framework_address</text>
</g>
<!-- system_addresses::is_framework_reserved_address&#45;&gt;system_addresses::is_aptos_framework_address -->
<g id="edge13" class="edge">
<title>system_addresses::is_framework_reserved_address&#45;&gt;system_addresses::is_aptos_framework_address</title>
<path fill="none" stroke="black" d="M155,-264.82C155,-254.69 155,-241.6 155,-229.92"/>
<polygon fill="black" stroke="black" points="158.5,-229.95 155,-219.95 151.5,-229.95 158.5,-229.95"/>
</g>
<!-- option::is_some -->
<g id="node15" class="node">
<title>option::is_some</title>
<ellipse fill="none" stroke="black" cx="864" cy="-117" rx="40.09" ry="18"/>
<text text-anchor="middle" x="864" y="-113.3" font-family="Times,serif" font-size="14.00">is_some</text>
</g>
<!-- option::extract&#45;&gt;option::is_some -->
<g id="edge14" class="edge">
<title>option::extract&#45;&gt;option::is_some</title>
<path fill="none" stroke="black" d="M855.33,-181.82C856.72,-171.58 858.52,-158.33 860.12,-146.55"/>
<polygon fill="black" stroke="black" points="863.55,-147.31 861.43,-136.93 856.62,-146.37 863.55,-147.31"/>
</g>
<!-- vector::is_empty -->
<g id="node16" class="node">
<title>vector::is_empty</title>
<ellipse fill="none" stroke="black" cx="926" cy="-34" rx="43.59" ry="18"/>
<text text-anchor="middle" x="926" y="-30.3" font-family="Times,serif" font-size="14.00">is_empty</text>
</g>
<!-- option::is_none&#45;&gt;vector::is_empty -->
<g id="edge15" class="edge">
<title>option::is_none&#45;&gt;vector::is_empty</title>
<path fill="none" stroke="black" d="M942.11,-181.76C939.01,-153.51 932.82,-97.11 929.08,-63.04"/>
<polygon fill="black" stroke="black" points="932.6,-63.07 928.03,-53.51 925.64,-63.84 932.6,-63.07"/>
</g>
<!-- error::invalid_argument&#45;&gt;error::canonical -->
<g id="edge16" class="edge">
<title>error::invalid_argument&#45;&gt;error::canonical</title>
<path fill="none" stroke="black" d="M704.39,-265.22C692.07,-253.47 675.43,-237.62 661.78,-224.61"/>
<polygon fill="black" stroke="black" points="664.47,-222.34 654.82,-217.98 659.64,-227.41 664.47,-222.34"/>
</g>
<!-- option::none -->
<g id="node17" class="node">
<title>option::none</title>
<ellipse fill="none" stroke="black" cx="1106" cy="-200" rx="27.9" ry="18"/>
<text text-anchor="middle" x="1106" y="-196.3" font-family="Times,serif" font-size="14.00">none</text>
</g>
<!-- simple_map::find&#45;&gt;option::none -->
<g id="edge17" class="edge">
<title>simple_map::find&#45;&gt;option::none</title>
<path fill="none" stroke="black" d="M1041.3,-270.36C1050.21,-264.52 1060.64,-256.99 1069,-249 1076.06,-242.25 1082.86,-234.09 1088.67,-226.42"/>
<polygon fill="black" stroke="black" points="1091.49,-228.49 1094.54,-218.34 1085.83,-224.37 1091.49,-228.49"/>
</g>
<!-- option::some -->
<g id="node18" class="node">
<title>option::some</title>
<ellipse fill="none" stroke="black" cx="1030" cy="-200" rx="29.8" ry="18"/>
<text text-anchor="middle" x="1030" y="-196.3" font-family="Times,serif" font-size="14.00">some</text>
</g>
<!-- simple_map::find&#45;&gt;option::some -->
<g id="edge18" class="edge">
<title>simple_map::find&#45;&gt;option::some</title>
<path fill="none" stroke="black" d="M1023.7,-264.82C1024.71,-254.58 1026.02,-241.33 1027.18,-229.55"/>
<polygon fill="black" stroke="black" points="1030.63,-230.23 1028.13,-219.94 1023.66,-229.55 1030.63,-230.23"/>
</g>
<!-- comparator::compare -->
<g id="node19" class="node">
<title>comparator::compare</title>
<ellipse fill="none" stroke="black" cx="1352" cy="-200" rx="41.69" ry="18"/>
<text text-anchor="middle" x="1352" y="-196.3" font-family="Times,serif" font-size="14.00">compare</text>
</g>
<!-- simple_map::find&#45;&gt;comparator::compare -->
<g id="edge19" class="edge">
<title>simple_map::find&#45;&gt;comparator::compare</title>
<path fill="none" stroke="black" d="M1048.95,-280.95C1109.92,-278.25 1256.58,-269.72 1301,-249 1312.69,-243.55 1323.45,-234.37 1332.04,-225.49"/>
<polygon fill="black" stroke="black" points="1334.42,-228.08 1338.56,-218.32 1329.24,-223.37 1334.42,-228.08"/>
</g>
<!-- comparator::is_smaller_than -->
<g id="node20" class="node">
<title>comparator::is_smaller_than</title>
<ellipse fill="none" stroke="black" cx="1225" cy="-200" rx="66.89" ry="18"/>
<text text-anchor="middle" x="1225" y="-196.3" font-family="Times,serif" font-size="14.00">is_smaller_than</text>
</g>
<!-- simple_map::find&#45;&gt;comparator::is_smaller_than -->
<g id="edge20" class="edge">
<title>simple_map::find&#45;&gt;comparator::is_smaller_than</title>
<path fill="none" stroke="black" d="M1047.88,-277.36C1073.47,-272.26 1113.42,-262.89 1146,-249 1162.04,-242.16 1178.69,-232.48 1192.55,-223.61"/>
<polygon fill="black" stroke="black" points="1194.39,-226.58 1200.83,-218.17 1190.55,-220.73 1194.39,-226.58"/>
</g>
<!-- option::is_some&#45;&gt;vector::is_empty -->
<g id="edge21" class="edge">
<title>option::is_some&#45;&gt;vector::is_empty</title>
<path fill="none" stroke="black" d="M876.55,-99.61C885.15,-88.37 896.72,-73.25 906.51,-60.46"/>
<polygon fill="black" stroke="black" points="909.04,-62.92 912.34,-52.85 903.48,-58.66 909.04,-62.92"/>
</g>
<!-- vector::singleton -->
<g id="node21" class="node">
<title>vector::singleton</title>
<ellipse fill="none" stroke="black" cx="1030" cy="-34" rx="42.79" ry="18"/>
<text text-anchor="middle" x="1030" y="-30.3" font-family="Times,serif" font-size="14.00">singleton</text>
</g>
<!-- option::some&#45;&gt;vector::singleton -->
<g id="edge22" class="edge">
<title>option::some&#45;&gt;vector::singleton</title>
<path fill="none" stroke="black" d="M1030,-181.76C1030,-153.63 1030,-97.6 1030,-63.49"/>
<polygon fill="black" stroke="black" points="1033.5,-63.52 1030,-53.52 1026.5,-63.52 1033.5,-63.52"/>
</g>
<!-- bcs::to_bytes -->
<g id="node22" class="node">
<title>bcs::to_bytes</title>
<ellipse fill="none" stroke="black" cx="1458" cy="-117" rx="40.09" ry="18"/>
<text text-anchor="middle" x="1458" y="-113.3" font-family="Times,serif" font-size="14.00">to_bytes</text>
</g>
<!-- comparator::compare&#45;&gt;bcs::to_bytes -->
<g id="edge23" class="edge">
<title>comparator::compare&#45;&gt;bcs::to_bytes</title>
<path fill="none" stroke="black" d="M1376.86,-185.2C1386.26,-179.63 1396.88,-172.89 1406,-166 1415.71,-158.67 1425.68,-149.83 1434.27,-141.74"/>
<polygon fill="black" stroke="black" points="1436.45,-144.5 1441.24,-135.04 1431.6,-139.45 1436.45,-144.5"/>
</g>
<!-- comparator::compare_u8_vector -->
<g id="node23" class="node">
<title>comparator::compare_u8_vector</title>
<ellipse fill="none" stroke="black" cx="1313" cy="-117" rx="81.49" ry="18"/>
<text text-anchor="middle" x="1313" y="-113.3" font-family="Times,serif" font-size="14.00">compare_u8_vector</text>
</g>
<!-- comparator::compare&#45;&gt;comparator::compare_u8_vector -->
<g id="edge24" class="edge">
<title>comparator::compare&#45;&gt;comparator::compare_u8_vector</title>
<path fill="none" stroke="black" d="M1343.92,-182.22C1338.81,-171.61 1332.09,-157.65 1326.22,-145.45"/>
<polygon fill="black" stroke="black" points="1329.49,-144.18 1322,-136.68 1323.18,-147.21 1329.49,-144.18"/>
</g>
</g>
</svg>
