<?xml version="1.0" encoding="UTF-8" standalone="no"?>
<!DOCTYPE svg PUBLIC "-//W3C//DTD SVG 1.1//EN"
 "http://www.w3.org/Graphics/SVG/1.1/DTD/svg11.dtd">
<!-- Generated by graphviz version 7.0.0 (20221023.0053)
 -->
<!-- Title: G Pages: 1 -->
<svg width="1489pt" height="620pt"
 viewBox="0.00 0.00 1489.00 620.00" xmlns="http://www.w3.org/2000/svg" xmlns:xlink="http://www.w3.org/1999/xlink">
<g id="graph0" class="graph" transform="scale(1 1) rotate(0) translate(4 616)">
<title>G</title>
<polygon fill="white" stroke="none" points="-4,4 -4,-616 1485,-616 1485,4 -4,4"/>
<!-- aptos_coin -->
<g id="node1" class="node">
<title>aptos_coin</title>
<ellipse fill="none" stroke="black" cx="929" cy="-594" rx="48.99" ry="18"/>
<text text-anchor="middle" x="929" y="-590.3" font-family="Times,serif" font-size="14.00">aptos_coin</text>
</g>
<!-- vector -->
<g id="node2" class="node">
<title>vector</title>
<ellipse fill="none" stroke="black" cx="261" cy="-18" rx="32.49" ry="18"/>
<text text-anchor="middle" x="261" y="-14.3" font-family="Times,serif" font-size="14.00">vector</text>
</g>
<!-- aptos_coin&#45;&gt;vector -->
<g id="edge1" class="edge">
<title>aptos_coin&#45;&gt;vector</title>
<path fill="none" stroke="black" d="M879.76,-592.57C706.14,-590.69 129.08,-581.36 58,-540 17.19,-516.25 0,-498.21 0,-451 0,-451 0,-451 0,-161 0,-63.19 143.17,-32.37 217.44,-22.96"/>
<polygon fill="black" stroke="black" points="217.71,-26.46 227.23,-21.81 216.89,-19.5 217.71,-26.46"/>
</g>
<!-- option -->
<g id="node3" class="node">
<title>option</title>
<ellipse fill="none" stroke="black" cx="294" cy="-90" rx="33.29" ry="18"/>
<text text-anchor="middle" x="294" y="-86.3" font-family="Times,serif" font-size="14.00">option</text>
</g>
<!-- aptos_coin&#45;&gt;option -->
<g id="edge2" class="edge">
<title>aptos_coin&#45;&gt;option</title>
<path fill="none" stroke="black" d="M880.39,-591.7C741.94,-587.63 347.52,-573.35 223,-540 134.86,-516.4 38,-542.24 38,-451 38,-451 38,-451 38,-233 38,-137.24 176.68,-105.52 249.9,-95.44"/>
<polygon fill="black" stroke="black" points="250.08,-98.95 259.56,-94.2 249.19,-92 250.08,-98.95"/>
</g>
<!-- string -->
<g id="node4" class="node">
<title>string</title>
<ellipse fill="none" stroke="black" cx="225" cy="-162" rx="30.59" ry="18"/>
<text text-anchor="middle" x="225" y="-158.3" font-family="Times,serif" font-size="14.00">string</text>
</g>
<!-- aptos_coin&#45;&gt;string -->
<g id="edge3" class="edge">
<title>aptos_coin&#45;&gt;string</title>
<path fill="none" stroke="black" d="M880.05,-591.93C728.05,-587.58 268.11,-566.37 164,-468 82.5,-390.99 91.74,-310.55 152,-216 161.71,-200.76 177.5,-188.49 191.91,-179.61"/>
<polygon fill="black" stroke="black" points="193.37,-182.81 200.27,-174.77 189.86,-176.76 193.37,-182.81"/>
</g>
<!-- signer -->
<g id="node5" class="node">
<title>signer</title>
<ellipse fill="none" stroke="black" cx="884" cy="-90" rx="32.49" ry="18"/>
<text text-anchor="middle" x="884" y="-86.3" font-family="Times,serif" font-size="14.00">signer</text>
</g>
<!-- aptos_coin&#45;&gt;signer -->
<g id="edge4" class="edge">
<title>aptos_coin&#45;&gt;signer</title>
<path fill="none" stroke="black" d="M976.89,-590.02C1104.49,-580.77 1443,-547.17 1443,-451 1443,-451 1443,-451 1443,-305 1443,-194.42 1056.65,-119.8 926.33,-97.77"/>
<polygon fill="black" stroke="black" points="927.18,-94.36 916.74,-96.17 926.03,-101.27 927.18,-94.36"/>
</g>
<!-- error -->
<g id="node6" class="node">
<title>error</title>
<ellipse fill="none" stroke="black" cx="1045" cy="-90" rx="27.9" ry="18"/>
<text text-anchor="middle" x="1045" y="-86.3" font-family="Times,serif" font-size="14.00">error</text>
</g>
<!-- aptos_coin&#45;&gt;error -->
<g id="edge5" class="edge">
<title>aptos_coin&#45;&gt;error</title>
<path fill="none" stroke="black" d="M977.3,-590.66C1077.09,-585.28 1302.6,-570.1 1373,-540 1430.19,-515.55 1481,-513.2 1481,-451 1481,-451 1481,-451 1481,-233 1481,-149.84 1190.63,-107.84 1083.82,-95.2"/>
<polygon fill="black" stroke="black" points="1084.44,-91.75 1074.11,-94.08 1083.64,-98.71 1084.44,-91.75"/>
</g>
<!-- system_addresses -->
<g id="node7" class="node">
<title>system_addresses</title>
<ellipse fill="none" stroke="black" cx="1302" cy="-306" rx="73.39" ry="18"/>
<text text-anchor="middle" x="1302" y="-302.3" font-family="Times,serif" font-size="14.00">system_addresses</text>
</g>
<!-- aptos_coin&#45;&gt;system_addresses -->
<g id="edge6" class="edge">
<title>aptos_coin&#45;&gt;system_addresses</title>
<path fill="none" stroke="black" d="M965.17,-581.57C1021.28,-562.9 1131.44,-522.4 1214,-468 1253.12,-442.22 1269.74,-437.75 1291,-396 1300.46,-377.42 1303.03,-353.93 1303.34,-335.75"/>
<polygon fill="black" stroke="black" points="1306.84,-335.89 1303.26,-325.92 1299.84,-335.95 1306.84,-335.89"/>
</g>
<!-- coin -->
<g id="node8" class="node">
<title>coin</title>
<ellipse fill="none" stroke="black" cx="929" cy="-522" rx="27" ry="18"/>
<text text-anchor="middle" x="929" y="-518.3" font-family="Times,serif" font-size="14.00">coin</text>
</g>
<!-- aptos_coin&#45;&gt;coin -->
<g id="edge7" class="edge">
<title>aptos_coin&#45;&gt;coin</title>
<path fill="none" stroke="black" d="M929,-575.7C929,-568.41 929,-559.73 929,-551.54"/>
<polygon fill="black" stroke="black" points="932.5,-551.62 929,-541.62 925.5,-551.62 932.5,-551.62"/>
</g>
<!-- option&#45;&gt;vector -->
<g id="edge8" class="edge">
<title>option&#45;&gt;vector</title>
<path fill="none" stroke="black" d="M286.01,-72.05C282.32,-64.23 277.85,-54.75 273.72,-45.98"/>
<polygon fill="black" stroke="black" points="276.99,-44.71 269.56,-37.16 270.66,-47.7 276.99,-44.71"/>
</g>
<!-- string&#45;&gt;vector -->
<g id="edge9" class="edge">
<title>string&#45;&gt;vector</title>
<path fill="none" stroke="black" d="M229.34,-143.87C235.42,-119.88 246.55,-75.99 253.86,-47.16"/>
<polygon fill="black" stroke="black" points="257.21,-48.21 256.27,-37.66 250.42,-46.49 257.21,-48.21"/>
</g>
<!-- string&#45;&gt;option -->
<g id="edge10" class="edge">
<title>string&#45;&gt;option</title>
<path fill="none" stroke="black" d="M239.97,-145.81C249.1,-136.55 260.96,-124.52 271.24,-114.09"/>
<polygon fill="black" stroke="black" points="273.47,-116.82 277.99,-107.24 268.48,-111.9 273.47,-116.82"/>
</g>
<!-- system_addresses&#45;&gt;signer -->
<g id="edge11" class="edge">
<title>system_addresses&#45;&gt;signer</title>
<path fill="none" stroke="black" d="M1271.26,-289.26C1194.76,-250.1 996.27,-148.48 917.21,-108"/>
<polygon fill="black" stroke="black" points="919.15,-105.06 908.65,-103.62 915.96,-111.29 919.15,-105.06"/>
</g>
<!-- system_addresses&#45;&gt;error -->
<g id="edge12" class="edge">
<title>system_addresses&#45;&gt;error</title>
<path fill="none" stroke="black" d="M1289.84,-288.01C1266.48,-256.33 1212.47,-187.53 1154,-144 1131.08,-126.94 1101.81,-113.06 1079.38,-103.8"/>
<polygon fill="black" stroke="black" points="1080.96,-100.66 1070.37,-100.19 1078.35,-107.16 1080.96,-100.66"/>
</g>
<!-- coin&#45;&gt;option -->
<g id="edge13" class="edge">
<title>coin&#45;&gt;option</title>
<path fill="none" stroke="black" d="M901.87,-521.01C772.35,-520.8 220.95,-517.01 164,-468 54.63,-373.87 84.13,-247.19 185,-144 203.96,-124.6 231.46,-111.3 254.1,-102.88"/>
<polygon fill="black" stroke="black" points="255.06,-106.25 263.33,-99.63 252.74,-99.64 255.06,-106.25"/>
</g>
<!-- coin&#45;&gt;string -->
<g id="edge14" class="edge">
<title>coin&#45;&gt;string</title>
<path fill="none" stroke="black" d="M901.64,-520.39C823.83,-518.18 594.93,-508.44 410,-468 291.5,-442.09 152,-500.3 152,-379 152,-379 152,-379 152,-305 152,-264.55 151.52,-251.45 171,-216 177.59,-204.01 187.75,-193.01 197.49,-184.17"/>
<polygon fill="black" stroke="black" points="199.74,-186.85 205.05,-177.68 195.18,-181.54 199.74,-186.85"/>
</g>
<!-- coin&#45;&gt;signer -->
<g id="edge15" class="edge">
<title>coin&#45;&gt;signer</title>
<path fill="none" stroke="black" d="M938.46,-504.92C943.89,-494.72 950.19,-481.03 953,-468 963.13,-421.08 959.18,-407.6 953,-360 948.74,-327.18 949.72,-317.12 934,-288 930.17,-280.9 839.89,-187.53 837,-180 831.28,-165.06 831.32,-158.96 837,-144 841.39,-132.44 849.57,-121.79 857.9,-113.12"/>
<polygon fill="black" stroke="black" points="860.3,-115.66 865.05,-106.19 855.43,-110.64 860.3,-115.66"/>
</g>
<!-- coin&#45;&gt;error -->
<g id="edge16" class="edge">
<title>coin&#45;&gt;error</title>
<path fill="none" stroke="black" d="M956.3,-521.32C1057.45,-520.93 1405,-505.2 1405,-307 1405,-307 1405,-307 1405,-233 1405,-164.3 1175.27,-114.74 1082.84,-97.59"/>
<polygon fill="black" stroke="black" points="1083.72,-94.19 1073.25,-95.84 1082.46,-101.08 1083.72,-94.19"/>
</g>
<!-- coin&#45;&gt;system_addresses -->
<g id="edge18" class="edge">
<title>coin&#45;&gt;system_addresses</title>
<path fill="none" stroke="black" d="M955.68,-518.53C1000.73,-513.6 1094,-500.12 1166,-468 1216.34,-445.54 1233.07,-439.45 1267,-396 1280.98,-378.1 1290.02,-353.91 1295.4,-335.27"/>
<polygon fill="black" stroke="black" points="1298.76,-336.24 1297.96,-325.67 1292,-334.43 1298.76,-336.24"/>
</g>
<!-- type_info -->
<g id="node9" class="node">
<title>type_info</title>
<ellipse fill="none" stroke="black" cx="815" cy="-234" rx="44.39" ry="18"/>
<text text-anchor="middle" x="815" y="-230.3" font-family="Times,serif" font-size="14.00">type_info</text>
</g>
<!-- coin&#45;&gt;type_info -->
<g id="edge17" class="edge">
<title>coin&#45;&gt;type_info</title>
<path fill="none" stroke="black" d="M932.79,-503.78C940.84,-462.67 955.45,-357.09 911,-288 899.49,-270.12 879.75,-257.75 861.15,-249.49"/>
<polygon fill="black" stroke="black" points="862.68,-246.33 852.1,-245.78 860.02,-252.81 862.68,-246.33"/>
</g>
<!-- event -->
<g id="node10" class="node">
<title>event</title>
<ellipse fill="none" stroke="black" cx="248" cy="-378" rx="29.8" ry="18"/>
<text text-anchor="middle" x="248" y="-374.3" font-family="Times,serif" font-size="14.00">event</text>
</g>
<!-- coin&#45;&gt;event -->
<g id="edge19" class="edge">
<title>coin&#45;&gt;event</title>
<path fill="none" stroke="black" d="M902.18,-518.39C840.7,-512.13 685.02,-494.8 557,-468 440.06,-443.52 412.16,-431.24 298,-396 293.47,-394.6 288.72,-393.07 284.04,-391.52"/>
<polygon fill="black" stroke="black" points="285.37,-388.28 274.78,-388.41 283.14,-394.92 285.37,-388.28"/>
</g>
<!-- account -->
<g id="node11" class="node">
<title>account</title>
<ellipse fill="none" stroke="black" cx="604" cy="-450" rx="38.19" ry="18"/>
<text text-anchor="middle" x="604" y="-446.3" font-family="Times,serif" font-size="14.00">account</text>
</g>
<!-- coin&#45;&gt;account -->
<g id="edge20" class="edge">
<title>coin&#45;&gt;account</title>
<path fill="none" stroke="black" d="M903.5,-515.51C848.57,-503.68 718.46,-475.65 649.21,-460.74"/>
<polygon fill="black" stroke="black" points="650.22,-457.38 639.71,-458.69 648.75,-464.22 650.22,-457.38"/>
</g>
<!-- optional_aggregator -->
<g id="node12" class="node">
<title>optional_aggregator</title>
<ellipse fill="none" stroke="black" cx="1076" cy="-450" rx="81.49" ry="18"/>
<text text-anchor="middle" x="1076" y="-446.3" font-family="Times,serif" font-size="14.00">optional_aggregator</text>
</g>
<!-- coin&#45;&gt;optional_aggregator -->
<g id="edge21" class="edge">
<title>coin&#45;&gt;optional_aggregator</title>
<path fill="none" stroke="black" d="M950.69,-510.67C972.12,-500.46 1005.52,-484.56 1032.44,-471.74"/>
<polygon fill="black" stroke="black" points="1033.89,-474.93 1041.41,-467.47 1030.88,-468.61 1033.89,-474.93"/>
</g>
<!-- type_info&#45;&gt;string -->
<g id="edge22" class="edge">
<title>type_info&#45;&gt;string</title>
<path fill="none" stroke="black" d="M772.57,-227.97C663.44,-215.02 374.06,-180.68 266.25,-167.89"/>
<polygon fill="black" stroke="black" points="266.75,-164.43 256.41,-166.73 265.93,-171.38 266.75,-164.43"/>
</g>
<!-- type_info&#45;&gt;error -->
<g id="edge23" class="edge">
<title>type_info&#45;&gt;error</title>
<path fill="none" stroke="black" d="M846.53,-220.95C870.45,-211.25 903.75,-196.55 931,-180 964.01,-159.96 998.51,-131.87 1020.79,-112.64"/>
<polygon fill="black" stroke="black" points="1022.89,-115.45 1028.12,-106.24 1018.29,-110.18 1022.89,-115.45"/>
</g>
<!-- features -->
<g id="node13" class="node">
<title>features</title>
<ellipse fill="none" stroke="black" cx="884" cy="-162" rx="38.19" ry="18"/>
<text text-anchor="middle" x="884" y="-158.3" font-family="Times,serif" font-size="14.00">features</text>
</g>
<!-- type_info&#45;&gt;features -->
<g id="edge24" class="edge">
<title>type_info&#45;&gt;features</title>
<path fill="none" stroke="black" d="M831,-216.76C839.84,-207.8 850.97,-196.51 860.74,-186.59"/>
<polygon fill="black" stroke="black" points="862.97,-189.32 867.5,-179.74 857.98,-184.41 862.97,-189.32"/>
</g>
<!-- bcs -->
<g id="node14" class="node">
<title>bcs</title>
<ellipse fill="none" stroke="black" cx="433" cy="-234" rx="27" ry="18"/>
<text text-anchor="middle" x="433" y="-230.3" font-family="Times,serif" font-size="14.00">bcs</text>
</g>
<!-- event&#45;&gt;bcs -->
<g id="edge25" class="edge">
<title>event&#45;&gt;bcs</title>
<path fill="none" stroke="black" d="M242.18,-360.03C236.68,-340.57 231.36,-308.72 247,-288 264.84,-264.37 346.37,-248.14 395.38,-240.34"/>
<polygon fill="black" stroke="black" points="395.64,-243.84 404.99,-238.85 394.57,-236.92 395.64,-243.84"/>
</g>
<!-- guid -->
<g id="node15" class="node">
<title>guid</title>
<ellipse fill="none" stroke="black" cx="283" cy="-306" rx="27" ry="18"/>
<text text-anchor="middle" x="283" y="-302.3" font-family="Times,serif" font-size="14.00">guid</text>
</g>
<!-- event&#45;&gt;guid -->
<g id="edge26" class="edge">
<title>event&#45;&gt;guid</title>
<path fill="none" stroke="black" d="M256.29,-360.41C260.3,-352.39 265.22,-342.57 269.73,-333.54"/>
<polygon fill="black" stroke="black" points="272.75,-335.33 274.09,-324.82 266.49,-332.2 272.75,-335.33"/>
</g>
<!-- account&#45;&gt;vector -->
<g id="edge27" class="edge">
<title>account&#45;&gt;vector</title>
<path fill="none" stroke="black" d="M568.34,-443.07C520.68,-434.45 439.78,-417.15 419,-396 367.1,-343.16 376,-309.06 376,-235 376,-235 376,-235 376,-161 376,-117.63 363.57,-105.47 336,-72 324.39,-57.9 308.15,-45.81 293.75,-36.75"/>
<polygon fill="black" stroke="black" points="295.82,-33.91 285.45,-31.75 292.21,-39.91 295.82,-33.91"/>
</g>
<!-- account&#45;&gt;option -->
<g id="edge28" class="edge">
<title>account&#45;&gt;option</title>
<path fill="none" stroke="black" d="M566,-446.71C471.6,-440.62 232.35,-422.69 209,-396 187.99,-371.98 225.77,-298.49 233,-288 247.34,-267.2 264.99,-274.23 277,-252 299.6,-210.15 299.75,-153.28 297.25,-119.53"/>
<polygon fill="black" stroke="black" points="300.75,-119.38 296.39,-109.72 293.78,-119.99 300.75,-119.38"/>
</g>
<!-- account&#45;&gt;signer -->
<g id="edge29" class="edge">
<title>account&#45;&gt;signer</title>
<path fill="none" stroke="black" d="M630.61,-436.63C670.71,-415.94 742,-370.25 742,-307 742,-307 742,-307 742,-233 742,-192.03 739.42,-175.17 766,-144 785.61,-121 817.21,-107.54 842.78,-99.94"/>
<polygon fill="black" stroke="black" points="843.51,-103.37 852.22,-97.34 841.65,-96.62 843.51,-103.37"/>
</g>
<!-- account&#45;&gt;error -->
<g id="edge30" class="edge">
<title>account&#45;&gt;error</title>
<path fill="none" stroke="black" d="M641.52,-446.26C680.36,-441.64 740.85,-429.25 781,-396 822.64,-361.51 802.85,-329.92 837,-288 885.09,-228.96 915.67,-233.35 970,-180 990.75,-159.63 1011.87,-134.03 1026.39,-115.53"/>
<polygon fill="black" stroke="black" points="1029.05,-117.8 1032.42,-107.76 1023.52,-113.51 1029.05,-117.8"/>
</g>
<!-- account&#45;&gt;system_addresses -->
<g id="edge33" class="edge">
<title>account&#45;&gt;system_addresses</title>
<path fill="none" stroke="black" d="M641.97,-447.59C770.2,-442.59 1182.08,-424.44 1234,-396 1258.98,-382.32 1277.63,-355.16 1289.03,-334.42"/>
<polygon fill="black" stroke="black" points="1292.1,-336.1 1293.62,-325.61 1285.89,-332.86 1292.1,-336.1"/>
</g>
<!-- account&#45;&gt;type_info -->
<g id="edge31" class="edge">
<title>account&#45;&gt;type_info</title>
<path fill="none" stroke="black" d="M641.24,-445.06C675.28,-439.57 724.93,-426.58 756,-396 775.21,-377.09 796.77,-304.35 807.74,-263.41"/>
<polygon fill="black" stroke="black" points="811.12,-264.33 810.28,-253.76 804.35,-262.54 811.12,-264.33"/>
</g>
<!-- account&#45;&gt;event -->
<g id="edge40" class="edge">
<title>account&#45;&gt;event</title>
<path fill="none" stroke="black" d="M566.97,-445.14C508.01,-438.46 389.47,-422.82 292,-396 288.89,-395.14 285.7,-394.15 282.52,-393.08"/>
<polygon fill="black" stroke="black" points="283.93,-389.87 273.34,-389.75 281.55,-396.45 283.93,-389.87"/>
</g>
<!-- account&#45;&gt;bcs -->
<g id="edge35" class="edge">
<title>account&#45;&gt;bcs</title>
<path fill="none" stroke="black" d="M568.93,-442.59C525.36,-433.85 454.81,-416.86 439,-396 409.85,-357.55 417.26,-297.82 425.2,-262.94"/>
<polygon fill="black" stroke="black" points="428.5,-264.15 427.49,-253.6 421.71,-262.48 428.5,-264.15"/>
</g>
<!-- account&#45;&gt;guid -->
<g id="edge38" class="edge">
<title>account&#45;&gt;guid</title>
<path fill="none" stroke="black" d="M566.39,-445.74C500.35,-439.37 367.02,-423.45 330,-396 309.84,-381.05 297.51,-354.87 290.57,-334.76"/>
<polygon fill="black" stroke="black" points="293.98,-333.95 287.62,-325.48 287.31,-336.07 293.98,-333.95"/>
</g>
<!-- table -->
<g id="node16" class="node">
<title>table</title>
<ellipse fill="none" stroke="black" cx="874" cy="-306" rx="27.9" ry="18"/>
<text text-anchor="middle" x="874" y="-302.3" font-family="Times,serif" font-size="14.00">table</text>
</g>
<!-- account&#45;&gt;table -->
<g id="edge32" class="edge">
<title>account&#45;&gt;table</title>
<path fill="none" stroke="black" d="M642.68,-449.83C691.91,-448.89 777.14,-440.29 832,-396 850.89,-380.75 861.75,-355 867.68,-335.12"/>
<polygon fill="black" stroke="black" points="871,-336.23 870.22,-325.67 864.24,-334.41 871,-336.23"/>
</g>
<!-- hash -->
<g id="node17" class="node">
<title>hash</title>
<ellipse fill="none" stroke="black" cx="583" cy="-234" rx="27" ry="18"/>
<text text-anchor="middle" x="583" y="-230.3" font-family="Times,serif" font-size="14.00">hash</text>
</g>
<!-- account&#45;&gt;hash -->
<g id="edge34" class="edge">
<title>account&#45;&gt;hash</title>
<path fill="none" stroke="black" d="M602.32,-431.85C598.72,-395.14 590.23,-308.66 585.8,-263.53"/>
<polygon fill="black" stroke="black" points="589.3,-263.35 584.84,-253.74 582.33,-264.03 589.3,-263.35"/>
</g>
<!-- ed25519 -->
<g id="node18" class="node">
<title>ed25519</title>
<ellipse fill="none" stroke="black" cx="673" cy="-306" rx="40.89" ry="18"/>
<text text-anchor="middle" x="673" y="-302.3" font-family="Times,serif" font-size="14.00">ed25519</text>
</g>
<!-- account&#45;&gt;ed25519 -->
<g id="edge36" class="edge">
<title>account&#45;&gt;ed25519</title>
<path fill="none" stroke="black" d="M612.19,-432.15C623.96,-407.92 645.81,-362.96 659.86,-334.05"/>
<polygon fill="black" stroke="black" points="662.94,-335.71 664.16,-325.19 656.64,-332.65 662.94,-335.71"/>
</g>
<!-- multi_ed25519 -->
<g id="node19" class="node">
<title>multi_ed25519</title>
<ellipse fill="none" stroke="black" cx="512" cy="-378" rx="64.19" ry="18"/>
<text text-anchor="middle" x="512" y="-374.3" font-family="Times,serif" font-size="14.00">multi_ed25519</text>
</g>
<!-- account&#45;&gt;multi_ed25519 -->
<g id="edge37" class="edge">
<title>account&#45;&gt;multi_ed25519</title>
<path fill="none" stroke="black" d="M584.49,-434.15C572.32,-424.89 556.39,-412.78 542.57,-402.26"/>
<polygon fill="black" stroke="black" points="544.69,-399.48 534.61,-396.21 540.45,-405.05 544.69,-399.48"/>
</g>
<!-- from_bcs -->
<g id="node20" class="node">
<title>from_bcs</title>
<ellipse fill="none" stroke="black" cx="224" cy="-234" rx="44.39" ry="18"/>
<text text-anchor="middle" x="224" y="-230.3" font-family="Times,serif" font-size="14.00">from_bcs</text>
</g>
<!-- account&#45;&gt;from_bcs -->
<g id="edge39" class="edge">
<title>account&#45;&gt;from_bcs</title>
<path fill="none" stroke="black" d="M568.6,-442.85C506.62,-431.81 383.51,-408.62 368,-396 327.11,-362.74 354.69,-326.78 319,-288 304.57,-272.32 284.4,-260.16 266.35,-251.47"/>
<polygon fill="black" stroke="black" points="267.96,-248.36 257.41,-247.38 265.05,-254.72 267.96,-248.36"/>
</g>
<!-- optional_aggregator&#45;&gt;option -->
<g id="edge41" class="edge">
<title>optional_aggregator&#45;&gt;option</title>
<path fill="none" stroke="black" d="M1066.15,-431.93C1040,-388.3 964.25,-272.16 868,-216 691.75,-113.16 440.38,-94.72 338.97,-91.57"/>
<polygon fill="black" stroke="black" points="339.25,-88.07 329.16,-91.3 339.06,-95.07 339.25,-88.07"/>
</g>
<!-- optional_aggregator&#45;&gt;error -->
<g id="edge42" class="edge">
<title>optional_aggregator&#45;&gt;error</title>
<path fill="none" stroke="black" d="M1070.57,-432C1067.51,-421.7 1063.93,-408.22 1062,-396 1046.08,-295.41 1044.48,-174.1 1044.67,-119.76"/>
<polygon fill="black" stroke="black" points="1048.17,-119.86 1044.73,-109.84 1041.17,-119.82 1048.17,-119.86"/>
</g>
<!-- aggregator -->
<g id="node21" class="node">
<title>aggregator</title>
<ellipse fill="none" stroke="black" cx="1162" cy="-306" rx="48.19" ry="18"/>
<text text-anchor="middle" x="1162" y="-302.3" font-family="Times,serif" font-size="14.00">aggregator</text>
</g>
<!-- optional_aggregator&#45;&gt;aggregator -->
<g id="edge43" class="edge">
<title>optional_aggregator&#45;&gt;aggregator</title>
<path fill="none" stroke="black" d="M1150.95,-442.71C1181.89,-435.98 1214.91,-422.54 1234,-396 1243.34,-383.01 1241.22,-374.28 1234,-360 1226.91,-345.98 1214.18,-334.76 1201.37,-326.32"/>
<polygon fill="black" stroke="black" points="1203.3,-323.4 1192.94,-321.2 1199.66,-329.38 1203.3,-323.4"/>
</g>
<!-- aggregator_factory -->
<g id="node22" class="node">
<title>aggregator_factory</title>
<ellipse fill="none" stroke="black" cx="1148" cy="-378" rx="77.19" ry="18"/>
<text text-anchor="middle" x="1148" y="-374.3" font-family="Times,serif" font-size="14.00">aggregator_factory</text>
</g>
<!-- optional_aggregator&#45;&gt;aggregator_factory -->
<g id="edge44" class="edge">
<title>optional_aggregator&#45;&gt;aggregator_factory</title>
<path fill="none" stroke="black" d="M1093.43,-432.05C1102.18,-423.54 1112.96,-413.07 1122.61,-403.68"/>
<polygon fill="black" stroke="black" points="1124.92,-406.32 1129.65,-396.84 1120.04,-401.31 1124.92,-406.32"/>
</g>
<!-- features&#45;&gt;signer -->
<g id="edge45" class="edge">
<title>features&#45;&gt;signer</title>
<path fill="none" stroke="black" d="M884,-143.7C884,-136.41 884,-127.73 884,-119.54"/>
<polygon fill="black" stroke="black" points="887.5,-119.62 884,-109.62 880.5,-119.62 887.5,-119.62"/>
</g>
<!-- features&#45;&gt;error -->
<g id="edge46" class="edge">
<title>features&#45;&gt;error</title>
<path fill="none" stroke="black" d="M911.31,-149.13C939.12,-137.04 982.25,-118.28 1011.96,-105.36"/>
<polygon fill="black" stroke="black" points="1013.08,-108.69 1020.86,-101.5 1010.29,-102.27 1013.08,-108.69"/>
</g>
<!-- ed25519&#45;&gt;option -->
<g id="edge47" class="edge">
<title>ed25519&#45;&gt;option</title>
<path fill="none" stroke="black" d="M665.64,-288C656.71,-268.82 640.19,-237.49 619,-216 540.76,-136.65 406.68,-106.76 337.75,-96.25"/>
<polygon fill="black" stroke="black" points="338.36,-92.8 327.96,-94.83 337.36,-99.73 338.36,-92.8"/>
</g>
<!-- ed25519&#45;&gt;error -->
<g id="edge48" class="edge">
<title>ed25519&#45;&gt;error</title>
<path fill="none" stroke="black" d="M684.91,-288.37C709.44,-255.43 768.99,-181.79 837,-144 891.15,-113.9 962.7,-100.54 1006.2,-94.88"/>
<polygon fill="black" stroke="black" points="1006.42,-98.38 1015.92,-93.69 1005.57,-91.43 1006.42,-98.38"/>
</g>
<!-- ed25519&#45;&gt;type_info -->
<g id="edge49" class="edge">
<title>ed25519&#45;&gt;type_info</title>
<path fill="none" stroke="black" d="M699.38,-292C721.41,-281.13 753.09,-265.52 777.72,-253.38"/>
<polygon fill="black" stroke="black" points="779.02,-256.64 786.44,-249.08 775.92,-250.36 779.02,-256.64"/>
</g>
<!-- ed25519&#45;&gt;bcs -->
<g id="edge51" class="edge">
<title>ed25519&#45;&gt;bcs</title>
<path fill="none" stroke="black" d="M639.63,-295.27C594.51,-282.11 514.4,-258.74 468.31,-245.3"/>
<polygon fill="black" stroke="black" points="469.39,-241.97 458.81,-242.53 467.43,-248.69 469.39,-241.97"/>
</g>
<!-- ed25519&#45;&gt;hash -->
<g id="edge50" class="edge">
<title>ed25519&#45;&gt;hash</title>
<path fill="none" stroke="black" d="M653.47,-289.81C640.41,-279.65 623.08,-266.17 608.87,-255.12"/>
<polygon fill="black" stroke="black" points="611.3,-252.58 601.26,-249.2 607,-258.1 611.3,-252.58"/>
</g>
<!-- multi_ed25519&#45;&gt;option -->
<g id="edge52" class="edge">
<title>multi_ed25519&#45;&gt;option</title>
<path fill="none" stroke="black" d="M511.18,-359.92C508.91,-328.69 500.46,-261.43 469,-216 433.46,-164.69 369.71,-127.09 329.75,-107.17"/>
<polygon fill="black" stroke="black" points="331.28,-104.03 320.76,-102.8 328.23,-110.32 331.28,-104.03"/>
</g>
<!-- multi_ed25519&#45;&gt;error -->
<g id="edge53" class="edge">
<title>multi_ed25519&#45;&gt;error</title>
<path fill="none" stroke="black" d="M513.57,-359.72C517.27,-322.61 527.73,-236.95 547,-216 620.96,-135.61 676.11,-170.82 782,-144 861.17,-123.95 955.27,-106.5 1006.71,-97.5"/>
<polygon fill="black" stroke="black" points="1007.18,-100.97 1016.43,-95.81 1005.98,-94.07 1007.18,-100.97"/>
</g>
<!-- multi_ed25519&#45;&gt;bcs -->
<g id="edge55" class="edge">
<title>multi_ed25519&#45;&gt;bcs</title>
<path fill="none" stroke="black" d="M499.67,-360.22C492.4,-350 483.23,-336.52 476,-324 464.35,-303.81 452.96,-280 444.83,-262.08"/>
<polygon fill="black" stroke="black" points="448.12,-260.86 440.84,-253.16 441.73,-263.72 448.12,-260.86"/>
</g>
<!-- multi_ed25519&#45;&gt;hash -->
<g id="edge54" class="edge">
<title>multi_ed25519&#45;&gt;hash</title>
<path fill="none" stroke="black" d="M522.09,-360.01C528.1,-349.71 535.73,-336.23 542,-324 552.48,-303.53 563.33,-279.87 571.23,-262.09"/>
<polygon fill="black" stroke="black" points="574.41,-263.55 575.24,-252.99 568,-260.72 574.41,-263.55"/>
</g>
<!-- multi_ed25519&#45;&gt;ed25519 -->
<g id="edge56" class="edge">
<title>multi_ed25519&#45;&gt;ed25519</title>
<path fill="none" stroke="black" d="M545.75,-362.33C571.64,-351.07 607.39,-335.53 634.41,-323.78"/>
<polygon fill="black" stroke="black" points="635.5,-327.12 643.28,-319.92 632.71,-320.7 635.5,-327.12"/>
</g>
<!-- from_bcs&#45;&gt;string -->
<g id="edge57" class="edge">
<title>from_bcs&#45;&gt;string</title>
<path fill="none" stroke="black" d="M224.25,-215.7C224.35,-208.41 224.48,-199.73 224.59,-191.54"/>
<polygon fill="black" stroke="black" points="228.09,-191.67 224.73,-181.62 221.09,-191.57 228.09,-191.67"/>
</g>
<!-- aggregator_factory&#45;&gt;error -->
<g id="edge58" class="edge">
<title>aggregator_factory&#45;&gt;error</title>
<path fill="none" stroke="black" d="M1130.66,-360.45C1121.53,-350.71 1111.02,-337.66 1105,-324 1072.37,-249.98 1105.96,-219.91 1078,-144 1074.39,-134.2 1068.83,-124.28 1063.29,-115.7"/>
<polygon fill="black" stroke="black" points="1066.29,-113.9 1057.77,-107.6 1060.51,-117.84 1066.29,-113.9"/>
</g>
<!-- aggregator_factory&#45;&gt;system_addresses -->
<g id="edge60" class="edge">
<title>aggregator_factory&#45;&gt;system_addresses</title>
<path fill="none" stroke="black" d="M1182.18,-361.46C1204.49,-351.32 1233.82,-337.99 1257.89,-327.05"/>
<polygon fill="black" stroke="black" points="1259.15,-330.32 1266.81,-323 1256.25,-323.95 1259.15,-330.32"/>
</g>
<!-- aggregator_factory&#45;&gt;table -->
<g id="edge59" class="edge">
<title>aggregator_factory&#45;&gt;table</title>
<path fill="none" stroke="black" d="M1097.42,-364.08C1043.28,-350.25 958.71,-328.64 910.64,-316.36"/>
<polygon fill="black" stroke="black" points="911.55,-312.98 901,-313.9 909.82,-319.76 911.55,-312.98"/>
</g>
<!-- aggregator_factory&#45;&gt;aggregator -->
<g id="edge61" class="edge">
<title>aggregator_factory&#45;&gt;aggregator</title>
<path fill="none" stroke="black" d="M1151.46,-359.7C1152.94,-352.32 1154.7,-343.52 1156.35,-335.25"/>
<polygon fill="black" stroke="black" points="1159.75,-336.08 1158.28,-325.59 1152.89,-334.71 1159.75,-336.08"/>
</g>
</g>
</svg>
