<?xml version="1.0" encoding="UTF-8" standalone="no"?>
<!DOCTYPE svg PUBLIC "-//W3C//DTD SVG 1.1//EN"
 "http://www.w3.org/Graphics/SVG/1.1/DTD/svg11.dtd">
<!-- Generated by graphviz version 7.0.0 (20221023.0053)
 -->
<!-- Title: G Pages: 1 -->
<svg width="212pt" height="116pt"
 viewBox="0.00 0.00 212.29 116.00" xmlns="http://www.w3.org/2000/svg" xmlns:xlink="http://www.w3.org/1999/xlink">
<g id="graph0" class="graph" transform="scale(1 1) rotate(0) translate(4 112)">
<title>G</title>
<polygon fill="white" stroke="none" points="-4,4 -4,-112 208.29,-112 208.29,4 -4,4"/>
<!-- get_voting_power -->
<g id="node1" class="node">
<title>get_voting_power</title>
<ellipse fill="none" stroke="black" cx="121.29" cy="-18" rx="74.99" ry="18"/>
<text text-anchor="middle" x="121.29" y="-14.3" font-family="Times,serif" font-size="14.00">get_voting_power</text>
</g>
<!-- create_proposal -->
<g id="node2" class="node">
<title>create_proposal</title>
<ellipse fill="none" stroke="black" cx="66.29" cy="-90" rx="66.09" ry="18"/>
<text text-anchor="middle" x="66.29" y="-86.3" font-family="Times,serif" font-size="14.00">create_proposal</text>
</g>
<!-- create_proposal&#45;&gt;get_voting_power -->
<g id="edge1" class="edge">
<title>create_proposal&#45;&gt;get_voting_power</title>
<path fill="none" stroke="black" d="M79.61,-72.05C86.03,-63.89 93.86,-53.91 101,-44.82"/>
<polygon fill="black" stroke="black" points="103.74,-47 107.17,-36.98 98.24,-42.68 103.74,-47"/>
</g>
<!-- vote -->
<g id="node3" class="node">
<title>vote</title>
<ellipse fill="none" stroke="black" cx="177.29" cy="-90" rx="27" ry="18"/>
<text text-anchor="middle" x="177.29" y="-86.3" font-family="Times,serif" font-size="14.00">vote</text>
</g>
<!-- vote&#45;&gt;get_voting_power -->
<g id="edge2" class="edge">
<title>vote&#45;&gt;get_voting_power</title>
<path fill="none" stroke="black" d="M165.14,-73.81C158.41,-65.4 149.87,-54.72 142.11,-45.02"/>
<polygon fill="black" stroke="black" points="144.92,-42.93 135.94,-37.31 139.45,-47.3 144.92,-42.93"/>
</g>
</g>
</svg>
