<?xml version="1.0" encoding="UTF-8" standalone="no"?>
<!DOCTYPE svg PUBLIC "-//W3C//DTD SVG 1.1//EN"
 "http://www.w3.org/Graphics/SVG/1.1/DTD/svg11.dtd">
<!-- Generated by graphviz version 7.0.0 (20221023.0053)
 -->
<!-- Title: G Pages: 1 -->
<svg width="2391pt" height="686pt"
 viewBox="0.00 0.00 2391.24 686.00" xmlns="http://www.w3.org/2000/svg" xmlns:xlink="http://www.w3.org/1999/xlink">
<g id="graph0" class="graph" transform="scale(1 1) rotate(0) translate(4 682)">
<title>G</title>
<polygon fill="white" stroke="none" points="-4,4 -4,-682 2387.24,-682 2387.24,4 -4,4"/>
<g id="clust1" class="cluster">
<title>cluster_voting</title>
<polygon fill="none" stroke="black" points="692,-246 692,-562 1090,-562 1090,-246 692,-246"/>
<text text-anchor="middle" x="891" y="-546.8" font-family="Times,serif" font-size="14.00">voting</text>
</g>
<g id="clust2" class="cluster">
<title>cluster_option</title>
<polygon fill="none" stroke="black" points="1654,-91 1654,-238 1981,-238 1981,-91 1654,-91"/>
<text text-anchor="middle" x="1817.5" y="-222.8" font-family="Times,serif" font-size="14.00">option</text>
</g>
<g id="clust3" class="cluster">
<title>cluster_string</title>
<polygon fill="none" stroke="black" points="1098,-329 1098,-487 1276,-487 1276,-329 1098,-329"/>
<text text-anchor="middle" x="1187" y="-471.8" font-family="Times,serif" font-size="14.00">string</text>
</g>
<g id="clust4" class="cluster">
<title>cluster_error</title>
<polygon fill="none" stroke="black" points="1284,-246 1284,-404 1576,-404 1576,-246 1284,-246"/>
<text text-anchor="middle" x="1430" y="-388.8" font-family="Times,serif" font-size="14.00">error</text>
</g>
<g id="clust5" class="cluster">
<title>cluster_table</title>
<polygon fill="none" stroke="black" points="174,-163 174,-321 460,-321 460,-163 174,-163"/>
<text text-anchor="middle" x="317" y="-305.8" font-family="Times,serif" font-size="14.00">table</text>
</g>
<g id="clust6" class="cluster">
<title>cluster_from_bcs</title>
<polygon fill="none" stroke="black" points="264,-329 264,-487 382,-487 382,-329 264,-329"/>
<text text-anchor="middle" x="323" y="-471.8" font-family="Times,serif" font-size="14.00">from_bcs</text>
</g>
<g id="clust7" class="cluster">
<title>cluster_event</title>
<polygon fill="none" stroke="black" points="468,-163 468,-321 654,-321 654,-163 468,-163"/>
<text text-anchor="middle" x="561" y="-305.8" font-family="Times,serif" font-size="14.00">event</text>
</g>
<g id="clust9" class="cluster">
<title>cluster_timestamp</title>
<polygon fill="none" stroke="black" points="683,-91 683,-238 857,-238 857,-91 683,-91"/>
<text text-anchor="middle" x="770" y="-222.8" font-family="Times,serif" font-size="14.00">timestamp</text>
</g>
<g id="clust10" class="cluster">
<title>cluster_simple_map</title>
<polygon fill="none" stroke="black" points="1652,-329 1652,-487 1966,-487 1966,-329 1652,-329"/>
<text text-anchor="middle" x="1809" y="-471.8" font-family="Times,serif" font-size="14.00">simple_map</text>
</g>
<g id="clust11" class="cluster">
<title>cluster_account</title>
<polygon fill="none" stroke="black" points="8,-329 8,-487 256,-487 256,-329 8,-329"/>
<text text-anchor="middle" x="132" y="-471.8" font-family="Times,serif" font-size="14.00">account</text>
</g>
<g id="clust12" class="cluster">
<title>cluster_bcs</title>
<polygon fill="none" stroke="black" points="1989,-163 1989,-238 2085,-238 2085,-163 1989,-163"/>
<text text-anchor="middle" x="2037" y="-222.8" font-family="Times,serif" font-size="14.00">bcs</text>
</g>
<g id="clust13" class="cluster">
<title>cluster_vector</title>
<polygon fill="none" stroke="black" points="1666,-8 1666,-83 1873,-83 1873,-8 1666,-8"/>
<text text-anchor="middle" x="1769.5" y="-67.8" font-family="Times,serif" font-size="14.00">vector</text>
</g>
<g id="clust14" class="cluster">
<title>cluster_comparator</title>
<polygon fill="none" stroke="black" points="2093,-163 2093,-321 2345,-321 2345,-163 2093,-163"/>
<text text-anchor="middle" x="2219" y="-305.8" font-family="Times,serif" font-size="14.00">comparator</text>
</g>
<g id="clust8" class="cluster">
<title>cluster_transaction_context</title>
<polygon fill="none" stroke="black" points="536,-412 536,-487 684,-487 684,-412 536,-412"/>
<text text-anchor="middle" x="610" y="-471.8" font-family="Times,serif" font-size="14.00">transaction_context</text>
</g>
<!-- resolve -->
<g id="node1" class="node">
<title>resolve</title>
<ellipse fill="none" stroke="black" cx="905" cy="-660" rx="36.29" ry="18"/>
<text text-anchor="middle" x="905" y="-656.3" font-family="Times,serif" font-size="14.00">resolve</text>
</g>
<!-- voting::resolve -->
<g id="node2" class="node">
<title>voting::resolve</title>
<ellipse fill="none" stroke="black" cx="905" cy="-513" rx="36.29" ry="18"/>
<text text-anchor="middle" x="905" y="-509.3" font-family="Times,serif" font-size="14.00">resolve</text>
</g>
<!-- resolve&#45;&gt;voting::resolve -->
<g id="edge1" class="edge">
<title>resolve&#45;&gt;voting::resolve</title>
<path fill="none" stroke="black" d="M905,-641.51C905,-616.88 905,-571.71 905,-542.28"/>
<polygon fill="black" stroke="black" points="908.5,-542.62 905,-532.62 901.5,-542.62 908.5,-542.62"/>
</g>
<!-- get_signer -->
<g id="node3" class="node">
<title>get_signer</title>
<ellipse fill="none" stroke="black" cx="637" cy="-513" rx="47.39" ry="18"/>
<text text-anchor="middle" x="637" y="-509.3" font-family="Times,serif" font-size="14.00">get_signer</text>
</g>
<!-- resolve&#45;&gt;get_signer -->
<g id="edge2" class="edge">
<title>resolve&#45;&gt;get_signer</title>
<path fill="none" stroke="black" d="M875.32,-649.32C831.98,-634.41 749.82,-603.19 688,-562 677.83,-555.22 667.79,-546.37 659.34,-538.12"/>
<polygon fill="black" stroke="black" points="662.05,-535.89 652.53,-531.23 657.07,-540.81 662.05,-535.89"/>
</g>
<!-- remove_approved_hash -->
<g id="node4" class="node">
<title>remove_approved_hash</title>
<ellipse fill="none" stroke="black" cx="1632" cy="-588" rx="94.78" ry="18"/>
<text text-anchor="middle" x="1632" y="-584.3" font-family="Times,serif" font-size="14.00">remove_approved_hash</text>
</g>
<!-- resolve&#45;&gt;remove_approved_hash -->
<g id="edge3" class="edge">
<title>resolve&#45;&gt;remove_approved_hash</title>
<path fill="none" stroke="black" d="M940.56,-655.58C1048.44,-645.19 1374.56,-613.79 1537.39,-598.11"/>
<polygon fill="black" stroke="black" points="1537.7,-601.6 1547.32,-597.15 1537.03,-594.63 1537.7,-601.6"/>
</g>
<!-- option::extract -->
<g id="node5" class="node">
<title>option::extract</title>
<ellipse fill="none" stroke="black" cx="1787" cy="-189" rx="34.39" ry="18"/>
<text text-anchor="middle" x="1787" y="-185.3" font-family="Times,serif" font-size="14.00">extract</text>
</g>
<!-- voting::resolve&#45;&gt;option::extract -->
<g id="edge4" class="edge">
<title>voting::resolve&#45;&gt;option::extract</title>
<path fill="none" stroke="black" d="M941.61,-511.84C1039.67,-511.13 1306.55,-507.33 1392,-487 1480.86,-465.86 1505.93,-457.44 1580,-404 1616.49,-377.67 1616.62,-361.25 1648,-329 1668.39,-308.05 1722.56,-258.9 1743,-238 1750.55,-230.29 1758.58,-221.65 1765.7,-213.85"/>
<polygon fill="black" stroke="black" points="1767.85,-216.69 1771.97,-206.92 1762.66,-211.99 1767.85,-216.69"/>
</g>
<!-- string::utf8 -->
<g id="node6" class="node">
<title>string::utf8</title>
<ellipse fill="none" stroke="black" cx="1160" cy="-438" rx="27" ry="18"/>
<text text-anchor="middle" x="1160" y="-434.3" font-family="Times,serif" font-size="14.00">utf8</text>
</g>
<!-- voting::resolve&#45;&gt;string::utf8 -->
<g id="edge5" class="edge">
<title>voting::resolve&#45;&gt;string::utf8</title>
<path fill="none" stroke="black" d="M941.51,-512.43C980.59,-511.71 1043.75,-507.08 1094,-487 1109.36,-480.86 1124.45,-470.33 1136.3,-460.7"/>
<polygon fill="black" stroke="black" points="1138.55,-463.38 1143.91,-454.25 1134.02,-458.04 1138.55,-463.38"/>
</g>
<!-- error::invalid_argument -->
<g id="node7" class="node">
<title>error::invalid_argument</title>
<ellipse fill="none" stroke="black" cx="1495" cy="-355" rx="73.39" ry="18"/>
<text text-anchor="middle" x="1495" y="-351.3" font-family="Times,serif" font-size="14.00">invalid_argument</text>
</g>
<!-- voting::resolve&#45;&gt;error::invalid_argument -->
<g id="edge6" class="edge">
<title>voting::resolve&#45;&gt;error::invalid_argument</title>
<path fill="none" stroke="black" d="M941.5,-512.47C1029.48,-513.17 1251.04,-512.28 1320,-487 1381.88,-464.31 1440.34,-412.12 1471.54,-380.89"/>
<polygon fill="black" stroke="black" points="1474.03,-383.35 1478.54,-373.76 1469.04,-378.45 1474.03,-383.35"/>
</g>
<!-- error::invalid_state -->
<g id="node8" class="node">
<title>error::invalid_state</title>
<ellipse fill="none" stroke="black" cx="1348" cy="-355" rx="55.79" ry="18"/>
<text text-anchor="middle" x="1348" y="-351.3" font-family="Times,serif" font-size="14.00">invalid_state</text>
</g>
<!-- voting::resolve&#45;&gt;error::invalid_state -->
<g id="edge7" class="edge">
<title>voting::resolve&#45;&gt;error::invalid_state</title>
<path fill="none" stroke="black" d="M941.36,-511.58C1030.01,-510.29 1252.12,-505.24 1280,-487 1315.75,-463.62 1333.77,-415.14 1342,-384.16"/>
<polygon fill="black" stroke="black" points="1345.34,-385.25 1344.33,-374.71 1338.54,-383.58 1345.34,-385.25"/>
</g>
<!-- table::borrow_mut -->
<g id="node9" class="node">
<title>table::borrow_mut</title>
<ellipse fill="none" stroke="black" cx="307" cy="-272" rx="54.69" ry="18"/>
<text text-anchor="middle" x="307" y="-268.3" font-family="Times,serif" font-size="14.00">borrow_mut</text>
</g>
<!-- voting::resolve&#45;&gt;table::borrow_mut -->
<g id="edge8" class="edge">
<title>voting::resolve&#45;&gt;table::borrow_mut</title>
<path fill="none" stroke="black" d="M875.62,-501.92C866.27,-499.14 855.8,-496.49 846,-495 825.78,-491.92 494.99,-498.38 478,-487 414.34,-444.34 468.42,-377.38 409,-329 395.62,-318.1 386.72,-328.12 371,-321 357.46,-314.86 344.05,-305.47 333.04,-296.61"/>
<polygon fill="black" stroke="black" points="335.47,-294.08 325.56,-290.35 330.98,-299.45 335.47,-294.08"/>
</g>
<!-- from_bcs::to_u64 -->
<g id="node10" class="node">
<title>from_bcs::to_u64</title>
<ellipse fill="none" stroke="black" cx="331" cy="-438" rx="35.19" ry="18"/>
<text text-anchor="middle" x="331" y="-434.3" font-family="Times,serif" font-size="14.00">to_u64</text>
</g>
<!-- voting::resolve&#45;&gt;from_bcs::to_u64 -->
<g id="edge9" class="edge">
<title>voting::resolve&#45;&gt;from_bcs::to_u64</title>
<path fill="none" stroke="black" d="M875.62,-501.9C866.27,-499.13 855.8,-496.48 846,-495 799.85,-488.03 471.3,-498.25 426,-487 403.11,-481.31 379.42,-469.36 361.43,-458.81"/>
<polygon fill="black" stroke="black" points="363.46,-455.95 353.1,-453.76 359.83,-461.94 363.46,-455.95"/>
</g>
<!-- event::emit_event -->
<g id="node11" class="node">
<title>event::emit_event</title>
<ellipse fill="none" stroke="black" cx="561" cy="-272" rx="50.09" ry="18"/>
<text text-anchor="middle" x="561" y="-268.3" font-family="Times,serif" font-size="14.00">emit_event</text>
</g>
<!-- voting::resolve&#45;&gt;event::emit_event -->
<g id="edge10" class="edge">
<title>voting::resolve&#45;&gt;event::emit_event</title>
<path fill="none" stroke="black" d="M875.62,-501.92C866.27,-499.15 855.8,-496.5 846,-495 836.55,-493.55 508.68,-493.84 502,-487 451.06,-434.87 507.59,-342.97 540.6,-298.51"/>
<polygon fill="black" stroke="black" points="543.25,-300.81 546.51,-290.73 537.67,-296.57 543.25,-300.81"/>
</g>
<!-- transaction_context::get_script_hash -->
<g id="node12" class="node">
<title>transaction_context::get_script_hash</title>
<ellipse fill="none" stroke="black" cx="610" cy="-438" rx="65.79" ry="18"/>
<text text-anchor="middle" x="610" y="-434.3" font-family="Times,serif" font-size="14.00">get_script_hash</text>
</g>
<!-- voting::resolve&#45;&gt;transaction_context::get_script_hash -->
<g id="edge11" class="edge">
<title>voting::resolve&#45;&gt;transaction_context::get_script_hash</title>
<path fill="none" stroke="black" d="M875.59,-502.09C866.24,-499.32 855.78,-496.63 846,-495 811.32,-489.21 721.57,-497.43 688,-487 670.73,-481.64 653.4,-471.56 639.49,-462.02"/>
<polygon fill="black" stroke="black" points="641.84,-459.4 631.67,-456.45 637.78,-465.1 641.84,-459.4"/>
</g>
<!-- timestamp::now_seconds -->
<g id="node13" class="node">
<title>timestamp::now_seconds</title>
<ellipse fill="none" stroke="black" cx="770" cy="-189" rx="57.69" ry="18"/>
<text text-anchor="middle" x="770" y="-185.3" font-family="Times,serif" font-size="14.00">now_seconds</text>
</g>
<!-- voting::resolve&#45;&gt;timestamp::now_seconds -->
<g id="edge12" class="edge">
<title>voting::resolve&#45;&gt;timestamp::now_seconds</title>
<path fill="none" stroke="black" d="M875.62,-501.94C866.26,-499.17 855.8,-496.51 846,-495 828.75,-492.34 544.18,-499.5 532,-487 508.73,-463.13 516.82,-441.68 532,-412 563.45,-350.5 614.57,-374.72 658,-321 680.9,-292.68 667.98,-274.22 691,-246 702.23,-232.24 717.64,-220.3 731.87,-211.02"/>
<polygon fill="black" stroke="black" points="733.55,-214.1 740.18,-205.84 729.85,-208.16 733.55,-214.1"/>
</g>
<!-- simple_map::borrow -->
<g id="node14" class="node">
<title>simple_map::borrow</title>
<ellipse fill="none" stroke="black" cx="1696" cy="-438" rx="36.29" ry="18"/>
<text text-anchor="middle" x="1696" y="-434.3" font-family="Times,serif" font-size="14.00">borrow</text>
</g>
<!-- voting::resolve&#45;&gt;simple_map::borrow -->
<g id="edge13" class="edge">
<title>voting::resolve&#45;&gt;simple_map::borrow</title>
<path fill="none" stroke="black" d="M941.69,-511.68C1077.02,-510.38 1543.66,-504.63 1608,-487 1628.85,-481.29 1650.18,-469.82 1666.63,-459.52"/>
<polygon fill="black" stroke="black" points="1668.42,-462.53 1674.91,-454.15 1664.62,-456.65 1668.42,-462.53"/>
</g>
<!-- voting::can_be_resolved_early -->
<g id="node15" class="node">
<title>voting::can_be_resolved_early</title>
<ellipse fill="none" stroke="black" cx="990" cy="-272" rx="91.78" ry="18"/>
<text text-anchor="middle" x="990" y="-268.3" font-family="Times,serif" font-size="14.00">can_be_resolved_early</text>
</g>
<!-- voting::resolve&#45;&gt;voting::can_be_resolved_early -->
<g id="edge14" class="edge">
<title>voting::resolve&#45;&gt;voting::can_be_resolved_early</title>
<path fill="none" stroke="black" d="M911.11,-494.81C925.63,-454 962.28,-350.96 980.04,-301.01"/>
<polygon fill="black" stroke="black" points="983.27,-302.37 983.32,-291.78 976.67,-300.03 983.27,-302.37"/>
</g>
<!-- voting::get_proposal_state -->
<g id="node16" class="node">
<title>voting::get_proposal_state</title>
<ellipse fill="none" stroke="black" cx="790" cy="-438" rx="76.89" ry="18"/>
<text text-anchor="middle" x="790" y="-434.3" font-family="Times,serif" font-size="14.00">get_proposal_state</text>
</g>
<!-- voting::resolve&#45;&gt;voting::get_proposal_state -->
<g id="edge15" class="edge">
<title>voting::resolve&#45;&gt;voting::get_proposal_state</title>
<path fill="none" stroke="black" d="M883.37,-498.27C866.97,-487.86 844.09,-473.33 825.08,-461.27"/>
<polygon fill="black" stroke="black" points="827.15,-458.43 816.83,-456.03 823.39,-464.34 827.15,-458.43"/>
</g>
<!-- get_signer&#45;&gt;simple_map::borrow -->
<g id="edge17" class="edge">
<title>get_signer&#45;&gt;simple_map::borrow</title>
<path fill="none" stroke="black" d="M669.54,-499.51C675.59,-497.66 681.93,-496.03 688,-495 752.86,-484.02 1214.35,-491.22 1280,-487 1415.26,-478.31 1574.13,-456.82 1650.5,-445.78"/>
<polygon fill="black" stroke="black" points="1650.7,-449.29 1660.09,-444.39 1649.69,-442.36 1650.7,-449.29"/>
</g>
<!-- account::create_signer_with_capability -->
<g id="node17" class="node">
<title>account::create_signer_with_capability</title>
<ellipse fill="none" stroke="black" cx="132" cy="-438" rx="116.18" ry="18"/>
<text text-anchor="middle" x="132" y="-434.3" font-family="Times,serif" font-size="14.00">create_signer_with_capability</text>
</g>
<!-- get_signer&#45;&gt;account::create_signer_with_capability -->
<g id="edge16" class="edge">
<title>get_signer&#45;&gt;account::create_signer_with_capability</title>
<path fill="none" stroke="black" d="M589.64,-510.58C502.84,-507.7 321.55,-500.28 260,-487 232.04,-480.97 202.03,-469.97 178.1,-460.03"/>
<polygon fill="black" stroke="black" points="179.53,-456.83 168.96,-456.15 176.79,-463.28 179.53,-456.83"/>
</g>
<!-- remove_approved_hash&#45;&gt;error::invalid_argument -->
<g id="edge18" class="edge">
<title>remove_approved_hash&#45;&gt;error::invalid_argument</title>
<path fill="none" stroke="black" d="M1621.7,-569.64C1597.99,-529.66 1539.4,-430.86 1510.97,-382.93"/>
<polygon fill="black" stroke="black" points="1514.11,-381.37 1506,-374.55 1508.09,-384.94 1514.11,-381.37"/>
</g>
<!-- simple_map::remove -->
<g id="node18" class="node">
<title>simple_map::remove</title>
<ellipse fill="none" stroke="black" cx="1788" cy="-438" rx="37.89" ry="18"/>
<text text-anchor="middle" x="1788" y="-434.3" font-family="Times,serif" font-size="14.00">remove</text>
</g>
<!-- remove_approved_hash&#45;&gt;simple_map::remove -->
<g id="edge19" class="edge">
<title>remove_approved_hash&#45;&gt;simple_map::remove</title>
<path fill="none" stroke="black" d="M1651.19,-569.96C1673.19,-550.3 1710.19,-516.83 1741,-487 1749,-479.26 1757.57,-470.61 1765.17,-462.82"/>
<polygon fill="black" stroke="black" points="1767.47,-465.48 1771.91,-455.86 1762.44,-460.6 1767.47,-465.48"/>
</g>
<!-- simple_map::contains_key -->
<g id="node19" class="node">
<title>simple_map::contains_key</title>
<ellipse fill="none" stroke="black" cx="1901" cy="-438" rx="57.39" ry="18"/>
<text text-anchor="middle" x="1901" y="-434.3" font-family="Times,serif" font-size="14.00">contains_key</text>
</g>
<!-- remove_approved_hash&#45;&gt;simple_map::contains_key -->
<g id="edge20" class="edge">
<title>remove_approved_hash&#45;&gt;simple_map::contains_key</title>
<path fill="none" stroke="black" d="M1682.99,-572.53C1692.13,-569.41 1701.45,-565.87 1710,-562 1771.01,-534.36 1835.13,-489.27 1871.38,-462.04"/>
<polygon fill="black" stroke="black" points="1873.35,-464.93 1879.21,-456.1 1869.12,-459.36 1873.35,-464.93"/>
</g>
<!-- voting::is_resolved -->
<g id="node20" class="node">
<title>voting::is_resolved</title>
<ellipse fill="none" stroke="black" cx="786" cy="-513" rx="50.89" ry="18"/>
<text text-anchor="middle" x="786" y="-509.3" font-family="Times,serif" font-size="14.00">is_resolved</text>
</g>
<!-- remove_approved_hash&#45;&gt;voting::is_resolved -->
<g id="edge21" class="edge">
<title>remove_approved_hash&#45;&gt;voting::is_resolved</title>
<path fill="none" stroke="black" d="M1537.2,-586.77C1345.14,-585.9 922.94,-581.74 860,-562 843.3,-556.76 826.77,-546.64 813.58,-537.03"/>
<polygon fill="black" stroke="black" points="815.89,-534.4 805.81,-531.12 811.65,-539.97 815.89,-534.4"/>
</g>
<!-- option::is_some -->
<g id="node21" class="node">
<title>option::is_some</title>
<ellipse fill="none" stroke="black" cx="1702" cy="-117" rx="40.09" ry="18"/>
<text text-anchor="middle" x="1702" y="-113.3" font-family="Times,serif" font-size="14.00">is_some</text>
</g>
<!-- option::extract&#45;&gt;option::is_some -->
<g id="edge22" class="edge">
<title>option::extract&#45;&gt;option::is_some</title>
<path fill="none" stroke="black" d="M1769.39,-173.5C1757.77,-163.93 1742.33,-151.21 1729.15,-140.36"/>
<polygon fill="black" stroke="black" points="1731.58,-137.83 1721.64,-134.17 1727.13,-143.23 1731.58,-137.83"/>
</g>
<!-- string::internal_check_utf8 -->
<g id="node22" class="node">
<title>string::internal_check_utf8</title>
<ellipse fill="none" stroke="black" cx="1187" cy="-355" rx="81.49" ry="18"/>
<text text-anchor="middle" x="1187" y="-351.3" font-family="Times,serif" font-size="14.00">internal_check_utf8</text>
</g>
<!-- string::utf8&#45;&gt;string::internal_check_utf8 -->
<g id="edge23" class="edge">
<title>string::utf8&#45;&gt;string::internal_check_utf8</title>
<path fill="none" stroke="black" d="M1165.59,-420.22C1169.06,-409.82 1173.6,-396.21 1177.6,-384.19"/>
<polygon fill="black" stroke="black" points="1180.91,-385.35 1180.75,-374.76 1174.27,-383.14 1180.91,-385.35"/>
</g>
<!-- error::canonical -->
<g id="node23" class="node">
<title>error::canonical</title>
<ellipse fill="none" stroke="black" cx="1421" cy="-272" rx="44.39" ry="18"/>
<text text-anchor="middle" x="1421" y="-268.3" font-family="Times,serif" font-size="14.00">canonical</text>
</g>
<!-- error::invalid_argument&#45;&gt;error::canonical -->
<g id="edge24" class="edge">
<title>error::invalid_argument&#45;&gt;error::canonical</title>
<path fill="none" stroke="black" d="M1479.67,-337.22C1469.21,-325.77 1455.19,-310.42 1443.48,-297.6"/>
<polygon fill="black" stroke="black" points="1446.16,-295.35 1436.83,-290.33 1440.99,-300.07 1446.16,-295.35"/>
</g>
<!-- error::invalid_state&#45;&gt;error::canonical -->
<g id="edge25" class="edge">
<title>error::invalid_state&#45;&gt;error::canonical</title>
<path fill="none" stroke="black" d="M1363.13,-337.22C1373.44,-325.77 1387.27,-310.42 1398.83,-297.6"/>
<polygon fill="black" stroke="black" points="1401.28,-300.1 1405.38,-290.33 1396.08,-295.42 1401.28,-300.1"/>
</g>
<!-- table::borrow_box_mut -->
<g id="node24" class="node">
<title>table::borrow_box_mut</title>
<ellipse fill="none" stroke="black" cx="254" cy="-189" rx="72.29" ry="18"/>
<text text-anchor="middle" x="254" y="-185.3" font-family="Times,serif" font-size="14.00">borrow_box_mut</text>
</g>
<!-- table::borrow_mut&#45;&gt;table::borrow_box_mut -->
<g id="edge26" class="edge">
<title>table::borrow_mut&#45;&gt;table::borrow_box_mut</title>
<path fill="none" stroke="black" d="M296.02,-254.22C288.89,-243.32 279.45,-228.89 271.32,-216.47"/>
<polygon fill="black" stroke="black" points="274.38,-214.76 265.98,-208.31 268.53,-218.59 274.38,-214.76"/>
</g>
<!-- from_bcs::from_bytes -->
<g id="node25" class="node">
<title>from_bcs::from_bytes</title>
<ellipse fill="none" stroke="black" cx="323" cy="-355" rx="51.19" ry="18"/>
<text text-anchor="middle" x="323" y="-351.3" font-family="Times,serif" font-size="14.00">from_bytes</text>
</g>
<!-- from_bcs::to_u64&#45;&gt;from_bcs::from_bytes -->
<g id="edge27" class="edge">
<title>from_bcs::to_u64&#45;&gt;from_bcs::from_bytes</title>
<path fill="none" stroke="black" d="M329.3,-419.82C328.29,-409.58 326.98,-396.33 325.82,-384.55"/>
<polygon fill="black" stroke="black" points="329.34,-384.55 324.87,-374.94 322.37,-385.23 329.34,-384.55"/>
</g>
<!-- bcs::to_bytes -->
<g id="node26" class="node">
<title>bcs::to_bytes</title>
<ellipse fill="none" stroke="black" cx="2037" cy="-189" rx="40.09" ry="18"/>
<text text-anchor="middle" x="2037" y="-185.3" font-family="Times,serif" font-size="14.00">to_bytes</text>
</g>
<!-- event::emit_event&#45;&gt;bcs::to_bytes -->
<g id="edge28" class="edge">
<title>event::emit_event&#45;&gt;bcs::to_bytes</title>
<path fill="none" stroke="black" d="M601.6,-260.98C626.39,-255.37 658.82,-248.94 688,-246 723.85,-242.39 1951.49,-251.22 1985,-238 1997.3,-233.15 2008.45,-223.89 2017.24,-214.8"/>
<polygon fill="black" stroke="black" points="2019.81,-217.17 2023.89,-207.39 2014.6,-212.49 2019.81,-217.17"/>
</g>
<!-- event::write_to_event_store -->
<g id="node27" class="node">
<title>event::write_to_event_store</title>
<ellipse fill="none" stroke="black" cx="561" cy="-189" rx="85.29" ry="18"/>
<text text-anchor="middle" x="561" y="-185.3" font-family="Times,serif" font-size="14.00">write_to_event_store</text>
</g>
<!-- event::emit_event&#45;&gt;event::write_to_event_store -->
<g id="edge29" class="edge">
<title>event::emit_event&#45;&gt;event::write_to_event_store</title>
<path fill="none" stroke="black" d="M561,-253.82C561,-243.69 561,-230.6 561,-218.92"/>
<polygon fill="black" stroke="black" points="564.5,-218.95 561,-208.95 557.5,-218.95 564.5,-218.95"/>
</g>
<!-- timestamp::now_microseconds -->
<g id="node28" class="node">
<title>timestamp::now_microseconds</title>
<ellipse fill="none" stroke="black" cx="770" cy="-117" rx="79.09" ry="18"/>
<text text-anchor="middle" x="770" y="-113.3" font-family="Times,serif" font-size="14.00">now_microseconds</text>
</g>
<!-- timestamp::now_seconds&#45;&gt;timestamp::now_microseconds -->
<g id="edge30" class="edge">
<title>timestamp::now_seconds&#45;&gt;timestamp::now_microseconds</title>
<path fill="none" stroke="black" d="M770,-170.7C770,-163.41 770,-154.73 770,-146.54"/>
<polygon fill="black" stroke="black" points="773.5,-146.62 770,-136.62 766.5,-146.62 773.5,-146.62"/>
</g>
<!-- simple_map::borrow&#45;&gt;option::extract -->
<g id="edge31" class="edge">
<title>simple_map::borrow&#45;&gt;option::extract</title>
<path fill="none" stroke="black" d="M1702.25,-420.02C1717.71,-378.07 1757.82,-269.2 1776.78,-217.74"/>
<polygon fill="black" stroke="black" points="1780.01,-219.11 1780.18,-208.52 1773.44,-216.69 1780.01,-219.11"/>
</g>
<!-- simple_map::borrow&#45;&gt;error::invalid_argument -->
<g id="edge33" class="edge">
<title>simple_map::borrow&#45;&gt;error::invalid_argument</title>
<path fill="none" stroke="black" d="M1673.28,-423.6C1664.95,-419.24 1655.29,-414.81 1646,-412 1618.56,-403.69 1609.26,-412.86 1582,-404 1563.29,-397.92 1543.99,-387.73 1528.34,-378.3"/>
<polygon fill="black" stroke="black" points="1530.24,-375.37 1519.9,-373.07 1526.55,-381.32 1530.24,-375.37"/>
</g>
<!-- simple_map::borrow&#45;&gt;option::is_some -->
<g id="edge32" class="edge">
<title>simple_map::borrow&#45;&gt;option::is_some</title>
<path fill="none" stroke="black" d="M1683.23,-420.71C1650.16,-376.41 1567.82,-251.15 1620,-163 1628.54,-148.58 1643.51,-138.47 1658.35,-131.55"/>
<polygon fill="black" stroke="black" points="1659.28,-134.95 1667.13,-127.83 1656.55,-128.51 1659.28,-134.95"/>
</g>
<!-- simple_map::find -->
<g id="node29" class="node">
<title>simple_map::find</title>
<ellipse fill="none" stroke="black" cx="1901" cy="-355" rx="27" ry="18"/>
<text text-anchor="middle" x="1901" y="-351.3" font-family="Times,serif" font-size="14.00">find</text>
</g>
<!-- simple_map::borrow&#45;&gt;simple_map::find -->
<g id="edge34" class="edge">
<title>simple_map::borrow&#45;&gt;simple_map::find</title>
<path fill="none" stroke="black" d="M1718.51,-423.51C1725.58,-419.54 1733.5,-415.37 1741,-412 1782.67,-393.3 1832.62,-376.69 1865.5,-366.51"/>
<polygon fill="black" stroke="black" points="1866.39,-369.9 1874.93,-363.63 1864.34,-363.2 1866.39,-369.9"/>
</g>
<!-- voting::can_be_resolved_early&#45;&gt;option::is_some -->
<g id="edge36" class="edge">
<title>voting::can_be_resolved_early&#45;&gt;option::is_some</title>
<path fill="none" stroke="black" d="M1050.4,-258.02C1189.6,-228.11 1530.56,-154.84 1655.31,-128.03"/>
<polygon fill="black" stroke="black" points="1655.82,-131.5 1664.86,-125.98 1654.35,-124.66 1655.82,-131.5"/>
</g>
<!-- option::borrow -->
<g id="node30" class="node">
<title>option::borrow</title>
<ellipse fill="none" stroke="black" cx="1698" cy="-189" rx="36.29" ry="18"/>
<text text-anchor="middle" x="1698" y="-185.3" font-family="Times,serif" font-size="14.00">borrow</text>
</g>
<!-- voting::can_be_resolved_early&#45;&gt;option::borrow -->
<g id="edge35" class="edge">
<title>voting::can_be_resolved_early&#45;&gt;option::borrow</title>
<path fill="none" stroke="black" d="M1068.76,-262.41C1128.84,-255.83 1213.66,-246.47 1288,-238 1420.07,-222.96 1575.99,-204.51 1651.87,-195.5"/>
<polygon fill="black" stroke="black" points="1651.89,-199.02 1661.41,-194.36 1651.06,-192.07 1651.89,-199.02"/>
</g>
<!-- table::borrow -->
<g id="node31" class="node">
<title>table::borrow</title>
<ellipse fill="none" stroke="black" cx="416" cy="-272" rx="36.29" ry="18"/>
<text text-anchor="middle" x="416" y="-268.3" font-family="Times,serif" font-size="14.00">borrow</text>
</g>
<!-- voting::get_proposal_state&#45;&gt;table::borrow -->
<g id="edge37" class="edge">
<title>voting::get_proposal_state&#45;&gt;table::borrow</title>
<path fill="none" stroke="black" d="M743.63,-423.27C665.58,-399.72 511.8,-351.21 464,-321 453.94,-314.64 444.36,-305.84 436.43,-297.5"/>
<polygon fill="black" stroke="black" points="439.15,-295.29 429.84,-290.23 433.96,-299.99 439.15,-295.29"/>
</g>
<!-- voting::is_voting_closed -->
<g id="node32" class="node">
<title>voting::is_voting_closed</title>
<ellipse fill="none" stroke="black" cx="790" cy="-355" rx="70.39" ry="18"/>
<text text-anchor="middle" x="790" y="-351.3" font-family="Times,serif" font-size="14.00">is_voting_closed</text>
</g>
<!-- voting::get_proposal_state&#45;&gt;voting::is_voting_closed -->
<g id="edge38" class="edge">
<title>voting::get_proposal_state&#45;&gt;voting::is_voting_closed</title>
<path fill="none" stroke="black" d="M790,-419.82C790,-409.69 790,-396.6 790,-384.92"/>
<polygon fill="black" stroke="black" points="793.5,-384.95 790,-374.95 786.5,-384.95 793.5,-384.95"/>
</g>
<!-- account::create_signer -->
<g id="node33" class="node">
<title>account::create_signer</title>
<ellipse fill="none" stroke="black" cx="132" cy="-355" rx="57.69" ry="18"/>
<text text-anchor="middle" x="132" y="-351.3" font-family="Times,serif" font-size="14.00">create_signer</text>
</g>
<!-- account::create_signer_with_capability&#45;&gt;account::create_signer -->
<g id="edge39" class="edge">
<title>account::create_signer_with_capability&#45;&gt;account::create_signer</title>
<path fill="none" stroke="black" d="M132,-419.82C132,-409.69 132,-396.6 132,-384.92"/>
<polygon fill="black" stroke="black" points="135.5,-384.95 132,-374.95 128.5,-384.95 135.5,-384.95"/>
</g>
<!-- simple_map::remove&#45;&gt;option::extract -->
<g id="edge40" class="edge">
<title>simple_map::remove&#45;&gt;option::extract</title>
<path fill="none" stroke="black" d="M1787.93,-419.63C1787.76,-377.65 1787.33,-270.31 1787.12,-218.64"/>
<polygon fill="black" stroke="black" points="1790.62,-218.85 1787.08,-208.86 1783.62,-218.88 1790.62,-218.85"/>
</g>
<!-- simple_map::remove&#45;&gt;error::invalid_argument -->
<g id="edge42" class="edge">
<title>simple_map::remove&#45;&gt;error::invalid_argument</title>
<path fill="none" stroke="black" d="M1766.32,-423.12C1758.61,-418.83 1749.69,-414.57 1741,-412 1701.21,-400.24 1688.7,-412.03 1648,-404 1612.61,-397.01 1573.84,-384.8 1544.19,-374.44"/>
<polygon fill="black" stroke="black" points="1545.72,-371.27 1535.12,-371.23 1543.38,-377.87 1545.72,-371.27"/>
</g>
<!-- simple_map::remove&#45;&gt;option::is_some -->
<g id="edge41" class="edge">
<title>simple_map::remove&#45;&gt;option::is_some</title>
<path fill="none" stroke="black" d="M1772.27,-421.26C1742.05,-389.78 1676.78,-315.42 1653,-238 1643.21,-206.14 1639.59,-193.52 1653,-163 1656.94,-154.03 1663.65,-146.07 1670.86,-139.42"/>
<polygon fill="black" stroke="black" points="1672.84,-142.33 1678.25,-133.23 1668.34,-136.97 1672.84,-142.33"/>
</g>
<!-- simple_map::remove&#45;&gt;simple_map::find -->
<g id="edge43" class="edge">
<title>simple_map::remove&#45;&gt;simple_map::find</title>
<path fill="none" stroke="black" d="M1808.2,-422.52C1826.53,-409.38 1853.7,-389.9 1873.91,-375.42"/>
<polygon fill="black" stroke="black" points="1875.89,-378.31 1881.97,-369.64 1871.81,-372.62 1875.89,-378.31"/>
</g>
<!-- simple_map::contains_key&#45;&gt;option::is_some -->
<g id="edge44" class="edge">
<title>simple_map::contains_key&#45;&gt;option::is_some</title>
<path fill="none" stroke="black" d="M1954.52,-431.23C2062.59,-418.36 2300.68,-383.42 2349,-321 2391.98,-265.47 2396.9,-214.35 2349,-163 2308.71,-119.81 1899.84,-117.19 1753.64,-117.65"/>
<polygon fill="black" stroke="black" points="1753.85,-114.15 1743.86,-117.69 1753.88,-121.15 1753.85,-114.15"/>
</g>
<!-- simple_map::contains_key&#45;&gt;simple_map::find -->
<g id="edge45" class="edge">
<title>simple_map::contains_key&#45;&gt;simple_map::find</title>
<path fill="none" stroke="black" d="M1901,-419.82C1901,-409.69 1901,-396.6 1901,-384.92"/>
<polygon fill="black" stroke="black" points="1904.5,-384.95 1901,-374.95 1897.5,-384.95 1904.5,-384.95"/>
</g>
<!-- voting::is_resolved&#45;&gt;table::borrow_mut -->
<g id="edge46" class="edge">
<title>voting::is_resolved&#45;&gt;table::borrow_mut</title>
<path fill="none" stroke="black" d="M743.6,-502.86C727.79,-499.82 709.65,-496.76 693,-495 678.24,-493.44 437.57,-496.29 426,-487 369.51,-441.65 430.66,-386.03 386,-329 381.34,-323.05 377.37,-325.06 371,-321 359.13,-313.44 346.63,-304.35 335.86,-296.12"/>
<polygon fill="black" stroke="black" points="338.14,-293.46 328.09,-290.1 333.85,-298.99 338.14,-293.46"/>
</g>
<!-- vector::is_empty -->
<g id="node34" class="node">
<title>vector::is_empty</title>
<ellipse fill="none" stroke="black" cx="1718" cy="-34" rx="43.59" ry="18"/>
<text text-anchor="middle" x="1718" y="-30.3" font-family="Times,serif" font-size="14.00">is_empty</text>
</g>
<!-- option::is_some&#45;&gt;vector::is_empty -->
<g id="edge47" class="edge">
<title>option::is_some&#45;&gt;vector::is_empty</title>
<path fill="none" stroke="black" d="M1705.39,-98.82C1707.42,-88.58 1710.03,-75.33 1712.36,-63.55"/>
<polygon fill="black" stroke="black" points="1715.76,-64.41 1714.26,-53.92 1708.89,-63.05 1715.76,-64.41"/>
</g>
<!-- option::none -->
<g id="node35" class="node">
<title>option::none</title>
<ellipse fill="none" stroke="black" cx="1945" cy="-189" rx="27.9" ry="18"/>
<text text-anchor="middle" x="1945" y="-185.3" font-family="Times,serif" font-size="14.00">none</text>
</g>
<!-- simple_map::find&#45;&gt;option::none -->
<g id="edge48" class="edge">
<title>simple_map::find&#45;&gt;option::none</title>
<path fill="none" stroke="black" d="M1905.54,-337.07C1913.09,-308.96 1928.27,-252.37 1937.44,-218.17"/>
<polygon fill="black" stroke="black" points="1940.81,-219.11 1940.02,-208.55 1934.05,-217.3 1940.81,-219.11"/>
</g>
<!-- option::some -->
<g id="node36" class="node">
<title>option::some</title>
<ellipse fill="none" stroke="black" cx="1869" cy="-189" rx="29.8" ry="18"/>
<text text-anchor="middle" x="1869" y="-185.3" font-family="Times,serif" font-size="14.00">some</text>
</g>
<!-- simple_map::find&#45;&gt;option::some -->
<g id="edge49" class="edge">
<title>simple_map::find&#45;&gt;option::some</title>
<path fill="none" stroke="black" d="M1897.64,-336.76C1892.12,-308.51 1881.12,-252.11 1874.47,-218.04"/>
<polygon fill="black" stroke="black" points="1877.96,-217.64 1872.61,-208.5 1871.09,-218.98 1877.96,-217.64"/>
</g>
<!-- comparator::compare -->
<g id="node37" class="node">
<title>comparator::compare</title>
<ellipse fill="none" stroke="black" cx="2143" cy="-272" rx="41.69" ry="18"/>
<text text-anchor="middle" x="2143" y="-268.3" font-family="Times,serif" font-size="14.00">compare</text>
</g>
<!-- simple_map::find&#45;&gt;comparator::compare -->
<g id="edge50" class="edge">
<title>simple_map::find&#45;&gt;comparator::compare</title>
<path fill="none" stroke="black" d="M1924.64,-346.09C1965.31,-332.48 2049.04,-304.45 2100.18,-287.33"/>
<polygon fill="black" stroke="black" points="2101.08,-290.72 2109.45,-284.23 2098.85,-284.09 2101.08,-290.72"/>
</g>
<!-- comparator::is_smaller_than -->
<g id="node38" class="node">
<title>comparator::is_smaller_than</title>
<ellipse fill="none" stroke="black" cx="2270" cy="-272" rx="66.89" ry="18"/>
<text text-anchor="middle" x="2270" y="-268.3" font-family="Times,serif" font-size="14.00">is_smaller_than</text>
</g>
<!-- simple_map::find&#45;&gt;comparator::is_smaller_than -->
<g id="edge51" class="edge">
<title>simple_map::find&#45;&gt;comparator::is_smaller_than</title>
<path fill="none" stroke="black" d="M1928.1,-352.5C1990.99,-348.77 2145.22,-338.13 2194,-321 2210.47,-315.22 2227.06,-305.32 2240.51,-296.02"/>
<polygon fill="black" stroke="black" points="2242.4,-298.97 2248.48,-290.29 2238.32,-293.28 2242.4,-298.97"/>
</g>
<!-- option::borrow&#45;&gt;option::is_some -->
<g id="edge52" class="edge">
<title>option::borrow&#45;&gt;option::is_some</title>
<path fill="none" stroke="black" d="M1698.99,-170.7C1699.41,-163.41 1699.9,-154.73 1700.37,-146.54"/>
<polygon fill="black" stroke="black" points="1703.86,-146.8 1700.94,-136.62 1696.87,-146.4 1703.86,-146.8"/>
</g>
<!-- table::borrow_box -->
<g id="node39" class="node">
<title>table::borrow_box</title>
<ellipse fill="none" stroke="black" cx="398" cy="-189" rx="53.89" ry="18"/>
<text text-anchor="middle" x="398" y="-185.3" font-family="Times,serif" font-size="14.00">borrow_box</text>
</g>
<!-- table::borrow&#45;&gt;table::borrow_box -->
<g id="edge53" class="edge">
<title>table::borrow&#45;&gt;table::borrow_box</title>
<path fill="none" stroke="black" d="M412.18,-253.82C409.91,-243.58 406.96,-230.33 404.34,-218.55"/>
<polygon fill="black" stroke="black" points="407.79,-217.91 402.2,-208.91 400.95,-219.43 407.79,-217.91"/>
</g>
<!-- voting::is_voting_closed&#45;&gt;table::borrow_mut -->
<g id="edge54" class="edge">
<title>voting::is_voting_closed&#45;&gt;table::borrow_mut</title>
<path fill="none" stroke="black" d="M722.89,-349.19C606.58,-340.8 379.12,-324.06 371,-321 356.89,-315.67 343.23,-306.23 332.19,-297.12"/>
<polygon fill="black" stroke="black" points="334.56,-294.54 324.71,-290.63 329.97,-299.83 334.56,-294.54"/>
</g>
<!-- voting::is_voting_closed&#45;&gt;voting::can_be_resolved_early -->
<g id="edge55" class="edge">
<title>voting::is_voting_closed&#45;&gt;voting::can_be_resolved_early</title>
<path fill="none" stroke="black" d="M833.79,-340.67C851.15,-335.06 871.18,-328.17 889,-321 908.87,-313 930.38,-302.98 948.42,-294.17"/>
<polygon fill="black" stroke="black" points="949.82,-297.37 957.24,-289.81 946.73,-291.1 949.82,-297.37"/>
</g>
<!-- voting::is_voting_period_over -->
<g id="node40" class="node">
<title>voting::is_voting_period_over</title>
<ellipse fill="none" stroke="black" cx="790" cy="-272" rx="90.18" ry="18"/>
<text text-anchor="middle" x="790" y="-268.3" font-family="Times,serif" font-size="14.00">is_voting_period_over</text>
</g>
<!-- voting::is_voting_closed&#45;&gt;voting::is_voting_period_over -->
<g id="edge56" class="edge">
<title>voting::is_voting_closed&#45;&gt;voting::is_voting_period_over</title>
<path fill="none" stroke="black" d="M790,-336.82C790,-326.69 790,-313.6 790,-301.92"/>
<polygon fill="black" stroke="black" points="793.5,-301.95 790,-291.95 786.5,-301.95 793.5,-301.95"/>
</g>
<!-- vector::singleton -->
<g id="node41" class="node">
<title>vector::singleton</title>
<ellipse fill="none" stroke="black" cx="1822" cy="-34" rx="42.79" ry="18"/>
<text text-anchor="middle" x="1822" y="-30.3" font-family="Times,serif" font-size="14.00">singleton</text>
</g>
<!-- option::some&#45;&gt;vector::singleton -->
<g id="edge57" class="edge">
<title>option::some&#45;&gt;vector::singleton</title>
<path fill="none" stroke="black" d="M1863.79,-171.04C1855.74,-144.85 1840.21,-94.28 1830.52,-62.72"/>
<polygon fill="black" stroke="black" points="1833.96,-62.01 1827.68,-53.48 1827.27,-64.07 1833.96,-62.01"/>
</g>
<!-- comparator::compare&#45;&gt;bcs::to_bytes -->
<g id="edge58" class="edge">
<title>comparator::compare&#45;&gt;bcs::to_bytes</title>
<path fill="none" stroke="black" d="M2118.14,-257.2C2108.74,-251.63 2098.12,-244.89 2089,-238 2079.29,-230.67 2069.32,-221.83 2060.73,-213.74"/>
<polygon fill="black" stroke="black" points="2063.4,-211.45 2053.76,-207.04 2058.55,-216.5 2063.4,-211.45"/>
</g>
<!-- comparator::compare_u8_vector -->
<g id="node42" class="node">
<title>comparator::compare_u8_vector</title>
<ellipse fill="none" stroke="black" cx="2182" cy="-189" rx="81.49" ry="18"/>
<text text-anchor="middle" x="2182" y="-185.3" font-family="Times,serif" font-size="14.00">compare_u8_vector</text>
</g>
<!-- comparator::compare&#45;&gt;comparator::compare_u8_vector -->
<g id="edge59" class="edge">
<title>comparator::compare&#45;&gt;comparator::compare_u8_vector</title>
<path fill="none" stroke="black" d="M2151.08,-254.22C2156.19,-243.61 2162.91,-229.65 2168.78,-217.45"/>
<polygon fill="black" stroke="black" points="2171.82,-219.21 2173,-208.68 2165.51,-216.18 2171.82,-219.21"/>
</g>
<!-- voting::is_voting_period_over&#45;&gt;timestamp::now_seconds -->
<g id="edge60" class="edge">
<title>voting::is_voting_period_over&#45;&gt;timestamp::now_seconds</title>
<path fill="none" stroke="black" d="M785.76,-253.82C783.23,-243.58 779.96,-230.33 777.05,-218.55"/>
<polygon fill="black" stroke="black" points="780.46,-217.77 774.67,-208.9 773.67,-219.45 780.46,-217.77"/>
</g>
</g>
</svg>
