<?xml version="1.0" encoding="UTF-8" standalone="no"?>
<!DOCTYPE svg PUBLIC "-//W3C//DTD SVG 1.1//EN"
 "http://www.w3.org/Graphics/SVG/1.1/DTD/svg11.dtd">
<!-- Generated by graphviz version 7.0.0 (20221023.0053)
 -->
<!-- Title: G Pages: 1 -->
<svg width="1600pt" height="692pt"
 viewBox="0.00 0.00 1600.00 692.00" xmlns="http://www.w3.org/2000/svg" xmlns:xlink="http://www.w3.org/1999/xlink">
<g id="graph0" class="graph" transform="scale(1 1) rotate(0) translate(4 688)">
<title>G</title>
<polygon fill="white" stroke="none" points="-4,4 -4,-688 1596,-688 1596,4 -4,4"/>
<!-- aptos_account -->
<g id="node1" class="node">
<title>aptos_account</title>
<ellipse fill="none" stroke="black" cx="860" cy="-666" rx="61.19" ry="18"/>
<text text-anchor="middle" x="860" y="-662.3" font-family="Times,serif" font-size="14.00">aptos_account</text>
</g>
<!-- error -->
<g id="node2" class="node">
<title>error</title>
<ellipse fill="none" stroke="black" cx="1012" cy="-90" rx="27.9" ry="18"/>
<text text-anchor="middle" x="1012" y="-86.3" font-family="Times,serif" font-size="14.00">error</text>
</g>
<!-- aptos_account&#45;&gt;error -->
<g id="edge1" class="edge">
<title>aptos_account&#45;&gt;error</title>
<path fill="none" stroke="black" d="M914.2,-657.25C1047.41,-634.8 1387.93,-555.84 1497,-324 1535.72,-241.69 1429.02,-167.64 1389,-144 1332.39,-110.57 1136.11,-97.09 1051.41,-92.74"/>
<polygon fill="black" stroke="black" points="1051.67,-89.25 1041.51,-92.25 1051.32,-96.24 1051.67,-89.25"/>
</g>
<!-- account -->
<g id="node3" class="node">
<title>account</title>
<ellipse fill="none" stroke="black" cx="659" cy="-450" rx="38.19" ry="18"/>
<text text-anchor="middle" x="659" y="-446.3" font-family="Times,serif" font-size="14.00">account</text>
</g>
<!-- aptos_account&#45;&gt;account -->
<g id="edge2" class="edge">
<title>aptos_account&#45;&gt;account</title>
<path fill="none" stroke="black" d="M825.39,-650.94C805.85,-641.84 781.85,-628.59 764,-612 721.65,-572.65 688.53,-512.82 671.54,-478.26"/>
<polygon fill="black" stroke="black" points="674.75,-476.84 667.26,-469.34 668.44,-479.87 674.75,-476.84"/>
</g>
<!-- coin -->
<g id="node4" class="node">
<title>coin</title>
<ellipse fill="none" stroke="black" cx="899" cy="-522" rx="27" ry="18"/>
<text text-anchor="middle" x="899" y="-518.3" font-family="Times,serif" font-size="14.00">coin</text>
</g>
<!-- aptos_account&#45;&gt;coin -->
<g id="edge3" class="edge">
<title>aptos_account&#45;&gt;coin</title>
<path fill="none" stroke="black" d="M867.15,-648.04C871.3,-637.74 876.4,-624.27 880,-612 885.86,-592.05 890.72,-569.08 894.05,-551.48"/>
<polygon fill="black" stroke="black" points="897.48,-552.21 895.84,-541.74 890.59,-550.95 897.48,-552.21"/>
</g>
<!-- aptos_coin -->
<g id="node5" class="node">
<title>aptos_coin</title>
<ellipse fill="none" stroke="black" cx="822" cy="-594" rx="48.99" ry="18"/>
<text text-anchor="middle" x="822" y="-590.3" font-family="Times,serif" font-size="14.00">aptos_coin</text>
</g>
<!-- aptos_account&#45;&gt;aptos_coin -->
<g id="edge4" class="edge">
<title>aptos_account&#45;&gt;aptos_coin</title>
<path fill="none" stroke="black" d="M850.8,-648.05C846.51,-640.14 841.29,-630.54 836.49,-621.69"/>
<polygon fill="black" stroke="black" points="839.68,-620.24 831.84,-613.12 833.53,-623.58 839.68,-620.24"/>
</g>
<!-- account&#45;&gt;error -->
<g id="edge8" class="edge">
<title>account&#45;&gt;error</title>
<path fill="none" stroke="black" d="M683.13,-435.8C697.9,-426.52 716.02,-412.78 727,-396 772.21,-326.91 723.67,-282.22 773,-216 823.43,-148.31 921.35,-113.97 974.87,-99.57"/>
<polygon fill="black" stroke="black" points="975.63,-102.99 984.43,-97.1 973.88,-96.21 975.63,-102.99"/>
</g>
<!-- vector -->
<g id="node6" class="node">
<title>vector</title>
<ellipse fill="none" stroke="black" cx="131" cy="-18" rx="32.49" ry="18"/>
<text text-anchor="middle" x="131" y="-14.3" font-family="Times,serif" font-size="14.00">vector</text>
</g>
<!-- account&#45;&gt;vector -->
<g id="edge5" class="edge">
<title>account&#45;&gt;vector</title>
<path fill="none" stroke="black" d="M620.74,-447.3C530.32,-442.79 306.01,-428.57 239,-396 147.42,-351.49 76,-336.83 76,-235 76,-235 76,-235 76,-161 76,-118.1 98.1,-72.53 114.28,-44.92"/>
<polygon fill="black" stroke="black" points="117.16,-46.91 119.35,-36.55 111.17,-43.29 117.16,-46.91"/>
</g>
<!-- option -->
<g id="node7" class="node">
<title>option</title>
<ellipse fill="none" stroke="black" cx="351" cy="-90" rx="33.29" ry="18"/>
<text text-anchor="middle" x="351" y="-86.3" font-family="Times,serif" font-size="14.00">option</text>
</g>
<!-- account&#45;&gt;option -->
<g id="edge6" class="edge">
<title>account&#45;&gt;option</title>
<path fill="none" stroke="black" d="M620.81,-447.07C549.13,-442.7 398.24,-429.65 360,-396 298.1,-341.52 303.48,-297.65 315,-216 319.84,-181.68 331.82,-143.58 340.64,-118.57"/>
<polygon fill="black" stroke="black" points="343.81,-120.07 343.91,-109.48 337.23,-117.7 343.81,-120.07"/>
</g>
<!-- signer -->
<g id="node8" class="node">
<title>signer</title>
<ellipse fill="none" stroke="black" cx="1516" cy="-90" rx="32.49" ry="18"/>
<text text-anchor="middle" x="1516" y="-86.3" font-family="Times,serif" font-size="14.00">signer</text>
</g>
<!-- account&#45;&gt;signer -->
<g id="edge7" class="edge">
<title>account&#45;&gt;signer</title>
<path fill="none" stroke="black" d="M696.88,-446.88C812.84,-440.17 1157.9,-418.51 1203,-396 1222.42,-386.31 1220.83,-375.53 1236,-360 1327.79,-266.03 1442.08,-159.25 1491.43,-113.62"/>
<polygon fill="black" stroke="black" points="1493.79,-116.2 1498.76,-106.85 1489.04,-111.06 1493.79,-116.2"/>
</g>
<!-- type_info -->
<g id="node9" class="node">
<title>type_info</title>
<ellipse fill="none" stroke="black" cx="826" cy="-234" rx="44.39" ry="18"/>
<text text-anchor="middle" x="826" y="-230.3" font-family="Times,serif" font-size="14.00">type_info</text>
</g>
<!-- account&#45;&gt;type_info -->
<g id="edge9" class="edge">
<title>account&#45;&gt;type_info</title>
<path fill="none" stroke="black" d="M689.99,-439.2C712.07,-430.83 741.07,-416.8 760,-396 794.98,-357.56 812.75,-298.07 820.65,-263.18"/>
<polygon fill="black" stroke="black" points="823.98,-264.35 822.64,-253.84 817.13,-262.89 823.98,-264.35"/>
</g>
<!-- table -->
<g id="node10" class="node">
<title>table</title>
<ellipse fill="none" stroke="black" cx="1068" cy="-306" rx="27.9" ry="18"/>
<text text-anchor="middle" x="1068" y="-302.3" font-family="Times,serif" font-size="14.00">table</text>
</g>
<!-- account&#45;&gt;table -->
<g id="edge10" class="edge">
<title>account&#45;&gt;table</title>
<path fill="none" stroke="black" d="M689.07,-438.56C763.1,-412.86 953.84,-346.64 1032.88,-319.19"/>
<polygon fill="black" stroke="black" points="1033.98,-322.52 1042.28,-315.93 1031.68,-315.9 1033.98,-322.52"/>
</g>
<!-- system_addresses -->
<g id="node11" class="node">
<title>system_addresses</title>
<ellipse fill="none" stroke="black" cx="1415" cy="-306" rx="73.39" ry="18"/>
<text text-anchor="middle" x="1415" y="-302.3" font-family="Times,serif" font-size="14.00">system_addresses</text>
</g>
<!-- account&#45;&gt;system_addresses -->
<g id="edge11" class="edge">
<title>account&#45;&gt;system_addresses</title>
<path fill="none" stroke="black" d="M697.15,-447.33C808.9,-442.15 1134.02,-424.94 1236,-396 1289.03,-380.95 1345.15,-350.32 1380.13,-329.23"/>
<polygon fill="black" stroke="black" points="1381.84,-332.28 1388.55,-324.08 1378.19,-326.31 1381.84,-332.28"/>
</g>
<!-- hash -->
<g id="node12" class="node">
<title>hash</title>
<ellipse fill="none" stroke="black" cx="351" cy="-234" rx="27" ry="18"/>
<text text-anchor="middle" x="351" y="-230.3" font-family="Times,serif" font-size="14.00">hash</text>
</g>
<!-- account&#45;&gt;hash -->
<g id="edge12" class="edge">
<title>account&#45;&gt;hash</title>
<path fill="none" stroke="black" d="M621.08,-446.58C554.25,-441.54 419.37,-427.64 386,-396 349.91,-361.79 346.7,-299.79 348.35,-263.53"/>
<polygon fill="black" stroke="black" points="351.83,-264 348.96,-253.8 344.84,-263.56 351.83,-264"/>
</g>
<!-- bcs -->
<g id="node13" class="node">
<title>bcs</title>
<ellipse fill="none" stroke="black" cx="601" cy="-234" rx="27" ry="18"/>
<text text-anchor="middle" x="601" y="-230.3" font-family="Times,serif" font-size="14.00">bcs</text>
</g>
<!-- account&#45;&gt;bcs -->
<g id="edge13" class="edge">
<title>account&#45;&gt;bcs</title>
<path fill="none" stroke="black" d="M653.65,-431.86C650.46,-421.51 646.38,-408.03 643,-396 629.9,-349.44 615.97,-294.91 607.9,-262.76"/>
<polygon fill="black" stroke="black" points="611.39,-262.3 605.57,-253.45 604.6,-264 611.39,-262.3"/>
</g>
<!-- ed25519 -->
<g id="node14" class="node">
<title>ed25519</title>
<ellipse fill="none" stroke="black" cx="513" cy="-306" rx="40.89" ry="18"/>
<text text-anchor="middle" x="513" y="-302.3" font-family="Times,serif" font-size="14.00">ed25519</text>
</g>
<!-- account&#45;&gt;ed25519 -->
<g id="edge14" class="edge">
<title>account&#45;&gt;ed25519</title>
<path fill="none" stroke="black" d="M634.32,-435.99C617.36,-426.33 594.94,-412.09 578,-396 558.45,-377.43 540.73,-352.34 528.75,-333.53"/>
<polygon fill="black" stroke="black" points="531.76,-331.74 523.5,-325.1 525.81,-335.44 531.76,-331.74"/>
</g>
<!-- multi_ed25519 -->
<g id="node15" class="node">
<title>multi_ed25519</title>
<ellipse fill="none" stroke="black" cx="459" cy="-378" rx="64.19" ry="18"/>
<text text-anchor="middle" x="459" y="-374.3" font-family="Times,serif" font-size="14.00">multi_ed25519</text>
</g>
<!-- account&#45;&gt;multi_ed25519 -->
<g id="edge15" class="edge">
<title>account&#45;&gt;multi_ed25519</title>
<path fill="none" stroke="black" d="M629.06,-438.52C597.32,-427.41 546.66,-409.68 508.88,-396.46"/>
<polygon fill="black" stroke="black" points="510.12,-393.18 499.52,-393.18 507.81,-399.79 510.12,-393.18"/>
</g>
<!-- guid -->
<g id="node16" class="node">
<title>guid</title>
<ellipse fill="none" stroke="black" cx="675" cy="-306" rx="27" ry="18"/>
<text text-anchor="middle" x="675" y="-302.3" font-family="Times,serif" font-size="14.00">guid</text>
</g>
<!-- account&#45;&gt;guid -->
<g id="edge16" class="edge">
<title>account&#45;&gt;guid</title>
<path fill="none" stroke="black" d="M653.64,-431.74C648.82,-413.66 643.31,-384.54 649,-360 651.15,-350.73 655.16,-341.22 659.4,-332.86"/>
<polygon fill="black" stroke="black" points="662.34,-334.77 664.04,-324.31 656.19,-331.43 662.34,-334.77"/>
</g>
<!-- from_bcs -->
<g id="node17" class="node">
<title>from_bcs</title>
<ellipse fill="none" stroke="black" cx="186" cy="-234" rx="44.39" ry="18"/>
<text text-anchor="middle" x="186" y="-230.3" font-family="Times,serif" font-size="14.00">from_bcs</text>
</g>
<!-- account&#45;&gt;from_bcs -->
<g id="edge17" class="edge">
<title>account&#45;&gt;from_bcs</title>
<path fill="none" stroke="black" d="M620.86,-447.9C535.75,-444.78 333.45,-433.52 278,-396 231.21,-364.33 205.33,-300.42 193.69,-263.35"/>
<polygon fill="black" stroke="black" points="197.05,-262.37 190.83,-253.79 190.34,-264.37 197.05,-262.37"/>
</g>
<!-- event -->
<g id="node18" class="node">
<title>event</title>
<ellipse fill="none" stroke="black" cx="688" cy="-378" rx="29.8" ry="18"/>
<text text-anchor="middle" x="688" y="-374.3" font-family="Times,serif" font-size="14.00">event</text>
</g>
<!-- account&#45;&gt;event -->
<g id="edge18" class="edge">
<title>account&#45;&gt;event</title>
<path fill="none" stroke="black" d="M666.02,-432.05C669.23,-424.32 673.1,-414.96 676.7,-406.27"/>
<polygon fill="black" stroke="black" points="679.87,-407.77 680.47,-397.19 673.4,-405.09 679.87,-407.77"/>
</g>
<!-- coin&#45;&gt;error -->
<g id="edge22" class="edge">
<title>coin&#45;&gt;error</title>
<path fill="none" stroke="black" d="M915.94,-508.03C927.41,-498.29 941.9,-483.94 950,-468 1010.27,-349.39 1014.16,-185.22 1013.02,-119.69"/>
<polygon fill="black" stroke="black" points="1016.52,-119.71 1012.78,-109.8 1009.52,-119.88 1016.52,-119.71"/>
</g>
<!-- coin&#45;&gt;account -->
<g id="edge26" class="edge">
<title>coin&#45;&gt;account</title>
<path fill="none" stroke="black" d="M874.67,-513.9C834.12,-502.08 752.21,-478.19 701.83,-463.49"/>
<polygon fill="black" stroke="black" points="703,-460.19 692.42,-460.75 701.04,-466.91 703,-460.19"/>
</g>
<!-- coin&#45;&gt;option -->
<g id="edge19" class="edge">
<title>coin&#45;&gt;option</title>
<path fill="none" stroke="black" d="M904.1,-503.94C918.13,-453.15 951.66,-301.19 879,-216 815.84,-141.94 510.59,-105.99 395.25,-94.89"/>
<polygon fill="black" stroke="black" points="395.85,-91.43 385.57,-93.97 395.19,-98.4 395.85,-91.43"/>
</g>
<!-- coin&#45;&gt;signer -->
<g id="edge21" class="edge">
<title>coin&#45;&gt;signer</title>
<path fill="none" stroke="black" d="M926.31,-521.01C1050.27,-520.35 1554,-509.61 1554,-379 1554,-379 1554,-379 1554,-233 1554,-191.95 1539,-146.43 1527.85,-118.26"/>
<polygon fill="black" stroke="black" points="1531.11,-116.99 1524.08,-109.06 1524.63,-119.64 1531.11,-116.99"/>
</g>
<!-- coin&#45;&gt;type_info -->
<g id="edge23" class="edge">
<title>coin&#45;&gt;type_info</title>
<path fill="none" stroke="black" d="M894.65,-503.97C882.53,-456.49 848.28,-322.31 833.24,-263.36"/>
<polygon fill="black" stroke="black" points="836.66,-262.6 830.79,-253.77 829.87,-264.33 836.66,-262.6"/>
</g>
<!-- coin&#45;&gt;system_addresses -->
<g id="edge24" class="edge">
<title>coin&#45;&gt;system_addresses</title>
<path fill="none" stroke="black" d="M926.2,-521.01C1002.36,-519.6 1220.63,-505.68 1350,-396 1370.66,-378.48 1388.35,-353.13 1400.03,-333.95"/>
<polygon fill="black" stroke="black" points="1402.89,-335.99 1404.96,-325.6 1396.86,-332.43 1402.89,-335.99"/>
</g>
<!-- coin&#45;&gt;event -->
<g id="edge25" class="edge">
<title>coin&#45;&gt;event</title>
<path fill="none" stroke="black" d="M880.64,-508.65C843.82,-483.87 760.72,-427.94 716.67,-398.29"/>
<polygon fill="black" stroke="black" points="718.88,-395.57 708.63,-392.89 714.98,-401.37 718.88,-395.57"/>
</g>
<!-- string -->
<g id="node19" class="node">
<title>string</title>
<ellipse fill="none" stroke="black" cx="161" cy="-162" rx="30.59" ry="18"/>
<text text-anchor="middle" x="161" y="-158.3" font-family="Times,serif" font-size="14.00">string</text>
</g>
<!-- coin&#45;&gt;string -->
<g id="edge20" class="edge">
<title>coin&#45;&gt;string</title>
<path fill="none" stroke="black" d="M871.98,-519.04C733.94,-508.68 114,-457.77 114,-379 114,-379 114,-379 114,-305 114,-264.55 119.2,-254.02 133,-216 136.3,-206.92 140.88,-197.46 145.39,-189.08"/>
<polygon fill="black" stroke="black" points="148.37,-190.92 150.21,-180.49 142.27,-187.5 148.37,-190.92"/>
</g>
<!-- optional_aggregator -->
<g id="node20" class="node">
<title>optional_aggregator</title>
<ellipse fill="none" stroke="black" cx="1117" cy="-450" rx="81.49" ry="18"/>
<text text-anchor="middle" x="1117" y="-446.3" font-family="Times,serif" font-size="14.00">optional_aggregator</text>
</g>
<!-- coin&#45;&gt;optional_aggregator -->
<g id="edge27" class="edge">
<title>coin&#45;&gt;optional_aggregator</title>
<path fill="none" stroke="black" d="M923.16,-513.24C956.34,-502.59 1016.98,-483.12 1061.62,-468.78"/>
<polygon fill="black" stroke="black" points="1062.43,-472.2 1070.88,-465.81 1060.28,-465.54 1062.43,-472.2"/>
</g>
<!-- aptos_coin&#45;&gt;error -->
<g id="edge32" class="edge">
<title>aptos_coin&#45;&gt;error</title>
<path fill="none" stroke="black" d="M828.54,-575.72C856.61,-501.57 966.98,-209.94 1001.57,-118.55"/>
<polygon fill="black" stroke="black" points="1004.78,-119.96 1005.05,-109.37 998.24,-117.48 1004.78,-119.96"/>
</g>
<!-- aptos_coin&#45;&gt;coin -->
<g id="edge34" class="edge">
<title>aptos_coin&#45;&gt;coin</title>
<path fill="none" stroke="black" d="M839.86,-576.76C850.41,-567.17 863.89,-554.91 875.32,-544.52"/>
<polygon fill="black" stroke="black" points="877.41,-547.35 882.46,-538.04 872.71,-542.17 877.41,-547.35"/>
</g>
<!-- aptos_coin&#45;&gt;vector -->
<g id="edge28" class="edge">
<title>aptos_coin&#45;&gt;vector</title>
<path fill="none" stroke="black" d="M772.85,-592.12C613.73,-588.91 119.44,-576.1 58,-540 17.29,-516.08 0,-498.21 0,-451 0,-451 0,-451 0,-161 0,-103.42 58.9,-59.21 97.71,-36.33"/>
<polygon fill="black" stroke="black" points="99.31,-39.45 106.26,-31.47 95.84,-33.37 99.31,-39.45"/>
</g>
<!-- aptos_coin&#45;&gt;option -->
<g id="edge29" class="edge">
<title>aptos_coin&#45;&gt;option</title>
<path fill="none" stroke="black" d="M772.92,-591.96C628.65,-587.6 216,-565.14 216,-451 216,-451 216,-451 216,-377 216,-271.44 292.14,-163.13 330.06,-115.73"/>
<polygon fill="black" stroke="black" points="332.76,-117.96 336.36,-108 327.33,-113.54 332.76,-117.96"/>
</g>
<!-- aptos_coin&#45;&gt;signer -->
<g id="edge31" class="edge">
<title>aptos_coin&#45;&gt;signer</title>
<path fill="none" stroke="black" d="M869.59,-589.3C1037.46,-575.62 1592,-524.83 1592,-451 1592,-451 1592,-451 1592,-233 1592,-186.98 1560.58,-141.43 1538.15,-114.78"/>
<polygon fill="black" stroke="black" points="1540.85,-112.56 1531.65,-107.31 1535.57,-117.15 1540.85,-112.56"/>
</g>
<!-- aptos_coin&#45;&gt;system_addresses -->
<g id="edge33" class="edge">
<title>aptos_coin&#45;&gt;system_addresses</title>
<path fill="none" stroke="black" d="M866.3,-585.99C949.6,-571.7 1133.94,-534.77 1276,-468 1326.55,-444.24 1344.2,-439.69 1379,-396 1393.21,-378.16 1402.51,-353.97 1408.09,-335.31"/>
<polygon fill="black" stroke="black" points="1411.46,-336.27 1410.77,-325.7 1404.72,-334.4 1411.46,-336.27"/>
</g>
<!-- aptos_coin&#45;&gt;string -->
<g id="edge30" class="edge">
<title>aptos_coin&#45;&gt;string</title>
<path fill="none" stroke="black" d="M773.41,-591.41C646.73,-586.87 308.85,-572.03 202,-540 122.56,-516.19 38,-533.93 38,-451 38,-451 38,-451 38,-305 38,-249.1 93.13,-204.4 129.57,-180.96"/>
<polygon fill="black" stroke="black" points="131.36,-183.97 138.01,-175.72 127.67,-178.03 131.36,-183.97"/>
</g>
<!-- option&#45;&gt;vector -->
<g id="edge35" class="edge">
<title>option&#45;&gt;vector</title>
<path fill="none" stroke="black" d="M322.69,-79.99C283.72,-67.59 213.42,-45.23 169.65,-31.3"/>
<polygon fill="black" stroke="black" points="170.89,-28.02 160.3,-28.32 168.77,-34.69 170.89,-28.02"/>
</g>
<!-- type_info&#45;&gt;error -->
<g id="edge37" class="edge">
<title>type_info&#45;&gt;error</title>
<path fill="none" stroke="black" d="M846.26,-217.53C880.11,-191.69 948.15,-139.75 985.67,-111.1"/>
<polygon fill="black" stroke="black" points="987.48,-114.12 993.31,-105.27 983.23,-108.56 987.48,-114.12"/>
</g>
<!-- type_info&#45;&gt;string -->
<g id="edge36" class="edge">
<title>type_info&#45;&gt;string</title>
<path fill="none" stroke="black" d="M783.39,-228.51C662.99,-215.84 321.29,-179.87 202.39,-167.36"/>
<polygon fill="black" stroke="black" points="203.09,-163.91 192.78,-166.34 202.35,-170.87 203.09,-163.91"/>
</g>
<!-- features -->
<g id="node21" class="node">
<title>features</title>
<ellipse fill="none" stroke="black" cx="1342" cy="-162" rx="38.19" ry="18"/>
<text text-anchor="middle" x="1342" y="-158.3" font-family="Times,serif" font-size="14.00">features</text>
</g>
<!-- type_info&#45;&gt;features -->
<g id="edge38" class="edge">
<title>type_info&#45;&gt;features</title>
<path fill="none" stroke="black" d="M867.79,-227.33C962.64,-214.46 1193.75,-183.11 1294.14,-169.49"/>
<polygon fill="black" stroke="black" points="1294.49,-172.98 1303.93,-168.16 1293.55,-166.04 1294.49,-172.98"/>
</g>
<!-- system_addresses&#45;&gt;error -->
<g id="edge40" class="edge">
<title>system_addresses&#45;&gt;error</title>
<path fill="none" stroke="black" d="M1398.94,-288.11C1361.38,-248.76 1269.69,-153.62 1252,-144 1187.42,-108.86 1101.06,-97.02 1051.48,-93.02"/>
<polygon fill="black" stroke="black" points="1051.74,-89.53 1041.52,-92.3 1051.23,-96.52 1051.74,-89.53"/>
</g>
<!-- system_addresses&#45;&gt;signer -->
<g id="edge39" class="edge">
<title>system_addresses&#45;&gt;signer</title>
<path fill="none" stroke="black" d="M1423.09,-287.85C1440.57,-250.82 1481.96,-163.12 1503.1,-118.34"/>
<polygon fill="black" stroke="black" points="1506.26,-119.84 1507.36,-109.3 1499.93,-116.85 1506.26,-119.84"/>
</g>
<!-- ed25519&#45;&gt;error -->
<g id="edge42" class="edge">
<title>ed25519&#45;&gt;error</title>
<path fill="none" stroke="black" d="M519.03,-288.03C526.83,-268.28 542.19,-235.85 565,-216 685.48,-111.14 887.37,-93.72 972.37,-91.2"/>
<polygon fill="black" stroke="black" points="972.38,-94.7 982.29,-90.97 972.21,-87.71 972.38,-94.7"/>
</g>
<!-- ed25519&#45;&gt;option -->
<g id="edge41" class="edge">
<title>ed25519&#45;&gt;option</title>
<path fill="none" stroke="black" d="M505.92,-288.1C492.41,-257.16 460.64,-190.36 420,-144 408.97,-131.42 394.57,-119.8 381.78,-110.67"/>
<polygon fill="black" stroke="black" points="383.86,-107.85 373.64,-105.06 379.88,-113.62 383.86,-107.85"/>
</g>
<!-- ed25519&#45;&gt;type_info -->
<g id="edge43" class="edge">
<title>ed25519&#45;&gt;type_info</title>
<path fill="none" stroke="black" d="M548.91,-296.97C605.1,-284.4 713.95,-260.06 777.2,-245.91"/>
<polygon fill="black" stroke="black" points="777.61,-249.41 786.61,-243.81 776.08,-242.58 777.61,-249.41"/>
</g>
<!-- ed25519&#45;&gt;hash -->
<g id="edge44" class="edge">
<title>ed25519&#45;&gt;hash</title>
<path fill="none" stroke="black" d="M484.41,-292.65C456.1,-280.41 412.81,-261.71 383.27,-248.95"/>
<polygon fill="black" stroke="black" points="385.03,-245.89 374.46,-245.14 382.25,-252.32 385.03,-245.89"/>
</g>
<!-- ed25519&#45;&gt;bcs -->
<g id="edge45" class="edge">
<title>ed25519&#45;&gt;bcs</title>
<path fill="none" stroke="black" d="M532.09,-289.81C544.66,-279.81 561.27,-266.6 575.04,-255.65"/>
<polygon fill="black" stroke="black" points="577.19,-258.41 582.84,-249.45 572.84,-252.93 577.19,-258.41"/>
</g>
<!-- multi_ed25519&#45;&gt;error -->
<g id="edge47" class="edge">
<title>multi_ed25519&#45;&gt;error</title>
<path fill="none" stroke="black" d="M456.28,-359.8C454.12,-341.26 452.93,-311.28 463,-288 499.55,-203.47 528.5,-182.84 612,-144 675.68,-114.38 885.04,-98.64 972.77,-93.21"/>
<polygon fill="black" stroke="black" points="972.79,-96.72 982.56,-92.62 972.37,-89.73 972.79,-96.72"/>
</g>
<!-- multi_ed25519&#45;&gt;option -->
<g id="edge46" class="edge">
<title>multi_ed25519&#45;&gt;option</title>
<path fill="none" stroke="black" d="M448.82,-360.19C442.88,-349.96 435.48,-336.48 430,-324 398.46,-252.17 371.51,-163.48 358.8,-119.09"/>
<polygon fill="black" stroke="black" points="362.18,-118.17 356.09,-109.51 355.45,-120.08 362.18,-118.17"/>
</g>
<!-- multi_ed25519&#45;&gt;hash -->
<g id="edge48" class="edge">
<title>multi_ed25519&#45;&gt;hash</title>
<path fill="none" stroke="black" d="M433.65,-361.24C419.97,-351.76 403.56,-338.69 392,-324 377.54,-305.62 366.79,-281.32 359.93,-262.75"/>
<polygon fill="black" stroke="black" points="363.28,-261.74 356.67,-253.46 356.68,-264.06 363.28,-261.74"/>
</g>
<!-- multi_ed25519&#45;&gt;bcs -->
<g id="edge49" class="edge">
<title>multi_ed25519&#45;&gt;bcs</title>
<path fill="none" stroke="black" d="M500.01,-363.8C521.11,-355.26 545.91,-342.29 563,-324 578.96,-306.92 588.79,-282.12 594.45,-263.03"/>
<polygon fill="black" stroke="black" points="597.8,-264.04 597.05,-253.47 591.05,-262.2 597.8,-264.04"/>
</g>
<!-- multi_ed25519&#45;&gt;ed25519 -->
<g id="edge50" class="edge">
<title>multi_ed25519&#45;&gt;ed25519</title>
<path fill="none" stroke="black" d="M472.07,-360.05C478.53,-351.68 486.46,-341.4 493.61,-332.13"/>
<polygon fill="black" stroke="black" points="496.16,-334.56 499.5,-324.51 490.62,-330.29 496.16,-334.56"/>
</g>
<!-- from_bcs&#45;&gt;string -->
<g id="edge51" class="edge">
<title>from_bcs&#45;&gt;string</title>
<path fill="none" stroke="black" d="M179.82,-215.7C177.13,-208.15 173.9,-199.12 170.89,-190.68"/>
<polygon fill="black" stroke="black" points="174.28,-189.77 167.62,-181.53 167.69,-192.12 174.28,-189.77"/>
</g>
<!-- event&#45;&gt;bcs -->
<g id="edge52" class="edge">
<title>event&#45;&gt;bcs</title>
<path fill="none" stroke="black" d="M699.13,-361.06C710.73,-342.31 725.35,-310.84 711,-288 695.16,-262.78 663.58,-249.28 638.3,-242.23"/>
<polygon fill="black" stroke="black" points="639.23,-238.86 628.68,-239.8 637.52,-245.64 639.23,-238.86"/>
</g>
<!-- event&#45;&gt;guid -->
<g id="edge53" class="edge">
<title>event&#45;&gt;guid</title>
<path fill="none" stroke="black" d="M684.79,-359.7C683.42,-352.32 681.78,-343.52 680.25,-335.25"/>
<polygon fill="black" stroke="black" points="683.72,-334.79 678.45,-325.59 676.84,-336.06 683.72,-334.79"/>
</g>
<!-- string&#45;&gt;vector -->
<g id="edge54" class="edge">
<title>string&#45;&gt;vector</title>
<path fill="none" stroke="black" d="M157.38,-143.87C152.31,-119.88 143.04,-75.99 136.95,-47.16"/>
<polygon fill="black" stroke="black" points="140.44,-46.73 134.94,-37.67 133.59,-48.18 140.44,-46.73"/>
</g>
<!-- string&#45;&gt;option -->
<g id="edge55" class="edge">
<title>string&#45;&gt;option</title>
<path fill="none" stroke="black" d="M186.62,-151.56C219.26,-139.54 275.91,-118.66 313.43,-104.84"/>
<polygon fill="black" stroke="black" points="314.35,-108.23 322.52,-101.49 311.93,-101.66 314.35,-108.23"/>
</g>
<!-- optional_aggregator&#45;&gt;error -->
<g id="edge57" class="edge">
<title>optional_aggregator&#45;&gt;error</title>
<path fill="none" stroke="black" d="M1159.39,-434.25C1179.64,-425.57 1203.08,-412.93 1220,-396 1255.87,-360.11 1278.92,-333.76 1257,-288 1212.58,-195.29 1100.89,-132.36 1044.97,-105.57"/>
<polygon fill="black" stroke="black" points="1046.8,-102.56 1036.26,-101.49 1043.83,-108.9 1046.8,-102.56"/>
</g>
<!-- optional_aggregator&#45;&gt;option -->
<g id="edge56" class="edge">
<title>optional_aggregator&#45;&gt;option</title>
<path fill="none" stroke="black" d="M1081.85,-433.3C1064.81,-424.31 1045.03,-411.69 1031,-396 948.42,-303.69 1013.39,-215.15 912,-144 870.06,-114.57 521.08,-97.81 395.67,-92.7"/>
<polygon fill="black" stroke="black" points="395.89,-89.2 385.76,-92.3 395.61,-96.2 395.89,-89.2"/>
</g>
<!-- aggregator -->
<g id="node22" class="node">
<title>aggregator</title>
<ellipse fill="none" stroke="black" cx="1200" cy="-306" rx="48.19" ry="18"/>
<text text-anchor="middle" x="1200" y="-302.3" font-family="Times,serif" font-size="14.00">aggregator</text>
</g>
<!-- optional_aggregator&#45;&gt;aggregator -->
<g id="edge58" class="edge">
<title>optional_aggregator&#45;&gt;aggregator</title>
<path fill="none" stroke="black" d="M1158.48,-434.06C1175.45,-425.66 1193.34,-413.3 1203,-396 1213.2,-377.73 1211.78,-353.9 1208.17,-335.5"/>
<polygon fill="black" stroke="black" points="1211.58,-334.73 1205.92,-325.77 1204.76,-336.31 1211.58,-334.73"/>
</g>
<!-- aggregator_factory -->
<g id="node23" class="node">
<title>aggregator_factory</title>
<ellipse fill="none" stroke="black" cx="1117" cy="-378" rx="77.19" ry="18"/>
<text text-anchor="middle" x="1117" y="-374.3" font-family="Times,serif" font-size="14.00">aggregator_factory</text>
</g>
<!-- optional_aggregator&#45;&gt;aggregator_factory -->
<g id="edge59" class="edge">
<title>optional_aggregator&#45;&gt;aggregator_factory</title>
<path fill="none" stroke="black" d="M1117,-431.7C1117,-424.41 1117,-415.73 1117,-407.54"/>
<polygon fill="black" stroke="black" points="1120.5,-407.62 1117,-397.62 1113.5,-407.62 1120.5,-407.62"/>
</g>
<!-- features&#45;&gt;error -->
<g id="edge61" class="edge">
<title>features&#45;&gt;error</title>
<path fill="none" stroke="black" d="M1311.95,-150.45C1304.8,-148.15 1297.17,-145.85 1290,-144 1205.34,-122.19 1104.05,-105.09 1050.16,-96.69"/>
<polygon fill="black" stroke="black" points="1051,-93.28 1040.59,-95.22 1049.94,-100.2 1051,-93.28"/>
</g>
<!-- features&#45;&gt;signer -->
<g id="edge60" class="edge">
<title>features&#45;&gt;signer</title>
<path fill="none" stroke="black" d="M1370.34,-149.6C1400.19,-137.59 1447.28,-118.64 1479.8,-105.56"/>
<polygon fill="black" stroke="black" points="1480.85,-108.91 1488.82,-101.93 1478.24,-102.42 1480.85,-108.91"/>
</g>
<!-- aggregator_factory&#45;&gt;error -->
<g id="edge62" class="edge">
<title>aggregator_factory&#45;&gt;error</title>
<path fill="none" stroke="black" d="M1116.23,-359.61C1115.07,-341.43 1112.16,-312.22 1105,-288 1085.96,-223.63 1048.62,-153.83 1027.51,-117.06"/>
<polygon fill="black" stroke="black" points="1030.57,-115.37 1022.52,-108.49 1024.52,-118.89 1030.57,-115.37"/>
</g>
<!-- aggregator_factory&#45;&gt;table -->
<g id="edge63" class="edge">
<title>aggregator_factory&#45;&gt;table</title>
<path fill="none" stroke="black" d="M1105.14,-360.05C1099.25,-351.65 1092.03,-341.32 1085.52,-332.02"/>
<polygon fill="black" stroke="black" points="1088.55,-330.25 1079.95,-324.07 1082.82,-334.27 1088.55,-330.25"/>
</g>
<!-- aggregator_factory&#45;&gt;system_addresses -->
<g id="edge64" class="edge">
<title>aggregator_factory&#45;&gt;system_addresses</title>
<path fill="none" stroke="black" d="M1169.93,-364.57C1220.99,-352.57 1298.29,-334.41 1352.38,-321.71"/>
<polygon fill="black" stroke="black" points="1353.15,-325.12 1362.08,-319.43 1351.55,-318.31 1353.15,-325.12"/>
</g>
<!-- aggregator_factory&#45;&gt;aggregator -->
<g id="edge65" class="edge">
<title>aggregator_factory&#45;&gt;aggregator</title>
<path fill="none" stroke="black" d="M1136.67,-360.41C1147.37,-351.39 1160.77,-340.09 1172.48,-330.21"/>
<polygon fill="black" stroke="black" points="1174.5,-333.09 1179.89,-323.96 1169.98,-327.74 1174.5,-333.09"/>
</g>
</g>
</svg>
