<?xml version="1.0" encoding="UTF-8" standalone="no"?>
<!DOCTYPE svg PUBLIC "-//W3C//DTD SVG 1.1//EN"
 "http://www.w3.org/Graphics/SVG/1.1/DTD/svg11.dtd">
<!-- Generated by graphviz version 7.0.0 (20221023.0053)
 -->
<!-- Title: G Pages: 1 -->
<svg width="288pt" height="116pt"
 viewBox="0.00 0.00 288.29 116.00" xmlns="http://www.w3.org/2000/svg" xmlns:xlink="http://www.w3.org/1999/xlink">
<g id="graph0" class="graph" transform="scale(1 1) rotate(0) translate(4 112)">
<title>G</title>
<polygon fill="white" stroke="none" points="-4,4 -4,-112 284.29,-112 284.29,4 -4,4"/>
<!-- get_signer -->
<g id="node1" class="node">
<title>get_signer</title>
<ellipse fill="none" stroke="black" cx="110.4" cy="-18" rx="47.39" ry="18"/>
<text text-anchor="middle" x="110.4" y="-14.3" font-family="Times,serif" font-size="14.00">get_signer</text>
</g>
<!-- resolve -->
<g id="node2" class="node">
<title>resolve</title>
<ellipse fill="none" stroke="black" cx="36.4" cy="-90" rx="36.29" ry="18"/>
<text text-anchor="middle" x="36.4" y="-86.3" font-family="Times,serif" font-size="14.00">resolve</text>
</g>
<!-- resolve&#45;&gt;get_signer -->
<g id="edge1" class="edge">
<title>resolve&#45;&gt;get_signer</title>
<path fill="none" stroke="black" d="M52.82,-73.46C62.29,-64.5 74.41,-53.04 85.08,-42.95"/>
<polygon fill="black" stroke="black" points="87.29,-45.68 92.15,-36.26 82.48,-40.59 87.29,-45.68"/>
</g>
<!-- get_signer_testnet_only -->
<g id="node3" class="node">
<title>get_signer_testnet_only</title>
<ellipse fill="none" stroke="black" cx="185.4" cy="-90" rx="94.78" ry="18"/>
<text text-anchor="middle" x="185.4" y="-86.3" font-family="Times,serif" font-size="14.00">get_signer_testnet_only</text>
</g>
<!-- get_signer_testnet_only&#45;&gt;get_signer -->
<g id="edge2" class="edge">
<title>get_signer_testnet_only&#45;&gt;get_signer</title>
<path fill="none" stroke="black" d="M167.24,-72.05C157.83,-63.27 146.17,-52.39 135.87,-42.77"/>
<polygon fill="black" stroke="black" points="138.42,-40.36 128.72,-36.1 133.64,-45.48 138.42,-40.36"/>
</g>
</g>
</svg>
