<?xml version="1.0" encoding="UTF-8" standalone="no"?>
<!DOCTYPE svg PUBLIC "-//W3C//DTD SVG 1.1//EN"
 "http://www.w3.org/Graphics/SVG/1.1/DTD/svg11.dtd">
<!-- Generated by graphviz version 7.0.0 (20221023.0053)
 -->
<!-- Title: G Pages: 1 -->
<svg width="1788pt" height="531pt"
 viewBox="0.00 0.00 1788.00 531.00" xmlns="http://www.w3.org/2000/svg" xmlns:xlink="http://www.w3.org/1999/xlink">
<g id="graph0" class="graph" transform="scale(1 1) rotate(0) translate(4 527)">
<title>G</title>
<polygon fill="white" stroke="none" points="-4,4 -4,-527 1784,-527 1784,4 -4,4"/>
<g id="clust1" class="cluster">
<title>cluster_account</title>
<polygon fill="none" stroke="black" points="1067,-91 1067,-332 1614,-332 1614,-91 1067,-91"/>
<text text-anchor="middle" x="1340.5" y="-316.8" font-family="Times,serif" font-size="14.00">account</text>
</g>
<g id="clust2" class="cluster">
<title>cluster_coin</title>
<polygon fill="none" stroke="black" points="245,-257 245,-479 606,-479 606,-257 245,-257"/>
<text text-anchor="middle" x="425.5" y="-463.8" font-family="Times,serif" font-size="14.00">coin</text>
</g>
<g id="clust3" class="cluster">
<title>cluster_error</title>
<polygon fill="none" stroke="black" points="8,-8 8,-166 595,-166 595,-8 8,-8"/>
<text text-anchor="middle" x="301.5" y="-150.8" font-family="Times,serif" font-size="14.00">error</text>
</g>
<g id="clust4" class="cluster">
<title>cluster_event</title>
<polygon fill="none" stroke="black" points="603,-8 603,-166 891,-166 891,-8 603,-8"/>
<text text-anchor="middle" x="747" y="-150.8" font-family="Times,serif" font-size="14.00">event</text>
</g>
<g id="clust5" class="cluster">
<title>cluster_signer</title>
<polygon fill="none" stroke="black" points="1622,-8 1622,-166 1772,-166 1772,-8 1622,-8"/>
<text text-anchor="middle" x="1697" y="-150.8" font-family="Times,serif" font-size="14.00">signer</text>
</g>
<g id="clust6" class="cluster">
<title>cluster_bcs</title>
<polygon fill="none" stroke="black" points="1035,-8 1035,-83 1131,-83 1131,-8 1035,-8"/>
<text text-anchor="middle" x="1083" y="-67.8" font-family="Times,serif" font-size="14.00">bcs</text>
</g>
<g id="clust7" class="cluster">
<title>cluster_option</title>
<polygon fill="none" stroke="black" points="899,-91 899,-166 971,-166 971,-91 899,-91"/>
<text text-anchor="middle" x="935" y="-150.8" font-family="Times,serif" font-size="14.00">option</text>
</g>
<g id="clust8" class="cluster">
<title>cluster_guid</title>
<polygon fill="none" stroke="black" points="979,-91 979,-166 1059,-166 1059,-91 979,-91"/>
<text text-anchor="middle" x="1019" y="-150.8" font-family="Times,serif" font-size="14.00">guid</text>
</g>
<g id="clust9" class="cluster">
<title>cluster_type_info</title>
<polygon fill="none" stroke="black" points="859,-174 859,-249 951,-249 951,-174 859,-174"/>
<text text-anchor="middle" x="905" y="-233.8" font-family="Times,serif" font-size="14.00">type_info</text>
</g>
<!-- transfer -->
<g id="node1" class="node">
<title>transfer</title>
<ellipse fill="none" stroke="black" cx="984" cy="-505" rx="37.89" ry="18"/>
<text text-anchor="middle" x="984" y="-501.3" font-family="Times,serif" font-size="14.00">transfer</text>
</g>
<!-- account::exists_at -->
<g id="node2" class="node">
<title>account::exists_at</title>
<ellipse fill="none" stroke="black" cx="1564" cy="-283" rx="41.69" ry="18"/>
<text text-anchor="middle" x="1564" y="-279.3" font-family="Times,serif" font-size="14.00">exists_at</text>
</g>
<!-- transfer&#45;&gt;account::exists_at -->
<g id="edge1" class="edge">
<title>transfer&#45;&gt;account::exists_at</title>
<path fill="none" stroke="black" d="M1019.43,-498.2C1108.08,-482.52 1344.47,-433.48 1514,-332 1524.53,-325.7 1534.61,-316.8 1542.92,-308.37"/>
<polygon fill="black" stroke="black" points="1545.25,-311 1549.56,-301.31 1540.16,-306.2 1545.25,-311"/>
</g>
<!-- coin::transfer -->
<g id="node3" class="node">
<title>coin::transfer</title>
<ellipse fill="none" stroke="black" cx="470" cy="-430" rx="37.89" ry="18"/>
<text text-anchor="middle" x="470" y="-426.3" font-family="Times,serif" font-size="14.00">transfer</text>
</g>
<!-- transfer&#45;&gt;coin::transfer -->
<g id="edge2" class="edge">
<title>transfer&#45;&gt;coin::transfer</title>
<path fill="none" stroke="black" d="M947.86,-498.87C856.98,-485.96 619,-452.16 517.24,-437.71"/>
<polygon fill="black" stroke="black" points="517.99,-434.28 507.6,-436.34 517.01,-441.21 517.99,-434.28"/>
</g>
<!-- create_account -->
<g id="node4" class="node">
<title>create_account</title>
<ellipse fill="none" stroke="black" cx="984" cy="-430" rx="63.89" ry="18"/>
<text text-anchor="middle" x="984" y="-426.3" font-family="Times,serif" font-size="14.00">create_account</text>
</g>
<!-- transfer&#45;&gt;create_account -->
<g id="edge3" class="edge">
<title>transfer&#45;&gt;create_account</title>
<path fill="none" stroke="black" d="M984,-486.7C984,-478.67 984,-468.9 984,-459.8"/>
<polygon fill="black" stroke="black" points="987.5,-459.94 984,-449.94 980.5,-459.94 987.5,-459.94"/>
</g>
<!-- coin::deposit -->
<g id="node5" class="node">
<title>coin::deposit</title>
<ellipse fill="none" stroke="black" cx="470" cy="-358" rx="36.29" ry="18"/>
<text text-anchor="middle" x="470" y="-354.3" font-family="Times,serif" font-size="14.00">deposit</text>
</g>
<!-- coin::transfer&#45;&gt;coin::deposit -->
<g id="edge4" class="edge">
<title>coin::transfer&#45;&gt;coin::deposit</title>
<path fill="none" stroke="black" d="M470,-411.7C470,-404.41 470,-395.73 470,-387.54"/>
<polygon fill="black" stroke="black" points="473.5,-387.62 470,-377.62 466.5,-387.62 473.5,-387.62"/>
</g>
<!-- coin::withdraw -->
<g id="node6" class="node">
<title>coin::withdraw</title>
<ellipse fill="none" stroke="black" cx="371" cy="-358" rx="44.39" ry="18"/>
<text text-anchor="middle" x="371" y="-354.3" font-family="Times,serif" font-size="14.00">withdraw</text>
</g>
<!-- coin::transfer&#45;&gt;coin::withdraw -->
<g id="edge5" class="edge">
<title>coin::transfer&#45;&gt;coin::withdraw</title>
<path fill="none" stroke="black" d="M449.49,-414.5C435.7,-404.75 417.28,-391.72 401.74,-380.74"/>
<polygon fill="black" stroke="black" points="403.94,-378 393.75,-375.09 399.89,-383.72 403.94,-378"/>
</g>
<!-- account::create_account -->
<g id="node7" class="node">
<title>account::create_account</title>
<ellipse fill="none" stroke="black" cx="1270" cy="-283" rx="63.89" ry="18"/>
<text text-anchor="middle" x="1270" y="-279.3" font-family="Times,serif" font-size="14.00">create_account</text>
</g>
<!-- create_account&#45;&gt;account::create_account -->
<g id="edge6" class="edge">
<title>create_account&#45;&gt;account::create_account</title>
<path fill="none" stroke="black" d="M1020.08,-414.75C1063.33,-397.2 1137.55,-365.56 1198,-332 1211.58,-324.46 1225.93,-315.19 1238.22,-306.8"/>
<polygon fill="black" stroke="black" points="1240.1,-309.76 1246.33,-301.19 1236.11,-304 1240.1,-309.76"/>
</g>
<!-- coin::register -->
<g id="node8" class="node">
<title>coin::register</title>
<ellipse fill="none" stroke="black" cx="561" cy="-358" rx="37.09" ry="18"/>
<text text-anchor="middle" x="561" y="-354.3" font-family="Times,serif" font-size="14.00">register</text>
</g>
<!-- create_account&#45;&gt;coin::register -->
<g id="edge7" class="edge">
<title>create_account&#45;&gt;coin::register</title>
<path fill="none" stroke="black" d="M930,-420.06C846.04,-406.17 685.69,-379.63 606.94,-366.6"/>
<polygon fill="black" stroke="black" points="607.87,-363.21 597.43,-365.03 606.72,-370.11 607.87,-363.21"/>
</g>
<!-- error::not_found -->
<g id="node9" class="node">
<title>error::not_found</title>
<ellipse fill="none" stroke="black" cx="63" cy="-117" rx="46.59" ry="18"/>
<text text-anchor="middle" x="63" y="-113.3" font-family="Times,serif" font-size="14.00">not_found</text>
</g>
<!-- coin::deposit&#45;&gt;error::not_found -->
<g id="edge8" class="edge">
<title>coin::deposit&#45;&gt;error::not_found</title>
<path fill="none" stroke="black" d="M496.76,-345.52C502.67,-343.37 508.97,-341.37 515,-340 525,-337.72 600.07,-339.56 607,-332 629.53,-307.43 630.25,-280.89 607,-257 595.57,-245.25 328.01,-252.52 312,-249 220.81,-228.93 198.24,-215.39 119,-166 107.97,-159.12 96.87,-150.15 87.51,-141.82"/>
<polygon fill="black" stroke="black" points="89.96,-139.33 80.23,-135.15 85.23,-144.49 89.96,-139.33"/>
</g>
<!-- error::permission_denied -->
<g id="node10" class="node">
<title>error::permission_denied</title>
<ellipse fill="none" stroke="black" cx="205" cy="-117" rx="77.19" ry="18"/>
<text text-anchor="middle" x="205" y="-113.3" font-family="Times,serif" font-size="14.00">permission_denied</text>
</g>
<!-- coin::deposit&#45;&gt;error::permission_denied -->
<g id="edge9" class="edge">
<title>coin::deposit&#45;&gt;error::permission_denied</title>
<path fill="none" stroke="black" d="M496.73,-345.42C502.65,-343.27 508.96,-341.3 515,-340 528.6,-337.06 630.48,-342.15 640,-332 662.81,-307.69 660.38,-283.38 640,-257 541.99,-130.16 439.74,-225.77 291,-166 273.43,-158.94 254.97,-149.01 239.67,-140.01"/>
<polygon fill="black" stroke="black" points="241.79,-137.2 231.42,-135.04 238.19,-143.2 241.79,-137.2"/>
</g>
<!-- event::emit_event -->
<g id="node11" class="node">
<title>event::emit_event</title>
<ellipse fill="none" stroke="black" cx="661" cy="-117" rx="50.09" ry="18"/>
<text text-anchor="middle" x="661" y="-113.3" font-family="Times,serif" font-size="14.00">emit_event</text>
</g>
<!-- coin::deposit&#45;&gt;event::emit_event -->
<g id="edge10" class="edge">
<title>coin::deposit&#45;&gt;event::emit_event</title>
<path fill="none" stroke="black" d="M496.71,-345.31C502.63,-343.17 508.94,-341.23 515,-340 525.95,-337.77 708.26,-340.06 716,-332 764.66,-281.37 742.58,-239 716,-174 710.81,-161.32 701.22,-149.96 691.47,-140.84"/>
<polygon fill="black" stroke="black" points="693.96,-138.36 684.12,-134.42 689.35,-143.64 693.96,-138.36"/>
</g>
<!-- coin::is_account_registered -->
<g id="node12" class="node">
<title>coin::is_account_registered</title>
<ellipse fill="none" stroke="black" cx="427" cy="-283" rx="87.18" ry="18"/>
<text text-anchor="middle" x="427" y="-279.3" font-family="Times,serif" font-size="14.00">is_account_registered</text>
</g>
<!-- coin::deposit&#45;&gt;coin::is_account_registered -->
<g id="edge11" class="edge">
<title>coin::deposit&#45;&gt;coin::is_account_registered</title>
<path fill="none" stroke="black" d="M460.24,-340.44C455.13,-331.76 448.74,-320.91 442.93,-311.05"/>
<polygon fill="black" stroke="black" points="446.03,-309.41 437.94,-302.57 440,-312.96 446.03,-309.41"/>
</g>
<!-- coin::merge -->
<g id="node13" class="node">
<title>coin::merge</title>
<ellipse fill="none" stroke="black" cx="565" cy="-283" rx="33.29" ry="18"/>
<text text-anchor="middle" x="565" y="-279.3" font-family="Times,serif" font-size="14.00">merge</text>
</g>
<!-- coin::deposit&#45;&gt;coin::merge -->
<g id="edge12" class="edge">
<title>coin::deposit&#45;&gt;coin::merge</title>
<path fill="none" stroke="black" d="M498.19,-346.31C506.58,-342.45 515.53,-337.64 523,-332 531.61,-325.51 539.74,-317.01 546.52,-308.97"/>
<polygon fill="black" stroke="black" points="549.06,-311.39 552.6,-301.4 543.61,-307.01 549.06,-311.39"/>
</g>
<!-- coin::withdraw&#45;&gt;error::not_found -->
<g id="edge14" class="edge">
<title>coin::withdraw&#45;&gt;error::not_found</title>
<path fill="none" stroke="black" d="M327.15,-354.59C284.14,-351.5 222.15,-344.94 202,-332 131.92,-287 89.8,-192.68 72.38,-145.75"/>
<polygon fill="black" stroke="black" points="75.76,-144.81 69.08,-136.59 69.17,-147.18 75.76,-144.81"/>
</g>
<!-- coin::withdraw&#45;&gt;error::permission_denied -->
<g id="edge15" class="edge">
<title>coin::withdraw&#45;&gt;error::permission_denied</title>
<path fill="none" stroke="black" d="M327.51,-353.62C295.48,-350.21 255.56,-343.72 244,-332 194.83,-282.14 196.43,-192.23 201.05,-146.45"/>
<polygon fill="black" stroke="black" points="204.49,-147.13 202.15,-136.8 197.54,-146.34 204.49,-147.13"/>
</g>
<!-- coin::withdraw&#45;&gt;event::emit_event -->
<g id="edge16" class="edge">
<title>coin::withdraw&#45;&gt;event::emit_event</title>
<path fill="none" stroke="black" d="M403.5,-345.27C410.51,-343.16 417.93,-341.25 425,-340 444.93,-336.49 591.31,-344.79 607,-332 662.35,-286.89 665.73,-194.06 663.48,-146.89"/>
<polygon fill="black" stroke="black" points="666.97,-146.68 662.86,-136.91 659.98,-147.11 666.97,-146.68"/>
</g>
<!-- coin::withdraw&#45;&gt;coin::is_account_registered -->
<g id="edge18" class="edge">
<title>coin::withdraw&#45;&gt;coin::is_account_registered</title>
<path fill="none" stroke="black" d="M383.71,-340.44C390.58,-331.48 399.22,-320.22 406.97,-310.12"/>
<polygon fill="black" stroke="black" points="409.53,-312.53 412.84,-302.46 403.97,-308.27 409.53,-312.53"/>
</g>
<!-- signer::address_of -->
<g id="node14" class="node">
<title>signer::address_of</title>
<ellipse fill="none" stroke="black" cx="1679" cy="-117" rx="48.99" ry="18"/>
<text text-anchor="middle" x="1679" y="-113.3" font-family="Times,serif" font-size="14.00">address_of</text>
</g>
<!-- coin::withdraw&#45;&gt;signer::address_of -->
<g id="edge13" class="edge">
<title>coin::withdraw&#45;&gt;signer::address_of</title>
<path fill="none" stroke="black" d="M403.18,-345.15C410.27,-343.03 417.81,-341.13 425,-340 441.37,-337.43 1604.81,-342.03 1618,-332 1633.01,-320.59 1660.59,-202.19 1672.85,-146.57"/>
<polygon fill="black" stroke="black" points="1676.25,-147.4 1674.96,-136.88 1669.41,-145.91 1676.25,-147.4"/>
</g>
<!-- coin::extract -->
<g id="node15" class="node">
<title>coin::extract</title>
<ellipse fill="none" stroke="black" cx="287" cy="-283" rx="34.39" ry="18"/>
<text text-anchor="middle" x="287" y="-279.3" font-family="Times,serif" font-size="14.00">extract</text>
</g>
<!-- coin::withdraw&#45;&gt;coin::extract -->
<g id="edge17" class="edge">
<title>coin::withdraw&#45;&gt;coin::extract</title>
<path fill="none" stroke="black" d="M346.16,-342.93C340.97,-339.6 335.66,-335.87 331,-332 322.66,-325.07 314.4,-316.59 307.32,-308.7"/>
<polygon fill="black" stroke="black" points="310.09,-306.55 300.89,-301.3 304.81,-311.15 310.09,-306.55"/>
</g>
<!-- error::already_exists -->
<g id="node16" class="node">
<title>error::already_exists</title>
<ellipse fill="none" stroke="black" cx="361" cy="-117" rx="61.19" ry="18"/>
<text text-anchor="middle" x="361" y="-113.3" font-family="Times,serif" font-size="14.00">already_exists</text>
</g>
<!-- account::create_account&#45;&gt;error::already_exists -->
<g id="edge19" class="edge">
<title>account::create_account&#45;&gt;error::already_exists</title>
<path fill="none" stroke="black" d="M1235.43,-267.56C1223.75,-263.34 1210.5,-259.26 1198,-257 1122.97,-243.44 929.54,-265.05 855,-249 771.48,-231.02 761.44,-192.37 678,-174 624.58,-162.24 484.03,-182.87 432,-166 416.1,-160.84 400.48,-150.97 387.95,-141.51"/>
<polygon fill="black" stroke="black" points="390.23,-138.84 380.22,-135.38 385.88,-144.33 390.23,-138.84"/>
</g>
<!-- error::invalid_argument -->
<g id="node17" class="node">
<title>error::invalid_argument</title>
<ellipse fill="none" stroke="black" cx="514" cy="-117" rx="73.39" ry="18"/>
<text text-anchor="middle" x="514" y="-113.3" font-family="Times,serif" font-size="14.00">invalid_argument</text>
</g>
<!-- account::create_account&#45;&gt;error::invalid_argument -->
<g id="edge20" class="edge">
<title>account::create_account&#45;&gt;error::invalid_argument</title>
<path fill="none" stroke="black" d="M1235.03,-267.59C1223.44,-263.43 1210.34,-259.37 1198,-257 1159.77,-249.65 1058.22,-265.58 1023,-249 982.29,-229.84 995.93,-192.69 955,-174 919.01,-157.56 637.15,-176.49 599,-166 580.1,-160.8 560.93,-150.51 545.59,-140.77"/>
<polygon fill="black" stroke="black" points="547.64,-137.94 537.36,-135.35 543.79,-143.78 547.64,-137.94"/>
</g>
<!-- account::create_account_unchecked -->
<g id="node18" class="node">
<title>account::create_account_unchecked</title>
<ellipse fill="none" stroke="black" cx="1180" cy="-200" rx="105.08" ry="18"/>
<text text-anchor="middle" x="1180" y="-196.3" font-family="Times,serif" font-size="14.00">create_account_unchecked</text>
</g>
<!-- account::create_account&#45;&gt;account::create_account_unchecked -->
<g id="edge21" class="edge">
<title>account::create_account&#45;&gt;account::create_account_unchecked</title>
<path fill="none" stroke="black" d="M1251.79,-265.61C1239.03,-254.12 1221.75,-238.57 1207.34,-225.61"/>
<polygon fill="black" stroke="black" points="1209.7,-223.03 1199.93,-218.94 1205.02,-228.23 1209.7,-223.03"/>
</g>
<!-- coin::register&#45;&gt;coin::is_account_registered -->
<g id="edge26" class="edge">
<title>coin::register&#45;&gt;coin::is_account_registered</title>
<path fill="none" stroke="black" d="M537.04,-343.95C517.59,-333.35 489.74,-318.18 466.93,-305.75"/>
<polygon fill="black" stroke="black" points="468.63,-302.69 458.17,-300.98 465.28,-308.84 468.63,-302.69"/>
</g>
<!-- coin::register&#45;&gt;signer::address_of -->
<g id="edge22" class="edge">
<title>coin::register&#45;&gt;signer::address_of</title>
<path fill="none" stroke="black" d="M598.4,-356.8C787.58,-355.74 1631,-349.96 1651,-332 1703.06,-285.24 1694.07,-192.83 1685.39,-146.25"/>
<polygon fill="black" stroke="black" points="1688.87,-145.78 1683.47,-136.67 1682,-147.16 1688.87,-145.78"/>
</g>
<!-- coin::register&#45;&gt;error::already_exists -->
<g id="edge23" class="edge">
<title>coin::register&#45;&gt;error::already_exists</title>
<path fill="none" stroke="black" d="M598.09,-356.35C639.04,-354.75 701.15,-349.43 716,-332 737.61,-306.62 737,-282.88 716,-257 705.13,-243.6 691.69,-259.51 678,-249 648.36,-226.25 671.46,-194.17 640,-174 620.53,-161.52 453.98,-173.2 432,-166 416.22,-160.83 400.72,-151.05 388.24,-141.66"/>
<polygon fill="black" stroke="black" points="390.54,-139.02 380.52,-135.58 386.2,-144.52 390.54,-139.02"/>
</g>
<!-- account::new_event_handle -->
<g id="node19" class="node">
<title>account::new_event_handle</title>
<ellipse fill="none" stroke="black" cx="1428" cy="-283" rx="76.89" ry="18"/>
<text text-anchor="middle" x="1428" y="-279.3" font-family="Times,serif" font-size="14.00">new_event_handle</text>
</g>
<!-- coin::register&#45;&gt;account::new_event_handle -->
<g id="edge24" class="edge">
<title>coin::register&#45;&gt;account::new_event_handle</title>
<path fill="none" stroke="black" d="M598.28,-356.85C744.04,-356.14 1270.98,-352.17 1343,-332 1361.74,-326.75 1380.77,-316.55 1396.07,-306.9"/>
<polygon fill="black" stroke="black" points="1397.82,-309.93 1404.27,-301.52 1393.98,-304.08 1397.82,-309.93"/>
</g>
<!-- account::register_coin -->
<g id="node20" class="node">
<title>account::register_coin</title>
<ellipse fill="none" stroke="black" cx="1132" cy="-283" rx="56.59" ry="18"/>
<text text-anchor="middle" x="1132" y="-279.3" font-family="Times,serif" font-size="14.00">register_coin</text>
</g>
<!-- coin::register&#45;&gt;account::register_coin -->
<g id="edge25" class="edge">
<title>coin::register&#45;&gt;account::register_coin</title>
<path fill="none" stroke="black" d="M597.05,-353.46C642.54,-348.92 723.15,-340.58 792,-332 889.44,-319.85 1002.25,-303.46 1070.31,-293.32"/>
<polygon fill="black" stroke="black" points="1070.79,-296.79 1080.17,-291.85 1069.76,-289.87 1070.79,-296.79"/>
</g>
<!-- error::canonical -->
<g id="node21" class="node">
<title>error::canonical</title>
<ellipse fill="none" stroke="black" cx="283" cy="-34" rx="44.39" ry="18"/>
<text text-anchor="middle" x="283" y="-30.3" font-family="Times,serif" font-size="14.00">canonical</text>
</g>
<!-- error::not_found&#45;&gt;error::canonical -->
<g id="edge27" class="edge">
<title>error::not_found&#45;&gt;error::canonical</title>
<path fill="none" stroke="black" d="M91.85,-102.52C100.51,-98.64 110.08,-94.5 119,-91 158.62,-75.43 204.55,-59.96 237.71,-49.24"/>
<polygon fill="black" stroke="black" points="238.54,-52.65 246.99,-46.26 236.4,-45.98 238.54,-52.65"/>
</g>
<!-- error::permission_denied&#45;&gt;error::canonical -->
<g id="edge28" class="edge">
<title>error::permission_denied&#45;&gt;error::canonical</title>
<path fill="none" stroke="black" d="M221.16,-99.22C232.29,-87.66 247.25,-72.13 259.66,-59.23"/>
<polygon fill="black" stroke="black" points="261.93,-61.93 266.34,-52.3 256.88,-57.07 261.93,-61.93"/>
</g>
<!-- bcs::to_bytes -->
<g id="node22" class="node">
<title>bcs::to_bytes</title>
<ellipse fill="none" stroke="black" cx="1083" cy="-34" rx="40.09" ry="18"/>
<text text-anchor="middle" x="1083" y="-30.3" font-family="Times,serif" font-size="14.00">to_bytes</text>
</g>
<!-- event::emit_event&#45;&gt;bcs::to_bytes -->
<g id="edge29" class="edge">
<title>event::emit_event&#45;&gt;bcs::to_bytes</title>
<path fill="none" stroke="black" d="M689.13,-101.68C698.68,-97.47 709.59,-93.36 720,-91 795.93,-73.76 817.99,-94.47 895,-83 945.79,-75.44 1002.76,-59.86 1040.54,-48.49"/>
<polygon fill="black" stroke="black" points="1041.15,-51.97 1049.69,-45.7 1039.11,-45.27 1041.15,-51.97"/>
</g>
<!-- event::write_to_event_store -->
<g id="node23" class="node">
<title>event::write_to_event_store</title>
<ellipse fill="none" stroke="black" cx="696" cy="-34" rx="85.29" ry="18"/>
<text text-anchor="middle" x="696" y="-30.3" font-family="Times,serif" font-size="14.00">write_to_event_store</text>
</g>
<!-- event::emit_event&#45;&gt;event::write_to_event_store -->
<g id="edge30" class="edge">
<title>event::emit_event&#45;&gt;event::write_to_event_store</title>
<path fill="none" stroke="black" d="M668.42,-98.82C672.97,-88.3 678.89,-74.59 684.09,-62.57"/>
<polygon fill="black" stroke="black" points="687.23,-64.11 687.99,-53.54 680.81,-61.33 687.23,-64.11"/>
</g>
<!-- signer::borrow_address -->
<g id="node24" class="node">
<title>signer::borrow_address</title>
<ellipse fill="none" stroke="black" cx="1697" cy="-34" rx="66.89" ry="18"/>
<text text-anchor="middle" x="1697" y="-30.3" font-family="Times,serif" font-size="14.00">borrow_address</text>
</g>
<!-- signer::address_of&#45;&gt;signer::borrow_address -->
<g id="edge31" class="edge">
<title>signer::address_of&#45;&gt;signer::borrow_address</title>
<path fill="none" stroke="black" d="M1682.82,-98.82C1685.09,-88.58 1688.04,-75.33 1690.66,-63.55"/>
<polygon fill="black" stroke="black" points="1694.05,-64.43 1692.8,-53.91 1687.21,-62.91 1694.05,-64.43"/>
</g>
<!-- coin::extract&#45;&gt;error::invalid_argument -->
<g id="edge32" class="edge">
<title>coin::extract&#45;&gt;error::invalid_argument</title>
<path fill="none" stroke="black" d="M306.35,-268.02C345.47,-239.75 434.29,-175.59 482.1,-141.04"/>
<polygon fill="black" stroke="black" points="484.09,-143.93 490.14,-135.23 479.99,-138.25 484.09,-143.93"/>
</g>
<!-- error::already_exists&#45;&gt;error::canonical -->
<g id="edge33" class="edge">
<title>error::already_exists&#45;&gt;error::canonical</title>
<path fill="none" stroke="black" d="M344.84,-99.22C333.71,-87.66 318.75,-72.13 306.34,-59.23"/>
<polygon fill="black" stroke="black" points="309.12,-57.07 299.66,-52.3 304.07,-61.93 309.12,-57.07"/>
</g>
<!-- error::invalid_argument&#45;&gt;error::canonical -->
<g id="edge34" class="edge">
<title>error::invalid_argument&#45;&gt;error::canonical</title>
<path fill="none" stroke="black" d="M473.23,-101.71C432.1,-87.28 368.79,-65.08 326.65,-50.31"/>
<polygon fill="black" stroke="black" points="327.91,-47.04 317.32,-47.03 325.6,-53.65 327.91,-47.04"/>
</g>
<!-- account::create_account_unchecked&#45;&gt;error::invalid_argument -->
<g id="edge36" class="edge">
<title>account::create_account_unchecked&#45;&gt;error::invalid_argument</title>
<path fill="none" stroke="black" d="M1111.48,-185.97C1084.07,-181.31 1052.14,-176.58 1023,-174 976.06,-169.84 644.46,-178.41 599,-166 580.09,-160.84 560.92,-150.54 545.58,-140.81"/>
<polygon fill="black" stroke="black" points="547.63,-137.97 537.36,-135.38 543.77,-143.81 547.63,-137.97"/>
</g>
<!-- account::create_account_unchecked&#45;&gt;bcs::to_bytes -->
<g id="edge37" class="edge">
<title>account::create_account_unchecked&#45;&gt;bcs::to_bytes</title>
<path fill="none" stroke="black" d="M1192.9,-181.67C1195.81,-176.84 1198.49,-171.42 1200,-166 1208.97,-133.9 1217.77,-119.2 1200,-91 1184.73,-66.77 1155.76,-52.79 1130.47,-44.86"/>
<polygon fill="black" stroke="black" points="1131.57,-41.54 1120.99,-42.14 1129.64,-48.26 1131.57,-41.54"/>
</g>
<!-- option::none -->
<g id="node25" class="node">
<title>option::none</title>
<ellipse fill="none" stroke="black" cx="935" cy="-117" rx="27.9" ry="18"/>
<text text-anchor="middle" x="935" y="-113.3" font-family="Times,serif" font-size="14.00">none</text>
</g>
<!-- account::create_account_unchecked&#45;&gt;option::none -->
<g id="edge35" class="edge">
<title>account::create_account_unchecked&#45;&gt;option::none</title>
<path fill="none" stroke="black" d="M1119.4,-184.87C1100.75,-180.9 1080.1,-176.88 1061,-174 1042.02,-171.13 991.99,-174.94 975,-166 965.24,-160.86 956.92,-152.23 950.43,-143.69"/>
<polygon fill="black" stroke="black" points="953.35,-141.75 944.78,-135.52 947.59,-145.74 953.35,-141.75"/>
</g>
<!-- guid::create -->
<g id="node26" class="node">
<title>guid::create</title>
<ellipse fill="none" stroke="black" cx="1019" cy="-117" rx="31.7" ry="18"/>
<text text-anchor="middle" x="1019" y="-113.3" font-family="Times,serif" font-size="14.00">create</text>
</g>
<!-- account::create_account_unchecked&#45;&gt;guid::create -->
<g id="edge38" class="edge">
<title>account::create_account_unchecked&#45;&gt;guid::create</title>
<path fill="none" stroke="black" d="M1110.52,-186.21C1094.19,-181.39 1077.38,-174.85 1063,-166 1053.24,-159.99 1044.32,-151.22 1037.09,-142.81"/>
<polygon fill="black" stroke="black" points="1039.92,-140.74 1030.91,-135.16 1034.47,-145.14 1039.92,-140.74"/>
</g>
<!-- event::new_event_handle -->
<g id="node27" class="node">
<title>event::new_event_handle</title>
<ellipse fill="none" stroke="black" cx="806" cy="-117" rx="76.89" ry="18"/>
<text text-anchor="middle" x="806" y="-113.3" font-family="Times,serif" font-size="14.00">new_event_handle</text>
</g>
<!-- account::create_account_unchecked&#45;&gt;event::new_event_handle -->
<g id="edge39" class="edge">
<title>account::create_account_unchecked&#45;&gt;event::new_event_handle</title>
<path fill="none" stroke="black" d="M1121,-184.67C1101.96,-180.57 1080.68,-176.53 1061,-174 1024.37,-169.3 930.58,-175.9 895,-166 875.39,-160.54 855.29,-150.19 839.16,-140.48"/>
<polygon fill="black" stroke="black" points="841.3,-137.69 830.96,-135.38 837.6,-143.63 841.3,-137.69"/>
</g>
<!-- account::create_signer -->
<g id="node28" class="node">
<title>account::create_signer</title>
<ellipse fill="none" stroke="black" cx="1133" cy="-117" rx="57.69" ry="18"/>
<text text-anchor="middle" x="1133" y="-113.3" font-family="Times,serif" font-size="14.00">create_signer</text>
</g>
<!-- account::create_account_unchecked&#45;&gt;account::create_signer -->
<g id="edge40" class="edge">
<title>account::create_account_unchecked&#45;&gt;account::create_signer</title>
<path fill="none" stroke="black" d="M1170.03,-181.82C1163.8,-171.08 1155.64,-157.03 1148.57,-144.84"/>
<polygon fill="black" stroke="black" points="1151.76,-143.36 1143.71,-136.46 1145.7,-146.87 1151.76,-143.36"/>
</g>
<!-- account::new_event_handle&#45;&gt;event::new_event_handle -->
<g id="edge41" class="edge">
<title>account::new_event_handle&#45;&gt;event::new_event_handle</title>
<path fill="none" stroke="black" d="M1386.55,-267.49C1372.86,-263.33 1357.43,-259.29 1343,-257 1327.8,-254.59 1079.21,-256.91 1066,-249 1033.04,-229.26 1055.63,-194.29 1023,-174 998.8,-158.95 922.4,-173.84 895,-166 875.43,-160.4 855.33,-150.03 839.2,-140.36"/>
<polygon fill="black" stroke="black" points="841.33,-137.56 830.99,-135.27 837.65,-143.51 841.33,-137.56"/>
</g>
<!-- account::create_guid -->
<g id="node29" class="node">
<title>account::create_guid</title>
<ellipse fill="none" stroke="black" cx="1428" cy="-200" rx="51.99" ry="18"/>
<text text-anchor="middle" x="1428" y="-196.3" font-family="Times,serif" font-size="14.00">create_guid</text>
</g>
<!-- account::new_event_handle&#45;&gt;account::create_guid -->
<g id="edge42" class="edge">
<title>account::new_event_handle&#45;&gt;account::create_guid</title>
<path fill="none" stroke="black" d="M1428,-264.82C1428,-254.69 1428,-241.6 1428,-229.92"/>
<polygon fill="black" stroke="black" points="1431.5,-229.95 1428,-219.95 1424.5,-229.95 1431.5,-229.95"/>
</g>
<!-- account::register_coin&#45;&gt;event::emit_event -->
<g id="edge44" class="edge">
<title>account::register_coin&#45;&gt;event::emit_event</title>
<path fill="none" stroke="black" d="M1087.29,-271.67C1069.61,-266.44 1049.59,-259.03 1033,-249 991.84,-224.12 999.3,-192.72 955,-174 906.87,-153.66 768.93,-184.33 720,-166 706.61,-160.98 693.99,-151.62 683.89,-142.49"/>
<polygon fill="black" stroke="black" points="686.43,-140.08 676.79,-135.69 681.59,-145.13 686.43,-140.08"/>
</g>
<!-- type_info::type_of -->
<g id="node30" class="node">
<title>type_info::type_of</title>
<ellipse fill="none" stroke="black" cx="905" cy="-200" rx="37.89" ry="18"/>
<text text-anchor="middle" x="905" y="-196.3" font-family="Times,serif" font-size="14.00">type_of</text>
</g>
<!-- account::register_coin&#45;&gt;type_info::type_of -->
<g id="edge43" class="edge">
<title>account::register_coin&#45;&gt;type_info::type_of</title>
<path fill="none" stroke="black" d="M1076.27,-279.38C1040.57,-275.84 994.15,-267.68 957,-249 945.52,-243.23 934.74,-234.16 926.01,-225.46"/>
<polygon fill="black" stroke="black" points="928.77,-223.28 919.35,-218.44 923.69,-228.1 928.77,-223.28"/>
</g>
<!-- account::create_guid&#45;&gt;signer::address_of -->
<g id="edge45" class="edge">
<title>account::create_guid&#45;&gt;signer::address_of</title>
<path fill="none" stroke="black" d="M1479.59,-196.88C1518.97,-193.67 1573.81,-185.7 1618,-166 1631.14,-160.14 1643.92,-150.83 1654.37,-141.95"/>
<polygon fill="black" stroke="black" points="1656.62,-144.64 1661.76,-135.37 1651.97,-139.41 1656.62,-144.64"/>
</g>
<!-- account::create_guid&#45;&gt;guid::create -->
<g id="edge46" class="edge">
<title>account::create_guid&#45;&gt;guid::create</title>
<path fill="none" stroke="black" d="M1385.4,-189.36C1359.18,-183.86 1324.82,-177.39 1294,-174 1268.47,-171.19 1086.33,-176.75 1063,-166 1052.33,-161.08 1043.07,-152.25 1035.84,-143.49"/>
<polygon fill="black" stroke="black" points="1038.81,-141.61 1029.98,-135.76 1033.23,-145.84 1038.81,-141.61"/>
</g>
</g>
</svg>
