<?xml version="1.0" encoding="UTF-8" standalone="no"?>
<!DOCTYPE svg PUBLIC "-//W3C//DTD SVG 1.1//EN"
 "http://www.w3.org/Graphics/SVG/1.1/DTD/svg11.dtd">
<!-- Generated by graphviz version 7.0.0 (20221023.0053)
 -->
<!-- Title: G Pages: 1 -->
<svg width="928pt" height="467pt"
 viewBox="0.00 0.00 928.00 467.00" xmlns="http://www.w3.org/2000/svg" xmlns:xlink="http://www.w3.org/1999/xlink">
<g id="graph0" class="graph" transform="scale(1 1) rotate(0) translate(4 463)">
<title>G</title>
<polygon fill="white" stroke="none" points="-4,4 -4,-463 924,-463 924,4 -4,4"/>
<g id="clust1" class="cluster">
<title>cluster_error</title>
<polygon fill="none" stroke="black" points="8,-174 8,-332 170,-332 170,-174 8,-174"/>
<text text-anchor="middle" x="89" y="-316.8" font-family="Times,serif" font-size="14.00">error</text>
</g>
<g id="clust2" class="cluster">
<title>cluster_simple_map</title>
<polygon fill="none" stroke="black" points="182,-257 182,-415 406,-415 406,-257 182,-257"/>
<text text-anchor="middle" x="294" y="-399.8" font-family="Times,serif" font-size="14.00">simple_map</text>
</g>
<g id="clust3" class="cluster">
<title>cluster_voting</title>
<polygon fill="none" stroke="black" points="585,-340 585,-415 703,-415 703,-340 585,-340"/>
<text text-anchor="middle" x="644" y="-399.8" font-family="Times,serif" font-size="14.00">voting</text>
</g>
<g id="clust4" class="cluster">
<title>cluster_option</title>
<polygon fill="none" stroke="black" points="248,-91 248,-249 484,-249 484,-91 248,-91"/>
<text text-anchor="middle" x="366" y="-233.8" font-family="Times,serif" font-size="14.00">option</text>
</g>
<g id="clust5" class="cluster">
<title>cluster_table</title>
<polygon fill="none" stroke="black" points="752,-174 752,-332 912,-332 912,-174 752,-174"/>
<text text-anchor="middle" x="832" y="-316.8" font-family="Times,serif" font-size="14.00">table</text>
</g>
<g id="clust6" class="cluster">
<title>cluster_vector</title>
<polygon fill="none" stroke="black" points="255,-8 255,-83 462,-83 462,-8 255,-8"/>
<text text-anchor="middle" x="358.5" y="-67.8" font-family="Times,serif" font-size="14.00">vector</text>
</g>
<g id="clust7" class="cluster">
<title>cluster_comparator</title>
<polygon fill="none" stroke="black" points="492,-91 492,-249 744,-249 744,-91 492,-91"/>
<text text-anchor="middle" x="618" y="-233.8" font-family="Times,serif" font-size="14.00">comparator</text>
</g>
<g id="clust8" class="cluster">
<title>cluster_bcs</title>
<polygon fill="none" stroke="black" points="752,-91 752,-166 848,-166 848,-91 752,-91"/>
<text text-anchor="middle" x="800" y="-150.8" font-family="Times,serif" font-size="14.00">bcs</text>
</g>
<!-- remove_approved_hash -->
<g id="node1" class="node">
<title>remove_approved_hash</title>
<ellipse fill="none" stroke="black" cx="284" cy="-441" rx="94.78" ry="18"/>
<text text-anchor="middle" x="284" y="-437.3" font-family="Times,serif" font-size="14.00">remove_approved_hash</text>
</g>
<!-- error::invalid_argument -->
<g id="node2" class="node">
<title>error::invalid_argument</title>
<ellipse fill="none" stroke="black" cx="89" cy="-283" rx="73.39" ry="18"/>
<text text-anchor="middle" x="89" y="-279.3" font-family="Times,serif" font-size="14.00">invalid_argument</text>
</g>
<!-- remove_approved_hash&#45;&gt;error::invalid_argument -->
<g id="edge1" class="edge">
<title>remove_approved_hash&#45;&gt;error::invalid_argument</title>
<path fill="none" stroke="black" d="M208.9,-429.7C197.95,-426.14 187.27,-421.38 178,-415 140.28,-389.04 113.97,-341.41 100.19,-311.3"/>
<polygon fill="black" stroke="black" points="103.53,-310.19 96.29,-302.45 97.12,-313.01 103.53,-310.19"/>
</g>
<!-- simple_map::remove -->
<g id="node3" class="node">
<title>simple_map::remove</title>
<ellipse fill="none" stroke="black" cx="228" cy="-366" rx="37.89" ry="18"/>
<text text-anchor="middle" x="228" y="-362.3" font-family="Times,serif" font-size="14.00">remove</text>
</g>
<!-- remove_approved_hash&#45;&gt;simple_map::remove -->
<g id="edge2" class="edge">
<title>remove_approved_hash&#45;&gt;simple_map::remove</title>
<path fill="none" stroke="black" d="M270.73,-422.7C263.77,-413.63 255.11,-402.34 247.41,-392.3"/>
<polygon fill="black" stroke="black" points="250.19,-390.18 241.33,-384.38 244.64,-394.44 250.19,-390.18"/>
</g>
<!-- simple_map::contains_key -->
<g id="node4" class="node">
<title>simple_map::contains_key</title>
<ellipse fill="none" stroke="black" cx="341" cy="-366" rx="57.39" ry="18"/>
<text text-anchor="middle" x="341" y="-362.3" font-family="Times,serif" font-size="14.00">contains_key</text>
</g>
<!-- remove_approved_hash&#45;&gt;simple_map::contains_key -->
<g id="edge3" class="edge">
<title>remove_approved_hash&#45;&gt;simple_map::contains_key</title>
<path fill="none" stroke="black" d="M297.51,-422.7C304.44,-413.82 313.04,-402.81 320.75,-392.94"/>
<polygon fill="black" stroke="black" points="323.46,-395.15 326.85,-385.12 317.94,-390.84 323.46,-395.15"/>
</g>
<!-- voting::is_resolved -->
<g id="node5" class="node">
<title>voting::is_resolved</title>
<ellipse fill="none" stroke="black" cx="644" cy="-366" rx="50.89" ry="18"/>
<text text-anchor="middle" x="644" y="-362.3" font-family="Times,serif" font-size="14.00">is_resolved</text>
</g>
<!-- remove_approved_hash&#45;&gt;voting::is_resolved -->
<g id="edge4" class="edge">
<title>remove_approved_hash&#45;&gt;voting::is_resolved</title>
<path fill="none" stroke="black" d="M348.12,-427.36C367.96,-423.43 389.89,-419.06 410,-415 471.59,-402.57 542.24,-388.04 589.65,-378.25"/>
<polygon fill="black" stroke="black" points="590.32,-381.69 599.41,-376.24 588.91,-374.83 590.32,-381.69"/>
</g>
<!-- error::canonical -->
<g id="node6" class="node">
<title>error::canonical</title>
<ellipse fill="none" stroke="black" cx="89" cy="-200" rx="44.39" ry="18"/>
<text text-anchor="middle" x="89" y="-196.3" font-family="Times,serif" font-size="14.00">canonical</text>
</g>
<!-- error::invalid_argument&#45;&gt;error::canonical -->
<g id="edge5" class="edge">
<title>error::invalid_argument&#45;&gt;error::canonical</title>
<path fill="none" stroke="black" d="M89,-264.82C89,-254.69 89,-241.6 89,-229.92"/>
<polygon fill="black" stroke="black" points="92.5,-229.95 89,-219.95 85.5,-229.95 92.5,-229.95"/>
</g>
<!-- simple_map::remove&#45;&gt;error::invalid_argument -->
<g id="edge8" class="edge">
<title>simple_map::remove&#45;&gt;error::invalid_argument</title>
<path fill="none" stroke="black" d="M204.73,-351.44C183.41,-339.01 151.44,-320.39 126.51,-305.86"/>
<polygon fill="black" stroke="black" points="128.36,-302.89 117.96,-300.87 124.84,-308.93 128.36,-302.89"/>
</g>
<!-- option::extract -->
<g id="node7" class="node">
<title>option::extract</title>
<ellipse fill="none" stroke="black" cx="290" cy="-200" rx="34.39" ry="18"/>
<text text-anchor="middle" x="290" y="-196.3" font-family="Times,serif" font-size="14.00">extract</text>
</g>
<!-- simple_map::remove&#45;&gt;option::extract -->
<g id="edge6" class="edge">
<title>simple_map::remove&#45;&gt;option::extract</title>
<path fill="none" stroke="black" d="M234.4,-348.07C245.08,-319.83 266.61,-262.87 279.52,-228.72"/>
<polygon fill="black" stroke="black" points="282.74,-230.09 283.01,-219.5 276.19,-227.62 282.74,-230.09"/>
</g>
<!-- option::is_some -->
<g id="node8" class="node">
<title>option::is_some</title>
<ellipse fill="none" stroke="black" cx="296" cy="-117" rx="40.09" ry="18"/>
<text text-anchor="middle" x="296" y="-113.3" font-family="Times,serif" font-size="14.00">is_some</text>
</g>
<!-- simple_map::remove&#45;&gt;option::is_some -->
<g id="edge7" class="edge">
<title>simple_map::remove&#45;&gt;option::is_some</title>
<path fill="none" stroke="black" d="M224.23,-347.63C217.56,-312.8 206.81,-232.7 234,-174 240.45,-160.08 252.14,-148.11 263.66,-138.85"/>
<polygon fill="black" stroke="black" points="265.64,-141.73 271.53,-132.93 261.44,-136.14 265.64,-141.73"/>
</g>
<!-- simple_map::find -->
<g id="node9" class="node">
<title>simple_map::find</title>
<ellipse fill="none" stroke="black" cx="370" cy="-283" rx="27" ry="18"/>
<text text-anchor="middle" x="370" y="-279.3" font-family="Times,serif" font-size="14.00">find</text>
</g>
<!-- simple_map::remove&#45;&gt;simple_map::find -->
<g id="edge9" class="edge">
<title>simple_map::remove&#45;&gt;simple_map::find</title>
<path fill="none" stroke="black" d="M251.45,-351.62C275.79,-337.74 313.93,-315.99 340.34,-300.92"/>
<polygon fill="black" stroke="black" points="341.92,-304.05 348.87,-296.05 338.45,-297.97 341.92,-304.05"/>
</g>
<!-- simple_map::contains_key&#45;&gt;option::is_some -->
<g id="edge10" class="edge">
<title>simple_map::contains_key&#45;&gt;option::is_some</title>
<path fill="none" stroke="black" d="M321.69,-348.95C298.77,-328.5 261.8,-290.78 247,-249 235.87,-217.58 235.28,-205.2 247,-174 251.63,-161.69 260.33,-150.31 269.12,-141.07"/>
<polygon fill="black" stroke="black" points="271.36,-143.78 276.04,-134.28 266.45,-138.79 271.36,-143.78"/>
</g>
<!-- simple_map::contains_key&#45;&gt;simple_map::find -->
<g id="edge11" class="edge">
<title>simple_map::contains_key&#45;&gt;simple_map::find</title>
<path fill="none" stroke="black" d="M347.15,-347.82C350.9,-337.33 355.79,-323.68 360.08,-311.7"/>
<polygon fill="black" stroke="black" points="363.37,-312.9 363.45,-302.3 356.78,-310.54 363.37,-312.9"/>
</g>
<!-- table::borrow_mut -->
<g id="node10" class="node">
<title>table::borrow_mut</title>
<ellipse fill="none" stroke="black" cx="823" cy="-283" rx="54.69" ry="18"/>
<text text-anchor="middle" x="823" y="-279.3" font-family="Times,serif" font-size="14.00">borrow_mut</text>
</g>
<!-- voting::is_resolved&#45;&gt;table::borrow_mut -->
<g id="edge12" class="edge">
<title>voting::is_resolved&#45;&gt;table::borrow_mut</title>
<path fill="none" stroke="black" d="M674.36,-351.26C703.89,-337.9 748.94,-317.51 781.71,-302.68"/>
<polygon fill="black" stroke="black" points="782.84,-306.02 790.51,-298.7 779.95,-299.64 782.84,-306.02"/>
</g>
<!-- option::extract&#45;&gt;option::is_some -->
<g id="edge13" class="edge">
<title>option::extract&#45;&gt;option::is_some</title>
<path fill="none" stroke="black" d="M291.27,-181.82C292.03,-171.58 293.01,-158.33 293.89,-146.55"/>
<polygon fill="black" stroke="black" points="297.35,-147.17 294.6,-136.94 290.37,-146.66 297.35,-147.17"/>
</g>
<!-- vector::is_empty -->
<g id="node11" class="node">
<title>vector::is_empty</title>
<ellipse fill="none" stroke="black" cx="307" cy="-34" rx="43.59" ry="18"/>
<text text-anchor="middle" x="307" y="-30.3" font-family="Times,serif" font-size="14.00">is_empty</text>
</g>
<!-- option::is_some&#45;&gt;vector::is_empty -->
<g id="edge14" class="edge">
<title>option::is_some&#45;&gt;vector::is_empty</title>
<path fill="none" stroke="black" d="M298.33,-98.82C299.72,-88.58 301.52,-75.33 303.12,-63.55"/>
<polygon fill="black" stroke="black" points="306.55,-64.31 304.43,-53.93 299.62,-63.37 306.55,-64.31"/>
</g>
<!-- option::none -->
<g id="node12" class="node">
<title>option::none</title>
<ellipse fill="none" stroke="black" cx="370" cy="-200" rx="27.9" ry="18"/>
<text text-anchor="middle" x="370" y="-196.3" font-family="Times,serif" font-size="14.00">none</text>
</g>
<!-- simple_map::find&#45;&gt;option::none -->
<g id="edge15" class="edge">
<title>simple_map::find&#45;&gt;option::none</title>
<path fill="none" stroke="black" d="M370,-264.82C370,-254.69 370,-241.6 370,-229.92"/>
<polygon fill="black" stroke="black" points="373.5,-229.95 370,-219.95 366.5,-229.95 373.5,-229.95"/>
</g>
<!-- option::some -->
<g id="node13" class="node">
<title>option::some</title>
<ellipse fill="none" stroke="black" cx="446" cy="-200" rx="29.8" ry="18"/>
<text text-anchor="middle" x="446" y="-196.3" font-family="Times,serif" font-size="14.00">some</text>
</g>
<!-- simple_map::find&#45;&gt;option::some -->
<g id="edge16" class="edge">
<title>simple_map::find&#45;&gt;option::some</title>
<path fill="none" stroke="black" d="M386.36,-268.4C392.99,-262.65 400.58,-255.72 407,-249 413.96,-241.71 421.06,-233.32 427.26,-225.61"/>
<polygon fill="black" stroke="black" points="429.93,-227.87 433.37,-217.85 424.43,-223.54 429.93,-227.87"/>
</g>
<!-- comparator::compare -->
<g id="node14" class="node">
<title>comparator::compare</title>
<ellipse fill="none" stroke="black" cx="694" cy="-200" rx="41.69" ry="18"/>
<text text-anchor="middle" x="694" y="-196.3" font-family="Times,serif" font-size="14.00">compare</text>
</g>
<!-- simple_map::find&#45;&gt;comparator::compare -->
<g id="edge17" class="edge">
<title>simple_map::find&#45;&gt;comparator::compare</title>
<path fill="none" stroke="black" d="M397.27,-280.86C457.46,-277.99 599.76,-269.24 643,-249 654.68,-243.53 665.44,-234.35 674.04,-225.48"/>
<polygon fill="black" stroke="black" points="676.42,-228.06 680.55,-218.31 671.24,-223.35 676.42,-228.06"/>
</g>
<!-- comparator::is_smaller_than -->
<g id="node15" class="node">
<title>comparator::is_smaller_than</title>
<ellipse fill="none" stroke="black" cx="567" cy="-200" rx="66.89" ry="18"/>
<text text-anchor="middle" x="567" y="-196.3" font-family="Times,serif" font-size="14.00">is_smaller_than</text>
</g>
<!-- simple_map::find&#45;&gt;comparator::is_smaller_than -->
<g id="edge18" class="edge">
<title>simple_map::find&#45;&gt;comparator::is_smaller_than</title>
<path fill="none" stroke="black" d="M395.55,-276.98C419.92,-271.69 457.36,-262.29 488,-249 503.99,-242.06 520.64,-232.37 534.5,-223.51"/>
<polygon fill="black" stroke="black" points="536.34,-226.49 542.79,-218.08 532.51,-220.63 536.34,-226.49"/>
</g>
<!-- table::borrow_box_mut -->
<g id="node16" class="node">
<title>table::borrow_box_mut</title>
<ellipse fill="none" stroke="black" cx="832" cy="-200" rx="72.29" ry="18"/>
<text text-anchor="middle" x="832" y="-196.3" font-family="Times,serif" font-size="14.00">borrow_box_mut</text>
</g>
<!-- table::borrow_mut&#45;&gt;table::borrow_box_mut -->
<g id="edge19" class="edge">
<title>table::borrow_mut&#45;&gt;table::borrow_box_mut</title>
<path fill="none" stroke="black" d="M824.91,-264.82C826.05,-254.58 827.52,-241.33 828.83,-229.55"/>
<polygon fill="black" stroke="black" points="832.27,-230.26 829.9,-219.94 825.31,-229.49 832.27,-230.26"/>
</g>
<!-- vector::singleton -->
<g id="node17" class="node">
<title>vector::singleton</title>
<ellipse fill="none" stroke="black" cx="411" cy="-34" rx="42.79" ry="18"/>
<text text-anchor="middle" x="411" y="-30.3" font-family="Times,serif" font-size="14.00">singleton</text>
</g>
<!-- option::some&#45;&gt;vector::singleton -->
<g id="edge20" class="edge">
<title>option::some&#45;&gt;vector::singleton</title>
<path fill="none" stroke="black" d="M442.32,-181.76C436.29,-153.51 424.25,-97.11 416.99,-63.04"/>
<polygon fill="black" stroke="black" points="420.46,-62.54 414.95,-53.49 413.61,-64 420.46,-62.54"/>
</g>
<!-- bcs::to_bytes -->
<g id="node18" class="node">
<title>bcs::to_bytes</title>
<ellipse fill="none" stroke="black" cx="800" cy="-117" rx="40.09" ry="18"/>
<text text-anchor="middle" x="800" y="-113.3" font-family="Times,serif" font-size="14.00">to_bytes</text>
</g>
<!-- comparator::compare&#45;&gt;bcs::to_bytes -->
<g id="edge21" class="edge">
<title>comparator::compare&#45;&gt;bcs::to_bytes</title>
<path fill="none" stroke="black" d="M718.86,-185.2C728.26,-179.63 738.88,-172.89 748,-166 757.71,-158.67 767.68,-149.83 776.27,-141.74"/>
<polygon fill="black" stroke="black" points="778.45,-144.5 783.24,-135.04 773.6,-139.45 778.45,-144.5"/>
</g>
<!-- comparator::compare_u8_vector -->
<g id="node19" class="node">
<title>comparator::compare_u8_vector</title>
<ellipse fill="none" stroke="black" cx="655" cy="-117" rx="81.49" ry="18"/>
<text text-anchor="middle" x="655" y="-113.3" font-family="Times,serif" font-size="14.00">compare_u8_vector</text>
</g>
<!-- comparator::compare&#45;&gt;comparator::compare_u8_vector -->
<g id="edge22" class="edge">
<title>comparator::compare&#45;&gt;comparator::compare_u8_vector</title>
<path fill="none" stroke="black" d="M685.92,-182.22C680.81,-171.61 674.09,-157.65 668.22,-145.45"/>
<polygon fill="black" stroke="black" points="671.49,-144.18 664,-136.68 665.18,-147.21 671.49,-144.18"/>
</g>
</g>
</svg>
