<?xml version="1.0" encoding="UTF-8" standalone="no"?>
<!DOCTYPE svg PUBLIC "-//W3C//DTD SVG 1.1//EN"
 "http://www.w3.org/Graphics/SVG/1.1/DTD/svg11.dtd">
<!-- Generated by graphviz version 7.0.0 (20221023.0053)
 -->
<!-- Title: G Pages: 1 -->
<svg width="388pt" height="299pt"
 viewBox="0.00 0.00 388.00 299.00" xmlns="http://www.w3.org/2000/svg" xmlns:xlink="http://www.w3.org/1999/xlink">
<g id="graph0" class="graph" transform="scale(1 1) rotate(0) translate(4 295)">
<title>G</title>
<polygon fill="white" stroke="none" points="-4,4 -4,-295 384,-295 384,4 -4,4"/>
<g id="clust1" class="cluster">
<title>cluster_genesis</title>
<polygon fill="none" stroke="black" points="8,-64 8,-283 372,-283 372,-64 8,-64"/>
<text text-anchor="middle" x="190" y="-267.8" font-family="Times,serif" font-size="14.00">genesis</text>
</g>
<!-- destroy_mint_cap -->
<g id="node1" class="node">
<title>destroy_mint_cap</title>
<ellipse fill="none" stroke="black" cx="190" cy="-18" rx="74.19" ry="18"/>
<text text-anchor="middle" x="190" y="-14.3" font-family="Times,serif" font-size="14.00">destroy_mint_cap</text>
</g>
<!-- genesis::create_initialize_validators_with_commission -->
<g id="node2" class="node">
<title>genesis::create_initialize_validators_with_commission</title>
<ellipse fill="none" stroke="black" cx="190" cy="-90" rx="173.57" ry="18"/>
<text text-anchor="middle" x="190" y="-86.3" font-family="Times,serif" font-size="14.00">create_initialize_validators_with_commission</text>
</g>
<!-- genesis::create_initialize_validators_with_commission&#45;&gt;destroy_mint_cap -->
<g id="edge1" class="edge">
<title>genesis::create_initialize_validators_with_commission&#45;&gt;destroy_mint_cap</title>
<path fill="none" stroke="black" d="M190,-71.7C190,-64.41 190,-55.73 190,-47.54"/>
<polygon fill="black" stroke="black" points="193.5,-47.62 190,-37.62 186.5,-47.62 193.5,-47.62"/>
</g>
<!-- genesis::create_initialize_validators -->
<g id="node3" class="node">
<title>genesis::create_initialize_validators</title>
<ellipse fill="none" stroke="black" cx="190" cy="-162" rx="105.88" ry="18"/>
<text text-anchor="middle" x="190" y="-158.3" font-family="Times,serif" font-size="14.00">create_initialize_validators</text>
</g>
<!-- genesis::create_initialize_validators&#45;&gt;genesis::create_initialize_validators_with_commission -->
<g id="edge2" class="edge">
<title>genesis::create_initialize_validators&#45;&gt;genesis::create_initialize_validators_with_commission</title>
<path fill="none" stroke="black" d="M190,-143.7C190,-136.41 190,-127.73 190,-119.54"/>
<polygon fill="black" stroke="black" points="193.5,-119.62 190,-109.62 186.5,-119.62 193.5,-119.62"/>
</g>
<!-- genesis::initialize_for_verification -->
<g id="node4" class="node">
<title>genesis::initialize_for_verification</title>
<ellipse fill="none" stroke="black" cx="190" cy="-234" rx="100.98" ry="18"/>
<text text-anchor="middle" x="190" y="-230.3" font-family="Times,serif" font-size="14.00">initialize_for_verification</text>
</g>
<!-- genesis::initialize_for_verification&#45;&gt;genesis::create_initialize_validators -->
<g id="edge3" class="edge">
<title>genesis::initialize_for_verification&#45;&gt;genesis::create_initialize_validators</title>
<path fill="none" stroke="black" d="M190,-215.7C190,-208.41 190,-199.73 190,-191.54"/>
<polygon fill="black" stroke="black" points="193.5,-191.62 190,-181.62 186.5,-191.62 193.5,-191.62"/>
</g>
</g>
</svg>
