<?xml version="1.0" encoding="UTF-8" standalone="no"?>
<!DOCTYPE svg PUBLIC "-//W3C//DTD SVG 1.1//EN"
 "http://www.w3.org/Graphics/SVG/1.1/DTD/svg11.dtd">
<!-- Generated by graphviz version 7.0.0 (20221023.0053)
 -->
<!-- Title: G Pages: 1 -->
<svg width="3150pt" height="836pt"
 viewBox="0.00 0.00 3149.79 836.00" xmlns="http://www.w3.org/2000/svg" xmlns:xlink="http://www.w3.org/1999/xlink">
<g id="graph0" class="graph" transform="scale(1 1) rotate(0) translate(4 832)">
<title>G</title>
<polygon fill="white" stroke="none" points="-4,4 -4,-832 3145.79,-832 3145.79,4 -4,4"/>
<!-- aptos_governance -->
<g id="node1" class="node">
<title>aptos_governance</title>
<ellipse fill="none" stroke="black" cx="1409" cy="-810" rx="74.19" ry="18"/>
<text text-anchor="middle" x="1409" y="-806.3" font-family="Times,serif" font-size="14.00">aptos_governance</text>
</g>
<!-- option -->
<g id="node2" class="node">
<title>option</title>
<ellipse fill="none" stroke="black" cx="436" cy="-90" rx="33.29" ry="18"/>
<text text-anchor="middle" x="436" y="-86.3" font-family="Times,serif" font-size="14.00">option</text>
</g>
<!-- aptos_governance&#45;&gt;option -->
<g id="edge1" class="edge">
<title>aptos_governance&#45;&gt;option</title>
<path fill="none" stroke="black" d="M1334.99,-807.99C1060.39,-803.99 112.74,-787.92 57,-756 16.24,-732.65 0,-713.97 0,-667 0,-667 0,-667 0,-233 0,-162.98 65.13,-170.36 130,-144 218.22,-108.16 330.36,-96.54 391.43,-92.79"/>
<polygon fill="black" stroke="black" points="391.28,-96.3 401.07,-92.24 390.88,-89.31 391.28,-96.3"/>
</g>
<!-- string -->
<g id="node3" class="node">
<title>string</title>
<ellipse fill="none" stroke="black" cx="170" cy="-162" rx="30.59" ry="18"/>
<text text-anchor="middle" x="170" y="-158.3" font-family="Times,serif" font-size="14.00">string</text>
</g>
<!-- aptos_governance&#45;&gt;string -->
<g id="edge2" class="edge">
<title>aptos_governance&#45;&gt;string</title>
<path fill="none" stroke="black" d="M1335.06,-807.73C1089.12,-803.23 307.92,-786.66 199,-756 120.3,-733.85 38,-748.76 38,-667 38,-667 38,-667 38,-305 38,-246.91 97.99,-202.61 137.08,-179.9"/>
<polygon fill="black" stroke="black" points="138.68,-183.02 145.69,-175.08 135.25,-176.92 138.68,-183.02"/>
</g>
<!-- signer -->
<g id="node4" class="node">
<title>signer</title>
<ellipse fill="none" stroke="black" cx="1562" cy="-90" rx="32.49" ry="18"/>
<text text-anchor="middle" x="1562" y="-86.3" font-family="Times,serif" font-size="14.00">signer</text>
</g>
<!-- aptos_governance&#45;&gt;signer -->
<g id="edge3" class="edge">
<title>aptos_governance&#45;&gt;signer</title>
<path fill="none" stroke="black" d="M1483.25,-808.71C1657.11,-806.02 2076,-787.1 2076,-667 2076,-667 2076,-667 2076,-593 2076,-410.98 1811.02,-600.29 1686,-468 1583.82,-359.88 1666.72,-277.95 1602,-144 1597.14,-133.94 1590.22,-123.9 1583.51,-115.3"/>
<polygon fill="black" stroke="black" points="1586.4,-113.31 1577.36,-107.79 1580.98,-117.74 1586.4,-113.31"/>
</g>
<!-- error -->
<g id="node5" class="node">
<title>error</title>
<ellipse fill="none" stroke="black" cx="2076" cy="-90" rx="27.9" ry="18"/>
<text text-anchor="middle" x="2076" y="-86.3" font-family="Times,serif" font-size="14.00">error</text>
</g>
<!-- aptos_governance&#45;&gt;error -->
<g id="edge4" class="edge">
<title>aptos_governance&#45;&gt;error</title>
<path fill="none" stroke="black" d="M1483.19,-808.21C1751.28,-805.06 2660.71,-791.82 2786,-756 2862.75,-734.06 2942,-746.82 2942,-667 2942,-667 2942,-667 2942,-449 2942,-296.54 2918.73,-217.22 2785,-144 2755.42,-127.8 2259.36,-100.62 2115.07,-93.03"/>
<polygon fill="black" stroke="black" points="2115.44,-89.54 2105.27,-92.51 2115.07,-96.53 2115.44,-89.54"/>
</g>
<!-- table -->
<g id="node6" class="node">
<title>table</title>
<ellipse fill="none" stroke="black" cx="726" cy="-306" rx="27.9" ry="18"/>
<text text-anchor="middle" x="726" y="-302.3" font-family="Times,serif" font-size="14.00">table</text>
</g>
<!-- aptos_governance&#45;&gt;table -->
<g id="edge5" class="edge">
<title>aptos_governance&#45;&gt;table</title>
<path fill="none" stroke="black" d="M1335.42,-807.1C1174.19,-800.94 804,-775.02 804,-667 804,-667 804,-667 804,-521 804,-449.46 765.05,-372.16 742.19,-332.97"/>
<polygon fill="black" stroke="black" points="745.26,-331.28 737.13,-324.48 739.25,-334.86 745.26,-331.28"/>
</g>
<!-- system_addresses -->
<g id="node7" class="node">
<title>system_addresses</title>
<ellipse fill="none" stroke="black" cx="2226" cy="-306" rx="73.39" ry="18"/>
<text text-anchor="middle" x="2226" y="-302.3" font-family="Times,serif" font-size="14.00">system_addresses</text>
</g>
<!-- aptos_governance&#45;&gt;system_addresses -->
<g id="edge6" class="edge">
<title>aptos_governance&#45;&gt;system_addresses</title>
<path fill="none" stroke="black" d="M1482.32,-806.82C1647.48,-801.42 2038.25,-785.63 2090,-756 2131.84,-732.05 2152,-715.21 2152,-667 2152,-667 2152,-667 2152,-593 2152,-547.11 2204.01,-440.79 2214,-396 2218.47,-375.97 2221.51,-353.01 2223.42,-335.43"/>
<polygon fill="black" stroke="black" points="2226.88,-336.02 2224.41,-325.72 2219.91,-335.32 2226.88,-336.02"/>
</g>
<!-- event -->
<g id="node8" class="node">
<title>event</title>
<ellipse fill="none" stroke="black" cx="1390" cy="-378" rx="29.8" ry="18"/>
<text text-anchor="middle" x="1390" y="-374.3" font-family="Times,serif" font-size="14.00">event</text>
</g>
<!-- aptos_governance&#45;&gt;event -->
<g id="edge7" class="edge">
<title>aptos_governance&#45;&gt;event</title>
<path fill="none" stroke="black" d="M1377.82,-793.29C1338.51,-771.02 1276,-726.28 1276,-667 1276,-667 1276,-667 1276,-593 1276,-515.45 1335.04,-438.69 1368.14,-401.74"/>
<polygon fill="black" stroke="black" points="1370.37,-404.5 1374.54,-394.76 1365.2,-399.77 1370.37,-404.5"/>
</g>
<!-- account -->
<g id="node9" class="node">
<title>account</title>
<ellipse fill="none" stroke="black" cx="1080" cy="-450" rx="38.19" ry="18"/>
<text text-anchor="middle" x="1080" y="-446.3" font-family="Times,serif" font-size="14.00">account</text>
</g>
<!-- aptos_governance&#45;&gt;account -->
<g id="edge8" class="edge">
<title>aptos_governance&#45;&gt;account</title>
<path fill="none" stroke="black" d="M1350.04,-798.8C1246.29,-779.18 1042,-732.24 1042,-667 1042,-667 1042,-667 1042,-593 1042,-552.18 1056.84,-506.93 1067.97,-478.72"/>
<polygon fill="black" stroke="black" points="1071.2,-480.08 1071.74,-469.49 1064.72,-477.43 1071.2,-480.08"/>
</g>
<!-- coin -->
<g id="node10" class="node">
<title>coin</title>
<ellipse fill="none" stroke="black" cx="1466" cy="-522" rx="27" ry="18"/>
<text text-anchor="middle" x="1466" y="-518.3" font-family="Times,serif" font-size="14.00">coin</text>
</g>
<!-- aptos_governance&#45;&gt;coin -->
<g id="edge9" class="edge">
<title>aptos_governance&#45;&gt;coin</title>
<path fill="none" stroke="black" d="M1412.48,-791.54C1422.02,-743.66 1448.67,-609.95 1460.37,-551.24"/>
<polygon fill="black" stroke="black" points="1463.75,-552.21 1462.27,-541.72 1456.88,-550.84 1463.75,-552.21"/>
</g>
<!-- aptos_coin -->
<g id="node11" class="node">
<title>aptos_coin</title>
<ellipse fill="none" stroke="black" cx="1543" cy="-594" rx="48.99" ry="18"/>
<text text-anchor="middle" x="1543" y="-590.3" font-family="Times,serif" font-size="14.00">aptos_coin</text>
</g>
<!-- aptos_governance&#45;&gt;aptos_coin -->
<g id="edge10" class="edge">
<title>aptos_governance&#45;&gt;aptos_coin</title>
<path fill="none" stroke="black" d="M1419.74,-791.85C1443.07,-754.58 1498.54,-666 1526.41,-621.49"/>
<polygon fill="black" stroke="black" points="1529.25,-623.55 1531.59,-613.22 1523.32,-619.84 1529.25,-623.55"/>
</g>
<!-- timestamp -->
<g id="node12" class="node">
<title>timestamp</title>
<ellipse fill="none" stroke="black" cx="2342" cy="-450" rx="48.19" ry="18"/>
<text text-anchor="middle" x="2342" y="-446.3" font-family="Times,serif" font-size="14.00">timestamp</text>
</g>
<!-- aptos_governance&#45;&gt;timestamp -->
<g id="edge11" class="edge">
<title>aptos_governance&#45;&gt;timestamp</title>
<path fill="none" stroke="black" d="M1482.75,-807.42C1696.04,-802.51 2300.35,-785.98 2330,-756 2403.88,-681.29 2370.51,-539.34 2351.71,-479.13"/>
<polygon fill="black" stroke="black" points="2355.06,-478.1 2348.65,-469.66 2348.4,-480.25 2355.06,-478.1"/>
</g>
<!-- simple_map -->
<g id="node13" class="node">
<title>simple_map</title>
<ellipse fill="none" stroke="black" cx="569" cy="-378" rx="54.69" ry="18"/>
<text text-anchor="middle" x="569" y="-374.3" font-family="Times,serif" font-size="14.00">simple_map</text>
</g>
<!-- aptos_governance&#45;&gt;simple_map -->
<g id="edge12" class="edge">
<title>aptos_governance&#45;&gt;simple_map</title>
<path fill="none" stroke="black" d="M1334.72,-808.71C1059.55,-806.68 114,-790.69 114,-667 114,-667 114,-667 114,-521 114,-439.85 381.06,-399.7 505.98,-385.35"/>
<polygon fill="black" stroke="black" points="506.2,-388.85 515.74,-384.25 505.42,-381.89 506.2,-388.85"/>
</g>
<!-- voting -->
<g id="node14" class="node">
<title>voting</title>
<ellipse fill="none" stroke="black" cx="705" cy="-522" rx="33.29" ry="18"/>
<text text-anchor="middle" x="705" y="-518.3" font-family="Times,serif" font-size="14.00">voting</text>
</g>
<!-- aptos_governance&#45;&gt;voting -->
<g id="edge13" class="edge">
<title>aptos_governance&#45;&gt;voting</title>
<path fill="none" stroke="black" d="M1335.48,-807.09C1180.82,-802.46 832.48,-788.51 790,-756 725.08,-706.32 709.7,-602.19 706.09,-551.68"/>
<polygon fill="black" stroke="black" points="709.59,-551.63 705.5,-541.86 702.61,-552.05 709.59,-551.63"/>
</g>
<!-- staking_config -->
<g id="node15" class="node">
<title>staking_config</title>
<ellipse fill="none" stroke="black" cx="2463" cy="-522" rx="63.09" ry="18"/>
<text text-anchor="middle" x="2463" y="-518.3" font-family="Times,serif" font-size="14.00">staking_config</text>
</g>
<!-- aptos_governance&#45;&gt;staking_config -->
<g id="edge14" class="edge">
<title>aptos_governance&#45;&gt;staking_config</title>
<path fill="none" stroke="black" d="M1483.3,-808.9C1760.04,-808.19 2717.42,-802.36 2762,-756 2795.27,-721.4 2788.6,-687.95 2762,-648 2711.31,-571.87 2604.44,-542.02 2533.17,-530.38"/>
<polygon fill="black" stroke="black" points="2533.97,-526.96 2523.55,-528.89 2532.9,-533.88 2533.97,-526.96"/>
</g>
<!-- stake -->
<g id="node16" class="node">
<title>stake</title>
<ellipse fill="none" stroke="black" cx="1647" cy="-666" rx="28.7" ry="18"/>
<text text-anchor="middle" x="1647" y="-662.3" font-family="Times,serif" font-size="14.00">stake</text>
</g>
<!-- aptos_governance&#45;&gt;stake -->
<g id="edge15" class="edge">
<title>aptos_governance&#45;&gt;stake</title>
<path fill="none" stroke="black" d="M1435.84,-792.99C1480.6,-766.28 1570.17,-712.84 1616.96,-684.92"/>
<polygon fill="black" stroke="black" points="1618.71,-687.95 1625.51,-679.82 1615.13,-681.94 1618.71,-687.95"/>
</g>
<!-- reconfiguration -->
<g id="node17" class="node">
<title>reconfiguration</title>
<ellipse fill="none" stroke="black" cx="2256" cy="-738" rx="64.99" ry="18"/>
<text text-anchor="middle" x="2256" y="-734.3" font-family="Times,serif" font-size="14.00">reconfiguration</text>
</g>
<!-- aptos_governance&#45;&gt;reconfiguration -->
<g id="edge16" class="edge">
<title>aptos_governance&#45;&gt;reconfiguration</title>
<path fill="none" stroke="black" d="M1482.36,-806.71C1617.88,-801.85 1916.43,-788.19 2166,-756 2175.08,-754.83 2184.63,-753.32 2193.98,-751.7"/>
<polygon fill="black" stroke="black" points="2194.53,-755.15 2203.75,-749.93 2193.28,-748.26 2194.53,-755.15"/>
</g>
<!-- governance_proposal -->
<g id="node18" class="node">
<title>governance_proposal</title>
<ellipse fill="none" stroke="black" cx="3056" cy="-738" rx="85.59" ry="18"/>
<text text-anchor="middle" x="3056" y="-734.3" font-family="Times,serif" font-size="14.00">governance_proposal</text>
</g>
<!-- aptos_governance&#45;&gt;governance_proposal -->
<g id="edge17" class="edge">
<title>aptos_governance&#45;&gt;governance_proposal</title>
<path fill="none" stroke="black" d="M1482.79,-807.79C1749.77,-803.19 2664.92,-785.59 2956,-756 2964.75,-755.11 2973.88,-753.92 2982.93,-752.58"/>
<polygon fill="black" stroke="black" points="2983.46,-756.04 2992.8,-751.05 2982.38,-749.13 2983.46,-756.04"/>
</g>
<!-- vector -->
<g id="node19" class="node">
<title>vector</title>
<ellipse fill="none" stroke="black" cx="1072" cy="-18" rx="32.49" ry="18"/>
<text text-anchor="middle" x="1072" y="-14.3" font-family="Times,serif" font-size="14.00">vector</text>
</g>
<!-- option&#45;&gt;vector -->
<g id="edge18" class="edge">
<title>option&#45;&gt;vector</title>
<path fill="none" stroke="black" d="M468.41,-85.43C574.12,-73.8 908.92,-36.95 1028.79,-23.76"/>
<polygon fill="black" stroke="black" points="1028.97,-27.26 1038.53,-22.68 1028.2,-20.3 1028.97,-27.26"/>
</g>
<!-- string&#45;&gt;option -->
<g id="edge20" class="edge">
<title>string&#45;&gt;option</title>
<path fill="none" stroke="black" d="M194.56,-151.08C201.14,-148.6 208.29,-146.06 215,-144 276.41,-125.12 349.1,-108.82 393.89,-99.45"/>
<polygon fill="black" stroke="black" points="394.36,-102.93 403.44,-97.47 392.94,-96.07 394.36,-102.93"/>
</g>
<!-- string&#45;&gt;vector -->
<g id="edge19" class="edge">
<title>string&#45;&gt;vector</title>
<path fill="none" stroke="black" d="M192.48,-149.42C232.03,-129.66 317.16,-89.84 394,-72 515.43,-43.81 897.82,-26.07 1028.06,-20.71"/>
<polygon fill="black" stroke="black" points="1028.14,-24.21 1037.99,-20.31 1027.85,-17.22 1028.14,-24.21"/>
</g>
<!-- system_addresses&#45;&gt;signer -->
<g id="edge21" class="edge">
<title>system_addresses&#45;&gt;signer</title>
<path fill="none" stroke="black" d="M2187.58,-290.34C2109.07,-260.66 1924.25,-192.16 1766,-144 1709.84,-126.91 1643.96,-110.43 1602.59,-100.5"/>
<polygon fill="black" stroke="black" points="1603.62,-97.15 1593.08,-98.23 1601.99,-103.96 1603.62,-97.15"/>
</g>
<!-- system_addresses&#45;&gt;error -->
<g id="edge22" class="edge">
<title>system_addresses&#45;&gt;error</title>
<path fill="none" stroke="black" d="M2217.53,-287.62C2202.22,-257.07 2168.01,-192.35 2130,-144 2121.21,-132.82 2110.19,-121.61 2100.41,-112.41"/>
<polygon fill="black" stroke="black" points="2103.06,-110.09 2093.33,-105.9 2098.33,-115.24 2103.06,-110.09"/>
</g>
<!-- bcs -->
<g id="node20" class="node">
<title>bcs</title>
<ellipse fill="none" stroke="black" cx="837" cy="-234" rx="27" ry="18"/>
<text text-anchor="middle" x="837" y="-230.3" font-family="Times,serif" font-size="14.00">bcs</text>
</g>
<!-- event&#45;&gt;bcs -->
<g id="edge23" class="edge">
<title>event&#45;&gt;bcs</title>
<path fill="none" stroke="black" d="M1360.37,-375.54C1297.9,-371.83 1148.58,-359.67 1029,-324 968.82,-306.05 903.41,-272.39 866.58,-252"/>
<polygon fill="black" stroke="black" points="868.73,-249.2 858.3,-247.37 865.31,-255.31 868.73,-249.2"/>
</g>
<!-- guid -->
<g id="node21" class="node">
<title>guid</title>
<ellipse fill="none" stroke="black" cx="1393" cy="-306" rx="27" ry="18"/>
<text text-anchor="middle" x="1393" y="-302.3" font-family="Times,serif" font-size="14.00">guid</text>
</g>
<!-- event&#45;&gt;guid -->
<g id="edge24" class="edge">
<title>event&#45;&gt;guid</title>
<path fill="none" stroke="black" d="M1390.74,-359.7C1391.05,-352.41 1391.43,-343.73 1391.78,-335.54"/>
<polygon fill="black" stroke="black" points="1395.27,-335.76 1392.2,-325.62 1388.28,-335.46 1395.27,-335.76"/>
</g>
<!-- account&#45;&gt;option -->
<g id="edge26" class="edge">
<title>account&#45;&gt;option</title>
<path fill="none" stroke="black" d="M1042.07,-446.69C917.19,-438.92 525.68,-413.27 505,-396 422.19,-326.83 426.37,-181.22 432.38,-119.56"/>
<polygon fill="black" stroke="black" points="435.83,-120.22 433.42,-109.9 428.87,-119.47 435.83,-120.22"/>
</g>
<!-- account&#45;&gt;signer -->
<g id="edge27" class="edge">
<title>account&#45;&gt;signer</title>
<path fill="none" stroke="black" d="M1087.3,-432.25C1097.49,-408.48 1116.17,-363.46 1129,-324 1154.58,-245.37 1114.16,-198.89 1176,-144 1225.81,-99.79 1427.36,-92.23 1517.76,-91.1"/>
<polygon fill="black" stroke="black" points="1517.76,-94.6 1527.72,-91 1517.69,-87.6 1517.76,-94.6"/>
</g>
<!-- account&#45;&gt;error -->
<g id="edge28" class="edge">
<title>account&#45;&gt;error</title>
<path fill="none" stroke="black" d="M1118.29,-447.93C1281.39,-443.21 1911.33,-423.27 1943,-396 1973.65,-369.61 1962,-347.45 1962,-307 1962,-307 1962,-307 1962,-233 1962,-178.9 2012.93,-133.68 2046.71,-109.64"/>
<polygon fill="black" stroke="black" points="2048.64,-112.56 2054.9,-104.01 2044.67,-106.79 2048.64,-112.56"/>
</g>
<!-- account&#45;&gt;table -->
<g id="edge30" class="edge">
<title>account&#45;&gt;table</title>
<path fill="none" stroke="black" d="M1042.18,-446.99C991.12,-442.99 898.42,-431.1 828,-396 810.6,-387.33 773.07,-352.67 748.71,-329.26"/>
<polygon fill="black" stroke="black" points="751.4,-326.99 741.78,-322.56 746.54,-332.02 751.4,-326.99"/>
</g>
<!-- account&#45;&gt;system_addresses -->
<g id="edge31" class="edge">
<title>account&#45;&gt;system_addresses</title>
<path fill="none" stroke="black" d="M1111.65,-439.65C1146.08,-429.38 1202.66,-412.18 1251,-396 1295.79,-381 1304.73,-369.52 1351,-360 1389.4,-352.1 1933.01,-322.57 2143.55,-311.36"/>
<polygon fill="black" stroke="black" points="2143.52,-314.86 2153.32,-310.84 2143.14,-307.87 2143.52,-314.86"/>
</g>
<!-- account&#45;&gt;event -->
<g id="edge38" class="edge">
<title>account&#45;&gt;event</title>
<path fill="none" stroke="black" d="M1116.18,-443.82C1167.8,-435.96 1265.28,-419.45 1346,-396 1349.1,-395.1 1352.28,-394.08 1355.45,-392.99"/>
<polygon fill="black" stroke="black" points="1356.44,-396.35 1364.63,-389.63 1354.03,-389.78 1356.44,-396.35"/>
</g>
<!-- account&#45;&gt;vector -->
<g id="edge25" class="edge">
<title>account&#45;&gt;vector</title>
<path fill="none" stroke="black" d="M1041.52,-449.21C994.87,-447.47 916.28,-437.9 866,-396 812.06,-351.05 815.78,-320.65 801,-252 797.63,-236.36 790.52,-228.09 801,-216 875.13,-130.53 973.98,-260.97 1053,-180 1087.17,-144.98 1083.7,-83.28 1077.94,-47.28"/>
<polygon fill="black" stroke="black" points="1081.42,-46.85 1076.22,-37.62 1074.53,-48.08 1081.42,-46.85"/>
</g>
<!-- account&#45;&gt;bcs -->
<g id="edge33" class="edge">
<title>account&#45;&gt;bcs</title>
<path fill="none" stroke="black" d="M1042.53,-445.86C1003.28,-440.91 941.54,-428.24 899,-396 857.1,-364.25 843.51,-300.36 839.11,-263.33"/>
<polygon fill="black" stroke="black" points="842.64,-263.41 838.13,-253.82 835.67,-264.13 842.64,-263.41"/>
</g>
<!-- account&#45;&gt;guid -->
<g id="edge36" class="edge">
<title>account&#45;&gt;guid</title>
<path fill="none" stroke="black" d="M1106.96,-436.77C1164.45,-410.69 1298.9,-349.69 1360.78,-321.62"/>
<polygon fill="black" stroke="black" points="1362.07,-324.87 1369.74,-317.55 1359.18,-318.5 1362.07,-324.87"/>
</g>
<!-- type_info -->
<g id="node22" class="node">
<title>type_info</title>
<ellipse fill="none" stroke="black" cx="1300" cy="-234" rx="44.39" ry="18"/>
<text text-anchor="middle" x="1300" y="-230.3" font-family="Times,serif" font-size="14.00">type_info</text>
</g>
<!-- account&#45;&gt;type_info -->
<g id="edge29" class="edge">
<title>account&#45;&gt;type_info</title>
<path fill="none" stroke="black" d="M1102.63,-435.2C1118.3,-425.18 1139.26,-410.83 1156,-396 1205,-352.58 1254.14,-293.51 1280.44,-260.32"/>
<polygon fill="black" stroke="black" points="1282.87,-262.9 1286.3,-252.87 1277.36,-258.57 1282.87,-262.9"/>
</g>
<!-- hash -->
<g id="node23" class="node">
<title>hash</title>
<ellipse fill="none" stroke="black" cx="947" cy="-234" rx="27" ry="18"/>
<text text-anchor="middle" x="947" y="-230.3" font-family="Times,serif" font-size="14.00">hash</text>
</g>
<!-- account&#45;&gt;hash -->
<g id="edge32" class="edge">
<title>account&#45;&gt;hash</title>
<path fill="none" stroke="black" d="M1074.93,-431.94C1069.09,-413.51 1058.52,-383.63 1045,-360 1023.02,-321.59 990.08,-282.21 968.56,-258.17"/>
<polygon fill="black" stroke="black" points="971.25,-255.92 961.94,-250.87 966.06,-260.63 971.25,-255.92"/>
</g>
<!-- ed25519 -->
<g id="node24" class="node">
<title>ed25519</title>
<ellipse fill="none" stroke="black" cx="1079" cy="-306" rx="40.89" ry="18"/>
<text text-anchor="middle" x="1079" y="-302.3" font-family="Times,serif" font-size="14.00">ed25519</text>
</g>
<!-- account&#45;&gt;ed25519 -->
<g id="edge34" class="edge">
<title>account&#45;&gt;ed25519</title>
<path fill="none" stroke="black" d="M1079.88,-431.59C1079.71,-407.61 1079.4,-364.14 1079.2,-335.42"/>
<polygon fill="black" stroke="black" points="1082.7,-335.6 1079.13,-325.62 1075.7,-335.65 1082.7,-335.6"/>
</g>
<!-- multi_ed25519 -->
<g id="node25" class="node">
<title>multi_ed25519</title>
<ellipse fill="none" stroke="black" cx="972" cy="-378" rx="64.19" ry="18"/>
<text text-anchor="middle" x="972" y="-374.3" font-family="Times,serif" font-size="14.00">multi_ed25519</text>
</g>
<!-- account&#45;&gt;multi_ed25519 -->
<g id="edge35" class="edge">
<title>account&#45;&gt;multi_ed25519</title>
<path fill="none" stroke="black" d="M1058.14,-434.83C1043.2,-425.15 1023.1,-412.12 1006.07,-401.08"/>
<polygon fill="black" stroke="black" points="1008.03,-398.18 997.73,-395.68 1004.22,-404.05 1008.03,-398.18"/>
</g>
<!-- from_bcs -->
<g id="node26" class="node">
<title>from_bcs</title>
<ellipse fill="none" stroke="black" cx="300" cy="-378" rx="44.39" ry="18"/>
<text text-anchor="middle" x="300" y="-374.3" font-family="Times,serif" font-size="14.00">from_bcs</text>
</g>
<!-- account&#45;&gt;from_bcs -->
<g id="edge37" class="edge">
<title>account&#45;&gt;from_bcs</title>
<path fill="none" stroke="black" d="M1042.63,-445.89C947.42,-437.95 688.01,-416.09 472,-396 432.41,-392.32 387.71,-387.89 353.81,-384.48"/>
<polygon fill="black" stroke="black" points="354.56,-381.04 344.26,-383.52 353.86,-388 354.56,-381.04"/>
</g>
<!-- coin&#45;&gt;option -->
<g id="edge39" class="edge">
<title>coin&#45;&gt;option</title>
<path fill="none" stroke="black" d="M1439.07,-518.37C1284.17,-503.13 512.15,-425.9 472,-396 386.43,-332.27 412.64,-181.82 428.16,-119.16"/>
<polygon fill="black" stroke="black" points="431.5,-120.21 430.62,-109.65 424.73,-118.46 431.5,-120.21"/>
</g>
<!-- coin&#45;&gt;string -->
<g id="edge40" class="edge">
<title>coin&#45;&gt;string</title>
<path fill="none" stroke="black" d="M1438.82,-520.86C1340.54,-519.97 994.66,-513.59 714,-468 587.17,-447.4 547.53,-456.18 434,-396 420.07,-388.62 257.15,-241.83 194.42,-185.1"/>
<polygon fill="black" stroke="black" points="197.14,-182.85 187.38,-178.74 192.44,-188.04 197.14,-182.85"/>
</g>
<!-- coin&#45;&gt;signer -->
<g id="edge41" class="edge">
<title>coin&#45;&gt;signer</title>
<path fill="none" stroke="black" d="M1473.5,-504.69C1477.81,-494.41 1482.79,-480.71 1485,-468 1487.74,-452.24 1486.43,-447.94 1485,-432 1482.1,-399.61 1479.25,-391.7 1472,-360 1464.6,-327.62 1462.35,-319.56 1452,-288 1436,-239.21 1420.26,-230.5 1411,-180 1408.11,-164.26 1401.75,-157.05 1411,-144 1435.14,-109.95 1482.95,-97.61 1518.34,-93.23"/>
<polygon fill="black" stroke="black" points="1518.26,-96.75 1527.84,-92.22 1517.53,-89.79 1518.26,-96.75"/>
</g>
<!-- coin&#45;&gt;error -->
<g id="edge42" class="edge">
<title>coin&#45;&gt;error</title>
<path fill="none" stroke="black" d="M1493.14,-521.14C1559.97,-520.71 1737.04,-514.87 1875,-468 1935.34,-447.5 1957.57,-444.42 1999,-396 2068.78,-314.46 2076.8,-178.37 2076.76,-119.54"/>
<polygon fill="black" stroke="black" points="2080.26,-119.68 2076.67,-109.72 2073.26,-119.75 2080.26,-119.68"/>
</g>
<!-- coin&#45;&gt;system_addresses -->
<g id="edge44" class="edge">
<title>coin&#45;&gt;system_addresses</title>
<path fill="none" stroke="black" d="M1492.94,-518.65C1607.59,-508.66 2049.11,-470.07 2052,-468 2094.71,-437.42 2062.49,-396.77 2100,-360 2117.48,-342.87 2141.32,-330.94 2163.56,-322.8"/>
<polygon fill="black" stroke="black" points="2164.57,-326.16 2172.89,-319.6 2162.29,-319.54 2164.57,-326.16"/>
</g>
<!-- coin&#45;&gt;event -->
<g id="edge45" class="edge">
<title>coin&#45;&gt;event</title>
<path fill="none" stroke="black" d="M1457.28,-504.71C1444.29,-480.45 1419.73,-434.55 1404.15,-405.43"/>
<polygon fill="black" stroke="black" points="1407.37,-404.04 1399.56,-396.87 1401.2,-407.34 1407.37,-404.04"/>
</g>
<!-- coin&#45;&gt;account -->
<g id="edge46" class="edge">
<title>coin&#45;&gt;account</title>
<path fill="none" stroke="black" d="M1440.07,-516.3C1375.81,-504.64 1208.43,-474.29 1126.52,-459.44"/>
<polygon fill="black" stroke="black" points="1127.26,-456.01 1116.8,-457.67 1126.01,-462.9 1127.26,-456.01"/>
</g>
<!-- coin&#45;&gt;type_info -->
<g id="edge43" class="edge">
<title>coin&#45;&gt;type_info</title>
<path fill="none" stroke="black" d="M1468.49,-503.87C1473.59,-462.05 1480.71,-353.37 1429,-288 1410.25,-264.3 1379.13,-251.11 1352.14,-243.82"/>
<polygon fill="black" stroke="black" points="1353.29,-240.5 1342.74,-241.49 1351.61,-247.29 1353.29,-240.5"/>
</g>
<!-- optional_aggregator -->
<g id="node27" class="node">
<title>optional_aggregator</title>
<ellipse fill="none" stroke="black" cx="1785" cy="-450" rx="81.49" ry="18"/>
<text text-anchor="middle" x="1785" y="-446.3" font-family="Times,serif" font-size="14.00">optional_aggregator</text>
</g>
<!-- coin&#45;&gt;optional_aggregator -->
<g id="edge47" class="edge">
<title>coin&#45;&gt;optional_aggregator</title>
<path fill="none" stroke="black" d="M1491.57,-515.39C1540.12,-504.73 1647.13,-481.25 1717.61,-465.79"/>
<polygon fill="black" stroke="black" points="1718.1,-469.26 1727.12,-463.7 1716.6,-462.43 1718.1,-469.26"/>
</g>
<!-- aptos_coin&#45;&gt;option -->
<g id="edge49" class="edge">
<title>aptos_coin&#45;&gt;option</title>
<path fill="none" stroke="black" d="M1494.15,-591.95C1267.7,-586.6 327.19,-559 237,-468 135.11,-365.19 164.53,-243.14 270,-144 288.11,-126.98 351.36,-109.97 394.34,-99.97"/>
<polygon fill="black" stroke="black" points="394.89,-103.44 403.86,-97.8 393.33,-96.62 394.89,-103.44"/>
</g>
<!-- aptos_coin&#45;&gt;string -->
<g id="edge50" class="edge">
<title>aptos_coin&#45;&gt;string</title>
<path fill="none" stroke="black" d="M1493.89,-592.48C1272.41,-589.95 372.06,-577.43 252,-540 150.79,-508.45 76,-485.01 76,-379 76,-379 76,-379 76,-305 76,-255.65 115.97,-210.28 143.78,-184.68"/>
<polygon fill="black" stroke="black" points="146.04,-187.36 151.19,-178.09 141.39,-182.13 146.04,-187.36"/>
</g>
<!-- aptos_coin&#45;&gt;signer -->
<g id="edge51" class="edge">
<title>aptos_coin&#45;&gt;signer</title>
<path fill="none" stroke="black" d="M1543.65,-575.72C1546.45,-501.88 1557.4,-212.42 1560.91,-119.72"/>
<polygon fill="black" stroke="black" points="1564.4,-120.1 1561.28,-109.98 1557.41,-119.84 1564.4,-120.1"/>
</g>
<!-- aptos_coin&#45;&gt;error -->
<g id="edge52" class="edge">
<title>aptos_coin&#45;&gt;error</title>
<path fill="none" stroke="black" d="M1578.64,-581.36C1585.67,-579.35 1593.02,-577.45 1600,-576 1731.49,-548.71 1781.36,-602.92 1900,-540 2033.35,-469.27 2051.32,-400.19 2080,-252 2089.15,-204.71 2094.78,-191.82 2089,-144 2088.01,-135.78 2086.18,-127.01 2084.2,-119"/>
<polygon fill="black" stroke="black" points="2087.61,-118.22 2081.66,-109.46 2080.85,-120.02 2087.61,-118.22"/>
</g>
<!-- aptos_coin&#45;&gt;system_addresses -->
<g id="edge53" class="edge">
<title>aptos_coin&#45;&gt;system_addresses</title>
<path fill="none" stroke="black" d="M1579.69,-581.66C1586.42,-579.69 1593.41,-577.73 1600,-576 1705.13,-548.45 1983,-522.54 2077,-468 2133.32,-435.32 2131.66,-407.68 2176,-360 2184.53,-350.83 2193.94,-340.83 2202.27,-332"/>
<polygon fill="black" stroke="black" points="2204.8,-334.42 2209.13,-324.75 2199.72,-329.61 2204.8,-334.42"/>
</g>
<!-- aptos_coin&#45;&gt;coin -->
<g id="edge54" class="edge">
<title>aptos_coin&#45;&gt;coin</title>
<path fill="none" stroke="black" d="M1525.14,-576.76C1514.59,-567.17 1501.11,-554.91 1489.68,-544.52"/>
<polygon fill="black" stroke="black" points="1492.29,-542.17 1482.54,-538.04 1487.59,-547.35 1492.29,-542.17"/>
</g>
<!-- aptos_coin&#45;&gt;vector -->
<g id="edge48" class="edge">
<title>aptos_coin&#45;&gt;vector</title>
<path fill="none" stroke="black" d="M1578.62,-581.24C1585.64,-579.24 1593.01,-577.37 1600,-576 1615,-573.05 2683.08,-477.56 2695,-468 2785.79,-395.22 2806.5,-325.09 2766,-216 2751.3,-176.41 2741.25,-163.89 2704,-144 2560.12,-67.15 1361.42,-27.6 1115.85,-20.26"/>
<polygon fill="black" stroke="black" points="1116.17,-16.77 1106.07,-19.97 1115.97,-23.77 1116.17,-16.77"/>
</g>
<!-- timestamp&#45;&gt;error -->
<g id="edge55" class="edge">
<title>timestamp&#45;&gt;error</title>
<path fill="none" stroke="black" d="M2387.8,-443.92C2420.15,-437.89 2462.04,-424.73 2487,-396 2513.53,-365.47 2506,-347.45 2506,-307 2506,-307 2506,-307 2506,-233 2506,-151.05 2220.86,-108.41 2114.97,-95.39"/>
<polygon fill="black" stroke="black" points="2115.4,-91.92 2105.06,-94.2 2114.57,-98.87 2115.4,-91.92"/>
</g>
<!-- timestamp&#45;&gt;system_addresses -->
<g id="edge56" class="edge">
<title>timestamp&#45;&gt;system_addresses</title>
<path fill="none" stroke="black" d="M2331.67,-432.25C2320.01,-413.84 2300.05,-383.73 2280,-360 2271.78,-350.27 2262.03,-340.3 2253.1,-331.68"/>
<polygon fill="black" stroke="black" points="2255.63,-329.25 2245.96,-324.91 2250.81,-334.33 2255.63,-329.25"/>
</g>
<!-- simple_map&#45;&gt;option -->
<g id="edge57" class="edge">
<title>simple_map&#45;&gt;option</title>
<path fill="none" stroke="black" d="M541.07,-362.3C526.23,-353.14 508.86,-340.05 498,-324 497.63,-323.46 459.78,-180.74 443.41,-118.96"/>
<polygon fill="black" stroke="black" points="446.86,-118.32 440.91,-109.55 440.09,-120.11 446.86,-118.32"/>
</g>
<!-- simple_map&#45;&gt;error -->
<g id="edge58" class="edge">
<title>simple_map&#45;&gt;error</title>
<path fill="none" stroke="black" d="M622.84,-374.47C743.99,-368.36 1034.84,-351.26 1129,-324 1162.98,-314.16 1166.77,-300.14 1200,-288 1265.62,-264.03 1286.9,-274.59 1353,-252 1389.51,-239.52 1395.56,-228.67 1432,-216 1495.12,-194.05 1515.1,-202.58 1578,-180 1612.8,-167.51 1617.53,-154.43 1653,-144 1789.99,-103.71 1960.74,-94.04 2036.57,-91.73"/>
<polygon fill="black" stroke="black" points="2036.49,-95.23 2046.39,-91.46 2036.3,-88.23 2036.49,-95.23"/>
</g>
<!-- comparator -->
<g id="node28" class="node">
<title>comparator</title>
<ellipse fill="none" stroke="black" cx="591" cy="-306" rx="51.19" ry="18"/>
<text text-anchor="middle" x="591" y="-302.3" font-family="Times,serif" font-size="14.00">comparator</text>
</g>
<!-- simple_map&#45;&gt;comparator -->
<g id="edge59" class="edge">
<title>simple_map&#45;&gt;comparator</title>
<path fill="none" stroke="black" d="M574.44,-359.7C576.78,-352.24 579.58,-343.32 582.21,-334.97"/>
<polygon fill="black" stroke="black" points="585.51,-336.14 585.17,-325.55 578.83,-334.04 585.51,-336.14"/>
</g>
<!-- voting&#45;&gt;option -->
<g id="edge60" class="edge">
<title>voting&#45;&gt;option</title>
<path fill="none" stroke="black" d="M673.72,-515.28C600.95,-499.95 423.52,-450.2 384,-324 360.09,-247.66 353.74,-218.06 384,-144 389,-131.76 398.35,-120.82 407.75,-112.1"/>
<polygon fill="black" stroke="black" points="409.84,-114.91 415.13,-105.73 405.27,-109.61 409.84,-114.91"/>
</g>
<!-- voting&#45;&gt;string -->
<g id="edge61" class="edge">
<title>voting&#45;&gt;string</title>
<path fill="none" stroke="black" d="M671.29,-521.28C580.64,-521.35 334.37,-516.94 273,-468 186.15,-398.75 172.07,-253.19 170.12,-191.55"/>
<polygon fill="black" stroke="black" points="173.63,-191.82 169.91,-181.9 166.63,-191.97 173.63,-191.82"/>
</g>
<!-- voting&#45;&gt;signer -->
<g id="edge62" class="edge">
<title>voting&#45;&gt;signer</title>
<path fill="none" stroke="black" d="M738.65,-520.84C827.37,-519.79 1065.05,-512.76 1127,-468 1227.55,-395.35 1158.87,-303.3 1247,-216 1323.9,-139.84 1452.93,-108.59 1519.47,-97.03"/>
<polygon fill="black" stroke="black" points="1519.97,-100.5 1529.26,-95.41 1518.82,-93.59 1519.97,-100.5"/>
</g>
<!-- voting&#45;&gt;error -->
<g id="edge63" class="edge">
<title>voting&#45;&gt;error</title>
<path fill="none" stroke="black" d="M738.55,-521.1C824.99,-520.64 1061.85,-514.83 1252,-468 1414.23,-428.05 1780.04,-207.57 1928,-144 1965.69,-127.81 2010.14,-112.36 2040.42,-102.36"/>
<polygon fill="black" stroke="black" points="2041.43,-105.72 2049.85,-99.28 2039.25,-99.06 2041.43,-105.72"/>
</g>
<!-- voting&#45;&gt;table -->
<g id="edge65" class="edge">
<title>voting&#45;&gt;table</title>
<path fill="none" stroke="black" d="M706.68,-503.85C710.28,-467.14 718.77,-380.66 723.2,-335.53"/>
<polygon fill="black" stroke="black" points="726.67,-336.03 724.16,-325.74 719.7,-335.35 726.67,-336.03"/>
</g>
<!-- voting&#45;&gt;event -->
<g id="edge68" class="edge">
<title>voting&#45;&gt;event</title>
<path fill="none" stroke="black" d="M738.56,-519.83C837.54,-516.03 1126.73,-502.21 1214,-468 1238.83,-458.27 1238.83,-445.2 1262,-432 1270.55,-427.13 1320.43,-406.84 1355.34,-392.83"/>
<polygon fill="black" stroke="black" points="1356.24,-396.24 1364.22,-389.27 1353.64,-389.74 1356.24,-396.24"/>
</g>
<!-- voting&#45;&gt;account -->
<g id="edge69" class="edge">
<title>voting&#45;&gt;account</title>
<path fill="none" stroke="black" d="M736.33,-515.15C802.38,-502.82 956.21,-474.11 1033.68,-459.65"/>
<polygon fill="black" stroke="black" points="1034.3,-463.09 1043.49,-457.81 1033.02,-456.21 1034.3,-463.09"/>
</g>
<!-- voting&#45;&gt;timestamp -->
<g id="edge71" class="edge">
<title>voting&#45;&gt;timestamp</title>
<path fill="none" stroke="black" d="M738.44,-519.57C942.27,-510.85 2017.54,-464.87 2282.81,-453.53"/>
<polygon fill="black" stroke="black" points="2282.74,-457.04 2292.58,-453.11 2282.44,-450.04 2282.74,-457.04"/>
</g>
<!-- voting&#45;&gt;simple_map -->
<g id="edge72" class="edge">
<title>voting&#45;&gt;simple_map</title>
<path fill="none" stroke="black" d="M685.2,-507.3C671.28,-497.22 652.61,-482.75 638,-468 618.76,-448.57 599.95,-423.81 586.84,-405.33"/>
<polygon fill="black" stroke="black" points="589.82,-403.49 581.22,-397.29 584.08,-407.5 589.82,-403.49"/>
</g>
<!-- voting&#45;&gt;bcs -->
<g id="edge66" class="edge">
<title>voting&#45;&gt;bcs</title>
<path fill="none" stroke="black" d="M697.26,-504.13C679.63,-462.91 641.5,-355.47 689,-288 713.63,-253.01 763.6,-241 798.64,-236.95"/>
<polygon fill="black" stroke="black" points="798.77,-240.45 808.38,-236 798.09,-233.48 798.77,-240.45"/>
</g>
<!-- voting&#45;&gt;type_info -->
<g id="edge64" class="edge">
<title>voting&#45;&gt;type_info</title>
<path fill="none" stroke="black" d="M738.57,-519.97C832.81,-516.67 1097.93,-504.3 1176,-468 1197.1,-458.19 1195.69,-446.35 1214,-432 1237.29,-413.75 1253.49,-420.56 1270,-396 1296.98,-355.86 1301.35,-297.98 1301.25,-263.65"/>
<polygon fill="black" stroke="black" points="1304.75,-263.6 1301.07,-253.66 1297.75,-263.73 1304.75,-263.6"/>
</g>
<!-- voting&#45;&gt;from_bcs -->
<g id="edge67" class="edge">
<title>voting&#45;&gt;from_bcs</title>
<path fill="none" stroke="black" d="M671.66,-519.28C576.79,-514.07 310.52,-496.94 285,-468 270.29,-451.32 276.5,-425.78 284.96,-406.33"/>
<polygon fill="black" stroke="black" points="288.1,-407.87 289.26,-397.33 281.79,-404.85 288.1,-407.87"/>
</g>
<!-- transaction_context -->
<g id="node29" class="node">
<title>transaction_context</title>
<ellipse fill="none" stroke="black" cx="373" cy="-450" rx="79.09" ry="18"/>
<text text-anchor="middle" x="373" y="-446.3" font-family="Times,serif" font-size="14.00">transaction_context</text>
</g>
<!-- voting&#45;&gt;transaction_context -->
<g id="edge70" class="edge">
<title>voting&#45;&gt;transaction_context</title>
<path fill="none" stroke="black" d="M674.36,-514.54C621.56,-503.41 512.24,-480.36 440.8,-465.29"/>
<polygon fill="black" stroke="black" points="441.66,-461.9 431.15,-463.26 440.22,-468.75 441.66,-461.9"/>
</g>
<!-- staking_config&#45;&gt;error -->
<g id="edge73" class="edge">
<title>staking_config&#45;&gt;error</title>
<path fill="none" stroke="black" d="M2524.29,-517.49C2609.12,-508.95 2752,-479.63 2752,-379 2752,-379 2752,-379 2752,-233 2752,-173.5 2706.58,-167.69 2652,-144 2555.13,-101.96 2228.69,-93.22 2115.24,-91.44"/>
<polygon fill="black" stroke="black" points="2115.58,-87.95 2105.53,-91.3 2115.48,-94.95 2115.58,-87.95"/>
</g>
<!-- staking_config&#45;&gt;system_addresses -->
<g id="edge74" class="edge">
<title>staking_config&#45;&gt;system_addresses</title>
<path fill="none" stroke="black" d="M2452.73,-503.84C2441.05,-485.08 2420.75,-454.65 2399,-432 2358.01,-389.31 2300.82,-351.23 2263.61,-328.63"/>
<polygon fill="black" stroke="black" points="2265.81,-325.86 2255.43,-323.72 2262.21,-331.87 2265.81,-325.86"/>
</g>
<!-- stake&#45;&gt;option -->
<g id="edge76" class="edge">
<title>stake&#45;&gt;option</title>
<path fill="none" stroke="black" d="M1618.08,-664.89C1439.37,-663.66 485.96,-648.62 273,-468 158.56,-370.94 270.22,-257.83 368,-144 378.8,-131.42 392.99,-119.81 405.61,-110.68"/>
<polygon fill="black" stroke="black" points="407.44,-113.67 413.63,-105.07 403.43,-107.93 407.44,-113.67"/>
</g>
<!-- stake&#45;&gt;signer -->
<g id="edge77" class="edge">
<title>stake&#45;&gt;signer</title>
<path fill="none" stroke="black" d="M1664.39,-651.29C1675.17,-641.62 1688.07,-627.64 1694,-612 1699.68,-597.04 1698.54,-591.34 1694,-576 1677.78,-521.15 1647.28,-520.25 1624,-468 1607.32,-430.58 1600,-419.97 1600,-379 1600,-379 1600,-379 1600,-233 1600,-191.95 1585,-146.43 1573.85,-118.26"/>
<polygon fill="black" stroke="black" points="1577.11,-116.99 1570.08,-109.06 1570.63,-119.64 1577.11,-116.99"/>
</g>
<!-- stake&#45;&gt;error -->
<g id="edge78" class="edge">
<title>stake&#45;&gt;error</title>
<path fill="none" stroke="black" d="M1675.92,-664.53C1765.95,-662.65 2049.03,-653.59 2279,-612 2395.31,-590.97 2422.55,-576.4 2535,-540 2664.01,-498.23 2751.67,-521.11 2804,-396 2850.5,-284.84 2811.32,-198.79 2704,-144 2600.5,-91.16 2236.35,-89.52 2115.39,-90.49"/>
<polygon fill="black" stroke="black" points="2115.62,-86.99 2105.65,-90.58 2115.68,-93.99 2115.62,-86.99"/>
</g>
<!-- stake&#45;&gt;system_addresses -->
<g id="edge79" class="edge">
<title>stake&#45;&gt;system_addresses</title>
<path fill="none" stroke="black" d="M1675.48,-662.88C1762.58,-654.84 2027.84,-618.53 2166,-468 2184.22,-448.15 2206.61,-376.13 2218.2,-335.46"/>
<polygon fill="black" stroke="black" points="2221.56,-336.45 2220.9,-325.87 2214.82,-334.55 2221.56,-336.45"/>
</g>
<!-- stake&#45;&gt;event -->
<g id="edge80" class="edge">
<title>stake&#45;&gt;event</title>
<path fill="none" stroke="black" d="M1618.2,-663.82C1578.98,-660.77 1508.56,-649.97 1464,-612 1402.95,-559.97 1391.71,-457.78 1390.01,-407.85"/>
<polygon fill="black" stroke="black" points="1393.51,-407.77 1389.79,-397.85 1386.51,-407.93 1393.51,-407.77"/>
</g>
<!-- stake&#45;&gt;account -->
<g id="edge81" class="edge">
<title>stake&#45;&gt;account</title>
<path fill="none" stroke="black" d="M1619.17,-660.76C1574.9,-653.55 1486.05,-637.2 1414,-612 1299.36,-571.91 1172.28,-503.46 1113.37,-470.23"/>
<polygon fill="black" stroke="black" points="1115.25,-467.28 1104.83,-465.39 1111.8,-473.37 1115.25,-467.28"/>
</g>
<!-- stake&#45;&gt;coin -->
<g id="edge82" class="edge">
<title>stake&#45;&gt;coin</title>
<path fill="none" stroke="black" d="M1618.07,-663.93C1581.54,-660.95 1519.33,-650.17 1485,-612 1470.37,-595.73 1466.01,-571.03 1465.09,-551.77"/>
<polygon fill="black" stroke="black" points="1468.59,-551.78 1464.92,-541.84 1461.59,-551.89 1468.59,-551.78"/>
</g>
<!-- stake&#45;&gt;aptos_coin -->
<g id="edge83" class="edge">
<title>stake&#45;&gt;aptos_coin</title>
<path fill="none" stroke="black" d="M1627.92,-652.16C1613.08,-642.17 1592.16,-628.09 1574.79,-616.4"/>
<polygon fill="black" stroke="black" points="1577.08,-613.72 1566.83,-611.04 1573.17,-619.53 1577.08,-613.72"/>
</g>
<!-- stake&#45;&gt;timestamp -->
<g id="edge84" class="edge">
<title>stake&#45;&gt;timestamp</title>
<path fill="none" stroke="black" d="M1675.79,-663.82C1766.42,-659.8 2044.72,-645.01 2128,-612 2206.83,-580.76 2281.95,-512.32 2318.64,-475.54"/>
<polygon fill="black" stroke="black" points="2321.13,-478 2325.65,-468.41 2316.14,-473.09 2321.13,-478"/>
</g>
<!-- stake&#45;&gt;staking_config -->
<g id="edge85" class="edge">
<title>stake&#45;&gt;staking_config</title>
<path fill="none" stroke="black" d="M1676.07,-664.64C1759.3,-663.1 2005.33,-654.95 2204,-612 2281.28,-595.29 2367.45,-562.73 2418.35,-541.97"/>
<polygon fill="black" stroke="black" points="2419.65,-545.22 2427.57,-538.18 2416.99,-538.75 2419.65,-545.22"/>
</g>
<!-- stake&#45;&gt;vector -->
<g id="edge75" class="edge">
<title>stake&#45;&gt;vector</title>
<path fill="none" stroke="black" d="M1676.02,-664.94C1773.96,-664.3 2100.95,-658.55 2366,-612 2482.41,-591.55 2510.82,-580.11 2622,-540 2696.12,-513.26 2723.56,-518.55 2784,-468 2879.97,-387.72 2942,-360.12 2942,-235 2942,-235 2942,-235 2942,-161 2942,90.13 2633.9,-96.89 2384,-72 1888.31,-22.63 1282.91,-18.93 1116.26,-18.9"/>
<polygon fill="black" stroke="black" points="1116.32,-15.4 1106.32,-18.9 1116.32,-22.4 1116.32,-15.4"/>
</g>
<!-- math64 -->
<g id="node30" class="node">
<title>math64</title>
<ellipse fill="none" stroke="black" cx="1647" cy="-594" rx="37.89" ry="18"/>
<text text-anchor="middle" x="1647" y="-590.3" font-family="Times,serif" font-size="14.00">math64</text>
</g>
<!-- stake&#45;&gt;math64 -->
<g id="edge86" class="edge">
<title>stake&#45;&gt;math64</title>
<path fill="none" stroke="black" d="M1647,-647.7C1647,-640.41 1647,-631.73 1647,-623.54"/>
<polygon fill="black" stroke="black" points="1650.5,-623.62 1647,-613.62 1643.5,-623.62 1650.5,-623.62"/>
</g>
<!-- bls12381 -->
<g id="node31" class="node">
<title>bls12381</title>
<ellipse fill="none" stroke="black" cx="1001" cy="-162" rx="42.79" ry="18"/>
<text text-anchor="middle" x="1001" y="-158.3" font-family="Times,serif" font-size="14.00">bls12381</text>
</g>
<!-- stake&#45;&gt;bls12381 -->
<g id="edge87" class="edge">
<title>stake&#45;&gt;bls12381</title>
<path fill="none" stroke="black" d="M1618.46,-662.16C1561.55,-656.09 1430.24,-640.09 1323,-612 1007.17,-529.28 940.27,-470.33 633,-360 587.75,-343.75 558.77,-363.24 531,-324 427.32,-177.47 802.83,-162.78 946.93,-162.41"/>
<polygon fill="black" stroke="black" points="946.61,-165.91 956.61,-162.41 946.61,-158.91 946.61,-165.91"/>
</g>
<!-- reconfiguration&#45;&gt;signer -->
<g id="edge88" class="edge">
<title>reconfiguration&#45;&gt;signer</title>
<path fill="none" stroke="black" d="M2249.63,-719.64C2232.15,-674.78 2178.72,-554.96 2090,-504 2013.57,-460.1 1754.93,-532.63 1695,-468 1682.76,-454.8 1700.12,-158.89 1690,-144 1671.03,-116.08 1634.38,-102.84 1605.14,-96.58"/>
<polygon fill="black" stroke="black" points="1605.91,-93.16 1595.43,-94.72 1604.6,-100.04 1605.91,-93.16"/>
</g>
<!-- reconfiguration&#45;&gt;error -->
<g id="edge89" class="edge">
<title>reconfiguration&#45;&gt;error</title>
<path fill="none" stroke="black" d="M2320.29,-734.67C2390.14,-730.4 2504.06,-718.29 2596,-684 2709,-641.85 2765.15,-644.13 2826,-540 2882.55,-443.22 2850.42,-399.16 2836,-288 2826.26,-212.92 2813.75,-175.71 2745,-144 2632.01,-91.87 2241.79,-89.84 2115.66,-90.59"/>
<polygon fill="black" stroke="black" points="2115.79,-87.09 2105.81,-90.66 2115.84,-94.09 2115.79,-87.09"/>
</g>
<!-- reconfiguration&#45;&gt;system_addresses -->
<g id="edge90" class="edge">
<title>reconfiguration&#45;&gt;system_addresses</title>
<path fill="none" stroke="black" d="M2258.02,-719.54C2260.95,-692.77 2266,-639.98 2266,-595 2266,-595 2266,-595 2266,-449 2266,-407.85 2250.24,-362.42 2238.51,-334.29"/>
<polygon fill="black" stroke="black" points="2241.87,-333.24 2234.69,-325.44 2235.44,-336.01 2241.87,-333.24"/>
</g>
<!-- reconfiguration&#45;&gt;event -->
<g id="edge91" class="edge">
<title>reconfiguration&#45;&gt;event</title>
<path fill="none" stroke="black" d="M2190.96,-736.71C2015.04,-734.52 1535.91,-718.66 1429,-612 1374.26,-557.39 1378.99,-456.85 1385.29,-407.65"/>
<polygon fill="black" stroke="black" points="1388.75,-408.19 1386.68,-397.8 1381.82,-407.21 1388.75,-408.19"/>
</g>
<!-- reconfiguration&#45;&gt;account -->
<g id="edge92" class="edge">
<title>reconfiguration&#45;&gt;account</title>
<path fill="none" stroke="black" d="M2190.91,-736.4C2022.35,-734.28 1574.89,-724.84 1433,-684 1306.43,-647.57 1279.75,-618.51 1174,-540 1147.55,-520.37 1120.58,-494.04 1102.35,-475.13"/>
<polygon fill="black" stroke="black" points="1105.1,-472.93 1095.67,-468.1 1100.03,-477.76 1105.1,-472.93"/>
</g>
<!-- reconfiguration&#45;&gt;timestamp -->
<g id="edge94" class="edge">
<title>reconfiguration&#45;&gt;timestamp</title>
<path fill="none" stroke="black" d="M2264.51,-720.11C2269.47,-709.84 2275.59,-696.37 2280,-684 2305.76,-611.77 2326.41,-523.59 2336.06,-479.29"/>
<polygon fill="black" stroke="black" points="2339.44,-480.24 2338.12,-469.73 2332.59,-478.77 2339.44,-480.24"/>
</g>
<!-- reconfiguration&#45;&gt;stake -->
<g id="edge95" class="edge">
<title>reconfiguration&#45;&gt;stake</title>
<path fill="none" stroke="black" d="M2196.78,-730.19C2073.16,-715.98 1790.55,-683.5 1686.44,-671.53"/>
<polygon fill="black" stroke="black" points="1687.06,-668.08 1676.73,-670.42 1686.26,-675.04 1687.06,-668.08"/>
</g>
<!-- chain_status -->
<g id="node32" class="node">
<title>chain_status</title>
<ellipse fill="none" stroke="black" cx="2424" cy="-378" rx="53.89" ry="18"/>
<text text-anchor="middle" x="2424" y="-374.3" font-family="Times,serif" font-size="14.00">chain_status</text>
</g>
<!-- reconfiguration&#45;&gt;chain_status -->
<g id="edge93" class="edge">
<title>reconfiguration&#45;&gt;chain_status</title>
<path fill="none" stroke="black" d="M2319.93,-734.1C2407.49,-726.29 2554,-697.87 2554,-595 2554,-595 2554,-595 2554,-521 2554,-466.08 2500.44,-423.16 2462.08,-399.46"/>
<polygon fill="black" stroke="black" points="2463.89,-396.47 2453.51,-394.35 2460.3,-402.48 2463.89,-396.47"/>
</g>
<!-- storage_gas -->
<g id="node33" class="node">
<title>storage_gas</title>
<ellipse fill="none" stroke="black" cx="2634" cy="-450" rx="51.99" ry="18"/>
<text text-anchor="middle" x="2634" y="-446.3" font-family="Times,serif" font-size="14.00">storage_gas</text>
</g>
<!-- reconfiguration&#45;&gt;storage_gas -->
<g id="edge96" class="edge">
<title>reconfiguration&#45;&gt;storage_gas</title>
<path fill="none" stroke="black" d="M2319.89,-734.04C2400.32,-729.01 2532.33,-716.02 2568,-684 2627.13,-630.92 2634.92,-529.23 2634.96,-479.63"/>
<polygon fill="black" stroke="black" points="2638.46,-479.67 2634.84,-469.72 2631.46,-479.76 2638.46,-479.67"/>
</g>
<!-- type_info&#45;&gt;string -->
<g id="edge97" class="edge">
<title>type_info&#45;&gt;string</title>
<path fill="none" stroke="black" d="M1256.05,-230.28C1075.1,-219.07 388.94,-176.56 211.89,-165.59"/>
<polygon fill="black" stroke="black" points="212.21,-162.11 202.01,-164.98 211.78,-169.09 212.21,-162.11"/>
</g>
<!-- type_info&#45;&gt;error -->
<g id="edge98" class="edge">
<title>type_info&#45;&gt;error</title>
<path fill="none" stroke="black" d="M1334.89,-222.5C1342.49,-220.29 1350.5,-218.02 1358,-216 1422.96,-198.54 1440.12,-197.74 1505,-180 1558.3,-165.42 1569.9,-155.26 1624,-144 1774.64,-112.64 1957.67,-98.32 2036.63,-93.26"/>
<polygon fill="black" stroke="black" points="2036.68,-96.77 2046.44,-92.65 2036.24,-89.78 2036.68,-96.77"/>
</g>
<!-- features -->
<g id="node34" class="node">
<title>features</title>
<ellipse fill="none" stroke="black" cx="1458" cy="-162" rx="38.19" ry="18"/>
<text text-anchor="middle" x="1458" y="-158.3" font-family="Times,serif" font-size="14.00">features</text>
</g>
<!-- type_info&#45;&gt;features -->
<g id="edge99" class="edge">
<title>type_info&#45;&gt;features</title>
<path fill="none" stroke="black" d="M1328.98,-220.16C1354.73,-208.75 1392.53,-192 1420.57,-179.58"/>
<polygon fill="black" stroke="black" points="1421.68,-182.92 1429.4,-175.67 1418.84,-176.52 1421.68,-182.92"/>
</g>
<!-- ed25519&#45;&gt;option -->
<g id="edge100" class="edge">
<title>ed25519&#45;&gt;option</title>
<path fill="none" stroke="black" d="M1062.58,-289.19C1021.26,-249.48 915.58,-148.4 906,-144 830.91,-109.48 583.35,-96.48 480.95,-92.5"/>
<polygon fill="black" stroke="black" points="481.12,-89 471,-92.12 480.86,-96 481.12,-89"/>
</g>
<!-- ed25519&#45;&gt;error -->
<g id="edge101" class="edge">
<title>ed25519&#45;&gt;error</title>
<path fill="none" stroke="black" d="M1100.71,-290.5C1152.02,-257.16 1285.83,-175.51 1411,-144 1530.82,-113.84 1912.86,-97.14 2036.78,-92.41"/>
<polygon fill="black" stroke="black" points="2036.58,-95.92 2046.44,-92.05 2036.32,-88.93 2036.58,-95.92"/>
</g>
<!-- ed25519&#45;&gt;bcs -->
<g id="edge104" class="edge">
<title>ed25519&#45;&gt;bcs</title>
<path fill="none" stroke="black" d="M1045.35,-295.27C999.85,-282.11 919.08,-258.74 872.6,-245.3"/>
<polygon fill="black" stroke="black" points="873.6,-241.94 863.02,-242.53 871.65,-248.67 873.6,-241.94"/>
</g>
<!-- ed25519&#45;&gt;type_info -->
<g id="edge102" class="edge">
<title>ed25519&#45;&gt;type_info</title>
<path fill="none" stroke="black" d="M1111.61,-294.67C1149.52,-282.66 1212.33,-262.77 1254.91,-249.28"/>
<polygon fill="black" stroke="black" points="1255.88,-252.65 1264.36,-246.29 1253.77,-245.97 1255.88,-252.65"/>
</g>
<!-- ed25519&#45;&gt;hash -->
<g id="edge103" class="edge">
<title>ed25519&#45;&gt;hash</title>
<path fill="none" stroke="black" d="M1053.55,-291.5C1031.85,-280 1000.6,-263.43 977.56,-251.2"/>
<polygon fill="black" stroke="black" points="979.42,-248.23 968.94,-246.64 976.14,-254.41 979.42,-248.23"/>
</g>
<!-- multi_ed25519&#45;&gt;option -->
<g id="edge105" class="edge">
<title>multi_ed25519&#45;&gt;option</title>
<path fill="none" stroke="black" d="M966.22,-359.76C954.26,-326.72 923.58,-254.38 873,-216 751.87,-124.1 565.51,-99.72 480.74,-93.29"/>
<polygon fill="black" stroke="black" points="481.2,-89.82 470.98,-92.6 480.71,-96.8 481.2,-89.82"/>
</g>
<!-- multi_ed25519&#45;&gt;error -->
<g id="edge106" class="edge">
<title>multi_ed25519&#45;&gt;error</title>
<path fill="none" stroke="black" d="M1022.08,-366.48C1068.46,-356.48 1139.22,-340.54 1200,-324 1264.7,-306.4 1710.85,-159.87 1776,-144 1869.03,-121.35 1980.5,-104.23 2037.82,-96.15"/>
<polygon fill="black" stroke="black" points="2037.95,-99.66 2047.37,-94.81 2036.98,-92.73 2037.95,-99.66"/>
</g>
<!-- multi_ed25519&#45;&gt;bcs -->
<g id="edge108" class="edge">
<title>multi_ed25519&#45;&gt;bcs</title>
<path fill="none" stroke="black" d="M937.6,-362.56C919.33,-353.56 897.51,-340.53 882,-324 865.54,-306.45 853.69,-281.73 846.3,-262.8"/>
<polygon fill="black" stroke="black" points="849.64,-261.73 842.89,-253.56 843.07,-264.16 849.64,-261.73"/>
</g>
<!-- multi_ed25519&#45;&gt;hash -->
<g id="edge107" class="edge">
<title>multi_ed25519&#45;&gt;hash</title>
<path fill="none" stroke="black" d="M968.93,-359.59C964.71,-335.61 957.06,-292.14 952,-263.42"/>
<polygon fill="black" stroke="black" points="955.46,-262.84 950.27,-253.6 948.56,-264.06 955.46,-262.84"/>
</g>
<!-- multi_ed25519&#45;&gt;ed25519 -->
<g id="edge109" class="edge">
<title>multi_ed25519&#45;&gt;ed25519</title>
<path fill="none" stroke="black" d="M996.55,-360.94C1011.57,-351.11 1030.95,-338.43 1047.15,-327.84"/>
<polygon fill="black" stroke="black" points="1049.03,-330.79 1055.48,-322.38 1045.2,-324.93 1049.03,-330.79"/>
</g>
<!-- from_bcs&#45;&gt;string -->
<g id="edge110" class="edge">
<title>from_bcs&#45;&gt;string</title>
<path fill="none" stroke="black" d="M289.8,-360.21C267.25,-323.08 213.01,-233.79 185.93,-189.23"/>
<polygon fill="black" stroke="black" points="188.94,-187.44 180.76,-180.71 182.96,-191.08 188.94,-187.44"/>
</g>
<!-- optional_aggregator&#45;&gt;option -->
<g id="edge111" class="edge">
<title>optional_aggregator&#45;&gt;option</title>
<path fill="none" stroke="black" d="M1760.3,-432.68C1695.91,-390.81 1516.57,-278.52 1353,-216 1224.92,-167.04 1188.35,-165.93 1053,-144 840.4,-109.56 582.73,-96.57 480.7,-92.54"/>
<polygon fill="black" stroke="black" points="480.96,-89.05 470.83,-92.16 480.69,-96.05 480.96,-89.05"/>
</g>
<!-- optional_aggregator&#45;&gt;error -->
<g id="edge112" class="edge">
<title>optional_aggregator&#45;&gt;error</title>
<path fill="none" stroke="black" d="M1862.73,-444.39C1901.2,-438.28 1945.76,-424.88 1976,-396 1996.76,-376.18 2048.88,-190.71 2068.43,-119.06"/>
<polygon fill="black" stroke="black" points="2071.74,-120.23 2070.98,-109.66 2064.98,-118.39 2071.74,-120.23"/>
</g>
<!-- aggregator -->
<g id="node35" class="node">
<title>aggregator</title>
<ellipse fill="none" stroke="black" cx="1819" cy="-306" rx="48.19" ry="18"/>
<text text-anchor="middle" x="1819" y="-302.3" font-family="Times,serif" font-size="14.00">aggregator</text>
</g>
<!-- optional_aggregator&#45;&gt;aggregator -->
<g id="edge113" class="edge">
<title>optional_aggregator&#45;&gt;aggregator</title>
<path fill="none" stroke="black" d="M1777.17,-431.72C1770.01,-413.37 1761.83,-383.79 1771,-360 1775.18,-349.17 1782.71,-339.18 1790.58,-330.86"/>
<polygon fill="black" stroke="black" points="1793.01,-333.38 1797.71,-323.89 1788.11,-328.38 1793.01,-333.38"/>
</g>
<!-- aggregator_factory -->
<g id="node36" class="node">
<title>aggregator_factory</title>
<ellipse fill="none" stroke="black" cx="1857" cy="-378" rx="77.19" ry="18"/>
<text text-anchor="middle" x="1857" y="-374.3" font-family="Times,serif" font-size="14.00">aggregator_factory</text>
</g>
<!-- optional_aggregator&#45;&gt;aggregator_factory -->
<g id="edge114" class="edge">
<title>optional_aggregator&#45;&gt;aggregator_factory</title>
<path fill="none" stroke="black" d="M1802.43,-432.05C1811.18,-423.54 1821.96,-413.07 1831.61,-403.68"/>
<polygon fill="black" stroke="black" points="1833.92,-406.32 1838.65,-396.84 1829.04,-401.31 1833.92,-406.32"/>
</g>
<!-- comparator&#45;&gt;bcs -->
<g id="edge115" class="edge">
<title>comparator&#45;&gt;bcs</title>
<path fill="none" stroke="black" d="M629.98,-293.91C677.19,-280.47 756.03,-258.04 801.58,-245.08"/>
<polygon fill="black" stroke="black" points="802.29,-248.52 810.95,-242.41 800.37,-241.78 802.29,-248.52"/>
</g>
<!-- bls12381&#45;&gt;option -->
<g id="edge116" class="edge">
<title>bls12381&#45;&gt;option</title>
<path fill="none" stroke="black" d="M968.11,-150.06C960.28,-147.77 951.9,-145.58 944,-144 774.85,-110.26 569.46,-97.19 480.56,-92.86"/>
<polygon fill="black" stroke="black" points="480.97,-89.38 470.82,-92.4 480.64,-96.37 480.97,-89.38"/>
</g>
<!-- bls12381&#45;&gt;error -->
<g id="edge117" class="edge">
<title>bls12381&#45;&gt;error</title>
<path fill="none" stroke="black" d="M1043.14,-158.26C1215.92,-147.01 1868.84,-104.49 2036.54,-93.57"/>
<polygon fill="black" stroke="black" points="2036.73,-97.06 2046.48,-92.92 2036.27,-90.08 2036.73,-97.06"/>
</g>
<!-- chain_status&#45;&gt;error -->
<g id="edge118" class="edge">
<title>chain_status&#45;&gt;error</title>
<path fill="none" stroke="black" d="M2406.8,-360.63C2365.22,-321.39 2255.36,-219.59 2156,-144 2139.79,-131.67 2120.83,-119.03 2105.43,-109.19"/>
<polygon fill="black" stroke="black" points="2107.49,-106.36 2097.17,-103.97 2103.75,-112.27 2107.49,-106.36"/>
</g>
<!-- chain_status&#45;&gt;system_addresses -->
<g id="edge119" class="edge">
<title>chain_status&#45;&gt;system_addresses</title>
<path fill="none" stroke="black" d="M2388.14,-364.32C2357.14,-353.36 2311.95,-337.39 2277.15,-325.08"/>
<polygon fill="black" stroke="black" points="2278.73,-321.93 2268.14,-321.9 2276.4,-328.53 2278.73,-321.93"/>
</g>
<!-- storage_gas&#45;&gt;error -->
<g id="edge120" class="edge">
<title>storage_gas&#45;&gt;error</title>
<path fill="none" stroke="black" d="M2658.27,-433.66C2671.1,-424.3 2686.02,-411.23 2695,-396 2715.55,-361.16 2714,-347.45 2714,-307 2714,-307 2714,-307 2714,-233 2714,-109.78 2254.86,-93.43 2115.58,-91.31"/>
<polygon fill="black" stroke="black" points="2115.8,-87.81 2105.75,-91.17 2115.7,-94.81 2115.8,-87.81"/>
</g>
<!-- storage_gas&#45;&gt;system_addresses -->
<g id="edge121" class="edge">
<title>storage_gas&#45;&gt;system_addresses</title>
<path fill="none" stroke="black" d="M2613.3,-433.27C2585.89,-413.22 2535.35,-378.89 2487,-360 2427.72,-336.84 2356.73,-323.27 2303.76,-315.66"/>
<polygon fill="black" stroke="black" points="2304.29,-312.2 2293.9,-314.29 2303.32,-319.14 2304.29,-312.2"/>
</g>
<!-- state_storage -->
<g id="node37" class="node">
<title>state_storage</title>
<ellipse fill="none" stroke="black" cx="2629" cy="-378" rx="56.59" ry="18"/>
<text text-anchor="middle" x="2629" y="-374.3" font-family="Times,serif" font-size="14.00">state_storage</text>
</g>
<!-- storage_gas&#45;&gt;state_storage -->
<g id="edge122" class="edge">
<title>storage_gas&#45;&gt;state_storage</title>
<path fill="none" stroke="black" d="M2632.76,-431.7C2632.24,-424.41 2631.62,-415.73 2631.04,-407.54"/>
<polygon fill="black" stroke="black" points="2634.53,-407.34 2630.33,-397.61 2627.55,-407.84 2634.53,-407.34"/>
</g>
<!-- features&#45;&gt;signer -->
<g id="edge123" class="edge">
<title>features&#45;&gt;signer</title>
<path fill="none" stroke="black" d="M1479.3,-146.67C1494.6,-136.37 1515.42,-122.35 1532.35,-110.96"/>
<polygon fill="black" stroke="black" points="1534.19,-113.93 1540.54,-105.45 1530.29,-108.13 1534.19,-113.93"/>
</g>
<!-- features&#45;&gt;error -->
<g id="edge124" class="edge">
<title>features&#45;&gt;error</title>
<path fill="none" stroke="black" d="M1487.39,-150.13C1494.69,-147.78 1502.56,-145.54 1510,-144 1704.64,-103.6 1943.38,-93.96 2036.33,-91.69"/>
<polygon fill="black" stroke="black" points="2036.27,-95.19 2046.18,-91.47 2036.11,-88.19 2036.27,-95.19"/>
</g>
<!-- aggregator_factory&#45;&gt;error -->
<g id="edge125" class="edge">
<title>aggregator_factory&#45;&gt;error</title>
<path fill="none" stroke="black" d="M1863.29,-359.82C1882.55,-307.34 1939.93,-152.24 1948,-144 1972.34,-119.16 2010.01,-105.48 2038.2,-98.27"/>
<polygon fill="black" stroke="black" points="2038.85,-101.71 2047.77,-95.99 2037.24,-94.9 2038.85,-101.71"/>
</g>
<!-- aggregator_factory&#45;&gt;table -->
<g id="edge126" class="edge">
<title>aggregator_factory&#45;&gt;table</title>
<path fill="none" stroke="black" d="M1783.23,-372.43C1565.27,-358.94 929.25,-319.58 765.05,-309.42"/>
<polygon fill="black" stroke="black" points="765.33,-305.93 755.13,-308.8 764.9,-312.91 765.33,-305.93"/>
</g>
<!-- aggregator_factory&#45;&gt;system_addresses -->
<g id="edge127" class="edge">
<title>aggregator_factory&#45;&gt;system_addresses</title>
<path fill="none" stroke="black" d="M1915.47,-365.91C1981.4,-353.4 2088.46,-333.09 2158.06,-319.89"/>
<polygon fill="black" stroke="black" points="2158.66,-323.34 2167.83,-318.03 2157.35,-316.46 2158.66,-323.34"/>
</g>
<!-- aggregator_factory&#45;&gt;aggregator -->
<g id="edge128" class="edge">
<title>aggregator_factory&#45;&gt;aggregator</title>
<path fill="none" stroke="black" d="M1847.61,-359.7C1843.42,-351.98 1838.39,-342.71 1833.72,-334.11"/>
<polygon fill="black" stroke="black" points="1836.85,-332.55 1829.01,-325.43 1830.7,-335.89 1836.85,-332.55"/>
</g>
<!-- state_storage&#45;&gt;error -->
<g id="edge129" class="edge">
<title>state_storage&#45;&gt;error</title>
<path fill="none" stroke="black" d="M2626.63,-359.65C2619.58,-315.36 2594.37,-197.77 2520,-144 2455.84,-97.61 2212.01,-91.5 2115.58,-90.93"/>
<polygon fill="black" stroke="black" points="2115.84,-87.43 2105.83,-90.89 2115.81,-94.43 2115.84,-87.43"/>
</g>
<!-- state_storage&#45;&gt;system_addresses -->
<g id="edge130" class="edge">
<title>state_storage&#45;&gt;system_addresses</title>
<path fill="none" stroke="black" d="M2585.56,-366.04C2576.48,-363.91 2566.95,-361.78 2558,-360 2469.93,-342.45 2367.81,-326.86 2300.33,-317.2"/>
<polygon fill="black" stroke="black" points="2300.87,-313.74 2290.48,-315.8 2299.88,-320.67 2300.87,-313.74"/>
</g>
</g>
</svg>
