<?xml version="1.0" encoding="UTF-8" standalone="no"?>
<!DOCTYPE svg PUBLIC "-//W3C//DTD SVG 1.1//EN"
 "http://www.w3.org/Graphics/SVG/1.1/DTD/svg11.dtd">
<!-- Generated by graphviz version 7.0.0 (20221023.0053)
 -->
<!-- Title: G Pages: 1 -->
<svg width="1523pt" height="332pt"
 viewBox="0.00 0.00 1523.24 332.00" xmlns="http://www.w3.org/2000/svg" xmlns:xlink="http://www.w3.org/1999/xlink">
<g id="graph0" class="graph" transform="scale(1 1) rotate(0) translate(4 328)">
<title>G</title>
<polygon fill="white" stroke="none" points="-4,4 -4,-328 1519.24,-328 1519.24,4 -4,4"/>
<!-- aptos_coin -->
<g id="node1" class="node">
<title>aptos_coin</title>
<ellipse fill="none" stroke="black" cx="1007.09" cy="-18" rx="48.99" ry="18"/>
<text text-anchor="middle" x="1007.09" y="-14.3" font-family="Times,serif" font-size="14.00">aptos_coin</text>
</g>
<!-- aptos_account -->
<g id="node2" class="node">
<title>aptos_account</title>
<ellipse fill="none" stroke="black" cx="61.09" cy="-90" rx="61.19" ry="18"/>
<text text-anchor="middle" x="61.09" y="-86.3" font-family="Times,serif" font-size="14.00">aptos_account</text>
</g>
<!-- aptos_account&#45;&gt;aptos_coin -->
<g id="edge1" class="edge">
<title>aptos_account&#45;&gt;aptos_coin</title>
<path fill="none" stroke="black" d="M106.09,-77.56C115.92,-75.41 126.31,-73.4 136.09,-72 438.42,-28.83 804.69,-20.78 946.74,-19.31"/>
<polygon fill="black" stroke="black" points="946.7,-22.81 956.67,-19.22 946.64,-15.82 946.7,-22.81"/>
</g>
<!-- stake -->
<g id="node3" class="node">
<title>stake</title>
<ellipse fill="none" stroke="black" cx="439.09" cy="-90" rx="28.7" ry="18"/>
<text text-anchor="middle" x="439.09" y="-86.3" font-family="Times,serif" font-size="14.00">stake</text>
</g>
<!-- stake&#45;&gt;aptos_coin -->
<g id="edge2" class="edge">
<title>stake&#45;&gt;aptos_coin</title>
<path fill="none" stroke="black" d="M467.26,-85.53C555.85,-74.61 829.99,-40.83 949.93,-26.04"/>
<polygon fill="black" stroke="black" points="950.05,-29.56 959.54,-24.86 949.19,-22.61 950.05,-29.56"/>
</g>
<!-- aptos_governance -->
<g id="node4" class="node">
<title>aptos_governance</title>
<ellipse fill="none" stroke="black" cx="1007.09" cy="-234" rx="74.19" ry="18"/>
<text text-anchor="middle" x="1007.09" y="-230.3" font-family="Times,serif" font-size="14.00">aptos_governance</text>
</g>
<!-- aptos_governance&#45;&gt;aptos_coin -->
<g id="edge3" class="edge">
<title>aptos_governance&#45;&gt;aptos_coin</title>
<path fill="none" stroke="black" d="M1007.09,-215.85C1007.09,-179.14 1007.09,-92.66 1007.09,-47.53"/>
<polygon fill="black" stroke="black" points="1010.59,-47.75 1007.09,-37.75 1003.59,-47.75 1010.59,-47.75"/>
</g>
<!-- aptos_governance&#45;&gt;stake -->
<g id="edge12" class="edge">
<title>aptos_governance&#45;&gt;stake</title>
<path fill="none" stroke="black" d="M962.23,-219.27C901.37,-200.89 789.09,-167.83 692.09,-144 616.65,-125.46 527.54,-107.76 477.75,-98.24"/>
<polygon fill="black" stroke="black" points="478.53,-94.82 468.05,-96.39 477.22,-101.7 478.53,-94.82"/>
</g>
<!-- reconfiguration -->
<g id="node11" class="node">
<title>reconfiguration</title>
<ellipse fill="none" stroke="black" cx="618.09" cy="-162" rx="64.99" ry="18"/>
<text text-anchor="middle" x="618.09" y="-158.3" font-family="Times,serif" font-size="14.00">reconfiguration</text>
</g>
<!-- aptos_governance&#45;&gt;reconfiguration -->
<g id="edge27" class="edge">
<title>aptos_governance&#45;&gt;reconfiguration</title>
<path fill="none" stroke="black" d="M952.23,-221.52C942.85,-219.62 933.2,-217.72 924.09,-216 841.55,-200.4 746.14,-184.16 684.1,-173.83"/>
<polygon fill="black" stroke="black" points="684.84,-170.41 674.4,-172.22 683.69,-177.31 684.84,-170.41"/>
</g>
<!-- staking_contract -->
<g id="node5" class="node">
<title>staking_contract</title>
<ellipse fill="none" stroke="black" cx="285.09" cy="-162" rx="68.79" ry="18"/>
<text text-anchor="middle" x="285.09" y="-158.3" font-family="Times,serif" font-size="14.00">staking_contract</text>
</g>
<!-- staking_contract&#45;&gt;aptos_coin -->
<g id="edge4" class="edge">
<title>staking_contract&#45;&gt;aptos_coin</title>
<path fill="none" stroke="black" d="M300.86,-144.02C321.58,-122.96 360.17,-87.91 401.09,-72 499.49,-33.74 813.79,-22.92 946.76,-20.01"/>
<polygon fill="black" stroke="black" points="946.48,-23.51 956.41,-19.81 946.33,-16.52 946.48,-23.51"/>
</g>
<!-- staking_contract&#45;&gt;stake -->
<g id="edge14" class="edge">
<title>staking_contract&#45;&gt;stake</title>
<path fill="none" stroke="black" d="M318.51,-145.81C344.36,-134.06 379.99,-117.87 405.81,-106.13"/>
<polygon fill="black" stroke="black" points="407.19,-109.35 414.84,-102.02 404.29,-102.98 407.19,-109.35"/>
</g>
<!-- vesting -->
<g id="node6" class="node">
<title>vesting</title>
<ellipse fill="none" stroke="black" cx="205.09" cy="-234" rx="36.29" ry="18"/>
<text text-anchor="middle" x="205.09" y="-230.3" font-family="Times,serif" font-size="14.00">vesting</text>
</g>
<!-- vesting&#45;&gt;aptos_coin -->
<g id="edge5" class="edge">
<title>vesting&#45;&gt;aptos_coin</title>
<path fill="none" stroke="black" d="M196.47,-216.23C188.03,-197.26 178.29,-166.13 192.09,-144 230.59,-82.27 268.93,-91.22 339.09,-72 452.73,-40.88 804.74,-25.82 946.77,-20.9"/>
<polygon fill="black" stroke="black" points="946.85,-24.4 956.72,-20.56 946.61,-17.4 946.85,-24.4"/>
</g>
<!-- vesting&#45;&gt;aptos_account -->
<g id="edge10" class="edge">
<title>vesting&#45;&gt;aptos_account</title>
<path fill="none" stroke="black" d="M184.23,-218.78C170.04,-208.68 151.16,-194.4 136.09,-180 115.57,-160.38 94.98,-135.49 80.58,-117.02"/>
<polygon fill="black" stroke="black" points="83.45,-115 74.57,-109.21 77.9,-119.27 83.45,-115"/>
</g>
<!-- vesting&#45;&gt;stake -->
<g id="edge15" class="edge">
<title>vesting&#45;&gt;stake</title>
<path fill="none" stroke="black" d="M199.82,-215.81C194.95,-196.16 190.68,-164.12 207.09,-144 231.03,-114.66 339.61,-100.17 399.36,-94.3"/>
<polygon fill="black" stroke="black" points="399.49,-97.8 409.12,-93.38 398.83,-90.83 399.49,-97.8"/>
</g>
<!-- vesting&#45;&gt;staking_contract -->
<g id="edge19" class="edge">
<title>vesting&#45;&gt;staking_contract</title>
<path fill="none" stroke="black" d="M222.45,-217.81C232.71,-208.84 245.92,-197.28 257.57,-187.09"/>
<polygon fill="black" stroke="black" points="259.73,-189.84 264.95,-180.62 255.12,-184.58 259.73,-189.84"/>
</g>
<!-- transaction_fee -->
<g id="node7" class="node">
<title>transaction_fee</title>
<ellipse fill="none" stroke="black" cx="1109.09" cy="-162" rx="64.19" ry="18"/>
<text text-anchor="middle" x="1109.09" y="-158.3" font-family="Times,serif" font-size="14.00">transaction_fee</text>
</g>
<!-- transaction_fee&#45;&gt;aptos_coin -->
<g id="edge6" class="edge">
<title>transaction_fee&#45;&gt;aptos_coin</title>
<path fill="none" stroke="black" d="M1096.79,-143.87C1079.08,-119.22 1046.27,-73.54 1025.62,-44.79"/>
<polygon fill="black" stroke="black" points="1028.68,-43.06 1020.01,-36.98 1023,-47.14 1028.68,-43.06"/>
</g>
<!-- transaction_validation -->
<g id="node8" class="node">
<title>transaction_validation</title>
<ellipse fill="none" stroke="black" cx="1226.09" cy="-234" rx="89.08" ry="18"/>
<text text-anchor="middle" x="1226.09" y="-230.3" font-family="Times,serif" font-size="14.00">transaction_validation</text>
</g>
<!-- transaction_validation&#45;&gt;aptos_coin -->
<g id="edge7" class="edge">
<title>transaction_validation&#45;&gt;aptos_coin</title>
<path fill="none" stroke="black" d="M1220.48,-215.82C1213.63,-196.75 1200.63,-165.79 1182.09,-144 1142.9,-97.92 1083.22,-60.1 1044.68,-38.54"/>
<polygon fill="black" stroke="black" points="1046.67,-35.63 1036.22,-33.88 1043.29,-41.77 1046.67,-35.63"/>
</g>
<!-- transaction_validation&#45;&gt;transaction_fee -->
<g id="edge24" class="edge">
<title>transaction_validation&#45;&gt;transaction_fee</title>
<path fill="none" stroke="black" d="M1198.37,-216.41C1182.44,-206.88 1162.25,-194.8 1145.11,-184.55"/>
<polygon fill="black" stroke="black" points="1147.09,-181.66 1136.72,-179.53 1143.5,-187.66 1147.09,-181.66"/>
</g>
<!-- genesis -->
<g id="node9" class="node">
<title>genesis</title>
<ellipse fill="none" stroke="black" cx="692.09" cy="-306" rx="36.29" ry="18"/>
<text text-anchor="middle" x="692.09" y="-302.3" font-family="Times,serif" font-size="14.00">genesis</text>
</g>
<!-- genesis&#45;&gt;aptos_coin -->
<g id="edge8" class="edge">
<title>genesis&#45;&gt;aptos_coin</title>
<path fill="none" stroke="black" d="M728.37,-304.75C856.69,-303.5 1283.61,-296.02 1324.09,-252 1417.18,-150.78 1167.77,-64.65 1057.02,-32.49"/>
<polygon fill="black" stroke="black" points="1058.15,-29.17 1047.57,-29.78 1056.22,-35.9 1058.15,-29.17"/>
</g>
<!-- genesis&#45;&gt;stake -->
<g id="edge16" class="edge">
<title>genesis&#45;&gt;stake</title>
<path fill="none" stroke="black" d="M655.89,-303.5C588.48,-299.87 447.85,-288.06 418.09,-252 386.55,-213.77 408.24,-152.12 424.92,-117.24"/>
<polygon fill="black" stroke="black" points="427.86,-119.2 429.2,-108.69 421.59,-116.07 427.86,-119.2"/>
</g>
<!-- genesis&#45;&gt;aptos_governance -->
<g id="edge18" class="edge">
<title>genesis&#45;&gt;aptos_governance</title>
<path fill="none" stroke="black" d="M724.91,-297.71C776.23,-286.3 876.43,-264.04 942.56,-249.34"/>
<polygon fill="black" stroke="black" points="943.2,-252.78 952.2,-247.2 941.68,-245.95 943.2,-252.78"/>
</g>
<!-- genesis&#45;&gt;staking_contract -->
<g id="edge20" class="edge">
<title>genesis&#45;&gt;staking_contract</title>
<path fill="none" stroke="black" d="M655.63,-305.07C596.07,-303.82 475.48,-295.56 385.09,-252 353.73,-236.88 324.82,-208.97 306.24,-188.43"/>
<polygon fill="black" stroke="black" points="308.93,-186.18 299.7,-180.99 303.68,-190.81 308.93,-186.18"/>
</g>
<!-- genesis&#45;&gt;vesting -->
<g id="edge22" class="edge">
<title>genesis&#45;&gt;vesting</title>
<path fill="none" stroke="black" d="M657.46,-300.02C571.43,-287.66 347.97,-255.54 251.05,-241.61"/>
<polygon fill="black" stroke="black" points="251.77,-238.17 241.38,-240.21 250.78,-245.1 251.77,-238.17"/>
</g>
<!-- genesis&#45;&gt;transaction_fee -->
<g id="edge25" class="edge">
<title>genesis&#45;&gt;transaction_fee</title>
<path fill="none" stroke="black" d="M728.55,-305.3C816.7,-305.26 1037.96,-300.22 1090.09,-252 1106.42,-236.9 1110.54,-211.49 1110.94,-191.68"/>
<polygon fill="black" stroke="black" points="1114.44,-191.67 1110.8,-181.72 1107.44,-191.77 1114.44,-191.67"/>
</g>
<!-- genesis&#45;&gt;transaction_validation -->
<g id="edge26" class="edge">
<title>genesis&#45;&gt;transaction_validation</title>
<path fill="none" stroke="black" d="M727.36,-301.16C801,-293.04 976.46,-273.11 1123.09,-252 1131.33,-250.81 1139.92,-249.51 1148.47,-248.16"/>
<polygon fill="black" stroke="black" points="1148.85,-251.65 1158.17,-246.61 1147.75,-244.73 1148.85,-251.65"/>
</g>
<!-- genesis&#45;&gt;reconfiguration -->
<g id="edge32" class="edge">
<title>genesis&#45;&gt;reconfiguration</title>
<path fill="none" stroke="black" d="M655.7,-304.08C618.72,-300.96 563.16,-289.79 536.09,-252 526.78,-238.99 528.44,-230.05 536.09,-216 543.86,-201.74 557.28,-190.74 571.05,-182.54"/>
<polygon fill="black" stroke="black" points="572.64,-185.66 579.74,-177.79 569.28,-179.52 572.64,-185.66"/>
</g>
<!-- block -->
<g id="node12" class="node">
<title>block</title>
<ellipse fill="none" stroke="black" cx="458.09" cy="-234" rx="30.59" ry="18"/>
<text text-anchor="middle" x="458.09" y="-230.3" font-family="Times,serif" font-size="14.00">block</text>
</g>
<!-- genesis&#45;&gt;block -->
<g id="edge33" class="edge">
<title>genesis&#45;&gt;block</title>
<path fill="none" stroke="black" d="M660.07,-296.94C622.27,-287.21 557.65,-269.92 503.09,-252 500.04,-251 496.9,-249.91 493.75,-248.8"/>
<polygon fill="black" stroke="black" points="495.2,-245.6 484.61,-245.44 492.79,-252.17 495.2,-245.6"/>
</g>
<!-- consensus_config -->
<g id="node14" class="node">
<title>consensus_config</title>
<ellipse fill="none" stroke="black" cx="618.09" cy="-234" rx="73.39" ry="18"/>
<text text-anchor="middle" x="618.09" y="-230.3" font-family="Times,serif" font-size="14.00">consensus_config</text>
</g>
<!-- genesis&#45;&gt;consensus_config -->
<g id="edge34" class="edge">
<title>genesis&#45;&gt;consensus_config</title>
<path fill="none" stroke="black" d="M675.67,-289.46C666.33,-280.63 654.43,-269.37 643.87,-259.38"/>
<polygon fill="black" stroke="black" points="646.53,-257.08 636.86,-252.75 641.72,-262.17 646.53,-257.08"/>
</g>
<!-- gas_schedule -->
<g id="node15" class="node">
<title>gas_schedule</title>
<ellipse fill="none" stroke="black" cx="767.09" cy="-234" rx="57.69" ry="18"/>
<text text-anchor="middle" x="767.09" y="-230.3" font-family="Times,serif" font-size="14.00">gas_schedule</text>
</g>
<!-- genesis&#45;&gt;gas_schedule -->
<g id="edge35" class="edge">
<title>genesis&#45;&gt;gas_schedule</title>
<path fill="none" stroke="black" d="M708.37,-289.81C717.95,-280.86 730.3,-269.34 741.2,-259.17"/>
<polygon fill="black" stroke="black" points="743.52,-261.79 748.44,-252.41 738.74,-256.68 743.52,-261.79"/>
</g>
<!-- version -->
<g id="node16" class="node">
<title>version</title>
<ellipse fill="none" stroke="black" cx="879.09" cy="-234" rx="36.29" ry="18"/>
<text text-anchor="middle" x="879.09" y="-230.3" font-family="Times,serif" font-size="14.00">version</text>
</g>
<!-- genesis&#45;&gt;version -->
<g id="edge36" class="edge">
<title>genesis&#45;&gt;version</title>
<path fill="none" stroke="black" d="M720.67,-294.37C749.35,-283.7 794.8,-266.75 834.09,-252 836.15,-251.23 838.25,-250.44 840.38,-249.64"/>
<polygon fill="black" stroke="black" points="841.48,-252.96 849.6,-246.16 839.01,-246.41 841.48,-252.96"/>
</g>
<!-- resource_account -->
<g id="node10" class="node">
<title>resource_account</title>
<ellipse fill="none" stroke="black" cx="1443.09" cy="-90" rx="72.29" ry="18"/>
<text text-anchor="middle" x="1443.09" y="-86.3" font-family="Times,serif" font-size="14.00">resource_account</text>
</g>
<!-- resource_account&#45;&gt;aptos_coin -->
<g id="edge9" class="edge">
<title>resource_account&#45;&gt;aptos_coin</title>
<path fill="none" stroke="black" d="M1388.57,-77.84C1378.14,-75.81 1367.29,-73.78 1357.09,-72 1253.87,-53.99 1132.88,-36.46 1063.59,-26.76"/>
<polygon fill="black" stroke="black" points="1064.39,-23.34 1054.01,-25.42 1063.43,-30.27 1064.39,-23.34"/>
</g>
<!-- reconfiguration&#45;&gt;stake -->
<g id="edge11" class="edge">
<title>reconfiguration&#45;&gt;stake</title>
<path fill="none" stroke="black" d="M581.87,-146.83C550.16,-134.43 504.42,-116.55 473.32,-104.38"/>
<polygon fill="black" stroke="black" points="474.97,-101.27 464.39,-100.89 472.43,-107.79 474.97,-101.27"/>
</g>
<!-- block&#45;&gt;stake -->
<g id="edge13" class="edge">
<title>block&#45;&gt;stake</title>
<path fill="none" stroke="black" d="M455.76,-215.59C452.56,-191.61 446.74,-148.14 442.9,-119.42"/>
<polygon fill="black" stroke="black" points="446.38,-119.06 441.58,-109.61 439.44,-119.99 446.38,-119.06"/>
</g>
<!-- block&#45;&gt;reconfiguration -->
<g id="edge28" class="edge">
<title>block&#45;&gt;reconfiguration</title>
<path fill="none" stroke="black" d="M482.05,-222.52C506.27,-211.92 544.28,-195.3 573.96,-182.31"/>
<polygon fill="black" stroke="black" points="575.34,-185.53 583.1,-178.31 572.54,-179.11 575.34,-185.53"/>
</g>
<!-- staking_proxy -->
<g id="node13" class="node">
<title>staking_proxy</title>
<ellipse fill="none" stroke="black" cx="285.09" cy="-306" rx="61.19" ry="18"/>
<text text-anchor="middle" x="285.09" y="-302.3" font-family="Times,serif" font-size="14.00">staking_proxy</text>
</g>
<!-- staking_proxy&#45;&gt;stake -->
<g id="edge17" class="edge">
<title>staking_proxy&#45;&gt;stake</title>
<path fill="none" stroke="black" d="M297.18,-288.21C324.14,-250.74 389.33,-160.16 421.09,-116.01"/>
<polygon fill="black" stroke="black" points="423.81,-118.23 426.81,-108.07 418.13,-114.14 423.81,-118.23"/>
</g>
<!-- staking_proxy&#45;&gt;staking_contract -->
<g id="edge21" class="edge">
<title>staking_proxy&#45;&gt;staking_contract</title>
<path fill="none" stroke="black" d="M285.09,-287.59C285.09,-263.61 285.09,-220.14 285.09,-191.42"/>
<polygon fill="black" stroke="black" points="288.59,-191.62 285.09,-181.62 281.59,-191.62 288.59,-191.62"/>
</g>
<!-- staking_proxy&#45;&gt;vesting -->
<g id="edge23" class="edge">
<title>staking_proxy&#45;&gt;vesting</title>
<path fill="none" stroke="black" d="M266.14,-288.41C255.61,-279.2 242.35,-267.6 230.89,-257.57"/>
<polygon fill="black" stroke="black" points="233.52,-255.22 223.69,-251.27 228.91,-260.49 233.52,-255.22"/>
</g>
<!-- consensus_config&#45;&gt;reconfiguration -->
<g id="edge29" class="edge">
<title>consensus_config&#45;&gt;reconfiguration</title>
<path fill="none" stroke="black" d="M618.09,-215.7C618.09,-208.41 618.09,-199.73 618.09,-191.54"/>
<polygon fill="black" stroke="black" points="621.59,-191.62 618.09,-181.62 614.59,-191.62 621.59,-191.62"/>
</g>
<!-- gas_schedule&#45;&gt;reconfiguration -->
<g id="edge30" class="edge">
<title>gas_schedule&#45;&gt;reconfiguration</title>
<path fill="none" stroke="black" d="M736.22,-218.5C714.32,-208.21 684.64,-194.26 660.52,-182.93"/>
<polygon fill="black" stroke="black" points="662.12,-179.82 651.58,-178.73 659.15,-186.15 662.12,-179.82"/>
</g>
<!-- version&#45;&gt;reconfiguration -->
<g id="edge31" class="edge">
<title>version&#45;&gt;reconfiguration</title>
<path fill="none" stroke="black" d="M851.67,-222.04C845.91,-219.91 839.84,-217.78 834.09,-216 782.7,-200.05 723.25,-185.76 679.74,-176.05"/>
<polygon fill="black" stroke="black" points="680.76,-172.69 670.24,-173.94 679.24,-179.52 680.76,-172.69"/>
</g>
</g>
</svg>
