<?xml version="1.0" encoding="UTF-8" standalone="no"?>
<!DOCTYPE svg PUBLIC "-//W3C//DTD SVG 1.1//EN"
 "http://www.w3.org/Graphics/SVG/1.1/DTD/svg11.dtd">
<!-- Generated by graphviz version 7.0.0 (20221023.0053)
 -->
<!-- Title: G Pages: 1 -->
<svg width="2442pt" height="836pt"
 viewBox="0.00 0.00 2442.03 836.00" xmlns="http://www.w3.org/2000/svg" xmlns:xlink="http://www.w3.org/1999/xlink">
<g id="graph0" class="graph" transform="scale(1 1) rotate(0) translate(4 832)">
<title>G</title>
<polygon fill="white" stroke="none" points="-4,4 -4,-832 2438.03,-832 2438.03,4 -4,4"/>
<!-- block -->
<g id="node1" class="node">
<title>block</title>
<ellipse fill="none" stroke="black" cx="1936" cy="-810" rx="30.59" ry="18"/>
<text text-anchor="middle" x="1936" y="-806.3" font-family="Times,serif" font-size="14.00">block</text>
</g>
<!-- option -->
<g id="node2" class="node">
<title>option</title>
<ellipse fill="none" stroke="black" cx="407" cy="-90" rx="33.29" ry="18"/>
<text text-anchor="middle" x="407" y="-86.3" font-family="Times,serif" font-size="14.00">option</text>
</g>
<!-- block&#45;&gt;option -->
<g id="edge1" class="edge">
<title>block&#45;&gt;option</title>
<path fill="none" stroke="black" d="M1905.03,-808.36C1659.58,-803.11 38,-764.74 38,-667 38,-667 38,-667 38,-233 38,-187.19 52.29,-170.01 90,-144 133.52,-113.98 286.34,-99.36 362.78,-93.79"/>
<polygon fill="black" stroke="black" points="362.68,-97.31 372.41,-93.11 362.19,-90.33 362.68,-97.31"/>
</g>
<!-- error -->
<g id="node3" class="node">
<title>error</title>
<ellipse fill="none" stroke="black" cx="1360" cy="-90" rx="27.9" ry="18"/>
<text text-anchor="middle" x="1360" y="-86.3" font-family="Times,serif" font-size="14.00">error</text>
</g>
<!-- block&#45;&gt;error -->
<g id="edge2" class="edge">
<title>block&#45;&gt;error</title>
<path fill="none" stroke="black" d="M1966.34,-806.75C2072.52,-798.03 2421,-762.19 2421,-667 2421,-667 2421,-667 2421,-233 2421,-211.15 2496.54,-211.94 2279,-144 2111.19,-91.59 1553.01,-90.12 1399.42,-90.74"/>
<polygon fill="black" stroke="black" points="1399.75,-87.24 1389.76,-90.79 1399.78,-94.24 1399.75,-87.24"/>
</g>
<!-- system_addresses -->
<g id="node4" class="node">
<title>system_addresses</title>
<ellipse fill="none" stroke="black" cx="1794" cy="-306" rx="73.39" ry="18"/>
<text text-anchor="middle" x="1794" y="-302.3" font-family="Times,serif" font-size="14.00">system_addresses</text>
</g>
<!-- block&#45;&gt;system_addresses -->
<g id="edge3" class="edge">
<title>block&#45;&gt;system_addresses</title>
<path fill="none" stroke="black" d="M1911.56,-798.86C1894.28,-790.24 1872.41,-776.06 1862,-756 1814.28,-664.09 1860,-626.56 1860,-523 1860,-523 1860,-523 1860,-449 1860,-405.18 1833.83,-360.24 1814.45,-332.97"/>
<polygon fill="black" stroke="black" points="1817.31,-330.96 1808.57,-324.97 1811.67,-335.1 1817.31,-330.96"/>
</g>
<!-- event -->
<g id="node5" class="node">
<title>event</title>
<ellipse fill="none" stroke="black" cx="1506" cy="-378" rx="29.8" ry="18"/>
<text text-anchor="middle" x="1506" y="-374.3" font-family="Times,serif" font-size="14.00">event</text>
</g>
<!-- block&#45;&gt;event -->
<g id="edge4" class="edge">
<title>block&#45;&gt;event</title>
<path fill="none" stroke="black" d="M1962.24,-800.41C1983.27,-792.21 2011.98,-777.84 2029,-756 2079.37,-691.35 2116.42,-642.84 2069,-576 2005.63,-486.69 1662.73,-410.5 1545.4,-386.7"/>
<polygon fill="black" stroke="black" points="1546.11,-383.27 1535.61,-384.73 1544.73,-390.13 1546.11,-383.27"/>
</g>
<!-- account -->
<g id="node6" class="node">
<title>account</title>
<ellipse fill="none" stroke="black" cx="1212" cy="-450" rx="38.19" ry="18"/>
<text text-anchor="middle" x="1212" y="-446.3" font-family="Times,serif" font-size="14.00">account</text>
</g>
<!-- block&#45;&gt;account -->
<g id="edge5" class="edge">
<title>block&#45;&gt;account</title>
<path fill="none" stroke="black" d="M1905.15,-809.2C1772.71,-809.27 1259,-800.9 1259,-667 1259,-667 1259,-667 1259,-593 1259,-551.28 1240.49,-505.99 1226.7,-478.05"/>
<polygon fill="black" stroke="black" points="1229.86,-476.55 1222.2,-469.24 1223.63,-479.73 1229.86,-476.55"/>
</g>
<!-- timestamp -->
<g id="node7" class="node">
<title>timestamp</title>
<ellipse fill="none" stroke="black" cx="2012" cy="-594" rx="48.19" ry="18"/>
<text text-anchor="middle" x="2012" y="-590.3" font-family="Times,serif" font-size="14.00">timestamp</text>
</g>
<!-- block&#45;&gt;timestamp -->
<g id="edge6" class="edge">
<title>block&#45;&gt;timestamp</title>
<path fill="none" stroke="black" d="M1960.42,-798.85C1977.68,-790.22 1999.55,-776.04 2010,-756 2031.97,-713.88 2025.65,-656.72 2018.92,-623.06"/>
<polygon fill="black" stroke="black" points="2022.43,-622.71 2016.89,-613.68 2015.58,-624.19 2022.43,-622.71"/>
</g>
<!-- stake -->
<g id="node8" class="node">
<title>stake</title>
<ellipse fill="none" stroke="black" cx="1554" cy="-666" rx="28.7" ry="18"/>
<text text-anchor="middle" x="1554" y="-662.3" font-family="Times,serif" font-size="14.00">stake</text>
</g>
<!-- block&#45;&gt;stake -->
<g id="edge7" class="edge">
<title>block&#45;&gt;stake</title>
<path fill="none" stroke="black" d="M1907.03,-803.47C1866.95,-795.38 1792.64,-778.75 1732,-756 1678.21,-735.82 1619.19,-704.3 1584.43,-684.69"/>
<polygon fill="black" stroke="black" points="1586.2,-681.67 1575.78,-679.76 1582.73,-687.75 1586.2,-681.67"/>
</g>
<!-- state_storage -->
<g id="node9" class="node">
<title>state_storage</title>
<ellipse fill="none" stroke="black" cx="2298" cy="-378" rx="56.59" ry="18"/>
<text text-anchor="middle" x="2298" y="-374.3" font-family="Times,serif" font-size="14.00">state_storage</text>
</g>
<!-- block&#45;&gt;state_storage -->
<g id="edge8" class="edge">
<title>block&#45;&gt;state_storage</title>
<path fill="none" stroke="black" d="M1966.78,-809.14C2046.59,-807.72 2254,-792.01 2254,-667 2254,-667 2254,-667 2254,-521 2254,-479.53 2271.33,-434.18 2284.24,-406.16"/>
<polygon fill="black" stroke="black" points="2287.3,-407.86 2288.45,-397.33 2280.99,-404.85 2287.3,-407.86"/>
</g>
<!-- reconfiguration -->
<g id="node10" class="node">
<title>reconfiguration</title>
<ellipse fill="none" stroke="black" cx="1936" cy="-738" rx="64.99" ry="18"/>
<text text-anchor="middle" x="1936" y="-734.3" font-family="Times,serif" font-size="14.00">reconfiguration</text>
</g>
<!-- block&#45;&gt;reconfiguration -->
<g id="edge9" class="edge">
<title>block&#45;&gt;reconfiguration</title>
<path fill="none" stroke="black" d="M1936,-791.7C1936,-784.41 1936,-775.73 1936,-767.54"/>
<polygon fill="black" stroke="black" points="1939.5,-767.62 1936,-757.62 1932.5,-767.62 1939.5,-767.62"/>
</g>
<!-- vector -->
<g id="node11" class="node">
<title>vector</title>
<ellipse fill="none" stroke="black" cx="468" cy="-18" rx="32.49" ry="18"/>
<text text-anchor="middle" x="468" y="-14.3" font-family="Times,serif" font-size="14.00">vector</text>
</g>
<!-- option&#45;&gt;vector -->
<g id="edge10" class="edge">
<title>option&#45;&gt;vector</title>
<path fill="none" stroke="black" d="M420.54,-73.46C428.36,-64.49 438.36,-53.02 447.16,-42.92"/>
<polygon fill="black" stroke="black" points="449.57,-45.47 453.51,-35.63 444.3,-40.87 449.57,-45.47"/>
</g>
<!-- system_addresses&#45;&gt;error -->
<g id="edge12" class="edge">
<title>system_addresses&#45;&gt;error</title>
<path fill="none" stroke="black" d="M1762.44,-289.44C1682.35,-249.95 1471.93,-146.19 1391.7,-106.63"/>
<polygon fill="black" stroke="black" points="1393.58,-103.65 1383.06,-102.37 1390.48,-109.93 1393.58,-103.65"/>
</g>
<!-- signer -->
<g id="node12" class="node">
<title>signer</title>
<ellipse fill="none" stroke="black" cx="920" cy="-90" rx="32.49" ry="18"/>
<text text-anchor="middle" x="920" y="-86.3" font-family="Times,serif" font-size="14.00">signer</text>
</g>
<!-- system_addresses&#45;&gt;signer -->
<g id="edge11" class="edge">
<title>system_addresses&#45;&gt;signer</title>
<path fill="none" stroke="black" d="M1740.52,-293.24C1656,-274.93 1486.21,-239.31 1341,-216 1213.63,-195.55 1173.86,-225.09 1053,-180 1011.73,-164.61 970.57,-134.15 945.21,-113.19"/>
<polygon fill="black" stroke="black" points="947.67,-110.68 937.77,-106.91 943.16,-116.03 947.67,-110.68"/>
</g>
<!-- bcs -->
<g id="node13" class="node">
<title>bcs</title>
<ellipse fill="none" stroke="black" cx="1305" cy="-234" rx="27" ry="18"/>
<text text-anchor="middle" x="1305" y="-230.3" font-family="Times,serif" font-size="14.00">bcs</text>
</g>
<!-- event&#45;&gt;bcs -->
<g id="edge13" class="edge">
<title>event&#45;&gt;bcs</title>
<path fill="none" stroke="black" d="M1508.58,-359.67C1510.5,-339.88 1510.31,-307.71 1493,-288 1482.89,-276.48 1393.26,-254.79 1341.5,-243.05"/>
<polygon fill="black" stroke="black" points="1342.45,-239.67 1331.93,-240.89 1340.92,-246.5 1342.45,-239.67"/>
</g>
<!-- guid -->
<g id="node14" class="node">
<title>guid</title>
<ellipse fill="none" stroke="black" cx="1457" cy="-306" rx="27" ry="18"/>
<text text-anchor="middle" x="1457" y="-302.3" font-family="Times,serif" font-size="14.00">guid</text>
</g>
<!-- event&#45;&gt;guid -->
<g id="edge14" class="edge">
<title>event&#45;&gt;guid</title>
<path fill="none" stroke="black" d="M1494.88,-361.12C1488.87,-352.52 1481.3,-341.72 1474.51,-332.02"/>
<polygon fill="black" stroke="black" points="1477.54,-330.25 1468.94,-324.06 1471.81,-334.26 1477.54,-330.25"/>
</g>
<!-- account&#45;&gt;option -->
<g id="edge16" class="edge">
<title>account&#45;&gt;option</title>
<path fill="none" stroke="black" d="M1173.5,-448.26C1053.14,-445.57 689.84,-434.31 655,-396 644.24,-384.16 648.68,-374.7 655,-360 664.19,-338.63 683.81,-345.37 693,-324 699.32,-309.3 699.69,-302.54 693,-288 645.49,-184.7 512.77,-126.69 446.17,-103.3"/>
<polygon fill="black" stroke="black" points="447.33,-99.99 436.73,-100.07 445.06,-106.62 447.33,-99.99"/>
</g>
<!-- account&#45;&gt;error -->
<g id="edge18" class="edge">
<title>account&#45;&gt;error</title>
<path fill="none" stroke="black" d="M1233.38,-434.75C1246.68,-425.05 1263.4,-411.24 1275,-396 1317.64,-339.98 1321.98,-319.78 1341,-252 1353.68,-206.83 1357.9,-152.21 1359.31,-119.61"/>
<polygon fill="black" stroke="black" points="1362.8,-119.89 1359.66,-109.77 1355.8,-119.64 1362.8,-119.89"/>
</g>
<!-- account&#45;&gt;system_addresses -->
<g id="edge21" class="edge">
<title>account&#45;&gt;system_addresses</title>
<path fill="none" stroke="black" d="M1246.78,-441.97C1282.68,-433.9 1339.67,-418.77 1385,-396 1409.15,-383.87 1409,-370.27 1434,-360 1523.34,-323.29 1634.39,-311.52 1709.34,-308"/>
<polygon fill="black" stroke="black" points="1709.23,-311.51 1719.07,-307.59 1708.93,-304.51 1709.23,-311.51"/>
</g>
<!-- account&#45;&gt;event -->
<g id="edge28" class="edge">
<title>account&#45;&gt;event</title>
<path fill="none" stroke="black" d="M1245.73,-440.97C1300.87,-427.84 1409.99,-401.86 1467.87,-388.08"/>
<polygon fill="black" stroke="black" points="1468.34,-391.56 1477.26,-385.84 1466.72,-384.76 1468.34,-391.56"/>
</g>
<!-- account&#45;&gt;vector -->
<g id="edge15" class="edge">
<title>account&#45;&gt;vector</title>
<path fill="none" stroke="black" d="M1240.05,-437.32C1259.12,-428.28 1283.88,-414.22 1301,-396 1403.83,-286.54 1500.13,-181.18 1397,-72 1366.27,-39.46 692.36,-23.54 512.04,-19.85"/>
<polygon fill="black" stroke="black" points="512.23,-16.35 502.16,-19.65 512.09,-23.35 512.23,-16.35"/>
</g>
<!-- account&#45;&gt;signer -->
<g id="edge17" class="edge">
<title>account&#45;&gt;signer</title>
<path fill="none" stroke="black" d="M1174.59,-445.4C1136.08,-440.09 1075.94,-427.13 1034,-396 972.43,-350.3 965.31,-324.02 939,-252 922.81,-207.7 919.68,-152.4 919.44,-119.49"/>
<polygon fill="black" stroke="black" points="922.94,-119.57 919.47,-109.56 915.94,-119.55 922.94,-119.57"/>
</g>
<!-- account&#45;&gt;bcs -->
<g id="edge23" class="edge">
<title>account&#45;&gt;bcs</title>
<path fill="none" stroke="black" d="M1224.87,-432.68C1242.25,-409.77 1272.9,-366.14 1289,-324 1296.42,-304.58 1300.45,-281.43 1302.6,-263.61"/>
<polygon fill="black" stroke="black" points="1306.07,-264.06 1303.66,-253.74 1299.11,-263.32 1306.07,-264.06"/>
</g>
<!-- account&#45;&gt;guid -->
<g id="edge26" class="edge">
<title>account&#45;&gt;guid</title>
<path fill="none" stroke="black" d="M1244.07,-439.65C1272.47,-430.65 1314.51,-415.54 1348,-396 1365.55,-385.76 1406.33,-351.23 1432.73,-328.32"/>
<polygon fill="black" stroke="black" points="1435.03,-330.96 1440.27,-321.75 1430.43,-325.68 1435.03,-330.96"/>
</g>
<!-- type_info -->
<g id="node15" class="node">
<title>type_info</title>
<ellipse fill="none" stroke="black" cx="992" cy="-234" rx="44.39" ry="18"/>
<text text-anchor="middle" x="992" y="-230.3" font-family="Times,serif" font-size="14.00">type_info</text>
</g>
<!-- account&#45;&gt;type_info -->
<g id="edge19" class="edge">
<title>account&#45;&gt;type_info</title>
<path fill="none" stroke="black" d="M1175.52,-444.02C1142.96,-437.85 1095.79,-424.43 1065,-396 1026,-359.99 1006.38,-299.15 997.75,-263.47"/>
<polygon fill="black" stroke="black" points="1001.2,-262.86 995.57,-253.88 994.38,-264.41 1001.2,-262.86"/>
</g>
<!-- table -->
<g id="node16" class="node">
<title>table</title>
<ellipse fill="none" stroke="black" cx="904" cy="-306" rx="27.9" ry="18"/>
<text text-anchor="middle" x="904" y="-302.3" font-family="Times,serif" font-size="14.00">table</text>
</g>
<!-- account&#45;&gt;table -->
<g id="edge20" class="edge">
<title>account&#45;&gt;table</title>
<path fill="none" stroke="black" d="M1174.59,-445.69C1110.02,-439.31 981.16,-423.47 946,-396 926.87,-381.05 916.03,-355.27 910.18,-335.3"/>
<polygon fill="black" stroke="black" points="913.61,-334.57 907.67,-325.79 906.84,-336.35 913.61,-334.57"/>
</g>
<!-- hash -->
<g id="node17" class="node">
<title>hash</title>
<ellipse fill="none" stroke="black" cx="1081" cy="-234" rx="27" ry="18"/>
<text text-anchor="middle" x="1081" y="-230.3" font-family="Times,serif" font-size="14.00">hash</text>
</g>
<!-- account&#45;&gt;hash -->
<g id="edge22" class="edge">
<title>account&#45;&gt;hash</title>
<path fill="none" stroke="black" d="M1175.28,-444.25C1145.56,-438.33 1105.27,-425.14 1084,-396 1055.56,-357.05 1064.09,-297.49 1072.67,-262.78"/>
<polygon fill="black" stroke="black" points="1075.96,-264.05 1075.14,-253.49 1069.19,-262.25 1075.96,-264.05"/>
</g>
<!-- ed25519 -->
<g id="node18" class="node">
<title>ed25519</title>
<ellipse fill="none" stroke="black" cx="1143" cy="-306" rx="40.89" ry="18"/>
<text text-anchor="middle" x="1143" y="-302.3" font-family="Times,serif" font-size="14.00">ed25519</text>
</g>
<!-- account&#45;&gt;ed25519 -->
<g id="edge24" class="edge">
<title>account&#45;&gt;ed25519</title>
<path fill="none" stroke="black" d="M1175.78,-443.59C1147.9,-437.31 1111.17,-423.98 1093,-396 1078.86,-374.22 1097.29,-348.21 1115.64,-329.95"/>
<polygon fill="black" stroke="black" points="1117.95,-332.58 1122.85,-323.18 1113.16,-327.48 1117.95,-332.58"/>
</g>
<!-- multi_ed25519 -->
<g id="node19" class="node">
<title>multi_ed25519</title>
<ellipse fill="none" stroke="black" cx="1166" cy="-378" rx="64.19" ry="18"/>
<text text-anchor="middle" x="1166" y="-374.3" font-family="Times,serif" font-size="14.00">multi_ed25519</text>
</g>
<!-- account&#45;&gt;multi_ed25519 -->
<g id="edge25" class="edge">
<title>account&#45;&gt;multi_ed25519</title>
<path fill="none" stroke="black" d="M1201.1,-432.41C1195.79,-424.34 1189.28,-414.43 1183.32,-405.35"/>
<polygon fill="black" stroke="black" points="1186.39,-403.66 1177.97,-397.22 1180.54,-407.5 1186.39,-403.66"/>
</g>
<!-- from_bcs -->
<g id="node20" class="node">
<title>from_bcs</title>
<ellipse fill="none" stroke="black" cx="556" cy="-234" rx="44.39" ry="18"/>
<text text-anchor="middle" x="556" y="-230.3" font-family="Times,serif" font-size="14.00">from_bcs</text>
</g>
<!-- account&#45;&gt;from_bcs -->
<g id="edge27" class="edge">
<title>account&#45;&gt;from_bcs</title>
<path fill="none" stroke="black" d="M1173.76,-447.57C1050.46,-442.68 668.64,-425.31 622,-396 576.88,-367.65 562.6,-301.92 558.09,-263.79"/>
<polygon fill="black" stroke="black" points="561.58,-263.56 557.09,-253.97 554.62,-264.27 561.58,-263.56"/>
</g>
<!-- timestamp&#45;&gt;error -->
<g id="edge29" class="edge">
<title>timestamp&#45;&gt;error</title>
<path fill="none" stroke="black" d="M2013.86,-575.58C2017.07,-546.02 2023.96,-484.16 2031,-432 2038.52,-376.31 2050,-363.19 2050,-307 2050,-307 2050,-307 2050,-233 2050,-99.19 1545.85,-90.38 1399.43,-90.65"/>
<polygon fill="black" stroke="black" points="1399.84,-87.15 1389.85,-90.68 1399.86,-94.15 1399.84,-87.15"/>
</g>
<!-- timestamp&#45;&gt;system_addresses -->
<g id="edge30" class="edge">
<title>timestamp&#45;&gt;system_addresses</title>
<path fill="none" stroke="black" d="M2006.39,-575.64C1990.5,-527.34 1944.25,-392.8 1912,-360 1895.98,-343.71 1874.05,-331.99 1853.44,-323.79"/>
<polygon fill="black" stroke="black" points="1854.83,-320.57 1844.24,-320.35 1852.38,-327.13 1854.83,-320.57"/>
</g>
<!-- stake&#45;&gt;option -->
<g id="edge32" class="edge">
<title>stake&#45;&gt;option</title>
<path fill="none" stroke="black" d="M1525.14,-664.78C1341.72,-663.24 341.99,-653.01 213,-612 143.8,-590 76,-595.61 76,-523 76,-523 76,-523 76,-233 76,-109.9 271.75,-92.15 362.18,-90.52"/>
<polygon fill="black" stroke="black" points="361.97,-94.03 371.93,-90.41 361.89,-87.03 361.97,-94.03"/>
</g>
<!-- stake&#45;&gt;error -->
<g id="edge34" class="edge">
<title>stake&#45;&gt;error</title>
<path fill="none" stroke="black" d="M1576.96,-654.78C1595.64,-645.61 1621.78,-630.73 1640,-612 1727.17,-522.38 1826.6,-468.79 1765,-360 1760.21,-351.54 1472.9,-185.66 1465,-180 1435.73,-159.02 1404.53,-131.9 1383.82,-113.14"/>
<polygon fill="black" stroke="black" points="1386.22,-110.59 1376.48,-106.43 1381.5,-115.76 1386.22,-110.59"/>
</g>
<!-- stake&#45;&gt;system_addresses -->
<g id="edge35" class="edge">
<title>stake&#45;&gt;system_addresses</title>
<path fill="none" stroke="black" d="M1582.9,-663.56C1619.89,-660.19 1683.76,-649.01 1722,-612 1795.13,-541.23 1780.87,-496.32 1798,-396 1801.43,-375.93 1800.27,-352.97 1798.34,-335.4"/>
<polygon fill="black" stroke="black" points="1801.84,-335.18 1797.12,-325.7 1794.9,-336.06 1801.84,-335.18"/>
</g>
<!-- stake&#45;&gt;event -->
<g id="edge36" class="edge">
<title>stake&#45;&gt;event</title>
<path fill="none" stroke="black" d="M1571.39,-651.29C1582.17,-641.62 1595.07,-627.64 1601,-612 1606.68,-597.04 1604.56,-591.6 1601,-576 1585.96,-510.19 1545.99,-440.78 1522.97,-404.5"/>
<polygon fill="black" stroke="black" points="1526.14,-402.96 1517.79,-396.45 1520.26,-406.75 1526.14,-402.96"/>
</g>
<!-- stake&#45;&gt;account -->
<g id="edge37" class="edge">
<title>stake&#45;&gt;account</title>
<path fill="none" stroke="black" d="M1534.13,-652.57C1477.2,-616.94 1313.1,-514.26 1243.65,-470.8"/>
<polygon fill="black" stroke="black" points="1245.73,-467.98 1235.39,-465.64 1242.02,-473.91 1245.73,-467.98"/>
</g>
<!-- stake&#45;&gt;timestamp -->
<g id="edge40" class="edge">
<title>stake&#45;&gt;timestamp</title>
<path fill="none" stroke="black" d="M1581.96,-660.73C1656.03,-649.41 1858.38,-618.48 1956.79,-603.44"/>
<polygon fill="black" stroke="black" points="1957.12,-606.93 1966.48,-601.96 1956.07,-600.01 1957.12,-606.93"/>
</g>
<!-- stake&#45;&gt;vector -->
<g id="edge31" class="edge">
<title>stake&#45;&gt;vector</title>
<path fill="none" stroke="black" d="M1536.61,-651.29C1525.83,-641.62 1512.93,-627.64 1507,-612 1501.32,-597.04 1505.34,-591.91 1507,-576 1517.12,-479.05 1564.26,-455.55 1545,-360 1517.57,-223.9 1537.46,-152.02 1424,-72 1348.89,-19.03 690.08,-18.03 512.14,-18.73"/>
<polygon fill="black" stroke="black" points="512.38,-15.23 502.4,-18.78 512.41,-22.23 512.38,-15.23"/>
</g>
<!-- stake&#45;&gt;signer -->
<g id="edge33" class="edge">
<title>stake&#45;&gt;signer</title>
<path fill="none" stroke="black" d="M1525.01,-664.66C1338.73,-662.41 316.21,-648.37 262,-612 88.18,-495.36 66.59,-297.42 209,-144 231.8,-119.44 725.04,-98.5 876.29,-92.63"/>
<polygon fill="black" stroke="black" points="876.03,-96.15 885.89,-92.26 875.77,-89.15 876.03,-96.15"/>
</g>
<!-- coin -->
<g id="node21" class="node">
<title>coin</title>
<ellipse fill="none" stroke="black" cx="846" cy="-522" rx="27" ry="18"/>
<text text-anchor="middle" x="846" y="-518.3" font-family="Times,serif" font-size="14.00">coin</text>
</g>
<!-- stake&#45;&gt;coin -->
<g id="edge38" class="edge">
<title>stake&#45;&gt;coin</title>
<path fill="none" stroke="black" d="M1526.68,-659.52C1417,-637.52 1008.59,-555.61 882.99,-530.42"/>
<polygon fill="black" stroke="black" points="883.71,-526.99 873.22,-528.46 882.34,-533.86 883.71,-526.99"/>
</g>
<!-- aptos_coin -->
<g id="node22" class="node">
<title>aptos_coin</title>
<ellipse fill="none" stroke="black" cx="351" cy="-594" rx="48.99" ry="18"/>
<text text-anchor="middle" x="351" y="-590.3" font-family="Times,serif" font-size="14.00">aptos_coin</text>
</g>
<!-- stake&#45;&gt;aptos_coin -->
<g id="edge39" class="edge">
<title>stake&#45;&gt;aptos_coin</title>
<path fill="none" stroke="black" d="M1525.15,-663.32C1369.37,-654.26 627.53,-611.09 410.67,-598.47"/>
<polygon fill="black" stroke="black" points="410.93,-594.98 400.75,-597.89 410.53,-601.97 410.93,-594.98"/>
</g>
<!-- staking_config -->
<g id="node23" class="node">
<title>staking_config</title>
<ellipse fill="none" stroke="black" cx="1693" cy="-378" rx="63.09" ry="18"/>
<text text-anchor="middle" x="1693" y="-374.3" font-family="Times,serif" font-size="14.00">staking_config</text>
</g>
<!-- stake&#45;&gt;staking_config -->
<g id="edge41" class="edge">
<title>stake&#45;&gt;staking_config</title>
<path fill="none" stroke="black" d="M1573.56,-652.56C1587.19,-642.97 1604.87,-628.58 1616,-612 1660.04,-546.42 1680.68,-453.6 1688.71,-407.4"/>
<polygon fill="black" stroke="black" points="1692.14,-408.12 1690.32,-397.68 1685.23,-406.98 1692.14,-408.12"/>
</g>
<!-- math64 -->
<g id="node24" class="node">
<title>math64</title>
<ellipse fill="none" stroke="black" cx="1554" cy="-594" rx="37.89" ry="18"/>
<text text-anchor="middle" x="1554" y="-590.3" font-family="Times,serif" font-size="14.00">math64</text>
</g>
<!-- stake&#45;&gt;math64 -->
<g id="edge42" class="edge">
<title>stake&#45;&gt;math64</title>
<path fill="none" stroke="black" d="M1554,-647.7C1554,-640.41 1554,-631.73 1554,-623.54"/>
<polygon fill="black" stroke="black" points="1557.5,-623.62 1554,-613.62 1550.5,-623.62 1557.5,-623.62"/>
</g>
<!-- bls12381 -->
<g id="node25" class="node">
<title>bls12381</title>
<ellipse fill="none" stroke="black" cx="261" cy="-162" rx="42.79" ry="18"/>
<text text-anchor="middle" x="261" y="-158.3" font-family="Times,serif" font-size="14.00">bls12381</text>
</g>
<!-- stake&#45;&gt;bls12381 -->
<g id="edge43" class="edge">
<title>stake&#45;&gt;bls12381</title>
<path fill="none" stroke="black" d="M1524.93,-664.86C1340.42,-663.85 338.66,-656.34 293,-612 175.69,-498.06 228.78,-270.39 252.08,-191.04"/>
<polygon fill="black" stroke="black" points="255.43,-192.07 254.97,-181.48 248.72,-190.04 255.43,-192.07"/>
</g>
<!-- state_storage&#45;&gt;error -->
<g id="edge44" class="edge">
<title>state_storage&#45;&gt;error</title>
<path fill="none" stroke="black" d="M2291.75,-359.85C2274.37,-314.97 2220.75,-194.06 2131,-144 2066.83,-108.21 1547.9,-94.86 1399.5,-91.76"/>
<polygon fill="black" stroke="black" points="1399.86,-88.26 1389.79,-91.56 1399.72,-95.26 1399.86,-88.26"/>
</g>
<!-- state_storage&#45;&gt;system_addresses -->
<g id="edge45" class="edge">
<title>state_storage&#45;&gt;system_addresses</title>
<path fill="none" stroke="black" d="M2256.58,-365.27C2248.79,-363.32 2240.68,-361.46 2233,-360 2108.91,-336.4 1962.98,-321.24 1874.55,-313.42"/>
<polygon fill="black" stroke="black" points="1875.03,-309.95 1864.77,-312.57 1874.42,-316.92 1875.03,-309.95"/>
</g>
<!-- reconfiguration&#45;&gt;error -->
<g id="edge47" class="edge">
<title>reconfiguration&#45;&gt;error</title>
<path fill="none" stroke="black" d="M1995.82,-730.68C2117.62,-716.16 2383,-675.31 2383,-595 2383,-595 2383,-595 2383,-233 2383,-129.58 2268.72,-167.48 2168,-144 2019.17,-109.31 1540.36,-95.32 1399.39,-91.89"/>
<polygon fill="black" stroke="black" points="1399.54,-88.39 1389.46,-91.65 1399.37,-95.39 1399.54,-88.39"/>
</g>
<!-- reconfiguration&#45;&gt;system_addresses -->
<g id="edge48" class="edge">
<title>reconfiguration&#45;&gt;system_addresses</title>
<path fill="none" stroke="black" d="M1928.31,-719.91C1917.21,-693.62 1898,-641.45 1898,-595 1898,-595 1898,-595 1898,-449 1898,-408.03 1897.96,-393.23 1874,-360 1864.59,-346.95 1850.9,-336.2 1837.49,-327.88"/>
<polygon fill="black" stroke="black" points="1839.56,-325.03 1829.15,-323.01 1836.03,-331.08 1839.56,-325.03"/>
</g>
<!-- reconfiguration&#45;&gt;event -->
<g id="edge49" class="edge">
<title>reconfiguration&#45;&gt;event</title>
<path fill="none" stroke="black" d="M1916.12,-720.45C1845.97,-662.04 1609.97,-465.57 1531.57,-400.29"/>
<polygon fill="black" stroke="black" points="1533.9,-397.67 1523.97,-393.96 1529.42,-403.05 1533.9,-397.67"/>
</g>
<!-- reconfiguration&#45;&gt;account -->
<g id="edge50" class="edge">
<title>reconfiguration&#45;&gt;account</title>
<path fill="none" stroke="black" d="M1899.21,-722.77C1873.43,-712.55 1838.29,-698.14 1808,-684 1713.97,-640.11 1696.74,-616.02 1601,-576 1479.23,-525.11 1329,-482.17 1255.99,-462.5"/>
<polygon fill="black" stroke="black" points="1256.98,-459.14 1246.41,-459.94 1255.17,-465.9 1256.98,-459.14"/>
</g>
<!-- reconfiguration&#45;&gt;timestamp -->
<g id="edge52" class="edge">
<title>reconfiguration&#45;&gt;timestamp</title>
<path fill="none" stroke="black" d="M1945.17,-719.87C1958.25,-695.43 1982.38,-650.33 1997.79,-621.55"/>
<polygon fill="black" stroke="black" points="2000.69,-623.55 2002.32,-613.08 1994.52,-620.25 2000.69,-623.55"/>
</g>
<!-- reconfiguration&#45;&gt;stake -->
<g id="edge53" class="edge">
<title>reconfiguration&#45;&gt;stake</title>
<path fill="none" stroke="black" d="M1882.88,-727.27C1804.79,-712.96 1660.83,-686.58 1592.25,-674.01"/>
<polygon fill="black" stroke="black" points="1593.09,-670.61 1582.63,-672.25 1591.83,-677.49 1593.09,-670.61"/>
</g>
<!-- reconfiguration&#45;&gt;signer -->
<g id="edge46" class="edge">
<title>reconfiguration&#45;&gt;signer</title>
<path fill="none" stroke="black" d="M1936,-719.51C1936,-692.71 1936,-639.87 1936,-595 1936,-595 1936,-595 1936,-521 1936,-414.07 1954.6,-360.51 1876,-288 1739.01,-161.62 1131.6,-106.98 963.34,-94.1"/>
<polygon fill="black" stroke="black" points="963.74,-90.62 953.5,-93.36 963.21,-97.6 963.74,-90.62"/>
</g>
<!-- chain_status -->
<g id="node26" class="node">
<title>chain_status</title>
<ellipse fill="none" stroke="black" cx="2170" cy="-378" rx="53.89" ry="18"/>
<text text-anchor="middle" x="2170" y="-374.3" font-family="Times,serif" font-size="14.00">chain_status</text>
</g>
<!-- reconfiguration&#45;&gt;chain_status -->
<g id="edge51" class="edge">
<title>reconfiguration&#45;&gt;chain_status</title>
<path fill="none" stroke="black" d="M1974.58,-723.19C1995.8,-714.27 2021.67,-701.13 2041,-684 2126.14,-608.55 2156.73,-467.52 2166.24,-407.37"/>
<polygon fill="black" stroke="black" points="2169.67,-408.04 2167.69,-397.63 2162.75,-407 2169.67,-408.04"/>
</g>
<!-- storage_gas -->
<g id="node27" class="node">
<title>storage_gas</title>
<ellipse fill="none" stroke="black" cx="2092" cy="-450" rx="51.99" ry="18"/>
<text text-anchor="middle" x="2092" y="-446.3" font-family="Times,serif" font-size="14.00">storage_gas</text>
</g>
<!-- reconfiguration&#45;&gt;storage_gas -->
<g id="edge54" class="edge">
<title>reconfiguration&#45;&gt;storage_gas</title>
<path fill="none" stroke="black" d="M1961.45,-721.08C1992.47,-700.17 2043.87,-660.37 2069,-612 2091.03,-569.6 2093.98,-512.91 2093.46,-479.34"/>
<polygon fill="black" stroke="black" points="2096.96,-479.5 2093.18,-469.61 2089.97,-479.7 2096.96,-479.5"/>
</g>
<!-- type_info&#45;&gt;error -->
<g id="edge56" class="edge">
<title>type_info&#45;&gt;error</title>
<path fill="none" stroke="black" d="M1025.79,-221.84C1064.24,-209.06 1124.63,-188.78 1147,-180 1183.67,-165.61 1191.71,-159.34 1228,-144 1261.04,-130.03 1299.08,-114.85 1325.81,-104.33"/>
<polygon fill="black" stroke="black" points="1327.09,-107.59 1335.12,-100.68 1324.53,-101.07 1327.09,-107.59"/>
</g>
<!-- string -->
<g id="node28" class="node">
<title>string</title>
<ellipse fill="none" stroke="black" cx="467" cy="-162" rx="30.59" ry="18"/>
<text text-anchor="middle" x="467" y="-158.3" font-family="Times,serif" font-size="14.00">string</text>
</g>
<!-- type_info&#45;&gt;string -->
<g id="edge55" class="edge">
<title>type_info&#45;&gt;string</title>
<path fill="none" stroke="black" d="M950.37,-227.45C851.9,-214.32 605.66,-181.49 507.92,-168.46"/>
<polygon fill="black" stroke="black" points="508.63,-165.02 498.25,-167.17 507.7,-171.96 508.63,-165.02"/>
</g>
<!-- features -->
<g id="node29" class="node">
<title>features</title>
<ellipse fill="none" stroke="black" cx="1100" cy="-162" rx="38.19" ry="18"/>
<text text-anchor="middle" x="1100" y="-158.3" font-family="Times,serif" font-size="14.00">features</text>
</g>
<!-- type_info&#45;&gt;features -->
<g id="edge57" class="edge">
<title>type_info&#45;&gt;features</title>
<path fill="none" stroke="black" d="M1014.9,-218.15C1030.54,-208.02 1051.44,-194.47 1068.62,-183.34"/>
<polygon fill="black" stroke="black" points="1070.48,-186.31 1076.96,-177.93 1066.67,-180.43 1070.48,-186.31"/>
</g>
<!-- ed25519&#45;&gt;option -->
<g id="edge58" class="edge">
<title>ed25519&#45;&gt;option</title>
<path fill="none" stroke="black" d="M1143.07,-287.8C1142.16,-267.51 1137.38,-234.26 1117,-216 1104.34,-204.66 601.43,-122.48 449.82,-97.92"/>
<polygon fill="black" stroke="black" points="450.63,-94.5 440.2,-96.36 449.51,-101.41 450.63,-94.5"/>
</g>
<!-- ed25519&#45;&gt;error -->
<g id="edge59" class="edge">
<title>ed25519&#45;&gt;error</title>
<path fill="none" stroke="black" d="M1152.66,-288.15C1171.33,-256.72 1215.04,-188.32 1266,-144 1284.16,-128.2 1307.78,-114.91 1326.79,-105.59"/>
<polygon fill="black" stroke="black" points="1328.19,-108.8 1335.73,-101.35 1325.19,-102.47 1328.19,-108.8"/>
</g>
<!-- ed25519&#45;&gt;bcs -->
<g id="edge62" class="edge">
<title>ed25519&#45;&gt;bcs</title>
<path fill="none" stroke="black" d="M1171.59,-292.65C1199.9,-280.41 1243.19,-261.71 1272.73,-248.95"/>
<polygon fill="black" stroke="black" points="1273.75,-252.32 1281.54,-245.14 1270.97,-245.89 1273.75,-252.32"/>
</g>
<!-- ed25519&#45;&gt;type_info -->
<g id="edge60" class="edge">
<title>ed25519&#45;&gt;type_info</title>
<path fill="none" stroke="black" d="M1115.66,-292.32C1091.87,-281.3 1057.14,-265.2 1030.54,-252.87"/>
<polygon fill="black" stroke="black" points="1032.34,-249.84 1021.8,-248.81 1029.4,-256.19 1032.34,-249.84"/>
</g>
<!-- ed25519&#45;&gt;hash -->
<g id="edge61" class="edge">
<title>ed25519&#45;&gt;hash</title>
<path fill="none" stroke="black" d="M1128.62,-288.76C1120.54,-279.64 1110.32,-268.11 1101.43,-258.06"/>
<polygon fill="black" stroke="black" points="1104.29,-256.02 1095.04,-250.85 1099.05,-260.66 1104.29,-256.02"/>
</g>
<!-- multi_ed25519&#45;&gt;option -->
<g id="edge63" class="edge">
<title>multi_ed25519&#45;&gt;option</title>
<path fill="none" stroke="black" d="M1177.19,-360.14C1183.16,-350.1 1189.91,-336.85 1193,-324 1196.73,-308.44 1197.85,-303.25 1193,-288 1181.11,-250.63 1174.6,-237.79 1142,-216 1082.12,-175.97 1053.89,-197.41 984,-180 924.58,-165.19 911.12,-155.66 851,-144 706.09,-115.89 531.49,-100.3 451.26,-94.14"/>
<polygon fill="black" stroke="black" points="451.86,-90.67 441.63,-93.41 451.33,-97.65 451.86,-90.67"/>
</g>
<!-- multi_ed25519&#45;&gt;error -->
<g id="edge64" class="edge">
<title>multi_ed25519&#45;&gt;error</title>
<path fill="none" stroke="black" d="M1188.91,-360.96C1201.23,-351.39 1215.92,-338.32 1226,-324 1255.73,-281.74 1244.05,-261.24 1269,-216 1289.6,-178.65 1319.69,-139.51 1339.55,-115.19"/>
<polygon fill="black" stroke="black" points="1342.24,-117.43 1345.91,-107.49 1336.84,-112.97 1342.24,-117.43"/>
</g>
<!-- multi_ed25519&#45;&gt;bcs -->
<g id="edge66" class="edge">
<title>multi_ed25519&#45;&gt;bcs</title>
<path fill="none" stroke="black" d="M1204.21,-363.21C1224.09,-354.48 1247.59,-341.49 1264,-324 1280.27,-306.66 1290.99,-281.72 1297.38,-262.65"/>
<polygon fill="black" stroke="black" points="1300.64,-263.96 1300.28,-253.37 1293.95,-261.88 1300.64,-263.96"/>
</g>
<!-- multi_ed25519&#45;&gt;hash -->
<g id="edge65" class="edge">
<title>multi_ed25519&#45;&gt;hash</title>
<path fill="none" stroke="black" d="M1134.62,-361.9C1119.56,-353 1102.72,-340.27 1093,-324 1082.23,-305.97 1079.47,-282.27 1079.28,-263.86"/>
<polygon fill="black" stroke="black" points="1082.77,-263.94 1079.44,-253.88 1075.78,-263.82 1082.77,-263.94"/>
</g>
<!-- multi_ed25519&#45;&gt;ed25519 -->
<g id="edge67" class="edge">
<title>multi_ed25519&#45;&gt;ed25519</title>
<path fill="none" stroke="black" d="M1160.31,-359.7C1157.86,-352.24 1154.93,-343.32 1152.19,-334.97"/>
<polygon fill="black" stroke="black" points="1155.54,-333.95 1149.09,-325.54 1148.89,-336.14 1155.54,-333.95"/>
</g>
<!-- from_bcs&#45;&gt;string -->
<g id="edge68" class="edge">
<title>from_bcs&#45;&gt;string</title>
<path fill="none" stroke="black" d="M536.25,-217.46C523.77,-207.65 507.47,-194.83 493.83,-184.1"/>
<polygon fill="black" stroke="black" points="496.1,-181.43 486.07,-178 491.77,-186.93 496.1,-181.43"/>
</g>
<!-- coin&#45;&gt;option -->
<g id="edge69" class="edge">
<title>coin&#45;&gt;option</title>
<path fill="none" stroke="black" d="M818.73,-519.78C739.48,-515.86 510.71,-501.83 445,-468 289.28,-387.83 240.26,-342.94 176,-180 146.18,-104.38 286.51,-91.92 361.85,-90.57"/>
<polygon fill="black" stroke="black" points="361.87,-94.07 371.83,-90.45 361.79,-87.07 361.87,-94.07"/>
</g>
<!-- coin&#45;&gt;error -->
<g id="edge72" class="edge">
<title>coin&#45;&gt;error</title>
<path fill="none" stroke="black" d="M842.6,-503.82C835.52,-463.68 822.66,-361.57 858,-288 878.86,-244.58 900.51,-244.96 939,-216 986.89,-179.97 997.07,-165.51 1053,-144 1144.82,-108.69 1261.12,-96.8 1320.78,-92.88"/>
<polygon fill="black" stroke="black" points="1320.66,-96.39 1330.42,-92.29 1320.23,-89.4 1320.66,-96.39"/>
</g>
<!-- coin&#45;&gt;system_addresses -->
<g id="edge74" class="edge">
<title>coin&#45;&gt;system_addresses</title>
<path fill="none" stroke="black" d="M873.1,-520.19C939.88,-517.62 1117.25,-507.33 1259,-468 1335.71,-446.72 1355.12,-437.59 1423,-396 1444.54,-382.8 1443.96,-370.38 1467,-360 1544.49,-325.1 1641.48,-312.83 1709.63,-308.69"/>
<polygon fill="black" stroke="black" points="1709.44,-312.21 1719.23,-308.16 1709.05,-305.22 1709.44,-312.21"/>
</g>
<!-- coin&#45;&gt;event -->
<g id="edge75" class="edge">
<title>coin&#45;&gt;event</title>
<path fill="none" stroke="black" d="M873.11,-520.22C985.69,-516.78 1412.79,-501.58 1462,-468 1482.57,-453.97 1493.93,-427.43 1499.93,-406.97"/>
<polygon fill="black" stroke="black" points="1503.26,-408.09 1502.42,-397.53 1496.49,-406.3 1503.26,-408.09"/>
</g>
<!-- coin&#45;&gt;account -->
<g id="edge76" class="edge">
<title>coin&#45;&gt;account</title>
<path fill="none" stroke="black" d="M871.74,-516.08C933,-504.36 1088.14,-474.69 1165.98,-459.8"/>
<polygon fill="black" stroke="black" points="1166.23,-463.32 1175.4,-458 1164.92,-456.44 1166.23,-463.32"/>
</g>
<!-- coin&#45;&gt;signer -->
<g id="edge71" class="edge">
<title>coin&#45;&gt;signer</title>
<path fill="none" stroke="black" d="M818.62,-520.43C746.51,-518.37 553.75,-509.06 508,-468 477.51,-440.63 484,-419.97 484,-379 484,-379 484,-379 484,-305 484,-264.55 475.58,-245.73 503,-216 602.34,-108.28 790.39,-92.03 875.8,-90.48"/>
<polygon fill="black" stroke="black" points="875.68,-93.98 885.64,-90.37 875.6,-86.98 875.68,-93.98"/>
</g>
<!-- coin&#45;&gt;type_info -->
<g id="edge73" class="edge">
<title>coin&#45;&gt;type_info</title>
<path fill="none" stroke="black" d="M851.51,-504.01C854.59,-493.71 858.17,-480.24 860,-468 862.96,-448.21 855.63,-304.47 867,-288 883.52,-264.07 913.15,-250.89 939.42,-243.67"/>
<polygon fill="black" stroke="black" points="940.1,-247.1 948.95,-241.29 938.4,-240.31 940.1,-247.1"/>
</g>
<!-- coin&#45;&gt;string -->
<g id="edge70" class="edge">
<title>coin&#45;&gt;string</title>
<path fill="none" stroke="black" d="M818.65,-521.52C739.96,-522.37 515.71,-520.09 470,-468 400.74,-389.08 436.97,-249.44 456.83,-190.49"/>
<polygon fill="black" stroke="black" points="460.06,-191.84 460.05,-181.24 453.45,-189.54 460.06,-191.84"/>
</g>
<!-- optional_aggregator -->
<g id="node30" class="node">
<title>optional_aggregator</title>
<ellipse fill="none" stroke="black" cx="598" cy="-450" rx="81.49" ry="18"/>
<text text-anchor="middle" x="598" y="-446.3" font-family="Times,serif" font-size="14.00">optional_aggregator</text>
</g>
<!-- coin&#45;&gt;optional_aggregator -->
<g id="edge77" class="edge">
<title>coin&#45;&gt;optional_aggregator</title>
<path fill="none" stroke="black" d="M821.31,-514.03C783.45,-503.35 709.95,-482.6 657.61,-467.83"/>
<polygon fill="black" stroke="black" points="658.82,-464.53 648.25,-465.18 656.92,-471.27 658.82,-464.53"/>
</g>
<!-- aptos_coin&#45;&gt;option -->
<g id="edge79" class="edge">
<title>aptos_coin&#45;&gt;option</title>
<path fill="none" stroke="black" d="M314.36,-581.93C293.1,-573.67 267.54,-560.27 252,-540 142.51,-397.24 55.39,-284.32 168,-144 191.93,-114.18 300.26,-100.1 362.55,-94.36"/>
<polygon fill="black" stroke="black" points="362.82,-97.85 372.47,-93.49 362.2,-90.88 362.82,-97.85"/>
</g>
<!-- aptos_coin&#45;&gt;error -->
<g id="edge82" class="edge">
<title>aptos_coin&#45;&gt;error</title>
<path fill="none" stroke="black" d="M347.16,-575.61C341.6,-548.94 332,-496.27 332,-451 332,-451 332,-451 332,-305 332,-221.92 355.72,-186.68 427,-144 446.49,-132.33 1146.13,-100.51 1320.8,-92.73"/>
<polygon fill="black" stroke="black" points="1320.87,-96.23 1330.71,-92.29 1320.56,-89.24 1320.87,-96.23"/>
</g>
<!-- aptos_coin&#45;&gt;system_addresses -->
<g id="edge83" class="edge">
<title>aptos_coin&#45;&gt;system_addresses</title>
<path fill="none" stroke="black" d="M399.91,-591.33C591.11,-584.25 1287.44,-553.01 1489,-468 1535.88,-448.23 1538.72,-428.33 1578,-396 1597.25,-380.16 1599.09,-371.89 1621,-360 1654.12,-342.03 1694.18,-329.27 1727.4,-320.77"/>
<polygon fill="black" stroke="black" points="1728.06,-324.22 1736.92,-318.42 1726.37,-317.42 1728.06,-324.22"/>
</g>
<!-- aptos_coin&#45;&gt;vector -->
<g id="edge78" class="edge">
<title>aptos_coin&#45;&gt;vector</title>
<path fill="none" stroke="black" d="M305.47,-586.84C210.5,-571.18 0,-520.49 0,-379 0,-379 0,-379 0,-161 0,-72.75 308.54,-34.2 424.58,-22.81"/>
<polygon fill="black" stroke="black" points="424.7,-26.32 434.33,-21.88 424.04,-19.35 424.7,-26.32"/>
</g>
<!-- aptos_coin&#45;&gt;signer -->
<g id="edge81" class="edge">
<title>aptos_coin&#45;&gt;signer</title>
<path fill="none" stroke="black" d="M337.36,-576.5C330.06,-566.59 321.81,-553.34 318,-540 293.7,-455 282.51,-193.14 356,-144 398.92,-115.3 750.87,-98.02 876.03,-92.74"/>
<polygon fill="black" stroke="black" points="876.06,-96.24 885.9,-92.33 875.77,-89.25 876.06,-96.24"/>
</g>
<!-- aptos_coin&#45;&gt;coin -->
<g id="edge84" class="edge">
<title>aptos_coin&#45;&gt;coin</title>
<path fill="none" stroke="black" d="M396.24,-586.6C493.09,-572.91 718.93,-540.97 808.46,-528.31"/>
<polygon fill="black" stroke="black" points="808.77,-531.8 818.18,-526.93 807.79,-524.87 808.77,-531.8"/>
</g>
<!-- aptos_coin&#45;&gt;string -->
<g id="edge80" class="edge">
<title>aptos_coin&#45;&gt;string</title>
<path fill="none" stroke="black" d="M354.84,-575.61C360.4,-548.94 370,-496.27 370,-451 370,-451 370,-451 370,-305 370,-254.95 411.6,-209.55 440.32,-184.18"/>
<polygon fill="black" stroke="black" points="442.28,-187.11 447.6,-177.95 437.73,-181.79 442.28,-187.11"/>
</g>
<!-- staking_config&#45;&gt;error -->
<g id="edge85" class="edge">
<title>staking_config&#45;&gt;error</title>
<path fill="none" stroke="black" d="M1664.23,-361.71C1629.18,-343.31 1567.94,-311.91 1514,-288 1473.86,-270.21 1452.96,-283.13 1422,-252 1402.82,-232.72 1379.66,-159.79 1367.81,-119.02"/>
<polygon fill="black" stroke="black" points="1371.18,-118.08 1365.06,-109.42 1364.45,-120 1371.18,-118.08"/>
</g>
<!-- staking_config&#45;&gt;system_addresses -->
<g id="edge86" class="edge">
<title>staking_config&#45;&gt;system_addresses</title>
<path fill="none" stroke="black" d="M1716.17,-360.94C1729.45,-351.74 1746.34,-340.03 1760.99,-329.88"/>
<polygon fill="black" stroke="black" points="1762.77,-332.91 1768.99,-324.33 1758.78,-327.15 1762.77,-332.91"/>
</g>
<!-- bls12381&#45;&gt;option -->
<g id="edge87" class="edge">
<title>bls12381&#45;&gt;option</title>
<path fill="none" stroke="black" d="M288.46,-147.83C312.27,-136.42 346.85,-119.84 372.52,-107.53"/>
<polygon fill="black" stroke="black" points="373.7,-110.85 381.21,-103.37 370.68,-104.53 373.7,-110.85"/>
</g>
<!-- bls12381&#45;&gt;error -->
<g id="edge88" class="edge">
<title>bls12381&#45;&gt;error</title>
<path fill="none" stroke="black" d="M298.75,-153.13C316.11,-149.8 337.03,-146.19 356,-144 452.94,-132.81 1146.62,-100.73 1320.53,-92.79"/>
<polygon fill="black" stroke="black" points="1320.57,-96.29 1330.4,-92.34 1320.25,-89.3 1320.57,-96.29"/>
</g>
<!-- chain_status&#45;&gt;error -->
<g id="edge89" class="edge">
<title>chain_status&#45;&gt;error</title>
<path fill="none" stroke="black" d="M2170.97,-359.73C2172.4,-315.6 2169.38,-198.39 2102,-144 2047.08,-99.67 1544.9,-92.4 1399.36,-91.22"/>
<polygon fill="black" stroke="black" points="1399.49,-87.73 1389.46,-91.15 1399.43,-94.73 1399.49,-87.73"/>
</g>
<!-- chain_status&#45;&gt;system_addresses -->
<g id="edge90" class="edge">
<title>chain_status&#45;&gt;system_addresses</title>
<path fill="none" stroke="black" d="M2123.9,-368.42C2058.52,-356.25 1938.41,-333.88 1862.56,-319.76"/>
<polygon fill="black" stroke="black" points="1863.21,-316.32 1852.73,-317.93 1861.93,-323.21 1863.21,-316.32"/>
</g>
<!-- storage_gas&#45;&gt;error -->
<g id="edge91" class="edge">
<title>storage_gas&#45;&gt;error</title>
<path fill="none" stroke="black" d="M2091.19,-431.52C2090.02,-404.72 2088,-351.89 2088,-307 2088,-307 2088,-307 2088,-233 2088,-192.03 2095.56,-170.12 2064,-144 2012.67,-101.53 1540.76,-92.97 1399.66,-91.35"/>
<polygon fill="black" stroke="black" points="1399.74,-87.86 1389.7,-91.25 1399.66,-94.85 1399.74,-87.86"/>
</g>
<!-- storage_gas&#45;&gt;system_addresses -->
<g id="edge92" class="edge">
<title>storage_gas&#45;&gt;system_addresses</title>
<path fill="none" stroke="black" d="M2070.77,-433.48C2043.76,-414.27 1995.2,-381.48 1950,-360 1918.71,-345.13 1882.1,-332.46 1852.22,-323.25"/>
<polygon fill="black" stroke="black" points="1853.57,-320 1842.99,-320.45 1851.54,-326.7 1853.57,-320"/>
</g>
<!-- storage_gas&#45;&gt;state_storage -->
<g id="edge93" class="edge">
<title>storage_gas&#45;&gt;state_storage</title>
<path fill="none" stroke="black" d="M2127.88,-436.81C2161.67,-425.33 2212.51,-408.05 2249.82,-395.37"/>
<polygon fill="black" stroke="black" points="2250.67,-398.78 2259.01,-392.25 2248.41,-392.15 2250.67,-398.78"/>
</g>
<!-- string&#45;&gt;option -->
<g id="edge95" class="edge">
<title>string&#45;&gt;option</title>
<path fill="none" stroke="black" d="M453.68,-145.46C446.07,-136.58 436.36,-125.25 427.76,-115.22"/>
<polygon fill="black" stroke="black" points="430.43,-112.96 421.26,-107.64 425.11,-117.51 430.43,-112.96"/>
</g>
<!-- string&#45;&gt;vector -->
<g id="edge94" class="edge">
<title>string&#45;&gt;vector</title>
<path fill="none" stroke="black" d="M467.12,-143.59C467.29,-119.61 467.6,-76.14 467.8,-47.42"/>
<polygon fill="black" stroke="black" points="471.3,-47.65 467.87,-37.62 464.3,-47.6 471.3,-47.65"/>
</g>
<!-- features&#45;&gt;error -->
<g id="edge97" class="edge">
<title>features&#45;&gt;error</title>
<path fill="none" stroke="black" d="M1132.67,-152.21C1181.38,-139.09 1272.76,-114.49 1323.57,-100.81"/>
<polygon fill="black" stroke="black" points="1324.46,-104.19 1333.21,-98.21 1322.64,-97.43 1324.46,-104.19"/>
</g>
<!-- features&#45;&gt;signer -->
<g id="edge96" class="edge">
<title>features&#45;&gt;signer</title>
<path fill="none" stroke="black" d="M1071.08,-149.75C1039.96,-137.65 990.4,-118.38 956.59,-105.23"/>
<polygon fill="black" stroke="black" points="958.21,-102.11 947.62,-101.74 955.68,-108.63 958.21,-102.11"/>
</g>
<!-- optional_aggregator&#45;&gt;option -->
<g id="edge98" class="edge">
<title>optional_aggregator&#45;&gt;option</title>
<path fill="none" stroke="black" d="M583.91,-432C550.95,-391.28 468.43,-283.82 427,-180 419.23,-160.52 414.14,-137.38 411.05,-119.57"/>
<polygon fill="black" stroke="black" points="414.5,-119.02 409.45,-109.7 407.59,-120.13 414.5,-119.02"/>
</g>
<!-- optional_aggregator&#45;&gt;error -->
<g id="edge99" class="edge">
<title>optional_aggregator&#45;&gt;error</title>
<path fill="none" stroke="black" d="M589.43,-431.94C575.08,-400.76 550.46,-333.56 579,-288 617.94,-225.84 805.51,-164.29 876,-144 1036.07,-97.92 1236.5,-91.38 1320.3,-90.81"/>
<polygon fill="black" stroke="black" points="1320.3,-94.31 1330.29,-90.77 1320.27,-87.31 1320.3,-94.31"/>
</g>
<!-- aggregator -->
<g id="node31" class="node">
<title>aggregator</title>
<ellipse fill="none" stroke="black" cx="636" cy="-306" rx="48.19" ry="18"/>
<text text-anchor="middle" x="636" y="-302.3" font-family="Times,serif" font-size="14.00">aggregator</text>
</g>
<!-- optional_aggregator&#45;&gt;aggregator -->
<g id="edge100" class="edge">
<title>optional_aggregator&#45;&gt;aggregator</title>
<path fill="none" stroke="black" d="M602.66,-431.59C609.1,-407.5 620.81,-363.75 628.5,-335.03"/>
<polygon fill="black" stroke="black" points="631.83,-336.14 631.03,-325.57 625.06,-334.33 631.83,-336.14"/>
</g>
<!-- aggregator_factory -->
<g id="node32" class="node">
<title>aggregator_factory</title>
<ellipse fill="none" stroke="black" cx="741" cy="-378" rx="77.19" ry="18"/>
<text text-anchor="middle" x="741" y="-374.3" font-family="Times,serif" font-size="14.00">aggregator_factory</text>
</g>
<!-- optional_aggregator&#45;&gt;aggregator_factory -->
<g id="edge101" class="edge">
<title>optional_aggregator&#45;&gt;aggregator_factory</title>
<path fill="none" stroke="black" d="M630.45,-433.12C650.56,-423.27 676.62,-410.52 698.38,-399.86"/>
<polygon fill="black" stroke="black" points="699.88,-403.03 707.32,-395.49 696.8,-396.74 699.88,-403.03"/>
</g>
<!-- aggregator_factory&#45;&gt;error -->
<g id="edge102" class="edge">
<title>aggregator_factory&#45;&gt;error</title>
<path fill="none" stroke="black" d="M746.78,-359.74C758.3,-327.62 786.98,-258.11 832,-216 886.01,-165.49 911.21,-165.39 982,-144 1101.93,-107.76 1250.89,-96.14 1320.58,-92.54"/>
<polygon fill="black" stroke="black" points="1320.53,-96.05 1330.35,-92.07 1320.19,-89.06 1320.53,-96.05"/>
</g>
<!-- aggregator_factory&#45;&gt;system_addresses -->
<g id="edge104" class="edge">
<title>aggregator_factory&#45;&gt;system_addresses</title>
<path fill="none" stroke="black" d="M814.63,-372.11C1005.19,-359.44 1513.57,-325.64 1712.54,-312.41"/>
<polygon fill="black" stroke="black" points="1712.52,-315.92 1722.27,-311.77 1712.06,-308.94 1712.52,-315.92"/>
</g>
<!-- aggregator_factory&#45;&gt;table -->
<g id="edge103" class="edge">
<title>aggregator_factory&#45;&gt;table</title>
<path fill="none" stroke="black" d="M776.77,-361.64C804.9,-349.56 843.77,-332.86 871.13,-321.12"/>
<polygon fill="black" stroke="black" points="872.16,-324.48 879.97,-317.32 869.4,-318.05 872.16,-324.48"/>
</g>
<!-- aggregator_factory&#45;&gt;aggregator -->
<g id="edge105" class="edge">
<title>aggregator_factory&#45;&gt;aggregator</title>
<path fill="none" stroke="black" d="M716.38,-360.59C701.93,-350.95 683.5,-338.66 667.93,-328.29"/>
<polygon fill="black" stroke="black" points="670.19,-325.59 659.93,-322.95 666.31,-331.41 670.19,-325.59"/>
</g>
</g>
</svg>
