<?xml version="1.0" encoding="UTF-8" standalone="no"?>
<!DOCTYPE svg PUBLIC "-//W3C//DTD SVG 1.1//EN"
 "http://www.w3.org/Graphics/SVG/1.1/DTD/svg11.dtd">
<!-- Generated by graphviz version 7.0.0 (20221023.0053)
 -->
<!-- Title: G Pages: 1 -->
<svg width="861pt" height="404pt"
 viewBox="0.00 0.00 861.00 404.00" xmlns="http://www.w3.org/2000/svg" xmlns:xlink="http://www.w3.org/1999/xlink">
<g id="graph0" class="graph" transform="scale(1 1) rotate(0) translate(4 400)">
<title>G</title>
<polygon fill="white" stroke="none" points="-4,4 -4,-400 857,-400 857,4 -4,4"/>
<!-- code -->
<g id="node1" class="node">
<title>code</title>
<ellipse fill="none" stroke="black" cx="474" cy="-378" rx="27.1" ry="18"/>
<text text-anchor="middle" x="474" y="-374.3" font-family="Times,serif" font-size="14.00">code</text>
</g>
<!-- vector -->
<g id="node2" class="node">
<title>vector</title>
<ellipse fill="none" stroke="black" cx="74" cy="-18" rx="32.49" ry="18"/>
<text text-anchor="middle" x="74" y="-14.3" font-family="Times,serif" font-size="14.00">vector</text>
</g>
<!-- code&#45;&gt;vector -->
<g id="edge1" class="edge">
<title>code&#45;&gt;vector</title>
<path fill="none" stroke="black" d="M446.83,-375.19C371.61,-369.87 162.1,-352.78 100,-324 46.02,-298.98 0,-294.5 0,-235 0,-235 0,-235 0,-161 0,-115.24 30.59,-69.63 52.43,-42.88"/>
<polygon fill="black" stroke="black" points="54.98,-45.3 58.76,-35.4 49.63,-40.78 54.98,-45.3"/>
</g>
<!-- option -->
<g id="node3" class="node">
<title>option</title>
<ellipse fill="none" stroke="black" cx="74" cy="-90" rx="33.29" ry="18"/>
<text text-anchor="middle" x="74" y="-86.3" font-family="Times,serif" font-size="14.00">option</text>
</g>
<!-- code&#45;&gt;option -->
<g id="edge2" class="edge">
<title>code&#45;&gt;option</title>
<path fill="none" stroke="black" d="M446.81,-375.14C377.43,-370 195.63,-353.97 144,-324 108.46,-303.37 101.1,-290.22 86,-252 68.66,-208.12 68.94,-152.34 71.16,-119.28"/>
<polygon fill="black" stroke="black" points="74.62,-119.94 71.92,-109.7 67.64,-119.39 74.62,-119.94"/>
</g>
<!-- string -->
<g id="node4" class="node">
<title>string</title>
<ellipse fill="none" stroke="black" cx="144" cy="-162" rx="30.59" ry="18"/>
<text text-anchor="middle" x="144" y="-158.3" font-family="Times,serif" font-size="14.00">string</text>
</g>
<!-- code&#45;&gt;string -->
<g id="edge3" class="edge">
<title>code&#45;&gt;string</title>
<path fill="none" stroke="black" d="M447.87,-372.61C368.9,-358.74 135.69,-313.14 95,-252 80.34,-229.97 99.69,-203.2 118.22,-184.8"/>
<polygon fill="black" stroke="black" points="120.55,-187.42 125.45,-178.02 115.76,-182.31 120.55,-187.42"/>
</g>
<!-- signer -->
<g id="node5" class="node">
<title>signer</title>
<ellipse fill="none" stroke="black" cx="670" cy="-90" rx="32.49" ry="18"/>
<text text-anchor="middle" x="670" y="-86.3" font-family="Times,serif" font-size="14.00">signer</text>
</g>
<!-- code&#45;&gt;signer -->
<g id="edge4" class="edge">
<title>code&#45;&gt;signer</title>
<path fill="none" stroke="black" d="M497.79,-368.92C554.58,-348.15 697.38,-286.94 752,-180 759.28,-165.75 759.65,-158.05 752,-144 742.4,-126.37 724.14,-113.71 707.28,-105.19"/>
<polygon fill="black" stroke="black" points="708.97,-102.12 698.42,-101.06 706,-108.46 708.97,-102.12"/>
</g>
<!-- error -->
<g id="node6" class="node">
<title>error</title>
<ellipse fill="none" stroke="black" cx="474" cy="-90" rx="27.9" ry="18"/>
<text text-anchor="middle" x="474" y="-86.3" font-family="Times,serif" font-size="14.00">error</text>
</g>
<!-- code&#45;&gt;error -->
<g id="edge5" class="edge">
<title>code&#45;&gt;error</title>
<path fill="none" stroke="black" d="M474,-359.54C474,-311.76 474,-178.51 474,-119.61"/>
<polygon fill="black" stroke="black" points="477.5,-119.75 474,-109.75 470.5,-119.75 477.5,-119.75"/>
</g>
<!-- features -->
<g id="node7" class="node">
<title>features</title>
<ellipse fill="none" stroke="black" cx="540" cy="-162" rx="38.19" ry="18"/>
<text text-anchor="middle" x="540" y="-158.3" font-family="Times,serif" font-size="14.00">features</text>
</g>
<!-- code&#45;&gt;features -->
<g id="edge6" class="edge">
<title>code&#45;&gt;features</title>
<path fill="none" stroke="black" d="M479.29,-359.85C490.66,-322.99 517.51,-235.92 531.38,-190.96"/>
<polygon fill="black" stroke="black" points="534.64,-192.27 534.24,-181.68 527.95,-190.2 534.64,-192.27"/>
</g>
<!-- system_addresses -->
<g id="node8" class="node">
<title>system_addresses</title>
<ellipse fill="none" stroke="black" cx="670" cy="-162" rx="73.39" ry="18"/>
<text text-anchor="middle" x="670" y="-158.3" font-family="Times,serif" font-size="14.00">system_addresses</text>
</g>
<!-- code&#45;&gt;system_addresses -->
<g id="edge7" class="edge">
<title>code&#45;&gt;system_addresses</title>
<path fill="none" stroke="black" d="M487.47,-362.29C520.47,-326.26 605.66,-233.25 646.92,-188.2"/>
<polygon fill="black" stroke="black" points="649.36,-190.71 653.54,-180.97 644.2,-185.98 649.36,-190.71"/>
</g>
<!-- util -->
<g id="node9" class="node">
<title>util</title>
<ellipse fill="none" stroke="black" cx="826" cy="-306" rx="27" ry="18"/>
<text text-anchor="middle" x="826" y="-302.3" font-family="Times,serif" font-size="14.00">util</text>
</g>
<!-- code&#45;&gt;util -->
<g id="edge8" class="edge">
<title>code&#45;&gt;util</title>
<path fill="none" stroke="black" d="M501.08,-374.45C555.65,-368.86 682.38,-353.61 785,-324 787.79,-323.2 790.64,-322.26 793.48,-321.25"/>
<polygon fill="black" stroke="black" points="794.72,-324.52 802.78,-317.65 792.19,-318 794.72,-324.52"/>
</g>
<!-- copyable_any -->
<g id="node10" class="node">
<title>copyable_any</title>
<ellipse fill="none" stroke="black" cx="336" cy="-306" rx="59.59" ry="18"/>
<text text-anchor="middle" x="336" y="-302.3" font-family="Times,serif" font-size="14.00">copyable_any</text>
</g>
<!-- code&#45;&gt;copyable_any -->
<g id="edge9" class="edge">
<title>code&#45;&gt;copyable_any</title>
<path fill="none" stroke="black" d="M452.74,-366.22C432.21,-355.8 400.61,-339.77 375.47,-327.02"/>
<polygon fill="black" stroke="black" points="377.34,-324.04 366.83,-322.64 374.17,-330.29 377.34,-324.04"/>
</g>
<!-- option&#45;&gt;vector -->
<g id="edge10" class="edge">
<title>option&#45;&gt;vector</title>
<path fill="none" stroke="black" d="M74,-71.7C74,-64.41 74,-55.73 74,-47.54"/>
<polygon fill="black" stroke="black" points="77.5,-47.62 74,-37.62 70.5,-47.62 77.5,-47.62"/>
</g>
<!-- string&#45;&gt;vector -->
<g id="edge11" class="edge">
<title>string&#45;&gt;vector</title>
<path fill="none" stroke="black" d="M140.57,-143.87C136.43,-125.4 128.44,-95.47 116,-72 110.53,-61.68 102.97,-51.38 95.77,-42.65"/>
<polygon fill="black" stroke="black" points="98.66,-40.63 89.49,-35.32 93.34,-45.19 98.66,-40.63"/>
</g>
<!-- string&#45;&gt;option -->
<g id="edge12" class="edge">
<title>string&#45;&gt;option</title>
<path fill="none" stroke="black" d="M129.15,-146.15C119.91,-136.91 107.81,-124.81 97.31,-114.31"/>
<polygon fill="black" stroke="black" points="99.92,-111.97 90.38,-107.38 94.97,-116.92 99.92,-111.97"/>
</g>
<!-- features&#45;&gt;signer -->
<g id="edge13" class="edge">
<title>features&#45;&gt;signer</title>
<path fill="none" stroke="black" d="M564.45,-147.83C585.12,-136.71 614.89,-120.68 637.55,-108.48"/>
<polygon fill="black" stroke="black" points="638.92,-111.71 646.06,-103.89 635.6,-105.55 638.92,-111.71"/>
</g>
<!-- features&#45;&gt;error -->
<g id="edge14" class="edge">
<title>features&#45;&gt;error</title>
<path fill="none" stroke="black" d="M525.02,-145.12C516.35,-135.91 505.27,-124.17 495.66,-113.97"/>
<polygon fill="black" stroke="black" points="498.46,-111.84 489.05,-106.97 493.37,-116.64 498.46,-111.84"/>
</g>
<!-- system_addresses&#45;&gt;signer -->
<g id="edge15" class="edge">
<title>system_addresses&#45;&gt;signer</title>
<path fill="none" stroke="black" d="M670,-143.7C670,-136.41 670,-127.73 670,-119.54"/>
<polygon fill="black" stroke="black" points="673.5,-119.62 670,-109.62 666.5,-119.62 673.5,-119.62"/>
</g>
<!-- system_addresses&#45;&gt;error -->
<g id="edge16" class="edge">
<title>system_addresses&#45;&gt;error</title>
<path fill="none" stroke="black" d="M629.86,-146.67C594.24,-133.94 542.73,-115.55 508.82,-103.44"/>
<polygon fill="black" stroke="black" points="510.06,-100.16 499.47,-100.1 507.71,-106.75 510.06,-100.16"/>
</g>
<!-- copyable_any&#45;&gt;string -->
<g id="edge17" class="edge">
<title>copyable_any&#45;&gt;string</title>
<path fill="none" stroke="black" d="M304.63,-290.45C285.01,-280.74 259.63,-267.02 239,-252 220.19,-238.31 217.96,-231.92 201,-216 190.33,-205.99 178.49,-194.96 168.38,-185.57"/>
<polygon fill="black" stroke="black" points="170.83,-183.07 161.12,-178.84 166.07,-188.21 170.83,-183.07"/>
</g>
<!-- copyable_any&#45;&gt;error -->
<g id="edge18" class="edge">
<title>copyable_any&#45;&gt;error</title>
<path fill="none" stroke="black" d="M367.73,-290.55C384.41,-281.54 404.02,-268.52 417,-252 433.55,-230.94 455.13,-159.42 466.4,-119.15"/>
<polygon fill="black" stroke="black" points="469.72,-120.25 469.01,-109.67 462.98,-118.38 469.72,-120.25"/>
</g>
<!-- type_info -->
<g id="node11" class="node">
<title>type_info</title>
<ellipse fill="none" stroke="black" cx="292" cy="-234" rx="44.39" ry="18"/>
<text text-anchor="middle" x="292" y="-230.3" font-family="Times,serif" font-size="14.00">type_info</text>
</g>
<!-- copyable_any&#45;&gt;type_info -->
<g id="edge19" class="edge">
<title>copyable_any&#45;&gt;type_info</title>
<path fill="none" stroke="black" d="M325.35,-288.05C320.32,-280.06 314.21,-270.33 308.59,-261.4"/>
<polygon fill="black" stroke="black" points="311.64,-259.67 303.36,-253.07 305.72,-263.4 311.64,-259.67"/>
</g>
<!-- bcs -->
<g id="node12" class="node">
<title>bcs</title>
<ellipse fill="none" stroke="black" cx="381" cy="-234" rx="27" ry="18"/>
<text text-anchor="middle" x="381" y="-230.3" font-family="Times,serif" font-size="14.00">bcs</text>
</g>
<!-- copyable_any&#45;&gt;bcs -->
<g id="edge20" class="edge">
<title>copyable_any&#45;&gt;bcs</title>
<path fill="none" stroke="black" d="M346.89,-288.05C352.24,-279.73 358.8,-269.54 364.72,-260.32"/>
<polygon fill="black" stroke="black" points="367.54,-262.41 370.01,-252.1 361.65,-258.62 367.54,-262.41"/>
</g>
<!-- from_bcs -->
<g id="node13" class="node">
<title>from_bcs</title>
<ellipse fill="none" stroke="black" cx="148" cy="-234" rx="44.39" ry="18"/>
<text text-anchor="middle" x="148" y="-230.3" font-family="Times,serif" font-size="14.00">from_bcs</text>
</g>
<!-- copyable_any&#45;&gt;from_bcs -->
<g id="edge21" class="edge">
<title>copyable_any&#45;&gt;from_bcs</title>
<path fill="none" stroke="black" d="M299.75,-291.5C268.6,-279.9 223.62,-263.16 190.72,-250.91"/>
<polygon fill="black" stroke="black" points="192.08,-247.68 181.48,-247.47 189.63,-254.24 192.08,-247.68"/>
</g>
<!-- type_info&#45;&gt;string -->
<g id="edge22" class="edge">
<title>type_info&#45;&gt;string</title>
<path fill="none" stroke="black" d="M263.81,-219.67C239.19,-208.02 203.42,-191.1 177.37,-178.79"/>
<polygon fill="black" stroke="black" points="179.12,-175.74 168.59,-174.63 176.13,-182.07 179.12,-175.74"/>
</g>
<!-- type_info&#45;&gt;error -->
<g id="edge23" class="edge">
<title>type_info&#45;&gt;error</title>
<path fill="none" stroke="black" d="M311.82,-217.53C344.86,-191.76 411.18,-140.01 447.95,-111.33"/>
<polygon fill="black" stroke="black" points="449.7,-114.4 455.43,-105.49 445.39,-108.88 449.7,-114.4"/>
</g>
<!-- type_info&#45;&gt;features -->
<g id="edge24" class="edge">
<title>type_info&#45;&gt;features</title>
<path fill="none" stroke="black" d="M325.86,-221.89C332.2,-219.88 338.79,-217.84 345,-216 396.59,-200.72 456.35,-184.73 495.98,-174.36"/>
<polygon fill="black" stroke="black" points="496.84,-177.75 505.63,-171.84 495.07,-170.98 496.84,-177.75"/>
</g>
<!-- from_bcs&#45;&gt;string -->
<g id="edge25" class="edge">
<title>from_bcs&#45;&gt;string</title>
<path fill="none" stroke="black" d="M147.01,-215.7C146.59,-208.41 146.1,-199.73 145.63,-191.54"/>
<polygon fill="black" stroke="black" points="149.13,-191.4 145.06,-181.62 142.14,-191.8 149.13,-191.4"/>
</g>
</g>
</svg>
