<?xml version="1.0" encoding="UTF-8" standalone="no"?>
<!DOCTYPE svg PUBLIC "-//W3C//DTD SVG 1.1//EN"
 "http://www.w3.org/Graphics/SVG/1.1/DTD/svg11.dtd">
<!-- Generated by graphviz version 7.0.0 (20221023.0053)
 -->
<!-- Title: G Pages: 1 -->
<svg width="1188pt" height="548pt"
 viewBox="0.00 0.00 1188.19 548.00" xmlns="http://www.w3.org/2000/svg" xmlns:xlink="http://www.w3.org/1999/xlink">
<g id="graph0" class="graph" transform="scale(1 1) rotate(0) translate(4 544)">
<title>G</title>
<polygon fill="white" stroke="none" points="-4,4 -4,-544 1184.19,-544 1184.19,4 -4,4"/>
<!-- coin -->
<g id="node1" class="node">
<title>coin</title>
<ellipse fill="none" stroke="black" cx="1028" cy="-522" rx="27" ry="18"/>
<text text-anchor="middle" x="1028" y="-518.3" font-family="Times,serif" font-size="14.00">coin</text>
</g>
<!-- option -->
<g id="node2" class="node">
<title>option</title>
<ellipse fill="none" stroke="black" cx="114" cy="-90" rx="33.29" ry="18"/>
<text text-anchor="middle" x="114" y="-86.3" font-family="Times,serif" font-size="14.00">option</text>
</g>
<!-- coin&#45;&gt;option -->
<g id="edge1" class="edge">
<title>coin&#45;&gt;option</title>
<path fill="none" stroke="black" d="M1000.77,-520.19C837.93,-514.98 0,-483.1 0,-379 0,-379 0,-379 0,-233 0,-179.54 49.74,-134.75 83.51,-110.5"/>
<polygon fill="black" stroke="black" points="85.1,-113.66 91.31,-105.08 81.1,-107.91 85.1,-113.66"/>
</g>
<!-- string -->
<g id="node3" class="node">
<title>string</title>
<ellipse fill="none" stroke="black" cx="1045" cy="-162" rx="30.59" ry="18"/>
<text text-anchor="middle" x="1045" y="-158.3" font-family="Times,serif" font-size="14.00">string</text>
</g>
<!-- coin&#45;&gt;string -->
<g id="edge2" class="edge">
<title>coin&#45;&gt;string</title>
<path fill="none" stroke="black" d="M1040.62,-505.88C1048.15,-495.83 1057.01,-481.97 1061,-468 1089.18,-369.41 1065.66,-245.74 1052.46,-191.13"/>
<polygon fill="black" stroke="black" points="1055.86,-190.28 1050.04,-181.43 1049.07,-191.98 1055.86,-190.28"/>
</g>
<!-- signer -->
<g id="node4" class="node">
<title>signer</title>
<ellipse fill="none" stroke="black" cx="1031" cy="-90" rx="32.49" ry="18"/>
<text text-anchor="middle" x="1031" y="-86.3" font-family="Times,serif" font-size="14.00">signer</text>
</g>
<!-- coin&#45;&gt;signer -->
<g id="edge3" class="edge">
<title>coin&#45;&gt;signer</title>
<path fill="none" stroke="black" d="M1054.3,-517.13C1083.37,-511.46 1129.57,-498.09 1156,-468 1183.04,-437.22 1180,-419.97 1180,-379 1180,-379 1180,-379 1180,-233 1180,-192.03 1182.91,-174.89 1156,-144 1134.7,-119.55 1100.21,-106.08 1072.84,-98.84"/>
<polygon fill="black" stroke="black" points="1074.01,-95.52 1063.46,-96.55 1072.35,-102.32 1074.01,-95.52"/>
</g>
<!-- error -->
<g id="node5" class="node">
<title>error</title>
<ellipse fill="none" stroke="black" cx="634" cy="-90" rx="27.9" ry="18"/>
<text text-anchor="middle" x="634" y="-86.3" font-family="Times,serif" font-size="14.00">error</text>
</g>
<!-- coin&#45;&gt;error -->
<g id="edge4" class="edge">
<title>coin&#45;&gt;error</title>
<path fill="none" stroke="black" d="M1047.34,-509.19C1079.86,-487.67 1142,-438.75 1142,-379 1142,-379 1142,-379 1142,-233 1142,-186.03 1124.82,-168.91 1085,-144 1016.75,-101.3 770.36,-93 673.5,-91.39"/>
<polygon fill="black" stroke="black" points="673.75,-87.89 663.69,-91.24 673.64,-94.89 673.75,-87.89"/>
</g>
<!-- type_info -->
<g id="node6" class="node">
<title>type_info</title>
<ellipse fill="none" stroke="black" cx="937" cy="-234" rx="44.39" ry="18"/>
<text text-anchor="middle" x="937" y="-230.3" font-family="Times,serif" font-size="14.00">type_info</text>
</g>
<!-- coin&#45;&gt;type_info -->
<g id="edge5" class="edge">
<title>coin&#45;&gt;type_info</title>
<path fill="none" stroke="black" d="M1033.95,-504.4C1043.7,-474.51 1060.25,-410.09 1042,-360 1026.73,-318.07 990.53,-280.44 964.92,-257.68"/>
<polygon fill="black" stroke="black" points="967.35,-255.15 957.5,-251.25 962.77,-260.44 967.35,-255.15"/>
</g>
<!-- system_addresses -->
<g id="node7" class="node">
<title>system_addresses</title>
<ellipse fill="none" stroke="black" cx="791" cy="-162" rx="73.39" ry="18"/>
<text text-anchor="middle" x="791" y="-158.3" font-family="Times,serif" font-size="14.00">system_addresses</text>
</g>
<!-- coin&#45;&gt;system_addresses -->
<g id="edge6" class="edge">
<title>coin&#45;&gt;system_addresses</title>
<path fill="none" stroke="black" d="M1024.37,-504.05C1017.34,-473.6 999.98,-408.31 971,-360 948.33,-322.21 859.95,-231.8 816.04,-187.84"/>
<polygon fill="black" stroke="black" points="818.76,-185.6 809.21,-181.01 813.81,-190.56 818.76,-185.6"/>
</g>
<!-- event -->
<g id="node8" class="node">
<title>event</title>
<ellipse fill="none" stroke="black" cx="444" cy="-378" rx="29.8" ry="18"/>
<text text-anchor="middle" x="444" y="-374.3" font-family="Times,serif" font-size="14.00">event</text>
</g>
<!-- coin&#45;&gt;event -->
<g id="edge7" class="edge">
<title>coin&#45;&gt;event</title>
<path fill="none" stroke="black" d="M1001.15,-519.8C938.18,-516.43 776.49,-504.63 647,-468 583.61,-450.07 514.21,-416.32 475.2,-395.92"/>
<polygon fill="black" stroke="black" points="477.31,-393.08 466.83,-391.5 474.04,-399.27 477.31,-393.08"/>
</g>
<!-- account -->
<g id="node9" class="node">
<title>account</title>
<ellipse fill="none" stroke="black" cx="694" cy="-450" rx="38.19" ry="18"/>
<text text-anchor="middle" x="694" y="-446.3" font-family="Times,serif" font-size="14.00">account</text>
</g>
<!-- coin&#45;&gt;account -->
<g id="edge8" class="edge">
<title>coin&#45;&gt;account</title>
<path fill="none" stroke="black" d="M1002.35,-515.62C945.94,-503.8 810.52,-475.42 739.39,-460.51"/>
<polygon fill="black" stroke="black" points="740.53,-457.18 730.03,-458.55 739.1,-464.03 740.53,-457.18"/>
</g>
<!-- optional_aggregator -->
<g id="node10" class="node">
<title>optional_aggregator</title>
<ellipse fill="none" stroke="black" cx="185" cy="-306" rx="81.49" ry="18"/>
<text text-anchor="middle" x="185" y="-302.3" font-family="Times,serif" font-size="14.00">optional_aggregator</text>
</g>
<!-- coin&#45;&gt;optional_aggregator -->
<g id="edge9" class="edge">
<title>coin&#45;&gt;optional_aggregator</title>
<path fill="none" stroke="black" d="M1000.97,-519.41C879.83,-511.85 387.26,-476.61 259,-396 234.26,-380.45 213.74,-353.85 200.64,-333.76"/>
<polygon fill="black" stroke="black" points="203.74,-332.12 195.46,-325.51 197.81,-335.84 203.74,-332.12"/>
</g>
<!-- vector -->
<g id="node11" class="node">
<title>vector</title>
<ellipse fill="none" stroke="black" cx="690" cy="-18" rx="32.49" ry="18"/>
<text text-anchor="middle" x="690" y="-14.3" font-family="Times,serif" font-size="14.00">vector</text>
</g>
<!-- option&#45;&gt;vector -->
<g id="edge10" class="edge">
<title>option&#45;&gt;vector</title>
<path fill="none" stroke="black" d="M146.2,-85.09C243.81,-73.22 536.44,-37.66 647.03,-24.22"/>
<polygon fill="black" stroke="black" points="647.37,-27.71 656.88,-23.03 646.53,-20.76 647.37,-27.71"/>
</g>
<!-- string&#45;&gt;option -->
<g id="edge12" class="edge">
<title>string&#45;&gt;option</title>
<path fill="none" stroke="black" d="M1022.19,-149.72C1016.68,-147.45 1010.73,-145.35 1005,-144 922.32,-124.58 327.78,-99.55 158.73,-92.76"/>
<polygon fill="black" stroke="black" points="158.95,-89.27 148.82,-92.37 158.67,-96.26 158.95,-89.27"/>
</g>
<!-- string&#45;&gt;vector -->
<g id="edge11" class="edge">
<title>string&#45;&gt;vector</title>
<path fill="none" stroke="black" d="M1020.93,-150.66C1015.69,-148.44 1010.16,-146.12 1005,-144 904.79,-102.83 785.77,-56.22 726.84,-33.29"/>
<polygon fill="black" stroke="black" points="728.22,-30.07 717.63,-29.71 725.68,-36.59 728.22,-30.07"/>
</g>
<!-- type_info&#45;&gt;string -->
<g id="edge13" class="edge">
<title>type_info&#45;&gt;string</title>
<path fill="none" stroke="black" d="M959.9,-218.15C976.2,-207.59 998.24,-193.31 1015.8,-181.92"/>
<polygon fill="black" stroke="black" points="1017.28,-185.14 1023.76,-176.76 1013.47,-179.27 1017.28,-185.14"/>
</g>
<!-- type_info&#45;&gt;error -->
<g id="edge14" class="edge">
<title>type_info&#45;&gt;error</title>
<path fill="none" stroke="black" d="M929.51,-216C919.6,-195.6 900.17,-161.91 873,-144 811.57,-103.51 723.92,-93.54 673.61,-91.34"/>
<polygon fill="black" stroke="black" points="673.89,-87.84 663.78,-90.99 673.65,-94.84 673.89,-87.84"/>
</g>
<!-- features -->
<g id="node12" class="node">
<title>features</title>
<ellipse fill="none" stroke="black" cx="958" cy="-162" rx="38.19" ry="18"/>
<text text-anchor="middle" x="958" y="-158.3" font-family="Times,serif" font-size="14.00">features</text>
</g>
<!-- type_info&#45;&gt;features -->
<g id="edge15" class="edge">
<title>type_info&#45;&gt;features</title>
<path fill="none" stroke="black" d="M942.19,-215.7C944.43,-208.24 947.1,-199.32 949.61,-190.97"/>
<polygon fill="black" stroke="black" points="952.91,-192.14 952.43,-181.55 946.21,-190.13 952.91,-192.14"/>
</g>
<!-- system_addresses&#45;&gt;signer -->
<g id="edge16" class="edge">
<title>system_addresses&#45;&gt;signer</title>
<path fill="none" stroke="black" d="M836.99,-147.59C881.87,-134.49 949.42,-114.79 991.82,-102.43"/>
<polygon fill="black" stroke="black" points="992.74,-105.81 1001.36,-99.65 990.78,-99.09 992.74,-105.81"/>
</g>
<!-- system_addresses&#45;&gt;error -->
<g id="edge17" class="edge">
<title>system_addresses&#45;&gt;error</title>
<path fill="none" stroke="black" d="M756.55,-145.64C729.73,-133.68 692.78,-117.21 666.48,-105.48"/>
<polygon fill="black" stroke="black" points="668.21,-102.42 657.65,-101.55 665.36,-108.81 668.21,-102.42"/>
</g>
<!-- bcs -->
<g id="node13" class="node">
<title>bcs</title>
<ellipse fill="none" stroke="black" cx="455" cy="-234" rx="27" ry="18"/>
<text text-anchor="middle" x="455" y="-230.3" font-family="Times,serif" font-size="14.00">bcs</text>
</g>
<!-- event&#45;&gt;bcs -->
<g id="edge18" class="edge">
<title>event&#45;&gt;bcs</title>
<path fill="none" stroke="black" d="M425.53,-363.52C414.07,-353.95 400.35,-339.99 394,-324 388.09,-309.13 387.36,-302.56 394,-288 400.57,-273.6 413.2,-261.59 425.27,-252.67"/>
<polygon fill="black" stroke="black" points="427.19,-255.6 433.45,-247.05 423.23,-249.83 427.19,-255.6"/>
</g>
<!-- guid -->
<g id="node14" class="node">
<title>guid</title>
<ellipse fill="none" stroke="black" cx="601" cy="-306" rx="27" ry="18"/>
<text text-anchor="middle" x="601" y="-302.3" font-family="Times,serif" font-size="14.00">guid</text>
</g>
<!-- event&#45;&gt;guid -->
<g id="edge19" class="edge">
<title>event&#45;&gt;guid</title>
<path fill="none" stroke="black" d="M467.5,-366.52C494.32,-354.56 538.35,-334.93 568.45,-321.51"/>
<polygon fill="black" stroke="black" points="569.77,-324.76 577.48,-317.49 566.92,-318.36 569.77,-324.76"/>
</g>
<!-- account&#45;&gt;option -->
<g id="edge21" class="edge">
<title>account&#45;&gt;option</title>
<path fill="none" stroke="black" d="M655.41,-448.94C514.8,-447.71 38,-434.16 38,-307 38,-307 38,-307 38,-233 38,-187.23 69.08,-141.93 91.49,-115.22"/>
<polygon fill="black" stroke="black" points="94.08,-117.56 97.99,-107.72 88.8,-112.98 94.08,-117.56"/>
</g>
<!-- account&#45;&gt;signer -->
<g id="edge22" class="edge">
<title>account&#45;&gt;signer</title>
<path fill="none" stroke="black" d="M731.5,-445.84C798.07,-439.59 933.46,-423.78 971,-396 1058.25,-331.43 1058.9,-285.37 1085,-180 1088.85,-164.47 1091.19,-158.75 1085,-144 1079.69,-131.35 1069.73,-120.21 1059.79,-111.44"/>
<polygon fill="black" stroke="black" points="1062.31,-108.97 1052.36,-105.33 1057.86,-114.38 1062.31,-108.97"/>
</g>
<!-- account&#45;&gt;error -->
<g id="edge23" class="edge">
<title>account&#45;&gt;error</title>
<path fill="none" stroke="black" d="M700.49,-432.1C704.08,-421.84 708.17,-408.36 710,-396 712.34,-380.17 711.1,-375.96 710,-360 707.77,-327.77 707.39,-319.45 700,-288 685.47,-226.1 659.66,-156.05 644.99,-118.41"/>
<polygon fill="black" stroke="black" points="648.29,-117.25 641.37,-109.23 641.78,-119.82 648.29,-117.25"/>
</g>
<!-- account&#45;&gt;type_info -->
<g id="edge24" class="edge">
<title>account&#45;&gt;type_info</title>
<path fill="none" stroke="black" d="M727.41,-440.73C754.93,-432.69 793.85,-418.37 822,-396 869.03,-358.62 905.48,-297.16 923.85,-261.98"/>
<polygon fill="black" stroke="black" points="926.85,-263.8 928.28,-253.31 920.61,-260.62 926.85,-263.8"/>
</g>
<!-- account&#45;&gt;system_addresses -->
<g id="edge26" class="edge">
<title>account&#45;&gt;system_addresses</title>
<path fill="none" stroke="black" d="M725.17,-439.5C745.73,-431.45 771.16,-417.69 784,-396 822.3,-331.28 808.68,-237.75 798.34,-191.34"/>
<polygon fill="black" stroke="black" points="801.8,-190.74 796.1,-181.81 794.99,-192.35 801.8,-190.74"/>
</g>
<!-- account&#45;&gt;event -->
<g id="edge33" class="edge">
<title>account&#45;&gt;event</title>
<path fill="none" stroke="black" d="M659.75,-441.48C618.59,-432.15 547.61,-415.11 488,-396 484.93,-395.02 481.76,-393.93 478.6,-392.8"/>
<polygon fill="black" stroke="black" points="480.04,-389.6 469.44,-389.39 477.6,-396.16 480.04,-389.6"/>
</g>
<!-- account&#45;&gt;vector -->
<g id="edge20" class="edge">
<title>account&#45;&gt;vector</title>
<path fill="none" stroke="black" d="M706.5,-432.84C713.44,-422.83 721.38,-409.38 725,-396 729.18,-380.56 725.78,-375.98 725,-360 722.05,-299.17 701.45,-117.66 693.3,-47.3"/>
<polygon fill="black" stroke="black" points="696.82,-47.29 692.19,-37.76 689.87,-48.09 696.82,-47.29"/>
</g>
<!-- account&#45;&gt;bcs -->
<g id="edge28" class="edge">
<title>account&#45;&gt;bcs</title>
<path fill="none" stroke="black" d="M663.61,-438.73C635.29,-428.84 592.14,-412.92 556,-396 541.13,-389.04 435.31,-338.16 427,-324 415.24,-303.96 425.45,-278.44 436.7,-259.87"/>
<polygon fill="black" stroke="black" points="439.55,-261.9 442.1,-251.61 433.69,-258.07 439.55,-261.9"/>
</g>
<!-- account&#45;&gt;guid -->
<g id="edge31" class="edge">
<title>account&#45;&gt;guid</title>
<path fill="none" stroke="black" d="M676.51,-434.05C665.59,-424.07 651.81,-410.22 642,-396 628.8,-376.86 618.01,-352.8 610.82,-334.52"/>
<polygon fill="black" stroke="black" points="614.18,-333.5 607.35,-325.4 607.63,-335.99 614.18,-333.5"/>
</g>
<!-- table -->
<g id="node15" class="node">
<title>table</title>
<ellipse fill="none" stroke="black" cx="447" cy="-162" rx="27.9" ry="18"/>
<text text-anchor="middle" x="447" y="-158.3" font-family="Times,serif" font-size="14.00">table</text>
</g>
<!-- account&#45;&gt;table -->
<g id="edge25" class="edge">
<title>account&#45;&gt;table</title>
<path fill="none" stroke="black" d="M695.54,-431.77C698.38,-388.77 699.34,-275.86 639,-216 598.38,-175.71 530.07,-165.36 486.83,-163.08"/>
<polygon fill="black" stroke="black" points="486.98,-159.58 476.85,-162.69 486.71,-166.58 486.98,-159.58"/>
</g>
<!-- hash -->
<g id="node16" class="node">
<title>hash</title>
<ellipse fill="none" stroke="black" cx="603" cy="-234" rx="27" ry="18"/>
<text text-anchor="middle" x="603" y="-230.3" font-family="Times,serif" font-size="14.00">hash</text>
</g>
<!-- account&#45;&gt;hash -->
<g id="edge27" class="edge">
<title>account&#45;&gt;hash</title>
<path fill="none" stroke="black" d="M689.39,-432.03C680.97,-402.1 661.64,-338.33 637,-288 632.37,-278.54 626.41,-268.7 620.78,-260.1"/>
<polygon fill="black" stroke="black" points="623.76,-258.26 615.26,-251.93 617.96,-262.18 623.76,-258.26"/>
</g>
<!-- ed25519 -->
<g id="node17" class="node">
<title>ed25519</title>
<ellipse fill="none" stroke="black" cx="477" cy="-306" rx="40.89" ry="18"/>
<text text-anchor="middle" x="477" y="-302.3" font-family="Times,serif" font-size="14.00">ed25519</text>
</g>
<!-- account&#45;&gt;ed25519 -->
<g id="edge29" class="edge">
<title>account&#45;&gt;ed25519</title>
<path fill="none" stroke="black" d="M672.4,-434.87C633.93,-409.69 553.4,-356.99 508.66,-327.72"/>
<polygon fill="black" stroke="black" points="510.71,-324.88 500.43,-322.33 506.88,-330.73 510.71,-324.88"/>
</g>
<!-- multi_ed25519 -->
<g id="node18" class="node">
<title>multi_ed25519</title>
<ellipse fill="none" stroke="black" cx="332" cy="-378" rx="64.19" ry="18"/>
<text text-anchor="middle" x="332" y="-374.3" font-family="Times,serif" font-size="14.00">multi_ed25519</text>
</g>
<!-- account&#45;&gt;multi_ed25519 -->
<g id="edge30" class="edge">
<title>account&#45;&gt;multi_ed25519</title>
<path fill="none" stroke="black" d="M658.3,-443.01C603.62,-433.72 495.89,-414.91 405,-396 400.21,-395 395.26,-393.93 390.29,-392.83"/>
<polygon fill="black" stroke="black" points="391.44,-389.51 380.92,-390.72 389.91,-396.34 391.44,-389.51"/>
</g>
<!-- from_bcs -->
<g id="node19" class="node">
<title>from_bcs</title>
<ellipse fill="none" stroke="black" cx="918" cy="-378" rx="44.39" ry="18"/>
<text text-anchor="middle" x="918" y="-374.3" font-family="Times,serif" font-size="14.00">from_bcs</text>
</g>
<!-- account&#45;&gt;from_bcs -->
<g id="edge32" class="edge">
<title>account&#45;&gt;from_bcs</title>
<path fill="none" stroke="black" d="M725.15,-439.27C763.41,-427.31 828.63,-406.93 872.5,-393.22"/>
<polygon fill="black" stroke="black" points="873.5,-396.57 882,-390.25 871.41,-389.89 873.5,-396.57"/>
</g>
<!-- optional_aggregator&#45;&gt;option -->
<g id="edge34" class="edge">
<title>optional_aggregator&#45;&gt;option</title>
<path fill="none" stroke="black" d="M165.54,-288.28C155.68,-278.69 144.45,-265.82 138,-252 117.88,-208.89 113.84,-152.87 113.44,-119.55"/>
<polygon fill="black" stroke="black" points="116.94,-119.88 113.43,-109.88 109.94,-119.88 116.94,-119.88"/>
</g>
<!-- optional_aggregator&#45;&gt;error -->
<g id="edge35" class="edge">
<title>optional_aggregator&#45;&gt;error</title>
<path fill="none" stroke="black" d="M180.25,-287.59C172.43,-254.58 161.18,-182.75 199,-144 226.44,-115.88 492.83,-98.63 594.68,-93.02"/>
<polygon fill="black" stroke="black" points="594.67,-96.53 604.47,-92.49 594.29,-89.54 594.67,-96.53"/>
</g>
<!-- aggregator -->
<g id="node20" class="node">
<title>aggregator</title>
<ellipse fill="none" stroke="black" cx="256" cy="-162" rx="48.19" ry="18"/>
<text text-anchor="middle" x="256" y="-158.3" font-family="Times,serif" font-size="14.00">aggregator</text>
</g>
<!-- optional_aggregator&#45;&gt;aggregator -->
<g id="edge36" class="edge">
<title>optional_aggregator&#45;&gt;aggregator</title>
<path fill="none" stroke="black" d="M187.25,-287.73C190.2,-269.13 196.55,-239.1 209,-216 214.54,-205.72 222.45,-195.77 230.19,-187.32"/>
<polygon fill="black" stroke="black" points="232.63,-189.83 237.05,-180.2 227.59,-184.97 232.63,-189.83"/>
</g>
<!-- aggregator_factory -->
<g id="node21" class="node">
<title>aggregator_factory</title>
<ellipse fill="none" stroke="black" cx="295" cy="-234" rx="77.19" ry="18"/>
<text text-anchor="middle" x="295" y="-230.3" font-family="Times,serif" font-size="14.00">aggregator_factory</text>
</g>
<!-- optional_aggregator&#45;&gt;aggregator_factory -->
<g id="edge37" class="edge">
<title>optional_aggregator&#45;&gt;aggregator_factory</title>
<path fill="none" stroke="black" d="M210.79,-288.59C225.41,-279.28 243.91,-267.51 259.84,-257.37"/>
<polygon fill="black" stroke="black" points="261.54,-260.44 268.09,-252.12 257.78,-254.54 261.54,-260.44"/>
</g>
<!-- features&#45;&gt;signer -->
<g id="edge38" class="edge">
<title>features&#45;&gt;signer</title>
<path fill="none" stroke="black" d="M974.2,-145.46C983.88,-136.18 996.35,-124.23 1007.14,-113.88"/>
<polygon fill="black" stroke="black" points="1009.46,-116.51 1014.25,-107.06 1004.61,-111.45 1009.46,-116.51"/>
</g>
<!-- features&#45;&gt;error -->
<g id="edge39" class="edge">
<title>features&#45;&gt;error</title>
<path fill="none" stroke="black" d="M927.94,-150.47C920.8,-148.17 913.17,-145.86 906,-144 823.53,-122.57 724.99,-105.43 672.08,-96.89"/>
<polygon fill="black" stroke="black" points="672.81,-93.47 662.38,-95.35 671.7,-100.38 672.81,-93.47"/>
</g>
<!-- ed25519&#45;&gt;option -->
<g id="edge40" class="edge">
<title>ed25519&#45;&gt;option</title>
<path fill="none" stroke="black" d="M486.19,-288.06C495.2,-268.93 505.6,-237.66 491,-216 485.04,-207.16 323.12,-147.38 313,-144 259.33,-126.08 195.97,-110.06 155.41,-100.44"/>
<polygon fill="black" stroke="black" points="156.36,-97.07 145.82,-98.19 154.76,-103.88 156.36,-97.07"/>
</g>
<!-- ed25519&#45;&gt;error -->
<g id="edge41" class="edge">
<title>ed25519&#45;&gt;error</title>
<path fill="none" stroke="black" d="M491.94,-289.22C501.46,-278.91 513.86,-264.99 524,-252 559.88,-206 597.31,-148.96 617.93,-116.6"/>
<polygon fill="black" stroke="black" points="620.81,-118.6 623.21,-108.29 614.9,-114.86 620.81,-118.6"/>
</g>
<!-- ed25519&#45;&gt;type_info -->
<g id="edge42" class="edge">
<title>ed25519&#45;&gt;type_info</title>
<path fill="none" stroke="black" d="M513.32,-297.57C529.16,-294.43 547.97,-290.86 565,-288 678.28,-269 811.72,-251.06 883.99,-241.72"/>
<polygon fill="black" stroke="black" points="884.08,-245.23 893.55,-240.48 883.19,-238.29 884.08,-245.23"/>
</g>
<!-- ed25519&#45;&gt;bcs -->
<g id="edge44" class="edge">
<title>ed25519&#45;&gt;bcs</title>
<path fill="none" stroke="black" d="M471.56,-287.7C469.22,-280.24 466.42,-271.32 463.79,-262.97"/>
<polygon fill="black" stroke="black" points="467.17,-262.04 460.83,-253.55 460.49,-264.14 467.17,-262.04"/>
</g>
<!-- ed25519&#45;&gt;hash -->
<g id="edge43" class="edge">
<title>ed25519&#45;&gt;hash</title>
<path fill="none" stroke="black" d="M501.59,-291.34C521.9,-280.05 550.83,-263.99 572.59,-251.9"/>
<polygon fill="black" stroke="black" points="574.26,-254.97 581.3,-247.05 570.86,-248.85 574.26,-254.97"/>
</g>
<!-- multi_ed25519&#45;&gt;option -->
<g id="edge45" class="edge">
<title>multi_ed25519&#45;&gt;option</title>
<path fill="none" stroke="black" d="M271.12,-371.9C208.36,-365.23 116.68,-351.07 95,-324 46.96,-264.03 80.37,-165.33 101.03,-117.98"/>
<polygon fill="black" stroke="black" points="104.15,-119.56 105.08,-109.01 97.77,-116.68 104.15,-119.56"/>
</g>
<!-- multi_ed25519&#45;&gt;error -->
<g id="edge46" class="edge">
<title>multi_ed25519&#45;&gt;error</title>
<path fill="none" stroke="black" d="M334.54,-359.77C337.8,-341.2 344.56,-311.19 357,-288 366.98,-269.39 402.62,-229.32 419,-216 444.62,-195.16 455.35,-196.43 484,-180 526.24,-155.78 574.61,-126.86 604.73,-108.71"/>
<polygon fill="black" stroke="black" points="606.16,-111.94 612.92,-103.78 602.55,-105.94 606.16,-111.94"/>
</g>
<!-- multi_ed25519&#45;&gt;bcs -->
<g id="edge48" class="edge">
<title>multi_ed25519&#45;&gt;bcs</title>
<path fill="none" stroke="black" d="M340.08,-359.68C349.42,-340.76 366.1,-310.21 386,-288 397.76,-274.87 413.13,-262.7 426.39,-253.34"/>
<polygon fill="black" stroke="black" points="428.05,-256.44 434.33,-247.91 424.1,-250.67 428.05,-256.44"/>
</g>
<!-- multi_ed25519&#45;&gt;hash -->
<g id="edge47" class="edge">
<title>multi_ed25519&#45;&gt;hash</title>
<path fill="none" stroke="black" d="M379.44,-365.66C433.03,-352.61 514.44,-331.96 527,-324 540.73,-315.3 566.97,-282.73 584.73,-259.51"/>
<polygon fill="black" stroke="black" points="587.37,-261.82 590.62,-251.74 581.79,-257.59 587.37,-261.82"/>
</g>
<!-- multi_ed25519&#45;&gt;ed25519 -->
<g id="edge49" class="edge">
<title>multi_ed25519&#45;&gt;ed25519</title>
<path fill="none" stroke="black" d="M363.11,-361.98C385.72,-351.07 416.42,-336.25 440.25,-324.74"/>
<polygon fill="black" stroke="black" points="441.48,-328.03 448.96,-320.54 438.44,-321.73 441.48,-328.03"/>
</g>
<!-- from_bcs&#45;&gt;string -->
<g id="edge50" class="edge">
<title>from_bcs&#45;&gt;string</title>
<path fill="none" stroke="black" d="M927.97,-360.21C950,-323.08 1002.99,-233.79 1029.44,-189.23"/>
<polygon fill="black" stroke="black" points="1032.39,-191.11 1034.48,-180.72 1026.37,-187.54 1032.39,-191.11"/>
</g>
<!-- aggregator_factory&#45;&gt;error -->
<g id="edge51" class="edge">
<title>aggregator_factory&#45;&gt;error</title>
<path fill="none" stroke="black" d="M311.73,-216.23C332.82,-196.06 371.04,-162.6 410,-144 470.88,-114.93 548.86,-101.15 594.93,-95.14"/>
<polygon fill="black" stroke="black" points="595.21,-98.63 604.7,-93.93 594.34,-91.69 595.21,-98.63"/>
</g>
<!-- aggregator_factory&#45;&gt;system_addresses -->
<g id="edge53" class="edge">
<title>aggregator_factory&#45;&gt;system_addresses</title>
<path fill="none" stroke="black" d="M359.84,-223.85C452.04,-210.84 620.54,-187.06 717.34,-173.4"/>
<polygon fill="black" stroke="black" points="717.58,-176.9 726.99,-172.03 716.6,-169.97 717.58,-176.9"/>
</g>
<!-- aggregator_factory&#45;&gt;table -->
<g id="edge52" class="edge">
<title>aggregator_factory&#45;&gt;table</title>
<path fill="none" stroke="black" d="M328.73,-217.46C354.29,-205.69 389.21,-189.61 414.47,-177.98"/>
<polygon fill="black" stroke="black" points="415.65,-181.29 423.27,-173.93 412.73,-174.93 415.65,-181.29"/>
</g>
<!-- aggregator_factory&#45;&gt;aggregator -->
<g id="edge54" class="edge">
<title>aggregator_factory&#45;&gt;aggregator</title>
<path fill="none" stroke="black" d="M285.36,-215.7C281.06,-207.98 275.9,-198.71 271.11,-190.11"/>
<polygon fill="black" stroke="black" points="274.19,-188.46 266.27,-181.43 268.08,-191.87 274.19,-188.46"/>
</g>
</g>
</svg>
