<?xml version="1.0" encoding="UTF-8" standalone="no"?>
<!DOCTYPE svg PUBLIC "-//W3C//DTD SVG 1.1//EN"
 "http://www.w3.org/Graphics/SVG/1.1/DTD/svg11.dtd">
<!-- Generated by graphviz version 7.0.0 (20221023.0053)
 -->
<!-- Title: G Pages: 1 -->
<svg width="2848pt" height="920pt"
 viewBox="0.00 0.00 2848.00 920.00" xmlns="http://www.w3.org/2000/svg" xmlns:xlink="http://www.w3.org/1999/xlink">
<g id="graph0" class="graph" transform="scale(1 1) rotate(0) translate(4 916)">
<title>G</title>
<polygon fill="white" stroke="none" points="-4,4 -4,-916 2844,-916 2844,4 -4,4"/>
<g id="clust9" class="cluster">
<title>cluster_aptos_governance</title>
<polygon fill="none" stroke="black" points="1766,-449 1766,-524 1884,-524 1884,-449 1766,-449"/>
<text text-anchor="middle" x="1825" y="-508.8" font-family="Times,serif" font-size="14.00">aptos_governance</text>
</g>
<g id="clust10" class="cluster">
<title>cluster_block</title>
<polygon fill="none" stroke="black" points="1892,-449 1892,-524 2040,-524 2040,-449 1892,-449"/>
<text text-anchor="middle" x="1966" y="-508.8" font-family="Times,serif" font-size="14.00">block</text>
</g>
<g id="clust11" class="cluster">
<title>cluster_consensus_config</title>
<polygon fill="none" stroke="black" points="2048,-449 2048,-524 2161,-524 2161,-449 2048,-449"/>
<text text-anchor="middle" x="2104.5" y="-508.8" font-family="Times,serif" font-size="14.00">consensus_config</text>
</g>
<g id="clust12" class="cluster">
<title>cluster_gas_schedule</title>
<polygon fill="none" stroke="black" points="2169,-449 2169,-524 2531,-524 2531,-449 2169,-449"/>
<text text-anchor="middle" x="2350" y="-508.8" font-family="Times,serif" font-size="14.00">gas_schedule</text>
</g>
<g id="clust13" class="cluster">
<title>cluster_version</title>
<polygon fill="none" stroke="black" points="2539,-449 2539,-524 2657,-524 2657,-449 2539,-449"/>
<text text-anchor="middle" x="2598" y="-508.8" font-family="Times,serif" font-size="14.00">version</text>
</g>
<g id="clust1" class="cluster">
<title>cluster_stake</title>
<polygon fill="none" stroke="black" points="1496,-136 1496,-358 2118,-358 2118,-136 1496,-136"/>
<text text-anchor="middle" x="1807" y="-342.8" font-family="Times,serif" font-size="14.00">stake</text>
</g>
<g id="clust2" class="cluster">
<title>cluster_vesting</title>
<polygon fill="none" stroke="black" points="8,-532 8,-754 851,-754 851,-532 8,-532"/>
<text text-anchor="middle" x="429.5" y="-738.8" font-family="Times,serif" font-size="14.00">vesting</text>
</g>
<g id="clust3" class="cluster">
<title>cluster_aptos_coin</title>
<polygon fill="none" stroke="black" points="2407,-136 2407,-211 2716,-211 2716,-136 2407,-136"/>
<text text-anchor="middle" x="2561.5" y="-195.8" font-family="Times,serif" font-size="14.00">aptos_coin</text>
</g>
<g id="clust4" class="cluster">
<title>cluster_managed_coin</title>
<polygon fill="none" stroke="black" points="1392,-136 1392,-211 1488,-211 1488,-136 1392,-136"/>
<text text-anchor="middle" x="1440" y="-195.8" font-family="Times,serif" font-size="14.00">managed_coin</text>
</g>
<g id="clust5" class="cluster">
<title>cluster_staking_contract</title>
<polygon fill="none" stroke="black" points="859,-366 859,-607 1726,-607 1726,-366 859,-366"/>
<text text-anchor="middle" x="1292.5" y="-591.8" font-family="Times,serif" font-size="14.00">staking_contract</text>
</g>
<g id="clust6" class="cluster">
<title>cluster_genesis</title>
<polygon fill="none" stroke="black" points="2042,-532 2042,-904 2832,-904 2832,-532 2042,-532"/>
<text text-anchor="middle" x="2437" y="-888.8" font-family="Times,serif" font-size="14.00">genesis</text>
</g>
<g id="clust7" class="cluster">
<title>cluster_staking_proxy</title>
<polygon fill="none" stroke="black" points="859,-679 859,-829 1358,-829 1358,-679 859,-679"/>
<text text-anchor="middle" x="1108.5" y="-813.8" font-family="Times,serif" font-size="14.00">staking_proxy</text>
</g>
<g id="clust8" class="cluster">
<title>cluster_reconfiguration</title>
<polygon fill="none" stroke="black" points="2045,-366 2045,-441 2163,-441 2163,-366 2045,-366"/>
<text text-anchor="middle" x="2104" y="-425.8" font-family="Times,serif" font-size="14.00">reconfiguration</text>
</g>
<!-- zero -->
<g id="node1" class="node">
<title>zero</title>
<ellipse fill="none" stroke="black" cx="1355" cy="-18" rx="27" ry="18"/>
<text text-anchor="middle" x="1355" y="-14.3" font-family="Times,serif" font-size="14.00">zero</text>
</g>
<!-- mint -->
<g id="node2" class="node">
<title>mint</title>
<ellipse fill="none" stroke="black" cx="2033" cy="-90" rx="27.1" ry="18"/>
<text text-anchor="middle" x="2033" y="-86.3" font-family="Times,serif" font-size="14.00">mint</text>
</g>
<!-- mint&#45;&gt;zero -->
<g id="edge1" class="edge">
<title>mint&#45;&gt;zero</title>
<path fill="none" stroke="black" d="M2006,-86.21C1900.53,-75.32 1516.07,-35.63 1393.1,-22.93"/>
<polygon fill="black" stroke="black" points="1393.52,-19.46 1383.21,-21.91 1392.8,-26.42 1393.52,-19.46"/>
</g>
<!-- stake::initialize_owner -->
<g id="node3" class="node">
<title>stake::initialize_owner</title>
<ellipse fill="none" stroke="black" cx="1751" cy="-237" rx="67.69" ry="18"/>
<text text-anchor="middle" x="1751" y="-233.3" font-family="Times,serif" font-size="14.00">initialize_owner</text>
</g>
<!-- stake::initialize_owner&#45;&gt;zero -->
<g id="edge2" class="edge">
<title>stake::initialize_owner&#45;&gt;zero</title>
<path fill="none" stroke="black" d="M1703.41,-223.89C1694.05,-221.92 1684.26,-220.15 1675,-219 1659.17,-217.03 1400.05,-221.45 1388,-211 1363.96,-190.16 1357.43,-96.27 1355.66,-47.94"/>
<polygon fill="black" stroke="black" points="1359.16,-47.83 1355.34,-37.95 1352.16,-48.05 1359.16,-47.83"/>
</g>
<!-- stake::withdraw_with_cap -->
<g id="node4" class="node">
<title>stake::withdraw_with_cap</title>
<ellipse fill="none" stroke="black" cx="1585" cy="-237" rx="80.69" ry="18"/>
<text text-anchor="middle" x="1585" y="-233.3" font-family="Times,serif" font-size="14.00">withdraw_with_cap</text>
</g>
<!-- stake::withdraw_with_cap&#45;&gt;zero -->
<g id="edge3" class="edge">
<title>stake::withdraw_with_cap&#45;&gt;zero</title>
<path fill="none" stroke="black" d="M1506.65,-232.29C1445.76,-228.59 1369.99,-221.87 1360,-211 1318.95,-166.32 1333.73,-88.15 1345.71,-46.68"/>
<polygon fill="black" stroke="black" points="1349.03,-47.8 1348.6,-37.22 1342.33,-45.76 1349.03,-47.8"/>
</g>
<!-- vesting::create_vesting_contract -->
<g id="node5" class="node">
<title>vesting::create_vesting_contract</title>
<ellipse fill="none" stroke="black" cx="110" cy="-705" rx="94.48" ry="18"/>
<text text-anchor="middle" x="110" y="-701.3" font-family="Times,serif" font-size="14.00">create_vesting_contract</text>
</g>
<!-- vesting::create_vesting_contract&#45;&gt;zero -->
<g id="edge4" class="edge">
<title>vesting::create_vesting_contract&#45;&gt;zero</title>
<path fill="none" stroke="black" d="M106.25,-686.69C100.71,-659.59 91,-605.46 91,-559 91,-559 91,-559 91,-161 91,-34.48 1103.99,-20.69 1316.28,-19.18"/>
<polygon fill="black" stroke="black" points="1316.23,-22.68 1326.21,-19.12 1316.18,-15.68 1316.23,-22.68"/>
</g>
<!-- staking_contract::create_staking_contract_with_coins -->
<g id="node26" class="node">
<title>staking_contract::create_staking_contract_with_coins</title>
<ellipse fill="none" stroke="black" cx="1581" cy="-475" rx="137.28" ry="18"/>
<text text-anchor="middle" x="1581" y="-471.3" font-family="Times,serif" font-size="14.00">create_staking_contract_with_coins</text>
</g>
<!-- vesting::create_vesting_contract&#45;&gt;staking_contract::create_staking_contract_with_coins -->
<g id="edge37" class="edge">
<title>vesting::create_vesting_contract&#45;&gt;staking_contract::create_staking_contract_with_coins</title>
<path fill="none" stroke="black" d="M112.47,-686.7C116.32,-666.32 125.8,-632.97 148,-615 297.28,-494.22 380.96,-551.42 572,-532 667.4,-522.3 1340.39,-539.6 1435,-524 1467.77,-518.6 1503.19,-507.1 1530.94,-496.71"/>
<polygon fill="black" stroke="black" points="1532.05,-500.03 1540.14,-493.19 1529.55,-493.49 1532.05,-500.03"/>
</g>
<!-- aptos_coin::mint -->
<g id="node6" class="node">
<title>aptos_coin::mint</title>
<ellipse fill="none" stroke="black" cx="2442" cy="-162" rx="27.1" ry="18"/>
<text text-anchor="middle" x="2442" y="-158.3" font-family="Times,serif" font-size="14.00">mint</text>
</g>
<!-- aptos_coin::mint&#45;&gt;mint -->
<g id="edge5" class="edge">
<title>aptos_coin::mint&#45;&gt;mint</title>
<path fill="none" stroke="black" d="M2415.79,-156.51C2345.47,-144.48 2152.38,-111.43 2070.5,-97.42"/>
<polygon fill="black" stroke="black" points="2071.19,-93.99 2060.74,-95.75 2070.01,-100.89 2071.19,-93.99"/>
</g>
<!-- aptos_coin::configure_accounts_for_test -->
<g id="node7" class="node">
<title>aptos_coin::configure_accounts_for_test</title>
<ellipse fill="none" stroke="black" cx="2598" cy="-162" rx="110.48" ry="18"/>
<text text-anchor="middle" x="2598" y="-158.3" font-family="Times,serif" font-size="14.00">configure_accounts_for_test</text>
</g>
<!-- aptos_coin::configure_accounts_for_test&#45;&gt;mint -->
<g id="edge6" class="edge">
<title>aptos_coin::configure_accounts_for_test&#45;&gt;mint</title>
<path fill="none" stroke="black" d="M2535.63,-146.72C2517.15,-142.83 2496.82,-138.9 2478,-136 2328.36,-112.91 2148.51,-98.89 2071.28,-93.52"/>
<polygon fill="black" stroke="black" points="2071.94,-90.05 2061.73,-92.86 2071.46,-97.04 2071.94,-90.05"/>
</g>
<!-- stake::distribute_rewards -->
<g id="node8" class="node">
<title>stake::distribute_rewards</title>
<ellipse fill="none" stroke="black" cx="2033" cy="-162" rx="76.09" ry="18"/>
<text text-anchor="middle" x="2033" y="-158.3" font-family="Times,serif" font-size="14.00">distribute_rewards</text>
</g>
<!-- stake::distribute_rewards&#45;&gt;mint -->
<g id="edge7" class="edge">
<title>stake::distribute_rewards&#45;&gt;mint</title>
<path fill="none" stroke="black" d="M2033,-143.7C2033,-136.41 2033,-127.73 2033,-119.54"/>
<polygon fill="black" stroke="black" points="2036.5,-119.62 2033,-109.62 2029.5,-119.62 2036.5,-119.62"/>
</g>
<!-- managed_coin::mint -->
<g id="node9" class="node">
<title>managed_coin::mint</title>
<ellipse fill="none" stroke="black" cx="1453" cy="-162" rx="27.1" ry="18"/>
<text text-anchor="middle" x="1453" y="-158.3" font-family="Times,serif" font-size="14.00">mint</text>
</g>
<!-- managed_coin::mint&#45;&gt;mint -->
<g id="edge8" class="edge">
<title>managed_coin::mint&#45;&gt;mint</title>
<path fill="none" stroke="black" d="M1469.92,-147.6C1476.46,-143.13 1484.23,-138.63 1492,-136 1585.25,-104.42 1886.6,-94.42 1994.3,-91.8"/>
<polygon fill="black" stroke="black" points="1994.14,-95.31 2004.06,-91.57 1993.98,-88.31 1994.14,-95.31"/>
</g>
<!-- stake::initialize_stake_owner -->
<g id="node10" class="node">
<title>stake::initialize_stake_owner</title>
<ellipse fill="none" stroke="black" cx="1701" cy="-309" rx="90.18" ry="18"/>
<text text-anchor="middle" x="1701" y="-305.3" font-family="Times,serif" font-size="14.00">initialize_stake_owner</text>
</g>
<!-- stake::initialize_stake_owner&#45;&gt;stake::initialize_owner -->
<g id="edge9" class="edge">
<title>stake::initialize_stake_owner&#45;&gt;stake::initialize_owner</title>
<path fill="none" stroke="black" d="M1713.36,-290.7C1719.05,-282.73 1725.93,-273.1 1732.24,-264.26"/>
<polygon fill="black" stroke="black" points="1734.94,-266.51 1737.9,-256.34 1729.24,-262.44 1734.94,-266.51"/>
</g>
<!-- stake::initialize_validator -->
<g id="node11" class="node">
<title>stake::initialize_validator</title>
<ellipse fill="none" stroke="black" cx="1887" cy="-309" rx="77.19" ry="18"/>
<text text-anchor="middle" x="1887" y="-305.3" font-family="Times,serif" font-size="14.00">initialize_validator</text>
</g>
<!-- stake::initialize_validator&#45;&gt;stake::initialize_owner -->
<g id="edge10" class="edge">
<title>stake::initialize_validator&#45;&gt;stake::initialize_owner</title>
<path fill="none" stroke="black" d="M1856.14,-292.12C1836.83,-282.18 1811.76,-269.27 1790.94,-258.56"/>
<polygon fill="black" stroke="black" points="1792.64,-255.5 1782.15,-254.03 1789.44,-261.72 1792.64,-255.5"/>
</g>
<!-- stake::withdraw -->
<g id="node12" class="node">
<title>stake::withdraw</title>
<ellipse fill="none" stroke="black" cx="1548" cy="-309" rx="44.39" ry="18"/>
<text text-anchor="middle" x="1548" y="-305.3" font-family="Times,serif" font-size="14.00">withdraw</text>
</g>
<!-- stake::withdraw&#45;&gt;stake::withdraw_with_cap -->
<g id="edge11" class="edge">
<title>stake::withdraw&#45;&gt;stake::withdraw_with_cap</title>
<path fill="none" stroke="black" d="M1556.96,-291.05C1561.03,-283.35 1565.96,-274.03 1570.54,-265.36"/>
<polygon fill="black" stroke="black" points="1573.58,-267.09 1575.16,-256.61 1567.39,-263.82 1573.58,-267.09"/>
</g>
<!-- staking_contract::distribute_internal -->
<g id="node13" class="node">
<title>staking_contract::distribute_internal</title>
<ellipse fill="none" stroke="black" cx="1263" cy="-392" rx="75.29" ry="18"/>
<text text-anchor="middle" x="1263" y="-388.3" font-family="Times,serif" font-size="14.00">distribute_internal</text>
</g>
<!-- staking_contract::distribute_internal&#45;&gt;stake::withdraw_with_cap -->
<g id="edge12" class="edge">
<title>staking_contract::distribute_internal&#45;&gt;stake::withdraw_with_cap</title>
<path fill="none" stroke="black" d="M1295.95,-375.35C1354.4,-347.57 1476.24,-289.68 1541.51,-258.67"/>
<polygon fill="black" stroke="black" points="1542.96,-261.85 1550.49,-254.4 1539.96,-255.53 1542.96,-261.85"/>
</g>
<!-- genesis::create_employee_validators -->
<g id="node14" class="node">
<title>genesis::create_employee_validators</title>
<ellipse fill="none" stroke="black" cx="2160" cy="-855" rx="109.68" ry="18"/>
<text text-anchor="middle" x="2160" y="-851.3" font-family="Times,serif" font-size="14.00">create_employee_validators</text>
</g>
<!-- genesis::create_employee_validators&#45;&gt;vesting::create_vesting_contract -->
<g id="edge13" class="edge">
<title>genesis::create_employee_validators&#45;&gt;vesting::create_vesting_contract</title>
<path fill="none" stroke="black" d="M2050.38,-853.27C1779.92,-851.25 1086.03,-844.67 855,-829 568.38,-809.56 489.39,-832.34 213,-754 190.9,-747.74 167.59,-737.24 148.75,-727.66"/>
<polygon fill="black" stroke="black" points="150.61,-724.68 140.12,-723.16 147.37,-730.89 150.61,-724.68"/>
</g>
<!-- genesis::create_account -->
<g id="node15" class="node">
<title>genesis::create_account</title>
<ellipse fill="none" stroke="black" cx="2715" cy="-558" rx="63.89" ry="18"/>
<text text-anchor="middle" x="2715" y="-554.3" font-family="Times,serif" font-size="14.00">create_account</text>
</g>
<!-- genesis::create_account&#45;&gt;aptos_coin::mint -->
<g id="edge14" class="edge">
<title>genesis::create_account&#45;&gt;aptos_coin::mint</title>
<path fill="none" stroke="black" d="M2715,-539.76C2715,-509.88 2715,-446.53 2715,-393 2715,-393 2715,-393 2715,-308 2715,-194.6 2569.14,-279.81 2479,-211 2470.91,-204.83 2463.66,-196.47 2457.76,-188.46"/>
<polygon fill="black" stroke="black" points="2460.68,-186.53 2452.13,-180.28 2454.91,-190.5 2460.68,-186.53"/>
</g>
<!-- genesis::initialize_core_resources_and_aptos_coin -->
<g id="node16" class="node">
<title>genesis::initialize_core_resources_and_aptos_coin</title>
<ellipse fill="none" stroke="black" cx="2666" cy="-855" rx="157.87" ry="18"/>
<text text-anchor="middle" x="2666" y="-851.3" font-family="Times,serif" font-size="14.00">initialize_core_resources_and_aptos_coin</text>
</g>
<!-- genesis::initialize_core_resources_and_aptos_coin&#45;&gt;aptos_coin::configure_accounts_for_test -->
<g id="edge15" class="edge">
<title>genesis::initialize_core_resources_and_aptos_coin&#45;&gt;aptos_coin::configure_accounts_for_test</title>
<path fill="none" stroke="black" d="M2700.49,-836.98C2742.24,-813.67 2807,-767.57 2807,-706 2807,-706 2807,-706 2807,-308 2807,-239.36 2729.97,-200.62 2669.44,-180.78"/>
<polygon fill="black" stroke="black" points="2670.77,-177.52 2660.18,-177.86 2668.66,-184.2 2670.77,-177.52"/>
</g>
<!-- stake::update_stake_pool -->
<g id="node17" class="node">
<title>stake::update_stake_pool</title>
<ellipse fill="none" stroke="black" cx="2033" cy="-237" rx="76.89" ry="18"/>
<text text-anchor="middle" x="2033" y="-233.3" font-family="Times,serif" font-size="14.00">update_stake_pool</text>
</g>
<!-- stake::update_stake_pool&#45;&gt;stake::distribute_rewards -->
<g id="edge16" class="edge">
<title>stake::update_stake_pool&#45;&gt;stake::distribute_rewards</title>
<path fill="none" stroke="black" d="M2033,-218.7C2033,-210.67 2033,-200.9 2033,-191.8"/>
<polygon fill="black" stroke="black" points="2036.5,-191.94 2033,-181.94 2029.5,-191.94 2036.5,-191.94"/>
</g>
<!-- staking_contract::create_stake_pool -->
<g id="node18" class="node">
<title>staking_contract::create_stake_pool</title>
<ellipse fill="none" stroke="black" cx="1612" cy="-392" rx="74.19" ry="18"/>
<text text-anchor="middle" x="1612" y="-388.3" font-family="Times,serif" font-size="14.00">create_stake_pool</text>
</g>
<!-- staking_contract::create_stake_pool&#45;&gt;stake::initialize_stake_owner -->
<g id="edge17" class="edge">
<title>staking_contract::create_stake_pool&#45;&gt;stake::initialize_stake_owner</title>
<path fill="none" stroke="black" d="M1630.44,-374.22C1643.01,-362.78 1659.85,-347.45 1673.93,-334.64"/>
<polygon fill="black" stroke="black" points="1676.12,-337.38 1681.16,-328.06 1671.41,-332.2 1676.12,-337.38"/>
</g>
<!-- genesis::create_initialize_validator -->
<g id="node19" class="node">
<title>genesis::create_initialize_validator</title>
<ellipse fill="none" stroke="black" cx="2434" cy="-633" rx="102.88" ry="18"/>
<text text-anchor="middle" x="2434" y="-629.3" font-family="Times,serif" font-size="14.00">create_initialize_validator</text>
</g>
<!-- genesis::create_initialize_validator&#45;&gt;stake::initialize_stake_owner -->
<g id="edge18" class="edge">
<title>genesis::create_initialize_validator&#45;&gt;stake::initialize_stake_owner</title>
<path fill="none" stroke="black" d="M2466.91,-615.56C2507.71,-595.31 2579.53,-560.15 2642,-532 2650.35,-528.24 2655.93,-531.63 2661,-524 2679.44,-496.23 2682.53,-474.45 2661,-449 2589.1,-364.02 2277.82,-376.47 2167,-366 2126.5,-362.18 1840.56,-367.46 1801,-358 1778.82,-352.7 1755.76,-342.03 1737.39,-332.09"/>
<polygon fill="black" stroke="black" points="1739.18,-329.09 1728.74,-327.27 1735.77,-335.2 1739.18,-329.09"/>
</g>
<!-- genesis::create_initialize_validator&#45;&gt;genesis::create_account -->
<g id="edge24" class="edge">
<title>genesis::create_initialize_validator&#45;&gt;genesis::create_account</title>
<path fill="none" stroke="black" d="M2533.78,-628.26C2567.29,-624.77 2604.41,-618.42 2637,-607 2653.95,-601.06 2671.12,-591.02 2685.03,-581.65"/>
<polygon fill="black" stroke="black" points="2686.64,-584.79 2692.84,-576.2 2682.64,-579.05 2686.64,-584.79"/>
</g>
<!-- staking_contract::create_staking_contract -->
<g id="node35" class="node">
<title>staking_contract::create_staking_contract</title>
<ellipse fill="none" stroke="black" cx="1602" cy="-558" rx="94.48" ry="18"/>
<text text-anchor="middle" x="1602" y="-554.3" font-family="Times,serif" font-size="14.00">create_staking_contract</text>
</g>
<!-- genesis::create_initialize_validator&#45;&gt;staking_contract::create_staking_contract -->
<g id="edge53" class="edge">
<title>genesis::create_initialize_validator&#45;&gt;staking_contract::create_staking_contract</title>
<path fill="none" stroke="black" d="M2336.26,-627.1C2256.06,-622.77 2139.57,-615.79 2038,-607 1917.53,-596.57 1778.76,-580.61 1690.75,-570"/>
<polygon fill="black" stroke="black" points="1691.32,-566.54 1680.97,-568.81 1690.48,-573.49 1691.32,-566.54"/>
</g>
<!-- staking_contract::distribute -->
<g id="node20" class="node">
<title>staking_contract::distribute</title>
<ellipse fill="none" stroke="black" cx="1382" cy="-475" rx="44.39" ry="18"/>
<text text-anchor="middle" x="1382" y="-471.3" font-family="Times,serif" font-size="14.00">distribute</text>
</g>
<!-- staking_contract::distribute&#45;&gt;staking_contract::distribute_internal -->
<g id="edge19" class="edge">
<title>staking_contract::distribute&#45;&gt;staking_contract::distribute_internal</title>
<path fill="none" stroke="black" d="M1359.9,-458.95C1342.11,-446.84 1316.81,-429.63 1296.53,-415.82"/>
<polygon fill="black" stroke="black" points="1298.52,-412.94 1288.28,-410.21 1294.58,-418.73 1298.52,-412.94"/>
</g>
<!-- staking_contract::request_commission -->
<g id="node21" class="node">
<title>staking_contract::request_commission</title>
<ellipse fill="none" stroke="black" cx="1104" cy="-475" rx="83.69" ry="18"/>
<text text-anchor="middle" x="1104" y="-471.3" font-family="Times,serif" font-size="14.00">request_commission</text>
</g>
<!-- staking_contract::request_commission&#45;&gt;staking_contract::distribute_internal -->
<g id="edge20" class="edge">
<title>staking_contract::request_commission&#45;&gt;staking_contract::distribute_internal</title>
<path fill="none" stroke="black" d="M1135.41,-458C1160.21,-445.36 1195.01,-427.64 1222,-413.89"/>
<polygon fill="black" stroke="black" points="1223.25,-417.18 1230.57,-409.52 1220.08,-410.94 1223.25,-417.18"/>
</g>
<!-- staking_contract::switch_operator -->
<g id="node22" class="node">
<title>staking_contract::switch_operator</title>
<ellipse fill="none" stroke="black" cx="935" cy="-475" rx="67.69" ry="18"/>
<text text-anchor="middle" x="935" y="-471.3" font-family="Times,serif" font-size="14.00">switch_operator</text>
</g>
<!-- staking_contract::switch_operator&#45;&gt;staking_contract::distribute_internal -->
<g id="edge21" class="edge">
<title>staking_contract::switch_operator&#45;&gt;staking_contract::distribute_internal</title>
<path fill="none" stroke="black" d="M974.61,-460.15C986.26,-456.3 999.08,-452.28 1011,-449 1072.57,-432.08 1143.66,-416.65 1194.61,-406.29"/>
<polygon fill="black" stroke="black" points="1195.21,-409.73 1204.32,-404.32 1193.83,-402.87 1195.21,-409.73"/>
</g>
<!-- staking_contract::unlock_stake -->
<g id="node23" class="node">
<title>staking_contract::unlock_stake</title>
<ellipse fill="none" stroke="black" cx="1263" cy="-475" rx="57.39" ry="18"/>
<text text-anchor="middle" x="1263" y="-471.3" font-family="Times,serif" font-size="14.00">unlock_stake</text>
</g>
<!-- staking_contract::unlock_stake&#45;&gt;staking_contract::distribute_internal -->
<g id="edge22" class="edge">
<title>staking_contract::unlock_stake&#45;&gt;staking_contract::distribute_internal</title>
<path fill="none" stroke="black" d="M1263,-456.82C1263,-446.69 1263,-433.6 1263,-421.92"/>
<polygon fill="black" stroke="black" points="1266.5,-421.95 1263,-411.95 1259.5,-421.95 1266.5,-421.95"/>
</g>
<!-- genesis::create_accounts -->
<g id="node24" class="node">
<title>genesis::create_accounts</title>
<ellipse fill="none" stroke="black" cx="2712" cy="-633" rx="66.89" ry="18"/>
<text text-anchor="middle" x="2712" y="-629.3" font-family="Times,serif" font-size="14.00">create_accounts</text>
</g>
<!-- genesis::create_accounts&#45;&gt;genesis::create_account -->
<g id="edge23" class="edge">
<title>genesis::create_accounts&#45;&gt;genesis::create_account</title>
<path fill="none" stroke="black" d="M2712.71,-614.7C2713.04,-606.67 2713.44,-596.9 2713.82,-587.8"/>
<polygon fill="black" stroke="black" points="2717.31,-588.08 2714.22,-577.94 2710.31,-587.79 2717.31,-588.08"/>
</g>
<!-- stake::on_new_epoch -->
<g id="node25" class="node">
<title>stake::on_new_epoch</title>
<ellipse fill="none" stroke="black" cx="2046" cy="-309" rx="63.89" ry="18"/>
<text text-anchor="middle" x="2046" y="-305.3" font-family="Times,serif" font-size="14.00">on_new_epoch</text>
</g>
<!-- stake::on_new_epoch&#45;&gt;stake::update_stake_pool -->
<g id="edge25" class="edge">
<title>stake::on_new_epoch&#45;&gt;stake::update_stake_pool</title>
<path fill="none" stroke="black" d="M2042.79,-290.7C2041.42,-283.32 2039.78,-274.52 2038.25,-266.25"/>
<polygon fill="black" stroke="black" points="2041.72,-265.79 2036.45,-256.59 2034.84,-267.06 2041.72,-265.79"/>
</g>
<!-- staking_contract::create_staking_contract_with_coins&#45;&gt;staking_contract::create_stake_pool -->
<g id="edge26" class="edge">
<title>staking_contract::create_staking_contract_with_coins&#45;&gt;staking_contract::create_stake_pool</title>
<path fill="none" stroke="black" d="M1587.57,-456.82C1591.6,-446.3 1596.85,-432.59 1601.45,-420.57"/>
<polygon fill="black" stroke="black" points="1604.59,-422.16 1604.89,-411.57 1598.05,-419.66 1604.59,-422.16"/>
</g>
<!-- genesis::create_initialize_validators_with_commission -->
<g id="node27" class="node">
<title>genesis::create_initialize_validators_with_commission</title>
<ellipse fill="none" stroke="black" cx="2389" cy="-705" rx="173.57" ry="18"/>
<text text-anchor="middle" x="2389" y="-701.3" font-family="Times,serif" font-size="14.00">create_initialize_validators_with_commission</text>
</g>
<!-- genesis::create_initialize_validators_with_commission&#45;&gt;genesis::create_initialize_validator -->
<g id="edge27" class="edge">
<title>genesis::create_initialize_validators_with_commission&#45;&gt;genesis::create_initialize_validator</title>
<path fill="none" stroke="black" d="M2400.12,-686.7C2405.19,-678.81 2411.3,-669.3 2416.93,-660.55"/>
<polygon fill="black" stroke="black" points="2419.72,-662.68 2422.19,-652.38 2413.83,-658.9 2419.72,-662.68"/>
</g>
<!-- genesis::create_initialize_validators_with_commission&#45;&gt;stake::on_new_epoch -->
<g id="edge35" class="edge">
<title>genesis::create_initialize_validators_with_commission&#45;&gt;stake::on_new_epoch</title>
<path fill="none" stroke="black" d="M2224.25,-699.06C2033.73,-688.76 1746,-656.99 1746,-559 1746,-559 1746,-559 1746,-474 1746,-391.74 1675.09,-518.59 1973,-358 1987.04,-350.43 2001.87,-340.98 2014.47,-332.47"/>
<polygon fill="black" stroke="black" points="2016.1,-335.59 2022.37,-327.04 2012.14,-329.82 2016.1,-335.59"/>
</g>
<!-- vesting::withdraw_stake -->
<g id="node28" class="node">
<title>vesting::withdraw_stake</title>
<ellipse fill="none" stroke="black" cx="647" cy="-558" rx="66.09" ry="18"/>
<text text-anchor="middle" x="647" y="-554.3" font-family="Times,serif" font-size="14.00">withdraw_stake</text>
</g>
<!-- vesting::withdraw_stake&#45;&gt;staking_contract::distribute -->
<g id="edge28" class="edge">
<title>vesting::withdraw_stake&#45;&gt;staking_contract::distribute</title>
<path fill="none" stroke="black" d="M703.79,-548.58C745.52,-542.78 803.65,-535.51 855,-532 881.28,-530.2 1304.51,-533.68 1329,-524 1341.25,-519.16 1352.45,-510.09 1361.36,-501.12"/>
<polygon fill="black" stroke="black" points="1363.91,-503.52 1368.14,-493.81 1358.78,-498.76 1363.91,-503.52"/>
</g>
<!-- staking_contract::switch_operator_with_same_commission -->
<g id="node29" class="node">
<title>staking_contract::switch_operator_with_same_commission</title>
<ellipse fill="none" stroke="black" cx="1057" cy="-558" rx="157.87" ry="18"/>
<text text-anchor="middle" x="1057" y="-554.3" font-family="Times,serif" font-size="14.00">switch_operator_with_same_commission</text>
</g>
<!-- staking_contract::switch_operator_with_same_commission&#45;&gt;staking_contract::switch_operator -->
<g id="edge29" class="edge">
<title>staking_contract::switch_operator_with_same_commission&#45;&gt;staking_contract::switch_operator</title>
<path fill="none" stroke="black" d="M1031.13,-539.82C1012.94,-527.74 988.42,-511.47 968.71,-498.38"/>
<polygon fill="black" stroke="black" points="970.7,-495.5 960.44,-492.89 966.83,-501.34 970.7,-495.5"/>
</g>
<!-- vesting::update_operator -->
<g id="node30" class="node">
<title>vesting::update_operator</title>
<ellipse fill="none" stroke="black" cx="225" cy="-633" rx="67.69" ry="18"/>
<text text-anchor="middle" x="225" y="-629.3" font-family="Times,serif" font-size="14.00">update_operator</text>
</g>
<!-- vesting::update_operator&#45;&gt;staking_contract::switch_operator -->
<g id="edge30" class="edge">
<title>vesting::update_operator&#45;&gt;staking_contract::switch_operator</title>
<path fill="none" stroke="black" d="M252.55,-616.13C293.36,-593.42 372.93,-552.18 446,-532 587.03,-493.05 758.16,-481.15 856.03,-477.54"/>
<polygon fill="black" stroke="black" points="855.92,-481.05 865.79,-477.2 855.68,-474.05 855.92,-481.05"/>
</g>
<!-- staking_proxy::set_staking_contract_operator -->
<g id="node31" class="node">
<title>staking_proxy::set_staking_contract_operator</title>
<ellipse fill="none" stroke="black" cx="1234" cy="-705" rx="116.18" ry="18"/>
<text text-anchor="middle" x="1234" y="-701.3" font-family="Times,serif" font-size="14.00">set_staking_contract_operator</text>
</g>
<!-- staking_proxy::set_staking_contract_operator&#45;&gt;staking_contract::switch_operator -->
<g id="edge31" class="edge">
<title>staking_proxy::set_staking_contract_operator&#45;&gt;staking_contract::switch_operator</title>
<path fill="none" stroke="black" d="M1167.87,-689.84C1072.81,-668.82 906.99,-629.45 890,-607 869.88,-580.42 878.93,-563.44 890,-532 893.98,-520.71 901.3,-510.01 908.9,-501.05"/>
<polygon fill="black" stroke="black" points="911.32,-503.58 915.46,-493.83 906.14,-498.87 911.32,-503.58"/>
</g>
<!-- staking_contract::unlock_rewards -->
<g id="node32" class="node">
<title>staking_contract::unlock_rewards</title>
<ellipse fill="none" stroke="black" cx="1300" cy="-558" rx="66.89" ry="18"/>
<text text-anchor="middle" x="1300" y="-554.3" font-family="Times,serif" font-size="14.00">unlock_rewards</text>
</g>
<!-- staking_contract::unlock_rewards&#45;&gt;staking_contract::unlock_stake -->
<g id="edge32" class="edge">
<title>staking_contract::unlock_rewards&#45;&gt;staking_contract::unlock_stake</title>
<path fill="none" stroke="black" d="M1292.15,-539.82C1287.35,-529.3 1281.08,-515.59 1275.59,-503.57"/>
<polygon fill="black" stroke="black" points="1278.8,-502.17 1271.46,-494.53 1272.44,-505.08 1278.8,-502.17"/>
</g>
<!-- vesting::unlock_stake -->
<g id="node33" class="node">
<title>vesting::unlock_stake</title>
<ellipse fill="none" stroke="black" cx="368" cy="-633" rx="57.39" ry="18"/>
<text text-anchor="middle" x="368" y="-629.3" font-family="Times,serif" font-size="14.00">unlock_stake</text>
</g>
<!-- vesting::unlock_stake&#45;&gt;staking_contract::unlock_stake -->
<g id="edge33" class="edge">
<title>vesting::unlock_stake&#45;&gt;staking_contract::unlock_stake</title>
<path fill="none" stroke="black" d="M391.48,-616.14C428.12,-592.42 501.98,-548.71 572,-532 605.78,-523.94 1164.05,-534.95 1197,-524 1211.96,-519.03 1226.38,-509.31 1237.91,-499.92"/>
<polygon fill="black" stroke="black" points="1240.04,-502.7 1245.34,-493.53 1235.47,-497.39 1240.04,-502.7"/>
</g>
<!-- reconfiguration::reconfigure -->
<g id="node34" class="node">
<title>reconfiguration::reconfigure</title>
<ellipse fill="none" stroke="black" cx="2104" cy="-392" rx="51.19" ry="18"/>
<text text-anchor="middle" x="2104" y="-388.3" font-family="Times,serif" font-size="14.00">reconfigure</text>
</g>
<!-- reconfiguration::reconfigure&#45;&gt;stake::on_new_epoch -->
<g id="edge34" class="edge">
<title>reconfiguration::reconfigure&#45;&gt;stake::on_new_epoch</title>
<path fill="none" stroke="black" d="M2091.98,-374.22C2084.1,-363.21 2073.64,-348.6 2064.69,-336.1"/>
<polygon fill="black" stroke="black" points="2067.75,-334.36 2059.08,-328.27 2062.06,-338.44 2067.75,-334.36"/>
</g>
<!-- staking_contract::create_staking_contract&#45;&gt;staking_contract::create_staking_contract_with_coins -->
<g id="edge36" class="edge">
<title>staking_contract::create_staking_contract&#45;&gt;staking_contract::create_staking_contract_with_coins</title>
<path fill="none" stroke="black" d="M1597.55,-539.82C1594.89,-529.58 1591.45,-516.33 1588.4,-504.55"/>
<polygon fill="black" stroke="black" points="1591.8,-503.7 1585.9,-494.9 1585.02,-505.46 1591.8,-503.7"/>
</g>
<!-- genesis::create_initialize_validators -->
<g id="node36" class="node">
<title>genesis::create_initialize_validators</title>
<ellipse fill="none" stroke="black" cx="2389" cy="-780" rx="105.88" ry="18"/>
<text text-anchor="middle" x="2389" y="-776.3" font-family="Times,serif" font-size="14.00">create_initialize_validators</text>
</g>
<!-- genesis::create_initialize_validators&#45;&gt;genesis::create_initialize_validators_with_commission -->
<g id="edge38" class="edge">
<title>genesis::create_initialize_validators&#45;&gt;genesis::create_initialize_validators_with_commission</title>
<path fill="none" stroke="black" d="M2389,-761.7C2389,-753.67 2389,-743.9 2389,-734.8"/>
<polygon fill="black" stroke="black" points="2392.5,-734.94 2389,-724.94 2385.5,-734.94 2392.5,-734.94"/>
</g>
<!-- vesting::distribute -->
<g id="node37" class="node">
<title>vesting::distribute</title>
<ellipse fill="none" stroke="black" cx="647" cy="-633" rx="44.39" ry="18"/>
<text text-anchor="middle" x="647" y="-629.3" font-family="Times,serif" font-size="14.00">distribute</text>
</g>
<!-- vesting::distribute&#45;&gt;vesting::withdraw_stake -->
<g id="edge39" class="edge">
<title>vesting::distribute&#45;&gt;vesting::withdraw_stake</title>
<path fill="none" stroke="black" d="M647,-614.7C647,-606.67 647,-596.9 647,-587.8"/>
<polygon fill="black" stroke="black" points="650.5,-587.94 647,-577.94 643.5,-587.94 650.5,-587.94"/>
</g>
<!-- vesting::admin_withdraw -->
<g id="node38" class="node">
<title>vesting::admin_withdraw</title>
<ellipse fill="none" stroke="black" cx="514" cy="-633" rx="70.69" ry="18"/>
<text text-anchor="middle" x="514" y="-629.3" font-family="Times,serif" font-size="14.00">admin_withdraw</text>
</g>
<!-- vesting::admin_withdraw&#45;&gt;vesting::withdraw_stake -->
<g id="edge40" class="edge">
<title>vesting::admin_withdraw&#45;&gt;vesting::withdraw_stake</title>
<path fill="none" stroke="black" d="M542.86,-616.16C562.16,-605.57 587.77,-591.51 608.77,-579.98"/>
<polygon fill="black" stroke="black" points="610.25,-583.17 617.33,-575.29 606.88,-577.03 610.25,-583.17"/>
</g>
<!-- vesting::update_operator_with_same_commission -->
<g id="node39" class="node">
<title>vesting::update_operator_with_same_commission</title>
<ellipse fill="none" stroke="black" cx="381" cy="-705" rx="158.67" ry="18"/>
<text text-anchor="middle" x="381" y="-701.3" font-family="Times,serif" font-size="14.00">update_operator_with_same_commission</text>
</g>
<!-- vesting::update_operator_with_same_commission&#45;&gt;vesting::update_operator -->
<g id="edge41" class="edge">
<title>vesting::update_operator_with_same_commission&#45;&gt;vesting::update_operator</title>
<path fill="none" stroke="black" d="M343.24,-687.05C320.79,-676.98 292.23,-664.17 268.8,-653.65"/>
<polygon fill="black" stroke="black" points="270.38,-650.53 259.82,-649.62 267.51,-656.91 270.38,-650.53"/>
</g>
<!-- staking_proxy::set_vesting_contract_operator -->
<g id="node40" class="node">
<title>staking_proxy::set_vesting_contract_operator</title>
<ellipse fill="none" stroke="black" cx="983" cy="-705" rx="116.18" ry="18"/>
<text text-anchor="middle" x="983" y="-701.3" font-family="Times,serif" font-size="14.00">set_vesting_contract_operator</text>
</g>
<!-- staking_proxy::set_vesting_contract_operator&#45;&gt;vesting::update_operator -->
<g id="edge42" class="edge">
<title>staking_proxy::set_vesting_contract_operator&#45;&gt;vesting::update_operator</title>
<path fill="none" stroke="black" d="M918.83,-689.61C898.51,-685.56 875.9,-681.56 855,-679 610.73,-649.12 545.89,-683.86 302,-651 296.3,-650.23 290.39,-649.26 284.5,-648.16"/>
<polygon fill="black" stroke="black" points="285.22,-644.74 274.73,-646.23 283.87,-651.61 285.22,-644.74"/>
</g>
<!-- staking_proxy::set_operator -->
<g id="node41" class="node">
<title>staking_proxy::set_operator</title>
<ellipse fill="none" stroke="black" cx="1108" cy="-780" rx="53.89" ry="18"/>
<text text-anchor="middle" x="1108" y="-776.3" font-family="Times,serif" font-size="14.00">set_operator</text>
</g>
<!-- staking_proxy::set_operator&#45;&gt;staking_proxy::set_staking_contract_operator -->
<g id="edge43" class="edge">
<title>staking_proxy::set_operator&#45;&gt;staking_proxy::set_staking_contract_operator</title>
<path fill="none" stroke="black" d="M1134.11,-763.87C1151.66,-753.7 1175.12,-740.11 1194.89,-728.66"/>
<polygon fill="black" stroke="black" points="1196.64,-731.69 1203.53,-723.65 1193.13,-725.64 1196.64,-731.69"/>
</g>
<!-- staking_proxy::set_operator&#45;&gt;staking_proxy::set_vesting_contract_operator -->
<g id="edge56" class="edge">
<title>staking_proxy::set_operator&#45;&gt;staking_proxy::set_vesting_contract_operator</title>
<path fill="none" stroke="black" d="M1082.1,-763.87C1064.68,-753.7 1041.41,-740.11 1021.8,-728.66"/>
<polygon fill="black" stroke="black" points="1023.63,-725.68 1013.23,-723.66 1020.1,-731.72 1023.63,-725.68"/>
</g>
<!-- vesting::unlock_rewards -->
<g id="node42" class="node">
<title>vesting::unlock_rewards</title>
<ellipse fill="none" stroke="black" cx="776" cy="-633" rx="66.89" ry="18"/>
<text text-anchor="middle" x="776" y="-629.3" font-family="Times,serif" font-size="14.00">unlock_rewards</text>
</g>
<!-- vesting::unlock_rewards&#45;&gt;staking_contract::unlock_rewards -->
<g id="edge44" class="edge">
<title>vesting::unlock_rewards&#45;&gt;staking_contract::unlock_rewards</title>
<path fill="none" stroke="black" d="M843.12,-632.36C950.32,-632.26 1155.09,-629.04 1224,-607 1240.75,-601.64 1257.47,-591.71 1270.95,-582.26"/>
<polygon fill="black" stroke="black" points="1272.92,-585.16 1278.92,-576.43 1268.79,-579.5 1272.92,-585.16"/>
</g>
<!-- vesting::terminate_vesting_contract -->
<g id="node43" class="node">
<title>vesting::terminate_vesting_contract</title>
<ellipse fill="none" stroke="black" cx="664" cy="-705" rx="106.68" ry="18"/>
<text text-anchor="middle" x="664" y="-701.3" font-family="Times,serif" font-size="14.00">terminate_vesting_contract</text>
</g>
<!-- vesting::terminate_vesting_contract&#45;&gt;vesting::unlock_stake -->
<g id="edge45" class="edge">
<title>vesting::terminate_vesting_contract&#45;&gt;vesting::unlock_stake</title>
<path fill="none" stroke="black" d="M601.42,-690.03C555.11,-679.59 490.53,-664.79 434,-651 430.03,-650.03 425.93,-649.02 421.81,-647.98"/>
<polygon fill="black" stroke="black" points="422.94,-644.66 412.39,-645.6 421.22,-651.44 422.94,-644.66"/>
</g>
<!-- vesting::terminate_vesting_contract&#45;&gt;vesting::distribute -->
<g id="edge55" class="edge">
<title>vesting::terminate_vesting_contract&#45;&gt;vesting::distribute</title>
<path fill="none" stroke="black" d="M659.8,-686.7C658.01,-679.32 655.87,-670.52 653.86,-662.25"/>
<polygon fill="black" stroke="black" points="657.27,-661.47 651.51,-652.58 650.47,-663.12 657.27,-661.47"/>
</g>
<!-- vesting::vest -->
<g id="node44" class="node">
<title>vesting::vest</title>
<ellipse fill="none" stroke="black" cx="816" cy="-705" rx="27" ry="18"/>
<text text-anchor="middle" x="816" y="-701.3" font-family="Times,serif" font-size="14.00">vest</text>
</g>
<!-- vesting::vest&#45;&gt;vesting::unlock_stake -->
<g id="edge46" class="edge">
<title>vesting::vest&#45;&gt;vesting::unlock_stake</title>
<path fill="none" stroke="black" d="M799.81,-690.06C793.94,-685.77 787.02,-681.51 780,-679 634.75,-626.99 586.15,-676.56 434,-651 429.6,-650.26 425.06,-649.37 420.52,-648.39"/>
<polygon fill="black" stroke="black" points="421.32,-644.98 410.79,-646.14 419.74,-651.8 421.32,-644.98"/>
</g>
<!-- vesting::vest&#45;&gt;vesting::unlock_rewards -->
<g id="edge57" class="edge">
<title>vesting::vest&#45;&gt;vesting::unlock_rewards</title>
<path fill="none" stroke="black" d="M806.72,-687.76C802.16,-679.78 796.54,-669.95 791.37,-660.89"/>
<polygon fill="black" stroke="black" points="794.54,-659.38 786.54,-652.44 788.46,-662.86 794.54,-659.38"/>
</g>
<!-- aptos_governance::reconfigure -->
<g id="node45" class="node">
<title>aptos_governance::reconfigure</title>
<ellipse fill="none" stroke="black" cx="1825" cy="-475" rx="51.19" ry="18"/>
<text text-anchor="middle" x="1825" y="-471.3" font-family="Times,serif" font-size="14.00">reconfigure</text>
</g>
<!-- aptos_governance::reconfigure&#45;&gt;reconfiguration::reconfigure -->
<g id="edge47" class="edge">
<title>aptos_governance::reconfigure&#45;&gt;reconfiguration::reconfigure</title>
<path fill="none" stroke="black" d="M1856.77,-460.5C1866.68,-456.54 1877.71,-452.36 1888,-449 1942.54,-431.18 2006.27,-415.24 2050.3,-404.96"/>
<polygon fill="black" stroke="black" points="2050.91,-408.42 2059.86,-402.75 2049.33,-401.6 2050.91,-408.42"/>
</g>
<!-- block::block_prologue -->
<g id="node46" class="node">
<title>block::block_prologue</title>
<ellipse fill="none" stroke="black" cx="1966" cy="-475" rx="65.79" ry="18"/>
<text text-anchor="middle" x="1966" y="-471.3" font-family="Times,serif" font-size="14.00">block_prologue</text>
</g>
<!-- block::block_prologue&#45;&gt;reconfiguration::reconfigure -->
<g id="edge48" class="edge">
<title>block::block_prologue&#45;&gt;reconfiguration::reconfigure</title>
<path fill="none" stroke="black" d="M1992.94,-458.19C2014.62,-445.46 2045.28,-427.47 2068.89,-413.61"/>
<polygon fill="black" stroke="black" points="2070.37,-416.8 2077.23,-408.72 2066.83,-410.76 2070.37,-416.8"/>
</g>
<!-- consensus_config::set -->
<g id="node47" class="node">
<title>consensus_config::set</title>
<ellipse fill="none" stroke="black" cx="2104" cy="-475" rx="27" ry="18"/>
<text text-anchor="middle" x="2104" y="-471.3" font-family="Times,serif" font-size="14.00">set</text>
</g>
<!-- consensus_config::set&#45;&gt;reconfiguration::reconfigure -->
<g id="edge49" class="edge">
<title>consensus_config::set&#45;&gt;reconfiguration::reconfigure</title>
<path fill="none" stroke="black" d="M2104,-456.82C2104,-446.69 2104,-433.6 2104,-421.92"/>
<polygon fill="black" stroke="black" points="2107.5,-421.95 2104,-411.95 2100.5,-421.95 2107.5,-421.95"/>
</g>
<!-- gas_schedule::set_gas_schedule -->
<g id="node48" class="node">
<title>gas_schedule::set_gas_schedule</title>
<ellipse fill="none" stroke="black" cx="2452" cy="-475" rx="71.49" ry="18"/>
<text text-anchor="middle" x="2452" y="-471.3" font-family="Times,serif" font-size="14.00">set_gas_schedule</text>
</g>
<!-- gas_schedule::set_gas_schedule&#45;&gt;reconfiguration::reconfigure -->
<g id="edge50" class="edge">
<title>gas_schedule::set_gas_schedule&#45;&gt;reconfiguration::reconfigure</title>
<path fill="none" stroke="black" d="M2410.29,-460.13C2398.02,-456.27 2384.53,-452.26 2372,-449 2299.42,-430.12 2214.5,-413.24 2160.03,-403.07"/>
<polygon fill="black" stroke="black" points="2160.84,-399.66 2150.37,-401.28 2159.56,-406.54 2160.84,-399.66"/>
</g>
<!-- gas_schedule::set_storage_gas_config -->
<g id="node49" class="node">
<title>gas_schedule::set_storage_gas_config</title>
<ellipse fill="none" stroke="black" cx="2270" cy="-475" rx="92.88" ry="18"/>
<text text-anchor="middle" x="2270" y="-471.3" font-family="Times,serif" font-size="14.00">set_storage_gas_config</text>
</g>
<!-- gas_schedule::set_storage_gas_config&#45;&gt;reconfiguration::reconfigure -->
<g id="edge51" class="edge">
<title>gas_schedule::set_storage_gas_config&#45;&gt;reconfiguration::reconfigure</title>
<path fill="none" stroke="black" d="M2236.81,-457.8C2209.76,-444.6 2171.51,-425.94 2143,-412.03"/>
<polygon fill="black" stroke="black" points="2144.86,-409.04 2134.34,-407.8 2141.79,-415.33 2144.86,-409.04"/>
</g>
<!-- version::set_version -->
<g id="node50" class="node">
<title>version::set_version</title>
<ellipse fill="none" stroke="black" cx="2598" cy="-475" rx="50.89" ry="18"/>
<text text-anchor="middle" x="2598" y="-471.3" font-family="Times,serif" font-size="14.00">set_version</text>
</g>
<!-- version::set_version&#45;&gt;reconfiguration::reconfigure -->
<g id="edge52" class="edge">
<title>version::set_version&#45;&gt;reconfiguration::reconfigure</title>
<path fill="none" stroke="black" d="M2567.75,-460.23C2557.53,-456.06 2545.94,-451.83 2535,-449 2406.29,-415.66 2250.56,-401.68 2165.99,-396.21"/>
<polygon fill="black" stroke="black" points="2166.25,-392.72 2156.05,-395.59 2165.82,-399.71 2166.25,-392.72"/>
</g>
<!-- genesis::initialize_for_verification -->
<g id="node51" class="node">
<title>genesis::initialize_for_verification</title>
<ellipse fill="none" stroke="black" cx="2389" cy="-855" rx="100.98" ry="18"/>
<text text-anchor="middle" x="2389" y="-851.3" font-family="Times,serif" font-size="14.00">initialize_for_verification</text>
</g>
<!-- genesis::initialize_for_verification&#45;&gt;genesis::create_initialize_validators -->
<g id="edge54" class="edge">
<title>genesis::initialize_for_verification&#45;&gt;genesis::create_initialize_validators</title>
<path fill="none" stroke="black" d="M2389,-836.7C2389,-828.67 2389,-818.9 2389,-809.8"/>
<polygon fill="black" stroke="black" points="2392.5,-809.94 2389,-799.94 2385.5,-809.94 2392.5,-809.94"/>
</g>
</g>
</svg>
