<?xml version="1.0" encoding="UTF-8" standalone="no"?>
<!DOCTYPE svg PUBLIC "-//W3C//DTD SVG 1.1//EN"
 "http://www.w3.org/Graphics/SVG/1.1/DTD/svg11.dtd">
<!-- Generated by graphviz version 7.0.0 (20221023.0053)
 -->
<!-- Title: G Pages: 1 -->
<svg width="1195pt" height="305pt"
 viewBox="0.00 0.00 1195.00 305.00" xmlns="http://www.w3.org/2000/svg" xmlns:xlink="http://www.w3.org/1999/xlink">
<g id="graph0" class="graph" transform="scale(1 1) rotate(0) translate(4 301)">
<title>G</title>
<polygon fill="white" stroke="none" points="-4,4 -4,-301 1191,-301 1191,4 -4,4"/>
<g id="clust1" class="cluster">
<title>cluster_vesting</title>
<polygon fill="none" stroke="black" points="8,-64 8,-289 272,-289 272,-64 8,-64"/>
<text text-anchor="middle" x="140" y="-273.8" font-family="Times,serif" font-size="14.00">vesting</text>
</g>
<g id="clust3" class="cluster">
<title>cluster_genesis</title>
<polygon fill="none" stroke="black" points="943,-64 943,-139 1179,-139 1179,-64 943,-64"/>
<text text-anchor="middle" x="1061" y="-123.8" font-family="Times,serif" font-size="14.00">genesis</text>
</g>
<g id="clust2" class="cluster">
<title>cluster_transaction_validation</title>
<polygon fill="none" stroke="black" points="280,-64 280,-214 935,-214 935,-64 280,-64"/>
<text text-anchor="middle" x="607.5" y="-198.8" font-family="Times,serif" font-size="14.00">transaction_validation</text>
</g>
<!-- balance -->
<g id="node1" class="node">
<title>balance</title>
<ellipse fill="none" stroke="black" cx="717" cy="-18" rx="37.89" ry="18"/>
<text text-anchor="middle" x="717" y="-14.3" font-family="Times,serif" font-size="14.00">balance</text>
</g>
<!-- vesting::withdraw_stake -->
<g id="node2" class="node">
<title>vesting::withdraw_stake</title>
<ellipse fill="none" stroke="black" cx="193" cy="-90" rx="66.09" ry="18"/>
<text text-anchor="middle" x="193" y="-86.3" font-family="Times,serif" font-size="14.00">withdraw_stake</text>
</g>
<!-- vesting::withdraw_stake&#45;&gt;balance -->
<g id="edge1" class="edge">
<title>vesting::withdraw_stake&#45;&gt;balance</title>
<path fill="none" stroke="black" d="M232.72,-75.36C246.3,-71.14 261.68,-66.86 276,-64 416.45,-35.95 585.75,-24.9 667.73,-20.96"/>
<polygon fill="black" stroke="black" points="667.84,-24.46 677.67,-20.5 667.51,-17.47 667.84,-24.46"/>
</g>
<!-- transaction_validation::epilogue -->
<g id="node3" class="node">
<title>transaction_validation::epilogue</title>
<ellipse fill="none" stroke="black" cx="886" cy="-165" rx="40.89" ry="18"/>
<text text-anchor="middle" x="886" y="-161.3" font-family="Times,serif" font-size="14.00">epilogue</text>
</g>
<!-- transaction_validation::epilogue&#45;&gt;balance -->
<g id="edge2" class="edge">
<title>transaction_validation::epilogue&#45;&gt;balance</title>
<path fill="none" stroke="black" d="M867.91,-148.48C837.98,-122.8 777.99,-71.33 743.34,-41.6"/>
<polygon fill="black" stroke="black" points="745.72,-39.03 735.85,-35.17 741.16,-44.34 745.72,-39.03"/>
</g>
<!-- transaction_validation::prologue_common -->
<g id="node4" class="node">
<title>transaction_validation::prologue_common</title>
<ellipse fill="none" stroke="black" cx="607" cy="-90" rx="77.99" ry="18"/>
<text text-anchor="middle" x="607" y="-86.3" font-family="Times,serif" font-size="14.00">prologue_common</text>
</g>
<!-- transaction_validation::prologue_common&#45;&gt;balance -->
<g id="edge3" class="edge">
<title>transaction_validation::prologue_common&#45;&gt;balance</title>
<path fill="none" stroke="black" d="M632.79,-72.59C648.61,-62.52 668.97,-49.57 685.71,-38.91"/>
<polygon fill="black" stroke="black" points="687.25,-42.08 693.8,-33.76 683.49,-36.18 687.25,-42.08"/>
</g>
<!-- genesis::create_employee_validators -->
<g id="node5" class="node">
<title>genesis::create_employee_validators</title>
<ellipse fill="none" stroke="black" cx="1061" cy="-90" rx="109.68" ry="18"/>
<text text-anchor="middle" x="1061" y="-86.3" font-family="Times,serif" font-size="14.00">create_employee_validators</text>
</g>
<!-- genesis::create_employee_validators&#45;&gt;balance -->
<g id="edge4" class="edge">
<title>genesis::create_employee_validators&#45;&gt;balance</title>
<path fill="none" stroke="black" d="M994.52,-75.35C976.51,-71.66 957.01,-67.67 939,-64 878.03,-51.57 807.62,-37.32 762.73,-28.24"/>
<polygon fill="black" stroke="black" points="763.59,-24.84 753.1,-26.29 762.2,-31.7 763.59,-24.84"/>
</g>
<!-- vesting::distribute -->
<g id="node6" class="node">
<title>vesting::distribute</title>
<ellipse fill="none" stroke="black" cx="60" cy="-165" rx="44.39" ry="18"/>
<text text-anchor="middle" x="60" y="-161.3" font-family="Times,serif" font-size="14.00">distribute</text>
</g>
<!-- vesting::distribute&#45;&gt;vesting::withdraw_stake -->
<g id="edge5" class="edge">
<title>vesting::distribute&#45;&gt;vesting::withdraw_stake</title>
<path fill="none" stroke="black" d="M85.64,-149.92C105.19,-139.19 132.43,-124.24 154.58,-112.09"/>
<polygon fill="black" stroke="black" points="156.26,-115.16 163.35,-107.28 152.89,-109.02 156.26,-115.16"/>
</g>
<!-- vesting::admin_withdraw -->
<g id="node7" class="node">
<title>vesting::admin_withdraw</title>
<ellipse fill="none" stroke="black" cx="193" cy="-165" rx="70.69" ry="18"/>
<text text-anchor="middle" x="193" y="-161.3" font-family="Times,serif" font-size="14.00">admin_withdraw</text>
</g>
<!-- vesting::admin_withdraw&#45;&gt;vesting::withdraw_stake -->
<g id="edge6" class="edge">
<title>vesting::admin_withdraw&#45;&gt;vesting::withdraw_stake</title>
<path fill="none" stroke="black" d="M193,-146.7C193,-138.67 193,-128.9 193,-119.8"/>
<polygon fill="black" stroke="black" points="196.5,-119.94 193,-109.94 189.5,-119.94 196.5,-119.94"/>
</g>
<!-- transaction_validation::module_prologue -->
<g id="node8" class="node">
<title>transaction_validation::module_prologue</title>
<ellipse fill="none" stroke="black" cx="754" cy="-165" rx="73.39" ry="18"/>
<text text-anchor="middle" x="754" y="-161.3" font-family="Times,serif" font-size="14.00">module_prologue</text>
</g>
<!-- transaction_validation::module_prologue&#45;&gt;transaction_validation::prologue_common -->
<g id="edge7" class="edge">
<title>transaction_validation::module_prologue&#45;&gt;transaction_validation::prologue_common</title>
<path fill="none" stroke="black" d="M722.46,-148.34C701.1,-137.73 672.63,-123.59 649.3,-112.01"/>
<polygon fill="black" stroke="black" points="650.86,-108.87 640.35,-107.56 647.75,-115.14 650.86,-108.87"/>
</g>
<!-- transaction_validation::multi_agent_script_prologue -->
<g id="node9" class="node">
<title>transaction_validation::multi_agent_script_prologue</title>
<ellipse fill="none" stroke="black" cx="550" cy="-165" rx="112.38" ry="18"/>
<text text-anchor="middle" x="550" y="-161.3" font-family="Times,serif" font-size="14.00">multi_agent_script_prologue</text>
</g>
<!-- transaction_validation::multi_agent_script_prologue&#45;&gt;transaction_validation::prologue_common -->
<g id="edge8" class="edge">
<title>transaction_validation::multi_agent_script_prologue&#45;&gt;transaction_validation::prologue_common</title>
<path fill="none" stroke="black" d="M563.51,-146.7C570.39,-137.88 578.91,-126.97 586.58,-117.15"/>
<polygon fill="black" stroke="black" points="589.26,-119.4 592.66,-109.37 583.74,-115.1 589.26,-119.4"/>
</g>
<!-- transaction_validation::script_prologue -->
<g id="node10" class="node">
<title>transaction_validation::script_prologue</title>
<ellipse fill="none" stroke="black" cx="354" cy="-165" rx="65.79" ry="18"/>
<text text-anchor="middle" x="354" y="-161.3" font-family="Times,serif" font-size="14.00">script_prologue</text>
</g>
<!-- transaction_validation::script_prologue&#45;&gt;transaction_validation::prologue_common -->
<g id="edge9" class="edge">
<title>transaction_validation::script_prologue&#45;&gt;transaction_validation::prologue_common</title>
<path fill="none" stroke="black" d="M398.07,-151.28C439.79,-139.25 502.7,-121.09 548.59,-107.85"/>
<polygon fill="black" stroke="black" points="549.48,-111.24 558.12,-105.1 547.54,-104.51 549.48,-111.24"/>
</g>
<!-- vesting::terminate_vesting_contract -->
<g id="node11" class="node">
<title>vesting::terminate_vesting_contract</title>
<ellipse fill="none" stroke="black" cx="123" cy="-240" rx="106.68" ry="18"/>
<text text-anchor="middle" x="123" y="-236.3" font-family="Times,serif" font-size="14.00">terminate_vesting_contract</text>
</g>
<!-- vesting::terminate_vesting_contract&#45;&gt;vesting::distribute -->
<g id="edge10" class="edge">
<title>vesting::terminate_vesting_contract&#45;&gt;vesting::distribute</title>
<path fill="none" stroke="black" d="M108.07,-221.7C100.08,-212.44 90.1,-200.87 81.3,-190.68"/>
<polygon fill="black" stroke="black" points="84.13,-188.61 74.95,-183.32 78.83,-193.18 84.13,-188.61"/>
</g>
</g>
</svg>
