<?xml version="1.0" encoding="UTF-8" standalone="no"?>
<!DOCTYPE svg PUBLIC "-//W3C//DTD SVG 1.1//EN"
 "http://www.w3.org/Graphics/SVG/1.1/DTD/svg11.dtd">
<!-- Generated by graphviz version 7.0.0 (20221023.0053)
 -->
<!-- Title: G Pages: 1 -->
<svg width="1475pt" height="551pt"
 viewBox="0.00 0.00 1475.00 551.00" xmlns="http://www.w3.org/2000/svg" xmlns:xlink="http://www.w3.org/1999/xlink">
<g id="graph0" class="graph" transform="scale(1 1) rotate(0) translate(4 547)">
<title>G</title>
<polygon fill="white" stroke="none" points="-4,4 -4,-547 1471,-547 1471,4 -4,4"/>
<g id="clust1" class="cluster">
<title>cluster_aptos_coin</title>
<polygon fill="none" stroke="black" points="1014,-64 1014,-139 1323,-139 1323,-64 1014,-64"/>
<text text-anchor="middle" x="1168.5" y="-123.8" font-family="Times,serif" font-size="14.00">aptos_coin</text>
</g>
<g id="clust2" class="cluster">
<title>cluster_stake</title>
<polygon fill="none" stroke="black" points="729,-64 729,-294 899,-294 899,-64 729,-64"/>
<text text-anchor="middle" x="814" y="-278.8" font-family="Times,serif" font-size="14.00">stake</text>
</g>
<g id="clust3" class="cluster">
<title>cluster_managed_coin</title>
<polygon fill="none" stroke="black" points="1331,-64 1331,-139 1427,-139 1427,-64 1331,-64"/>
<text text-anchor="middle" x="1379" y="-123.8" font-family="Times,serif" font-size="14.00">managed_coin</text>
</g>
<g id="clust4" class="cluster">
<title>cluster_genesis</title>
<polygon fill="none" stroke="black" points="907,-147 907,-535 1459,-535 1459,-147 907,-147"/>
<text text-anchor="middle" x="1183" y="-519.8" font-family="Times,serif" font-size="14.00">genesis</text>
</g>
<g id="clust5" class="cluster">
<title>cluster_reconfiguration</title>
<polygon fill="none" stroke="black" points="453,-302 453,-377 571,-377 571,-302 453,-302"/>
<text text-anchor="middle" x="512" y="-361.8" font-family="Times,serif" font-size="14.00">reconfiguration</text>
</g>
<g id="clust6" class="cluster">
<title>cluster_aptos_governance</title>
<polygon fill="none" stroke="black" points="8,-385 8,-460 126,-460 126,-385 8,-385"/>
<text text-anchor="middle" x="67" y="-444.8" font-family="Times,serif" font-size="14.00">aptos_governance</text>
</g>
<g id="clust7" class="cluster">
<title>cluster_block</title>
<polygon fill="none" stroke="black" points="134,-385 134,-460 282,-460 282,-385 134,-385"/>
<text text-anchor="middle" x="208" y="-444.8" font-family="Times,serif" font-size="14.00">block</text>
</g>
<g id="clust8" class="cluster">
<title>cluster_consensus_config</title>
<polygon fill="none" stroke="black" points="290,-385 290,-460 403,-460 403,-385 290,-385"/>
<text text-anchor="middle" x="346.5" y="-444.8" font-family="Times,serif" font-size="14.00">consensus_config</text>
</g>
<g id="clust9" class="cluster">
<title>cluster_gas_schedule</title>
<polygon fill="none" stroke="black" points="411,-385 411,-460 773,-460 773,-385 411,-385"/>
<text text-anchor="middle" x="592" y="-444.8" font-family="Times,serif" font-size="14.00">gas_schedule</text>
</g>
<g id="clust10" class="cluster">
<title>cluster_version</title>
<polygon fill="none" stroke="black" points="781,-385 781,-460 899,-460 899,-385 781,-385"/>
<text text-anchor="middle" x="840" y="-444.8" font-family="Times,serif" font-size="14.00">version</text>
</g>
<!-- mint -->
<g id="node1" class="node">
<title>mint</title>
<ellipse fill="none" stroke="black" cx="1127" cy="-18" rx="27.1" ry="18"/>
<text text-anchor="middle" x="1127" y="-14.3" font-family="Times,serif" font-size="14.00">mint</text>
</g>
<!-- aptos_coin::mint -->
<g id="node2" class="node">
<title>aptos_coin::mint</title>
<ellipse fill="none" stroke="black" cx="1049" cy="-90" rx="27.1" ry="18"/>
<text text-anchor="middle" x="1049" y="-86.3" font-family="Times,serif" font-size="14.00">mint</text>
</g>
<!-- aptos_coin::mint&#45;&gt;mint -->
<g id="edge1" class="edge">
<title>aptos_coin::mint&#45;&gt;mint</title>
<path fill="none" stroke="black" d="M1064.78,-74.83C1075.67,-65.06 1090.36,-51.88 1102.73,-40.78"/>
<polygon fill="black" stroke="black" points="1105.01,-43.44 1110.11,-34.16 1100.33,-38.23 1105.01,-43.44"/>
</g>
<!-- aptos_coin::configure_accounts_for_test -->
<g id="node3" class="node">
<title>aptos_coin::configure_accounts_for_test</title>
<ellipse fill="none" stroke="black" cx="1205" cy="-90" rx="110.48" ry="18"/>
<text text-anchor="middle" x="1205" y="-86.3" font-family="Times,serif" font-size="14.00">configure_accounts_for_test</text>
</g>
<!-- aptos_coin::configure_accounts_for_test&#45;&gt;mint -->
<g id="edge2" class="edge">
<title>aptos_coin::configure_accounts_for_test&#45;&gt;mint</title>
<path fill="none" stroke="black" d="M1186.12,-72.05C1175.59,-62.6 1162.36,-50.74 1151.09,-40.62"/>
<polygon fill="black" stroke="black" points="1153.47,-38.05 1143.69,-33.98 1148.79,-43.26 1153.47,-38.05"/>
</g>
<!-- stake::distribute_rewards -->
<g id="node4" class="node">
<title>stake::distribute_rewards</title>
<ellipse fill="none" stroke="black" cx="814" cy="-90" rx="76.09" ry="18"/>
<text text-anchor="middle" x="814" y="-86.3" font-family="Times,serif" font-size="14.00">distribute_rewards</text>
</g>
<!-- stake::distribute_rewards&#45;&gt;mint -->
<g id="edge3" class="edge">
<title>stake::distribute_rewards&#45;&gt;mint</title>
<path fill="none" stroke="black" d="M867.81,-76.97C931.45,-62.73 1035.65,-39.43 1090.54,-27.15"/>
<polygon fill="black" stroke="black" points="1091,-30.64 1100,-25.04 1089.48,-23.81 1091,-30.64"/>
</g>
<!-- managed_coin::mint -->
<g id="node5" class="node">
<title>managed_coin::mint</title>
<ellipse fill="none" stroke="black" cx="1366" cy="-90" rx="27.1" ry="18"/>
<text text-anchor="middle" x="1366" y="-86.3" font-family="Times,serif" font-size="14.00">mint</text>
</g>
<!-- managed_coin::mint&#45;&gt;mint -->
<g id="edge4" class="edge">
<title>managed_coin::mint&#45;&gt;mint</title>
<path fill="none" stroke="black" d="M1348.47,-75.92C1342,-71.59 1334.42,-67.1 1327,-64 1273.2,-41.53 1206.35,-29.39 1165.19,-23.56"/>
<polygon fill="black" stroke="black" points="1165.66,-20.09 1155.29,-22.22 1164.72,-27.03 1165.66,-20.09"/>
</g>
<!-- genesis::create_account -->
<g id="node6" class="node">
<title>genesis::create_account</title>
<ellipse fill="none" stroke="black" cx="1049" cy="-173" rx="63.89" ry="18"/>
<text text-anchor="middle" x="1049" y="-169.3" font-family="Times,serif" font-size="14.00">create_account</text>
</g>
<!-- genesis::create_account&#45;&gt;aptos_coin::mint -->
<g id="edge5" class="edge">
<title>genesis::create_account&#45;&gt;aptos_coin::mint</title>
<path fill="none" stroke="black" d="M1049,-154.82C1049,-144.69 1049,-131.6 1049,-119.92"/>
<polygon fill="black" stroke="black" points="1052.5,-119.95 1049,-109.95 1045.5,-119.95 1052.5,-119.95"/>
</g>
<!-- genesis::initialize_core_resources_and_aptos_coin -->
<g id="node7" class="node">
<title>genesis::initialize_core_resources_and_aptos_coin</title>
<ellipse fill="none" stroke="black" cx="1293" cy="-486" rx="157.87" ry="18"/>
<text text-anchor="middle" x="1293" y="-482.3" font-family="Times,serif" font-size="14.00">initialize_core_resources_and_aptos_coin</text>
</g>
<!-- genesis::initialize_core_resources_and_aptos_coin&#45;&gt;aptos_coin::configure_accounts_for_test -->
<g id="edge6" class="edge">
<title>genesis::initialize_core_resources_and_aptos_coin&#45;&gt;aptos_coin::configure_accounts_for_test</title>
<path fill="none" stroke="black" d="M1294.47,-467.7C1296.78,-438.94 1301,-379.44 1301,-329 1301,-329 1301,-329 1301,-244 1301,-192.34 1261.25,-143.81 1232.9,-115.77"/>
<polygon fill="black" stroke="black" points="1235.62,-113.53 1225.98,-109.13 1230.78,-118.58 1235.62,-113.53"/>
</g>
<!-- stake::update_stake_pool -->
<g id="node8" class="node">
<title>stake::update_stake_pool</title>
<ellipse fill="none" stroke="black" cx="814" cy="-173" rx="76.89" ry="18"/>
<text text-anchor="middle" x="814" y="-169.3" font-family="Times,serif" font-size="14.00">update_stake_pool</text>
</g>
<!-- stake::update_stake_pool&#45;&gt;stake::distribute_rewards -->
<g id="edge7" class="edge">
<title>stake::update_stake_pool&#45;&gt;stake::distribute_rewards</title>
<path fill="none" stroke="black" d="M814,-154.82C814,-144.69 814,-131.6 814,-119.92"/>
<polygon fill="black" stroke="black" points="817.5,-119.95 814,-109.95 810.5,-119.95 817.5,-119.95"/>
</g>
<!-- genesis::create_accounts -->
<g id="node9" class="node">
<title>genesis::create_accounts</title>
<ellipse fill="none" stroke="black" cx="1206" cy="-245" rx="66.89" ry="18"/>
<text text-anchor="middle" x="1206" y="-241.3" font-family="Times,serif" font-size="14.00">create_accounts</text>
</g>
<!-- genesis::create_accounts&#45;&gt;genesis::create_account -->
<g id="edge8" class="edge">
<title>genesis::create_accounts&#45;&gt;genesis::create_account</title>
<path fill="none" stroke="black" d="M1172.32,-228.98C1148.98,-218.58 1117.7,-204.63 1092.48,-193.39"/>
<polygon fill="black" stroke="black" points="1094.03,-190.24 1083.47,-189.37 1091.18,-196.64 1094.03,-190.24"/>
</g>
<!-- genesis::create_initialize_validator -->
<g id="node10" class="node">
<title>genesis::create_initialize_validator</title>
<ellipse fill="none" stroke="black" cx="1018" cy="-245" rx="102.88" ry="18"/>
<text text-anchor="middle" x="1018" y="-241.3" font-family="Times,serif" font-size="14.00">create_initialize_validator</text>
</g>
<!-- genesis::create_initialize_validator&#45;&gt;genesis::create_account -->
<g id="edge9" class="edge">
<title>genesis::create_initialize_validator&#45;&gt;genesis::create_account</title>
<path fill="none" stroke="black" d="M1025.66,-226.7C1029.04,-219.07 1033.09,-209.92 1036.87,-201.4"/>
<polygon fill="black" stroke="black" points="1039.96,-203.05 1040.81,-192.49 1033.56,-200.21 1039.96,-203.05"/>
</g>
<!-- stake::on_new_epoch -->
<g id="node11" class="node">
<title>stake::on_new_epoch</title>
<ellipse fill="none" stroke="black" cx="814" cy="-245" rx="63.89" ry="18"/>
<text text-anchor="middle" x="814" y="-241.3" font-family="Times,serif" font-size="14.00">on_new_epoch</text>
</g>
<!-- stake::on_new_epoch&#45;&gt;stake::update_stake_pool -->
<g id="edge10" class="edge">
<title>stake::on_new_epoch&#45;&gt;stake::update_stake_pool</title>
<path fill="none" stroke="black" d="M814,-226.7C814,-219.41 814,-210.73 814,-202.54"/>
<polygon fill="black" stroke="black" points="817.5,-202.62 814,-192.62 810.5,-202.62 817.5,-202.62"/>
</g>
<!-- genesis::create_initialize_validators_with_commission -->
<g id="node12" class="node">
<title>genesis::create_initialize_validators_with_commission</title>
<ellipse fill="none" stroke="black" cx="1089" cy="-328" rx="173.57" ry="18"/>
<text text-anchor="middle" x="1089" y="-324.3" font-family="Times,serif" font-size="14.00">create_initialize_validators_with_commission</text>
</g>
<!-- genesis::create_initialize_validators_with_commission&#45;&gt;genesis::create_initialize_validator -->
<g id="edge11" class="edge">
<title>genesis::create_initialize_validators_with_commission&#45;&gt;genesis::create_initialize_validator</title>
<path fill="none" stroke="black" d="M1073.94,-309.82C1064.25,-298.76 1051.47,-284.18 1040.57,-271.75"/>
<polygon fill="black" stroke="black" points="1043.26,-269.5 1034.03,-264.29 1037.99,-274.12 1043.26,-269.5"/>
</g>
<!-- genesis::create_initialize_validators_with_commission&#45;&gt;stake::on_new_epoch -->
<g id="edge13" class="edge">
<title>genesis::create_initialize_validators_with_commission&#45;&gt;stake::on_new_epoch</title>
<path fill="none" stroke="black" d="M979.81,-313.62C954.2,-308.84 927.31,-302.47 903,-294 883.92,-287.35 864,-276.98 847.86,-267.57"/>
<polygon fill="black" stroke="black" points="850.02,-264.79 839.64,-262.66 846.43,-270.8 850.02,-264.79"/>
</g>
<!-- reconfiguration::reconfigure -->
<g id="node13" class="node">
<title>reconfiguration::reconfigure</title>
<ellipse fill="none" stroke="black" cx="512" cy="-328" rx="51.19" ry="18"/>
<text text-anchor="middle" x="512" y="-324.3" font-family="Times,serif" font-size="14.00">reconfigure</text>
</g>
<!-- reconfiguration::reconfigure&#45;&gt;stake::on_new_epoch -->
<g id="edge12" class="edge">
<title>reconfiguration::reconfigure&#45;&gt;stake::on_new_epoch</title>
<path fill="none" stroke="black" d="M551.79,-316.33C604.64,-302.15 698.27,-277.04 758.17,-260.97"/>
<polygon fill="black" stroke="black" points="758.74,-264.45 767.49,-258.48 756.92,-257.69 758.74,-264.45"/>
</g>
<!-- genesis::create_initialize_validators -->
<g id="node14" class="node">
<title>genesis::create_initialize_validators</title>
<ellipse fill="none" stroke="black" cx="1055" cy="-411" rx="105.88" ry="18"/>
<text text-anchor="middle" x="1055" y="-407.3" font-family="Times,serif" font-size="14.00">create_initialize_validators</text>
</g>
<!-- genesis::create_initialize_validators&#45;&gt;genesis::create_initialize_validators_with_commission -->
<g id="edge14" class="edge">
<title>genesis::create_initialize_validators&#45;&gt;genesis::create_initialize_validators_with_commission</title>
<path fill="none" stroke="black" d="M1062.21,-392.82C1066.6,-382.37 1072.31,-368.77 1077.32,-356.81"/>
<polygon fill="black" stroke="black" points="1080.45,-358.4 1081.1,-347.83 1074,-355.69 1080.45,-358.4"/>
</g>
<!-- aptos_governance::reconfigure -->
<g id="node15" class="node">
<title>aptos_governance::reconfigure</title>
<ellipse fill="none" stroke="black" cx="67" cy="-411" rx="51.19" ry="18"/>
<text text-anchor="middle" x="67" y="-407.3" font-family="Times,serif" font-size="14.00">reconfigure</text>
</g>
<!-- aptos_governance::reconfigure&#45;&gt;reconfiguration::reconfigure -->
<g id="edge15" class="edge">
<title>aptos_governance::reconfigure&#45;&gt;reconfiguration::reconfigure</title>
<path fill="none" stroke="black" d="M97.6,-396.2C107.74,-392.08 119.2,-387.89 130,-385 241.01,-355.27 374.66,-340.25 450.84,-333.56"/>
<polygon fill="black" stroke="black" points="450.94,-337.07 460.6,-332.73 450.34,-330.09 450.94,-337.07"/>
</g>
<!-- block::block_prologue -->
<g id="node16" class="node">
<title>block::block_prologue</title>
<ellipse fill="none" stroke="black" cx="208" cy="-411" rx="65.79" ry="18"/>
<text text-anchor="middle" x="208" y="-407.3" font-family="Times,serif" font-size="14.00">block_prologue</text>
</g>
<!-- block::block_prologue&#45;&gt;reconfiguration::reconfigure -->
<g id="edge16" class="edge">
<title>block::block_prologue&#45;&gt;reconfiguration::reconfigure</title>
<path fill="none" stroke="black" d="M248.33,-396.5C260.39,-392.62 273.69,-388.49 286,-385 344.61,-368.37 412.55,-351.91 458.51,-341.18"/>
<polygon fill="black" stroke="black" points="459.28,-344.6 468.23,-338.93 457.7,-337.78 459.28,-344.6"/>
</g>
<!-- consensus_config::set -->
<g id="node17" class="node">
<title>consensus_config::set</title>
<ellipse fill="none" stroke="black" cx="368" cy="-411" rx="27" ry="18"/>
<text text-anchor="middle" x="368" y="-407.3" font-family="Times,serif" font-size="14.00">set</text>
</g>
<!-- consensus_config::set&#45;&gt;reconfiguration::reconfigure -->
<g id="edge17" class="edge">
<title>consensus_config::set&#45;&gt;reconfiguration::reconfigure</title>
<path fill="none" stroke="black" d="M386.46,-397.74C392.89,-393.58 400.2,-388.98 407,-385 428.71,-372.28 453.52,-358.99 473.57,-348.55"/>
<polygon fill="black" stroke="black" points="474.97,-351.77 482.24,-344.07 471.75,-345.55 474.97,-351.77"/>
</g>
<!-- gas_schedule::set_gas_schedule -->
<g id="node18" class="node">
<title>gas_schedule::set_gas_schedule</title>
<ellipse fill="none" stroke="black" cx="694" cy="-411" rx="71.49" ry="18"/>
<text text-anchor="middle" x="694" y="-407.3" font-family="Times,serif" font-size="14.00">set_gas_schedule</text>
</g>
<!-- gas_schedule::set_gas_schedule&#45;&gt;reconfiguration::reconfigure -->
<g id="edge18" class="edge">
<title>gas_schedule::set_gas_schedule&#45;&gt;reconfiguration::reconfigure</title>
<path fill="none" stroke="black" d="M659.77,-394.76C629.52,-381.3 585.33,-361.64 553.16,-347.32"/>
<polygon fill="black" stroke="black" points="554.69,-344.17 544.13,-343.3 551.84,-350.56 554.69,-344.17"/>
</g>
<!-- gas_schedule::set_storage_gas_config -->
<g id="node19" class="node">
<title>gas_schedule::set_storage_gas_config</title>
<ellipse fill="none" stroke="black" cx="512" cy="-411" rx="92.88" ry="18"/>
<text text-anchor="middle" x="512" y="-407.3" font-family="Times,serif" font-size="14.00">set_storage_gas_config</text>
</g>
<!-- gas_schedule::set_storage_gas_config&#45;&gt;reconfiguration::reconfigure -->
<g id="edge19" class="edge">
<title>gas_schedule::set_storage_gas_config&#45;&gt;reconfiguration::reconfigure</title>
<path fill="none" stroke="black" d="M512,-392.82C512,-382.69 512,-369.6 512,-357.92"/>
<polygon fill="black" stroke="black" points="515.5,-357.95 512,-347.95 508.5,-357.95 515.5,-357.95"/>
</g>
<!-- version::set_version -->
<g id="node20" class="node">
<title>version::set_version</title>
<ellipse fill="none" stroke="black" cx="840" cy="-411" rx="50.89" ry="18"/>
<text text-anchor="middle" x="840" y="-407.3" font-family="Times,serif" font-size="14.00">set_version</text>
</g>
<!-- version::set_version&#45;&gt;reconfiguration::reconfigure -->
<g id="edge20" class="edge">
<title>version::set_version&#45;&gt;reconfiguration::reconfigure</title>
<path fill="none" stroke="black" d="M808.64,-396.35C798.66,-392.32 787.48,-388.16 777,-385 706.6,-363.76 623.33,-347.57 569.18,-338.19"/>
<polygon fill="black" stroke="black" points="570.02,-334.79 559.57,-336.55 568.84,-341.68 570.02,-334.79"/>
</g>
<!-- genesis::initialize_for_verification -->
<g id="node21" class="node">
<title>genesis::initialize_for_verification</title>
<ellipse fill="none" stroke="black" cx="1016" cy="-486" rx="100.98" ry="18"/>
<text text-anchor="middle" x="1016" y="-482.3" font-family="Times,serif" font-size="14.00">initialize_for_verification</text>
</g>
<!-- genesis::initialize_for_verification&#45;&gt;genesis::create_initialize_validators -->
<g id="edge21" class="edge">
<title>genesis::initialize_for_verification&#45;&gt;genesis::create_initialize_validators</title>
<path fill="none" stroke="black" d="M1025.24,-467.7C1029.73,-459.31 1035.22,-449.02 1040.27,-439.58"/>
<polygon fill="black" stroke="black" points="1043.35,-441.23 1044.98,-430.76 1037.18,-437.93 1043.35,-441.23"/>
</g>
</g>
</svg>
