<?xml version="1.0" encoding="UTF-8" standalone="no"?>
<!DOCTYPE svg PUBLIC "-//W3C//DTD SVG 1.1//EN"
 "http://www.w3.org/Graphics/SVG/1.1/DTD/svg11.dtd">
<!-- Generated by graphviz version 7.0.0 (20221023.0053)
 -->
<!-- Title: G Pages: 1 -->
<svg width="2602pt" height="762pt"
 viewBox="0.00 0.00 2602.00 762.00" xmlns="http://www.w3.org/2000/svg" xmlns:xlink="http://www.w3.org/1999/xlink">
<g id="graph0" class="graph" transform="scale(1 1) rotate(0) translate(4 758)">
<title>G</title>
<polygon fill="white" stroke="none" points="-4,4 -4,-758 2598,-758 2598,4 -4,4"/>
<g id="clust1" class="cluster">
<title>cluster_stake</title>
<polygon fill="none" stroke="black" points="1912,-136 1912,-294 2586,-294 2586,-136 1912,-136"/>
<text text-anchor="middle" x="2249" y="-278.8" font-family="Times,serif" font-size="14.00">stake</text>
</g>
<g id="clust2" class="cluster">
<title>cluster_staking_contract</title>
<polygon fill="none" stroke="black" points="1036,-219 1036,-441 1904,-441 1904,-219 1036,-219"/>
<text text-anchor="middle" x="1470" y="-425.8" font-family="Times,serif" font-size="14.00">staking_contract</text>
</g>
<g id="clust3" class="cluster">
<title>cluster_vesting</title>
<polygon fill="none" stroke="black" points="184,-366 184,-596 1028,-596 1028,-366 184,-366"/>
<text text-anchor="middle" x="606" y="-580.8" font-family="Times,serif" font-size="14.00">vesting</text>
</g>
<g id="clust4" class="cluster">
<title>cluster_transaction_fee</title>
<polygon fill="none" stroke="black" points="44,-136 44,-211 144,-211 144,-136 44,-136"/>
<text text-anchor="middle" x="94" y="-195.8" font-family="Times,serif" font-size="14.00">transaction_fee</text>
</g>
<g id="clust5" class="cluster">
<title>cluster_genesis</title>
<polygon fill="none" stroke="black" points="1988,-449 1988,-746 2444,-746 2444,-449 1988,-449"/>
<text text-anchor="middle" x="2216" y="-730.8" font-family="Times,serif" font-size="14.00">genesis</text>
</g>
<g id="clust6" class="cluster">
<title>cluster_managed_coin</title>
<polygon fill="none" stroke="black" points="864,-136 864,-211 960,-211 960,-136 864,-136"/>
<text text-anchor="middle" x="912" y="-195.8" font-family="Times,serif" font-size="14.00">managed_coin</text>
</g>
<g id="clust8" class="cluster">
<title>cluster_aptos_account</title>
<polygon fill="none" stroke="black" points="734,-219 734,-294 828,-294 828,-219 734,-219"/>
<text text-anchor="middle" x="781" y="-278.8" font-family="Times,serif" font-size="14.00">aptos_account</text>
</g>
<g id="clust9" class="cluster">
<title>cluster_resource_account</title>
<polygon fill="none" stroke="black" points="440,-219 440,-294 726,-294 726,-219 440,-219"/>
<text text-anchor="middle" x="583" y="-278.8" font-family="Times,serif" font-size="14.00">resource_account</text>
</g>
<g id="clust10" class="cluster">
<title>cluster_staking_proxy</title>
<polygon fill="none" stroke="black" points="1259,-521 1259,-671 1758,-671 1758,-521 1259,-521"/>
<text text-anchor="middle" x="1508.5" y="-655.8" font-family="Times,serif" font-size="14.00">staking_proxy</text>
</g>
<g id="clust7" class="cluster">
<title>cluster_transaction_validation</title>
<polygon fill="none" stroke="black" points="8,-219 8,-294 145,-294 145,-219 8,-219"/>
<text text-anchor="middle" x="76.5" y="-278.8" font-family="Times,serif" font-size="14.00">transaction_validation</text>
</g>
<!-- extract -->
<g id="node1" class="node">
<title>extract</title>
<ellipse fill="none" stroke="black" cx="1393" cy="-18" rx="34.39" ry="18"/>
<text text-anchor="middle" x="1393" y="-14.3" font-family="Times,serif" font-size="14.00">extract</text>
</g>
<!-- burn_from -->
<g id="node2" class="node">
<title>burn_from</title>
<ellipse fill="none" stroke="black" cx="218" cy="-90" rx="48.99" ry="18"/>
<text text-anchor="middle" x="218" y="-86.3" font-family="Times,serif" font-size="14.00">burn_from</text>
</g>
<!-- burn_from&#45;&gt;extract -->
<g id="edge1" class="edge">
<title>burn_from&#45;&gt;extract</title>
<path fill="none" stroke="black" d="M264.84,-84.26C302.64,-80.55 357.2,-75.45 405,-72 767.87,-45.78 1206.57,-26.67 1347.26,-20.85"/>
<polygon fill="black" stroke="black" points="1347.05,-24.36 1356.89,-20.45 1346.76,-17.37 1347.05,-24.36"/>
</g>
<!-- withdraw -->
<g id="node3" class="node">
<title>withdraw</title>
<ellipse fill="none" stroke="black" cx="951" cy="-90" rx="44.39" ry="18"/>
<text text-anchor="middle" x="951" y="-86.3" font-family="Times,serif" font-size="14.00">withdraw</text>
</g>
<!-- withdraw&#45;&gt;extract -->
<g id="edge2" class="edge">
<title>withdraw&#45;&gt;extract</title>
<path fill="none" stroke="black" d="M991.79,-82.54C1074.95,-69.37 1263.44,-39.52 1349.13,-25.95"/>
<polygon fill="black" stroke="black" points="1349.45,-29.44 1358.78,-24.42 1348.35,-22.53 1349.45,-29.44"/>
</g>
<!-- stake::reactivate_stake_with_cap -->
<g id="node4" class="node">
<title>stake::reactivate_stake_with_cap</title>
<ellipse fill="none" stroke="black" cx="2474" cy="-162" rx="103.98" ry="18"/>
<text text-anchor="middle" x="2474" y="-158.3" font-family="Times,serif" font-size="14.00">reactivate_stake_with_cap</text>
</g>
<!-- stake::reactivate_stake_with_cap&#45;&gt;extract -->
<g id="edge3" class="edge">
<title>stake::reactivate_stake_with_cap&#45;&gt;extract</title>
<path fill="none" stroke="black" d="M2414.68,-146.8C2397.43,-142.96 2378.52,-139.04 2361,-136 2008.1,-74.82 1577.3,-34.85 1438.44,-22.82"/>
<polygon fill="black" stroke="black" points="1438.82,-19.34 1428.56,-21.97 1438.22,-26.31 1438.82,-19.34"/>
</g>
<!-- stake::unlock_with_cap -->
<g id="node5" class="node">
<title>stake::unlock_with_cap</title>
<ellipse fill="none" stroke="black" cx="1991" cy="-162" rx="71.49" ry="18"/>
<text text-anchor="middle" x="1991" y="-158.3" font-family="Times,serif" font-size="14.00">unlock_with_cap</text>
</g>
<!-- stake::unlock_with_cap&#45;&gt;extract -->
<g id="edge4" class="edge">
<title>stake::unlock_with_cap&#45;&gt;extract</title>
<path fill="none" stroke="black" d="M1940.27,-148.95C1824.36,-121.43 1541.86,-54.35 1434.94,-28.96"/>
<polygon fill="black" stroke="black" points="1435.98,-25.61 1425.44,-26.7 1434.36,-32.42 1435.98,-25.61"/>
</g>
<!-- stake::withdraw_with_cap -->
<g id="node6" class="node">
<title>stake::withdraw_with_cap</title>
<ellipse fill="none" stroke="black" cx="2161" cy="-162" rx="80.69" ry="18"/>
<text text-anchor="middle" x="2161" y="-158.3" font-family="Times,serif" font-size="14.00">withdraw_with_cap</text>
</g>
<!-- stake::withdraw_with_cap&#45;&gt;extract -->
<g id="edge5" class="edge">
<title>stake::withdraw_with_cap&#45;&gt;extract</title>
<path fill="none" stroke="black" d="M2114.04,-147.03C2100.24,-143.17 2085.08,-139.18 2071,-136 1834.09,-82.46 1545.78,-40.16 1437.19,-25.02"/>
<polygon fill="black" stroke="black" points="1437.93,-21.59 1427.54,-23.68 1436.97,-28.52 1437.93,-21.59"/>
</g>
<!-- staking_contract::distribute_internal -->
<g id="node7" class="node">
<title>staking_contract::distribute_internal</title>
<ellipse fill="none" stroke="black" cx="1393" cy="-245" rx="75.29" ry="18"/>
<text text-anchor="middle" x="1393" y="-241.3" font-family="Times,serif" font-size="14.00">distribute_internal</text>
</g>
<!-- staking_contract::distribute_internal&#45;&gt;extract -->
<g id="edge6" class="edge">
<title>staking_contract::distribute_internal&#45;&gt;extract</title>
<path fill="none" stroke="black" d="M1393,-226.72C1393,-188.19 1393,-94.93 1393,-47.59"/>
<polygon fill="black" stroke="black" points="1396.5,-47.85 1393,-37.85 1389.5,-47.85 1396.5,-47.85"/>
</g>
<!-- staking_contract::distribute_internal&#45;&gt;stake::withdraw_with_cap -->
<g id="edge21" class="edge">
<title>staking_contract::distribute_internal&#45;&gt;stake::withdraw_with_cap</title>
<path fill="none" stroke="black" d="M1435.58,-229.89C1450.69,-225.53 1467.94,-221.28 1484,-219 1548.58,-209.84 2007.83,-227.25 2071,-211 2091.03,-205.85 2111.51,-195.41 2127.86,-185.58"/>
<polygon fill="black" stroke="black" points="2129.55,-188.65 2136.19,-180.39 2125.85,-182.71 2129.55,-188.65"/>
</g>
<!-- vesting::distribute -->
<g id="node8" class="node">
<title>vesting::distribute</title>
<ellipse fill="none" stroke="black" cx="378" cy="-475" rx="44.39" ry="18"/>
<text text-anchor="middle" x="378" y="-471.3" font-family="Times,serif" font-size="14.00">distribute</text>
</g>
<!-- vesting::distribute&#45;&gt;extract -->
<g id="edge7" class="edge">
<title>vesting::distribute&#45;&gt;extract</title>
<path fill="none" stroke="black" d="M385.71,-456.96C397.59,-429.12 419,-371.87 419,-321 419,-321 419,-321 419,-161 419,-65.96 1154.55,-28.87 1347.24,-20.78"/>
<polygon fill="black" stroke="black" points="1347.26,-24.28 1357.11,-20.37 1346.97,-17.29 1347.26,-24.28"/>
</g>
<!-- vesting::withdraw_stake -->
<g id="node14" class="node">
<title>vesting::withdraw_stake</title>
<ellipse fill="none" stroke="black" cx="679" cy="-392" rx="66.09" ry="18"/>
<text text-anchor="middle" x="679" y="-388.3" font-family="Times,serif" font-size="14.00">withdraw_stake</text>
</g>
<!-- vesting::distribute&#45;&gt;vesting::withdraw_stake -->
<g id="edge32" class="edge">
<title>vesting::distribute&#45;&gt;vesting::withdraw_stake</title>
<path fill="none" stroke="black" d="M404.49,-460.12C412.82,-456.13 422.15,-452.05 431,-449 490.95,-428.37 561.7,-413.26 612.26,-403.97"/>
<polygon fill="black" stroke="black" points="612.66,-407.46 621.88,-402.23 611.42,-400.57 612.66,-407.46"/>
</g>
<!-- transaction_fee::burn_fee -->
<g id="node9" class="node">
<title>transaction_fee::burn_fee</title>
<ellipse fill="none" stroke="black" cx="94" cy="-162" rx="42.49" ry="18"/>
<text text-anchor="middle" x="94" y="-158.3" font-family="Times,serif" font-size="14.00">burn_fee</text>
</g>
<!-- transaction_fee::burn_fee&#45;&gt;burn_from -->
<g id="edge8" class="edge">
<title>transaction_fee::burn_fee&#45;&gt;burn_from</title>
<path fill="none" stroke="black" d="M118.8,-147C136.93,-136.76 161.81,-122.72 182.12,-111.26"/>
<polygon fill="black" stroke="black" points="183.66,-114.4 190.65,-106.44 180.22,-108.31 183.66,-114.4"/>
</g>
<!-- transfer -->
<g id="node10" class="node">
<title>transfer</title>
<ellipse fill="none" stroke="black" cx="780" cy="-162" rx="37.89" ry="18"/>
<text text-anchor="middle" x="780" y="-158.3" font-family="Times,serif" font-size="14.00">transfer</text>
</g>
<!-- transfer&#45;&gt;withdraw -->
<g id="edge9" class="edge">
<title>transfer&#45;&gt;withdraw</title>
<path fill="none" stroke="black" d="M805.45,-148.22C813.84,-144.16 823.25,-139.75 832,-136 856.69,-125.42 884.77,-114.74 907.46,-106.44"/>
<polygon fill="black" stroke="black" points="908.49,-109.79 916.7,-103.08 906.1,-103.21 908.49,-109.79"/>
</g>
<!-- stake::add_stake -->
<g id="node11" class="node">
<title>stake::add_stake</title>
<ellipse fill="none" stroke="black" cx="2306" cy="-162" rx="46.29" ry="18"/>
<text text-anchor="middle" x="2306" y="-158.3" font-family="Times,serif" font-size="14.00">add_stake</text>
</g>
<!-- stake::add_stake&#45;&gt;withdraw -->
<g id="edge10" class="edge">
<title>stake::add_stake&#45;&gt;withdraw</title>
<path fill="none" stroke="black" d="M2280.17,-146.74C2271.2,-142.48 2260.9,-138.33 2251,-136 2128.91,-107.34 1239.97,-94.54 1006.85,-91.65"/>
<polygon fill="black" stroke="black" points="1007.17,-88.15 997.12,-91.53 1007.08,-95.15 1007.17,-88.15"/>
</g>
<!-- staking_contract::add_stake -->
<g id="node12" class="node">
<title>staking_contract::add_stake</title>
<ellipse fill="none" stroke="black" cx="1090" cy="-392" rx="46.29" ry="18"/>
<text text-anchor="middle" x="1090" y="-388.3" font-family="Times,serif" font-size="14.00">add_stake</text>
</g>
<!-- staking_contract::add_stake&#45;&gt;withdraw -->
<g id="edge11" class="edge">
<title>staking_contract::add_stake&#45;&gt;withdraw</title>
<path fill="none" stroke="black" d="M1057.08,-379.15C1038.06,-370.61 1015.33,-357.19 1002,-338 949.87,-262.98 985.15,-224.87 964,-136 962.68,-130.46 961.11,-124.58 959.52,-118.96"/>
<polygon fill="black" stroke="black" points="962.91,-118.07 956.75,-109.45 956.19,-120.03 962.91,-118.07"/>
</g>
<!-- staking_contract::create_staking_contract -->
<g id="node13" class="node">
<title>staking_contract::create_staking_contract</title>
<ellipse fill="none" stroke="black" cx="1400" cy="-392" rx="94.48" ry="18"/>
<text text-anchor="middle" x="1400" y="-388.3" font-family="Times,serif" font-size="14.00">create_staking_contract</text>
</g>
<!-- staking_contract::create_staking_contract&#45;&gt;withdraw -->
<g id="edge12" class="edge">
<title>staking_contract::create_staking_contract&#45;&gt;withdraw</title>
<path fill="none" stroke="black" d="M1346.82,-376.68C1330.89,-372.77 1313.32,-368.84 1297,-366 1239.31,-355.96 1079.48,-376.08 1035,-338 964.41,-277.56 1019.28,-220.68 981,-136 978,-129.37 974.08,-122.64 970.05,-116.47"/>
<polygon fill="black" stroke="black" points="973.18,-114.84 964.63,-108.58 967.41,-118.8 973.18,-114.84"/>
</g>
<!-- staking_contract::create_staking_contract_with_coins -->
<g id="node44" class="node">
<title>staking_contract::create_staking_contract_with_coins</title>
<ellipse fill="none" stroke="black" cx="1605" cy="-320" rx="137.28" ry="18"/>
<text text-anchor="middle" x="1605" y="-316.3" font-family="Times,serif" font-size="14.00">create_staking_contract_with_coins</text>
</g>
<!-- staking_contract::create_staking_contract&#45;&gt;staking_contract::create_staking_contract_with_coins -->
<g id="edge56" class="edge">
<title>staking_contract::create_staking_contract&#45;&gt;staking_contract::create_staking_contract_with_coins</title>
<path fill="none" stroke="black" d="M1444.73,-375.72C1474.58,-365.53 1514.14,-352.03 1546.48,-340.98"/>
<polygon fill="black" stroke="black" points="1547.38,-344.37 1555.71,-337.83 1545.12,-337.75 1547.38,-344.37"/>
</g>
<!-- vesting::withdraw_stake&#45;&gt;withdraw -->
<g id="edge13" class="edge">
<title>vesting::withdraw_stake&#45;&gt;withdraw</title>
<path fill="none" stroke="black" d="M717.61,-377.1C753.19,-362.21 804.5,-335.01 832,-294 871.71,-234.76 817.21,-193.05 860,-136 870.84,-121.54 887.6,-111.45 903.79,-104.54"/>
<polygon fill="black" stroke="black" points="904.83,-107.89 912.87,-101 902.29,-101.37 904.83,-107.89"/>
</g>
<!-- staking_contract::distribute -->
<g id="node22" class="node">
<title>staking_contract::distribute</title>
<ellipse fill="none" stroke="black" cx="1088" cy="-320" rx="44.39" ry="18"/>
<text text-anchor="middle" x="1088" y="-316.3" font-family="Times,serif" font-size="14.00">distribute</text>
</g>
<!-- vesting::withdraw_stake&#45;&gt;staking_contract::distribute -->
<g id="edge39" class="edge">
<title>vesting::withdraw_stake&#45;&gt;staking_contract::distribute</title>
<path fill="none" stroke="black" d="M733.74,-381.63C813.09,-368.05 959.06,-343.07 1036.53,-329.81"/>
<polygon fill="black" stroke="black" points="1036.7,-333.33 1045.96,-328.19 1035.51,-326.43 1036.7,-333.33"/>
</g>
<!-- genesis::create_employee_validators -->
<g id="node15" class="node">
<title>genesis::create_employee_validators</title>
<ellipse fill="none" stroke="black" cx="2106" cy="-697" rx="109.68" ry="18"/>
<text text-anchor="middle" x="2106" y="-693.3" font-family="Times,serif" font-size="14.00">create_employee_validators</text>
</g>
<!-- genesis::create_employee_validators&#45;&gt;withdraw -->
<g id="edge14" class="edge">
<title>genesis::create_employee_validators&#45;&gt;withdraw</title>
<path fill="none" stroke="black" d="M1996.22,-695.69C1803.39,-694.65 1391.35,-690.15 1044,-671 851.57,-660.39 331.32,-715.35 180,-596 162.34,-582.07 164,-570.49 164,-548 164,-548 164,-548 164,-244 164,-169.26 718.06,-112.23 896.41,-95.81"/>
<polygon fill="black" stroke="black" points="896.7,-99.29 906.34,-94.9 896.06,-92.32 896.7,-99.29"/>
</g>
<!-- vesting::create_vesting_contract -->
<g id="node46" class="node">
<title>vesting::create_vesting_contract</title>
<ellipse fill="none" stroke="black" cx="926" cy="-547" rx="94.48" ry="18"/>
<text text-anchor="middle" x="926" y="-543.3" font-family="Times,serif" font-size="14.00">create_vesting_contract</text>
</g>
<!-- genesis::create_employee_validators&#45;&gt;vesting::create_vesting_contract -->
<g id="edge59" class="edge">
<title>genesis::create_employee_validators&#45;&gt;vesting::create_vesting_contract</title>
<path fill="none" stroke="black" d="M1996.94,-694.79C1783.63,-692.13 1325.8,-684.88 1255,-671 1148.09,-650.04 1030.16,-598.43 968.66,-569.16"/>
<polygon fill="black" stroke="black" points="970.46,-566.14 959.93,-564.96 967.43,-572.45 970.46,-566.14"/>
</g>
<!-- managed_coin::burn -->
<g id="node16" class="node">
<title>managed_coin::burn</title>
<ellipse fill="none" stroke="black" cx="923" cy="-162" rx="27" ry="18"/>
<text text-anchor="middle" x="923" y="-158.3" font-family="Times,serif" font-size="14.00">burn</text>
</g>
<!-- managed_coin::burn&#45;&gt;withdraw -->
<g id="edge15" class="edge">
<title>managed_coin::burn&#45;&gt;withdraw</title>
<path fill="none" stroke="black" d="M929.64,-144.41C932.73,-136.68 936.49,-127.27 939.99,-118.52"/>
<polygon fill="black" stroke="black" points="943.19,-119.95 943.66,-109.36 936.69,-117.35 943.19,-119.95"/>
</g>
<!-- stake::reactivate_stake -->
<g id="node17" class="node">
<title>stake::reactivate_stake</title>
<ellipse fill="none" stroke="black" cx="2474" cy="-245" rx="67.69" ry="18"/>
<text text-anchor="middle" x="2474" y="-241.3" font-family="Times,serif" font-size="14.00">reactivate_stake</text>
</g>
<!-- stake::reactivate_stake&#45;&gt;stake::reactivate_stake_with_cap -->
<g id="edge16" class="edge">
<title>stake::reactivate_stake&#45;&gt;stake::reactivate_stake_with_cap</title>
<path fill="none" stroke="black" d="M2474,-226.82C2474,-216.69 2474,-203.6 2474,-191.92"/>
<polygon fill="black" stroke="black" points="2477.5,-191.95 2474,-181.95 2470.5,-191.95 2477.5,-191.95"/>
</g>
<!-- stake::unlock -->
<g id="node18" class="node">
<title>stake::unlock</title>
<ellipse fill="none" stroke="black" cx="1991" cy="-245" rx="34.39" ry="18"/>
<text text-anchor="middle" x="1991" y="-241.3" font-family="Times,serif" font-size="14.00">unlock</text>
</g>
<!-- stake::unlock&#45;&gt;stake::unlock_with_cap -->
<g id="edge17" class="edge">
<title>stake::unlock&#45;&gt;stake::unlock_with_cap</title>
<path fill="none" stroke="black" d="M1991,-226.82C1991,-216.69 1991,-203.6 1991,-191.92"/>
<polygon fill="black" stroke="black" points="1994.5,-191.95 1991,-181.95 1987.5,-191.95 1994.5,-191.95"/>
</g>
<!-- staking_contract::request_commission_internal -->
<g id="node19" class="node">
<title>staking_contract::request_commission_internal</title>
<ellipse fill="none" stroke="black" cx="1608" cy="-245" rx="115.08" ry="18"/>
<text text-anchor="middle" x="1608" y="-241.3" font-family="Times,serif" font-size="14.00">request_commission_internal</text>
</g>
<!-- staking_contract::request_commission_internal&#45;&gt;stake::unlock_with_cap -->
<g id="edge18" class="edge">
<title>staking_contract::request_commission_internal&#45;&gt;stake::unlock_with_cap</title>
<path fill="none" stroke="black" d="M1674.28,-229.98C1745.1,-215 1856.62,-191.42 1926.68,-176.6"/>
<polygon fill="black" stroke="black" points="1927.02,-180.11 1936.08,-174.62 1925.57,-173.26 1927.02,-180.11"/>
</g>
<!-- staking_contract::unlock_stake -->
<g id="node20" class="node">
<title>staking_contract::unlock_stake</title>
<ellipse fill="none" stroke="black" cx="1393" cy="-320" rx="57.39" ry="18"/>
<text text-anchor="middle" x="1393" y="-316.3" font-family="Times,serif" font-size="14.00">unlock_stake</text>
</g>
<!-- staking_contract::unlock_stake&#45;&gt;stake::unlock_with_cap -->
<g id="edge19" class="edge">
<title>staking_contract::unlock_stake&#45;&gt;stake::unlock_with_cap</title>
<path fill="none" stroke="black" d="M1433.54,-306.97C1441.89,-304.94 1450.68,-303.13 1459,-302 1483.34,-298.69 1879.62,-306.09 1901,-294 1935.24,-274.64 1925.55,-251.3 1948,-219 1955.03,-208.88 1963.17,-198.08 1970.46,-188.69"/>
<polygon fill="black" stroke="black" points="1973.04,-191.06 1976.46,-181.03 1967.54,-186.74 1973.04,-191.06"/>
</g>
<!-- staking_contract::unlock_stake&#45;&gt;staking_contract::distribute_internal -->
<g id="edge25" class="edge">
<title>staking_contract::unlock_stake&#45;&gt;staking_contract::distribute_internal</title>
<path fill="none" stroke="black" d="M1393,-301.7C1393,-293.67 1393,-283.9 1393,-274.8"/>
<polygon fill="black" stroke="black" points="1396.5,-274.94 1393,-264.94 1389.5,-274.94 1396.5,-274.94"/>
</g>
<!-- staking_contract::unlock_stake&#45;&gt;staking_contract::request_commission_internal -->
<g id="edge36" class="edge">
<title>staking_contract::unlock_stake&#45;&gt;staking_contract::request_commission_internal</title>
<path fill="none" stroke="black" d="M1434.6,-307.17C1448.18,-303.17 1463.28,-298.55 1477,-294 1503.02,-285.37 1531.63,-274.99 1555.46,-266.09"/>
<polygon fill="black" stroke="black" points="1556.5,-269.44 1564.63,-262.65 1554.04,-262.89 1556.5,-269.44"/>
</g>
<!-- stake::withdraw -->
<g id="node21" class="node">
<title>stake::withdraw</title>
<ellipse fill="none" stroke="black" cx="2136" cy="-245" rx="44.39" ry="18"/>
<text text-anchor="middle" x="2136" y="-241.3" font-family="Times,serif" font-size="14.00">withdraw</text>
</g>
<!-- stake::withdraw&#45;&gt;stake::withdraw_with_cap -->
<g id="edge20" class="edge">
<title>stake::withdraw&#45;&gt;stake::withdraw_with_cap</title>
<path fill="none" stroke="black" d="M2141.3,-226.82C2144.5,-216.48 2148.64,-203.05 2152.3,-191.18"/>
<polygon fill="black" stroke="black" points="2155.57,-192.47 2155.17,-181.88 2148.88,-190.4 2155.57,-192.47"/>
</g>
<!-- staking_contract::distribute&#45;&gt;staking_contract::distribute_internal -->
<g id="edge22" class="edge">
<title>staking_contract::distribute&#45;&gt;staking_contract::distribute_internal</title>
<path fill="none" stroke="black" d="M1121.51,-307.74C1127.95,-305.72 1134.66,-303.72 1141,-302 1202.63,-285.31 1273.72,-269.85 1324.64,-259.42"/>
<polygon fill="black" stroke="black" points="1325.25,-262.87 1334.36,-257.45 1323.86,-256.01 1325.25,-262.87"/>
</g>
<!-- staking_contract::request_commission -->
<g id="node23" class="node">
<title>staking_contract::request_commission</title>
<ellipse fill="none" stroke="black" cx="1234" cy="-320" rx="83.69" ry="18"/>
<text text-anchor="middle" x="1234" y="-316.3" font-family="Times,serif" font-size="14.00">request_commission</text>
</g>
<!-- staking_contract::request_commission&#45;&gt;staking_contract::distribute_internal -->
<g id="edge23" class="edge">
<title>staking_contract::request_commission&#45;&gt;staking_contract::distribute_internal</title>
<path fill="none" stroke="black" d="M1268.5,-303.16C1292.18,-292.29 1323.81,-277.77 1349.25,-266.08"/>
<polygon fill="black" stroke="black" points="1350.38,-269.42 1358.01,-262.06 1347.46,-263.06 1350.38,-269.42"/>
</g>
<!-- staking_contract::request_commission&#45;&gt;staking_contract::request_commission_internal -->
<g id="edge34" class="edge">
<title>staking_contract::request_commission&#45;&gt;staking_contract::request_commission_internal</title>
<path fill="none" stroke="black" d="M1293.36,-306.98C1304.5,-305.06 1316.08,-303.28 1327,-302 1393.3,-294.2 1411.6,-307.41 1477,-294 1505.83,-288.09 1536.81,-276.97 1561.4,-266.93"/>
<polygon fill="black" stroke="black" points="1562.59,-270.22 1570.47,-263.14 1559.9,-263.76 1562.59,-270.22"/>
</g>
<!-- staking_contract::switch_operator -->
<g id="node24" class="node">
<title>staking_contract::switch_operator</title>
<ellipse fill="none" stroke="black" cx="1828" cy="-320" rx="67.69" ry="18"/>
<text text-anchor="middle" x="1828" y="-316.3" font-family="Times,serif" font-size="14.00">switch_operator</text>
</g>
<!-- staking_contract::switch_operator&#45;&gt;staking_contract::distribute_internal -->
<g id="edge24" class="edge">
<title>staking_contract::switch_operator&#45;&gt;staking_contract::distribute_internal</title>
<path fill="none" stroke="black" d="M1780.18,-306.99C1770.58,-304.99 1760.51,-303.18 1751,-302 1692.09,-294.68 1541.4,-309.13 1484,-294 1463.83,-288.69 1443.13,-278.23 1426.58,-268.44"/>
<polygon fill="black" stroke="black" points="1428.49,-265.5 1418.14,-263.26 1424.84,-271.47 1428.49,-265.5"/>
</g>
<!-- staking_contract::switch_operator&#45;&gt;staking_contract::request_commission_internal -->
<g id="edge35" class="edge">
<title>staking_contract::switch_operator&#45;&gt;staking_contract::request_commission_internal</title>
<path fill="none" stroke="black" d="M1779.95,-307.05C1765.42,-303.18 1749.48,-298.67 1735,-294 1709.53,-285.79 1681.68,-275.42 1658.56,-266.42"/>
<polygon fill="black" stroke="black" points="1659.96,-263.21 1649.37,-262.82 1657.41,-269.73 1659.96,-263.21"/>
</g>
<!-- vesting::terminate_vesting_contract -->
<g id="node25" class="node">
<title>vesting::terminate_vesting_contract</title>
<ellipse fill="none" stroke="black" cx="299" cy="-547" rx="106.68" ry="18"/>
<text text-anchor="middle" x="299" y="-543.3" font-family="Times,serif" font-size="14.00">terminate_vesting_contract</text>
</g>
<!-- vesting::terminate_vesting_contract&#45;&gt;vesting::distribute -->
<g id="edge26" class="edge">
<title>vesting::terminate_vesting_contract&#45;&gt;vesting::distribute</title>
<path fill="none" stroke="black" d="M318.12,-529.05C328.21,-520.12 340.74,-509.01 351.73,-499.28"/>
<polygon fill="black" stroke="black" points="353.84,-502.08 359,-492.83 349.2,-496.85 353.84,-502.08"/>
</g>
<!-- vesting::unlock_stake -->
<g id="node33" class="node">
<title>vesting::unlock_stake</title>
<ellipse fill="none" stroke="black" cx="657" cy="-475" rx="57.39" ry="18"/>
<text text-anchor="middle" x="657" y="-471.3" font-family="Times,serif" font-size="14.00">unlock_stake</text>
</g>
<!-- vesting::terminate_vesting_contract&#45;&gt;vesting::unlock_stake -->
<g id="edge47" class="edge">
<title>vesting::terminate_vesting_contract&#45;&gt;vesting::unlock_stake</title>
<path fill="none" stroke="black" d="M361.18,-531.95C378.56,-528.2 397.48,-524.28 415,-521 492.85,-506.43 513.45,-509.12 591,-493 595.06,-492.16 599.25,-491.22 603.45,-490.24"/>
<polygon fill="black" stroke="black" points="604.16,-493.67 613.06,-487.92 602.52,-486.87 604.16,-493.67"/>
</g>
<!-- transaction_validation::epilogue -->
<g id="node26" class="node">
<title>transaction_validation::epilogue</title>
<ellipse fill="none" stroke="black" cx="94" cy="-245" rx="40.89" ry="18"/>
<text text-anchor="middle" x="94" y="-241.3" font-family="Times,serif" font-size="14.00">epilogue</text>
</g>
<!-- transaction_validation::epilogue&#45;&gt;transaction_fee::burn_fee -->
<g id="edge27" class="edge">
<title>transaction_validation::epilogue&#45;&gt;transaction_fee::burn_fee</title>
<path fill="none" stroke="black" d="M94,-226.82C94,-216.69 94,-203.6 94,-191.92"/>
<polygon fill="black" stroke="black" points="97.5,-191.95 94,-181.95 90.5,-191.95 97.5,-191.95"/>
</g>
<!-- aptos_account::transfer -->
<g id="node27" class="node">
<title>aptos_account::transfer</title>
<ellipse fill="none" stroke="black" cx="780" cy="-245" rx="37.89" ry="18"/>
<text text-anchor="middle" x="780" y="-241.3" font-family="Times,serif" font-size="14.00">transfer</text>
</g>
<!-- aptos_account::transfer&#45;&gt;transfer -->
<g id="edge28" class="edge">
<title>aptos_account::transfer&#45;&gt;transfer</title>
<path fill="none" stroke="black" d="M780,-226.82C780,-216.69 780,-203.6 780,-191.92"/>
<polygon fill="black" stroke="black" points="783.5,-191.95 780,-181.95 776.5,-191.95 783.5,-191.95"/>
</g>
<!-- resource_account::create_resource_account_and_fund -->
<g id="node28" class="node">
<title>resource_account::create_resource_account_and_fund</title>
<ellipse fill="none" stroke="black" cx="583" cy="-245" rx="135.38" ry="18"/>
<text text-anchor="middle" x="583" y="-241.3" font-family="Times,serif" font-size="14.00">create_resource_account_and_fund</text>
</g>
<!-- resource_account::create_resource_account_and_fund&#45;&gt;transfer -->
<g id="edge29" class="edge">
<title>resource_account::create_resource_account_and_fund&#45;&gt;transfer</title>
<path fill="none" stroke="black" d="M623.34,-227.41C657.98,-213.17 707.56,-192.78 741.62,-178.78"/>
<polygon fill="black" stroke="black" points="742.78,-182.09 750.69,-175.05 740.11,-175.62 742.78,-182.09"/>
</g>
<!-- stake::initialize_stake_owner -->
<g id="node29" class="node">
<title>stake::initialize_stake_owner</title>
<ellipse fill="none" stroke="black" cx="2289" cy="-245" rx="90.18" ry="18"/>
<text text-anchor="middle" x="2289" y="-241.3" font-family="Times,serif" font-size="14.00">initialize_stake_owner</text>
</g>
<!-- stake::initialize_stake_owner&#45;&gt;stake::add_stake -->
<g id="edge30" class="edge">
<title>stake::initialize_stake_owner&#45;&gt;stake::add_stake</title>
<path fill="none" stroke="black" d="M2292.61,-226.82C2294.75,-216.58 2297.54,-203.33 2300.01,-191.55"/>
<polygon fill="black" stroke="black" points="2303.4,-192.42 2302.03,-181.91 2296.55,-190.98 2303.4,-192.42"/>
</g>
<!-- genesis::create_initialize_validator -->
<g id="node30" class="node">
<title>genesis::create_initialize_validator</title>
<ellipse fill="none" stroke="black" cx="2262" cy="-475" rx="102.88" ry="18"/>
<text text-anchor="middle" x="2262" y="-471.3" font-family="Times,serif" font-size="14.00">create_initialize_validator</text>
</g>
<!-- genesis::create_initialize_validator&#45;&gt;staking_contract::create_staking_contract -->
<g id="edge31" class="edge">
<title>genesis::create_initialize_validator&#45;&gt;staking_contract::create_staking_contract</title>
<path fill="none" stroke="black" d="M2158.83,-474.48C1981.02,-474.49 1624.24,-470.64 1503,-441 1480.36,-435.47 1456.69,-424.82 1437.75,-414.96"/>
<polygon fill="black" stroke="black" points="1439.55,-411.95 1429.09,-410.31 1436.24,-418.12 1439.55,-411.95"/>
</g>
<!-- genesis::create_initialize_validator&#45;&gt;stake::initialize_stake_owner -->
<g id="edge44" class="edge">
<title>genesis::create_initialize_validator&#45;&gt;stake::initialize_stake_owner</title>
<path fill="none" stroke="black" d="M2264.03,-456.86C2268.63,-417.99 2279.91,-322.8 2285.6,-274.74"/>
<polygon fill="black" stroke="black" points="2289.07,-275.18 2286.77,-264.84 2282.12,-274.36 2289.07,-275.18"/>
</g>
<!-- vesting::admin_withdraw -->
<g id="node31" class="node">
<title>vesting::admin_withdraw</title>
<ellipse fill="none" stroke="black" cx="511" cy="-475" rx="70.69" ry="18"/>
<text text-anchor="middle" x="511" y="-471.3" font-family="Times,serif" font-size="14.00">admin_withdraw</text>
</g>
<!-- vesting::admin_withdraw&#45;&gt;vesting::withdraw_stake -->
<g id="edge33" class="edge">
<title>vesting::admin_withdraw&#45;&gt;vesting::withdraw_stake</title>
<path fill="none" stroke="black" d="M542.99,-458.57C569.7,-445.7 607.98,-427.24 637.12,-413.19"/>
<polygon fill="black" stroke="black" points="638.56,-416.38 646.05,-408.89 635.52,-410.08 638.56,-416.38"/>
</g>
<!-- staking_contract::unlock_rewards -->
<g id="node32" class="node">
<title>staking_contract::unlock_rewards</title>
<ellipse fill="none" stroke="black" cx="1221" cy="-392" rx="66.89" ry="18"/>
<text text-anchor="middle" x="1221" y="-388.3" font-family="Times,serif" font-size="14.00">unlock_rewards</text>
</g>
<!-- staking_contract::unlock_rewards&#45;&gt;staking_contract::unlock_stake -->
<g id="edge37" class="edge">
<title>staking_contract::unlock_rewards&#45;&gt;staking_contract::unlock_stake</title>
<path fill="none" stroke="black" d="M1256.64,-376.5C1283.25,-365.67 1319.8,-350.79 1348.35,-339.17"/>
<polygon fill="black" stroke="black" points="1349.53,-342.47 1357.47,-335.46 1346.89,-335.99 1349.53,-342.47"/>
</g>
<!-- vesting::unlock_stake&#45;&gt;staking_contract::unlock_stake -->
<g id="edge38" class="edge">
<title>vesting::unlock_stake&#45;&gt;staking_contract::unlock_stake</title>
<path fill="none" stroke="black" d="M688.23,-459.57C699.01,-455.3 711.32,-451.18 723,-449 738.21,-446.16 1826.1,-451.98 1837,-441 1860.49,-417.35 1859.68,-390.43 1837,-366 1808.34,-335.14 1500.56,-344.84 1459,-338 1454.59,-337.28 1450.05,-336.4 1445.51,-335.42"/>
<polygon fill="black" stroke="black" points="1446.31,-332.01 1435.78,-333.18 1444.74,-338.83 1446.31,-332.01"/>
</g>
<!-- staking_contract::switch_operator_with_same_commission -->
<g id="node34" class="node">
<title>staking_contract::switch_operator_with_same_commission</title>
<ellipse fill="none" stroke="black" cx="1670" cy="-392" rx="157.87" ry="18"/>
<text text-anchor="middle" x="1670" y="-388.3" font-family="Times,serif" font-size="14.00">switch_operator_with_same_commission</text>
</g>
<!-- staking_contract::switch_operator_with_same_commission&#45;&gt;staking_contract::switch_operator -->
<g id="edge40" class="edge">
<title>staking_contract::switch_operator_with_same_commission&#45;&gt;staking_contract::switch_operator</title>
<path fill="none" stroke="black" d="M1708.25,-374.05C1730.98,-363.98 1759.91,-351.17 1783.64,-340.65"/>
<polygon fill="black" stroke="black" points="1785.02,-343.87 1792.75,-336.62 1782.19,-337.47 1785.02,-343.87"/>
</g>
<!-- vesting::update_operator -->
<g id="node35" class="node">
<title>vesting::update_operator</title>
<ellipse fill="none" stroke="black" cx="952" cy="-475" rx="67.69" ry="18"/>
<text text-anchor="middle" x="952" y="-471.3" font-family="Times,serif" font-size="14.00">update_operator</text>
</g>
<!-- vesting::update_operator&#45;&gt;staking_contract::switch_operator -->
<g id="edge41" class="edge">
<title>vesting::update_operator&#45;&gt;staking_contract::switch_operator</title>
<path fill="none" stroke="black" d="M1019.87,-474.07C1225.6,-473.97 1829.98,-471.09 1859,-441 1882.14,-417.01 1868.9,-397.83 1859,-366 1856.94,-359.38 1853.54,-352.88 1849.72,-346.96"/>
<polygon fill="black" stroke="black" points="1852.6,-344.98 1843.95,-338.88 1846.91,-349.05 1852.6,-344.98"/>
</g>
<!-- staking_proxy::set_staking_contract_operator -->
<g id="node36" class="node">
<title>staking_proxy::set_staking_contract_operator</title>
<ellipse fill="none" stroke="black" cx="1634" cy="-547" rx="116.18" ry="18"/>
<text text-anchor="middle" x="1634" y="-543.3" font-family="Times,serif" font-size="14.00">set_staking_contract_operator</text>
</g>
<!-- staking_proxy::set_staking_contract_operator&#45;&gt;staking_contract::switch_operator -->
<g id="edge42" class="edge">
<title>staking_proxy::set_staking_contract_operator&#45;&gt;staking_contract::switch_operator</title>
<path fill="none" stroke="black" d="M1745.84,-541.83C1824.62,-536.26 1920.43,-523.28 1946,-493 1982.42,-449.87 1978.02,-412.48 1946,-366 1934.67,-349.55 1916.45,-339.11 1897.69,-332.48"/>
<polygon fill="black" stroke="black" points="1898.97,-329.22 1888.38,-329.55 1896.87,-335.89 1898.97,-329.22"/>
</g>
<!-- staking_contract::create_stake_pool -->
<g id="node37" class="node">
<title>staking_contract::create_stake_pool</title>
<ellipse fill="none" stroke="black" cx="1818" cy="-245" rx="74.19" ry="18"/>
<text text-anchor="middle" x="1818" y="-241.3" font-family="Times,serif" font-size="14.00">create_stake_pool</text>
</g>
<!-- staking_contract::create_stake_pool&#45;&gt;stake::initialize_stake_owner -->
<g id="edge43" class="edge">
<title>staking_contract::create_stake_pool&#45;&gt;stake::initialize_stake_owner</title>
<path fill="none" stroke="black" d="M1841.31,-262.41C1860.48,-275.46 1888.97,-292.05 1917,-298 1931.29,-301.03 2165.71,-301.03 2180,-298 2205.71,-292.54 2232.28,-279.8 2252.75,-268.17"/>
<polygon fill="black" stroke="black" points="2254.4,-271.26 2261.26,-263.18 2250.86,-265.22 2254.4,-271.26"/>
</g>
<!-- genesis::create_initialize_validators_with_commission -->
<g id="node38" class="node">
<title>genesis::create_initialize_validators_with_commission</title>
<ellipse fill="none" stroke="black" cx="2262" cy="-547" rx="173.57" ry="18"/>
<text text-anchor="middle" x="2262" y="-543.3" font-family="Times,serif" font-size="14.00">create_initialize_validators_with_commission</text>
</g>
<!-- genesis::create_initialize_validators_with_commission&#45;&gt;genesis::create_initialize_validator -->
<g id="edge45" class="edge">
<title>genesis::create_initialize_validators_with_commission&#45;&gt;genesis::create_initialize_validator</title>
<path fill="none" stroke="black" d="M2262,-528.7C2262,-521.41 2262,-512.73 2262,-504.54"/>
<polygon fill="black" stroke="black" points="2265.5,-504.62 2262,-494.62 2258.5,-504.62 2265.5,-504.62"/>
</g>
<!-- vesting::unlock_rewards -->
<g id="node39" class="node">
<title>vesting::unlock_rewards</title>
<ellipse fill="none" stroke="black" cx="799" cy="-475" rx="66.89" ry="18"/>
<text text-anchor="middle" x="799" y="-471.3" font-family="Times,serif" font-size="14.00">unlock_rewards</text>
</g>
<!-- vesting::unlock_rewards&#45;&gt;staking_contract::unlock_rewards -->
<g id="edge46" class="edge">
<title>vesting::unlock_rewards&#45;&gt;staking_contract::unlock_rewards</title>
<path fill="none" stroke="black" d="M835.56,-459.61C847.9,-455.4 861.87,-451.3 875,-449 934.12,-438.63 1087.59,-458.54 1145,-441 1161.93,-435.83 1178.79,-425.81 1192.3,-416.26"/>
<polygon fill="black" stroke="black" points="1194.32,-419.12 1200.29,-410.36 1190.17,-413.49 1194.32,-419.12"/>
</g>
<!-- vesting::vest -->
<g id="node40" class="node">
<title>vesting::vest</title>
<ellipse fill="none" stroke="black" cx="451" cy="-547" rx="27" ry="18"/>
<text text-anchor="middle" x="451" y="-543.3" font-family="Times,serif" font-size="14.00">vest</text>
</g>
<!-- vesting::vest&#45;&gt;vesting::unlock_stake -->
<g id="edge48" class="edge">
<title>vesting::vest&#45;&gt;vesting::unlock_stake</title>
<path fill="none" stroke="black" d="M467.84,-532.5C473.65,-528.35 480.37,-524.06 487,-521 489.74,-519.73 554,-502.85 602.7,-490.14"/>
<polygon fill="black" stroke="black" points="603.51,-493.54 612.3,-487.63 601.74,-486.77 603.51,-493.54"/>
</g>
<!-- vesting::vest&#45;&gt;vesting::unlock_rewards -->
<g id="edge54" class="edge">
<title>vesting::vest&#45;&gt;vesting::unlock_rewards</title>
<path fill="none" stroke="black" d="M467.24,-532.21C473.12,-527.93 480.03,-523.64 487,-521 585.76,-483.54 618.88,-510.77 723,-493 728.22,-492.11 733.63,-491.09 739.04,-490.01"/>
<polygon fill="black" stroke="black" points="739.53,-493.48 748.6,-488.02 738.1,-486.63 739.53,-493.48"/>
</g>
<!-- vesting::update_operator_with_same_commission -->
<g id="node41" class="node">
<title>vesting::update_operator_with_same_commission</title>
<ellipse fill="none" stroke="black" cx="655" cy="-547" rx="158.67" ry="18"/>
<text text-anchor="middle" x="655" y="-543.3" font-family="Times,serif" font-size="14.00">update_operator_with_same_commission</text>
</g>
<!-- vesting::update_operator_with_same_commission&#45;&gt;vesting::update_operator -->
<g id="edge49" class="edge">
<title>vesting::update_operator_with_same_commission&#45;&gt;vesting::update_operator</title>
<path fill="none" stroke="black" d="M721.65,-530.29C772.58,-518.29 842.2,-501.88 891.53,-490.25"/>
<polygon fill="black" stroke="black" points="892.27,-493.67 901.2,-487.97 890.66,-486.86 892.27,-493.67"/>
</g>
<!-- staking_proxy::set_vesting_contract_operator -->
<g id="node42" class="node">
<title>staking_proxy::set_vesting_contract_operator</title>
<ellipse fill="none" stroke="black" cx="1383" cy="-547" rx="116.18" ry="18"/>
<text text-anchor="middle" x="1383" y="-543.3" font-family="Times,serif" font-size="14.00">set_vesting_contract_operator</text>
</g>
<!-- staking_proxy::set_vesting_contract_operator&#45;&gt;vesting::update_operator -->
<g id="edge50" class="edge">
<title>staking_proxy::set_vesting_contract_operator&#45;&gt;vesting::update_operator</title>
<path fill="none" stroke="black" d="M1304.95,-533.32C1223.45,-520.09 1096.93,-499.54 1019.57,-486.97"/>
<polygon fill="black" stroke="black" points="1020.45,-483.57 1010.02,-485.42 1019.32,-490.48 1020.45,-483.57"/>
</g>
<!-- staking_proxy::set_operator -->
<g id="node43" class="node">
<title>staking_proxy::set_operator</title>
<ellipse fill="none" stroke="black" cx="1508" cy="-622" rx="53.89" ry="18"/>
<text text-anchor="middle" x="1508" y="-618.3" font-family="Times,serif" font-size="14.00">set_operator</text>
</g>
<!-- staking_proxy::set_operator&#45;&gt;staking_proxy::set_staking_contract_operator -->
<g id="edge51" class="edge">
<title>staking_proxy::set_operator&#45;&gt;staking_proxy::set_staking_contract_operator</title>
<path fill="none" stroke="black" d="M1534.11,-605.87C1551.66,-595.7 1575.12,-582.11 1594.89,-570.66"/>
<polygon fill="black" stroke="black" points="1596.64,-573.69 1603.53,-565.65 1593.13,-567.64 1596.64,-573.69"/>
</g>
<!-- staking_proxy::set_operator&#45;&gt;staking_proxy::set_vesting_contract_operator -->
<g id="edge55" class="edge">
<title>staking_proxy::set_operator&#45;&gt;staking_proxy::set_vesting_contract_operator</title>
<path fill="none" stroke="black" d="M1482.1,-605.87C1464.68,-595.7 1441.41,-582.11 1421.8,-570.66"/>
<polygon fill="black" stroke="black" points="1423.63,-567.68 1413.23,-565.66 1420.1,-573.72 1423.63,-567.68"/>
</g>
<!-- staking_contract::create_staking_contract_with_coins&#45;&gt;staking_contract::create_stake_pool -->
<g id="edge52" class="edge">
<title>staking_contract::create_staking_contract_with_coins&#45;&gt;staking_contract::create_stake_pool</title>
<path fill="none" stroke="black" d="M1691.74,-305.72C1705.41,-302.55 1719.24,-298.68 1732,-294 1750.04,-287.38 1768.81,-277.32 1784.2,-268.12"/>
<polygon fill="black" stroke="black" points="1785.8,-271.25 1792.49,-263.03 1782.14,-265.28 1785.8,-271.25"/>
</g>
<!-- genesis::create_initialize_validators -->
<g id="node45" class="node">
<title>genesis::create_initialize_validators</title>
<ellipse fill="none" stroke="black" cx="2296" cy="-622" rx="105.88" ry="18"/>
<text text-anchor="middle" x="2296" y="-618.3" font-family="Times,serif" font-size="14.00">create_initialize_validators</text>
</g>
<!-- genesis::create_initialize_validators&#45;&gt;genesis::create_initialize_validators_with_commission -->
<g id="edge53" class="edge">
<title>genesis::create_initialize_validators&#45;&gt;genesis::create_initialize_validators_with_commission</title>
<path fill="none" stroke="black" d="M2287.94,-603.7C2284.03,-595.31 2279.24,-585.02 2274.85,-575.58"/>
<polygon fill="black" stroke="black" points="2278.15,-574.39 2270.76,-566.8 2271.81,-577.34 2278.15,-574.39"/>
</g>
<!-- vesting::create_vesting_contract&#45;&gt;staking_contract::create_staking_contract_with_coins -->
<g id="edge57" class="edge">
<title>vesting::create_vesting_contract&#45;&gt;staking_contract::create_staking_contract_with_coins</title>
<path fill="none" stroke="black" d="M1012.37,-539.39C1238.22,-521.69 1830.89,-472.45 1859,-441 1881.21,-416.15 1880.42,-391.54 1859,-366 1849.38,-354.53 1780.51,-342.76 1716.91,-334.14"/>
<polygon fill="black" stroke="black" points="1717.4,-330.67 1707.02,-332.82 1716.47,-337.61 1717.4,-330.67"/>
</g>
<!-- genesis::initialize_for_verification -->
<g id="node47" class="node">
<title>genesis::initialize_for_verification</title>
<ellipse fill="none" stroke="black" cx="2335" cy="-697" rx="100.98" ry="18"/>
<text text-anchor="middle" x="2335" y="-693.3" font-family="Times,serif" font-size="14.00">initialize_for_verification</text>
</g>
<!-- genesis::initialize_for_verification&#45;&gt;genesis::create_initialize_validators -->
<g id="edge58" class="edge">
<title>genesis::initialize_for_verification&#45;&gt;genesis::create_initialize_validators</title>
<path fill="none" stroke="black" d="M2325.76,-678.7C2321.27,-670.31 2315.78,-660.02 2310.73,-650.58"/>
<polygon fill="black" stroke="black" points="2313.82,-648.93 2306.02,-641.76 2307.65,-652.23 2313.82,-648.93"/>
</g>
</g>
</svg>
