<?xml version="1.0" encoding="UTF-8" standalone="no"?>
<!DOCTYPE svg PUBLIC "-//W3C//DTD SVG 1.1//EN"
 "http://www.w3.org/Graphics/SVG/1.1/DTD/svg11.dtd">
<!-- Generated by graphviz version 7.0.0 (20221023.0053)
 -->
<!-- Title: G Pages: 1 -->
<svg width="388pt" height="382pt"
 viewBox="0.00 0.00 388.00 382.00" xmlns="http://www.w3.org/2000/svg" xmlns:xlink="http://www.w3.org/1999/xlink">
<g id="graph0" class="graph" transform="scale(1 1) rotate(0) translate(4 378)">
<title>G</title>
<polygon fill="white" stroke="none" points="-4,4 -4,-378 384,-378 384,4 -4,4"/>
<g id="clust1" class="cluster">
<title>cluster_aptos_coin</title>
<polygon fill="none" stroke="black" points="108,-64 108,-139 272,-139 272,-64 108,-64"/>
<text text-anchor="middle" x="190" y="-123.8" font-family="Times,serif" font-size="14.00">aptos_coin</text>
</g>
<g id="clust2" class="cluster">
<title>cluster_genesis</title>
<polygon fill="none" stroke="black" points="8,-147 8,-366 372,-366 372,-147 8,-147"/>
<text text-anchor="middle" x="190" y="-350.8" font-family="Times,serif" font-size="14.00">genesis</text>
</g>
<!-- destroy_mint_cap -->
<g id="node1" class="node">
<title>destroy_mint_cap</title>
<ellipse fill="none" stroke="black" cx="190" cy="-18" rx="74.19" ry="18"/>
<text text-anchor="middle" x="190" y="-14.3" font-family="Times,serif" font-size="14.00">destroy_mint_cap</text>
</g>
<!-- aptos_coin::destroy_mint_cap -->
<g id="node2" class="node">
<title>aptos_coin::destroy_mint_cap</title>
<ellipse fill="none" stroke="black" cx="190" cy="-90" rx="74.19" ry="18"/>
<text text-anchor="middle" x="190" y="-86.3" font-family="Times,serif" font-size="14.00">destroy_mint_cap</text>
</g>
<!-- aptos_coin::destroy_mint_cap&#45;&gt;destroy_mint_cap -->
<g id="edge1" class="edge">
<title>aptos_coin::destroy_mint_cap&#45;&gt;destroy_mint_cap</title>
<path fill="none" stroke="black" d="M190,-71.7C190,-64.41 190,-55.73 190,-47.54"/>
<polygon fill="black" stroke="black" points="193.5,-47.62 190,-37.62 186.5,-47.62 193.5,-47.62"/>
</g>
<!-- genesis::create_initialize_validators_with_commission -->
<g id="node3" class="node">
<title>genesis::create_initialize_validators_with_commission</title>
<ellipse fill="none" stroke="black" cx="190" cy="-173" rx="173.57" ry="18"/>
<text text-anchor="middle" x="190" y="-169.3" font-family="Times,serif" font-size="14.00">create_initialize_validators_with_commission</text>
</g>
<!-- genesis::create_initialize_validators_with_commission&#45;&gt;aptos_coin::destroy_mint_cap -->
<g id="edge2" class="edge">
<title>genesis::create_initialize_validators_with_commission&#45;&gt;aptos_coin::destroy_mint_cap</title>
<path fill="none" stroke="black" d="M190,-154.82C190,-144.69 190,-131.6 190,-119.92"/>
<polygon fill="black" stroke="black" points="193.5,-119.95 190,-109.95 186.5,-119.95 193.5,-119.95"/>
</g>
<!-- genesis::create_initialize_validators -->
<g id="node4" class="node">
<title>genesis::create_initialize_validators</title>
<ellipse fill="none" stroke="black" cx="190" cy="-245" rx="105.88" ry="18"/>
<text text-anchor="middle" x="190" y="-241.3" font-family="Times,serif" font-size="14.00">create_initialize_validators</text>
</g>
<!-- genesis::create_initialize_validators&#45;&gt;genesis::create_initialize_validators_with_commission -->
<g id="edge3" class="edge">
<title>genesis::create_initialize_validators&#45;&gt;genesis::create_initialize_validators_with_commission</title>
<path fill="none" stroke="black" d="M190,-226.7C190,-219.41 190,-210.73 190,-202.54"/>
<polygon fill="black" stroke="black" points="193.5,-202.62 190,-192.62 186.5,-202.62 193.5,-202.62"/>
</g>
<!-- genesis::initialize_for_verification -->
<g id="node5" class="node">
<title>genesis::initialize_for_verification</title>
<ellipse fill="none" stroke="black" cx="190" cy="-317" rx="100.98" ry="18"/>
<text text-anchor="middle" x="190" y="-313.3" font-family="Times,serif" font-size="14.00">initialize_for_verification</text>
</g>
<!-- genesis::initialize_for_verification&#45;&gt;genesis::create_initialize_validators -->
<g id="edge4" class="edge">
<title>genesis::initialize_for_verification&#45;&gt;genesis::create_initialize_validators</title>
<path fill="none" stroke="black" d="M190,-298.7C190,-291.41 190,-282.73 190,-274.54"/>
<polygon fill="black" stroke="black" points="193.5,-274.62 190,-264.62 186.5,-274.62 193.5,-274.62"/>
</g>
</g>
</svg>
