<?xml version="1.0" encoding="UTF-8" standalone="no"?>
<!DOCTYPE svg PUBLIC "-//W3C//DTD SVG 1.1//EN"
 "http://www.w3.org/Graphics/SVG/1.1/DTD/svg11.dtd">
<!-- Generated by graphviz version 7.0.0 (20221023.0053)
 -->
<!-- Title: G Pages: 1 -->
<svg width="412pt" height="155pt"
 viewBox="0.00 0.00 412.00 155.00" xmlns="http://www.w3.org/2000/svg" xmlns:xlink="http://www.w3.org/1999/xlink">
<g id="graph0" class="graph" transform="scale(1 1) rotate(0) translate(4 151)">
<title>G</title>
<polygon fill="white" stroke="none" points="-4,4 -4,-151 408,-151 408,4 -4,4"/>
<g id="clust1" class="cluster">
<title>cluster_aptos_account</title>
<polygon fill="none" stroke="black" points="8,-64 8,-139 102,-139 102,-64 8,-64"/>
<text text-anchor="middle" x="55" y="-123.8" font-family="Times,serif" font-size="14.00">aptos_account</text>
</g>
<g id="clust2" class="cluster">
<title>cluster_resource_account</title>
<polygon fill="none" stroke="black" points="110,-64 110,-139 396,-139 396,-64 110,-64"/>
<text text-anchor="middle" x="253" y="-123.8" font-family="Times,serif" font-size="14.00">resource_account</text>
</g>
<!-- transfer -->
<g id="node1" class="node">
<title>transfer</title>
<ellipse fill="none" stroke="black" cx="154" cy="-18" rx="37.89" ry="18"/>
<text text-anchor="middle" x="154" y="-14.3" font-family="Times,serif" font-size="14.00">transfer</text>
</g>
<!-- aptos_account::transfer -->
<g id="node2" class="node">
<title>aptos_account::transfer</title>
<ellipse fill="none" stroke="black" cx="56" cy="-90" rx="37.89" ry="18"/>
<text text-anchor="middle" x="56" y="-86.3" font-family="Times,serif" font-size="14.00">transfer</text>
</g>
<!-- aptos_account::transfer&#45;&gt;transfer -->
<g id="edge1" class="edge">
<title>aptos_account::transfer&#45;&gt;transfer</title>
<path fill="none" stroke="black" d="M76.31,-74.5C90.23,-64.55 108.94,-51.19 124.5,-40.07"/>
<polygon fill="black" stroke="black" points="126.39,-43.03 132.49,-34.37 122.32,-37.33 126.39,-43.03"/>
</g>
<!-- resource_account::create_resource_account_and_fund -->
<g id="node3" class="node">
<title>resource_account::create_resource_account_and_fund</title>
<ellipse fill="none" stroke="black" cx="253" cy="-90" rx="135.38" ry="18"/>
<text text-anchor="middle" x="253" y="-86.3" font-family="Times,serif" font-size="14.00">create_resource_account_and_fund</text>
</g>
<!-- resource_account::create_resource_account_and_fund&#45;&gt;transfer -->
<g id="edge2" class="edge">
<title>resource_account::create_resource_account_and_fund&#45;&gt;transfer</title>
<path fill="none" stroke="black" d="M228.78,-71.88C215.16,-62.25 198.06,-50.15 183.64,-39.96"/>
<polygon fill="black" stroke="black" points="186.04,-37.37 175.86,-34.46 182,-43.09 186.04,-37.37"/>
</g>
</g>
</svg>
