<?xml version="1.0" encoding="UTF-8" standalone="no"?>
<!DOCTYPE svg PUBLIC "-//W3C//DTD SVG 1.1//EN"
 "http://www.w3.org/Graphics/SVG/1.1/DTD/svg11.dtd">
<!-- Generated by graphviz version 7.0.0 (20221023.0053)
 -->
<!-- Title: G Pages: 1 -->
<svg width="2607pt" height="626pt"
 viewBox="0.00 0.00 2607.00 626.00" xmlns="http://www.w3.org/2000/svg" xmlns:xlink="http://www.w3.org/1999/xlink">
<g id="graph0" class="graph" transform="scale(1 1) rotate(0) translate(4 622)">
<title>G</title>
<polygon fill="white" stroke="none" points="-4,4 -4,-622 2603,-622 2603,4 -4,4"/>
<g id="clust1" class="cluster">
<title>cluster_stake</title>
<polygon fill="none" stroke="black" points="1010,-64 1010,-211 1359,-211 1359,-64 1010,-64"/>
<text text-anchor="middle" x="1184.5" y="-195.8" font-family="Times,serif" font-size="14.00">stake</text>
</g>
<g id="clust2" class="cluster">
<title>cluster_staking_contract</title>
<polygon fill="none" stroke="black" points="1989,-136 1989,-377 2565,-377 2565,-136 1989,-136"/>
<text text-anchor="middle" x="2277" y="-361.8" font-family="Times,serif" font-size="14.00">staking_contract</text>
</g>
<g id="clust3" class="cluster">
<title>cluster_reconfiguration</title>
<polygon fill="none" stroke="black" points="431,-219 431,-294 549,-294 549,-219 431,-219"/>
<text text-anchor="middle" x="490" y="-278.8" font-family="Times,serif" font-size="14.00">reconfiguration</text>
</g>
<g id="clust4" class="cluster">
<title>cluster_genesis</title>
<polygon fill="none" stroke="black" points="907,-219 907,-452 1271,-452 1271,-219 907,-219"/>
<text text-anchor="middle" x="1089" y="-436.8" font-family="Times,serif" font-size="14.00">genesis</text>
</g>
<g id="clust5" class="cluster">
<title>cluster_aptos_governance</title>
<polygon fill="none" stroke="black" points="8,-302 8,-377 126,-377 126,-302 8,-302"/>
<text text-anchor="middle" x="67" y="-361.8" font-family="Times,serif" font-size="14.00">aptos_governance</text>
</g>
<g id="clust6" class="cluster">
<title>cluster_block</title>
<polygon fill="none" stroke="black" points="134,-302 134,-377 282,-377 282,-302 134,-302"/>
<text text-anchor="middle" x="208" y="-361.8" font-family="Times,serif" font-size="14.00">block</text>
</g>
<g id="clust7" class="cluster">
<title>cluster_consensus_config</title>
<polygon fill="none" stroke="black" points="290,-302 290,-377 403,-377 403,-302 290,-302"/>
<text text-anchor="middle" x="346.5" y="-361.8" font-family="Times,serif" font-size="14.00">consensus_config</text>
</g>
<g id="clust8" class="cluster">
<title>cluster_gas_schedule</title>
<polygon fill="none" stroke="black" points="411,-302 411,-377 773,-377 773,-302 411,-302"/>
<text text-anchor="middle" x="592" y="-361.8" font-family="Times,serif" font-size="14.00">gas_schedule</text>
</g>
<g id="clust9" class="cluster">
<title>cluster_version</title>
<polygon fill="none" stroke="black" points="781,-302 781,-377 899,-377 899,-302 781,-302"/>
<text text-anchor="middle" x="840" y="-361.8" font-family="Times,serif" font-size="14.00">version</text>
</g>
<g id="clust10" class="cluster">
<title>cluster_vesting</title>
<polygon fill="none" stroke="black" points="1279,-302 1279,-535 1981,-535 1981,-302 1279,-302"/>
<text text-anchor="middle" x="1630" y="-519.8" font-family="Times,serif" font-size="14.00">vesting</text>
</g>
<g id="clust11" class="cluster">
<title>cluster_staking_proxy</title>
<polygon fill="none" stroke="black" points="2092,-460 2092,-610 2591,-610 2591,-460 2092,-460"/>
<text text-anchor="middle" x="2341.5" y="-594.8" font-family="Times,serif" font-size="14.00">staking_proxy</text>
</g>
<!-- extract_all -->
<g id="node1" class="node">
<title>extract_all</title>
<ellipse fill="none" stroke="black" cx="1182" cy="-18" rx="48.19" ry="18"/>
<text text-anchor="middle" x="1182" y="-14.3" font-family="Times,serif" font-size="14.00">extract_all</text>
</g>
<!-- stake::update_stake_pool -->
<g id="node2" class="node">
<title>stake::update_stake_pool</title>
<ellipse fill="none" stroke="black" cx="1095" cy="-90" rx="76.89" ry="18"/>
<text text-anchor="middle" x="1095" y="-86.3" font-family="Times,serif" font-size="14.00">update_stake_pool</text>
</g>
<!-- stake::update_stake_pool&#45;&gt;extract_all -->
<g id="edge1" class="edge">
<title>stake::update_stake_pool&#45;&gt;extract_all</title>
<path fill="none" stroke="black" d="M1115.62,-72.41C1127.02,-63.24 1141.35,-51.7 1153.78,-41.7"/>
<polygon fill="black" stroke="black" points="1155.65,-44.69 1161.25,-35.7 1151.26,-39.24 1155.65,-44.69"/>
</g>
<!-- stake::withdraw_with_cap -->
<g id="node3" class="node">
<title>stake::withdraw_with_cap</title>
<ellipse fill="none" stroke="black" cx="1270" cy="-90" rx="80.69" ry="18"/>
<text text-anchor="middle" x="1270" y="-86.3" font-family="Times,serif" font-size="14.00">withdraw_with_cap</text>
</g>
<!-- stake::withdraw_with_cap&#45;&gt;extract_all -->
<g id="edge2" class="edge">
<title>stake::withdraw_with_cap&#45;&gt;extract_all</title>
<path fill="none" stroke="black" d="M1249.15,-72.41C1237.61,-63.24 1223.11,-51.7 1210.54,-41.7"/>
<polygon fill="black" stroke="black" points="1212.99,-39.18 1202.98,-35.69 1208.63,-44.66 1212.99,-39.18"/>
</g>
<!-- stake::on_new_epoch -->
<g id="node4" class="node">
<title>stake::on_new_epoch</title>
<ellipse fill="none" stroke="black" cx="1089" cy="-162" rx="63.89" ry="18"/>
<text text-anchor="middle" x="1089" y="-158.3" font-family="Times,serif" font-size="14.00">on_new_epoch</text>
</g>
<!-- stake::on_new_epoch&#45;&gt;stake::update_stake_pool -->
<g id="edge3" class="edge">
<title>stake::on_new_epoch&#45;&gt;stake::update_stake_pool</title>
<path fill="none" stroke="black" d="M1090.48,-143.7C1091.11,-136.41 1091.85,-127.73 1092.55,-119.54"/>
<polygon fill="black" stroke="black" points="1096.04,-119.87 1093.4,-109.61 1089.06,-119.28 1096.04,-119.87"/>
</g>
<!-- stake::withdraw -->
<g id="node5" class="node">
<title>stake::withdraw</title>
<ellipse fill="none" stroke="black" cx="1270" cy="-162" rx="44.39" ry="18"/>
<text text-anchor="middle" x="1270" y="-158.3" font-family="Times,serif" font-size="14.00">withdraw</text>
</g>
<!-- stake::withdraw&#45;&gt;stake::withdraw_with_cap -->
<g id="edge4" class="edge">
<title>stake::withdraw&#45;&gt;stake::withdraw_with_cap</title>
<path fill="none" stroke="black" d="M1270,-143.7C1270,-136.41 1270,-127.73 1270,-119.54"/>
<polygon fill="black" stroke="black" points="1273.5,-119.62 1270,-109.62 1266.5,-119.62 1273.5,-119.62"/>
</g>
<!-- staking_contract::distribute_internal -->
<g id="node6" class="node">
<title>staking_contract::distribute_internal</title>
<ellipse fill="none" stroke="black" cx="2227" cy="-162" rx="75.29" ry="18"/>
<text text-anchor="middle" x="2227" y="-158.3" font-family="Times,serif" font-size="14.00">distribute_internal</text>
</g>
<!-- staking_contract::distribute_internal&#45;&gt;stake::withdraw_with_cap -->
<g id="edge5" class="edge">
<title>staking_contract::distribute_internal&#45;&gt;stake::withdraw_with_cap</title>
<path fill="none" stroke="black" d="M2155.85,-155.8C1983.69,-143.2 1545.05,-111.12 1357.36,-97.39"/>
<polygon fill="black" stroke="black" points="1357.64,-93.9 1347.41,-96.66 1357.13,-100.88 1357.64,-93.9"/>
</g>
<!-- reconfiguration::reconfigure -->
<g id="node7" class="node">
<title>reconfiguration::reconfigure</title>
<ellipse fill="none" stroke="black" cx="490" cy="-245" rx="51.19" ry="18"/>
<text text-anchor="middle" x="490" y="-241.3" font-family="Times,serif" font-size="14.00">reconfigure</text>
</g>
<!-- reconfiguration::reconfigure&#45;&gt;stake::on_new_epoch -->
<g id="edge6" class="edge">
<title>reconfiguration::reconfigure&#45;&gt;stake::on_new_epoch</title>
<path fill="none" stroke="black" d="M537.25,-237.61C642.94,-223.32 898.72,-188.73 1021.3,-172.15"/>
<polygon fill="black" stroke="black" points="1021.44,-175.67 1030.88,-170.86 1020.5,-168.73 1021.44,-175.67"/>
</g>
<!-- genesis::create_initialize_validators_with_commission -->
<g id="node8" class="node">
<title>genesis::create_initialize_validators_with_commission</title>
<ellipse fill="none" stroke="black" cx="1089" cy="-245" rx="173.57" ry="18"/>
<text text-anchor="middle" x="1089" y="-241.3" font-family="Times,serif" font-size="14.00">create_initialize_validators_with_commission</text>
</g>
<!-- genesis::create_initialize_validators_with_commission&#45;&gt;stake::on_new_epoch -->
<g id="edge7" class="edge">
<title>genesis::create_initialize_validators_with_commission&#45;&gt;stake::on_new_epoch</title>
<path fill="none" stroke="black" d="M1089,-226.82C1089,-216.69 1089,-203.6 1089,-191.92"/>
<polygon fill="black" stroke="black" points="1092.5,-191.95 1089,-181.95 1085.5,-191.95 1092.5,-191.95"/>
</g>
<!-- staking_contract::distribute -->
<g id="node9" class="node">
<title>staking_contract::distribute</title>
<ellipse fill="none" stroke="black" cx="2227" cy="-245" rx="44.39" ry="18"/>
<text text-anchor="middle" x="2227" y="-241.3" font-family="Times,serif" font-size="14.00">distribute</text>
</g>
<!-- staking_contract::distribute&#45;&gt;staking_contract::distribute_internal -->
<g id="edge8" class="edge">
<title>staking_contract::distribute&#45;&gt;staking_contract::distribute_internal</title>
<path fill="none" stroke="black" d="M2227,-226.82C2227,-216.69 2227,-203.6 2227,-191.92"/>
<polygon fill="black" stroke="black" points="2230.5,-191.95 2227,-181.95 2223.5,-191.95 2230.5,-191.95"/>
</g>
<!-- staking_contract::request_commission -->
<g id="node10" class="node">
<title>staking_contract::request_commission</title>
<ellipse fill="none" stroke="black" cx="2081" cy="-245" rx="83.69" ry="18"/>
<text text-anchor="middle" x="2081" y="-241.3" font-family="Times,serif" font-size="14.00">request_commission</text>
</g>
<!-- staking_contract::request_commission&#45;&gt;staking_contract::distribute_internal -->
<g id="edge9" class="edge">
<title>staking_contract::request_commission&#45;&gt;staking_contract::distribute_internal</title>
<path fill="none" stroke="black" d="M2110.19,-227.8C2132.62,-215.36 2163.8,-198.06 2188.31,-184.47"/>
<polygon fill="black" stroke="black" points="2189.98,-187.54 2197.03,-179.63 2186.59,-181.42 2189.98,-187.54"/>
</g>
<!-- staking_contract::switch_operator -->
<g id="node11" class="node">
<title>staking_contract::switch_operator</title>
<ellipse fill="none" stroke="black" cx="2489" cy="-245" rx="67.69" ry="18"/>
<text text-anchor="middle" x="2489" y="-241.3" font-family="Times,serif" font-size="14.00">switch_operator</text>
</g>
<!-- staking_contract::switch_operator&#45;&gt;staking_contract::distribute_internal -->
<g id="edge10" class="edge">
<title>staking_contract::switch_operator&#45;&gt;staking_contract::distribute_internal</title>
<path fill="none" stroke="black" d="M2447.49,-230.35C2436.01,-226.63 2423.53,-222.62 2412,-219 2369.2,-205.58 2320.66,-190.9 2284.04,-179.94"/>
<polygon fill="black" stroke="black" points="2285.11,-176.61 2274.53,-177.1 2283.1,-183.32 2285.11,-176.61"/>
</g>
<!-- staking_contract::unlock_stake -->
<g id="node12" class="node">
<title>staking_contract::unlock_stake</title>
<ellipse fill="none" stroke="black" cx="2346" cy="-245" rx="57.39" ry="18"/>
<text text-anchor="middle" x="2346" y="-241.3" font-family="Times,serif" font-size="14.00">unlock_stake</text>
</g>
<!-- staking_contract::unlock_stake&#45;&gt;staking_contract::distribute_internal -->
<g id="edge11" class="edge">
<title>staking_contract::unlock_stake&#45;&gt;staking_contract::distribute_internal</title>
<path fill="none" stroke="black" d="M2322.77,-228.19C2304.99,-216.08 2280.21,-199.22 2260.31,-185.67"/>
<polygon fill="black" stroke="black" points="2262.47,-182.91 2252.24,-180.18 2258.53,-188.7 2262.47,-182.91"/>
</g>
<!-- aptos_governance::reconfigure -->
<g id="node13" class="node">
<title>aptos_governance::reconfigure</title>
<ellipse fill="none" stroke="black" cx="67" cy="-328" rx="51.19" ry="18"/>
<text text-anchor="middle" x="67" y="-324.3" font-family="Times,serif" font-size="14.00">reconfigure</text>
</g>
<!-- aptos_governance::reconfigure&#45;&gt;reconfiguration::reconfigure -->
<g id="edge12" class="edge">
<title>aptos_governance::reconfigure&#45;&gt;reconfiguration::reconfigure</title>
<path fill="none" stroke="black" d="M97.61,-313.26C107.76,-309.14 119.21,-304.94 130,-302 233.26,-273.86 357.28,-258.46 429.51,-251.24"/>
<polygon fill="black" stroke="black" points="429.53,-254.76 439.15,-250.3 428.85,-247.79 429.53,-254.76"/>
</g>
<!-- block::block_prologue -->
<g id="node14" class="node">
<title>block::block_prologue</title>
<ellipse fill="none" stroke="black" cx="208" cy="-328" rx="65.79" ry="18"/>
<text text-anchor="middle" x="208" y="-324.3" font-family="Times,serif" font-size="14.00">block_prologue</text>
</g>
<!-- block::block_prologue&#45;&gt;reconfiguration::reconfigure -->
<g id="edge13" class="edge">
<title>block::block_prologue&#45;&gt;reconfiguration::reconfigure</title>
<path fill="none" stroke="black" d="M248.79,-313.57C260.75,-309.73 273.87,-305.61 286,-302 337.92,-286.56 397.72,-270.33 439.09,-259.33"/>
<polygon fill="black" stroke="black" points="439.75,-262.78 448.52,-256.84 437.96,-256.01 439.75,-262.78"/>
</g>
<!-- consensus_config::set -->
<g id="node15" class="node">
<title>consensus_config::set</title>
<ellipse fill="none" stroke="black" cx="368" cy="-328" rx="27" ry="18"/>
<text text-anchor="middle" x="368" y="-324.3" font-family="Times,serif" font-size="14.00">set</text>
</g>
<!-- consensus_config::set&#45;&gt;reconfiguration::reconfigure -->
<g id="edge14" class="edge">
<title>consensus_config::set&#45;&gt;reconfiguration::reconfigure</title>
<path fill="none" stroke="black" d="M386.8,-314.52C405.54,-302.07 434.72,-282.7 457.28,-267.72"/>
<polygon fill="black" stroke="black" points="459.15,-270.69 465.54,-262.24 455.27,-264.85 459.15,-270.69"/>
</g>
<!-- gas_schedule::set_gas_schedule -->
<g id="node16" class="node">
<title>gas_schedule::set_gas_schedule</title>
<ellipse fill="none" stroke="black" cx="490" cy="-328" rx="71.49" ry="18"/>
<text text-anchor="middle" x="490" y="-324.3" font-family="Times,serif" font-size="14.00">set_gas_schedule</text>
</g>
<!-- gas_schedule::set_gas_schedule&#45;&gt;reconfiguration::reconfigure -->
<g id="edge15" class="edge">
<title>gas_schedule::set_gas_schedule&#45;&gt;reconfiguration::reconfigure</title>
<path fill="none" stroke="black" d="M490,-309.82C490,-299.69 490,-286.6 490,-274.92"/>
<polygon fill="black" stroke="black" points="493.5,-274.95 490,-264.95 486.5,-274.95 493.5,-274.95"/>
</g>
<!-- gas_schedule::set_storage_gas_config -->
<g id="node17" class="node">
<title>gas_schedule::set_storage_gas_config</title>
<ellipse fill="none" stroke="black" cx="672" cy="-328" rx="92.88" ry="18"/>
<text text-anchor="middle" x="672" y="-324.3" font-family="Times,serif" font-size="14.00">set_storage_gas_config</text>
</g>
<!-- gas_schedule::set_storage_gas_config&#45;&gt;reconfiguration::reconfigure -->
<g id="edge16" class="edge">
<title>gas_schedule::set_storage_gas_config&#45;&gt;reconfiguration::reconfigure</title>
<path fill="none" stroke="black" d="M636.04,-311C605.79,-297.53 562.55,-278.29 530.97,-264.23"/>
<polygon fill="black" stroke="black" points="532.68,-261.17 522.12,-260.3 529.84,-267.56 532.68,-261.17"/>
</g>
<!-- version::set_version -->
<g id="node18" class="node">
<title>version::set_version</title>
<ellipse fill="none" stroke="black" cx="840" cy="-328" rx="50.89" ry="18"/>
<text text-anchor="middle" x="840" y="-324.3" font-family="Times,serif" font-size="14.00">set_version</text>
</g>
<!-- version::set_version&#45;&gt;reconfiguration::reconfigure -->
<g id="edge17" class="edge">
<title>version::set_version&#45;&gt;reconfiguration::reconfigure</title>
<path fill="none" stroke="black" d="M809,-313.38C798.93,-309.31 787.61,-305.11 777,-302 699.25,-279.2 606.88,-263.06 548.36,-254.14"/>
<polygon fill="black" stroke="black" points="549.02,-250.7 538.61,-252.68 547.98,-257.63 549.02,-250.7"/>
</g>
<!-- genesis::create_initialize_validators -->
<g id="node19" class="node">
<title>genesis::create_initialize_validators</title>
<ellipse fill="none" stroke="black" cx="1089" cy="-328" rx="105.88" ry="18"/>
<text text-anchor="middle" x="1089" y="-324.3" font-family="Times,serif" font-size="14.00">create_initialize_validators</text>
</g>
<!-- genesis::create_initialize_validators&#45;&gt;genesis::create_initialize_validators_with_commission -->
<g id="edge18" class="edge">
<title>genesis::create_initialize_validators&#45;&gt;genesis::create_initialize_validators_with_commission</title>
<path fill="none" stroke="black" d="M1089,-309.82C1089,-299.69 1089,-286.6 1089,-274.92"/>
<polygon fill="black" stroke="black" points="1092.5,-274.95 1089,-264.95 1085.5,-274.95 1092.5,-274.95"/>
</g>
<!-- vesting::withdraw_stake -->
<g id="node20" class="node">
<title>vesting::withdraw_stake</title>
<ellipse fill="none" stroke="black" cx="1464" cy="-328" rx="66.09" ry="18"/>
<text text-anchor="middle" x="1464" y="-324.3" font-family="Times,serif" font-size="14.00">withdraw_stake</text>
</g>
<!-- vesting::withdraw_stake&#45;&gt;staking_contract::distribute -->
<g id="edge19" class="edge">
<title>vesting::withdraw_stake&#45;&gt;staking_contract::distribute</title>
<path fill="none" stroke="black" d="M1524.21,-320.29C1580.06,-314.36 1665.54,-306.05 1740,-302 1764.08,-300.69 2151.58,-302.88 2174,-294 2186.24,-289.15 2197.44,-280.08 2206.36,-271.11"/>
<polygon fill="black" stroke="black" points="2208.9,-273.51 2213.14,-263.8 2203.77,-268.75 2208.9,-273.51"/>
</g>
<!-- staking_contract::switch_operator_with_same_commission -->
<g id="node21" class="node">
<title>staking_contract::switch_operator_with_same_commission</title>
<ellipse fill="none" stroke="black" cx="2307" cy="-328" rx="157.87" ry="18"/>
<text text-anchor="middle" x="2307" y="-324.3" font-family="Times,serif" font-size="14.00">switch_operator_with_same_commission</text>
</g>
<!-- staking_contract::switch_operator_with_same_commission&#45;&gt;staking_contract::switch_operator -->
<g id="edge20" class="edge">
<title>staking_contract::switch_operator_with_same_commission&#45;&gt;staking_contract::switch_operator</title>
<path fill="none" stroke="black" d="M2367.13,-310.97C2382.07,-306.21 2397.85,-300.51 2412,-294 2427.43,-286.9 2443.53,-277.27 2456.98,-268.49"/>
<polygon fill="black" stroke="black" points="2458.63,-271.6 2465.01,-263.14 2454.75,-265.78 2458.63,-271.6"/>
</g>
<!-- vesting::update_operator -->
<g id="node22" class="node">
<title>vesting::update_operator</title>
<ellipse fill="none" stroke="black" cx="1905" cy="-403" rx="67.69" ry="18"/>
<text text-anchor="middle" x="1905" y="-399.3" font-family="Times,serif" font-size="14.00">update_operator</text>
</g>
<!-- vesting::update_operator&#45;&gt;staking_contract::switch_operator -->
<g id="edge21" class="edge">
<title>vesting::update_operator&#45;&gt;staking_contract::switch_operator</title>
<path fill="none" stroke="black" d="M1913.34,-384.66C1925.82,-360.96 1951.81,-319.41 1988,-302 2009.23,-291.79 2389.41,-300.7 2412,-294 2429.3,-288.87 2446.54,-278.72 2460.3,-269.07"/>
<polygon fill="black" stroke="black" points="2462.01,-272.16 2468.02,-263.43 2457.88,-266.51 2462.01,-272.16"/>
</g>
<!-- staking_proxy::set_staking_contract_operator -->
<g id="node23" class="node">
<title>staking_proxy::set_staking_contract_operator</title>
<ellipse fill="none" stroke="black" cx="2467" cy="-486" rx="116.18" ry="18"/>
<text text-anchor="middle" x="2467" y="-482.3" font-family="Times,serif" font-size="14.00">set_staking_contract_operator</text>
</g>
<!-- staking_proxy::set_staking_contract_operator&#45;&gt;staking_contract::switch_operator -->
<g id="edge22" class="edge">
<title>staking_proxy::set_staking_contract_operator&#45;&gt;staking_contract::switch_operator</title>
<path fill="none" stroke="black" d="M2468.58,-467.81C2472.32,-427.17 2481.74,-324.82 2486.36,-274.64"/>
<polygon fill="black" stroke="black" points="2489.83,-275.14 2487.26,-264.86 2482.86,-274.5 2489.83,-275.14"/>
</g>
<!-- staking_contract::unlock_rewards -->
<g id="node24" class="node">
<title>staking_contract::unlock_rewards</title>
<ellipse fill="none" stroke="black" cx="2064" cy="-328" rx="66.89" ry="18"/>
<text text-anchor="middle" x="2064" y="-324.3" font-family="Times,serif" font-size="14.00">unlock_rewards</text>
</g>
<!-- staking_contract::unlock_rewards&#45;&gt;staking_contract::unlock_stake -->
<g id="edge23" class="edge">
<title>staking_contract::unlock_rewards&#45;&gt;staking_contract::unlock_stake</title>
<path fill="none" stroke="black" d="M2100.99,-312.69C2113.23,-308.54 2127.04,-304.46 2140,-302 2170.62,-296.19 2250.65,-304.48 2280,-294 2294.74,-288.74 2309.05,-279.08 2320.55,-269.8"/>
<polygon fill="black" stroke="black" points="2322.61,-272.64 2327.98,-263.51 2318.09,-267.3 2322.61,-272.64"/>
</g>
<!-- vesting::unlock_stake -->
<g id="node25" class="node">
<title>vesting::unlock_stake</title>
<ellipse fill="none" stroke="black" cx="1610" cy="-403" rx="57.39" ry="18"/>
<text text-anchor="middle" x="1610" y="-399.3" font-family="Times,serif" font-size="14.00">unlock_stake</text>
</g>
<!-- vesting::unlock_stake&#45;&gt;staking_contract::unlock_stake -->
<g id="edge24" class="edge">
<title>vesting::unlock_stake&#45;&gt;staking_contract::unlock_stake</title>
<path fill="none" stroke="black" d="M1642.47,-387.76C1697.2,-364.58 1811.87,-319.51 1914,-302 1954.09,-295.13 2241.46,-307 2280,-294 2294.94,-288.96 2309.36,-279.24 2320.89,-269.85"/>
<polygon fill="black" stroke="black" points="2323.01,-272.64 2328.32,-263.48 2318.45,-267.33 2323.01,-272.64"/>
</g>
<!-- genesis::initialize_for_verification -->
<g id="node26" class="node">
<title>genesis::initialize_for_verification</title>
<ellipse fill="none" stroke="black" cx="1089" cy="-403" rx="100.98" ry="18"/>
<text text-anchor="middle" x="1089" y="-399.3" font-family="Times,serif" font-size="14.00">initialize_for_verification</text>
</g>
<!-- genesis::initialize_for_verification&#45;&gt;genesis::create_initialize_validators -->
<g id="edge25" class="edge">
<title>genesis::initialize_for_verification&#45;&gt;genesis::create_initialize_validators</title>
<path fill="none" stroke="black" d="M1089,-384.7C1089,-376.67 1089,-366.9 1089,-357.8"/>
<polygon fill="black" stroke="black" points="1092.5,-357.94 1089,-347.94 1085.5,-357.94 1092.5,-357.94"/>
</g>
<!-- vesting::distribute -->
<g id="node27" class="node">
<title>vesting::distribute</title>
<ellipse fill="none" stroke="black" cx="1331" cy="-403" rx="44.39" ry="18"/>
<text text-anchor="middle" x="1331" y="-399.3" font-family="Times,serif" font-size="14.00">distribute</text>
</g>
<!-- vesting::distribute&#45;&gt;vesting::withdraw_stake -->
<g id="edge26" class="edge">
<title>vesting::distribute&#45;&gt;vesting::withdraw_stake</title>
<path fill="none" stroke="black" d="M1356.64,-387.92C1376.19,-377.19 1403.43,-362.24 1425.58,-350.09"/>
<polygon fill="black" stroke="black" points="1427.26,-353.16 1434.35,-345.28 1423.89,-347.02 1427.26,-353.16"/>
</g>
<!-- vesting::admin_withdraw -->
<g id="node28" class="node">
<title>vesting::admin_withdraw</title>
<ellipse fill="none" stroke="black" cx="1464" cy="-403" rx="70.69" ry="18"/>
<text text-anchor="middle" x="1464" y="-399.3" font-family="Times,serif" font-size="14.00">admin_withdraw</text>
</g>
<!-- vesting::admin_withdraw&#45;&gt;vesting::withdraw_stake -->
<g id="edge27" class="edge">
<title>vesting::admin_withdraw&#45;&gt;vesting::withdraw_stake</title>
<path fill="none" stroke="black" d="M1464,-384.7C1464,-376.67 1464,-366.9 1464,-357.8"/>
<polygon fill="black" stroke="black" points="1467.5,-357.94 1464,-347.94 1460.5,-357.94 1467.5,-357.94"/>
</g>
<!-- vesting::update_operator_with_same_commission -->
<g id="node29" class="node">
<title>vesting::update_operator_with_same_commission</title>
<ellipse fill="none" stroke="black" cx="1814" cy="-486" rx="158.67" ry="18"/>
<text text-anchor="middle" x="1814" y="-482.3" font-family="Times,serif" font-size="14.00">update_operator_with_same_commission</text>
</g>
<!-- vesting::update_operator_with_same_commission&#45;&gt;vesting::update_operator -->
<g id="edge28" class="edge">
<title>vesting::update_operator_with_same_commission&#45;&gt;vesting::update_operator</title>
<path fill="none" stroke="black" d="M1833.3,-467.82C1846.26,-456.28 1863.53,-440.92 1877.87,-428.15"/>
<polygon fill="black" stroke="black" points="1880.08,-430.87 1885.22,-421.61 1875.42,-425.64 1880.08,-430.87"/>
</g>
<!-- staking_proxy::set_vesting_contract_operator -->
<g id="node30" class="node">
<title>staking_proxy::set_vesting_contract_operator</title>
<ellipse fill="none" stroke="black" cx="2216" cy="-486" rx="116.18" ry="18"/>
<text text-anchor="middle" x="2216" y="-482.3" font-family="Times,serif" font-size="14.00">set_vesting_contract_operator</text>
</g>
<!-- staking_proxy::set_vesting_contract_operator&#45;&gt;vesting::update_operator -->
<g id="edge29" class="edge">
<title>staking_proxy::set_vesting_contract_operator&#45;&gt;vesting::update_operator</title>
<path fill="none" stroke="black" d="M2158.23,-469.95C2102.69,-455.49 2019.16,-433.73 1963.4,-419.21"/>
<polygon fill="black" stroke="black" points="1964.31,-415.83 1953.75,-416.7 1962.55,-422.61 1964.31,-415.83"/>
</g>
<!-- staking_proxy::set_operator -->
<g id="node31" class="node">
<title>staking_proxy::set_operator</title>
<ellipse fill="none" stroke="black" cx="2341" cy="-561" rx="53.89" ry="18"/>
<text text-anchor="middle" x="2341" y="-557.3" font-family="Times,serif" font-size="14.00">set_operator</text>
</g>
<!-- staking_proxy::set_operator&#45;&gt;staking_proxy::set_staking_contract_operator -->
<g id="edge30" class="edge">
<title>staking_proxy::set_operator&#45;&gt;staking_proxy::set_staking_contract_operator</title>
<path fill="none" stroke="black" d="M2367.11,-544.87C2384.66,-534.7 2408.12,-521.11 2427.89,-509.66"/>
<polygon fill="black" stroke="black" points="2429.64,-512.69 2436.53,-504.65 2426.13,-506.64 2429.64,-512.69"/>
</g>
<!-- staking_proxy::set_operator&#45;&gt;staking_proxy::set_vesting_contract_operator -->
<g id="edge35" class="edge">
<title>staking_proxy::set_operator&#45;&gt;staking_proxy::set_vesting_contract_operator</title>
<path fill="none" stroke="black" d="M2315.1,-544.87C2297.68,-534.7 2274.41,-521.11 2254.8,-509.66"/>
<polygon fill="black" stroke="black" points="2256.63,-506.68 2246.23,-504.66 2253.1,-512.72 2256.63,-506.68"/>
</g>
<!-- vesting::unlock_rewards -->
<g id="node32" class="node">
<title>vesting::unlock_rewards</title>
<ellipse fill="none" stroke="black" cx="1752" cy="-403" rx="66.89" ry="18"/>
<text text-anchor="middle" x="1752" y="-399.3" font-family="Times,serif" font-size="14.00">unlock_rewards</text>
</g>
<!-- vesting::unlock_rewards&#45;&gt;staking_contract::unlock_rewards -->
<g id="edge31" class="edge">
<title>vesting::unlock_rewards&#45;&gt;staking_contract::unlock_rewards</title>
<path fill="none" stroke="black" d="M1799.62,-390.06C1808.97,-388.08 1818.76,-386.26 1828,-385 1862.61,-380.28 1951.61,-387.27 1985,-377 2002.45,-371.63 2019.99,-361.56 2034.09,-352.02"/>
<polygon fill="black" stroke="black" points="2035.86,-355.05 2042.03,-346.44 2031.84,-349.33 2035.86,-355.05"/>
</g>
<!-- vesting::terminate_vesting_contract -->
<g id="node33" class="node">
<title>vesting::terminate_vesting_contract</title>
<ellipse fill="none" stroke="black" cx="1426" cy="-486" rx="106.68" ry="18"/>
<text text-anchor="middle" x="1426" y="-482.3" font-family="Times,serif" font-size="14.00">terminate_vesting_contract</text>
</g>
<!-- vesting::terminate_vesting_contract&#45;&gt;vesting::unlock_stake -->
<g id="edge32" class="edge">
<title>vesting::terminate_vesting_contract&#45;&gt;vesting::unlock_stake</title>
<path fill="none" stroke="black" d="M1490.91,-471.3C1508.6,-466.38 1527.44,-460.02 1544,-452 1557.45,-445.49 1571.02,-436.2 1582.33,-427.52"/>
<polygon fill="black" stroke="black" points="1584.4,-430.35 1590.06,-421.39 1580.05,-424.86 1584.4,-430.35"/>
</g>
<!-- vesting::terminate_vesting_contract&#45;&gt;vesting::distribute -->
<g id="edge34" class="edge">
<title>vesting::terminate_vesting_contract&#45;&gt;vesting::distribute</title>
<path fill="none" stroke="black" d="M1403.97,-468.16C1397.46,-463.06 1390.38,-457.38 1384,-452 1374.75,-444.19 1364.86,-435.37 1356.15,-427.44"/>
<polygon fill="black" stroke="black" points="1358.76,-425.08 1349.03,-420.9 1354.03,-430.24 1358.76,-425.08"/>
</g>
<!-- vesting::vest -->
<g id="node34" class="node">
<title>vesting::vest</title>
<ellipse fill="none" stroke="black" cx="1610" cy="-486" rx="27" ry="18"/>
<text text-anchor="middle" x="1610" y="-482.3" font-family="Times,serif" font-size="14.00">vest</text>
</g>
<!-- vesting::vest&#45;&gt;vesting::unlock_stake -->
<g id="edge33" class="edge">
<title>vesting::vest&#45;&gt;vesting::unlock_stake</title>
<path fill="none" stroke="black" d="M1610,-467.82C1610,-457.69 1610,-444.6 1610,-432.92"/>
<polygon fill="black" stroke="black" points="1613.5,-432.95 1610,-422.95 1606.5,-432.95 1613.5,-432.95"/>
</g>
<!-- vesting::vest&#45;&gt;vesting::unlock_rewards -->
<g id="edge36" class="edge">
<title>vesting::vest&#45;&gt;vesting::unlock_rewards</title>
<path fill="none" stroke="black" d="M1626.84,-471.51C1632.65,-467.35 1639.37,-463.07 1646,-460 1658.52,-454.2 1663.36,-457.53 1676,-452 1691.53,-445.21 1707.57,-435.54 1720.88,-426.66"/>
<polygon fill="black" stroke="black" points="1722.53,-429.77 1728.8,-421.23 1718.58,-424 1722.53,-429.77"/>
</g>
</g>
</svg>
