<?xml version="1.0" encoding="UTF-8" standalone="no"?>
<!DOCTYPE svg PUBLIC "-//W3C//DTD SVG 1.1//EN"
 "http://www.w3.org/Graphics/SVG/1.1/DTD/svg11.dtd">
<!-- Generated by graphviz version 7.0.0 (20221023.0053)
 -->
<!-- Title: G Pages: 1 -->
<svg width="2289pt" height="831pt"
 viewBox="0.00 0.00 2288.80 831.00" xmlns="http://www.w3.org/2000/svg" xmlns:xlink="http://www.w3.org/1999/xlink">
<g id="graph0" class="graph" transform="scale(1 1) rotate(0) translate(4 827)">
<title>G</title>
<polygon fill="white" stroke="none" points="-4,4 -4,-827 2284.8,-827 2284.8,4 -4,4"/>
<g id="clust2" class="cluster">
<title>cluster_staking_contract</title>
<polygon fill="none" stroke="black" points="1366,-291 1366,-510 2234,-510 2234,-291 1366,-291"/>
<text text-anchor="middle" x="1800" y="-494.8" font-family="Times,serif" font-size="14.00">staking_contract</text>
</g>
<g id="clust3" class="cluster">
<title>cluster_vesting</title>
<polygon fill="none" stroke="black" points="515,-435 515,-665 1358,-665 1358,-435 515,-435"/>
<text text-anchor="middle" x="936.5" y="-649.8" font-family="Times,serif" font-size="14.00">vesting</text>
</g>
<g id="clust4" class="cluster">
<title>cluster_staking_proxy</title>
<polygon fill="none" stroke="black" points="8,-590 8,-740 507,-740 507,-590 8,-590"/>
<text text-anchor="middle" x="257.5" y="-724.8" font-family="Times,serif" font-size="14.00">staking_proxy</text>
</g>
<g id="clust5" class="cluster">
<title>cluster_genesis</title>
<polygon fill="none" stroke="black" points="1712,-518 1712,-815 2168,-815 2168,-518 1712,-518"/>
<text text-anchor="middle" x="1940" y="-799.8" font-family="Times,serif" font-size="14.00">genesis</text>
</g>
<g id="clust1" class="cluster">
<title>cluster_stake</title>
<polygon fill="none" stroke="black" points="2038,-64 2038,-283 2234,-283 2234,-64 2038,-64"/>
<text text-anchor="middle" x="2136" y="-267.8" font-family="Times,serif" font-size="14.00">stake</text>
</g>
<!-- destroy_zero -->
<g id="node1" class="node">
<title>destroy_zero</title>
<ellipse fill="none" stroke="black" cx="1022" cy="-18" rx="55.79" ry="18"/>
<text text-anchor="middle" x="1022" y="-14.3" font-family="Times,serif" font-size="14.00">destroy_zero</text>
</g>
<!-- stake::add_stake_with_cap -->
<g id="node2" class="node">
<title>stake::add_stake_with_cap</title>
<ellipse fill="none" stroke="black" cx="2131" cy="-90" rx="82.59" ry="18"/>
<text text-anchor="middle" x="2131" y="-86.3" font-family="Times,serif" font-size="14.00">add_stake_with_cap</text>
</g>
<!-- stake::add_stake_with_cap&#45;&gt;destroy_zero -->
<g id="edge1" class="edge">
<title>stake::add_stake_with_cap&#45;&gt;destroy_zero</title>
<path fill="none" stroke="black" d="M2052.58,-84.05C1844.43,-70.91 1280.82,-35.34 1087.85,-23.16"/>
<polygon fill="black" stroke="black" points="1088.2,-19.67 1078,-22.53 1087.76,-26.66 1088.2,-19.67"/>
</g>
<!-- staking_contract::distribute_internal -->
<g id="node3" class="node">
<title>staking_contract::distribute_internal</title>
<ellipse fill="none" stroke="black" cx="1604" cy="-317" rx="75.29" ry="18"/>
<text text-anchor="middle" x="1604" y="-313.3" font-family="Times,serif" font-size="14.00">distribute_internal</text>
</g>
<!-- staking_contract::distribute_internal&#45;&gt;destroy_zero -->
<g id="edge2" class="edge">
<title>staking_contract::distribute_internal&#45;&gt;destroy_zero</title>
<path fill="none" stroke="black" d="M1573.12,-300.24C1474.98,-250.16 1170.31,-94.68 1061.29,-39.05"/>
<polygon fill="black" stroke="black" points="1062.91,-35.95 1052.42,-34.52 1059.73,-42.18 1062.91,-35.95"/>
</g>
<!-- vesting::distribute -->
<g id="node4" class="node">
<title>vesting::distribute</title>
<ellipse fill="none" stroke="black" cx="850" cy="-544" rx="44.39" ry="18"/>
<text text-anchor="middle" x="850" y="-540.3" font-family="Times,serif" font-size="14.00">distribute</text>
</g>
<!-- vesting::distribute&#45;&gt;destroy_zero -->
<g id="edge3" class="edge">
<title>vesting::distribute&#45;&gt;destroy_zero</title>
<path fill="none" stroke="black" d="M879.14,-530.08C923.53,-508.18 1003,-459.31 1003,-390 1003,-390 1003,-390 1003,-161 1003,-121.39 1010.35,-76.11 1015.91,-47.54"/>
<polygon fill="black" stroke="black" points="1019.31,-48.37 1017.86,-37.87 1012.45,-46.98 1019.31,-48.37"/>
</g>
<!-- vesting::withdraw_stake -->
<g id="node17" class="node">
<title>vesting::withdraw_stake</title>
<ellipse fill="none" stroke="black" cx="1217" cy="-461" rx="66.09" ry="18"/>
<text text-anchor="middle" x="1217" y="-457.3" font-family="Times,serif" font-size="14.00">withdraw_stake</text>
</g>
<!-- vesting::distribute&#45;&gt;vesting::withdraw_stake -->
<g id="edge26" class="edge">
<title>vesting::distribute&#45;&gt;vesting::withdraw_stake</title>
<path fill="none" stroke="black" d="M875.16,-528.8C883.73,-524.6 893.55,-520.47 903,-518 952.14,-505.17 966.8,-517.73 1017,-510 1066.57,-502.37 1121.96,-488.66 1161.85,-477.84"/>
<polygon fill="black" stroke="black" points="1162.76,-481.22 1171.47,-475.2 1160.91,-474.47 1162.76,-481.22"/>
</g>
<!-- vesting::admin_withdraw -->
<g id="node5" class="node">
<title>vesting::admin_withdraw</title>
<ellipse fill="none" stroke="black" cx="717" cy="-544" rx="70.69" ry="18"/>
<text text-anchor="middle" x="717" y="-540.3" font-family="Times,serif" font-size="14.00">admin_withdraw</text>
</g>
<!-- vesting::admin_withdraw&#45;&gt;destroy_zero -->
<g id="edge4" class="edge">
<title>vesting::admin_withdraw&#45;&gt;destroy_zero</title>
<path fill="none" stroke="black" d="M733.4,-526.26C757.59,-499.72 800,-445.3 800,-390 800,-390 800,-390 800,-161 800,-83.47 897.26,-46.37 963.03,-30.13"/>
<polygon fill="black" stroke="black" points="963.7,-33.57 972.63,-27.87 962.09,-26.76 963.7,-33.57"/>
</g>
<!-- vesting::admin_withdraw&#45;&gt;vesting::withdraw_stake -->
<g id="edge27" class="edge">
<title>vesting::admin_withdraw&#45;&gt;vesting::withdraw_stake</title>
<path fill="none" stroke="black" d="M757.34,-528.93C769.92,-524.93 783.93,-520.89 797,-518 916.66,-491.53 1058.44,-475.8 1142.88,-468.03"/>
<polygon fill="black" stroke="black" points="1143,-471.54 1152.65,-467.15 1142.37,-464.57 1143,-471.54"/>
</g>
<!-- stake::add_stake -->
<g id="node6" class="node">
<title>stake::add_stake</title>
<ellipse fill="none" stroke="black" cx="2133" cy="-162" rx="46.29" ry="18"/>
<text text-anchor="middle" x="2133" y="-158.3" font-family="Times,serif" font-size="14.00">add_stake</text>
</g>
<!-- stake::add_stake&#45;&gt;stake::add_stake_with_cap -->
<g id="edge5" class="edge">
<title>stake::add_stake&#45;&gt;stake::add_stake_with_cap</title>
<path fill="none" stroke="black" d="M2132.51,-143.7C2132.3,-136.41 2132.05,-127.73 2131.82,-119.54"/>
<polygon fill="black" stroke="black" points="2135.32,-119.51 2131.53,-109.62 2128.32,-119.71 2135.32,-119.51"/>
</g>
<!-- staking_contract::add_stake -->
<g id="node7" class="node">
<title>staking_contract::add_stake</title>
<ellipse fill="none" stroke="black" cx="2180" cy="-461" rx="46.29" ry="18"/>
<text text-anchor="middle" x="2180" y="-457.3" font-family="Times,serif" font-size="14.00">add_stake</text>
</g>
<!-- staking_contract::add_stake&#45;&gt;stake::add_stake_with_cap -->
<g id="edge6" class="edge">
<title>staking_contract::add_stake&#45;&gt;stake::add_stake_with_cap</title>
<path fill="none" stroke="black" d="M2201.32,-444.63C2213.01,-435.09 2226.76,-421.84 2235,-407 2254.64,-371.64 2254,-358.45 2254,-318 2254,-318 2254,-318 2254,-233 2254,-180.46 2205.29,-137.81 2169.17,-113.41"/>
<polygon fill="black" stroke="black" points="2171.39,-110.68 2161.11,-108.14 2167.56,-116.54 2171.39,-110.68"/>
</g>
<!-- staking_contract::create_staking_contract_with_coins -->
<g id="node8" class="node">
<title>staking_contract::create_staking_contract_with_coins</title>
<ellipse fill="none" stroke="black" cx="2089" cy="-389" rx="137.28" ry="18"/>
<text text-anchor="middle" x="2089" y="-385.3" font-family="Times,serif" font-size="14.00">create_staking_contract_with_coins</text>
</g>
<!-- staking_contract::create_staking_contract_with_coins&#45;&gt;stake::add_stake_with_cap -->
<g id="edge7" class="edge">
<title>staking_contract::create_staking_contract_with_coins&#45;&gt;stake::add_stake_with_cap</title>
<path fill="none" stroke="black" d="M2077.32,-370.75C2064.51,-350.68 2044.74,-316.08 2037,-283 2030.21,-254.01 2029.38,-244.79 2037,-216 2047.65,-175.79 2079.21,-138.94 2102.85,-115.83"/>
<polygon fill="black" stroke="black" points="2105.2,-118.43 2110.04,-109 2100.38,-113.35 2105.2,-118.43"/>
</g>
<!-- staking_contract::create_stake_pool -->
<g id="node23" class="node">
<title>staking_contract::create_stake_pool</title>
<ellipse fill="none" stroke="black" cx="1916" cy="-317" rx="74.19" ry="18"/>
<text text-anchor="middle" x="1916" y="-313.3" font-family="Times,serif" font-size="14.00">create_stake_pool</text>
</g>
<!-- staking_contract::create_staking_contract_with_coins&#45;&gt;staking_contract::create_stake_pool -->
<g id="edge34" class="edge">
<title>staking_contract::create_staking_contract_with_coins&#45;&gt;staking_contract::create_stake_pool</title>
<path fill="none" stroke="black" d="M2048,-371.41C2022.71,-361.18 1990.16,-348.01 1963.72,-337.31"/>
<polygon fill="black" stroke="black" points="1965.15,-334.11 1954.57,-333.61 1962.53,-340.6 1965.15,-334.11"/>
</g>
<!-- staking_contract::distribute -->
<g id="node9" class="node">
<title>staking_contract::distribute</title>
<ellipse fill="none" stroke="black" cx="1604" cy="-389" rx="44.39" ry="18"/>
<text text-anchor="middle" x="1604" y="-385.3" font-family="Times,serif" font-size="14.00">distribute</text>
</g>
<!-- staking_contract::distribute&#45;&gt;staking_contract::distribute_internal -->
<g id="edge8" class="edge">
<title>staking_contract::distribute&#45;&gt;staking_contract::distribute_internal</title>
<path fill="none" stroke="black" d="M1604,-370.7C1604,-363.41 1604,-354.73 1604,-346.54"/>
<polygon fill="black" stroke="black" points="1607.5,-346.62 1604,-336.62 1600.5,-346.62 1607.5,-346.62"/>
</g>
<!-- staking_contract::request_commission -->
<g id="node10" class="node">
<title>staking_contract::request_commission</title>
<ellipse fill="none" stroke="black" cx="1458" cy="-389" rx="83.69" ry="18"/>
<text text-anchor="middle" x="1458" y="-385.3" font-family="Times,serif" font-size="14.00">request_commission</text>
</g>
<!-- staking_contract::request_commission&#45;&gt;staking_contract::distribute_internal -->
<g id="edge9" class="edge">
<title>staking_contract::request_commission&#45;&gt;staking_contract::distribute_internal</title>
<path fill="none" stroke="black" d="M1491.13,-372.12C1511.9,-362.16 1538.89,-349.22 1561.26,-338.49"/>
<polygon fill="black" stroke="black" points="1562.64,-341.71 1570.14,-334.23 1559.61,-335.4 1562.64,-341.71"/>
</g>
<!-- staking_contract::switch_operator -->
<g id="node11" class="node">
<title>staking_contract::switch_operator</title>
<ellipse fill="none" stroke="black" cx="1734" cy="-389" rx="67.69" ry="18"/>
<text text-anchor="middle" x="1734" y="-385.3" font-family="Times,serif" font-size="14.00">switch_operator</text>
</g>
<!-- staking_contract::switch_operator&#45;&gt;staking_contract::distribute_internal -->
<g id="edge10" class="edge">
<title>staking_contract::switch_operator&#45;&gt;staking_contract::distribute_internal</title>
<path fill="none" stroke="black" d="M1704.83,-372.29C1686.72,-362.54 1663.22,-349.89 1643.47,-339.25"/>
<polygon fill="black" stroke="black" points="1645.32,-336.28 1634.86,-334.62 1642,-342.44 1645.32,-336.28"/>
</g>
<!-- staking_contract::unlock_stake -->
<g id="node12" class="node">
<title>staking_contract::unlock_stake</title>
<ellipse fill="none" stroke="black" cx="1877" cy="-389" rx="57.39" ry="18"/>
<text text-anchor="middle" x="1877" y="-385.3" font-family="Times,serif" font-size="14.00">unlock_stake</text>
</g>
<!-- staking_contract::unlock_stake&#45;&gt;staking_contract::distribute_internal -->
<g id="edge11" class="edge">
<title>staking_contract::unlock_stake&#45;&gt;staking_contract::distribute_internal</title>
<path fill="none" stroke="black" d="M1833.69,-376.83C1826.13,-374.89 1818.33,-372.88 1811,-371 1761.96,-358.41 1706.37,-344.18 1665.16,-333.63"/>
<polygon fill="black" stroke="black" points="1666.22,-330.29 1655.67,-331.21 1664.49,-337.08 1666.22,-330.29"/>
</g>
<!-- vesting::terminate_vesting_contract -->
<g id="node13" class="node">
<title>vesting::terminate_vesting_contract</title>
<ellipse fill="none" stroke="black" cx="630" cy="-616" rx="106.68" ry="18"/>
<text text-anchor="middle" x="630" y="-612.3" font-family="Times,serif" font-size="14.00">terminate_vesting_contract</text>
</g>
<!-- vesting::terminate_vesting_contract&#45;&gt;vesting::distribute -->
<g id="edge12" class="edge">
<title>vesting::terminate_vesting_contract&#45;&gt;vesting::distribute</title>
<path fill="none" stroke="black" d="M678.61,-599.62C711.93,-589.06 757.15,-574.71 797,-562 799.7,-561.14 802.47,-560.25 805.27,-559.36"/>
<polygon fill="black" stroke="black" points="806.18,-562.74 814.63,-556.36 804.04,-556.08 806.18,-562.74"/>
</g>
<!-- vesting::unlock_stake -->
<g id="node22" class="node">
<title>vesting::unlock_stake</title>
<ellipse fill="none" stroke="black" cx="1123" cy="-544" rx="57.39" ry="18"/>
<text text-anchor="middle" x="1123" y="-540.3" font-family="Times,serif" font-size="14.00">unlock_stake</text>
</g>
<!-- vesting::terminate_vesting_contract&#45;&gt;vesting::unlock_stake -->
<g id="edge32" class="edge">
<title>vesting::terminate_vesting_contract&#45;&gt;vesting::unlock_stake</title>
<path fill="none" stroke="black" d="M689.42,-600.6C707.21,-596.7 726.82,-592.78 745,-590 882.62,-568.95 919.8,-585.66 1057,-562 1061.34,-561.25 1065.81,-560.36 1070.28,-559.39"/>
<polygon fill="black" stroke="black" points="1070.9,-562.84 1079.85,-557.17 1069.32,-556.02 1070.9,-562.84"/>
</g>
<!-- stake::initialize_stake_owner -->
<g id="node14" class="node">
<title>stake::initialize_stake_owner</title>
<ellipse fill="none" stroke="black" cx="2136" cy="-234" rx="90.18" ry="18"/>
<text text-anchor="middle" x="2136" y="-230.3" font-family="Times,serif" font-size="14.00">initialize_stake_owner</text>
</g>
<!-- stake::initialize_stake_owner&#45;&gt;stake::add_stake -->
<g id="edge13" class="edge">
<title>stake::initialize_stake_owner&#45;&gt;stake::add_stake</title>
<path fill="none" stroke="black" d="M2135.26,-215.7C2134.95,-208.41 2134.57,-199.73 2134.22,-191.54"/>
<polygon fill="black" stroke="black" points="2137.72,-191.46 2133.8,-181.62 2130.73,-191.76 2137.72,-191.46"/>
</g>
<!-- staking_contract::create_staking_contract -->
<g id="node15" class="node">
<title>staking_contract::create_staking_contract</title>
<ellipse fill="none" stroke="black" cx="2022" cy="-461" rx="94.48" ry="18"/>
<text text-anchor="middle" x="2022" y="-457.3" font-family="Times,serif" font-size="14.00">create_staking_contract</text>
</g>
<!-- staking_contract::create_staking_contract&#45;&gt;staking_contract::create_staking_contract_with_coins -->
<g id="edge14" class="edge">
<title>staking_contract::create_staking_contract&#45;&gt;staking_contract::create_staking_contract_with_coins</title>
<path fill="none" stroke="black" d="M2038.22,-443.05C2046.17,-434.75 2055.9,-424.58 2064.71,-415.38"/>
<polygon fill="black" stroke="black" points="2067.03,-418.01 2071.42,-408.37 2061.98,-413.17 2067.03,-418.01"/>
</g>
<!-- vesting::create_vesting_contract -->
<g id="node16" class="node">
<title>vesting::create_vesting_contract</title>
<ellipse fill="none" stroke="black" cx="1256" cy="-616" rx="94.48" ry="18"/>
<text text-anchor="middle" x="1256" y="-612.3" font-family="Times,serif" font-size="14.00">create_vesting_contract</text>
</g>
<!-- vesting::create_vesting_contract&#45;&gt;staking_contract::create_staking_contract_with_coins -->
<g id="edge15" class="edge">
<title>vesting::create_vesting_contract&#45;&gt;staking_contract::create_staking_contract_with_coins</title>
<path fill="none" stroke="black" d="M1294.83,-599.37C1313.86,-590.4 1336.22,-577.77 1353,-562 1401.61,-516.32 1375.5,-468.82 1433,-435 1481.92,-406.22 1886.45,-411.84 1943,-407 1955.29,-405.95 1968.15,-404.69 1980.91,-403.33"/>
<polygon fill="black" stroke="black" points="1981.02,-406.84 1990.59,-402.29 1980.27,-399.88 1981.02,-406.84"/>
</g>
<!-- vesting::withdraw_stake&#45;&gt;staking_contract::distribute -->
<g id="edge16" class="edge">
<title>vesting::withdraw_stake&#45;&gt;staking_contract::distribute</title>
<path fill="none" stroke="black" d="M1262.24,-447.54C1279.58,-443.1 1299.61,-438.37 1318,-435 1420.59,-416.21 1449.1,-429.25 1551,-407 1553.99,-406.35 1557.06,-405.59 1560.13,-404.78"/>
<polygon fill="black" stroke="black" points="1561.09,-408.14 1569.73,-402.02 1559.15,-401.42 1561.09,-408.14"/>
</g>
<!-- staking_contract::switch_operator_with_same_commission -->
<g id="node18" class="node">
<title>staking_contract::switch_operator_with_same_commission</title>
<ellipse fill="none" stroke="black" cx="1600" cy="-461" rx="157.87" ry="18"/>
<text text-anchor="middle" x="1600" y="-457.3" font-family="Times,serif" font-size="14.00">switch_operator_with_same_commission</text>
</g>
<!-- staking_contract::switch_operator_with_same_commission&#45;&gt;staking_contract::switch_operator -->
<g id="edge17" class="edge">
<title>staking_contract::switch_operator_with_same_commission&#45;&gt;staking_contract::switch_operator</title>
<path fill="none" stroke="black" d="M1632.44,-443.05C1650.95,-433.38 1674.32,-421.18 1693.97,-410.91"/>
<polygon fill="black" stroke="black" points="1695.57,-414.03 1702.81,-406.29 1692.33,-407.82 1695.57,-414.03"/>
</g>
<!-- vesting::update_operator -->
<g id="node19" class="node">
<title>vesting::update_operator</title>
<ellipse fill="none" stroke="black" cx="980" cy="-544" rx="67.69" ry="18"/>
<text text-anchor="middle" x="980" y="-540.3" font-family="Times,serif" font-size="14.00">update_operator</text>
</g>
<!-- vesting::update_operator&#45;&gt;staking_contract::switch_operator -->
<g id="edge18" class="edge">
<title>vesting::update_operator&#45;&gt;staking_contract::switch_operator</title>
<path fill="none" stroke="black" d="M1017.06,-528.65C1029.56,-524.44 1043.71,-520.34 1057,-518 1082.73,-513.48 1267.52,-519.11 1292,-510 1341.76,-491.48 1335.9,-455.22 1385,-435 1497.37,-388.73 1537.02,-426.35 1657,-407 1662.52,-406.11 1668.23,-405.07 1673.95,-403.95"/>
<polygon fill="black" stroke="black" points="1674.29,-407.46 1683.39,-402.03 1672.89,-400.6 1674.29,-407.46"/>
</g>
<!-- staking_proxy::set_staking_contract_operator -->
<g id="node20" class="node">
<title>staking_proxy::set_staking_contract_operator</title>
<ellipse fill="none" stroke="black" cx="132" cy="-616" rx="116.18" ry="18"/>
<text text-anchor="middle" x="132" y="-612.3" font-family="Times,serif" font-size="14.00">set_staking_contract_operator</text>
</g>
<!-- staking_proxy::set_staking_contract_operator&#45;&gt;staking_contract::switch_operator -->
<g id="edge19" class="edge">
<title>staking_proxy::set_staking_contract_operator&#45;&gt;staking_contract::switch_operator</title>
<path fill="none" stroke="black" d="M157.68,-598.06C216.92,-560.09 368.93,-468.85 511,-435 758.81,-375.95 1404.12,-437.71 1657,-407 1662.95,-406.28 1669.11,-405.31 1675.24,-404.19"/>
<polygon fill="black" stroke="black" points="1675.56,-407.69 1684.7,-402.34 1674.22,-400.82 1675.56,-407.69"/>
</g>
<!-- staking_contract::unlock_rewards -->
<g id="node21" class="node">
<title>staking_contract::unlock_rewards</title>
<ellipse fill="none" stroke="black" cx="1843" cy="-461" rx="66.89" ry="18"/>
<text text-anchor="middle" x="1843" y="-457.3" font-family="Times,serif" font-size="14.00">unlock_rewards</text>
</g>
<!-- staking_contract::unlock_rewards&#45;&gt;staking_contract::unlock_stake -->
<g id="edge20" class="edge">
<title>staking_contract::unlock_rewards&#45;&gt;staking_contract::unlock_stake</title>
<path fill="none" stroke="black" d="M1851.4,-442.7C1855.11,-435.07 1859.56,-425.92 1863.69,-417.4"/>
<polygon fill="black" stroke="black" points="1866.81,-418.99 1868.03,-408.47 1860.51,-415.93 1866.81,-418.99"/>
</g>
<!-- vesting::unlock_stake&#45;&gt;staking_contract::unlock_stake -->
<g id="edge21" class="edge">
<title>vesting::unlock_stake&#45;&gt;staking_contract::unlock_stake</title>
<path fill="none" stroke="black" d="M1120.16,-525.66C1117.29,-501.31 1116.36,-457.45 1142,-435 1169.99,-410.49 1774.2,-412.45 1811,-407 1815.61,-406.32 1820.36,-405.44 1825.1,-404.45"/>
<polygon fill="black" stroke="black" points="1825.63,-407.92 1834.61,-402.3 1824.08,-401.1 1825.63,-407.92"/>
</g>
<!-- staking_contract::create_stake_pool&#45;&gt;stake::initialize_stake_owner -->
<g id="edge22" class="edge">
<title>staking_contract::create_stake_pool&#45;&gt;stake::initialize_stake_owner</title>
<path fill="none" stroke="black" d="M1955.59,-301.43C1991.43,-288.23 2044.49,-268.69 2083.79,-254.22"/>
<polygon fill="black" stroke="black" points="2084.89,-257.55 2093.07,-250.81 2082.48,-250.98 2084.89,-257.55"/>
</g>
<!-- genesis::create_initialize_validator -->
<g id="node24" class="node">
<title>genesis::create_initialize_validator</title>
<ellipse fill="none" stroke="black" cx="2022" cy="-544" rx="102.88" ry="18"/>
<text text-anchor="middle" x="2022" y="-540.3" font-family="Times,serif" font-size="14.00">create_initialize_validator</text>
</g>
<!-- genesis::create_initialize_validator&#45;&gt;stake::initialize_stake_owner -->
<g id="edge23" class="edge">
<title>genesis::create_initialize_validator&#45;&gt;stake::initialize_stake_owner</title>
<path fill="none" stroke="black" d="M2122.84,-539.96C2171.52,-536.14 2222.68,-527.84 2238,-510 2301.42,-436.16 2287.57,-374.76 2238,-291 2228.37,-274.73 2212.15,-262.87 2195.45,-254.38"/>
<polygon fill="black" stroke="black" points="2196.95,-251.21 2186.41,-250.15 2193.99,-257.56 2196.95,-251.21"/>
</g>
<!-- genesis::create_initialize_validator&#45;&gt;staking_contract::create_staking_contract -->
<g id="edge24" class="edge">
<title>genesis::create_initialize_validator&#45;&gt;staking_contract::create_staking_contract</title>
<path fill="none" stroke="black" d="M2022,-525.82C2022,-515.69 2022,-502.6 2022,-490.92"/>
<polygon fill="black" stroke="black" points="2025.5,-490.95 2022,-480.95 2018.5,-490.95 2025.5,-490.95"/>
</g>
<!-- genesis::create_employee_validators -->
<g id="node25" class="node">
<title>genesis::create_employee_validators</title>
<ellipse fill="none" stroke="black" cx="1830" cy="-766" rx="109.68" ry="18"/>
<text text-anchor="middle" x="1830" y="-762.3" font-family="Times,serif" font-size="14.00">create_employee_validators</text>
</g>
<!-- genesis::create_employee_validators&#45;&gt;vesting::create_vesting_contract -->
<g id="edge25" class="edge">
<title>genesis::create_employee_validators&#45;&gt;vesting::create_vesting_contract</title>
<path fill="none" stroke="black" d="M1772.86,-750.27C1665.56,-722.6 1434.55,-663.04 1321.29,-633.84"/>
<polygon fill="black" stroke="black" points="1322.4,-630.51 1311.85,-631.4 1320.66,-637.29 1322.4,-630.51"/>
</g>
<!-- vesting::update_operator_with_same_commission -->
<g id="node26" class="node">
<title>vesting::update_operator_with_same_commission</title>
<ellipse fill="none" stroke="black" cx="913" cy="-616" rx="158.67" ry="18"/>
<text text-anchor="middle" x="913" y="-612.3" font-family="Times,serif" font-size="14.00">update_operator_with_same_commission</text>
</g>
<!-- vesting::update_operator_with_same_commission&#45;&gt;vesting::update_operator -->
<g id="edge28" class="edge">
<title>vesting::update_operator_with_same_commission&#45;&gt;vesting::update_operator</title>
<path fill="none" stroke="black" d="M929.56,-597.7C937.63,-589.27 947.48,-578.97 956.33,-569.73"/>
<polygon fill="black" stroke="black" points="958.66,-572.36 963.04,-562.72 953.6,-567.52 958.66,-572.36"/>
</g>
<!-- staking_proxy::set_vesting_contract_operator -->
<g id="node27" class="node">
<title>staking_proxy::set_vesting_contract_operator</title>
<ellipse fill="none" stroke="black" cx="383" cy="-616" rx="116.18" ry="18"/>
<text text-anchor="middle" x="383" y="-612.3" font-family="Times,serif" font-size="14.00">set_vesting_contract_operator</text>
</g>
<!-- staking_proxy::set_vesting_contract_operator&#45;&gt;vesting::update_operator -->
<g id="edge29" class="edge">
<title>staking_proxy::set_vesting_contract_operator&#45;&gt;vesting::update_operator</title>
<path fill="none" stroke="black" d="M448.19,-600.68C468.25,-596.7 490.46,-592.73 511,-590 684.14,-566.99 730.15,-587.12 903,-562 908.61,-561.18 914.43,-560.19 920.23,-559.09"/>
<polygon fill="black" stroke="black" points="920.71,-562.56 929.83,-557.17 919.34,-555.7 920.71,-562.56"/>
</g>
<!-- staking_proxy::set_operator -->
<g id="node28" class="node">
<title>staking_proxy::set_operator</title>
<ellipse fill="none" stroke="black" cx="257" cy="-691" rx="53.89" ry="18"/>
<text text-anchor="middle" x="257" y="-687.3" font-family="Times,serif" font-size="14.00">set_operator</text>
</g>
<!-- staking_proxy::set_operator&#45;&gt;staking_proxy::set_staking_contract_operator -->
<g id="edge30" class="edge">
<title>staking_proxy::set_operator&#45;&gt;staking_proxy::set_staking_contract_operator</title>
<path fill="none" stroke="black" d="M231.1,-674.87C213.68,-664.7 190.41,-651.11 170.8,-639.66"/>
<polygon fill="black" stroke="black" points="172.63,-636.68 162.23,-634.66 169.1,-642.72 172.63,-636.68"/>
</g>
<!-- staking_proxy::set_operator&#45;&gt;staking_proxy::set_vesting_contract_operator -->
<g id="edge36" class="edge">
<title>staking_proxy::set_operator&#45;&gt;staking_proxy::set_vesting_contract_operator</title>
<path fill="none" stroke="black" d="M283.11,-674.87C300.66,-664.7 324.12,-651.11 343.89,-639.66"/>
<polygon fill="black" stroke="black" points="345.64,-642.69 352.53,-634.65 342.13,-636.64 345.64,-642.69"/>
</g>
<!-- vesting::unlock_rewards -->
<g id="node29" class="node">
<title>vesting::unlock_rewards</title>
<ellipse fill="none" stroke="black" cx="1277" cy="-544" rx="66.89" ry="18"/>
<text text-anchor="middle" x="1277" y="-540.3" font-family="Times,serif" font-size="14.00">unlock_rewards</text>
</g>
<!-- vesting::unlock_rewards&#45;&gt;staking_contract::unlock_rewards -->
<g id="edge31" class="edge">
<title>vesting::unlock_rewards&#45;&gt;staking_contract::unlock_rewards</title>
<path fill="none" stroke="black" d="M1341.86,-539.48C1470.46,-532.38 1747.14,-516.48 1767,-510 1783.71,-504.55 1800.44,-494.6 1813.92,-485.17"/>
<polygon fill="black" stroke="black" points="1815.88,-488.07 1821.9,-479.35 1811.76,-482.41 1815.88,-488.07"/>
</g>
<!-- vesting::vest -->
<g id="node30" class="node">
<title>vesting::vest</title>
<ellipse fill="none" stroke="black" cx="1117" cy="-616" rx="27" ry="18"/>
<text text-anchor="middle" x="1117" y="-612.3" font-family="Times,serif" font-size="14.00">vest</text>
</g>
<!-- vesting::vest&#45;&gt;vesting::unlock_stake -->
<g id="edge33" class="edge">
<title>vesting::vest&#45;&gt;vesting::unlock_stake</title>
<path fill="none" stroke="black" d="M1118.48,-597.7C1119.11,-590.41 1119.85,-581.73 1120.55,-573.54"/>
<polygon fill="black" stroke="black" points="1124.04,-573.87 1121.4,-563.61 1117.06,-573.28 1124.04,-573.87"/>
</g>
<!-- vesting::vest&#45;&gt;vesting::unlock_rewards -->
<g id="edge37" class="edge">
<title>vesting::vest&#45;&gt;vesting::unlock_rewards</title>
<path fill="none" stroke="black" d="M1134.01,-601.84C1139.83,-597.71 1146.51,-593.36 1153,-590 1174.75,-578.74 1199.96,-569.04 1221.96,-561.56"/>
<polygon fill="black" stroke="black" points="1222.97,-564.91 1231.36,-558.43 1220.76,-558.26 1222.97,-564.91"/>
</g>
<!-- genesis::create_initialize_validators_with_commission -->
<g id="node31" class="node">
<title>genesis::create_initialize_validators_with_commission</title>
<ellipse fill="none" stroke="black" cx="1986" cy="-616" rx="173.57" ry="18"/>
<text text-anchor="middle" x="1986" y="-612.3" font-family="Times,serif" font-size="14.00">create_initialize_validators_with_commission</text>
</g>
<!-- genesis::create_initialize_validators_with_commission&#45;&gt;genesis::create_initialize_validator -->
<g id="edge35" class="edge">
<title>genesis::create_initialize_validators_with_commission&#45;&gt;genesis::create_initialize_validator</title>
<path fill="none" stroke="black" d="M1994.9,-597.7C1998.87,-589.98 2003.63,-580.71 2008.06,-572.11"/>
<polygon fill="black" stroke="black" points="2011.05,-573.94 2012.51,-563.45 2004.83,-570.74 2011.05,-573.94"/>
</g>
<!-- genesis::create_initialize_validators -->
<g id="node32" class="node">
<title>genesis::create_initialize_validators</title>
<ellipse fill="none" stroke="black" cx="2020" cy="-691" rx="105.88" ry="18"/>
<text text-anchor="middle" x="2020" y="-687.3" font-family="Times,serif" font-size="14.00">create_initialize_validators</text>
</g>
<!-- genesis::create_initialize_validators&#45;&gt;genesis::create_initialize_validators_with_commission -->
<g id="edge38" class="edge">
<title>genesis::create_initialize_validators&#45;&gt;genesis::create_initialize_validators_with_commission</title>
<path fill="none" stroke="black" d="M2011.94,-672.7C2008.03,-664.31 2003.24,-654.02 1998.85,-644.58"/>
<polygon fill="black" stroke="black" points="2002.15,-643.39 1994.76,-635.8 1995.81,-646.34 2002.15,-643.39"/>
</g>
<!-- genesis::initialize_for_verification -->
<g id="node33" class="node">
<title>genesis::initialize_for_verification</title>
<ellipse fill="none" stroke="black" cx="2059" cy="-766" rx="100.98" ry="18"/>
<text text-anchor="middle" x="2059" y="-762.3" font-family="Times,serif" font-size="14.00">initialize_for_verification</text>
</g>
<!-- genesis::initialize_for_verification&#45;&gt;genesis::create_initialize_validators -->
<g id="edge39" class="edge">
<title>genesis::initialize_for_verification&#45;&gt;genesis::create_initialize_validators</title>
<path fill="none" stroke="black" d="M2049.76,-747.7C2045.27,-739.31 2039.78,-729.02 2034.73,-719.58"/>
<polygon fill="black" stroke="black" points="2037.82,-717.93 2030.02,-710.76 2031.65,-721.23 2037.82,-717.93"/>
</g>
</g>
</svg>
