<?xml version="1.0" encoding="UTF-8" standalone="no"?>
<!DOCTYPE svg PUBLIC "-//W3C//DTD SVG 1.1//EN"
 "http://www.w3.org/Graphics/SVG/1.1/DTD/svg11.dtd">
<!-- Generated by graphviz version 7.0.0 (20221023.0053)
 -->
<!-- Title: G Pages: 1 -->
<svg width="1081pt" height="365pt"
 viewBox="0.00 0.00 1081.09 365.00" xmlns="http://www.w3.org/2000/svg" xmlns:xlink="http://www.w3.org/1999/xlink">
<g id="graph0" class="graph" transform="scale(1 1) rotate(0) translate(4 361)">
<title>G</title>
<polygon fill="white" stroke="none" points="-4,4 -4,-361 1077.09,-361 1077.09,4 -4,4"/>
<g id="clust1" class="cluster">
<title>cluster_signer</title>
<polygon fill="none" stroke="black" points="686,-8 686,-155 836,-155 836,-8 686,-8"/>
<text text-anchor="middle" x="761" y="-139.8" font-family="Times,serif" font-size="14.00">signer</text>
</g>
<g id="clust2" class="cluster">
<title>cluster_error</title>
<polygon fill="none" stroke="black" points="8,-163 8,-313 146,-313 146,-163 8,-163"/>
<text text-anchor="middle" x="77" y="-297.8" font-family="Times,serif" font-size="14.00">error</text>
</g>
<g id="clust3" class="cluster">
<title>cluster_account</title>
<polygon fill="none" stroke="black" points="450,-163 450,-313 751,-313 751,-163 450,-163"/>
<text text-anchor="middle" x="600.5" y="-297.8" font-family="Times,serif" font-size="14.00">account</text>
</g>
<g id="clust4" class="cluster">
<title>cluster_event</title>
<polygon fill="none" stroke="black" points="154,-80 154,-238 442,-238 442,-80 154,-80"/>
<text text-anchor="middle" x="298" y="-222.8" font-family="Times,serif" font-size="14.00">event</text>
</g>
<g id="clust5" class="cluster">
<title>cluster_type_info</title>
<polygon fill="none" stroke="black" points="759,-163 759,-238 851,-238 851,-163 759,-163"/>
<text text-anchor="middle" x="805" y="-222.8" font-family="Times,serif" font-size="14.00">type_info</text>
</g>
<g id="clust6" class="cluster">
<title>cluster_guid</title>
<polygon fill="none" stroke="black" points="583,-80 583,-155 663,-155 663,-80 583,-80"/>
<text text-anchor="middle" x="623" y="-139.8" font-family="Times,serif" font-size="14.00">guid</text>
</g>
<g id="clust7" class="cluster">
<title>cluster_bcs</title>
<polygon fill="none" stroke="black" points="450,-80 450,-155 546,-155 546,-80 450,-80"/>
<text text-anchor="middle" x="498" y="-139.8" font-family="Times,serif" font-size="14.00">bcs</text>
</g>
<!-- register -->
<g id="node1" class="node">
<title>register</title>
<ellipse fill="none" stroke="black" cx="686" cy="-339" rx="37.09" ry="18"/>
<text text-anchor="middle" x="686" y="-335.3" font-family="Times,serif" font-size="14.00">register</text>
</g>
<!-- signer::address_of -->
<g id="node2" class="node">
<title>signer::address_of</title>
<ellipse fill="none" stroke="black" cx="761" cy="-106" rx="48.99" ry="18"/>
<text text-anchor="middle" x="761" y="-102.3" font-family="Times,serif" font-size="14.00">address_of</text>
</g>
<!-- register&#45;&gt;signer::address_of -->
<g id="edge1" class="edge">
<title>register&#45;&gt;signer::address_of</title>
<path fill="none" stroke="black" d="M718.74,-330.12C759.93,-318.19 828.47,-291.06 855,-238 869.91,-208.19 871.47,-191.98 855,-163 844.6,-144.69 825.57,-131.74 807.35,-122.93"/>
<polygon fill="black" stroke="black" points="809.02,-119.85 798.46,-118.96 806.16,-126.24 809.02,-119.85"/>
</g>
<!-- error::already_exists -->
<g id="node3" class="node">
<title>error::already_exists</title>
<ellipse fill="none" stroke="black" cx="77" cy="-264" rx="61.19" ry="18"/>
<text text-anchor="middle" x="77" y="-260.3" font-family="Times,serif" font-size="14.00">already_exists</text>
</g>
<!-- register&#45;&gt;error::already_exists -->
<g id="edge2" class="edge">
<title>register&#45;&gt;error::already_exists</title>
<path fill="none" stroke="black" d="M649.78,-334.52C602.77,-329.93 518.19,-321.45 446,-313 339.65,-300.55 216.34,-284.1 142.6,-274.05"/>
<polygon fill="black" stroke="black" points="143.53,-270.64 133.15,-272.76 142.58,-277.58 143.53,-270.64"/>
</g>
<!-- account::new_event_handle -->
<g id="node4" class="node">
<title>account::new_event_handle</title>
<ellipse fill="none" stroke="black" cx="535" cy="-264" rx="76.89" ry="18"/>
<text text-anchor="middle" x="535" y="-260.3" font-family="Times,serif" font-size="14.00">new_event_handle</text>
</g>
<!-- register&#45;&gt;account::new_event_handle -->
<g id="edge3" class="edge">
<title>register&#45;&gt;account::new_event_handle</title>
<path fill="none" stroke="black" d="M656.36,-327.86C644.85,-323.64 631.65,-318.46 620,-313 603.54,-305.29 585.95,-295.62 571.07,-286.98"/>
<polygon fill="black" stroke="black" points="572.95,-284.02 562.55,-281.96 569.4,-290.05 572.95,-284.02"/>
</g>
<!-- account::register_coin -->
<g id="node5" class="node">
<title>account::register_coin</title>
<ellipse fill="none" stroke="black" cx="686" cy="-264" rx="56.59" ry="18"/>
<text text-anchor="middle" x="686" y="-260.3" font-family="Times,serif" font-size="14.00">register_coin</text>
</g>
<!-- register&#45;&gt;account::register_coin -->
<g id="edge4" class="edge">
<title>register&#45;&gt;account::register_coin</title>
<path fill="none" stroke="black" d="M686,-320.7C686,-312.67 686,-302.9 686,-293.8"/>
<polygon fill="black" stroke="black" points="689.5,-293.94 686,-283.94 682.5,-293.94 689.5,-293.94"/>
</g>
<!-- is_account_registered -->
<g id="node6" class="node">
<title>is_account_registered</title>
<ellipse fill="none" stroke="black" cx="986" cy="-264" rx="87.18" ry="18"/>
<text text-anchor="middle" x="986" y="-260.3" font-family="Times,serif" font-size="14.00">is_account_registered</text>
</g>
<!-- register&#45;&gt;is_account_registered -->
<g id="edge5" class="edge">
<title>register&#45;&gt;is_account_registered</title>
<path fill="none" stroke="black" d="M723.02,-336.86C763.53,-334.81 830.02,-329.07 885,-313 906.6,-306.69 929.34,-296.25 947.77,-286.72"/>
<polygon fill="black" stroke="black" points="949.26,-289.89 956.46,-282.11 945.99,-283.7 949.26,-289.89"/>
</g>
<!-- signer::borrow_address -->
<g id="node7" class="node">
<title>signer::borrow_address</title>
<ellipse fill="none" stroke="black" cx="761" cy="-34" rx="66.89" ry="18"/>
<text text-anchor="middle" x="761" y="-30.3" font-family="Times,serif" font-size="14.00">borrow_address</text>
</g>
<!-- signer::address_of&#45;&gt;signer::borrow_address -->
<g id="edge6" class="edge">
<title>signer::address_of&#45;&gt;signer::borrow_address</title>
<path fill="none" stroke="black" d="M761,-87.7C761,-80.41 761,-71.73 761,-63.54"/>
<polygon fill="black" stroke="black" points="764.5,-63.62 761,-53.62 757.5,-63.62 764.5,-63.62"/>
</g>
<!-- error::canonical -->
<g id="node8" class="node">
<title>error::canonical</title>
<ellipse fill="none" stroke="black" cx="77" cy="-189" rx="44.39" ry="18"/>
<text text-anchor="middle" x="77" y="-185.3" font-family="Times,serif" font-size="14.00">canonical</text>
</g>
<!-- error::already_exists&#45;&gt;error::canonical -->
<g id="edge7" class="edge">
<title>error::already_exists&#45;&gt;error::canonical</title>
<path fill="none" stroke="black" d="M77,-245.7C77,-237.67 77,-227.9 77,-218.8"/>
<polygon fill="black" stroke="black" points="80.5,-218.94 77,-208.94 73.5,-218.94 80.5,-218.94"/>
</g>
<!-- event::new_event_handle -->
<g id="node9" class="node">
<title>event::new_event_handle</title>
<ellipse fill="none" stroke="black" cx="239" cy="-189" rx="76.89" ry="18"/>
<text text-anchor="middle" x="239" y="-185.3" font-family="Times,serif" font-size="14.00">new_event_handle</text>
</g>
<!-- account::new_event_handle&#45;&gt;event::new_event_handle -->
<g id="edge8" class="edge">
<title>account::new_event_handle&#45;&gt;event::new_event_handle</title>
<path fill="none" stroke="black" d="M458.63,-261.05C418.11,-258.25 367.96,-251.94 325,-238 306.59,-232.03 287.64,-221.95 272.24,-212.57"/>
<polygon fill="black" stroke="black" points="274.28,-209.71 263.95,-207.36 270.55,-215.64 274.28,-209.71"/>
</g>
<!-- account::create_guid -->
<g id="node10" class="node">
<title>account::create_guid</title>
<ellipse fill="none" stroke="black" cx="623" cy="-189" rx="51.99" ry="18"/>
<text text-anchor="middle" x="623" y="-185.3" font-family="Times,serif" font-size="14.00">create_guid</text>
</g>
<!-- account::new_event_handle&#45;&gt;account::create_guid -->
<g id="edge9" class="edge">
<title>account::new_event_handle&#45;&gt;account::create_guid</title>
<path fill="none" stroke="black" d="M554.97,-246.44C566.83,-236.59 582.06,-223.96 595.11,-213.14"/>
<polygon fill="black" stroke="black" points="597.09,-216.04 602.55,-206.96 592.62,-210.65 597.09,-216.04"/>
</g>
<!-- type_info::type_of -->
<g id="node11" class="node">
<title>type_info::type_of</title>
<ellipse fill="none" stroke="black" cx="805" cy="-189" rx="37.89" ry="18"/>
<text text-anchor="middle" x="805" y="-185.3" font-family="Times,serif" font-size="14.00">type_of</text>
</g>
<!-- account::register_coin&#45;&gt;type_info::type_of -->
<g id="edge10" class="edge">
<title>account::register_coin&#45;&gt;type_info::type_of</title>
<path fill="none" stroke="black" d="M727.08,-251.3C736.61,-247.73 746.45,-243.32 755,-238 765.42,-231.52 775.48,-222.58 783.8,-214.18"/>
<polygon fill="black" stroke="black" points="786.12,-216.82 790.46,-207.15 781.04,-212 786.12,-216.82"/>
</g>
<!-- event::emit_event -->
<g id="node12" class="node">
<title>event::emit_event</title>
<ellipse fill="none" stroke="black" cx="384" cy="-189" rx="50.09" ry="18"/>
<text text-anchor="middle" x="384" y="-185.3" font-family="Times,serif" font-size="14.00">emit_event</text>
</g>
<!-- account::register_coin&#45;&gt;event::emit_event -->
<g id="edge11" class="edge">
<title>account::register_coin&#45;&gt;event::emit_event</title>
<path fill="none" stroke="black" d="M645.71,-251.06C637.59,-249.05 629.07,-247.23 621,-246 582.51,-240.15 482.54,-251.43 446,-238 432.03,-232.86 418.67,-223.35 407.97,-214.15"/>
<polygon fill="black" stroke="black" points="410.51,-211.73 400.76,-207.6 405.81,-216.91 410.51,-211.73"/>
</g>
<!-- account::create_guid&#45;&gt;signer::address_of -->
<g id="edge12" class="edge">
<title>account::create_guid&#45;&gt;signer::address_of</title>
<path fill="none" stroke="black" d="M648.63,-172.95C670.46,-160.14 702.02,-141.62 726.14,-127.46"/>
<polygon fill="black" stroke="black" points="727.81,-130.54 734.66,-122.46 724.27,-124.5 727.81,-130.54"/>
</g>
<!-- guid::create -->
<g id="node13" class="node">
<title>guid::create</title>
<ellipse fill="none" stroke="black" cx="623" cy="-106" rx="31.7" ry="18"/>
<text text-anchor="middle" x="623" y="-102.3" font-family="Times,serif" font-size="14.00">create</text>
</g>
<!-- account::create_guid&#45;&gt;guid::create -->
<g id="edge13" class="edge">
<title>account::create_guid&#45;&gt;guid::create</title>
<path fill="none" stroke="black" d="M623,-170.82C623,-160.69 623,-147.6 623,-135.92"/>
<polygon fill="black" stroke="black" points="626.5,-135.95 623,-125.95 619.5,-135.95 626.5,-135.95"/>
</g>
<!-- bcs::to_bytes -->
<g id="node14" class="node">
<title>bcs::to_bytes</title>
<ellipse fill="none" stroke="black" cx="498" cy="-106" rx="40.09" ry="18"/>
<text text-anchor="middle" x="498" y="-102.3" font-family="Times,serif" font-size="14.00">to_bytes</text>
</g>
<!-- event::emit_event&#45;&gt;bcs::to_bytes -->
<g id="edge14" class="edge">
<title>event::emit_event&#45;&gt;bcs::to_bytes</title>
<path fill="none" stroke="black" d="M413.62,-174.2C424.19,-168.77 435.96,-162.13 446,-155 456.07,-147.85 466.25,-138.92 474.9,-130.7"/>
<polygon fill="black" stroke="black" points="477.18,-133.37 481.89,-123.88 472.29,-128.36 477.18,-133.37"/>
</g>
<!-- event::write_to_event_store -->
<g id="node15" class="node">
<title>event::write_to_event_store</title>
<ellipse fill="none" stroke="black" cx="349" cy="-106" rx="85.29" ry="18"/>
<text text-anchor="middle" x="349" y="-102.3" font-family="Times,serif" font-size="14.00">write_to_event_store</text>
</g>
<!-- event::emit_event&#45;&gt;event::write_to_event_store -->
<g id="edge15" class="edge">
<title>event::emit_event&#45;&gt;event::write_to_event_store</title>
<path fill="none" stroke="black" d="M376.58,-170.82C372.03,-160.3 366.11,-146.59 360.91,-134.57"/>
<polygon fill="black" stroke="black" points="364.19,-133.33 357.01,-125.54 357.77,-136.11 364.19,-133.33"/>
</g>
</g>
</svg>
