<?xml version="1.0" encoding="UTF-8" standalone="no"?>
<!DOCTYPE svg PUBLIC "-//W3C//DTD SVG 1.1//EN"
 "http://www.w3.org/Graphics/SVG/1.1/DTD/svg11.dtd">
<!-- Generated by graphviz version 7.0.0 (20221023.0053)
 -->
<!-- Title: G Pages: 1 -->
<svg width="1672pt" height="460pt"
 viewBox="0.00 0.00 1672.00 460.00" xmlns="http://www.w3.org/2000/svg" xmlns:xlink="http://www.w3.org/1999/xlink">
<g id="graph0" class="graph" transform="scale(1 1) rotate(0) translate(4 456)">
<title>G</title>
<polygon fill="white" stroke="none" points="-4,4 -4,-456 1668,-456 1668,4 -4,4"/>
<g id="clust1" class="cluster">
<title>cluster_aptos_coin</title>
<polygon fill="none" stroke="black" points="1082,-294 1082,-369 1318,-369 1318,-294 1082,-294"/>
<text text-anchor="middle" x="1200" y="-353.8" font-family="Times,serif" font-size="14.00">aptos_coin</text>
</g>
<g id="clust2" class="cluster">
<title>cluster_aptos_account</title>
<polygon fill="none" stroke="black" points="1114,-64 1114,-214 1258,-214 1258,-64 1114,-64"/>
<text text-anchor="middle" x="1186" y="-198.8" font-family="Times,serif" font-size="14.00">aptos_account</text>
</g>
<g id="clust3" class="cluster">
<title>cluster_vesting</title>
<polygon fill="none" stroke="black" points="806,-222 806,-369 1074,-369 1074,-222 806,-222"/>
<text text-anchor="middle" x="940" y="-353.8" font-family="Times,serif" font-size="14.00">vesting</text>
</g>
<g id="clust4" class="cluster">
<title>cluster_genesis</title>
<polygon fill="none" stroke="black" points="8,-64 8,-444 798,-444 798,-64 8,-64"/>
<text text-anchor="middle" x="403" y="-428.8" font-family="Times,serif" font-size="14.00">genesis</text>
</g>
<g id="clust5" class="cluster">
<title>cluster_managed_coin</title>
<polygon fill="none" stroke="black" points="1266,-64 1266,-139 1362,-139 1362,-64 1266,-64"/>
<text text-anchor="middle" x="1314" y="-123.8" font-family="Times,serif" font-size="14.00">managed_coin</text>
</g>
<g id="clust6" class="cluster">
<title>cluster_resource_account</title>
<polygon fill="none" stroke="black" points="1370,-64 1370,-139 1656,-139 1656,-64 1370,-64"/>
<text text-anchor="middle" x="1513" y="-123.8" font-family="Times,serif" font-size="14.00">resource_account</text>
</g>
<!-- register -->
<g id="node1" class="node">
<title>register</title>
<ellipse fill="none" stroke="black" cx="1140" cy="-18" rx="37.09" ry="18"/>
<text text-anchor="middle" x="1140" y="-14.3" font-family="Times,serif" font-size="14.00">register</text>
</g>
<!-- aptos_coin::configure_accounts_for_test -->
<g id="node2" class="node">
<title>aptos_coin::configure_accounts_for_test</title>
<ellipse fill="none" stroke="black" cx="1200" cy="-320" rx="110.48" ry="18"/>
<text text-anchor="middle" x="1200" y="-316.3" font-family="Times,serif" font-size="14.00">configure_accounts_for_test</text>
</g>
<!-- aptos_coin::configure_accounts_for_test&#45;&gt;register -->
<g id="edge1" class="edge">
<title>aptos_coin::configure_accounts_for_test&#45;&gt;register</title>
<path fill="none" stroke="black" d="M1178.37,-302.03C1156.35,-283.24 1123.58,-250.7 1110,-214 1086.87,-151.47 1090.68,-127.81 1110,-64 1112.11,-57.04 1115.68,-50.17 1119.65,-43.98"/>
<polygon fill="black" stroke="black" points="1122.28,-46.32 1125.17,-36.13 1116.56,-42.29 1122.28,-46.32"/>
</g>
<!-- aptos_account::create_account -->
<g id="node3" class="node">
<title>aptos_account::create_account</title>
<ellipse fill="none" stroke="black" cx="1186" cy="-90" rx="63.89" ry="18"/>
<text text-anchor="middle" x="1186" y="-86.3" font-family="Times,serif" font-size="14.00">create_account</text>
</g>
<!-- aptos_account::create_account&#45;&gt;register -->
<g id="edge2" class="edge">
<title>aptos_account::create_account&#45;&gt;register</title>
<path fill="none" stroke="black" d="M1174.86,-72.05C1169.48,-63.85 1162.89,-53.83 1156.9,-44.71"/>
<polygon fill="black" stroke="black" points="1159.96,-43.01 1151.55,-36.57 1154.11,-46.85 1159.96,-43.01"/>
</g>
<!-- vesting::create_vesting_contract_account -->
<g id="node4" class="node">
<title>vesting::create_vesting_contract_account</title>
<ellipse fill="none" stroke="black" cx="940" cy="-248" rx="126.18" ry="18"/>
<text text-anchor="middle" x="940" y="-244.3" font-family="Times,serif" font-size="14.00">create_vesting_contract_account</text>
</g>
<!-- vesting::create_vesting_contract_account&#45;&gt;register -->
<g id="edge3" class="edge">
<title>vesting::create_vesting_contract_account&#45;&gt;register</title>
<path fill="none" stroke="black" d="M950.96,-229.61C972.89,-195.55 1024.86,-118.61 1080,-64 1088.83,-55.25 1099.42,-46.77 1109.23,-39.57"/>
<polygon fill="black" stroke="black" points="1110.97,-42.63 1117.08,-33.97 1106.91,-36.93 1110.97,-42.63"/>
</g>
<!-- genesis::create_account -->
<g id="node5" class="node">
<title>genesis::create_account</title>
<ellipse fill="none" stroke="black" cx="551" cy="-90" rx="63.89" ry="18"/>
<text text-anchor="middle" x="551" y="-86.3" font-family="Times,serif" font-size="14.00">create_account</text>
</g>
<!-- genesis::create_account&#45;&gt;register -->
<g id="edge4" class="edge">
<title>genesis::create_account&#45;&gt;register</title>
<path fill="none" stroke="black" d="M609.09,-82.1C725.6,-68.25 985.8,-37.33 1092.73,-24.62"/>
<polygon fill="black" stroke="black" points="1093.07,-28.1 1102.59,-23.45 1092.25,-21.15 1093.07,-28.1"/>
</g>
<!-- managed_coin::register -->
<g id="node6" class="node">
<title>managed_coin::register</title>
<ellipse fill="none" stroke="black" cx="1311" cy="-90" rx="37.09" ry="18"/>
<text text-anchor="middle" x="1311" y="-86.3" font-family="Times,serif" font-size="14.00">register</text>
</g>
<!-- managed_coin::register&#45;&gt;register -->
<g id="edge5" class="edge">
<title>managed_coin::register&#45;&gt;register</title>
<path fill="none" stroke="black" d="M1286.85,-75.96C1279.01,-71.93 1270.22,-67.6 1262,-64 1235.4,-52.36 1204.73,-41.05 1180.79,-32.69"/>
<polygon fill="black" stroke="black" points="1182,-29.4 1171.4,-29.44 1179.71,-36.02 1182,-29.4"/>
</g>
<!-- resource_account::create_resource_account_and_fund -->
<g id="node7" class="node">
<title>resource_account::create_resource_account_and_fund</title>
<ellipse fill="none" stroke="black" cx="1513" cy="-90" rx="135.38" ry="18"/>
<text text-anchor="middle" x="1513" y="-86.3" font-family="Times,serif" font-size="14.00">create_resource_account_and_fund</text>
</g>
<!-- resource_account::create_resource_account_and_fund&#45;&gt;register -->
<g id="edge6" class="edge">
<title>resource_account::create_resource_account_and_fund&#45;&gt;register</title>
<path fill="none" stroke="black" d="M1437.07,-74.75C1361.47,-60.56 1247.94,-39.26 1185.38,-27.52"/>
<polygon fill="black" stroke="black" points="1186.28,-24.12 1175.81,-25.72 1184.99,-31 1186.28,-24.12"/>
</g>
<!-- genesis::initialize_core_resources_and_aptos_coin -->
<g id="node8" class="node">
<title>genesis::initialize_core_resources_and_aptos_coin</title>
<ellipse fill="none" stroke="black" cx="632" cy="-395" rx="157.87" ry="18"/>
<text text-anchor="middle" x="632" y="-391.3" font-family="Times,serif" font-size="14.00">initialize_core_resources_and_aptos_coin</text>
</g>
<!-- genesis::initialize_core_resources_and_aptos_coin&#45;&gt;aptos_coin::configure_accounts_for_test -->
<g id="edge7" class="edge">
<title>genesis::initialize_core_resources_and_aptos_coin&#45;&gt;aptos_coin::configure_accounts_for_test</title>
<path fill="none" stroke="black" d="M785.72,-390.57C892.18,-387.21 1024.07,-380.8 1078,-369 1104.78,-363.14 1133.36,-352.17 1156.12,-342.2"/>
<polygon fill="black" stroke="black" points="1157.4,-345.46 1165.09,-338.18 1154.53,-339.08 1157.4,-345.46"/>
</g>
<!-- aptos_account::transfer -->
<g id="node9" class="node">
<title>aptos_account::transfer</title>
<ellipse fill="none" stroke="black" cx="1186" cy="-165" rx="37.89" ry="18"/>
<text text-anchor="middle" x="1186" y="-161.3" font-family="Times,serif" font-size="14.00">transfer</text>
</g>
<!-- aptos_account::transfer&#45;&gt;aptos_account::create_account -->
<g id="edge8" class="edge">
<title>aptos_account::transfer&#45;&gt;aptos_account::create_account</title>
<path fill="none" stroke="black" d="M1186,-146.7C1186,-138.67 1186,-128.9 1186,-119.8"/>
<polygon fill="black" stroke="black" points="1189.5,-119.94 1186,-109.94 1182.5,-119.94 1189.5,-119.94"/>
</g>
<!-- vesting::create_vesting_contract -->
<g id="node10" class="node">
<title>vesting::create_vesting_contract</title>
<ellipse fill="none" stroke="black" cx="924" cy="-320" rx="94.48" ry="18"/>
<text text-anchor="middle" x="924" y="-316.3" font-family="Times,serif" font-size="14.00">create_vesting_contract</text>
</g>
<!-- vesting::create_vesting_contract&#45;&gt;vesting::create_vesting_contract_account -->
<g id="edge9" class="edge">
<title>vesting::create_vesting_contract&#45;&gt;vesting::create_vesting_contract_account</title>
<path fill="none" stroke="black" d="M927.96,-301.7C929.64,-294.32 931.65,-285.52 933.54,-277.25"/>
<polygon fill="black" stroke="black" points="936.94,-278.11 935.75,-267.58 930.11,-276.55 936.94,-278.11"/>
</g>
<!-- genesis::create_accounts -->
<g id="node11" class="node">
<title>genesis::create_accounts</title>
<ellipse fill="none" stroke="black" cx="551" cy="-165" rx="66.89" ry="18"/>
<text text-anchor="middle" x="551" y="-161.3" font-family="Times,serif" font-size="14.00">create_accounts</text>
</g>
<!-- genesis::create_accounts&#45;&gt;genesis::create_account -->
<g id="edge10" class="edge">
<title>genesis::create_accounts&#45;&gt;genesis::create_account</title>
<path fill="none" stroke="black" d="M551,-146.7C551,-138.67 551,-128.9 551,-119.8"/>
<polygon fill="black" stroke="black" points="554.5,-119.94 551,-109.94 547.5,-119.94 554.5,-119.94"/>
</g>
<!-- genesis::create_initialize_validator -->
<g id="node12" class="node">
<title>genesis::create_initialize_validator</title>
<ellipse fill="none" stroke="black" cx="303" cy="-165" rx="102.88" ry="18"/>
<text text-anchor="middle" x="303" y="-161.3" font-family="Times,serif" font-size="14.00">create_initialize_validator</text>
</g>
<!-- genesis::create_initialize_validator&#45;&gt;genesis::create_account -->
<g id="edge11" class="edge">
<title>genesis::create_initialize_validator&#45;&gt;genesis::create_account</title>
<path fill="none" stroke="black" d="M354.09,-148.96C395.74,-136.7 454.41,-119.43 496.87,-106.93"/>
<polygon fill="black" stroke="black" points="497.78,-110.31 506.39,-104.13 495.8,-103.6 497.78,-110.31"/>
</g>
<!-- genesis::create_employee_validators -->
<g id="node13" class="node">
<title>genesis::create_employee_validators</title>
<ellipse fill="none" stroke="black" cx="346" cy="-395" rx="109.68" ry="18"/>
<text text-anchor="middle" x="346" y="-391.3" font-family="Times,serif" font-size="14.00">create_employee_validators</text>
</g>
<!-- genesis::create_employee_validators&#45;&gt;vesting::create_vesting_contract -->
<g id="edge12" class="edge">
<title>genesis::create_employee_validators&#45;&gt;vesting::create_vesting_contract</title>
<path fill="none" stroke="black" d="M422.35,-381.73C436.49,-379.85 451.17,-378.15 465,-377 539.65,-370.8 728.57,-383.83 802,-369 829.35,-363.48 858.48,-352.24 881.42,-342.02"/>
<polygon fill="black" stroke="black" points="882.8,-345.24 890.44,-337.9 879.89,-338.87 882.8,-345.24"/>
</g>
<!-- genesis::create_initialize_validators_with_commission -->
<g id="node14" class="node">
<title>genesis::create_initialize_validators_with_commission</title>
<ellipse fill="none" stroke="black" cx="273" cy="-248" rx="173.57" ry="18"/>
<text text-anchor="middle" x="273" y="-244.3" font-family="Times,serif" font-size="14.00">create_initialize_validators_with_commission</text>
</g>
<!-- genesis::create_initialize_validators_with_commission&#45;&gt;genesis::create_initialize_validator -->
<g id="edge13" class="edge">
<title>genesis::create_initialize_validators_with_commission&#45;&gt;genesis::create_initialize_validator</title>
<path fill="none" stroke="black" d="M279.36,-229.82C283.19,-219.48 288.17,-206.05 292.56,-194.18"/>
<polygon fill="black" stroke="black" points="295.83,-195.44 296.02,-184.85 289.26,-193.01 295.83,-195.44"/>
</g>
<!-- genesis::create_initialize_validators -->
<g id="node15" class="node">
<title>genesis::create_initialize_validators</title>
<ellipse fill="none" stroke="black" cx="242" cy="-320" rx="105.88" ry="18"/>
<text text-anchor="middle" x="242" y="-316.3" font-family="Times,serif" font-size="14.00">create_initialize_validators</text>
</g>
<!-- genesis::create_initialize_validators&#45;&gt;genesis::create_initialize_validators_with_commission -->
<g id="edge14" class="edge">
<title>genesis::create_initialize_validators&#45;&gt;genesis::create_initialize_validators_with_commission</title>
<path fill="none" stroke="black" d="M249.66,-301.7C253.04,-294.07 257.09,-284.92 260.87,-276.4"/>
<polygon fill="black" stroke="black" points="263.96,-278.05 264.81,-267.49 257.56,-275.21 263.96,-278.05"/>
</g>
<!-- genesis::initialize_for_verification -->
<g id="node16" class="node">
<title>genesis::initialize_for_verification</title>
<ellipse fill="none" stroke="black" cx="117" cy="-395" rx="100.98" ry="18"/>
<text text-anchor="middle" x="117" y="-391.3" font-family="Times,serif" font-size="14.00">initialize_for_verification</text>
</g>
<!-- genesis::initialize_for_verification&#45;&gt;genesis::create_initialize_validators -->
<g id="edge15" class="edge">
<title>genesis::initialize_for_verification&#45;&gt;genesis::create_initialize_validators</title>
<path fill="none" stroke="black" d="M145.36,-377.44C162.58,-367.38 184.79,-354.41 203.57,-343.44"/>
<polygon fill="black" stroke="black" points="205.14,-346.58 212.01,-338.52 201.61,-340.54 205.14,-346.58"/>
</g>
</g>
</svg>
