<?xml version="1.0" encoding="UTF-8" standalone="no"?>
<!DOCTYPE svg PUBLIC "-//W3C//DTD SVG 1.1//EN"
 "http://www.w3.org/Graphics/SVG/1.1/DTD/svg11.dtd">
<!-- Generated by graphviz version 7.0.0 (20221023.0053)
 -->
<!-- Title: G Pages: 1 -->
<svg width="1882pt" height="698pt"
 viewBox="0.00 0.00 1882.00 698.00" xmlns="http://www.w3.org/2000/svg" xmlns:xlink="http://www.w3.org/1999/xlink">
<g id="graph0" class="graph" transform="scale(1 1) rotate(0) translate(4 694)">
<title>G</title>
<polygon fill="white" stroke="none" points="-4,4 -4,-694 1878,-694 1878,4 -4,4"/>
<g id="clust1" class="cluster">
<title>cluster_managed_coin</title>
<polygon fill="none" stroke="black" points="116,-208 116,-283 360,-283 360,-208 116,-208"/>
<text text-anchor="middle" x="238" y="-267.8" font-family="Times,serif" font-size="14.00">managed_coin</text>
</g>
<g id="clust2" class="cluster">
<title>cluster_aptos_coin</title>
<polygon fill="none" stroke="black" points="368,-208 368,-283 779,-283 779,-208 368,-208"/>
<text text-anchor="middle" x="573.5" y="-267.8" font-family="Times,serif" font-size="14.00">aptos_coin</text>
</g>
<g id="clust3" class="cluster">
<title>cluster_stake</title>
<polygon fill="none" stroke="black" points="824,-208 824,-441 994,-441 994,-208 824,-208"/>
<text text-anchor="middle" x="909" y="-425.8" font-family="Times,serif" font-size="14.00">stake</text>
</g>
<g id="clust4" class="cluster">
<title>cluster_aptos_governance</title>
<polygon fill="none" stroke="black" points="1597,-532 1597,-607 1866,-607 1866,-532 1597,-532"/>
<text text-anchor="middle" x="1731.5" y="-591.8" font-family="Times,serif" font-size="14.00">aptos_governance</text>
</g>
<g id="clust5" class="cluster">
<title>cluster_transaction_fee</title>
<polygon fill="none" stroke="black" points="8,-208 8,-283 108,-283 108,-208 8,-208"/>
<text text-anchor="middle" x="58" y="-267.8" font-family="Times,serif" font-size="14.00">transaction_fee</text>
</g>
<g id="clust6" class="cluster">
<title>cluster_genesis</title>
<polygon fill="none" stroke="black" points="264,-291 264,-682 816,-682 816,-291 264,-291"/>
<text text-anchor="middle" x="540" y="-666.8" font-family="Times,serif" font-size="14.00">genesis</text>
</g>
<g id="clust8" class="cluster">
<title>cluster_reconfiguration</title>
<polygon fill="none" stroke="black" points="1103,-449 1103,-524 1221,-524 1221,-449 1103,-449"/>
<text text-anchor="middle" x="1162" y="-508.8" font-family="Times,serif" font-size="14.00">reconfiguration</text>
</g>
<g id="clust9" class="cluster">
<title>cluster_block</title>
<polygon fill="none" stroke="black" points="950,-532 950,-607 1098,-607 1098,-532 950,-532"/>
<text text-anchor="middle" x="1024" y="-591.8" font-family="Times,serif" font-size="14.00">block</text>
</g>
<g id="clust10" class="cluster">
<title>cluster_consensus_config</title>
<polygon fill="none" stroke="black" points="1106,-532 1106,-607 1219,-607 1219,-532 1106,-532"/>
<text text-anchor="middle" x="1162.5" y="-591.8" font-family="Times,serif" font-size="14.00">consensus_config</text>
</g>
<g id="clust11" class="cluster">
<title>cluster_gas_schedule</title>
<polygon fill="none" stroke="black" points="1227,-532 1227,-607 1589,-607 1589,-532 1227,-532"/>
<text text-anchor="middle" x="1408" y="-591.8" font-family="Times,serif" font-size="14.00">gas_schedule</text>
</g>
<g id="clust12" class="cluster">
<title>cluster_version</title>
<polygon fill="none" stroke="black" points="824,-532 824,-607 942,-607 942,-532 824,-532"/>
<text text-anchor="middle" x="883" y="-591.8" font-family="Times,serif" font-size="14.00">version</text>
</g>
<g id="clust7" class="cluster">
<title>cluster_transaction_validation</title>
<polygon fill="none" stroke="black" points="9,-291 9,-366 146,-366 146,-291 9,-291"/>
<text text-anchor="middle" x="77.5" y="-350.8" font-family="Times,serif" font-size="14.00">transaction_validation</text>
</g>
<!-- coin_address -->
<g id="node1" class="node">
<title>coin_address</title>
<ellipse fill="none" stroke="black" cx="730" cy="-18" rx="56.59" ry="18"/>
<text text-anchor="middle" x="730" y="-14.3" font-family="Times,serif" font-size="14.00">coin_address</text>
</g>
<!-- burn -->
<g id="node2" class="node">
<title>burn</title>
<ellipse fill="none" stroke="black" cx="151" cy="-90" rx="27" ry="18"/>
<text text-anchor="middle" x="151" y="-86.3" font-family="Times,serif" font-size="14.00">burn</text>
</g>
<!-- burn&#45;&gt;coin_address -->
<g id="edge1" class="edge">
<title>burn&#45;&gt;coin_address</title>
<path fill="none" stroke="black" d="M177.77,-85.76C264.68,-75.26 540.65,-41.89 666.43,-26.69"/>
<polygon fill="black" stroke="black" points="666.75,-30.17 676.25,-25.5 665.91,-23.22 666.75,-30.17"/>
</g>
<!-- decimals -->
<g id="node3" class="node">
<title>decimals</title>
<ellipse fill="none" stroke="black" cx="730" cy="-90" rx="42.49" ry="18"/>
<text text-anchor="middle" x="730" y="-86.3" font-family="Times,serif" font-size="14.00">decimals</text>
</g>
<!-- decimals&#45;&gt;coin_address -->
<g id="edge2" class="edge">
<title>decimals&#45;&gt;coin_address</title>
<path fill="none" stroke="black" d="M730,-71.7C730,-64.41 730,-55.73 730,-47.54"/>
<polygon fill="black" stroke="black" points="733.5,-47.62 730,-37.62 726.5,-47.62 733.5,-47.62"/>
</g>
<!-- name -->
<g id="node4" class="node">
<title>name</title>
<ellipse fill="none" stroke="black" cx="821" cy="-90" rx="30.59" ry="18"/>
<text text-anchor="middle" x="821" y="-86.3" font-family="Times,serif" font-size="14.00">name</text>
</g>
<!-- name&#45;&gt;coin_address -->
<g id="edge3" class="edge">
<title>name&#45;&gt;coin_address</title>
<path fill="none" stroke="black" d="M803.02,-75.17C790.7,-65.69 774.06,-52.9 759.78,-41.91"/>
<polygon fill="black" stroke="black" points="762.07,-39.25 752.01,-35.93 757.8,-44.8 762.07,-39.25"/>
</g>
<!-- symbol -->
<g id="node5" class="node">
<title>symbol</title>
<ellipse fill="none" stroke="black" cx="907" cy="-90" rx="37.09" ry="18"/>
<text text-anchor="middle" x="907" y="-86.3" font-family="Times,serif" font-size="14.00">symbol</text>
</g>
<!-- symbol&#45;&gt;coin_address -->
<g id="edge4" class="edge">
<title>symbol&#45;&gt;coin_address</title>
<path fill="none" stroke="black" d="M878.95,-77.91C851.1,-66.89 807.95,-49.83 775.25,-36.9"/>
<polygon fill="black" stroke="black" points="776.59,-33.66 766.01,-33.24 774.02,-40.17 776.59,-33.66"/>
</g>
<!-- initialize_internal -->
<g id="node6" class="node">
<title>initialize_internal</title>
<ellipse fill="none" stroke="black" cx="430" cy="-90" rx="72.59" ry="18"/>
<text text-anchor="middle" x="430" y="-86.3" font-family="Times,serif" font-size="14.00">initialize_internal</text>
</g>
<!-- initialize_internal&#45;&gt;coin_address -->
<g id="edge5" class="edge">
<title>initialize_internal&#45;&gt;coin_address</title>
<path fill="none" stroke="black" d="M481.57,-76.97C535.33,-64.42 619.29,-44.83 674.47,-31.96"/>
<polygon fill="black" stroke="black" points="675.03,-35.42 683.98,-29.74 673.44,-28.6 675.03,-35.42"/>
</g>
<!-- is_coin_initialized -->
<g id="node7" class="node">
<title>is_coin_initialized</title>
<ellipse fill="none" stroke="black" cx="1037" cy="-90" rx="75.29" ry="18"/>
<text text-anchor="middle" x="1037" y="-86.3" font-family="Times,serif" font-size="14.00">is_coin_initialized</text>
</g>
<!-- is_coin_initialized&#45;&gt;coin_address -->
<g id="edge6" class="edge">
<title>is_coin_initialized&#45;&gt;coin_address</title>
<path fill="none" stroke="black" d="M983.88,-76.89C928.64,-64.29 842.54,-44.66 786.2,-31.81"/>
<polygon fill="black" stroke="black" points="787,-28.41 776.47,-29.6 785.44,-35.23 787,-28.41"/>
</g>
<!-- mint -->
<g id="node8" class="node">
<title>mint</title>
<ellipse fill="none" stroke="black" cx="616" cy="-162" rx="27.1" ry="18"/>
<text text-anchor="middle" x="616" y="-158.3" font-family="Times,serif" font-size="14.00">mint</text>
</g>
<!-- mint&#45;&gt;coin_address -->
<g id="edge7" class="edge">
<title>mint&#45;&gt;coin_address</title>
<path fill="none" stroke="black" d="M604.48,-145.21C592.23,-126.31 576.59,-94.42 592,-72 608.73,-47.65 638.33,-34.48 665.83,-27.36"/>
<polygon fill="black" stroke="black" points="666.62,-30.77 675.57,-25.09 665.04,-23.95 666.62,-30.77"/>
</g>
<!-- supply -->
<g id="node9" class="node">
<title>supply</title>
<ellipse fill="none" stroke="black" cx="635" cy="-90" rx="34.39" ry="18"/>
<text text-anchor="middle" x="635" y="-86.3" font-family="Times,serif" font-size="14.00">supply</text>
</g>
<!-- supply&#45;&gt;coin_address -->
<g id="edge8" class="edge">
<title>supply&#45;&gt;coin_address</title>
<path fill="none" stroke="black" d="M654.22,-74.83C667.25,-65.24 684.72,-52.36 699.61,-41.39"/>
<polygon fill="black" stroke="black" points="701.29,-44.5 707.27,-35.75 697.14,-38.87 701.29,-44.5"/>
</g>
<!-- upgrade_supply -->
<g id="node10" class="node">
<title>upgrade_supply</title>
<ellipse fill="none" stroke="black" cx="1197" cy="-90" rx="66.89" ry="18"/>
<text text-anchor="middle" x="1197" y="-86.3" font-family="Times,serif" font-size="14.00">upgrade_supply</text>
</g>
<!-- upgrade_supply&#45;&gt;coin_address -->
<g id="edge9" class="edge">
<title>upgrade_supply&#45;&gt;coin_address</title>
<path fill="none" stroke="black" d="M1148.06,-77.41C1139.09,-75.47 1129.78,-73.57 1121,-72 1006.44,-51.46 871.73,-34.84 794.07,-25.98"/>
<polygon fill="black" stroke="black" points="794.87,-22.55 784.54,-24.9 794.08,-29.51 794.87,-22.55"/>
</g>
<!-- burn_from -->
<g id="node11" class="node">
<title>burn_from</title>
<ellipse fill="none" stroke="black" cx="66" cy="-162" rx="48.99" ry="18"/>
<text text-anchor="middle" x="66" y="-158.3" font-family="Times,serif" font-size="14.00">burn_from</text>
</g>
<!-- burn_from&#45;&gt;burn -->
<g id="edge10" class="edge">
<title>burn_from&#45;&gt;burn</title>
<path fill="none" stroke="black" d="M85.29,-145.12C97.19,-135.31 112.6,-122.62 125.5,-112"/>
<polygon fill="black" stroke="black" points="127.71,-114.72 133.2,-105.66 123.26,-109.31 127.71,-114.72"/>
</g>
<!-- managed_coin::burn -->
<g id="node12" class="node">
<title>managed_coin::burn</title>
<ellipse fill="none" stroke="black" cx="151" cy="-234" rx="27" ry="18"/>
<text text-anchor="middle" x="151" y="-230.3" font-family="Times,serif" font-size="14.00">burn</text>
</g>
<!-- managed_coin::burn&#45;&gt;burn -->
<g id="edge11" class="edge">
<title>managed_coin::burn&#45;&gt;burn</title>
<path fill="none" stroke="black" d="M151,-215.59C151,-191.61 151,-148.14 151,-119.42"/>
<polygon fill="black" stroke="black" points="154.5,-119.62 151,-109.62 147.5,-119.62 154.5,-119.62"/>
</g>
<!-- initialize -->
<g id="node13" class="node">
<title>initialize</title>
<ellipse fill="none" stroke="black" cx="229" cy="-162" rx="41.69" ry="18"/>
<text text-anchor="middle" x="229" y="-158.3" font-family="Times,serif" font-size="14.00">initialize</text>
</g>
<!-- initialize&#45;&gt;initialize_internal -->
<g id="edge12" class="edge">
<title>initialize&#45;&gt;initialize_internal</title>
<path fill="none" stroke="black" d="M260.85,-149.91C292.48,-138.89 341.51,-121.82 378.65,-108.88"/>
<polygon fill="black" stroke="black" points="379.55,-112.28 387.84,-105.68 377.25,-105.67 379.55,-112.28"/>
</g>
<!-- initialize_with_parallelizable_supply -->
<g id="node14" class="node">
<title>initialize_with_parallelizable_supply</title>
<ellipse fill="none" stroke="black" cx="430" cy="-162" rx="141.07" ry="18"/>
<text text-anchor="middle" x="430" y="-158.3" font-family="Times,serif" font-size="14.00">initialize_with_parallelizable_supply</text>
</g>
<!-- initialize_with_parallelizable_supply&#45;&gt;initialize_internal -->
<g id="edge13" class="edge">
<title>initialize_with_parallelizable_supply&#45;&gt;initialize_internal</title>
<path fill="none" stroke="black" d="M430,-143.7C430,-136.41 430,-127.73 430,-119.54"/>
<polygon fill="black" stroke="black" points="433.5,-119.62 430,-109.62 426.5,-119.62 433.5,-119.62"/>
</g>
<!-- aptos_coin::mint -->
<g id="node15" class="node">
<title>aptos_coin::mint</title>
<ellipse fill="none" stroke="black" cx="744" cy="-234" rx="27.1" ry="18"/>
<text text-anchor="middle" x="744" y="-230.3" font-family="Times,serif" font-size="14.00">mint</text>
</g>
<!-- aptos_coin::mint&#45;&gt;mint -->
<g id="edge14" class="edge">
<title>aptos_coin::mint&#45;&gt;mint</title>
<path fill="none" stroke="black" d="M726.25,-220.29C720.25,-216.19 713.43,-211.74 707,-208 688.07,-196.99 666.09,-186.07 648.47,-177.75"/>
<polygon fill="black" stroke="black" points="650.04,-174.62 639.5,-173.56 647.08,-180.96 650.04,-174.62"/>
</g>
<!-- aptos_coin::configure_accounts_for_test -->
<g id="node16" class="node">
<title>aptos_coin::configure_accounts_for_test</title>
<ellipse fill="none" stroke="black" cx="588" cy="-234" rx="110.48" ry="18"/>
<text text-anchor="middle" x="588" y="-230.3" font-family="Times,serif" font-size="14.00">configure_accounts_for_test</text>
</g>
<!-- aptos_coin::configure_accounts_for_test&#45;&gt;mint -->
<g id="edge15" class="edge">
<title>aptos_coin::configure_accounts_for_test&#45;&gt;mint</title>
<path fill="none" stroke="black" d="M594.92,-215.7C597.98,-208.04 601.66,-198.85 605.08,-190.3"/>
<polygon fill="black" stroke="black" points="608.32,-191.61 608.79,-181.03 601.83,-189.01 608.32,-191.61"/>
</g>
<!-- stake::distribute_rewards -->
<g id="node17" class="node">
<title>stake::distribute_rewards</title>
<ellipse fill="none" stroke="black" cx="909" cy="-234" rx="76.09" ry="18"/>
<text text-anchor="middle" x="909" y="-230.3" font-family="Times,serif" font-size="14.00">distribute_rewards</text>
</g>
<!-- stake::distribute_rewards&#45;&gt;mint -->
<g id="edge16" class="edge">
<title>stake::distribute_rewards&#45;&gt;mint</title>
<path fill="none" stroke="black" d="M856.96,-220.57C798.09,-206.5 703.77,-183.97 652.34,-171.68"/>
<polygon fill="black" stroke="black" points="653.45,-168.35 642.91,-169.43 651.82,-175.16 653.45,-168.35"/>
</g>
<!-- managed_coin::mint -->
<g id="node18" class="node">
<title>managed_coin::mint</title>
<ellipse fill="none" stroke="black" cx="325" cy="-234" rx="27.1" ry="18"/>
<text text-anchor="middle" x="325" y="-230.3" font-family="Times,serif" font-size="14.00">mint</text>
</g>
<!-- managed_coin::mint&#45;&gt;mint -->
<g id="edge17" class="edge">
<title>managed_coin::mint&#45;&gt;mint</title>
<path fill="none" stroke="black" d="M341.99,-219.79C348.54,-215.35 356.29,-210.81 364,-208 454.95,-174.85 487.1,-207.22 580,-180 581.62,-179.53 583.25,-178.99 584.89,-178.4"/>
<polygon fill="black" stroke="black" points="586.18,-181.65 594.09,-174.61 583.52,-175.18 586.18,-181.65"/>
</g>
<!-- aptos_governance::create_proposal -->
<g id="node19" class="node">
<title>aptos_governance::create_proposal</title>
<ellipse fill="none" stroke="black" cx="1792" cy="-558" rx="66.09" ry="18"/>
<text text-anchor="middle" x="1792" y="-554.3" font-family="Times,serif" font-size="14.00">create_proposal</text>
</g>
<!-- aptos_governance::create_proposal&#45;&gt;supply -->
<g id="edge18" class="edge">
<title>aptos_governance::create_proposal&#45;&gt;supply</title>
<path fill="none" stroke="black" d="M1754.59,-542.71C1681.55,-513.64 1527,-445.89 1527,-393 1527,-393 1527,-393 1527,-233 1527,-42.52 863.2,-156.51 679,-108 676.55,-107.36 674.06,-106.62 671.56,-105.82"/>
<polygon fill="black" stroke="black" points="672.77,-102.54 662.17,-102.54 670.46,-109.15 672.77,-102.54"/>
</g>
<!-- transaction_fee::burn_fee -->
<g id="node20" class="node">
<title>transaction_fee::burn_fee</title>
<ellipse fill="none" stroke="black" cx="58" cy="-234" rx="42.49" ry="18"/>
<text text-anchor="middle" x="58" y="-230.3" font-family="Times,serif" font-size="14.00">burn_fee</text>
</g>
<!-- transaction_fee::burn_fee&#45;&gt;burn_from -->
<g id="edge19" class="edge">
<title>transaction_fee::burn_fee&#45;&gt;burn_from</title>
<path fill="none" stroke="black" d="M59.98,-215.7C60.81,-208.41 61.8,-199.73 62.74,-191.54"/>
<polygon fill="black" stroke="black" points="66.22,-191.94 63.87,-181.61 59.26,-191.15 66.22,-191.94"/>
</g>
<!-- managed_coin::initialize -->
<g id="node21" class="node">
<title>managed_coin::initialize</title>
<ellipse fill="none" stroke="black" cx="238" cy="-234" rx="41.69" ry="18"/>
<text text-anchor="middle" x="238" y="-230.3" font-family="Times,serif" font-size="14.00">initialize</text>
</g>
<!-- managed_coin::initialize&#45;&gt;initialize -->
<g id="edge20" class="edge">
<title>managed_coin::initialize&#45;&gt;initialize</title>
<path fill="none" stroke="black" d="M235.78,-215.7C234.83,-208.32 233.7,-199.52 232.63,-191.25"/>
<polygon fill="black" stroke="black" points="236.14,-191.08 231.39,-181.61 229.2,-191.97 236.14,-191.08"/>
</g>
<!-- aptos_coin::initialize -->
<g id="node22" class="node">
<title>aptos_coin::initialize</title>
<ellipse fill="none" stroke="black" cx="418" cy="-234" rx="41.69" ry="18"/>
<text text-anchor="middle" x="418" y="-230.3" font-family="Times,serif" font-size="14.00">initialize</text>
</g>
<!-- aptos_coin::initialize&#45;&gt;initialize_with_parallelizable_supply -->
<g id="edge21" class="edge">
<title>aptos_coin::initialize&#45;&gt;initialize_with_parallelizable_supply</title>
<path fill="none" stroke="black" d="M420.97,-215.7C422.23,-208.32 423.74,-199.52 425.16,-191.25"/>
<polygon fill="black" stroke="black" points="428.57,-192.04 426.81,-181.6 421.67,-190.86 428.57,-192.04"/>
</g>
<!-- genesis::create_account -->
<g id="node23" class="node">
<title>genesis::create_account</title>
<ellipse fill="none" stroke="black" cx="741" cy="-317" rx="63.89" ry="18"/>
<text text-anchor="middle" x="741" y="-313.3" font-family="Times,serif" font-size="14.00">create_account</text>
</g>
<!-- genesis::create_account&#45;&gt;aptos_coin::mint -->
<g id="edge22" class="edge">
<title>genesis::create_account&#45;&gt;aptos_coin::mint</title>
<path fill="none" stroke="black" d="M741.64,-298.82C742.01,-288.69 742.5,-275.6 742.93,-263.92"/>
<polygon fill="black" stroke="black" points="746.43,-264.07 743.3,-253.95 739.43,-263.81 746.43,-264.07"/>
</g>
<!-- genesis::initialize_core_resources_and_aptos_coin -->
<g id="node24" class="node">
<title>genesis::initialize_core_resources_and_aptos_coin</title>
<ellipse fill="none" stroke="black" cx="430" cy="-633" rx="157.87" ry="18"/>
<text text-anchor="middle" x="430" y="-629.3" font-family="Times,serif" font-size="14.00">initialize_core_resources_and_aptos_coin</text>
</g>
<!-- genesis::initialize_core_resources_and_aptos_coin&#45;&gt;aptos_coin::configure_accounts_for_test -->
<g id="edge23" class="edge">
<title>genesis::initialize_core_resources_and_aptos_coin&#45;&gt;aptos_coin::configure_accounts_for_test</title>
<path fill="none" stroke="black" d="M406.72,-614.85C404.51,-612.42 402.53,-609.8 401,-607 372.71,-555.42 382,-534.83 382,-476 382,-476 382,-476 382,-391 382,-350.39 485.01,-289.21 545.34,-256.85"/>
<polygon fill="black" stroke="black" points="546.83,-260.03 554.02,-252.25 543.55,-253.85 546.83,-260.03"/>
</g>
<!-- genesis::initialize_core_resources_and_aptos_coin&#45;&gt;aptos_coin::initialize -->
<g id="edge27" class="edge">
<title>genesis::initialize_core_resources_and_aptos_coin&#45;&gt;aptos_coin::initialize</title>
<path fill="none" stroke="black" d="M377.47,-615.72C373.94,-613.22 370.71,-610.33 368,-607 330.58,-561.14 344,-535.19 344,-476 344,-476 344,-476 344,-391 344,-345.29 346.8,-331.49 368,-291 374.2,-279.15 383.46,-267.81 392.33,-258.46"/>
<polygon fill="black" stroke="black" points="394.63,-261.12 399.21,-251.56 389.67,-256.18 394.63,-261.12"/>
</g>
<!-- stake::update_stake_pool -->
<g id="node25" class="node">
<title>stake::update_stake_pool</title>
<ellipse fill="none" stroke="black" cx="909" cy="-317" rx="76.89" ry="18"/>
<text text-anchor="middle" x="909" y="-313.3" font-family="Times,serif" font-size="14.00">update_stake_pool</text>
</g>
<!-- stake::update_stake_pool&#45;&gt;stake::distribute_rewards -->
<g id="edge24" class="edge">
<title>stake::update_stake_pool&#45;&gt;stake::distribute_rewards</title>
<path fill="none" stroke="black" d="M909,-298.82C909,-288.69 909,-275.6 909,-263.92"/>
<polygon fill="black" stroke="black" points="912.5,-263.95 909,-253.95 905.5,-263.95 912.5,-263.95"/>
</g>
<!-- transaction_validation::epilogue -->
<g id="node26" class="node">
<title>transaction_validation::epilogue</title>
<ellipse fill="none" stroke="black" cx="58" cy="-317" rx="40.89" ry="18"/>
<text text-anchor="middle" x="58" y="-313.3" font-family="Times,serif" font-size="14.00">epilogue</text>
</g>
<!-- transaction_validation::epilogue&#45;&gt;transaction_fee::burn_fee -->
<g id="edge25" class="edge">
<title>transaction_validation::epilogue&#45;&gt;transaction_fee::burn_fee</title>
<path fill="none" stroke="black" d="M58,-298.82C58,-288.69 58,-275.6 58,-263.92"/>
<polygon fill="black" stroke="black" points="61.5,-263.95 58,-253.95 54.5,-263.95 61.5,-263.95"/>
</g>
<!-- genesis::initialize_aptos_coin -->
<g id="node27" class="node">
<title>genesis::initialize_aptos_coin</title>
<ellipse fill="none" stroke="black" cx="494" cy="-558" rx="83.69" ry="18"/>
<text text-anchor="middle" x="494" y="-554.3" font-family="Times,serif" font-size="14.00">initialize_aptos_coin</text>
</g>
<!-- genesis::initialize_aptos_coin&#45;&gt;aptos_coin::initialize -->
<g id="edge26" class="edge">
<title>genesis::initialize_aptos_coin&#45;&gt;aptos_coin::initialize</title>
<path fill="none" stroke="black" d="M465.81,-540.57C460.05,-535.93 454.63,-530.38 451,-524 402.76,-439.36 408.48,-318.18 414.23,-263.58"/>
<polygon fill="black" stroke="black" points="417.68,-264.22 415.34,-253.89 410.73,-263.43 417.68,-264.22"/>
</g>
<!-- genesis::create_accounts -->
<g id="node28" class="node">
<title>genesis::create_accounts</title>
<ellipse fill="none" stroke="black" cx="741" cy="-392" rx="66.89" ry="18"/>
<text text-anchor="middle" x="741" y="-388.3" font-family="Times,serif" font-size="14.00">create_accounts</text>
</g>
<!-- genesis::create_accounts&#45;&gt;genesis::create_account -->
<g id="edge28" class="edge">
<title>genesis::create_accounts&#45;&gt;genesis::create_account</title>
<path fill="none" stroke="black" d="M741,-373.7C741,-365.67 741,-355.9 741,-346.8"/>
<polygon fill="black" stroke="black" points="744.5,-346.94 741,-336.94 737.5,-346.94 744.5,-346.94"/>
</g>
<!-- genesis::create_initialize_validator -->
<g id="node29" class="node">
<title>genesis::create_initialize_validator</title>
<ellipse fill="none" stroke="black" cx="553" cy="-392" rx="102.88" ry="18"/>
<text text-anchor="middle" x="553" y="-388.3" font-family="Times,serif" font-size="14.00">create_initialize_validator</text>
</g>
<!-- genesis::create_initialize_validator&#45;&gt;genesis::create_account -->
<g id="edge29" class="edge">
<title>genesis::create_initialize_validator&#45;&gt;genesis::create_account</title>
<path fill="none" stroke="black" d="M593.79,-375.16C623.26,-363.72 663.12,-348.24 693.93,-336.28"/>
<polygon fill="black" stroke="black" points="694.96,-339.63 703.01,-332.75 692.42,-333.11 694.96,-339.63"/>
</g>
<!-- stake::on_new_epoch -->
<g id="node30" class="node">
<title>stake::on_new_epoch</title>
<ellipse fill="none" stroke="black" cx="909" cy="-392" rx="63.89" ry="18"/>
<text text-anchor="middle" x="909" y="-388.3" font-family="Times,serif" font-size="14.00">on_new_epoch</text>
</g>
<!-- stake::on_new_epoch&#45;&gt;stake::update_stake_pool -->
<g id="edge30" class="edge">
<title>stake::on_new_epoch&#45;&gt;stake::update_stake_pool</title>
<path fill="none" stroke="black" d="M909,-373.7C909,-365.67 909,-355.9 909,-346.8"/>
<polygon fill="black" stroke="black" points="912.5,-346.94 909,-336.94 905.5,-346.94 912.5,-346.94"/>
</g>
<!-- genesis::initialize_for_verification -->
<g id="node31" class="node">
<title>genesis::initialize_for_verification</title>
<ellipse fill="none" stroke="black" cx="707" cy="-633" rx="100.98" ry="18"/>
<text text-anchor="middle" x="707" y="-629.3" font-family="Times,serif" font-size="14.00">initialize_for_verification</text>
</g>
<!-- genesis::initialize_for_verification&#45;&gt;genesis::initialize_aptos_coin -->
<g id="edge31" class="edge">
<title>genesis::initialize_for_verification&#45;&gt;genesis::initialize_aptos_coin</title>
<path fill="none" stroke="black" d="M634.42,-620.18C618.57,-616.69 602.04,-612.34 587,-607 567.71,-600.16 547.4,-590.05 530.69,-580.86"/>
<polygon fill="black" stroke="black" points="532.55,-577.89 522.11,-576.05 529.12,-584 532.55,-577.89"/>
</g>
<!-- genesis::create_initialize_validators -->
<g id="node34" class="node">
<title>genesis::create_initialize_validators</title>
<ellipse fill="none" stroke="black" cx="702" cy="-558" rx="105.88" ry="18"/>
<text text-anchor="middle" x="702" y="-554.3" font-family="Times,serif" font-size="14.00">create_initialize_validators</text>
</g>
<!-- genesis::initialize_for_verification&#45;&gt;genesis::create_initialize_validators -->
<g id="edge42" class="edge">
<title>genesis::initialize_for_verification&#45;&gt;genesis::create_initialize_validators</title>
<path fill="none" stroke="black" d="M705.82,-614.7C705.26,-606.67 704.6,-596.9 703.97,-587.8"/>
<polygon fill="black" stroke="black" points="707.47,-587.68 703.3,-577.94 700.49,-588.15 707.47,-587.68"/>
</g>
<!-- genesis::create_initialize_validators_with_commission -->
<g id="node32" class="node">
<title>genesis::create_initialize_validators_with_commission</title>
<ellipse fill="none" stroke="black" cx="634" cy="-475" rx="173.57" ry="18"/>
<text text-anchor="middle" x="634" y="-471.3" font-family="Times,serif" font-size="14.00">create_initialize_validators_with_commission</text>
</g>
<!-- genesis::create_initialize_validators_with_commission&#45;&gt;genesis::create_initialize_validator -->
<g id="edge32" class="edge">
<title>genesis::create_initialize_validators_with_commission&#45;&gt;genesis::create_initialize_validator</title>
<path fill="none" stroke="black" d="M616.82,-456.82C605.55,-445.55 590.61,-430.61 578.02,-418.02"/>
<polygon fill="black" stroke="black" points="580.77,-415.82 571.22,-411.22 575.82,-420.77 580.77,-415.82"/>
</g>
<!-- genesis::create_initialize_validators_with_commission&#45;&gt;stake::on_new_epoch -->
<g id="edge34" class="edge">
<title>genesis::create_initialize_validators_with_commission&#45;&gt;stake::on_new_epoch</title>
<path fill="none" stroke="black" d="M743.19,-460.62C768.8,-455.84 795.69,-449.47 820,-441 839.08,-434.35 859,-423.98 875.14,-414.57"/>
<polygon fill="black" stroke="black" points="876.57,-417.8 883.36,-409.66 872.98,-411.79 876.57,-417.8"/>
</g>
<!-- reconfiguration::reconfigure -->
<g id="node33" class="node">
<title>reconfiguration::reconfigure</title>
<ellipse fill="none" stroke="black" cx="1162" cy="-475" rx="51.19" ry="18"/>
<text text-anchor="middle" x="1162" y="-471.3" font-family="Times,serif" font-size="14.00">reconfigure</text>
</g>
<!-- reconfiguration::reconfigure&#45;&gt;stake::on_new_epoch -->
<g id="edge33" class="edge">
<title>reconfiguration::reconfigure&#45;&gt;stake::on_new_epoch</title>
<path fill="none" stroke="black" d="M1124.94,-462.14C1081.56,-448.25 1009.44,-425.16 960.6,-409.52"/>
<polygon fill="black" stroke="black" points="961.97,-406.28 951.38,-406.57 959.83,-412.95 961.97,-406.28"/>
</g>
<!-- genesis::create_initialize_validators&#45;&gt;genesis::create_initialize_validators_with_commission -->
<g id="edge35" class="edge">
<title>genesis::create_initialize_validators&#45;&gt;genesis::create_initialize_validators_with_commission</title>
<path fill="none" stroke="black" d="M687.58,-539.82C678.36,-528.84 666.22,-514.38 655.83,-502"/>
<polygon fill="black" stroke="black" points="658.72,-500 649.61,-494.59 653.36,-504.5 658.72,-500"/>
</g>
<!-- aptos_governance::reconfigure -->
<g id="node35" class="node">
<title>aptos_governance::reconfigure</title>
<ellipse fill="none" stroke="black" cx="1656" cy="-558" rx="51.19" ry="18"/>
<text text-anchor="middle" x="1656" y="-554.3" font-family="Times,serif" font-size="14.00">reconfigure</text>
</g>
<!-- aptos_governance::reconfigure&#45;&gt;reconfiguration::reconfigure -->
<g id="edge36" class="edge">
<title>aptos_governance::reconfigure&#45;&gt;reconfiguration::reconfigure</title>
<path fill="none" stroke="black" d="M1625.8,-543.04C1615.58,-538.85 1603.98,-534.67 1593,-532 1558.28,-523.55 1548.49,-528.2 1513,-524 1409.43,-511.74 1289.08,-494.67 1219.61,-484.53"/>
<polygon fill="black" stroke="black" points="1220.39,-481.11 1209.99,-483.12 1219.37,-488.03 1220.39,-481.11"/>
</g>
<!-- block::block_prologue -->
<g id="node36" class="node">
<title>block::block_prologue</title>
<ellipse fill="none" stroke="black" cx="1024" cy="-558" rx="65.79" ry="18"/>
<text text-anchor="middle" x="1024" y="-554.3" font-family="Times,serif" font-size="14.00">block_prologue</text>
</g>
<!-- block::block_prologue&#45;&gt;reconfiguration::reconfigure -->
<g id="edge37" class="edge">
<title>block::block_prologue&#45;&gt;reconfiguration::reconfigure</title>
<path fill="none" stroke="black" d="M1050.94,-541.19C1072.62,-528.46 1103.28,-510.47 1126.89,-496.61"/>
<polygon fill="black" stroke="black" points="1128.37,-499.8 1135.23,-491.72 1124.83,-493.76 1128.37,-499.8"/>
</g>
<!-- consensus_config::set -->
<g id="node37" class="node">
<title>consensus_config::set</title>
<ellipse fill="none" stroke="black" cx="1162" cy="-558" rx="27" ry="18"/>
<text text-anchor="middle" x="1162" y="-554.3" font-family="Times,serif" font-size="14.00">set</text>
</g>
<!-- consensus_config::set&#45;&gt;reconfiguration::reconfigure -->
<g id="edge38" class="edge">
<title>consensus_config::set&#45;&gt;reconfiguration::reconfigure</title>
<path fill="none" stroke="black" d="M1162,-539.82C1162,-529.69 1162,-516.6 1162,-504.92"/>
<polygon fill="black" stroke="black" points="1165.5,-504.95 1162,-494.95 1158.5,-504.95 1165.5,-504.95"/>
</g>
<!-- gas_schedule::set_gas_schedule -->
<g id="node38" class="node">
<title>gas_schedule::set_gas_schedule</title>
<ellipse fill="none" stroke="black" cx="1510" cy="-558" rx="71.49" ry="18"/>
<text text-anchor="middle" x="1510" y="-554.3" font-family="Times,serif" font-size="14.00">set_gas_schedule</text>
</g>
<!-- gas_schedule::set_gas_schedule&#45;&gt;reconfiguration::reconfigure -->
<g id="edge39" class="edge">
<title>gas_schedule::set_gas_schedule&#45;&gt;reconfiguration::reconfigure</title>
<path fill="none" stroke="black" d="M1468.29,-543.13C1456.02,-539.27 1442.53,-535.26 1430,-532 1357.42,-513.12 1272.5,-496.24 1218.03,-486.07"/>
<polygon fill="black" stroke="black" points="1218.84,-482.66 1208.37,-484.28 1217.56,-489.54 1218.84,-482.66"/>
</g>
<!-- gas_schedule::set_storage_gas_config -->
<g id="node39" class="node">
<title>gas_schedule::set_storage_gas_config</title>
<ellipse fill="none" stroke="black" cx="1328" cy="-558" rx="92.88" ry="18"/>
<text text-anchor="middle" x="1328" y="-554.3" font-family="Times,serif" font-size="14.00">set_storage_gas_config</text>
</g>
<!-- gas_schedule::set_storage_gas_config&#45;&gt;reconfiguration::reconfigure -->
<g id="edge40" class="edge">
<title>gas_schedule::set_storage_gas_config&#45;&gt;reconfiguration::reconfigure</title>
<path fill="none" stroke="black" d="M1294.81,-540.8C1267.76,-527.6 1229.51,-508.94 1201,-495.03"/>
<polygon fill="black" stroke="black" points="1202.86,-492.04 1192.34,-490.8 1199.79,-498.33 1202.86,-492.04"/>
</g>
<!-- version::set_version -->
<g id="node40" class="node">
<title>version::set_version</title>
<ellipse fill="none" stroke="black" cx="883" cy="-558" rx="50.89" ry="18"/>
<text text-anchor="middle" x="883" y="-554.3" font-family="Times,serif" font-size="14.00">set_version</text>
</g>
<!-- version::set_version&#45;&gt;reconfiguration::reconfigure -->
<g id="edge41" class="edge">
<title>version::set_version&#45;&gt;reconfiguration::reconfigure</title>
<path fill="none" stroke="black" d="M914.77,-543.5C924.68,-539.54 935.71,-535.36 946,-532 1000.54,-514.18 1064.27,-498.24 1108.3,-487.96"/>
<polygon fill="black" stroke="black" points="1108.91,-491.42 1117.86,-485.75 1107.33,-484.6 1108.91,-491.42"/>
</g>
</g>
</svg>
