<?xml version="1.0" encoding="UTF-8" standalone="no"?>
<!DOCTYPE svg PUBLIC "-//W3C//DTD SVG 1.1//EN"
 "http://www.w3.org/Graphics/SVG/1.1/DTD/svg11.dtd">
<!-- Generated by graphviz version 7.0.0 (20221023.0053)
 -->
<!-- Title: G Pages: 1 -->
<svg width="1508pt" height="404pt"
 viewBox="0.00 0.00 1508.39 404.00" xmlns="http://www.w3.org/2000/svg" xmlns:xlink="http://www.w3.org/1999/xlink">
<g id="graph0" class="graph" transform="scale(1 1) rotate(0) translate(4 400)">
<title>G</title>
<polygon fill="white" stroke="none" points="-4,4 -4,-400 1504.39,-400 1504.39,4 -4,4"/>
<!-- coin -->
<g id="node1" class="node">
<title>coin</title>
<ellipse fill="none" stroke="black" cx="893" cy="-18" rx="27" ry="18"/>
<text text-anchor="middle" x="893" y="-14.3" font-family="Times,serif" font-size="14.00">coin</text>
</g>
<!-- aptos_coin -->
<g id="node2" class="node">
<title>aptos_coin</title>
<ellipse fill="none" stroke="black" cx="893" cy="-90" rx="48.99" ry="18"/>
<text text-anchor="middle" x="893" y="-86.3" font-family="Times,serif" font-size="14.00">aptos_coin</text>
</g>
<!-- aptos_coin&#45;&gt;coin -->
<g id="edge1" class="edge">
<title>aptos_coin&#45;&gt;coin</title>
<path fill="none" stroke="black" d="M893,-71.7C893,-64.41 893,-55.73 893,-47.54"/>
<polygon fill="black" stroke="black" points="896.5,-47.62 893,-37.62 889.5,-47.62 896.5,-47.62"/>
</g>
<!-- aptos_account -->
<g id="node3" class="node">
<title>aptos_account</title>
<ellipse fill="none" stroke="black" cx="1097" cy="-162" rx="61.19" ry="18"/>
<text text-anchor="middle" x="1097" y="-158.3" font-family="Times,serif" font-size="14.00">aptos_account</text>
</g>
<!-- aptos_account&#45;&gt;coin -->
<g id="edge2" class="edge">
<title>aptos_account&#45;&gt;coin</title>
<path fill="none" stroke="black" d="M1078.03,-144.71C1056.06,-126.18 1018.48,-95.45 984,-72 964.54,-58.76 941.64,-45.44 923.68,-35.46"/>
<polygon fill="black" stroke="black" points="925.52,-32.47 915.07,-30.72 922.14,-38.61 925.52,-32.47"/>
</g>
<!-- aptos_account&#45;&gt;aptos_coin -->
<g id="edge12" class="edge">
<title>aptos_account&#45;&gt;aptos_coin</title>
<path fill="none" stroke="black" d="M1058.15,-147.67C1024.1,-135.99 974.57,-118.99 938.64,-106.66"/>
<polygon fill="black" stroke="black" points="939.99,-103.42 929.39,-103.49 937.72,-110.04 939.99,-103.42"/>
</g>
<!-- stake -->
<g id="node4" class="node">
<title>stake</title>
<ellipse fill="none" stroke="black" cx="816" cy="-162" rx="28.7" ry="18"/>
<text text-anchor="middle" x="816" y="-158.3" font-family="Times,serif" font-size="14.00">stake</text>
</g>
<!-- stake&#45;&gt;coin -->
<g id="edge3" class="edge">
<title>stake&#45;&gt;coin</title>
<path fill="none" stroke="black" d="M816.58,-143.83C817.89,-125.05 822.04,-94.62 835,-72 842.47,-58.96 854.25,-47.33 865.25,-38.31"/>
<polygon fill="black" stroke="black" points="867.24,-41.2 873,-32.3 862.95,-35.67 867.24,-41.2"/>
</g>
<!-- stake&#45;&gt;aptos_coin -->
<g id="edge13" class="edge">
<title>stake&#45;&gt;aptos_coin</title>
<path fill="none" stroke="black" d="M831.58,-146.83C841.77,-137.58 855.31,-125.26 867.09,-114.55"/>
<polygon fill="black" stroke="black" points="869.12,-117.44 874.17,-108.12 864.41,-112.26 869.12,-117.44"/>
</g>
<!-- aptos_governance -->
<g id="node5" class="node">
<title>aptos_governance</title>
<ellipse fill="none" stroke="black" cx="362" cy="-306" rx="74.19" ry="18"/>
<text text-anchor="middle" x="362" y="-302.3" font-family="Times,serif" font-size="14.00">aptos_governance</text>
</g>
<!-- aptos_governance&#45;&gt;coin -->
<g id="edge4" class="edge">
<title>aptos_governance&#45;&gt;coin</title>
<path fill="none" stroke="black" d="M367.33,-287.82C374.03,-268.47 387.12,-236.99 407,-216 533.86,-82.04 764.42,-36.72 855.01,-23.65"/>
<polygon fill="black" stroke="black" points="855.42,-27.12 864.84,-22.28 854.45,-20.19 855.42,-27.12"/>
</g>
<!-- aptos_governance&#45;&gt;aptos_coin -->
<g id="edge14" class="edge">
<title>aptos_governance&#45;&gt;aptos_coin</title>
<path fill="none" stroke="black" d="M375.46,-288.02C392.25,-267.96 422.81,-234.93 456,-216 580.8,-144.82 749.14,-111.66 835.95,-98.44"/>
<polygon fill="black" stroke="black" points="836.26,-101.93 845.64,-97 835.23,-95.01 836.26,-101.93"/>
</g>
<!-- aptos_governance&#45;&gt;stake -->
<g id="edge23" class="edge">
<title>aptos_governance&#45;&gt;stake</title>
<path fill="none" stroke="black" d="M390.47,-289.14C409.15,-278.69 434.09,-264.64 456,-252 483.27,-236.27 487.47,-226.92 517,-216 606.05,-183.06 717.78,-170.24 776.21,-165.53"/>
<polygon fill="black" stroke="black" points="776.29,-169.03 786,-164.78 775.76,-162.05 776.29,-169.03"/>
</g>
<!-- reconfiguration -->
<g id="node13" class="node">
<title>reconfiguration</title>
<ellipse fill="none" stroke="black" cx="634" cy="-234" rx="64.99" ry="18"/>
<text text-anchor="middle" x="634" y="-230.3" font-family="Times,serif" font-size="14.00">reconfiguration</text>
</g>
<!-- aptos_governance&#45;&gt;reconfiguration -->
<g id="edge38" class="edge">
<title>aptos_governance&#45;&gt;reconfiguration</title>
<path fill="none" stroke="black" d="M411.57,-292.24C458.06,-280.28 527.55,-262.4 576.46,-249.81"/>
<polygon fill="black" stroke="black" points="577.21,-253.23 586.03,-247.35 575.47,-246.45 577.21,-253.23"/>
</g>
<!-- staking_contract -->
<g id="node6" class="node">
<title>staking_contract</title>
<ellipse fill="none" stroke="black" cx="1029" cy="-234" rx="68.79" ry="18"/>
<text text-anchor="middle" x="1029" y="-230.3" font-family="Times,serif" font-size="14.00">staking_contract</text>
</g>
<!-- staking_contract&#45;&gt;coin -->
<g id="edge5" class="edge">
<title>staking_contract&#45;&gt;coin</title>
<path fill="none" stroke="black" d="M1023.15,-215.85C1012.16,-185.08 986.28,-119.31 951,-72 942.02,-59.95 930.03,-48.46 919.28,-39.28"/>
<polygon fill="black" stroke="black" points="921.74,-36.77 911.8,-33.11 917.29,-42.17 921.74,-36.77"/>
</g>
<!-- staking_contract&#45;&gt;aptos_coin -->
<g id="edge15" class="edge">
<title>staking_contract&#45;&gt;aptos_coin</title>
<path fill="none" stroke="black" d="M1002.72,-216.97C988.06,-207.3 969.98,-194.15 956,-180 937.36,-161.14 920.26,-136.28 908.59,-117.62"/>
<polygon fill="black" stroke="black" points="911.69,-115.97 903.48,-109.27 905.72,-119.63 911.69,-115.97"/>
</g>
<!-- staking_contract&#45;&gt;stake -->
<g id="edge25" class="edge">
<title>staking_contract&#45;&gt;stake</title>
<path fill="none" stroke="black" d="M987.17,-219.25C947.76,-206.3 889.32,-187.09 851.95,-174.81"/>
<polygon fill="black" stroke="black" points="853.1,-171.51 842.51,-171.71 850.91,-178.16 853.1,-171.51"/>
</g>
<!-- vesting -->
<g id="node7" class="node">
<title>vesting</title>
<ellipse fill="none" stroke="black" cx="1148" cy="-306" rx="36.29" ry="18"/>
<text text-anchor="middle" x="1148" y="-302.3" font-family="Times,serif" font-size="14.00">vesting</text>
</g>
<!-- vesting&#45;&gt;coin -->
<g id="edge6" class="edge">
<title>vesting&#45;&gt;coin</title>
<path fill="none" stroke="black" d="M1177.42,-294.93C1240.56,-271.74 1379.36,-211.37 1329,-144 1280.46,-79.07 1027.93,-37.72 930.97,-24.03"/>
<polygon fill="black" stroke="black" points="931.56,-20.57 921.17,-22.67 930.59,-27.51 931.56,-20.57"/>
</g>
<!-- vesting&#45;&gt;aptos_coin -->
<g id="edge16" class="edge">
<title>vesting&#45;&gt;aptos_coin</title>
<path fill="none" stroke="black" d="M1143.99,-287.81C1138.61,-268.16 1127.3,-236.12 1107,-216 1079.31,-188.55 1061.13,-198.85 1027,-180 989.99,-159.56 949.88,-132.17 923.29,-113.19"/>
<polygon fill="black" stroke="black" points="925.53,-110.49 915.37,-107.5 921.44,-116.18 925.53,-110.49"/>
</g>
<!-- vesting&#45;&gt;aptos_account -->
<g id="edge21" class="edge">
<title>vesting&#45;&gt;aptos_account</title>
<path fill="none" stroke="black" d="M1149.37,-287.57C1150.15,-269.11 1149.51,-239.43 1140,-216 1135.88,-205.84 1129.12,-196.1 1122.16,-187.81"/>
<polygon fill="black" stroke="black" points="1124.94,-185.67 1115.67,-180.55 1119.73,-190.33 1124.94,-185.67"/>
</g>
<!-- vesting&#45;&gt;stake -->
<g id="edge26" class="edge">
<title>vesting&#45;&gt;stake</title>
<path fill="none" stroke="black" d="M1113.76,-299.24C1073.55,-291.7 1005.42,-276.49 951,-252 910.19,-233.64 867.85,-203.63 841.72,-183.6"/>
<polygon fill="black" stroke="black" points="844.09,-181.02 834.05,-177.64 839.8,-186.54 844.09,-181.02"/>
</g>
<!-- vesting&#45;&gt;staking_contract -->
<g id="edge30" class="edge">
<title>vesting&#45;&gt;staking_contract</title>
<path fill="none" stroke="black" d="M1125.34,-291.67C1108.57,-281.81 1085.37,-268.16 1065.93,-256.73"/>
<polygon fill="black" stroke="black" points="1067.87,-253.8 1057.47,-251.75 1064.32,-259.84 1067.87,-253.8"/>
</g>
<!-- transaction_fee -->
<g id="node8" class="node">
<title>transaction_fee</title>
<ellipse fill="none" stroke="black" cx="245" cy="-162" rx="64.19" ry="18"/>
<text text-anchor="middle" x="245" y="-158.3" font-family="Times,serif" font-size="14.00">transaction_fee</text>
</g>
<!-- transaction_fee&#45;&gt;coin -->
<g id="edge7" class="edge">
<title>transaction_fee&#45;&gt;coin</title>
<path fill="none" stroke="black" d="M258.78,-144.08C276.98,-123.09 311.17,-88.1 349,-72 440.41,-33.08 746.26,-22.37 854.57,-19.76"/>
<polygon fill="black" stroke="black" points="854.47,-23.26 864.39,-19.54 854.31,-16.27 854.47,-23.26"/>
</g>
<!-- transaction_fee&#45;&gt;aptos_coin -->
<g id="edge17" class="edge">
<title>transaction_fee&#45;&gt;aptos_coin</title>
<path fill="none" stroke="black" d="M303.13,-153.97C329.36,-150.84 360.73,-147.16 389,-144 550.37,-125.99 741.01,-106.4 834.85,-96.87"/>
<polygon fill="black" stroke="black" points="834.98,-100.38 844.57,-95.89 834.27,-93.41 834.98,-100.38"/>
</g>
<!-- transaction_validation -->
<g id="node9" class="node">
<title>transaction_validation</title>
<ellipse fill="none" stroke="black" cx="117" cy="-234" rx="89.08" ry="18"/>
<text text-anchor="middle" x="117" y="-230.3" font-family="Times,serif" font-size="14.00">transaction_validation</text>
</g>
<!-- transaction_validation&#45;&gt;coin -->
<g id="edge8" class="edge">
<title>transaction_validation&#45;&gt;coin</title>
<path fill="none" stroke="black" d="M124.64,-215.57C133.76,-196.29 150.5,-165.14 172,-144 216.62,-100.12 233.45,-91.24 293,-72 398.24,-38.01 739.17,-24.01 854.48,-20.17"/>
<polygon fill="black" stroke="black" points="854.46,-23.67 864.34,-19.84 854.23,-16.67 854.46,-23.67"/>
</g>
<!-- transaction_validation&#45;&gt;aptos_coin -->
<g id="edge18" class="edge">
<title>transaction_validation&#45;&gt;aptos_coin</title>
<path fill="none" stroke="black" d="M171.84,-219.46C212.38,-209.23 268.85,-194.51 318,-180 367.34,-165.44 377.74,-154.97 428,-144 571.54,-112.67 744.3,-99.16 833.39,-93.92"/>
<polygon fill="black" stroke="black" points="833.32,-97.43 843.1,-93.37 832.92,-90.44 833.32,-97.43"/>
</g>
<!-- transaction_validation&#45;&gt;transaction_fee -->
<g id="edge35" class="edge">
<title>transaction_validation&#45;&gt;transaction_fee</title>
<path fill="none" stroke="black" d="M147.01,-216.59C164.8,-206.86 187.52,-194.43 206.61,-184"/>
<polygon fill="black" stroke="black" points="208.07,-187.18 215.17,-179.31 204.71,-181.04 208.07,-187.18"/>
</g>
<!-- genesis -->
<g id="node10" class="node">
<title>genesis</title>
<ellipse fill="none" stroke="black" cx="570" cy="-378" rx="36.29" ry="18"/>
<text text-anchor="middle" x="570" y="-374.3" font-family="Times,serif" font-size="14.00">genesis</text>
</g>
<!-- genesis&#45;&gt;coin -->
<g id="edge9" class="edge">
<title>genesis&#45;&gt;coin</title>
<path fill="none" stroke="black" d="M533.48,-375.79C407.67,-370.63 0,-345.4 0,-235 0,-235 0,-235 0,-161 0,-59.63 111.52,-96.01 210,-72 333.83,-41.81 729.08,-25.02 854.46,-20.36"/>
<polygon fill="black" stroke="black" points="854.35,-23.86 864.22,-20 854.09,-16.87 854.35,-23.86"/>
</g>
<!-- genesis&#45;&gt;aptos_coin -->
<g id="edge19" class="edge">
<title>genesis&#45;&gt;aptos_coin</title>
<path fill="none" stroke="black" d="M606.51,-377.7C693,-378.5 906.49,-375.13 951,-324 964.57,-308.41 922.32,-177.19 902.58,-118.82"/>
<polygon fill="black" stroke="black" points="905.98,-117.94 899.45,-109.6 899.36,-120.19 905.98,-117.94"/>
</g>
<!-- genesis&#45;&gt;stake -->
<g id="edge27" class="edge">
<title>genesis&#45;&gt;stake</title>
<path fill="none" stroke="black" d="M533.5,-375.94C462.74,-373.05 311.03,-362.4 279,-324 268.75,-311.71 270.12,-301.31 279,-288 334.79,-204.36 660.6,-173.82 775.73,-165.55"/>
<polygon fill="black" stroke="black" points="775.89,-169.05 785.63,-164.86 775.41,-162.06 775.89,-169.05"/>
</g>
<!-- genesis&#45;&gt;aptos_governance -->
<g id="edge29" class="edge">
<title>genesis&#45;&gt;aptos_governance</title>
<path fill="none" stroke="black" d="M540.64,-367.12C508.09,-356.16 454.92,-338.27 415.04,-324.85"/>
<polygon fill="black" stroke="black" points="416.2,-321.55 405.6,-321.67 413.96,-328.18 416.2,-321.55"/>
</g>
<!-- genesis&#45;&gt;staking_contract -->
<g id="edge31" class="edge">
<title>genesis&#45;&gt;staking_contract</title>
<path fill="none" stroke="black" d="M606.5,-376.61C696.02,-375 923.56,-366.7 984,-324 1004.31,-309.65 1015.99,-283.39 1022.34,-263.1"/>
<polygon fill="black" stroke="black" points="1025.64,-264.3 1025,-253.73 1018.9,-262.39 1025.64,-264.3"/>
</g>
<!-- genesis&#45;&gt;vesting -->
<g id="edge33" class="edge">
<title>genesis&#45;&gt;vesting</title>
<path fill="none" stroke="black" d="M605.79,-374.16C686.89,-367.48 890.77,-349.45 1060,-324 1074.45,-321.83 1090.14,-318.96 1104.21,-316.2"/>
<polygon fill="black" stroke="black" points="1104.49,-319.72 1113.61,-314.33 1103.12,-312.85 1104.49,-319.72"/>
</g>
<!-- genesis&#45;&gt;transaction_fee -->
<g id="edge36" class="edge">
<title>genesis&#45;&gt;transaction_fee</title>
<path fill="none" stroke="black" d="M533.71,-375.79C461.64,-372.6 304.25,-361.42 268,-324 233.94,-288.83 235.47,-227.44 240,-191.49"/>
<polygon fill="black" stroke="black" points="243.43,-192.24 241.39,-181.84 236.5,-191.24 243.43,-192.24"/>
</g>
<!-- genesis&#45;&gt;transaction_validation -->
<g id="edge37" class="edge">
<title>genesis&#45;&gt;transaction_validation</title>
<path fill="none" stroke="black" d="M534.08,-374.57C454.32,-368.72 264.99,-352.22 208,-324 178.46,-309.37 152.45,-281.58 135.89,-260.92"/>
<polygon fill="black" stroke="black" points="138.79,-258.95 129.89,-253.21 133.26,-263.25 138.79,-258.95"/>
</g>
<!-- genesis&#45;&gt;reconfiguration -->
<g id="edge43" class="edge">
<title>genesis&#45;&gt;reconfiguration</title>
<path fill="none" stroke="black" d="M586.5,-361.81C596.22,-351.94 607.97,-338.3 615,-324 624.34,-305.02 629.1,-281.55 631.53,-263.47"/>
<polygon fill="black" stroke="black" points="634.98,-264.05 632.66,-253.72 628.03,-263.25 634.98,-264.05"/>
</g>
<!-- block -->
<g id="node14" class="node">
<title>block</title>
<ellipse fill="none" stroke="black" cx="485" cy="-306" rx="30.59" ry="18"/>
<text text-anchor="middle" x="485" y="-302.3" font-family="Times,serif" font-size="14.00">block</text>
</g>
<!-- genesis&#45;&gt;block -->
<g id="edge44" class="edge">
<title>genesis&#45;&gt;block</title>
<path fill="none" stroke="black" d="M551.97,-362.15C540.02,-352.31 524.14,-339.23 510.84,-328.28"/>
<polygon fill="black" stroke="black" points="513.24,-325.73 503.3,-322.07 508.79,-331.13 513.24,-325.73"/>
</g>
<!-- consensus_config -->
<g id="node16" class="node">
<title>consensus_config</title>
<ellipse fill="none" stroke="black" cx="735" cy="-306" rx="73.39" ry="18"/>
<text text-anchor="middle" x="735" y="-302.3" font-family="Times,serif" font-size="14.00">consensus_config</text>
</g>
<!-- genesis&#45;&gt;consensus_config -->
<g id="edge45" class="edge">
<title>genesis&#45;&gt;consensus_config</title>
<path fill="none" stroke="black" d="M596.88,-365.6C621.76,-355.04 659.29,-339.12 688.95,-326.54"/>
<polygon fill="black" stroke="black" points="690.25,-329.79 698.09,-322.66 687.52,-323.34 690.25,-329.79"/>
</g>
<!-- gas_schedule -->
<g id="node17" class="node">
<title>gas_schedule</title>
<ellipse fill="none" stroke="black" cx="884" cy="-306" rx="57.69" ry="18"/>
<text text-anchor="middle" x="884" y="-302.3" font-family="Times,serif" font-size="14.00">gas_schedule</text>
</g>
<!-- genesis&#45;&gt;gas_schedule -->
<g id="edge46" class="edge">
<title>genesis&#45;&gt;gas_schedule</title>
<path fill="none" stroke="black" d="M603.25,-370.27C650.76,-360.57 740.77,-341.84 817,-324 821.22,-323.01 825.58,-321.97 829.96,-320.9"/>
<polygon fill="black" stroke="black" points="830.47,-324.37 839.34,-318.57 828.79,-317.58 830.47,-324.37"/>
</g>
<!-- version -->
<g id="node18" class="node">
<title>version</title>
<ellipse fill="none" stroke="black" cx="570" cy="-306" rx="36.29" ry="18"/>
<text text-anchor="middle" x="570" y="-302.3" font-family="Times,serif" font-size="14.00">version</text>
</g>
<!-- genesis&#45;&gt;version -->
<g id="edge47" class="edge">
<title>genesis&#45;&gt;version</title>
<path fill="none" stroke="black" d="M570,-359.7C570,-352.41 570,-343.73 570,-335.54"/>
<polygon fill="black" stroke="black" points="573.5,-335.62 570,-325.62 566.5,-335.62 573.5,-335.62"/>
</g>
<!-- managed_coin -->
<g id="node11" class="node">
<title>managed_coin</title>
<ellipse fill="none" stroke="black" cx="1438" cy="-90" rx="62.29" ry="18"/>
<text text-anchor="middle" x="1438" y="-86.3" font-family="Times,serif" font-size="14.00">managed_coin</text>
</g>
<!-- managed_coin&#45;&gt;coin -->
<g id="edge10" class="edge">
<title>managed_coin&#45;&gt;coin</title>
<path fill="none" stroke="black" d="M1391.53,-77.78C1381.81,-75.66 1371.6,-73.61 1362,-72 1202.95,-45.3 1011.24,-28.33 931.1,-21.91"/>
<polygon fill="black" stroke="black" points="931.86,-18.46 921.62,-21.16 931.31,-25.43 931.86,-18.46"/>
</g>
<!-- resource_account -->
<g id="node12" class="node">
<title>resource_account</title>
<ellipse fill="none" stroke="black" cx="1248" cy="-162" rx="72.29" ry="18"/>
<text text-anchor="middle" x="1248" y="-158.3" font-family="Times,serif" font-size="14.00">resource_account</text>
</g>
<!-- resource_account&#45;&gt;coin -->
<g id="edge11" class="edge">
<title>resource_account&#45;&gt;coin</title>
<path fill="none" stroke="black" d="M1211.01,-146.21C1141.54,-118.42 992.56,-58.82 926.14,-32.26"/>
<polygon fill="black" stroke="black" points="927.83,-29.16 917.25,-28.7 925.24,-35.66 927.83,-29.16"/>
</g>
<!-- resource_account&#45;&gt;aptos_coin -->
<g id="edge20" class="edge">
<title>resource_account&#45;&gt;aptos_coin</title>
<path fill="none" stroke="black" d="M1194.43,-149.63C1185.29,-147.73 1175.87,-145.79 1167,-144 1090.73,-128.62 1002.34,-111.68 947.04,-101.19"/>
<polygon fill="black" stroke="black" points="947.72,-97.76 937.24,-99.34 946.42,-104.64 947.72,-97.76"/>
</g>
<!-- reconfiguration&#45;&gt;stake -->
<g id="edge22" class="edge">
<title>reconfiguration&#45;&gt;stake</title>
<path fill="none" stroke="black" d="M670.83,-218.83C703.16,-206.4 749.84,-188.44 781.47,-176.28"/>
<polygon fill="black" stroke="black" points="782.49,-179.64 790.57,-172.78 779.98,-173.1 782.49,-179.64"/>
</g>
<!-- block&#45;&gt;stake -->
<g id="edge24" class="edge">
<title>block&#45;&gt;stake</title>
<path fill="none" stroke="black" d="M494.07,-288.64C506.28,-268.25 529.97,-233.89 560,-216 628.15,-175.39 722.57,-165.53 775.63,-163.36"/>
<polygon fill="black" stroke="black" points="775.53,-166.86 785.41,-163.04 775.3,-159.87 775.53,-166.86"/>
</g>
<!-- block&#45;&gt;reconfiguration -->
<g id="edge39" class="edge">
<title>block&#45;&gt;reconfiguration</title>
<path fill="none" stroke="black" d="M508.28,-294.06C530.54,-283.61 564.61,-267.6 591.67,-254.89"/>
<polygon fill="black" stroke="black" points="593.1,-258.08 600.67,-250.66 590.13,-251.74 593.1,-258.08"/>
</g>
<!-- staking_proxy -->
<g id="node15" class="node">
<title>staking_proxy</title>
<ellipse fill="none" stroke="black" cx="1084" cy="-378" rx="61.19" ry="18"/>
<text text-anchor="middle" x="1084" y="-374.3" font-family="Times,serif" font-size="14.00">staking_proxy</text>
</g>
<!-- staking_proxy&#45;&gt;stake -->
<g id="edge28" class="edge">
<title>staking_proxy&#45;&gt;stake</title>
<path fill="none" stroke="black" d="M1061.31,-360.97C1035.14,-342.68 990.61,-312.16 951,-288 922.81,-270.8 911.15,-273.4 886,-252 864.43,-233.64 844.96,-207.75 832.07,-188.62"/>
<polygon fill="black" stroke="black" points="835.02,-186.75 826.61,-180.32 829.17,-190.6 835.02,-186.75"/>
</g>
<!-- staking_proxy&#45;&gt;staking_contract -->
<g id="edge32" class="edge">
<title>staking_proxy&#45;&gt;staking_contract</title>
<path fill="none" stroke="black" d="M1080.79,-359.82C1077.05,-341.57 1070.07,-312.06 1060,-288 1056.3,-279.15 1051.37,-269.97 1046.53,-261.79"/>
<polygon fill="black" stroke="black" points="1049.56,-260.04 1041.34,-253.35 1043.59,-263.7 1049.56,-260.04"/>
</g>
<!-- staking_proxy&#45;&gt;vesting -->
<g id="edge34" class="edge">
<title>staking_proxy&#45;&gt;vesting</title>
<path fill="none" stroke="black" d="M1099.17,-360.41C1107.2,-351.62 1117.22,-340.66 1126.09,-330.96"/>
<polygon fill="black" stroke="black" points="1128.63,-333.37 1132.8,-323.63 1123.47,-328.65 1128.63,-333.37"/>
</g>
<!-- consensus_config&#45;&gt;reconfiguration -->
<g id="edge40" class="edge">
<title>consensus_config&#45;&gt;reconfiguration</title>
<path fill="none" stroke="black" d="M711.32,-288.59C697.93,-279.31 680.99,-267.57 666.38,-257.44"/>
<polygon fill="black" stroke="black" points="668.64,-254.75 658.43,-251.93 664.65,-260.5 668.64,-254.75"/>
</g>
<!-- gas_schedule&#45;&gt;reconfiguration -->
<g id="edge41" class="edge">
<title>gas_schedule&#45;&gt;reconfiguration</title>
<path fill="none" stroke="black" d="M842.16,-293.28C800.29,-281.56 735.66,-263.46 689.52,-250.55"/>
<polygon fill="black" stroke="black" points="690.54,-247.2 679.97,-247.87 688.66,-253.94 690.54,-247.2"/>
</g>
<!-- version&#45;&gt;reconfiguration -->
<g id="edge42" class="edge">
<title>version&#45;&gt;reconfiguration</title>
<path fill="none" stroke="black" d="M584.52,-289.12C592.32,-280.59 602.1,-269.89 610.91,-260.25"/>
<polygon fill="black" stroke="black" points="613.46,-262.66 617.62,-252.91 608.29,-257.93 613.46,-262.66"/>
</g>
</g>
</svg>
