<?xml version="1.0" encoding="UTF-8" standalone="no"?>
<!DOCTYPE svg PUBLIC "-//W3C//DTD SVG 1.1//EN"
 "http://www.w3.org/Graphics/SVG/1.1/DTD/svg11.dtd">
<!-- Generated by graphviz version 7.0.0 (20221023.0053)
 -->
<!-- Title: G Pages: 1 -->
<svg width="228pt" height="321pt"
 viewBox="0.00 0.00 228.00 321.00" xmlns="http://www.w3.org/2000/svg" xmlns:xlink="http://www.w3.org/1999/xlink">
<g id="graph0" class="graph" transform="scale(1 1) rotate(0) translate(4 317)">
<title>G</title>
<polygon fill="white" stroke="none" points="-4,4 -4,-317 224,-317 224,4 -4,4"/>
<g id="clust1" class="cluster">
<title>cluster_managed_coin</title>
<polygon fill="none" stroke="black" points="116,-64 116,-139 212,-139 212,-64 116,-64"/>
<text text-anchor="middle" x="164" y="-123.8" font-family="Times,serif" font-size="14.00">managed_coin</text>
</g>
<g id="clust2" class="cluster">
<title>cluster_transaction_fee</title>
<polygon fill="none" stroke="black" points="8,-147 8,-222 108,-222 108,-147 8,-147"/>
<text text-anchor="middle" x="58" y="-206.8" font-family="Times,serif" font-size="14.00">transaction_fee</text>
</g>
<g id="clust3" class="cluster">
<title>cluster_transaction_validation</title>
<polygon fill="none" stroke="black" points="9,-230 9,-305 146,-305 146,-230 9,-230"/>
<text text-anchor="middle" x="77.5" y="-289.8" font-family="Times,serif" font-size="14.00">transaction_validation</text>
</g>
<!-- burn -->
<g id="node1" class="node">
<title>burn</title>
<ellipse fill="none" stroke="black" cx="105" cy="-18" rx="27" ry="18"/>
<text text-anchor="middle" x="105" y="-14.3" font-family="Times,serif" font-size="14.00">burn</text>
</g>
<!-- burn_from -->
<g id="node2" class="node">
<title>burn_from</title>
<ellipse fill="none" stroke="black" cx="58" cy="-90" rx="48.99" ry="18"/>
<text text-anchor="middle" x="58" y="-86.3" font-family="Times,serif" font-size="14.00">burn_from</text>
</g>
<!-- burn_from&#45;&gt;burn -->
<g id="edge1" class="edge">
<title>burn_from&#45;&gt;burn</title>
<path fill="none" stroke="black" d="M69.38,-72.05C74.96,-63.73 81.81,-53.54 88,-44.32"/>
<polygon fill="black" stroke="black" points="90.86,-46.34 93.53,-36.09 85.05,-42.44 90.86,-46.34"/>
</g>
<!-- managed_coin::burn -->
<g id="node3" class="node">
<title>managed_coin::burn</title>
<ellipse fill="none" stroke="black" cx="152" cy="-90" rx="27" ry="18"/>
<text text-anchor="middle" x="152" y="-86.3" font-family="Times,serif" font-size="14.00">burn</text>
</g>
<!-- managed_coin::burn&#45;&gt;burn -->
<g id="edge2" class="edge">
<title>managed_coin::burn&#45;&gt;burn</title>
<path fill="none" stroke="black" d="M141.33,-73.12C135.63,-64.61 128.46,-53.94 122,-44.32"/>
<polygon fill="black" stroke="black" points="124.95,-42.43 116.47,-36.08 119.14,-46.33 124.95,-42.43"/>
</g>
<!-- transaction_fee::burn_fee -->
<g id="node4" class="node">
<title>transaction_fee::burn_fee</title>
<ellipse fill="none" stroke="black" cx="58" cy="-173" rx="42.49" ry="18"/>
<text text-anchor="middle" x="58" y="-169.3" font-family="Times,serif" font-size="14.00">burn_fee</text>
</g>
<!-- transaction_fee::burn_fee&#45;&gt;burn_from -->
<g id="edge3" class="edge">
<title>transaction_fee::burn_fee&#45;&gt;burn_from</title>
<path fill="none" stroke="black" d="M58,-154.82C58,-144.69 58,-131.6 58,-119.92"/>
<polygon fill="black" stroke="black" points="61.5,-119.95 58,-109.95 54.5,-119.95 61.5,-119.95"/>
</g>
<!-- transaction_validation::epilogue -->
<g id="node5" class="node">
<title>transaction_validation::epilogue</title>
<ellipse fill="none" stroke="black" cx="58" cy="-256" rx="40.89" ry="18"/>
<text text-anchor="middle" x="58" y="-252.3" font-family="Times,serif" font-size="14.00">epilogue</text>
</g>
<!-- transaction_validation::epilogue&#45;&gt;transaction_fee::burn_fee -->
<g id="edge4" class="edge">
<title>transaction_validation::epilogue&#45;&gt;transaction_fee::burn_fee</title>
<path fill="none" stroke="black" d="M58,-237.82C58,-227.69 58,-214.6 58,-202.92"/>
<polygon fill="black" stroke="black" points="61.5,-202.95 58,-192.95 54.5,-202.95 61.5,-202.95"/>
</g>
</g>
</svg>
