<?xml version="1.0" encoding="UTF-8" standalone="no"?>
<!DOCTYPE svg PUBLIC "-//W3C//DTD SVG 1.1//EN"
 "http://www.w3.org/Graphics/SVG/1.1/DTD/svg11.dtd">
<!-- Generated by graphviz version 7.0.0 (20221023.0053)
 -->
<!-- Title: G Pages: 1 -->
<svg width="2878pt" height="543pt"
 viewBox="0.00 0.00 2878.00 543.00" xmlns="http://www.w3.org/2000/svg" xmlns:xlink="http://www.w3.org/1999/xlink">
<g id="graph0" class="graph" transform="scale(1 1) rotate(0) translate(4 539)">
<title>G</title>
<polygon fill="white" stroke="none" points="-4,4 -4,-539 2874,-539 2874,4 -4,4"/>
<g id="clust1" class="cluster">
<title>cluster_aptos_coin</title>
<polygon fill="none" stroke="black" points="570,-64 570,-139 879,-139 879,-64 570,-64"/>
<text text-anchor="middle" x="724.5" y="-123.8" font-family="Times,serif" font-size="14.00">aptos_coin</text>
</g>
<g id="clust2" class="cluster">
<title>cluster_stake</title>
<polygon fill="none" stroke="black" points="887,-64 887,-139 991,-139 991,-64 887,-64"/>
<text text-anchor="middle" x="939" y="-123.8" font-family="Times,serif" font-size="14.00">stake</text>
</g>
<g id="clust3" class="cluster">
<title>cluster_staking_contract</title>
<polygon fill="none" stroke="black" points="1069,-64 1069,-305 1645,-305 1645,-64 1069,-64"/>
<text text-anchor="middle" x="1357" y="-289.8" font-family="Times,serif" font-size="14.00">staking_contract</text>
</g>
<g id="clust4" class="cluster">
<title>cluster_vesting</title>
<polygon fill="none" stroke="black" points="1653,-230 1653,-452 2355,-452 2355,-230 1653,-230"/>
<text text-anchor="middle" x="2004" y="-436.8" font-family="Times,serif" font-size="14.00">vesting</text>
</g>
<g id="clust5" class="cluster">
<title>cluster_managed_coin</title>
<polygon fill="none" stroke="black" points="1653,-64 1653,-139 1749,-139 1749,-64 1653,-64"/>
<text text-anchor="middle" x="1701" y="-123.8" font-family="Times,serif" font-size="14.00">managed_coin</text>
</g>
<g id="clust6" class="cluster">
<title>cluster_aptos_account</title>
<polygon fill="none" stroke="black" points="8,-147 8,-222 102,-222 102,-147 8,-147"/>
<text text-anchor="middle" x="55" y="-206.8" font-family="Times,serif" font-size="14.00">aptos_account</text>
</g>
<g id="clust7" class="cluster">
<title>cluster_resource_account</title>
<polygon fill="none" stroke="black" points="110,-147 110,-222 396,-222 396,-147 110,-147"/>
<text text-anchor="middle" x="253" y="-206.8" font-family="Times,serif" font-size="14.00">resource_account</text>
</g>
<g id="clust8" class="cluster">
<title>cluster_genesis</title>
<polygon fill="none" stroke="black" points="404,-147 404,-527 956,-527 956,-147 404,-147"/>
<text text-anchor="middle" x="680" y="-511.8" font-family="Times,serif" font-size="14.00">genesis</text>
</g>
<g id="clust9" class="cluster">
<title>cluster_staking_proxy</title>
<polygon fill="none" stroke="black" points="2363,-377 2363,-527 2862,-527 2862,-377 2363,-377"/>
<text text-anchor="middle" x="2612.5" y="-511.8" font-family="Times,serif" font-size="14.00">staking_proxy</text>
</g>
<!-- deposit -->
<g id="node1" class="node">
<title>deposit</title>
<ellipse fill="none" stroke="black" cx="975" cy="-18" rx="36.29" ry="18"/>
<text text-anchor="middle" x="975" y="-14.3" font-family="Times,serif" font-size="14.00">deposit</text>
</g>
<!-- transfer -->
<g id="node2" class="node">
<title>transfer</title>
<ellipse fill="none" stroke="black" cx="253" cy="-90" rx="37.89" ry="18"/>
<text text-anchor="middle" x="253" y="-86.3" font-family="Times,serif" font-size="14.00">transfer</text>
</g>
<!-- transfer&#45;&gt;deposit -->
<g id="edge1" class="edge">
<title>transfer&#45;&gt;deposit</title>
<path fill="none" stroke="black" d="M290.05,-85.41C410.98,-73.68 794.13,-36.54 928.16,-23.54"/>
<polygon fill="black" stroke="black" points="928.48,-27.03 938.09,-22.58 927.8,-20.06 928.48,-27.03"/>
</g>
<!-- aptos_coin::mint -->
<g id="node3" class="node">
<title>aptos_coin::mint</title>
<ellipse fill="none" stroke="black" cx="605" cy="-90" rx="27.1" ry="18"/>
<text text-anchor="middle" x="605" y="-86.3" font-family="Times,serif" font-size="14.00">mint</text>
</g>
<!-- aptos_coin::mint&#45;&gt;deposit -->
<g id="edge2" class="edge">
<title>aptos_coin::mint&#45;&gt;deposit</title>
<path fill="none" stroke="black" d="M621.4,-75.54C627.53,-71.18 634.76,-66.76 642,-64 738.55,-27.19 860.9,-19.77 927.13,-18.7"/>
<polygon fill="black" stroke="black" points="926.96,-22.2 936.92,-18.59 926.88,-15.2 926.96,-22.2"/>
</g>
<!-- aptos_coin::configure_accounts_for_test -->
<g id="node4" class="node">
<title>aptos_coin::configure_accounts_for_test</title>
<ellipse fill="none" stroke="black" cx="761" cy="-90" rx="110.48" ry="18"/>
<text text-anchor="middle" x="761" y="-86.3" font-family="Times,serif" font-size="14.00">configure_accounts_for_test</text>
</g>
<!-- aptos_coin::configure_accounts_for_test&#45;&gt;deposit -->
<g id="edge3" class="edge">
<title>aptos_coin::configure_accounts_for_test&#45;&gt;deposit</title>
<path fill="none" stroke="black" d="M808.76,-73.38C846.6,-61 898.89,-43.9 934.65,-32.2"/>
<polygon fill="black" stroke="black" points="935.34,-35.66 943.75,-29.22 933.16,-29 935.34,-35.66"/>
</g>
<!-- stake::withdraw -->
<g id="node5" class="node">
<title>stake::withdraw</title>
<ellipse fill="none" stroke="black" cx="939" cy="-90" rx="44.39" ry="18"/>
<text text-anchor="middle" x="939" y="-86.3" font-family="Times,serif" font-size="14.00">withdraw</text>
</g>
<!-- stake::withdraw&#45;&gt;deposit -->
<g id="edge4" class="edge">
<title>stake::withdraw&#45;&gt;deposit</title>
<path fill="none" stroke="black" d="M947.71,-72.05C951.74,-64.23 956.62,-54.75 961.13,-45.98"/>
<polygon fill="black" stroke="black" points="964.21,-47.63 965.67,-37.13 957.99,-44.43 964.21,-47.63"/>
</g>
<!-- staking_contract::distribute_internal -->
<g id="node6" class="node">
<title>staking_contract::distribute_internal</title>
<ellipse fill="none" stroke="black" cx="1320" cy="-90" rx="75.29" ry="18"/>
<text text-anchor="middle" x="1320" y="-86.3" font-family="Times,serif" font-size="14.00">distribute_internal</text>
</g>
<!-- staking_contract::distribute_internal&#45;&gt;deposit -->
<g id="edge5" class="edge">
<title>staking_contract::distribute_internal&#45;&gt;deposit</title>
<path fill="none" stroke="black" d="M1263.8,-77.6C1195.5,-63.74 1081.65,-40.64 1019.25,-27.98"/>
<polygon fill="black" stroke="black" points="1020.2,-24.6 1009.71,-26.04 1018.81,-31.46 1020.2,-24.6"/>
</g>
<!-- vesting::distribute -->
<g id="node7" class="node">
<title>vesting::distribute</title>
<ellipse fill="none" stroke="black" cx="1865" cy="-331" rx="44.39" ry="18"/>
<text text-anchor="middle" x="1865" y="-327.3" font-family="Times,serif" font-size="14.00">distribute</text>
</g>
<!-- vesting::distribute&#45;&gt;deposit -->
<g id="edge6" class="edge">
<title>vesting::distribute&#45;&gt;deposit</title>
<path fill="none" stroke="black" d="M1833.15,-318.09C1826.27,-315.99 1818.96,-314.13 1812,-313 1791.52,-309.68 1081.08,-318.12 1065,-305 1022.55,-270.36 1037.17,-113.17 1013,-64 1009.28,-56.43 1004.01,-49.06 998.58,-42.56"/>
<polygon fill="black" stroke="black" points="1001.47,-40.55 992.2,-35.41 996.25,-45.21 1001.47,-40.55"/>
</g>
<!-- vesting::withdraw_stake -->
<g id="node21" class="node">
<title>vesting::withdraw_stake</title>
<ellipse fill="none" stroke="black" cx="1732" cy="-256" rx="66.09" ry="18"/>
<text text-anchor="middle" x="1732" y="-252.3" font-family="Times,serif" font-size="14.00">withdraw_stake</text>
</g>
<!-- vesting::distribute&#45;&gt;vesting::withdraw_stake -->
<g id="edge27" class="edge">
<title>vesting::distribute&#45;&gt;vesting::withdraw_stake</title>
<path fill="none" stroke="black" d="M1839.36,-315.92C1819.81,-305.19 1792.57,-290.24 1770.42,-278.09"/>
<polygon fill="black" stroke="black" points="1772.11,-275.02 1761.65,-273.28 1768.74,-281.16 1772.11,-275.02"/>
</g>
<!-- vesting::admin_withdraw -->
<g id="node8" class="node">
<title>vesting::admin_withdraw</title>
<ellipse fill="none" stroke="black" cx="1732" cy="-331" rx="70.69" ry="18"/>
<text text-anchor="middle" x="1732" y="-327.3" font-family="Times,serif" font-size="14.00">admin_withdraw</text>
</g>
<!-- vesting::admin_withdraw&#45;&gt;deposit -->
<g id="edge7" class="edge">
<title>vesting::admin_withdraw&#45;&gt;deposit</title>
<path fill="none" stroke="black" d="M1661.23,-329.85C1488.6,-329.17 1058.23,-325.42 1035,-305 953.45,-233.32 1026.19,-168 995,-64 993.19,-57.96 990.76,-51.67 988.22,-45.76"/>
<polygon fill="black" stroke="black" points="991.6,-44.74 984.27,-37.08 985.23,-47.64 991.6,-44.74"/>
</g>
<!-- vesting::admin_withdraw&#45;&gt;vesting::withdraw_stake -->
<g id="edge28" class="edge">
<title>vesting::admin_withdraw&#45;&gt;vesting::withdraw_stake</title>
<path fill="none" stroke="black" d="M1732,-312.7C1732,-304.67 1732,-294.9 1732,-285.8"/>
<polygon fill="black" stroke="black" points="1735.5,-285.94 1732,-275.94 1728.5,-285.94 1735.5,-285.94"/>
</g>
<!-- managed_coin::mint -->
<g id="node9" class="node">
<title>managed_coin::mint</title>
<ellipse fill="none" stroke="black" cx="1688" cy="-90" rx="27.1" ry="18"/>
<text text-anchor="middle" x="1688" y="-86.3" font-family="Times,serif" font-size="14.00">mint</text>
</g>
<!-- managed_coin::mint&#45;&gt;deposit -->
<g id="edge8" class="edge">
<title>managed_coin::mint&#45;&gt;deposit</title>
<path fill="none" stroke="black" d="M1671.1,-75.53C1664.57,-71.06 1656.79,-66.57 1649,-64 1532.64,-25.65 1157.23,-19.92 1023.15,-19.12"/>
<polygon fill="black" stroke="black" points="1023.22,-15.62 1013.2,-19.06 1023.18,-22.62 1023.22,-15.62"/>
</g>
<!-- aptos_account::transfer -->
<g id="node10" class="node">
<title>aptos_account::transfer</title>
<ellipse fill="none" stroke="black" cx="56" cy="-173" rx="37.89" ry="18"/>
<text text-anchor="middle" x="56" y="-169.3" font-family="Times,serif" font-size="14.00">transfer</text>
</g>
<!-- aptos_account::transfer&#45;&gt;transfer -->
<g id="edge9" class="edge">
<title>aptos_account::transfer&#45;&gt;transfer</title>
<path fill="none" stroke="black" d="M80.69,-159.04C88.69,-155.01 97.65,-150.67 106,-147 141.36,-131.47 182.52,-116.01 212.28,-105.28"/>
<polygon fill="black" stroke="black" points="213.43,-108.58 221.66,-101.92 211.07,-101.99 213.43,-108.58"/>
</g>
<!-- resource_account::create_resource_account_and_fund -->
<g id="node11" class="node">
<title>resource_account::create_resource_account_and_fund</title>
<ellipse fill="none" stroke="black" cx="253" cy="-173" rx="135.38" ry="18"/>
<text text-anchor="middle" x="253" y="-169.3" font-family="Times,serif" font-size="14.00">create_resource_account_and_fund</text>
</g>
<!-- resource_account::create_resource_account_and_fund&#45;&gt;transfer -->
<g id="edge10" class="edge">
<title>resource_account::create_resource_account_and_fund&#45;&gt;transfer</title>
<path fill="none" stroke="black" d="M253,-154.82C253,-144.69 253,-131.6 253,-119.92"/>
<polygon fill="black" stroke="black" points="256.5,-119.95 253,-109.95 249.5,-119.95 256.5,-119.95"/>
</g>
<!-- genesis::create_account -->
<g id="node12" class="node">
<title>genesis::create_account</title>
<ellipse fill="none" stroke="black" cx="605" cy="-173" rx="63.89" ry="18"/>
<text text-anchor="middle" x="605" y="-169.3" font-family="Times,serif" font-size="14.00">create_account</text>
</g>
<!-- genesis::create_account&#45;&gt;aptos_coin::mint -->
<g id="edge11" class="edge">
<title>genesis::create_account&#45;&gt;aptos_coin::mint</title>
<path fill="none" stroke="black" d="M605,-154.82C605,-144.69 605,-131.6 605,-119.92"/>
<polygon fill="black" stroke="black" points="608.5,-119.95 605,-109.95 601.5,-119.95 608.5,-119.95"/>
</g>
<!-- genesis::initialize_core_resources_and_aptos_coin -->
<g id="node13" class="node">
<title>genesis::initialize_core_resources_and_aptos_coin</title>
<ellipse fill="none" stroke="black" cx="790" cy="-478" rx="157.87" ry="18"/>
<text text-anchor="middle" x="790" y="-474.3" font-family="Times,serif" font-size="14.00">initialize_core_resources_and_aptos_coin</text>
</g>
<!-- genesis::initialize_core_resources_and_aptos_coin&#45;&gt;aptos_coin::configure_accounts_for_test -->
<g id="edge12" class="edge">
<title>genesis::initialize_core_resources_and_aptos_coin&#45;&gt;aptos_coin::configure_accounts_for_test</title>
<path fill="none" stroke="black" d="M791.58,-459.61C793.91,-432.41 798,-378.14 798,-332 798,-332 798,-332 798,-255 798,-206.39 782.34,-151.62 771.4,-119.27"/>
<polygon fill="black" stroke="black" points="774.71,-118.14 768.11,-109.85 768.1,-120.45 774.71,-118.14"/>
</g>
<!-- staking_contract::distribute -->
<g id="node14" class="node">
<title>staking_contract::distribute</title>
<ellipse fill="none" stroke="black" cx="1439" cy="-173" rx="44.39" ry="18"/>
<text text-anchor="middle" x="1439" y="-169.3" font-family="Times,serif" font-size="14.00">distribute</text>
</g>
<!-- staking_contract::distribute&#45;&gt;staking_contract::distribute_internal -->
<g id="edge13" class="edge">
<title>staking_contract::distribute&#45;&gt;staking_contract::distribute_internal</title>
<path fill="none" stroke="black" d="M1416.9,-156.95C1399.11,-144.84 1373.81,-127.63 1353.53,-113.82"/>
<polygon fill="black" stroke="black" points="1355.52,-110.94 1345.28,-108.21 1351.58,-116.73 1355.52,-110.94"/>
</g>
<!-- staking_contract::request_commission -->
<g id="node15" class="node">
<title>staking_contract::request_commission</title>
<ellipse fill="none" stroke="black" cx="1161" cy="-173" rx="83.69" ry="18"/>
<text text-anchor="middle" x="1161" y="-169.3" font-family="Times,serif" font-size="14.00">request_commission</text>
</g>
<!-- staking_contract::request_commission&#45;&gt;staking_contract::distribute_internal -->
<g id="edge14" class="edge">
<title>staking_contract::request_commission&#45;&gt;staking_contract::distribute_internal</title>
<path fill="none" stroke="black" d="M1192.41,-156C1217.21,-143.36 1252.01,-125.64 1279,-111.89"/>
<polygon fill="black" stroke="black" points="1280.25,-115.18 1287.57,-107.52 1277.08,-108.94 1280.25,-115.18"/>
</g>
<!-- staking_contract::switch_operator -->
<g id="node16" class="node">
<title>staking_contract::switch_operator</title>
<ellipse fill="none" stroke="black" cx="1569" cy="-173" rx="67.69" ry="18"/>
<text text-anchor="middle" x="1569" y="-169.3" font-family="Times,serif" font-size="14.00">switch_operator</text>
</g>
<!-- staking_contract::switch_operator&#45;&gt;staking_contract::distribute_internal -->
<g id="edge15" class="edge">
<title>staking_contract::switch_operator&#45;&gt;staking_contract::distribute_internal</title>
<path fill="none" stroke="black" d="M1527.32,-158.44C1485.28,-144.77 1420.18,-123.59 1374.17,-108.62"/>
<polygon fill="black" stroke="black" points="1375.52,-105.38 1364.93,-105.61 1373.35,-112.04 1375.52,-105.38"/>
</g>
<!-- staking_contract::unlock_stake -->
<g id="node17" class="node">
<title>staking_contract::unlock_stake</title>
<ellipse fill="none" stroke="black" cx="1320" cy="-173" rx="57.39" ry="18"/>
<text text-anchor="middle" x="1320" y="-169.3" font-family="Times,serif" font-size="14.00">unlock_stake</text>
</g>
<!-- staking_contract::unlock_stake&#45;&gt;staking_contract::distribute_internal -->
<g id="edge16" class="edge">
<title>staking_contract::unlock_stake&#45;&gt;staking_contract::distribute_internal</title>
<path fill="none" stroke="black" d="M1320,-154.82C1320,-144.69 1320,-131.6 1320,-119.92"/>
<polygon fill="black" stroke="black" points="1323.5,-119.95 1320,-109.95 1316.5,-119.95 1323.5,-119.95"/>
</g>
<!-- vesting::terminate_vesting_contract -->
<g id="node18" class="node">
<title>vesting::terminate_vesting_contract</title>
<ellipse fill="none" stroke="black" cx="1832" cy="-403" rx="106.68" ry="18"/>
<text text-anchor="middle" x="1832" y="-399.3" font-family="Times,serif" font-size="14.00">terminate_vesting_contract</text>
</g>
<!-- vesting::terminate_vesting_contract&#45;&gt;vesting::distribute -->
<g id="edge17" class="edge">
<title>vesting::terminate_vesting_contract&#45;&gt;vesting::distribute</title>
<path fill="none" stroke="black" d="M1840.16,-384.7C1843.75,-377.07 1848.07,-367.92 1852.08,-359.4"/>
<polygon fill="black" stroke="black" points="1855.19,-361.01 1856.29,-350.47 1848.86,-358.03 1855.19,-361.01"/>
</g>
<!-- vesting::unlock_stake -->
<g id="node26" class="node">
<title>vesting::unlock_stake</title>
<ellipse fill="none" stroke="black" cx="1984" cy="-331" rx="57.39" ry="18"/>
<text text-anchor="middle" x="1984" y="-327.3" font-family="Times,serif" font-size="14.00">unlock_stake</text>
</g>
<!-- vesting::terminate_vesting_contract&#45;&gt;vesting::unlock_stake -->
<g id="edge33" class="edge">
<title>vesting::terminate_vesting_contract&#45;&gt;vesting::unlock_stake</title>
<path fill="none" stroke="black" d="M1867.64,-385.59C1890.01,-375.29 1918.95,-361.96 1942.38,-351.17"/>
<polygon fill="black" stroke="black" points="1943.71,-354.41 1951.33,-347.04 1940.79,-348.05 1943.71,-354.41"/>
</g>
<!-- genesis::create_accounts -->
<g id="node19" class="node">
<title>genesis::create_accounts</title>
<ellipse fill="none" stroke="black" cx="479" cy="-256" rx="66.89" ry="18"/>
<text text-anchor="middle" x="479" y="-252.3" font-family="Times,serif" font-size="14.00">create_accounts</text>
</g>
<!-- genesis::create_accounts&#45;&gt;genesis::create_account -->
<g id="edge18" class="edge">
<title>genesis::create_accounts&#45;&gt;genesis::create_account</title>
<path fill="none" stroke="black" d="M503.89,-239C522.96,-226.74 549.49,-209.68 570.59,-196.12"/>
<polygon fill="black" stroke="black" points="572.37,-199.14 578.89,-190.79 568.58,-193.25 572.37,-199.14"/>
</g>
<!-- genesis::create_initialize_validator -->
<g id="node20" class="node">
<title>genesis::create_initialize_validator</title>
<ellipse fill="none" stroke="black" cx="667" cy="-256" rx="102.88" ry="18"/>
<text text-anchor="middle" x="667" y="-252.3" font-family="Times,serif" font-size="14.00">create_initialize_validator</text>
</g>
<!-- genesis::create_initialize_validator&#45;&gt;genesis::create_account -->
<g id="edge19" class="edge">
<title>genesis::create_initialize_validator&#45;&gt;genesis::create_account</title>
<path fill="none" stroke="black" d="M653.85,-237.82C645.41,-226.79 634.29,-212.27 624.79,-199.86"/>
<polygon fill="black" stroke="black" points="627.69,-197.89 618.84,-192.08 622.14,-202.15 627.69,-197.89"/>
</g>
<!-- vesting::withdraw_stake&#45;&gt;staking_contract::distribute -->
<g id="edge20" class="edge">
<title>vesting::withdraw_stake&#45;&gt;staking_contract::distribute</title>
<path fill="none" stroke="black" d="M1692.78,-241.07C1679.1,-236.77 1663.53,-232.52 1649,-230 1614.58,-224.03 1524.27,-235.39 1492,-222 1479.84,-216.95 1468.65,-207.84 1459.72,-198.91"/>
<polygon fill="black" stroke="black" points="1462.31,-196.55 1452.93,-191.64 1457.2,-201.33 1462.31,-196.55"/>
</g>
<!-- staking_contract::switch_operator_with_same_commission -->
<g id="node22" class="node">
<title>staking_contract::switch_operator_with_same_commission</title>
<ellipse fill="none" stroke="black" cx="1479" cy="-256" rx="157.87" ry="18"/>
<text text-anchor="middle" x="1479" y="-252.3" font-family="Times,serif" font-size="14.00">switch_operator_with_same_commission</text>
</g>
<!-- staking_contract::switch_operator_with_same_commission&#45;&gt;staking_contract::switch_operator -->
<g id="edge21" class="edge">
<title>staking_contract::switch_operator_with_same_commission&#45;&gt;staking_contract::switch_operator</title>
<path fill="none" stroke="black" d="M1498.09,-237.82C1510.91,-226.28 1527.98,-210.92 1542.16,-198.15"/>
<polygon fill="black" stroke="black" points="1544.34,-200.9 1549.43,-191.61 1539.66,-195.7 1544.34,-200.9"/>
</g>
<!-- vesting::update_operator -->
<g id="node23" class="node">
<title>vesting::update_operator</title>
<ellipse fill="none" stroke="black" cx="2279" cy="-331" rx="67.69" ry="18"/>
<text text-anchor="middle" x="2279" y="-327.3" font-family="Times,serif" font-size="14.00">update_operator</text>
</g>
<!-- vesting::update_operator&#45;&gt;staking_contract::switch_operator -->
<g id="edge22" class="edge">
<title>vesting::update_operator&#45;&gt;staking_contract::switch_operator</title>
<path fill="none" stroke="black" d="M2228.06,-318.74C2219.36,-316.83 2210.42,-314.85 2202,-313 1992.72,-266.92 1744.47,-212.47 1631.07,-187.61"/>
<polygon fill="black" stroke="black" points="1631.87,-184.2 1621.35,-185.48 1630.37,-191.04 1631.87,-184.2"/>
</g>
<!-- staking_proxy::set_staking_contract_operator -->
<g id="node24" class="node">
<title>staking_proxy::set_staking_contract_operator</title>
<ellipse fill="none" stroke="black" cx="2738" cy="-403" rx="116.18" ry="18"/>
<text text-anchor="middle" x="2738" y="-399.3" font-family="Times,serif" font-size="14.00">set_staking_contract_operator</text>
</g>
<!-- staking_proxy::set_staking_contract_operator&#45;&gt;staking_contract::switch_operator -->
<g id="edge23" class="edge">
<title>staking_proxy::set_staking_contract_operator&#45;&gt;staking_contract::switch_operator</title>
<path fill="none" stroke="black" d="M2710.27,-385.2C2649.32,-349.25 2498.03,-265.26 2359,-230 2225.96,-196.26 1819.98,-181.09 1647.67,-176.04"/>
<polygon fill="black" stroke="black" points="1648.02,-172.55 1637.93,-175.76 1647.82,-179.55 1648.02,-172.55"/>
</g>
<!-- staking_contract::unlock_rewards -->
<g id="node25" class="node">
<title>staking_contract::unlock_rewards</title>
<ellipse fill="none" stroke="black" cx="1236" cy="-256" rx="66.89" ry="18"/>
<text text-anchor="middle" x="1236" y="-252.3" font-family="Times,serif" font-size="14.00">unlock_rewards</text>
</g>
<!-- staking_contract::unlock_rewards&#45;&gt;staking_contract::unlock_stake -->
<g id="edge24" class="edge">
<title>staking_contract::unlock_rewards&#45;&gt;staking_contract::unlock_stake</title>
<path fill="none" stroke="black" d="M1253.4,-238.22C1265.42,-226.63 1281.59,-211.04 1294.98,-198.12"/>
<polygon fill="black" stroke="black" points="1297.05,-201 1301.82,-191.54 1292.19,-195.96 1297.05,-201"/>
</g>
<!-- vesting::unlock_stake&#45;&gt;staking_contract::unlock_stake -->
<g id="edge25" class="edge">
<title>vesting::unlock_stake&#45;&gt;staking_contract::unlock_stake</title>
<path fill="none" stroke="black" d="M1943.46,-317.92C1935.11,-315.9 1926.33,-314.1 1918,-313 1907.56,-311.62 1167.41,-312.48 1160,-305 1136.55,-281.31 1137.45,-254.55 1160,-230 1174.18,-214.56 1234.36,-229.32 1254,-222 1268.56,-216.57 1282.76,-206.98 1294.23,-197.8"/>
<polygon fill="black" stroke="black" points="1296.24,-200.69 1301.65,-191.58 1291.74,-195.32 1296.24,-200.69"/>
</g>
<!-- genesis::create_initialize_validators_with_commission -->
<g id="node27" class="node">
<title>genesis::create_initialize_validators_with_commission</title>
<ellipse fill="none" stroke="black" cx="591" cy="-331" rx="173.57" ry="18"/>
<text text-anchor="middle" x="591" y="-327.3" font-family="Times,serif" font-size="14.00">create_initialize_validators_with_commission</text>
</g>
<!-- genesis::create_initialize_validators_with_commission&#45;&gt;genesis::create_initialize_validator -->
<g id="edge26" class="edge">
<title>genesis::create_initialize_validators_with_commission&#45;&gt;genesis::create_initialize_validator</title>
<path fill="none" stroke="black" d="M609.01,-312.7C618.57,-303.52 630.49,-292.07 641.03,-281.94"/>
<polygon fill="black" stroke="black" points="643.24,-284.68 648.03,-275.22 638.39,-279.63 643.24,-284.68"/>
</g>
<!-- vesting::update_operator_with_same_commission -->
<g id="node28" class="node">
<title>vesting::update_operator_with_same_commission</title>
<ellipse fill="none" stroke="black" cx="2188" cy="-403" rx="158.67" ry="18"/>
<text text-anchor="middle" x="2188" y="-399.3" font-family="Times,serif" font-size="14.00">update_operator_with_same_commission</text>
</g>
<!-- vesting::update_operator_with_same_commission&#45;&gt;vesting::update_operator -->
<g id="edge29" class="edge">
<title>vesting::update_operator_with_same_commission&#45;&gt;vesting::update_operator</title>
<path fill="none" stroke="black" d="M2210.49,-384.7C2221.99,-375.86 2236.14,-364.97 2248.59,-355.4"/>
<polygon fill="black" stroke="black" points="2250.71,-358.18 2256.5,-349.31 2246.44,-352.63 2250.71,-358.18"/>
</g>
<!-- staking_proxy::set_vesting_contract_operator -->
<g id="node29" class="node">
<title>staking_proxy::set_vesting_contract_operator</title>
<ellipse fill="none" stroke="black" cx="2487" cy="-403" rx="116.18" ry="18"/>
<text text-anchor="middle" x="2487" y="-399.3" font-family="Times,serif" font-size="14.00">set_vesting_contract_operator</text>
</g>
<!-- staking_proxy::set_vesting_contract_operator&#45;&gt;vesting::update_operator -->
<g id="edge30" class="edge">
<title>staking_proxy::set_vesting_contract_operator&#45;&gt;vesting::update_operator</title>
<path fill="none" stroke="black" d="M2439.8,-386.12C2407.14,-375.12 2363.69,-360.5 2330.19,-349.23"/>
<polygon fill="black" stroke="black" points="2331.72,-346.05 2321.13,-346.18 2329.49,-352.69 2331.72,-346.05"/>
</g>
<!-- staking_proxy::set_operator -->
<g id="node30" class="node">
<title>staking_proxy::set_operator</title>
<ellipse fill="none" stroke="black" cx="2612" cy="-478" rx="53.89" ry="18"/>
<text text-anchor="middle" x="2612" y="-474.3" font-family="Times,serif" font-size="14.00">set_operator</text>
</g>
<!-- staking_proxy::set_operator&#45;&gt;staking_proxy::set_staking_contract_operator -->
<g id="edge31" class="edge">
<title>staking_proxy::set_operator&#45;&gt;staking_proxy::set_staking_contract_operator</title>
<path fill="none" stroke="black" d="M2638.11,-461.87C2655.66,-451.7 2679.12,-438.11 2698.89,-426.66"/>
<polygon fill="black" stroke="black" points="2700.64,-429.69 2707.53,-421.65 2697.13,-423.64 2700.64,-429.69"/>
</g>
<!-- staking_proxy::set_operator&#45;&gt;staking_proxy::set_vesting_contract_operator -->
<g id="edge36" class="edge">
<title>staking_proxy::set_operator&#45;&gt;staking_proxy::set_vesting_contract_operator</title>
<path fill="none" stroke="black" d="M2586.1,-461.87C2568.68,-451.7 2545.41,-438.11 2525.8,-426.66"/>
<polygon fill="black" stroke="black" points="2527.63,-423.68 2517.23,-421.66 2524.1,-429.72 2527.63,-423.68"/>
</g>
<!-- vesting::unlock_rewards -->
<g id="node31" class="node">
<title>vesting::unlock_rewards</title>
<ellipse fill="none" stroke="black" cx="2126" cy="-331" rx="66.89" ry="18"/>
<text text-anchor="middle" x="2126" y="-327.3" font-family="Times,serif" font-size="14.00">unlock_rewards</text>
</g>
<!-- vesting::unlock_rewards&#45;&gt;staking_contract::unlock_rewards -->
<g id="edge32" class="edge">
<title>vesting::unlock_rewards&#45;&gt;staking_contract::unlock_rewards</title>
<path fill="none" stroke="black" d="M2078.83,-317.84C2069.34,-315.86 2059.4,-314.09 2050,-313 2009.27,-308.28 1351.32,-316.61 1312,-305 1295.02,-299.99 1278.16,-289.99 1264.65,-280.41"/>
<polygon fill="black" stroke="black" points="1266.79,-277.63 1256.67,-274.49 1262.62,-283.26 1266.79,-277.63"/>
</g>
<!-- vesting::vest -->
<g id="node32" class="node">
<title>vesting::vest</title>
<ellipse fill="none" stroke="black" cx="1984" cy="-403" rx="27" ry="18"/>
<text text-anchor="middle" x="1984" y="-399.3" font-family="Times,serif" font-size="14.00">vest</text>
</g>
<!-- vesting::vest&#45;&gt;vesting::unlock_stake -->
<g id="edge34" class="edge">
<title>vesting::vest&#45;&gt;vesting::unlock_stake</title>
<path fill="none" stroke="black" d="M1984,-384.7C1984,-377.41 1984,-368.73 1984,-360.54"/>
<polygon fill="black" stroke="black" points="1987.5,-360.62 1984,-350.62 1980.5,-360.62 1987.5,-360.62"/>
</g>
<!-- vesting::vest&#45;&gt;vesting::unlock_rewards -->
<g id="edge37" class="edge">
<title>vesting::vest&#45;&gt;vesting::unlock_rewards</title>
<path fill="none" stroke="black" d="M2001.48,-388.79C2007.22,-384.74 2013.74,-380.46 2020,-377 2038.07,-367.03 2058.81,-357.78 2077.12,-350.3"/>
<polygon fill="black" stroke="black" points="2078.2,-353.63 2086.17,-346.66 2075.59,-347.14 2078.2,-353.63"/>
</g>
<!-- genesis::create_initialize_validators -->
<g id="node33" class="node">
<title>genesis::create_initialize_validators</title>
<ellipse fill="none" stroke="black" cx="552" cy="-403" rx="105.88" ry="18"/>
<text text-anchor="middle" x="552" y="-399.3" font-family="Times,serif" font-size="14.00">create_initialize_validators</text>
</g>
<!-- genesis::create_initialize_validators&#45;&gt;genesis::create_initialize_validators_with_commission -->
<g id="edge35" class="edge">
<title>genesis::create_initialize_validators&#45;&gt;genesis::create_initialize_validators_with_commission</title>
<path fill="none" stroke="black" d="M561.64,-384.7C565.94,-376.98 571.1,-367.71 575.89,-359.11"/>
<polygon fill="black" stroke="black" points="578.92,-360.87 580.73,-350.43 572.81,-357.46 578.92,-360.87"/>
</g>
<!-- genesis::initialize_for_verification -->
<g id="node34" class="node">
<title>genesis::initialize_for_verification</title>
<ellipse fill="none" stroke="black" cx="513" cy="-478" rx="100.98" ry="18"/>
<text text-anchor="middle" x="513" y="-474.3" font-family="Times,serif" font-size="14.00">initialize_for_verification</text>
</g>
<!-- genesis::initialize_for_verification&#45;&gt;genesis::create_initialize_validators -->
<g id="edge38" class="edge">
<title>genesis::initialize_for_verification&#45;&gt;genesis::create_initialize_validators</title>
<path fill="none" stroke="black" d="M522.24,-459.7C526.73,-451.31 532.22,-441.02 537.27,-431.58"/>
<polygon fill="black" stroke="black" points="540.35,-433.23 541.98,-422.76 534.18,-429.93 540.35,-433.23"/>
</g>
</g>
</svg>
