<?xml version="1.0" encoding="UTF-8" standalone="no"?>
<!DOCTYPE svg PUBLIC "-//W3C//DTD SVG 1.1//EN"
 "http://www.w3.org/Graphics/SVG/1.1/DTD/svg11.dtd">
<!-- Generated by graphviz version 7.0.0 (20221023.0053)
 -->
<!-- Title: G Pages: 1 -->
<svg width="2784pt" height="772pt"
 viewBox="0.00 0.00 2784.00 772.00" xmlns="http://www.w3.org/2000/svg" xmlns:xlink="http://www.w3.org/1999/xlink">
<g id="graph0" class="graph" transform="scale(1 1) rotate(0) translate(4 768)">
<title>G</title>
<polygon fill="white" stroke="none" points="-4,4 -4,-768 2780,-768 2780,4 -4,4"/>
<g id="clust1" class="cluster">
<title>cluster_error</title>
<polygon fill="none" stroke="black" points="1647,-8 1647,-166 2358,-166 2358,-8 1647,-8"/>
<text text-anchor="middle" x="2002.5" y="-150.8" font-family="Times,serif" font-size="14.00">error</text>
</g>
<g id="clust2" class="cluster">
<title>cluster_system_addresses</title>
<polygon fill="none" stroke="black" points="2366,-91 2366,-249 2610,-249 2610,-91 2366,-91"/>
<text text-anchor="middle" x="2488" y="-233.8" font-family="Times,serif" font-size="14.00">system_addresses</text>
</g>
<g id="clust3" class="cluster">
<title>cluster_reconfiguration</title>
<polygon fill="none" stroke="black" points="1507,-570 1507,-720 1717,-720 1717,-570 1507,-570"/>
<text text-anchor="middle" x="1612" y="-704.8" font-family="Times,serif" font-size="14.00">reconfiguration</text>
</g>
<g id="clust4" class="cluster">
<title>cluster_signer</title>
<polygon fill="none" stroke="black" points="2618,-8 2618,-166 2768,-166 2768,-8 2618,-8"/>
<text text-anchor="middle" x="2693" y="-150.8" font-family="Times,serif" font-size="14.00">signer</text>
</g>
<g id="clust5" class="cluster">
<title>cluster_event</title>
<polygon fill="none" stroke="black" points="1394,-340 1394,-498 1580,-498 1580,-340 1394,-340"/>
<text text-anchor="middle" x="1487" y="-482.8" font-family="Times,serif" font-size="14.00">event</text>
</g>
<g id="clust6" class="cluster">
<title>cluster_chain_status</title>
<polygon fill="none" stroke="black" points="1939,-570 1939,-645 2049,-645 2049,-570 1939,-570"/>
<text text-anchor="middle" x="1994" y="-629.8" font-family="Times,serif" font-size="14.00">chain_status</text>
</g>
<g id="clust7" class="cluster">
<title>cluster_timestamp</title>
<polygon fill="none" stroke="black" points="1212,-340 1212,-498 1386,-498 1386,-340 1212,-340"/>
<text text-anchor="middle" x="1299" y="-482.8" font-family="Times,serif" font-size="14.00">timestamp</text>
</g>
<g id="clust8" class="cluster">
<title>cluster_stake</title>
<polygon fill="none" stroke="black" points="8,-340 8,-645 476,-645 476,-340 8,-340"/>
<text text-anchor="middle" x="242" y="-629.8" font-family="Times,serif" font-size="14.00">stake</text>
</g>
<g id="clust9" class="cluster">
<title>cluster_storage_gas</title>
<polygon fill="none" stroke="black" points="1105,-8 1105,-332 1639,-332 1639,-8 1105,-8"/>
<text text-anchor="middle" x="1372" y="-316.8" font-family="Times,serif" font-size="14.00">storage_gas</text>
</g>
<g id="clust10" class="cluster">
<title>cluster_bcs</title>
<polygon fill="none" stroke="black" points="1588,-340 1588,-415 1684,-415 1684,-340 1588,-340"/>
<text text-anchor="middle" x="1636" y="-399.8" font-family="Times,serif" font-size="14.00">bcs</text>
</g>
<g id="clust11" class="cluster">
<title>cluster_staking_config</title>
<polygon fill="none" stroke="black" points="550,-423 550,-498 1204,-498 1204,-423 550,-423"/>
<text text-anchor="middle" x="877" y="-482.8" font-family="Times,serif" font-size="14.00">staking_config</text>
</g>
<g id="clust12" class="cluster">
<title>cluster_state_storage</title>
<polygon fill="none" stroke="black" points="1647,-174 1647,-249 1861,-249 1861,-174 1647,-174"/>
<text text-anchor="middle" x="1754" y="-233.8" font-family="Times,serif" font-size="14.00">state_storage</text>
</g>
<g id="clust13" class="cluster">
<title>cluster_vector</title>
<polygon fill="none" stroke="black" points="547,-8 547,-83 651,-83 651,-8 547,-8"/>
<text text-anchor="middle" x="599" y="-67.8" font-family="Times,serif" font-size="14.00">vector</text>
</g>
<g id="clust14" class="cluster">
<title>cluster_coin</title>
<polygon fill="none" stroke="black" points="484,-257 484,-415 830,-415 830,-257 484,-257"/>
<text text-anchor="middle" x="657" y="-399.8" font-family="Times,serif" font-size="14.00">coin</text>
</g>
<g id="clust15" class="cluster">
<title>cluster_option</title>
<polygon fill="none" stroke="black" points="726,-91 726,-249 852,-249 852,-91 726,-91"/>
<text text-anchor="middle" x="789" y="-233.8" font-family="Times,serif" font-size="14.00">option</text>
</g>
<g id="clust17" class="cluster">
<title>cluster_aggregator</title>
<polygon fill="none" stroke="black" points="890,-174 890,-249 964,-249 964,-174 890,-174"/>
<text text-anchor="middle" x="927" y="-233.8" font-family="Times,serif" font-size="14.00">aggregator</text>
</g>
<g id="clust18" class="cluster">
<title>cluster_type_info</title>
<polygon fill="none" stroke="black" points="438,-174 438,-249 686,-249 686,-174 438,-174"/>
<text text-anchor="middle" x="562" y="-233.8" font-family="Times,serif" font-size="14.00">type_info</text>
</g>
<g id="clust16" class="cluster">
<title>cluster_optional_aggregator</title>
<polygon fill="none" stroke="black" points="972,-174 972,-332 1097,-332 1097,-174 972,-174"/>
<text text-anchor="middle" x="1034.5" y="-316.8" font-family="Times,serif" font-size="14.00">optional_aggregator</text>
</g>
<!-- set -->
<g id="node1" class="node">
<title>set</title>
<ellipse fill="none" stroke="black" cx="2104" cy="-746" rx="27" ry="18"/>
<text text-anchor="middle" x="2104" y="-742.3" font-family="Times,serif" font-size="14.00">set</text>
</g>
<!-- error::invalid_argument -->
<g id="node2" class="node">
<title>error::invalid_argument</title>
<ellipse fill="none" stroke="black" cx="2104" cy="-117" rx="73.39" ry="18"/>
<text text-anchor="middle" x="2104" y="-113.3" font-family="Times,serif" font-size="14.00">invalid_argument</text>
</g>
<!-- set&#45;&gt;error::invalid_argument -->
<g id="edge1" class="edge">
<title>set&#45;&gt;error::invalid_argument</title>
<path fill="none" stroke="black" d="M2104,-727.68C2104,-700.05 2104,-644.28 2104,-597 2104,-597 2104,-597 2104,-282 2104,-234.54 2104,-179.34 2104,-146.62"/>
<polygon fill="black" stroke="black" points="2107.5,-146.75 2104,-136.75 2100.5,-146.75 2107.5,-146.75"/>
</g>
<!-- system_addresses::assert_aptos_framework -->
<g id="node3" class="node">
<title>system_addresses::assert_aptos_framework</title>
<ellipse fill="none" stroke="black" cx="2479" cy="-200" rx="96.68" ry="18"/>
<text text-anchor="middle" x="2479" y="-196.3" font-family="Times,serif" font-size="14.00">assert_aptos_framework</text>
</g>
<!-- set&#45;&gt;system_addresses::assert_aptos_framework -->
<g id="edge2" class="edge">
<title>set&#45;&gt;system_addresses::assert_aptos_framework</title>
<path fill="none" stroke="black" d="M2129.18,-739.23C2183.32,-725.17 2306,-683.73 2306,-597 2306,-597 2306,-597 2306,-365 2306,-296.08 2379.2,-247.43 2430.37,-221.84"/>
<polygon fill="black" stroke="black" points="2431.77,-225.05 2439.24,-217.54 2428.72,-218.75 2431.77,-225.05"/>
</g>
<!-- reconfiguration::reconfigure -->
<g id="node4" class="node">
<title>reconfiguration::reconfigure</title>
<ellipse fill="none" stroke="black" cx="1635" cy="-671" rx="51.19" ry="18"/>
<text text-anchor="middle" x="1635" y="-667.3" font-family="Times,serif" font-size="14.00">reconfigure</text>
</g>
<!-- set&#45;&gt;reconfiguration::reconfigure -->
<g id="edge3" class="edge">
<title>set&#45;&gt;reconfiguration::reconfigure</title>
<path fill="none" stroke="black" d="M2077.78,-740.92C2004.22,-729.47 1794.65,-696.85 1692.45,-680.94"/>
<polygon fill="black" stroke="black" points="1693.04,-677.49 1682.62,-679.41 1691.96,-684.41 1693.04,-677.49"/>
</g>
<!-- error::canonical -->
<g id="node5" class="node">
<title>error::canonical</title>
<ellipse fill="none" stroke="black" cx="1957" cy="-34" rx="44.39" ry="18"/>
<text text-anchor="middle" x="1957" y="-30.3" font-family="Times,serif" font-size="14.00">canonical</text>
</g>
<!-- error::invalid_argument&#45;&gt;error::canonical -->
<g id="edge4" class="edge">
<title>error::invalid_argument&#45;&gt;error::canonical</title>
<path fill="none" stroke="black" d="M2074.96,-100C2051.28,-86.95 2017.74,-68.47 1992.47,-54.54"/>
<polygon fill="black" stroke="black" points="1994.32,-51.57 1983.87,-49.81 1990.94,-57.7 1994.32,-51.57"/>
</g>
<!-- signer::address_of -->
<g id="node6" class="node">
<title>signer::address_of</title>
<ellipse fill="none" stroke="black" cx="2684" cy="-117" rx="48.99" ry="18"/>
<text text-anchor="middle" x="2684" y="-113.3" font-family="Times,serif" font-size="14.00">address_of</text>
</g>
<!-- system_addresses::assert_aptos_framework&#45;&gt;signer::address_of -->
<g id="edge5" class="edge">
<title>system_addresses::assert_aptos_framework&#45;&gt;signer::address_of</title>
<path fill="none" stroke="black" d="M2548.23,-187.12C2569.85,-182.09 2593.41,-175.21 2614,-166 2628.79,-159.39 2643.79,-149.6 2656.09,-140.58"/>
<polygon fill="black" stroke="black" points="2657.85,-143.64 2663.72,-134.82 2653.63,-138.06 2657.85,-143.64"/>
</g>
<!-- error::permission_denied -->
<g id="node7" class="node">
<title>error::permission_denied</title>
<ellipse fill="none" stroke="black" cx="2273" cy="-117" rx="77.19" ry="18"/>
<text text-anchor="middle" x="2273" y="-113.3" font-family="Times,serif" font-size="14.00">permission_denied</text>
</g>
<!-- system_addresses::assert_aptos_framework&#45;&gt;error::permission_denied -->
<g id="edge6" class="edge">
<title>system_addresses::assert_aptos_framework&#45;&gt;error::permission_denied</title>
<path fill="none" stroke="black" d="M2420.73,-185.27C2401.71,-180.08 2380.68,-173.57 2362,-166 2344.11,-158.76 2325.18,-148.88 2309.39,-139.98"/>
<polygon fill="black" stroke="black" points="2311.24,-137 2300.83,-135.05 2307.75,-143.07 2311.24,-137"/>
</g>
<!-- system_addresses::is_aptos_framework_address -->
<g id="node8" class="node">
<title>system_addresses::is_aptos_framework_address</title>
<ellipse fill="none" stroke="black" cx="2488" cy="-117" rx="113.98" ry="18"/>
<text text-anchor="middle" x="2488" y="-113.3" font-family="Times,serif" font-size="14.00">is_aptos_framework_address</text>
</g>
<!-- system_addresses::assert_aptos_framework&#45;&gt;system_addresses::is_aptos_framework_address -->
<g id="edge7" class="edge">
<title>system_addresses::assert_aptos_framework&#45;&gt;system_addresses::is_aptos_framework_address</title>
<path fill="none" stroke="black" d="M2480.91,-181.82C2482.05,-171.58 2483.52,-158.33 2484.83,-146.55"/>
<polygon fill="black" stroke="black" points="2488.27,-147.26 2485.9,-136.94 2481.31,-146.49 2488.27,-147.26"/>
</g>
<!-- error::invalid_state -->
<g id="node9" class="node">
<title>error::invalid_state</title>
<ellipse fill="none" stroke="black" cx="1957" cy="-117" rx="55.79" ry="18"/>
<text text-anchor="middle" x="1957" y="-113.3" font-family="Times,serif" font-size="14.00">invalid_state</text>
</g>
<!-- reconfiguration::reconfigure&#45;&gt;error::invalid_state -->
<g id="edge8" class="edge">
<title>reconfiguration::reconfigure&#45;&gt;error::invalid_state</title>
<path fill="none" stroke="black" d="M1685.12,-666.71C1766.65,-658.33 1919,-628.8 1919,-525 1919,-525 1919,-525 1919,-282 1919,-233.06 1935.26,-177.98 1946.5,-145.73"/>
<polygon fill="black" stroke="black" points="1949.78,-146.96 1949.87,-136.36 1943.19,-144.59 1949.78,-146.96"/>
</g>
<!-- event::emit_event -->
<g id="node10" class="node">
<title>event::emit_event</title>
<ellipse fill="none" stroke="black" cx="1487" cy="-449" rx="50.09" ry="18"/>
<text text-anchor="middle" x="1487" y="-445.3" font-family="Times,serif" font-size="14.00">emit_event</text>
</g>
<!-- reconfiguration::reconfigure&#45;&gt;event::emit_event -->
<g id="edge9" class="edge">
<title>reconfiguration::reconfigure&#45;&gt;event::emit_event</title>
<path fill="none" stroke="black" d="M1585.14,-666.42C1553.52,-663.04 1516.63,-656.68 1506,-645 1464.45,-599.33 1472.27,-520.4 1480.34,-478.32"/>
<polygon fill="black" stroke="black" points="1483.72,-479.24 1482.32,-468.73 1476.87,-477.81 1483.72,-479.24"/>
</g>
<!-- chain_status::is_genesis -->
<g id="node11" class="node">
<title>chain_status::is_genesis</title>
<ellipse fill="none" stroke="black" cx="1994" cy="-596" rx="46.59" ry="18"/>
<text text-anchor="middle" x="1994" y="-592.3" font-family="Times,serif" font-size="14.00">is_genesis</text>
</g>
<!-- reconfiguration::reconfigure&#45;&gt;chain_status::is_genesis -->
<g id="edge10" class="edge">
<title>reconfiguration::reconfigure&#45;&gt;chain_status::is_genesis</title>
<path fill="none" stroke="black" d="M1686.4,-669.23C1759.5,-667.54 1889.46,-662.15 1933,-645 1946.71,-639.6 1959.84,-630.05 1970.39,-620.89"/>
<polygon fill="black" stroke="black" points="1972.46,-623.73 1977.47,-614.4 1967.73,-618.57 1972.46,-623.73"/>
</g>
<!-- timestamp::now_microseconds -->
<g id="node12" class="node">
<title>timestamp::now_microseconds</title>
<ellipse fill="none" stroke="black" cx="1299" cy="-366" rx="79.09" ry="18"/>
<text text-anchor="middle" x="1299" y="-362.3" font-family="Times,serif" font-size="14.00">now_microseconds</text>
</g>
<!-- reconfiguration::reconfigure&#45;&gt;timestamp::now_microseconds -->
<g id="edge11" class="edge">
<title>reconfiguration::reconfigure&#45;&gt;timestamp::now_microseconds</title>
<path fill="none" stroke="black" d="M1584.72,-667.12C1543.47,-663.9 1489.03,-657.41 1471,-645 1377.55,-580.67 1409.24,-516.51 1345,-423 1337.95,-412.73 1329.47,-402.03 1321.72,-392.77"/>
<polygon fill="black" stroke="black" points="1324.43,-390.55 1315.28,-385.21 1319.1,-395.09 1324.43,-390.55"/>
</g>
<!-- stake::on_new_epoch -->
<g id="node13" class="node">
<title>stake::on_new_epoch</title>
<ellipse fill="none" stroke="black" cx="404" cy="-596" rx="63.89" ry="18"/>
<text text-anchor="middle" x="404" y="-592.3" font-family="Times,serif" font-size="14.00">on_new_epoch</text>
</g>
<!-- reconfiguration::reconfigure&#45;&gt;stake::on_new_epoch -->
<g id="edge12" class="edge">
<title>reconfiguration::reconfigure&#45;&gt;stake::on_new_epoch</title>
<path fill="none" stroke="black" d="M1584.83,-667.03C1392.95,-655.65 704.9,-614.84 477.52,-601.36"/>
<polygon fill="black" stroke="black" points="477.78,-597.87 467.59,-600.77 477.37,-604.86 477.78,-597.87"/>
</g>
<!-- storage_gas::on_reconfig -->
<g id="node14" class="node">
<title>storage_gas::on_reconfig</title>
<ellipse fill="none" stroke="black" cx="1563" cy="-283" rx="53.09" ry="18"/>
<text text-anchor="middle" x="1563" y="-279.3" font-family="Times,serif" font-size="14.00">on_reconfig</text>
</g>
<!-- reconfiguration::reconfigure&#45;&gt;storage_gas::on_reconfig -->
<g id="edge13" class="edge">
<title>reconfiguration::reconfigure&#45;&gt;storage_gas::on_reconfig</title>
<path fill="none" stroke="black" d="M1683.64,-664.85C1696.48,-661.19 1709.19,-655.09 1718,-645 1753.51,-604.32 1737,-579 1737,-525 1737,-525 1737,-525 1737,-448 1737,-395.29 1725.36,-377.18 1688,-340 1668.11,-320.2 1639.98,-306.75 1615.45,-298.01"/>
<polygon fill="black" stroke="black" points="1616.86,-294.79 1606.27,-294.92 1614.63,-301.43 1616.86,-294.79"/>
</g>
<!-- reconfiguration::reconfiguration_enabled -->
<g id="node15" class="node">
<title>reconfiguration::reconfiguration_enabled</title>
<ellipse fill="none" stroke="black" cx="1612" cy="-596" rx="96.68" ry="18"/>
<text text-anchor="middle" x="1612" y="-592.3" font-family="Times,serif" font-size="14.00">reconfiguration_enabled</text>
</g>
<!-- reconfiguration::reconfigure&#45;&gt;reconfiguration::reconfiguration_enabled -->
<g id="edge14" class="edge">
<title>reconfiguration::reconfigure&#45;&gt;reconfiguration::reconfiguration_enabled</title>
<path fill="none" stroke="black" d="M1629.55,-652.7C1626.96,-644.49 1623.8,-634.46 1620.88,-625.19"/>
<polygon fill="black" stroke="black" points="1624.29,-624.36 1617.95,-615.87 1617.61,-626.46 1624.29,-624.36"/>
</g>
<!-- signer::borrow_address -->
<g id="node16" class="node">
<title>signer::borrow_address</title>
<ellipse fill="none" stroke="black" cx="2693" cy="-34" rx="66.89" ry="18"/>
<text text-anchor="middle" x="2693" y="-30.3" font-family="Times,serif" font-size="14.00">borrow_address</text>
</g>
<!-- signer::address_of&#45;&gt;signer::borrow_address -->
<g id="edge15" class="edge">
<title>signer::address_of&#45;&gt;signer::borrow_address</title>
<path fill="none" stroke="black" d="M2685.91,-98.82C2687.05,-88.58 2688.52,-75.33 2689.83,-63.55"/>
<polygon fill="black" stroke="black" points="2693.27,-64.26 2690.9,-53.94 2686.31,-63.49 2693.27,-64.26"/>
</g>
<!-- error::permission_denied&#45;&gt;error::canonical -->
<g id="edge16" class="edge">
<title>error::permission_denied&#45;&gt;error::canonical</title>
<path fill="none" stroke="black" d="M2226.59,-102.29C2213.49,-98.53 2199.21,-94.51 2186,-91 2124.06,-74.53 2052.22,-57.26 2005.76,-46.33"/>
<polygon fill="black" stroke="black" points="2006.81,-42.98 1996.28,-44.1 2005.21,-49.79 2006.81,-42.98"/>
</g>
<!-- error::invalid_state&#45;&gt;error::canonical -->
<g id="edge17" class="edge">
<title>error::invalid_state&#45;&gt;error::canonical</title>
<path fill="none" stroke="black" d="M1957,-98.82C1957,-88.69 1957,-75.6 1957,-63.92"/>
<polygon fill="black" stroke="black" points="1960.5,-63.95 1957,-53.95 1953.5,-63.95 1960.5,-63.95"/>
</g>
<!-- bcs::to_bytes -->
<g id="node17" class="node">
<title>bcs::to_bytes</title>
<ellipse fill="none" stroke="black" cx="1636" cy="-366" rx="40.09" ry="18"/>
<text text-anchor="middle" x="1636" y="-362.3" font-family="Times,serif" font-size="14.00">to_bytes</text>
</g>
<!-- event::emit_event&#45;&gt;bcs::to_bytes -->
<g id="edge18" class="edge">
<title>event::emit_event&#45;&gt;bcs::to_bytes</title>
<path fill="none" stroke="black" d="M1527.82,-438.23C1545.8,-432.91 1566.73,-425.28 1584,-415 1594.77,-408.59 1605.21,-399.67 1613.88,-391.26"/>
<polygon fill="black" stroke="black" points="1616.31,-393.78 1620.84,-384.2 1611.32,-388.86 1616.31,-393.78"/>
</g>
<!-- event::write_to_event_store -->
<g id="node18" class="node">
<title>event::write_to_event_store</title>
<ellipse fill="none" stroke="black" cx="1487" cy="-366" rx="85.29" ry="18"/>
<text text-anchor="middle" x="1487" y="-362.3" font-family="Times,serif" font-size="14.00">write_to_event_store</text>
</g>
<!-- event::emit_event&#45;&gt;event::write_to_event_store -->
<g id="edge19" class="edge">
<title>event::emit_event&#45;&gt;event::write_to_event_store</title>
<path fill="none" stroke="black" d="M1487,-430.82C1487,-420.69 1487,-407.6 1487,-395.92"/>
<polygon fill="black" stroke="black" points="1490.5,-395.95 1487,-385.95 1483.5,-395.95 1490.5,-395.95"/>
</g>
<!-- timestamp::now_seconds -->
<g id="node19" class="node">
<title>timestamp::now_seconds</title>
<ellipse fill="none" stroke="black" cx="1278" cy="-449" rx="57.69" ry="18"/>
<text text-anchor="middle" x="1278" y="-445.3" font-family="Times,serif" font-size="14.00">now_seconds</text>
</g>
<!-- stake::on_new_epoch&#45;&gt;timestamp::now_seconds -->
<g id="edge20" class="edge">
<title>stake::on_new_epoch&#45;&gt;timestamp::now_seconds</title>
<path fill="none" stroke="black" d="M466.19,-591.52C630.44,-581.69 1072.46,-550.95 1208,-498 1223.09,-492.1 1238.14,-482.42 1250.39,-473.28"/>
<polygon fill="black" stroke="black" points="1252.21,-476.3 1257.97,-467.4 1247.92,-470.76 1252.21,-476.3"/>
</g>
<!-- staking_config::get -->
<g id="node20" class="node">
<title>staking_config::get</title>
<ellipse fill="none" stroke="black" cx="911" cy="-449" rx="27" ry="18"/>
<text text-anchor="middle" x="911" y="-445.3" font-family="Times,serif" font-size="14.00">get</text>
</g>
<!-- stake::on_new_epoch&#45;&gt;staking_config::get -->
<g id="edge21" class="edge">
<title>stake::on_new_epoch&#45;&gt;staking_config::get</title>
<path fill="none" stroke="black" d="M468.34,-595.75C564.27,-593.95 747.21,-579.04 875,-498 883.73,-492.47 891.09,-484.02 896.85,-475.74"/>
<polygon fill="black" stroke="black" points="899.63,-477.88 902.03,-467.56 893.72,-474.13 899.63,-477.88"/>
</g>
<!-- staking_config::get_recurring_lockup_duration -->
<g id="node21" class="node">
<title>staking_config::get_recurring_lockup_duration</title>
<ellipse fill="none" stroke="black" cx="1076" cy="-449" rx="120.48" ry="18"/>
<text text-anchor="middle" x="1076" y="-445.3" font-family="Times,serif" font-size="14.00">get_recurring_lockup_duration</text>
</g>
<!-- stake::on_new_epoch&#45;&gt;staking_config::get_recurring_lockup_duration -->
<g id="edge22" class="edge">
<title>stake::on_new_epoch&#45;&gt;staking_config::get_recurring_lockup_duration</title>
<path fill="none" stroke="black" d="M466.9,-592.14C551.96,-587.19 707.86,-574.24 837,-542 906.58,-524.63 983.36,-492.63 1030.65,-471.32"/>
<polygon fill="black" stroke="black" points="1031.82,-474.64 1039.47,-467.31 1028.92,-468.26 1031.82,-474.64"/>
</g>
<!-- staking_config::get_required_stake -->
<g id="node22" class="node">
<title>staking_config::get_required_stake</title>
<ellipse fill="none" stroke="black" cx="789" cy="-449" rx="77.19" ry="18"/>
<text text-anchor="middle" x="789" y="-445.3" font-family="Times,serif" font-size="14.00">get_required_stake</text>
</g>
<!-- stake::on_new_epoch&#45;&gt;staking_config::get_required_stake -->
<g id="edge23" class="edge">
<title>stake::on_new_epoch&#45;&gt;staking_config::get_required_stake</title>
<path fill="none" stroke="black" d="M449.85,-583.14C509.42,-567.05 616.09,-535.92 703,-498 720.1,-490.54 738.24,-480.72 753.44,-471.91"/>
<polygon fill="black" stroke="black" points="754.81,-475.16 761.65,-467.07 751.26,-469.13 754.81,-475.16"/>
</g>
<!-- stake::append -->
<g id="node23" class="node">
<title>stake::append</title>
<ellipse fill="none" stroke="black" cx="260" cy="-524" rx="36.29" ry="18"/>
<text text-anchor="middle" x="260" y="-520.3" font-family="Times,serif" font-size="14.00">append</text>
</g>
<!-- stake::on_new_epoch&#45;&gt;stake::append -->
<g id="edge24" class="edge">
<title>stake::on_new_epoch&#45;&gt;stake::append</title>
<path fill="none" stroke="black" d="M373.11,-579.98C350.22,-568.86 318.99,-553.67 295.14,-542.08"/>
<polygon fill="black" stroke="black" points="296.98,-539.08 286.45,-537.86 293.92,-545.38 296.98,-539.08"/>
</g>
<!-- stake::generate_validator_info -->
<g id="node24" class="node">
<title>stake::generate_validator_info</title>
<ellipse fill="none" stroke="black" cx="111" cy="-524" rx="94.78" ry="18"/>
<text text-anchor="middle" x="111" y="-520.3" font-family="Times,serif" font-size="14.00">generate_validator_info</text>
</g>
<!-- stake::on_new_epoch&#45;&gt;stake::generate_validator_info -->
<g id="edge25" class="edge">
<title>stake::on_new_epoch&#45;&gt;stake::generate_validator_info</title>
<path fill="none" stroke="black" d="M356.27,-583.6C308.26,-572.13 233.75,-554.32 179.44,-541.35"/>
<polygon fill="black" stroke="black" points="180.54,-538.01 170,-539.09 178.91,-544.82 180.54,-538.01"/>
</g>
<!-- stake::update_stake_pool -->
<g id="node25" class="node">
<title>stake::update_stake_pool</title>
<ellipse fill="none" stroke="black" cx="391" cy="-524" rx="76.89" ry="18"/>
<text text-anchor="middle" x="391" y="-520.3" font-family="Times,serif" font-size="14.00">update_stake_pool</text>
</g>
<!-- stake::on_new_epoch&#45;&gt;stake::update_stake_pool -->
<g id="edge26" class="edge">
<title>stake::on_new_epoch&#45;&gt;stake::update_stake_pool</title>
<path fill="none" stroke="black" d="M400.79,-577.7C399.42,-570.32 397.78,-561.52 396.25,-553.25"/>
<polygon fill="black" stroke="black" points="399.72,-552.79 394.45,-543.59 392.84,-554.06 399.72,-552.79"/>
</g>
<!-- error::not_found -->
<g id="node26" class="node">
<title>error::not_found</title>
<ellipse fill="none" stroke="black" cx="1836" cy="-117" rx="46.59" ry="18"/>
<text text-anchor="middle" x="1836" y="-113.3" font-family="Times,serif" font-size="14.00">not_found</text>
</g>
<!-- storage_gas::on_reconfig&#45;&gt;error::not_found -->
<g id="edge27" class="edge">
<title>storage_gas::on_reconfig&#45;&gt;error::not_found</title>
<path fill="none" stroke="black" d="M1615.71,-280C1697.85,-276.33 1848.69,-267.19 1865,-249 1890.87,-220.14 1870.87,-173.46 1853.69,-144.31"/>
<polygon fill="black" stroke="black" points="1856.83,-142.75 1848.6,-136.08 1850.88,-146.43 1856.83,-142.75"/>
</g>
<!-- state_storage::current_items_and_bytes -->
<g id="node27" class="node">
<title>state_storage::current_items_and_bytes</title>
<ellipse fill="none" stroke="black" cx="1754" cy="-200" rx="99.38" ry="18"/>
<text text-anchor="middle" x="1754" y="-196.3" font-family="Times,serif" font-size="14.00">current_items_and_bytes</text>
</g>
<!-- storage_gas::on_reconfig&#45;&gt;state_storage::current_items_and_bytes -->
<g id="edge28" class="edge">
<title>storage_gas::on_reconfig&#45;&gt;state_storage::current_items_and_bytes</title>
<path fill="none" stroke="black" d="M1596.14,-268.48C1610.56,-262.56 1627.64,-255.49 1643,-249 1663.89,-240.18 1686.91,-230.25 1706.54,-221.73"/>
<polygon fill="black" stroke="black" points="1707.9,-224.96 1715.68,-217.76 1705.11,-218.54 1707.9,-224.96"/>
</g>
<!-- storage_gas::calculate_create_gas -->
<g id="node28" class="node">
<title>storage_gas::calculate_create_gas</title>
<ellipse fill="none" stroke="black" cx="1548" cy="-200" rx="83.39" ry="18"/>
<text text-anchor="middle" x="1548" y="-196.3" font-family="Times,serif" font-size="14.00">calculate_create_gas</text>
</g>
<!-- storage_gas::on_reconfig&#45;&gt;storage_gas::calculate_create_gas -->
<g id="edge29" class="edge">
<title>storage_gas::on_reconfig&#45;&gt;storage_gas::calculate_create_gas</title>
<path fill="none" stroke="black" d="M1559.82,-264.82C1557.92,-254.58 1555.47,-241.33 1553.29,-229.55"/>
<polygon fill="black" stroke="black" points="1556.77,-229.12 1551.5,-219.92 1549.88,-230.39 1556.77,-229.12"/>
</g>
<!-- storage_gas::calculate_read_gas -->
<g id="node29" class="node">
<title>storage_gas::calculate_read_gas</title>
<ellipse fill="none" stroke="black" cx="1190" cy="-200" rx="77.19" ry="18"/>
<text text-anchor="middle" x="1190" y="-196.3" font-family="Times,serif" font-size="14.00">calculate_read_gas</text>
</g>
<!-- storage_gas::on_reconfig&#45;&gt;storage_gas::calculate_read_gas -->
<g id="edge30" class="edge">
<title>storage_gas::on_reconfig&#45;&gt;storage_gas::calculate_read_gas</title>
<path fill="none" stroke="black" d="M1509.58,-282.07C1450.93,-280.74 1354.65,-274.35 1276,-249 1257.58,-243.06 1238.63,-232.99 1223.23,-223.6"/>
<polygon fill="black" stroke="black" points="1225.27,-220.75 1214.94,-218.39 1221.54,-226.67 1225.27,-220.75"/>
</g>
<!-- storage_gas::calculate_write_gas -->
<g id="node30" class="node">
<title>storage_gas::calculate_write_gas</title>
<ellipse fill="none" stroke="black" cx="1366" cy="-200" rx="80.69" ry="18"/>
<text text-anchor="middle" x="1366" y="-196.3" font-family="Times,serif" font-size="14.00">calculate_write_gas</text>
</g>
<!-- storage_gas::on_reconfig&#45;&gt;storage_gas::calculate_write_gas -->
<g id="edge31" class="edge">
<title>storage_gas::on_reconfig&#45;&gt;storage_gas::calculate_write_gas</title>
<path fill="none" stroke="black" d="M1521.7,-271.26C1501.56,-265.52 1477.18,-257.82 1456,-249 1438.16,-241.57 1419.18,-231.76 1403.28,-222.94"/>
<polygon fill="black" stroke="black" points="1405.06,-219.93 1394.63,-218.07 1401.62,-226.03 1405.06,-219.93"/>
</g>
<!-- timestamp::now_seconds&#45;&gt;timestamp::now_microseconds -->
<g id="edge32" class="edge">
<title>timestamp::now_seconds&#45;&gt;timestamp::now_microseconds</title>
<path fill="none" stroke="black" d="M1282.45,-430.82C1285.11,-420.58 1288.55,-407.33 1291.6,-395.55"/>
<polygon fill="black" stroke="black" points="1294.98,-396.46 1294.1,-385.9 1288.2,-394.7 1294.98,-396.46"/>
</g>
<!-- vector::is_empty -->
<g id="node31" class="node">
<title>vector::is_empty</title>
<ellipse fill="none" stroke="black" cx="599" cy="-34" rx="43.59" ry="18"/>
<text text-anchor="middle" x="599" y="-30.3" font-family="Times,serif" font-size="14.00">is_empty</text>
</g>
<!-- stake::append&#45;&gt;vector::is_empty -->
<g id="edge33" class="edge">
<title>stake::append&#45;&gt;vector::is_empty</title>
<path fill="none" stroke="black" d="M286.73,-511.41C292.65,-509.26 298.96,-507.3 305,-506 319.15,-502.96 425.09,-508.54 435,-498 533.65,-393.1 373.27,-304.57 434,-174 460.16,-117.76 521.51,-76.12 561.58,-53.72"/>
<polygon fill="black" stroke="black" points="563.08,-56.89 570.2,-49.04 559.74,-50.74 563.08,-56.89"/>
</g>
<!-- stake::get_next_epoch_voting_power -->
<g id="node32" class="node">
<title>stake::get_next_epoch_voting_power</title>
<ellipse fill="none" stroke="black" cx="136" cy="-449" rx="119.68" ry="18"/>
<text text-anchor="middle" x="136" y="-445.3" font-family="Times,serif" font-size="14.00">get_next_epoch_voting_power</text>
</g>
<!-- stake::generate_validator_info&#45;&gt;stake::get_next_epoch_voting_power -->
<g id="edge34" class="edge">
<title>stake::generate_validator_info&#45;&gt;stake::get_next_epoch_voting_power</title>
<path fill="none" stroke="black" d="M116.92,-505.7C119.74,-497.49 123.17,-487.46 126.35,-478.19"/>
<polygon fill="black" stroke="black" points="129.61,-479.46 129.54,-468.86 122.99,-477.19 129.61,-479.46"/>
</g>
<!-- stake::update_stake_pool&#45;&gt;event::emit_event -->
<g id="edge35" class="edge">
<title>stake::update_stake_pool&#45;&gt;event::emit_event</title>
<path fill="none" stroke="black" d="M468,-522.98C686.72,-522.67 1301.63,-519.84 1390,-498 1412.37,-492.47 1435.56,-481.23 1453.66,-471.01"/>
<polygon fill="black" stroke="black" points="1455.23,-474.15 1462.11,-466.09 1451.7,-468.1 1455.23,-474.15"/>
</g>
<!-- stake::update_stake_pool&#45;&gt;timestamp::now_seconds -->
<g id="edge38" class="edge">
<title>stake::update_stake_pool&#45;&gt;timestamp::now_seconds</title>
<path fill="none" stroke="black" d="M467.63,-521.82C664.17,-518.64 1173.22,-509.36 1208,-498 1223.74,-492.86 1239.15,-482.98 1251.48,-473.52"/>
<polygon fill="black" stroke="black" points="1253.49,-476.39 1259.09,-467.4 1249.1,-470.94 1253.49,-476.39"/>
</g>
<!-- coin::extract_all -->
<g id="node33" class="node">
<title>coin::extract_all</title>
<ellipse fill="none" stroke="black" cx="774" cy="-366" rx="48.19" ry="18"/>
<text text-anchor="middle" x="774" y="-362.3" font-family="Times,serif" font-size="14.00">extract_all</text>
</g>
<!-- stake::update_stake_pool&#45;&gt;coin::extract_all -->
<g id="edge36" class="edge">
<title>stake::update_stake_pool&#45;&gt;coin::extract_all</title>
<path fill="none" stroke="black" d="M462.94,-517.27C478.25,-513.45 493.53,-507.43 506,-498 536.13,-475.21 514.07,-443.19 546,-423 562.08,-412.84 699.29,-421.94 717,-415 730.04,-409.89 742.25,-400.52 752,-391.4"/>
<polygon fill="black" stroke="black" points="754.18,-394.16 758.81,-384.63 749.25,-389.19 754.18,-394.16"/>
</g>
<!-- coin::merge -->
<g id="node34" class="node">
<title>coin::merge</title>
<ellipse fill="none" stroke="black" cx="675" cy="-366" rx="33.29" ry="18"/>
<text text-anchor="middle" x="675" y="-362.3" font-family="Times,serif" font-size="14.00">merge</text>
</g>
<!-- stake::update_stake_pool&#45;&gt;coin::merge -->
<g id="edge37" class="edge">
<title>stake::update_stake_pool&#45;&gt;coin::merge</title>
<path fill="none" stroke="black" d="M444.76,-510.87C453.03,-507.54 461.1,-503.33 468,-498 499.32,-473.81 481.95,-443.17 516,-423 538.42,-409.72 609.65,-426.57 633,-415 643.2,-409.94 651.98,-401.21 658.84,-392.56"/>
<polygon fill="black" stroke="black" points="661.56,-394.77 664.61,-384.62 655.9,-390.65 661.56,-394.77"/>
</g>
<!-- staking_config::get_reward_rate -->
<g id="node35" class="node">
<title>staking_config::get_reward_rate</title>
<ellipse fill="none" stroke="black" cx="626" cy="-449" rx="67.69" ry="18"/>
<text text-anchor="middle" x="626" y="-445.3" font-family="Times,serif" font-size="14.00">get_reward_rate</text>
</g>
<!-- stake::update_stake_pool&#45;&gt;staking_config::get_reward_rate -->
<g id="edge39" class="edge">
<title>stake::update_stake_pool&#45;&gt;staking_config::get_reward_rate</title>
<path fill="none" stroke="black" d="M462.06,-516.9C488.35,-513.22 518.05,-507.35 544,-498 561.4,-491.73 579.29,-481.75 593.9,-472.5"/>
<polygon fill="black" stroke="black" points="595.71,-475.5 602.18,-467.1 591.89,-469.63 595.71,-475.5"/>
</g>
<!-- stake::distribute_rewards -->
<g id="node36" class="node">
<title>stake::distribute_rewards</title>
<ellipse fill="none" stroke="black" cx="350" cy="-449" rx="76.09" ry="18"/>
<text text-anchor="middle" x="350" y="-445.3" font-family="Times,serif" font-size="14.00">distribute_rewards</text>
</g>
<!-- stake::update_stake_pool&#45;&gt;stake::distribute_rewards -->
<g id="edge40" class="edge">
<title>stake::update_stake_pool&#45;&gt;stake::distribute_rewards</title>
<path fill="none" stroke="black" d="M381.28,-505.7C376.48,-497.15 370.58,-486.65 365.2,-477.07"/>
<polygon fill="black" stroke="black" points="368.34,-475.5 360.39,-468.5 362.23,-478.93 368.34,-475.5"/>
</g>
<!-- error::not_found&#45;&gt;error::canonical -->
<g id="edge41" class="edge">
<title>error::not_found&#45;&gt;error::canonical</title>
<path fill="none" stroke="black" d="M1858.48,-100.95C1877.24,-88.39 1904.2,-70.34 1925.18,-56.3"/>
<polygon fill="black" stroke="black" points="1927.02,-59.28 1933.39,-50.81 1923.13,-53.46 1927.02,-59.28"/>
</g>
<!-- state_storage::current_items_and_bytes&#45;&gt;error::not_found -->
<g id="edge42" class="edge">
<title>state_storage::current_items_and_bytes&#45;&gt;error::not_found</title>
<path fill="none" stroke="black" d="M1771.39,-181.82C1783.11,-170.24 1798.74,-154.8 1811.7,-142.01"/>
<polygon fill="black" stroke="black" points="1814.02,-144.63 1818.67,-135.12 1809.1,-139.65 1814.02,-144.63"/>
</g>
<!-- storage_gas::calculate_gas -->
<g id="node37" class="node">
<title>storage_gas::calculate_gas</title>
<ellipse fill="none" stroke="black" cx="1366" cy="-117" rx="57.69" ry="18"/>
<text text-anchor="middle" x="1366" y="-113.3" font-family="Times,serif" font-size="14.00">calculate_gas</text>
</g>
<!-- storage_gas::calculate_create_gas&#45;&gt;storage_gas::calculate_gas -->
<g id="edge43" class="edge">
<title>storage_gas::calculate_create_gas&#45;&gt;storage_gas::calculate_gas</title>
<path fill="none" stroke="black" d="M1512.91,-183.38C1483.12,-170.12 1440.28,-151.06 1408.54,-136.93"/>
<polygon fill="black" stroke="black" points="1410.18,-133.83 1399.62,-132.96 1407.33,-140.23 1410.18,-133.83"/>
</g>
<!-- storage_gas::calculate_read_gas&#45;&gt;storage_gas::calculate_gas -->
<g id="edge44" class="edge">
<title>storage_gas::calculate_read_gas&#45;&gt;storage_gas::calculate_gas</title>
<path fill="none" stroke="black" d="M1223.93,-183.38C1252.53,-170.22 1293.56,-151.34 1324.18,-137.25"/>
<polygon fill="black" stroke="black" points="1325.54,-140.47 1333.16,-133.11 1322.61,-134.12 1325.54,-140.47"/>
</g>
<!-- storage_gas::calculate_write_gas&#45;&gt;storage_gas::calculate_gas -->
<g id="edge45" class="edge">
<title>storage_gas::calculate_write_gas&#45;&gt;storage_gas::calculate_gas</title>
<path fill="none" stroke="black" d="M1366,-181.82C1366,-171.69 1366,-158.6 1366,-146.92"/>
<polygon fill="black" stroke="black" points="1369.5,-146.95 1366,-136.95 1362.5,-146.95 1369.5,-146.95"/>
</g>
<!-- coin::value -->
<g id="node38" class="node">
<title>coin::value</title>
<ellipse fill="none" stroke="black" cx="522" cy="-366" rx="29.8" ry="18"/>
<text text-anchor="middle" x="522" y="-362.3" font-family="Times,serif" font-size="14.00">value</text>
</g>
<!-- stake::get_next_epoch_voting_power&#45;&gt;coin::value -->
<g id="edge46" class="edge">
<title>stake::get_next_epoch_voting_power&#45;&gt;coin::value</title>
<path fill="none" stroke="black" d="M200.66,-433.44C221.13,-429.38 243.92,-425.42 265,-423 288.75,-420.27 458.42,-425.28 480,-415 490.28,-410.1 499.07,-401.4 505.92,-392.73"/>
<polygon fill="black" stroke="black" points="508.67,-394.91 511.68,-384.76 502.99,-390.82 508.67,-394.91"/>
</g>
<!-- stake::distribute_rewards&#45;&gt;coin::merge -->
<g id="edge48" class="edge">
<title>stake::distribute_rewards&#45;&gt;coin::merge</title>
<path fill="none" stroke="black" d="M403.29,-435.84C426.17,-431.08 453.28,-426.04 478,-423 495.12,-420.9 617.48,-422.53 633,-415 643.24,-410.03 652.03,-401.31 658.88,-392.65"/>
<polygon fill="black" stroke="black" points="661.62,-394.84 664.65,-384.69 655.95,-390.74 661.62,-394.84"/>
</g>
<!-- stake::distribute_rewards&#45;&gt;coin::value -->
<g id="edge47" class="edge">
<title>stake::distribute_rewards&#45;&gt;coin::value</title>
<path fill="none" stroke="black" d="M415.21,-439.44C436.94,-434.57 460.55,-426.93 480,-415 489.46,-409.19 497.96,-400.57 504.79,-392.23"/>
<polygon fill="black" stroke="black" points="507.56,-394.38 510.84,-384.3 501.99,-390.13 507.56,-394.38"/>
</g>
<!-- coin::mint -->
<g id="node39" class="node">
<title>coin::mint</title>
<ellipse fill="none" stroke="black" cx="597" cy="-366" rx="27.1" ry="18"/>
<text text-anchor="middle" x="597" y="-362.3" font-family="Times,serif" font-size="14.00">mint</text>
</g>
<!-- stake::distribute_rewards&#45;&gt;coin::mint -->
<g id="edge49" class="edge">
<title>stake::distribute_rewards&#45;&gt;coin::mint</title>
<path fill="none" stroke="black" d="M404.61,-436.12C427.24,-431.52 453.8,-426.52 478,-423 496.34,-420.33 544.84,-424.07 561,-415 570.01,-409.94 577.44,-401.6 583.17,-393.27"/>
<polygon fill="black" stroke="black" points="586,-395.34 588.3,-384.99 580.05,-391.65 586,-395.34"/>
</g>
<!-- stake::calculate_rewards_amount -->
<g id="node40" class="node">
<title>stake::calculate_rewards_amount</title>
<ellipse fill="none" stroke="black" cx="321" cy="-366" rx="105.08" ry="18"/>
<text text-anchor="middle" x="321" y="-362.3" font-family="Times,serif" font-size="14.00">calculate_rewards_amount</text>
</g>
<!-- stake::distribute_rewards&#45;&gt;stake::calculate_rewards_amount -->
<g id="edge50" class="edge">
<title>stake::distribute_rewards&#45;&gt;stake::calculate_rewards_amount</title>
<path fill="none" stroke="black" d="M343.85,-430.82C340.15,-420.48 335.34,-407.05 331.09,-395.18"/>
<polygon fill="black" stroke="black" points="334.42,-394.09 327.75,-385.86 327.83,-396.45 334.42,-394.09"/>
</g>
<!-- storage_gas::interpolate -->
<g id="node41" class="node">
<title>storage_gas::interpolate</title>
<ellipse fill="none" stroke="black" cx="1366" cy="-34" rx="48.19" ry="18"/>
<text text-anchor="middle" x="1366" y="-30.3" font-family="Times,serif" font-size="14.00">interpolate</text>
</g>
<!-- storage_gas::calculate_gas&#45;&gt;storage_gas::interpolate -->
<g id="edge51" class="edge">
<title>storage_gas::calculate_gas&#45;&gt;storage_gas::interpolate</title>
<path fill="none" stroke="black" d="M1366,-98.82C1366,-88.69 1366,-75.6 1366,-63.92"/>
<polygon fill="black" stroke="black" points="1369.5,-63.95 1366,-53.95 1362.5,-63.95 1369.5,-63.95"/>
</g>
<!-- option::borrow_mut -->
<g id="node42" class="node">
<title>option::borrow_mut</title>
<ellipse fill="none" stroke="black" cx="789" cy="-200" rx="54.69" ry="18"/>
<text text-anchor="middle" x="789" y="-196.3" font-family="Times,serif" font-size="14.00">borrow_mut</text>
</g>
<!-- coin::mint&#45;&gt;option::borrow_mut -->
<g id="edge52" class="edge">
<title>coin::mint&#45;&gt;option::borrow_mut</title>
<path fill="none" stroke="black" d="M613.21,-351.1C619.08,-346.81 625.99,-342.55 633,-340 651.24,-333.35 703.85,-342.78 720,-332 755.63,-308.2 774.12,-259.85 782.68,-229.01"/>
<polygon fill="black" stroke="black" points="786,-230.16 785.11,-219.6 779.22,-228.41 786,-230.16"/>
</g>
<!-- option::is_some -->
<g id="node43" class="node">
<title>option::is_some</title>
<ellipse fill="none" stroke="black" cx="781" cy="-117" rx="40.09" ry="18"/>
<text text-anchor="middle" x="781" y="-113.3" font-family="Times,serif" font-size="14.00">is_some</text>
</g>
<!-- coin::mint&#45;&gt;option::is_some -->
<g id="edge53" class="edge">
<title>coin::mint&#45;&gt;option::is_some</title>
<path fill="none" stroke="black" d="M613.29,-351.32C619.17,-347.05 626.07,-342.75 633,-340 655.56,-331.07 669.1,-348.38 687,-332 740.29,-283.25 689.7,-237.01 725,-174 731.97,-161.57 742.47,-150.02 752.51,-140.69"/>
<polygon fill="black" stroke="black" points="754.8,-143.33 759.97,-134.08 750.16,-138.09 754.8,-143.33"/>
</g>
<!-- optional_aggregator::add -->
<g id="node44" class="node">
<title>optional_aggregator::add</title>
<ellipse fill="none" stroke="black" cx="1007" cy="-283" rx="27" ry="18"/>
<text text-anchor="middle" x="1007" y="-279.3" font-family="Times,serif" font-size="14.00">add</text>
</g>
<!-- coin::mint&#45;&gt;optional_aggregator::add -->
<g id="edge54" class="edge">
<title>coin::mint&#45;&gt;optional_aggregator::add</title>
<path fill="none" stroke="black" d="M612.77,-351.16C618.71,-346.76 625.79,-342.42 633,-340 675.38,-325.79 789.84,-338.91 834,-332 883.11,-324.32 938.17,-307.58 972.71,-296.05"/>
<polygon fill="black" stroke="black" points="973.81,-299.37 982.16,-292.85 971.57,-292.74 973.81,-299.37"/>
</g>
<!-- coin::coin_address -->
<g id="node45" class="node">
<title>coin::coin_address</title>
<ellipse fill="none" stroke="black" cx="549" cy="-283" rx="56.59" ry="18"/>
<text text-anchor="middle" x="549" y="-279.3" font-family="Times,serif" font-size="14.00">coin_address</text>
</g>
<!-- coin::mint&#45;&gt;coin::coin_address -->
<g id="edge55" class="edge">
<title>coin::mint&#45;&gt;coin::coin_address</title>
<path fill="none" stroke="black" d="M587.52,-349C581.05,-338.08 572.33,-323.37 564.82,-310.7"/>
<polygon fill="black" stroke="black" points="568.01,-309.21 559.9,-302.39 561.99,-312.78 568.01,-309.21"/>
</g>
<!-- coin::zero -->
<g id="node46" class="node">
<title>coin::zero</title>
<ellipse fill="none" stroke="black" cx="651" cy="-283" rx="27" ry="18"/>
<text text-anchor="middle" x="651" y="-279.3" font-family="Times,serif" font-size="14.00">zero</text>
</g>
<!-- coin::mint&#45;&gt;coin::zero -->
<g id="edge56" class="edge">
<title>coin::mint&#45;&gt;coin::zero</title>
<path fill="none" stroke="black" d="M607.67,-349C615.21,-337.68 625.48,-322.28 634.13,-309.31"/>
<polygon fill="black" stroke="black" points="636.88,-311.49 639.51,-301.23 631.05,-307.61 636.88,-311.49"/>
</g>
<!-- option::borrow_mut&#45;&gt;option::is_some -->
<g id="edge57" class="edge">
<title>option::borrow_mut&#45;&gt;option::is_some</title>
<path fill="none" stroke="black" d="M787.3,-181.82C786.29,-171.58 784.98,-158.33 783.82,-146.55"/>
<polygon fill="black" stroke="black" points="787.34,-146.55 782.87,-136.94 780.37,-147.23 787.34,-146.55"/>
</g>
<!-- option::is_some&#45;&gt;vector::is_empty -->
<g id="edge58" class="edge">
<title>option::is_some&#45;&gt;vector::is_empty</title>
<path fill="none" stroke="black" d="M753.36,-103.7C722.63,-90.02 672.76,-67.83 638.05,-52.38"/>
<polygon fill="black" stroke="black" points="639.75,-49.3 629.19,-48.44 636.9,-55.7 639.75,-49.3"/>
</g>
<!-- optional_aggregator::add&#45;&gt;option::borrow_mut -->
<g id="edge59" class="edge">
<title>optional_aggregator::add&#45;&gt;option::borrow_mut</title>
<path fill="none" stroke="black" d="M980.19,-279.25C949.59,-275.39 898.53,-266.75 858,-249 843.55,-242.67 829,-233.13 817.01,-224.21"/>
<polygon fill="black" stroke="black" points="819.25,-221.52 809.2,-218.2 814.98,-227.07 819.25,-221.52"/>
</g>
<!-- optional_aggregator::add&#45;&gt;option::is_some -->
<g id="edge60" class="edge">
<title>optional_aggregator::add&#45;&gt;option::is_some</title>
<path fill="none" stroke="black" d="M979.85,-281.15C953.06,-278.95 912.39,-271.74 886,-249 858.41,-225.23 875.39,-202.72 853,-174 842.27,-160.23 827.43,-147.94 814.01,-138.4"/>
<polygon fill="black" stroke="black" points="816.05,-135.56 805.81,-132.81 812.1,-141.34 816.05,-135.56"/>
</g>
<!-- aggregator::add -->
<g id="node47" class="node">
<title>aggregator::add</title>
<ellipse fill="none" stroke="black" cx="929" cy="-200" rx="27" ry="18"/>
<text text-anchor="middle" x="929" y="-196.3" font-family="Times,serif" font-size="14.00">add</text>
</g>
<!-- optional_aggregator::add&#45;&gt;aggregator::add -->
<g id="edge61" class="edge">
<title>optional_aggregator::add&#45;&gt;aggregator::add</title>
<path fill="none" stroke="black" d="M990.08,-268.84C982.99,-263.04 974.83,-255.97 968,-249 960.95,-241.8 953.82,-233.43 947.63,-225.72"/>
<polygon fill="black" stroke="black" points="950.46,-223.65 941.54,-217.94 944.95,-227.97 950.46,-223.65"/>
</g>
<!-- optional_aggregator::add_integer -->
<g id="node48" class="node">
<title>optional_aggregator::add_integer</title>
<ellipse fill="none" stroke="black" cx="1034" cy="-200" rx="51.99" ry="18"/>
<text text-anchor="middle" x="1034" y="-196.3" font-family="Times,serif" font-size="14.00">add_integer</text>
</g>
<!-- optional_aggregator::add&#45;&gt;optional_aggregator::add_integer -->
<g id="edge62" class="edge">
<title>optional_aggregator::add&#45;&gt;optional_aggregator::add_integer</title>
<path fill="none" stroke="black" d="M1012.59,-265.22C1016.06,-254.82 1020.6,-241.21 1024.6,-229.19"/>
<polygon fill="black" stroke="black" points="1027.91,-230.35 1027.75,-219.76 1021.27,-228.14 1027.91,-230.35"/>
</g>
<!-- type_info::account_address -->
<g id="node49" class="node">
<title>type_info::account_address</title>
<ellipse fill="none" stroke="black" cx="609" cy="-200" rx="68.79" ry="18"/>
<text text-anchor="middle" x="609" y="-196.3" font-family="Times,serif" font-size="14.00">account_address</text>
</g>
<!-- coin::coin_address&#45;&gt;type_info::account_address -->
<g id="edge63" class="edge">
<title>coin::coin_address&#45;&gt;type_info::account_address</title>
<path fill="none" stroke="black" d="M561.43,-265.22C569.58,-254.21 580.41,-239.6 589.67,-227.1"/>
<polygon fill="black" stroke="black" points="592.34,-229.38 595.48,-219.26 586.71,-225.21 592.34,-229.38"/>
</g>
<!-- type_info::type_of -->
<g id="node50" class="node">
<title>type_info::type_of</title>
<ellipse fill="none" stroke="black" cx="484" cy="-200" rx="37.89" ry="18"/>
<text text-anchor="middle" x="484" y="-196.3" font-family="Times,serif" font-size="14.00">type_of</text>
</g>
<!-- coin::coin_address&#45;&gt;type_info::type_of -->
<g id="edge64" class="edge">
<title>coin::coin_address&#45;&gt;type_info::type_of</title>
<path fill="none" stroke="black" d="M535.53,-265.22C526.44,-253.88 514.27,-238.72 504.04,-225.97"/>
<polygon fill="black" stroke="black" points="506.94,-224 497.95,-218.39 501.48,-228.38 506.94,-224"/>
</g>
<!-- error::out_of_range -->
<g id="node51" class="node">
<title>error::out_of_range</title>
<ellipse fill="none" stroke="black" cx="1713" cy="-117" rx="57.69" ry="18"/>
<text text-anchor="middle" x="1713" y="-113.3" font-family="Times,serif" font-size="14.00">out_of_range</text>
</g>
<!-- optional_aggregator::add_integer&#45;&gt;error::out_of_range -->
<g id="edge65" class="edge">
<title>optional_aggregator::add_integer&#45;&gt;error::out_of_range</title>
<path fill="none" stroke="black" d="M1064.72,-185.02C1075.91,-180.61 1088.8,-176.3 1101,-174 1160.19,-162.87 1585.6,-184.25 1643,-166 1658.78,-160.98 1674.19,-151.12 1686.52,-141.64"/>
<polygon fill="black" stroke="black" points="1688.54,-144.5 1694.12,-135.5 1684.14,-139.06 1688.54,-144.5"/>
</g>
<!-- error::out_of_range&#45;&gt;error::canonical -->
<g id="edge66" class="edge">
<title>error::out_of_range&#45;&gt;error::canonical</title>
<path fill="none" stroke="black" d="M1748.35,-102.43C1758.53,-98.62 1769.67,-94.56 1780,-91 1824.32,-75.73 1875.42,-59.73 1911.28,-48.77"/>
<polygon fill="black" stroke="black" points="1911.91,-52.24 1920.45,-45.97 1909.87,-45.54 1911.91,-52.24"/>
</g>
</g>
</svg>
