<?xml version="1.0" encoding="UTF-8" standalone="no"?>
<!DOCTYPE svg PUBLIC "-//W3C//DTD SVG 1.1//EN"
 "http://www.w3.org/Graphics/SVG/1.1/DTD/svg11.dtd">
<!-- Generated by graphviz version 7.0.0 (20221023.0053)
 -->
<!-- Title: G Pages: 1 -->
<svg width="2364pt" height="836pt"
 viewBox="0.00 0.00 2364.00 836.00" xmlns="http://www.w3.org/2000/svg" xmlns:xlink="http://www.w3.org/1999/xlink">
<g id="graph0" class="graph" transform="scale(1 1) rotate(0) translate(4 832)">
<title>G</title>
<polygon fill="white" stroke="none" points="-4,4 -4,-832 2360,-832 2360,4 -4,4"/>
<!-- consensus_config -->
<g id="node1" class="node">
<title>consensus_config</title>
<ellipse fill="none" stroke="black" cx="1935" cy="-810" rx="73.39" ry="18"/>
<text text-anchor="middle" x="1935" y="-806.3" font-family="Times,serif" font-size="14.00">consensus_config</text>
</g>
<!-- error -->
<g id="node2" class="node">
<title>error</title>
<ellipse fill="none" stroke="black" cx="1637" cy="-90" rx="27.9" ry="18"/>
<text text-anchor="middle" x="1637" y="-86.3" font-family="Times,serif" font-size="14.00">error</text>
</g>
<!-- consensus_config&#45;&gt;error -->
<g id="edge1" class="edge">
<title>consensus_config&#45;&gt;error</title>
<path fill="none" stroke="black" d="M1998.94,-800.96C2116.71,-784.35 2356,-741.44 2356,-667 2356,-667 2356,-667 2356,-377 2356,-251.63 2311.48,-195.11 2197,-144 2103.65,-102.32 1788.42,-93.37 1676.68,-91.49"/>
<polygon fill="black" stroke="black" points="1676.86,-87.99 1666.81,-91.33 1676.75,-94.99 1676.86,-87.99"/>
</g>
<!-- system_addresses -->
<g id="node3" class="node">
<title>system_addresses</title>
<ellipse fill="none" stroke="black" cx="1637" cy="-306" rx="73.39" ry="18"/>
<text text-anchor="middle" x="1637" y="-302.3" font-family="Times,serif" font-size="14.00">system_addresses</text>
</g>
<!-- consensus_config&#45;&gt;system_addresses -->
<g id="edge2" class="edge">
<title>consensus_config&#45;&gt;system_addresses</title>
<path fill="none" stroke="black" d="M1921.44,-791.87C1878.64,-737.15 1744.65,-560.42 1666,-396 1656.62,-376.4 1649.13,-352.99 1644.11,-335.1"/>
<polygon fill="black" stroke="black" points="1647.56,-334.44 1641.57,-325.7 1640.8,-336.27 1647.56,-334.44"/>
</g>
<!-- reconfiguration -->
<g id="node4" class="node">
<title>reconfiguration</title>
<ellipse fill="none" stroke="black" cx="1745" cy="-738" rx="64.99" ry="18"/>
<text text-anchor="middle" x="1745" y="-734.3" font-family="Times,serif" font-size="14.00">reconfiguration</text>
</g>
<!-- consensus_config&#45;&gt;reconfiguration -->
<g id="edge3" class="edge">
<title>consensus_config&#45;&gt;reconfiguration</title>
<path fill="none" stroke="black" d="M1895.63,-794.5C1866.07,-783.61 1825.42,-768.63 1793.8,-756.98"/>
<polygon fill="black" stroke="black" points="1795.03,-753.7 1784.44,-753.53 1792.61,-760.27 1795.03,-753.7"/>
</g>
<!-- system_addresses&#45;&gt;error -->
<g id="edge5" class="edge">
<title>system_addresses&#45;&gt;error</title>
<path fill="none" stroke="black" d="M1637,-287.85C1637,-251.14 1637,-164.66 1637,-119.53"/>
<polygon fill="black" stroke="black" points="1640.5,-119.75 1637,-109.75 1633.5,-119.75 1640.5,-119.75"/>
</g>
<!-- signer -->
<g id="node5" class="node">
<title>signer</title>
<ellipse fill="none" stroke="black" cx="190" cy="-90" rx="32.49" ry="18"/>
<text text-anchor="middle" x="190" y="-86.3" font-family="Times,serif" font-size="14.00">signer</text>
</g>
<!-- system_addresses&#45;&gt;signer -->
<g id="edge4" class="edge">
<title>system_addresses&#45;&gt;signer</title>
<path fill="none" stroke="black" d="M1582.32,-293.6C1442.54,-264.79 1060.47,-188.26 739,-144 551.79,-118.22 326.96,-100.69 233.77,-94.01"/>
<polygon fill="black" stroke="black" points="234.02,-90.52 223.79,-93.3 233.52,-97.5 234.02,-90.52"/>
</g>
<!-- reconfiguration&#45;&gt;error -->
<g id="edge7" class="edge">
<title>reconfiguration&#45;&gt;error</title>
<path fill="none" stroke="black" d="M1809.34,-734.6C1959.03,-727.26 2318,-698.83 2318,-595 2318,-595 2318,-595 2318,-449 2318,-296.34 2286.27,-229.81 2160,-144 2120.22,-116.97 1791.36,-98.52 1676.45,-92.85"/>
<polygon fill="black" stroke="black" points="1676.75,-89.36 1666.59,-92.37 1676.41,-96.35 1676.75,-89.36"/>
</g>
<!-- reconfiguration&#45;&gt;system_addresses -->
<g id="edge8" class="edge">
<title>reconfiguration&#45;&gt;system_addresses</title>
<path fill="none" stroke="black" d="M1739.3,-719.67C1717.24,-652.59 1638.63,-412.89 1636,-396 1632.88,-376 1633.22,-353.17 1634.29,-335.63"/>
<polygon fill="black" stroke="black" points="1637.77,-335.92 1635.02,-325.69 1630.79,-335.41 1637.77,-335.92"/>
</g>
<!-- reconfiguration&#45;&gt;signer -->
<g id="edge6" class="edge">
<title>reconfiguration&#45;&gt;signer</title>
<path fill="none" stroke="black" d="M1679.85,-736.75C1502.26,-735.49 995,-728 576,-684 334.96,-658.69 38,-837.36 38,-595 38,-595 38,-595 38,-305 38,-220.73 117.32,-146.53 161.36,-111.84"/>
<polygon fill="black" stroke="black" points="163.45,-114.64 169.24,-105.77 159.18,-109.1 163.45,-114.64"/>
</g>
<!-- event -->
<g id="node6" class="node">
<title>event</title>
<ellipse fill="none" stroke="black" cx="812" cy="-378" rx="29.8" ry="18"/>
<text text-anchor="middle" x="812" y="-374.3" font-family="Times,serif" font-size="14.00">event</text>
</g>
<!-- reconfiguration&#45;&gt;event -->
<g id="edge9" class="edge">
<title>reconfiguration&#45;&gt;event</title>
<path fill="none" stroke="black" d="M1680.18,-735.67C1441.03,-729.93 622,-702.41 622,-595 622,-595 622,-595 622,-521 622,-482.2 724.95,-423.58 779.28,-395.34"/>
<polygon fill="black" stroke="black" points="780.82,-398.49 788.11,-390.81 777.62,-392.26 780.82,-398.49"/>
</g>
<!-- account -->
<g id="node7" class="node">
<title>account</title>
<ellipse fill="none" stroke="black" cx="556" cy="-450" rx="38.19" ry="18"/>
<text text-anchor="middle" x="556" y="-446.3" font-family="Times,serif" font-size="14.00">account</text>
</g>
<!-- reconfiguration&#45;&gt;account -->
<g id="edge10" class="edge">
<title>reconfiguration&#45;&gt;account</title>
<path fill="none" stroke="black" d="M1680.01,-736.13C1444.74,-732.72 649.22,-718.64 608,-684 547.76,-633.38 548.27,-529.7 552.56,-479.49"/>
<polygon fill="black" stroke="black" points="556.02,-480.03 553.51,-469.73 549.05,-479.34 556.02,-480.03"/>
</g>
<!-- chain_status -->
<g id="node8" class="node">
<title>chain_status</title>
<ellipse fill="none" stroke="black" cx="2198" cy="-378" rx="53.89" ry="18"/>
<text text-anchor="middle" x="2198" y="-374.3" font-family="Times,serif" font-size="14.00">chain_status</text>
</g>
<!-- reconfiguration&#45;&gt;chain_status -->
<g id="edge11" class="edge">
<title>reconfiguration&#45;&gt;chain_status</title>
<path fill="none" stroke="black" d="M1769.96,-721.11C1785.71,-710.87 1806.35,-697.07 1824,-684 1946.11,-593.58 1971.26,-564.05 2089,-468 2116.33,-445.7 2147.5,-420.25 2169.49,-402.29"/>
<polygon fill="black" stroke="black" points="2171.61,-405.08 2177.14,-396.04 2167.18,-399.66 2171.61,-405.08"/>
</g>
<!-- timestamp -->
<g id="node9" class="node">
<title>timestamp</title>
<ellipse fill="none" stroke="black" cx="1612" cy="-522" rx="48.19" ry="18"/>
<text text-anchor="middle" x="1612" y="-518.3" font-family="Times,serif" font-size="14.00">timestamp</text>
</g>
<!-- reconfiguration&#45;&gt;timestamp -->
<g id="edge12" class="edge">
<title>reconfiguration&#45;&gt;timestamp</title>
<path fill="none" stroke="black" d="M1734.34,-719.85C1711.18,-682.58 1656.13,-594 1628.46,-549.49"/>
<polygon fill="black" stroke="black" points="1631.58,-547.87 1623.32,-541.22 1625.63,-551.56 1631.58,-547.87"/>
</g>
<!-- stake -->
<g id="node10" class="node">
<title>stake</title>
<ellipse fill="none" stroke="black" cx="1380" cy="-666" rx="28.7" ry="18"/>
<text text-anchor="middle" x="1380" y="-662.3" font-family="Times,serif" font-size="14.00">stake</text>
</g>
<!-- reconfiguration&#45;&gt;stake -->
<g id="edge13" class="edge">
<title>reconfiguration&#45;&gt;stake</title>
<path fill="none" stroke="black" d="M1692.7,-726.97C1618.32,-712.71 1483.73,-686.89 1418.08,-674.3"/>
<polygon fill="black" stroke="black" points="1418.99,-670.91 1408.51,-672.47 1417.67,-677.79 1418.99,-670.91"/>
</g>
<!-- storage_gas -->
<g id="node11" class="node">
<title>storage_gas</title>
<ellipse fill="none" stroke="black" cx="1946" cy="-450" rx="51.99" ry="18"/>
<text text-anchor="middle" x="1946" y="-446.3" font-family="Times,serif" font-size="14.00">storage_gas</text>
</g>
<!-- reconfiguration&#45;&gt;storage_gas -->
<g id="edge14" class="edge">
<title>reconfiguration&#45;&gt;storage_gas</title>
<path fill="none" stroke="black" d="M1762.8,-720.65C1773.32,-710.57 1786.56,-697.11 1797,-684 1852.65,-614.1 1906.12,-522.71 1931.18,-478"/>
<polygon fill="black" stroke="black" points="1934.1,-479.95 1935.91,-469.51 1927.99,-476.55 1934.1,-479.95"/>
</g>
<!-- bcs -->
<g id="node12" class="node">
<title>bcs</title>
<ellipse fill="none" stroke="black" cx="529" cy="-234" rx="27" ry="18"/>
<text text-anchor="middle" x="529" y="-230.3" font-family="Times,serif" font-size="14.00">bcs</text>
</g>
<!-- event&#45;&gt;bcs -->
<g id="edge15" class="edge">
<title>event&#45;&gt;bcs</title>
<path fill="none" stroke="black" d="M806.96,-360.07C800.01,-339.75 785.47,-306.13 761,-288 703.34,-245.29 617.13,-236.14 567.65,-234.67"/>
<polygon fill="black" stroke="black" points="567.78,-231.17 557.71,-234.48 567.64,-238.17 567.78,-231.17"/>
</g>
<!-- guid -->
<g id="node13" class="node">
<title>guid</title>
<ellipse fill="none" stroke="black" cx="725" cy="-306" rx="27" ry="18"/>
<text text-anchor="middle" x="725" y="-302.3" font-family="Times,serif" font-size="14.00">guid</text>
</g>
<!-- event&#45;&gt;guid -->
<g id="edge16" class="edge">
<title>event&#45;&gt;guid</title>
<path fill="none" stroke="black" d="M794.81,-363.17C782.22,-353.04 764.91,-339.11 750.68,-327.66"/>
<polygon fill="black" stroke="black" points="753.02,-325.05 743.04,-321.51 748.63,-330.51 753.02,-325.05"/>
</g>
<!-- account&#45;&gt;error -->
<g id="edge20" class="edge">
<title>account&#45;&gt;error</title>
<path fill="none" stroke="black" d="M594.18,-447.66C726.19,-442.8 1158.18,-424.83 1213,-396 1340.78,-328.79 1295.88,-221.02 1418,-144 1473.85,-108.77 1551.27,-96.96 1597.53,-93"/>
<polygon fill="black" stroke="black" points="1597.65,-96.5 1607.35,-92.25 1597.12,-89.52 1597.65,-96.5"/>
</g>
<!-- account&#45;&gt;system_addresses -->
<g id="edge23" class="edge">
<title>account&#45;&gt;system_addresses</title>
<path fill="none" stroke="black" d="M586.76,-438.82C593.73,-436.55 601.11,-434.17 608,-432 660.71,-415.41 677.96,-421.46 727,-396 750.04,-384.04 748.73,-369.21 773,-360 809.11,-346.3 1344.47,-320.42 1553.9,-310.76"/>
<polygon fill="black" stroke="black" points="1553.78,-314.27 1563.61,-310.31 1553.46,-307.28 1553.78,-314.27"/>
</g>
<!-- account&#45;&gt;signer -->
<g id="edge19" class="edge">
<title>account&#45;&gt;signer</title>
<path fill="none" stroke="black" d="M517.64,-447.97C472.29,-444.96 396.48,-434.06 345,-396 296.13,-359.86 226.33,-186.57 200.3,-118.52"/>
<polygon fill="black" stroke="black" points="203.6,-117.33 196.78,-109.23 197.05,-119.82 203.6,-117.33"/>
</g>
<!-- account&#45;&gt;event -->
<g id="edge30" class="edge">
<title>account&#45;&gt;event</title>
<path fill="none" stroke="black" d="M586.1,-438.62C593.24,-436.31 600.86,-433.97 608,-432 678.27,-412.65 698.26,-417.19 768,-396 771.09,-395.06 774.26,-394.01 777.43,-392.9"/>
<polygon fill="black" stroke="black" points="778.42,-396.27 786.6,-389.53 776,-389.7 778.42,-396.27"/>
</g>
<!-- account&#45;&gt;bcs -->
<g id="edge25" class="edge">
<title>account&#45;&gt;bcs</title>
<path fill="none" stroke="black" d="M519.78,-443.59C491.9,-437.31 455.17,-423.98 437,-396 428.29,-382.58 429.02,-373.87 437,-360 452.9,-332.39 478.84,-348.68 499,-324 513.2,-306.62 520.8,-282.2 524.8,-263.33"/>
<polygon fill="black" stroke="black" points="528.21,-264.11 526.61,-253.63 521.33,-262.82 528.21,-264.11"/>
</g>
<!-- account&#45;&gt;guid -->
<g id="edge28" class="edge">
<title>account&#45;&gt;guid</title>
<path fill="none" stroke="black" d="M584.02,-437.51C604.69,-428.2 632.78,-413.75 654,-396 675.95,-377.64 695.78,-351.59 708.87,-332.41"/>
<polygon fill="black" stroke="black" points="711.61,-334.61 714.23,-324.34 705.78,-330.73 711.61,-334.61"/>
</g>
<!-- vector -->
<g id="node14" class="node">
<title>vector</title>
<ellipse fill="none" stroke="black" cx="699" cy="-18" rx="32.49" ry="18"/>
<text text-anchor="middle" x="699" y="-14.3" font-family="Times,serif" font-size="14.00">vector</text>
</g>
<!-- account&#45;&gt;vector -->
<g id="edge17" class="edge">
<title>account&#45;&gt;vector</title>
<path fill="none" stroke="black" d="M517.53,-449.61C465.97,-448.58 373.66,-440.04 311,-396 179.28,-303.42 40.76,-191.18 149,-72 182.82,-34.77 530.39,-22.97 654.92,-19.92"/>
<polygon fill="black" stroke="black" points="654.82,-23.42 664.74,-19.69 654.66,-16.42 654.82,-23.42"/>
</g>
<!-- option -->
<g id="node15" class="node">
<title>option</title>
<ellipse fill="none" stroke="black" cx="913" cy="-90" rx="33.29" ry="18"/>
<text text-anchor="middle" x="913" y="-86.3" font-family="Times,serif" font-size="14.00">option</text>
</g>
<!-- account&#45;&gt;option -->
<g id="edge18" class="edge">
<title>account&#45;&gt;option</title>
<path fill="none" stroke="black" d="M572.77,-433.89C583.8,-423.63 598.31,-409.51 610,-396 629.45,-373.51 664.93,-305.46 689,-288 730.63,-257.79 757.6,-282.53 799,-252 847.46,-216.26 883.13,-153.67 900.72,-117.97"/>
<polygon fill="black" stroke="black" points="903.76,-119.71 904.93,-109.18 897.45,-116.68 903.76,-119.71"/>
</g>
<!-- type_info -->
<g id="node16" class="node">
<title>type_info</title>
<ellipse fill="none" stroke="black" cx="311" cy="-234" rx="44.39" ry="18"/>
<text text-anchor="middle" x="311" y="-230.3" font-family="Times,serif" font-size="14.00">type_info</text>
</g>
<!-- account&#45;&gt;type_info -->
<g id="edge21" class="edge">
<title>account&#45;&gt;type_info</title>
<path fill="none" stroke="black" d="M518.06,-447.39C477.82,-443.74 414.7,-432.15 375,-396 336.44,-360.88 320.75,-299.47 314.64,-263.5"/>
<polygon fill="black" stroke="black" points="318.14,-263.19 313.15,-253.85 311.22,-264.26 318.14,-263.19"/>
</g>
<!-- table -->
<g id="node17" class="node">
<title>table</title>
<ellipse fill="none" stroke="black" cx="988" cy="-306" rx="27.9" ry="18"/>
<text text-anchor="middle" x="988" y="-302.3" font-family="Times,serif" font-size="14.00">table</text>
</g>
<!-- account&#45;&gt;table -->
<g id="edge22" class="edge">
<title>account&#45;&gt;table</title>
<path fill="none" stroke="black" d="M586.2,-438.65C613.05,-428.99 653.05,-413.47 686,-396 711.48,-382.49 713.42,-371.21 740,-360 810.23,-330.37 898.89,-316.58 948.93,-310.75"/>
<polygon fill="black" stroke="black" points="949.14,-314.25 958.69,-309.67 948.37,-307.29 949.14,-314.25"/>
</g>
<!-- hash -->
<g id="node18" class="node">
<title>hash</title>
<ellipse fill="none" stroke="black" cx="400" cy="-234" rx="27" ry="18"/>
<text text-anchor="middle" x="400" y="-230.3" font-family="Times,serif" font-size="14.00">hash</text>
</g>
<!-- account&#45;&gt;hash -->
<g id="edge24" class="edge">
<title>account&#45;&gt;hash</title>
<path fill="none" stroke="black" d="M517.68,-447.57C480.33,-443.97 424.92,-432.36 395,-396 364.05,-358.39 377.53,-297.45 389.3,-262.32"/>
<polygon fill="black" stroke="black" points="392.45,-263.9 392.5,-253.31 385.86,-261.56 392.45,-263.9"/>
</g>
<!-- ed25519 -->
<g id="node19" class="node">
<title>ed25519</title>
<ellipse fill="none" stroke="black" cx="449" cy="-306" rx="40.89" ry="18"/>
<text text-anchor="middle" x="449" y="-302.3" font-family="Times,serif" font-size="14.00">ed25519</text>
</g>
<!-- account&#45;&gt;ed25519 -->
<g id="edge26" class="edge">
<title>account&#45;&gt;ed25519</title>
<path fill="none" stroke="black" d="M517.81,-447.51C481.81,-443.82 429.65,-432.11 404,-396 389.37,-375.41 406.03,-349.38 423.07,-330.8"/>
<polygon fill="black" stroke="black" points="425.54,-333.28 430.01,-323.67 420.53,-328.39 425.54,-333.28"/>
</g>
<!-- multi_ed25519 -->
<g id="node20" class="node">
<title>multi_ed25519</title>
<ellipse fill="none" stroke="black" cx="510" cy="-378" rx="64.19" ry="18"/>
<text text-anchor="middle" x="510" y="-374.3" font-family="Times,serif" font-size="14.00">multi_ed25519</text>
</g>
<!-- account&#45;&gt;multi_ed25519 -->
<g id="edge27" class="edge">
<title>account&#45;&gt;multi_ed25519</title>
<path fill="none" stroke="black" d="M545.1,-432.41C539.79,-424.34 533.28,-414.43 527.32,-405.35"/>
<polygon fill="black" stroke="black" points="530.39,-403.66 521.97,-397.22 524.54,-407.5 530.39,-403.66"/>
</g>
<!-- from_bcs -->
<g id="node21" class="node">
<title>from_bcs</title>
<ellipse fill="none" stroke="black" cx="746" cy="-234" rx="44.39" ry="18"/>
<text text-anchor="middle" x="746" y="-230.3" font-family="Times,serif" font-size="14.00">from_bcs</text>
</g>
<!-- account&#45;&gt;from_bcs -->
<g id="edge29" class="edge">
<title>account&#45;&gt;from_bcs</title>
<path fill="none" stroke="black" d="M565.03,-432.29C584.91,-395.9 632.52,-310.93 656,-288 670.5,-273.84 689.5,-261.93 706.31,-253.02"/>
<polygon fill="black" stroke="black" points="707.76,-256.21 715.08,-248.55 704.58,-249.97 707.76,-256.21"/>
</g>
<!-- chain_status&#45;&gt;error -->
<g id="edge31" class="edge">
<title>chain_status&#45;&gt;error</title>
<path fill="none" stroke="black" d="M2198.87,-359.54C2200,-315.5 2196.24,-199.45 2130,-144 2095.41,-115.04 1786.94,-97.97 1676.29,-92.74"/>
<polygon fill="black" stroke="black" points="1676.67,-89.25 1666.51,-92.28 1676.34,-96.24 1676.67,-89.25"/>
</g>
<!-- chain_status&#45;&gt;system_addresses -->
<g id="edge32" class="edge">
<title>chain_status&#45;&gt;system_addresses</title>
<path fill="none" stroke="black" d="M2148.21,-370.79C2049.6,-358.48 1828.91,-330.95 1712.38,-316.41"/>
<polygon fill="black" stroke="black" points="1712.96,-312.95 1702.6,-315.19 1712.09,-319.9 1712.96,-312.95"/>
</g>
<!-- timestamp&#45;&gt;error -->
<g id="edge33" class="edge">
<title>timestamp&#45;&gt;error</title>
<path fill="none" stroke="black" d="M1602.52,-503.87C1582.43,-465.46 1538.72,-369.47 1555,-288 1567.85,-223.69 1602.14,-154.12 1622.07,-117.32"/>
<polygon fill="black" stroke="black" points="1625.04,-119.19 1626.79,-108.74 1618.9,-115.81 1625.04,-119.19"/>
</g>
<!-- timestamp&#45;&gt;system_addresses -->
<g id="edge34" class="edge">
<title>timestamp&#45;&gt;system_addresses</title>
<path fill="none" stroke="black" d="M1606.23,-504.04C1596.97,-474.13 1581.46,-410.38 1598,-360 1601.18,-350.33 1606.87,-340.96 1612.94,-332.87"/>
<polygon fill="black" stroke="black" points="1615.59,-335.16 1619.16,-325.18 1610.15,-330.75 1615.59,-335.16"/>
</g>
<!-- stake&#45;&gt;error -->
<g id="edge38" class="edge">
<title>stake&#45;&gt;error</title>
<path fill="none" stroke="black" d="M1408.81,-663.26C1455.89,-659.44 1551.25,-647.61 1623,-612 1789.18,-529.52 1908,-492.53 1908,-307 1908,-307 1908,-307 1908,-233 1908,-129.64 1751.42,-101.37 1676.3,-93.75"/>
<polygon fill="black" stroke="black" points="1676.77,-90.28 1666.49,-92.84 1676.12,-97.25 1676.77,-90.28"/>
</g>
<!-- stake&#45;&gt;system_addresses -->
<g id="edge39" class="edge">
<title>stake&#45;&gt;system_addresses</title>
<path fill="none" stroke="black" d="M1372.19,-648.29C1364.76,-629.91 1356.08,-599.83 1366,-576 1414.13,-460.4 1538.78,-368.94 1600.82,-328.93"/>
<polygon fill="black" stroke="black" points="1602.38,-332.09 1608.94,-323.77 1598.63,-326.18 1602.38,-332.09"/>
</g>
<!-- stake&#45;&gt;signer -->
<g id="edge37" class="edge">
<title>stake&#45;&gt;signer</title>
<path fill="none" stroke="black" d="M1350.97,-665.33C1256.6,-665.86 950.36,-663.22 704,-612 511.62,-572 442.69,-586.57 286,-468 175.52,-384.4 180.46,-192.71 186.78,-119.84"/>
<polygon fill="black" stroke="black" points="190.26,-120.22 187.72,-109.93 183.29,-119.55 190.26,-120.22"/>
</g>
<!-- stake&#45;&gt;event -->
<g id="edge40" class="edge">
<title>stake&#45;&gt;event</title>
<path fill="none" stroke="black" d="M1351.7,-662.14C1295.93,-656.09 1168.17,-640.18 1064,-612 976.83,-588.42 942.92,-598.35 874,-540 834.26,-506.36 819.9,-444.16 814.78,-407.7"/>
<polygon fill="black" stroke="black" points="818.27,-407.4 813.56,-397.91 811.32,-408.26 818.27,-407.4"/>
</g>
<!-- stake&#45;&gt;account -->
<g id="edge41" class="edge">
<title>stake&#45;&gt;account</title>
<path fill="none" stroke="black" d="M1350.97,-664.46C1245.99,-662.19 886.73,-651.64 780,-612 697.15,-581.23 617.35,-511.16 579.25,-474.44"/>
<polygon fill="black" stroke="black" points="582.02,-472.25 572.42,-467.77 577.13,-477.26 582.02,-472.25"/>
</g>
<!-- stake&#45;&gt;timestamp -->
<g id="edge44" class="edge">
<title>stake&#45;&gt;timestamp</title>
<path fill="none" stroke="black" d="M1408.42,-661.87C1444.39,-656.7 1506.86,-643.61 1550,-612 1571.79,-596.04 1588.63,-570.02 1599.22,-550.23"/>
<polygon fill="black" stroke="black" points="1602.33,-551.82 1603.77,-541.33 1596.1,-548.64 1602.33,-551.82"/>
</g>
<!-- stake&#45;&gt;vector -->
<g id="edge35" class="edge">
<title>stake&#45;&gt;vector</title>
<path fill="none" stroke="black" d="M1351.18,-664.21C1219.43,-660.46 673.75,-643.27 506,-612 274,-568.75 0,-687 0,-451 0,-451 0,-451 0,-161 0,-26.73 501.55,-18.04 654.96,-18.53"/>
<polygon fill="black" stroke="black" points="654.69,-22.03 664.71,-18.57 654.73,-15.03 654.69,-22.03"/>
</g>
<!-- stake&#45;&gt;option -->
<g id="edge36" class="edge">
<title>stake&#45;&gt;option</title>
<path fill="none" stroke="black" d="M1404.47,-656.26C1423.42,-648.04 1448.33,-633.72 1460,-612 1467.57,-597.9 1465.69,-590.96 1460,-576 1383.71,-375.35 1295.97,-361.35 1138,-216 1099.53,-180.61 1090.36,-169.99 1045,-144 1015.25,-126.95 978.93,-112.8 951.93,-103.43"/>
<polygon fill="black" stroke="black" points="953.37,-100.22 942.77,-100.31 951.11,-106.85 953.37,-100.22"/>
</g>
<!-- coin -->
<g id="node22" class="node">
<title>coin</title>
<ellipse fill="none" stroke="black" cx="910" cy="-522" rx="27" ry="18"/>
<text text-anchor="middle" x="910" y="-518.3" font-family="Times,serif" font-size="14.00">coin</text>
</g>
<!-- stake&#45;&gt;coin -->
<g id="edge42" class="edge">
<title>stake&#45;&gt;coin</title>
<path fill="none" stroke="black" d="M1353.57,-658.38C1285.87,-641.19 1101.02,-592.78 951,-540 948.27,-539.04 945.45,-537.99 942.63,-536.91"/>
<polygon fill="black" stroke="black" points="943.95,-533.66 933.36,-533.19 941.34,-540.16 943.95,-533.66"/>
</g>
<!-- aptos_coin -->
<g id="node23" class="node">
<title>aptos_coin</title>
<ellipse fill="none" stroke="black" cx="1270" cy="-594" rx="48.99" ry="18"/>
<text text-anchor="middle" x="1270" y="-590.3" font-family="Times,serif" font-size="14.00">aptos_coin</text>
</g>
<!-- stake&#45;&gt;aptos_coin -->
<g id="edge43" class="edge">
<title>stake&#45;&gt;aptos_coin</title>
<path fill="none" stroke="black" d="M1360.33,-652.49C1344.51,-642.42 1321.93,-628.05 1303.3,-616.19"/>
<polygon fill="black" stroke="black" points="1305.3,-613.31 1294.98,-610.9 1301.54,-619.22 1305.3,-613.31"/>
</g>
<!-- staking_config -->
<g id="node24" class="node">
<title>staking_config</title>
<ellipse fill="none" stroke="black" cx="1779" cy="-378" rx="63.09" ry="18"/>
<text text-anchor="middle" x="1779" y="-374.3" font-family="Times,serif" font-size="14.00">staking_config</text>
</g>
<!-- stake&#45;&gt;staking_config -->
<g id="edge45" class="edge">
<title>stake&#45;&gt;staking_config</title>
<path fill="none" stroke="black" d="M1408,-661.47C1448.11,-655.57 1523.46,-641.36 1581,-612 1676.08,-563.49 1679.03,-519.61 1740,-432 1746.16,-423.14 1753.09,-413.61 1759.37,-405.1"/>
<polygon fill="black" stroke="black" points="1762.06,-407.35 1765.22,-397.23 1756.44,-403.17 1762.06,-407.35"/>
</g>
<!-- math64 -->
<g id="node25" class="node">
<title>math64</title>
<ellipse fill="none" stroke="black" cx="1413" cy="-594" rx="37.89" ry="18"/>
<text text-anchor="middle" x="1413" y="-590.3" font-family="Times,serif" font-size="14.00">math64</text>
</g>
<!-- stake&#45;&gt;math64 -->
<g id="edge46" class="edge">
<title>stake&#45;&gt;math64</title>
<path fill="none" stroke="black" d="M1387.82,-648.41C1391.51,-640.59 1396,-631.06 1400.16,-622.23"/>
<polygon fill="black" stroke="black" points="1403.26,-623.86 1404.36,-613.33 1396.93,-620.88 1403.26,-623.86"/>
</g>
<!-- bls12381 -->
<g id="node26" class="node">
<title>bls12381</title>
<ellipse fill="none" stroke="black" cx="1493" cy="-162" rx="42.79" ry="18"/>
<text text-anchor="middle" x="1493" y="-158.3" font-family="Times,serif" font-size="14.00">bls12381</text>
</g>
<!-- stake&#45;&gt;bls12381 -->
<g id="edge47" class="edge">
<title>stake&#45;&gt;bls12381</title>
<path fill="none" stroke="black" d="M1407.78,-660.49C1434.68,-654.5 1474.09,-641.06 1493,-612 1549.49,-525.18 1498,-482.58 1498,-379 1498,-379 1498,-379 1498,-305 1498,-265.72 1496.07,-220.36 1494.6,-191.68"/>
<polygon fill="black" stroke="black" points="1498.11,-191.79 1494.09,-181.99 1491.12,-192.16 1498.11,-191.79"/>
</g>
<!-- storage_gas&#45;&gt;error -->
<g id="edge48" class="edge">
<title>storage_gas&#45;&gt;error</title>
<path fill="none" stroke="black" d="M1988.44,-439.15C2012.61,-431.38 2041.48,-418.06 2059,-396 2084.16,-364.33 2078,-347.45 2078,-307 2078,-307 2078,-307 2078,-233 2078,-163.71 2014.15,-170.19 1950,-144 1856.72,-105.91 1737.05,-95.19 1676.25,-92.18"/>
<polygon fill="black" stroke="black" points="1676.56,-88.69 1666.41,-91.74 1676.24,-95.68 1676.56,-88.69"/>
</g>
<!-- storage_gas&#45;&gt;system_addresses -->
<g id="edge49" class="edge">
<title>storage_gas&#45;&gt;system_addresses</title>
<path fill="none" stroke="black" d="M1898.3,-442.31C1838.04,-433.19 1738.39,-415.74 1707,-396 1682.91,-380.85 1663.68,-354.38 1651.52,-334.23"/>
<polygon fill="black" stroke="black" points="1654.61,-332.58 1646.57,-325.67 1648.55,-336.08 1654.61,-332.58"/>
</g>
<!-- state_storage -->
<g id="node27" class="node">
<title>state_storage</title>
<ellipse fill="none" stroke="black" cx="1993" cy="-378" rx="56.59" ry="18"/>
<text text-anchor="middle" x="1993" y="-374.3" font-family="Times,serif" font-size="14.00">state_storage</text>
</g>
<!-- storage_gas&#45;&gt;state_storage -->
<g id="edge50" class="edge">
<title>storage_gas&#45;&gt;state_storage</title>
<path fill="none" stroke="black" d="M1957.38,-432.05C1962.8,-423.97 1969.42,-414.12 1975.47,-405.11"/>
<polygon fill="black" stroke="black" points="1978.22,-407.3 1980.88,-397.05 1972.4,-403.4 1978.22,-407.3"/>
</g>
<!-- option&#45;&gt;vector -->
<g id="edge51" class="edge">
<title>option&#45;&gt;vector</title>
<path fill="none" stroke="black" d="M885.02,-79.85C847.27,-67.5 779.86,-45.45 737.39,-31.56"/>
<polygon fill="black" stroke="black" points="738.68,-28.3 728.08,-28.51 736.5,-34.95 738.68,-28.3"/>
</g>
<!-- type_info&#45;&gt;error -->
<g id="edge53" class="edge">
<title>type_info&#45;&gt;error</title>
<path fill="none" stroke="black" d="M344.61,-221.91C406.16,-202.17 541.48,-161.37 659,-144 1020.68,-90.53 1464.71,-89.49 1597.63,-90.53"/>
<polygon fill="black" stroke="black" points="1597.26,-94.03 1607.29,-90.61 1597.32,-87.03 1597.26,-94.03"/>
</g>
<!-- string -->
<g id="node28" class="node">
<title>string</title>
<ellipse fill="none" stroke="black" cx="699" cy="-162" rx="30.59" ry="18"/>
<text text-anchor="middle" x="699" y="-158.3" font-family="Times,serif" font-size="14.00">string</text>
</g>
<!-- type_info&#45;&gt;string -->
<g id="edge52" class="edge">
<title>type_info&#45;&gt;string</title>
<path fill="none" stroke="black" d="M343.86,-221.6C350.48,-219.55 357.42,-217.57 364,-216 468.62,-191.1 594.46,-174.75 658,-167.43"/>
<polygon fill="black" stroke="black" points="658.08,-170.94 667.62,-166.34 657.29,-163.99 658.08,-170.94"/>
</g>
<!-- features -->
<g id="node29" class="node">
<title>features</title>
<ellipse fill="none" stroke="black" cx="311" cy="-162" rx="38.19" ry="18"/>
<text text-anchor="middle" x="311" y="-158.3" font-family="Times,serif" font-size="14.00">features</text>
</g>
<!-- type_info&#45;&gt;features -->
<g id="edge54" class="edge">
<title>type_info&#45;&gt;features</title>
<path fill="none" stroke="black" d="M311,-215.7C311,-208.41 311,-199.73 311,-191.54"/>
<polygon fill="black" stroke="black" points="314.5,-191.62 311,-181.62 307.5,-191.62 314.5,-191.62"/>
</g>
<!-- ed25519&#45;&gt;error -->
<g id="edge56" class="edge">
<title>ed25519&#45;&gt;error</title>
<path fill="none" stroke="black" d="M477.39,-292.77C522.36,-273.83 613.06,-237.37 693,-216 1035.67,-124.41 1467.03,-98.54 1597.72,-92.57"/>
<polygon fill="black" stroke="black" points="1597.73,-96.07 1607.56,-92.13 1597.42,-89.08 1597.73,-96.07"/>
</g>
<!-- ed25519&#45;&gt;bcs -->
<g id="edge59" class="edge">
<title>ed25519&#45;&gt;bcs</title>
<path fill="none" stroke="black" d="M466.75,-289.46C477.94,-279.68 492.53,-266.91 504.77,-256.2"/>
<polygon fill="black" stroke="black" points="506.83,-259.05 512.05,-249.83 502.22,-253.78 506.83,-259.05"/>
</g>
<!-- ed25519&#45;&gt;option -->
<g id="edge55" class="edge">
<title>ed25519&#45;&gt;option</title>
<path fill="none" stroke="black" d="M455.04,-287.71C462.18,-268.83 475.35,-238.3 493,-216 524.14,-176.64 534.27,-164.68 580,-144 676.36,-100.43 802.55,-91.96 868.48,-90.75"/>
<polygon fill="black" stroke="black" points="868.22,-94.25 878.18,-90.62 868.13,-87.25 868.22,-94.25"/>
</g>
<!-- ed25519&#45;&gt;type_info -->
<g id="edge57" class="edge">
<title>ed25519&#45;&gt;type_info</title>
<path fill="none" stroke="black" d="M423.04,-291.83C401.82,-281.07 371.56,-265.72 347.83,-253.68"/>
<polygon fill="black" stroke="black" points="349.63,-250.67 339.13,-249.27 346.47,-256.91 349.63,-250.67"/>
</g>
<!-- ed25519&#45;&gt;hash -->
<g id="edge58" class="edge">
<title>ed25519&#45;&gt;hash</title>
<path fill="none" stroke="black" d="M437.39,-288.41C431.42,-279.89 424.03,-269.33 417.4,-259.86"/>
<polygon fill="black" stroke="black" points="420.33,-257.94 411.73,-251.75 414.59,-261.95 420.33,-257.94"/>
</g>
<!-- multi_ed25519&#45;&gt;error -->
<g id="edge61" class="edge">
<title>multi_ed25519&#45;&gt;error</title>
<path fill="none" stroke="black" d="M563.87,-367.76C615.04,-358.48 693.91,-342.88 761,-324 991.58,-259.11 1036.44,-201.35 1269,-144 1386.95,-114.91 1530.36,-99.95 1598.05,-94.06"/>
<polygon fill="black" stroke="black" points="1598.23,-97.56 1607.9,-93.23 1597.64,-90.59 1598.23,-97.56"/>
</g>
<!-- multi_ed25519&#45;&gt;bcs -->
<g id="edge63" class="edge">
<title>multi_ed25519&#45;&gt;bcs</title>
<path fill="none" stroke="black" d="M519.13,-359.88C524.01,-349.76 529.51,-336.51 532,-324 535.98,-304.04 535.07,-281.08 533.25,-263.48"/>
<polygon fill="black" stroke="black" points="536.75,-263.26 532.08,-253.75 529.8,-264.1 536.75,-263.26"/>
</g>
<!-- multi_ed25519&#45;&gt;option -->
<g id="edge60" class="edge">
<title>multi_ed25519&#45;&gt;option</title>
<path fill="none" stroke="black" d="M522.63,-360.03C530.17,-349.73 539.84,-336.25 548,-324 600.08,-245.76 582.07,-197.99 659,-144 692.41,-120.55 805.8,-103.74 869.2,-95.92"/>
<polygon fill="black" stroke="black" points="869.41,-99.42 878.92,-94.75 868.57,-92.47 869.41,-99.42"/>
</g>
<!-- multi_ed25519&#45;&gt;hash -->
<g id="edge62" class="edge">
<title>multi_ed25519&#45;&gt;hash</title>
<path fill="none" stroke="black" d="M460.3,-366.18C437.49,-358.46 412.56,-345.49 399,-324 387.65,-306.01 388.8,-281.64 392.28,-262.94"/>
<polygon fill="black" stroke="black" points="395.66,-263.87 394.4,-253.35 388.82,-262.36 395.66,-263.87"/>
</g>
<!-- multi_ed25519&#45;&gt;ed25519 -->
<g id="edge64" class="edge">
<title>multi_ed25519&#45;&gt;ed25519</title>
<path fill="none" stroke="black" d="M495.23,-360.05C487.86,-351.59 478.79,-341.19 470.65,-331.84"/>
<polygon fill="black" stroke="black" points="473.41,-329.69 464.2,-324.45 468.14,-334.29 473.41,-329.69"/>
</g>
<!-- from_bcs&#45;&gt;string -->
<g id="edge65" class="edge">
<title>from_bcs&#45;&gt;string</title>
<path fill="none" stroke="black" d="M734.86,-216.41C729.22,-208.01 722.25,-197.63 715.96,-188.26"/>
<polygon fill="black" stroke="black" points="719.06,-186.6 710.58,-180.24 713.25,-190.5 719.06,-186.6"/>
</g>
<!-- coin&#45;&gt;error -->
<g id="edge69" class="edge">
<title>coin&#45;&gt;error</title>
<path fill="none" stroke="black" d="M936.56,-518.34C1085.96,-503.27 1816.25,-428.13 1851,-396 1880.7,-368.54 1870,-347.45 1870,-307 1870,-307 1870,-307 1870,-233 1870,-142.95 1741.54,-108.34 1675.38,-96.48"/>
<polygon fill="black" stroke="black" points="1676.12,-93.06 1665.68,-94.84 1674.95,-99.96 1676.12,-93.06"/>
</g>
<!-- coin&#45;&gt;system_addresses -->
<g id="edge71" class="edge">
<title>coin&#45;&gt;system_addresses</title>
<path fill="none" stroke="black" d="M936.9,-518.64C984.31,-513.77 1085.21,-500.25 1164,-468 1246.15,-434.37 1249.3,-392.24 1332,-360 1404.36,-331.79 1492.21,-318.54 1555.01,-312.35"/>
<polygon fill="black" stroke="black" points="1555.3,-315.84 1564.93,-311.42 1554.64,-308.87 1555.3,-315.84"/>
</g>
<!-- coin&#45;&gt;signer -->
<g id="edge68" class="edge">
<title>coin&#45;&gt;signer</title>
<path fill="none" stroke="black" d="M883.22,-518.81C779.58,-510.26 409.52,-479.09 387,-468 249.58,-400.35 205.52,-194.86 193.75,-119.28"/>
<polygon fill="black" stroke="black" points="197.27,-119.19 192.35,-109.81 190.35,-120.21 197.27,-119.19"/>
</g>
<!-- coin&#45;&gt;event -->
<g id="edge72" class="edge">
<title>coin&#45;&gt;event</title>
<path fill="none" stroke="black" d="M893.43,-507.39C881.93,-497.35 866.79,-482.89 856,-468 842.18,-448.93 830.58,-424.86 822.76,-406.56"/>
<polygon fill="black" stroke="black" points="826.04,-405.31 818.98,-397.41 819.57,-407.99 826.04,-405.31"/>
</g>
<!-- coin&#45;&gt;account -->
<g id="edge73" class="edge">
<title>coin&#45;&gt;account</title>
<path fill="none" stroke="black" d="M884.26,-515.91C824.78,-504.15 677.18,-474.96 601.83,-460.06"/>
<polygon fill="black" stroke="black" points="602.79,-456.69 592.31,-458.18 601.44,-463.55 602.79,-456.69"/>
</g>
<!-- coin&#45;&gt;option -->
<g id="edge66" class="edge">
<title>coin&#45;&gt;option</title>
<path fill="none" stroke="black" d="M911.22,-503.82C911.89,-493.46 912.66,-479.98 913,-468 916.68,-337.97 914.64,-182.61 913.55,-119.62"/>
<polygon fill="black" stroke="black" points="917.05,-119.74 913.37,-109.8 910.06,-119.87 917.05,-119.74"/>
</g>
<!-- coin&#45;&gt;type_info -->
<g id="edge70" class="edge">
<title>coin&#45;&gt;type_info</title>
<path fill="none" stroke="black" d="M882.72,-520.04C817.15,-517.16 645.95,-506.28 509,-468 432.33,-446.57 400.07,-453.48 345,-396 310.82,-360.32 307.3,-299.37 308.62,-263.58"/>
<polygon fill="black" stroke="black" points="312.09,-264.16 309.13,-253.99 305.1,-263.78 312.09,-264.16"/>
</g>
<!-- coin&#45;&gt;string -->
<g id="edge67" class="edge">
<title>coin&#45;&gt;string</title>
<path fill="none" stroke="black" d="M908.06,-503.64C901.61,-453.31 876.69,-305.26 799,-216 782.41,-196.94 757.26,-183.66 736.33,-175.16"/>
<polygon fill="black" stroke="black" points="737.84,-171.99 727.25,-171.68 735.34,-178.52 737.84,-171.99"/>
</g>
<!-- optional_aggregator -->
<g id="node30" class="node">
<title>optional_aggregator</title>
<ellipse fill="none" stroke="black" cx="1074" cy="-450" rx="81.49" ry="18"/>
<text text-anchor="middle" x="1074" y="-446.3" font-family="Times,serif" font-size="14.00">optional_aggregator</text>
</g>
<!-- coin&#45;&gt;optional_aggregator -->
<g id="edge74" class="edge">
<title>coin&#45;&gt;optional_aggregator</title>
<path fill="none" stroke="black" d="M932.46,-511.41C956.81,-501.02 996.37,-484.13 1027.48,-470.85"/>
<polygon fill="black" stroke="black" points="1028.46,-474.24 1036.28,-467.1 1025.71,-467.8 1028.46,-474.24"/>
</g>
<!-- aptos_coin&#45;&gt;error -->
<g id="edge79" class="edge">
<title>aptos_coin&#45;&gt;error</title>
<path fill="none" stroke="black" d="M1302.73,-580.14C1355.1,-560.17 1461.36,-522.11 1555,-504 1814.45,-453.81 2116,-571.26 2116,-307 2116,-307 2116,-307 2116,-233 2116,-173.17 2069.36,-168.99 2015,-144 1955.18,-116.51 1760.51,-99.76 1676.35,-93.65"/>
<polygon fill="black" stroke="black" points="1676.74,-90.16 1666.51,-92.94 1676.24,-97.15 1676.74,-90.16"/>
</g>
<!-- aptos_coin&#45;&gt;system_addresses -->
<g id="edge80" class="edge">
<title>aptos_coin&#45;&gt;system_addresses</title>
<path fill="none" stroke="black" d="M1277.94,-575.9C1298.9,-532.7 1360.07,-418.45 1446,-360 1479.78,-337.02 1523.31,-323.96 1560.27,-316.56"/>
<polygon fill="black" stroke="black" points="1560.85,-320.01 1570.03,-314.72 1559.56,-313.13 1560.85,-320.01"/>
</g>
<!-- aptos_coin&#45;&gt;signer -->
<g id="edge78" class="edge">
<title>aptos_coin&#45;&gt;signer</title>
<path fill="none" stroke="black" d="M1221.15,-591.07C1051.49,-583.67 489.71,-553.14 334,-468 206.76,-398.43 191.14,-194.92 189.82,-119.53"/>
<polygon fill="black" stroke="black" points="193.32,-119.65 189.73,-109.68 186.32,-119.72 193.32,-119.65"/>
</g>
<!-- aptos_coin&#45;&gt;vector -->
<g id="edge75" class="edge">
<title>aptos_coin&#45;&gt;vector</title>
<path fill="none" stroke="black" d="M1312.92,-584.86C1329.48,-581.86 1348.59,-578.57 1366,-576 1500.16,-556.17 1534.9,-560.2 1669,-540 1936.76,-499.67 2089.3,-605.39 2261,-396 2332.62,-308.65 2369.12,-228.35 2294,-144 2187.96,-24.93 988.98,-18.89 742.96,-18.92"/>
<polygon fill="black" stroke="black" points="743.16,-15.42 733.16,-18.92 743.16,-22.42 743.16,-15.42"/>
</g>
<!-- aptos_coin&#45;&gt;option -->
<g id="edge76" class="edge">
<title>aptos_coin&#45;&gt;option</title>
<path fill="none" stroke="black" d="M1269.3,-575.63C1266.39,-525.28 1251.6,-377.16 1177,-288 1108.74,-206.41 1000.3,-139.38 946.1,-108.83"/>
<polygon fill="black" stroke="black" points="948.09,-105.93 937.65,-104.12 944.68,-112.04 948.09,-105.93"/>
</g>
<!-- aptos_coin&#45;&gt;coin -->
<g id="edge81" class="edge">
<title>aptos_coin&#45;&gt;coin</title>
<path fill="none" stroke="black" d="M1222.77,-588.56C1159.84,-581.88 1045.45,-567.04 951,-540 948.21,-539.2 945.36,-538.27 942.52,-537.26"/>
<polygon fill="black" stroke="black" points="943.8,-534.01 933.21,-533.67 941.28,-540.54 943.8,-534.01"/>
</g>
<!-- aptos_coin&#45;&gt;string -->
<g id="edge77" class="edge">
<title>aptos_coin&#45;&gt;string</title>
<path fill="none" stroke="black" d="M1229.35,-583.49C1169.83,-567.87 1057.99,-531.97 984,-468 884.17,-381.7 927.66,-301.32 827,-216 801.39,-194.3 765.66,-180.5 738.46,-172.45"/>
<polygon fill="black" stroke="black" points="739.41,-169.08 728.83,-169.75 737.52,-175.82 739.41,-169.08"/>
</g>
<!-- staking_config&#45;&gt;error -->
<g id="edge82" class="edge">
<title>staking_config&#45;&gt;error</title>
<path fill="none" stroke="black" d="M1770.54,-359.97C1746.76,-312.06 1679.15,-175.9 1650.31,-117.8"/>
<polygon fill="black" stroke="black" points="1653.49,-116.34 1645.91,-108.94 1647.22,-119.46 1653.49,-116.34"/>
</g>
<!-- staking_config&#45;&gt;system_addresses -->
<g id="edge83" class="edge">
<title>staking_config&#45;&gt;system_addresses</title>
<path fill="none" stroke="black" d="M1748.54,-361.98C1728.14,-351.93 1701.02,-338.56 1678.63,-327.52"/>
<polygon fill="black" stroke="black" points="1680.27,-324.43 1669.75,-323.15 1677.17,-330.71 1680.27,-324.43"/>
</g>
<!-- bls12381&#45;&gt;error -->
<g id="edge85" class="edge">
<title>bls12381&#45;&gt;error</title>
<path fill="none" stroke="black" d="M1520.09,-147.83C1544.18,-136.12 1579.45,-118.98 1604.94,-106.58"/>
<polygon fill="black" stroke="black" points="1606.39,-109.77 1613.85,-102.25 1603.33,-103.48 1606.39,-109.77"/>
</g>
<!-- bls12381&#45;&gt;option -->
<g id="edge84" class="edge">
<title>bls12381&#45;&gt;option</title>
<path fill="none" stroke="black" d="M1452.22,-156.08C1346.61,-143.33 1064.9,-109.33 956.42,-96.24"/>
<polygon fill="black" stroke="black" points="957.12,-92.8 946.77,-95.08 956.28,-99.75 957.12,-92.8"/>
</g>
<!-- state_storage&#45;&gt;error -->
<g id="edge86" class="edge">
<title>state_storage&#45;&gt;error</title>
<path fill="none" stroke="black" d="M1993.36,-359.5C1993.25,-315.87 1986.47,-201.63 1922,-144 1886.26,-112.06 1745.92,-98.31 1676.43,-93.36"/>
<polygon fill="black" stroke="black" points="1676.84,-89.88 1666.62,-92.69 1676.36,-96.86 1676.84,-89.88"/>
</g>
<!-- state_storage&#45;&gt;system_addresses -->
<g id="edge87" class="edge">
<title>state_storage&#45;&gt;system_addresses</title>
<path fill="none" stroke="black" d="M1945.73,-367.7C1883.7,-355.51 1774.47,-334.03 1703.95,-320.16"/>
<polygon fill="black" stroke="black" points="1704.95,-316.79 1694.46,-318.3 1703.6,-323.66 1704.95,-316.79"/>
</g>
<!-- string&#45;&gt;vector -->
<g id="edge88" class="edge">
<title>string&#45;&gt;vector</title>
<path fill="none" stroke="black" d="M699,-143.59C699,-119.61 699,-76.14 699,-47.42"/>
<polygon fill="black" stroke="black" points="702.5,-47.62 699,-37.62 695.5,-47.62 702.5,-47.62"/>
</g>
<!-- string&#45;&gt;option -->
<g id="edge89" class="edge">
<title>string&#45;&gt;option</title>
<path fill="none" stroke="black" d="M724.14,-151.21C730.58,-148.78 737.53,-146.24 744,-144 787.87,-128.85 838.76,-113.14 873.14,-102.8"/>
<polygon fill="black" stroke="black" points="874.1,-106.16 882.68,-99.94 872.1,-99.46 874.1,-106.16"/>
</g>
<!-- features&#45;&gt;error -->
<g id="edge91" class="edge">
<title>features&#45;&gt;error</title>
<path fill="none" stroke="black" d="M342.61,-151.42C353.42,-148.53 365.65,-145.68 377,-144 500.04,-125.77 1397.39,-98.15 1597.51,-92.17"/>
<polygon fill="black" stroke="black" points="1597.48,-95.67 1607.37,-91.87 1597.27,-88.67 1597.48,-95.67"/>
</g>
<!-- features&#45;&gt;signer -->
<g id="edge90" class="edge">
<title>features&#45;&gt;signer</title>
<path fill="none" stroke="black" d="M287.67,-147.5C268.99,-136.7 242.59,-121.42 221.94,-109.48"/>
<polygon fill="black" stroke="black" points="223.75,-106.48 213.35,-104.51 220.25,-112.54 223.75,-106.48"/>
</g>
<!-- optional_aggregator&#45;&gt;error -->
<g id="edge93" class="edge">
<title>optional_aggregator&#45;&gt;error</title>
<path fill="none" stroke="black" d="M1133.82,-437.42C1233.32,-416.42 1422,-368.5 1422,-307 1422,-307 1422,-307 1422,-233 1422,-192.55 1413.18,-173.36 1441,-144 1481.62,-101.14 1553.01,-91.68 1597.51,-90.26"/>
<polygon fill="black" stroke="black" points="1597.3,-93.76 1607.24,-90.08 1597.17,-86.76 1597.3,-93.76"/>
</g>
<!-- optional_aggregator&#45;&gt;option -->
<g id="edge92" class="edge">
<title>optional_aggregator&#45;&gt;option</title>
<path fill="none" stroke="black" d="M1056.66,-432C1047.95,-422.32 1038.16,-409.47 1033,-396 1015.77,-351.06 1038.66,-334.15 1025,-288 1004.28,-218.01 982.86,-207.01 946,-144 940.73,-134.99 934.75,-125.26 929.35,-116.62"/>
<polygon fill="black" stroke="black" points="932.44,-114.97 924.15,-108.38 926.52,-118.7 932.44,-114.97"/>
</g>
<!-- aggregator -->
<g id="node31" class="node">
<title>aggregator</title>
<ellipse fill="none" stroke="black" cx="1120" cy="-306" rx="48.19" ry="18"/>
<text text-anchor="middle" x="1120" y="-302.3" font-family="Times,serif" font-size="14.00">aggregator</text>
</g>
<!-- optional_aggregator&#45;&gt;aggregator -->
<g id="edge94" class="edge">
<title>optional_aggregator&#45;&gt;aggregator</title>
<path fill="none" stroke="black" d="M1059.35,-432.02C1045.4,-413.67 1028.28,-383.85 1041,-360 1049.02,-344.96 1063.41,-333.44 1077.73,-325.03"/>
<polygon fill="black" stroke="black" points="1079.1,-328.27 1086.23,-320.43 1075.77,-322.12 1079.1,-328.27"/>
</g>
<!-- aggregator_factory -->
<g id="node32" class="node">
<title>aggregator_factory</title>
<ellipse fill="none" stroke="black" cx="1127" cy="-378" rx="77.19" ry="18"/>
<text text-anchor="middle" x="1127" y="-374.3" font-family="Times,serif" font-size="14.00">aggregator_factory</text>
</g>
<!-- optional_aggregator&#45;&gt;aggregator_factory -->
<g id="edge95" class="edge">
<title>optional_aggregator&#45;&gt;aggregator_factory</title>
<path fill="none" stroke="black" d="M1086.83,-432.05C1093.01,-423.89 1100.57,-413.91 1107.45,-404.82"/>
<polygon fill="black" stroke="black" points="1110.13,-407.08 1113.37,-397 1104.55,-402.86 1110.13,-407.08"/>
</g>
<!-- aggregator_factory&#45;&gt;error -->
<g id="edge96" class="edge">
<title>aggregator_factory&#45;&gt;error</title>
<path fill="none" stroke="black" d="M1143.62,-360.18C1153.55,-349.94 1166.28,-336.47 1177,-324 1243.27,-246.96 1230.6,-195.85 1318,-144 1364.86,-116.2 1524.07,-100.09 1598.3,-93.92"/>
<polygon fill="black" stroke="black" points="1598.27,-97.43 1607.95,-93.14 1597.7,-90.46 1598.27,-97.43"/>
</g>
<!-- aggregator_factory&#45;&gt;system_addresses -->
<g id="edge98" class="edge">
<title>aggregator_factory&#45;&gt;system_addresses</title>
<path fill="none" stroke="black" d="M1192.37,-368.03C1287.48,-354.97 1463.51,-330.81 1563.17,-317.13"/>
<polygon fill="black" stroke="black" points="1563.42,-320.63 1572.85,-315.81 1562.46,-313.7 1563.42,-320.63"/>
</g>
<!-- aggregator_factory&#45;&gt;table -->
<g id="edge97" class="edge">
<title>aggregator_factory&#45;&gt;table</title>
<path fill="none" stroke="black" d="M1095.46,-361.12C1072.78,-349.69 1042.32,-334.35 1019.62,-322.92"/>
<polygon fill="black" stroke="black" points="1021.34,-319.87 1010.83,-318.5 1018.19,-326.12 1021.34,-319.87"/>
</g>
<!-- aggregator_factory&#45;&gt;aggregator -->
<g id="edge99" class="edge">
<title>aggregator_factory&#45;&gt;aggregator</title>
<path fill="none" stroke="black" d="M1125.27,-359.7C1124.54,-352.41 1123.67,-343.73 1122.85,-335.54"/>
<polygon fill="black" stroke="black" points="1126.34,-335.21 1121.86,-325.61 1119.37,-335.91 1126.34,-335.21"/>
</g>
</g>
</svg>
