<?xml version="1.0" encoding="UTF-8" standalone="no"?>
<!DOCTYPE svg PUBLIC "-//W3C//DTD SVG 1.1//EN"
 "http://www.w3.org/Graphics/SVG/1.1/DTD/svg11.dtd">
<!-- Generated by graphviz version 7.0.0 (20221023.0053)
 -->
<!-- Title: G Pages: 1 -->
<svg width="1651pt" height="548pt"
 viewBox="0.00 0.00 1650.70 548.00" xmlns="http://www.w3.org/2000/svg" xmlns:xlink="http://www.w3.org/1999/xlink">
<g id="graph0" class="graph" transform="scale(1 1) rotate(0) translate(4 544)">
<title>G</title>
<polygon fill="white" stroke="none" points="-4,4 -4,-544 1646.7,-544 1646.7,4 -4,4"/>
<!-- event -->
<g id="node1" class="node">
<title>event</title>
<ellipse fill="none" stroke="black" cx="511.55" cy="-18" rx="29.8" ry="18"/>
<text text-anchor="middle" x="511.55" y="-14.3" font-family="Times,serif" font-size="14.00">event</text>
</g>
<!-- account -->
<g id="node2" class="node">
<title>account</title>
<ellipse fill="none" stroke="black" cx="625.55" cy="-90" rx="38.19" ry="18"/>
<text text-anchor="middle" x="625.55" y="-86.3" font-family="Times,serif" font-size="14.00">account</text>
</g>
<!-- account&#45;&gt;event -->
<g id="edge1" class="edge">
<title>account&#45;&gt;event</title>
<path fill="none" stroke="black" d="M603.02,-75.17C585.42,-64.36 560.8,-49.24 541.53,-37.41"/>
<polygon fill="black" stroke="black" points="543.37,-34.44 533.02,-32.19 539.71,-40.4 543.37,-34.44"/>
</g>
<!-- coin -->
<g id="node3" class="node">
<title>coin</title>
<ellipse fill="none" stroke="black" cx="977.55" cy="-162" rx="27" ry="18"/>
<text text-anchor="middle" x="977.55" y="-158.3" font-family="Times,serif" font-size="14.00">coin</text>
</g>
<!-- coin&#45;&gt;event -->
<g id="edge2" class="edge">
<title>coin&#45;&gt;event</title>
<path fill="none" stroke="black" d="M953.15,-153.57C876.55,-130.23 640.53,-58.3 548.67,-30.31"/>
<polygon fill="black" stroke="black" points="549.73,-26.98 539.14,-27.41 547.69,-33.67 549.73,-26.98"/>
</g>
<!-- coin&#45;&gt;account -->
<g id="edge10" class="edge">
<title>coin&#45;&gt;account</title>
<path fill="none" stroke="black" d="M951.66,-155.85C892.39,-144.07 746.16,-114.99 671.31,-100.1"/>
<polygon fill="black" stroke="black" points="672.34,-96.74 661.85,-98.22 670.98,-103.6 672.34,-96.74"/>
</g>
<!-- voting -->
<g id="node4" class="node">
<title>voting</title>
<ellipse fill="none" stroke="black" cx="412.55" cy="-162" rx="33.29" ry="18"/>
<text text-anchor="middle" x="412.55" y="-158.3" font-family="Times,serif" font-size="14.00">voting</text>
</g>
<!-- voting&#45;&gt;event -->
<g id="edge3" class="edge">
<title>voting&#45;&gt;event</title>
<path fill="none" stroke="black" d="M423.9,-144.71C441.06,-120.1 473.73,-73.24 493.97,-44.21"/>
<polygon fill="black" stroke="black" points="496.61,-46.55 499.46,-36.34 490.87,-42.54 496.61,-46.55"/>
</g>
<!-- voting&#45;&gt;account -->
<g id="edge12" class="edge">
<title>voting&#45;&gt;account</title>
<path fill="none" stroke="black" d="M439.33,-151.11C445.92,-148.74 452.98,-146.24 459.55,-144 501.49,-129.73 549.77,-114.44 583.41,-103.97"/>
<polygon fill="black" stroke="black" points="584.27,-107.37 592.78,-101.06 582.19,-100.68 584.27,-107.37"/>
</g>
<!-- stake -->
<g id="node5" class="node">
<title>stake</title>
<ellipse fill="none" stroke="black" cx="568.55" cy="-306" rx="28.7" ry="18"/>
<text text-anchor="middle" x="568.55" y="-302.3" font-family="Times,serif" font-size="14.00">stake</text>
</g>
<!-- stake&#45;&gt;event -->
<g id="edge4" class="edge">
<title>stake&#45;&gt;event</title>
<path fill="none" stroke="black" d="M565.15,-287.97C555.69,-240.49 528.95,-106.31 517.2,-47.36"/>
<polygon fill="black" stroke="black" points="520.68,-46.91 515.29,-37.79 513.81,-48.28 520.68,-46.91"/>
</g>
<!-- stake&#45;&gt;account -->
<g id="edge13" class="edge">
<title>stake&#45;&gt;account</title>
<path fill="none" stroke="black" d="M573.12,-287.85C582.91,-251.07 606.03,-164.29 618.02,-119.24"/>
<polygon fill="black" stroke="black" points="621.38,-120.26 620.57,-109.7 614.61,-118.46 621.38,-120.26"/>
</g>
<!-- stake&#45;&gt;coin -->
<g id="edge24" class="edge">
<title>stake&#45;&gt;coin</title>
<path fill="none" stroke="black" d="M592.05,-295.31C633.7,-278.28 723.38,-242.31 800.55,-216 849.04,-199.47 905.92,-182.93 941.84,-172.84"/>
<polygon fill="black" stroke="black" points="942.59,-176.26 951.28,-170.2 940.71,-169.52 942.59,-176.26"/>
</g>
<!-- aptos_coin -->
<g id="node15" class="node">
<title>aptos_coin</title>
<ellipse fill="none" stroke="black" cx="900.55" cy="-234" rx="48.99" ry="18"/>
<text text-anchor="middle" x="900.55" y="-230.3" font-family="Times,serif" font-size="14.00">aptos_coin</text>
</g>
<!-- stake&#45;&gt;aptos_coin -->
<g id="edge57" class="edge">
<title>stake&#45;&gt;aptos_coin</title>
<path fill="none" stroke="black" d="M595.72,-299.27C650.69,-287.68 775.99,-261.26 847.65,-246.15"/>
<polygon fill="black" stroke="black" points="848.13,-249.63 857.19,-244.14 846.68,-242.78 848.13,-249.63"/>
</g>
<!-- reconfiguration -->
<g id="node6" class="node">
<title>reconfiguration</title>
<ellipse fill="none" stroke="black" cx="304.55" cy="-378" rx="64.99" ry="18"/>
<text text-anchor="middle" x="304.55" y="-374.3" font-family="Times,serif" font-size="14.00">reconfiguration</text>
</g>
<!-- reconfiguration&#45;&gt;event -->
<g id="edge5" class="edge">
<title>reconfiguration&#45;&gt;event</title>
<path fill="none" stroke="black" d="M264.5,-363.49C214.52,-343.8 135.55,-302.06 135.55,-235 135.55,-235 135.55,-235 135.55,-161 135.55,-89.76 374.78,-41.82 471.59,-25.34"/>
<polygon fill="black" stroke="black" points="471.89,-28.84 481.17,-23.73 470.73,-21.93 471.89,-28.84"/>
</g>
<!-- reconfiguration&#45;&gt;account -->
<g id="edge14" class="edge">
<title>reconfiguration&#45;&gt;account</title>
<path fill="none" stroke="black" d="M318.27,-360.12C352.04,-319.31 443.17,-213.55 535.55,-144 552.86,-130.96 573.63,-118.55 590.85,-109.01"/>
<polygon fill="black" stroke="black" points="592.09,-112.32 599.2,-104.47 588.74,-106.17 592.09,-112.32"/>
</g>
<!-- reconfiguration&#45;&gt;stake -->
<g id="edge34" class="edge">
<title>reconfiguration&#45;&gt;stake</title>
<path fill="none" stroke="black" d="M350.23,-364.89C401.49,-351.29 483.69,-329.5 531.24,-316.89"/>
<polygon fill="black" stroke="black" points="532.03,-320.3 540.8,-314.36 530.24,-313.54 532.03,-320.3"/>
</g>
<!-- aptos_governance -->
<g id="node7" class="node">
<title>aptos_governance</title>
<ellipse fill="none" stroke="black" cx="579.55" cy="-450" rx="74.19" ry="18"/>
<text text-anchor="middle" x="579.55" y="-446.3" font-family="Times,serif" font-size="14.00">aptos_governance</text>
</g>
<!-- aptos_governance&#45;&gt;event -->
<g id="edge6" class="edge">
<title>aptos_governance&#45;&gt;event</title>
<path fill="none" stroke="black" d="M520.57,-438.75C492.98,-431.19 461.63,-418.18 440.55,-396 371.03,-322.85 386.3,-279.68 370.55,-180 368.05,-164.2 364.23,-158.7 370.55,-144 388.93,-101.26 411.6,-102.72 446.55,-72 458.89,-61.15 472.98,-49.57 484.88,-40.01"/>
<polygon fill="black" stroke="black" points="487.06,-42.74 492.69,-33.77 482.69,-37.27 487.06,-42.74"/>
</g>
<!-- aptos_governance&#45;&gt;account -->
<g id="edge15" class="edge">
<title>aptos_governance&#45;&gt;account</title>
<path fill="none" stroke="black" d="M554.67,-432.6C542.82,-423.35 529.7,-410.71 522.55,-396 501.53,-352.76 504.53,-334.55 516.55,-288 533.91,-220.77 579.65,-152 606.04,-116.18"/>
<polygon fill="black" stroke="black" points="608.51,-118.71 611.7,-108.61 602.91,-114.52 608.51,-118.71"/>
</g>
<!-- aptos_governance&#45;&gt;coin -->
<g id="edge25" class="edge">
<title>aptos_governance&#45;&gt;coin</title>
<path fill="none" stroke="black" d="M565.71,-432.13C542.17,-401.25 499.73,-334.52 530.55,-288 576.57,-218.52 840.04,-179.71 939.52,-167.37"/>
<polygon fill="black" stroke="black" points="939.81,-170.86 949.31,-166.18 938.96,-163.91 939.81,-170.86"/>
</g>
<!-- aptos_governance&#45;&gt;voting -->
<g id="edge33" class="edge">
<title>aptos_governance&#45;&gt;voting</title>
<path fill="none" stroke="black" d="M525.98,-437.26C502.29,-429.41 476.1,-416.59 459.55,-396 434.43,-364.75 420.37,-246.71 415.04,-191.63"/>
<polygon fill="black" stroke="black" points="418.54,-191.42 414.13,-181.79 411.57,-192.07 418.54,-191.42"/>
</g>
<!-- aptos_governance&#45;&gt;stake -->
<g id="edge35" class="edge">
<title>aptos_governance&#45;&gt;stake</title>
<path fill="none" stroke="black" d="M578.2,-431.59C576.34,-407.61 572.97,-364.14 570.75,-335.42"/>
<polygon fill="black" stroke="black" points="574.25,-335.32 569.99,-325.62 567.27,-335.86 574.25,-335.32"/>
</g>
<!-- aptos_governance&#45;&gt;reconfiguration -->
<g id="edge41" class="edge">
<title>aptos_governance&#45;&gt;reconfiguration</title>
<path fill="none" stroke="black" d="M529.75,-436.32C482.55,-424.31 411.69,-406.27 362.09,-393.65"/>
<polygon fill="black" stroke="black" points="363.25,-390.33 352.69,-391.26 361.52,-397.11 363.25,-390.33"/>
</g>
<!-- aptos_governance&#45;&gt;aptos_coin -->
<g id="edge58" class="edge">
<title>aptos_governance&#45;&gt;aptos_coin</title>
<path fill="none" stroke="black" d="M626.76,-435.73C683.63,-417.86 779.63,-381.51 844.55,-324 863.83,-306.92 878.87,-281.63 888.48,-262.37"/>
<polygon fill="black" stroke="black" points="891.58,-264.01 892.73,-253.48 885.26,-260.99 891.58,-264.01"/>
</g>
<!-- block -->
<g id="node8" class="node">
<title>block</title>
<ellipse fill="none" stroke="black" cx="30.55" cy="-450" rx="30.59" ry="18"/>
<text text-anchor="middle" x="30.55" y="-446.3" font-family="Times,serif" font-size="14.00">block</text>
</g>
<!-- block&#45;&gt;event -->
<g id="edge7" class="edge">
<title>block&#45;&gt;event</title>
<path fill="none" stroke="black" d="M36.87,-432.23C46.2,-405.94 62.55,-353.25 62.55,-307 62.55,-307 62.55,-307 62.55,-161 62.55,-96.02 118.85,-97.67 178.55,-72 277.27,-29.54 405.64,-20.72 470.37,-19.13"/>
<polygon fill="black" stroke="black" points="470.26,-22.63 480.19,-18.94 470.12,-15.64 470.26,-22.63"/>
</g>
<!-- block&#45;&gt;account -->
<g id="edge16" class="edge">
<title>block&#45;&gt;account</title>
<path fill="none" stroke="black" d="M54.81,-438.5C95.6,-419.01 173.55,-373.13 173.55,-307 173.55,-307 173.55,-307 173.55,-233 173.55,-149.2 459.88,-108.84 576.75,-95.86"/>
<polygon fill="black" stroke="black" points="577.11,-99.34 586.67,-94.78 576.35,-92.38 577.11,-99.34"/>
</g>
<!-- block&#45;&gt;stake -->
<g id="edge36" class="edge">
<title>block&#45;&gt;stake</title>
<path fill="none" stroke="black" d="M54.5,-438.34C59.75,-436.14 65.3,-433.92 70.55,-432 121.65,-413.33 139.74,-421.98 187.55,-396 209.45,-384.1 207.85,-370.31 230.55,-360 330.59,-314.57 462.54,-307.12 528.05,-306.48"/>
<polygon fill="black" stroke="black" points="527.98,-309.98 537.97,-306.44 527.95,-302.98 527.98,-309.98"/>
</g>
<!-- block&#45;&gt;reconfiguration -->
<g id="edge42" class="edge">
<title>block&#45;&gt;reconfiguration</title>
<path fill="none" stroke="black" d="M53.97,-438.22C59.35,-435.98 65.09,-433.76 70.55,-432 86.93,-426.71 179.74,-406.15 243.44,-392.25"/>
<polygon fill="black" stroke="black" points="244.07,-395.69 253.09,-390.14 242.58,-388.85 244.07,-395.69"/>
</g>
<!-- staking_contract -->
<g id="node9" class="node">
<title>staking_contract</title>
<ellipse fill="none" stroke="black" cx="1518.55" cy="-378" rx="68.79" ry="18"/>
<text text-anchor="middle" x="1518.55" y="-374.3" font-family="Times,serif" font-size="14.00">staking_contract</text>
</g>
<!-- staking_contract&#45;&gt;event -->
<g id="edge8" class="edge">
<title>staking_contract&#45;&gt;event</title>
<path fill="none" stroke="black" d="M1530.85,-360.14C1537.62,-350.1 1545.62,-336.85 1550.55,-324 1564.96,-286.4 1567.55,-275.27 1567.55,-235 1567.55,-235 1567.55,-235 1567.55,-161 1567.55,-56.7 747.98,-25.96 552.87,-20.12"/>
<polygon fill="black" stroke="black" points="553.06,-16.63 542.96,-19.83 552.86,-23.62 553.06,-16.63"/>
</g>
<!-- staking_contract&#45;&gt;account -->
<g id="edge17" class="edge">
<title>staking_contract&#45;&gt;account</title>
<path fill="none" stroke="black" d="M1524.28,-359.63C1537.36,-316.31 1564,-202.71 1505.55,-144 1476.08,-114.4 856.79,-96.74 675.19,-92.18"/>
<polygon fill="black" stroke="black" points="675.46,-88.69 665.38,-91.94 675.29,-95.69 675.46,-88.69"/>
</g>
<!-- staking_contract&#45;&gt;coin -->
<g id="edge26" class="edge">
<title>staking_contract&#45;&gt;coin</title>
<path fill="none" stroke="black" d="M1510.64,-359.76C1494.03,-325.71 1451.96,-250.2 1391.55,-216 1327.73,-179.87 1106.01,-167.74 1015.99,-164.25"/>
<polygon fill="black" stroke="black" points="1016.32,-160.76 1006.19,-163.88 1016.06,-167.75 1016.32,-160.76"/>
</g>
<!-- staking_contract&#45;&gt;stake -->
<g id="edge37" class="edge">
<title>staking_contract&#45;&gt;stake</title>
<path fill="none" stroke="black" d="M1451.45,-373.48C1280.42,-364.4 831.23,-339.77 682.55,-324 657.41,-321.33 629.33,-317.16 607.33,-313.62"/>
<polygon fill="black" stroke="black" points="608.03,-310.19 597.6,-312.02 606.9,-317.09 608.03,-310.19"/>
</g>
<!-- staking_contract&#45;&gt;aptos_coin -->
<g id="edge59" class="edge">
<title>staking_contract&#45;&gt;aptos_coin</title>
<path fill="none" stroke="black" d="M1458.81,-368.73C1405.09,-360.4 1324.41,-345.66 1256.55,-324 1219.02,-312.02 1213.13,-299.8 1175.55,-288 1101.99,-264.9 1014.04,-250.08 957.76,-242.15"/>
<polygon fill="black" stroke="black" points="958.47,-238.71 948.09,-240.81 957.52,-245.65 958.47,-238.71"/>
</g>
<!-- vesting -->
<g id="node10" class="node">
<title>vesting</title>
<ellipse fill="none" stroke="black" cx="1348.55" cy="-450" rx="36.29" ry="18"/>
<text text-anchor="middle" x="1348.55" y="-446.3" font-family="Times,serif" font-size="14.00">vesting</text>
</g>
<!-- vesting&#45;&gt;event -->
<g id="edge9" class="edge">
<title>vesting&#45;&gt;event</title>
<path fill="none" stroke="black" d="M1384.09,-446.1C1445.33,-440.37 1567.05,-425.5 1596.55,-396 1625.14,-367.4 1615.55,-347.45 1615.55,-307 1615.55,-307 1615.55,-307 1615.55,-161 1615.55,-138 1752.95,-151.44 1408.55,-72 1242.43,-33.68 706.16,-22.16 552.84,-19.61"/>
<polygon fill="black" stroke="black" points="553.22,-16.12 543.17,-19.45 553.11,-23.12 553.22,-16.12"/>
</g>
<!-- vesting&#45;&gt;account -->
<g id="edge18" class="edge">
<title>vesting&#45;&gt;account</title>
<path fill="none" stroke="black" d="M1364.87,-433.72C1374.53,-423.82 1386.27,-410.17 1393.55,-396 1415.78,-352.71 1422.73,-335.36 1411.55,-288 1391.25,-202.03 1357.52,-174.32 1274.55,-144 1164.52,-103.79 807.3,-93.95 675.23,-91.66"/>
<polygon fill="black" stroke="black" points="675.47,-88.16 665.41,-91.5 675.35,-95.16 675.47,-88.16"/>
</g>
<!-- vesting&#45;&gt;coin -->
<g id="edge27" class="edge">
<title>vesting&#45;&gt;coin</title>
<path fill="none" stroke="black" d="M1357.3,-432.19C1368.97,-408.72 1389.05,-364.46 1396.55,-324 1399.46,-308.27 1400.39,-303.53 1396.55,-288 1387.85,-252.88 1388.17,-236.78 1358.55,-216 1303.78,-177.59 1101.42,-166.84 1016,-163.98"/>
<polygon fill="black" stroke="black" points="1016.36,-160.49 1006.26,-163.67 1016.14,-167.49 1016.36,-160.49"/>
</g>
<!-- vesting&#45;&gt;stake -->
<g id="edge38" class="edge">
<title>vesting&#45;&gt;stake</title>
<path fill="none" stroke="black" d="M1313.16,-445.26C1244.48,-437.77 1088.47,-419.6 958.55,-396 827.8,-372.25 674.62,-334.28 605.59,-316.62"/>
<polygon fill="black" stroke="black" points="606.88,-313.34 596.33,-314.24 605.14,-320.12 606.88,-313.34"/>
</g>
<!-- vesting&#45;&gt;staking_contract -->
<g id="edge49" class="edge">
<title>vesting&#45;&gt;staking_contract</title>
<path fill="none" stroke="black" d="M1375.86,-437.75C1401.8,-427.07 1441.32,-410.8 1472.2,-398.09"/>
<polygon fill="black" stroke="black" points="1473.41,-401.37 1481.32,-394.33 1470.74,-394.9 1473.41,-401.37"/>
</g>
<!-- aptos_account -->
<g id="node11" class="node">
<title>aptos_account</title>
<ellipse fill="none" stroke="black" cx="1326.55" cy="-306" rx="61.19" ry="18"/>
<text text-anchor="middle" x="1326.55" y="-302.3" font-family="Times,serif" font-size="14.00">aptos_account</text>
</g>
<!-- vesting&#45;&gt;aptos_account -->
<g id="edge54" class="edge">
<title>vesting&#45;&gt;aptos_account</title>
<path fill="none" stroke="black" d="M1345.85,-431.59C1342.13,-407.61 1335.4,-364.14 1330.95,-335.42"/>
<polygon fill="black" stroke="black" points="1334.42,-334.95 1329.43,-325.61 1327.5,-336.02 1334.42,-334.95"/>
</g>
<!-- vesting&#45;&gt;aptos_coin -->
<g id="edge60" class="edge">
<title>vesting&#45;&gt;aptos_coin</title>
<path fill="none" stroke="black" d="M1326.72,-435.3C1292.84,-413.59 1226.2,-369.08 1175.55,-324 1159.33,-309.57 1161.36,-298.83 1142.55,-288 1086.06,-255.49 1011.65,-242.9 960.33,-238.03"/>
<polygon fill="black" stroke="black" points="960.87,-234.57 950.61,-237.19 960.27,-241.54 960.87,-234.57"/>
</g>
<!-- aptos_account&#45;&gt;account -->
<g id="edge11" class="edge">
<title>aptos_account&#45;&gt;account</title>
<path fill="none" stroke="black" d="M1341.46,-288.27C1356.73,-269.05 1375.95,-237.41 1358.55,-216 1272.14,-109.7 825.26,-93.74 674.94,-91.39"/>
<polygon fill="black" stroke="black" points="675.37,-87.9 665.32,-91.25 675.27,-94.9 675.37,-87.9"/>
</g>
<!-- aptos_account&#45;&gt;coin -->
<g id="edge23" class="edge">
<title>aptos_account&#45;&gt;coin</title>
<path fill="none" stroke="black" d="M1291.67,-290.85C1269.44,-281.2 1240.42,-267.4 1216.55,-252 1195.6,-238.49 1195.65,-227.52 1173.55,-216 1122.2,-189.23 1056.04,-174.99 1015.22,-168.23"/>
<polygon fill="black" stroke="black" points="1015.83,-164.78 1005.41,-166.67 1014.74,-171.69 1015.83,-164.78"/>
</g>
<!-- aptos_account&#45;&gt;aptos_coin -->
<g id="edge56" class="edge">
<title>aptos_account&#45;&gt;aptos_coin</title>
<path fill="none" stroke="black" d="M1274.31,-296.42C1193.46,-283.13 1038.74,-257.71 955.99,-244.11"/>
<polygon fill="black" stroke="black" points="956.74,-240.69 946.3,-242.52 955.6,-247.59 956.74,-240.69"/>
</g>
<!-- transaction_validation -->
<g id="node12" class="node">
<title>transaction_validation</title>
<ellipse fill="none" stroke="black" cx="1056.55" cy="-378" rx="89.08" ry="18"/>
<text text-anchor="middle" x="1056.55" y="-374.3" font-family="Times,serif" font-size="14.00">transaction_validation</text>
</g>
<!-- transaction_validation&#45;&gt;account -->
<g id="edge19" class="edge">
<title>transaction_validation&#45;&gt;account</title>
<path fill="none" stroke="black" d="M975.17,-370.32C871.7,-361.09 703.82,-343.37 682.55,-324 621.73,-268.63 659.61,-223.77 639.55,-144 637.52,-135.94 635.25,-127.21 633.13,-119.2"/>
<polygon fill="black" stroke="black" points="636.53,-118.38 630.58,-109.62 629.77,-120.19 636.53,-118.38"/>
</g>
<!-- transaction_validation&#45;&gt;coin -->
<g id="edge29" class="edge">
<title>transaction_validation&#45;&gt;coin</title>
<path fill="none" stroke="black" d="M1030.29,-360.53C1017.95,-351.34 1004.28,-338.78 996.55,-324 974.45,-281.81 973.27,-225.05 975,-191.41"/>
<polygon fill="black" stroke="black" points="978.48,-191.86 975.64,-181.65 971.49,-191.4 978.48,-191.86"/>
</g>
<!-- transaction_validation&#45;&gt;aptos_coin -->
<g id="edge62" class="edge">
<title>transaction_validation&#45;&gt;aptos_coin</title>
<path fill="none" stroke="black" d="M1020.59,-361.15C1002.25,-351.98 980.34,-339.23 963.55,-324 943.78,-306.08 926.69,-280.93 915.32,-261.93"/>
<polygon fill="black" stroke="black" points="918.41,-260.29 910.36,-253.4 912.36,-263.81 918.41,-260.29"/>
</g>
<!-- transaction_fee -->
<g id="node16" class="node">
<title>transaction_fee</title>
<ellipse fill="none" stroke="black" cx="1069.55" cy="-306" rx="64.19" ry="18"/>
<text text-anchor="middle" x="1069.55" y="-302.3" font-family="Times,serif" font-size="14.00">transaction_fee</text>
</g>
<!-- transaction_validation&#45;&gt;transaction_fee -->
<g id="edge65" class="edge">
<title>transaction_validation&#45;&gt;transaction_fee</title>
<path fill="none" stroke="black" d="M1059.76,-359.7C1061.13,-352.32 1062.76,-343.52 1064.3,-335.25"/>
<polygon fill="black" stroke="black" points="1067.71,-336.06 1066.09,-325.59 1060.83,-334.79 1067.71,-336.06"/>
</g>
<!-- genesis -->
<g id="node13" class="node">
<title>genesis</title>
<ellipse fill="none" stroke="black" cx="700.55" cy="-522" rx="36.29" ry="18"/>
<text text-anchor="middle" x="700.55" y="-518.3" font-family="Times,serif" font-size="14.00">genesis</text>
</g>
<!-- genesis&#45;&gt;account -->
<g id="edge20" class="edge">
<title>genesis&#45;&gt;account</title>
<path fill="none" stroke="black" d="M698.37,-503.8C695.91,-485.77 691.48,-456.68 685.55,-432 673.78,-383.07 662.27,-373.17 651.55,-324 644.68,-292.49 646.24,-284.04 642.55,-252 637.21,-205.7 631.65,-151.83 628.4,-119.63"/>
<polygon fill="black" stroke="black" points="631.91,-119.51 627.43,-109.91 624.94,-120.21 631.91,-119.51"/>
</g>
<!-- genesis&#45;&gt;coin -->
<g id="edge30" class="edge">
<title>genesis&#45;&gt;coin</title>
<path fill="none" stroke="black" d="M737.18,-521.54C805.65,-521.33 956.62,-515 1072.55,-468 1122.97,-447.56 1146.86,-444.48 1171.55,-396 1219.16,-302.5 1075,-213.34 1008.85,-178.45"/>
<polygon fill="black" stroke="black" points="1010.78,-175.51 1000.29,-174.02 1007.56,-181.72 1010.78,-175.51"/>
</g>
<!-- genesis&#45;&gt;stake -->
<g id="edge39" class="edge">
<title>genesis&#45;&gt;stake</title>
<path fill="none" stroke="black" d="M694.69,-504.02C688.05,-485.67 676.34,-455.85 662.55,-432 640.86,-394.48 609.67,-355.16 589.27,-330.86"/>
<polygon fill="black" stroke="black" points="592.13,-328.83 582.99,-323.48 586.8,-333.36 592.13,-328.83"/>
</g>
<!-- genesis&#45;&gt;reconfiguration -->
<g id="edge46" class="edge">
<title>genesis&#45;&gt;reconfiguration</title>
<path fill="none" stroke="black" d="M665.37,-517.29C623.06,-511.64 550.95,-498.17 496.55,-468 476.2,-456.72 478.44,-444.06 458.55,-432 429.71,-414.52 394.32,-401.82 364.74,-393.25"/>
<polygon fill="black" stroke="black" points="365.74,-389.89 355.17,-390.57 363.85,-396.64 365.74,-389.89"/>
</g>
<!-- genesis&#45;&gt;aptos_governance -->
<g id="edge47" class="edge">
<title>genesis&#45;&gt;aptos_governance</title>
<path fill="none" stroke="black" d="M677.5,-507.67C660.45,-497.81 636.86,-484.16 617.1,-472.73"/>
<polygon fill="black" stroke="black" points="618.89,-469.72 608.48,-467.74 615.39,-475.78 618.89,-469.72"/>
</g>
<!-- genesis&#45;&gt;block -->
<g id="edge48" class="edge">
<title>genesis&#45;&gt;block</title>
<path fill="none" stroke="black" d="M664.44,-519.47C548.19,-514.3 184.54,-496.25 70.55,-468 68.4,-467.47 66.23,-466.84 64.06,-466.14"/>
<polygon fill="black" stroke="black" points="65.4,-462.9 54.8,-462.7 62.96,-469.46 65.4,-462.9"/>
</g>
<!-- genesis&#45;&gt;staking_contract -->
<g id="edge50" class="edge">
<title>genesis&#45;&gt;staking_contract</title>
<path fill="none" stroke="black" d="M737.04,-520.77C861.9,-519.6 1271.02,-512.38 1393.55,-468 1432.19,-454 1469.66,-424.55 1493.33,-403.35"/>
<polygon fill="black" stroke="black" points="1495.58,-406.04 1500.59,-396.71 1490.85,-400.88 1495.58,-406.04"/>
</g>
<!-- genesis&#45;&gt;vesting -->
<g id="edge52" class="edge">
<title>genesis&#45;&gt;vesting</title>
<path fill="none" stroke="black" d="M736.24,-517.85C821.16,-510.27 1041.81,-489.96 1225.55,-468 1251.09,-464.95 1279.55,-461.05 1302.65,-457.75"/>
<polygon fill="black" stroke="black" points="1302.97,-461.24 1312.37,-456.36 1301.97,-454.31 1302.97,-461.24"/>
</g>
<!-- genesis&#45;&gt;transaction_validation -->
<g id="edge55" class="edge">
<title>genesis&#45;&gt;transaction_validation</title>
<path fill="none" stroke="black" d="M735.15,-515.99C778.57,-508.92 854.7,-493.89 915.55,-468 956.05,-450.76 998.19,-422.6 1025.73,-402.57"/>
<polygon fill="black" stroke="black" points="1027.64,-405.51 1033.61,-396.76 1023.49,-399.87 1027.64,-405.51"/>
</g>
<!-- genesis&#45;&gt;aptos_coin -->
<g id="edge63" class="edge">
<title>genesis&#45;&gt;aptos_coin</title>
<path fill="none" stroke="black" d="M717.99,-505.99C752.61,-475.27 830.4,-401.57 873.55,-324 884.11,-305.02 891.02,-281.41 895.21,-263.28"/>
<polygon fill="black" stroke="black" points="898.58,-264.25 897.26,-253.73 891.74,-262.78 898.58,-264.25"/>
</g>
<!-- genesis&#45;&gt;transaction_fee -->
<g id="edge66" class="edge">
<title>genesis&#45;&gt;transaction_fee</title>
<path fill="none" stroke="black" d="M735.92,-517.01C834.08,-505.1 1105.89,-466.22 1154.55,-396 1163.66,-382.85 1162.31,-373.99 1154.55,-360 1146.39,-345.3 1132.27,-334.14 1117.85,-325.95"/>
<polygon fill="black" stroke="black" points="1119.72,-322.98 1109.24,-321.44 1116.48,-329.18 1119.72,-322.98"/>
</g>
<!-- consensus_config -->
<g id="node19" class="node">
<title>consensus_config</title>
<ellipse fill="none" stroke="black" cx="152.55" cy="-450" rx="73.39" ry="18"/>
<text text-anchor="middle" x="152.55" y="-446.3" font-family="Times,serif" font-size="14.00">consensus_config</text>
</g>
<!-- genesis&#45;&gt;consensus_config -->
<g id="edge67" class="edge">
<title>genesis&#45;&gt;consensus_config</title>
<path fill="none" stroke="black" d="M664.73,-518.05C586.41,-511.35 394.14,-493.56 234.55,-468 228.86,-467.09 222.97,-466.05 217.08,-464.95"/>
<polygon fill="black" stroke="black" points="217.76,-461.52 207.28,-463.06 216.43,-468.39 217.76,-461.52"/>
</g>
<!-- gas_schedule -->
<g id="node20" class="node">
<title>gas_schedule</title>
<ellipse fill="none" stroke="black" cx="301.55" cy="-450" rx="57.69" ry="18"/>
<text text-anchor="middle" x="301.55" y="-446.3" font-family="Times,serif" font-size="14.00">gas_schedule</text>
</g>
<!-- genesis&#45;&gt;gas_schedule -->
<g id="edge68" class="edge">
<title>genesis&#45;&gt;gas_schedule</title>
<path fill="none" stroke="black" d="M665.47,-516.46C604.69,-508.36 476.02,-490.17 368.55,-468 364.24,-467.11 359.79,-466.13 355.34,-465.1"/>
<polygon fill="black" stroke="black" points="356.32,-461.73 345.78,-462.81 354.69,-468.54 356.32,-461.73"/>
</g>
<!-- version -->
<g id="node21" class="node">
<title>version</title>
<ellipse fill="none" stroke="black" cx="413.55" cy="-450" rx="36.29" ry="18"/>
<text text-anchor="middle" x="413.55" y="-446.3" font-family="Times,serif" font-size="14.00">version</text>
</g>
<!-- genesis&#45;&gt;version -->
<g id="edge69" class="edge">
<title>genesis&#45;&gt;version</title>
<path fill="none" stroke="black" d="M666.9,-514.66C620.7,-505.69 535.19,-488.13 463.55,-468 460.21,-467.06 456.77,-466.03 453.33,-464.96"/>
<polygon fill="black" stroke="black" points="454.5,-461.65 443.9,-461.89 452.33,-468.31 454.5,-461.65"/>
</g>
<!-- resource_account -->
<g id="node14" class="node">
<title>resource_account</title>
<ellipse fill="none" stroke="black" cx="763.55" cy="-306" rx="72.29" ry="18"/>
<text text-anchor="middle" x="763.55" y="-302.3" font-family="Times,serif" font-size="14.00">resource_account</text>
</g>
<!-- resource_account&#45;&gt;account -->
<g id="edge21" class="edge">
<title>resource_account&#45;&gt;account</title>
<path fill="none" stroke="black" d="M762.48,-287.62C759.7,-255.9 749.89,-187.87 715.55,-144 702.56,-127.41 682.82,-114.96 665.13,-106.31"/>
<polygon fill="black" stroke="black" points="666.95,-103.29 656.4,-102.29 664.02,-109.65 666.95,-103.29"/>
</g>
<!-- resource_account&#45;&gt;coin -->
<g id="edge32" class="edge">
<title>resource_account&#45;&gt;coin</title>
<path fill="none" stroke="black" d="M774.8,-288.07C788.66,-268.37 813.92,-235.99 842.55,-216 872.89,-194.81 912.9,-180.48 941.47,-172.12"/>
<polygon fill="black" stroke="black" points="942.05,-175.59 950.73,-169.51 940.16,-168.85 942.05,-175.59"/>
</g>
<!-- resource_account&#45;&gt;aptos_coin -->
<g id="edge64" class="edge">
<title>resource_account&#45;&gt;aptos_coin</title>
<path fill="none" stroke="black" d="M794.29,-289.29C814.5,-278.97 841.07,-265.39 862.59,-254.39"/>
<polygon fill="black" stroke="black" points="864.04,-257.58 871.35,-249.92 860.85,-251.35 864.04,-257.58"/>
</g>
<!-- aptos_coin&#45;&gt;coin -->
<g id="edge22" class="edge">
<title>aptos_coin&#45;&gt;coin</title>
<path fill="none" stroke="black" d="M918.41,-216.76C928.96,-207.17 942.44,-194.91 953.87,-184.52"/>
<polygon fill="black" stroke="black" points="955.96,-187.35 961.01,-178.04 951.25,-182.17 955.96,-187.35"/>
</g>
<!-- transaction_fee&#45;&gt;coin -->
<g id="edge28" class="edge">
<title>transaction_fee&#45;&gt;coin</title>
<path fill="none" stroke="black" d="M1058.45,-287.87C1042.38,-263.06 1012.51,-216.96 993.9,-188.25"/>
<polygon fill="black" stroke="black" points="997.03,-186.64 988.66,-180.15 991.16,-190.45 997.03,-186.64"/>
</g>
<!-- transaction_fee&#45;&gt;aptos_coin -->
<g id="edge61" class="edge">
<title>transaction_fee&#45;&gt;aptos_coin</title>
<path fill="none" stroke="black" d="M1034.53,-290.5C1007.78,-279.42 970.82,-264.11 942.49,-252.37"/>
<polygon fill="black" stroke="black" points="944.08,-249.24 933.5,-248.65 941.4,-255.71 944.08,-249.24"/>
</g>
<!-- managed_coin -->
<g id="node17" class="node">
<title>managed_coin</title>
<ellipse fill="none" stroke="black" cx="1287.55" cy="-234" rx="62.29" ry="18"/>
<text text-anchor="middle" x="1287.55" y="-230.3" font-family="Times,serif" font-size="14.00">managed_coin</text>
</g>
<!-- managed_coin&#45;&gt;coin -->
<g id="edge31" class="edge">
<title>managed_coin&#45;&gt;coin</title>
<path fill="none" stroke="black" d="M1239.45,-222.14C1177.21,-208.09 1070.14,-183.91 1014.12,-171.26"/>
<polygon fill="black" stroke="black" points="1014.98,-167.86 1004.45,-169.08 1013.44,-174.69 1014.98,-167.86"/>
</g>
<!-- staking_proxy -->
<g id="node18" class="node">
<title>staking_proxy</title>
<ellipse fill="none" stroke="black" cx="1348.55" cy="-522" rx="61.19" ry="18"/>
<text text-anchor="middle" x="1348.55" y="-518.3" font-family="Times,serif" font-size="14.00">staking_proxy</text>
</g>
<!-- staking_proxy&#45;&gt;stake -->
<g id="edge40" class="edge">
<title>staking_proxy&#45;&gt;stake</title>
<path fill="none" stroke="black" d="M1304.94,-509.04C1165.89,-470.89 734.56,-352.55 605.43,-317.12"/>
<polygon fill="black" stroke="black" points="606.62,-313.81 596.05,-314.54 604.76,-320.57 606.62,-313.81"/>
</g>
<!-- staking_proxy&#45;&gt;staking_contract -->
<g id="edge51" class="edge">
<title>staking_proxy&#45;&gt;staking_contract</title>
<path fill="none" stroke="black" d="M1391.8,-508.81C1415.9,-500.36 1445.25,-487.14 1466.55,-468 1485.24,-451.2 1499.07,-426.05 1507.75,-406.76"/>
<polygon fill="black" stroke="black" points="1510.96,-408.16 1511.67,-397.59 1504.52,-405.41 1510.96,-408.16"/>
</g>
<!-- staking_proxy&#45;&gt;vesting -->
<g id="edge53" class="edge">
<title>staking_proxy&#45;&gt;vesting</title>
<path fill="none" stroke="black" d="M1348.55,-503.7C1348.55,-496.41 1348.55,-487.73 1348.55,-479.54"/>
<polygon fill="black" stroke="black" points="1352.05,-479.62 1348.55,-469.62 1345.05,-479.62 1352.05,-479.62"/>
</g>
<!-- consensus_config&#45;&gt;reconfiguration -->
<g id="edge43" class="edge">
<title>consensus_config&#45;&gt;reconfiguration</title>
<path fill="none" stroke="black" d="M185.9,-433.64C208.21,-423.37 237.76,-409.76 261.79,-398.69"/>
<polygon fill="black" stroke="black" points="263.06,-401.96 270.68,-394.6 260.13,-395.6 263.06,-401.96"/>
</g>
<!-- gas_schedule&#45;&gt;reconfiguration -->
<g id="edge44" class="edge">
<title>gas_schedule&#45;&gt;reconfiguration</title>
<path fill="none" stroke="black" d="M302.29,-431.7C302.6,-424.41 302.97,-415.73 303.32,-407.54"/>
<polygon fill="black" stroke="black" points="306.82,-407.76 303.75,-397.62 299.82,-407.46 306.82,-407.76"/>
</g>
<!-- version&#45;&gt;reconfiguration -->
<g id="edge45" class="edge">
<title>version&#45;&gt;reconfiguration</title>
<path fill="none" stroke="black" d="M392.01,-435.17C376.83,-425.42 356.18,-412.16 338.76,-400.97"/>
<polygon fill="black" stroke="black" points="341.05,-398.28 330.74,-395.82 337.27,-404.17 341.05,-398.28"/>
</g>
</g>
</svg>
