<?xml version="1.0" encoding="UTF-8" standalone="no"?>
<!DOCTYPE svg PUBLIC "-//W3C//DTD SVG 1.1//EN"
 "http://www.w3.org/Graphics/SVG/1.1/DTD/svg11.dtd">
<!-- Generated by graphviz version 7.0.0 (20221023.0053)
 -->
<!-- Title: G Pages: 1 -->
<svg width="2535pt" height="836pt"
 viewBox="0.00 0.00 2535.00 836.00" xmlns="http://www.w3.org/2000/svg" xmlns:xlink="http://www.w3.org/1999/xlink">
<g id="graph0" class="graph" transform="scale(1 1) rotate(0) translate(4 832)">
<title>G</title>
<polygon fill="white" stroke="none" points="-4,4 -4,-832 2531,-832 2531,4 -4,4"/>
<!-- gas_schedule -->
<g id="node1" class="node">
<title>gas_schedule</title>
<ellipse fill="none" stroke="black" cx="2198" cy="-810" rx="57.69" ry="18"/>
<text text-anchor="middle" x="2198" y="-806.3" font-family="Times,serif" font-size="14.00">gas_schedule</text>
</g>
<!-- vector -->
<g id="node2" class="node">
<title>vector</title>
<ellipse fill="none" stroke="black" cx="222" cy="-18" rx="32.49" ry="18"/>
<text text-anchor="middle" x="222" y="-14.3" font-family="Times,serif" font-size="14.00">vector</text>
</g>
<!-- gas_schedule&#45;&gt;vector -->
<g id="edge1" class="edge">
<title>gas_schedule&#45;&gt;vector</title>
<path fill="none" stroke="black" d="M2140.06,-808.37C1792.57,-804.23 0,-777.51 0,-667 0,-667 0,-667 0,-161 0,-115.63 14.69,-100.49 50,-72 87.13,-42.04 141.17,-28.96 178.72,-23.29"/>
<polygon fill="black" stroke="black" points="178.89,-26.8 188.32,-21.96 177.93,-19.87 178.89,-26.8"/>
</g>
<!-- string -->
<g id="node3" class="node">
<title>string</title>
<ellipse fill="none" stroke="black" cx="429" cy="-162" rx="30.59" ry="18"/>
<text text-anchor="middle" x="429" y="-158.3" font-family="Times,serif" font-size="14.00">string</text>
</g>
<!-- gas_schedule&#45;&gt;string -->
<g id="edge2" class="edge">
<title>gas_schedule&#45;&gt;string</title>
<path fill="none" stroke="black" d="M2140.35,-807.51C1834.12,-799.19 412,-755.82 412,-667 412,-667 412,-667 412,-305 412,-265.24 418.65,-219.67 423.63,-191.1"/>
<polygon fill="black" stroke="black" points="427.04,-191.92 425.37,-181.46 420.15,-190.68 427.04,-191.92"/>
</g>
<!-- error -->
<g id="node4" class="node">
<title>error</title>
<ellipse fill="none" stroke="black" cx="1364" cy="-90" rx="27.9" ry="18"/>
<text text-anchor="middle" x="1364" y="-86.3" font-family="Times,serif" font-size="14.00">error</text>
</g>
<!-- gas_schedule&#45;&gt;error -->
<g id="edge3" class="edge">
<title>gas_schedule&#45;&gt;error</title>
<path fill="none" stroke="black" d="M2250.68,-802.37C2323.23,-789.97 2445,-755.91 2445,-667 2445,-667 2445,-667 2445,-521 2445,-262.13 2253.63,-200.5 2001,-144 1779.34,-94.42 1504.93,-90.24 1403.81,-90.56"/>
<polygon fill="black" stroke="black" points="1403.85,-87.06 1393.87,-90.61 1403.89,-94.06 1403.85,-87.06"/>
</g>
<!-- system_addresses -->
<g id="node5" class="node">
<title>system_addresses</title>
<ellipse fill="none" stroke="black" cx="1902" cy="-306" rx="73.39" ry="18"/>
<text text-anchor="middle" x="1902" y="-302.3" font-family="Times,serif" font-size="14.00">system_addresses</text>
</g>
<!-- gas_schedule&#45;&gt;system_addresses -->
<g id="edge4" class="edge">
<title>gas_schedule&#45;&gt;system_addresses</title>
<path fill="none" stroke="black" d="M2227.52,-794.23C2266.7,-772.29 2331,-727.12 2331,-667 2331,-667 2331,-667 2331,-521 2331,-447.48 2347.45,-409.4 2293,-360 2249.4,-320.44 2088.1,-310.11 1986.79,-307.59"/>
<polygon fill="black" stroke="black" points="1986.95,-304.1 1976.87,-307.37 1986.79,-311.09 1986.95,-304.1"/>
</g>
<!-- storage_gas -->
<g id="node6" class="node">
<title>storage_gas</title>
<ellipse fill="none" stroke="black" cx="2198" cy="-450" rx="51.99" ry="18"/>
<text text-anchor="middle" x="2198" y="-446.3" font-family="Times,serif" font-size="14.00">storage_gas</text>
</g>
<!-- gas_schedule&#45;&gt;storage_gas -->
<g id="edge5" class="edge">
<title>gas_schedule&#45;&gt;storage_gas</title>
<path fill="none" stroke="black" d="M2198,-791.51C2198,-764.71 2198,-711.87 2198,-667 2198,-667 2198,-667 2198,-593 2198,-553.74 2198,-508.38 2198,-479.69"/>
<polygon fill="black" stroke="black" points="2201.5,-480 2198,-470 2194.5,-480 2201.5,-480"/>
</g>
<!-- reconfiguration -->
<g id="node7" class="node">
<title>reconfiguration</title>
<ellipse fill="none" stroke="black" cx="1978" cy="-738" rx="64.99" ry="18"/>
<text text-anchor="middle" x="1978" y="-734.3" font-family="Times,serif" font-size="14.00">reconfiguration</text>
</g>
<!-- gas_schedule&#45;&gt;reconfiguration -->
<g id="edge6" class="edge">
<title>gas_schedule&#45;&gt;reconfiguration</title>
<path fill="none" stroke="black" d="M2158.67,-796.49C2122.93,-785.11 2069.94,-768.25 2030.58,-755.73"/>
<polygon fill="black" stroke="black" points="2031.64,-752.39 2021.05,-752.7 2029.52,-759.07 2031.64,-752.39"/>
</g>
<!-- util -->
<g id="node8" class="node">
<title>util</title>
<ellipse fill="none" stroke="black" cx="2500" cy="-738" rx="27" ry="18"/>
<text text-anchor="middle" x="2500" y="-734.3" font-family="Times,serif" font-size="14.00">util</text>
</g>
<!-- gas_schedule&#45;&gt;util -->
<g id="edge7" class="edge">
<title>gas_schedule&#45;&gt;util</title>
<path fill="none" stroke="black" d="M2249.25,-801.59C2302.41,-793.21 2387.59,-777.83 2459,-756 2461.77,-755.15 2464.62,-754.19 2467.45,-753.16"/>
<polygon fill="black" stroke="black" points="2468.71,-756.42 2476.75,-749.52 2466.16,-749.9 2468.71,-756.42"/>
</g>
<!-- string&#45;&gt;vector -->
<g id="edge8" class="edge">
<title>string&#45;&gt;vector</title>
<path fill="none" stroke="black" d="M409.53,-147.64C373.02,-122.6 294.11,-68.47 251.21,-39.04"/>
<polygon fill="black" stroke="black" points="253.35,-36.26 243.12,-33.49 249.39,-42.03 253.35,-36.26"/>
</g>
<!-- option -->
<g id="node9" class="node">
<title>option</title>
<ellipse fill="none" stroke="black" cx="458" cy="-90" rx="33.29" ry="18"/>
<text text-anchor="middle" x="458" y="-86.3" font-family="Times,serif" font-size="14.00">option</text>
</g>
<!-- string&#45;&gt;option -->
<g id="edge9" class="edge">
<title>string&#45;&gt;option</title>
<path fill="none" stroke="black" d="M436.02,-144.05C439.23,-136.32 443.1,-126.96 446.7,-118.27"/>
<polygon fill="black" stroke="black" points="449.87,-119.77 450.47,-109.19 443.4,-117.09 449.87,-119.77"/>
</g>
<!-- system_addresses&#45;&gt;error -->
<g id="edge11" class="edge">
<title>system_addresses&#45;&gt;error</title>
<path fill="none" stroke="black" d="M1896.26,-287.79C1883.93,-253.81 1851.45,-178.4 1796,-144 1730.81,-103.55 1497.22,-93.92 1403.41,-91.67"/>
<polygon fill="black" stroke="black" points="1403.75,-88.18 1393.68,-91.46 1403.6,-95.18 1403.75,-88.18"/>
</g>
<!-- signer -->
<g id="node10" class="node">
<title>signer</title>
<ellipse fill="none" stroke="black" cx="1953" cy="-90" rx="32.49" ry="18"/>
<text text-anchor="middle" x="1953" y="-86.3" font-family="Times,serif" font-size="14.00">signer</text>
</g>
<!-- system_addresses&#45;&gt;signer -->
<g id="edge10" class="edge">
<title>system_addresses&#45;&gt;signer</title>
<path fill="none" stroke="black" d="M1914.35,-287.87C1930.19,-264.73 1956.84,-221.58 1967,-180 1971.94,-159.78 1967.96,-136.53 1963,-118.87"/>
<polygon fill="black" stroke="black" points="1966.35,-117.86 1960.05,-109.34 1959.67,-119.93 1966.35,-117.86"/>
</g>
<!-- storage_gas&#45;&gt;error -->
<g id="edge12" class="edge">
<title>storage_gas&#45;&gt;error</title>
<path fill="none" stroke="black" d="M2237.29,-437.75C2257.75,-429.68 2280.95,-416.52 2293,-396 2301.1,-382.2 2300.8,-373.97 2293,-360 2200.3,-194.11 2105.98,-198.73 1924,-144 1826.1,-114.55 1513.76,-97.82 1403.22,-92.7"/>
<polygon fill="black" stroke="black" points="1403.63,-89.22 1393.48,-92.26 1403.31,-96.21 1403.63,-89.22"/>
</g>
<!-- storage_gas&#45;&gt;system_addresses -->
<g id="edge13" class="edge">
<title>storage_gas&#45;&gt;system_addresses</title>
<path fill="none" stroke="black" d="M2185.9,-432.27C2168.93,-409.23 2138.39,-369.5 2123,-360 2080.76,-333.93 2026.67,-320.68 1982.57,-313.95"/>
<polygon fill="black" stroke="black" points="1983.19,-310.51 1972.8,-312.55 1982.2,-317.44 1983.19,-310.51"/>
</g>
<!-- state_storage -->
<g id="node11" class="node">
<title>state_storage</title>
<ellipse fill="none" stroke="black" cx="2227" cy="-378" rx="56.59" ry="18"/>
<text text-anchor="middle" x="2227" y="-374.3" font-family="Times,serif" font-size="14.00">state_storage</text>
</g>
<!-- storage_gas&#45;&gt;state_storage -->
<g id="edge14" class="edge">
<title>storage_gas&#45;&gt;state_storage</title>
<path fill="none" stroke="black" d="M2205.17,-431.7C2208.29,-424.15 2212.04,-415.12 2215.53,-406.68"/>
<polygon fill="black" stroke="black" points="2218.74,-408.08 2219.33,-397.5 2212.27,-405.4 2218.74,-408.08"/>
</g>
<!-- reconfiguration&#45;&gt;error -->
<g id="edge16" class="edge">
<title>reconfiguration&#45;&gt;error</title>
<path fill="none" stroke="black" d="M1913.31,-735.97C1614.69,-730.76 377.89,-703.75 234,-612 177.05,-575.69 152,-380.08 152,-379 152,-379 152,-379 152,-233 152,-192.55 140.13,-170.13 171,-144 215.97,-105.93 1122.02,-93.68 1324.22,-91.41"/>
<polygon fill="black" stroke="black" points="1324.25,-94.91 1334.21,-91.3 1324.17,-87.91 1324.25,-94.91"/>
</g>
<!-- reconfiguration&#45;&gt;system_addresses -->
<g id="edge17" class="edge">
<title>reconfiguration&#45;&gt;system_addresses</title>
<path fill="none" stroke="black" d="M1982.75,-719.83C1992.78,-680.95 2013.85,-583.4 1997,-504 1983.13,-438.64 1943.45,-370.06 1919.99,-333.57"/>
<polygon fill="black" stroke="black" points="1923.06,-331.88 1914.66,-325.42 1917.2,-335.7 1923.06,-331.88"/>
</g>
<!-- reconfiguration&#45;&gt;storage_gas -->
<g id="edge23" class="edge">
<title>reconfiguration&#45;&gt;storage_gas</title>
<path fill="none" stroke="black" d="M2013.35,-722.59C2032.18,-713.61 2054.73,-700.58 2071,-684 2131.51,-622.33 2171.52,-525.97 2188.59,-478.85"/>
<polygon fill="black" stroke="black" points="2191.8,-480.26 2191.84,-469.67 2185.21,-477.93 2191.8,-480.26"/>
</g>
<!-- reconfiguration&#45;&gt;signer -->
<g id="edge15" class="edge">
<title>reconfiguration&#45;&gt;signer</title>
<path fill="none" stroke="black" d="M2018.6,-723.55C2135.41,-682.03 2464,-544.15 2464,-307 2464,-307 2464,-307 2464,-233 2464,-136.33 2120.22,-102.71 1996.61,-93.75"/>
<polygon fill="black" stroke="black" points="1997.08,-90.27 1986.86,-93.06 1996.59,-97.25 1997.08,-90.27"/>
</g>
<!-- event -->
<g id="node12" class="node">
<title>event</title>
<ellipse fill="none" stroke="black" cx="1510" cy="-378" rx="29.8" ry="18"/>
<text text-anchor="middle" x="1510" y="-374.3" font-family="Times,serif" font-size="14.00">event</text>
</g>
<!-- reconfiguration&#45;&gt;event -->
<g id="edge18" class="edge">
<title>reconfiguration&#45;&gt;event</title>
<path fill="none" stroke="black" d="M1956.67,-720.69C1880.4,-662.34 1621.18,-464.05 1536.79,-399.49"/>
<polygon fill="black" stroke="black" points="1539.11,-396.86 1529.04,-393.56 1534.85,-402.42 1539.11,-396.86"/>
</g>
<!-- account -->
<g id="node13" class="node">
<title>account</title>
<ellipse fill="none" stroke="black" cx="1262" cy="-450" rx="38.19" ry="18"/>
<text text-anchor="middle" x="1262" y="-446.3" font-family="Times,serif" font-size="14.00">account</text>
</g>
<!-- reconfiguration&#45;&gt;account -->
<g id="edge19" class="edge">
<title>reconfiguration&#45;&gt;account</title>
<path fill="none" stroke="black" d="M1913.16,-736.03C1793.9,-733.31 1544.98,-722.99 1469,-684 1375.96,-636.26 1305.43,-527.82 1276.44,-477.53"/>
<polygon fill="black" stroke="black" points="1279.61,-476.02 1271.64,-469.04 1273.52,-479.47 1279.61,-476.02"/>
</g>
<!-- chain_status -->
<g id="node14" class="node">
<title>chain_status</title>
<ellipse fill="none" stroke="black" cx="2060" cy="-378" rx="53.89" ry="18"/>
<text text-anchor="middle" x="2060" y="-374.3" font-family="Times,serif" font-size="14.00">chain_status</text>
</g>
<!-- reconfiguration&#45;&gt;chain_status -->
<g id="edge20" class="edge">
<title>reconfiguration&#45;&gt;chain_status</title>
<path fill="none" stroke="black" d="M1998.46,-720.46C2009.19,-710.82 2021.78,-697.86 2030,-684 2051.08,-648.44 2057,-636.34 2057,-595 2057,-595 2057,-595 2057,-521 2057,-481.73 2058.16,-436.37 2059.04,-407.69"/>
<polygon fill="black" stroke="black" points="2062.53,-408.1 2059.35,-398 2055.53,-407.88 2062.53,-408.1"/>
</g>
<!-- timestamp -->
<g id="node15" class="node">
<title>timestamp</title>
<ellipse fill="none" stroke="black" cx="1940" cy="-522" rx="48.19" ry="18"/>
<text text-anchor="middle" x="1940" y="-518.3" font-family="Times,serif" font-size="14.00">timestamp</text>
</g>
<!-- reconfiguration&#45;&gt;timestamp -->
<g id="edge21" class="edge">
<title>reconfiguration&#45;&gt;timestamp</title>
<path fill="none" stroke="black" d="M1974.95,-719.85C1968.44,-683.14 1953.08,-596.66 1945.07,-551.53"/>
<polygon fill="black" stroke="black" points="1948.52,-550.96 1943.32,-541.72 1941.63,-552.18 1948.52,-550.96"/>
</g>
<!-- stake -->
<g id="node16" class="node">
<title>stake</title>
<ellipse fill="none" stroke="black" cx="1507" cy="-666" rx="28.7" ry="18"/>
<text text-anchor="middle" x="1507" y="-662.3" font-family="Times,serif" font-size="14.00">stake</text>
</g>
<!-- reconfiguration&#45;&gt;stake -->
<g id="edge22" class="edge">
<title>reconfiguration&#45;&gt;stake</title>
<path fill="none" stroke="black" d="M1921.65,-728.63C1824.86,-714.24 1629.37,-685.19 1546.05,-672.8"/>
<polygon fill="black" stroke="black" points="1546.73,-669.37 1536.32,-671.36 1545.7,-676.29 1546.73,-669.37"/>
</g>
<!-- option&#45;&gt;vector -->
<g id="edge24" class="edge">
<title>option&#45;&gt;vector</title>
<path fill="none" stroke="black" d="M429.53,-80.56C387.43,-68.07 308.42,-44.63 260.97,-30.56"/>
<polygon fill="black" stroke="black" points="262.23,-27.28 251.65,-27.8 260.24,-33.99 262.23,-27.28"/>
</g>
<!-- state_storage&#45;&gt;error -->
<g id="edge25" class="edge">
<title>state_storage&#45;&gt;error</title>
<path fill="none" stroke="black" d="M2209.12,-360.61C2159.83,-316.54 2016.09,-195.36 1872,-144 1785.63,-113.22 1507.27,-97.58 1403.49,-92.71"/>
<polygon fill="black" stroke="black" points="1403.67,-89.21 1393.52,-92.25 1403.35,-96.21 1403.67,-89.21"/>
</g>
<!-- state_storage&#45;&gt;system_addresses -->
<g id="edge26" class="edge">
<title>state_storage&#45;&gt;system_addresses</title>
<path fill="none" stroke="black" d="M2183.11,-366.28C2174.15,-364.15 2164.78,-361.97 2156,-360 2092.66,-345.81 2020.14,-330.8 1968.86,-320.39"/>
<polygon fill="black" stroke="black" points="1969.58,-316.97 1959.08,-318.41 1968.19,-323.83 1969.58,-316.97"/>
</g>
<!-- bcs -->
<g id="node17" class="node">
<title>bcs</title>
<ellipse fill="none" stroke="black" cx="1353" cy="-234" rx="27" ry="18"/>
<text text-anchor="middle" x="1353" y="-230.3" font-family="Times,serif" font-size="14.00">bcs</text>
</g>
<!-- event&#45;&gt;bcs -->
<g id="edge27" class="edge">
<title>event&#45;&gt;bcs</title>
<path fill="none" stroke="black" d="M1521.89,-361.34C1534.78,-342.29 1551.47,-309.95 1535,-288 1517.67,-264.9 1438.54,-248.56 1390.51,-240.57"/>
<polygon fill="black" stroke="black" points="1391.24,-237.14 1380.81,-239.01 1390.12,-244.05 1391.24,-237.14"/>
</g>
<!-- guid -->
<g id="node18" class="node">
<title>guid</title>
<ellipse fill="none" stroke="black" cx="1499" cy="-306" rx="27" ry="18"/>
<text text-anchor="middle" x="1499" y="-302.3" font-family="Times,serif" font-size="14.00">guid</text>
</g>
<!-- event&#45;&gt;guid -->
<g id="edge28" class="edge">
<title>event&#45;&gt;guid</title>
<path fill="none" stroke="black" d="M1507.28,-359.7C1506.12,-352.32 1504.74,-343.52 1503.44,-335.25"/>
<polygon fill="black" stroke="black" points="1506.93,-334.93 1501.92,-325.6 1500.02,-336.02 1506.93,-334.93"/>
</g>
<!-- account&#45;&gt;vector -->
<g id="edge29" class="edge">
<title>account&#45;&gt;vector</title>
<path fill="none" stroke="black" d="M1223.54,-448.04C1107.65,-444.77 767.69,-432.14 735,-396 724.27,-384.13 731.6,-375.64 735,-360 747.96,-300.33 792,-296.06 792,-235 792,-235 792,-235 792,-161 792,-52.72 399.84,-26.37 266.08,-20.53"/>
<polygon fill="black" stroke="black" points="266.34,-17.04 256.21,-20.12 266.05,-24.04 266.34,-17.04"/>
</g>
<!-- account&#45;&gt;error -->
<g id="edge32" class="edge">
<title>account&#45;&gt;error</title>
<path fill="none" stroke="black" d="M1283.06,-434.7C1296.16,-424.99 1312.61,-411.18 1324,-396 1366.15,-339.84 1374.22,-320.65 1389,-252 1399.02,-205.45 1385.05,-150.51 1374.31,-118.34"/>
<polygon fill="black" stroke="black" points="1377.65,-117.29 1371.05,-109 1371.05,-119.6 1377.65,-117.29"/>
</g>
<!-- account&#45;&gt;system_addresses -->
<g id="edge35" class="edge">
<title>account&#45;&gt;system_addresses</title>
<path fill="none" stroke="black" d="M1290.08,-437.48C1295.03,-435.57 1300.14,-433.67 1305,-432 1358.45,-413.59 1377.02,-422.42 1427,-396 1449.34,-384.19 1447.77,-369.93 1471,-360 1531.95,-333.94 1712.52,-318.68 1819.62,-311.67"/>
<polygon fill="black" stroke="black" points="1819.76,-315.17 1829.52,-311.03 1819.31,-308.18 1819.76,-315.17"/>
</g>
<!-- account&#45;&gt;option -->
<g id="edge30" class="edge">
<title>account&#45;&gt;option</title>
<path fill="none" stroke="black" d="M1223.72,-448.29C1103.14,-445.66 737.08,-434.55 702,-396 691.23,-384.17 699.64,-375.82 702,-360 706.78,-327.98 724.56,-318.24 713,-288 682.31,-207.74 653.97,-193.87 584,-144 557.71,-125.26 523.77,-111.47 497.74,-102.66"/>
<polygon fill="black" stroke="black" points="499.15,-99.44 488.55,-99.66 496.97,-106.09 499.15,-99.44"/>
</g>
<!-- account&#45;&gt;signer -->
<g id="edge31" class="edge">
<title>account&#45;&gt;signer</title>
<path fill="none" stroke="black" d="M1286.84,-435.98C1305,-426 1329.88,-411.38 1350,-396 1405.2,-353.82 1404.61,-325.64 1463,-288 1615.86,-189.48 1825.99,-125.37 1912.89,-101.48"/>
<polygon fill="black" stroke="black" points="1913.64,-104.91 1922.38,-98.91 1911.81,-98.15 1913.64,-104.91"/>
</g>
<!-- account&#45;&gt;event -->
<g id="edge42" class="edge">
<title>account&#45;&gt;event</title>
<path fill="none" stroke="black" d="M1295.91,-441.45C1336.67,-432.08 1406.96,-415.01 1466,-396 1469.07,-395.01 1472.24,-393.93 1475.4,-392.79"/>
<polygon fill="black" stroke="black" points="1476.4,-396.15 1484.55,-389.38 1473.96,-389.59 1476.4,-396.15"/>
</g>
<!-- account&#45;&gt;bcs -->
<g id="edge37" class="edge">
<title>account&#45;&gt;bcs</title>
<path fill="none" stroke="black" d="M1274.52,-432.62C1291.43,-409.64 1321.26,-365.94 1337,-324 1344.31,-304.54 1348.34,-281.39 1350.52,-263.58"/>
<polygon fill="black" stroke="black" points="1353.99,-264.04 1351.6,-253.72 1347.03,-263.29 1353.99,-264.04"/>
</g>
<!-- account&#45;&gt;guid -->
<g id="edge40" class="edge">
<title>account&#45;&gt;guid</title>
<path fill="none" stroke="black" d="M1292.94,-439.06C1319.64,-429.82 1358.72,-414.69 1390,-396 1407.45,-385.57 1448.26,-351.11 1474.69,-328.25"/>
<polygon fill="black" stroke="black" points="1476.98,-330.9 1482.24,-321.7 1472.39,-325.61 1476.98,-330.9"/>
</g>
<!-- type_info -->
<g id="node19" class="node">
<title>type_info</title>
<ellipse fill="none" stroke="black" cx="1188" cy="-234" rx="44.39" ry="18"/>
<text text-anchor="middle" x="1188" y="-230.3" font-family="Times,serif" font-size="14.00">type_info</text>
</g>
<!-- account&#45;&gt;type_info -->
<g id="edge33" class="edge">
<title>account&#45;&gt;type_info</title>
<path fill="none" stroke="black" d="M1254.16,-431.89C1243.44,-408.06 1224.06,-363.38 1211,-324 1204.36,-303.97 1198.44,-280.88 1194.27,-263.24"/>
<polygon fill="black" stroke="black" points="1197.74,-262.69 1192.08,-253.74 1190.92,-264.27 1197.74,-262.69"/>
</g>
<!-- table -->
<g id="node20" class="node">
<title>table</title>
<ellipse fill="none" stroke="black" cx="946" cy="-306" rx="27.9" ry="18"/>
<text text-anchor="middle" x="946" y="-302.3" font-family="Times,serif" font-size="14.00">table</text>
</g>
<!-- account&#45;&gt;table -->
<g id="edge34" class="edge">
<title>account&#45;&gt;table</title>
<path fill="none" stroke="black" d="M1223.86,-447.51C1174.92,-444.07 1088.87,-432.82 1026,-396 999.35,-380.39 976.67,-352.9 962.34,-332.58"/>
<polygon fill="black" stroke="black" points="965.37,-330.82 956.85,-324.52 959.59,-334.76 965.37,-330.82"/>
</g>
<!-- hash -->
<g id="node21" class="node">
<title>hash</title>
<ellipse fill="none" stroke="black" cx="1061" cy="-234" rx="27" ry="18"/>
<text text-anchor="middle" x="1061" y="-230.3" font-family="Times,serif" font-size="14.00">hash</text>
</g>
<!-- account&#45;&gt;hash -->
<g id="edge36" class="edge">
<title>account&#45;&gt;hash</title>
<path fill="none" stroke="black" d="M1225.13,-444.74C1172.29,-437.78 1079.15,-422.09 1059,-396 1029.37,-357.64 1040.8,-297.38 1051.26,-262.49"/>
<polygon fill="black" stroke="black" points="1054.53,-263.73 1054.24,-253.14 1047.87,-261.6 1054.53,-263.73"/>
</g>
<!-- ed25519 -->
<g id="node22" class="node">
<title>ed25519</title>
<ellipse fill="none" stroke="black" cx="1261" cy="-306" rx="40.89" ry="18"/>
<text text-anchor="middle" x="1261" y="-302.3" font-family="Times,serif" font-size="14.00">ed25519</text>
</g>
<!-- account&#45;&gt;ed25519 -->
<g id="edge38" class="edge">
<title>account&#45;&gt;ed25519</title>
<path fill="none" stroke="black" d="M1261.88,-431.59C1261.71,-407.61 1261.4,-364.14 1261.2,-335.42"/>
<polygon fill="black" stroke="black" points="1264.7,-335.6 1261.13,-325.62 1257.7,-335.65 1264.7,-335.6"/>
</g>
<!-- multi_ed25519 -->
<g id="node23" class="node">
<title>multi_ed25519</title>
<ellipse fill="none" stroke="black" cx="1132" cy="-378" rx="64.19" ry="18"/>
<text text-anchor="middle" x="1132" y="-374.3" font-family="Times,serif" font-size="14.00">multi_ed25519</text>
</g>
<!-- account&#45;&gt;multi_ed25519 -->
<g id="edge39" class="edge">
<title>account&#45;&gt;multi_ed25519</title>
<path fill="none" stroke="black" d="M1237.55,-435.83C1218.75,-425.71 1192.43,-411.54 1170.77,-399.88"/>
<polygon fill="black" stroke="black" points="1172.68,-396.93 1162.21,-395.27 1169.36,-403.09 1172.68,-396.93"/>
</g>
<!-- from_bcs -->
<g id="node24" class="node">
<title>from_bcs</title>
<ellipse fill="none" stroke="black" cx="560" cy="-234" rx="44.39" ry="18"/>
<text text-anchor="middle" x="560" y="-230.3" font-family="Times,serif" font-size="14.00">from_bcs</text>
</g>
<!-- account&#45;&gt;from_bcs -->
<g id="edge41" class="edge">
<title>account&#45;&gt;from_bcs</title>
<path fill="none" stroke="black" d="M1223.81,-448.54C1097.91,-446.62 701.82,-437.32 664,-396 653.2,-384.2 658.2,-374.91 664,-360 671.87,-339.77 689.13,-344.23 697,-324 702.8,-309.09 706.05,-301.2 697,-288 678.46,-260.95 643.99,-247.71 614.26,-241.22"/>
<polygon fill="black" stroke="black" points="615.11,-237.82 604.63,-239.34 613.77,-244.69 615.11,-237.82"/>
</g>
<!-- chain_status&#45;&gt;error -->
<g id="edge43" class="edge">
<title>chain_status&#45;&gt;error</title>
<path fill="none" stroke="black" d="M2049.62,-360.07C2021.04,-315.2 1936.13,-193.27 1829,-144 1753.44,-109.25 1501.38,-96.19 1403.42,-92.35"/>
<polygon fill="black" stroke="black" points="1403.62,-88.85 1393.5,-91.97 1403.36,-95.85 1403.62,-88.85"/>
</g>
<!-- chain_status&#45;&gt;system_addresses -->
<g id="edge44" class="edge">
<title>chain_status&#45;&gt;system_addresses</title>
<path fill="none" stroke="black" d="M2028.41,-363C2005.06,-352.66 1972.94,-338.43 1946.92,-326.9"/>
<polygon fill="black" stroke="black" points="1948.5,-323.77 1937.94,-322.92 1945.66,-330.17 1948.5,-323.77"/>
</g>
<!-- timestamp&#45;&gt;error -->
<g id="edge45" class="edge">
<title>timestamp&#45;&gt;error</title>
<path fill="none" stroke="black" d="M1928.67,-504.03C1906.46,-470.43 1856.22,-392.73 1820,-324 1779.1,-246.39 1809.15,-196.68 1739,-144 1686.65,-104.68 1488.84,-94.46 1403.54,-91.86"/>
<polygon fill="black" stroke="black" points="1403.89,-88.37 1393.79,-91.59 1403.69,-95.37 1403.89,-88.37"/>
</g>
<!-- timestamp&#45;&gt;system_addresses -->
<g id="edge46" class="edge">
<title>timestamp&#45;&gt;system_addresses</title>
<path fill="none" stroke="black" d="M1938.09,-503.97C1934.64,-474.47 1926.72,-412.04 1916,-360 1914.32,-351.86 1912.16,-343.1 1910.04,-335.1"/>
<polygon fill="black" stroke="black" points="1913.44,-334.25 1907.42,-325.53 1906.69,-336.1 1913.44,-334.25"/>
</g>
<!-- stake&#45;&gt;vector -->
<g id="edge47" class="edge">
<title>stake&#45;&gt;vector</title>
<path fill="none" stroke="black" d="M1478,-665.16C1294.77,-665.99 301.65,-667.88 180,-612 69.8,-561.38 38,-500.27 38,-379 38,-379 38,-379 38,-161 38,-114.96 56.06,-101.98 91,-72 116.78,-49.89 152.98,-36.19 180.8,-28.28"/>
<polygon fill="black" stroke="black" points="181.56,-31.7 190.31,-25.72 179.74,-24.94 181.56,-31.7"/>
</g>
<!-- stake&#45;&gt;error -->
<g id="edge50" class="edge">
<title>stake&#45;&gt;error</title>
<path fill="none" stroke="black" d="M1535.35,-661.82C1599.45,-652.9 1750,-621.46 1750,-523 1750,-523 1750,-523 1750,-449 1750,-260.1 1610.2,-250.23 1454,-144 1434.82,-130.96 1412.34,-117.72 1394.65,-107.73"/>
<polygon fill="black" stroke="black" points="1396.6,-104.82 1386.16,-103 1393.19,-110.93 1396.6,-104.82"/>
</g>
<!-- stake&#45;&gt;system_addresses -->
<g id="edge51" class="edge">
<title>stake&#45;&gt;system_addresses</title>
<path fill="none" stroke="black" d="M1535.62,-662.36C1594.98,-656.39 1728.87,-640.1 1764,-612 1853.99,-540.02 1887.37,-396.57 1897.84,-335.54"/>
<polygon fill="black" stroke="black" points="1901.25,-336.41 1899.4,-325.98 1894.34,-335.29 1901.25,-336.41"/>
</g>
<!-- stake&#45;&gt;option -->
<g id="edge48" class="edge">
<title>stake&#45;&gt;option</title>
<path fill="none" stroke="black" d="M1478.17,-664.6C1294.06,-661.91 288.72,-645.75 234,-612 53.28,-500.54 0.67,-305.94 138,-144 172.8,-102.96 333.96,-93.66 413.44,-91.58"/>
<polygon fill="black" stroke="black" points="413.12,-95.09 423.04,-91.36 412.96,-88.09 413.12,-95.09"/>
</g>
<!-- stake&#45;&gt;signer -->
<g id="edge49" class="edge">
<title>stake&#45;&gt;signer</title>
<path fill="none" stroke="black" d="M1535.62,-662.73C1596.7,-657.45 1744.05,-642.43 1864,-612 2125.19,-545.73 2388,-576.47 2388,-307 2388,-307 2388,-307 2388,-233 2388,-151.18 2106.34,-109.09 1996.31,-95.77"/>
<polygon fill="black" stroke="black" points="1996.83,-92.31 1986.49,-94.61 1996.01,-99.26 1996.83,-92.31"/>
</g>
<!-- stake&#45;&gt;event -->
<g id="edge52" class="edge">
<title>stake&#45;&gt;event</title>
<path fill="none" stroke="black" d="M1531.47,-656.26C1550.42,-648.04 1575.33,-633.72 1587,-612 1625.31,-540.67 1564.3,-446.83 1530.32,-403.22"/>
<polygon fill="black" stroke="black" points="1533.25,-401.27 1524.27,-395.64 1527.78,-405.64 1533.25,-401.27"/>
</g>
<!-- stake&#45;&gt;account -->
<g id="edge53" class="edge">
<title>stake&#45;&gt;account</title>
<path fill="none" stroke="black" d="M1493.54,-649.74C1466.75,-619.86 1404.17,-552.31 1344,-504 1328.71,-491.73 1310.5,-479.72 1295.13,-470.25"/>
<polygon fill="black" stroke="black" points="1297.15,-467.39 1286.79,-465.2 1293.53,-473.38 1297.15,-467.39"/>
</g>
<!-- stake&#45;&gt;timestamp -->
<g id="edge56" class="edge">
<title>stake&#45;&gt;timestamp</title>
<path fill="none" stroke="black" d="M1535.98,-664.61C1592.92,-662.89 1722.41,-654.23 1821,-612 1857.43,-596.4 1892.99,-567.47 1915.6,-546.84"/>
<polygon fill="black" stroke="black" points="1917.86,-549.52 1922.79,-540.14 1913.09,-544.39 1917.86,-549.52"/>
</g>
<!-- coin -->
<g id="node25" class="node">
<title>coin</title>
<ellipse fill="none" stroke="black" cx="1002" cy="-522" rx="27" ry="18"/>
<text text-anchor="middle" x="1002" y="-518.3" font-family="Times,serif" font-size="14.00">coin</text>
</g>
<!-- stake&#45;&gt;coin -->
<g id="edge54" class="edge">
<title>stake&#45;&gt;coin</title>
<path fill="none" stroke="black" d="M1481.26,-657.76C1397.73,-634.27 1134.02,-560.12 1037.68,-533.03"/>
<polygon fill="black" stroke="black" points="1038.82,-529.72 1028.25,-530.38 1036.93,-536.46 1038.82,-529.72"/>
</g>
<!-- aptos_coin -->
<g id="node26" class="node">
<title>aptos_coin</title>
<ellipse fill="none" stroke="black" cx="335" cy="-594" rx="48.99" ry="18"/>
<text text-anchor="middle" x="335" y="-590.3" font-family="Times,serif" font-size="14.00">aptos_coin</text>
</g>
<!-- stake&#45;&gt;aptos_coin -->
<g id="edge55" class="edge">
<title>stake&#45;&gt;aptos_coin</title>
<path fill="none" stroke="black" d="M1478.32,-663.29C1325.62,-654.17 607.11,-611.25 394.44,-598.55"/>
<polygon fill="black" stroke="black" points="394.93,-595.07 384.74,-597.97 394.51,-602.06 394.93,-595.07"/>
</g>
<!-- staking_config -->
<g id="node27" class="node">
<title>staking_config</title>
<ellipse fill="none" stroke="black" cx="1659" cy="-378" rx="63.09" ry="18"/>
<text text-anchor="middle" x="1659" y="-374.3" font-family="Times,serif" font-size="14.00">staking_config</text>
</g>
<!-- stake&#45;&gt;staking_config -->
<g id="edge57" class="edge">
<title>stake&#45;&gt;staking_config</title>
<path fill="none" stroke="black" d="M1499.6,-648.45C1492.52,-630.21 1484.15,-600.24 1493,-576 1494.89,-570.82 1592.33,-456.77 1637.02,-404.62"/>
<polygon fill="black" stroke="black" points="1639.64,-406.95 1643.49,-397.08 1634.32,-402.39 1639.64,-406.95"/>
</g>
<!-- math64 -->
<g id="node28" class="node">
<title>math64</title>
<ellipse fill="none" stroke="black" cx="1540" cy="-594" rx="37.89" ry="18"/>
<text text-anchor="middle" x="1540" y="-590.3" font-family="Times,serif" font-size="14.00">math64</text>
</g>
<!-- stake&#45;&gt;math64 -->
<g id="edge58" class="edge">
<title>stake&#45;&gt;math64</title>
<path fill="none" stroke="black" d="M1514.82,-648.41C1518.51,-640.59 1523,-631.06 1527.16,-622.23"/>
<polygon fill="black" stroke="black" points="1530.26,-623.86 1531.36,-613.33 1523.93,-620.88 1530.26,-623.86"/>
</g>
<!-- bls12381 -->
<g id="node29" class="node">
<title>bls12381</title>
<ellipse fill="none" stroke="black" cx="223" cy="-162" rx="42.79" ry="18"/>
<text text-anchor="middle" x="223" y="-158.3" font-family="Times,serif" font-size="14.00">bls12381</text>
</g>
<!-- stake&#45;&gt;bls12381 -->
<g id="edge59" class="edge">
<title>stake&#45;&gt;bls12381</title>
<path fill="none" stroke="black" d="M1477.92,-664.65C1296.59,-662.36 327.15,-648.43 277,-612 187.57,-547.03 190,-489.54 190,-379 190,-379 190,-379 190,-305 190,-264.51 202.88,-219.18 212.55,-190.87"/>
<polygon fill="black" stroke="black" points="215.79,-192.21 215.82,-181.62 209.19,-189.88 215.79,-192.21"/>
</g>
<!-- type_info&#45;&gt;string -->
<g id="edge60" class="edge">
<title>type_info&#45;&gt;string</title>
<path fill="none" stroke="black" d="M1149.18,-224.81C1133.09,-221.67 1114.21,-218.28 1097,-216 861.58,-184.76 576.87,-169.64 471.16,-164.8"/>
<polygon fill="black" stroke="black" points="471.41,-161.31 461.26,-164.35 471.09,-168.3 471.41,-161.31"/>
</g>
<!-- type_info&#45;&gt;error -->
<g id="edge61" class="edge">
<title>type_info&#45;&gt;error</title>
<path fill="none" stroke="black" d="M1196.57,-215.91C1207.1,-196.36 1226.61,-164.41 1251,-144 1273.81,-124.91 1304.65,-111.06 1328.34,-102.31"/>
<polygon fill="black" stroke="black" points="1329.32,-105.68 1337.58,-99.04 1326.98,-99.08 1329.32,-105.68"/>
</g>
<!-- features -->
<g id="node30" class="node">
<title>features</title>
<ellipse fill="none" stroke="black" cx="1298" cy="-162" rx="38.19" ry="18"/>
<text text-anchor="middle" x="1298" y="-158.3" font-family="Times,serif" font-size="14.00">features</text>
</g>
<!-- type_info&#45;&gt;features -->
<g id="edge62" class="edge">
<title>type_info&#45;&gt;features</title>
<path fill="none" stroke="black" d="M1211.06,-218.33C1227.22,-208.04 1249.01,-194.18 1266.73,-182.9"/>
<polygon fill="black" stroke="black" points="1268.26,-186.07 1274.82,-177.75 1264.5,-180.17 1268.26,-186.07"/>
</g>
<!-- ed25519&#45;&gt;error -->
<g id="edge64" class="edge">
<title>ed25519&#45;&gt;error</title>
<path fill="none" stroke="black" d="M1270.84,-288.28C1281.67,-270.15 1299.82,-240.52 1317,-216 1328.63,-199.4 1336.45,-198.38 1345,-180 1353.87,-160.94 1358.66,-137.65 1361.2,-119.67"/>
<polygon fill="black" stroke="black" points="1364.65,-120.32 1362.41,-109.96 1357.7,-119.45 1364.65,-120.32"/>
</g>
<!-- ed25519&#45;&gt;option -->
<g id="edge63" class="edge">
<title>ed25519&#45;&gt;option</title>
<path fill="none" stroke="black" d="M1262.1,-287.8C1262.39,-267.84 1259.64,-235.2 1241,-216 1137.73,-109.61 653.84,-93.76 503.01,-91.41"/>
<polygon fill="black" stroke="black" points="503.06,-87.91 493.02,-91.27 502.97,-94.91 503.06,-87.91"/>
</g>
<!-- ed25519&#45;&gt;bcs -->
<g id="edge67" class="edge">
<title>ed25519&#45;&gt;bcs</title>
<path fill="none" stroke="black" d="M1280.96,-289.81C1294.31,-279.65 1312.03,-266.17 1326.55,-255.12"/>
<polygon fill="black" stroke="black" points="1328.51,-258.03 1334.35,-249.19 1324.27,-252.46 1328.51,-258.03"/>
</g>
<!-- ed25519&#45;&gt;type_info -->
<g id="edge65" class="edge">
<title>ed25519&#45;&gt;type_info</title>
<path fill="none" stroke="black" d="M1244.44,-289.12C1235.17,-280.23 1223.43,-268.97 1213.06,-259.03"/>
<polygon fill="black" stroke="black" points="1215.48,-256.51 1205.84,-252.11 1210.64,-261.56 1215.48,-256.51"/>
</g>
<!-- ed25519&#45;&gt;hash -->
<g id="edge66" class="edge">
<title>ed25519&#45;&gt;hash</title>
<path fill="none" stroke="black" d="M1229.75,-294.06C1193.15,-281.25 1132.74,-260.11 1095,-246.9"/>
<polygon fill="black" stroke="black" points="1096.55,-243.74 1085.96,-243.74 1094.24,-250.34 1096.55,-243.74"/>
</g>
<!-- multi_ed25519&#45;&gt;error -->
<g id="edge69" class="edge">
<title>multi_ed25519&#45;&gt;error</title>
<path fill="none" stroke="black" d="M1128,-359.57C1121.88,-328.91 1113.06,-264.06 1135,-216 1169.16,-141.18 1270.08,-109.61 1325.86,-97.58"/>
<polygon fill="black" stroke="black" points="1326.45,-101.03 1335.55,-95.6 1325.06,-94.17 1326.45,-101.03"/>
</g>
<!-- multi_ed25519&#45;&gt;option -->
<g id="edge68" class="edge">
<title>multi_ed25519&#45;&gt;option</title>
<path fill="none" stroke="black" d="M1112.64,-360.51C1060.72,-317.24 912.49,-199.94 768,-144 677.83,-109.09 564.07,-97.12 502.51,-93.05"/>
<polygon fill="black" stroke="black" points="502.98,-89.58 492.78,-92.45 502.55,-96.56 502.98,-89.58"/>
</g>
<!-- multi_ed25519&#45;&gt;bcs -->
<g id="edge71" class="edge">
<title>multi_ed25519&#45;&gt;bcs</title>
<path fill="none" stroke="black" d="M1192.33,-371.69C1230.18,-365.57 1277.91,-352.38 1311,-324 1329.34,-308.27 1340.24,-282.75 1346.32,-263.06"/>
<polygon fill="black" stroke="black" points="1349.69,-264.01 1349.02,-253.44 1342.95,-262.12 1349.69,-264.01"/>
</g>
<!-- multi_ed25519&#45;&gt;hash -->
<g id="edge70" class="edge">
<title>multi_ed25519&#45;&gt;hash</title>
<path fill="none" stroke="black" d="M1121.91,-360.01C1115.9,-349.71 1108.27,-336.23 1102,-324 1091.52,-303.53 1080.67,-279.87 1072.77,-262.09"/>
<polygon fill="black" stroke="black" points="1076,-260.72 1068.76,-252.99 1069.59,-263.55 1076,-260.72"/>
</g>
<!-- multi_ed25519&#45;&gt;ed25519 -->
<g id="edge72" class="edge">
<title>multi_ed25519&#45;&gt;ed25519</title>
<path fill="none" stroke="black" d="M1160.63,-361.46C1179.93,-350.99 1205.52,-337.1 1226.03,-325.98"/>
<polygon fill="black" stroke="black" points="1227.49,-329.17 1234.61,-321.32 1224.15,-323.02 1227.49,-329.17"/>
</g>
<!-- from_bcs&#45;&gt;string -->
<g id="edge73" class="edge">
<title>from_bcs&#45;&gt;string</title>
<path fill="none" stroke="black" d="M533.81,-219C512.92,-207.84 483.58,-192.16 461.25,-180.23"/>
<polygon fill="black" stroke="black" points="463.03,-177.22 452.56,-175.59 459.73,-183.39 463.03,-177.22"/>
</g>
<!-- coin&#45;&gt;string -->
<g id="edge75" class="edge">
<title>coin&#45;&gt;string</title>
<path fill="none" stroke="black" d="M974.86,-520.06C872.34,-516.26 512.5,-500.67 474,-468 442.76,-441.49 450,-419.97 450,-379 450,-379 450,-379 450,-305 450,-265.1 441.78,-219.56 435.63,-191.04"/>
<polygon fill="black" stroke="black" points="439.07,-190.4 433.48,-181.41 432.24,-191.93 439.07,-190.4"/>
</g>
<!-- coin&#45;&gt;error -->
<g id="edge77" class="edge">
<title>coin&#45;&gt;error</title>
<path fill="none" stroke="black" d="M991.92,-505.01C963.59,-459.15 886.77,-327.96 909,-288 993.97,-135.25 1230.43,-100.88 1324.58,-93.19"/>
<polygon fill="black" stroke="black" points="1324.64,-96.7 1334.35,-92.46 1324.12,-89.72 1324.64,-96.7"/>
</g>
<!-- coin&#45;&gt;system_addresses -->
<g id="edge79" class="edge">
<title>coin&#45;&gt;system_addresses</title>
<path fill="none" stroke="black" d="M1029.18,-519.81C1129.09,-515.22 1475.68,-497.5 1582,-468 1652.87,-448.34 1665.26,-428.98 1731,-396 1776.14,-373.35 1827.47,-346.48 1862.02,-328.24"/>
<polygon fill="black" stroke="black" points="1863.63,-331.34 1870.84,-323.57 1860.36,-325.15 1863.63,-331.34"/>
</g>
<!-- coin&#45;&gt;option -->
<g id="edge74" class="edge">
<title>coin&#45;&gt;option</title>
<path fill="none" stroke="black" d="M974.82,-519.83C877.09,-515.39 547.4,-498.28 512,-468 480.87,-441.37 488,-419.97 488,-379 488,-379 488,-379 488,-233 488,-192.47 476.16,-146.82 467.35,-118.48"/>
<polygon fill="black" stroke="black" points="470.78,-117.7 464.39,-109.25 464.12,-119.84 470.78,-117.7"/>
</g>
<!-- coin&#45;&gt;signer -->
<g id="edge76" class="edge">
<title>coin&#45;&gt;signer</title>
<path fill="none" stroke="black" d="M1029.07,-519.26C1090.34,-514.86 1243.95,-501.16 1368,-468 1451.64,-445.64 1476.04,-442.61 1549,-396 1568.61,-383.48 1569.15,-374.92 1587,-360 1706.76,-259.92 1860.1,-153.81 1923.52,-110.81"/>
<polygon fill="black" stroke="black" points="1925.33,-113.81 1931.65,-105.31 1921.41,-108.01 1925.33,-113.81"/>
</g>
<!-- coin&#45;&gt;event -->
<g id="edge80" class="edge">
<title>coin&#45;&gt;event</title>
<path fill="none" stroke="black" d="M1028.79,-518.61C1082.77,-513.31 1208.05,-498.55 1309,-468 1371.1,-449.2 1439.37,-416.12 1478.22,-396.02"/>
<polygon fill="black" stroke="black" points="1479.79,-399.15 1487.03,-391.41 1476.55,-392.94 1479.79,-399.15"/>
</g>
<!-- coin&#45;&gt;account -->
<g id="edge81" class="edge">
<title>coin&#45;&gt;account</title>
<path fill="none" stroke="black" d="M1026.93,-514.29C1071.07,-502.4 1163.49,-477.52 1218.38,-462.74"/>
<polygon fill="black" stroke="black" points="1219.28,-466.13 1228.03,-460.15 1217.46,-459.37 1219.28,-466.13"/>
</g>
<!-- coin&#45;&gt;type_info -->
<g id="edge78" class="edge">
<title>coin&#45;&gt;type_info</title>
<path fill="none" stroke="black" d="M1005.34,-503.87C1011.91,-473.13 1028.56,-407.41 1059,-360 1085.91,-318.09 1129.45,-279.82 1158.4,-256.96"/>
<polygon fill="black" stroke="black" points="1160.3,-259.92 1166.05,-251.02 1156.01,-254.39 1160.3,-259.92"/>
</g>
<!-- optional_aggregator -->
<g id="node31" class="node">
<title>optional_aggregator</title>
<ellipse fill="none" stroke="black" cx="602" cy="-450" rx="81.49" ry="18"/>
<text text-anchor="middle" x="602" y="-446.3" font-family="Times,serif" font-size="14.00">optional_aggregator</text>
</g>
<!-- coin&#45;&gt;optional_aggregator -->
<g id="edge82" class="edge">
<title>coin&#45;&gt;optional_aggregator</title>
<path fill="none" stroke="black" d="M976.06,-516.46C916.21,-505.99 766.64,-479.81 675.8,-463.92"/>
<polygon fill="black" stroke="black" points="676.42,-460.47 665.97,-462.19 675.22,-467.37 676.42,-460.47"/>
</g>
<!-- aptos_coin&#45;&gt;vector -->
<g id="edge83" class="edge">
<title>aptos_coin&#45;&gt;vector</title>
<path fill="none" stroke="black" d="M310.11,-578.14C295.29,-568.5 276.76,-554.97 263,-540 155.42,-422.92 76,-394.01 76,-235 76,-235 76,-235 76,-161 76,-99.59 143.2,-56.15 186.42,-34.56"/>
<polygon fill="black" stroke="black" points="187.72,-37.82 195.21,-30.32 184.68,-31.51 187.72,-37.82"/>
</g>
<!-- aptos_coin&#45;&gt;string -->
<g id="edge85" class="edge">
<title>aptos_coin&#45;&gt;string</title>
<path fill="none" stroke="black" d="M342.89,-575.93C354.29,-549.67 374,-497.53 374,-451 374,-451 374,-451 374,-305 374,-262.1 396.1,-216.53 412.28,-188.92"/>
<polygon fill="black" stroke="black" points="415.16,-190.91 417.35,-180.55 409.17,-187.29 415.16,-190.91"/>
</g>
<!-- aptos_coin&#45;&gt;error -->
<g id="edge87" class="edge">
<title>aptos_coin&#45;&gt;error</title>
<path fill="none" stroke="black" d="M327.51,-575.89C316.7,-549.58 298,-497.37 298,-451 298,-451 298,-451 298,-305 298,-228.94 292.85,-186.38 356,-144 437.48,-89.32 1147.99,-89.75 1324.46,-90.71"/>
<polygon fill="black" stroke="black" points="1324.23,-94.21 1334.25,-90.77 1324.27,-87.21 1324.23,-94.21"/>
</g>
<!-- aptos_coin&#45;&gt;system_addresses -->
<g id="edge88" class="edge">
<title>aptos_coin&#45;&gt;system_addresses</title>
<path fill="none" stroke="black" d="M383.64,-590.92C590.22,-581.7 1395.35,-541.66 1637,-468 1731.9,-439.07 1827.51,-368.35 1873.62,-331"/>
<polygon fill="black" stroke="black" points="1875.74,-333.79 1881.25,-324.75 1871.3,-328.38 1875.74,-333.79"/>
</g>
<!-- aptos_coin&#45;&gt;option -->
<g id="edge84" class="edge">
<title>aptos_coin&#45;&gt;option</title>
<path fill="none" stroke="black" d="M315.54,-577.17C304.8,-567.48 292.05,-554.23 284,-540 263.83,-504.34 260,-491.97 260,-451 260,-451 260,-451 260,-305 260,-228.94 262.13,-195.61 318,-144 345,-119.06 384.9,-105.5 415.2,-98.36"/>
<polygon fill="black" stroke="black" points="415.8,-101.81 424.82,-96.25 414.3,-94.97 415.8,-101.81"/>
</g>
<!-- aptos_coin&#45;&gt;signer -->
<g id="edge86" class="edge">
<title>aptos_coin&#45;&gt;signer</title>
<path fill="none" stroke="black" d="M335.2,-575.51C335.49,-548.71 336,-495.87 336,-451 336,-451 336,-451 336,-305 336,-229.67 328.73,-189.19 389,-144 392.91,-141.07 1656.01,-100.5 1909.14,-92.4"/>
<polygon fill="black" stroke="black" points="1909.03,-95.91 1918.91,-92.09 1908.8,-88.91 1909.03,-95.91"/>
</g>
<!-- aptos_coin&#45;&gt;coin -->
<g id="edge89" class="edge">
<title>aptos_coin&#45;&gt;coin</title>
<path fill="none" stroke="black" d="M381.64,-588.11C506.99,-574.95 849.43,-539.01 964.05,-526.98"/>
<polygon fill="black" stroke="black" points="964.26,-530.48 973.84,-525.96 963.53,-523.52 964.26,-530.48"/>
</g>
<!-- staking_config&#45;&gt;error -->
<g id="edge90" class="edge">
<title>staking_config&#45;&gt;error</title>
<path fill="none" stroke="black" d="M1642.54,-360.4C1604.27,-321.92 1506.17,-223.78 1422,-144 1411.02,-133.59 1398.66,-122.25 1388.18,-112.74"/>
<polygon fill="black" stroke="black" points="1390.78,-110.37 1381.02,-106.26 1386.09,-115.56 1390.78,-110.37"/>
</g>
<!-- staking_config&#45;&gt;system_addresses -->
<g id="edge91" class="edge">
<title>staking_config&#45;&gt;system_addresses</title>
<path fill="none" stroke="black" d="M1702.16,-364.57C1741.94,-353.11 1801.23,-336.03 1844.9,-323.45"/>
<polygon fill="black" stroke="black" points="1845.84,-326.82 1854.48,-320.69 1843.9,-320.09 1845.84,-326.82"/>
</g>
<!-- bls12381&#45;&gt;error -->
<g id="edge93" class="edge">
<title>bls12381&#45;&gt;error</title>
<path fill="none" stroke="black" d="M260.75,-153.11C278.11,-149.78 299.02,-146.17 318,-144 709.01,-99.29 1186.55,-92.3 1324.8,-91.2"/>
<polygon fill="black" stroke="black" points="1324.52,-94.7 1334.5,-91.13 1324.47,-87.71 1324.52,-94.7"/>
</g>
<!-- bls12381&#45;&gt;option -->
<g id="edge92" class="edge">
<title>bls12381&#45;&gt;option</title>
<path fill="none" stroke="black" d="M257.36,-150.75C264.82,-148.52 272.68,-146.18 280,-144 327.54,-129.83 382.23,-113.55 418.3,-102.81"/>
<polygon fill="black" stroke="black" points="419.29,-106.17 427.88,-99.96 417.29,-99.46 419.29,-106.17"/>
</g>
<!-- features&#45;&gt;error -->
<g id="edge95" class="edge">
<title>features&#45;&gt;error</title>
<path fill="none" stroke="black" d="M1312.98,-145.12C1321.65,-135.91 1332.73,-124.17 1342.34,-113.97"/>
<polygon fill="black" stroke="black" points="1344.63,-116.64 1348.95,-106.97 1339.54,-111.84 1344.63,-116.64"/>
</g>
<!-- features&#45;&gt;signer -->
<g id="edge94" class="edge">
<title>features&#45;&gt;signer</title>
<path fill="none" stroke="black" d="M1335.09,-157.04C1448.24,-144.94 1788.6,-108.57 1909.67,-95.63"/>
<polygon fill="black" stroke="black" points="1909.94,-99.12 1919.52,-94.58 1909.2,-92.16 1909.94,-99.12"/>
</g>
<!-- optional_aggregator&#45;&gt;error -->
<g id="edge97" class="edge">
<title>optional_aggregator&#45;&gt;error</title>
<path fill="none" stroke="black" d="M593.24,-431.82C578.59,-400.44 553.48,-332.93 583,-288 605.14,-254.31 877.07,-154.48 916,-144 1063.29,-104.35 1245.75,-94.36 1324.63,-91.84"/>
<polygon fill="black" stroke="black" points="1324.54,-95.35 1334.43,-91.55 1324.33,-88.35 1324.54,-95.35"/>
</g>
<!-- optional_aggregator&#45;&gt;option -->
<g id="edge96" class="edge">
<title>optional_aggregator&#45;&gt;option</title>
<path fill="none" stroke="black" d="M578.79,-432.37C567.84,-423.07 555.9,-410.44 550,-396 531.84,-351.57 525.91,-329.52 550,-288 566.19,-260.11 596.81,-279.89 613,-252 621.03,-238.16 619.9,-230.43 613,-216 588.26,-164.26 530.49,-127.08 492.89,-107.32"/>
<polygon fill="black" stroke="black" points="494.71,-104.32 484.21,-102.9 491.53,-110.56 494.71,-104.32"/>
</g>
<!-- aggregator -->
<g id="node32" class="node">
<title>aggregator</title>
<ellipse fill="none" stroke="black" cx="640" cy="-306" rx="48.19" ry="18"/>
<text text-anchor="middle" x="640" y="-302.3" font-family="Times,serif" font-size="14.00">aggregator</text>
</g>
<!-- optional_aggregator&#45;&gt;aggregator -->
<g id="edge98" class="edge">
<title>optional_aggregator&#45;&gt;aggregator</title>
<path fill="none" stroke="black" d="M606.66,-431.59C613.1,-407.5 624.81,-363.75 632.5,-335.03"/>
<polygon fill="black" stroke="black" points="635.83,-336.14 635.03,-325.57 629.06,-334.33 635.83,-336.14"/>
</g>
<!-- aggregator_factory -->
<g id="node33" class="node">
<title>aggregator_factory</title>
<ellipse fill="none" stroke="black" cx="821" cy="-378" rx="77.19" ry="18"/>
<text text-anchor="middle" x="821" y="-374.3" font-family="Times,serif" font-size="14.00">aggregator_factory</text>
</g>
<!-- optional_aggregator&#45;&gt;aggregator_factory -->
<g id="edge99" class="edge">
<title>optional_aggregator&#45;&gt;aggregator_factory</title>
<path fill="none" stroke="black" d="M647.11,-434.58C681.64,-423.54 729.42,-408.27 766.16,-396.53"/>
<polygon fill="black" stroke="black" points="766.79,-400 775.25,-393.62 764.66,-393.33 766.79,-400"/>
</g>
<!-- aggregator_factory&#45;&gt;error -->
<g id="edge100" class="edge">
<title>aggregator_factory&#45;&gt;error</title>
<path fill="none" stroke="black" d="M825.35,-359.74C838.11,-313.48 880.26,-187.28 970,-144 1032.12,-114.04 1237.37,-98.56 1324.42,-93.21"/>
<polygon fill="black" stroke="black" points="1324.6,-96.7 1334.38,-92.61 1324.19,-89.71 1324.6,-96.7"/>
</g>
<!-- aggregator_factory&#45;&gt;system_addresses -->
<g id="edge102" class="edge">
<title>aggregator_factory&#45;&gt;system_addresses</title>
<path fill="none" stroke="black" d="M893.9,-371.63C941,-368.2 1003.62,-363.72 1059,-360 1337.96,-341.27 1668.99,-321.04 1819.8,-311.93"/>
<polygon fill="black" stroke="black" points="1819.93,-315.43 1829.7,-311.34 1819.51,-308.45 1819.93,-315.43"/>
</g>
<!-- aggregator_factory&#45;&gt;table -->
<g id="edge101" class="edge">
<title>aggregator_factory&#45;&gt;table</title>
<path fill="none" stroke="black" d="M849.68,-360.94C869.32,-349.94 895.34,-335.37 915.38,-324.15"/>
<polygon fill="black" stroke="black" points="916.92,-327.3 923.93,-319.36 913.5,-321.19 916.92,-327.3"/>
</g>
<!-- aggregator_factory&#45;&gt;aggregator -->
<g id="edge103" class="edge">
<title>aggregator_factory&#45;&gt;aggregator</title>
<path fill="none" stroke="black" d="M782.17,-361.98C753.12,-350.75 713.39,-335.38 683.31,-323.75"/>
<polygon fill="black" stroke="black" points="684.71,-320.54 674.12,-320.2 682.18,-327.07 684.71,-320.54"/>
</g>
</g>
</svg>
