<?xml version="1.0" encoding="UTF-8" standalone="no"?>
<!DOCTYPE svg PUBLIC "-//W3C//DTD SVG 1.1//EN"
 "http://www.w3.org/Graphics/SVG/1.1/DTD/svg11.dtd">
<!-- Generated by graphviz version 7.0.0 (20221023.0053)
 -->
<!-- Title: G Pages: 1 -->
<svg width="2997pt" height="780pt"
 viewBox="0.00 0.00 2997.00 780.00" xmlns="http://www.w3.org/2000/svg" xmlns:xlink="http://www.w3.org/1999/xlink">
<g id="graph0" class="graph" transform="scale(1 1) rotate(0) translate(4 776)">
<title>G</title>
<polygon fill="white" stroke="none" points="-4,4 -4,-776 2993,-776 2993,4 -4,4"/>
<g id="clust1" class="cluster">
<title>cluster_vector</title>
<polygon fill="none" stroke="black" points="713,-8 713,-83 817,-83 817,-8 713,-8"/>
<text text-anchor="middle" x="765" y="-67.8" font-family="Times,serif" font-size="14.00">vector</text>
</g>
<g id="clust2" class="cluster">
<title>cluster_error</title>
<polygon fill="none" stroke="black" points="1663,-8 1663,-166 2374,-166 2374,-8 1663,-8"/>
<text text-anchor="middle" x="2018.5" y="-150.8" font-family="Times,serif" font-size="14.00">error</text>
</g>
<g id="clust3" class="cluster">
<title>cluster_system_addresses</title>
<polygon fill="none" stroke="black" points="2737,-91 2737,-249 2981,-249 2981,-91 2737,-91"/>
<text text-anchor="middle" x="2859" y="-233.8" font-family="Times,serif" font-size="14.00">system_addresses</text>
</g>
<g id="clust4" class="cluster">
<title>cluster_reconfiguration</title>
<polygon fill="none" stroke="black" points="2488,-570 2488,-728 2698,-728 2698,-570 2488,-570"/>
<text text-anchor="middle" x="2593" y="-712.8" font-family="Times,serif" font-size="14.00">reconfiguration</text>
</g>
<g id="clust5" class="cluster">
<title>cluster_util</title>
<polygon fill="none" stroke="black" points="2776,-653 2776,-728 2894,-728 2894,-653 2776,-653"/>
<text text-anchor="middle" x="2835" y="-712.8" font-family="Times,serif" font-size="14.00">util</text>
</g>
<g id="clust6" class="cluster">
<title>cluster_signer</title>
<polygon fill="none" stroke="black" points="2579,-8 2579,-166 2729,-166 2729,-8 2579,-8"/>
<text text-anchor="middle" x="2654" y="-150.8" font-family="Times,serif" font-size="14.00">signer</text>
</g>
<g id="clust7" class="cluster">
<title>cluster_event</title>
<polygon fill="none" stroke="black" points="521,-340 521,-498 707,-498 707,-340 521,-340"/>
<text text-anchor="middle" x="614" y="-482.8" font-family="Times,serif" font-size="14.00">event</text>
</g>
<g id="clust8" class="cluster">
<title>cluster_chain_status</title>
<polygon fill="none" stroke="black" points="1021,-570 1021,-645 1131,-645 1131,-570 1021,-570"/>
<text text-anchor="middle" x="1076" y="-629.8" font-family="Times,serif" font-size="14.00">chain_status</text>
</g>
<g id="clust9" class="cluster">
<title>cluster_timestamp</title>
<polygon fill="none" stroke="black" points="2278,-340 2278,-498 2452,-498 2452,-340 2278,-340"/>
<text text-anchor="middle" x="2365" y="-482.8" font-family="Times,serif" font-size="14.00">timestamp</text>
</g>
<g id="clust10" class="cluster">
<title>cluster_stake</title>
<polygon fill="none" stroke="black" points="1139,-340 1139,-645 1607,-645 1607,-340 1139,-340"/>
<text text-anchor="middle" x="1373" y="-629.8" font-family="Times,serif" font-size="14.00">stake</text>
</g>
<g id="clust11" class="cluster">
<title>cluster_storage_gas</title>
<polygon fill="none" stroke="black" points="8,-8 8,-332 542,-332 542,-8 8,-8"/>
<text text-anchor="middle" x="275" y="-316.8" font-family="Times,serif" font-size="14.00">storage_gas</text>
</g>
<g id="clust12" class="cluster">
<title>cluster_bcs</title>
<polygon fill="none" stroke="black" points="417,-340 417,-415 513,-415 513,-340 417,-340"/>
<text text-anchor="middle" x="465" y="-399.8" font-family="Times,serif" font-size="14.00">bcs</text>
</g>
<g id="clust13" class="cluster">
<title>cluster_staking_config</title>
<polygon fill="none" stroke="black" points="1615,-423 1615,-498 2270,-498 2270,-423 1615,-423"/>
<text text-anchor="middle" x="1942.5" y="-482.8" font-family="Times,serif" font-size="14.00">staking_config</text>
</g>
<g id="clust14" class="cluster">
<title>cluster_state_storage</title>
<polygon fill="none" stroke="black" points="989,-174 989,-249 1203,-249 1203,-174 989,-174"/>
<text text-anchor="middle" x="1096" y="-233.8" font-family="Times,serif" font-size="14.00">state_storage</text>
</g>
<g id="clust15" class="cluster">
<title>cluster_coin</title>
<polygon fill="none" stroke="black" points="785,-257 785,-415 1131,-415 1131,-257 785,-257"/>
<text text-anchor="middle" x="958" y="-399.8" font-family="Times,serif" font-size="14.00">coin</text>
</g>
<g id="clust16" class="cluster">
<title>cluster_option</title>
<polygon fill="none" stroke="black" points="823,-91 823,-249 949,-249 949,-91 823,-91"/>
<text text-anchor="middle" x="886" y="-233.8" font-family="Times,serif" font-size="14.00">option</text>
</g>
<g id="clust18" class="cluster">
<title>cluster_aggregator</title>
<polygon fill="none" stroke="black" points="1497,-174 1497,-249 1571,-249 1571,-174 1497,-174"/>
<text text-anchor="middle" x="1534" y="-233.8" font-family="Times,serif" font-size="14.00">aggregator</text>
</g>
<g id="clust19" class="cluster">
<title>cluster_type_info</title>
<polygon fill="none" stroke="black" points="1211,-174 1211,-249 1459,-249 1459,-174 1211,-174"/>
<text text-anchor="middle" x="1335" y="-233.8" font-family="Times,serif" font-size="14.00">type_info</text>
</g>
<g id="clust17" class="cluster">
<title>cluster_optional_aggregator</title>
<polygon fill="none" stroke="black" points="1579,-174 1579,-332 1704,-332 1704,-174 1579,-174"/>
<text text-anchor="middle" x="1641.5" y="-316.8" font-family="Times,serif" font-size="14.00">optional_aggregator</text>
</g>
<!-- set_gas_schedule -->
<g id="node1" class="node">
<title>set_gas_schedule</title>
<ellipse fill="none" stroke="black" cx="2718" cy="-754" rx="71.49" ry="18"/>
<text text-anchor="middle" x="2718" y="-750.3" font-family="Times,serif" font-size="14.00">set_gas_schedule</text>
</g>
<!-- vector::is_empty -->
<g id="node2" class="node">
<title>vector::is_empty</title>
<ellipse fill="none" stroke="black" cx="765" cy="-34" rx="43.59" ry="18"/>
<text text-anchor="middle" x="765" y="-30.3" font-family="Times,serif" font-size="14.00">is_empty</text>
</g>
<!-- set_gas_schedule&#45;&gt;vector::is_empty -->
<g id="edge1" class="edge">
<title>set_gas_schedule&#45;&gt;vector::is_empty</title>
<path fill="none" stroke="black" d="M2646.63,-752.03C2256.26,-746.25 397,-712.67 397,-597 397,-597 397,-597 397,-448 397,-399.48 377.23,-372.79 413,-340 434.83,-319.99 519.98,-346.14 546,-332 658.61,-270.81 728.96,-123.89 754.33,-62.59"/>
<polygon fill="black" stroke="black" points="757.46,-64.17 757.97,-53.58 750.98,-61.54 757.46,-64.17"/>
</g>
<!-- error::invalid_argument -->
<g id="node3" class="node">
<title>error::invalid_argument</title>
<ellipse fill="none" stroke="black" cx="2120" cy="-117" rx="73.39" ry="18"/>
<text text-anchor="middle" x="2120" y="-113.3" font-family="Times,serif" font-size="14.00">invalid_argument</text>
</g>
<!-- set_gas_schedule&#45;&gt;error::invalid_argument -->
<g id="edge2" class="edge">
<title>set_gas_schedule&#45;&gt;error::invalid_argument</title>
<path fill="none" stroke="black" d="M2718,-735.69C2718,-706.9 2718,-647.38 2718,-597 2718,-597 2718,-597 2718,-282 2718,-164.69 2312.25,-208.74 2203,-166 2185.87,-159.3 2168.06,-149.44 2153.36,-140.4"/>
<polygon fill="black" stroke="black" points="2155.32,-137.5 2145,-135.12 2151.59,-143.42 2155.32,-137.5"/>
</g>
<!-- system_addresses::assert_aptos_framework -->
<g id="node4" class="node">
<title>system_addresses::assert_aptos_framework</title>
<ellipse fill="none" stroke="black" cx="2843" cy="-200" rx="96.68" ry="18"/>
<text text-anchor="middle" x="2843" y="-196.3" font-family="Times,serif" font-size="14.00">assert_aptos_framework</text>
</g>
<!-- set_gas_schedule&#45;&gt;system_addresses::assert_aptos_framework -->
<g id="edge3" class="edge">
<title>set_gas_schedule&#45;&gt;system_addresses::assert_aptos_framework</title>
<path fill="none" stroke="black" d="M2728.55,-735.86C2729.85,-733.29 2731.06,-730.62 2732,-728 2752.07,-672.31 2756,-656.19 2756,-597 2756,-597 2756,-597 2756,-365 2756,-310.73 2793.64,-256.9 2819.4,-226.41"/>
<polygon fill="black" stroke="black" points="2821.73,-229.07 2825.64,-219.23 2816.44,-224.48 2821.73,-229.07"/>
</g>
<!-- reconfiguration::reconfigure -->
<g id="node5" class="node">
<title>reconfiguration::reconfigure</title>
<ellipse fill="none" stroke="black" cx="2547" cy="-679" rx="51.19" ry="18"/>
<text text-anchor="middle" x="2547" y="-675.3" font-family="Times,serif" font-size="14.00">reconfigure</text>
</g>
<!-- set_gas_schedule&#45;&gt;reconfiguration::reconfigure -->
<g id="edge4" class="edge">
<title>set_gas_schedule&#45;&gt;reconfiguration::reconfigure</title>
<path fill="none" stroke="black" d="M2682.98,-738.05C2655.86,-726.47 2618.19,-710.39 2589.37,-698.09"/>
<polygon fill="black" stroke="black" points="2590.76,-694.88 2580.19,-694.17 2588.01,-701.31 2590.76,-694.88"/>
</g>
<!-- util::from_bytes -->
<g id="node6" class="node">
<title>util::from_bytes</title>
<ellipse fill="none" stroke="black" cx="2835" cy="-679" rx="51.19" ry="18"/>
<text text-anchor="middle" x="2835" y="-675.3" font-family="Times,serif" font-size="14.00">from_bytes</text>
</g>
<!-- set_gas_schedule&#45;&gt;util::from_bytes -->
<g id="edge5" class="edge">
<title>set_gas_schedule&#45;&gt;util::from_bytes</title>
<path fill="none" stroke="black" d="M2752.05,-737.77C2758.14,-734.72 2764.34,-731.41 2770,-728 2782.49,-720.48 2795.54,-711.16 2806.65,-702.73"/>
<polygon fill="black" stroke="black" points="2808.5,-705.73 2814.27,-696.85 2804.22,-700.19 2808.5,-705.73"/>
</g>
<!-- error::canonical -->
<g id="node7" class="node">
<title>error::canonical</title>
<ellipse fill="none" stroke="black" cx="1973" cy="-34" rx="44.39" ry="18"/>
<text text-anchor="middle" x="1973" y="-30.3" font-family="Times,serif" font-size="14.00">canonical</text>
</g>
<!-- error::invalid_argument&#45;&gt;error::canonical -->
<g id="edge6" class="edge">
<title>error::invalid_argument&#45;&gt;error::canonical</title>
<path fill="none" stroke="black" d="M2090.96,-100C2067.28,-86.95 2033.74,-68.47 2008.47,-54.54"/>
<polygon fill="black" stroke="black" points="2010.32,-51.57 1999.87,-49.81 2006.94,-57.7 2010.32,-51.57"/>
</g>
<!-- signer::address_of -->
<g id="node8" class="node">
<title>signer::address_of</title>
<ellipse fill="none" stroke="black" cx="2663" cy="-117" rx="48.99" ry="18"/>
<text text-anchor="middle" x="2663" y="-113.3" font-family="Times,serif" font-size="14.00">address_of</text>
</g>
<!-- system_addresses::assert_aptos_framework&#45;&gt;signer::address_of -->
<g id="edge7" class="edge">
<title>system_addresses::assert_aptos_framework&#45;&gt;signer::address_of</title>
<path fill="none" stroke="black" d="M2784.93,-185.22C2767.79,-180.19 2749.28,-173.79 2733,-166 2718.63,-159.12 2703.92,-149.5 2691.71,-140.67"/>
<polygon fill="black" stroke="black" points="2693.84,-137.89 2683.72,-134.73 2689.66,-143.51 2693.84,-137.89"/>
</g>
<!-- error::permission_denied -->
<g id="node9" class="node">
<title>error::permission_denied</title>
<ellipse fill="none" stroke="black" cx="2289" cy="-117" rx="77.19" ry="18"/>
<text text-anchor="middle" x="2289" y="-113.3" font-family="Times,serif" font-size="14.00">permission_denied</text>
</g>
<!-- system_addresses::assert_aptos_framework&#45;&gt;error::permission_denied -->
<g id="edge8" class="edge">
<title>system_addresses::assert_aptos_framework&#45;&gt;error::permission_denied</title>
<path fill="none" stroke="black" d="M2788.29,-184.73C2770.46,-180.61 2750.49,-176.53 2732,-174 2662.78,-164.51 2644.46,-173.57 2575,-166 2500.04,-157.83 2414.9,-142.79 2357.15,-131.72"/>
<polygon fill="black" stroke="black" points="2357.95,-128.3 2347.46,-129.84 2356.62,-135.18 2357.95,-128.3"/>
</g>
<!-- system_addresses::is_aptos_framework_address -->
<g id="node10" class="node">
<title>system_addresses::is_aptos_framework_address</title>
<ellipse fill="none" stroke="black" cx="2859" cy="-117" rx="113.98" ry="18"/>
<text text-anchor="middle" x="2859" y="-113.3" font-family="Times,serif" font-size="14.00">is_aptos_framework_address</text>
</g>
<!-- system_addresses::assert_aptos_framework&#45;&gt;system_addresses::is_aptos_framework_address -->
<g id="edge9" class="edge">
<title>system_addresses::assert_aptos_framework&#45;&gt;system_addresses::is_aptos_framework_address</title>
<path fill="none" stroke="black" d="M2846.39,-181.82C2848.42,-171.58 2851.03,-158.33 2853.36,-146.55"/>
<polygon fill="black" stroke="black" points="2856.76,-147.41 2855.26,-136.92 2849.89,-146.05 2856.76,-147.41"/>
</g>
<!-- error::invalid_state -->
<g id="node11" class="node">
<title>error::invalid_state</title>
<ellipse fill="none" stroke="black" cx="1973" cy="-117" rx="55.79" ry="18"/>
<text text-anchor="middle" x="1973" y="-113.3" font-family="Times,serif" font-size="14.00">invalid_state</text>
</g>
<!-- reconfiguration::reconfigure&#45;&gt;error::invalid_state -->
<g id="edge10" class="edge">
<title>reconfiguration::reconfigure&#45;&gt;error::invalid_state</title>
<path fill="none" stroke="black" d="M2511.48,-665.62C2502.07,-660.65 2492.9,-653.92 2487,-645 2411.8,-531.38 2537.24,-449.38 2456,-340 2336.02,-178.45 2213.1,-265.16 2038,-166 2025.32,-158.82 2012.22,-149.56 2001.14,-141.09"/>
<polygon fill="black" stroke="black" points="2003.58,-138.56 1993.55,-135.16 1999.27,-144.07 2003.58,-138.56"/>
</g>
<!-- event::emit_event -->
<g id="node12" class="node">
<title>event::emit_event</title>
<ellipse fill="none" stroke="black" cx="631" cy="-449" rx="50.09" ry="18"/>
<text text-anchor="middle" x="631" y="-445.3" font-family="Times,serif" font-size="14.00">emit_event</text>
</g>
<!-- reconfiguration::reconfigure&#45;&gt;event::emit_event -->
<g id="edge11" class="edge">
<title>reconfiguration::reconfigure&#45;&gt;event::emit_event</title>
<path fill="none" stroke="black" d="M2495.74,-677.84C2202.66,-676.86 750.92,-670.69 713,-645 657.13,-607.16 639.22,-523.2 633.56,-478.8"/>
<polygon fill="black" stroke="black" points="637.04,-478.45 632.44,-468.91 630.09,-479.24 637.04,-478.45"/>
</g>
<!-- chain_status::is_genesis -->
<g id="node13" class="node">
<title>chain_status::is_genesis</title>
<ellipse fill="none" stroke="black" cx="1076" cy="-596" rx="46.59" ry="18"/>
<text text-anchor="middle" x="1076" y="-592.3" font-family="Times,serif" font-size="14.00">is_genesis</text>
</g>
<!-- reconfiguration::reconfigure&#45;&gt;chain_status::is_genesis -->
<g id="edge12" class="edge">
<title>reconfiguration::reconfigure&#45;&gt;chain_status::is_genesis</title>
<path fill="none" stroke="black" d="M2495.64,-677.73C2249.52,-676.33 1199.96,-668.95 1135,-645 1121.39,-639.98 1108.6,-630.44 1098.43,-621.17"/>
<polygon fill="black" stroke="black" points="1100.92,-618.71 1091.3,-614.27 1096.05,-623.74 1100.92,-618.71"/>
</g>
<!-- timestamp::now_microseconds -->
<g id="node14" class="node">
<title>timestamp::now_microseconds</title>
<ellipse fill="none" stroke="black" cx="2365" cy="-366" rx="79.09" ry="18"/>
<text text-anchor="middle" x="2365" y="-362.3" font-family="Times,serif" font-size="14.00">now_microseconds</text>
</g>
<!-- reconfiguration::reconfigure&#45;&gt;timestamp::now_microseconds -->
<g id="edge13" class="edge">
<title>reconfiguration::reconfigure&#45;&gt;timestamp::now_microseconds</title>
<path fill="none" stroke="black" d="M2500.35,-671.33C2483.49,-666.64 2465.73,-658.64 2454,-645 2388.45,-568.82 2453.76,-513.95 2411,-423 2405.78,-411.9 2397.86,-401.13 2390.06,-392.05"/>
<polygon fill="black" stroke="black" points="2392.72,-389.78 2383.42,-384.71 2387.53,-394.47 2392.72,-389.78"/>
</g>
<!-- stake::on_new_epoch -->
<g id="node15" class="node">
<title>stake::on_new_epoch</title>
<ellipse fill="none" stroke="black" cx="1535" cy="-596" rx="63.89" ry="18"/>
<text text-anchor="middle" x="1535" y="-592.3" font-family="Times,serif" font-size="14.00">on_new_epoch</text>
</g>
<!-- reconfiguration::reconfigure&#45;&gt;stake::on_new_epoch -->
<g id="edge14" class="edge">
<title>reconfiguration::reconfigure&#45;&gt;stake::on_new_epoch</title>
<path fill="none" stroke="black" d="M2497.5,-674.04C2332.63,-660.84 1801.54,-618.33 1607.15,-602.77"/>
<polygon fill="black" stroke="black" points="1607.7,-599.31 1597.45,-602 1607.14,-606.29 1607.7,-599.31"/>
</g>
<!-- storage_gas::on_reconfig -->
<g id="node16" class="node">
<title>storage_gas::on_reconfig</title>
<ellipse fill="none" stroke="black" cx="465" cy="-283" rx="53.09" ry="18"/>
<text text-anchor="middle" x="465" y="-279.3" font-family="Times,serif" font-size="14.00">on_reconfig</text>
</g>
<!-- reconfiguration::reconfigure&#45;&gt;storage_gas::on_reconfig -->
<g id="edge15" class="edge">
<title>reconfiguration::reconfigure&#45;&gt;storage_gas::on_reconfig</title>
<path fill="none" stroke="black" d="M2495.77,-678.02C2246.24,-677.95 1164.07,-675.88 1017,-645 880.49,-616.34 727,-664.49 727,-525 727,-525 727,-525 727,-448 727,-399.48 743.97,-375.6 711,-340 686.47,-313.51 591.52,-297.92 527.02,-290.17"/>
<polygon fill="black" stroke="black" points="527.59,-286.71 517.26,-289.03 526.78,-293.66 527.59,-286.71"/>
</g>
<!-- reconfiguration::reconfiguration_enabled -->
<g id="node17" class="node">
<title>reconfiguration::reconfiguration_enabled</title>
<ellipse fill="none" stroke="black" cx="2593" cy="-596" rx="96.68" ry="18"/>
<text text-anchor="middle" x="2593" y="-592.3" font-family="Times,serif" font-size="14.00">reconfiguration_enabled</text>
</g>
<!-- reconfiguration::reconfigure&#45;&gt;reconfiguration::reconfiguration_enabled -->
<g id="edge16" class="edge">
<title>reconfiguration::reconfigure&#45;&gt;reconfiguration::reconfiguration_enabled</title>
<path fill="none" stroke="black" d="M2556.53,-661.22C2562.62,-650.5 2570.64,-636.36 2577.62,-624.08"/>
<polygon fill="black" stroke="black" points="2580.52,-626.06 2582.42,-615.64 2574.43,-622.6 2580.52,-626.06"/>
</g>
<!-- signer::borrow_address -->
<g id="node18" class="node">
<title>signer::borrow_address</title>
<ellipse fill="none" stroke="black" cx="2654" cy="-34" rx="66.89" ry="18"/>
<text text-anchor="middle" x="2654" y="-30.3" font-family="Times,serif" font-size="14.00">borrow_address</text>
</g>
<!-- signer::address_of&#45;&gt;signer::borrow_address -->
<g id="edge17" class="edge">
<title>signer::address_of&#45;&gt;signer::borrow_address</title>
<path fill="none" stroke="black" d="M2661.09,-98.82C2659.95,-88.58 2658.48,-75.33 2657.17,-63.55"/>
<polygon fill="black" stroke="black" points="2660.69,-63.49 2656.1,-53.94 2653.73,-64.26 2660.69,-63.49"/>
</g>
<!-- error::permission_denied&#45;&gt;error::canonical -->
<g id="edge18" class="edge">
<title>error::permission_denied&#45;&gt;error::canonical</title>
<path fill="none" stroke="black" d="M2242.59,-102.29C2229.49,-98.53 2215.21,-94.51 2202,-91 2140.06,-74.53 2068.22,-57.26 2021.76,-46.33"/>
<polygon fill="black" stroke="black" points="2022.81,-42.98 2012.28,-44.1 2021.21,-49.79 2022.81,-42.98"/>
</g>
<!-- error::invalid_state&#45;&gt;error::canonical -->
<g id="edge19" class="edge">
<title>error::invalid_state&#45;&gt;error::canonical</title>
<path fill="none" stroke="black" d="M1973,-98.82C1973,-88.69 1973,-75.6 1973,-63.92"/>
<polygon fill="black" stroke="black" points="1976.5,-63.95 1973,-53.95 1969.5,-63.95 1976.5,-63.95"/>
</g>
<!-- bcs::to_bytes -->
<g id="node19" class="node">
<title>bcs::to_bytes</title>
<ellipse fill="none" stroke="black" cx="465" cy="-366" rx="40.09" ry="18"/>
<text text-anchor="middle" x="465" y="-362.3" font-family="Times,serif" font-size="14.00">to_bytes</text>
</g>
<!-- event::emit_event&#45;&gt;bcs::to_bytes -->
<g id="edge20" class="edge">
<title>event::emit_event&#45;&gt;bcs::to_bytes</title>
<path fill="none" stroke="black" d="M586.62,-440.18C564.71,-435.09 538.45,-427.1 517,-415 506.09,-408.84 495.61,-399.97 486.96,-391.53"/>
<polygon fill="black" stroke="black" points="489.52,-389.14 480.03,-384.42 484.51,-394.03 489.52,-389.14"/>
</g>
<!-- event::write_to_event_store -->
<g id="node20" class="node">
<title>event::write_to_event_store</title>
<ellipse fill="none" stroke="black" cx="614" cy="-366" rx="85.29" ry="18"/>
<text text-anchor="middle" x="614" y="-362.3" font-family="Times,serif" font-size="14.00">write_to_event_store</text>
</g>
<!-- event::emit_event&#45;&gt;event::write_to_event_store -->
<g id="edge21" class="edge">
<title>event::emit_event&#45;&gt;event::write_to_event_store</title>
<path fill="none" stroke="black" d="M627.39,-430.82C625.25,-420.58 622.46,-407.33 619.99,-395.55"/>
<polygon fill="black" stroke="black" points="623.45,-394.98 617.97,-385.91 616.6,-396.42 623.45,-394.98"/>
</g>
<!-- timestamp::now_seconds -->
<g id="node21" class="node">
<title>timestamp::now_seconds</title>
<ellipse fill="none" stroke="black" cx="2344" cy="-449" rx="57.69" ry="18"/>
<text text-anchor="middle" x="2344" y="-445.3" font-family="Times,serif" font-size="14.00">now_seconds</text>
</g>
<!-- stake::on_new_epoch&#45;&gt;timestamp::now_seconds -->
<g id="edge22" class="edge">
<title>stake::on_new_epoch&#45;&gt;timestamp::now_seconds</title>
<path fill="none" stroke="black" d="M1596.68,-590.94C1751.18,-580.14 2151.17,-548.05 2274,-498 2289.01,-491.88 2304.04,-482.17 2316.3,-473.07"/>
<polygon fill="black" stroke="black" points="2318.11,-476.1 2323.9,-467.22 2313.84,-470.55 2318.11,-476.1"/>
</g>
<!-- staking_config::get -->
<g id="node22" class="node">
<title>staking_config::get</title>
<ellipse fill="none" stroke="black" cx="1804" cy="-449" rx="27" ry="18"/>
<text text-anchor="middle" x="1804" y="-445.3" font-family="Times,serif" font-size="14.00">get</text>
</g>
<!-- stake::on_new_epoch&#45;&gt;staking_config::get -->
<g id="edge23" class="edge">
<title>stake::on_new_epoch&#45;&gt;staking_config::get</title>
<path fill="none" stroke="black" d="M1581.67,-583.51C1631.6,-569.51 1711.27,-542.11 1768,-498 1775.95,-491.82 1783.03,-483.46 1788.76,-475.45"/>
<polygon fill="black" stroke="black" points="1791.58,-477.54 1794.22,-467.28 1785.75,-473.65 1791.58,-477.54"/>
</g>
<!-- staking_config::get_recurring_lockup_duration -->
<g id="node23" class="node">
<title>staking_config::get_recurring_lockup_duration</title>
<ellipse fill="none" stroke="black" cx="1969" cy="-449" rx="120.48" ry="18"/>
<text text-anchor="middle" x="1969" y="-445.3" font-family="Times,serif" font-size="14.00">get_recurring_lockup_duration</text>
</g>
<!-- stake::on_new_epoch&#45;&gt;staking_config::get_recurring_lockup_duration -->
<g id="edge24" class="edge">
<title>stake::on_new_epoch&#45;&gt;staking_config::get_recurring_lockup_duration</title>
<path fill="none" stroke="black" d="M1584.22,-584.26C1626.29,-574.63 1688.2,-559.36 1741,-542 1804.82,-521.02 1876.34,-491.06 1921.97,-471.1"/>
<polygon fill="black" stroke="black" points="1923.3,-474.34 1931.05,-467.11 1920.49,-467.93 1923.3,-474.34"/>
</g>
<!-- staking_config::get_required_stake -->
<g id="node24" class="node">
<title>staking_config::get_required_stake</title>
<ellipse fill="none" stroke="black" cx="2185" cy="-449" rx="77.19" ry="18"/>
<text text-anchor="middle" x="2185" y="-445.3" font-family="Times,serif" font-size="14.00">get_required_stake</text>
</g>
<!-- stake::on_new_epoch&#45;&gt;staking_config::get_required_stake -->
<g id="edge25" class="edge">
<title>stake::on_new_epoch&#45;&gt;staking_config::get_required_stake</title>
<path fill="none" stroke="black" d="M1596.66,-591.1C1702.07,-582.98 1922.52,-559.56 2098,-498 2116.29,-491.58 2135.29,-481.55 2150.85,-472.31"/>
<polygon fill="black" stroke="black" points="2152.53,-475.39 2159.24,-467.19 2148.89,-469.41 2152.53,-475.39"/>
</g>
<!-- stake::append -->
<g id="node25" class="node">
<title>stake::append</title>
<ellipse fill="none" stroke="black" cx="1183" cy="-524" rx="36.29" ry="18"/>
<text text-anchor="middle" x="1183" y="-520.3" font-family="Times,serif" font-size="14.00">append</text>
</g>
<!-- stake::on_new_epoch&#45;&gt;stake::append -->
<g id="edge26" class="edge">
<title>stake::on_new_epoch&#45;&gt;stake::append</title>
<path fill="none" stroke="black" d="M1476.57,-588.28C1414.26,-580.33 1313.06,-565.18 1228,-542 1225.73,-541.38 1223.42,-540.7 1221.1,-539.96"/>
<polygon fill="black" stroke="black" points="1222.36,-536.69 1211.76,-536.76 1220.09,-543.31 1222.36,-536.69"/>
</g>
<!-- stake::generate_validator_info -->
<g id="node26" class="node">
<title>stake::generate_validator_info</title>
<ellipse fill="none" stroke="black" cx="1504" cy="-524" rx="94.78" ry="18"/>
<text text-anchor="middle" x="1504" y="-520.3" font-family="Times,serif" font-size="14.00">generate_validator_info</text>
</g>
<!-- stake::on_new_epoch&#45;&gt;stake::generate_validator_info -->
<g id="edge27" class="edge">
<title>stake::on_new_epoch&#45;&gt;stake::generate_validator_info</title>
<path fill="none" stroke="black" d="M1527.34,-577.7C1523.96,-570.07 1519.91,-560.92 1516.13,-552.4"/>
<polygon fill="black" stroke="black" points="1519.44,-551.21 1512.19,-543.49 1513.04,-554.05 1519.44,-551.21"/>
</g>
<!-- stake::update_stake_pool -->
<g id="node27" class="node">
<title>stake::update_stake_pool</title>
<ellipse fill="none" stroke="black" cx="1314" cy="-524" rx="76.89" ry="18"/>
<text text-anchor="middle" x="1314" y="-520.3" font-family="Times,serif" font-size="14.00">update_stake_pool</text>
</g>
<!-- stake::on_new_epoch&#45;&gt;stake::update_stake_pool -->
<g id="edge28" class="edge">
<title>stake::on_new_epoch&#45;&gt;stake::update_stake_pool</title>
<path fill="none" stroke="black" d="M1493.69,-581.92C1458.52,-570.78 1407.7,-554.68 1369.07,-542.44"/>
<polygon fill="black" stroke="black" points="1370.55,-539.24 1359.96,-539.56 1368.44,-545.92 1370.55,-539.24"/>
</g>
<!-- error::not_found -->
<g id="node28" class="node">
<title>error::not_found</title>
<ellipse fill="none" stroke="black" cx="1718" cy="-117" rx="46.59" ry="18"/>
<text text-anchor="middle" x="1718" y="-113.3" font-family="Times,serif" font-size="14.00">not_found</text>
</g>
<!-- storage_gas::on_reconfig&#45;&gt;error::not_found -->
<g id="edge29" class="edge">
<title>storage_gas::on_reconfig&#45;&gt;error::not_found</title>
<path fill="none" stroke="black" d="M515.86,-277.46C578.28,-272.02 687.35,-262.88 781,-257 800.09,-255.8 937.29,-259.91 953,-249 982.77,-228.33 955.54,-195.11 985,-174 1039.39,-135.02 1496.58,-122.32 1660.12,-119.01"/>
<polygon fill="black" stroke="black" points="1659.93,-122.51 1669.86,-118.81 1659.8,-115.51 1659.93,-122.51"/>
</g>
<!-- state_storage::current_items_and_bytes -->
<g id="node29" class="node">
<title>state_storage::current_items_and_bytes</title>
<ellipse fill="none" stroke="black" cx="1096" cy="-200" rx="99.38" ry="18"/>
<text text-anchor="middle" x="1096" y="-196.3" font-family="Times,serif" font-size="14.00">current_items_and_bytes</text>
</g>
<!-- storage_gas::on_reconfig&#45;&gt;state_storage::current_items_and_bytes -->
<g id="edge30" class="edge">
<title>storage_gas::on_reconfig&#45;&gt;state_storage::current_items_and_bytes</title>
<path fill="none" stroke="black" d="M515.86,-277.36C578.26,-271.8 687.33,-262.56 781,-257 825.85,-254.34 939.16,-258.83 983,-249 1008.09,-243.37 1034.62,-232.39 1055.67,-222.35"/>
<polygon fill="black" stroke="black" points="1057.03,-225.58 1064.47,-218.04 1053.95,-219.3 1057.03,-225.58"/>
</g>
<!-- storage_gas::calculate_create_gas -->
<g id="node30" class="node">
<title>storage_gas::calculate_create_gas</title>
<ellipse fill="none" stroke="black" cx="451" cy="-200" rx="83.39" ry="18"/>
<text text-anchor="middle" x="451" y="-196.3" font-family="Times,serif" font-size="14.00">calculate_create_gas</text>
</g>
<!-- storage_gas::on_reconfig&#45;&gt;storage_gas::calculate_create_gas -->
<g id="edge31" class="edge">
<title>storage_gas::on_reconfig&#45;&gt;storage_gas::calculate_create_gas</title>
<path fill="none" stroke="black" d="M462.03,-264.82C460.26,-254.58 457.97,-241.33 455.93,-229.55"/>
<polygon fill="black" stroke="black" points="459.42,-229.18 454.27,-219.92 452.53,-230.37 459.42,-229.18"/>
</g>
<!-- storage_gas::calculate_read_gas -->
<g id="node31" class="node">
<title>storage_gas::calculate_read_gas</title>
<ellipse fill="none" stroke="black" cx="93" cy="-200" rx="77.19" ry="18"/>
<text text-anchor="middle" x="93" y="-196.3" font-family="Times,serif" font-size="14.00">calculate_read_gas</text>
</g>
<!-- storage_gas::on_reconfig&#45;&gt;storage_gas::calculate_read_gas -->
<g id="edge32" class="edge">
<title>storage_gas::on_reconfig&#45;&gt;storage_gas::calculate_read_gas</title>
<path fill="none" stroke="black" d="M411.5,-282.04C353.03,-280.67 257.25,-274.24 179,-249 160.58,-243.06 141.63,-232.99 126.23,-223.6"/>
<polygon fill="black" stroke="black" points="128.27,-220.75 117.94,-218.38 124.54,-226.67 128.27,-220.75"/>
</g>
<!-- storage_gas::calculate_write_gas -->
<g id="node32" class="node">
<title>storage_gas::calculate_write_gas</title>
<ellipse fill="none" stroke="black" cx="269" cy="-200" rx="80.69" ry="18"/>
<text text-anchor="middle" x="269" y="-196.3" font-family="Times,serif" font-size="14.00">calculate_write_gas</text>
</g>
<!-- storage_gas::on_reconfig&#45;&gt;storage_gas::calculate_write_gas -->
<g id="edge33" class="edge">
<title>storage_gas::on_reconfig&#45;&gt;storage_gas::calculate_write_gas</title>
<path fill="none" stroke="black" d="M424.1,-271.22C404.14,-265.47 379.98,-257.77 359,-249 341.17,-241.55 322.2,-231.73 306.28,-222.92"/>
<polygon fill="black" stroke="black" points="308.07,-219.9 297.63,-218.05 304.63,-226 308.07,-219.9"/>
</g>
<!-- timestamp::now_seconds&#45;&gt;timestamp::now_microseconds -->
<g id="edge34" class="edge">
<title>timestamp::now_seconds&#45;&gt;timestamp::now_microseconds</title>
<path fill="none" stroke="black" d="M2348.45,-430.82C2351.11,-420.58 2354.55,-407.33 2357.6,-395.55"/>
<polygon fill="black" stroke="black" points="2360.98,-396.46 2360.1,-385.9 2354.2,-394.7 2360.98,-396.46"/>
</g>
<!-- stake::append&#45;&gt;vector::is_empty -->
<g id="edge35" class="edge">
<title>stake::append&#45;&gt;vector::is_empty</title>
<path fill="none" stroke="black" d="M1146.47,-522.64C1077.3,-521.51 929.9,-516.9 883,-498 810.32,-468.71 765,-445.36 765,-367 765,-367 765,-367 765,-199 765,-151.54 765,-96.34 765,-63.62"/>
<polygon fill="black" stroke="black" points="768.5,-63.75 765,-53.75 761.5,-63.75 768.5,-63.75"/>
</g>
<!-- stake::get_next_epoch_voting_power -->
<g id="node33" class="node">
<title>stake::get_next_epoch_voting_power</title>
<ellipse fill="none" stroke="black" cx="1458" cy="-449" rx="119.68" ry="18"/>
<text text-anchor="middle" x="1458" y="-445.3" font-family="Times,serif" font-size="14.00">get_next_epoch_voting_power</text>
</g>
<!-- stake::generate_validator_info&#45;&gt;stake::get_next_epoch_voting_power -->
<g id="edge36" class="edge">
<title>stake::generate_validator_info&#45;&gt;stake::get_next_epoch_voting_power</title>
<path fill="none" stroke="black" d="M1493.1,-505.7C1487.66,-497.06 1480.95,-486.42 1474.86,-476.76"/>
<polygon fill="black" stroke="black" points="1477.92,-475.05 1469.63,-468.46 1472,-478.78 1477.92,-475.05"/>
</g>
<!-- stake::update_stake_pool&#45;&gt;event::emit_event -->
<g id="edge37" class="edge">
<title>stake::update_stake_pool&#45;&gt;event::emit_event</title>
<path fill="none" stroke="black" d="M1260.08,-510.88C1249.5,-508.92 1238.44,-507.15 1228,-506 1083.94,-490.11 1046.21,-512.46 902,-498 825.44,-490.32 737.95,-473.31 683.59,-461.74"/>
<polygon fill="black" stroke="black" points="684.5,-458.36 673.99,-459.68 683.03,-465.2 684.5,-458.36"/>
</g>
<!-- stake::update_stake_pool&#45;&gt;timestamp::now_seconds -->
<g id="edge40" class="edge">
<title>stake::update_stake_pool&#45;&gt;timestamp::now_seconds</title>
<path fill="none" stroke="black" d="M1367.9,-510.75C1378.49,-508.8 1389.55,-507.07 1400,-506 1448.3,-501.05 2227.69,-512.59 2274,-498 2289.79,-493.03 2305.21,-483.17 2317.53,-473.68"/>
<polygon fill="black" stroke="black" points="2319.56,-476.54 2325.13,-467.53 2315.16,-471.1 2319.56,-476.54"/>
</g>
<!-- coin::extract_all -->
<g id="node34" class="node">
<title>coin::extract_all</title>
<ellipse fill="none" stroke="black" cx="841" cy="-366" rx="48.19" ry="18"/>
<text text-anchor="middle" x="841" y="-362.3" font-family="Times,serif" font-size="14.00">extract_all</text>
</g>
<!-- stake::update_stake_pool&#45;&gt;coin::extract_all -->
<g id="edge38" class="edge">
<title>stake::update_stake_pool&#45;&gt;coin::extract_all</title>
<path fill="none" stroke="black" d="M1259.62,-510.87C1249.17,-508.93 1238.28,-507.18 1228,-506 1201.49,-502.96 1012.77,-507.91 988,-498 933.12,-476.04 885.3,-423.97 860.05,-392.49"/>
<polygon fill="black" stroke="black" points="863.11,-390.72 854.18,-385.01 857.6,-395.04 863.11,-390.72"/>
</g>
<!-- coin::merge -->
<g id="node35" class="node">
<title>coin::merge</title>
<ellipse fill="none" stroke="black" cx="940" cy="-366" rx="33.29" ry="18"/>
<text text-anchor="middle" x="940" y="-362.3" font-family="Times,serif" font-size="14.00">merge</text>
</g>
<!-- stake::update_stake_pool&#45;&gt;coin::merge -->
<g id="edge39" class="edge">
<title>stake::update_stake_pool&#45;&gt;coin::merge</title>
<path fill="none" stroke="black" d="M1258.63,-511.15C1248.48,-509.24 1237.94,-507.42 1228,-506 1188.25,-500.32 1176.49,-509.44 1138,-498 1062.72,-475.63 1043.54,-463.8 982,-415 973.55,-408.3 965.46,-399.76 958.67,-391.74"/>
<polygon fill="black" stroke="black" points="961.58,-389.77 952.56,-384.21 956.14,-394.18 961.58,-389.77"/>
</g>
<!-- staking_config::get_reward_rate -->
<g id="node36" class="node">
<title>staking_config::get_reward_rate</title>
<ellipse fill="none" stroke="black" cx="1691" cy="-449" rx="67.69" ry="18"/>
<text text-anchor="middle" x="1691" y="-445.3" font-family="Times,serif" font-size="14.00">get_reward_rate</text>
</g>
<!-- stake::update_stake_pool&#45;&gt;staking_config::get_reward_rate -->
<g id="edge41" class="edge">
<title>stake::update_stake_pool&#45;&gt;staking_config::get_reward_rate</title>
<path fill="none" stroke="black" d="M1368.39,-510.91C1378.83,-508.97 1389.72,-507.2 1400,-506 1446.6,-500.54 1566.03,-511.38 1611,-498 1628.79,-492.71 1646.67,-482.54 1661.01,-472.92"/>
<polygon fill="black" stroke="black" points="1662.89,-475.88 1669.08,-467.28 1658.88,-470.14 1662.89,-475.88"/>
</g>
<!-- stake::distribute_rewards -->
<g id="node37" class="node">
<title>stake::distribute_rewards</title>
<ellipse fill="none" stroke="black" cx="1223" cy="-449" rx="76.09" ry="18"/>
<text text-anchor="middle" x="1223" y="-445.3" font-family="Times,serif" font-size="14.00">distribute_rewards</text>
</g>
<!-- stake::update_stake_pool&#45;&gt;stake::distribute_rewards -->
<g id="edge42" class="edge">
<title>stake::update_stake_pool&#45;&gt;stake::distribute_rewards</title>
<path fill="none" stroke="black" d="M1293.35,-506.44C1281.34,-496.8 1265.99,-484.48 1252.69,-473.82"/>
<polygon fill="black" stroke="black" points="1255.05,-471.23 1245.06,-467.7 1250.67,-476.69 1255.05,-471.23"/>
</g>
<!-- error::not_found&#45;&gt;error::canonical -->
<g id="edge43" class="edge">
<title>error::not_found&#45;&gt;error::canonical</title>
<path fill="none" stroke="black" d="M1746.45,-102.34C1755.18,-98.41 1764.89,-94.3 1774,-91 1824.44,-72.75 1883.81,-56.73 1924.49,-46.55"/>
<polygon fill="black" stroke="black" points="1925.11,-50 1933.98,-44.2 1923.43,-43.2 1925.11,-50"/>
</g>
<!-- state_storage::current_items_and_bytes&#45;&gt;error::not_found -->
<g id="edge44" class="edge">
<title>state_storage::current_items_and_bytes&#45;&gt;error::not_found</title>
<path fill="none" stroke="black" d="M1153.08,-184.85C1170.33,-180.93 1189.37,-176.94 1207,-174 1370.73,-146.68 1566.28,-129.5 1660.99,-122.14"/>
<polygon fill="black" stroke="black" points="1661.09,-125.65 1670.8,-121.39 1660.56,-118.67 1661.09,-125.65"/>
</g>
<!-- storage_gas::calculate_gas -->
<g id="node38" class="node">
<title>storage_gas::calculate_gas</title>
<ellipse fill="none" stroke="black" cx="269" cy="-117" rx="57.69" ry="18"/>
<text text-anchor="middle" x="269" y="-113.3" font-family="Times,serif" font-size="14.00">calculate_gas</text>
</g>
<!-- storage_gas::calculate_create_gas&#45;&gt;storage_gas::calculate_gas -->
<g id="edge45" class="edge">
<title>storage_gas::calculate_create_gas&#45;&gt;storage_gas::calculate_gas</title>
<path fill="none" stroke="black" d="M415.91,-183.38C386.12,-170.12 343.28,-151.06 311.54,-136.93"/>
<polygon fill="black" stroke="black" points="313.18,-133.83 302.62,-132.96 310.33,-140.23 313.18,-133.83"/>
</g>
<!-- storage_gas::calculate_read_gas&#45;&gt;storage_gas::calculate_gas -->
<g id="edge46" class="edge">
<title>storage_gas::calculate_read_gas&#45;&gt;storage_gas::calculate_gas</title>
<path fill="none" stroke="black" d="M126.93,-183.38C155.53,-170.22 196.56,-151.34 227.18,-137.25"/>
<polygon fill="black" stroke="black" points="228.54,-140.47 236.16,-133.11 225.61,-134.12 228.54,-140.47"/>
</g>
<!-- storage_gas::calculate_write_gas&#45;&gt;storage_gas::calculate_gas -->
<g id="edge47" class="edge">
<title>storage_gas::calculate_write_gas&#45;&gt;storage_gas::calculate_gas</title>
<path fill="none" stroke="black" d="M269,-181.82C269,-171.69 269,-158.6 269,-146.92"/>
<polygon fill="black" stroke="black" points="272.5,-146.95 269,-136.95 265.5,-146.95 272.5,-146.95"/>
</g>
<!-- coin::value -->
<g id="node39" class="node">
<title>coin::value</title>
<ellipse fill="none" stroke="black" cx="1093" cy="-366" rx="29.8" ry="18"/>
<text text-anchor="middle" x="1093" y="-362.3" font-family="Times,serif" font-size="14.00">value</text>
</g>
<!-- stake::get_next_epoch_voting_power&#45;&gt;coin::value -->
<g id="edge48" class="edge">
<title>stake::get_next_epoch_voting_power&#45;&gt;coin::value</title>
<path fill="none" stroke="black" d="M1386.14,-434.24C1361.45,-429.99 1333.6,-425.72 1308,-423 1288.86,-420.97 1152.33,-423.35 1135,-415 1124.74,-410.06 1115.95,-401.34 1109.1,-392.68"/>
<polygon fill="black" stroke="black" points="1112.04,-390.77 1103.34,-384.72 1106.36,-394.87 1112.04,-390.77"/>
</g>
<!-- stake::distribute_rewards&#45;&gt;coin::merge -->
<g id="edge50" class="edge">
<title>stake::distribute_rewards&#45;&gt;coin::merge</title>
<path fill="none" stroke="black" d="M1158.87,-438.97C1124.51,-434.17 1081.46,-428.19 1043,-423 1015.9,-419.34 1006.11,-427.9 982,-415 972.1,-409.71 963.46,-401.08 956.63,-392.59"/>
<polygon fill="black" stroke="black" points="959.63,-390.76 950.86,-384.81 954.01,-394.93 959.63,-390.76"/>
</g>
<!-- stake::distribute_rewards&#45;&gt;coin::value -->
<g id="edge49" class="edge">
<title>stake::distribute_rewards&#45;&gt;coin::value</title>
<path fill="none" stroke="black" d="M1174.76,-434.74C1161.22,-429.77 1146.94,-423.26 1135,-415 1126,-408.77 1117.69,-400.2 1110.88,-392.02"/>
<polygon fill="black" stroke="black" points="1113.74,-389.99 1104.81,-384.29 1108.23,-394.32 1113.74,-389.99"/>
</g>
<!-- coin::mint -->
<g id="node40" class="node">
<title>coin::mint</title>
<ellipse fill="none" stroke="black" cx="1018" cy="-366" rx="27.1" ry="18"/>
<text text-anchor="middle" x="1018" y="-362.3" font-family="Times,serif" font-size="14.00">mint</text>
</g>
<!-- stake::distribute_rewards&#45;&gt;coin::mint -->
<g id="edge51" class="edge">
<title>stake::distribute_rewards&#45;&gt;coin::mint</title>
<path fill="none" stroke="black" d="M1148.4,-445.14C1117.3,-441.1 1081.99,-432.55 1054,-415 1045.25,-409.51 1037.87,-401.07 1032.12,-392.79"/>
<polygon fill="black" stroke="black" points="1035.25,-391.18 1026.94,-384.6 1029.33,-394.93 1035.25,-391.18"/>
</g>
<!-- stake::calculate_rewards_amount -->
<g id="node41" class="node">
<title>stake::calculate_rewards_amount</title>
<ellipse fill="none" stroke="black" cx="1252" cy="-366" rx="105.08" ry="18"/>
<text text-anchor="middle" x="1252" y="-362.3" font-family="Times,serif" font-size="14.00">calculate_rewards_amount</text>
</g>
<!-- stake::distribute_rewards&#45;&gt;stake::calculate_rewards_amount -->
<g id="edge52" class="edge">
<title>stake::distribute_rewards&#45;&gt;stake::calculate_rewards_amount</title>
<path fill="none" stroke="black" d="M1229.15,-430.82C1232.85,-420.48 1237.66,-407.05 1241.91,-395.18"/>
<polygon fill="black" stroke="black" points="1245.17,-396.45 1245.25,-385.86 1238.58,-394.09 1245.17,-396.45"/>
</g>
<!-- storage_gas::interpolate -->
<g id="node42" class="node">
<title>storage_gas::interpolate</title>
<ellipse fill="none" stroke="black" cx="269" cy="-34" rx="48.19" ry="18"/>
<text text-anchor="middle" x="269" y="-30.3" font-family="Times,serif" font-size="14.00">interpolate</text>
</g>
<!-- storage_gas::calculate_gas&#45;&gt;storage_gas::interpolate -->
<g id="edge53" class="edge">
<title>storage_gas::calculate_gas&#45;&gt;storage_gas::interpolate</title>
<path fill="none" stroke="black" d="M269,-98.82C269,-88.69 269,-75.6 269,-63.92"/>
<polygon fill="black" stroke="black" points="272.5,-63.95 269,-53.95 265.5,-63.95 272.5,-63.95"/>
</g>
<!-- option::borrow_mut -->
<g id="node43" class="node">
<title>option::borrow_mut</title>
<ellipse fill="none" stroke="black" cx="886" cy="-200" rx="54.69" ry="18"/>
<text text-anchor="middle" x="886" y="-196.3" font-family="Times,serif" font-size="14.00">borrow_mut</text>
</g>
<!-- coin::mint&#45;&gt;option::borrow_mut -->
<g id="edge54" class="edge">
<title>coin::mint&#45;&gt;option::borrow_mut</title>
<path fill="none" stroke="black" d="M1001.71,-351.32C995.83,-347.05 988.93,-342.75 982,-340 959.44,-331.07 946.5,-347.7 928,-332 898.07,-306.6 889.26,-259.82 886.79,-229.58"/>
<polygon fill="black" stroke="black" points="890.28,-229.4 886.18,-219.63 883.3,-229.83 890.28,-229.4"/>
</g>
<!-- option::is_some -->
<g id="node44" class="node">
<title>option::is_some</title>
<ellipse fill="none" stroke="black" cx="878" cy="-117" rx="40.09" ry="18"/>
<text text-anchor="middle" x="878" y="-113.3" font-family="Times,serif" font-size="14.00">is_some</text>
</g>
<!-- coin::mint&#45;&gt;option::is_some -->
<g id="edge55" class="edge">
<title>coin::mint&#45;&gt;option::is_some</title>
<path fill="none" stroke="black" d="M1001.81,-351.07C995.94,-346.78 989.02,-342.52 982,-340 961.85,-332.76 904.8,-342.24 886,-332 845.09,-309.73 837.03,-293.09 822,-249 811.25,-217.45 809.24,-204.8 822,-174 827.47,-160.8 837.72,-149.09 847.98,-139.84"/>
<polygon fill="black" stroke="black" points="849.94,-142.76 855.33,-133.64 845.43,-137.41 849.94,-142.76"/>
</g>
<!-- optional_aggregator::add -->
<g id="node45" class="node">
<title>optional_aggregator::add</title>
<ellipse fill="none" stroke="black" cx="1614" cy="-283" rx="27" ry="18"/>
<text text-anchor="middle" x="1614" y="-279.3" font-family="Times,serif" font-size="14.00">add</text>
</g>
<!-- coin::mint&#45;&gt;optional_aggregator::add -->
<g id="edge56" class="edge">
<title>coin::mint&#45;&gt;optional_aggregator::add</title>
<path fill="none" stroke="black" d="M1034.22,-351.13C1040.09,-346.84 1047,-342.58 1054,-340 1087.95,-327.5 1099,-335.58 1135,-332 1299.11,-315.67 1494.83,-296 1575.92,-287.83"/>
<polygon fill="black" stroke="black" points="1576.15,-291.33 1585.75,-286.85 1575.45,-284.36 1576.15,-291.33"/>
</g>
<!-- coin::coin_address -->
<g id="node46" class="node">
<title>coin::coin_address</title>
<ellipse fill="none" stroke="black" cx="1066" cy="-283" rx="56.59" ry="18"/>
<text text-anchor="middle" x="1066" y="-279.3" font-family="Times,serif" font-size="14.00">coin_address</text>
</g>
<!-- coin::mint&#45;&gt;coin::coin_address -->
<g id="edge57" class="edge">
<title>coin::mint&#45;&gt;coin::coin_address</title>
<path fill="none" stroke="black" d="M1027.48,-349C1033.95,-338.08 1042.67,-323.37 1050.18,-310.7"/>
<polygon fill="black" stroke="black" points="1053.01,-312.78 1055.1,-302.39 1046.99,-309.21 1053.01,-312.78"/>
</g>
<!-- coin::zero -->
<g id="node47" class="node">
<title>coin::zero</title>
<ellipse fill="none" stroke="black" cx="964" cy="-283" rx="27" ry="18"/>
<text text-anchor="middle" x="964" y="-279.3" font-family="Times,serif" font-size="14.00">zero</text>
</g>
<!-- coin::mint&#45;&gt;coin::zero -->
<g id="edge58" class="edge">
<title>coin::mint&#45;&gt;coin::zero</title>
<path fill="none" stroke="black" d="M1007.33,-349C999.79,-337.68 989.52,-322.28 980.87,-309.31"/>
<polygon fill="black" stroke="black" points="983.95,-307.61 975.49,-301.23 978.12,-311.49 983.95,-307.61"/>
</g>
<!-- option::borrow_mut&#45;&gt;option::is_some -->
<g id="edge59" class="edge">
<title>option::borrow_mut&#45;&gt;option::is_some</title>
<path fill="none" stroke="black" d="M884.3,-181.82C883.29,-171.58 881.98,-158.33 880.82,-146.55"/>
<polygon fill="black" stroke="black" points="884.34,-146.55 879.87,-136.94 877.37,-147.23 884.34,-146.55"/>
</g>
<!-- option::is_some&#45;&gt;vector::is_empty -->
<g id="edge60" class="edge">
<title>option::is_some&#45;&gt;vector::is_empty</title>
<path fill="none" stroke="black" d="M857.27,-101.14C839.86,-88.66 814.75,-70.66 795.12,-56.59"/>
<polygon fill="black" stroke="black" points="797.37,-53.9 787.21,-50.92 793.3,-59.59 797.37,-53.9"/>
</g>
<!-- optional_aggregator::add&#45;&gt;option::borrow_mut -->
<g id="edge61" class="edge">
<title>optional_aggregator::add&#45;&gt;option::borrow_mut</title>
<path fill="none" stroke="black" d="M1587.02,-280.59C1466.81,-274.33 985.93,-249.24 985,-249 962.47,-243.2 938.98,-232.06 920.53,-221.97"/>
<polygon fill="black" stroke="black" points="922.32,-218.96 911.89,-217.1 918.88,-225.06 922.32,-218.96"/>
</g>
<!-- optional_aggregator::add&#45;&gt;option::is_some -->
<g id="edge62" class="edge">
<title>optional_aggregator::add&#45;&gt;option::is_some</title>
<path fill="none" stroke="black" d="M1586.68,-281.34C1559.77,-279.28 1519,-272.19 1493,-249 1466.21,-225.1 1491.73,-195.52 1463,-174 1420.7,-142.32 1063.61,-125.23 929.04,-119.87"/>
<polygon fill="black" stroke="black" points="929.49,-116.39 919.36,-119.49 929.22,-123.38 929.49,-116.39"/>
</g>
<!-- aggregator::add -->
<g id="node48" class="node">
<title>aggregator::add</title>
<ellipse fill="none" stroke="black" cx="1536" cy="-200" rx="27" ry="18"/>
<text text-anchor="middle" x="1536" y="-196.3" font-family="Times,serif" font-size="14.00">add</text>
</g>
<!-- optional_aggregator::add&#45;&gt;aggregator::add -->
<g id="edge63" class="edge">
<title>optional_aggregator::add&#45;&gt;aggregator::add</title>
<path fill="none" stroke="black" d="M1597.08,-268.84C1589.99,-263.04 1581.83,-255.97 1575,-249 1567.95,-241.8 1560.82,-233.43 1554.63,-225.72"/>
<polygon fill="black" stroke="black" points="1557.46,-223.65 1548.54,-217.94 1551.95,-227.97 1557.46,-223.65"/>
</g>
<!-- optional_aggregator::add_integer -->
<g id="node49" class="node">
<title>optional_aggregator::add_integer</title>
<ellipse fill="none" stroke="black" cx="1642" cy="-200" rx="51.99" ry="18"/>
<text text-anchor="middle" x="1642" y="-196.3" font-family="Times,serif" font-size="14.00">add_integer</text>
</g>
<!-- optional_aggregator::add&#45;&gt;optional_aggregator::add_integer -->
<g id="edge64" class="edge">
<title>optional_aggregator::add&#45;&gt;optional_aggregator::add_integer</title>
<path fill="none" stroke="black" d="M1619.8,-265.22C1623.39,-254.82 1628.1,-241.21 1632.25,-229.19"/>
<polygon fill="black" stroke="black" points="1635.56,-230.35 1635.52,-219.75 1628.94,-228.06 1635.56,-230.35"/>
</g>
<!-- type_info::account_address -->
<g id="node50" class="node">
<title>type_info::account_address</title>
<ellipse fill="none" stroke="black" cx="1288" cy="-200" rx="68.79" ry="18"/>
<text text-anchor="middle" x="1288" y="-196.3" font-family="Times,serif" font-size="14.00">account_address</text>
</g>
<!-- coin::coin_address&#45;&gt;type_info::account_address -->
<g id="edge65" class="edge">
<title>coin::coin_address&#45;&gt;type_info::account_address</title>
<path fill="none" stroke="black" d="M1116.07,-274.13C1143.54,-268.87 1177.84,-260.73 1207,-249 1223.76,-242.26 1241.14,-232.39 1255.49,-223.36"/>
<polygon fill="black" stroke="black" points="1257.12,-226.47 1263.62,-218.11 1253.32,-220.59 1257.12,-226.47"/>
</g>
<!-- type_info::type_of -->
<g id="node51" class="node">
<title>type_info::type_of</title>
<ellipse fill="none" stroke="black" cx="1413" cy="-200" rx="37.89" ry="18"/>
<text text-anchor="middle" x="1413" y="-196.3" font-family="Times,serif" font-size="14.00">type_of</text>
</g>
<!-- coin::coin_address&#45;&gt;type_info::type_of -->
<g id="edge66" class="edge">
<title>coin::coin_address&#45;&gt;type_info::type_of</title>
<path fill="none" stroke="black" d="M1122.16,-280.31C1196.85,-277.29 1324.3,-269.28 1366,-249 1376.9,-243.7 1386.69,-234.79 1394.48,-226.08"/>
<polygon fill="black" stroke="black" points="1397.17,-228.33 1400.87,-218.4 1391.79,-223.85 1397.17,-228.33"/>
</g>
<!-- error::out_of_range -->
<g id="node52" class="node">
<title>error::out_of_range</title>
<ellipse fill="none" stroke="black" cx="1841" cy="-117" rx="57.69" ry="18"/>
<text text-anchor="middle" x="1841" y="-113.3" font-family="Times,serif" font-size="14.00">out_of_range</text>
</g>
<!-- optional_aggregator::add_integer&#45;&gt;error::out_of_range -->
<g id="edge67" class="edge">
<title>optional_aggregator::add_integer&#45;&gt;error::out_of_range</title>
<path fill="none" stroke="black" d="M1688.65,-191.78C1714.59,-186.69 1746.99,-178.5 1774,-166 1787.94,-159.55 1801.96,-150.08 1813.55,-141.24"/>
<polygon fill="black" stroke="black" points="1815.4,-144.24 1821.09,-135.3 1811.07,-138.74 1815.4,-144.24"/>
</g>
<!-- error::out_of_range&#45;&gt;error::canonical -->
<g id="edge68" class="edge">
<title>error::out_of_range&#45;&gt;error::canonical</title>
<path fill="none" stroke="black" d="M1866.45,-100.38C1887.33,-87.57 1917.06,-69.33 1939.81,-55.37"/>
<polygon fill="black" stroke="black" points="1941.42,-58.49 1948.11,-50.27 1937.76,-52.52 1941.42,-58.49"/>
</g>
</g>
</svg>
