<?xml version="1.0" encoding="UTF-8" standalone="no"?>
<!DOCTYPE svg PUBLIC "-//W3C//DTD SVG 1.1//EN"
 "http://www.w3.org/Graphics/SVG/1.1/DTD/svg11.dtd">
<!-- Generated by graphviz version 7.0.0 (20221023.0053)
 -->
<!-- Title: G Pages: 1 -->
<svg width="2130pt" height="625pt"
 viewBox="0.00 0.00 2129.85 625.00" xmlns="http://www.w3.org/2000/svg" xmlns:xlink="http://www.w3.org/1999/xlink">
<g id="graph0" class="graph" transform="scale(1 1) rotate(0) translate(4 621)">
<title>G</title>
<polygon fill="white" stroke="none" points="-4,4 -4,-621 2125.85,-621 2125.85,4 -4,4"/>
<g id="clust11" class="cluster">
<title>cluster_optional_aggregator</title>
<polygon fill="none" stroke="black" points="1599.85,-257 1599.85,-415 1724.85,-415 1724.85,-257 1599.85,-257"/>
<text text-anchor="middle" x="1662.35" y="-399.8" font-family="Times,serif" font-size="14.00">optional_aggregator</text>
</g>
<g id="clust1" class="cluster">
<title>cluster_account</title>
<polygon fill="none" stroke="black" points="107.85,-174 107.85,-415 654.85,-415 654.85,-174 107.85,-174"/>
<text text-anchor="middle" x="381.35" y="-399.8" font-family="Times,serif" font-size="14.00">account</text>
</g>
<g id="clust2" class="cluster">
<title>cluster_coin</title>
<polygon fill="none" stroke="black" points="1113.85,-340 1113.85,-490 1591.85,-490 1591.85,-340 1113.85,-340"/>
<text text-anchor="middle" x="1352.85" y="-474.8" font-family="Times,serif" font-size="14.00">coin</text>
</g>
<g id="clust3" class="cluster">
<title>cluster_aptos_coin</title>
<polygon fill="none" stroke="black" points="1348.85,-498 1348.85,-573 1423.85,-573 1423.85,-498 1348.85,-498"/>
<text text-anchor="middle" x="1386.35" y="-557.8" font-family="Times,serif" font-size="14.00">aptos_coin</text>
</g>
<g id="clust4" class="cluster">
<title>cluster_error</title>
<polygon fill="none" stroke="black" points="958.85,-91 958.85,-249 1679.85,-249 1679.85,-91 958.85,-91"/>
<text text-anchor="middle" x="1319.35" y="-233.8" font-family="Times,serif" font-size="14.00">error</text>
</g>
<g id="clust5" class="cluster">
<title>cluster_signer</title>
<polygon fill="none" stroke="black" points="1963.85,-91 1963.85,-249 2113.85,-249 2113.85,-91 1963.85,-91"/>
<text text-anchor="middle" x="2038.85" y="-233.8" font-family="Times,serif" font-size="14.00">signer</text>
</g>
<g id="clust6" class="cluster">
<title>cluster_option</title>
<polygon fill="none" stroke="black" points="1687.85,-91 1687.85,-249 1887.85,-249 1887.85,-91 1687.85,-91"/>
<text text-anchor="middle" x="1787.85" y="-233.8" font-family="Times,serif" font-size="14.00">option</text>
</g>
<g id="clust7" class="cluster">
<title>cluster_bcs</title>
<polygon fill="none" stroke="black" points="120.85,-91 120.85,-166 216.85,-166 216.85,-91 120.85,-91"/>
<text text-anchor="middle" x="168.85" y="-150.8" font-family="Times,serif" font-size="14.00">bcs</text>
</g>
<g id="clust8" class="cluster">
<title>cluster_guid</title>
<polygon fill="none" stroke="black" points="19.85,-174 19.85,-249 99.85,-249 99.85,-174 19.85,-174"/>
<text text-anchor="middle" x="59.85" y="-233.8" font-family="Times,serif" font-size="14.00">guid</text>
</g>
<g id="clust9" class="cluster">
<title>cluster_event</title>
<polygon fill="none" stroke="black" points="662.85,-91 662.85,-249 950.85,-249 950.85,-91 662.85,-91"/>
<text text-anchor="middle" x="806.85" y="-233.8" font-family="Times,serif" font-size="14.00">event</text>
</g>
<g id="clust10" class="cluster">
<title>cluster_type_info</title>
<polygon fill="none" stroke="black" points="1343.85,-257 1343.85,-332 1591.85,-332 1591.85,-257 1343.85,-257"/>
<text text-anchor="middle" x="1467.85" y="-316.8" font-family="Times,serif" font-size="14.00">type_info</text>
</g>
<g id="clust12" class="cluster">
<title>cluster_vector</title>
<polygon fill="none" stroke="black" points="1787.85,-8 1787.85,-83 1891.85,-83 1891.85,-8 1787.85,-8"/>
<text text-anchor="middle" x="1839.85" y="-67.8" font-family="Times,serif" font-size="14.00">vector</text>
</g>
<g id="clust13" class="cluster">
<title>cluster_aggregator</title>
<polygon fill="none" stroke="black" points="1732.85,-257 1732.85,-332 1806.85,-332 1806.85,-257 1732.85,-257"/>
<text text-anchor="middle" x="1769.85" y="-316.8" font-family="Times,serif" font-size="14.00">aggregator</text>
</g>
<!-- create_account -->
<g id="node1" class="node">
<title>create_account</title>
<ellipse fill="none" stroke="black" cx="1158.85" cy="-599" rx="63.89" ry="18"/>
<text text-anchor="middle" x="1158.85" y="-595.3" font-family="Times,serif" font-size="14.00">create_account</text>
</g>
<!-- account::create_account -->
<g id="node2" class="node">
<title>account::create_account</title>
<ellipse fill="none" stroke="black" cx="451.85" cy="-366" rx="63.89" ry="18"/>
<text text-anchor="middle" x="451.85" y="-362.3" font-family="Times,serif" font-size="14.00">create_account</text>
</g>
<!-- create_account&#45;&gt;account::create_account -->
<g id="edge1" class="edge">
<title>create_account&#45;&gt;account::create_account</title>
<path fill="none" stroke="black" d="M1106.31,-588.55C995.07,-567.35 729.15,-510.22 523.85,-415 509.19,-408.2 494.14,-398.64 481.61,-389.84"/>
<polygon fill="black" stroke="black" points="483.95,-387.21 473.8,-384.2 479.86,-392.89 483.95,-387.21"/>
</g>
<!-- account::exists_at -->
<g id="node3" class="node">
<title>account::exists_at</title>
<ellipse fill="none" stroke="black" cx="157.85" cy="-366" rx="41.69" ry="18"/>
<text text-anchor="middle" x="157.85" y="-362.3" font-family="Times,serif" font-size="14.00">exists_at</text>
</g>
<!-- create_account&#45;&gt;account::exists_at -->
<g id="edge2" class="edge">
<title>create_account&#45;&gt;account::exists_at</title>
<path fill="none" stroke="black" d="M1094.58,-598.47C1013.59,-598.06 870.4,-593.98 749.85,-573 502.65,-529.97 425.06,-540.62 207.85,-415 197.23,-408.86 187.13,-399.99 178.83,-391.54"/>
<polygon fill="black" stroke="black" points="181.59,-389.37 172.21,-384.46 176.48,-394.15 181.59,-389.37"/>
</g>
<!-- coin::register -->
<g id="node4" class="node">
<title>coin::register</title>
<ellipse fill="none" stroke="black" cx="1158.85" cy="-441" rx="37.09" ry="18"/>
<text text-anchor="middle" x="1158.85" y="-437.3" font-family="Times,serif" font-size="14.00">register</text>
</g>
<!-- create_account&#45;&gt;coin::register -->
<g id="edge3" class="edge">
<title>create_account&#45;&gt;coin::register</title>
<path fill="none" stroke="black" d="M1158.85,-580.71C1158.85,-554.12 1158.85,-502.9 1158.85,-470.69"/>
<polygon fill="black" stroke="black" points="1162.35,-470.88 1158.85,-460.88 1155.35,-470.88 1162.35,-470.88"/>
</g>
<!-- aptos_coin::mint -->
<g id="node5" class="node">
<title>aptos_coin::mint</title>
<ellipse fill="none" stroke="black" cx="1387.85" cy="-524" rx="27.1" ry="18"/>
<text text-anchor="middle" x="1387.85" y="-520.3" font-family="Times,serif" font-size="14.00">mint</text>
</g>
<!-- create_account&#45;&gt;aptos_coin::mint -->
<g id="edge4" class="edge">
<title>create_account&#45;&gt;aptos_coin::mint</title>
<path fill="none" stroke="black" d="M1200.06,-584.86C1243.72,-570.94 1311.93,-549.2 1353.01,-536.11"/>
<polygon fill="black" stroke="black" points="1353.93,-539.49 1362.4,-533.11 1351.8,-532.82 1353.93,-539.49"/>
</g>
<!-- create_signer -->
<g id="node6" class="node">
<title>create_signer</title>
<ellipse fill="none" stroke="black" cx="1490.85" cy="-524" rx="57.69" ry="18"/>
<text text-anchor="middle" x="1490.85" y="-520.3" font-family="Times,serif" font-size="14.00">create_signer</text>
</g>
<!-- create_account&#45;&gt;create_signer -->
<g id="edge5" class="edge">
<title>create_account&#45;&gt;create_signer</title>
<path fill="none" stroke="black" d="M1222.38,-596.12C1289.86,-593.42 1391.69,-587.1 1427.85,-573 1441.76,-567.57 1455.21,-558.11 1466.08,-549.02"/>
<polygon fill="black" stroke="black" points="1468.22,-551.79 1473.42,-542.56 1463.6,-546.54 1468.22,-551.79"/>
</g>
<!-- error::already_exists -->
<g id="node7" class="node">
<title>error::already_exists</title>
<ellipse fill="none" stroke="black" cx="1192.85" cy="-200" rx="61.19" ry="18"/>
<text text-anchor="middle" x="1192.85" y="-196.3" font-family="Times,serif" font-size="14.00">already_exists</text>
</g>
<!-- account::create_account&#45;&gt;error::already_exists -->
<g id="edge6" class="edge">
<title>account::create_account&#45;&gt;error::already_exists</title>
<path fill="none" stroke="black" d="M486.42,-350.58C498.1,-346.37 511.35,-342.28 523.85,-340 589.02,-328.11 757.72,-348.61 821.85,-332 891.7,-313.9 896.22,-275.95 965.85,-257 999.34,-247.88 1088.93,-260.01 1121.85,-249 1137.59,-243.73 1153.1,-233.94 1165.58,-224.57"/>
<polygon fill="black" stroke="black" points="1167.61,-227.43 1173.31,-218.5 1163.28,-221.93 1167.61,-227.43"/>
</g>
<!-- error::invalid_argument -->
<g id="node8" class="node">
<title>error::invalid_argument</title>
<ellipse fill="none" stroke="black" cx="1039.85" cy="-200" rx="73.39" ry="18"/>
<text text-anchor="middle" x="1039.85" y="-196.3" font-family="Times,serif" font-size="14.00">invalid_argument</text>
</g>
<!-- account::create_account&#45;&gt;error::invalid_argument -->
<g id="edge7" class="edge">
<title>account::create_account&#45;&gt;error::invalid_argument</title>
<path fill="none" stroke="black" d="M486.81,-350.58C498.41,-346.42 511.5,-342.37 523.85,-340 602.06,-325 624.71,-347.34 702.85,-332 800.1,-312.91 817.22,-283.02 912.85,-257 931.19,-252.01 937.01,-255.54 954.85,-249 972.73,-242.45 991.3,-232.4 1006.5,-223.19"/>
<polygon fill="black" stroke="black" points="1008.03,-226.35 1014.67,-218.1 1004.33,-220.41 1008.03,-226.35"/>
</g>
<!-- account::create_account_unchecked -->
<g id="node9" class="node">
<title>account::create_account_unchecked</title>
<ellipse fill="none" stroke="black" cx="419.85" cy="-283" rx="105.08" ry="18"/>
<text text-anchor="middle" x="419.85" y="-279.3" font-family="Times,serif" font-size="14.00">create_account_unchecked</text>
</g>
<!-- account::create_account&#45;&gt;account::create_account_unchecked -->
<g id="edge8" class="edge">
<title>account::create_account&#45;&gt;account::create_account_unchecked</title>
<path fill="none" stroke="black" d="M445.06,-347.82C440.93,-337.37 435.56,-323.77 430.84,-311.81"/>
<polygon fill="black" stroke="black" points="434.22,-310.85 427.29,-302.84 427.71,-313.43 434.22,-310.85"/>
</g>
<!-- coin::register&#45;&gt;error::already_exists -->
<g id="edge10" class="edge">
<title>coin::register&#45;&gt;error::already_exists</title>
<path fill="none" stroke="black" d="M1122.12,-437.12C1091.68,-433.87 1051.84,-427.35 1041.85,-415 997.69,-360.4 994.73,-309.07 1041.85,-257 1053.84,-243.75 1105.05,-255.08 1121.85,-249 1137.35,-243.39 1152.73,-233.65 1165.19,-224.41"/>
<polygon fill="black" stroke="black" points="1167.14,-227.32 1172.91,-218.43 1162.86,-221.78 1167.14,-227.32"/>
</g>
<!-- signer::address_of -->
<g id="node10" class="node">
<title>signer::address_of</title>
<ellipse fill="none" stroke="black" cx="2030.85" cy="-200" rx="48.99" ry="18"/>
<text text-anchor="middle" x="2030.85" y="-196.3" font-family="Times,serif" font-size="14.00">address_of</text>
</g>
<!-- coin::register&#45;&gt;signer::address_of -->
<g id="edge9" class="edge">
<title>coin::register&#45;&gt;signer::address_of</title>
<path fill="none" stroke="black" d="M1185.66,-428.37C1191.85,-426.17 1198.49,-424.19 1204.85,-423 1262.09,-412.31 1672.69,-430.4 1728.85,-415 1850.16,-381.74 1962.52,-274.23 2008.7,-225.46"/>
<polygon fill="black" stroke="black" points="2010.98,-228.14 2015.25,-218.44 2005.87,-223.36 2010.98,-228.14"/>
</g>
<!-- account::new_event_handle -->
<g id="node11" class="node">
<title>account::new_event_handle</title>
<ellipse fill="none" stroke="black" cx="293.85" cy="-366" rx="76.89" ry="18"/>
<text text-anchor="middle" x="293.85" y="-362.3" font-family="Times,serif" font-size="14.00">new_event_handle</text>
</g>
<!-- coin::register&#45;&gt;account::new_event_handle -->
<g id="edge11" class="edge">
<title>coin::register&#45;&gt;account::new_event_handle</title>
<path fill="none" stroke="black" d="M1121.67,-439.85C976.27,-439.12 450.69,-435.12 378.85,-415 360.11,-409.75 341.08,-399.55 325.79,-389.9"/>
<polygon fill="black" stroke="black" points="327.87,-387.08 317.58,-384.52 324.03,-392.93 327.87,-387.08"/>
</g>
<!-- account::register_coin -->
<g id="node12" class="node">
<title>account::register_coin</title>
<ellipse fill="none" stroke="black" cx="589.85" cy="-366" rx="56.59" ry="18"/>
<text text-anchor="middle" x="589.85" y="-362.3" font-family="Times,serif" font-size="14.00">register_coin</text>
</g>
<!-- coin::register&#45;&gt;account::register_coin -->
<g id="edge12" class="edge">
<title>coin::register&#45;&gt;account::register_coin</title>
<path fill="none" stroke="black" d="M1123.26,-435.43C1029.1,-423.35 772.51,-390.43 652.86,-375.08"/>
<polygon fill="black" stroke="black" points="653.58,-371.65 643.21,-373.85 652.69,-378.59 653.58,-371.65"/>
</g>
<!-- coin::is_account_registered -->
<g id="node13" class="node">
<title>coin::is_account_registered</title>
<ellipse fill="none" stroke="black" cx="1208.85" cy="-366" rx="87.18" ry="18"/>
<text text-anchor="middle" x="1208.85" y="-362.3" font-family="Times,serif" font-size="14.00">is_account_registered</text>
</g>
<!-- coin::register&#45;&gt;coin::is_account_registered -->
<g id="edge13" class="edge">
<title>coin::register&#45;&gt;coin::is_account_registered</title>
<path fill="none" stroke="black" d="M1170.2,-423.44C1176.2,-414.66 1183.73,-403.68 1190.54,-393.74"/>
<polygon fill="black" stroke="black" points="1193.41,-395.74 1196.17,-385.51 1187.63,-391.78 1193.41,-395.74"/>
</g>
<!-- aptos_coin::mint&#45;&gt;signer::address_of -->
<g id="edge14" class="edge">
<title>aptos_coin::mint&#45;&gt;signer::address_of</title>
<path fill="none" stroke="black" d="M1403.61,-509.12C1409.55,-504.72 1416.62,-500.38 1423.85,-498 1479.38,-479.68 1631.25,-508.08 1686.85,-490 1837.53,-441 1965.67,-287.8 2012.18,-226.62"/>
<polygon fill="black" stroke="black" points="2014.82,-228.93 2018.02,-218.83 2009.22,-224.72 2014.82,-228.93"/>
</g>
<!-- error::not_found -->
<g id="node14" class="node">
<title>error::not_found</title>
<ellipse fill="none" stroke="black" cx="1624.85" cy="-200" rx="46.59" ry="18"/>
<text text-anchor="middle" x="1624.85" y="-196.3" font-family="Times,serif" font-size="14.00">not_found</text>
</g>
<!-- aptos_coin::mint&#45;&gt;error::not_found -->
<g id="edge15" class="edge">
<title>aptos_coin::mint&#45;&gt;error::not_found</title>
<path fill="none" stroke="black" d="M1403.63,-509.18C1409.57,-504.79 1416.64,-500.44 1423.85,-498 1460.09,-485.72 1559.08,-500.57 1595.85,-490 1709.82,-457.23 1765.8,-441.69 1810.85,-332 1823.51,-301.17 1833.67,-281.3 1810.85,-257 1801.17,-246.69 1697.02,-254.15 1683.85,-249 1670.53,-243.79 1657.93,-234.4 1647.81,-225.3"/>
<polygon fill="black" stroke="black" points="1650.36,-222.89 1640.71,-218.53 1645.53,-227.96 1650.36,-222.89"/>
</g>
<!-- coin::deposit -->
<g id="node15" class="node">
<title>coin::deposit</title>
<ellipse fill="none" stroke="black" cx="1249.85" cy="-441" rx="36.29" ry="18"/>
<text text-anchor="middle" x="1249.85" y="-437.3" font-family="Times,serif" font-size="14.00">deposit</text>
</g>
<!-- aptos_coin::mint&#45;&gt;coin::deposit -->
<g id="edge16" class="edge">
<title>aptos_coin::mint&#45;&gt;coin::deposit</title>
<path fill="none" stroke="black" d="M1368.08,-511.39C1345.61,-498.21 1308.61,-476.49 1281.98,-460.86"/>
<polygon fill="black" stroke="black" points="1284.04,-458.01 1273.64,-455.96 1280.49,-464.04 1284.04,-458.01"/>
</g>
<!-- coin::mint -->
<g id="node16" class="node">
<title>coin::mint</title>
<ellipse fill="none" stroke="black" cx="1541.85" cy="-441" rx="27.1" ry="18"/>
<text text-anchor="middle" x="1541.85" y="-437.3" font-family="Times,serif" font-size="14.00">mint</text>
</g>
<!-- aptos_coin::mint&#45;&gt;coin::mint -->
<g id="edge17" class="edge">
<title>aptos_coin::mint&#45;&gt;coin::mint</title>
<path fill="none" stroke="black" d="M1405.42,-509.94C1411.16,-505.91 1417.66,-501.59 1423.85,-498 1451.59,-481.93 1484.67,-466.54 1508.74,-455.97"/>
<polygon fill="black" stroke="black" points="1509.94,-459.26 1517.72,-452.07 1507.15,-452.84 1509.94,-459.26"/>
</g>
<!-- error::canonical -->
<g id="node17" class="node">
<title>error::canonical</title>
<ellipse fill="none" stroke="black" cx="1348.85" cy="-117" rx="44.39" ry="18"/>
<text text-anchor="middle" x="1348.85" y="-113.3" font-family="Times,serif" font-size="14.00">canonical</text>
</g>
<!-- error::already_exists&#45;&gt;error::canonical -->
<g id="edge18" class="edge">
<title>error::already_exists&#45;&gt;error::canonical</title>
<path fill="none" stroke="black" d="M1222.19,-183.76C1247.71,-170.52 1284.78,-151.27 1312.24,-137.01"/>
<polygon fill="black" stroke="black" points="1313.64,-140.23 1320.9,-132.51 1310.41,-134.02 1313.64,-140.23"/>
</g>
<!-- error::invalid_argument&#45;&gt;error::canonical -->
<g id="edge19" class="edge">
<title>error::invalid_argument&#45;&gt;error::canonical</title>
<path fill="none" stroke="black" d="M1084.1,-185.23C1096.59,-181.46 1110.22,-177.46 1122.85,-174 1183.58,-157.34 1254.1,-140.22 1300,-129.37"/>
<polygon fill="black" stroke="black" points="1300.71,-132.79 1309.64,-127.09 1299.1,-125.98 1300.71,-132.79"/>
</g>
<!-- account::create_account_unchecked&#45;&gt;error::invalid_argument -->
<g id="edge21" class="edge">
<title>account::create_account_unchecked&#45;&gt;error::invalid_argument</title>
<path fill="none" stroke="black" d="M476.01,-267.38C494.32,-263.24 514.83,-259.24 533.85,-257 580.31,-251.52 909.72,-261.32 954.85,-249 973.76,-243.84 992.93,-233.54 1008.27,-223.8"/>
<polygon fill="black" stroke="black" points="1010.08,-226.81 1016.49,-218.38 1006.22,-220.97 1010.08,-226.81"/>
</g>
<!-- option::none -->
<g id="node18" class="node">
<title>option::none</title>
<ellipse fill="none" stroke="black" cx="1723.85" cy="-200" rx="27.9" ry="18"/>
<text text-anchor="middle" x="1723.85" y="-196.3" font-family="Times,serif" font-size="14.00">none</text>
</g>
<!-- account::create_account_unchecked&#45;&gt;option::none -->
<g id="edge20" class="edge">
<title>account::create_account_unchecked&#45;&gt;option::none</title>
<path fill="none" stroke="black" d="M475.71,-267.31C494.09,-263.13 514.72,-259.14 533.85,-257 565.6,-253.45 1654.97,-262.65 1683.85,-249 1694.08,-244.17 1702.61,-235.31 1709.13,-226.5"/>
<polygon fill="black" stroke="black" points="1711.89,-228.67 1714.56,-218.42 1706.08,-224.77 1711.89,-228.67"/>
</g>
<!-- bcs::to_bytes -->
<g id="node19" class="node">
<title>bcs::to_bytes</title>
<ellipse fill="none" stroke="black" cx="168.85" cy="-117" rx="40.09" ry="18"/>
<text text-anchor="middle" x="168.85" y="-113.3" font-family="Times,serif" font-size="14.00">to_bytes</text>
</g>
<!-- account::create_account_unchecked&#45;&gt;bcs::to_bytes -->
<g id="edge22" class="edge">
<title>account::create_account_unchecked&#45;&gt;bcs::to_bytes</title>
<path fill="none" stroke="black" d="M315.29,-280.66C202.36,-278.1 35.81,-270.65 15.85,-249 -6.74,-224.49 -3.24,-201.32 15.85,-174 38.73,-141.26 82.93,-127.6 117.96,-121.93"/>
<polygon fill="black" stroke="black" points="118.07,-125.45 127.47,-120.57 117.08,-118.52 118.07,-125.45"/>
</g>
<!-- guid::create -->
<g id="node20" class="node">
<title>guid::create</title>
<ellipse fill="none" stroke="black" cx="59.85" cy="-200" rx="31.7" ry="18"/>
<text text-anchor="middle" x="59.85" y="-196.3" font-family="Times,serif" font-size="14.00">create</text>
</g>
<!-- account::create_account_unchecked&#45;&gt;guid::create -->
<g id="edge23" class="edge">
<title>account::create_account_unchecked&#45;&gt;guid::create</title>
<path fill="none" stroke="black" d="M316.86,-279.08C239.22,-275.43 140.12,-267.26 103.85,-249 93.36,-243.72 84.14,-234.82 76.88,-226.1"/>
<polygon fill="black" stroke="black" points="79.86,-224.23 70.98,-218.45 74.31,-228.51 79.86,-224.23"/>
</g>
<!-- event::new_event_handle -->
<g id="node21" class="node">
<title>event::new_event_handle</title>
<ellipse fill="none" stroke="black" cx="747.85" cy="-200" rx="76.89" ry="18"/>
<text text-anchor="middle" x="747.85" y="-196.3" font-family="Times,serif" font-size="14.00">new_event_handle</text>
</g>
<!-- account::create_account_unchecked&#45;&gt;event::new_event_handle -->
<g id="edge24" class="edge">
<title>account::create_account_unchecked&#45;&gt;event::new_event_handle</title>
<path fill="none" stroke="black" d="M477.54,-267.57C495.48,-263.56 515.39,-259.6 533.85,-257 588.98,-249.24 605.34,-264.35 658.85,-249 678.42,-243.39 698.51,-233.02 714.65,-223.34"/>
<polygon fill="black" stroke="black" points="716.2,-226.5 722.86,-218.26 712.51,-220.55 716.2,-226.5"/>
</g>
<!-- account::create_signer -->
<g id="node22" class="node">
<title>account::create_signer</title>
<ellipse fill="none" stroke="black" cx="419.85" cy="-200" rx="57.69" ry="18"/>
<text text-anchor="middle" x="419.85" y="-196.3" font-family="Times,serif" font-size="14.00">create_signer</text>
</g>
<!-- account::create_account_unchecked&#45;&gt;account::create_signer -->
<g id="edge25" class="edge">
<title>account::create_account_unchecked&#45;&gt;account::create_signer</title>
<path fill="none" stroke="black" d="M419.85,-264.82C419.85,-254.69 419.85,-241.6 419.85,-229.92"/>
<polygon fill="black" stroke="black" points="423.35,-229.95 419.85,-219.95 416.35,-229.95 423.35,-229.95"/>
</g>
<!-- signer::borrow_address -->
<g id="node23" class="node">
<title>signer::borrow_address</title>
<ellipse fill="none" stroke="black" cx="2038.85" cy="-117" rx="66.89" ry="18"/>
<text text-anchor="middle" x="2038.85" y="-113.3" font-family="Times,serif" font-size="14.00">borrow_address</text>
</g>
<!-- signer::address_of&#45;&gt;signer::borrow_address -->
<g id="edge26" class="edge">
<title>signer::address_of&#45;&gt;signer::borrow_address</title>
<path fill="none" stroke="black" d="M2032.55,-181.82C2033.56,-171.58 2034.87,-158.33 2036.03,-146.55"/>
<polygon fill="black" stroke="black" points="2039.48,-147.23 2036.98,-136.94 2032.51,-146.55 2039.48,-147.23"/>
</g>
<!-- account::new_event_handle&#45;&gt;event::new_event_handle -->
<g id="edge27" class="edge">
<title>account::new_event_handle&#45;&gt;event::new_event_handle</title>
<path fill="none" stroke="black" d="M335.3,-350.49C348.99,-346.33 364.42,-342.29 378.85,-340 409.26,-335.17 628.74,-346.59 655.85,-332 697.23,-309.73 724.08,-259.74 737.54,-228.36"/>
<polygon fill="black" stroke="black" points="740.61,-230.09 741.17,-219.51 734.14,-227.43 740.61,-230.09"/>
</g>
<!-- account::create_guid -->
<g id="node24" class="node">
<title>account::create_guid</title>
<ellipse fill="none" stroke="black" cx="594.85" cy="-283" rx="51.99" ry="18"/>
<text text-anchor="middle" x="594.85" y="-279.3" font-family="Times,serif" font-size="14.00">create_guid</text>
</g>
<!-- account::new_event_handle&#45;&gt;account::create_guid -->
<g id="edge28" class="edge">
<title>account::new_event_handle&#45;&gt;account::create_guid</title>
<path fill="none" stroke="black" d="M335.76,-350.56C349.35,-346.45 364.6,-342.43 378.85,-340 412.85,-334.21 501.56,-344.12 533.85,-332 547.65,-326.82 560.79,-317.3 571.32,-308.1"/>
<polygon fill="black" stroke="black" points="573.42,-310.93 578.39,-301.58 568.67,-305.79 573.42,-310.93"/>
</g>
<!-- type_info::type_of -->
<g id="node25" class="node">
<title>type_info::type_of</title>
<ellipse fill="none" stroke="black" cx="1389.85" cy="-283" rx="37.89" ry="18"/>
<text text-anchor="middle" x="1389.85" y="-279.3" font-family="Times,serif" font-size="14.00">type_of</text>
</g>
<!-- account::register_coin&#45;&gt;type_info::type_of -->
<g id="edge29" class="edge">
<title>account::register_coin&#45;&gt;type_info::type_of</title>
<path fill="none" stroke="black" d="M643.69,-360.15C712.59,-353.9 835.65,-342.57 940.85,-332 1087.09,-317.31 1259.95,-298.39 1342,-289.32"/>
<polygon fill="black" stroke="black" points="1342.14,-292.82 1351.7,-288.24 1341.37,-285.87 1342.14,-292.82"/>
</g>
<!-- event::emit_event -->
<g id="node26" class="node">
<title>event::emit_event</title>
<ellipse fill="none" stroke="black" cx="892.85" cy="-200" rx="50.09" ry="18"/>
<text text-anchor="middle" x="892.85" y="-196.3" font-family="Times,serif" font-size="14.00">emit_event</text>
</g>
<!-- account::register_coin&#45;&gt;event::emit_event -->
<g id="edge30" class="edge">
<title>account::register_coin&#45;&gt;event::emit_event</title>
<path fill="none" stroke="black" d="M640.58,-357.7C666.64,-352.7 698.39,-344.63 724.85,-332 782.21,-304.63 838.26,-254.97 868.92,-225.29"/>
<polygon fill="black" stroke="black" points="871.11,-228.04 875.79,-218.54 866.2,-223.05 871.11,-228.04"/>
</g>
<!-- error::not_found&#45;&gt;error::canonical -->
<g id="edge31" class="edge">
<title>error::not_found&#45;&gt;error::canonical</title>
<path fill="none" stroke="black" d="M1596.74,-185.33C1587.94,-181.35 1578.1,-177.22 1568.85,-174 1511.83,-154.18 1444.29,-138.03 1399.23,-128.25"/>
<polygon fill="black" stroke="black" points="1399.98,-124.84 1389.47,-126.16 1398.52,-131.68 1399.98,-124.84"/>
</g>
<!-- coin::deposit&#45;&gt;coin::is_account_registered -->
<g id="edge35" class="edge">
<title>coin::deposit&#45;&gt;coin::is_account_registered</title>
<path fill="none" stroke="black" d="M1240.55,-423.44C1235.67,-414.76 1229.58,-403.91 1224.04,-394.05"/>
<polygon fill="black" stroke="black" points="1227.23,-392.59 1219.29,-385.58 1221.13,-396.01 1227.23,-392.59"/>
</g>
<!-- coin::deposit&#45;&gt;error::not_found -->
<g id="edge32" class="edge">
<title>coin::deposit&#45;&gt;error::not_found</title>
<path fill="none" stroke="black" d="M1223.09,-428.52C1217.18,-426.37 1210.88,-424.37 1204.85,-423 1194.85,-420.72 1119.78,-422.56 1112.85,-415 1090.32,-390.43 1093.75,-367.32 1112.85,-340 1174.4,-251.96 1234.42,-277.58 1339.85,-257 1364.84,-252.12 1545.13,-258.25 1568.85,-249 1581.64,-244.01 1593.53,-234.79 1603.04,-225.75"/>
<polygon fill="black" stroke="black" points="1605.47,-228.28 1610,-218.7 1600.48,-223.36 1605.47,-228.28"/>
</g>
<!-- coin::deposit&#45;&gt;event::emit_event -->
<g id="edge34" class="edge">
<title>coin::deposit&#45;&gt;event::emit_event</title>
<path fill="none" stroke="black" d="M1223.13,-428.34C1217.21,-426.21 1210.9,-424.26 1204.85,-423 1186.77,-419.25 1054.97,-424.02 1038.85,-415 964.72,-373.52 920.51,-276.78 902.41,-228.88"/>
<polygon fill="black" stroke="black" points="905.81,-227.97 899.08,-219.78 899.23,-230.37 905.81,-227.97"/>
</g>
<!-- error::permission_denied -->
<g id="node27" class="node">
<title>error::permission_denied</title>
<ellipse fill="none" stroke="black" cx="1348.85" cy="-200" rx="77.19" ry="18"/>
<text text-anchor="middle" x="1348.85" y="-196.3" font-family="Times,serif" font-size="14.00">permission_denied</text>
</g>
<!-- coin::deposit&#45;&gt;error::permission_denied -->
<g id="edge33" class="edge">
<title>coin::deposit&#45;&gt;error::permission_denied</title>
<path fill="none" stroke="black" d="M1223.12,-428.42C1217.2,-426.27 1210.89,-424.3 1204.85,-423 1191.25,-420.06 1089.37,-425.15 1079.85,-415 1031.81,-363.78 1031.29,-307.73 1079.85,-257 1093.92,-242.3 1243.27,-254.55 1262.85,-249 1281.74,-243.64 1300.99,-233.43 1316.48,-223.8"/>
<polygon fill="black" stroke="black" points="1318.29,-226.8 1324.79,-218.43 1314.49,-220.91 1318.29,-226.8"/>
</g>
<!-- coin::merge -->
<g id="node28" class="node">
<title>coin::merge</title>
<ellipse fill="none" stroke="black" cx="1346.85" cy="-366" rx="33.29" ry="18"/>
<text text-anchor="middle" x="1346.85" y="-362.3" font-family="Times,serif" font-size="14.00">merge</text>
</g>
<!-- coin::deposit&#45;&gt;coin::merge -->
<g id="edge36" class="edge">
<title>coin::deposit&#45;&gt;coin::merge</title>
<path fill="none" stroke="black" d="M1278.54,-429.7C1287.42,-425.82 1296.94,-420.88 1304.85,-415 1313.5,-408.57 1321.65,-400.09 1328.42,-392.04"/>
<polygon fill="black" stroke="black" points="1330.97,-394.46 1334.49,-384.46 1325.51,-390.08 1330.97,-394.46"/>
</g>
<!-- option::borrow_mut -->
<g id="node29" class="node">
<title>option::borrow_mut</title>
<ellipse fill="none" stroke="black" cx="1824.85" cy="-200" rx="54.69" ry="18"/>
<text text-anchor="middle" x="1824.85" y="-196.3" font-family="Times,serif" font-size="14.00">borrow_mut</text>
</g>
<!-- coin::mint&#45;&gt;option::borrow_mut -->
<g id="edge37" class="edge">
<title>coin::mint&#45;&gt;option::borrow_mut</title>
<path fill="none" stroke="black" d="M1569.06,-440.75C1632.19,-440.78 1786.9,-430.45 1834.85,-332 1850.76,-299.34 1843,-256.62 1834.87,-229"/>
<polygon fill="black" stroke="black" points="1838.25,-228.07 1831.89,-219.6 1831.58,-230.19 1838.25,-228.07"/>
</g>
<!-- option::is_some -->
<g id="node30" class="node">
<title>option::is_some</title>
<ellipse fill="none" stroke="black" cx="1839.85" cy="-117" rx="40.09" ry="18"/>
<text text-anchor="middle" x="1839.85" y="-113.3" font-family="Times,serif" font-size="14.00">is_some</text>
</g>
<!-- coin::mint&#45;&gt;option::is_some -->
<g id="edge38" class="edge">
<title>coin::mint&#45;&gt;option::is_some</title>
<path fill="none" stroke="black" d="M1564.38,-430.8C1572.85,-427.75 1582.66,-424.71 1591.85,-423 1614.04,-418.88 1774.28,-424.3 1794.85,-415 1841.25,-394.01 1846.61,-375.03 1873.85,-332 1912.17,-271.46 1935.95,-239.02 1905.85,-174 1899.11,-159.44 1886.51,-147.28 1874.11,-138.06"/>
<polygon fill="black" stroke="black" points="1876.22,-135.26 1866.01,-132.44 1872.24,-141.02 1876.22,-135.26"/>
</g>
<!-- optional_aggregator::add -->
<g id="node31" class="node">
<title>optional_aggregator::add</title>
<ellipse fill="none" stroke="black" cx="1689.85" cy="-366" rx="27" ry="18"/>
<text text-anchor="middle" x="1689.85" y="-362.3" font-family="Times,serif" font-size="14.00">add</text>
</g>
<!-- coin::mint&#45;&gt;optional_aggregator::add -->
<g id="edge39" class="edge">
<title>coin::mint&#45;&gt;optional_aggregator::add</title>
<path fill="none" stroke="black" d="M1563.75,-430.09C1573.6,-425.58 1585.35,-420.11 1595.85,-415 1617.06,-404.68 1640.71,-392.6 1658.98,-383.14"/>
<polygon fill="black" stroke="black" points="1660.45,-386.32 1667.72,-378.61 1657.23,-380.11 1660.45,-386.32"/>
</g>
<!-- coin::coin_address -->
<g id="node32" class="node">
<title>coin::coin_address</title>
<ellipse fill="none" stroke="black" cx="1526.85" cy="-366" rx="56.59" ry="18"/>
<text text-anchor="middle" x="1526.85" y="-362.3" font-family="Times,serif" font-size="14.00">coin_address</text>
</g>
<!-- coin::mint&#45;&gt;coin::coin_address -->
<g id="edge40" class="edge">
<title>coin::mint&#45;&gt;coin::coin_address</title>
<path fill="none" stroke="black" d="M1538.3,-422.7C1536.63,-414.58 1534.59,-404.68 1532.71,-395.5"/>
<polygon fill="black" stroke="black" points="1536.18,-395 1530.74,-385.91 1529.32,-396.41 1536.18,-395"/>
</g>
<!-- coin::zero -->
<g id="node33" class="node">
<title>coin::zero</title>
<ellipse fill="none" stroke="black" cx="1424.85" cy="-366" rx="27" ry="18"/>
<text text-anchor="middle" x="1424.85" y="-362.3" font-family="Times,serif" font-size="14.00">zero</text>
</g>
<!-- coin::mint&#45;&gt;coin::zero -->
<g id="edge41" class="edge">
<title>coin::mint&#45;&gt;coin::zero</title>
<path fill="none" stroke="black" d="M1515.56,-436.19C1498.73,-432.76 1477.1,-426.44 1460.85,-415 1452.61,-409.2 1445.46,-400.94 1439.75,-392.9"/>
<polygon fill="black" stroke="black" points="1442.76,-391.1 1434.36,-384.64 1436.9,-394.93 1442.76,-391.1"/>
</g>
<!-- account::create_guid&#45;&gt;signer::address_of -->
<g id="edge42" class="edge">
<title>account::create_guid&#45;&gt;signer::address_of</title>
<path fill="none" stroke="black" d="M646.32,-279.93C767.29,-275.15 1079.16,-263.26 1339.85,-257 1401.17,-255.53 1831.43,-259.59 1891.85,-249 1926.04,-243.01 1963.12,-229.84 1990.37,-218.81"/>
<polygon fill="black" stroke="black" points="1991.37,-222.19 1999.28,-215.13 1988.7,-215.72 1991.37,-222.19"/>
</g>
<!-- account::create_guid&#45;&gt;guid::create -->
<g id="edge43" class="edge">
<title>account::create_guid&#45;&gt;guid::create</title>
<path fill="none" stroke="black" d="M566.07,-267.65C556.11,-263.38 544.72,-259.25 533.85,-257 510.45,-252.16 125.63,-258.82 103.85,-249 92.99,-244.1 83.61,-235.1 76.34,-226.21"/>
<polygon fill="black" stroke="black" points="79.26,-224.26 70.46,-218.36 73.66,-228.46 79.26,-224.26"/>
</g>
<!-- event::emit_event&#45;&gt;bcs::to_bytes -->
<g id="edge44" class="edge">
<title>event::emit_event&#45;&gt;bcs::to_bytes</title>
<path fill="none" stroke="black" d="M864.72,-184.68C855.17,-180.47 844.27,-176.36 833.85,-174 795.89,-165.38 697.68,-168.79 658.85,-166 497.7,-154.43 307.4,-133.78 218.84,-123.76"/>
<polygon fill="black" stroke="black" points="219.37,-120.3 209.04,-122.65 218.59,-127.26 219.37,-120.3"/>
</g>
<!-- event::write_to_event_store -->
<g id="node34" class="node">
<title>event::write_to_event_store</title>
<ellipse fill="none" stroke="black" cx="857.85" cy="-117" rx="85.29" ry="18"/>
<text text-anchor="middle" x="857.85" y="-113.3" font-family="Times,serif" font-size="14.00">write_to_event_store</text>
</g>
<!-- event::emit_event&#45;&gt;event::write_to_event_store -->
<g id="edge45" class="edge">
<title>event::emit_event&#45;&gt;event::write_to_event_store</title>
<path fill="none" stroke="black" d="M885.43,-181.82C880.88,-171.3 874.96,-157.59 869.76,-145.57"/>
<polygon fill="black" stroke="black" points="873.04,-144.33 865.86,-136.54 866.62,-147.11 873.04,-144.33"/>
</g>
<!-- error::permission_denied&#45;&gt;error::canonical -->
<g id="edge46" class="edge">
<title>error::permission_denied&#45;&gt;error::canonical</title>
<path fill="none" stroke="black" d="M1348.85,-181.82C1348.85,-171.69 1348.85,-158.6 1348.85,-146.92"/>
<polygon fill="black" stroke="black" points="1352.35,-146.95 1348.85,-136.95 1345.35,-146.95 1352.35,-146.95"/>
</g>
<!-- option::borrow_mut&#45;&gt;option::is_some -->
<g id="edge47" class="edge">
<title>option::borrow_mut&#45;&gt;option::is_some</title>
<path fill="none" stroke="black" d="M1828.03,-181.82C1829.93,-171.58 1832.38,-158.33 1834.56,-146.55"/>
<polygon fill="black" stroke="black" points="1837.97,-147.39 1836.35,-136.92 1831.08,-146.12 1837.97,-147.39"/>
</g>
<!-- vector::is_empty -->
<g id="node35" class="node">
<title>vector::is_empty</title>
<ellipse fill="none" stroke="black" cx="1839.85" cy="-34" rx="43.59" ry="18"/>
<text text-anchor="middle" x="1839.85" y="-30.3" font-family="Times,serif" font-size="14.00">is_empty</text>
</g>
<!-- option::is_some&#45;&gt;vector::is_empty -->
<g id="edge48" class="edge">
<title>option::is_some&#45;&gt;vector::is_empty</title>
<path fill="none" stroke="black" d="M1839.85,-98.82C1839.85,-88.69 1839.85,-75.6 1839.85,-63.92"/>
<polygon fill="black" stroke="black" points="1843.35,-63.95 1839.85,-53.95 1836.35,-63.95 1843.35,-63.95"/>
</g>
<!-- optional_aggregator::add&#45;&gt;option::borrow_mut -->
<g id="edge49" class="edge">
<title>optional_aggregator::add&#45;&gt;option::borrow_mut</title>
<path fill="none" stroke="black" d="M1717.3,-365.79C1745.34,-364.97 1787.91,-358.94 1810.85,-332 1834.97,-303.69 1834.09,-258.49 1830.25,-229.28"/>
<polygon fill="black" stroke="black" points="1833.76,-229.06 1828.78,-219.7 1826.84,-230.12 1833.76,-229.06"/>
</g>
<!-- optional_aggregator::add&#45;&gt;option::is_some -->
<g id="edge50" class="edge">
<title>optional_aggregator::add&#45;&gt;option::is_some</title>
<path fill="none" stroke="black" d="M1717.14,-364.76C1748.25,-363.23 1799.38,-356.73 1834.85,-332 1870.95,-306.83 1876.33,-291.19 1888.85,-249 1898.33,-217.04 1900.57,-205.2 1888.85,-174 1884.22,-161.69 1875.52,-150.31 1866.73,-141.07"/>
<polygon fill="black" stroke="black" points="1869.4,-138.79 1859.81,-134.28 1864.5,-143.78 1869.4,-138.79"/>
</g>
<!-- aggregator::add -->
<g id="node36" class="node">
<title>aggregator::add</title>
<ellipse fill="none" stroke="black" cx="1767.85" cy="-283" rx="27" ry="18"/>
<text text-anchor="middle" x="1767.85" y="-279.3" font-family="Times,serif" font-size="14.00">add</text>
</g>
<!-- optional_aggregator::add&#45;&gt;aggregator::add -->
<g id="edge51" class="edge">
<title>optional_aggregator::add&#45;&gt;aggregator::add</title>
<path fill="none" stroke="black" d="M1706.77,-351.84C1713.86,-346.04 1722.02,-338.97 1728.85,-332 1735.9,-324.8 1743.03,-316.43 1749.22,-308.72"/>
<polygon fill="black" stroke="black" points="1751.9,-310.97 1755.31,-300.94 1746.39,-306.65 1751.9,-310.97"/>
</g>
<!-- optional_aggregator::add_integer -->
<g id="node37" class="node">
<title>optional_aggregator::add_integer</title>
<ellipse fill="none" stroke="black" cx="1662.85" cy="-283" rx="51.99" ry="18"/>
<text text-anchor="middle" x="1662.85" y="-279.3" font-family="Times,serif" font-size="14.00">add_integer</text>
</g>
<!-- optional_aggregator::add&#45;&gt;optional_aggregator::add_integer -->
<g id="edge52" class="edge">
<title>optional_aggregator::add&#45;&gt;optional_aggregator::add_integer</title>
<path fill="none" stroke="black" d="M1684.26,-348.22C1680.79,-337.82 1676.25,-324.21 1672.25,-312.19"/>
<polygon fill="black" stroke="black" points="1675.59,-311.14 1669.1,-302.76 1668.94,-313.35 1675.59,-311.14"/>
</g>
<!-- coin::coin_address&#45;&gt;type_info::type_of -->
<g id="edge54" class="edge">
<title>coin::coin_address&#45;&gt;type_info::type_of</title>
<path fill="none" stroke="black" d="M1492.01,-351.5C1481.98,-347.7 1471.01,-343.62 1460.85,-340 1450.26,-336.23 1446.38,-337.96 1436.85,-332 1426.87,-325.76 1417.45,-316.98 1409.71,-308.63"/>
<polygon fill="black" stroke="black" points="1412.52,-306.53 1403.29,-301.34 1407.27,-311.16 1412.52,-306.53"/>
</g>
<!-- type_info::account_address -->
<g id="node38" class="node">
<title>type_info::account_address</title>
<ellipse fill="none" stroke="black" cx="1514.85" cy="-283" rx="68.79" ry="18"/>
<text text-anchor="middle" x="1514.85" y="-279.3" font-family="Times,serif" font-size="14.00">account_address</text>
</g>
<!-- coin::coin_address&#45;&gt;type_info::account_address -->
<g id="edge53" class="edge">
<title>coin::coin_address&#45;&gt;type_info::account_address</title>
<path fill="none" stroke="black" d="M1524.31,-347.82C1522.79,-337.58 1520.82,-324.33 1519.08,-312.55"/>
<polygon fill="black" stroke="black" points="1522.58,-312.31 1517.65,-302.93 1515.66,-313.33 1522.58,-312.31"/>
</g>
<!-- error::out_of_range -->
<g id="node39" class="node">
<title>error::out_of_range</title>
<ellipse fill="none" stroke="black" cx="1501.85" cy="-200" rx="57.69" ry="18"/>
<text text-anchor="middle" x="1501.85" y="-196.3" font-family="Times,serif" font-size="14.00">out_of_range</text>
</g>
<!-- optional_aggregator::add_integer&#45;&gt;error::out_of_range -->
<g id="edge55" class="edge">
<title>optional_aggregator::add_integer&#45;&gt;error::out_of_range</title>
<path fill="none" stroke="black" d="M1629.27,-268.95C1618.64,-264.96 1606.8,-260.66 1595.85,-257 1583.98,-253.03 1580.09,-254.5 1568.85,-249 1555.29,-242.37 1541.53,-233.06 1530.04,-224.39"/>
<polygon fill="black" stroke="black" points="1532.21,-221.65 1522.17,-218.27 1527.92,-227.18 1532.21,-221.65"/>
</g>
<!-- error::out_of_range&#45;&gt;error::canonical -->
<g id="edge56" class="edge">
<title>error::out_of_range&#45;&gt;error::canonical</title>
<path fill="none" stroke="black" d="M1473.43,-183.95C1448.45,-170.73 1411.97,-151.41 1384.93,-137.1"/>
<polygon fill="black" stroke="black" points="1386.89,-134.18 1376.41,-132.59 1383.61,-140.36 1386.89,-134.18"/>
</g>
</g>
</svg>
