<?xml version="1.0" encoding="UTF-8" standalone="no"?>
<!DOCTYPE svg PUBLIC "-//W3C//DTD SVG 1.1//EN"
 "http://www.w3.org/Graphics/SVG/1.1/DTD/svg11.dtd">
<!-- Generated by graphviz version 7.0.0 (20221023.0053)
 -->
<!-- Title: G Pages: 1 -->
<svg width="436pt" height="332pt"
 viewBox="0.00 0.00 436.48 332.00" xmlns="http://www.w3.org/2000/svg" xmlns:xlink="http://www.w3.org/1999/xlink">
<g id="graph0" class="graph" transform="scale(1 1) rotate(0) translate(4 328)">
<title>G</title>
<polygon fill="white" stroke="none" points="-4,4 -4,-328 432.48,-328 432.48,4 -4,4"/>
<!-- create_account -->
<g id="node1" class="node">
<title>create_account</title>
<ellipse fill="none" stroke="black" cx="160.94" cy="-18" rx="63.89" ry="18"/>
<text text-anchor="middle" x="160.94" y="-14.3" font-family="Times,serif" font-size="14.00">create_account</text>
</g>
<!-- create_accounts -->
<g id="node2" class="node">
<title>create_accounts</title>
<ellipse fill="none" stroke="black" cx="66.94" cy="-90" rx="66.89" ry="18"/>
<text text-anchor="middle" x="66.94" y="-86.3" font-family="Times,serif" font-size="14.00">create_accounts</text>
</g>
<!-- create_accounts&#45;&gt;create_account -->
<g id="edge1" class="edge">
<title>create_accounts&#45;&gt;create_account</title>
<path fill="none" stroke="black" d="M88.75,-72.76C101.08,-63.58 116.71,-51.94 130.27,-41.84"/>
<polygon fill="black" stroke="black" points="132.12,-44.83 138.05,-36.05 127.94,-39.22 132.12,-44.83"/>
</g>
<!-- create_initialize_validator -->
<g id="node3" class="node">
<title>create_initialize_validator</title>
<ellipse fill="none" stroke="black" cx="254.94" cy="-90" rx="102.88" ry="18"/>
<text text-anchor="middle" x="254.94" y="-86.3" font-family="Times,serif" font-size="14.00">create_initialize_validator</text>
</g>
<!-- create_initialize_validator&#45;&gt;create_account -->
<g id="edge2" class="edge">
<title>create_initialize_validator&#45;&gt;create_account</title>
<path fill="none" stroke="black" d="M232.19,-72.05C220.12,-63.07 205.12,-51.9 192,-42.12"/>
<polygon fill="black" stroke="black" points="194.17,-39.38 184.06,-36.21 189.99,-44.99 194.17,-39.38"/>
</g>
<!-- create_initialize_validators_with_commission -->
<g id="node4" class="node">
<title>create_initialize_validators_with_commission</title>
<ellipse fill="none" stroke="black" cx="254.94" cy="-162" rx="173.57" ry="18"/>
<text text-anchor="middle" x="254.94" y="-158.3" font-family="Times,serif" font-size="14.00">create_initialize_validators_with_commission</text>
</g>
<!-- create_initialize_validators_with_commission&#45;&gt;create_initialize_validator -->
<g id="edge3" class="edge">
<title>create_initialize_validators_with_commission&#45;&gt;create_initialize_validator</title>
<path fill="none" stroke="black" d="M254.94,-143.7C254.94,-136.41 254.94,-127.73 254.94,-119.54"/>
<polygon fill="black" stroke="black" points="258.44,-119.62 254.94,-109.62 251.44,-119.62 258.44,-119.62"/>
</g>
<!-- create_initialize_validators -->
<g id="node5" class="node">
<title>create_initialize_validators</title>
<ellipse fill="none" stroke="black" cx="254.94" cy="-234" rx="105.88" ry="18"/>
<text text-anchor="middle" x="254.94" y="-230.3" font-family="Times,serif" font-size="14.00">create_initialize_validators</text>
</g>
<!-- create_initialize_validators&#45;&gt;create_initialize_validators_with_commission -->
<g id="edge4" class="edge">
<title>create_initialize_validators&#45;&gt;create_initialize_validators_with_commission</title>
<path fill="none" stroke="black" d="M254.94,-215.7C254.94,-208.41 254.94,-199.73 254.94,-191.54"/>
<polygon fill="black" stroke="black" points="258.44,-191.62 254.94,-181.62 251.44,-191.62 258.44,-191.62"/>
</g>
<!-- initialize_for_verification -->
<g id="node6" class="node">
<title>initialize_for_verification</title>
<ellipse fill="none" stroke="black" cx="254.94" cy="-306" rx="100.98" ry="18"/>
<text text-anchor="middle" x="254.94" y="-302.3" font-family="Times,serif" font-size="14.00">initialize_for_verification</text>
</g>
<!-- initialize_for_verification&#45;&gt;create_initialize_validators -->
<g id="edge5" class="edge">
<title>initialize_for_verification&#45;&gt;create_initialize_validators</title>
<path fill="none" stroke="black" d="M254.94,-287.7C254.94,-280.41 254.94,-271.73 254.94,-263.54"/>
<polygon fill="black" stroke="black" points="258.44,-263.62 254.94,-253.62 251.44,-263.62 258.44,-263.62"/>
</g>
</g>
</svg>
