<?xml version="1.0" encoding="UTF-8" standalone="no"?>
<!DOCTYPE svg PUBLIC "-//W3C//DTD SVG 1.1//EN"
 "http://www.w3.org/Graphics/SVG/1.1/DTD/svg11.dtd">
<!-- Generated by graphviz version 7.0.0 (20221023.0053)
 -->
<!-- Title: G Pages: 1 -->
<svg width="604pt" height="404pt"
 viewBox="0.00 0.00 603.78 404.00" xmlns="http://www.w3.org/2000/svg" xmlns:xlink="http://www.w3.org/1999/xlink">
<g id="graph0" class="graph" transform="scale(1 1) rotate(0) translate(4 400)">
<title>G</title>
<polygon fill="white" stroke="none" points="-4,4 -4,-400 599.78,-400 599.78,4 -4,4"/>
<!-- create_signer -->
<g id="node1" class="node">
<title>create_signer</title>
<ellipse fill="none" stroke="black" cx="380.94" cy="-18" rx="57.69" ry="18"/>
<text text-anchor="middle" x="380.94" y="-14.3" font-family="Times,serif" font-size="14.00">create_signer</text>
</g>
<!-- create_account -->
<g id="node2" class="node">
<title>create_account</title>
<ellipse fill="none" stroke="black" cx="221.94" cy="-90" rx="63.89" ry="18"/>
<text text-anchor="middle" x="221.94" y="-86.3" font-family="Times,serif" font-size="14.00">create_account</text>
</g>
<!-- create_account&#45;&gt;create_signer -->
<g id="edge1" class="edge">
<title>create_account&#45;&gt;create_signer</title>
<path fill="none" stroke="black" d="M255.28,-74.33C279.37,-63.72 312.11,-49.3 338.14,-37.85"/>
<polygon fill="black" stroke="black" points="339.34,-41.14 347.09,-33.91 336.52,-34.73 339.34,-41.14"/>
</g>
<!-- initialize_validator -->
<g id="node3" class="node">
<title>initialize_validator</title>
<ellipse fill="none" stroke="black" cx="380.94" cy="-90" rx="77.19" ry="18"/>
<text text-anchor="middle" x="380.94" y="-86.3" font-family="Times,serif" font-size="14.00">initialize_validator</text>
</g>
<!-- initialize_validator&#45;&gt;create_signer -->
<g id="edge2" class="edge">
<title>initialize_validator&#45;&gt;create_signer</title>
<path fill="none" stroke="black" d="M380.94,-71.7C380.94,-64.41 380.94,-55.73 380.94,-47.54"/>
<polygon fill="black" stroke="black" points="384.44,-47.62 380.94,-37.62 377.44,-47.62 384.44,-47.62"/>
</g>
<!-- create_employee_validators -->
<g id="node4" class="node">
<title>create_employee_validators</title>
<ellipse fill="none" stroke="black" cx="485.94" cy="-162" rx="109.68" ry="18"/>
<text text-anchor="middle" x="485.94" y="-158.3" font-family="Times,serif" font-size="14.00">create_employee_validators</text>
</g>
<!-- create_employee_validators&#45;&gt;create_signer -->
<g id="edge3" class="edge">
<title>create_employee_validators&#45;&gt;create_signer</title>
<path fill="none" stroke="black" d="M486.16,-143.68C485.56,-124.49 482.06,-93.43 466.94,-72 456.66,-57.42 440.97,-46.06 425.8,-37.66"/>
<polygon fill="black" stroke="black" points="427.79,-34.76 417.3,-33.26 424.57,-40.97 427.79,-34.76"/>
</g>
<!-- create_employee_validators&#45;&gt;initialize_validator -->
<g id="edge6" class="edge">
<title>create_employee_validators&#45;&gt;initialize_validator</title>
<path fill="none" stroke="black" d="M460.53,-144.05C446.79,-134.89 429.64,-123.46 414.78,-113.56"/>
<polygon fill="black" stroke="black" points="416.93,-110.78 406.66,-108.15 413.04,-116.61 416.93,-110.78"/>
</g>
<!-- create_accounts -->
<g id="node5" class="node">
<title>create_accounts</title>
<ellipse fill="none" stroke="black" cx="66.94" cy="-162" rx="66.89" ry="18"/>
<text text-anchor="middle" x="66.94" y="-158.3" font-family="Times,serif" font-size="14.00">create_accounts</text>
</g>
<!-- create_accounts&#45;&gt;create_account -->
<g id="edge4" class="edge">
<title>create_accounts&#45;&gt;create_account</title>
<path fill="none" stroke="black" d="M100.2,-145.98C123.16,-135.61 153.91,-121.72 178.76,-110.5"/>
<polygon fill="black" stroke="black" points="179.96,-113.8 187.63,-106.49 177.08,-107.42 179.96,-113.8"/>
</g>
<!-- create_initialize_validator -->
<g id="node6" class="node">
<title>create_initialize_validator</title>
<ellipse fill="none" stroke="black" cx="254.94" cy="-162" rx="102.88" ry="18"/>
<text text-anchor="middle" x="254.94" y="-158.3" font-family="Times,serif" font-size="14.00">create_initialize_validator</text>
</g>
<!-- create_initialize_validator&#45;&gt;create_account -->
<g id="edge5" class="edge">
<title>create_initialize_validator&#45;&gt;create_account</title>
<path fill="none" stroke="black" d="M246.79,-143.7C243.19,-136.07 238.88,-126.92 234.86,-118.4"/>
<polygon fill="black" stroke="black" points="238.08,-117.03 230.65,-109.47 231.75,-120.01 238.08,-117.03"/>
</g>
<!-- create_initialize_validator&#45;&gt;initialize_validator -->
<g id="edge7" class="edge">
<title>create_initialize_validator&#45;&gt;initialize_validator</title>
<path fill="none" stroke="black" d="M284.8,-144.41C302,-134.86 323.79,-122.75 342.28,-112.48"/>
<polygon fill="black" stroke="black" points="343.8,-115.64 350.84,-107.72 340.4,-109.52 343.8,-115.64"/>
</g>
<!-- create_initialize_validators_with_commission -->
<g id="node7" class="node">
<title>create_initialize_validators_with_commission</title>
<ellipse fill="none" stroke="black" cx="254.94" cy="-234" rx="173.57" ry="18"/>
<text text-anchor="middle" x="254.94" y="-230.3" font-family="Times,serif" font-size="14.00">create_initialize_validators_with_commission</text>
</g>
<!-- create_initialize_validators_with_commission&#45;&gt;create_initialize_validator -->
<g id="edge8" class="edge">
<title>create_initialize_validators_with_commission&#45;&gt;create_initialize_validator</title>
<path fill="none" stroke="black" d="M254.94,-215.7C254.94,-208.41 254.94,-199.73 254.94,-191.54"/>
<polygon fill="black" stroke="black" points="258.44,-191.62 254.94,-181.62 251.44,-191.62 258.44,-191.62"/>
</g>
<!-- create_initialize_validators -->
<g id="node8" class="node">
<title>create_initialize_validators</title>
<ellipse fill="none" stroke="black" cx="254.94" cy="-306" rx="105.88" ry="18"/>
<text text-anchor="middle" x="254.94" y="-302.3" font-family="Times,serif" font-size="14.00">create_initialize_validators</text>
</g>
<!-- create_initialize_validators&#45;&gt;create_initialize_validators_with_commission -->
<g id="edge9" class="edge">
<title>create_initialize_validators&#45;&gt;create_initialize_validators_with_commission</title>
<path fill="none" stroke="black" d="M254.94,-287.7C254.94,-280.41 254.94,-271.73 254.94,-263.54"/>
<polygon fill="black" stroke="black" points="258.44,-263.62 254.94,-253.62 251.44,-263.62 258.44,-263.62"/>
</g>
<!-- initialize_for_verification -->
<g id="node9" class="node">
<title>initialize_for_verification</title>
<ellipse fill="none" stroke="black" cx="254.94" cy="-378" rx="100.98" ry="18"/>
<text text-anchor="middle" x="254.94" y="-374.3" font-family="Times,serif" font-size="14.00">initialize_for_verification</text>
</g>
<!-- initialize_for_verification&#45;&gt;create_initialize_validators -->
<g id="edge10" class="edge">
<title>initialize_for_verification&#45;&gt;create_initialize_validators</title>
<path fill="none" stroke="black" d="M254.94,-359.7C254.94,-352.41 254.94,-343.73 254.94,-335.54"/>
<polygon fill="black" stroke="black" points="258.44,-335.62 254.94,-325.62 251.44,-335.62 258.44,-335.62"/>
</g>
</g>
</svg>
