<?xml version="1.0" encoding="UTF-8" standalone="no"?>
<!DOCTYPE svg PUBLIC "-//W3C//DTD SVG 1.1//EN"
 "http://www.w3.org/Graphics/SVG/1.1/DTD/svg11.dtd">
<!-- Generated by graphviz version 7.0.0 (20221023.0053)
 -->
<!-- Title: G Pages: 1 -->
<svg width="2091pt" height="697pt"
 viewBox="0.00 0.00 2091.46 697.00" xmlns="http://www.w3.org/2000/svg" xmlns:xlink="http://www.w3.org/1999/xlink">
<g id="graph0" class="graph" transform="scale(1 1) rotate(0) translate(4 693)">
<title>G</title>
<polygon fill="white" stroke="none" points="-4,4 -4,-693 2087.46,-693 2087.46,4 -4,4"/>
<g id="clust1" class="cluster">
<title>cluster_vector</title>
<polygon fill="none" stroke="black" points="444.23,-8 444.23,-83 646.23,-83 646.23,-8 444.23,-8"/>
<text text-anchor="middle" x="545.23" y="-67.8" font-family="Times,serif" font-size="14.00">vector</text>
</g>
<g id="clust2" class="cluster">
<title>cluster_error</title>
<polygon fill="none" stroke="black" points="964.23,-91 964.23,-249 1685.23,-249 1685.23,-91 964.23,-91"/>
<text text-anchor="middle" x="1324.73" y="-233.8" font-family="Times,serif" font-size="14.00">error</text>
</g>
<g id="clust3" class="cluster">
<title>cluster_account</title>
<polygon fill="none" stroke="black" points="321.23,-174 321.23,-415 868.23,-415 868.23,-174 321.23,-174"/>
<text text-anchor="middle" x="594.73" y="-399.8" font-family="Times,serif" font-size="14.00">account</text>
</g>
<g id="clust4" class="cluster">
<title>cluster_coin</title>
<polygon fill="none" stroke="black" points="876.23,-340 876.23,-490 1354.23,-490 1354.23,-340 876.23,-340"/>
<text text-anchor="middle" x="1115.23" y="-474.8" font-family="Times,serif" font-size="14.00">coin</text>
</g>
<g id="clust5" class="cluster">
<title>cluster_aptos_coin</title>
<polygon fill="none" stroke="black" points="1282.23,-498 1282.23,-573 1357.23,-573 1357.23,-498 1282.23,-498"/>
<text text-anchor="middle" x="1319.73" y="-557.8" font-family="Times,serif" font-size="14.00">aptos_coin</text>
</g>
<g id="clust6" class="cluster">
<title>cluster_signer</title>
<polygon fill="none" stroke="black" points="1693.23,-91 1693.23,-249 1843.23,-249 1843.23,-91 1693.23,-91"/>
<text text-anchor="middle" x="1768.23" y="-233.8" font-family="Times,serif" font-size="14.00">signer</text>
</g>
<g id="clust7" class="cluster">
<title>cluster_option</title>
<polygon fill="none" stroke="black" points="1851.23,-91 1851.23,-249 2051.23,-249 2051.23,-91 1851.23,-91"/>
<text text-anchor="middle" x="1951.23" y="-233.8" font-family="Times,serif" font-size="14.00">option</text>
</g>
<g id="clust8" class="cluster">
<title>cluster_bcs</title>
<polygon fill="none" stroke="black" points="453.23,-91 453.23,-166 549.23,-166 549.23,-91 453.23,-91"/>
<text text-anchor="middle" x="501.23" y="-150.8" font-family="Times,serif" font-size="14.00">bcs</text>
</g>
<g id="clust9" class="cluster">
<title>cluster_guid</title>
<polygon fill="none" stroke="black" points="876.23,-174 876.23,-249 956.23,-249 956.23,-174 876.23,-174"/>
<text text-anchor="middle" x="916.23" y="-233.8" font-family="Times,serif" font-size="14.00">guid</text>
</g>
<g id="clust10" class="cluster">
<title>cluster_event</title>
<polygon fill="none" stroke="black" points="25.23,-91 25.23,-249 313.23,-249 313.23,-91 25.23,-91"/>
<text text-anchor="middle" x="169.23" y="-233.8" font-family="Times,serif" font-size="14.00">event</text>
</g>
<g id="clust11" class="cluster">
<title>cluster_type_info</title>
<polygon fill="none" stroke="black" points="1046.23,-257 1046.23,-332 1294.23,-332 1294.23,-257 1046.23,-257"/>
<text text-anchor="middle" x="1170.23" y="-316.8" font-family="Times,serif" font-size="14.00">type_info</text>
</g>
<g id="clust13" class="cluster">
<title>cluster_aggregator</title>
<polygon fill="none" stroke="black" points="1582.23,-257 1582.23,-332 1656.23,-332 1656.23,-257 1582.23,-257"/>
<text text-anchor="middle" x="1619.23" y="-316.8" font-family="Times,serif" font-size="14.00">aggregator</text>
</g>
<g id="clust12" class="cluster">
<title>cluster_optional_aggregator</title>
<polygon fill="none" stroke="black" points="1664.23,-257 1664.23,-415 1789.23,-415 1789.23,-257 1664.23,-257"/>
<text text-anchor="middle" x="1726.73" y="-399.8" font-family="Times,serif" font-size="14.00">optional_aggregator</text>
</g>
<!-- create_accounts -->
<g id="node1" class="node">
<title>create_accounts</title>
<ellipse fill="none" stroke="black" cx="719.23" cy="-671" rx="66.89" ry="18"/>
<text text-anchor="middle" x="719.23" y="-667.3" font-family="Times,serif" font-size="14.00">create_accounts</text>
</g>
<!-- vector::contains -->
<g id="node2" class="node">
<title>vector::contains</title>
<ellipse fill="none" stroke="black" cx="492.23" cy="-34" rx="40.09" ry="18"/>
<text text-anchor="middle" x="492.23" y="-30.3" font-family="Times,serif" font-size="14.00">contains</text>
</g>
<!-- create_accounts&#45;&gt;vector::contains -->
<g id="edge1" class="edge">
<title>create_accounts&#45;&gt;vector::contains</title>
<path fill="none" stroke="black" d="M652.05,-670.49C474.31,-669.99 5.23,-656.23 5.23,-525 5.23,-525 5.23,-525 5.23,-199 5.23,-150.48 -13.58,-124.82 21.23,-91 50.95,-62.12 325.25,-44.03 441.04,-37.62"/>
<polygon fill="black" stroke="black" points="441.08,-41.12 450.88,-37.08 440.7,-34.13 441.08,-41.12"/>
</g>
<!-- error::already_exists -->
<g id="node3" class="node">
<title>error::already_exists</title>
<ellipse fill="none" stroke="black" cx="1198.23" cy="-200" rx="61.19" ry="18"/>
<text text-anchor="middle" x="1198.23" y="-196.3" font-family="Times,serif" font-size="14.00">already_exists</text>
</g>
<!-- create_accounts&#45;&gt;error::already_exists -->
<g id="edge2" class="edge">
<title>create_accounts&#45;&gt;error::already_exists</title>
<path fill="none" stroke="black" d="M786.4,-669.72C934.6,-667.62 1282.68,-653.96 1361.23,-573 1459.13,-472.09 1458.82,-341.2 1346.23,-257 1332.27,-246.56 1284.58,-255 1268.23,-249 1252.9,-243.38 1237.73,-233.64 1225.46,-224.39"/>
<polygon fill="black" stroke="black" points="1227.89,-221.85 1217.87,-218.43 1223.57,-227.36 1227.89,-221.85"/>
</g>
<!-- create_account -->
<g id="node4" class="node">
<title>create_account</title>
<ellipse fill="none" stroke="black" cx="719.23" cy="-599" rx="63.89" ry="18"/>
<text text-anchor="middle" x="719.23" y="-595.3" font-family="Times,serif" font-size="14.00">create_account</text>
</g>
<!-- create_accounts&#45;&gt;create_account -->
<g id="edge3" class="edge">
<title>create_accounts&#45;&gt;create_account</title>
<path fill="none" stroke="black" d="M719.23,-652.7C719.23,-645.41 719.23,-636.73 719.23,-628.54"/>
<polygon fill="black" stroke="black" points="722.73,-628.62 719.23,-618.62 715.73,-628.62 722.73,-628.62"/>
</g>
<!-- error::canonical -->
<g id="node5" class="node">
<title>error::canonical</title>
<ellipse fill="none" stroke="black" cx="1354.23" cy="-117" rx="44.39" ry="18"/>
<text text-anchor="middle" x="1354.23" y="-113.3" font-family="Times,serif" font-size="14.00">canonical</text>
</g>
<!-- error::already_exists&#45;&gt;error::canonical -->
<g id="edge4" class="edge">
<title>error::already_exists&#45;&gt;error::canonical</title>
<path fill="none" stroke="black" d="M1227.57,-183.76C1253.08,-170.52 1290.16,-151.27 1317.61,-137.01"/>
<polygon fill="black" stroke="black" points="1319.01,-140.23 1326.27,-132.51 1315.78,-134.02 1319.01,-140.23"/>
</g>
<!-- account::create_account -->
<g id="node6" class="node">
<title>account::create_account</title>
<ellipse fill="none" stroke="black" cx="665.23" cy="-366" rx="63.89" ry="18"/>
<text text-anchor="middle" x="665.23" y="-362.3" font-family="Times,serif" font-size="14.00">create_account</text>
</g>
<!-- create_account&#45;&gt;account::create_account -->
<g id="edge5" class="edge">
<title>create_account&#45;&gt;account::create_account</title>
<path fill="none" stroke="black" d="M718.87,-580.66C717.77,-548.7 713.32,-478.71 695.23,-423 691.99,-413.05 687.04,-402.78 682.08,-393.8"/>
<polygon fill="black" stroke="black" points="685.16,-392.14 677.12,-385.25 679.11,-395.66 685.16,-392.14"/>
</g>
<!-- account::exists_at -->
<g id="node7" class="node">
<title>account::exists_at</title>
<ellipse fill="none" stroke="black" cx="371.23" cy="-366" rx="41.69" ry="18"/>
<text text-anchor="middle" x="371.23" y="-362.3" font-family="Times,serif" font-size="14.00">exists_at</text>
</g>
<!-- create_account&#45;&gt;account::exists_at -->
<g id="edge6" class="edge">
<title>create_account&#45;&gt;account::exists_at</title>
<path fill="none" stroke="black" d="M710.38,-580.99C696.23,-554.03 669.38,-503.93 662.23,-498 575.01,-425.7 517.9,-474.05 421.23,-415 410.75,-408.6 400.69,-399.68 392.37,-391.27"/>
<polygon fill="black" stroke="black" points="395.13,-389.09 385.72,-384.23 390.04,-393.9 395.13,-389.09"/>
</g>
<!-- coin::register -->
<g id="node8" class="node">
<title>coin::register</title>
<ellipse fill="none" stroke="black" cx="946.23" cy="-441" rx="37.09" ry="18"/>
<text text-anchor="middle" x="946.23" y="-437.3" font-family="Times,serif" font-size="14.00">register</text>
</g>
<!-- create_account&#45;&gt;coin::register -->
<g id="edge7" class="edge">
<title>create_account&#45;&gt;coin::register</title>
<path fill="none" stroke="black" d="M742.66,-581.89C784.14,-553.39 870.39,-494.11 916.17,-462.65"/>
<polygon fill="black" stroke="black" points="918.06,-465.61 924.32,-457.06 914.09,-459.84 918.06,-465.61"/>
</g>
<!-- aptos_coin::mint -->
<g id="node9" class="node">
<title>aptos_coin::mint</title>
<ellipse fill="none" stroke="black" cx="1319.23" cy="-524" rx="27.1" ry="18"/>
<text text-anchor="middle" x="1319.23" y="-520.3" font-family="Times,serif" font-size="14.00">mint</text>
</g>
<!-- create_account&#45;&gt;aptos_coin::mint -->
<g id="edge8" class="edge">
<title>create_account&#45;&gt;aptos_coin::mint</title>
<path fill="none" stroke="black" d="M777.03,-590.97C898.93,-576.14 1179.52,-542 1281.39,-529.6"/>
<polygon fill="black" stroke="black" points="1281.62,-533.1 1291.13,-528.42 1280.78,-526.15 1281.62,-533.1"/>
</g>
<!-- create_signer -->
<g id="node10" class="node">
<title>create_signer</title>
<ellipse fill="none" stroke="black" cx="595.23" cy="-524" rx="57.69" ry="18"/>
<text text-anchor="middle" x="595.23" y="-520.3" font-family="Times,serif" font-size="14.00">create_signer</text>
</g>
<!-- create_account&#45;&gt;create_signer -->
<g id="edge9" class="edge">
<title>create_account&#45;&gt;create_signer</title>
<path fill="none" stroke="black" d="M686.41,-583.08C679.97,-579.91 673.32,-576.47 667.23,-573 653.63,-565.25 639.18,-555.86 626.82,-547.45"/>
<polygon fill="black" stroke="black" points="628.88,-544.62 618.66,-541.82 624.9,-550.38 628.88,-544.62"/>
</g>
<!-- account::create_account&#45;&gt;error::already_exists -->
<g id="edge10" class="edge">
<title>account::create_account&#45;&gt;error::already_exists</title>
<path fill="none" stroke="black" d="M700.18,-350.55C711.78,-346.39 724.87,-342.34 737.23,-340 780.49,-331.8 893.51,-346.1 935.23,-332 990.24,-313.41 987.72,-277.06 1042.23,-257 1077.84,-243.9 1091.51,-261.8 1127.23,-249 1142.74,-243.44 1158.12,-233.7 1170.58,-224.45"/>
<polygon fill="black" stroke="black" points="1172.53,-227.36 1178.29,-218.47 1168.25,-221.83 1172.53,-227.36"/>
</g>
<!-- error::invalid_argument -->
<g id="node11" class="node">
<title>error::invalid_argument</title>
<ellipse fill="none" stroke="black" cx="1045.23" cy="-200" rx="73.39" ry="18"/>
<text text-anchor="middle" x="1045.23" y="-196.3" font-family="Times,serif" font-size="14.00">invalid_argument</text>
</g>
<!-- account::create_account&#45;&gt;error::invalid_argument -->
<g id="edge11" class="edge">
<title>account::create_account&#45;&gt;error::invalid_argument</title>
<path fill="none" stroke="black" d="M700.58,-350.57C712.08,-346.46 725.03,-342.44 737.23,-340 766.04,-334.24 841.62,-342.08 869.23,-332 901.66,-320.15 976.42,-259.39 1017.29,-224.93"/>
<polygon fill="black" stroke="black" points="1019.43,-227.71 1024.8,-218.58 1014.9,-222.37 1019.43,-227.71"/>
</g>
<!-- account::create_account_unchecked -->
<g id="node12" class="node">
<title>account::create_account_unchecked</title>
<ellipse fill="none" stroke="black" cx="633.23" cy="-283" rx="105.08" ry="18"/>
<text text-anchor="middle" x="633.23" y="-279.3" font-family="Times,serif" font-size="14.00">create_account_unchecked</text>
</g>
<!-- account::create_account&#45;&gt;account::create_account_unchecked -->
<g id="edge12" class="edge">
<title>account::create_account&#45;&gt;account::create_account_unchecked</title>
<path fill="none" stroke="black" d="M658.44,-347.82C654.31,-337.37 648.94,-323.77 644.21,-311.81"/>
<polygon fill="black" stroke="black" points="647.6,-310.85 640.67,-302.84 641.09,-313.43 647.6,-310.85"/>
</g>
<!-- coin::register&#45;&gt;error::already_exists -->
<g id="edge14" class="edge">
<title>coin::register&#45;&gt;error::already_exists</title>
<path fill="none" stroke="black" d="M982.09,-436.03C1018.76,-432.12 1077.4,-426.27 1128.23,-423 1140.82,-422.19 1346.46,-424.08 1355.23,-415 1407.07,-361.29 1359.21,-300.06 1298.23,-257 1286.95,-249.04 1280.76,-254.76 1268.23,-249 1253.96,-242.44 1239.45,-233.03 1227.36,-224.28"/>
<polygon fill="black" stroke="black" points="1229.56,-221.55 1219.46,-218.37 1225.37,-227.16 1229.56,-221.55"/>
</g>
<!-- signer::address_of -->
<g id="node13" class="node">
<title>signer::address_of</title>
<ellipse fill="none" stroke="black" cx="1759.23" cy="-200" rx="48.99" ry="18"/>
<text text-anchor="middle" x="1759.23" y="-196.3" font-family="Times,serif" font-size="14.00">address_of</text>
</g>
<!-- coin::register&#45;&gt;signer::address_of -->
<g id="edge13" class="edge">
<title>coin::register&#45;&gt;signer::address_of</title>
<path fill="none" stroke="black" d="M982.09,-435.99C1018.76,-432.05 1077.39,-426.18 1128.23,-423 1156.18,-421.25 1353.94,-424.67 1380.23,-415 1485.88,-376.12 1473.37,-298 1578.23,-257 1624.29,-238.99 1642.54,-265.33 1689.23,-249 1704.85,-243.53 1720.25,-233.62 1732.6,-224.21"/>
<polygon fill="black" stroke="black" points="1734.58,-227.11 1740.23,-218.15 1730.22,-221.63 1734.58,-227.11"/>
</g>
<!-- account::new_event_handle -->
<g id="node14" class="node">
<title>account::new_event_handle</title>
<ellipse fill="none" stroke="black" cx="507.23" cy="-366" rx="76.89" ry="18"/>
<text text-anchor="middle" x="507.23" y="-362.3" font-family="Times,serif" font-size="14.00">new_event_handle</text>
</g>
<!-- coin::register&#45;&gt;account::new_event_handle -->
<g id="edge15" class="edge">
<title>coin::register&#45;&gt;account::new_event_handle</title>
<path fill="none" stroke="black" d="M909.47,-437.51C819.64,-431.41 596,-416.13 592.23,-415 573.72,-409.43 554.84,-399.3 539.58,-389.78"/>
<polygon fill="black" stroke="black" points="541.69,-386.97 531.4,-384.48 537.89,-392.85 541.69,-386.97"/>
</g>
<!-- account::register_coin -->
<g id="node15" class="node">
<title>account::register_coin</title>
<ellipse fill="none" stroke="black" cx="803.23" cy="-366" rx="56.59" ry="18"/>
<text text-anchor="middle" x="803.23" y="-362.3" font-family="Times,serif" font-size="14.00">register_coin</text>
</g>
<!-- coin::register&#45;&gt;account::register_coin -->
<g id="edge16" class="edge">
<title>coin::register&#45;&gt;account::register_coin</title>
<path fill="none" stroke="black" d="M914.47,-431.43C901.08,-427.27 885.55,-421.71 872.23,-415 858.34,-408 844.07,-398.52 832.13,-389.83"/>
<polygon fill="black" stroke="black" points="834.43,-387.18 824.32,-384 830.24,-392.78 834.43,-387.18"/>
</g>
<!-- coin::is_account_registered -->
<g id="node16" class="node">
<title>coin::is_account_registered</title>
<ellipse fill="none" stroke="black" cx="971.23" cy="-366" rx="87.18" ry="18"/>
<text text-anchor="middle" x="971.23" y="-362.3" font-family="Times,serif" font-size="14.00">is_account_registered</text>
</g>
<!-- coin::register&#45;&gt;coin::is_account_registered -->
<g id="edge17" class="edge">
<title>coin::register&#45;&gt;coin::is_account_registered</title>
<path fill="none" stroke="black" d="M952.02,-423.07C954.89,-414.71 958.41,-404.42 961.66,-394.94"/>
<polygon fill="black" stroke="black" points="964.87,-396.37 964.79,-385.78 958.24,-394.1 964.87,-396.37"/>
</g>
<!-- aptos_coin::mint&#45;&gt;signer::address_of -->
<g id="edge18" class="edge">
<title>aptos_coin::mint&#45;&gt;signer::address_of</title>
<path fill="none" stroke="black" d="M1346.16,-521.13C1438.01,-514.15 1736.38,-486.26 1793.23,-415 1837.02,-360.11 1812.15,-324.62 1793.23,-257 1790.29,-246.5 1784.78,-236 1779.04,-226.99"/>
<polygon fill="black" stroke="black" points="1781.96,-225.06 1773.43,-218.76 1776.17,-229 1781.96,-225.06"/>
</g>
<!-- error::not_found -->
<g id="node17" class="node">
<title>error::not_found</title>
<ellipse fill="none" stroke="black" cx="1496.23" cy="-200" rx="46.59" ry="18"/>
<text text-anchor="middle" x="1496.23" y="-196.3" font-family="Times,serif" font-size="14.00">not_found</text>
</g>
<!-- aptos_coin::mint&#45;&gt;error::not_found -->
<g id="edge19" class="edge">
<title>aptos_coin::mint&#45;&gt;error::not_found</title>
<path fill="none" stroke="black" d="M1339.05,-511.26C1367.75,-493.46 1421.13,-457.23 1455.23,-415 1481.07,-382.99 1486.87,-372.07 1496.23,-332 1504.3,-297.43 1502.53,-256.31 1499.91,-229.49"/>
<polygon fill="black" stroke="black" points="1503.42,-229.31 1498.85,-219.75 1496.46,-230.07 1503.42,-229.31"/>
</g>
<!-- coin::deposit -->
<g id="node18" class="node">
<title>coin::deposit</title>
<ellipse fill="none" stroke="black" cx="1173.23" cy="-441" rx="36.29" ry="18"/>
<text text-anchor="middle" x="1173.23" y="-437.3" font-family="Times,serif" font-size="14.00">deposit</text>
</g>
<!-- aptos_coin::mint&#45;&gt;coin::deposit -->
<g id="edge20" class="edge">
<title>aptos_coin::mint&#45;&gt;coin::deposit</title>
<path fill="none" stroke="black" d="M1298.92,-511.74C1275.06,-498.5 1235.1,-476.33 1206.65,-460.54"/>
<polygon fill="black" stroke="black" points="1208.5,-457.57 1198.06,-455.78 1205.1,-463.69 1208.5,-457.57"/>
</g>
<!-- coin::mint -->
<g id="node19" class="node">
<title>coin::mint</title>
<ellipse fill="none" stroke="black" cx="1319.23" cy="-441" rx="27.1" ry="18"/>
<text text-anchor="middle" x="1319.23" y="-437.3" font-family="Times,serif" font-size="14.00">mint</text>
</g>
<!-- aptos_coin::mint&#45;&gt;coin::mint -->
<g id="edge21" class="edge">
<title>aptos_coin::mint&#45;&gt;coin::mint</title>
<path fill="none" stroke="black" d="M1319.23,-505.82C1319.23,-495.69 1319.23,-482.6 1319.23,-470.92"/>
<polygon fill="black" stroke="black" points="1322.73,-470.95 1319.23,-460.95 1315.73,-470.95 1322.73,-470.95"/>
</g>
<!-- error::invalid_argument&#45;&gt;error::canonical -->
<g id="edge22" class="edge">
<title>error::invalid_argument&#45;&gt;error::canonical</title>
<path fill="none" stroke="black" d="M1089.48,-185.23C1101.97,-181.46 1115.6,-177.46 1128.23,-174 1188.96,-157.34 1259.47,-140.22 1305.37,-129.37"/>
<polygon fill="black" stroke="black" points="1306.08,-132.79 1315.01,-127.09 1304.48,-125.98 1306.08,-132.79"/>
</g>
<!-- account::create_account_unchecked&#45;&gt;error::invalid_argument -->
<g id="edge24" class="edge">
<title>account::create_account_unchecked&#45;&gt;error::invalid_argument</title>
<path fill="none" stroke="black" d="M690,-267.46C708.16,-263.37 728.43,-259.39 747.23,-257 794.21,-251.01 914.65,-261.9 960.23,-249 979.09,-243.66 998.26,-233.35 1013.6,-223.65"/>
<polygon fill="black" stroke="black" points="1015.39,-226.66 1021.83,-218.25 1011.55,-220.81 1015.39,-226.66"/>
</g>
<!-- option::none -->
<g id="node20" class="node">
<title>option::none</title>
<ellipse fill="none" stroke="black" cx="1887.23" cy="-200" rx="27.9" ry="18"/>
<text text-anchor="middle" x="1887.23" y="-196.3" font-family="Times,serif" font-size="14.00">none</text>
</g>
<!-- account::create_account_unchecked&#45;&gt;option::none -->
<g id="edge23" class="edge">
<title>account::create_account_unchecked&#45;&gt;option::none</title>
<path fill="none" stroke="black" d="M689.08,-267.32C707.47,-263.14 728.1,-259.14 747.23,-257 777.59,-253.6 1819.6,-262.06 1847.23,-249 1857.45,-244.16 1865.98,-235.3 1872.51,-226.5"/>
<polygon fill="black" stroke="black" points="1875.26,-228.67 1877.93,-218.42 1869.45,-224.77 1875.26,-228.67"/>
</g>
<!-- bcs::to_bytes -->
<g id="node21" class="node">
<title>bcs::to_bytes</title>
<ellipse fill="none" stroke="black" cx="501.23" cy="-117" rx="40.09" ry="18"/>
<text text-anchor="middle" x="501.23" y="-113.3" font-family="Times,serif" font-size="14.00">to_bytes</text>
</g>
<!-- account::create_account_unchecked&#45;&gt;bcs::to_bytes -->
<g id="edge25" class="edge">
<title>account::create_account_unchecked&#45;&gt;bcs::to_bytes</title>
<path fill="none" stroke="black" d="M634.7,-264.81C635.75,-241.81 634.3,-200.83 614.23,-174 597.86,-152.13 570.61,-138.28 546.98,-129.82"/>
<polygon fill="black" stroke="black" points="548.1,-126.51 537.51,-126.68 545.9,-133.15 548.1,-126.51"/>
</g>
<!-- guid::create -->
<g id="node22" class="node">
<title>guid::create</title>
<ellipse fill="none" stroke="black" cx="916.23" cy="-200" rx="31.7" ry="18"/>
<text text-anchor="middle" x="916.23" y="-196.3" font-family="Times,serif" font-size="14.00">create</text>
</g>
<!-- account::create_account_unchecked&#45;&gt;guid::create -->
<g id="edge26" class="edge">
<title>account::create_account_unchecked&#45;&gt;guid::create</title>
<path fill="none" stroke="black" d="M690.91,-267.57C708.85,-263.56 728.77,-259.6 747.23,-257 774.79,-253.12 847.12,-261.02 872.23,-249 882.82,-243.93 892.06,-235.07 899.31,-226.33"/>
<polygon fill="black" stroke="black" points="901.9,-228.7 905.18,-218.63 896.33,-224.45 901.9,-228.7"/>
</g>
<!-- event::new_event_handle -->
<g id="node23" class="node">
<title>event::new_event_handle</title>
<ellipse fill="none" stroke="black" cx="228.23" cy="-200" rx="76.89" ry="18"/>
<text text-anchor="middle" x="228.23" y="-196.3" font-family="Times,serif" font-size="14.00">new_event_handle</text>
</g>
<!-- account::create_account_unchecked&#45;&gt;event::new_event_handle -->
<g id="edge27" class="edge">
<title>account::create_account_unchecked&#45;&gt;event::new_event_handle</title>
<path fill="none" stroke="black" d="M552.42,-271.14C514.99,-266.36 469.89,-260.94 429.23,-257 379.55,-252.19 365.15,-262.93 317.23,-249 297.68,-243.32 277.59,-232.94 261.45,-223.28"/>
<polygon fill="black" stroke="black" points="263.58,-220.49 253.24,-218.2 259.9,-226.44 263.58,-220.49"/>
</g>
<!-- account::create_signer -->
<g id="node24" class="node">
<title>account::create_signer</title>
<ellipse fill="none" stroke="black" cx="547.23" cy="-200" rx="57.69" ry="18"/>
<text text-anchor="middle" x="547.23" y="-196.3" font-family="Times,serif" font-size="14.00">create_signer</text>
</g>
<!-- account::create_account_unchecked&#45;&gt;account::create_signer -->
<g id="edge28" class="edge">
<title>account::create_account_unchecked&#45;&gt;account::create_signer</title>
<path fill="none" stroke="black" d="M614.99,-264.82C602.74,-253.28 586.42,-237.92 572.87,-225.15"/>
<polygon fill="black" stroke="black" points="575.63,-222.95 565.95,-218.64 570.83,-228.04 575.63,-222.95"/>
</g>
<!-- signer::borrow_address -->
<g id="node25" class="node">
<title>signer::borrow_address</title>
<ellipse fill="none" stroke="black" cx="1768.23" cy="-117" rx="66.89" ry="18"/>
<text text-anchor="middle" x="1768.23" y="-113.3" font-family="Times,serif" font-size="14.00">borrow_address</text>
</g>
<!-- signer::address_of&#45;&gt;signer::borrow_address -->
<g id="edge29" class="edge">
<title>signer::address_of&#45;&gt;signer::borrow_address</title>
<path fill="none" stroke="black" d="M1761.13,-181.82C1762.27,-171.58 1763.74,-158.33 1765.05,-146.55"/>
<polygon fill="black" stroke="black" points="1768.5,-147.26 1766.12,-136.94 1761.54,-146.49 1768.5,-147.26"/>
</g>
<!-- account::new_event_handle&#45;&gt;event::new_event_handle -->
<g id="edge30" class="edge">
<title>account::new_event_handle&#45;&gt;event::new_event_handle</title>
<path fill="none" stroke="black" d="M479.71,-348.83C429.26,-319.17 321.94,-256.09 265.19,-222.73"/>
<polygon fill="black" stroke="black" points="267.23,-219.87 256.84,-217.82 263.69,-225.9 267.23,-219.87"/>
</g>
<!-- account::create_guid -->
<g id="node26" class="node">
<title>account::create_guid</title>
<ellipse fill="none" stroke="black" cx="808.23" cy="-283" rx="51.99" ry="18"/>
<text text-anchor="middle" x="808.23" y="-279.3" font-family="Times,serif" font-size="14.00">create_guid</text>
</g>
<!-- account::new_event_handle&#45;&gt;account::create_guid -->
<g id="edge31" class="edge">
<title>account::new_event_handle&#45;&gt;account::create_guid</title>
<path fill="none" stroke="black" d="M549.14,-350.56C562.73,-346.45 577.97,-342.43 592.23,-340 626.23,-334.21 714.94,-344.12 747.23,-332 761.02,-326.82 774.17,-317.3 784.7,-308.1"/>
<polygon fill="black" stroke="black" points="786.79,-310.93 791.77,-301.58 782.05,-305.79 786.79,-310.93"/>
</g>
<!-- type_info::type_of -->
<g id="node27" class="node">
<title>type_info::type_of</title>
<ellipse fill="none" stroke="black" cx="1092.23" cy="-283" rx="37.89" ry="18"/>
<text text-anchor="middle" x="1092.23" y="-279.3" font-family="Times,serif" font-size="14.00">type_of</text>
</g>
<!-- account::register_coin&#45;&gt;type_info::type_of -->
<g id="edge32" class="edge">
<title>account::register_coin&#45;&gt;type_info::type_of</title>
<path fill="none" stroke="black" d="M836,-350.91C847.28,-346.67 860.12,-342.48 872.23,-340 934.59,-327.24 954.54,-351.22 1015.23,-332 1033.04,-326.36 1050.88,-315.64 1064.89,-305.76"/>
<polygon fill="black" stroke="black" points="1066.72,-308.76 1072.72,-300.02 1062.58,-303.11 1066.72,-308.76"/>
</g>
<!-- event::emit_event -->
<g id="node28" class="node">
<title>event::emit_event</title>
<ellipse fill="none" stroke="black" cx="83.23" cy="-200" rx="50.09" ry="18"/>
<text text-anchor="middle" x="83.23" y="-196.3" font-family="Times,serif" font-size="14.00">emit_event</text>
</g>
<!-- account::register_coin&#45;&gt;event::emit_event -->
<g id="edge33" class="edge">
<title>account::register_coin&#45;&gt;event::emit_event</title>
<path fill="none" stroke="black" d="M772.12,-350.64C761.58,-346.42 749.6,-342.33 738.23,-340 642.8,-320.47 615.73,-345.19 519.23,-332 377.49,-312.63 346.97,-282.58 206.23,-257 178.02,-251.87 168.59,-260.26 142.23,-249 129.08,-243.38 116.5,-233.93 106.35,-224.89"/>
<polygon fill="black" stroke="black" points="108.91,-222.49 99.22,-218.2 104.12,-227.59 108.91,-222.49"/>
</g>
<!-- error::not_found&#45;&gt;error::canonical -->
<g id="edge34" class="edge">
<title>error::not_found&#45;&gt;error::canonical</title>
<path fill="none" stroke="black" d="M1470.84,-184.52C1447.98,-171.48 1414.19,-152.2 1388.85,-137.75"/>
<polygon fill="black" stroke="black" points="1390.65,-134.75 1380.23,-132.83 1387.18,-140.83 1390.65,-134.75"/>
</g>
<!-- coin::deposit&#45;&gt;coin::is_account_registered -->
<g id="edge38" class="edge">
<title>coin::deposit&#45;&gt;coin::is_account_registered</title>
<path fill="none" stroke="black" d="M1139.23,-434.07C1118.14,-429.88 1090.69,-423.5 1067.23,-415 1047.45,-407.84 1026.46,-397.66 1009.16,-388.52"/>
<polygon fill="black" stroke="black" points="1011.24,-385.66 1000.77,-384.01 1007.92,-391.83 1011.24,-385.66"/>
</g>
<!-- coin::deposit&#45;&gt;error::not_found -->
<g id="edge35" class="edge">
<title>coin::deposit&#45;&gt;error::not_found</title>
<path fill="none" stroke="black" d="M1206.82,-433.98C1228.55,-430.29 1257.48,-425.76 1283.23,-423 1297.84,-421.43 1403.39,-423.71 1415.23,-415 1475.11,-370.9 1490.72,-276.86 1494.79,-229.5"/>
<polygon fill="black" stroke="black" points="1498.27,-230 1495.51,-219.77 1491.29,-229.49 1498.27,-230"/>
</g>
<!-- coin::deposit&#45;&gt;event::emit_event -->
<g id="edge37" class="edge">
<title>coin::deposit&#45;&gt;event::emit_event</title>
<path fill="none" stroke="black" d="M1137.91,-435.82C1101.48,-431.71 1042.97,-425.68 992.23,-423 973.5,-422.01 334.66,-421.89 317.23,-415 218.79,-376.1 136.23,-274.93 101.22,-226.96"/>
<polygon fill="black" stroke="black" points="104.23,-225.15 95.55,-219.07 98.54,-229.24 104.23,-225.15"/>
</g>
<!-- error::permission_denied -->
<g id="node29" class="node">
<title>error::permission_denied</title>
<ellipse fill="none" stroke="black" cx="1354.23" cy="-200" rx="77.19" ry="18"/>
<text text-anchor="middle" x="1354.23" y="-196.3" font-family="Times,serif" font-size="14.00">permission_denied</text>
</g>
<!-- coin::deposit&#45;&gt;error::permission_denied -->
<g id="edge36" class="edge">
<title>coin::deposit&#45;&gt;error::permission_denied</title>
<path fill="none" stroke="black" d="M1206.83,-434.12C1228.57,-430.48 1257.5,-425.96 1283.23,-423 1294.85,-421.66 1380.27,-423.58 1388.23,-415 1435.96,-363.49 1407.15,-324.62 1388.23,-257 1385.33,-246.65 1379.94,-236.32 1374.3,-227.4"/>
<polygon fill="black" stroke="black" points="1377.29,-225.57 1368.78,-219.25 1371.49,-229.49 1377.29,-225.57"/>
</g>
<!-- coin::merge -->
<g id="node30" class="node">
<title>coin::merge</title>
<ellipse fill="none" stroke="black" cx="1109.23" cy="-366" rx="33.29" ry="18"/>
<text text-anchor="middle" x="1109.23" y="-362.3" font-family="Times,serif" font-size="14.00">merge</text>
</g>
<!-- coin::deposit&#45;&gt;coin::merge -->
<g id="edge39" class="edge">
<title>coin::deposit&#45;&gt;coin::merge</title>
<path fill="none" stroke="black" d="M1159.25,-424.14C1156.59,-421.1 1153.82,-417.96 1151.23,-415 1144.4,-407.22 1136.96,-398.73 1130.27,-391.08"/>
<polygon fill="black" stroke="black" points="1133.05,-388.94 1123.83,-383.71 1127.78,-393.55 1133.05,-388.94"/>
</g>
<!-- option::borrow_mut -->
<g id="node31" class="node">
<title>option::borrow_mut</title>
<ellipse fill="none" stroke="black" cx="1988.23" cy="-200" rx="54.69" ry="18"/>
<text text-anchor="middle" x="1988.23" y="-196.3" font-family="Times,serif" font-size="14.00">borrow_mut</text>
</g>
<!-- coin::mint&#45;&gt;option::borrow_mut -->
<g id="edge40" class="edge">
<title>coin::mint&#45;&gt;option::borrow_mut</title>
<path fill="none" stroke="black" d="M1346.72,-439.76C1441.77,-438.77 1752.91,-434.09 1793.23,-415 1879.59,-374.1 1945.23,-275.92 1973.29,-228.1"/>
<polygon fill="black" stroke="black" points="1976.3,-229.88 1978.25,-219.47 1970.23,-226.39 1976.3,-229.88"/>
</g>
<!-- option::is_some -->
<g id="node32" class="node">
<title>option::is_some</title>
<ellipse fill="none" stroke="black" cx="1995.23" cy="-117" rx="40.09" ry="18"/>
<text text-anchor="middle" x="1995.23" y="-113.3" font-family="Times,serif" font-size="14.00">is_some</text>
</g>
<!-- coin::mint&#45;&gt;option::is_some -->
<g id="edge41" class="edge">
<title>coin::mint&#45;&gt;option::is_some</title>
<path fill="none" stroke="black" d="M1346.58,-439.68C1449.12,-438.35 1807.31,-432.48 1855.23,-415 1969.3,-373.38 2018.44,-357.87 2072.23,-249 2086.99,-219.12 2087.35,-203.7 2072.23,-174 2063.86,-157.57 2048.16,-144.82 2033.11,-135.67"/>
<polygon fill="black" stroke="black" points="2035.14,-132.8 2024.71,-130.92 2031.69,-138.89 2035.14,-132.8"/>
</g>
<!-- optional_aggregator::add -->
<g id="node33" class="node">
<title>optional_aggregator::add</title>
<ellipse fill="none" stroke="black" cx="1724.23" cy="-366" rx="27" ry="18"/>
<text text-anchor="middle" x="1724.23" y="-362.3" font-family="Times,serif" font-size="14.00">add</text>
</g>
<!-- coin::mint&#45;&gt;optional_aggregator::add -->
<g id="edge42" class="edge">
<title>coin::mint&#45;&gt;optional_aggregator::add</title>
<path fill="none" stroke="black" d="M1345.96,-437.76C1407.55,-432.54 1555.9,-419.69 1578.23,-415 1617.82,-406.69 1661.73,-391.38 1690.95,-380.28"/>
<polygon fill="black" stroke="black" points="1691.91,-383.67 1699.98,-376.81 1689.39,-377.14 1691.91,-383.67"/>
</g>
<!-- coin::coin_address -->
<g id="node34" class="node">
<title>coin::coin_address</title>
<ellipse fill="none" stroke="black" cx="1217.23" cy="-366" rx="56.59" ry="18"/>
<text text-anchor="middle" x="1217.23" y="-362.3" font-family="Times,serif" font-size="14.00">coin_address</text>
</g>
<!-- coin::mint&#45;&gt;coin::coin_address -->
<g id="edge43" class="edge">
<title>coin::mint&#45;&gt;coin::coin_address</title>
<path fill="none" stroke="black" d="M1300.86,-427.36C1295.19,-423.42 1288.93,-419.06 1283.23,-415 1271.7,-406.81 1259.14,-397.71 1248.09,-389.66"/>
<polygon fill="black" stroke="black" points="1250.2,-386.87 1240.06,-383.79 1246.07,-392.52 1250.2,-386.87"/>
</g>
<!-- coin::zero -->
<g id="node35" class="node">
<title>coin::zero</title>
<ellipse fill="none" stroke="black" cx="1319.23" cy="-366" rx="27" ry="18"/>
<text text-anchor="middle" x="1319.23" y="-362.3" font-family="Times,serif" font-size="14.00">zero</text>
</g>
<!-- coin::mint&#45;&gt;coin::zero -->
<g id="edge44" class="edge">
<title>coin::mint&#45;&gt;coin::zero</title>
<path fill="none" stroke="black" d="M1319.23,-422.7C1319.23,-414.67 1319.23,-404.9 1319.23,-395.8"/>
<polygon fill="black" stroke="black" points="1322.73,-395.94 1319.23,-385.94 1315.73,-395.94 1322.73,-395.94"/>
</g>
<!-- account::create_guid&#45;&gt;signer::address_of -->
<g id="edge45" class="edge">
<title>account::create_guid&#45;&gt;signer::address_of</title>
<path fill="none" stroke="black" d="M856.07,-275.56C903.29,-269.51 977.58,-260.84 1042.23,-257 1078.11,-254.87 1654.96,-259.85 1689.23,-249 1705.23,-243.93 1720.86,-233.86 1733.27,-224.25"/>
<polygon fill="black" stroke="black" points="1735.37,-227.06 1740.92,-218.04 1730.95,-221.63 1735.37,-227.06"/>
</g>
<!-- account::create_guid&#45;&gt;guid::create -->
<g id="edge46" class="edge">
<title>account::create_guid&#45;&gt;guid::create</title>
<path fill="none" stroke="black" d="M839.82,-268.47C850.59,-263.15 862.39,-256.51 872.23,-249 880.97,-242.32 889.43,-233.78 896.55,-225.75"/>
<polygon fill="black" stroke="black" points="899.17,-228.08 902.99,-218.2 893.84,-223.54 899.17,-228.08"/>
</g>
<!-- event::emit_event&#45;&gt;bcs::to_bytes -->
<g id="edge47" class="edge">
<title>event::emit_event&#45;&gt;bcs::to_bytes</title>
<path fill="none" stroke="black" d="M111.35,-184.68C120.91,-180.47 131.81,-176.36 142.23,-174 218.15,-156.76 240.25,-177.67 317.23,-166 366.48,-158.53 421.59,-143.19 458.55,-131.86"/>
<polygon fill="black" stroke="black" points="459.45,-135.24 467.96,-128.93 457.38,-128.55 459.45,-135.24"/>
</g>
<!-- event::write_to_event_store -->
<g id="node36" class="node">
<title>event::write_to_event_store</title>
<ellipse fill="none" stroke="black" cx="118.23" cy="-117" rx="85.29" ry="18"/>
<text text-anchor="middle" x="118.23" y="-113.3" font-family="Times,serif" font-size="14.00">write_to_event_store</text>
</g>
<!-- event::emit_event&#45;&gt;event::write_to_event_store -->
<g id="edge48" class="edge">
<title>event::emit_event&#45;&gt;event::write_to_event_store</title>
<path fill="none" stroke="black" d="M90.65,-181.82C95.2,-171.3 101.12,-157.59 106.31,-145.57"/>
<polygon fill="black" stroke="black" points="109.46,-147.11 110.21,-136.54 103.03,-144.33 109.46,-147.11"/>
</g>
<!-- error::permission_denied&#45;&gt;error::canonical -->
<g id="edge49" class="edge">
<title>error::permission_denied&#45;&gt;error::canonical</title>
<path fill="none" stroke="black" d="M1354.23,-181.82C1354.23,-171.69 1354.23,-158.6 1354.23,-146.92"/>
<polygon fill="black" stroke="black" points="1357.73,-146.95 1354.23,-136.95 1350.73,-146.95 1357.73,-146.95"/>
</g>
<!-- option::borrow_mut&#45;&gt;option::is_some -->
<g id="edge50" class="edge">
<title>option::borrow_mut&#45;&gt;option::is_some</title>
<path fill="none" stroke="black" d="M1989.71,-181.82C1990.59,-171.58 1991.74,-158.33 1992.76,-146.55"/>
<polygon fill="black" stroke="black" points="1996.21,-147.2 1993.59,-136.94 1989.24,-146.6 1996.21,-147.2"/>
</g>
<!-- vector::is_empty -->
<g id="node37" class="node">
<title>vector::is_empty</title>
<ellipse fill="none" stroke="black" cx="594.23" cy="-34" rx="43.59" ry="18"/>
<text text-anchor="middle" x="594.23" y="-30.3" font-family="Times,serif" font-size="14.00">is_empty</text>
</g>
<!-- option::is_some&#45;&gt;vector::is_empty -->
<g id="edge51" class="edge">
<title>option::is_some&#45;&gt;vector::is_empty</title>
<path fill="none" stroke="black" d="M1959.21,-108.64C1929.34,-102.85 1885.71,-95.09 1847.23,-91 1386.32,-41.96 825.61,-35.76 649.72,-35.06"/>
<polygon fill="black" stroke="black" points="649.73,-31.56 639.72,-35.02 649.71,-38.56 649.73,-31.56"/>
</g>
<!-- optional_aggregator::add&#45;&gt;option::borrow_mut -->
<g id="edge52" class="edge">
<title>optional_aggregator::add&#45;&gt;option::borrow_mut</title>
<path fill="none" stroke="black" d="M1747.33,-356.18C1759.66,-350.62 1774.45,-342.51 1785.23,-332 1812.73,-305.17 1795.81,-277.63 1828.23,-257 1846.29,-245.51 1904.22,-256.61 1924.23,-249 1938.32,-243.64 1951.98,-234.19 1963.03,-225.08"/>
<polygon fill="black" stroke="black" points="1965.24,-227.8 1970.5,-218.61 1960.65,-222.51 1965.24,-227.8"/>
</g>
<!-- optional_aggregator::add&#45;&gt;option::is_some -->
<g id="edge53" class="edge">
<title>optional_aggregator::add&#45;&gt;option::is_some</title>
<path fill="none" stroke="black" d="M1751.5,-365.03C1816.74,-363.45 1981.62,-349.25 2052.23,-249 2071.42,-221.75 2065.12,-204.74 2052.23,-174 2046.65,-160.71 2036.21,-148.98 2025.77,-139.74"/>
<polygon fill="black" stroke="black" points="2028.22,-137.22 2018.28,-133.54 2023.76,-142.61 2028.22,-137.22"/>
</g>
<!-- aggregator::add -->
<g id="node38" class="node">
<title>aggregator::add</title>
<ellipse fill="none" stroke="black" cx="1621.23" cy="-283" rx="27" ry="18"/>
<text text-anchor="middle" x="1621.23" y="-279.3" font-family="Times,serif" font-size="14.00">add</text>
</g>
<!-- optional_aggregator::add&#45;&gt;aggregator::add -->
<g id="edge54" class="edge">
<title>optional_aggregator::add&#45;&gt;aggregator::add</title>
<path fill="none" stroke="black" d="M1701.24,-355.93C1688.4,-350.21 1672.55,-342.01 1660.23,-332 1652.08,-325.38 1644.47,-316.82 1638.17,-308.76"/>
<polygon fill="black" stroke="black" points="1641.1,-306.84 1632.33,-300.9 1635.48,-311.01 1641.1,-306.84"/>
</g>
<!-- optional_aggregator::add_integer -->
<g id="node39" class="node">
<title>optional_aggregator::add_integer</title>
<ellipse fill="none" stroke="black" cx="1724.23" cy="-283" rx="51.99" ry="18"/>
<text text-anchor="middle" x="1724.23" y="-279.3" font-family="Times,serif" font-size="14.00">add_integer</text>
</g>
<!-- optional_aggregator::add&#45;&gt;optional_aggregator::add_integer -->
<g id="edge55" class="edge">
<title>optional_aggregator::add&#45;&gt;optional_aggregator::add_integer</title>
<path fill="none" stroke="black" d="M1724.23,-347.82C1724.23,-337.69 1724.23,-324.6 1724.23,-312.92"/>
<polygon fill="black" stroke="black" points="1727.73,-312.95 1724.23,-302.95 1720.73,-312.95 1727.73,-312.95"/>
</g>
<!-- coin::coin_address&#45;&gt;type_info::type_of -->
<g id="edge57" class="edge">
<title>coin::coin_address&#45;&gt;type_info::type_of</title>
<path fill="none" stroke="black" d="M1179.17,-352.4C1165.94,-347.13 1151.38,-340.28 1139.23,-332 1129.74,-325.54 1120.6,-316.95 1112.95,-308.83"/>
<polygon fill="black" stroke="black" points="1115.58,-306.53 1106.29,-301.44 1110.38,-311.21 1115.58,-306.53"/>
</g>
<!-- type_info::account_address -->
<g id="node40" class="node">
<title>type_info::account_address</title>
<ellipse fill="none" stroke="black" cx="1217.23" cy="-283" rx="68.79" ry="18"/>
<text text-anchor="middle" x="1217.23" y="-279.3" font-family="Times,serif" font-size="14.00">account_address</text>
</g>
<!-- coin::coin_address&#45;&gt;type_info::account_address -->
<g id="edge56" class="edge">
<title>coin::coin_address&#45;&gt;type_info::account_address</title>
<path fill="none" stroke="black" d="M1217.23,-347.82C1217.23,-337.69 1217.23,-324.6 1217.23,-312.92"/>
<polygon fill="black" stroke="black" points="1220.73,-312.95 1217.23,-302.95 1213.73,-312.95 1220.73,-312.95"/>
</g>
<!-- error::out_of_range -->
<g id="node41" class="node">
<title>error::out_of_range</title>
<ellipse fill="none" stroke="black" cx="1619.23" cy="-200" rx="57.69" ry="18"/>
<text text-anchor="middle" x="1619.23" y="-196.3" font-family="Times,serif" font-size="14.00">out_of_range</text>
</g>
<!-- optional_aggregator::add_integer&#45;&gt;error::out_of_range -->
<g id="edge58" class="edge">
<title>optional_aggregator::add_integer&#45;&gt;error::out_of_range</title>
<path fill="none" stroke="black" d="M1703.73,-266.19C1688.08,-254.11 1666.29,-237.3 1648.75,-223.78"/>
<polygon fill="black" stroke="black" points="1651.28,-221.31 1641.23,-217.97 1647.01,-226.85 1651.28,-221.31"/>
</g>
<!-- error::out_of_range&#45;&gt;error::canonical -->
<g id="edge59" class="edge">
<title>error::out_of_range&#45;&gt;error::canonical</title>
<path fill="none" stroke="black" d="M1584.3,-185.35C1574.02,-181.51 1562.73,-177.44 1552.23,-174 1501.44,-157.37 1442.4,-141.06 1402.09,-130.37"/>
<polygon fill="black" stroke="black" points="1403.01,-126.99 1392.45,-127.82 1401.23,-133.76 1403.01,-126.99"/>
</g>
</g>
</svg>
