<?xml version="1.0" encoding="UTF-8" standalone="no"?>
<!DOCTYPE svg PUBLIC "-//W3C//DTD SVG 1.1//EN"
 "http://www.w3.org/Graphics/SVG/1.1/DTD/svg11.dtd">
<!-- Generated by graphviz version 7.0.0 (20221023.0053)
 -->
<!-- Title: G Pages: 1 -->
<svg width="355pt" height="260pt"
 viewBox="0.00 0.00 355.07 260.00" xmlns="http://www.w3.org/2000/svg" xmlns:xlink="http://www.w3.org/1999/xlink">
<g id="graph0" class="graph" transform="scale(1 1) rotate(0) translate(4 256)">
<title>G</title>
<polygon fill="white" stroke="none" points="-4,4 -4,-256 351.07,-256 351.07,4 -4,4"/>
<!-- create_initialize_validator -->
<g id="node1" class="node">
<title>create_initialize_validator</title>
<ellipse fill="none" stroke="black" cx="173.53" cy="-18" rx="102.88" ry="18"/>
<text text-anchor="middle" x="173.53" y="-14.3" font-family="Times,serif" font-size="14.00">create_initialize_validator</text>
</g>
<!-- create_initialize_validators_with_commission -->
<g id="node2" class="node">
<title>create_initialize_validators_with_commission</title>
<ellipse fill="none" stroke="black" cx="173.53" cy="-90" rx="173.57" ry="18"/>
<text text-anchor="middle" x="173.53" y="-86.3" font-family="Times,serif" font-size="14.00">create_initialize_validators_with_commission</text>
</g>
<!-- create_initialize_validators_with_commission&#45;&gt;create_initialize_validator -->
<g id="edge1" class="edge">
<title>create_initialize_validators_with_commission&#45;&gt;create_initialize_validator</title>
<path fill="none" stroke="black" d="M173.53,-71.7C173.53,-64.41 173.53,-55.73 173.53,-47.54"/>
<polygon fill="black" stroke="black" points="177.03,-47.62 173.53,-37.62 170.03,-47.62 177.03,-47.62"/>
</g>
<!-- create_initialize_validators -->
<g id="node3" class="node">
<title>create_initialize_validators</title>
<ellipse fill="none" stroke="black" cx="173.53" cy="-162" rx="105.88" ry="18"/>
<text text-anchor="middle" x="173.53" y="-158.3" font-family="Times,serif" font-size="14.00">create_initialize_validators</text>
</g>
<!-- create_initialize_validators&#45;&gt;create_initialize_validators_with_commission -->
<g id="edge2" class="edge">
<title>create_initialize_validators&#45;&gt;create_initialize_validators_with_commission</title>
<path fill="none" stroke="black" d="M173.53,-143.7C173.53,-136.41 173.53,-127.73 173.53,-119.54"/>
<polygon fill="black" stroke="black" points="177.03,-119.62 173.53,-109.62 170.03,-119.62 177.03,-119.62"/>
</g>
<!-- initialize_for_verification -->
<g id="node4" class="node">
<title>initialize_for_verification</title>
<ellipse fill="none" stroke="black" cx="173.53" cy="-234" rx="100.98" ry="18"/>
<text text-anchor="middle" x="173.53" y="-230.3" font-family="Times,serif" font-size="14.00">initialize_for_verification</text>
</g>
<!-- initialize_for_verification&#45;&gt;create_initialize_validators -->
<g id="edge3" class="edge">
<title>initialize_for_verification&#45;&gt;create_initialize_validators</title>
<path fill="none" stroke="black" d="M173.53,-215.7C173.53,-208.41 173.53,-199.73 173.53,-191.54"/>
<polygon fill="black" stroke="black" points="177.03,-191.62 173.53,-181.62 170.03,-191.62 177.03,-191.62"/>
</g>
</g>
</svg>
