<?xml version="1.0" encoding="UTF-8" standalone="no"?>
<!DOCTYPE svg PUBLIC "-//W3C//DTD SVG 1.1//EN"
 "http://www.w3.org/Graphics/SVG/1.1/DTD/svg11.dtd">
<!-- Generated by graphviz version 7.0.0 (20221023.0053)
 -->
<!-- Title: G Pages: 1 -->
<svg width="299pt" height="227pt"
 viewBox="0.00 0.00 298.94 227.00" xmlns="http://www.w3.org/2000/svg" xmlns:xlink="http://www.w3.org/1999/xlink">
<g id="graph0" class="graph" transform="scale(1 1) rotate(0) translate(4 223)">
<title>G</title>
<polygon fill="white" stroke="none" points="-4,4 -4,-223 294.94,-223 294.94,4 -4,4"/>
<g id="clust1" class="cluster">
<title>cluster_aptos_governance</title>
<polygon fill="none" stroke="black" points="8,-136 8,-211 228,-211 228,-136 8,-136"/>
<text text-anchor="middle" x="118" y="-195.8" font-family="Times,serif" font-size="14.00">aptos_governance</text>
</g>
<!-- create_proposal -->
<g id="node1" class="node">
<title>create_proposal</title>
<ellipse fill="none" stroke="black" cx="137" cy="-18" rx="66.09" ry="18"/>
<text text-anchor="middle" x="137" y="-14.3" font-family="Times,serif" font-size="14.00">create_proposal</text>
</g>
<!-- create_empty_proposal -->
<g id="node2" class="node">
<title>create_empty_proposal</title>
<ellipse fill="none" stroke="black" cx="198" cy="-90" rx="92.88" ry="18"/>
<text text-anchor="middle" x="198" y="-86.3" font-family="Times,serif" font-size="14.00">create_empty_proposal</text>
</g>
<!-- create_empty_proposal&#45;&gt;create_proposal -->
<g id="edge1" class="edge">
<title>create_empty_proposal&#45;&gt;create_proposal</title>
<path fill="none" stroke="black" d="M183.23,-72.05C175.97,-63.71 167.06,-53.49 159.01,-44.25"/>
<polygon fill="black" stroke="black" points="161.83,-42.17 152.62,-36.93 156.56,-46.77 161.83,-42.17"/>
</g>
<!-- aptos_governance::create_proposal -->
<g id="node3" class="node">
<title>aptos_governance::create_proposal</title>
<ellipse fill="none" stroke="black" cx="82" cy="-162" rx="66.09" ry="18"/>
<text text-anchor="middle" x="82" y="-158.3" font-family="Times,serif" font-size="14.00">create_proposal</text>
</g>
<!-- aptos_governance::create_proposal&#45;&gt;create_proposal -->
<g id="edge2" class="edge">
<title>aptos_governance::create_proposal&#45;&gt;create_proposal</title>
<path fill="none" stroke="black" d="M82.2,-143.57C82.99,-125.09 85.9,-95.41 96,-72 100.22,-62.22 106.66,-52.66 113.2,-44.41"/>
<polygon fill="black" stroke="black" points="115.78,-46.78 119.54,-36.87 110.42,-42.27 115.78,-46.78"/>
</g>
<!-- aptos_governance::vote -->
<g id="node4" class="node">
<title>aptos_governance::vote</title>
<ellipse fill="none" stroke="black" cx="193" cy="-162" rx="27" ry="18"/>
<text text-anchor="middle" x="193" y="-158.3" font-family="Times,serif" font-size="14.00">vote</text>
</g>
<!-- aptos_governance::vote&#45;&gt;create_empty_proposal -->
<g id="edge3" class="edge">
<title>aptos_governance::vote&#45;&gt;create_empty_proposal</title>
<path fill="none" stroke="black" d="M194.24,-143.7C194.76,-136.41 195.38,-127.73 195.96,-119.54"/>
<polygon fill="black" stroke="black" points="199.45,-119.84 196.67,-109.61 192.47,-119.34 199.45,-119.84"/>
</g>
</g>
</svg>
