<?xml version="1.0" encoding="UTF-8" standalone="no"?>
<!DOCTYPE svg PUBLIC "-//W3C//DTD SVG 1.1//EN"
 "http://www.w3.org/Graphics/SVG/1.1/DTD/svg11.dtd">
<!-- Generated by graphviz version 7.0.0 (20221023.0053)
 -->
<!-- Title: G Pages: 1 -->
<svg width="1692pt" height="620pt"
 viewBox="0.00 0.00 1692.39 620.00" xmlns="http://www.w3.org/2000/svg" xmlns:xlink="http://www.w3.org/1999/xlink">
<g id="graph0" class="graph" transform="scale(1 1) rotate(0) translate(4 616)">
<title>G</title>
<polygon fill="white" stroke="none" points="-4,4 -4,-616 1688.39,-616 1688.39,4 -4,4"/>
<!-- guid -->
<g id="node1" class="node">
<title>guid</title>
<ellipse fill="none" stroke="black" cx="606.55" cy="-18" rx="27" ry="18"/>
<text text-anchor="middle" x="606.55" y="-14.3" font-family="Times,serif" font-size="14.00">guid</text>
</g>
<!-- event -->
<g id="node2" class="node">
<title>event</title>
<ellipse fill="none" stroke="black" cx="577.55" cy="-90" rx="29.8" ry="18"/>
<text text-anchor="middle" x="577.55" y="-86.3" font-family="Times,serif" font-size="14.00">event</text>
</g>
<!-- event&#45;&gt;guid -->
<g id="edge1" class="edge">
<title>event&#45;&gt;guid</title>
<path fill="none" stroke="black" d="M584.57,-72.05C587.77,-64.32 591.65,-54.96 595.25,-46.27"/>
<polygon fill="black" stroke="black" points="598.42,-47.77 599.01,-37.19 591.95,-45.09 598.42,-47.77"/>
</g>
<!-- account -->
<g id="node3" class="node">
<title>account</title>
<ellipse fill="none" stroke="black" cx="746.55" cy="-162" rx="38.19" ry="18"/>
<text text-anchor="middle" x="746.55" y="-158.3" font-family="Times,serif" font-size="14.00">account</text>
</g>
<!-- account&#45;&gt;guid -->
<g id="edge2" class="edge">
<title>account&#45;&gt;guid</title>
<path fill="none" stroke="black" d="M731.03,-145.26C706.15,-120.02 657.23,-70.41 628.69,-41.46"/>
<polygon fill="black" stroke="black" points="631.45,-39.27 621.94,-34.61 626.46,-44.19 631.45,-39.27"/>
</g>
<!-- account&#45;&gt;event -->
<g id="edge3" class="edge">
<title>account&#45;&gt;event</title>
<path fill="none" stroke="black" d="M718.64,-149.44C689.46,-137.35 643.6,-118.36 612.14,-105.33"/>
<polygon fill="black" stroke="black" points="613.64,-102.16 603.06,-101.57 610.96,-108.63 613.64,-102.16"/>
</g>
<!-- coin -->
<g id="node4" class="node">
<title>coin</title>
<ellipse fill="none" stroke="black" cx="825.55" cy="-234" rx="27" ry="18"/>
<text text-anchor="middle" x="825.55" y="-230.3" font-family="Times,serif" font-size="14.00">coin</text>
</g>
<!-- coin&#45;&gt;event -->
<g id="edge4" class="edge">
<title>coin&#45;&gt;event</title>
<path fill="none" stroke="black" d="M802.03,-224.97C776.13,-215.71 733.64,-199.26 699.55,-180 664.28,-160.08 627.15,-131.79 603.25,-112.49"/>
<polygon fill="black" stroke="black" points="605.59,-109.88 595.63,-106.27 601.17,-115.31 605.59,-109.88"/>
</g>
<!-- coin&#45;&gt;account -->
<g id="edge12" class="edge">
<title>coin&#45;&gt;account</title>
<path fill="none" stroke="black" d="M809.94,-219.17C799.23,-209.68 784.76,-196.86 772.36,-185.87"/>
<polygon fill="black" stroke="black" points="774.71,-183.28 764.9,-179.26 770.07,-188.51 774.71,-183.28"/>
</g>
<!-- voting -->
<g id="node5" class="node">
<title>voting</title>
<ellipse fill="none" stroke="black" cx="492.55" cy="-234" rx="33.29" ry="18"/>
<text text-anchor="middle" x="492.55" y="-230.3" font-family="Times,serif" font-size="14.00">voting</text>
</g>
<!-- voting&#45;&gt;event -->
<g id="edge5" class="edge">
<title>voting&#45;&gt;event</title>
<path fill="none" stroke="black" d="M500.55,-216.22C509.42,-198.04 524.47,-168.37 539.55,-144 545.35,-134.63 552.23,-124.72 558.54,-116.03"/>
<polygon fill="black" stroke="black" points="561.3,-118.19 564.42,-108.06 555.67,-114.03 561.3,-118.19"/>
</g>
<!-- voting&#45;&gt;account -->
<g id="edge14" class="edge">
<title>voting&#45;&gt;account</title>
<path fill="none" stroke="black" d="M521.93,-224.9C566.58,-212.6 651.77,-189.12 703.43,-174.88"/>
<polygon fill="black" stroke="black" points="704.07,-178.34 712.78,-172.31 702.21,-171.59 704.07,-178.34"/>
</g>
<!-- stake -->
<g id="node6" class="node">
<title>stake</title>
<ellipse fill="none" stroke="black" cx="640.55" cy="-378" rx="28.7" ry="18"/>
<text text-anchor="middle" x="640.55" y="-374.3" font-family="Times,serif" font-size="14.00">stake</text>
</g>
<!-- stake&#45;&gt;event -->
<g id="edge6" class="edge">
<title>stake&#45;&gt;event</title>
<path fill="none" stroke="black" d="M636.8,-359.97C626.34,-312.49 596.78,-178.31 583.8,-119.36"/>
<polygon fill="black" stroke="black" points="587.26,-118.8 581.69,-109.78 580.42,-120.3 587.26,-118.8"/>
</g>
<!-- stake&#45;&gt;account -->
<g id="edge15" class="edge">
<title>stake&#45;&gt;account</title>
<path fill="none" stroke="black" d="M648.69,-360.56C666.87,-323.85 710.93,-234.91 733.2,-189.96"/>
<polygon fill="black" stroke="black" points="736.26,-191.66 737.56,-181.14 729.99,-188.55 736.26,-191.66"/>
</g>
<!-- stake&#45;&gt;coin -->
<g id="edge26" class="edge">
<title>stake&#45;&gt;coin</title>
<path fill="none" stroke="black" d="M656.63,-362.56C677.02,-344.48 713.51,-312.84 746.55,-288 762.79,-275.79 781.67,-263.07 796.9,-253.16"/>
<polygon fill="black" stroke="black" points="798.54,-256.26 805.04,-247.9 794.74,-250.38 798.54,-256.26"/>
</g>
<!-- aptos_coin -->
<g id="node16" class="node">
<title>aptos_coin</title>
<ellipse fill="none" stroke="black" cx="1030.55" cy="-306" rx="48.99" ry="18"/>
<text text-anchor="middle" x="1030.55" y="-302.3" font-family="Times,serif" font-size="14.00">aptos_coin</text>
</g>
<!-- stake&#45;&gt;aptos_coin -->
<g id="edge59" class="edge">
<title>stake&#45;&gt;aptos_coin</title>
<path fill="none" stroke="black" d="M663.43,-366.85C669.84,-364.31 676.88,-361.8 683.55,-360 737,-345.55 889.39,-324.91 973.34,-314.15"/>
<polygon fill="black" stroke="black" points="973.73,-317.63 983.21,-312.89 972.85,-310.68 973.73,-317.63"/>
</g>
<!-- reconfiguration -->
<g id="node7" class="node">
<title>reconfiguration</title>
<ellipse fill="none" stroke="black" cx="262.55" cy="-450" rx="64.99" ry="18"/>
<text text-anchor="middle" x="262.55" y="-446.3" font-family="Times,serif" font-size="14.00">reconfiguration</text>
</g>
<!-- reconfiguration&#45;&gt;event -->
<g id="edge7" class="edge">
<title>reconfiguration&#45;&gt;event</title>
<path fill="none" stroke="black" d="M258.3,-431.63C252.16,-404.99 241.55,-352.36 241.55,-307 241.55,-307 241.55,-307 241.55,-233 241.55,-106.48 446.18,-90.95 536.05,-90.23"/>
<polygon fill="black" stroke="black" points="535.93,-93.73 545.92,-90.22 535.92,-86.73 535.93,-93.73"/>
</g>
<!-- reconfiguration&#45;&gt;account -->
<g id="edge16" class="edge">
<title>reconfiguration&#45;&gt;account</title>
<path fill="none" stroke="black" d="M270.88,-431.73C293.14,-387.61 358.63,-270.41 450.55,-216 491.64,-191.67 625.19,-175.05 698.05,-167.54"/>
<polygon fill="black" stroke="black" points="698.09,-171.05 707.69,-166.57 697.39,-164.09 698.09,-171.05"/>
</g>
<!-- reconfiguration&#45;&gt;stake -->
<g id="edge36" class="edge">
<title>reconfiguration&#45;&gt;stake</title>
<path fill="none" stroke="black" d="M315.51,-439.19C392.72,-424.89 534.38,-398.66 602.28,-386.09"/>
<polygon fill="black" stroke="black" points="602.61,-389.58 611.81,-384.32 601.34,-382.7 602.61,-389.58"/>
</g>
<!-- aptos_governance -->
<g id="node8" class="node">
<title>aptos_governance</title>
<ellipse fill="none" stroke="black" cx="595.55" cy="-522" rx="74.19" ry="18"/>
<text text-anchor="middle" x="595.55" y="-518.3" font-family="Times,serif" font-size="14.00">aptos_governance</text>
</g>
<!-- aptos_governance&#45;&gt;event -->
<g id="edge8" class="edge">
<title>aptos_governance&#45;&gt;event</title>
<path fill="none" stroke="black" d="M555.43,-506.62C506.88,-486.34 431.55,-444.34 431.55,-379 431.55,-379 431.55,-379 431.55,-233 431.55,-171.07 499.9,-127.41 543.06,-106.01"/>
<polygon fill="black" stroke="black" points="544.56,-109.17 552.07,-101.7 541.54,-102.86 544.56,-109.17"/>
</g>
<!-- aptos_governance&#45;&gt;account -->
<g id="edge17" class="edge">
<title>aptos_governance&#45;&gt;account</title>
<path fill="none" stroke="black" d="M590.27,-504.01C587.35,-493.7 584.03,-480.23 582.55,-468 576.78,-420.31 573.46,-406.22 586.55,-360 608.1,-283.9 678.1,-217.65 718.01,-184.87"/>
<polygon fill="black" stroke="black" points="719.98,-187.77 725.57,-178.77 715.59,-182.32 719.98,-187.77"/>
</g>
<!-- aptos_governance&#45;&gt;coin -->
<g id="edge27" class="edge">
<title>aptos_governance&#45;&gt;coin</title>
<path fill="none" stroke="black" d="M591.76,-503.79C585.9,-472.93 577.75,-407.02 602.55,-360 639.97,-289.05 735.71,-255.98 788.76,-242.66"/>
<polygon fill="black" stroke="black" points="789.33,-246.13 798.24,-240.4 787.7,-239.32 789.33,-246.13"/>
</g>
<!-- aptos_governance&#45;&gt;voting -->
<g id="edge35" class="edge">
<title>aptos_governance&#45;&gt;voting</title>
<path fill="none" stroke="black" d="M568.19,-504.95C555.03,-495.79 540.26,-483.13 531.55,-468 493.69,-402.26 490.18,-309.88 491.15,-263.67"/>
<polygon fill="black" stroke="black" points="494.63,-264.06 491.44,-253.96 487.64,-263.85 494.63,-264.06"/>
</g>
<!-- aptos_governance&#45;&gt;stake -->
<g id="edge37" class="edge">
<title>aptos_governance&#45;&gt;stake</title>
<path fill="none" stroke="black" d="M601.07,-503.59C608.7,-479.5 622.56,-435.75 631.66,-407.03"/>
<polygon fill="black" stroke="black" points="634.98,-408.14 634.67,-397.55 628.31,-406.03 634.98,-408.14"/>
</g>
<!-- aptos_governance&#45;&gt;reconfiguration -->
<g id="edge43" class="edge">
<title>aptos_governance&#45;&gt;reconfiguration</title>
<path fill="none" stroke="black" d="M540.93,-509.52C481.44,-497.01 386.47,-477.05 324.31,-463.98"/>
<polygon fill="black" stroke="black" points="325.09,-460.57 314.58,-461.94 323.65,-467.42 325.09,-460.57"/>
</g>
<!-- aptos_governance&#45;&gt;aptos_coin -->
<g id="edge60" class="edge">
<title>aptos_governance&#45;&gt;aptos_coin</title>
<path fill="none" stroke="black" d="M607.77,-504.05C636.97,-463.63 708.95,-364.62 716.55,-360 738.14,-346.86 889.07,-325.45 973.57,-314.29"/>
<polygon fill="black" stroke="black" points="973.82,-317.79 983.28,-313.02 972.91,-310.85 973.82,-317.79"/>
</g>
<!-- block -->
<g id="node9" class="node">
<title>block</title>
<ellipse fill="none" stroke="black" cx="472.55" cy="-522" rx="30.59" ry="18"/>
<text text-anchor="middle" x="472.55" y="-518.3" font-family="Times,serif" font-size="14.00">block</text>
</g>
<!-- block&#45;&gt;event -->
<g id="edge9" class="edge">
<title>block&#45;&gt;event</title>
<path fill="none" stroke="black" d="M451.63,-508.63C417.98,-486.97 355.55,-438.73 355.55,-379 355.55,-379 355.55,-379 355.55,-233 355.55,-147.5 473.84,-111.16 537.72,-97.77"/>
<polygon fill="black" stroke="black" points="538.37,-101.21 547.5,-95.82 537,-94.34 538.37,-101.21"/>
</g>
<!-- block&#45;&gt;account -->
<g id="edge18" class="edge">
<title>block&#45;&gt;account</title>
<path fill="none" stroke="black" d="M477.9,-503.99C494.65,-453.36 550.72,-301.81 646.55,-216 664.21,-200.18 687.44,-187.5 707.06,-178.52"/>
<polygon fill="black" stroke="black" points="708.4,-181.75 716.15,-174.52 705.58,-175.34 708.4,-181.75"/>
</g>
<!-- block&#45;&gt;stake -->
<g id="edge38" class="edge">
<title>block&#45;&gt;stake</title>
<path fill="none" stroke="black" d="M489.58,-506.6C519.29,-481.49 580.72,-429.57 615.36,-400.29"/>
<polygon fill="black" stroke="black" points="617.43,-403.12 622.81,-393.99 612.91,-397.77 617.43,-403.12"/>
</g>
<!-- block&#45;&gt;reconfiguration -->
<g id="edge44" class="edge">
<title>block&#45;&gt;reconfiguration</title>
<path fill="none" stroke="black" d="M448.79,-510.15C443.8,-508.01 438.53,-505.85 433.55,-504 395.59,-489.9 351.99,-476.42 318.31,-466.59"/>
<polygon fill="black" stroke="black" points="319.32,-463.24 308.74,-463.82 317.37,-469.96 319.32,-463.24"/>
</g>
<!-- staking_contract -->
<g id="node10" class="node">
<title>staking_contract</title>
<ellipse fill="none" stroke="black" cx="1243.55" cy="-450" rx="68.79" ry="18"/>
<text text-anchor="middle" x="1243.55" y="-446.3" font-family="Times,serif" font-size="14.00">staking_contract</text>
</g>
<!-- staking_contract&#45;&gt;event -->
<g id="edge10" class="edge">
<title>staking_contract&#45;&gt;event</title>
<path fill="none" stroke="black" d="M1312.31,-448.34C1371.79,-445 1458.25,-433.31 1523.55,-396 1569.22,-369.91 1601.55,-359.6 1601.55,-307 1601.55,-307 1601.55,-307 1601.55,-233 1601.55,-132.03 810.26,-98.85 618.86,-92.3"/>
<polygon fill="black" stroke="black" points="619.26,-88.81 609.15,-91.97 619.03,-95.81 619.26,-88.81"/>
</g>
<!-- staking_contract&#45;&gt;account -->
<g id="edge19" class="edge">
<title>staking_contract&#45;&gt;account</title>
<path fill="none" stroke="black" d="M1310.08,-444.97C1379.68,-439.2 1482.17,-425.78 1506.55,-396 1516.68,-383.62 1512.8,-374.73 1506.55,-360 1470.58,-275.22 1441.36,-254.18 1357.55,-216 1257.83,-170.58 923.5,-163.93 796.27,-163.08"/>
<polygon fill="black" stroke="black" points="796.51,-159.58 786.49,-163.02 796.47,-166.58 796.51,-159.58"/>
</g>
<!-- staking_contract&#45;&gt;coin -->
<g id="edge28" class="edge">
<title>staking_contract&#45;&gt;coin</title>
<path fill="none" stroke="black" d="M1251.07,-431.63C1258.03,-412.68 1265.52,-382.1 1252.55,-360 1219.31,-303.38 1185.39,-310.05 1123.55,-288 1033.72,-255.97 921.47,-242.71 863.75,-237.71"/>
<polygon fill="black" stroke="black" points="864.39,-234.26 854.13,-236.92 863.81,-241.23 864.39,-234.26"/>
</g>
<!-- staking_contract&#45;&gt;stake -->
<g id="edge39" class="edge">
<title>staking_contract&#45;&gt;stake</title>
<path fill="none" stroke="black" d="M1179.6,-443C1049.23,-430.71 761.26,-403.22 716.55,-396 703.9,-393.96 690.21,-391.1 677.98,-388.31"/>
<polygon fill="black" stroke="black" points="678.79,-384.9 668.25,-386.03 677.19,-391.72 678.79,-384.9"/>
</g>
<!-- staking_contract&#45;&gt;aptos_coin -->
<g id="edge61" class="edge">
<title>staking_contract&#45;&gt;aptos_coin</title>
<path fill="none" stroke="black" d="M1188.44,-438.95C1157.32,-431.18 1119.07,-417.93 1090.55,-396 1069.48,-379.8 1053.27,-354.04 1043.04,-334.39"/>
<polygon fill="black" stroke="black" points="1046.23,-332.95 1038.65,-325.55 1039.97,-336.07 1046.23,-332.95"/>
</g>
<!-- vesting -->
<g id="node11" class="node">
<title>vesting</title>
<ellipse fill="none" stroke="black" cx="1246.55" cy="-522" rx="36.29" ry="18"/>
<text text-anchor="middle" x="1246.55" y="-518.3" font-family="Times,serif" font-size="14.00">vesting</text>
</g>
<!-- vesting&#45;&gt;event -->
<g id="edge11" class="edge">
<title>vesting&#45;&gt;event</title>
<path fill="none" stroke="black" d="M1283.16,-521.15C1341.72,-519.98 1458.69,-511.77 1545.55,-468 1596.93,-442.11 1639.55,-436.53 1639.55,-379 1639.55,-379 1639.55,-379 1639.55,-233 1639.55,-193.96 1822.37,-232.9 1447.55,-144 1287.17,-105.96 769.73,-94.28 619.07,-91.65"/>
<polygon fill="black" stroke="black" points="619.22,-88.15 609.16,-91.48 619.1,-95.15 619.22,-88.15"/>
</g>
<!-- vesting&#45;&gt;account -->
<g id="edge20" class="edge">
<title>vesting&#45;&gt;account</title>
<path fill="none" stroke="black" d="M1283.22,-520.96C1366.67,-518.76 1563.55,-500.66 1563.55,-379 1563.55,-379 1563.55,-379 1563.55,-305 1563.55,-224.02 1482.03,-239.57 1404.55,-216 1290.8,-181.39 929.19,-168.07 796.23,-164.26"/>
<polygon fill="black" stroke="black" points="796.43,-160.76 786.34,-163.98 796.24,-167.76 796.43,-160.76"/>
</g>
<!-- vesting&#45;&gt;coin -->
<g id="edge29" class="edge">
<title>vesting&#45;&gt;coin</title>
<path fill="none" stroke="black" d="M1273.96,-509.67C1291.03,-501.01 1311.58,-487.26 1321.55,-468 1328.91,-453.79 1326.47,-447.22 1321.55,-432 1294.56,-348.53 1266.28,-324.58 1186.55,-288 1129.48,-261.81 944.3,-244.4 863.66,-237.88"/>
<polygon fill="black" stroke="black" points="864.3,-234.42 854.06,-237.11 863.75,-241.4 864.3,-234.42"/>
</g>
<!-- vesting&#45;&gt;stake -->
<g id="edge40" class="edge">
<title>vesting&#45;&gt;stake</title>
<path fill="none" stroke="black" d="M1209.84,-521.75C1131.17,-522.29 941.36,-517.8 792.55,-468 745.13,-452.13 696.27,-420.22 667.16,-399.24"/>
<polygon fill="black" stroke="black" points="669.43,-396.57 659.3,-393.48 665.3,-402.21 669.43,-396.57"/>
</g>
<!-- vesting&#45;&gt;staking_contract -->
<g id="edge51" class="edge">
<title>vesting&#45;&gt;staking_contract</title>
<path fill="none" stroke="black" d="M1245.81,-503.7C1245.49,-496.41 1245.12,-487.73 1244.77,-479.54"/>
<polygon fill="black" stroke="black" points="1248.27,-479.46 1244.35,-469.62 1241.28,-479.76 1248.27,-479.46"/>
</g>
<!-- aptos_account -->
<g id="node12" class="node">
<title>aptos_account</title>
<ellipse fill="none" stroke="black" cx="1436.55" cy="-378" rx="61.19" ry="18"/>
<text text-anchor="middle" x="1436.55" y="-374.3" font-family="Times,serif" font-size="14.00">aptos_account</text>
</g>
<!-- vesting&#45;&gt;aptos_account -->
<g id="edge56" class="edge">
<title>vesting&#45;&gt;aptos_account</title>
<path fill="none" stroke="black" d="M1276.37,-511.37C1300.81,-502.55 1335.5,-487.85 1361.55,-468 1384.54,-450.48 1405.26,-424.75 1419.06,-405.45"/>
<polygon fill="black" stroke="black" points="1421.92,-407.47 1424.76,-397.27 1416.17,-403.47 1421.92,-407.47"/>
</g>
<!-- vesting&#45;&gt;aptos_coin -->
<g id="edge62" class="edge">
<title>vesting&#45;&gt;aptos_coin</title>
<path fill="none" stroke="black" d="M1218.36,-510.38C1176.2,-493.03 1097.11,-454.56 1054.55,-396 1041.73,-378.37 1035.76,-354.32 1032.98,-335.66"/>
<polygon fill="black" stroke="black" points="1036.46,-335.29 1031.76,-325.8 1029.51,-336.15 1036.46,-335.29"/>
</g>
<!-- aptos_account&#45;&gt;account -->
<g id="edge13" class="edge">
<title>aptos_account&#45;&gt;account</title>
<path fill="none" stroke="black" d="M1430.17,-359.62C1416.57,-325.33 1381.16,-249.39 1323.55,-216 1234.49,-164.39 919.08,-161.43 796.13,-162.31"/>
<polygon fill="black" stroke="black" points="796.33,-158.81 786.36,-162.4 796.39,-165.81 796.33,-158.81"/>
</g>
<!-- aptos_account&#45;&gt;coin -->
<g id="edge25" class="edge">
<title>aptos_account&#45;&gt;coin</title>
<path fill="none" stroke="black" d="M1415.45,-360.64C1387.46,-339.9 1335.75,-304.84 1285.55,-288 1135.54,-237.68 944.29,-233.41 863.88,-234.12"/>
<polygon fill="black" stroke="black" points="864.31,-230.61 854.35,-234.24 864.4,-237.61 864.31,-230.61"/>
</g>
<!-- aptos_account&#45;&gt;aptos_coin -->
<g id="edge58" class="edge">
<title>aptos_account&#45;&gt;aptos_coin</title>
<path fill="none" stroke="black" d="M1384.72,-368.06C1307.8,-354.8 1164.08,-330.02 1085.44,-316.46"/>
<polygon fill="black" stroke="black" points="1086.26,-313.05 1075.81,-314.8 1085.07,-319.95 1086.26,-313.05"/>
</g>
<!-- transaction_validation -->
<g id="node13" class="node">
<title>transaction_validation</title>
<ellipse fill="none" stroke="black" cx="890.55" cy="-450" rx="89.08" ry="18"/>
<text text-anchor="middle" x="890.55" y="-446.3" font-family="Times,serif" font-size="14.00">transaction_validation</text>
</g>
<!-- transaction_validation&#45;&gt;account -->
<g id="edge21" class="edge">
<title>transaction_validation&#45;&gt;account</title>
<path fill="none" stroke="black" d="M897.78,-431.65C909.23,-401.68 928.63,-338.54 912.55,-288 900.65,-250.63 891.71,-241.06 861.55,-216 840.16,-198.23 811.84,-185.09 788.65,-176.33"/>
<polygon fill="black" stroke="black" points="790.09,-173.13 779.49,-173.01 787.71,-179.71 790.09,-173.13"/>
</g>
<!-- transaction_validation&#45;&gt;coin -->
<g id="edge31" class="edge">
<title>transaction_validation&#45;&gt;coin</title>
<path fill="none" stroke="black" d="M893.24,-431.76C898.58,-395.53 908.96,-312.75 896.55,-288 888.31,-271.58 872.31,-258.94 857.57,-250.13"/>
<polygon fill="black" stroke="black" points="859.46,-247.18 849.01,-245.38 856.06,-253.3 859.46,-247.18"/>
</g>
<!-- transaction_validation&#45;&gt;aptos_coin -->
<g id="edge64" class="edge">
<title>transaction_validation&#45;&gt;aptos_coin</title>
<path fill="none" stroke="black" d="M907.44,-431.87C932.19,-406.76 978.45,-359.85 1006.67,-331.22"/>
<polygon fill="black" stroke="black" points="1008.87,-333.97 1013.4,-324.39 1003.89,-329.05 1008.87,-333.97"/>
</g>
<!-- transaction_fee -->
<g id="node17" class="node">
<title>transaction_fee</title>
<ellipse fill="none" stroke="black" cx="789.55" cy="-378" rx="64.19" ry="18"/>
<text text-anchor="middle" x="789.55" y="-374.3" font-family="Times,serif" font-size="14.00">transaction_fee</text>
</g>
<!-- transaction_validation&#45;&gt;transaction_fee -->
<g id="edge67" class="edge">
<title>transaction_validation&#45;&gt;transaction_fee</title>
<path fill="none" stroke="black" d="M866.36,-432.23C853.05,-423.01 836.36,-411.44 821.94,-401.45"/>
<polygon fill="black" stroke="black" points="824.3,-398.83 814.09,-396.01 820.32,-404.58 824.3,-398.83"/>
</g>
<!-- genesis -->
<g id="node14" class="node">
<title>genesis</title>
<ellipse fill="none" stroke="black" cx="646.55" cy="-594" rx="36.29" ry="18"/>
<text text-anchor="middle" x="646.55" y="-590.3" font-family="Times,serif" font-size="14.00">genesis</text>
</g>
<!-- genesis&#45;&gt;account -->
<g id="edge22" class="edge">
<title>genesis&#45;&gt;account</title>
<path fill="none" stroke="black" d="M681.95,-589.14C736.05,-582.61 842.11,-567.37 928.55,-540 1038.9,-505.05 1059.39,-478.14 1165.55,-432 1203.93,-415.32 1229.29,-430.79 1252.55,-396 1366.62,-225.34 943.7,-177.5 795.82,-166.14"/>
<polygon fill="black" stroke="black" points="796.17,-162.65 785.94,-165.4 795.65,-169.63 796.17,-162.65"/>
</g>
<!-- genesis&#45;&gt;coin -->
<g id="edge32" class="edge">
<title>genesis&#45;&gt;coin</title>
<path fill="none" stroke="black" d="M609.87,-592.78C480.14,-591.64 48.49,-584.48 7.55,-540 -3.29,-528.23 -1.43,-517.24 7.55,-504 100.09,-367.59 640.21,-266.58 788.11,-241.21"/>
<polygon fill="black" stroke="black" points="788.49,-244.69 797.76,-239.57 787.31,-237.79 788.49,-244.69"/>
</g>
<!-- genesis&#45;&gt;stake -->
<g id="edge41" class="edge">
<title>genesis&#45;&gt;stake</title>
<path fill="none" stroke="black" d="M659.45,-576.9C666.61,-566.92 674.8,-553.46 678.55,-540 691.7,-492.77 670.42,-436.94 654.77,-404.98"/>
<polygon fill="black" stroke="black" points="658.09,-403.77 650.43,-396.45 651.85,-406.95 658.09,-403.77"/>
</g>
<!-- genesis&#45;&gt;reconfiguration -->
<g id="edge48" class="edge">
<title>genesis&#45;&gt;reconfiguration</title>
<path fill="none" stroke="black" d="M610.05,-591.98C498.43,-588.48 167.28,-575.19 135.55,-540 124.83,-528.12 126.68,-517.32 135.55,-504 149.33,-483.32 172.88,-470.69 195.99,-462.99"/>
<polygon fill="black" stroke="black" points="196.88,-466.38 205.44,-460.13 194.86,-459.68 196.88,-466.38"/>
</g>
<!-- genesis&#45;&gt;aptos_governance -->
<g id="edge49" class="edge">
<title>genesis&#45;&gt;aptos_governance</title>
<path fill="none" stroke="black" d="M634.72,-576.76C628.78,-568.61 621.43,-558.53 614.71,-549.31"/>
<polygon fill="black" stroke="black" points="617.63,-547.37 608.92,-541.35 611.97,-551.49 617.63,-547.37"/>
</g>
<!-- genesis&#45;&gt;block -->
<g id="edge50" class="edge">
<title>genesis&#45;&gt;block</title>
<path fill="none" stroke="black" d="M618.49,-582.14C591.32,-571.57 549,-554.95 512.55,-540 510.77,-539.27 508.95,-538.52 507.12,-537.76"/>
<polygon fill="black" stroke="black" points="508.59,-534.58 498.02,-533.93 505.88,-541.03 508.59,-534.58"/>
</g>
<!-- genesis&#45;&gt;staking_contract -->
<g id="edge52" class="edge">
<title>genesis&#45;&gt;staking_contract</title>
<path fill="none" stroke="black" d="M683.08,-592.78C757.9,-591.4 933.25,-583.37 1072.55,-540 1122.94,-524.31 1176.13,-494.18 1209.55,-473.35"/>
<polygon fill="black" stroke="black" points="1211.4,-476.33 1217.99,-468.02 1207.67,-470.41 1211.4,-476.33"/>
</g>
<!-- genesis&#45;&gt;vesting -->
<g id="edge54" class="edge">
<title>genesis&#45;&gt;vesting</title>
<path fill="none" stroke="black" d="M682.46,-590.27C765.83,-583.7 978.82,-565.67 1155.55,-540 1170.88,-537.77 1187.58,-534.81 1202.43,-531.99"/>
<polygon fill="black" stroke="black" points="1202.74,-535.49 1211.89,-530.15 1201.41,-528.62 1202.74,-535.49"/>
</g>
<!-- genesis&#45;&gt;transaction_validation -->
<g id="edge57" class="edge">
<title>genesis&#45;&gt;transaction_validation</title>
<path fill="none" stroke="black" d="M671.85,-580.75C692.91,-570.38 723.53,-554.87 749.55,-540 786.64,-518.8 827.84,-492.46 856.07,-473.96"/>
<polygon fill="black" stroke="black" points="857.79,-477.01 864.22,-468.59 853.94,-471.17 857.79,-477.01"/>
</g>
<!-- genesis&#45;&gt;aptos_coin -->
<g id="edge65" class="edge">
<title>genesis&#45;&gt;aptos_coin</title>
<path fill="none" stroke="black" d="M682.52,-590.55C752.26,-583.81 906.2,-558.88 988.55,-468 1021.86,-431.23 1029.38,-371.33 1030.72,-335.89"/>
<polygon fill="black" stroke="black" points="1034.22,-336.04 1030.93,-325.96 1027.22,-335.88 1034.22,-336.04"/>
</g>
<!-- genesis&#45;&gt;transaction_fee -->
<g id="edge68" class="edge">
<title>genesis&#45;&gt;transaction_fee</title>
<path fill="none" stroke="black" d="M662.52,-577.56C672.6,-567.38 685.56,-553.5 695.55,-540 728.25,-495.83 758.93,-439.42 775.88,-406.44"/>
<polygon fill="black" stroke="black" points="778.98,-408.06 780.4,-397.56 772.74,-404.88 778.98,-408.06"/>
</g>
<!-- consensus_config -->
<g id="node20" class="node">
<title>consensus_config</title>
<ellipse fill="none" stroke="black" cx="217.55" cy="-522" rx="73.39" ry="18"/>
<text text-anchor="middle" x="217.55" y="-518.3" font-family="Times,serif" font-size="14.00">consensus_config</text>
</g>
<!-- genesis&#45;&gt;consensus_config -->
<g id="edge69" class="edge">
<title>genesis&#45;&gt;consensus_config</title>
<path fill="none" stroke="black" d="M611.97,-588.34C549.45,-579.77 413.51,-560.5 299.55,-540 293.97,-539 288.18,-537.9 282.39,-536.77"/>
<polygon fill="black" stroke="black" points="283.26,-533.38 272.77,-534.86 281.89,-540.24 283.26,-533.38"/>
</g>
<!-- gas_schedule -->
<g id="node21" class="node">
<title>gas_schedule</title>
<ellipse fill="none" stroke="black" cx="366.55" cy="-522" rx="57.69" ry="18"/>
<text text-anchor="middle" x="366.55" y="-518.3" font-family="Times,serif" font-size="14.00">gas_schedule</text>
</g>
<!-- genesis&#45;&gt;gas_schedule -->
<g id="edge70" class="edge">
<title>genesis&#45;&gt;gas_schedule</title>
<path fill="none" stroke="black" d="M614.62,-585.19C572.78,-574.93 497.12,-556.31 432.55,-540 428.76,-539.04 424.86,-538.05 420.92,-537.05"/>
<polygon fill="black" stroke="black" points="421.87,-533.68 411.31,-534.59 420.13,-540.46 421.87,-533.68"/>
</g>
<!-- version -->
<g id="node22" class="node">
<title>version</title>
<ellipse fill="none" stroke="black" cx="52.55" cy="-522" rx="36.29" ry="18"/>
<text text-anchor="middle" x="52.55" y="-518.3" font-family="Times,serif" font-size="14.00">version</text>
</g>
<!-- genesis&#45;&gt;version -->
<g id="edge71" class="edge">
<title>genesis&#45;&gt;version</title>
<path fill="none" stroke="black" d="M610.14,-592.34C522.01,-590.12 290.62,-580.56 102.55,-540 98.92,-539.22 95.19,-538.26 91.47,-537.19"/>
<polygon fill="black" stroke="black" points="92.55,-533.87 81.97,-534.23 90.47,-540.55 92.55,-533.87"/>
</g>
<!-- resource_account -->
<g id="node15" class="node">
<title>resource_account</title>
<ellipse fill="none" stroke="black" cx="1171.55" cy="-378" rx="72.29" ry="18"/>
<text text-anchor="middle" x="1171.55" y="-374.3" font-family="Times,serif" font-size="14.00">resource_account</text>
</g>
<!-- resource_account&#45;&gt;account -->
<g id="edge23" class="edge">
<title>resource_account&#45;&gt;account</title>
<path fill="none" stroke="black" d="M1166.05,-359.84C1159,-340.21 1145.04,-308.2 1123.55,-288 1030.39,-200.46 874.46,-174.16 795.52,-166.3"/>
<polygon fill="black" stroke="black" points="796.23,-162.86 785.95,-165.42 795.58,-169.83 796.23,-162.86"/>
</g>
<!-- resource_account&#45;&gt;coin -->
<g id="edge34" class="edge">
<title>resource_account&#45;&gt;coin</title>
<path fill="none" stroke="black" d="M1160.6,-359.91C1146.52,-339.41 1120.09,-305.62 1088.55,-288 1016.35,-247.66 917.77,-237.78 864.15,-235.52"/>
<polygon fill="black" stroke="black" points="864.41,-232.02 854.3,-235.17 864.17,-239.02 864.41,-232.02"/>
</g>
<!-- resource_account&#45;&gt;aptos_coin -->
<g id="edge66" class="edge">
<title>resource_account&#45;&gt;aptos_coin</title>
<path fill="none" stroke="black" d="M1140.26,-361.46C1119.24,-351.03 1091.42,-337.22 1069.05,-326.11"/>
<polygon fill="black" stroke="black" points="1070.75,-323.05 1060.24,-321.74 1067.64,-329.32 1070.75,-323.05"/>
</g>
<!-- aptos_coin&#45;&gt;coin -->
<g id="edge24" class="edge">
<title>aptos_coin&#45;&gt;coin</title>
<path fill="none" stroke="black" d="M995.77,-293.13C957.82,-280.17 897.46,-259.55 859.74,-246.68"/>
<polygon fill="black" stroke="black" points="861.3,-243.51 850.71,-243.59 859.04,-250.13 861.3,-243.51"/>
</g>
<!-- transaction_fee&#45;&gt;coin -->
<g id="edge30" class="edge">
<title>transaction_fee&#45;&gt;coin</title>
<path fill="none" stroke="black" d="M774.51,-360.21C760.14,-342.02 742.34,-312.34 754.55,-288 762.78,-271.58 778.79,-258.94 793.52,-250.13"/>
<polygon fill="black" stroke="black" points="795.04,-253.3 802.08,-245.38 791.64,-247.18 795.04,-253.3"/>
</g>
<!-- transaction_fee&#45;&gt;aptos_coin -->
<g id="edge63" class="edge">
<title>transaction_fee&#45;&gt;aptos_coin</title>
<path fill="none" stroke="black" d="M832.91,-364.4C874.92,-352.2 938.52,-333.73 982.16,-321.06"/>
<polygon fill="black" stroke="black" points="982.99,-324.46 991.62,-318.31 981.04,-317.74 982.99,-324.46"/>
</g>
<!-- managed_coin -->
<g id="node18" class="node">
<title>managed_coin</title>
<ellipse fill="none" stroke="black" cx="825.55" cy="-306" rx="62.29" ry="18"/>
<text text-anchor="middle" x="825.55" y="-302.3" font-family="Times,serif" font-size="14.00">managed_coin</text>
</g>
<!-- managed_coin&#45;&gt;coin -->
<g id="edge33" class="edge">
<title>managed_coin&#45;&gt;coin</title>
<path fill="none" stroke="black" d="M825.55,-287.7C825.55,-280.41 825.55,-271.73 825.55,-263.54"/>
<polygon fill="black" stroke="black" points="829.05,-263.62 825.55,-253.62 822.05,-263.62 829.05,-263.62"/>
</g>
<!-- staking_proxy -->
<g id="node19" class="node">
<title>staking_proxy</title>
<ellipse fill="none" stroke="black" cx="1182.55" cy="-594" rx="61.19" ry="18"/>
<text text-anchor="middle" x="1182.55" y="-590.3" font-family="Times,serif" font-size="14.00">staking_proxy</text>
</g>
<!-- staking_proxy&#45;&gt;stake -->
<g id="edge42" class="edge">
<title>staking_proxy&#45;&gt;stake</title>
<path fill="none" stroke="black" d="M1168.3,-576.02C1138.74,-542.1 1066.95,-466.28 988.55,-432 876.82,-383.15 836.61,-417.33 716.55,-396 704.04,-393.78 690.47,-390.9 678.31,-388.14"/>
<polygon fill="black" stroke="black" points="679.17,-384.74 668.64,-385.9 677.59,-391.56 679.17,-384.74"/>
</g>
<!-- staking_proxy&#45;&gt;staking_contract -->
<g id="edge53" class="edge">
<title>staking_proxy&#45;&gt;staking_contract</title>
<path fill="none" stroke="black" d="M1183.9,-575.52C1185.87,-557.01 1190.57,-527.3 1201.55,-504 1206.13,-494.28 1212.8,-484.73 1219.49,-476.48"/>
<polygon fill="black" stroke="black" points="1222.11,-478.79 1225.95,-468.92 1216.79,-474.25 1222.11,-478.79"/>
</g>
<!-- staking_proxy&#45;&gt;vesting -->
<g id="edge55" class="edge">
<title>staking_proxy&#45;&gt;vesting</title>
<path fill="none" stroke="black" d="M1197.71,-576.41C1205.75,-567.62 1215.77,-556.66 1224.64,-546.96"/>
<polygon fill="black" stroke="black" points="1227.18,-549.37 1231.35,-539.63 1222.01,-544.65 1227.18,-549.37"/>
</g>
<!-- consensus_config&#45;&gt;reconfiguration -->
<g id="edge45" class="edge">
<title>consensus_config&#45;&gt;reconfiguration</title>
<path fill="none" stroke="black" d="M228.44,-504.05C233.58,-496.06 239.84,-486.33 245.58,-477.4"/>
<polygon fill="black" stroke="black" points="248.47,-479.37 250.94,-469.06 242.58,-475.58 248.47,-479.37"/>
</g>
<!-- gas_schedule&#45;&gt;reconfiguration -->
<g id="edge46" class="edge">
<title>gas_schedule&#45;&gt;reconfiguration</title>
<path fill="none" stroke="black" d="M342.95,-505.12C328.95,-495.7 311,-483.61 295.61,-473.25"/>
<polygon fill="black" stroke="black" points="297.92,-470.59 287.67,-467.91 294.01,-476.4 297.92,-470.59"/>
</g>
<!-- version&#45;&gt;reconfiguration -->
<g id="edge47" class="edge">
<title>version&#45;&gt;reconfiguration</title>
<path fill="none" stroke="black" d="M81.88,-510.98C88.66,-508.68 95.85,-506.25 102.55,-504 138.78,-491.84 179.68,-478.29 211.07,-467.94"/>
<polygon fill="black" stroke="black" points="211.91,-471.35 220.31,-464.89 209.72,-464.7 211.91,-471.35"/>
</g>
</g>
</svg>
