<?xml version="1.0" encoding="UTF-8" standalone="no"?>
<!DOCTYPE svg PUBLIC "-//W3C//DTD SVG 1.1//EN"
 "http://www.w3.org/Graphics/SVG/1.1/DTD/svg11.dtd">
<!-- Generated by graphviz version 7.0.0 (20221023.0053)
 -->
<!-- Title: G Pages: 1 -->
<svg width="3449pt" height="709pt"
 viewBox="0.00 0.00 3449.00 709.00" xmlns="http://www.w3.org/2000/svg" xmlns:xlink="http://www.w3.org/1999/xlink">
<g id="graph0" class="graph" transform="scale(1 1) rotate(0) translate(4 705)">
<title>G</title>
<polygon fill="white" stroke="none" points="-4,4 -4,-705 3445,-705 3445,4 -4,4"/>
<g id="clust1" class="cluster">
<title>cluster_account</title>
<polygon fill="none" stroke="black" points="1233,-64 1233,-211 2060,-211 2060,-64 1233,-64"/>
<text text-anchor="middle" x="1646.5" y="-195.8" font-family="Times,serif" font-size="14.00">account</text>
</g>
<g id="clust2" class="cluster">
<title>cluster_aptos_account</title>
<polygon fill="none" stroke="black" points="3289,-302 3289,-452 3433,-452 3433,-302 3289,-302"/>
<text text-anchor="middle" x="3361" y="-436.8" font-family="Times,serif" font-size="14.00">aptos_account</text>
</g>
<g id="clust3" class="cluster">
<title>cluster_genesis</title>
<polygon fill="none" stroke="black" points="511,-302 511,-693 1301,-693 1301,-302 511,-302"/>
<text text-anchor="middle" x="906" y="-677.8" font-family="Times,serif" font-size="14.00">genesis</text>
</g>
<g id="clust4" class="cluster">
<title>cluster_staking_contract</title>
<polygon fill="none" stroke="black" points="1309,-219 1309,-452 1727,-452 1727,-219 1309,-219"/>
<text text-anchor="middle" x="1518" y="-436.8" font-family="Times,serif" font-size="14.00">staking_contract</text>
</g>
<g id="clust5" class="cluster">
<title>cluster_vesting</title>
<polygon fill="none" stroke="black" points="2131,-302 2131,-452 2399,-452 2399,-302 2131,-302"/>
<text text-anchor="middle" x="2265" y="-436.8" font-family="Times,serif" font-size="14.00">vesting</text>
</g>
<g id="clust6" class="cluster">
<title>cluster_resource_account</title>
<polygon fill="none" stroke="black" points="2407,-302 2407,-377 3281,-377 3281,-302 2407,-302"/>
<text text-anchor="middle" x="2844" y="-361.8" font-family="Times,serif" font-size="14.00">resource_account</text>
</g>
<g id="clust7" class="cluster">
<title>cluster_coin</title>
<polygon fill="none" stroke="black" points="2031,-219 2031,-294 2121,-294 2121,-219 2031,-219"/>
<text text-anchor="middle" x="2076" y="-278.8" font-family="Times,serif" font-size="14.00">coin</text>
</g>
<g id="clust8" class="cluster">
<title>cluster_voting</title>
<polygon fill="none" stroke="black" points="1783,-219 1783,-294 1873,-294 1873,-219 1783,-219"/>
<text text-anchor="middle" x="1828" y="-278.8" font-family="Times,serif" font-size="14.00">voting</text>
</g>
<g id="clust9" class="cluster">
<title>cluster_stake</title>
<polygon fill="none" stroke="black" points="134,-219 134,-377 503,-377 503,-219 134,-219"/>
<text text-anchor="middle" x="318.5" y="-361.8" font-family="Times,serif" font-size="14.00">stake</text>
</g>
<g id="clust10" class="cluster">
<title>cluster_reconfiguration</title>
<polygon fill="none" stroke="black" points="146,-460 146,-535 246,-535 246,-460 146,-460"/>
<text text-anchor="middle" x="196" y="-519.8" font-family="Times,serif" font-size="14.00">reconfiguration</text>
</g>
<g id="clust11" class="cluster">
<title>cluster_aptos_governance</title>
<polygon fill="none" stroke="black" points="1735,-302 1735,-452 1953,-452 1953,-302 1735,-302"/>
<text text-anchor="middle" x="1844" y="-436.8" font-family="Times,serif" font-size="14.00">aptos_governance</text>
</g>
<g id="clust12" class="cluster">
<title>cluster_block</title>
<polygon fill="none" stroke="black" points="353,-460 353,-535 453,-535 453,-460 353,-460"/>
<text text-anchor="middle" x="403" y="-519.8" font-family="Times,serif" font-size="14.00">block</text>
</g>
<g id="clust13" class="cluster">
<title>cluster_aptos_coin</title>
<polygon fill="none" stroke="black" points="1617,-543 1617,-618 1853,-618 1853,-543 1617,-543"/>
<text text-anchor="middle" x="1735" y="-602.8" font-family="Times,serif" font-size="14.00">aptos_coin</text>
</g>
<g id="clust14" class="cluster">
<title>cluster_managed_coin</title>
<polygon fill="none" stroke="black" points="2027,-302 2027,-377 2123,-377 2123,-302 2027,-302"/>
<text text-anchor="middle" x="2075" y="-361.8" font-family="Times,serif" font-size="14.00">managed_coin</text>
</g>
<!-- create -->
<g id="node1" class="node">
<title>create</title>
<ellipse fill="none" stroke="black" cx="1683" cy="-18" rx="31.7" ry="18"/>
<text text-anchor="middle" x="1683" y="-14.3" font-family="Times,serif" font-size="14.00">create</text>
</g>
<!-- account::create_account_unchecked -->
<g id="node2" class="node">
<title>account::create_account_unchecked</title>
<ellipse fill="none" stroke="black" cx="1596" cy="-90" rx="105.08" ry="18"/>
<text text-anchor="middle" x="1596" y="-86.3" font-family="Times,serif" font-size="14.00">create_account_unchecked</text>
</g>
<!-- account::create_account_unchecked&#45;&gt;create -->
<g id="edge1" class="edge">
<title>account::create_account_unchecked&#45;&gt;create</title>
<path fill="none" stroke="black" d="M1617.06,-72.05C1628.96,-62.48 1643.94,-50.43 1656.61,-40.23"/>
<polygon fill="black" stroke="black" points="1658.58,-43.14 1664.18,-34.14 1654.19,-37.69 1658.58,-43.14"/>
</g>
<!-- account::create_guid -->
<g id="node3" class="node">
<title>account::create_guid</title>
<ellipse fill="none" stroke="black" cx="1771" cy="-90" rx="51.99" ry="18"/>
<text text-anchor="middle" x="1771" y="-86.3" font-family="Times,serif" font-size="14.00">create_guid</text>
</g>
<!-- account::create_guid&#45;&gt;create -->
<g id="edge2" class="edge">
<title>account::create_guid&#45;&gt;create</title>
<path fill="none" stroke="black" d="M1751.03,-73.12C1738.75,-63.35 1722.87,-50.72 1709.54,-40.11"/>
<polygon fill="black" stroke="black" points="1711.99,-37.59 1701.98,-34.1 1707.63,-43.07 1711.99,-37.59"/>
</g>
<!-- account::create_account -->
<g id="node4" class="node">
<title>account::create_account</title>
<ellipse fill="none" stroke="black" cx="1605" cy="-162" rx="63.89" ry="18"/>
<text text-anchor="middle" x="1605" y="-158.3" font-family="Times,serif" font-size="14.00">create_account</text>
</g>
<!-- account::create_account&#45;&gt;account::create_account_unchecked -->
<g id="edge3" class="edge">
<title>account::create_account&#45;&gt;account::create_account_unchecked</title>
<path fill="none" stroke="black" d="M1602.78,-143.7C1601.83,-136.32 1600.7,-127.52 1599.63,-119.25"/>
<polygon fill="black" stroke="black" points="1603.14,-119.08 1598.39,-109.61 1596.2,-119.97 1603.14,-119.08"/>
</g>
<!-- account::create_framework_reserved_account -->
<g id="node5" class="node">
<title>account::create_framework_reserved_account</title>
<ellipse fill="none" stroke="black" cx="1382" cy="-162" rx="141.07" ry="18"/>
<text text-anchor="middle" x="1382" y="-158.3" font-family="Times,serif" font-size="14.00">create_framework_reserved_account</text>
</g>
<!-- account::create_framework_reserved_account&#45;&gt;account::create_account_unchecked -->
<g id="edge4" class="edge">
<title>account::create_framework_reserved_account&#45;&gt;account::create_account_unchecked</title>
<path fill="none" stroke="black" d="M1431.63,-144.76C1463.5,-134.34 1505,-120.77 1538.33,-109.86"/>
<polygon fill="black" stroke="black" points="1538.98,-113.33 1547.4,-106.9 1536.81,-106.68 1538.98,-113.33"/>
</g>
<!-- account::create_resource_account -->
<g id="node6" class="node">
<title>account::create_resource_account</title>
<ellipse fill="none" stroke="black" cx="1955" cy="-162" rx="97.48" ry="18"/>
<text text-anchor="middle" x="1955" y="-158.3" font-family="Times,serif" font-size="14.00">create_resource_account</text>
</g>
<!-- account::create_resource_account&#45;&gt;account::create_account_unchecked -->
<g id="edge5" class="edge">
<title>account::create_resource_account&#45;&gt;account::create_account_unchecked</title>
<path fill="none" stroke="black" d="M1889.57,-148.24C1828.97,-136.43 1738.74,-118.83 1674.33,-106.27"/>
<polygon fill="black" stroke="black" points="1675.39,-102.91 1664.9,-104.43 1674.05,-109.78 1675.39,-102.91"/>
</g>
<!-- account::new_event_handle -->
<g id="node7" class="node">
<title>account::new_event_handle</title>
<ellipse fill="none" stroke="black" cx="1763" cy="-162" rx="76.89" ry="18"/>
<text text-anchor="middle" x="1763" y="-158.3" font-family="Times,serif" font-size="14.00">new_event_handle</text>
</g>
<!-- account::new_event_handle&#45;&gt;account::create_guid -->
<g id="edge6" class="edge">
<title>account::new_event_handle&#45;&gt;account::create_guid</title>
<path fill="none" stroke="black" d="M1764.98,-143.7C1765.81,-136.41 1766.8,-127.73 1767.74,-119.54"/>
<polygon fill="black" stroke="black" points="1771.22,-119.94 1768.87,-109.61 1764.26,-119.15 1771.22,-119.94"/>
</g>
<!-- aptos_account::create_account -->
<g id="node8" class="node">
<title>aptos_account::create_account</title>
<ellipse fill="none" stroke="black" cx="3361" cy="-328" rx="63.89" ry="18"/>
<text text-anchor="middle" x="3361" y="-324.3" font-family="Times,serif" font-size="14.00">create_account</text>
</g>
<!-- aptos_account::create_account&#45;&gt;account::create_account -->
<g id="edge7" class="edge">
<title>aptos_account::create_account&#45;&gt;account::create_account</title>
<path fill="none" stroke="black" d="M3324.38,-312.93C3312.04,-308.74 3298.08,-304.58 3285,-302 2777.88,-202.04 2641.36,-242.07 2125,-219 2100.13,-217.89 1700.76,-218.43 1677,-211 1660.89,-205.96 1645.05,-196.1 1632.35,-186.62"/>
<polygon fill="black" stroke="black" points="1634.52,-183.87 1624.49,-180.46 1630.2,-189.39 1634.52,-183.87"/>
</g>
<!-- coin::register -->
<g id="node17" class="node">
<title>coin::register</title>
<ellipse fill="none" stroke="black" cx="2076" cy="-245" rx="37.09" ry="18"/>
<text text-anchor="middle" x="2076" y="-241.3" font-family="Times,serif" font-size="14.00">register</text>
</g>
<!-- aptos_account::create_account&#45;&gt;coin::register -->
<g id="edge31" class="edge">
<title>aptos_account::create_account&#45;&gt;coin::register</title>
<path fill="none" stroke="black" d="M3324.8,-312.87C3312.37,-308.62 3298.25,-304.44 3285,-302 3277.73,-300.66 2348.51,-258.38 2124.28,-248.19"/>
<polygon fill="black" stroke="black" points="2124.59,-244.7 2114.44,-247.75 2124.27,-251.7 2124.59,-244.7"/>
</g>
<!-- genesis::create_account -->
<g id="node9" class="node">
<title>genesis::create_account</title>
<ellipse fill="none" stroke="black" cx="1227" cy="-328" rx="63.89" ry="18"/>
<text text-anchor="middle" x="1227" y="-324.3" font-family="Times,serif" font-size="14.00">create_account</text>
</g>
<!-- genesis::create_account&#45;&gt;account::create_account -->
<g id="edge8" class="edge">
<title>genesis::create_account&#45;&gt;account::create_account</title>
<path fill="none" stroke="black" d="M1233.65,-309.7C1244.37,-284.54 1268.07,-238.71 1305,-219 1327.27,-207.12 1507.95,-218.66 1532,-211 1548.28,-205.81 1564.37,-195.9 1577.28,-186.42"/>
<polygon fill="black" stroke="black" points="1579.08,-189.45 1584.88,-180.59 1574.82,-183.9 1579.08,-189.45"/>
</g>
<!-- genesis::create_account&#45;&gt;coin::register -->
<g id="edge33" class="edge">
<title>genesis::create_account&#45;&gt;coin::register</title>
<path fill="none" stroke="black" d="M1263.35,-312.89C1276.29,-308.53 1291.11,-304.27 1305,-302 1430.46,-281.49 1750.87,-309.89 1877,-294 1932.32,-287.03 1994.57,-270.58 2034.48,-258.88"/>
<polygon fill="black" stroke="black" points="2035.33,-262.28 2043.92,-256.08 2033.34,-255.57 2035.33,-262.28"/>
</g>
<!-- genesis::initialize_core_resources_and_aptos_coin -->
<g id="node10" class="node">
<title>genesis::initialize_core_resources_and_aptos_coin</title>
<ellipse fill="none" stroke="black" cx="897" cy="-644" rx="157.87" ry="18"/>
<text text-anchor="middle" x="897" y="-640.3" font-family="Times,serif" font-size="14.00">initialize_core_resources_and_aptos_coin</text>
</g>
<!-- genesis::initialize_core_resources_and_aptos_coin&#45;&gt;account::create_account -->
<g id="edge9" class="edge">
<title>genesis::initialize_core_resources_and_aptos_coin&#45;&gt;account::create_account</title>
<path fill="none" stroke="black" d="M786.6,-630.74C767.73,-628.94 748.32,-627.26 730,-626 565.25,-614.63 0,-652.14 0,-487 0,-487 0,-487 0,-327 0,-274.29 4.77,-247.67 49,-219 66.28,-207.8 1512.28,-216.96 1532,-211 1548.47,-206.02 1564.68,-196.03 1577.63,-186.44"/>
<polygon fill="black" stroke="black" points="1579.48,-189.43 1585.24,-180.54 1575.19,-183.9 1579.48,-189.43"/>
</g>
<!-- aptos_coin::configure_accounts_for_test -->
<g id="node30" class="node">
<title>aptos_coin::configure_accounts_for_test</title>
<ellipse fill="none" stroke="black" cx="1735" cy="-569" rx="110.48" ry="18"/>
<text text-anchor="middle" x="1735" y="-565.3" font-family="Times,serif" font-size="14.00">configure_accounts_for_test</text>
</g>
<!-- genesis::initialize_core_resources_and_aptos_coin&#45;&gt;aptos_coin::configure_accounts_for_test -->
<g id="edge47" class="edge">
<title>genesis::initialize_core_resources_and_aptos_coin&#45;&gt;aptos_coin::configure_accounts_for_test</title>
<path fill="none" stroke="black" d="M1006.04,-630.61C1025.33,-628.79 1045.24,-627.14 1064,-626 1240.6,-615.25 1285.91,-635.15 1462,-618 1529.55,-611.42 1605.53,-597.52 1660.15,-586.37"/>
<polygon fill="black" stroke="black" points="1660.55,-589.86 1669.64,-584.41 1659.14,-583 1660.55,-589.86"/>
</g>
<!-- genesis::initialize -->
<g id="node11" class="node">
<title>genesis::initialize</title>
<ellipse fill="none" stroke="black" cx="561" cy="-569" rx="41.69" ry="18"/>
<text text-anchor="middle" x="561" y="-565.3" font-family="Times,serif" font-size="14.00">initialize</text>
</g>
<!-- genesis::initialize&#45;&gt;account::create_framework_reserved_account -->
<g id="edge10" class="edge">
<title>genesis::initialize&#45;&gt;account::create_framework_reserved_account</title>
<path fill="none" stroke="black" d="M519.51,-566.57C420.26,-562.9 174.9,-552.19 142,-535 76.11,-500.57 38,-478.34 38,-404 38,-404 38,-404 38,-327 38,-278.6 16.32,-251.71 52,-219 94.8,-179.77 890.04,-167.62 1229.97,-164.21"/>
<polygon fill="black" stroke="black" points="1229.9,-167.71 1239.86,-164.11 1229.83,-160.71 1229.9,-167.71"/>
</g>
<!-- reconfiguration::initialize -->
<g id="node20" class="node">
<title>reconfiguration::initialize</title>
<ellipse fill="none" stroke="black" cx="196" cy="-486" rx="41.69" ry="18"/>
<text text-anchor="middle" x="196" y="-482.3" font-family="Times,serif" font-size="14.00">initialize</text>
</g>
<!-- genesis::initialize&#45;&gt;reconfiguration::initialize -->
<g id="edge39" class="edge">
<title>genesis::initialize&#45;&gt;reconfiguration::initialize</title>
<path fill="none" stroke="black" d="M520.8,-563.56C477.91,-558.4 408.13,-548.8 349,-535 310.85,-526.1 268.41,-512.48 237.93,-502.02"/>
<polygon fill="black" stroke="black" points="239.29,-498.79 228.7,-498.82 237,-505.4 239.29,-498.79"/>
</g>
<!-- block::initialize -->
<g id="node22" class="node">
<title>block::initialize</title>
<ellipse fill="none" stroke="black" cx="403" cy="-486" rx="41.69" ry="18"/>
<text text-anchor="middle" x="403" y="-482.3" font-family="Times,serif" font-size="14.00">initialize</text>
</g>
<!-- genesis::initialize&#45;&gt;block::initialize -->
<g id="edge41" class="edge">
<title>genesis::initialize&#45;&gt;block::initialize</title>
<path fill="none" stroke="black" d="M534.91,-554.62C508.84,-541.26 468.53,-520.6 439.34,-505.63"/>
<polygon fill="black" stroke="black" points="440.97,-502.53 430.48,-501.09 437.78,-508.76 440.97,-502.53"/>
</g>
<!-- staking_contract::create_stake_pool -->
<g id="node12" class="node">
<title>staking_contract::create_stake_pool</title>
<ellipse fill="none" stroke="black" cx="1391" cy="-245" rx="74.19" ry="18"/>
<text text-anchor="middle" x="1391" y="-241.3" font-family="Times,serif" font-size="14.00">create_stake_pool</text>
</g>
<!-- staking_contract::create_stake_pool&#45;&gt;account::create_resource_account -->
<g id="edge11" class="edge">
<title>staking_contract::create_stake_pool&#45;&gt;account::create_resource_account</title>
<path fill="none" stroke="black" d="M1431.02,-229.56C1444.49,-225.34 1459.73,-221.26 1474,-219 1556.33,-205.97 1767.72,-229.46 1849,-211 1872.55,-205.65 1897.21,-194.84 1916.82,-184.82"/>
<polygon fill="black" stroke="black" points="1918.3,-188 1925.52,-180.24 1915.04,-181.8 1918.3,-188"/>
</g>
<!-- stake::initialize_stake_owner -->
<g id="node32" class="node">
<title>stake::initialize_stake_owner</title>
<ellipse fill="none" stroke="black" cx="405" cy="-328" rx="90.18" ry="18"/>
<text text-anchor="middle" x="405" y="-324.3" font-family="Times,serif" font-size="14.00">initialize_stake_owner</text>
</g>
<!-- staking_contract::create_stake_pool&#45;&gt;stake::initialize_stake_owner -->
<g id="edge48" class="edge">
<title>staking_contract::create_stake_pool&#45;&gt;stake::initialize_stake_owner</title>
<path fill="none" stroke="black" d="M1316.6,-246.28C1163.93,-247.83 804.56,-256.48 507,-302 493.83,-304.01 479.88,-306.91 466.65,-310.03"/>
<polygon fill="black" stroke="black" points="466.11,-306.56 457.22,-312.33 467.76,-313.36 466.11,-306.56"/>
</g>
<!-- vesting::create_vesting_contract_account -->
<g id="node13" class="node">
<title>vesting::create_vesting_contract_account</title>
<ellipse fill="none" stroke="black" cx="2265" cy="-328" rx="126.18" ry="18"/>
<text text-anchor="middle" x="2265" y="-324.3" font-family="Times,serif" font-size="14.00">create_vesting_contract_account</text>
</g>
<!-- vesting::create_vesting_contract_account&#45;&gt;account::create_resource_account -->
<g id="edge12" class="edge">
<title>vesting::create_vesting_contract_account&#45;&gt;account::create_resource_account</title>
<path fill="none" stroke="black" d="M2246.95,-309.77C2221.55,-286.34 2173,-244.46 2125,-219 2093.32,-202.2 2055.66,-189.17 2023.85,-179.92"/>
<polygon fill="black" stroke="black" points="2024.89,-176.58 2014.31,-177.22 2022.98,-183.31 2024.89,-176.58"/>
</g>
<!-- vesting::create_vesting_contract_account&#45;&gt;coin::register -->
<g id="edge32" class="edge">
<title>vesting::create_vesting_contract_account&#45;&gt;coin::register</title>
<path fill="none" stroke="black" d="M2226.3,-310.41C2193.31,-296.27 2146.18,-276.08 2113.53,-262.09"/>
<polygon fill="black" stroke="black" points="2115.02,-258.91 2104.45,-258.19 2112.26,-265.35 2115.02,-258.91"/>
</g>
<!-- resource_account::create_resource_account -->
<g id="node14" class="node">
<title>resource_account::create_resource_account</title>
<ellipse fill="none" stroke="black" cx="2801" cy="-328" rx="97.48" ry="18"/>
<text text-anchor="middle" x="2801" y="-324.3" font-family="Times,serif" font-size="14.00">create_resource_account</text>
</g>
<!-- resource_account::create_resource_account&#45;&gt;account::create_resource_account -->
<g id="edge13" class="edge">
<title>resource_account::create_resource_account&#45;&gt;account::create_resource_account</title>
<path fill="none" stroke="black" d="M2742.43,-313.24C2726.71,-309.57 2709.71,-305.62 2694,-302 2531.45,-264.58 2491.92,-249.85 2328,-219 2231.59,-200.86 2120.29,-184.77 2044.53,-174.55"/>
<polygon fill="black" stroke="black" points="2045.03,-171.08 2034.65,-173.22 2044.1,-178.02 2045.03,-171.08"/>
</g>
<!-- resource_account::create_resource_account_and_fund -->
<g id="node15" class="node">
<title>resource_account::create_resource_account_and_fund</title>
<ellipse fill="none" stroke="black" cx="2550" cy="-328" rx="135.38" ry="18"/>
<text text-anchor="middle" x="2550" y="-324.3" font-family="Times,serif" font-size="14.00">create_resource_account_and_fund</text>
</g>
<!-- resource_account::create_resource_account_and_fund&#45;&gt;account::create_resource_account -->
<g id="edge14" class="edge">
<title>resource_account::create_resource_account_and_fund&#45;&gt;account::create_resource_account</title>
<path fill="none" stroke="black" d="M2499.59,-310.88C2430.2,-288.91 2301.22,-248.91 2190,-219 2135.56,-204.36 2073.5,-189.66 2026.83,-178.99"/>
<polygon fill="black" stroke="black" points="2027.62,-175.58 2017.09,-176.77 2026.06,-182.4 2027.62,-175.58"/>
</g>
<!-- resource_account::create_resource_account_and_fund&#45;&gt;coin::register -->
<g id="edge35" class="edge">
<title>resource_account::create_resource_account_and_fund&#45;&gt;coin::register</title>
<path fill="none" stroke="black" d="M2469.06,-313.17C2369,-296.07 2202.16,-267.56 2121.89,-253.84"/>
<polygon fill="black" stroke="black" points="2122.63,-250.42 2112.18,-252.18 2121.45,-257.32 2122.63,-250.42"/>
</g>
<!-- resource_account::create_resource_account_and_publish_package -->
<g id="node16" class="node">
<title>resource_account::create_resource_account_and_publish_package</title>
<ellipse fill="none" stroke="black" cx="3095" cy="-328" rx="178.17" ry="18"/>
<text text-anchor="middle" x="3095" y="-324.3" font-family="Times,serif" font-size="14.00">create_resource_account_and_publish_package</text>
</g>
<!-- resource_account::create_resource_account_and_publish_package&#45;&gt;account::create_resource_account -->
<g id="edge15" class="edge">
<title>resource_account::create_resource_account_and_publish_package&#45;&gt;account::create_resource_account</title>
<path fill="none" stroke="black" d="M3020,-311.26C2908.39,-288.28 2691.78,-245.43 2506,-219 2349.01,-196.67 2165.63,-179.87 2055,-170.74"/>
<polygon fill="black" stroke="black" points="2055.3,-167.25 2045.05,-169.92 2054.73,-174.23 2055.3,-167.25"/>
</g>
<!-- coin::register&#45;&gt;account::new_event_handle -->
<g id="edge16" class="edge">
<title>coin::register&#45;&gt;account::new_event_handle</title>
<path fill="none" stroke="black" d="M2052.73,-230.59C2043.74,-226.07 2033.17,-221.52 2023,-219 1947.87,-200.35 1923.45,-232.21 1849,-211 1830.11,-205.62 1810.87,-195.41 1795.38,-185.78"/>
<polygon fill="black" stroke="black" points="1797.36,-182.89 1787.06,-180.42 1793.57,-188.78 1797.36,-182.89"/>
</g>
<!-- voting::register -->
<g id="node18" class="node">
<title>voting::register</title>
<ellipse fill="none" stroke="black" cx="1828" cy="-245" rx="37.09" ry="18"/>
<text text-anchor="middle" x="1828" y="-241.3" font-family="Times,serif" font-size="14.00">register</text>
</g>
<!-- voting::register&#45;&gt;account::new_event_handle -->
<g id="edge17" class="edge">
<title>voting::register&#45;&gt;account::new_event_handle</title>
<path fill="none" stroke="black" d="M1815.16,-228C1806.23,-216.87 1794.12,-201.78 1783.82,-188.95"/>
<polygon fill="black" stroke="black" points="1786.65,-186.88 1777.66,-181.27 1781.19,-191.26 1786.65,-186.88"/>
</g>
<!-- stake::initialize_owner -->
<g id="node19" class="node">
<title>stake::initialize_owner</title>
<ellipse fill="none" stroke="black" cx="405" cy="-245" rx="67.69" ry="18"/>
<text text-anchor="middle" x="405" y="-241.3" font-family="Times,serif" font-size="14.00">initialize_owner</text>
</g>
<!-- stake::initialize_owner&#45;&gt;account::new_event_handle -->
<g id="edge18" class="edge">
<title>stake::initialize_owner&#45;&gt;account::new_event_handle</title>
<path fill="none" stroke="black" d="M472.17,-241.99C621.75,-237.54 993.65,-226.66 1305,-219 1346.44,-217.98 1638.02,-221.97 1678,-211 1696.9,-205.81 1716.08,-195.52 1731.42,-185.78"/>
<polygon fill="black" stroke="black" points="1733.22,-188.79 1739.64,-180.36 1729.36,-182.94 1733.22,-188.79"/>
</g>
<!-- reconfiguration::initialize&#45;&gt;account::new_event_handle -->
<g id="edge19" class="edge">
<title>reconfiguration::initialize&#45;&gt;account::new_event_handle</title>
<path fill="none" stroke="black" d="M165.38,-473.48C154.22,-468.19 142.11,-461.05 133,-452 58.37,-377.93 17.84,-293.54 92,-219 107.54,-203.38 1656.71,-216.65 1678,-211 1696.95,-205.97 1716.12,-195.69 1731.45,-185.92"/>
<polygon fill="black" stroke="black" points="1733.27,-188.92 1739.67,-180.48 1729.4,-183.08 1733.27,-188.92"/>
</g>
<!-- aptos_governance::initialize -->
<g id="node21" class="node">
<title>aptos_governance::initialize</title>
<ellipse fill="none" stroke="black" cx="1828" cy="-328" rx="41.69" ry="18"/>
<text text-anchor="middle" x="1828" y="-324.3" font-family="Times,serif" font-size="14.00">initialize</text>
</g>
<!-- aptos_governance::initialize&#45;&gt;account::new_event_handle -->
<g id="edge20" class="edge">
<title>aptos_governance::initialize&#45;&gt;account::new_event_handle</title>
<path fill="none" stroke="black" d="M1800.28,-314.12C1792.15,-308.99 1784.09,-302.31 1779,-294 1759.91,-262.86 1758.39,-219.71 1759.96,-191.57"/>
<polygon fill="black" stroke="black" points="1763.45,-191.9 1760.7,-181.67 1756.47,-191.38 1763.45,-191.9"/>
</g>
<!-- aptos_governance::initialize&#45;&gt;voting::register -->
<g id="edge36" class="edge">
<title>aptos_governance::initialize&#45;&gt;voting::register</title>
<path fill="none" stroke="black" d="M1828,-309.82C1828,-299.69 1828,-286.6 1828,-274.92"/>
<polygon fill="black" stroke="black" points="1831.5,-274.95 1828,-264.95 1824.5,-274.95 1831.5,-274.95"/>
</g>
<!-- block::initialize&#45;&gt;account::new_event_handle -->
<g id="edge21" class="edge">
<title>block::initialize&#45;&gt;account::new_event_handle</title>
<path fill="none" stroke="black" d="M361.6,-482.45C299.09,-476.12 182.37,-454.03 130,-377 90.52,-318.93 80.47,-268.78 130,-219 145.16,-203.76 1657.22,-216.52 1678,-211 1696.95,-205.97 1716.12,-195.68 1731.45,-185.92"/>
<polygon fill="black" stroke="black" points="1733.27,-188.92 1739.67,-180.48 1729.4,-183.08 1733.27,-188.92"/>
</g>
<!-- staking_contract::new_staking_contracts_holder -->
<g id="node23" class="node">
<title>staking_contract::new_staking_contracts_holder</title>
<ellipse fill="none" stroke="black" cx="1601" cy="-245" rx="118.08" ry="18"/>
<text text-anchor="middle" x="1601" y="-241.3" font-family="Times,serif" font-size="14.00">new_staking_contracts_holder</text>
</g>
<!-- staking_contract::new_staking_contracts_holder&#45;&gt;account::new_event_handle -->
<g id="edge22" class="edge">
<title>staking_contract::new_staking_contracts_holder&#45;&gt;account::new_event_handle</title>
<path fill="none" stroke="black" d="M1641.34,-227.69C1653.27,-222.61 1666.27,-216.8 1678,-211 1694.17,-203 1711.58,-193.36 1726.42,-184.82"/>
<polygon fill="black" stroke="black" points="1728.03,-187.93 1734.92,-179.87 1724.51,-181.87 1728.03,-187.93"/>
</g>
<!-- vesting::create_vesting_contract -->
<g id="node24" class="node">
<title>vesting::create_vesting_contract</title>
<ellipse fill="none" stroke="black" cx="2233" cy="-403" rx="94.48" ry="18"/>
<text text-anchor="middle" x="2233" y="-399.3" font-family="Times,serif" font-size="14.00">create_vesting_contract</text>
</g>
<!-- vesting::create_vesting_contract&#45;&gt;account::new_event_handle -->
<g id="edge23" class="edge">
<title>vesting::create_vesting_contract&#45;&gt;account::new_event_handle</title>
<path fill="none" stroke="black" d="M2142.21,-397.59C2095.28,-394.06 2043.6,-387.82 2023,-377 1983.69,-356.35 1987.08,-334.66 1957,-302 1922.29,-264.31 1920.92,-245.39 1877,-219 1865.91,-212.33 1860.95,-215.96 1849,-211 1831.64,-203.79 1813.34,-193.92 1798.09,-185.01"/>
<polygon fill="black" stroke="black" points="1800.24,-182.21 1789.86,-180.1 1796.66,-188.23 1800.24,-182.21"/>
</g>
<!-- vesting::create_vesting_contract&#45;&gt;vesting::create_vesting_contract_account -->
<g id="edge29" class="edge">
<title>vesting::create_vesting_contract&#45;&gt;vesting::create_vesting_contract_account</title>
<path fill="none" stroke="black" d="M2240.58,-384.7C2244.22,-376.4 2248.68,-366.24 2252.78,-356.88"/>
<polygon fill="black" stroke="black" points="2255.94,-358.38 2256.75,-347.81 2249.53,-355.57 2255.94,-358.38"/>
</g>
<!-- staking_contract::create_staking_contract_with_coins -->
<g id="node29" class="node">
<title>staking_contract::create_staking_contract_with_coins</title>
<ellipse fill="none" stroke="black" cx="1518" cy="-328" rx="137.28" ry="18"/>
<text text-anchor="middle" x="1518" y="-324.3" font-family="Times,serif" font-size="14.00">create_staking_contract_with_coins</text>
</g>
<!-- vesting::create_vesting_contract&#45;&gt;staking_contract::create_staking_contract_with_coins -->
<g id="edge46" class="edge">
<title>vesting::create_vesting_contract&#45;&gt;staking_contract::create_staking_contract_with_coins</title>
<path fill="none" stroke="black" d="M2145.09,-396C2090.89,-392.44 2019.94,-388.05 1957,-385 1856.61,-380.13 1830.68,-389.88 1731,-377 1681.76,-370.64 1627.14,-358.22 1585.54,-347.61"/>
<polygon fill="black" stroke="black" points="1586.46,-344.23 1575.91,-345.12 1584.71,-351.01 1586.46,-344.23"/>
</g>
<!-- aptos_account::transfer -->
<g id="node25" class="node">
<title>aptos_account::transfer</title>
<ellipse fill="none" stroke="black" cx="3361" cy="-403" rx="37.89" ry="18"/>
<text text-anchor="middle" x="3361" y="-399.3" font-family="Times,serif" font-size="14.00">transfer</text>
</g>
<!-- aptos_account::transfer&#45;&gt;aptos_account::create_account -->
<g id="edge24" class="edge">
<title>aptos_account::transfer&#45;&gt;aptos_account::create_account</title>
<path fill="none" stroke="black" d="M3361,-384.7C3361,-376.67 3361,-366.9 3361,-357.8"/>
<polygon fill="black" stroke="black" points="3364.5,-357.94 3361,-347.94 3357.5,-357.94 3364.5,-357.94"/>
</g>
<!-- genesis::create_accounts -->
<g id="node26" class="node">
<title>genesis::create_accounts</title>
<ellipse fill="none" stroke="black" cx="1226" cy="-403" rx="66.89" ry="18"/>
<text text-anchor="middle" x="1226" y="-399.3" font-family="Times,serif" font-size="14.00">create_accounts</text>
</g>
<!-- genesis::create_accounts&#45;&gt;genesis::create_account -->
<g id="edge25" class="edge">
<title>genesis::create_accounts&#45;&gt;genesis::create_account</title>
<path fill="none" stroke="black" d="M1226.24,-384.7C1226.35,-376.67 1226.48,-366.9 1226.61,-357.8"/>
<polygon fill="black" stroke="black" points="1230.1,-357.99 1226.74,-347.94 1223.1,-357.89 1230.1,-357.99"/>
</g>
<!-- genesis::create_initialize_validator -->
<g id="node27" class="node">
<title>genesis::create_initialize_validator</title>
<ellipse fill="none" stroke="black" cx="999" cy="-403" rx="102.88" ry="18"/>
<text text-anchor="middle" x="999" y="-399.3" font-family="Times,serif" font-size="14.00">create_initialize_validator</text>
</g>
<!-- genesis::create_initialize_validator&#45;&gt;genesis::create_account -->
<g id="edge26" class="edge">
<title>genesis::create_initialize_validator&#45;&gt;genesis::create_account</title>
<path fill="none" stroke="black" d="M1046.8,-386.7C1084.39,-374.66 1136.69,-357.91 1175.27,-345.56"/>
<polygon fill="black" stroke="black" points="1175.87,-349.05 1184.32,-342.66 1173.73,-342.38 1175.87,-349.05"/>
</g>
<!-- genesis::create_initialize_validator&#45;&gt;stake::initialize_stake_owner -->
<g id="edge49" class="edge">
<title>genesis::create_initialize_validator&#45;&gt;stake::initialize_stake_owner</title>
<path fill="none" stroke="black" d="M896.03,-401.44C773.91,-399.96 577.99,-394.77 507,-377 484.57,-371.39 461.13,-360.73 442.38,-350.89"/>
<polygon fill="black" stroke="black" points="444.27,-347.93 433.81,-346.26 440.94,-354.09 444.27,-347.93"/>
</g>
<!-- staking_contract::create_staking_contract -->
<g id="node37" class="node">
<title>staking_contract::create_staking_contract</title>
<ellipse fill="none" stroke="black" cx="1432" cy="-403" rx="94.48" ry="18"/>
<text text-anchor="middle" x="1432" y="-399.3" font-family="Times,serif" font-size="14.00">create_staking_contract</text>
</g>
<!-- genesis::create_initialize_validator&#45;&gt;staking_contract::create_staking_contract -->
<g id="edge52" class="edge">
<title>genesis::create_initialize_validator&#45;&gt;staking_contract::create_staking_contract</title>
<path fill="none" stroke="black" d="M1038.55,-420.05C1070.4,-432.8 1116.68,-449.17 1159,-456 1189.06,-460.85 1266.08,-461.62 1296,-456 1327.96,-449.99 1362.05,-436.69 1388.1,-424.92"/>
<polygon fill="black" stroke="black" points="1389.41,-428.17 1397.02,-420.8 1386.47,-421.82 1389.41,-428.17"/>
</g>
<!-- genesis::initialize_for_verification -->
<g id="node28" class="node">
<title>genesis::initialize_for_verification</title>
<ellipse fill="none" stroke="black" cx="620" cy="-644" rx="100.98" ry="18"/>
<text text-anchor="middle" x="620" y="-640.3" font-family="Times,serif" font-size="14.00">initialize_for_verification</text>
</g>
<!-- genesis::initialize_for_verification&#45;&gt;genesis::initialize -->
<g id="edge27" class="edge">
<title>genesis::initialize_for_verification&#45;&gt;genesis::initialize</title>
<path fill="none" stroke="black" d="M606.02,-625.7C598.61,-616.53 589.37,-605.11 581.2,-594.99"/>
<polygon fill="black" stroke="black" points="584.03,-592.93 575.02,-587.35 578.59,-597.33 584.03,-592.93"/>
</g>
<!-- aptos_governance::initialize_for_verification -->
<g id="node34" class="node">
<title>aptos_governance::initialize_for_verification</title>
<ellipse fill="none" stroke="black" cx="1844" cy="-403" rx="100.98" ry="18"/>
<text text-anchor="middle" x="1844" y="-399.3" font-family="Times,serif" font-size="14.00">initialize_for_verification</text>
</g>
<!-- genesis::initialize_for_verification&#45;&gt;aptos_governance::initialize_for_verification -->
<g id="edge50" class="edge">
<title>genesis::initialize_for_verification&#45;&gt;aptos_governance::initialize_for_verification</title>
<path fill="none" stroke="black" d="M690.55,-630.78C703.63,-628.89 717.2,-627.18 730,-626 848.22,-615.14 879.22,-632.94 997,-618 1328.8,-575.91 1412.69,-554.68 1731,-452 1754.15,-444.53 1779.11,-434.19 1799.67,-425.01"/>
<polygon fill="black" stroke="black" points="1800.94,-428.28 1808.61,-420.96 1798.06,-421.9 1800.94,-428.28"/>
</g>
<!-- genesis::create_initialize_validators -->
<g id="node38" class="node">
<title>genesis::create_initialize_validators</title>
<ellipse fill="none" stroke="black" cx="882" cy="-569" rx="105.88" ry="18"/>
<text text-anchor="middle" x="882" y="-565.3" font-family="Times,serif" font-size="14.00">create_initialize_validators</text>
</g>
<!-- genesis::initialize_for_verification&#45;&gt;genesis::create_initialize_validators -->
<g id="edge53" class="edge">
<title>genesis::initialize_for_verification&#45;&gt;genesis::create_initialize_validators</title>
<path fill="none" stroke="black" d="M673.02,-628.23C714.79,-616.59 773.18,-600.32 817.63,-587.94"/>
<polygon fill="black" stroke="black" points="818.46,-591.34 827.15,-585.28 816.58,-584.59 818.46,-591.34"/>
</g>
<!-- staking_contract::create_staking_contract_with_coins&#45;&gt;staking_contract::create_stake_pool -->
<g id="edge28" class="edge">
<title>staking_contract::create_staking_contract_with_coins&#45;&gt;staking_contract::create_stake_pool</title>
<path fill="none" stroke="black" d="M1491.38,-310.02C1472.37,-297.9 1446.63,-281.48 1425.97,-268.3"/>
<polygon fill="black" stroke="black" points="1427.88,-265.37 1417.57,-262.94 1424.12,-271.27 1427.88,-265.37"/>
</g>
<!-- staking_contract::create_staking_contract_with_coins&#45;&gt;staking_contract::new_staking_contracts_holder -->
<g id="edge42" class="edge">
<title>staking_contract::create_staking_contract_with_coins&#45;&gt;staking_contract::new_staking_contracts_holder</title>
<path fill="none" stroke="black" d="M1535.6,-309.82C1547.16,-298.55 1562.46,-283.61 1575.36,-271.02"/>
<polygon fill="black" stroke="black" points="1577.63,-273.7 1582.34,-264.21 1572.74,-268.69 1577.63,-273.7"/>
</g>
<!-- aptos_coin::configure_accounts_for_test&#45;&gt;coin::register -->
<g id="edge30" class="edge">
<title>aptos_coin::configure_accounts_for_test&#45;&gt;coin::register</title>
<path fill="none" stroke="black" d="M1785.66,-552.57C1835.11,-535.22 1909.63,-502.66 1957,-452 2006.75,-398.8 1982.71,-362.68 2023,-302 2030.79,-290.27 2041.13,-278.73 2050.6,-269.19"/>
<polygon fill="black" stroke="black" points="2052.81,-271.92 2057.54,-262.44 2047.93,-266.91 2052.81,-271.92"/>
</g>
<!-- managed_coin::register -->
<g id="node31" class="node">
<title>managed_coin::register</title>
<ellipse fill="none" stroke="black" cx="2076" cy="-328" rx="37.09" ry="18"/>
<text text-anchor="middle" x="2076" y="-324.3" font-family="Times,serif" font-size="14.00">register</text>
</g>
<!-- managed_coin::register&#45;&gt;coin::register -->
<g id="edge34" class="edge">
<title>managed_coin::register&#45;&gt;coin::register</title>
<path fill="none" stroke="black" d="M2076,-309.82C2076,-299.69 2076,-286.6 2076,-274.92"/>
<polygon fill="black" stroke="black" points="2079.5,-274.95 2076,-264.95 2072.5,-274.95 2079.5,-274.95"/>
</g>
<!-- stake::initialize_stake_owner&#45;&gt;stake::initialize_owner -->
<g id="edge37" class="edge">
<title>stake::initialize_stake_owner&#45;&gt;stake::initialize_owner</title>
<path fill="none" stroke="black" d="M405,-309.82C405,-299.69 405,-286.6 405,-274.92"/>
<polygon fill="black" stroke="black" points="408.5,-274.95 405,-264.95 401.5,-274.95 408.5,-274.95"/>
</g>
<!-- stake::initialize_validator -->
<g id="node33" class="node">
<title>stake::initialize_validator</title>
<ellipse fill="none" stroke="black" cx="219" cy="-328" rx="77.19" ry="18"/>
<text text-anchor="middle" x="219" y="-324.3" font-family="Times,serif" font-size="14.00">initialize_validator</text>
</g>
<!-- stake::initialize_validator&#45;&gt;stake::initialize_owner -->
<g id="edge38" class="edge">
<title>stake::initialize_validator&#45;&gt;stake::initialize_owner</title>
<path fill="none" stroke="black" d="M254.42,-311.57C284.44,-298.5 327.66,-279.68 360.1,-265.55"/>
<polygon fill="black" stroke="black" points="361.49,-268.76 369.26,-261.56 358.7,-262.35 361.49,-268.76"/>
</g>
<!-- aptos_governance::initialize_for_verification&#45;&gt;aptos_governance::initialize -->
<g id="edge40" class="edge">
<title>aptos_governance::initialize_for_verification&#45;&gt;aptos_governance::initialize</title>
<path fill="none" stroke="black" d="M1840.21,-384.7C1838.41,-376.52 1836.23,-366.54 1834.2,-357.29"/>
<polygon fill="black" stroke="black" points="1837.65,-356.67 1832.09,-347.65 1830.81,-358.17 1837.65,-356.67"/>
</g>
<!-- genesis::create_employee_validators -->
<g id="node35" class="node">
<title>genesis::create_employee_validators</title>
<ellipse fill="none" stroke="black" cx="1183" cy="-644" rx="109.68" ry="18"/>
<text text-anchor="middle" x="1183" y="-640.3" font-family="Times,serif" font-size="14.00">create_employee_validators</text>
</g>
<!-- genesis::create_employee_validators&#45;&gt;vesting::create_vesting_contract -->
<g id="edge43" class="edge">
<title>genesis::create_employee_validators&#45;&gt;vesting::create_vesting_contract</title>
<path fill="none" stroke="black" d="M1292.38,-641.79C1469.43,-639.41 1804.38,-632.97 1857,-618 1997.92,-577.9 2142.39,-474.66 2203.18,-427.79"/>
<polygon fill="black" stroke="black" points="2205.27,-430.6 2211.01,-421.69 2200.97,-425.07 2205.27,-430.6"/>
</g>
<!-- genesis::create_initialize_validators_with_commission -->
<g id="node36" class="node">
<title>genesis::create_initialize_validators_with_commission</title>
<ellipse fill="none" stroke="black" cx="921" cy="-486" rx="173.57" ry="18"/>
<text text-anchor="middle" x="921" y="-482.3" font-family="Times,serif" font-size="14.00">create_initialize_validators_with_commission</text>
</g>
<!-- genesis::create_initialize_validators_with_commission&#45;&gt;genesis::create_initialize_validator -->
<g id="edge44" class="edge">
<title>genesis::create_initialize_validators_with_commission&#45;&gt;genesis::create_initialize_validator</title>
<path fill="none" stroke="black" d="M937.54,-467.82C948.3,-456.65 962.51,-441.9 974.56,-429.38"/>
<polygon fill="black" stroke="black" points="977.02,-431.87 981.43,-422.24 971.97,-427.02 977.02,-431.87"/>
</g>
<!-- staking_contract::create_staking_contract&#45;&gt;staking_contract::create_staking_contract_with_coins -->
<g id="edge45" class="edge">
<title>staking_contract::create_staking_contract&#45;&gt;staking_contract::create_staking_contract_with_coins</title>
<path fill="none" stroke="black" d="M1451.95,-385.07C1463.05,-375.65 1477.06,-363.75 1489.31,-353.35"/>
<polygon fill="black" stroke="black" points="1491.35,-356.21 1496.71,-347.07 1486.82,-350.87 1491.35,-356.21"/>
</g>
<!-- genesis::create_initialize_validators&#45;&gt;genesis::create_initialize_validators_with_commission -->
<g id="edge51" class="edge">
<title>genesis::create_initialize_validators&#45;&gt;genesis::create_initialize_validators_with_commission</title>
<path fill="none" stroke="black" d="M890.27,-550.82C895.36,-540.26 901.98,-526.49 907.78,-514.45"/>
<polygon fill="black" stroke="black" points="910.77,-516.32 911.95,-505.8 904.46,-513.29 910.77,-516.32"/>
</g>
</g>
</svg>
