<?xml version="1.0" encoding="UTF-8" standalone="no"?>
<!DOCTYPE svg PUBLIC "-//W3C//DTD SVG 1.1//EN"
 "http://www.w3.org/Graphics/SVG/1.1/DTD/svg11.dtd">
<!-- Generated by graphviz version 7.0.0 (20221023.0053)
 -->
<!-- Title: G Pages: 1 -->
<svg width="1242pt" height="620pt"
 viewBox="0.00 0.00 1242.47 620.00" xmlns="http://www.w3.org/2000/svg" xmlns:xlink="http://www.w3.org/1999/xlink">
<g id="graph0" class="graph" transform="scale(1 1) rotate(0) translate(4 616)">
<title>G</title>
<polygon fill="white" stroke="none" points="-4,4 -4,-616 1238.47,-616 1238.47,4 -4,4"/>
<!-- managed_coin -->
<g id="node1" class="node">
<title>managed_coin</title>
<ellipse fill="none" stroke="black" cx="283.47" cy="-594" rx="62.29" ry="18"/>
<text text-anchor="middle" x="283.47" y="-590.3" font-family="Times,serif" font-size="14.00">managed_coin</text>
</g>
<!-- string -->
<g id="node2" class="node">
<title>string</title>
<ellipse fill="none" stroke="black" cx="61.47" cy="-162" rx="30.59" ry="18"/>
<text text-anchor="middle" x="61.47" y="-158.3" font-family="Times,serif" font-size="14.00">string</text>
</g>
<!-- managed_coin&#45;&gt;string -->
<g id="edge1" class="edge">
<title>managed_coin&#45;&gt;string</title>
<path fill="none" stroke="black" d="M228.03,-585.43C156.31,-572.16 40.47,-537.36 40.47,-451 40.47,-451 40.47,-451 40.47,-305 40.47,-265.1 48.69,-219.56 54.84,-191.04"/>
<polygon fill="black" stroke="black" points="58.23,-191.93 56.99,-181.41 51.4,-190.4 58.23,-191.93"/>
</g>
<!-- signer -->
<g id="node3" class="node">
<title>signer</title>
<ellipse fill="none" stroke="black" cx="296.47" cy="-90" rx="32.49" ry="18"/>
<text text-anchor="middle" x="296.47" y="-86.3" font-family="Times,serif" font-size="14.00">signer</text>
</g>
<!-- managed_coin&#45;&gt;signer -->
<g id="edge2" class="edge">
<title>managed_coin&#45;&gt;signer</title>
<path fill="none" stroke="black" d="M221.6,-591.18C172.94,-586.94 105.56,-574.6 57.47,-540 19.73,-512.84 2.47,-497.5 2.47,-451 2.47,-451 2.47,-451 2.47,-233 2.47,-192.55 -7.41,-172.31 21.47,-144 53.72,-112.39 183.96,-98.75 253,-93.64"/>
<polygon fill="black" stroke="black" points="253.1,-97.14 262.83,-92.95 252.61,-90.16 253.1,-97.14"/>
</g>
<!-- error -->
<g id="node4" class="node">
<title>error</title>
<ellipse fill="none" stroke="black" cx="830.47" cy="-90" rx="27.9" ry="18"/>
<text text-anchor="middle" x="830.47" y="-86.3" font-family="Times,serif" font-size="14.00">error</text>
</g>
<!-- managed_coin&#45;&gt;error -->
<g id="edge3" class="edge">
<title>managed_coin&#45;&gt;error</title>
<path fill="none" stroke="black" d="M344.77,-590.34C555.09,-580.4 1234.47,-541.3 1234.47,-451 1234.47,-451 1234.47,-451 1234.47,-233 1234.47,-188.27 1223.98,-169.85 1187.47,-144 1136.97,-108.24 951.84,-96.11 869.92,-92.43"/>
<polygon fill="black" stroke="black" points="870.27,-88.95 860.13,-92.02 869.97,-95.94 870.27,-88.95"/>
</g>
<!-- coin -->
<g id="node5" class="node">
<title>coin</title>
<ellipse fill="none" stroke="black" cx="412.47" cy="-522" rx="27" ry="18"/>
<text text-anchor="middle" x="412.47" y="-518.3" font-family="Times,serif" font-size="14.00">coin</text>
</g>
<!-- managed_coin&#45;&gt;coin -->
<g id="edge4" class="edge">
<title>managed_coin&#45;&gt;coin</title>
<path fill="none" stroke="black" d="M311.78,-577.64C332.46,-566.41 360.49,-551.21 381.72,-539.69"/>
<polygon fill="black" stroke="black" points="383.38,-542.77 390.5,-534.92 380.04,-536.61 383.38,-542.77"/>
</g>
<!-- vector -->
<g id="node6" class="node">
<title>vector</title>
<ellipse fill="none" stroke="black" cx="236.47" cy="-18" rx="32.49" ry="18"/>
<text text-anchor="middle" x="236.47" y="-14.3" font-family="Times,serif" font-size="14.00">vector</text>
</g>
<!-- string&#45;&gt;vector -->
<g id="edge5" class="edge">
<title>string&#45;&gt;vector</title>
<path fill="none" stroke="black" d="M78.89,-146.87C109.65,-121.9 173.77,-69.87 210.02,-40.46"/>
<polygon fill="black" stroke="black" points="211.87,-43.47 217.43,-34.45 207.46,-38.04 211.87,-43.47"/>
</g>
<!-- option -->
<g id="node7" class="node">
<title>option</title>
<ellipse fill="none" stroke="black" cx="380.47" cy="-90" rx="33.29" ry="18"/>
<text text-anchor="middle" x="380.47" y="-86.3" font-family="Times,serif" font-size="14.00">option</text>
</g>
<!-- string&#45;&gt;option -->
<g id="edge6" class="edge">
<title>string&#45;&gt;option</title>
<path fill="none" stroke="black" d="M89.87,-155.05C105.89,-151.73 126.28,-147.56 144.47,-144 230.1,-127.25 253.62,-132.15 337.47,-108 339.85,-107.31 342.29,-106.55 344.72,-105.73"/>
<polygon fill="black" stroke="black" points="345.66,-109.11 353.86,-102.41 343.27,-102.53 345.66,-109.11"/>
</g>
<!-- coin&#45;&gt;string -->
<g id="edge8" class="edge">
<title>coin&#45;&gt;string</title>
<path fill="none" stroke="black" d="M385.39,-520.01C317.75,-517 143.86,-505.67 102.47,-468 72.17,-440.42 78.47,-419.97 78.47,-379 78.47,-379 78.47,-379 78.47,-305 78.47,-265.24 71.82,-219.67 66.84,-191.1"/>
<polygon fill="black" stroke="black" points="70.32,-190.68 65.1,-181.46 63.43,-191.92 70.32,-190.68"/>
</g>
<!-- coin&#45;&gt;signer -->
<g id="edge9" class="edge">
<title>coin&#45;&gt;signer</title>
<path fill="none" stroke="black" d="M385.12,-520.71C341.65,-518.92 255.94,-509.88 199.47,-468 169.53,-445.8 166.38,-431.93 156.47,-396 134.84,-317.6 145.66,-284.52 189.47,-216 214.14,-177.42 249.87,-138.14 273.14,-114.16"/>
<polygon fill="black" stroke="black" points="275.53,-116.72 280.04,-107.13 270.54,-111.82 275.53,-116.72"/>
</g>
<!-- coin&#45;&gt;error -->
<g id="edge10" class="edge">
<title>coin&#45;&gt;error</title>
<path fill="none" stroke="black" d="M439.79,-520.06C543.55,-516.27 913.03,-500.71 1025.47,-468 1107.74,-444.07 1196.47,-464.68 1196.47,-379 1196.47,-379 1196.47,-379 1196.47,-233 1196.47,-189.81 1191.61,-170.45 1157.47,-144 1113.1,-109.61 946.23,-96.85 869.5,-92.73"/>
<polygon fill="black" stroke="black" points="870.11,-89.26 859.94,-92.24 869.75,-96.25 870.11,-89.26"/>
</g>
<!-- coin&#45;&gt;option -->
<g id="edge7" class="edge">
<title>coin&#45;&gt;option</title>
<path fill="none" stroke="black" d="M386.28,-516.39C334.68,-505.75 220.76,-474.11 173.47,-396 106.04,-284.64 276.49,-157.66 349.34,-110.21"/>
<polygon fill="black" stroke="black" points="351.14,-113.22 357.66,-104.87 347.36,-107.33 351.14,-113.22"/>
</g>
<!-- type_info -->
<g id="node8" class="node">
<title>type_info</title>
<ellipse fill="none" stroke="black" cx="384.47" cy="-234" rx="44.39" ry="18"/>
<text text-anchor="middle" x="384.47" y="-230.3" font-family="Times,serif" font-size="14.00">type_info</text>
</g>
<!-- coin&#45;&gt;type_info -->
<g id="edge11" class="edge">
<title>coin&#45;&gt;type_info</title>
<path fill="none" stroke="black" d="M410.76,-503.54C406.08,-455.76 393.04,-322.51 387.27,-263.61"/>
<polygon fill="black" stroke="black" points="390.76,-263.35 386.31,-253.74 383.8,-264.03 390.76,-263.35"/>
</g>
<!-- system_addresses -->
<g id="node9" class="node">
<title>system_addresses</title>
<ellipse fill="none" stroke="black" cx="743.47" cy="-162" rx="73.39" ry="18"/>
<text text-anchor="middle" x="743.47" y="-158.3" font-family="Times,serif" font-size="14.00">system_addresses</text>
</g>
<!-- coin&#45;&gt;system_addresses -->
<g id="edge12" class="edge">
<title>coin&#45;&gt;system_addresses</title>
<path fill="none" stroke="black" d="M439.48,-518.71C536.05,-509.93 861.6,-474.79 921.47,-396 980.77,-317.97 850.19,-225.52 781.8,-184.47"/>
<polygon fill="black" stroke="black" points="783.89,-181.64 773.5,-179.57 780.33,-187.67 783.89,-181.64"/>
</g>
<!-- event -->
<g id="node10" class="node">
<title>event</title>
<ellipse fill="none" stroke="black" cx="882.47" cy="-378" rx="29.8" ry="18"/>
<text text-anchor="middle" x="882.47" y="-374.3" font-family="Times,serif" font-size="14.00">event</text>
</g>
<!-- coin&#45;&gt;event -->
<g id="edge13" class="edge">
<title>coin&#45;&gt;event</title>
<path fill="none" stroke="black" d="M436.96,-513.84C501.37,-494.96 680.77,-442.13 829.47,-396 834.73,-394.37 840.28,-392.62 845.72,-390.89"/>
<polygon fill="black" stroke="black" points="846.72,-394.24 855.18,-387.86 844.59,-387.58 846.72,-394.24"/>
</g>
<!-- account -->
<g id="node11" class="node">
<title>account</title>
<ellipse fill="none" stroke="black" cx="526.47" cy="-450" rx="38.19" ry="18"/>
<text text-anchor="middle" x="526.47" y="-446.3" font-family="Times,serif" font-size="14.00">account</text>
</g>
<!-- coin&#45;&gt;account -->
<g id="edge14" class="edge">
<title>coin&#45;&gt;account</title>
<path fill="none" stroke="black" d="M431.81,-509.13C448.87,-498.65 474.09,-483.17 494.2,-470.81"/>
<polygon fill="black" stroke="black" points="495.92,-473.87 502.61,-465.65 492.26,-467.9 495.92,-473.87"/>
</g>
<!-- optional_aggregator -->
<g id="node12" class="node">
<title>optional_aggregator</title>
<ellipse fill="none" stroke="black" cx="1087.47" cy="-306" rx="81.49" ry="18"/>
<text text-anchor="middle" x="1087.47" y="-302.3" font-family="Times,serif" font-size="14.00">optional_aggregator</text>
</g>
<!-- coin&#45;&gt;optional_aggregator -->
<g id="edge15" class="edge">
<title>coin&#45;&gt;optional_aggregator</title>
<path fill="none" stroke="black" d="M439.75,-519.96C548.22,-515.63 945.32,-497.85 992.47,-468 1040.93,-437.32 1067.75,-372.28 1079.72,-334.93"/>
<polygon fill="black" stroke="black" points="1082.95,-336.33 1082.53,-325.75 1076.26,-334.29 1082.95,-336.33"/>
</g>
<!-- option&#45;&gt;vector -->
<g id="edge16" class="edge">
<title>option&#45;&gt;vector</title>
<path fill="none" stroke="black" d="M356.37,-77.28C332.87,-65.86 296.9,-48.37 270.49,-35.54"/>
<polygon fill="black" stroke="black" points="272.06,-32.41 261.53,-31.18 269,-38.7 272.06,-32.41"/>
</g>
<!-- type_info&#45;&gt;string -->
<g id="edge17" class="edge">
<title>type_info&#45;&gt;string</title>
<path fill="none" stroke="black" d="M345.83,-224.63C283.88,-211.2 162.98,-185 100.67,-171.5"/>
<polygon fill="black" stroke="black" points="101.74,-168.15 91.23,-169.45 100.26,-174.99 101.74,-168.15"/>
</g>
<!-- type_info&#45;&gt;error -->
<g id="edge18" class="edge">
<title>type_info&#45;&gt;error</title>
<path fill="none" stroke="black" d="M411.48,-219.35C450.25,-200.22 524.3,-165.39 590.47,-144 660.24,-121.45 744.48,-105.3 792.33,-97.11"/>
<polygon fill="black" stroke="black" points="792.62,-100.61 801.9,-95.5 791.46,-93.71 792.62,-100.61"/>
</g>
<!-- features -->
<g id="node13" class="node">
<title>features</title>
<ellipse fill="none" stroke="black" cx="384.47" cy="-162" rx="38.19" ry="18"/>
<text text-anchor="middle" x="384.47" y="-158.3" font-family="Times,serif" font-size="14.00">features</text>
</g>
<!-- type_info&#45;&gt;features -->
<g id="edge19" class="edge">
<title>type_info&#45;&gt;features</title>
<path fill="none" stroke="black" d="M384.47,-215.7C384.47,-208.41 384.47,-199.73 384.47,-191.54"/>
<polygon fill="black" stroke="black" points="387.97,-191.62 384.47,-181.62 380.97,-191.62 387.97,-191.62"/>
</g>
<!-- system_addresses&#45;&gt;signer -->
<g id="edge20" class="edge">
<title>system_addresses&#45;&gt;signer</title>
<path fill="none" stroke="black" d="M672.18,-157.17C590.45,-151.51 452.99,-138.14 338.47,-108 336.21,-107.41 333.91,-106.72 331.61,-105.97"/>
<polygon fill="black" stroke="black" points="333.01,-102.76 322.41,-102.65 330.63,-109.34 333.01,-102.76"/>
</g>
<!-- system_addresses&#45;&gt;error -->
<g id="edge21" class="edge">
<title>system_addresses&#45;&gt;error</title>
<path fill="none" stroke="black" d="M764.09,-144.41C776.22,-134.65 791.67,-122.22 804.61,-111.81"/>
<polygon fill="black" stroke="black" points="806.73,-114.59 812.33,-105.6 802.34,-109.14 806.73,-114.59"/>
</g>
<!-- bcs -->
<g id="node14" class="node">
<title>bcs</title>
<ellipse fill="none" stroke="black" cx="698.47" cy="-234" rx="27" ry="18"/>
<text text-anchor="middle" x="698.47" y="-230.3" font-family="Times,serif" font-size="14.00">bcs</text>
</g>
<!-- event&#45;&gt;bcs -->
<g id="edge22" class="edge">
<title>event&#45;&gt;bcs</title>
<path fill="none" stroke="black" d="M888.28,-360.03C893.78,-340.58 899.1,-308.73 883.47,-288 874.4,-275.97 786.29,-254.58 735.01,-243"/>
<polygon fill="black" stroke="black" points="736.05,-239.64 725.53,-240.87 734.52,-246.47 736.05,-239.64"/>
</g>
<!-- guid -->
<g id="node15" class="node">
<title>guid</title>
<ellipse fill="none" stroke="black" cx="847.47" cy="-306" rx="27" ry="18"/>
<text text-anchor="middle" x="847.47" y="-302.3" font-family="Times,serif" font-size="14.00">guid</text>
</g>
<!-- event&#45;&gt;guid -->
<g id="edge23" class="edge">
<title>event&#45;&gt;guid</title>
<path fill="none" stroke="black" d="M874.18,-360.41C870.17,-352.39 865.25,-342.57 860.74,-333.54"/>
<polygon fill="black" stroke="black" points="863.99,-332.2 856.38,-324.82 857.72,-335.33 863.99,-332.2"/>
</g>
<!-- account&#45;&gt;signer -->
<g id="edge26" class="edge">
<title>account&#45;&gt;signer</title>
<path fill="none" stroke="black" d="M494.21,-439.94C467.79,-431.46 430.36,-416.95 402.47,-396 369.39,-371.16 362.05,-360.97 343.47,-324 309.35,-256.11 300,-165.35 297.44,-119.74"/>
<polygon fill="black" stroke="black" points="300.94,-119.71 296.96,-109.89 293.95,-120.05 300.94,-119.71"/>
</g>
<!-- account&#45;&gt;error -->
<g id="edge27" class="edge">
<title>account&#45;&gt;error</title>
<path fill="none" stroke="black" d="M564.48,-446.71C658.87,-440.62 898.12,-422.69 921.47,-396 932.01,-383.96 923.43,-375.88 921.47,-360 917.44,-327.26 912.69,-319.67 903.47,-288 898.76,-271.81 894.17,-268.65 891.47,-252 888.91,-236.21 889.73,-231.9 891.47,-216 893.26,-199.71 897.68,-196.29 899.47,-180 901.22,-164.1 906.54,-158.35 899.47,-144 891.68,-128.19 876.66,-115.78 862.61,-106.96"/>
<polygon fill="black" stroke="black" points="864.39,-103.94 853.99,-101.93 860.86,-109.99 864.39,-103.94"/>
</g>
<!-- account&#45;&gt;vector -->
<g id="edge24" class="edge">
<title>account&#45;&gt;vector</title>
<path fill="none" stroke="black" d="M489.99,-443.84C454.35,-437.38 399.85,-423.63 360.47,-396 286.53,-344.13 236.47,-325.32 236.47,-235 236.47,-235 236.47,-235 236.47,-161 236.47,-121.74 236.47,-76.38 236.47,-47.69"/>
<polygon fill="black" stroke="black" points="239.97,-48 236.47,-38 232.97,-48 239.97,-48"/>
</g>
<!-- account&#45;&gt;option -->
<g id="edge25" class="edge">
<title>account&#45;&gt;option</title>
<path fill="none" stroke="black" d="M502.32,-435.7C485.67,-425.91 463.56,-411.63 446.47,-396 386.04,-340.71 358.55,-329.3 331.47,-252 324.75,-232.82 333.31,-154.34 337.47,-144 341.8,-133.23 349.12,-122.94 356.49,-114.34"/>
<polygon fill="black" stroke="black" points="358.9,-116.9 363.06,-107.16 353.73,-112.18 358.9,-116.9"/>
</g>
<!-- account&#45;&gt;type_info -->
<g id="edge28" class="edge">
<title>account&#45;&gt;type_info</title>
<path fill="none" stroke="black" d="M509.35,-433.78C498.59,-423.7 484.83,-409.83 474.47,-396 441.7,-352.25 412.62,-295.26 396.87,-262.14"/>
<polygon fill="black" stroke="black" points="400.12,-260.81 392.7,-253.25 393.78,-263.79 400.12,-260.81"/>
</g>
<!-- account&#45;&gt;system_addresses -->
<g id="edge30" class="edge">
<title>account&#45;&gt;system_addresses</title>
<path fill="none" stroke="black" d="M558.94,-440.08C612.38,-425.37 713.14,-397.48 714.47,-396 765.63,-338.9 757.27,-239.95 749.24,-191.46"/>
<polygon fill="black" stroke="black" points="752.71,-190.99 747.5,-181.76 745.82,-192.22 752.71,-190.99"/>
</g>
<!-- account&#45;&gt;event -->
<g id="edge37" class="edge">
<title>account&#45;&gt;event</title>
<path fill="none" stroke="black" d="M563.5,-445.14C622.46,-438.46 741,-422.82 838.47,-396 841.58,-395.14 844.77,-394.15 847.95,-393.08"/>
<polygon fill="black" stroke="black" points="848.92,-396.45 857.13,-389.75 846.54,-389.87 848.92,-396.45"/>
</g>
<!-- account&#45;&gt;bcs -->
<g id="edge32" class="edge">
<title>account&#45;&gt;bcs</title>
<path fill="none" stroke="black" d="M558.44,-439.75C605.23,-426.07 687.31,-401.46 691.47,-396 720.74,-357.63 713.75,-297.87 706.07,-262.97"/>
<polygon fill="black" stroke="black" points="709.56,-262.54 703.84,-253.62 702.75,-264.16 709.56,-262.54"/>
</g>
<!-- account&#45;&gt;guid -->
<g id="edge35" class="edge">
<title>account&#45;&gt;guid</title>
<path fill="none" stroke="black" d="M564.08,-445.74C630.13,-439.37 763.45,-423.45 800.47,-396 820.63,-381.05 832.96,-354.87 839.9,-334.76"/>
<polygon fill="black" stroke="black" points="843.16,-336.07 842.85,-325.48 836.49,-333.95 843.16,-336.07"/>
</g>
<!-- table -->
<g id="node16" class="node">
<title>table</title>
<ellipse fill="none" stroke="black" cx="862.47" cy="-162" rx="27.9" ry="18"/>
<text text-anchor="middle" x="862.47" y="-158.3" font-family="Times,serif" font-size="14.00">table</text>
</g>
<!-- account&#45;&gt;table -->
<g id="edge29" class="edge">
<title>account&#45;&gt;table</title>
<path fill="none" stroke="black" d="M558.59,-439.96C568.19,-437.33 578.74,-434.49 588.47,-432 655.74,-414.82 685.65,-438.59 740.47,-396 775.98,-368.42 829.05,-245.39 851.65,-190.08"/>
<polygon fill="black" stroke="black" points="854.79,-191.66 855.31,-181.07 848.31,-189.03 854.79,-191.66"/>
</g>
<!-- hash -->
<g id="node17" class="node">
<title>hash</title>
<ellipse fill="none" stroke="black" cx="473.47" cy="-234" rx="27" ry="18"/>
<text text-anchor="middle" x="473.47" y="-230.3" font-family="Times,serif" font-size="14.00">hash</text>
</g>
<!-- account&#45;&gt;hash -->
<g id="edge31" class="edge">
<title>account&#45;&gt;hash</title>
<path fill="none" stroke="black" d="M515.56,-432.5C500.99,-409.4 475.93,-365.55 466.47,-324 461.92,-303.99 463.95,-280.86 466.97,-263.2"/>
<polygon fill="black" stroke="black" points="470.39,-263.92 468.86,-253.44 463.52,-262.59 470.39,-263.92"/>
</g>
<!-- ed25519 -->
<g id="node18" class="node">
<title>ed25519</title>
<ellipse fill="none" stroke="black" cx="533.47" cy="-306" rx="40.89" ry="18"/>
<text text-anchor="middle" x="533.47" y="-302.3" font-family="Times,serif" font-size="14.00">ed25519</text>
</g>
<!-- account&#45;&gt;ed25519 -->
<g id="edge33" class="edge">
<title>account&#45;&gt;ed25519</title>
<path fill="none" stroke="black" d="M527.33,-431.59C528.51,-407.61 530.65,-364.14 532.07,-335.42"/>
<polygon fill="black" stroke="black" points="535.56,-335.78 532.55,-325.62 528.56,-335.44 535.56,-335.78"/>
</g>
<!-- multi_ed25519 -->
<g id="node19" class="node">
<title>multi_ed25519</title>
<ellipse fill="none" stroke="black" cx="618.47" cy="-378" rx="64.19" ry="18"/>
<text text-anchor="middle" x="618.47" y="-374.3" font-family="Times,serif" font-size="14.00">multi_ed25519</text>
</g>
<!-- account&#45;&gt;multi_ed25519 -->
<g id="edge34" class="edge">
<title>account&#45;&gt;multi_ed25519</title>
<path fill="none" stroke="black" d="M545.98,-434.15C558.15,-424.89 574.08,-412.78 587.9,-402.26"/>
<polygon fill="black" stroke="black" points="590.02,-405.05 595.86,-396.21 585.78,-399.48 590.02,-405.05"/>
</g>
<!-- from_bcs -->
<g id="node20" class="node">
<title>from_bcs</title>
<ellipse fill="none" stroke="black" cx="226.47" cy="-378" rx="44.39" ry="18"/>
<text text-anchor="middle" x="226.47" y="-374.3" font-family="Times,serif" font-size="14.00">from_bcs</text>
</g>
<!-- account&#45;&gt;from_bcs -->
<g id="edge36" class="edge">
<title>account&#45;&gt;from_bcs</title>
<path fill="none" stroke="black" d="M492.64,-441.11C439.55,-428.72 336.45,-404.66 275.31,-390.4"/>
<polygon fill="black" stroke="black" points="276.42,-387.06 265.88,-388.2 274.83,-393.88 276.42,-387.06"/>
</g>
<!-- optional_aggregator&#45;&gt;error -->
<g id="edge39" class="edge">
<title>optional_aggregator&#45;&gt;error</title>
<path fill="none" stroke="black" d="M1108.25,-288.17C1118.22,-278.72 1129.15,-266.03 1134.47,-252 1151.5,-207.12 1165.36,-180.74 1134.47,-144 1101.09,-104.3 944.27,-94.33 869.86,-91.83"/>
<polygon fill="black" stroke="black" points="870.27,-88.35 860.16,-91.54 870.05,-95.34 870.27,-88.35"/>
</g>
<!-- optional_aggregator&#45;&gt;option -->
<g id="edge38" class="edge">
<title>optional_aggregator&#45;&gt;option</title>
<path fill="none" stroke="black" d="M1095.83,-287.75C1110.33,-255.01 1135.27,-183.62 1098.47,-144 1075.46,-119.23 578.47,-98.47 425.12,-92.64"/>
<polygon fill="black" stroke="black" points="425.49,-89.15 415.36,-92.27 425.23,-96.14 425.49,-89.15"/>
</g>
<!-- aggregator -->
<g id="node21" class="node">
<title>aggregator</title>
<ellipse fill="none" stroke="black" cx="1041.47" cy="-162" rx="48.19" ry="18"/>
<text text-anchor="middle" x="1041.47" y="-158.3" font-family="Times,serif" font-size="14.00">aggregator</text>
</g>
<!-- optional_aggregator&#45;&gt;aggregator -->
<g id="edge40" class="edge">
<title>optional_aggregator&#45;&gt;aggregator</title>
<path fill="none" stroke="black" d="M1083.52,-287.74C1079.22,-269.66 1071.83,-240.54 1063.47,-216 1060.6,-207.57 1057.05,-198.57 1053.65,-190.42"/>
<polygon fill="black" stroke="black" points="1056.92,-189.18 1049.77,-181.36 1050.49,-191.93 1056.92,-189.18"/>
</g>
<!-- aggregator_factory -->
<g id="node22" class="node">
<title>aggregator_factory</title>
<ellipse fill="none" stroke="black" cx="977.47" cy="-234" rx="77.19" ry="18"/>
<text text-anchor="middle" x="977.47" y="-230.3" font-family="Times,serif" font-size="14.00">aggregator_factory</text>
</g>
<!-- optional_aggregator&#45;&gt;aggregator_factory -->
<g id="edge41" class="edge">
<title>optional_aggregator&#45;&gt;aggregator_factory</title>
<path fill="none" stroke="black" d="M1061.68,-288.59C1047.06,-279.28 1028.56,-267.51 1012.63,-257.37"/>
<polygon fill="black" stroke="black" points="1014.69,-254.54 1004.38,-252.12 1010.93,-260.44 1014.69,-254.54"/>
</g>
<!-- features&#45;&gt;signer -->
<g id="edge42" class="edge">
<title>features&#45;&gt;signer</title>
<path fill="none" stroke="black" d="M365.81,-146.15C353.51,-136.37 337.21,-123.4 323.5,-112.5"/>
<polygon fill="black" stroke="black" points="325.69,-109.77 315.69,-106.29 321.34,-115.25 325.69,-109.77"/>
</g>
<!-- features&#45;&gt;error -->
<g id="edge43" class="edge">
<title>features&#45;&gt;error</title>
<path fill="none" stroke="black" d="M417.31,-152.58C429.55,-149.62 443.6,-146.43 456.47,-144 578.06,-121.08 723.57,-103.16 791.7,-95.31"/>
<polygon fill="black" stroke="black" points="792.07,-98.79 801.61,-94.18 791.28,-91.84 792.07,-98.79"/>
</g>
<!-- ed25519&#45;&gt;error -->
<g id="edge45" class="edge">
<title>ed25519&#45;&gt;error</title>
<path fill="none" stroke="black" d="M538.73,-287.67C549.73,-254.47 578.37,-181.86 628.47,-144 676.56,-107.66 747.39,-96.17 791.13,-92.57"/>
<polygon fill="black" stroke="black" points="791.21,-96.08 800.93,-91.88 790.71,-89.1 791.21,-96.08"/>
</g>
<!-- ed25519&#45;&gt;option -->
<g id="edge44" class="edge">
<title>ed25519&#45;&gt;option</title>
<path fill="none" stroke="black" d="M531.56,-287.54C528.89,-268.78 522.79,-238.61 509.47,-216 483.77,-172.36 438.75,-133.77 409.28,-111.4"/>
<polygon fill="black" stroke="black" points="411.62,-108.79 401.51,-105.62 407.44,-114.4 411.62,-108.79"/>
</g>
<!-- ed25519&#45;&gt;type_info -->
<g id="edge46" class="edge">
<title>ed25519&#45;&gt;type_info</title>
<path fill="none" stroke="black" d="M506.14,-292.16C482.81,-281.2 448.99,-265.31 422.92,-253.06"/>
<polygon fill="black" stroke="black" points="424.55,-249.96 414.01,-248.88 421.57,-256.3 424.55,-249.96"/>
</g>
<!-- ed25519&#45;&gt;bcs -->
<g id="edge48" class="edge">
<title>ed25519&#45;&gt;bcs</title>
<path fill="none" stroke="black" d="M562.21,-292.81C591.08,-280.56 635.49,-261.72 665.7,-248.9"/>
<polygon fill="black" stroke="black" points="666.91,-252.19 674.74,-245.07 664.17,-245.75 666.91,-252.19"/>
</g>
<!-- ed25519&#45;&gt;hash -->
<g id="edge47" class="edge">
<title>ed25519&#45;&gt;hash</title>
<path fill="none" stroke="black" d="M519.55,-288.76C511.92,-279.86 502.32,-268.65 493.85,-258.78"/>
<polygon fill="black" stroke="black" points="496.64,-256.65 487.48,-251.34 491.33,-261.21 496.64,-256.65"/>
</g>
<!-- multi_ed25519&#45;&gt;error -->
<g id="edge50" class="edge">
<title>multi_ed25519&#45;&gt;error</title>
<path fill="none" stroke="black" d="M619.41,-359.58C622.35,-311.12 632.98,-176.18 661.47,-144 694.17,-107.07 752.24,-95.61 791.05,-92.2"/>
<polygon fill="black" stroke="black" points="791.2,-95.7 800.92,-91.49 790.69,-88.72 791.2,-95.7"/>
</g>
<!-- multi_ed25519&#45;&gt;option -->
<g id="edge49" class="edge">
<title>multi_ed25519&#45;&gt;option</title>
<path fill="none" stroke="black" d="M613.09,-359.71C607.05,-341.36 596.39,-311.78 583.47,-288 545.9,-218.86 539.7,-195.8 480.47,-144 461.92,-127.77 437.53,-114.72 417.49,-105.63"/>
<polygon fill="black" stroke="black" points="419.11,-102.52 408.55,-101.72 416.31,-108.93 419.11,-102.52"/>
</g>
<!-- multi_ed25519&#45;&gt;bcs -->
<g id="edge52" class="edge">
<title>multi_ed25519&#45;&gt;bcs</title>
<path fill="none" stroke="black" d="M630.76,-360.2C638.02,-349.96 647.19,-336.49 654.47,-324 666.26,-303.78 677.93,-279.96 686.28,-262.06"/>
<polygon fill="black" stroke="black" points="689.39,-263.68 690.39,-253.13 683.03,-260.75 689.39,-263.68"/>
</g>
<!-- multi_ed25519&#45;&gt;hash -->
<g id="edge51" class="edge">
<title>multi_ed25519&#45;&gt;hash</title>
<path fill="none" stroke="black" d="M562.28,-368.85C534.22,-361.77 502.32,-348.57 483.47,-324 470.45,-307.02 468.54,-282.57 469.55,-263.59"/>
<polygon fill="black" stroke="black" points="473.02,-264.09 470.4,-253.83 466.05,-263.49 473.02,-264.09"/>
</g>
<!-- multi_ed25519&#45;&gt;ed25519 -->
<g id="edge53" class="edge">
<title>multi_ed25519&#45;&gt;ed25519</title>
<path fill="none" stroke="black" d="M598.76,-360.76C587.47,-351.47 573.14,-339.67 560.78,-329.49"/>
<polygon fill="black" stroke="black" points="563.32,-327.04 553.37,-323.39 558.87,-332.45 563.32,-327.04"/>
</g>
<!-- from_bcs&#45;&gt;string -->
<g id="edge54" class="edge">
<title>from_bcs&#45;&gt;string</title>
<path fill="none" stroke="black" d="M213.8,-360.56C185.04,-323.27 114.72,-232.06 80.63,-187.84"/>
<polygon fill="black" stroke="black" points="83.54,-185.89 74.66,-180.11 78,-190.16 83.54,-185.89"/>
</g>
<!-- aggregator_factory&#45;&gt;error -->
<g id="edge55" class="edge">
<title>aggregator_factory&#45;&gt;error</title>
<path fill="none" stroke="black" d="M972.31,-215.66C965.76,-196.17 952.8,-164.56 932.47,-144 913.83,-125.15 887.07,-111.59 865.63,-102.91"/>
<polygon fill="black" stroke="black" points="866.98,-99.68 856.4,-99.35 864.47,-106.21 866.98,-99.68"/>
</g>
<!-- aggregator_factory&#45;&gt;system_addresses -->
<g id="edge57" class="edge">
<title>aggregator_factory&#45;&gt;system_addresses</title>
<path fill="none" stroke="black" d="M931.24,-219.17C893.5,-207.88 840.02,-191.88 799.78,-179.85"/>
<polygon fill="black" stroke="black" points="800.84,-176.51 790.26,-177 798.84,-183.22 800.84,-176.51"/>
</g>
<!-- aggregator_factory&#45;&gt;table -->
<g id="edge56" class="edge">
<title>aggregator_factory&#45;&gt;table</title>
<path fill="none" stroke="black" d="M950.8,-216.76C933.19,-206.05 910.1,-191.99 891.95,-180.94"/>
<polygon fill="black" stroke="black" points="893.83,-177.99 883.47,-175.78 890.19,-183.97 893.83,-177.99"/>
</g>
<!-- aggregator_factory&#45;&gt;aggregator -->
<g id="edge58" class="edge">
<title>aggregator_factory&#45;&gt;aggregator</title>
<path fill="none" stroke="black" d="M992.96,-216.05C1000.78,-207.5 1010.41,-196.97 1019.02,-187.56"/>
<polygon fill="black" stroke="black" points="1021.38,-190.17 1025.54,-180.42 1016.21,-185.44 1021.38,-190.17"/>
</g>
</g>
</svg>
