<?xml version="1.0" encoding="UTF-8" standalone="no"?>
<!DOCTYPE svg PUBLIC "-//W3C//DTD SVG 1.1//EN"
 "http://www.w3.org/Graphics/SVG/1.1/DTD/svg11.dtd">
<!-- Generated by graphviz version 7.0.0 (20221023.0053)
 -->
<!-- Title: G Pages: 1 -->
<svg width="1074pt" height="448pt"
 viewBox="0.00 0.00 1074.32 448.00" xmlns="http://www.w3.org/2000/svg" xmlns:xlink="http://www.w3.org/1999/xlink">
<g id="graph0" class="graph" transform="scale(1 1) rotate(0) translate(4 444)">
<title>G</title>
<polygon fill="white" stroke="none" points="-4,4 -4,-444 1070.32,-444 1070.32,4 -4,4"/>
<g id="clust1" class="cluster">
<title>cluster_coin</title>
<polygon fill="none" stroke="black" points="8,-246 8,-396 198,-396 198,-246 8,-246"/>
<text text-anchor="middle" x="103" y="-380.8" font-family="Times,serif" font-size="14.00">coin</text>
</g>
<g id="clust2" class="cluster">
<title>cluster_signer</title>
<polygon fill="none" stroke="black" points="884,-8 884,-155 1034,-155 1034,-8 884,-8"/>
<text text-anchor="middle" x="959" y="-139.8" font-family="Times,serif" font-size="14.00">signer</text>
</g>
<g id="clust3" class="cluster">
<title>cluster_error</title>
<polygon fill="none" stroke="black" points="206,-163 206,-321 344,-321 344,-163 206,-163"/>
<text text-anchor="middle" x="275" y="-305.8" font-family="Times,serif" font-size="14.00">error</text>
</g>
<g id="clust4" class="cluster">
<title>cluster_account</title>
<polygon fill="none" stroke="black" points="648,-163 648,-321 949,-321 949,-163 648,-163"/>
<text text-anchor="middle" x="798.5" y="-305.8" font-family="Times,serif" font-size="14.00">account</text>
</g>
<g id="clust5" class="cluster">
<title>cluster_event</title>
<polygon fill="none" stroke="black" points="352,-80 352,-238 640,-238 640,-80 352,-80"/>
<text text-anchor="middle" x="496" y="-222.8" font-family="Times,serif" font-size="14.00">event</text>
</g>
<g id="clust6" class="cluster">
<title>cluster_type_info</title>
<polygon fill="none" stroke="black" points="957,-163 957,-238 1049,-238 1049,-163 957,-163"/>
<text text-anchor="middle" x="1003" y="-222.8" font-family="Times,serif" font-size="14.00">type_info</text>
</g>
<g id="clust7" class="cluster">
<title>cluster_guid</title>
<polygon fill="none" stroke="black" points="781,-80 781,-155 861,-155 861,-80 781,-80"/>
<text text-anchor="middle" x="821" y="-139.8" font-family="Times,serif" font-size="14.00">guid</text>
</g>
<g id="clust8" class="cluster">
<title>cluster_bcs</title>
<polygon fill="none" stroke="black" points="648,-80 648,-155 744,-155 744,-80 648,-80"/>
<text text-anchor="middle" x="696" y="-139.8" font-family="Times,serif" font-size="14.00">bcs</text>
</g>
<!-- register -->
<g id="node1" class="node">
<title>register</title>
<ellipse fill="none" stroke="black" cx="153" cy="-422" rx="37.09" ry="18"/>
<text text-anchor="middle" x="153" y="-418.3" font-family="Times,serif" font-size="14.00">register</text>
</g>
<!-- coin::register -->
<g id="node2" class="node">
<title>coin::register</title>
<ellipse fill="none" stroke="black" cx="153" cy="-347" rx="37.09" ry="18"/>
<text text-anchor="middle" x="153" y="-343.3" font-family="Times,serif" font-size="14.00">register</text>
</g>
<!-- register&#45;&gt;coin::register -->
<g id="edge1" class="edge">
<title>register&#45;&gt;coin::register</title>
<path fill="none" stroke="black" d="M153,-403.7C153,-395.67 153,-385.9 153,-376.8"/>
<polygon fill="black" stroke="black" points="156.5,-376.94 153,-366.94 149.5,-376.94 156.5,-376.94"/>
</g>
<!-- signer::address_of -->
<g id="node3" class="node">
<title>signer::address_of</title>
<ellipse fill="none" stroke="black" cx="959" cy="-106" rx="48.99" ry="18"/>
<text text-anchor="middle" x="959" y="-102.3" font-family="Times,serif" font-size="14.00">address_of</text>
</g>
<!-- coin::register&#45;&gt;signer::address_of -->
<g id="edge2" class="edge">
<title>coin::register&#45;&gt;signer::address_of</title>
<path fill="none" stroke="black" d="M190.5,-346.25C339.01,-347.07 881.32,-348.14 953,-321 1030.72,-291.57 1094.06,-235.25 1053,-163 1042.6,-144.69 1023.57,-131.74 1005.35,-122.93"/>
<polygon fill="black" stroke="black" points="1007.02,-119.85 996.46,-118.96 1004.16,-126.24 1007.02,-119.85"/>
</g>
<!-- error::already_exists -->
<g id="node4" class="node">
<title>error::already_exists</title>
<ellipse fill="none" stroke="black" cx="275" cy="-272" rx="61.19" ry="18"/>
<text text-anchor="middle" x="275" y="-268.3" font-family="Times,serif" font-size="14.00">already_exists</text>
</g>
<!-- coin::register&#45;&gt;error::already_exists -->
<g id="edge3" class="edge">
<title>coin::register&#45;&gt;error::already_exists</title>
<path fill="none" stroke="black" d="M178.72,-333.55C186.31,-329.69 194.57,-325.32 202,-321 215.55,-313.12 230.06,-303.78 242.55,-295.44"/>
<polygon fill="black" stroke="black" points="244.48,-298.35 250.81,-289.86 240.57,-292.55 244.48,-298.35"/>
</g>
<!-- account::new_event_handle -->
<g id="node5" class="node">
<title>account::new_event_handle</title>
<ellipse fill="none" stroke="black" cx="733" cy="-272" rx="76.89" ry="18"/>
<text text-anchor="middle" x="733" y="-268.3" font-family="Times,serif" font-size="14.00">new_event_handle</text>
</g>
<!-- coin::register&#45;&gt;account::new_event_handle -->
<g id="edge4" class="edge">
<title>coin::register&#45;&gt;account::new_event_handle</title>
<path fill="none" stroke="black" d="M188.84,-341.49C281.14,-329.87 528.62,-298.72 655.56,-282.75"/>
<polygon fill="black" stroke="black" points="655.73,-286.25 665.22,-281.53 654.86,-279.31 655.73,-286.25"/>
</g>
<!-- account::register_coin -->
<g id="node6" class="node">
<title>account::register_coin</title>
<ellipse fill="none" stroke="black" cx="884" cy="-272" rx="56.59" ry="18"/>
<text text-anchor="middle" x="884" y="-268.3" font-family="Times,serif" font-size="14.00">register_coin</text>
</g>
<!-- coin::register&#45;&gt;account::register_coin -->
<g id="edge5" class="edge">
<title>coin::register&#45;&gt;account::register_coin</title>
<path fill="none" stroke="black" d="M190.08,-345.88C321.41,-345.29 759.69,-341.77 819,-321 833.63,-315.88 847.73,-306.24 859.05,-296.93"/>
<polygon fill="black" stroke="black" points="861.06,-299.82 866.33,-290.63 856.48,-294.53 861.06,-299.82"/>
</g>
<!-- coin::is_account_registered -->
<g id="node7" class="node">
<title>coin::is_account_registered</title>
<ellipse fill="none" stroke="black" cx="103" cy="-272" rx="87.18" ry="18"/>
<text text-anchor="middle" x="103" y="-268.3" font-family="Times,serif" font-size="14.00">is_account_registered</text>
</g>
<!-- coin::register&#45;&gt;coin::is_account_registered -->
<g id="edge6" class="edge">
<title>coin::register&#45;&gt;coin::is_account_registered</title>
<path fill="none" stroke="black" d="M141.65,-329.44C135.65,-320.66 128.12,-309.68 121.31,-299.74"/>
<polygon fill="black" stroke="black" points="124.22,-297.78 115.68,-291.51 118.44,-301.74 124.22,-297.78"/>
</g>
<!-- signer::borrow_address -->
<g id="node8" class="node">
<title>signer::borrow_address</title>
<ellipse fill="none" stroke="black" cx="959" cy="-34" rx="66.89" ry="18"/>
<text text-anchor="middle" x="959" y="-30.3" font-family="Times,serif" font-size="14.00">borrow_address</text>
</g>
<!-- signer::address_of&#45;&gt;signer::borrow_address -->
<g id="edge7" class="edge">
<title>signer::address_of&#45;&gt;signer::borrow_address</title>
<path fill="none" stroke="black" d="M959,-87.7C959,-80.41 959,-71.73 959,-63.54"/>
<polygon fill="black" stroke="black" points="962.5,-63.62 959,-53.62 955.5,-63.62 962.5,-63.62"/>
</g>
<!-- error::canonical -->
<g id="node9" class="node">
<title>error::canonical</title>
<ellipse fill="none" stroke="black" cx="275" cy="-189" rx="44.39" ry="18"/>
<text text-anchor="middle" x="275" y="-185.3" font-family="Times,serif" font-size="14.00">canonical</text>
</g>
<!-- error::already_exists&#45;&gt;error::canonical -->
<g id="edge8" class="edge">
<title>error::already_exists&#45;&gt;error::canonical</title>
<path fill="none" stroke="black" d="M275,-253.82C275,-243.69 275,-230.6 275,-218.92"/>
<polygon fill="black" stroke="black" points="278.5,-218.95 275,-208.95 271.5,-218.95 278.5,-218.95"/>
</g>
<!-- event::new_event_handle -->
<g id="node10" class="node">
<title>event::new_event_handle</title>
<ellipse fill="none" stroke="black" cx="437" cy="-189" rx="76.89" ry="18"/>
<text text-anchor="middle" x="437" y="-185.3" font-family="Times,serif" font-size="14.00">new_event_handle</text>
</g>
<!-- account::new_event_handle&#45;&gt;event::new_event_handle -->
<g id="edge9" class="edge">
<title>account::new_event_handle&#45;&gt;event::new_event_handle</title>
<path fill="none" stroke="black" d="M660.03,-265.91C618.92,-261.47 567.13,-253.24 523,-238 504.84,-231.73 486.05,-221.71 470.68,-212.45"/>
<polygon fill="black" stroke="black" points="472.75,-209.61 462.4,-207.31 469.06,-215.56 472.75,-209.61"/>
</g>
<!-- account::create_guid -->
<g id="node11" class="node">
<title>account::create_guid</title>
<ellipse fill="none" stroke="black" cx="821" cy="-189" rx="51.99" ry="18"/>
<text text-anchor="middle" x="821" y="-185.3" font-family="Times,serif" font-size="14.00">create_guid</text>
</g>
<!-- account::new_event_handle&#45;&gt;account::create_guid -->
<g id="edge10" class="edge">
<title>account::new_event_handle&#45;&gt;account::create_guid</title>
<path fill="none" stroke="black" d="M751.23,-254.22C763.91,-242.55 780.99,-226.83 795.07,-213.87"/>
<polygon fill="black" stroke="black" points="797.29,-216.58 802.28,-207.23 792.55,-211.43 797.29,-216.58"/>
</g>
<!-- type_info::type_of -->
<g id="node12" class="node">
<title>type_info::type_of</title>
<ellipse fill="none" stroke="black" cx="1003" cy="-189" rx="37.89" ry="18"/>
<text text-anchor="middle" x="1003" y="-185.3" font-family="Times,serif" font-size="14.00">type_of</text>
</g>
<!-- account::register_coin&#45;&gt;type_info::type_of -->
<g id="edge11" class="edge">
<title>account::register_coin&#45;&gt;type_info::type_of</title>
<path fill="none" stroke="black" d="M918.18,-257.27C929.68,-251.98 942.3,-245.41 953,-238 962.84,-231.19 972.58,-222.42 980.81,-214.25"/>
<polygon fill="black" stroke="black" points="983.27,-216.75 987.73,-207.14 978.25,-211.87 983.27,-216.75"/>
</g>
<!-- event::emit_event -->
<g id="node13" class="node">
<title>event::emit_event</title>
<ellipse fill="none" stroke="black" cx="582" cy="-189" rx="50.09" ry="18"/>
<text text-anchor="middle" x="582" y="-185.3" font-family="Times,serif" font-size="14.00">emit_event</text>
</g>
<!-- account::register_coin&#45;&gt;event::emit_event -->
<g id="edge12" class="edge">
<title>account::register_coin&#45;&gt;event::emit_event</title>
<path fill="none" stroke="black" d="M852.55,-256.57C842.09,-252.4 830.24,-248.35 819,-246 780.9,-238.02 680.54,-251.43 644,-238 630.03,-232.86 616.67,-223.35 605.97,-214.15"/>
<polygon fill="black" stroke="black" points="608.51,-211.73 598.76,-207.6 603.81,-216.91 608.51,-211.73"/>
</g>
<!-- account::create_guid&#45;&gt;signer::address_of -->
<g id="edge13" class="edge">
<title>account::create_guid&#45;&gt;signer::address_of</title>
<path fill="none" stroke="black" d="M846.63,-172.95C868.46,-160.14 900.02,-141.62 924.14,-127.46"/>
<polygon fill="black" stroke="black" points="925.81,-130.54 932.66,-122.46 922.27,-124.5 925.81,-130.54"/>
</g>
<!-- guid::create -->
<g id="node14" class="node">
<title>guid::create</title>
<ellipse fill="none" stroke="black" cx="821" cy="-106" rx="31.7" ry="18"/>
<text text-anchor="middle" x="821" y="-102.3" font-family="Times,serif" font-size="14.00">create</text>
</g>
<!-- account::create_guid&#45;&gt;guid::create -->
<g id="edge14" class="edge">
<title>account::create_guid&#45;&gt;guid::create</title>
<path fill="none" stroke="black" d="M821,-170.82C821,-160.69 821,-147.6 821,-135.92"/>
<polygon fill="black" stroke="black" points="824.5,-135.95 821,-125.95 817.5,-135.95 824.5,-135.95"/>
</g>
<!-- bcs::to_bytes -->
<g id="node15" class="node">
<title>bcs::to_bytes</title>
<ellipse fill="none" stroke="black" cx="696" cy="-106" rx="40.09" ry="18"/>
<text text-anchor="middle" x="696" y="-102.3" font-family="Times,serif" font-size="14.00">to_bytes</text>
</g>
<!-- event::emit_event&#45;&gt;bcs::to_bytes -->
<g id="edge15" class="edge">
<title>event::emit_event&#45;&gt;bcs::to_bytes</title>
<path fill="none" stroke="black" d="M611.62,-174.2C622.19,-168.77 633.96,-162.13 644,-155 654.07,-147.85 664.25,-138.92 672.9,-130.7"/>
<polygon fill="black" stroke="black" points="675.18,-133.37 679.89,-123.88 670.29,-128.36 675.18,-133.37"/>
</g>
<!-- event::write_to_event_store -->
<g id="node16" class="node">
<title>event::write_to_event_store</title>
<ellipse fill="none" stroke="black" cx="547" cy="-106" rx="85.29" ry="18"/>
<text text-anchor="middle" x="547" y="-102.3" font-family="Times,serif" font-size="14.00">write_to_event_store</text>
</g>
<!-- event::emit_event&#45;&gt;event::write_to_event_store -->
<g id="edge16" class="edge">
<title>event::emit_event&#45;&gt;event::write_to_event_store</title>
<path fill="none" stroke="black" d="M574.58,-170.82C570.03,-160.3 564.11,-146.59 558.91,-134.57"/>
<polygon fill="black" stroke="black" points="562.19,-133.33 555.01,-125.54 555.77,-136.11 562.19,-133.33"/>
</g>
</g>
</svg>
