<?xml version="1.0" encoding="UTF-8" standalone="no"?>
<!DOCTYPE svg PUBLIC "-//W3C//DTD SVG 1.1//EN"
 "http://www.w3.org/Graphics/SVG/1.1/DTD/svg11.dtd">
<!-- Generated by graphviz version 7.0.0 (20221023.0053)
 -->
<!-- Title: G Pages: 1 -->
<svg width="1475pt" height="778pt"
 viewBox="0.00 0.00 1475.00 778.00" xmlns="http://www.w3.org/2000/svg" xmlns:xlink="http://www.w3.org/1999/xlink">
<g id="graph0" class="graph" transform="scale(1 1) rotate(0) translate(4 774)">
<title>G</title>
<polygon fill="white" stroke="none" points="-4,4 -4,-774 1471,-774 1471,4 -4,4"/>
<g id="clust1" class="cluster">
<title>cluster_coin</title>
<polygon fill="none" stroke="black" points="1092,-208 1092,-283 1314,-283 1314,-208 1092,-208"/>
<text text-anchor="middle" x="1203" y="-267.8" font-family="Times,serif" font-size="14.00">coin</text>
</g>
<g id="clust2" class="cluster">
<title>cluster_aptos_coin</title>
<polygon fill="none" stroke="black" points="1014,-291 1014,-366 1323,-366 1323,-291 1014,-291"/>
<text text-anchor="middle" x="1168.5" y="-350.8" font-family="Times,serif" font-size="14.00">aptos_coin</text>
</g>
<g id="clust3" class="cluster">
<title>cluster_stake</title>
<polygon fill="none" stroke="black" points="729,-291 729,-521 899,-521 899,-291 729,-291"/>
<text text-anchor="middle" x="814" y="-505.8" font-family="Times,serif" font-size="14.00">stake</text>
</g>
<g id="clust4" class="cluster">
<title>cluster_managed_coin</title>
<polygon fill="none" stroke="black" points="1331,-291 1331,-366 1427,-366 1427,-291 1331,-291"/>
<text text-anchor="middle" x="1379" y="-350.8" font-family="Times,serif" font-size="14.00">managed_coin</text>
</g>
<g id="clust5" class="cluster">
<title>cluster_genesis</title>
<polygon fill="none" stroke="black" points="907,-374 907,-762 1459,-762 1459,-374 907,-374"/>
<text text-anchor="middle" x="1183" y="-746.8" font-family="Times,serif" font-size="14.00">genesis</text>
</g>
<g id="clust6" class="cluster">
<title>cluster_reconfiguration</title>
<polygon fill="none" stroke="black" points="453,-529 453,-604 571,-604 571,-529 453,-529"/>
<text text-anchor="middle" x="512" y="-588.8" font-family="Times,serif" font-size="14.00">reconfiguration</text>
</g>
<g id="clust7" class="cluster">
<title>cluster_aptos_governance</title>
<polygon fill="none" stroke="black" points="8,-612 8,-687 126,-687 126,-612 8,-612"/>
<text text-anchor="middle" x="67" y="-671.8" font-family="Times,serif" font-size="14.00">aptos_governance</text>
</g>
<g id="clust8" class="cluster">
<title>cluster_block</title>
<polygon fill="none" stroke="black" points="134,-612 134,-687 282,-687 282,-612 134,-612"/>
<text text-anchor="middle" x="208" y="-671.8" font-family="Times,serif" font-size="14.00">block</text>
</g>
<g id="clust9" class="cluster">
<title>cluster_consensus_config</title>
<polygon fill="none" stroke="black" points="290,-612 290,-687 403,-687 403,-612 290,-612"/>
<text text-anchor="middle" x="346.5" y="-671.8" font-family="Times,serif" font-size="14.00">consensus_config</text>
</g>
<g id="clust10" class="cluster">
<title>cluster_gas_schedule</title>
<polygon fill="none" stroke="black" points="411,-612 411,-687 773,-687 773,-612 411,-612"/>
<text text-anchor="middle" x="592" y="-671.8" font-family="Times,serif" font-size="14.00">gas_schedule</text>
</g>
<g id="clust11" class="cluster">
<title>cluster_version</title>
<polygon fill="none" stroke="black" points="781,-612 781,-687 899,-687 899,-612 781,-612"/>
<text text-anchor="middle" x="840" y="-671.8" font-family="Times,serif" font-size="14.00">version</text>
</g>
<!-- add_integer -->
<g id="node1" class="node">
<title>add_integer</title>
<ellipse fill="none" stroke="black" cx="1189" cy="-18" rx="51.99" ry="18"/>
<text text-anchor="middle" x="1189" y="-14.3" font-family="Times,serif" font-size="14.00">add_integer</text>
</g>
<!-- add -->
<g id="node2" class="node">
<title>add</title>
<ellipse fill="none" stroke="black" cx="1189" cy="-90" rx="27" ry="18"/>
<text text-anchor="middle" x="1189" y="-86.3" font-family="Times,serif" font-size="14.00">add</text>
</g>
<!-- add&#45;&gt;add_integer -->
<g id="edge1" class="edge">
<title>add&#45;&gt;add_integer</title>
<path fill="none" stroke="black" d="M1189,-71.7C1189,-64.41 1189,-55.73 1189,-47.54"/>
<polygon fill="black" stroke="black" points="1192.5,-47.62 1189,-37.62 1185.5,-47.62 1192.5,-47.62"/>
</g>
<!-- switch -->
<g id="node3" class="node">
<title>switch</title>
<ellipse fill="none" stroke="black" cx="1226" cy="-162" rx="33.6" ry="18"/>
<text text-anchor="middle" x="1226" y="-158.3" font-family="Times,serif" font-size="14.00">switch</text>
</g>
<!-- switch&#45;&gt;add -->
<g id="edge2" class="edge">
<title>switch&#45;&gt;add</title>
<path fill="none" stroke="black" d="M1217.23,-144.41C1212.99,-136.39 1207.8,-126.57 1203.03,-117.54"/>
<polygon fill="black" stroke="black" points="1206.18,-116.01 1198.41,-108.81 1199.99,-119.28 1206.18,-116.01"/>
</g>
<!-- coin::mint -->
<g id="node4" class="node">
<title>coin::mint</title>
<ellipse fill="none" stroke="black" cx="1127" cy="-234" rx="27.1" ry="18"/>
<text text-anchor="middle" x="1127" y="-230.3" font-family="Times,serif" font-size="14.00">mint</text>
</g>
<!-- coin::mint&#45;&gt;add -->
<g id="edge3" class="edge">
<title>coin::mint&#45;&gt;add</title>
<path fill="none" stroke="black" d="M1134.23,-216.43C1144.83,-192.17 1164.67,-146.71 1177.34,-117.7"/>
<polygon fill="black" stroke="black" points="1180.41,-119.41 1181.21,-108.85 1174,-116.61 1180.41,-119.41"/>
</g>
<!-- coin::upgrade_supply -->
<g id="node5" class="node">
<title>coin::upgrade_supply</title>
<ellipse fill="none" stroke="black" cx="1239" cy="-234" rx="66.89" ry="18"/>
<text text-anchor="middle" x="1239" y="-230.3" font-family="Times,serif" font-size="14.00">upgrade_supply</text>
</g>
<!-- coin::upgrade_supply&#45;&gt;switch -->
<g id="edge4" class="edge">
<title>coin::upgrade_supply&#45;&gt;switch</title>
<path fill="none" stroke="black" d="M1235.79,-215.7C1234.42,-208.32 1232.78,-199.52 1231.25,-191.25"/>
<polygon fill="black" stroke="black" points="1234.72,-190.79 1229.45,-181.59 1227.84,-192.06 1234.72,-190.79"/>
</g>
<!-- aptos_coin::mint -->
<g id="node6" class="node">
<title>aptos_coin::mint</title>
<ellipse fill="none" stroke="black" cx="1049" cy="-317" rx="27.1" ry="18"/>
<text text-anchor="middle" x="1049" y="-313.3" font-family="Times,serif" font-size="14.00">mint</text>
</g>
<!-- aptos_coin::mint&#45;&gt;coin::mint -->
<g id="edge5" class="edge">
<title>aptos_coin::mint&#45;&gt;coin::mint</title>
<path fill="none" stroke="black" d="M1062.94,-301.52C1074.63,-289.38 1091.52,-271.85 1105.02,-257.83"/>
<polygon fill="black" stroke="black" points="1107.45,-260.35 1111.86,-250.72 1102.41,-255.49 1107.45,-260.35"/>
</g>
<!-- aptos_coin::configure_accounts_for_test -->
<g id="node7" class="node">
<title>aptos_coin::configure_accounts_for_test</title>
<ellipse fill="none" stroke="black" cx="1205" cy="-317" rx="110.48" ry="18"/>
<text text-anchor="middle" x="1205" y="-313.3" font-family="Times,serif" font-size="14.00">configure_accounts_for_test</text>
</g>
<!-- aptos_coin::configure_accounts_for_test&#45;&gt;coin::mint -->
<g id="edge6" class="edge">
<title>aptos_coin::configure_accounts_for_test&#45;&gt;coin::mint</title>
<path fill="none" stroke="black" d="M1181.41,-299.21C1175.14,-294.3 1168.58,-288.7 1163,-283 1156.24,-276.09 1149.65,-267.88 1144,-260.22"/>
<polygon fill="black" stroke="black" points="1146.92,-258.3 1138.27,-252.19 1141.22,-262.36 1146.92,-258.3"/>
</g>
<!-- stake::distribute_rewards -->
<g id="node8" class="node">
<title>stake::distribute_rewards</title>
<ellipse fill="none" stroke="black" cx="814" cy="-317" rx="76.09" ry="18"/>
<text text-anchor="middle" x="814" y="-313.3" font-family="Times,serif" font-size="14.00">distribute_rewards</text>
</g>
<!-- stake::distribute_rewards&#45;&gt;coin::mint -->
<g id="edge7" class="edge">
<title>stake::distribute_rewards&#45;&gt;coin::mint</title>
<path fill="none" stroke="black" d="M863.94,-303.08C927.27,-286.69 1034.92,-258.83 1090.85,-244.35"/>
<polygon fill="black" stroke="black" points="1091.7,-247.75 1100.5,-241.86 1089.94,-240.97 1091.7,-247.75"/>
</g>
<!-- managed_coin::mint -->
<g id="node9" class="node">
<title>managed_coin::mint</title>
<ellipse fill="none" stroke="black" cx="1366" cy="-317" rx="27.1" ry="18"/>
<text text-anchor="middle" x="1366" y="-313.3" font-family="Times,serif" font-size="14.00">mint</text>
</g>
<!-- managed_coin::mint&#45;&gt;coin::mint -->
<g id="edge8" class="edge">
<title>managed_coin::mint&#45;&gt;coin::mint</title>
<path fill="none" stroke="black" d="M1349.12,-302.46C1342.59,-297.97 1334.81,-293.5 1327,-291 1292.24,-279.89 1195.23,-300.11 1163,-283 1153.74,-278.09 1146.2,-269.62 1140.46,-261.15"/>
<polygon fill="black" stroke="black" points="1143.51,-259.44 1135.33,-252.72 1137.53,-263.08 1143.51,-259.44"/>
</g>
<!-- genesis::create_account -->
<g id="node10" class="node">
<title>genesis::create_account</title>
<ellipse fill="none" stroke="black" cx="1049" cy="-400" rx="63.89" ry="18"/>
<text text-anchor="middle" x="1049" y="-396.3" font-family="Times,serif" font-size="14.00">create_account</text>
</g>
<!-- genesis::create_account&#45;&gt;aptos_coin::mint -->
<g id="edge9" class="edge">
<title>genesis::create_account&#45;&gt;aptos_coin::mint</title>
<path fill="none" stroke="black" d="M1049,-381.82C1049,-371.69 1049,-358.6 1049,-346.92"/>
<polygon fill="black" stroke="black" points="1052.5,-346.95 1049,-336.95 1045.5,-346.95 1052.5,-346.95"/>
</g>
<!-- genesis::initialize_core_resources_and_aptos_coin -->
<g id="node11" class="node">
<title>genesis::initialize_core_resources_and_aptos_coin</title>
<ellipse fill="none" stroke="black" cx="1293" cy="-713" rx="157.87" ry="18"/>
<text text-anchor="middle" x="1293" y="-709.3" font-family="Times,serif" font-size="14.00">initialize_core_resources_and_aptos_coin</text>
</g>
<!-- genesis::initialize_core_resources_and_aptos_coin&#45;&gt;aptos_coin::configure_accounts_for_test -->
<g id="edge10" class="edge">
<title>genesis::initialize_core_resources_and_aptos_coin&#45;&gt;aptos_coin::configure_accounts_for_test</title>
<path fill="none" stroke="black" d="M1294.47,-694.7C1296.78,-665.94 1301,-606.44 1301,-556 1301,-556 1301,-556 1301,-471 1301,-419.34 1261.25,-370.81 1232.9,-342.77"/>
<polygon fill="black" stroke="black" points="1235.62,-340.53 1225.98,-336.13 1230.78,-345.58 1235.62,-340.53"/>
</g>
<!-- stake::update_stake_pool -->
<g id="node12" class="node">
<title>stake::update_stake_pool</title>
<ellipse fill="none" stroke="black" cx="814" cy="-400" rx="76.89" ry="18"/>
<text text-anchor="middle" x="814" y="-396.3" font-family="Times,serif" font-size="14.00">update_stake_pool</text>
</g>
<!-- stake::update_stake_pool&#45;&gt;stake::distribute_rewards -->
<g id="edge11" class="edge">
<title>stake::update_stake_pool&#45;&gt;stake::distribute_rewards</title>
<path fill="none" stroke="black" d="M814,-381.82C814,-371.69 814,-358.6 814,-346.92"/>
<polygon fill="black" stroke="black" points="817.5,-346.95 814,-336.95 810.5,-346.95 817.5,-346.95"/>
</g>
<!-- genesis::create_accounts -->
<g id="node13" class="node">
<title>genesis::create_accounts</title>
<ellipse fill="none" stroke="black" cx="1206" cy="-472" rx="66.89" ry="18"/>
<text text-anchor="middle" x="1206" y="-468.3" font-family="Times,serif" font-size="14.00">create_accounts</text>
</g>
<!-- genesis::create_accounts&#45;&gt;genesis::create_account -->
<g id="edge12" class="edge">
<title>genesis::create_accounts&#45;&gt;genesis::create_account</title>
<path fill="none" stroke="black" d="M1172.32,-455.98C1148.98,-445.58 1117.7,-431.63 1092.48,-420.39"/>
<polygon fill="black" stroke="black" points="1094.03,-417.24 1083.47,-416.37 1091.18,-423.64 1094.03,-417.24"/>
</g>
<!-- genesis::create_initialize_validator -->
<g id="node14" class="node">
<title>genesis::create_initialize_validator</title>
<ellipse fill="none" stroke="black" cx="1018" cy="-472" rx="102.88" ry="18"/>
<text text-anchor="middle" x="1018" y="-468.3" font-family="Times,serif" font-size="14.00">create_initialize_validator</text>
</g>
<!-- genesis::create_initialize_validator&#45;&gt;genesis::create_account -->
<g id="edge13" class="edge">
<title>genesis::create_initialize_validator&#45;&gt;genesis::create_account</title>
<path fill="none" stroke="black" d="M1025.66,-453.7C1029.04,-446.07 1033.09,-436.92 1036.87,-428.4"/>
<polygon fill="black" stroke="black" points="1039.96,-430.05 1040.81,-419.49 1033.56,-427.21 1039.96,-430.05"/>
</g>
<!-- stake::on_new_epoch -->
<g id="node15" class="node">
<title>stake::on_new_epoch</title>
<ellipse fill="none" stroke="black" cx="814" cy="-472" rx="63.89" ry="18"/>
<text text-anchor="middle" x="814" y="-468.3" font-family="Times,serif" font-size="14.00">on_new_epoch</text>
</g>
<!-- stake::on_new_epoch&#45;&gt;stake::update_stake_pool -->
<g id="edge14" class="edge">
<title>stake::on_new_epoch&#45;&gt;stake::update_stake_pool</title>
<path fill="none" stroke="black" d="M814,-453.7C814,-446.41 814,-437.73 814,-429.54"/>
<polygon fill="black" stroke="black" points="817.5,-429.62 814,-419.62 810.5,-429.62 817.5,-429.62"/>
</g>
<!-- genesis::create_initialize_validators_with_commission -->
<g id="node16" class="node">
<title>genesis::create_initialize_validators_with_commission</title>
<ellipse fill="none" stroke="black" cx="1089" cy="-555" rx="173.57" ry="18"/>
<text text-anchor="middle" x="1089" y="-551.3" font-family="Times,serif" font-size="14.00">create_initialize_validators_with_commission</text>
</g>
<!-- genesis::create_initialize_validators_with_commission&#45;&gt;genesis::create_initialize_validator -->
<g id="edge15" class="edge">
<title>genesis::create_initialize_validators_with_commission&#45;&gt;genesis::create_initialize_validator</title>
<path fill="none" stroke="black" d="M1073.94,-536.82C1064.25,-525.76 1051.47,-511.18 1040.57,-498.75"/>
<polygon fill="black" stroke="black" points="1043.26,-496.5 1034.03,-491.29 1037.99,-501.12 1043.26,-496.5"/>
</g>
<!-- genesis::create_initialize_validators_with_commission&#45;&gt;stake::on_new_epoch -->
<g id="edge17" class="edge">
<title>genesis::create_initialize_validators_with_commission&#45;&gt;stake::on_new_epoch</title>
<path fill="none" stroke="black" d="M979.81,-540.62C954.2,-535.84 927.31,-529.47 903,-521 883.92,-514.35 864,-503.98 847.86,-494.57"/>
<polygon fill="black" stroke="black" points="850.02,-491.79 839.64,-489.66 846.43,-497.8 850.02,-491.79"/>
</g>
<!-- reconfiguration::reconfigure -->
<g id="node17" class="node">
<title>reconfiguration::reconfigure</title>
<ellipse fill="none" stroke="black" cx="512" cy="-555" rx="51.19" ry="18"/>
<text text-anchor="middle" x="512" y="-551.3" font-family="Times,serif" font-size="14.00">reconfigure</text>
</g>
<!-- reconfiguration::reconfigure&#45;&gt;stake::on_new_epoch -->
<g id="edge16" class="edge">
<title>reconfiguration::reconfigure&#45;&gt;stake::on_new_epoch</title>
<path fill="none" stroke="black" d="M551.79,-543.33C604.64,-529.15 698.27,-504.04 758.17,-487.97"/>
<polygon fill="black" stroke="black" points="758.74,-491.45 767.49,-485.48 756.92,-484.69 758.74,-491.45"/>
</g>
<!-- genesis::create_initialize_validators -->
<g id="node18" class="node">
<title>genesis::create_initialize_validators</title>
<ellipse fill="none" stroke="black" cx="1055" cy="-638" rx="105.88" ry="18"/>
<text text-anchor="middle" x="1055" y="-634.3" font-family="Times,serif" font-size="14.00">create_initialize_validators</text>
</g>
<!-- genesis::create_initialize_validators&#45;&gt;genesis::create_initialize_validators_with_commission -->
<g id="edge18" class="edge">
<title>genesis::create_initialize_validators&#45;&gt;genesis::create_initialize_validators_with_commission</title>
<path fill="none" stroke="black" d="M1062.21,-619.82C1066.6,-609.37 1072.31,-595.77 1077.32,-583.81"/>
<polygon fill="black" stroke="black" points="1080.45,-585.4 1081.1,-574.83 1074,-582.69 1080.45,-585.4"/>
</g>
<!-- aptos_governance::reconfigure -->
<g id="node19" class="node">
<title>aptos_governance::reconfigure</title>
<ellipse fill="none" stroke="black" cx="67" cy="-638" rx="51.19" ry="18"/>
<text text-anchor="middle" x="67" y="-634.3" font-family="Times,serif" font-size="14.00">reconfigure</text>
</g>
<!-- aptos_governance::reconfigure&#45;&gt;reconfiguration::reconfigure -->
<g id="edge19" class="edge">
<title>aptos_governance::reconfigure&#45;&gt;reconfiguration::reconfigure</title>
<path fill="none" stroke="black" d="M97.6,-623.2C107.74,-619.08 119.2,-614.89 130,-612 241.01,-582.27 374.66,-567.25 450.84,-560.56"/>
<polygon fill="black" stroke="black" points="450.94,-564.07 460.6,-559.73 450.34,-557.09 450.94,-564.07"/>
</g>
<!-- block::block_prologue -->
<g id="node20" class="node">
<title>block::block_prologue</title>
<ellipse fill="none" stroke="black" cx="208" cy="-638" rx="65.79" ry="18"/>
<text text-anchor="middle" x="208" y="-634.3" font-family="Times,serif" font-size="14.00">block_prologue</text>
</g>
<!-- block::block_prologue&#45;&gt;reconfiguration::reconfigure -->
<g id="edge20" class="edge">
<title>block::block_prologue&#45;&gt;reconfiguration::reconfigure</title>
<path fill="none" stroke="black" d="M248.33,-623.5C260.39,-619.62 273.69,-615.49 286,-612 344.61,-595.37 412.55,-578.91 458.51,-568.18"/>
<polygon fill="black" stroke="black" points="459.28,-571.6 468.23,-565.93 457.7,-564.78 459.28,-571.6"/>
</g>
<!-- consensus_config::set -->
<g id="node21" class="node">
<title>consensus_config::set</title>
<ellipse fill="none" stroke="black" cx="368" cy="-638" rx="27" ry="18"/>
<text text-anchor="middle" x="368" y="-634.3" font-family="Times,serif" font-size="14.00">set</text>
</g>
<!-- consensus_config::set&#45;&gt;reconfiguration::reconfigure -->
<g id="edge21" class="edge">
<title>consensus_config::set&#45;&gt;reconfiguration::reconfigure</title>
<path fill="none" stroke="black" d="M386.46,-624.74C392.89,-620.58 400.2,-615.98 407,-612 428.71,-599.28 453.52,-585.99 473.57,-575.55"/>
<polygon fill="black" stroke="black" points="474.97,-578.77 482.24,-571.07 471.75,-572.55 474.97,-578.77"/>
</g>
<!-- gas_schedule::set_gas_schedule -->
<g id="node22" class="node">
<title>gas_schedule::set_gas_schedule</title>
<ellipse fill="none" stroke="black" cx="694" cy="-638" rx="71.49" ry="18"/>
<text text-anchor="middle" x="694" y="-634.3" font-family="Times,serif" font-size="14.00">set_gas_schedule</text>
</g>
<!-- gas_schedule::set_gas_schedule&#45;&gt;reconfiguration::reconfigure -->
<g id="edge22" class="edge">
<title>gas_schedule::set_gas_schedule&#45;&gt;reconfiguration::reconfigure</title>
<path fill="none" stroke="black" d="M659.77,-621.76C629.52,-608.3 585.33,-588.64 553.16,-574.32"/>
<polygon fill="black" stroke="black" points="554.69,-571.17 544.13,-570.3 551.84,-577.56 554.69,-571.17"/>
</g>
<!-- gas_schedule::set_storage_gas_config -->
<g id="node23" class="node">
<title>gas_schedule::set_storage_gas_config</title>
<ellipse fill="none" stroke="black" cx="512" cy="-638" rx="92.88" ry="18"/>
<text text-anchor="middle" x="512" y="-634.3" font-family="Times,serif" font-size="14.00">set_storage_gas_config</text>
</g>
<!-- gas_schedule::set_storage_gas_config&#45;&gt;reconfiguration::reconfigure -->
<g id="edge23" class="edge">
<title>gas_schedule::set_storage_gas_config&#45;&gt;reconfiguration::reconfigure</title>
<path fill="none" stroke="black" d="M512,-619.82C512,-609.69 512,-596.6 512,-584.92"/>
<polygon fill="black" stroke="black" points="515.5,-584.95 512,-574.95 508.5,-584.95 515.5,-584.95"/>
</g>
<!-- version::set_version -->
<g id="node24" class="node">
<title>version::set_version</title>
<ellipse fill="none" stroke="black" cx="840" cy="-638" rx="50.89" ry="18"/>
<text text-anchor="middle" x="840" y="-634.3" font-family="Times,serif" font-size="14.00">set_version</text>
</g>
<!-- version::set_version&#45;&gt;reconfiguration::reconfigure -->
<g id="edge24" class="edge">
<title>version::set_version&#45;&gt;reconfiguration::reconfigure</title>
<path fill="none" stroke="black" d="M808.64,-623.35C798.66,-619.32 787.48,-615.16 777,-612 706.6,-590.76 623.33,-574.57 569.18,-565.19"/>
<polygon fill="black" stroke="black" points="570.02,-561.79 559.57,-563.55 568.84,-568.68 570.02,-561.79"/>
</g>
<!-- genesis::initialize_for_verification -->
<g id="node25" class="node">
<title>genesis::initialize_for_verification</title>
<ellipse fill="none" stroke="black" cx="1016" cy="-713" rx="100.98" ry="18"/>
<text text-anchor="middle" x="1016" y="-709.3" font-family="Times,serif" font-size="14.00">initialize_for_verification</text>
</g>
<!-- genesis::initialize_for_verification&#45;&gt;genesis::create_initialize_validators -->
<g id="edge25" class="edge">
<title>genesis::initialize_for_verification&#45;&gt;genesis::create_initialize_validators</title>
<path fill="none" stroke="black" d="M1025.24,-694.7C1029.73,-686.31 1035.22,-676.02 1040.27,-666.58"/>
<polygon fill="black" stroke="black" points="1043.35,-668.23 1044.98,-657.76 1037.18,-664.93 1043.35,-668.23"/>
</g>
</g>
</svg>
