<?xml version="1.0" encoding="UTF-8" standalone="no"?>
<!DOCTYPE svg PUBLIC "-//W3C//DTD SVG 1.1//EN"
 "http://www.w3.org/Graphics/SVG/1.1/DTD/svg11.dtd">
<!-- Generated by graphviz version 7.0.0 (20221023.0053)
 -->
<!-- Title: G Pages: 1 -->
<svg width="292pt" height="382pt"
 viewBox="0.00 0.00 292.00 382.00" xmlns="http://www.w3.org/2000/svg" xmlns:xlink="http://www.w3.org/1999/xlink">
<g id="graph0" class="graph" transform="scale(1 1) rotate(0) translate(4 378)">
<title>G</title>
<polygon fill="white" stroke="none" points="-4,4 -4,-378 288,-378 288,4 -4,4"/>
<g id="clust1" class="cluster">
<title>cluster_coin</title>
<polygon fill="none" stroke="black" points="40,-208 40,-283 276,-283 276,-208 40,-208"/>
<text text-anchor="middle" x="158" y="-267.8" font-family="Times,serif" font-size="14.00">coin</text>
</g>
<g id="clust2" class="cluster">
<title>cluster_aptos_governance</title>
<polygon fill="none" stroke="black" points="8,-291 8,-366 156,-366 156,-291 8,-291"/>
<text text-anchor="middle" x="82" y="-350.8" font-family="Times,serif" font-size="14.00">aptos_governance</text>
</g>
<!-- read_integer -->
<g id="node1" class="node">
<title>read_integer</title>
<ellipse fill="none" stroke="black" cx="148" cy="-18" rx="54.69" ry="18"/>
<text text-anchor="middle" x="148" y="-14.3" font-family="Times,serif" font-size="14.00">read_integer</text>
</g>
<!-- read -->
<g id="node2" class="node">
<title>read</title>
<ellipse fill="none" stroke="black" cx="148" cy="-90" rx="27" ry="18"/>
<text text-anchor="middle" x="148" y="-86.3" font-family="Times,serif" font-size="14.00">read</text>
</g>
<!-- read&#45;&gt;read_integer -->
<g id="edge1" class="edge">
<title>read&#45;&gt;read_integer</title>
<path fill="none" stroke="black" d="M148,-71.7C148,-64.41 148,-55.73 148,-47.54"/>
<polygon fill="black" stroke="black" points="151.5,-47.62 148,-37.62 144.5,-47.62 151.5,-47.62"/>
</g>
<!-- switch -->
<g id="node3" class="node">
<title>switch</title>
<ellipse fill="none" stroke="black" cx="186" cy="-162" rx="33.6" ry="18"/>
<text text-anchor="middle" x="186" y="-158.3" font-family="Times,serif" font-size="14.00">switch</text>
</g>
<!-- switch&#45;&gt;read -->
<g id="edge2" class="edge">
<title>switch&#45;&gt;read</title>
<path fill="none" stroke="black" d="M176.99,-144.41C172.64,-136.39 167.31,-126.57 162.41,-117.54"/>
<polygon fill="black" stroke="black" points="165.51,-115.92 157.66,-108.8 159.36,-119.26 165.51,-115.92"/>
</g>
<!-- coin::supply -->
<g id="node4" class="node">
<title>coin::supply</title>
<ellipse fill="none" stroke="black" cx="82" cy="-234" rx="34.39" ry="18"/>
<text text-anchor="middle" x="82" y="-230.3" font-family="Times,serif" font-size="14.00">supply</text>
</g>
<!-- coin::supply&#45;&gt;read -->
<g id="edge3" class="edge">
<title>coin::supply&#45;&gt;read</title>
<path fill="none" stroke="black" d="M89.83,-216.15C101.15,-191.79 122.21,-146.48 135.65,-117.58"/>
<polygon fill="black" stroke="black" points="138.7,-119.3 139.75,-108.76 132.36,-116.35 138.7,-119.3"/>
</g>
<!-- coin::upgrade_supply -->
<g id="node5" class="node">
<title>coin::upgrade_supply</title>
<ellipse fill="none" stroke="black" cx="201" cy="-234" rx="66.89" ry="18"/>
<text text-anchor="middle" x="201" y="-230.3" font-family="Times,serif" font-size="14.00">upgrade_supply</text>
</g>
<!-- coin::upgrade_supply&#45;&gt;switch -->
<g id="edge4" class="edge">
<title>coin::upgrade_supply&#45;&gt;switch</title>
<path fill="none" stroke="black" d="M197.29,-215.7C195.71,-208.32 193.83,-199.52 192.05,-191.25"/>
<polygon fill="black" stroke="black" points="195.5,-190.63 189.98,-181.58 188.66,-192.1 195.5,-190.63"/>
</g>
<!-- aptos_governance::create_proposal -->
<g id="node6" class="node">
<title>aptos_governance::create_proposal</title>
<ellipse fill="none" stroke="black" cx="82" cy="-317" rx="66.09" ry="18"/>
<text text-anchor="middle" x="82" y="-313.3" font-family="Times,serif" font-size="14.00">create_proposal</text>
</g>
<!-- aptos_governance::create_proposal&#45;&gt;coin::supply -->
<g id="edge5" class="edge">
<title>aptos_governance::create_proposal&#45;&gt;coin::supply</title>
<path fill="none" stroke="black" d="M82,-298.82C82,-288.69 82,-275.6 82,-263.92"/>
<polygon fill="black" stroke="black" points="85.5,-263.95 82,-253.95 78.5,-263.95 85.5,-263.95"/>
</g>
</g>
</svg>
