<?xml version="1.0" encoding="UTF-8" standalone="no"?>
<!DOCTYPE svg PUBLIC "-//W3C//DTD SVG 1.1//EN"
 "http://www.w3.org/Graphics/SVG/1.1/DTD/svg11.dtd">
<!-- Generated by graphviz version 7.0.0 (20221023.0053)
 -->
<!-- Title: G Pages: 1 -->
<svg width="1508pt" height="476pt"
 viewBox="0.00 0.00 1508.39 476.00" xmlns="http://www.w3.org/2000/svg" xmlns:xlink="http://www.w3.org/1999/xlink">
<g id="graph0" class="graph" transform="scale(1 1) rotate(0) translate(4 472)">
<title>G</title>
<polygon fill="white" stroke="none" points="-4,4 -4,-472 1504.39,-472 1504.39,4 -4,4"/>
<!-- optional_aggregator -->
<g id="node1" class="node">
<title>optional_aggregator</title>
<ellipse fill="none" stroke="black" cx="893" cy="-18" rx="81.49" ry="18"/>
<text text-anchor="middle" x="893" y="-14.3" font-family="Times,serif" font-size="14.00">optional_aggregator</text>
</g>
<!-- coin -->
<g id="node2" class="node">
<title>coin</title>
<ellipse fill="none" stroke="black" cx="893" cy="-90" rx="27" ry="18"/>
<text text-anchor="middle" x="893" y="-86.3" font-family="Times,serif" font-size="14.00">coin</text>
</g>
<!-- coin&#45;&gt;optional_aggregator -->
<g id="edge1" class="edge">
<title>coin&#45;&gt;optional_aggregator</title>
<path fill="none" stroke="black" d="M893,-71.7C893,-64.41 893,-55.73 893,-47.54"/>
<polygon fill="black" stroke="black" points="896.5,-47.62 893,-37.62 889.5,-47.62 896.5,-47.62"/>
</g>
<!-- aptos_coin -->
<g id="node3" class="node">
<title>aptos_coin</title>
<ellipse fill="none" stroke="black" cx="893" cy="-162" rx="48.99" ry="18"/>
<text text-anchor="middle" x="893" y="-158.3" font-family="Times,serif" font-size="14.00">aptos_coin</text>
</g>
<!-- aptos_coin&#45;&gt;coin -->
<g id="edge2" class="edge">
<title>aptos_coin&#45;&gt;coin</title>
<path fill="none" stroke="black" d="M893,-143.7C893,-136.41 893,-127.73 893,-119.54"/>
<polygon fill="black" stroke="black" points="896.5,-119.62 893,-109.62 889.5,-119.62 896.5,-119.62"/>
</g>
<!-- aptos_account -->
<g id="node4" class="node">
<title>aptos_account</title>
<ellipse fill="none" stroke="black" cx="1097" cy="-234" rx="61.19" ry="18"/>
<text text-anchor="middle" x="1097" y="-230.3" font-family="Times,serif" font-size="14.00">aptos_account</text>
</g>
<!-- aptos_account&#45;&gt;coin -->
<g id="edge3" class="edge">
<title>aptos_account&#45;&gt;coin</title>
<path fill="none" stroke="black" d="M1078.03,-216.71C1056.06,-198.18 1018.48,-167.45 984,-144 964.54,-130.76 941.64,-117.44 923.68,-107.46"/>
<polygon fill="black" stroke="black" points="925.52,-104.47 915.07,-102.72 922.14,-110.61 925.52,-104.47"/>
</g>
<!-- aptos_account&#45;&gt;aptos_coin -->
<g id="edge13" class="edge">
<title>aptos_account&#45;&gt;aptos_coin</title>
<path fill="none" stroke="black" d="M1058.15,-219.67C1024.1,-207.99 974.57,-190.99 938.64,-178.66"/>
<polygon fill="black" stroke="black" points="939.99,-175.42 929.39,-175.49 937.72,-182.04 939.99,-175.42"/>
</g>
<!-- stake -->
<g id="node5" class="node">
<title>stake</title>
<ellipse fill="none" stroke="black" cx="816" cy="-234" rx="28.7" ry="18"/>
<text text-anchor="middle" x="816" y="-230.3" font-family="Times,serif" font-size="14.00">stake</text>
</g>
<!-- stake&#45;&gt;coin -->
<g id="edge4" class="edge">
<title>stake&#45;&gt;coin</title>
<path fill="none" stroke="black" d="M816.58,-215.83C817.89,-197.05 822.04,-166.62 835,-144 842.47,-130.96 854.25,-119.33 865.25,-110.31"/>
<polygon fill="black" stroke="black" points="867.24,-113.2 873,-104.3 862.95,-107.67 867.24,-113.2"/>
</g>
<!-- stake&#45;&gt;aptos_coin -->
<g id="edge14" class="edge">
<title>stake&#45;&gt;aptos_coin</title>
<path fill="none" stroke="black" d="M831.58,-218.83C841.77,-209.58 855.31,-197.26 867.09,-186.55"/>
<polygon fill="black" stroke="black" points="869.12,-189.44 874.17,-180.12 864.41,-184.26 869.12,-189.44"/>
</g>
<!-- aptos_governance -->
<g id="node6" class="node">
<title>aptos_governance</title>
<ellipse fill="none" stroke="black" cx="362" cy="-378" rx="74.19" ry="18"/>
<text text-anchor="middle" x="362" y="-374.3" font-family="Times,serif" font-size="14.00">aptos_governance</text>
</g>
<!-- aptos_governance&#45;&gt;coin -->
<g id="edge5" class="edge">
<title>aptos_governance&#45;&gt;coin</title>
<path fill="none" stroke="black" d="M367.33,-359.82C374.03,-340.47 387.12,-308.99 407,-288 533.86,-154.04 764.42,-108.72 855.01,-95.65"/>
<polygon fill="black" stroke="black" points="855.42,-99.12 864.84,-94.28 854.45,-92.19 855.42,-99.12"/>
</g>
<!-- aptos_governance&#45;&gt;aptos_coin -->
<g id="edge15" class="edge">
<title>aptos_governance&#45;&gt;aptos_coin</title>
<path fill="none" stroke="black" d="M375.46,-360.02C392.25,-339.96 422.81,-306.93 456,-288 580.8,-216.82 749.14,-183.66 835.95,-170.44"/>
<polygon fill="black" stroke="black" points="836.26,-173.93 845.64,-169 835.23,-167.01 836.26,-173.93"/>
</g>
<!-- aptos_governance&#45;&gt;stake -->
<g id="edge24" class="edge">
<title>aptos_governance&#45;&gt;stake</title>
<path fill="none" stroke="black" d="M390.47,-361.14C409.15,-350.69 434.09,-336.64 456,-324 483.27,-308.27 487.47,-298.92 517,-288 606.05,-255.06 717.78,-242.24 776.21,-237.53"/>
<polygon fill="black" stroke="black" points="776.29,-241.03 786,-236.78 775.76,-234.05 776.29,-241.03"/>
</g>
<!-- reconfiguration -->
<g id="node14" class="node">
<title>reconfiguration</title>
<ellipse fill="none" stroke="black" cx="634" cy="-306" rx="64.99" ry="18"/>
<text text-anchor="middle" x="634" y="-302.3" font-family="Times,serif" font-size="14.00">reconfiguration</text>
</g>
<!-- aptos_governance&#45;&gt;reconfiguration -->
<g id="edge39" class="edge">
<title>aptos_governance&#45;&gt;reconfiguration</title>
<path fill="none" stroke="black" d="M411.57,-364.24C458.06,-352.28 527.55,-334.4 576.46,-321.81"/>
<polygon fill="black" stroke="black" points="577.21,-325.23 586.03,-319.35 575.47,-318.45 577.21,-325.23"/>
</g>
<!-- staking_contract -->
<g id="node7" class="node">
<title>staking_contract</title>
<ellipse fill="none" stroke="black" cx="1029" cy="-306" rx="68.79" ry="18"/>
<text text-anchor="middle" x="1029" y="-302.3" font-family="Times,serif" font-size="14.00">staking_contract</text>
</g>
<!-- staking_contract&#45;&gt;coin -->
<g id="edge6" class="edge">
<title>staking_contract&#45;&gt;coin</title>
<path fill="none" stroke="black" d="M1023.15,-287.85C1012.16,-257.08 986.28,-191.31 951,-144 942.02,-131.95 930.03,-120.46 919.28,-111.28"/>
<polygon fill="black" stroke="black" points="921.74,-108.77 911.8,-105.11 917.29,-114.17 921.74,-108.77"/>
</g>
<!-- staking_contract&#45;&gt;aptos_coin -->
<g id="edge16" class="edge">
<title>staking_contract&#45;&gt;aptos_coin</title>
<path fill="none" stroke="black" d="M1002.72,-288.97C988.06,-279.3 969.98,-266.15 956,-252 937.36,-233.14 920.26,-208.28 908.59,-189.62"/>
<polygon fill="black" stroke="black" points="911.69,-187.97 903.48,-181.27 905.72,-191.63 911.69,-187.97"/>
</g>
<!-- staking_contract&#45;&gt;stake -->
<g id="edge26" class="edge">
<title>staking_contract&#45;&gt;stake</title>
<path fill="none" stroke="black" d="M987.17,-291.25C947.76,-278.3 889.32,-259.09 851.95,-246.81"/>
<polygon fill="black" stroke="black" points="853.1,-243.51 842.51,-243.71 850.91,-250.16 853.1,-243.51"/>
</g>
<!-- vesting -->
<g id="node8" class="node">
<title>vesting</title>
<ellipse fill="none" stroke="black" cx="1148" cy="-378" rx="36.29" ry="18"/>
<text text-anchor="middle" x="1148" y="-374.3" font-family="Times,serif" font-size="14.00">vesting</text>
</g>
<!-- vesting&#45;&gt;coin -->
<g id="edge7" class="edge">
<title>vesting&#45;&gt;coin</title>
<path fill="none" stroke="black" d="M1177.42,-366.93C1240.56,-343.74 1379.36,-283.37 1329,-216 1280.46,-151.07 1027.93,-109.72 930.97,-96.03"/>
<polygon fill="black" stroke="black" points="931.56,-92.57 921.17,-94.67 930.59,-99.51 931.56,-92.57"/>
</g>
<!-- vesting&#45;&gt;aptos_coin -->
<g id="edge17" class="edge">
<title>vesting&#45;&gt;aptos_coin</title>
<path fill="none" stroke="black" d="M1143.99,-359.81C1138.61,-340.16 1127.3,-308.12 1107,-288 1079.31,-260.55 1061.13,-270.85 1027,-252 989.99,-231.56 949.88,-204.17 923.29,-185.19"/>
<polygon fill="black" stroke="black" points="925.53,-182.49 915.37,-179.5 921.44,-188.18 925.53,-182.49"/>
</g>
<!-- vesting&#45;&gt;aptos_account -->
<g id="edge22" class="edge">
<title>vesting&#45;&gt;aptos_account</title>
<path fill="none" stroke="black" d="M1149.37,-359.57C1150.15,-341.11 1149.51,-311.43 1140,-288 1135.88,-277.84 1129.12,-268.1 1122.16,-259.81"/>
<polygon fill="black" stroke="black" points="1124.94,-257.67 1115.67,-252.55 1119.73,-262.33 1124.94,-257.67"/>
</g>
<!-- vesting&#45;&gt;stake -->
<g id="edge27" class="edge">
<title>vesting&#45;&gt;stake</title>
<path fill="none" stroke="black" d="M1113.76,-371.24C1073.55,-363.7 1005.42,-348.49 951,-324 910.19,-305.64 867.85,-275.63 841.72,-255.6"/>
<polygon fill="black" stroke="black" points="844.09,-253.02 834.05,-249.64 839.8,-258.54 844.09,-253.02"/>
</g>
<!-- vesting&#45;&gt;staking_contract -->
<g id="edge31" class="edge">
<title>vesting&#45;&gt;staking_contract</title>
<path fill="none" stroke="black" d="M1125.34,-363.67C1108.57,-353.81 1085.37,-340.16 1065.93,-328.73"/>
<polygon fill="black" stroke="black" points="1067.87,-325.8 1057.47,-323.75 1064.32,-331.84 1067.87,-325.8"/>
</g>
<!-- transaction_fee -->
<g id="node9" class="node">
<title>transaction_fee</title>
<ellipse fill="none" stroke="black" cx="245" cy="-234" rx="64.19" ry="18"/>
<text text-anchor="middle" x="245" y="-230.3" font-family="Times,serif" font-size="14.00">transaction_fee</text>
</g>
<!-- transaction_fee&#45;&gt;coin -->
<g id="edge8" class="edge">
<title>transaction_fee&#45;&gt;coin</title>
<path fill="none" stroke="black" d="M258.78,-216.08C276.98,-195.09 311.17,-160.1 349,-144 440.41,-105.08 746.26,-94.37 854.57,-91.76"/>
<polygon fill="black" stroke="black" points="854.47,-95.26 864.39,-91.54 854.31,-88.27 854.47,-95.26"/>
</g>
<!-- transaction_fee&#45;&gt;aptos_coin -->
<g id="edge18" class="edge">
<title>transaction_fee&#45;&gt;aptos_coin</title>
<path fill="none" stroke="black" d="M303.13,-225.97C329.36,-222.84 360.73,-219.16 389,-216 550.37,-197.99 741.01,-178.4 834.85,-168.87"/>
<polygon fill="black" stroke="black" points="834.98,-172.38 844.57,-167.89 834.27,-165.41 834.98,-172.38"/>
</g>
<!-- transaction_validation -->
<g id="node10" class="node">
<title>transaction_validation</title>
<ellipse fill="none" stroke="black" cx="117" cy="-306" rx="89.08" ry="18"/>
<text text-anchor="middle" x="117" y="-302.3" font-family="Times,serif" font-size="14.00">transaction_validation</text>
</g>
<!-- transaction_validation&#45;&gt;coin -->
<g id="edge9" class="edge">
<title>transaction_validation&#45;&gt;coin</title>
<path fill="none" stroke="black" d="M124.64,-287.57C133.76,-268.29 150.5,-237.14 172,-216 216.62,-172.12 233.45,-163.24 293,-144 398.24,-110.01 739.17,-96.01 854.48,-92.17"/>
<polygon fill="black" stroke="black" points="854.46,-95.67 864.34,-91.84 854.23,-88.67 854.46,-95.67"/>
</g>
<!-- transaction_validation&#45;&gt;aptos_coin -->
<g id="edge19" class="edge">
<title>transaction_validation&#45;&gt;aptos_coin</title>
<path fill="none" stroke="black" d="M171.84,-291.46C212.38,-281.23 268.85,-266.51 318,-252 367.34,-237.44 377.74,-226.97 428,-216 571.54,-184.67 744.3,-171.16 833.39,-165.92"/>
<polygon fill="black" stroke="black" points="833.32,-169.43 843.1,-165.37 832.92,-162.44 833.32,-169.43"/>
</g>
<!-- transaction_validation&#45;&gt;transaction_fee -->
<g id="edge36" class="edge">
<title>transaction_validation&#45;&gt;transaction_fee</title>
<path fill="none" stroke="black" d="M147.01,-288.59C164.8,-278.86 187.52,-266.43 206.61,-256"/>
<polygon fill="black" stroke="black" points="208.07,-259.18 215.17,-251.31 204.71,-253.04 208.07,-259.18"/>
</g>
<!-- genesis -->
<g id="node11" class="node">
<title>genesis</title>
<ellipse fill="none" stroke="black" cx="570" cy="-450" rx="36.29" ry="18"/>
<text text-anchor="middle" x="570" y="-446.3" font-family="Times,serif" font-size="14.00">genesis</text>
</g>
<!-- genesis&#45;&gt;coin -->
<g id="edge10" class="edge">
<title>genesis&#45;&gt;coin</title>
<path fill="none" stroke="black" d="M533.48,-447.79C407.67,-442.63 0,-417.4 0,-307 0,-307 0,-307 0,-233 0,-131.63 111.52,-168.01 210,-144 333.83,-113.81 729.08,-97.02 854.46,-92.36"/>
<polygon fill="black" stroke="black" points="854.35,-95.86 864.22,-92 854.09,-88.87 854.35,-95.86"/>
</g>
<!-- genesis&#45;&gt;aptos_coin -->
<g id="edge20" class="edge">
<title>genesis&#45;&gt;aptos_coin</title>
<path fill="none" stroke="black" d="M606.51,-449.7C693,-450.5 906.49,-447.13 951,-396 964.57,-380.41 922.32,-249.19 902.58,-190.82"/>
<polygon fill="black" stroke="black" points="905.98,-189.94 899.45,-181.6 899.36,-192.19 905.98,-189.94"/>
</g>
<!-- genesis&#45;&gt;stake -->
<g id="edge28" class="edge">
<title>genesis&#45;&gt;stake</title>
<path fill="none" stroke="black" d="M533.5,-447.94C462.74,-445.05 311.03,-434.4 279,-396 268.75,-383.71 270.12,-373.31 279,-360 334.79,-276.36 660.6,-245.82 775.73,-237.55"/>
<polygon fill="black" stroke="black" points="775.89,-241.05 785.63,-236.86 775.41,-234.06 775.89,-241.05"/>
</g>
<!-- genesis&#45;&gt;aptos_governance -->
<g id="edge30" class="edge">
<title>genesis&#45;&gt;aptos_governance</title>
<path fill="none" stroke="black" d="M540.64,-439.12C508.09,-428.16 454.92,-410.27 415.04,-396.85"/>
<polygon fill="black" stroke="black" points="416.2,-393.55 405.6,-393.67 413.96,-400.18 416.2,-393.55"/>
</g>
<!-- genesis&#45;&gt;staking_contract -->
<g id="edge32" class="edge">
<title>genesis&#45;&gt;staking_contract</title>
<path fill="none" stroke="black" d="M606.5,-448.61C696.02,-447 923.56,-438.7 984,-396 1004.31,-381.65 1015.99,-355.39 1022.34,-335.1"/>
<polygon fill="black" stroke="black" points="1025.64,-336.3 1025,-325.73 1018.9,-334.39 1025.64,-336.3"/>
</g>
<!-- genesis&#45;&gt;vesting -->
<g id="edge34" class="edge">
<title>genesis&#45;&gt;vesting</title>
<path fill="none" stroke="black" d="M605.79,-446.16C686.89,-439.48 890.77,-421.45 1060,-396 1074.45,-393.83 1090.14,-390.96 1104.21,-388.2"/>
<polygon fill="black" stroke="black" points="1104.49,-391.72 1113.61,-386.33 1103.12,-384.85 1104.49,-391.72"/>
</g>
<!-- genesis&#45;&gt;transaction_fee -->
<g id="edge37" class="edge">
<title>genesis&#45;&gt;transaction_fee</title>
<path fill="none" stroke="black" d="M533.71,-447.79C461.64,-444.6 304.25,-433.42 268,-396 233.94,-360.83 235.47,-299.44 240,-263.49"/>
<polygon fill="black" stroke="black" points="243.43,-264.24 241.39,-253.84 236.5,-263.24 243.43,-264.24"/>
</g>
<!-- genesis&#45;&gt;transaction_validation -->
<g id="edge38" class="edge">
<title>genesis&#45;&gt;transaction_validation</title>
<path fill="none" stroke="black" d="M534.08,-446.57C454.32,-440.72 264.99,-424.22 208,-396 178.46,-381.37 152.45,-353.58 135.89,-332.92"/>
<polygon fill="black" stroke="black" points="138.79,-330.95 129.89,-325.21 133.26,-335.25 138.79,-330.95"/>
</g>
<!-- genesis&#45;&gt;reconfiguration -->
<g id="edge44" class="edge">
<title>genesis&#45;&gt;reconfiguration</title>
<path fill="none" stroke="black" d="M586.5,-433.81C596.22,-423.94 607.97,-410.3 615,-396 624.34,-377.02 629.1,-353.55 631.53,-335.47"/>
<polygon fill="black" stroke="black" points="634.98,-336.05 632.66,-325.72 628.03,-335.25 634.98,-336.05"/>
</g>
<!-- block -->
<g id="node15" class="node">
<title>block</title>
<ellipse fill="none" stroke="black" cx="485" cy="-378" rx="30.59" ry="18"/>
<text text-anchor="middle" x="485" y="-374.3" font-family="Times,serif" font-size="14.00">block</text>
</g>
<!-- genesis&#45;&gt;block -->
<g id="edge45" class="edge">
<title>genesis&#45;&gt;block</title>
<path fill="none" stroke="black" d="M551.97,-434.15C540.02,-424.31 524.14,-411.23 510.84,-400.28"/>
<polygon fill="black" stroke="black" points="513.24,-397.73 503.3,-394.07 508.79,-403.13 513.24,-397.73"/>
</g>
<!-- consensus_config -->
<g id="node17" class="node">
<title>consensus_config</title>
<ellipse fill="none" stroke="black" cx="735" cy="-378" rx="73.39" ry="18"/>
<text text-anchor="middle" x="735" y="-374.3" font-family="Times,serif" font-size="14.00">consensus_config</text>
</g>
<!-- genesis&#45;&gt;consensus_config -->
<g id="edge46" class="edge">
<title>genesis&#45;&gt;consensus_config</title>
<path fill="none" stroke="black" d="M596.88,-437.6C621.76,-427.04 659.29,-411.12 688.95,-398.54"/>
<polygon fill="black" stroke="black" points="690.25,-401.79 698.09,-394.66 687.52,-395.34 690.25,-401.79"/>
</g>
<!-- gas_schedule -->
<g id="node18" class="node">
<title>gas_schedule</title>
<ellipse fill="none" stroke="black" cx="884" cy="-378" rx="57.69" ry="18"/>
<text text-anchor="middle" x="884" y="-374.3" font-family="Times,serif" font-size="14.00">gas_schedule</text>
</g>
<!-- genesis&#45;&gt;gas_schedule -->
<g id="edge47" class="edge">
<title>genesis&#45;&gt;gas_schedule</title>
<path fill="none" stroke="black" d="M603.25,-442.27C650.76,-432.57 740.77,-413.84 817,-396 821.22,-395.01 825.58,-393.97 829.96,-392.9"/>
<polygon fill="black" stroke="black" points="830.47,-396.37 839.34,-390.57 828.79,-389.58 830.47,-396.37"/>
</g>
<!-- version -->
<g id="node19" class="node">
<title>version</title>
<ellipse fill="none" stroke="black" cx="570" cy="-378" rx="36.29" ry="18"/>
<text text-anchor="middle" x="570" y="-374.3" font-family="Times,serif" font-size="14.00">version</text>
</g>
<!-- genesis&#45;&gt;version -->
<g id="edge48" class="edge">
<title>genesis&#45;&gt;version</title>
<path fill="none" stroke="black" d="M570,-431.7C570,-424.41 570,-415.73 570,-407.54"/>
<polygon fill="black" stroke="black" points="573.5,-407.62 570,-397.62 566.5,-407.62 573.5,-407.62"/>
</g>
<!-- managed_coin -->
<g id="node12" class="node">
<title>managed_coin</title>
<ellipse fill="none" stroke="black" cx="1438" cy="-162" rx="62.29" ry="18"/>
<text text-anchor="middle" x="1438" y="-158.3" font-family="Times,serif" font-size="14.00">managed_coin</text>
</g>
<!-- managed_coin&#45;&gt;coin -->
<g id="edge11" class="edge">
<title>managed_coin&#45;&gt;coin</title>
<path fill="none" stroke="black" d="M1391.53,-149.78C1381.81,-147.66 1371.6,-145.61 1362,-144 1202.95,-117.3 1011.24,-100.33 931.1,-93.91"/>
<polygon fill="black" stroke="black" points="931.86,-90.46 921.62,-93.16 931.31,-97.43 931.86,-90.46"/>
</g>
<!-- resource_account -->
<g id="node13" class="node">
<title>resource_account</title>
<ellipse fill="none" stroke="black" cx="1248" cy="-234" rx="72.29" ry="18"/>
<text text-anchor="middle" x="1248" y="-230.3" font-family="Times,serif" font-size="14.00">resource_account</text>
</g>
<!-- resource_account&#45;&gt;coin -->
<g id="edge12" class="edge">
<title>resource_account&#45;&gt;coin</title>
<path fill="none" stroke="black" d="M1211.01,-218.21C1141.54,-190.42 992.56,-130.82 926.14,-104.26"/>
<polygon fill="black" stroke="black" points="927.83,-101.16 917.25,-100.7 925.24,-107.66 927.83,-101.16"/>
</g>
<!-- resource_account&#45;&gt;aptos_coin -->
<g id="edge21" class="edge">
<title>resource_account&#45;&gt;aptos_coin</title>
<path fill="none" stroke="black" d="M1194.43,-221.63C1185.29,-219.73 1175.87,-217.79 1167,-216 1090.73,-200.62 1002.34,-183.68 947.04,-173.19"/>
<polygon fill="black" stroke="black" points="947.72,-169.76 937.24,-171.34 946.42,-176.64 947.72,-169.76"/>
</g>
<!-- reconfiguration&#45;&gt;stake -->
<g id="edge23" class="edge">
<title>reconfiguration&#45;&gt;stake</title>
<path fill="none" stroke="black" d="M670.83,-290.83C703.16,-278.4 749.84,-260.44 781.47,-248.28"/>
<polygon fill="black" stroke="black" points="782.49,-251.64 790.57,-244.78 779.98,-245.1 782.49,-251.64"/>
</g>
<!-- block&#45;&gt;stake -->
<g id="edge25" class="edge">
<title>block&#45;&gt;stake</title>
<path fill="none" stroke="black" d="M494.07,-360.64C506.28,-340.25 529.97,-305.89 560,-288 628.15,-247.39 722.57,-237.53 775.63,-235.36"/>
<polygon fill="black" stroke="black" points="775.53,-238.86 785.41,-235.04 775.3,-231.87 775.53,-238.86"/>
</g>
<!-- block&#45;&gt;reconfiguration -->
<g id="edge40" class="edge">
<title>block&#45;&gt;reconfiguration</title>
<path fill="none" stroke="black" d="M508.28,-366.06C530.54,-355.61 564.61,-339.6 591.67,-326.89"/>
<polygon fill="black" stroke="black" points="593.1,-330.08 600.67,-322.66 590.13,-323.74 593.1,-330.08"/>
</g>
<!-- staking_proxy -->
<g id="node16" class="node">
<title>staking_proxy</title>
<ellipse fill="none" stroke="black" cx="1084" cy="-450" rx="61.19" ry="18"/>
<text text-anchor="middle" x="1084" y="-446.3" font-family="Times,serif" font-size="14.00">staking_proxy</text>
</g>
<!-- staking_proxy&#45;&gt;stake -->
<g id="edge29" class="edge">
<title>staking_proxy&#45;&gt;stake</title>
<path fill="none" stroke="black" d="M1061.31,-432.97C1035.14,-414.68 990.61,-384.16 951,-360 922.81,-342.8 911.15,-345.4 886,-324 864.43,-305.64 844.96,-279.75 832.07,-260.62"/>
<polygon fill="black" stroke="black" points="835.02,-258.75 826.61,-252.32 829.17,-262.6 835.02,-258.75"/>
</g>
<!-- staking_proxy&#45;&gt;staking_contract -->
<g id="edge33" class="edge">
<title>staking_proxy&#45;&gt;staking_contract</title>
<path fill="none" stroke="black" d="M1080.79,-431.82C1077.05,-413.57 1070.07,-384.06 1060,-360 1056.3,-351.15 1051.37,-341.97 1046.53,-333.79"/>
<polygon fill="black" stroke="black" points="1049.56,-332.04 1041.34,-325.35 1043.59,-335.7 1049.56,-332.04"/>
</g>
<!-- staking_proxy&#45;&gt;vesting -->
<g id="edge35" class="edge">
<title>staking_proxy&#45;&gt;vesting</title>
<path fill="none" stroke="black" d="M1099.17,-432.41C1107.2,-423.62 1117.22,-412.66 1126.09,-402.96"/>
<polygon fill="black" stroke="black" points="1128.63,-405.37 1132.8,-395.63 1123.47,-400.65 1128.63,-405.37"/>
</g>
<!-- consensus_config&#45;&gt;reconfiguration -->
<g id="edge41" class="edge">
<title>consensus_config&#45;&gt;reconfiguration</title>
<path fill="none" stroke="black" d="M711.32,-360.59C697.93,-351.31 680.99,-339.57 666.38,-329.44"/>
<polygon fill="black" stroke="black" points="668.64,-326.75 658.43,-323.93 664.65,-332.5 668.64,-326.75"/>
</g>
<!-- gas_schedule&#45;&gt;reconfiguration -->
<g id="edge42" class="edge">
<title>gas_schedule&#45;&gt;reconfiguration</title>
<path fill="none" stroke="black" d="M842.16,-365.28C800.29,-353.56 735.66,-335.46 689.52,-322.55"/>
<polygon fill="black" stroke="black" points="690.54,-319.2 679.97,-319.87 688.66,-325.94 690.54,-319.2"/>
</g>
<!-- version&#45;&gt;reconfiguration -->
<g id="edge43" class="edge">
<title>version&#45;&gt;reconfiguration</title>
<path fill="none" stroke="black" d="M584.52,-361.12C592.32,-352.59 602.1,-341.89 610.91,-332.25"/>
<polygon fill="black" stroke="black" points="613.46,-334.66 617.62,-324.91 608.29,-329.93 613.46,-334.66"/>
</g>
</g>
</svg>
