<?xml version="1.0" encoding="UTF-8" standalone="no"?>
<!DOCTYPE svg PUBLIC "-//W3C//DTD SVG 1.1//EN"
 "http://www.w3.org/Graphics/SVG/1.1/DTD/svg11.dtd">
<!-- Generated by graphviz version 7.0.0 (20221023.0053)
 -->
<!-- Title: G Pages: 1 -->
<svg width="292pt" height="310pt"
 viewBox="0.00 0.00 292.00 310.00" xmlns="http://www.w3.org/2000/svg" xmlns:xlink="http://www.w3.org/1999/xlink">
<g id="graph0" class="graph" transform="scale(1 1) rotate(0) translate(4 306)">
<title>G</title>
<polygon fill="white" stroke="none" points="-4,4 -4,-306 288,-306 288,4 -4,4"/>
<g id="clust1" class="cluster">
<title>cluster_coin</title>
<polygon fill="none" stroke="black" points="40,-136 40,-211 276,-211 276,-136 40,-136"/>
<text text-anchor="middle" x="158" y="-195.8" font-family="Times,serif" font-size="14.00">coin</text>
</g>
<g id="clust2" class="cluster">
<title>cluster_aptos_governance</title>
<polygon fill="none" stroke="black" points="8,-219 8,-294 156,-294 156,-219 8,-219"/>
<text text-anchor="middle" x="82" y="-278.8" font-family="Times,serif" font-size="14.00">aptos_governance</text>
</g>
<!-- read -->
<g id="node1" class="node">
<title>read</title>
<ellipse fill="none" stroke="black" cx="148" cy="-18" rx="27" ry="18"/>
<text text-anchor="middle" x="148" y="-14.3" font-family="Times,serif" font-size="14.00">read</text>
</g>
<!-- switch -->
<g id="node2" class="node">
<title>switch</title>
<ellipse fill="none" stroke="black" cx="186" cy="-90" rx="33.6" ry="18"/>
<text text-anchor="middle" x="186" y="-86.3" font-family="Times,serif" font-size="14.00">switch</text>
</g>
<!-- switch&#45;&gt;read -->
<g id="edge1" class="edge">
<title>switch&#45;&gt;read</title>
<path fill="none" stroke="black" d="M176.99,-72.41C172.64,-64.39 167.31,-54.57 162.41,-45.54"/>
<polygon fill="black" stroke="black" points="165.51,-43.92 157.66,-36.8 159.36,-47.26 165.51,-43.92"/>
</g>
<!-- coin::supply -->
<g id="node3" class="node">
<title>coin::supply</title>
<ellipse fill="none" stroke="black" cx="82" cy="-162" rx="34.39" ry="18"/>
<text text-anchor="middle" x="82" y="-158.3" font-family="Times,serif" font-size="14.00">supply</text>
</g>
<!-- coin::supply&#45;&gt;read -->
<g id="edge2" class="edge">
<title>coin::supply&#45;&gt;read</title>
<path fill="none" stroke="black" d="M89.83,-144.15C101.15,-119.79 122.21,-74.48 135.65,-45.58"/>
<polygon fill="black" stroke="black" points="138.7,-47.3 139.75,-36.76 132.36,-44.35 138.7,-47.3"/>
</g>
<!-- coin::upgrade_supply -->
<g id="node4" class="node">
<title>coin::upgrade_supply</title>
<ellipse fill="none" stroke="black" cx="201" cy="-162" rx="66.89" ry="18"/>
<text text-anchor="middle" x="201" y="-158.3" font-family="Times,serif" font-size="14.00">upgrade_supply</text>
</g>
<!-- coin::upgrade_supply&#45;&gt;switch -->
<g id="edge3" class="edge">
<title>coin::upgrade_supply&#45;&gt;switch</title>
<path fill="none" stroke="black" d="M197.29,-143.7C195.71,-136.32 193.83,-127.52 192.05,-119.25"/>
<polygon fill="black" stroke="black" points="195.5,-118.63 189.98,-109.58 188.66,-120.1 195.5,-118.63"/>
</g>
<!-- aptos_governance::create_proposal -->
<g id="node5" class="node">
<title>aptos_governance::create_proposal</title>
<ellipse fill="none" stroke="black" cx="82" cy="-245" rx="66.09" ry="18"/>
<text text-anchor="middle" x="82" y="-241.3" font-family="Times,serif" font-size="14.00">create_proposal</text>
</g>
<!-- aptos_governance::create_proposal&#45;&gt;coin::supply -->
<g id="edge4" class="edge">
<title>aptos_governance::create_proposal&#45;&gt;coin::supply</title>
<path fill="none" stroke="black" d="M82,-226.82C82,-216.69 82,-203.6 82,-191.92"/>
<polygon fill="black" stroke="black" points="85.5,-191.95 82,-181.95 78.5,-191.95 85.5,-191.95"/>
</g>
</g>
</svg>
