<?xml version="1.0" encoding="UTF-8" standalone="no"?>
<!DOCTYPE svg PUBLIC "-//W3C//DTD SVG 1.1//EN"
 "http://www.w3.org/Graphics/SVG/1.1/DTD/svg11.dtd">
<!-- Generated by graphviz version 7.0.0 (20221023.0053)
 -->
<!-- Title: G Pages: 1 -->
<svg width="1475pt" height="706pt"
 viewBox="0.00 0.00 1475.00 706.00" xmlns="http://www.w3.org/2000/svg" xmlns:xlink="http://www.w3.org/1999/xlink">
<g id="graph0" class="graph" transform="scale(1 1) rotate(0) translate(4 702)">
<title>G</title>
<polygon fill="white" stroke="none" points="-4,4 -4,-702 1471,-702 1471,4 -4,4"/>
<g id="clust1" class="cluster">
<title>cluster_coin</title>
<polygon fill="none" stroke="black" points="1092,-136 1092,-211 1314,-211 1314,-136 1092,-136"/>
<text text-anchor="middle" x="1203" y="-195.8" font-family="Times,serif" font-size="14.00">coin</text>
</g>
<g id="clust2" class="cluster">
<title>cluster_aptos_coin</title>
<polygon fill="none" stroke="black" points="1014,-219 1014,-294 1323,-294 1323,-219 1014,-219"/>
<text text-anchor="middle" x="1168.5" y="-278.8" font-family="Times,serif" font-size="14.00">aptos_coin</text>
</g>
<g id="clust3" class="cluster">
<title>cluster_stake</title>
<polygon fill="none" stroke="black" points="729,-219 729,-449 899,-449 899,-219 729,-219"/>
<text text-anchor="middle" x="814" y="-433.8" font-family="Times,serif" font-size="14.00">stake</text>
</g>
<g id="clust4" class="cluster">
<title>cluster_managed_coin</title>
<polygon fill="none" stroke="black" points="1331,-219 1331,-294 1427,-294 1427,-219 1331,-219"/>
<text text-anchor="middle" x="1379" y="-278.8" font-family="Times,serif" font-size="14.00">managed_coin</text>
</g>
<g id="clust5" class="cluster">
<title>cluster_genesis</title>
<polygon fill="none" stroke="black" points="907,-302 907,-690 1459,-690 1459,-302 907,-302"/>
<text text-anchor="middle" x="1183" y="-674.8" font-family="Times,serif" font-size="14.00">genesis</text>
</g>
<g id="clust6" class="cluster">
<title>cluster_reconfiguration</title>
<polygon fill="none" stroke="black" points="453,-457 453,-532 571,-532 571,-457 453,-457"/>
<text text-anchor="middle" x="512" y="-516.8" font-family="Times,serif" font-size="14.00">reconfiguration</text>
</g>
<g id="clust7" class="cluster">
<title>cluster_aptos_governance</title>
<polygon fill="none" stroke="black" points="8,-540 8,-615 126,-615 126,-540 8,-540"/>
<text text-anchor="middle" x="67" y="-599.8" font-family="Times,serif" font-size="14.00">aptos_governance</text>
</g>
<g id="clust8" class="cluster">
<title>cluster_block</title>
<polygon fill="none" stroke="black" points="134,-540 134,-615 282,-615 282,-540 134,-540"/>
<text text-anchor="middle" x="208" y="-599.8" font-family="Times,serif" font-size="14.00">block</text>
</g>
<g id="clust9" class="cluster">
<title>cluster_consensus_config</title>
<polygon fill="none" stroke="black" points="290,-540 290,-615 403,-615 403,-540 290,-540"/>
<text text-anchor="middle" x="346.5" y="-599.8" font-family="Times,serif" font-size="14.00">consensus_config</text>
</g>
<g id="clust10" class="cluster">
<title>cluster_gas_schedule</title>
<polygon fill="none" stroke="black" points="411,-540 411,-615 773,-615 773,-540 411,-540"/>
<text text-anchor="middle" x="592" y="-599.8" font-family="Times,serif" font-size="14.00">gas_schedule</text>
</g>
<g id="clust11" class="cluster">
<title>cluster_version</title>
<polygon fill="none" stroke="black" points="781,-540 781,-615 899,-615 899,-540 781,-540"/>
<text text-anchor="middle" x="840" y="-599.8" font-family="Times,serif" font-size="14.00">version</text>
</g>
<!-- add -->
<g id="node1" class="node">
<title>add</title>
<ellipse fill="none" stroke="black" cx="1189" cy="-18" rx="27" ry="18"/>
<text text-anchor="middle" x="1189" y="-14.3" font-family="Times,serif" font-size="14.00">add</text>
</g>
<!-- switch -->
<g id="node2" class="node">
<title>switch</title>
<ellipse fill="none" stroke="black" cx="1226" cy="-90" rx="33.6" ry="18"/>
<text text-anchor="middle" x="1226" y="-86.3" font-family="Times,serif" font-size="14.00">switch</text>
</g>
<!-- switch&#45;&gt;add -->
<g id="edge1" class="edge">
<title>switch&#45;&gt;add</title>
<path fill="none" stroke="black" d="M1217.23,-72.41C1212.99,-64.39 1207.8,-54.57 1203.03,-45.54"/>
<polygon fill="black" stroke="black" points="1206.18,-44.01 1198.41,-36.81 1199.99,-47.28 1206.18,-44.01"/>
</g>
<!-- coin::mint -->
<g id="node3" class="node">
<title>coin::mint</title>
<ellipse fill="none" stroke="black" cx="1127" cy="-162" rx="27.1" ry="18"/>
<text text-anchor="middle" x="1127" y="-158.3" font-family="Times,serif" font-size="14.00">mint</text>
</g>
<!-- coin::mint&#45;&gt;add -->
<g id="edge2" class="edge">
<title>coin::mint&#45;&gt;add</title>
<path fill="none" stroke="black" d="M1134.23,-144.43C1144.83,-120.17 1164.67,-74.71 1177.34,-45.7"/>
<polygon fill="black" stroke="black" points="1180.41,-47.41 1181.21,-36.85 1174,-44.61 1180.41,-47.41"/>
</g>
<!-- coin::upgrade_supply -->
<g id="node4" class="node">
<title>coin::upgrade_supply</title>
<ellipse fill="none" stroke="black" cx="1239" cy="-162" rx="66.89" ry="18"/>
<text text-anchor="middle" x="1239" y="-158.3" font-family="Times,serif" font-size="14.00">upgrade_supply</text>
</g>
<!-- coin::upgrade_supply&#45;&gt;switch -->
<g id="edge3" class="edge">
<title>coin::upgrade_supply&#45;&gt;switch</title>
<path fill="none" stroke="black" d="M1235.79,-143.7C1234.42,-136.32 1232.78,-127.52 1231.25,-119.25"/>
<polygon fill="black" stroke="black" points="1234.72,-118.79 1229.45,-109.59 1227.84,-120.06 1234.72,-118.79"/>
</g>
<!-- aptos_coin::mint -->
<g id="node5" class="node">
<title>aptos_coin::mint</title>
<ellipse fill="none" stroke="black" cx="1049" cy="-245" rx="27.1" ry="18"/>
<text text-anchor="middle" x="1049" y="-241.3" font-family="Times,serif" font-size="14.00">mint</text>
</g>
<!-- aptos_coin::mint&#45;&gt;coin::mint -->
<g id="edge4" class="edge">
<title>aptos_coin::mint&#45;&gt;coin::mint</title>
<path fill="none" stroke="black" d="M1062.94,-229.52C1074.63,-217.38 1091.52,-199.85 1105.02,-185.83"/>
<polygon fill="black" stroke="black" points="1107.45,-188.35 1111.86,-178.72 1102.41,-183.49 1107.45,-188.35"/>
</g>
<!-- aptos_coin::configure_accounts_for_test -->
<g id="node6" class="node">
<title>aptos_coin::configure_accounts_for_test</title>
<ellipse fill="none" stroke="black" cx="1205" cy="-245" rx="110.48" ry="18"/>
<text text-anchor="middle" x="1205" y="-241.3" font-family="Times,serif" font-size="14.00">configure_accounts_for_test</text>
</g>
<!-- aptos_coin::configure_accounts_for_test&#45;&gt;coin::mint -->
<g id="edge5" class="edge">
<title>aptos_coin::configure_accounts_for_test&#45;&gt;coin::mint</title>
<path fill="none" stroke="black" d="M1181.41,-227.21C1175.14,-222.3 1168.58,-216.7 1163,-211 1156.24,-204.09 1149.65,-195.88 1144,-188.22"/>
<polygon fill="black" stroke="black" points="1146.92,-186.3 1138.27,-180.19 1141.22,-190.36 1146.92,-186.3"/>
</g>
<!-- stake::distribute_rewards -->
<g id="node7" class="node">
<title>stake::distribute_rewards</title>
<ellipse fill="none" stroke="black" cx="814" cy="-245" rx="76.09" ry="18"/>
<text text-anchor="middle" x="814" y="-241.3" font-family="Times,serif" font-size="14.00">distribute_rewards</text>
</g>
<!-- stake::distribute_rewards&#45;&gt;coin::mint -->
<g id="edge6" class="edge">
<title>stake::distribute_rewards&#45;&gt;coin::mint</title>
<path fill="none" stroke="black" d="M863.94,-231.08C927.27,-214.69 1034.92,-186.83 1090.85,-172.35"/>
<polygon fill="black" stroke="black" points="1091.7,-175.75 1100.5,-169.86 1089.94,-168.97 1091.7,-175.75"/>
</g>
<!-- managed_coin::mint -->
<g id="node8" class="node">
<title>managed_coin::mint</title>
<ellipse fill="none" stroke="black" cx="1366" cy="-245" rx="27.1" ry="18"/>
<text text-anchor="middle" x="1366" y="-241.3" font-family="Times,serif" font-size="14.00">mint</text>
</g>
<!-- managed_coin::mint&#45;&gt;coin::mint -->
<g id="edge7" class="edge">
<title>managed_coin::mint&#45;&gt;coin::mint</title>
<path fill="none" stroke="black" d="M1349.12,-230.46C1342.59,-225.97 1334.81,-221.5 1327,-219 1292.24,-207.89 1195.23,-228.11 1163,-211 1153.74,-206.09 1146.2,-197.62 1140.46,-189.15"/>
<polygon fill="black" stroke="black" points="1143.51,-187.44 1135.33,-180.72 1137.53,-191.08 1143.51,-187.44"/>
</g>
<!-- genesis::create_account -->
<g id="node9" class="node">
<title>genesis::create_account</title>
<ellipse fill="none" stroke="black" cx="1049" cy="-328" rx="63.89" ry="18"/>
<text text-anchor="middle" x="1049" y="-324.3" font-family="Times,serif" font-size="14.00">create_account</text>
</g>
<!-- genesis::create_account&#45;&gt;aptos_coin::mint -->
<g id="edge8" class="edge">
<title>genesis::create_account&#45;&gt;aptos_coin::mint</title>
<path fill="none" stroke="black" d="M1049,-309.82C1049,-299.69 1049,-286.6 1049,-274.92"/>
<polygon fill="black" stroke="black" points="1052.5,-274.95 1049,-264.95 1045.5,-274.95 1052.5,-274.95"/>
</g>
<!-- genesis::initialize_core_resources_and_aptos_coin -->
<g id="node10" class="node">
<title>genesis::initialize_core_resources_and_aptos_coin</title>
<ellipse fill="none" stroke="black" cx="1293" cy="-641" rx="157.87" ry="18"/>
<text text-anchor="middle" x="1293" y="-637.3" font-family="Times,serif" font-size="14.00">initialize_core_resources_and_aptos_coin</text>
</g>
<!-- genesis::initialize_core_resources_and_aptos_coin&#45;&gt;aptos_coin::configure_accounts_for_test -->
<g id="edge9" class="edge">
<title>genesis::initialize_core_resources_and_aptos_coin&#45;&gt;aptos_coin::configure_accounts_for_test</title>
<path fill="none" stroke="black" d="M1294.47,-622.7C1296.78,-593.94 1301,-534.44 1301,-484 1301,-484 1301,-484 1301,-399 1301,-347.34 1261.25,-298.81 1232.9,-270.77"/>
<polygon fill="black" stroke="black" points="1235.62,-268.53 1225.98,-264.13 1230.78,-273.58 1235.62,-268.53"/>
</g>
<!-- stake::update_stake_pool -->
<g id="node11" class="node">
<title>stake::update_stake_pool</title>
<ellipse fill="none" stroke="black" cx="814" cy="-328" rx="76.89" ry="18"/>
<text text-anchor="middle" x="814" y="-324.3" font-family="Times,serif" font-size="14.00">update_stake_pool</text>
</g>
<!-- stake::update_stake_pool&#45;&gt;stake::distribute_rewards -->
<g id="edge10" class="edge">
<title>stake::update_stake_pool&#45;&gt;stake::distribute_rewards</title>
<path fill="none" stroke="black" d="M814,-309.82C814,-299.69 814,-286.6 814,-274.92"/>
<polygon fill="black" stroke="black" points="817.5,-274.95 814,-264.95 810.5,-274.95 817.5,-274.95"/>
</g>
<!-- genesis::create_accounts -->
<g id="node12" class="node">
<title>genesis::create_accounts</title>
<ellipse fill="none" stroke="black" cx="1206" cy="-400" rx="66.89" ry="18"/>
<text text-anchor="middle" x="1206" y="-396.3" font-family="Times,serif" font-size="14.00">create_accounts</text>
</g>
<!-- genesis::create_accounts&#45;&gt;genesis::create_account -->
<g id="edge11" class="edge">
<title>genesis::create_accounts&#45;&gt;genesis::create_account</title>
<path fill="none" stroke="black" d="M1172.32,-383.98C1148.98,-373.58 1117.7,-359.63 1092.48,-348.39"/>
<polygon fill="black" stroke="black" points="1094.03,-345.24 1083.47,-344.37 1091.18,-351.64 1094.03,-345.24"/>
</g>
<!-- genesis::create_initialize_validator -->
<g id="node13" class="node">
<title>genesis::create_initialize_validator</title>
<ellipse fill="none" stroke="black" cx="1018" cy="-400" rx="102.88" ry="18"/>
<text text-anchor="middle" x="1018" y="-396.3" font-family="Times,serif" font-size="14.00">create_initialize_validator</text>
</g>
<!-- genesis::create_initialize_validator&#45;&gt;genesis::create_account -->
<g id="edge12" class="edge">
<title>genesis::create_initialize_validator&#45;&gt;genesis::create_account</title>
<path fill="none" stroke="black" d="M1025.66,-381.7C1029.04,-374.07 1033.09,-364.92 1036.87,-356.4"/>
<polygon fill="black" stroke="black" points="1039.96,-358.05 1040.81,-347.49 1033.56,-355.21 1039.96,-358.05"/>
</g>
<!-- stake::on_new_epoch -->
<g id="node14" class="node">
<title>stake::on_new_epoch</title>
<ellipse fill="none" stroke="black" cx="814" cy="-400" rx="63.89" ry="18"/>
<text text-anchor="middle" x="814" y="-396.3" font-family="Times,serif" font-size="14.00">on_new_epoch</text>
</g>
<!-- stake::on_new_epoch&#45;&gt;stake::update_stake_pool -->
<g id="edge13" class="edge">
<title>stake::on_new_epoch&#45;&gt;stake::update_stake_pool</title>
<path fill="none" stroke="black" d="M814,-381.7C814,-374.41 814,-365.73 814,-357.54"/>
<polygon fill="black" stroke="black" points="817.5,-357.62 814,-347.62 810.5,-357.62 817.5,-357.62"/>
</g>
<!-- genesis::create_initialize_validators_with_commission -->
<g id="node15" class="node">
<title>genesis::create_initialize_validators_with_commission</title>
<ellipse fill="none" stroke="black" cx="1089" cy="-483" rx="173.57" ry="18"/>
<text text-anchor="middle" x="1089" y="-479.3" font-family="Times,serif" font-size="14.00">create_initialize_validators_with_commission</text>
</g>
<!-- genesis::create_initialize_validators_with_commission&#45;&gt;genesis::create_initialize_validator -->
<g id="edge14" class="edge">
<title>genesis::create_initialize_validators_with_commission&#45;&gt;genesis::create_initialize_validator</title>
<path fill="none" stroke="black" d="M1073.94,-464.82C1064.25,-453.76 1051.47,-439.18 1040.57,-426.75"/>
<polygon fill="black" stroke="black" points="1043.26,-424.5 1034.03,-419.29 1037.99,-429.12 1043.26,-424.5"/>
</g>
<!-- genesis::create_initialize_validators_with_commission&#45;&gt;stake::on_new_epoch -->
<g id="edge16" class="edge">
<title>genesis::create_initialize_validators_with_commission&#45;&gt;stake::on_new_epoch</title>
<path fill="none" stroke="black" d="M979.81,-468.62C954.2,-463.84 927.31,-457.47 903,-449 883.92,-442.35 864,-431.98 847.86,-422.57"/>
<polygon fill="black" stroke="black" points="850.02,-419.79 839.64,-417.66 846.43,-425.8 850.02,-419.79"/>
</g>
<!-- reconfiguration::reconfigure -->
<g id="node16" class="node">
<title>reconfiguration::reconfigure</title>
<ellipse fill="none" stroke="black" cx="512" cy="-483" rx="51.19" ry="18"/>
<text text-anchor="middle" x="512" y="-479.3" font-family="Times,serif" font-size="14.00">reconfigure</text>
</g>
<!-- reconfiguration::reconfigure&#45;&gt;stake::on_new_epoch -->
<g id="edge15" class="edge">
<title>reconfiguration::reconfigure&#45;&gt;stake::on_new_epoch</title>
<path fill="none" stroke="black" d="M551.79,-471.33C604.64,-457.15 698.27,-432.04 758.17,-415.97"/>
<polygon fill="black" stroke="black" points="758.74,-419.45 767.49,-413.48 756.92,-412.69 758.74,-419.45"/>
</g>
<!-- genesis::create_initialize_validators -->
<g id="node17" class="node">
<title>genesis::create_initialize_validators</title>
<ellipse fill="none" stroke="black" cx="1055" cy="-566" rx="105.88" ry="18"/>
<text text-anchor="middle" x="1055" y="-562.3" font-family="Times,serif" font-size="14.00">create_initialize_validators</text>
</g>
<!-- genesis::create_initialize_validators&#45;&gt;genesis::create_initialize_validators_with_commission -->
<g id="edge17" class="edge">
<title>genesis::create_initialize_validators&#45;&gt;genesis::create_initialize_validators_with_commission</title>
<path fill="none" stroke="black" d="M1062.21,-547.82C1066.6,-537.37 1072.31,-523.77 1077.32,-511.81"/>
<polygon fill="black" stroke="black" points="1080.45,-513.4 1081.1,-502.83 1074,-510.69 1080.45,-513.4"/>
</g>
<!-- aptos_governance::reconfigure -->
<g id="node18" class="node">
<title>aptos_governance::reconfigure</title>
<ellipse fill="none" stroke="black" cx="67" cy="-566" rx="51.19" ry="18"/>
<text text-anchor="middle" x="67" y="-562.3" font-family="Times,serif" font-size="14.00">reconfigure</text>
</g>
<!-- aptos_governance::reconfigure&#45;&gt;reconfiguration::reconfigure -->
<g id="edge18" class="edge">
<title>aptos_governance::reconfigure&#45;&gt;reconfiguration::reconfigure</title>
<path fill="none" stroke="black" d="M97.6,-551.2C107.74,-547.08 119.2,-542.89 130,-540 241.01,-510.27 374.66,-495.25 450.84,-488.56"/>
<polygon fill="black" stroke="black" points="450.94,-492.07 460.6,-487.73 450.34,-485.09 450.94,-492.07"/>
</g>
<!-- block::block_prologue -->
<g id="node19" class="node">
<title>block::block_prologue</title>
<ellipse fill="none" stroke="black" cx="208" cy="-566" rx="65.79" ry="18"/>
<text text-anchor="middle" x="208" y="-562.3" font-family="Times,serif" font-size="14.00">block_prologue</text>
</g>
<!-- block::block_prologue&#45;&gt;reconfiguration::reconfigure -->
<g id="edge19" class="edge">
<title>block::block_prologue&#45;&gt;reconfiguration::reconfigure</title>
<path fill="none" stroke="black" d="M248.33,-551.5C260.39,-547.62 273.69,-543.49 286,-540 344.61,-523.37 412.55,-506.91 458.51,-496.18"/>
<polygon fill="black" stroke="black" points="459.28,-499.6 468.23,-493.93 457.7,-492.78 459.28,-499.6"/>
</g>
<!-- consensus_config::set -->
<g id="node20" class="node">
<title>consensus_config::set</title>
<ellipse fill="none" stroke="black" cx="368" cy="-566" rx="27" ry="18"/>
<text text-anchor="middle" x="368" y="-562.3" font-family="Times,serif" font-size="14.00">set</text>
</g>
<!-- consensus_config::set&#45;&gt;reconfiguration::reconfigure -->
<g id="edge20" class="edge">
<title>consensus_config::set&#45;&gt;reconfiguration::reconfigure</title>
<path fill="none" stroke="black" d="M386.46,-552.74C392.89,-548.58 400.2,-543.98 407,-540 428.71,-527.28 453.52,-513.99 473.57,-503.55"/>
<polygon fill="black" stroke="black" points="474.97,-506.77 482.24,-499.07 471.75,-500.55 474.97,-506.77"/>
</g>
<!-- gas_schedule::set_gas_schedule -->
<g id="node21" class="node">
<title>gas_schedule::set_gas_schedule</title>
<ellipse fill="none" stroke="black" cx="694" cy="-566" rx="71.49" ry="18"/>
<text text-anchor="middle" x="694" y="-562.3" font-family="Times,serif" font-size="14.00">set_gas_schedule</text>
</g>
<!-- gas_schedule::set_gas_schedule&#45;&gt;reconfiguration::reconfigure -->
<g id="edge21" class="edge">
<title>gas_schedule::set_gas_schedule&#45;&gt;reconfiguration::reconfigure</title>
<path fill="none" stroke="black" d="M659.77,-549.76C629.52,-536.3 585.33,-516.64 553.16,-502.32"/>
<polygon fill="black" stroke="black" points="554.69,-499.17 544.13,-498.3 551.84,-505.56 554.69,-499.17"/>
</g>
<!-- gas_schedule::set_storage_gas_config -->
<g id="node22" class="node">
<title>gas_schedule::set_storage_gas_config</title>
<ellipse fill="none" stroke="black" cx="512" cy="-566" rx="92.88" ry="18"/>
<text text-anchor="middle" x="512" y="-562.3" font-family="Times,serif" font-size="14.00">set_storage_gas_config</text>
</g>
<!-- gas_schedule::set_storage_gas_config&#45;&gt;reconfiguration::reconfigure -->
<g id="edge22" class="edge">
<title>gas_schedule::set_storage_gas_config&#45;&gt;reconfiguration::reconfigure</title>
<path fill="none" stroke="black" d="M512,-547.82C512,-537.69 512,-524.6 512,-512.92"/>
<polygon fill="black" stroke="black" points="515.5,-512.95 512,-502.95 508.5,-512.95 515.5,-512.95"/>
</g>
<!-- version::set_version -->
<g id="node23" class="node">
<title>version::set_version</title>
<ellipse fill="none" stroke="black" cx="840" cy="-566" rx="50.89" ry="18"/>
<text text-anchor="middle" x="840" y="-562.3" font-family="Times,serif" font-size="14.00">set_version</text>
</g>
<!-- version::set_version&#45;&gt;reconfiguration::reconfigure -->
<g id="edge23" class="edge">
<title>version::set_version&#45;&gt;reconfiguration::reconfigure</title>
<path fill="none" stroke="black" d="M808.64,-551.35C798.66,-547.32 787.48,-543.16 777,-540 706.6,-518.76 623.33,-502.57 569.18,-493.19"/>
<polygon fill="black" stroke="black" points="570.02,-489.79 559.57,-491.55 568.84,-496.68 570.02,-489.79"/>
</g>
<!-- genesis::initialize_for_verification -->
<g id="node24" class="node">
<title>genesis::initialize_for_verification</title>
<ellipse fill="none" stroke="black" cx="1016" cy="-641" rx="100.98" ry="18"/>
<text text-anchor="middle" x="1016" y="-637.3" font-family="Times,serif" font-size="14.00">initialize_for_verification</text>
</g>
<!-- genesis::initialize_for_verification&#45;&gt;genesis::create_initialize_validators -->
<g id="edge24" class="edge">
<title>genesis::initialize_for_verification&#45;&gt;genesis::create_initialize_validators</title>
<path fill="none" stroke="black" d="M1025.24,-622.7C1029.73,-614.31 1035.22,-604.02 1040.27,-594.58"/>
<polygon fill="black" stroke="black" points="1043.35,-596.23 1044.98,-585.76 1037.18,-592.93 1043.35,-596.23"/>
</g>
</g>
</svg>
