<?xml version="1.0" encoding="UTF-8" standalone="no"?>
<!DOCTYPE svg PUBLIC "-//W3C//DTD SVG 1.1//EN"
 "http://www.w3.org/Graphics/SVG/1.1/DTD/svg11.dtd">
<!-- Generated by graphviz version 7.0.0 (20221023.0053)
 -->
<!-- Title: G Pages: 1 -->
<svg width="242pt" height="393pt"
 viewBox="0.00 0.00 242.00 393.00" xmlns="http://www.w3.org/2000/svg" xmlns:xlink="http://www.w3.org/1999/xlink">
<g id="graph0" class="graph" transform="scale(1 1) rotate(0) translate(4 389)">
<title>G</title>
<polygon fill="white" stroke="none" points="-4,4 -4,-389 238,-389 238,4 -4,4"/>
<g id="clust1" class="cluster">
<title>cluster_coin</title>
<polygon fill="none" stroke="black" points="8,-64 8,-211 122,-211 122,-64 8,-64"/>
<text text-anchor="middle" x="65" y="-195.8" font-family="Times,serif" font-size="14.00">coin</text>
</g>
<g id="clust2" class="cluster">
<title>cluster_managed_coin</title>
<polygon fill="none" stroke="black" points="130,-136 130,-211 226,-211 226,-136 130,-136"/>
<text text-anchor="middle" x="178" y="-195.8" font-family="Times,serif" font-size="14.00">managed_coin</text>
</g>
<g id="clust3" class="cluster">
<title>cluster_transaction_fee</title>
<polygon fill="none" stroke="black" points="15,-219 15,-294 115,-294 115,-219 15,-219"/>
<text text-anchor="middle" x="65" y="-278.8" font-family="Times,serif" font-size="14.00">transaction_fee</text>
</g>
<g id="clust4" class="cluster">
<title>cluster_transaction_validation</title>
<polygon fill="none" stroke="black" points="12,-302 12,-377 149,-377 149,-302 12,-302"/>
<text text-anchor="middle" x="80.5" y="-361.8" font-family="Times,serif" font-size="14.00">transaction_validation</text>
</g>
<!-- sub -->
<g id="node1" class="node">
<title>sub</title>
<ellipse fill="none" stroke="black" cx="76" cy="-18" rx="27" ry="18"/>
<text text-anchor="middle" x="76" y="-14.3" font-family="Times,serif" font-size="14.00">sub</text>
</g>
<!-- coin::burn -->
<g id="node2" class="node">
<title>coin::burn</title>
<ellipse fill="none" stroke="black" cx="76" cy="-90" rx="27" ry="18"/>
<text text-anchor="middle" x="76" y="-86.3" font-family="Times,serif" font-size="14.00">burn</text>
</g>
<!-- coin::burn&#45;&gt;sub -->
<g id="edge1" class="edge">
<title>coin::burn&#45;&gt;sub</title>
<path fill="none" stroke="black" d="M76,-71.7C76,-64.41 76,-55.73 76,-47.54"/>
<polygon fill="black" stroke="black" points="79.5,-47.62 76,-37.62 72.5,-47.62 79.5,-47.62"/>
</g>
<!-- coin::burn_from -->
<g id="node3" class="node">
<title>coin::burn_from</title>
<ellipse fill="none" stroke="black" cx="65" cy="-162" rx="48.99" ry="18"/>
<text text-anchor="middle" x="65" y="-158.3" font-family="Times,serif" font-size="14.00">burn_from</text>
</g>
<!-- coin::burn_from&#45;&gt;coin::burn -->
<g id="edge2" class="edge">
<title>coin::burn_from&#45;&gt;coin::burn</title>
<path fill="none" stroke="black" d="M67.72,-143.7C68.88,-136.32 70.26,-127.52 71.56,-119.25"/>
<polygon fill="black" stroke="black" points="74.98,-120.02 73.08,-109.6 68.07,-118.93 74.98,-120.02"/>
</g>
<!-- managed_coin::burn -->
<g id="node4" class="node">
<title>managed_coin::burn</title>
<ellipse fill="none" stroke="black" cx="165" cy="-162" rx="27" ry="18"/>
<text text-anchor="middle" x="165" y="-158.3" font-family="Times,serif" font-size="14.00">burn</text>
</g>
<!-- managed_coin::burn&#45;&gt;coin::burn -->
<g id="edge3" class="edge">
<title>managed_coin::burn&#45;&gt;coin::burn</title>
<path fill="none" stroke="black" d="M148.26,-147.83C135.17,-137.54 116.73,-123.04 101.76,-111.26"/>
<polygon fill="black" stroke="black" points="104.18,-108.71 94.16,-105.28 99.85,-114.21 104.18,-108.71"/>
</g>
<!-- transaction_fee::burn_fee -->
<g id="node5" class="node">
<title>transaction_fee::burn_fee</title>
<ellipse fill="none" stroke="black" cx="65" cy="-245" rx="42.49" ry="18"/>
<text text-anchor="middle" x="65" y="-241.3" font-family="Times,serif" font-size="14.00">burn_fee</text>
</g>
<!-- transaction_fee::burn_fee&#45;&gt;coin::burn_from -->
<g id="edge4" class="edge">
<title>transaction_fee::burn_fee&#45;&gt;coin::burn_from</title>
<path fill="none" stroke="black" d="M65,-226.82C65,-216.69 65,-203.6 65,-191.92"/>
<polygon fill="black" stroke="black" points="68.5,-191.95 65,-181.95 61.5,-191.95 68.5,-191.95"/>
</g>
<!-- transaction_validation::epilogue -->
<g id="node6" class="node">
<title>transaction_validation::epilogue</title>
<ellipse fill="none" stroke="black" cx="65" cy="-328" rx="40.89" ry="18"/>
<text text-anchor="middle" x="65" y="-324.3" font-family="Times,serif" font-size="14.00">epilogue</text>
</g>
<!-- transaction_validation::epilogue&#45;&gt;transaction_fee::burn_fee -->
<g id="edge5" class="edge">
<title>transaction_validation::epilogue&#45;&gt;transaction_fee::burn_fee</title>
<path fill="none" stroke="black" d="M65,-309.82C65,-299.69 65,-286.6 65,-274.92"/>
<polygon fill="black" stroke="black" points="68.5,-274.95 65,-264.95 61.5,-274.95 68.5,-274.95"/>
</g>
</g>
</svg>
