<?xml version="1.0" encoding="UTF-8" standalone="no"?>
<!DOCTYPE svg PUBLIC "-//W3C//DTD SVG 1.1//EN"
 "http://www.w3.org/Graphics/SVG/1.1/DTD/svg11.dtd">
<!-- Generated by graphviz version 7.0.0 (20221023.0053)
 -->
<!-- Title: G Pages: 1 -->
<svg width="242pt" height="465pt"
 viewBox="0.00 0.00 242.00 465.00" xmlns="http://www.w3.org/2000/svg" xmlns:xlink="http://www.w3.org/1999/xlink">
<g id="graph0" class="graph" transform="scale(1 1) rotate(0) translate(4 461)">
<title>G</title>
<polygon fill="white" stroke="none" points="-4,4 -4,-461 238,-461 238,4 -4,4"/>
<g id="clust1" class="cluster">
<title>cluster_coin</title>
<polygon fill="none" stroke="black" points="8,-136 8,-283 122,-283 122,-136 8,-136"/>
<text text-anchor="middle" x="65" y="-267.8" font-family="Times,serif" font-size="14.00">coin</text>
</g>
<g id="clust2" class="cluster">
<title>cluster_managed_coin</title>
<polygon fill="none" stroke="black" points="130,-208 130,-283 226,-283 226,-208 130,-208"/>
<text text-anchor="middle" x="178" y="-267.8" font-family="Times,serif" font-size="14.00">managed_coin</text>
</g>
<g id="clust3" class="cluster">
<title>cluster_transaction_fee</title>
<polygon fill="none" stroke="black" points="15,-291 15,-366 115,-366 115,-291 15,-291"/>
<text text-anchor="middle" x="65" y="-350.8" font-family="Times,serif" font-size="14.00">transaction_fee</text>
</g>
<g id="clust4" class="cluster">
<title>cluster_transaction_validation</title>
<polygon fill="none" stroke="black" points="12,-374 12,-449 149,-449 149,-374 12,-374"/>
<text text-anchor="middle" x="80.5" y="-433.8" font-family="Times,serif" font-size="14.00">transaction_validation</text>
</g>
<!-- sub_integer -->
<g id="node1" class="node">
<title>sub_integer</title>
<ellipse fill="none" stroke="black" cx="76" cy="-18" rx="51.99" ry="18"/>
<text text-anchor="middle" x="76" y="-14.3" font-family="Times,serif" font-size="14.00">sub_integer</text>
</g>
<!-- sub -->
<g id="node2" class="node">
<title>sub</title>
<ellipse fill="none" stroke="black" cx="76" cy="-90" rx="27" ry="18"/>
<text text-anchor="middle" x="76" y="-86.3" font-family="Times,serif" font-size="14.00">sub</text>
</g>
<!-- sub&#45;&gt;sub_integer -->
<g id="edge1" class="edge">
<title>sub&#45;&gt;sub_integer</title>
<path fill="none" stroke="black" d="M76,-71.7C76,-64.41 76,-55.73 76,-47.54"/>
<polygon fill="black" stroke="black" points="79.5,-47.62 76,-37.62 72.5,-47.62 79.5,-47.62"/>
</g>
<!-- coin::burn -->
<g id="node3" class="node">
<title>coin::burn</title>
<ellipse fill="none" stroke="black" cx="76" cy="-162" rx="27" ry="18"/>
<text text-anchor="middle" x="76" y="-158.3" font-family="Times,serif" font-size="14.00">burn</text>
</g>
<!-- coin::burn&#45;&gt;sub -->
<g id="edge2" class="edge">
<title>coin::burn&#45;&gt;sub</title>
<path fill="none" stroke="black" d="M76,-143.7C76,-136.41 76,-127.73 76,-119.54"/>
<polygon fill="black" stroke="black" points="79.5,-119.62 76,-109.62 72.5,-119.62 79.5,-119.62"/>
</g>
<!-- coin::burn_from -->
<g id="node4" class="node">
<title>coin::burn_from</title>
<ellipse fill="none" stroke="black" cx="65" cy="-234" rx="48.99" ry="18"/>
<text text-anchor="middle" x="65" y="-230.3" font-family="Times,serif" font-size="14.00">burn_from</text>
</g>
<!-- coin::burn_from&#45;&gt;coin::burn -->
<g id="edge3" class="edge">
<title>coin::burn_from&#45;&gt;coin::burn</title>
<path fill="none" stroke="black" d="M67.72,-215.7C68.88,-208.32 70.26,-199.52 71.56,-191.25"/>
<polygon fill="black" stroke="black" points="74.98,-192.02 73.08,-181.6 68.07,-190.93 74.98,-192.02"/>
</g>
<!-- managed_coin::burn -->
<g id="node5" class="node">
<title>managed_coin::burn</title>
<ellipse fill="none" stroke="black" cx="165" cy="-234" rx="27" ry="18"/>
<text text-anchor="middle" x="165" y="-230.3" font-family="Times,serif" font-size="14.00">burn</text>
</g>
<!-- managed_coin::burn&#45;&gt;coin::burn -->
<g id="edge4" class="edge">
<title>managed_coin::burn&#45;&gt;coin::burn</title>
<path fill="none" stroke="black" d="M148.26,-219.83C135.17,-209.54 116.73,-195.04 101.76,-183.26"/>
<polygon fill="black" stroke="black" points="104.18,-180.71 94.16,-177.28 99.85,-186.21 104.18,-180.71"/>
</g>
<!-- transaction_fee::burn_fee -->
<g id="node6" class="node">
<title>transaction_fee::burn_fee</title>
<ellipse fill="none" stroke="black" cx="65" cy="-317" rx="42.49" ry="18"/>
<text text-anchor="middle" x="65" y="-313.3" font-family="Times,serif" font-size="14.00">burn_fee</text>
</g>
<!-- transaction_fee::burn_fee&#45;&gt;coin::burn_from -->
<g id="edge5" class="edge">
<title>transaction_fee::burn_fee&#45;&gt;coin::burn_from</title>
<path fill="none" stroke="black" d="M65,-298.82C65,-288.69 65,-275.6 65,-263.92"/>
<polygon fill="black" stroke="black" points="68.5,-263.95 65,-253.95 61.5,-263.95 68.5,-263.95"/>
</g>
<!-- transaction_validation::epilogue -->
<g id="node7" class="node">
<title>transaction_validation::epilogue</title>
<ellipse fill="none" stroke="black" cx="65" cy="-400" rx="40.89" ry="18"/>
<text text-anchor="middle" x="65" y="-396.3" font-family="Times,serif" font-size="14.00">epilogue</text>
</g>
<!-- transaction_validation::epilogue&#45;&gt;transaction_fee::burn_fee -->
<g id="edge6" class="edge">
<title>transaction_validation::epilogue&#45;&gt;transaction_fee::burn_fee</title>
<path fill="none" stroke="black" d="M65,-381.82C65,-371.69 65,-358.6 65,-346.92"/>
<polygon fill="black" stroke="black" points="68.5,-346.95 65,-336.95 61.5,-346.95 68.5,-346.95"/>
</g>
</g>
</svg>
