<?xml version="1.0" encoding="UTF-8" standalone="no"?>
<!DOCTYPE svg PUBLIC "-//W3C//DTD SVG 1.1//EN"
 "http://www.w3.org/Graphics/SVG/1.1/DTD/svg11.dtd">
<!-- Generated by graphviz version 7.0.0 (20221023.0053)
 -->
<!-- Title: G Pages: 1 -->
<svg width="2909pt" height="697pt"
 viewBox="0.00 0.00 2908.84 697.00" xmlns="http://www.w3.org/2000/svg" xmlns:xlink="http://www.w3.org/1999/xlink">
<g id="graph0" class="graph" transform="scale(1 1) rotate(0) translate(4 693)">
<title>G</title>
<polygon fill="white" stroke="none" points="-4,4 -4,-693 2904.84,-693 2904.84,4 -4,4"/>
<g id="clust13" class="cluster">
<title>cluster_optional_aggregator</title>
<polygon fill="none" stroke="black" points="2079,-174 2079,-332 2204,-332 2204,-174 2079,-174"/>
<text text-anchor="middle" x="2141.5" y="-316.8" font-family="Times,serif" font-size="14.00">optional_aggregator</text>
</g>
<g id="clust1" class="cluster">
<title>cluster_error</title>
<polygon fill="none" stroke="black" points="688,-8 688,-166 1062,-166 1062,-8 688,-8"/>
<text text-anchor="middle" x="875" y="-150.8" font-family="Times,serif" font-size="14.00">error</text>
</g>
<g id="clust2" class="cluster">
<title>cluster_event</title>
<polygon fill="none" stroke="black" points="2555,-340 2555,-498 2741,-498 2741,-340 2555,-340"/>
<text text-anchor="middle" x="2648" y="-482.8" font-family="Times,serif" font-size="14.00">event</text>
</g>
<g id="clust3" class="cluster">
<title>cluster_chain_status</title>
<polygon fill="none" stroke="black" points="2587,-570 2587,-645 2697,-645 2697,-570 2587,-570"/>
<text text-anchor="middle" x="2642" y="-629.8" font-family="Times,serif" font-size="14.00">chain_status</text>
</g>
<g id="clust4" class="cluster">
<title>cluster_timestamp</title>
<polygon fill="none" stroke="black" points="1543,-340 1543,-498 1717,-498 1717,-340 1543,-340"/>
<text text-anchor="middle" x="1630" y="-482.8" font-family="Times,serif" font-size="14.00">timestamp</text>
</g>
<g id="clust5" class="cluster">
<title>cluster_stake</title>
<polygon fill="none" stroke="black" points="2079,-340 2079,-645 2547,-645 2547,-340 2079,-340"/>
<text text-anchor="middle" x="2313" y="-629.8" font-family="Times,serif" font-size="14.00">stake</text>
</g>
<g id="clust6" class="cluster">
<title>cluster_storage_gas</title>
<polygon fill="none" stroke="black" points="8,-8 8,-332 543,-332 543,-8 8,-8"/>
<text text-anchor="middle" x="275.5" y="-316.8" font-family="Times,serif" font-size="14.00">storage_gas</text>
</g>
<g id="clust7" class="cluster">
<title>cluster_bcs</title>
<polygon fill="none" stroke="black" points="2749,-340 2749,-415 2845,-415 2845,-340 2749,-340"/>
<text text-anchor="middle" x="2797" y="-399.8" font-family="Times,serif" font-size="14.00">bcs</text>
</g>
<g id="clust8" class="cluster">
<title>cluster_staking_config</title>
<polygon fill="none" stroke="black" points="881,-423 881,-498 1535,-498 1535,-423 881,-423"/>
<text text-anchor="middle" x="1208" y="-482.8" font-family="Times,serif" font-size="14.00">staking_config</text>
</g>
<g id="clust9" class="cluster">
<title>cluster_state_storage</title>
<polygon fill="none" stroke="black" points="551,-174 551,-249 765,-249 765,-174 551,-174"/>
<text text-anchor="middle" x="658" y="-233.8" font-family="Times,serif" font-size="14.00">state_storage</text>
</g>
<g id="clust10" class="cluster">
<title>cluster_vector</title>
<polygon fill="none" stroke="black" points="2355,-8 2355,-83 2459,-83 2459,-8 2355,-8"/>
<text text-anchor="middle" x="2407" y="-67.8" font-family="Times,serif" font-size="14.00">vector</text>
</g>
<g id="clust11" class="cluster">
<title>cluster_coin</title>
<polygon fill="none" stroke="black" points="1725,-257 1725,-415 2071,-415 2071,-257 1725,-257"/>
<text text-anchor="middle" x="1898" y="-399.8" font-family="Times,serif" font-size="14.00">coin</text>
</g>
<g id="clust12" class="cluster">
<title>cluster_option</title>
<polygon fill="none" stroke="black" points="2212,-91 2212,-249 2338,-249 2338,-91 2212,-91"/>
<text text-anchor="middle" x="2275" y="-233.8" font-family="Times,serif" font-size="14.00">option</text>
</g>
<g id="clust14" class="cluster">
<title>cluster_aggregator</title>
<polygon fill="none" stroke="black" points="1997,-174 1997,-249 2071,-249 2071,-174 1997,-174"/>
<text text-anchor="middle" x="2034" y="-233.8" font-family="Times,serif" font-size="14.00">aggregator</text>
</g>
<g id="clust15" class="cluster">
<title>cluster_type_info</title>
<polygon fill="none" stroke="black" points="1704,-174 1704,-249 1952,-249 1952,-174 1704,-174"/>
<text text-anchor="middle" x="1828" y="-233.8" font-family="Times,serif" font-size="14.00">type_info</text>
</g>
<!-- reconfigure -->
<g id="node1" class="node">
<title>reconfigure</title>
<ellipse fill="none" stroke="black" cx="2151" cy="-671" rx="51.19" ry="18"/>
<text text-anchor="middle" x="2151" y="-667.3" font-family="Times,serif" font-size="14.00">reconfigure</text>
</g>
<!-- error::invalid_state -->
<g id="node2" class="node">
<title>error::invalid_state</title>
<ellipse fill="none" stroke="black" cx="864" cy="-117" rx="55.79" ry="18"/>
<text text-anchor="middle" x="864" y="-113.3" font-family="Times,serif" font-size="14.00">invalid_state</text>
</g>
<!-- reconfigure&#45;&gt;error::invalid_state -->
<g id="edge1" class="edge">
<title>reconfigure&#45;&gt;error::invalid_state</title>
<path fill="none" stroke="black" d="M2099.69,-669.93C1902.4,-669.49 1198.85,-666.44 1101,-645 969.54,-616.2 823,-659.57 823,-525 823,-525 823,-525 823,-282 823,-232.64 840.69,-177.36 852.83,-145.24"/>
<polygon fill="black" stroke="black" points="855.95,-146.89 856.31,-136.3 849.42,-144.35 855.95,-146.89"/>
</g>
<!-- event::emit_event -->
<g id="node3" class="node">
<title>event::emit_event</title>
<ellipse fill="none" stroke="black" cx="2630" cy="-449" rx="50.09" ry="18"/>
<text text-anchor="middle" x="2630" y="-445.3" font-family="Times,serif" font-size="14.00">emit_event</text>
</g>
<!-- reconfigure&#45;&gt;event::emit_event -->
<g id="edge2" class="edge">
<title>reconfigure&#45;&gt;event::emit_event</title>
<path fill="none" stroke="black" d="M2202.45,-669.8C2304.12,-668.98 2523.37,-664.9 2551,-645 2554.61,-642.4 2598.43,-530.95 2619.2,-477.73"/>
<polygon fill="black" stroke="black" points="2622.46,-479.02 2622.83,-468.43 2615.94,-476.48 2622.46,-479.02"/>
</g>
<!-- chain_status::is_genesis -->
<g id="node4" class="node">
<title>chain_status::is_genesis</title>
<ellipse fill="none" stroke="black" cx="2642" cy="-596" rx="46.59" ry="18"/>
<text text-anchor="middle" x="2642" y="-592.3" font-family="Times,serif" font-size="14.00">is_genesis</text>
</g>
<!-- reconfigure&#45;&gt;chain_status::is_genesis -->
<g id="edge3" class="edge">
<title>reconfigure&#45;&gt;chain_status::is_genesis</title>
<path fill="none" stroke="black" d="M2202.29,-668.74C2308.69,-665.88 2546.43,-658.11 2581,-645 2594.98,-639.7 2608.3,-629.98 2618.9,-620.67"/>
<polygon fill="black" stroke="black" points="2621.06,-623.44 2626.02,-614.07 2616.3,-618.3 2621.06,-623.44"/>
</g>
<!-- timestamp::now_microseconds -->
<g id="node5" class="node">
<title>timestamp::now_microseconds</title>
<ellipse fill="none" stroke="black" cx="1630" cy="-366" rx="79.09" ry="18"/>
<text text-anchor="middle" x="1630" y="-362.3" font-family="Times,serif" font-size="14.00">now_microseconds</text>
</g>
<!-- reconfigure&#45;&gt;timestamp::now_microseconds -->
<g id="edge4" class="edge">
<title>reconfigure&#45;&gt;timestamp::now_microseconds</title>
<path fill="none" stroke="black" d="M2100.68,-667.23C1873.97,-654.22 955.13,-595.73 877,-498 856.18,-471.96 854.32,-447.43 877,-423 921.22,-375.37 1348.85,-367.93 1539.29,-366.99"/>
<polygon fill="black" stroke="black" points="1539.16,-370.49 1549.15,-366.95 1539.13,-363.49 1539.16,-370.49"/>
</g>
<!-- stake::on_new_epoch -->
<g id="node6" class="node">
<title>stake::on_new_epoch</title>
<ellipse fill="none" stroke="black" cx="2151" cy="-596" rx="63.89" ry="18"/>
<text text-anchor="middle" x="2151" y="-592.3" font-family="Times,serif" font-size="14.00">on_new_epoch</text>
</g>
<!-- reconfigure&#45;&gt;stake::on_new_epoch -->
<g id="edge5" class="edge">
<title>reconfigure&#45;&gt;stake::on_new_epoch</title>
<path fill="none" stroke="black" d="M2151,-652.7C2151,-644.67 2151,-634.9 2151,-625.8"/>
<polygon fill="black" stroke="black" points="2154.5,-625.94 2151,-615.94 2147.5,-625.94 2154.5,-625.94"/>
</g>
<!-- storage_gas::on_reconfig -->
<g id="node7" class="node">
<title>storage_gas::on_reconfig</title>
<ellipse fill="none" stroke="black" cx="470" cy="-283" rx="53.09" ry="18"/>
<text text-anchor="middle" x="470" y="-279.3" font-family="Times,serif" font-size="14.00">on_reconfig</text>
</g>
<!-- reconfigure&#45;&gt;storage_gas::on_reconfig -->
<g id="edge6" class="edge">
<title>reconfigure&#45;&gt;storage_gas::on_reconfig</title>
<path fill="none" stroke="black" d="M2099.48,-669.87C1860.78,-669.15 871.42,-664.98 809,-645 719.18,-616.24 634,-619.31 634,-525 634,-525 634,-525 634,-448 634,-378.79 560.06,-328.58 511.48,-303.06"/>
<polygon fill="black" stroke="black" points="513.08,-299.95 502.58,-298.53 509.91,-306.19 513.08,-299.95"/>
</g>
<!-- reconfiguration_enabled -->
<g id="node8" class="node">
<title>reconfiguration_enabled</title>
<ellipse fill="none" stroke="black" cx="2804" cy="-596" rx="96.68" ry="18"/>
<text text-anchor="middle" x="2804" y="-592.3" font-family="Times,serif" font-size="14.00">reconfiguration_enabled</text>
</g>
<!-- reconfigure&#45;&gt;reconfiguration_enabled -->
<g id="edge7" class="edge">
<title>reconfigure&#45;&gt;reconfiguration_enabled</title>
<path fill="none" stroke="black" d="M2202.45,-670.21C2320.43,-670.27 2607.48,-667.96 2701,-645 2723.63,-639.44 2747.31,-628.79 2766.25,-618.94"/>
<polygon fill="black" stroke="black" points="2767.75,-622.1 2774.91,-614.29 2764.44,-615.93 2767.75,-622.1"/>
</g>
<!-- error::canonical -->
<g id="node9" class="node">
<title>error::canonical</title>
<ellipse fill="none" stroke="black" cx="864" cy="-34" rx="44.39" ry="18"/>
<text text-anchor="middle" x="864" y="-30.3" font-family="Times,serif" font-size="14.00">canonical</text>
</g>
<!-- error::invalid_state&#45;&gt;error::canonical -->
<g id="edge8" class="edge">
<title>error::invalid_state&#45;&gt;error::canonical</title>
<path fill="none" stroke="black" d="M864,-98.82C864,-88.69 864,-75.6 864,-63.92"/>
<polygon fill="black" stroke="black" points="867.5,-63.95 864,-53.95 860.5,-63.95 867.5,-63.95"/>
</g>
<!-- bcs::to_bytes -->
<g id="node10" class="node">
<title>bcs::to_bytes</title>
<ellipse fill="none" stroke="black" cx="2797" cy="-366" rx="40.09" ry="18"/>
<text text-anchor="middle" x="2797" y="-362.3" font-family="Times,serif" font-size="14.00">to_bytes</text>
</g>
<!-- event::emit_event&#45;&gt;bcs::to_bytes -->
<g id="edge9" class="edge">
<title>event::emit_event&#45;&gt;bcs::to_bytes</title>
<path fill="none" stroke="black" d="M2674.49,-440.3C2696.65,-435.24 2723.28,-427.22 2745,-415 2755.92,-408.86 2766.4,-399.99 2775.04,-391.54"/>
<polygon fill="black" stroke="black" points="2777.5,-394.04 2781.98,-384.44 2772.49,-389.15 2777.5,-394.04"/>
</g>
<!-- event::write_to_event_store -->
<g id="node11" class="node">
<title>event::write_to_event_store</title>
<ellipse fill="none" stroke="black" cx="2648" cy="-366" rx="85.29" ry="18"/>
<text text-anchor="middle" x="2648" y="-362.3" font-family="Times,serif" font-size="14.00">write_to_event_store</text>
</g>
<!-- event::emit_event&#45;&gt;event::write_to_event_store -->
<g id="edge10" class="edge">
<title>event::emit_event&#45;&gt;event::write_to_event_store</title>
<path fill="none" stroke="black" d="M2633.82,-430.82C2636.09,-420.58 2639.04,-407.33 2641.66,-395.55"/>
<polygon fill="black" stroke="black" points="2645.05,-396.43 2643.8,-385.91 2638.21,-394.91 2645.05,-396.43"/>
</g>
<!-- timestamp::now_seconds -->
<g id="node12" class="node">
<title>timestamp::now_seconds</title>
<ellipse fill="none" stroke="black" cx="1651" cy="-449" rx="57.69" ry="18"/>
<text text-anchor="middle" x="1651" y="-445.3" font-family="Times,serif" font-size="14.00">now_seconds</text>
</g>
<!-- stake::on_new_epoch&#45;&gt;timestamp::now_seconds -->
<g id="edge11" class="edge">
<title>stake::on_new_epoch&#45;&gt;timestamp::now_seconds</title>
<path fill="none" stroke="black" d="M2107.5,-582.39C2015.65,-555.75 1802.24,-493.86 1703.21,-465.14"/>
<polygon fill="black" stroke="black" points="1704.31,-461.82 1693.74,-462.39 1702.36,-468.54 1704.31,-461.82"/>
</g>
<!-- staking_config::get -->
<g id="node13" class="node">
<title>staking_config::get</title>
<ellipse fill="none" stroke="black" cx="1088" cy="-449" rx="27" ry="18"/>
<text text-anchor="middle" x="1088" y="-445.3" font-family="Times,serif" font-size="14.00">get</text>
</g>
<!-- stake::on_new_epoch&#45;&gt;staking_config::get -->
<g id="edge12" class="edge">
<title>stake::on_new_epoch&#45;&gt;staking_config::get</title>
<path fill="none" stroke="black" d="M2090.43,-589.76C1985.99,-580.64 1765.28,-561.01 1579,-542 1435.3,-527.34 1399.91,-518.37 1256,-506 1241.36,-504.74 1136.94,-504.97 1124,-498 1114.77,-493.03 1107.24,-484.55 1101.49,-476.09"/>
<polygon fill="black" stroke="black" points="1104.55,-474.39 1096.35,-467.67 1098.57,-478.03 1104.55,-474.39"/>
</g>
<!-- staking_config::get_recurring_lockup_duration -->
<g id="node14" class="node">
<title>staking_config::get_recurring_lockup_duration</title>
<ellipse fill="none" stroke="black" cx="1253" cy="-449" rx="120.48" ry="18"/>
<text text-anchor="middle" x="1253" y="-445.3" font-family="Times,serif" font-size="14.00">get_recurring_lockup_duration</text>
</g>
<!-- stake::on_new_epoch&#45;&gt;staking_config::get_recurring_lockup_duration -->
<g id="edge13" class="edge">
<title>stake::on_new_epoch&#45;&gt;staking_config::get_recurring_lockup_duration</title>
<path fill="none" stroke="black" d="M2097.51,-585.88C1975.55,-565.21 1679.65,-515.84 1579,-506 1491.79,-497.47 1467.91,-515.27 1382,-498 1353.43,-492.26 1322.81,-481.09 1298.57,-470.97"/>
<polygon fill="black" stroke="black" points="1300.22,-467.87 1289.65,-467.17 1297.47,-474.31 1300.22,-467.87"/>
</g>
<!-- staking_config::get_required_stake -->
<g id="node15" class="node">
<title>staking_config::get_required_stake</title>
<ellipse fill="none" stroke="black" cx="966" cy="-449" rx="77.19" ry="18"/>
<text text-anchor="middle" x="966" y="-445.3" font-family="Times,serif" font-size="14.00">get_required_stake</text>
</g>
<!-- stake::on_new_epoch&#45;&gt;staking_config::get_required_stake -->
<g id="edge14" class="edge">
<title>stake::on_new_epoch&#45;&gt;staking_config::get_required_stake</title>
<path fill="none" stroke="black" d="M2086.92,-594.57C1939.54,-592.84 1565.41,-584.27 1256,-542 1164.1,-529.44 1138.78,-530.74 1052,-498 1034.15,-491.27 1015.53,-481.29 1000.19,-472.17"/>
<polygon fill="black" stroke="black" points="1002.29,-469.34 991.92,-467.13 998.64,-475.32 1002.29,-469.34"/>
</g>
<!-- stake::append -->
<g id="node16" class="node">
<title>stake::append</title>
<ellipse fill="none" stroke="black" cx="2503" cy="-524" rx="36.29" ry="18"/>
<text text-anchor="middle" x="2503" y="-520.3" font-family="Times,serif" font-size="14.00">append</text>
</g>
<!-- stake::on_new_epoch&#45;&gt;stake::append -->
<g id="edge15" class="edge">
<title>stake::on_new_epoch&#45;&gt;stake::append</title>
<path fill="none" stroke="black" d="M2209.43,-588.28C2271.74,-580.33 2372.94,-565.18 2458,-542 2460.27,-541.38 2462.58,-540.7 2464.9,-539.96"/>
<polygon fill="black" stroke="black" points="2465.91,-543.31 2474.24,-536.76 2463.64,-536.69 2465.91,-543.31"/>
</g>
<!-- stake::generate_validator_info -->
<g id="node17" class="node">
<title>stake::generate_validator_info</title>
<ellipse fill="none" stroke="black" cx="2354" cy="-524" rx="94.78" ry="18"/>
<text text-anchor="middle" x="2354" y="-520.3" font-family="Times,serif" font-size="14.00">generate_validator_info</text>
</g>
<!-- stake::on_new_epoch&#45;&gt;stake::generate_validator_info -->
<g id="edge16" class="edge">
<title>stake::on_new_epoch&#45;&gt;stake::generate_validator_info</title>
<path fill="none" stroke="black" d="M2190.14,-581.5C2221.02,-570.86 2264.46,-555.87 2298.86,-544.01"/>
<polygon fill="black" stroke="black" points="2299.94,-547.34 2308.26,-540.77 2297.66,-540.73 2299.94,-547.34"/>
</g>
<!-- stake::update_stake_pool -->
<g id="node18" class="node">
<title>stake::update_stake_pool</title>
<ellipse fill="none" stroke="black" cx="2164" cy="-524" rx="76.89" ry="18"/>
<text text-anchor="middle" x="2164" y="-520.3" font-family="Times,serif" font-size="14.00">update_stake_pool</text>
</g>
<!-- stake::on_new_epoch&#45;&gt;stake::update_stake_pool -->
<g id="edge17" class="edge">
<title>stake::on_new_epoch&#45;&gt;stake::update_stake_pool</title>
<path fill="none" stroke="black" d="M2154.21,-577.7C2155.58,-570.32 2157.22,-561.52 2158.75,-553.25"/>
<polygon fill="black" stroke="black" points="2162.16,-554.06 2160.55,-543.59 2155.28,-552.79 2162.16,-554.06"/>
</g>
<!-- error::not_found -->
<g id="node19" class="node">
<title>error::not_found</title>
<ellipse fill="none" stroke="black" cx="743" cy="-117" rx="46.59" ry="18"/>
<text text-anchor="middle" x="743" y="-113.3" font-family="Times,serif" font-size="14.00">not_found</text>
</g>
<!-- storage_gas::on_reconfig&#45;&gt;error::not_found -->
<g id="edge18" class="edge">
<title>storage_gas::on_reconfig&#45;&gt;error::not_found</title>
<path fill="none" stroke="black" d="M522.52,-279.94C603.91,-276.21 752.88,-266.99 769,-249 794.63,-220.39 776.2,-173.95 760,-144.74"/>
<polygon fill="black" stroke="black" points="763.04,-143.01 754.99,-136.13 757,-146.53 763.04,-143.01"/>
</g>
<!-- state_storage::current_items_and_bytes -->
<g id="node20" class="node">
<title>state_storage::current_items_and_bytes</title>
<ellipse fill="none" stroke="black" cx="658" cy="-200" rx="99.38" ry="18"/>
<text text-anchor="middle" x="658" y="-196.3" font-family="Times,serif" font-size="14.00">current_items_and_bytes</text>
</g>
<!-- storage_gas::on_reconfig&#45;&gt;state_storage::current_items_and_bytes -->
<g id="edge19" class="edge">
<title>storage_gas::on_reconfig&#45;&gt;state_storage::current_items_and_bytes</title>
<path fill="none" stroke="black" d="M501.85,-268.38C515.73,-262.44 532.17,-255.38 547,-249 567.75,-240.07 590.66,-230.17 610.25,-221.69"/>
<polygon fill="black" stroke="black" points="611.58,-224.93 619.37,-217.74 608.8,-218.5 611.58,-224.93"/>
</g>
<!-- storage_gas::calculate_create_gas -->
<g id="node21" class="node">
<title>storage_gas::calculate_create_gas</title>
<ellipse fill="none" stroke="black" cx="279" cy="-200" rx="83.39" ry="18"/>
<text text-anchor="middle" x="279" y="-196.3" font-family="Times,serif" font-size="14.00">calculate_create_gas</text>
</g>
<!-- storage_gas::on_reconfig&#45;&gt;storage_gas::calculate_create_gas -->
<g id="edge20" class="edge">
<title>storage_gas::on_reconfig&#45;&gt;storage_gas::calculate_create_gas</title>
<path fill="none" stroke="black" d="M431.33,-270.47C413.1,-264.66 391.18,-257.12 372,-249 353.71,-241.25 334.08,-231.37 317.6,-222.59"/>
<polygon fill="black" stroke="black" points="319.57,-219.68 309.11,-218.01 316.25,-225.84 319.57,-219.68"/>
</g>
<!-- storage_gas::calculate_read_gas -->
<g id="node22" class="node">
<title>storage_gas::calculate_read_gas</title>
<ellipse fill="none" stroke="black" cx="458" cy="-200" rx="77.19" ry="18"/>
<text text-anchor="middle" x="458" y="-196.3" font-family="Times,serif" font-size="14.00">calculate_read_gas</text>
</g>
<!-- storage_gas::on_reconfig&#45;&gt;storage_gas::calculate_read_gas -->
<g id="edge21" class="edge">
<title>storage_gas::on_reconfig&#45;&gt;storage_gas::calculate_read_gas</title>
<path fill="none" stroke="black" d="M467.46,-264.82C465.94,-254.58 463.97,-241.33 462.23,-229.55"/>
<polygon fill="black" stroke="black" points="465.73,-229.31 460.8,-219.93 458.81,-230.33 465.73,-229.31"/>
</g>
<!-- storage_gas::calculate_write_gas -->
<g id="node23" class="node">
<title>storage_gas::calculate_write_gas</title>
<ellipse fill="none" stroke="black" cx="97" cy="-200" rx="80.69" ry="18"/>
<text text-anchor="middle" x="97" y="-196.3" font-family="Times,serif" font-size="14.00">calculate_write_gas</text>
</g>
<!-- storage_gas::on_reconfig&#45;&gt;storage_gas::calculate_write_gas -->
<g id="edge22" class="edge">
<title>storage_gas::on_reconfig&#45;&gt;storage_gas::calculate_write_gas</title>
<path fill="none" stroke="black" d="M416.62,-281.66C358.79,-279.94 264.43,-273.21 187,-249 167.68,-242.96 147.68,-232.75 131.45,-223.29"/>
<polygon fill="black" stroke="black" points="133.54,-220.47 123.17,-218.32 129.94,-226.47 133.54,-220.47"/>
</g>
<!-- timestamp::now_seconds&#45;&gt;timestamp::now_microseconds -->
<g id="edge23" class="edge">
<title>timestamp::now_seconds&#45;&gt;timestamp::now_microseconds</title>
<path fill="none" stroke="black" d="M1646.55,-430.82C1643.89,-420.58 1640.45,-407.33 1637.4,-395.55"/>
<polygon fill="black" stroke="black" points="1640.8,-394.7 1634.9,-385.9 1634.02,-396.46 1640.8,-394.7"/>
</g>
<!-- vector::is_empty -->
<g id="node24" class="node">
<title>vector::is_empty</title>
<ellipse fill="none" stroke="black" cx="2407" cy="-34" rx="43.59" ry="18"/>
<text text-anchor="middle" x="2407" y="-30.3" font-family="Times,serif" font-size="14.00">is_empty</text>
</g>
<!-- stake::append&#45;&gt;vector::is_empty -->
<g id="edge24" class="edge">
<title>stake::append&#45;&gt;vector::is_empty</title>
<path fill="none" stroke="black" d="M2507.04,-505.8C2513.39,-477.17 2525,-417.87 2525,-367 2525,-367 2525,-367 2525,-199 2525,-138.79 2471.94,-85.59 2436.98,-57.07"/>
<polygon fill="black" stroke="black" points="2439.29,-54.43 2429.28,-50.96 2434.95,-59.92 2439.29,-54.43"/>
</g>
<!-- stake::get_next_epoch_voting_power -->
<g id="node25" class="node">
<title>stake::get_next_epoch_voting_power</title>
<ellipse fill="none" stroke="black" cx="2377" cy="-449" rx="119.68" ry="18"/>
<text text-anchor="middle" x="2377" y="-445.3" font-family="Times,serif" font-size="14.00">get_next_epoch_voting_power</text>
</g>
<!-- stake::generate_validator_info&#45;&gt;stake::get_next_epoch_voting_power -->
<g id="edge25" class="edge">
<title>stake::generate_validator_info&#45;&gt;stake::get_next_epoch_voting_power</title>
<path fill="none" stroke="black" d="M2359.45,-505.7C2362.04,-497.49 2365.2,-487.46 2368.12,-478.19"/>
<polygon fill="black" stroke="black" points="2371.39,-479.46 2371.05,-468.87 2364.71,-477.36 2371.39,-479.46"/>
</g>
<!-- stake::update_stake_pool&#45;&gt;event::emit_event -->
<g id="edge26" class="edge">
<title>stake::update_stake_pool&#45;&gt;event::emit_event</title>
<path fill="none" stroke="black" d="M2217.92,-510.9C2228.5,-508.93 2239.56,-507.16 2250,-506 2283.25,-502.3 2518.91,-507.45 2551,-498 2568.89,-492.73 2586.81,-482.36 2601.05,-472.6"/>
<polygon fill="black" stroke="black" points="2602.94,-475.55 2609.05,-466.89 2598.88,-469.86 2602.94,-475.55"/>
</g>
<!-- stake::update_stake_pool&#45;&gt;timestamp::now_seconds -->
<g id="edge29" class="edge">
<title>stake::update_stake_pool&#45;&gt;timestamp::now_seconds</title>
<path fill="none" stroke="black" d="M2090.25,-518.57C2034.29,-514.67 1955.56,-508.03 1887,-498 1824.95,-488.92 1754.61,-474 1706.98,-463.21"/>
<polygon fill="black" stroke="black" points="1707.99,-459.85 1697.46,-461.03 1706.43,-466.67 1707.99,-459.85"/>
</g>
<!-- coin::extract_all -->
<g id="node26" class="node">
<title>coin::extract_all</title>
<ellipse fill="none" stroke="black" cx="1781" cy="-366" rx="48.19" ry="18"/>
<text text-anchor="middle" x="1781" y="-362.3" font-family="Times,serif" font-size="14.00">extract_all</text>
</g>
<!-- stake::update_stake_pool&#45;&gt;coin::extract_all -->
<g id="edge27" class="edge">
<title>stake::update_stake_pool&#45;&gt;coin::extract_all</title>
<path fill="none" stroke="black" d="M2088.61,-520.01C2030.65,-516.79 1955.93,-510.36 1928,-498 1874.46,-474.3 1826.76,-423.67 1801.05,-392.76"/>
<polygon fill="black" stroke="black" points="1803.78,-390.57 1794.75,-385.02 1798.35,-394.99 1803.78,-390.57"/>
</g>
<!-- coin::merge -->
<g id="node27" class="node">
<title>coin::merge</title>
<ellipse fill="none" stroke="black" cx="1880" cy="-366" rx="33.29" ry="18"/>
<text text-anchor="middle" x="1880" y="-362.3" font-family="Times,serif" font-size="14.00">merge</text>
</g>
<!-- stake::update_stake_pool&#45;&gt;coin::merge -->
<g id="edge28" class="edge">
<title>stake::update_stake_pool&#45;&gt;coin::merge</title>
<path fill="none" stroke="black" d="M2113.38,-510.17C2101.61,-506.67 2089.24,-502.57 2078,-498 2005.24,-468.44 1983.54,-463.8 1922,-415 1913.55,-408.3 1905.46,-399.76 1898.67,-391.74"/>
<polygon fill="black" stroke="black" points="1901.58,-389.77 1892.56,-384.21 1896.14,-394.18 1901.58,-389.77"/>
</g>
<!-- staking_config::get_reward_rate -->
<g id="node28" class="node">
<title>staking_config::get_reward_rate</title>
<ellipse fill="none" stroke="black" cx="1459" cy="-449" rx="67.69" ry="18"/>
<text text-anchor="middle" x="1459" y="-445.3" font-family="Times,serif" font-size="14.00">get_reward_rate</text>
</g>
<!-- stake::update_stake_pool&#45;&gt;staking_config::get_reward_rate -->
<g id="edge30" class="edge">
<title>stake::update_stake_pool&#45;&gt;staking_config::get_reward_rate</title>
<path fill="none" stroke="black" d="M2088.8,-519.7C2007.67,-516.18 1874.69,-510.49 1760,-506 1735.45,-505.04 1562.56,-504.99 1539,-498 1521.21,-492.72 1503.32,-482.56 1488.98,-472.93"/>
<polygon fill="black" stroke="black" points="1491.11,-470.15 1480.91,-467.29 1487.1,-475.89 1491.11,-470.15"/>
</g>
<!-- stake::distribute_rewards -->
<g id="node29" class="node">
<title>stake::distribute_rewards</title>
<ellipse fill="none" stroke="black" cx="2163" cy="-449" rx="76.09" ry="18"/>
<text text-anchor="middle" x="2163" y="-445.3" font-family="Times,serif" font-size="14.00">distribute_rewards</text>
</g>
<!-- stake::update_stake_pool&#45;&gt;stake::distribute_rewards -->
<g id="edge31" class="edge">
<title>stake::update_stake_pool&#45;&gt;stake::distribute_rewards</title>
<path fill="none" stroke="black" d="M2163.76,-505.7C2163.65,-497.67 2163.52,-487.9 2163.39,-478.8"/>
<polygon fill="black" stroke="black" points="2166.9,-478.89 2163.26,-468.94 2159.9,-478.99 2166.9,-478.89"/>
</g>
<!-- error::not_found&#45;&gt;error::canonical -->
<g id="edge32" class="edge">
<title>error::not_found&#45;&gt;error::canonical</title>
<path fill="none" stroke="black" d="M765.48,-100.95C784.24,-88.39 811.2,-70.34 832.18,-56.3"/>
<polygon fill="black" stroke="black" points="834.02,-59.28 840.39,-50.81 830.13,-53.46 834.02,-59.28"/>
</g>
<!-- state_storage::current_items_and_bytes&#45;&gt;error::not_found -->
<g id="edge33" class="edge">
<title>state_storage::current_items_and_bytes&#45;&gt;error::not_found</title>
<path fill="none" stroke="black" d="M676.03,-181.82C688.29,-170.13 704.69,-154.51 718.19,-141.64"/>
<polygon fill="black" stroke="black" points="720.24,-144.53 725.06,-135.1 715.41,-139.46 720.24,-144.53"/>
</g>
<!-- storage_gas::calculate_gas -->
<g id="node30" class="node">
<title>storage_gas::calculate_gas</title>
<ellipse fill="none" stroke="black" cx="279" cy="-117" rx="57.69" ry="18"/>
<text text-anchor="middle" x="279" y="-113.3" font-family="Times,serif" font-size="14.00">calculate_gas</text>
</g>
<!-- storage_gas::calculate_create_gas&#45;&gt;storage_gas::calculate_gas -->
<g id="edge34" class="edge">
<title>storage_gas::calculate_create_gas&#45;&gt;storage_gas::calculate_gas</title>
<path fill="none" stroke="black" d="M279,-181.82C279,-171.69 279,-158.6 279,-146.92"/>
<polygon fill="black" stroke="black" points="282.5,-146.95 279,-136.95 275.5,-146.95 282.5,-146.95"/>
</g>
<!-- storage_gas::calculate_read_gas&#45;&gt;storage_gas::calculate_gas -->
<g id="edge35" class="edge">
<title>storage_gas::calculate_read_gas&#45;&gt;storage_gas::calculate_gas</title>
<path fill="none" stroke="black" d="M423.91,-183.57C394.66,-170.34 352.38,-151.21 321.04,-137.02"/>
<polygon fill="black" stroke="black" points="322.79,-133.97 312.24,-133.04 319.91,-140.35 322.79,-133.97"/>
</g>
<!-- storage_gas::calculate_write_gas&#45;&gt;storage_gas::calculate_gas -->
<g id="edge36" class="edge">
<title>storage_gas::calculate_write_gas&#45;&gt;storage_gas::calculate_gas</title>
<path fill="none" stroke="black" d="M132.09,-183.38C161.88,-170.12 204.72,-151.06 236.46,-136.93"/>
<polygon fill="black" stroke="black" points="237.67,-140.23 245.38,-132.96 234.82,-133.83 237.67,-140.23"/>
</g>
<!-- coin::value -->
<g id="node31" class="node">
<title>coin::value</title>
<ellipse fill="none" stroke="black" cx="2033" cy="-366" rx="29.8" ry="18"/>
<text text-anchor="middle" x="2033" y="-362.3" font-family="Times,serif" font-size="14.00">value</text>
</g>
<!-- stake::get_next_epoch_voting_power&#45;&gt;coin::value -->
<g id="edge37" class="edge">
<title>stake::get_next_epoch_voting_power&#45;&gt;coin::value</title>
<path fill="none" stroke="black" d="M2312,-433.49C2291.61,-429.46 2268.95,-425.5 2248,-423 2228.89,-420.72 2092.33,-423.35 2075,-415 2064.74,-410.06 2055.95,-401.34 2049.1,-392.68"/>
<polygon fill="black" stroke="black" points="2052.04,-390.77 2043.34,-384.72 2046.36,-394.87 2052.04,-390.77"/>
</g>
<!-- stake::distribute_rewards&#45;&gt;coin::merge -->
<g id="edge39" class="edge">
<title>stake::distribute_rewards&#45;&gt;coin::merge</title>
<path fill="none" stroke="black" d="M2098.87,-438.97C2064.51,-434.17 2021.46,-428.19 1983,-423 1955.9,-419.34 1946.11,-427.9 1922,-415 1912.1,-409.71 1903.46,-401.08 1896.63,-392.59"/>
<polygon fill="black" stroke="black" points="1899.63,-390.76 1890.86,-384.81 1894.01,-394.93 1899.63,-390.76"/>
</g>
<!-- stake::distribute_rewards&#45;&gt;coin::value -->
<g id="edge38" class="edge">
<title>stake::distribute_rewards&#45;&gt;coin::value</title>
<path fill="none" stroke="black" d="M2114.76,-434.74C2101.22,-429.77 2086.94,-423.26 2075,-415 2066,-408.77 2057.69,-400.2 2050.88,-392.02"/>
<polygon fill="black" stroke="black" points="2053.74,-389.99 2044.81,-384.29 2048.23,-394.32 2053.74,-389.99"/>
</g>
<!-- coin::mint -->
<g id="node32" class="node">
<title>coin::mint</title>
<ellipse fill="none" stroke="black" cx="1958" cy="-366" rx="27.1" ry="18"/>
<text text-anchor="middle" x="1958" y="-362.3" font-family="Times,serif" font-size="14.00">mint</text>
</g>
<!-- stake::distribute_rewards&#45;&gt;coin::mint -->
<g id="edge40" class="edge">
<title>stake::distribute_rewards&#45;&gt;coin::mint</title>
<path fill="none" stroke="black" d="M2088.4,-445.14C2057.3,-441.1 2021.99,-432.55 1994,-415 1985.25,-409.51 1977.87,-401.07 1972.12,-392.79"/>
<polygon fill="black" stroke="black" points="1975.25,-391.18 1966.94,-384.6 1969.33,-394.93 1975.25,-391.18"/>
</g>
<!-- stake::calculate_rewards_amount -->
<g id="node33" class="node">
<title>stake::calculate_rewards_amount</title>
<ellipse fill="none" stroke="black" cx="2192" cy="-366" rx="105.08" ry="18"/>
<text text-anchor="middle" x="2192" y="-362.3" font-family="Times,serif" font-size="14.00">calculate_rewards_amount</text>
</g>
<!-- stake::distribute_rewards&#45;&gt;stake::calculate_rewards_amount -->
<g id="edge41" class="edge">
<title>stake::distribute_rewards&#45;&gt;stake::calculate_rewards_amount</title>
<path fill="none" stroke="black" d="M2169.15,-430.82C2172.85,-420.48 2177.66,-407.05 2181.91,-395.18"/>
<polygon fill="black" stroke="black" points="2185.17,-396.45 2185.25,-385.86 2178.58,-394.09 2185.17,-396.45"/>
</g>
<!-- storage_gas::interpolate -->
<g id="node34" class="node">
<title>storage_gas::interpolate</title>
<ellipse fill="none" stroke="black" cx="279" cy="-34" rx="48.19" ry="18"/>
<text text-anchor="middle" x="279" y="-30.3" font-family="Times,serif" font-size="14.00">interpolate</text>
</g>
<!-- storage_gas::calculate_gas&#45;&gt;storage_gas::interpolate -->
<g id="edge42" class="edge">
<title>storage_gas::calculate_gas&#45;&gt;storage_gas::interpolate</title>
<path fill="none" stroke="black" d="M279,-98.82C279,-88.69 279,-75.6 279,-63.92"/>
<polygon fill="black" stroke="black" points="282.5,-63.95 279,-53.95 275.5,-63.95 282.5,-63.95"/>
</g>
<!-- option::borrow_mut -->
<g id="node35" class="node">
<title>option::borrow_mut</title>
<ellipse fill="none" stroke="black" cx="2275" cy="-200" rx="54.69" ry="18"/>
<text text-anchor="middle" x="2275" y="-196.3" font-family="Times,serif" font-size="14.00">borrow_mut</text>
</g>
<!-- coin::mint&#45;&gt;option::borrow_mut -->
<g id="edge43" class="edge">
<title>coin::mint&#45;&gt;option::borrow_mut</title>
<path fill="none" stroke="black" d="M1973.77,-351.15C1979.71,-346.75 1986.78,-342.41 1994,-340 2016.57,-332.47 2187.94,-344.79 2208,-332 2243.9,-309.1 2261.46,-260.48 2269.34,-229.34"/>
<polygon fill="black" stroke="black" points="2272.69,-230.36 2271.56,-219.83 2265.88,-228.77 2272.69,-230.36"/>
</g>
<!-- option::is_some -->
<g id="node36" class="node">
<title>option::is_some</title>
<ellipse fill="none" stroke="black" cx="2282" cy="-117" rx="40.09" ry="18"/>
<text text-anchor="middle" x="2282" y="-113.3" font-family="Times,serif" font-size="14.00">is_some</text>
</g>
<!-- coin::mint&#45;&gt;option::is_some -->
<g id="edge44" class="edge">
<title>coin::mint&#45;&gt;option::is_some</title>
<path fill="none" stroke="black" d="M1973.76,-351.12C1979.7,-346.73 1986.78,-342.39 1994,-340 2047.41,-322.34 2194.82,-353.01 2247,-332 2298.08,-311.43 2316.63,-299.32 2339,-249 2352.54,-218.54 2351.89,-204.74 2339,-174 2333.42,-160.71 2322.99,-148.98 2312.55,-139.74"/>
<polygon fill="black" stroke="black" points="2314.99,-137.22 2305.06,-133.54 2310.53,-142.61 2314.99,-137.22"/>
</g>
<!-- optional_aggregator::add -->
<g id="node37" class="node">
<title>optional_aggregator::add</title>
<ellipse fill="none" stroke="black" cx="2114" cy="-283" rx="27" ry="18"/>
<text text-anchor="middle" x="2114" y="-279.3" font-family="Times,serif" font-size="14.00">add</text>
</g>
<!-- coin::mint&#45;&gt;optional_aggregator::add -->
<g id="edge45" class="edge">
<title>coin::mint&#45;&gt;optional_aggregator::add</title>
<path fill="none" stroke="black" d="M1974.22,-351.13C1980.09,-346.84 1987,-342.58 1994,-340 2027.95,-327.5 2043.14,-349.14 2075,-332 2084.62,-326.83 2092.75,-318.19 2099.06,-309.65"/>
<polygon fill="black" stroke="black" points="2101.86,-311.75 2104.54,-301.5 2096.06,-307.85 2101.86,-311.75"/>
</g>
<!-- coin::coin_address -->
<g id="node38" class="node">
<title>coin::coin_address</title>
<ellipse fill="none" stroke="black" cx="1869" cy="-283" rx="56.59" ry="18"/>
<text text-anchor="middle" x="1869" y="-279.3" font-family="Times,serif" font-size="14.00">coin_address</text>
</g>
<!-- coin::mint&#45;&gt;coin::coin_address -->
<g id="edge46" class="edge">
<title>coin::mint&#45;&gt;coin::coin_address</title>
<path fill="none" stroke="black" d="M1942.5,-350.89C1929.47,-339.04 1910.57,-321.84 1895.2,-307.85"/>
<polygon fill="black" stroke="black" points="1897.96,-305.62 1888.2,-301.48 1893.24,-310.8 1897.96,-305.62"/>
</g>
<!-- coin::zero -->
<g id="node39" class="node">
<title>coin::zero</title>
<ellipse fill="none" stroke="black" cx="1971" cy="-283" rx="27" ry="18"/>
<text text-anchor="middle" x="1971" y="-279.3" font-family="Times,serif" font-size="14.00">zero</text>
</g>
<!-- coin::mint&#45;&gt;coin::zero -->
<g id="edge47" class="edge">
<title>coin::mint&#45;&gt;coin::zero</title>
<path fill="none" stroke="black" d="M1960.76,-347.82C1962.41,-337.51 1964.56,-324.14 1966.46,-312.31"/>
<polygon fill="black" stroke="black" points="1969.88,-313.08 1968.01,-302.65 1962.97,-311.97 1969.88,-313.08"/>
</g>
<!-- option::borrow_mut&#45;&gt;option::is_some -->
<g id="edge48" class="edge">
<title>option::borrow_mut&#45;&gt;option::is_some</title>
<path fill="none" stroke="black" d="M2276.48,-181.82C2277.37,-171.58 2278.52,-158.33 2279.53,-146.55"/>
<polygon fill="black" stroke="black" points="2282.99,-147.2 2280.36,-136.94 2276.02,-146.6 2282.99,-147.2"/>
</g>
<!-- option::is_some&#45;&gt;vector::is_empty -->
<g id="edge49" class="edge">
<title>option::is_some&#45;&gt;vector::is_empty</title>
<path fill="none" stroke="black" d="M2304.06,-101.71C2323.72,-88.97 2352.73,-70.17 2374.95,-55.77"/>
<polygon fill="black" stroke="black" points="2376.56,-58.9 2383.05,-50.52 2372.75,-53.02 2376.56,-58.9"/>
</g>
<!-- optional_aggregator::add&#45;&gt;option::borrow_mut -->
<g id="edge50" class="edge">
<title>optional_aggregator::add&#45;&gt;option::borrow_mut</title>
<path fill="none" stroke="black" d="M2138.74,-275.41C2158.17,-269.75 2185.6,-260.65 2208,-249 2221.29,-242.09 2234.91,-232.8 2246.38,-224.24"/>
<polygon fill="black" stroke="black" points="2248.44,-227.07 2254.24,-218.21 2244.18,-221.52 2248.44,-227.07"/>
</g>
<!-- optional_aggregator::add&#45;&gt;option::is_some -->
<g id="edge51" class="edge">
<title>optional_aggregator::add&#45;&gt;option::is_some</title>
<path fill="none" stroke="black" d="M2097.06,-268.66C2090.52,-264.2 2082.75,-259.69 2075,-257 2057.7,-251 2005.3,-262.56 1993,-249 1970.6,-224.31 1971.79,-199.71 1993,-174 2022.52,-138.21 2155.5,-125.02 2230.36,-120.37"/>
<polygon fill="black" stroke="black" points="2230.57,-123.87 2240.34,-119.79 2230.16,-116.88 2230.57,-123.87"/>
</g>
<!-- aggregator::add -->
<g id="node40" class="node">
<title>aggregator::add</title>
<ellipse fill="none" stroke="black" cx="2036" cy="-200" rx="27" ry="18"/>
<text text-anchor="middle" x="2036" y="-196.3" font-family="Times,serif" font-size="14.00">add</text>
</g>
<!-- optional_aggregator::add&#45;&gt;aggregator::add -->
<g id="edge52" class="edge">
<title>optional_aggregator::add&#45;&gt;aggregator::add</title>
<path fill="none" stroke="black" d="M2097.08,-268.84C2089.99,-263.04 2081.83,-255.97 2075,-249 2067.95,-241.8 2060.82,-233.43 2054.63,-225.72"/>
<polygon fill="black" stroke="black" points="2057.46,-223.65 2048.54,-217.94 2051.95,-227.97 2057.46,-223.65"/>
</g>
<!-- optional_aggregator::add_integer -->
<g id="node41" class="node">
<title>optional_aggregator::add_integer</title>
<ellipse fill="none" stroke="black" cx="2139" cy="-200" rx="51.99" ry="18"/>
<text text-anchor="middle" x="2139" y="-196.3" font-family="Times,serif" font-size="14.00">add_integer</text>
</g>
<!-- optional_aggregator::add&#45;&gt;optional_aggregator::add_integer -->
<g id="edge53" class="edge">
<title>optional_aggregator::add&#45;&gt;optional_aggregator::add_integer</title>
<path fill="none" stroke="black" d="M2119.18,-265.22C2122.39,-254.82 2126.59,-241.21 2130.3,-229.19"/>
<polygon fill="black" stroke="black" points="2133.6,-230.35 2133.21,-219.77 2126.91,-228.29 2133.6,-230.35"/>
</g>
<!-- type_info::account_address -->
<g id="node42" class="node">
<title>type_info::account_address</title>
<ellipse fill="none" stroke="black" cx="1875" cy="-200" rx="68.79" ry="18"/>
<text text-anchor="middle" x="1875" y="-196.3" font-family="Times,serif" font-size="14.00">account_address</text>
</g>
<!-- coin::coin_address&#45;&gt;type_info::account_address -->
<g id="edge54" class="edge">
<title>coin::coin_address&#45;&gt;type_info::account_address</title>
<path fill="none" stroke="black" d="M1870.27,-264.82C1871.03,-254.58 1872.01,-241.33 1872.89,-229.55"/>
<polygon fill="black" stroke="black" points="1876.35,-230.17 1873.6,-219.94 1869.37,-229.66 1876.35,-230.17"/>
</g>
<!-- type_info::type_of -->
<g id="node43" class="node">
<title>type_info::type_of</title>
<ellipse fill="none" stroke="black" cx="1750" cy="-200" rx="37.89" ry="18"/>
<text text-anchor="middle" x="1750" y="-196.3" font-family="Times,serif" font-size="14.00">type_of</text>
</g>
<!-- coin::coin_address&#45;&gt;type_info::type_of -->
<g id="edge55" class="edge">
<title>coin::coin_address&#45;&gt;type_info::type_of</title>
<path fill="none" stroke="black" d="M1833.17,-268.66C1821.16,-263.4 1808.02,-256.75 1797,-249 1787.61,-242.4 1778.5,-233.78 1770.83,-225.67"/>
<polygon fill="black" stroke="black" points="1773.47,-223.37 1764.16,-218.31 1768.28,-228.07 1773.47,-223.37"/>
</g>
<!-- error::out_of_range -->
<g id="node44" class="node">
<title>error::out_of_range</title>
<ellipse fill="none" stroke="black" cx="996" cy="-117" rx="57.69" ry="18"/>
<text text-anchor="middle" x="996" y="-113.3" font-family="Times,serif" font-size="14.00">out_of_range</text>
</g>
<!-- optional_aggregator::add_integer&#45;&gt;error::out_of_range -->
<g id="edge56" class="edge">
<title>optional_aggregator::add_integer&#45;&gt;error::out_of_range</title>
<path fill="none" stroke="black" d="M2109.02,-185C2098.49,-180.7 2086.43,-176.46 2075,-174 1881.19,-132.26 1271.8,-121.27 1065.25,-118.71"/>
<polygon fill="black" stroke="black" points="1065.53,-115.21 1055.49,-118.59 1065.44,-122.21 1065.53,-115.21"/>
</g>
<!-- error::out_of_range&#45;&gt;error::canonical -->
<g id="edge57" class="edge">
<title>error::out_of_range&#45;&gt;error::canonical</title>
<path fill="none" stroke="black" d="M970.55,-100.38C949.67,-87.57 919.94,-69.33 897.19,-55.37"/>
<polygon fill="black" stroke="black" points="899.24,-52.52 888.89,-50.27 895.58,-58.49 899.24,-52.52"/>
</g>
</g>
</svg>
