<?xml version="1.0" encoding="UTF-8" standalone="no"?>
<!DOCTYPE svg PUBLIC "-//W3C//DTD SVG 1.1//EN"
 "http://www.w3.org/Graphics/SVG/1.1/DTD/svg11.dtd">
<!-- Generated by graphviz version 7.0.0 (20221023.0053)
 -->
<!-- Title: G Pages: 1 -->
<svg width="2290pt" height="764pt"
 viewBox="0.00 0.00 2290.00 764.00" xmlns="http://www.w3.org/2000/svg" xmlns:xlink="http://www.w3.org/1999/xlink">
<g id="graph0" class="graph" transform="scale(1 1) rotate(0) translate(4 760)">
<title>G</title>
<polygon fill="white" stroke="none" points="-4,4 -4,-760 2286,-760 2286,4 -4,4"/>
<!-- reconfiguration -->
<g id="node1" class="node">
<title>reconfiguration</title>
<ellipse fill="none" stroke="black" cx="1743" cy="-738" rx="64.99" ry="18"/>
<text text-anchor="middle" x="1743" y="-734.3" font-family="Times,serif" font-size="14.00">reconfiguration</text>
</g>
<!-- signer -->
<g id="node2" class="node">
<title>signer</title>
<ellipse fill="none" stroke="black" cx="228" cy="-90" rx="32.49" ry="18"/>
<text text-anchor="middle" x="228" y="-86.3" font-family="Times,serif" font-size="14.00">signer</text>
</g>
<!-- reconfiguration&#45;&gt;signer -->
<g id="edge1" class="edge">
<title>reconfiguration&#45;&gt;signer</title>
<path fill="none" stroke="black" d="M1677.97,-736.38C1438.88,-733.82 608.88,-722.3 347,-684 190.31,-661.09 2,-753.35 2,-595 2,-595 2,-595 2,-521 2,-424.55 38,-403.45 38,-307 38,-307 38,-307 38,-233 38,-158.84 132.03,-118.74 187.79,-101.49"/>
<polygon fill="black" stroke="black" points="188.69,-104.87 197.28,-98.67 186.7,-98.16 188.69,-104.87"/>
</g>
<!-- error -->
<g id="node3" class="node">
<title>error</title>
<ellipse fill="none" stroke="black" cx="1452" cy="-90" rx="27.9" ry="18"/>
<text text-anchor="middle" x="1452" y="-86.3" font-family="Times,serif" font-size="14.00">error</text>
</g>
<!-- reconfiguration&#45;&gt;error -->
<g id="edge2" class="edge">
<title>reconfiguration&#45;&gt;error</title>
<path fill="none" stroke="black" d="M1806.42,-733.65C1948.9,-724.41 2282,-692.37 2282,-595 2282,-595 2282,-595 2282,-233 2282,-166.6 2224.23,-167.16 2162,-144 2037.59,-97.69 1622.12,-91.78 1491.59,-91.08"/>
<polygon fill="black" stroke="black" points="1491.75,-87.58 1481.73,-91.03 1491.72,-94.58 1491.75,-87.58"/>
</g>
<!-- system_addresses -->
<g id="node4" class="node">
<title>system_addresses</title>
<ellipse fill="none" stroke="black" cx="1614" cy="-306" rx="73.39" ry="18"/>
<text text-anchor="middle" x="1614" y="-302.3" font-family="Times,serif" font-size="14.00">system_addresses</text>
</g>
<!-- reconfiguration&#45;&gt;system_addresses -->
<g id="edge3" class="edge">
<title>reconfiguration&#45;&gt;system_addresses</title>
<path fill="none" stroke="black" d="M1754.68,-719.82C1792.22,-662.26 1902.44,-473.48 1815,-360 1799.39,-339.73 1739.42,-325.66 1689.01,-317.13"/>
<polygon fill="black" stroke="black" points="1689.69,-313.7 1679.26,-315.54 1688.56,-320.61 1689.69,-313.7"/>
</g>
<!-- event -->
<g id="node5" class="node">
<title>event</title>
<ellipse fill="none" stroke="black" cx="326" cy="-378" rx="29.8" ry="18"/>
<text text-anchor="middle" x="326" y="-374.3" font-family="Times,serif" font-size="14.00">event</text>
</g>
<!-- reconfiguration&#45;&gt;event -->
<g id="edge4" class="edge">
<title>reconfiguration&#45;&gt;event</title>
<path fill="none" stroke="black" d="M1678.74,-734.68C1381.46,-723.56 154,-672.9 154,-595 154,-595 154,-595 154,-521 154,-451.52 238.5,-409.68 289.04,-390.86"/>
<polygon fill="black" stroke="black" points="290.21,-394.16 298.45,-387.5 287.86,-387.57 290.21,-394.16"/>
</g>
<!-- account -->
<g id="node6" class="node">
<title>account</title>
<ellipse fill="none" stroke="black" cx="612" cy="-450" rx="38.19" ry="18"/>
<text text-anchor="middle" x="612" y="-446.3" font-family="Times,serif" font-size="14.00">account</text>
</g>
<!-- reconfiguration&#45;&gt;account -->
<g id="edge5" class="edge">
<title>reconfiguration&#45;&gt;account</title>
<path fill="none" stroke="black" d="M1678.08,-735.92C1578.3,-733.03 1381.82,-722.48 1220,-684 994.41,-630.35 739.98,-513.08 647.76,-468.59"/>
<polygon fill="black" stroke="black" points="649.47,-465.53 638.94,-464.32 646.42,-471.83 649.47,-465.53"/>
</g>
<!-- chain_status -->
<g id="node7" class="node">
<title>chain_status</title>
<ellipse fill="none" stroke="black" cx="2200" cy="-378" rx="53.89" ry="18"/>
<text text-anchor="middle" x="2200" y="-374.3" font-family="Times,serif" font-size="14.00">chain_status</text>
</g>
<!-- reconfiguration&#45;&gt;chain_status -->
<g id="edge6" class="edge">
<title>reconfiguration&#45;&gt;chain_status</title>
<path fill="none" stroke="black" d="M1800.86,-729.44C1914.52,-712.96 2156,-669.21 2156,-595 2156,-595 2156,-595 2156,-521 2156,-479.53 2173.33,-434.18 2186.24,-406.16"/>
<polygon fill="black" stroke="black" points="2189.3,-407.86 2190.45,-397.33 2182.99,-404.85 2189.3,-407.86"/>
</g>
<!-- timestamp -->
<g id="node8" class="node">
<title>timestamp</title>
<ellipse fill="none" stroke="black" cx="1743" cy="-522" rx="48.19" ry="18"/>
<text text-anchor="middle" x="1743" y="-518.3" font-family="Times,serif" font-size="14.00">timestamp</text>
</g>
<!-- reconfiguration&#45;&gt;timestamp -->
<g id="edge7" class="edge">
<title>reconfiguration&#45;&gt;timestamp</title>
<path fill="none" stroke="black" d="M1743,-719.85C1743,-683.14 1743,-596.66 1743,-551.53"/>
<polygon fill="black" stroke="black" points="1746.5,-551.75 1743,-541.75 1739.5,-551.75 1746.5,-551.75"/>
</g>
<!-- stake -->
<g id="node9" class="node">
<title>stake</title>
<ellipse fill="none" stroke="black" cx="1258" cy="-666" rx="28.7" ry="18"/>
<text text-anchor="middle" x="1258" y="-662.3" font-family="Times,serif" font-size="14.00">stake</text>
</g>
<!-- reconfiguration&#45;&gt;stake -->
<g id="edge8" class="edge">
<title>reconfiguration&#45;&gt;stake</title>
<path fill="none" stroke="black" d="M1686.42,-728.83C1586.9,-714.47 1382.98,-685.04 1297.3,-672.67"/>
<polygon fill="black" stroke="black" points="1297.91,-669.22 1287.51,-671.26 1296.91,-676.15 1297.91,-669.22"/>
</g>
<!-- storage_gas -->
<g id="node10" class="node">
<title>storage_gas</title>
<ellipse fill="none" stroke="black" cx="2031" cy="-450" rx="51.99" ry="18"/>
<text text-anchor="middle" x="2031" y="-446.3" font-family="Times,serif" font-size="14.00">storage_gas</text>
</g>
<!-- reconfiguration&#45;&gt;storage_gas -->
<g id="edge9" class="edge">
<title>reconfiguration&#45;&gt;storage_gas</title>
<path fill="none" stroke="black" d="M1789.36,-724.93C1815.33,-716.52 1847.17,-703.3 1871,-684 1943.17,-625.55 1996.08,-526.17 2018.76,-478.33"/>
<polygon fill="black" stroke="black" points="2021.82,-480.05 2022.87,-469.51 2015.47,-477.1 2021.82,-480.05"/>
</g>
<!-- system_addresses&#45;&gt;signer -->
<g id="edge10" class="edge">
<title>system_addresses&#45;&gt;signer</title>
<path fill="none" stroke="black" d="M1584.16,-289.16C1518.65,-255.27 1356.37,-176.21 1210,-144 1198.38,-141.44 461.26,-103.09 271.94,-93.28"/>
<polygon fill="black" stroke="black" points="272.2,-89.78 262.04,-92.76 271.84,-96.78 272.2,-89.78"/>
</g>
<!-- system_addresses&#45;&gt;error -->
<g id="edge11" class="edge">
<title>system_addresses&#45;&gt;error</title>
<path fill="none" stroke="black" d="M1601.74,-287.89C1580.44,-258.27 1535.02,-195.66 1495,-144 1487.57,-134.41 1479.2,-124 1471.83,-114.98"/>
<polygon fill="black" stroke="black" points="1474.61,-112.84 1465.56,-107.33 1469.2,-117.28 1474.61,-112.84"/>
</g>
<!-- bcs -->
<g id="node11" class="node">
<title>bcs</title>
<ellipse fill="none" stroke="black" cx="655" cy="-234" rx="27" ry="18"/>
<text text-anchor="middle" x="655" y="-230.3" font-family="Times,serif" font-size="14.00">bcs</text>
</g>
<!-- event&#45;&gt;bcs -->
<g id="edge12" class="edge">
<title>event&#45;&gt;bcs</title>
<path fill="none" stroke="black" d="M327.76,-359.62C330.81,-339.16 339.04,-305.73 361,-288 438.09,-225.77 483.78,-271.1 581,-252 593.35,-249.57 606.78,-246.59 618.77,-243.81"/>
<polygon fill="black" stroke="black" points="619.34,-247.27 628.27,-241.57 617.73,-240.46 619.34,-247.27"/>
</g>
<!-- guid -->
<g id="node12" class="node">
<title>guid</title>
<ellipse fill="none" stroke="black" cx="397" cy="-306" rx="27" ry="18"/>
<text text-anchor="middle" x="397" y="-302.3" font-family="Times,serif" font-size="14.00">guid</text>
</g>
<!-- event&#45;&gt;guid -->
<g id="edge13" class="edge">
<title>event&#45;&gt;guid</title>
<path fill="none" stroke="black" d="M341.06,-362.15C350.79,-352.56 363.63,-339.9 374.55,-329.13"/>
<polygon fill="black" stroke="black" points="376.71,-331.92 381.37,-322.41 371.79,-326.94 376.71,-331.92"/>
</g>
<!-- account&#45;&gt;signer -->
<g id="edge16" class="edge">
<title>account&#45;&gt;signer</title>
<path fill="none" stroke="black" d="M587.87,-435.7C570.88,-425.81 548.05,-411.4 530,-396 480.92,-354.12 477.85,-334.38 433,-288 369.84,-222.68 291.52,-149.44 252.5,-113.44"/>
<polygon fill="black" stroke="black" points="255.18,-111.16 245.45,-106.96 250.44,-116.31 255.18,-111.16"/>
</g>
<!-- account&#45;&gt;error -->
<g id="edge17" class="edge">
<title>account&#45;&gt;error</title>
<path fill="none" stroke="black" d="M648.08,-443.86C692.09,-436.77 768.13,-421.84 829,-396 856.58,-384.29 859.96,-374.83 886,-360 983.42,-304.51 1322.1,-144.85 1324,-144 1355.68,-129.78 1392.34,-114.74 1418.28,-104.33"/>
<polygon fill="black" stroke="black" points="1419.31,-107.69 1427.3,-100.73 1416.71,-101.19 1419.31,-107.69"/>
</g>
<!-- account&#45;&gt;system_addresses -->
<g id="edge20" class="edge">
<title>account&#45;&gt;system_addresses</title>
<path fill="none" stroke="black" d="M649.86,-446.86C740.99,-441.39 979.65,-425.27 1177,-396 1311.55,-376.05 1467.22,-341.57 1551.67,-321.89"/>
<polygon fill="black" stroke="black" points="1552.44,-325.31 1561.38,-319.62 1550.84,-318.49 1552.44,-325.31"/>
</g>
<!-- account&#45;&gt;event -->
<g id="edge27" class="edge">
<title>account&#45;&gt;event</title>
<path fill="none" stroke="black" d="M576.3,-442.95C528.7,-434.48 442.08,-417.68 370,-396 366.91,-395.07 363.73,-394.03 360.56,-392.92"/>
<polygon fill="black" stroke="black" points="361.99,-389.72 351.4,-389.55 359.57,-396.29 361.99,-389.72"/>
</g>
<!-- account&#45;&gt;bcs -->
<g id="edge22" class="edge">
<title>account&#45;&gt;bcs</title>
<path fill="none" stroke="black" d="M605.55,-431.83C599.66,-413.82 592.62,-384.76 598,-360 605.85,-323.86 625.1,-285.64 639.06,-261.12"/>
<polygon fill="black" stroke="black" points="642.08,-262.9 644.1,-252.49 636.03,-259.37 642.08,-262.9"/>
</g>
<!-- account&#45;&gt;guid -->
<g id="edge25" class="edge">
<title>account&#45;&gt;guid</title>
<path fill="none" stroke="black" d="M574.91,-445.15C538.54,-439.68 483.27,-426.65 446,-396 426.64,-380.08 413.68,-354.41 405.97,-334.72"/>
<polygon fill="black" stroke="black" points="409.27,-333.55 402.55,-325.36 402.69,-335.95 409.27,-333.55"/>
</g>
<!-- vector -->
<g id="node13" class="node">
<title>vector</title>
<ellipse fill="none" stroke="black" cx="600" cy="-18" rx="32.49" ry="18"/>
<text text-anchor="middle" x="600" y="-14.3" font-family="Times,serif" font-size="14.00">vector</text>
</g>
<!-- account&#45;&gt;vector -->
<g id="edge14" class="edge">
<title>account&#45;&gt;vector</title>
<path fill="none" stroke="black" d="M577.62,-441.79C529.01,-431.26 442.99,-411.25 415,-396 383.57,-378.88 190.53,-212.71 176,-180 169.51,-165.38 174.79,-159.95 176,-144 178.45,-111.72 163.84,-94.61 187,-72 238.58,-21.64 460.44,-17.58 555.97,-18.24"/>
<polygon fill="black" stroke="black" points="555.7,-21.74 565.73,-18.33 555.76,-14.74 555.7,-21.74"/>
</g>
<!-- option -->
<g id="node14" class="node">
<title>option</title>
<ellipse fill="none" stroke="black" cx="600" cy="-90" rx="33.29" ry="18"/>
<text text-anchor="middle" x="600" y="-86.3" font-family="Times,serif" font-size="14.00">option</text>
</g>
<!-- account&#45;&gt;option -->
<g id="edge15" class="edge">
<title>account&#45;&gt;option</title>
<path fill="none" stroke="black" d="M596,-433.51C565.29,-402.52 498.97,-329.18 475,-252 469.39,-233.94 468.89,-155.96 477,-144 494.89,-117.61 528.9,-104.29 556.63,-97.6"/>
<polygon fill="black" stroke="black" points="557.17,-101.07 566.2,-95.52 555.68,-94.23 557.17,-101.07"/>
</g>
<!-- type_info -->
<g id="node15" class="node">
<title>type_info</title>
<ellipse fill="none" stroke="black" cx="892" cy="-234" rx="44.39" ry="18"/>
<text text-anchor="middle" x="892" y="-230.3" font-family="Times,serif" font-size="14.00">type_info</text>
</g>
<!-- account&#45;&gt;type_info -->
<g id="edge18" class="edge">
<title>account&#45;&gt;type_info</title>
<path fill="none" stroke="black" d="M649.94,-446.47C690.4,-442.02 754.5,-429.76 798,-396 842.65,-361.35 870.12,-299.07 883.07,-262.97"/>
<polygon fill="black" stroke="black" points="886.33,-264.26 886.28,-253.67 879.71,-261.98 886.33,-264.26"/>
</g>
<!-- table -->
<g id="node16" class="node">
<title>table</title>
<ellipse fill="none" stroke="black" cx="1064" cy="-306" rx="27.9" ry="18"/>
<text text-anchor="middle" x="1064" y="-302.3" font-family="Times,serif" font-size="14.00">table</text>
</g>
<!-- account&#45;&gt;table -->
<g id="edge19" class="edge">
<title>account&#45;&gt;table</title>
<path fill="none" stroke="black" d="M649.17,-445.07C702.64,-438.69 803.88,-423.89 886,-396 940.7,-377.42 999.88,-345.15 1034.35,-324.99"/>
<polygon fill="black" stroke="black" points="1036.1,-328.03 1042.92,-319.92 1032.53,-322 1036.1,-328.03"/>
</g>
<!-- hash -->
<g id="node17" class="node">
<title>hash</title>
<ellipse fill="none" stroke="black" cx="727" cy="-234" rx="27" ry="18"/>
<text text-anchor="middle" x="727" y="-230.3" font-family="Times,serif" font-size="14.00">hash</text>
</g>
<!-- account&#45;&gt;hash -->
<g id="edge21" class="edge">
<title>account&#45;&gt;hash</title>
<path fill="none" stroke="black" d="M613.43,-431.55C615.45,-413.07 620.2,-383.38 631,-360 649.41,-320.13 682.47,-281.12 704.57,-257.56"/>
<polygon fill="black" stroke="black" points="707.03,-260.06 711.41,-250.42 701.97,-255.22 707.03,-260.06"/>
</g>
<!-- ed25519 -->
<g id="node18" class="node">
<title>ed25519</title>
<ellipse fill="none" stroke="black" cx="787" cy="-306" rx="40.89" ry="18"/>
<text text-anchor="middle" x="787" y="-302.3" font-family="Times,serif" font-size="14.00">ed25519</text>
</g>
<!-- account&#45;&gt;ed25519 -->
<g id="edge23" class="edge">
<title>account&#45;&gt;ed25519</title>
<path fill="none" stroke="black" d="M650.27,-448.04C688.61,-444.85 746.22,-433.6 777,-396 790.64,-379.34 792.45,-354.66 791.24,-335.52"/>
<polygon fill="black" stroke="black" points="794.73,-335.28 790.28,-325.66 787.76,-335.95 794.73,-335.28"/>
</g>
<!-- multi_ed25519 -->
<g id="node19" class="node">
<title>multi_ed25519</title>
<ellipse fill="none" stroke="black" cx="704" cy="-378" rx="64.19" ry="18"/>
<text text-anchor="middle" x="704" y="-374.3" font-family="Times,serif" font-size="14.00">multi_ed25519</text>
</g>
<!-- account&#45;&gt;multi_ed25519 -->
<g id="edge24" class="edge">
<title>account&#45;&gt;multi_ed25519</title>
<path fill="none" stroke="black" d="M631.51,-434.15C643.68,-424.89 659.61,-412.78 673.43,-402.26"/>
<polygon fill="black" stroke="black" points="675.55,-405.05 681.39,-396.21 671.31,-399.48 675.55,-405.05"/>
</g>
<!-- from_bcs -->
<g id="node20" class="node">
<title>from_bcs</title>
<ellipse fill="none" stroke="black" cx="528" cy="-234" rx="44.39" ry="18"/>
<text text-anchor="middle" x="528" y="-230.3" font-family="Times,serif" font-size="14.00">from_bcs</text>
</g>
<!-- account&#45;&gt;from_bcs -->
<g id="edge26" class="edge">
<title>account&#45;&gt;from_bcs</title>
<path fill="none" stroke="black" d="M605.27,-431.85C590.77,-394.91 556.48,-307.55 538.86,-262.67"/>
<polygon fill="black" stroke="black" points="542.23,-261.67 535.32,-253.64 535.71,-264.23 542.23,-261.67"/>
</g>
<!-- chain_status&#45;&gt;error -->
<g id="edge28" class="edge">
<title>chain_status&#45;&gt;error</title>
<path fill="none" stroke="black" d="M2200.95,-359.75C2202.33,-315.68 2199.21,-198.61 2132,-144 2082.16,-103.5 1628.52,-93.58 1491.2,-91.5"/>
<polygon fill="black" stroke="black" points="1491.58,-88 1481.53,-91.36 1491.48,-95 1491.58,-88"/>
</g>
<!-- chain_status&#45;&gt;system_addresses -->
<g id="edge29" class="edge">
<title>chain_status&#45;&gt;system_addresses</title>
<path fill="none" stroke="black" d="M2153.32,-368.56C2136.26,-365.63 2116.79,-362.47 2099,-360 1956.5,-340.24 1789.6,-323.37 1693.4,-314.25"/>
<polygon fill="black" stroke="black" points="1693.82,-310.78 1683.53,-313.32 1693.16,-317.75 1693.82,-310.78"/>
</g>
<!-- timestamp&#45;&gt;error -->
<g id="edge30" class="edge">
<title>timestamp&#45;&gt;error</title>
<path fill="none" stroke="black" d="M1778.01,-509.16C1826.98,-490.11 1910,-447.69 1910,-379 1910,-379 1910,-379 1910,-233 1910,-145.55 1601.53,-106 1490.9,-94.62"/>
<polygon fill="black" stroke="black" points="1491.42,-91.16 1481.12,-93.64 1490.73,-98.12 1491.42,-91.16"/>
</g>
<!-- timestamp&#45;&gt;system_addresses -->
<g id="edge31" class="edge">
<title>timestamp&#45;&gt;system_addresses</title>
<path fill="none" stroke="black" d="M1732.88,-504.21C1710.62,-467.28 1657.24,-378.74 1630.24,-333.94"/>
<polygon fill="black" stroke="black" points="1633.38,-332.36 1625.22,-325.6 1627.38,-335.98 1633.38,-332.36"/>
</g>
<!-- stake&#45;&gt;signer -->
<g id="edge34" class="edge">
<title>stake&#45;&gt;signer</title>
<path fill="none" stroke="black" d="M1231.3,-659.07C1214.61,-655.51 1192.62,-651.08 1173,-648 1034.23,-626.21 997.48,-635.54 859,-612 581.39,-564.8 467.95,-636.06 242,-468 123.56,-379.91 108.88,-278.81 169,-144 174.96,-130.64 186.13,-119.24 197.17,-110.47"/>
<polygon fill="black" stroke="black" points="199.1,-113.4 205.07,-104.64 194.95,-107.76 199.1,-113.4"/>
</g>
<!-- stake&#45;&gt;error -->
<g id="edge35" class="edge">
<title>stake&#45;&gt;error</title>
<path fill="none" stroke="black" d="M1286.83,-663.78C1374.32,-659.73 1635.48,-645.11 1713,-612 1848.26,-554.23 1948,-526.08 1948,-379 1948,-379 1948,-379 1948,-233 1948,-170.46 1896.35,-168.95 1839,-144 1777.01,-117.03 1576.85,-99.92 1491.33,-93.67"/>
<polygon fill="black" stroke="black" points="1491.79,-90.2 1481.56,-92.97 1491.28,-97.18 1491.79,-90.2"/>
</g>
<!-- stake&#45;&gt;system_addresses -->
<g id="edge36" class="edge">
<title>stake&#45;&gt;system_addresses</title>
<path fill="none" stroke="black" d="M1285.64,-660.16C1369.28,-644.75 1614,-593.62 1614,-523 1614,-523 1614,-523 1614,-449 1614,-409.74 1614,-364.38 1614,-335.69"/>
<polygon fill="black" stroke="black" points="1617.5,-336 1614,-326 1610.5,-336 1617.5,-336"/>
</g>
<!-- stake&#45;&gt;event -->
<g id="edge37" class="edge">
<title>stake&#45;&gt;event</title>
<path fill="none" stroke="black" d="M1231.36,-658.59C1190.12,-648.66 1108.35,-628.94 1039,-612 779.31,-548.56 698.78,-577.7 455,-468 415.84,-450.38 375.93,-420.65 351.08,-400.45"/>
<polygon fill="black" stroke="black" points="353.43,-397.85 343.5,-394.18 348.98,-403.25 353.43,-397.85"/>
</g>
<!-- stake&#45;&gt;account -->
<g id="edge38" class="edge">
<title>stake&#45;&gt;account</title>
<path fill="none" stroke="black" d="M1284.82,-658.87C1308.46,-651.89 1341.47,-637.92 1357,-612 1365.22,-598.27 1367.29,-588.25 1357,-576 1267.39,-469.32 813.36,-453.62 661.53,-451.36"/>
<polygon fill="black" stroke="black" points="661.85,-447.86 651.81,-451.23 661.76,-454.86 661.85,-447.86"/>
</g>
<!-- stake&#45;&gt;timestamp -->
<g id="edge41" class="edge">
<title>stake&#45;&gt;timestamp</title>
<path fill="none" stroke="black" d="M1287.02,-664.39C1371.3,-662.15 1614.33,-652.28 1681,-612 1704.5,-597.8 1721.34,-570.91 1731.49,-550.39"/>
<polygon fill="black" stroke="black" points="1734.61,-551.96 1735.67,-541.42 1728.27,-549 1734.61,-551.96"/>
</g>
<!-- stake&#45;&gt;vector -->
<g id="edge32" class="edge">
<title>stake&#45;&gt;vector</title>
<path fill="none" stroke="black" d="M1229.22,-664.77C1103.61,-663.52 603.07,-655.83 453,-612 220.02,-543.96 0,-549.71 0,-307 0,-307 0,-307 0,-161 0,-46.72 417.42,-24.29 555.93,-19.99"/>
<polygon fill="black" stroke="black" points="555.91,-23.49 565.8,-19.7 555.7,-16.5 555.91,-23.49"/>
</g>
<!-- stake&#45;&gt;option -->
<g id="edge33" class="edge">
<title>stake&#45;&gt;option</title>
<path fill="none" stroke="black" d="M1229.25,-664.66C1103.76,-662.96 603.69,-653.65 453,-612 317.74,-574.62 245.18,-587.74 172,-468 80.04,-317.54 245.96,-228.01 401,-144 450.57,-117.14 514.57,-103.26 556.42,-96.56"/>
<polygon fill="black" stroke="black" points="556.75,-100.05 566.11,-95.09 555.69,-93.13 556.75,-100.05"/>
</g>
<!-- coin -->
<g id="node21" class="node">
<title>coin</title>
<ellipse fill="none" stroke="black" cx="910" cy="-522" rx="27" ry="18"/>
<text text-anchor="middle" x="910" y="-518.3" font-family="Times,serif" font-size="14.00">coin</text>
</g>
<!-- stake&#45;&gt;coin -->
<g id="edge39" class="edge">
<title>stake&#45;&gt;coin</title>
<path fill="none" stroke="black" d="M1234.35,-655.35C1173.8,-630.64 1013.02,-565.04 943.17,-536.53"/>
<polygon fill="black" stroke="black" points="944.75,-533.4 934.17,-532.86 942.11,-539.88 944.75,-533.4"/>
</g>
<!-- aptos_coin -->
<g id="node22" class="node">
<title>aptos_coin</title>
<ellipse fill="none" stroke="black" cx="1206" cy="-594" rx="48.99" ry="18"/>
<text text-anchor="middle" x="1206" y="-590.3" font-family="Times,serif" font-size="14.00">aptos_coin</text>
</g>
<!-- stake&#45;&gt;aptos_coin -->
<g id="edge40" class="edge">
<title>stake&#45;&gt;aptos_coin</title>
<path fill="none" stroke="black" d="M1246.2,-649.12C1240,-640.77 1232.24,-630.32 1225.2,-620.84"/>
<polygon fill="black" stroke="black" points="1228.15,-618.95 1219.38,-613.01 1222.53,-623.13 1228.15,-618.95"/>
</g>
<!-- staking_config -->
<g id="node23" class="node">
<title>staking_config</title>
<ellipse fill="none" stroke="black" cx="1743" cy="-378" rx="63.09" ry="18"/>
<text text-anchor="middle" x="1743" y="-374.3" font-family="Times,serif" font-size="14.00">staking_config</text>
</g>
<!-- stake&#45;&gt;staking_config -->
<g id="edge42" class="edge">
<title>stake&#45;&gt;staking_config</title>
<path fill="none" stroke="black" d="M1286.94,-664.27C1364.26,-661.79 1573.49,-651.52 1628,-612 1637.13,-605.38 1702.22,-466.82 1730.23,-406.58"/>
<polygon fill="black" stroke="black" points="1733.33,-408.2 1734.37,-397.66 1726.98,-405.26 1733.33,-408.2"/>
</g>
<!-- math64 -->
<g id="node24" class="node">
<title>math64</title>
<ellipse fill="none" stroke="black" cx="1310" cy="-594" rx="37.89" ry="18"/>
<text text-anchor="middle" x="1310" y="-590.3" font-family="Times,serif" font-size="14.00">math64</text>
</g>
<!-- stake&#45;&gt;math64 -->
<g id="edge43" class="edge">
<title>stake&#45;&gt;math64</title>
<path fill="none" stroke="black" d="M1269.8,-649.12C1276.09,-640.64 1283.99,-630.02 1291.11,-620.43"/>
<polygon fill="black" stroke="black" points="1293.83,-622.64 1296.98,-612.52 1288.21,-618.46 1293.83,-622.64"/>
</g>
<!-- bls12381 -->
<g id="node25" class="node">
<title>bls12381</title>
<ellipse fill="none" stroke="black" cx="529" cy="-162" rx="42.79" ry="18"/>
<text text-anchor="middle" x="529" y="-158.3" font-family="Times,serif" font-size="14.00">bls12381</text>
</g>
<!-- stake&#45;&gt;bls12381 -->
<g id="edge44" class="edge">
<title>stake&#45;&gt;bls12381</title>
<path fill="none" stroke="black" d="M1231.3,-659.07C1214.61,-655.51 1192.62,-651.08 1173,-648 1034.23,-626.21 997.48,-635.54 859,-612 599.7,-567.92 473.05,-651.89 285,-468 227.75,-412.01 245.55,-352.5 293,-288 322.54,-247.85 335.7,-240.7 379,-216 411.37,-197.54 451.29,-183.81 481.81,-174.96"/>
<polygon fill="black" stroke="black" points="482.46,-178.41 491.14,-172.33 480.56,-171.68 482.46,-178.41"/>
</g>
<!-- storage_gas&#45;&gt;error -->
<g id="edge45" class="edge">
<title>storage_gas&#45;&gt;error</title>
<path fill="none" stroke="black" d="M2058.05,-434.24C2072.36,-425.07 2088.99,-411.98 2099,-396 2120.47,-361.72 2118,-347.45 2118,-307 2118,-307 2118,-307 2118,-233 2118,-104.07 1634.52,-91.76 1491.43,-90.94"/>
<polygon fill="black" stroke="black" points="1491.72,-87.44 1481.71,-90.9 1491.69,-94.44 1491.72,-87.44"/>
</g>
<!-- storage_gas&#45;&gt;system_addresses -->
<g id="edge46" class="edge">
<title>storage_gas&#45;&gt;system_addresses</title>
<path fill="none" stroke="black" d="M2005.15,-434.06C1970.43,-414.55 1906.33,-380.48 1848,-360 1794.81,-341.32 1732.46,-327.58 1685.5,-318.78"/>
<polygon fill="black" stroke="black" points="1686.17,-315.34 1675.7,-316.97 1684.9,-322.22 1686.17,-315.34"/>
</g>
<!-- state_storage -->
<g id="node26" class="node">
<title>state_storage</title>
<ellipse fill="none" stroke="black" cx="2033" cy="-378" rx="56.59" ry="18"/>
<text text-anchor="middle" x="2033" y="-374.3" font-family="Times,serif" font-size="14.00">state_storage</text>
</g>
<!-- storage_gas&#45;&gt;state_storage -->
<g id="edge47" class="edge">
<title>storage_gas&#45;&gt;state_storage</title>
<path fill="none" stroke="black" d="M2031.49,-431.7C2031.7,-424.41 2031.95,-415.73 2032.18,-407.54"/>
<polygon fill="black" stroke="black" points="2035.68,-407.71 2032.47,-397.62 2028.68,-407.51 2035.68,-407.71"/>
</g>
<!-- option&#45;&gt;vector -->
<g id="edge48" class="edge">
<title>option&#45;&gt;vector</title>
<path fill="none" stroke="black" d="M600,-71.7C600,-64.41 600,-55.73 600,-47.54"/>
<polygon fill="black" stroke="black" points="603.5,-47.62 600,-37.62 596.5,-47.62 603.5,-47.62"/>
</g>
<!-- type_info&#45;&gt;error -->
<g id="edge50" class="edge">
<title>type_info&#45;&gt;error</title>
<path fill="none" stroke="black" d="M926.92,-222.61C934.52,-220.4 942.52,-218.09 950,-216 1069.6,-182.53 1099.44,-173.83 1220,-144 1288.44,-127.06 1368.72,-109.16 1414.65,-99.1"/>
<polygon fill="black" stroke="black" points="1415.33,-102.53 1424.35,-96.98 1413.84,-95.69 1415.33,-102.53"/>
</g>
<!-- string -->
<g id="node27" class="node">
<title>string</title>
<ellipse fill="none" stroke="black" cx="697" cy="-162" rx="30.59" ry="18"/>
<text text-anchor="middle" x="697" y="-158.3" font-family="Times,serif" font-size="14.00">string</text>
</g>
<!-- type_info&#45;&gt;string -->
<g id="edge49" class="edge">
<title>type_info&#45;&gt;string</title>
<path fill="none" stroke="black" d="M857.88,-222.12C826.3,-211.87 778.17,-195.76 737,-180 735.21,-179.31 733.38,-178.6 731.53,-177.86"/>
<polygon fill="black" stroke="black" points="732.98,-174.67 722.4,-174.11 730.32,-181.15 732.98,-174.67"/>
</g>
<!-- features -->
<g id="node28" class="node">
<title>features</title>
<ellipse fill="none" stroke="black" cx="784" cy="-162" rx="38.19" ry="18"/>
<text text-anchor="middle" x="784" y="-158.3" font-family="Times,serif" font-size="14.00">features</text>
</g>
<!-- type_info&#45;&gt;features -->
<g id="edge51" class="edge">
<title>type_info&#45;&gt;features</title>
<path fill="none" stroke="black" d="M869.1,-218.15C853.46,-208.02 832.56,-194.47 815.38,-183.34"/>
<polygon fill="black" stroke="black" points="817.33,-180.43 807.04,-177.93 813.52,-186.31 817.33,-180.43"/>
</g>
<!-- ed25519&#45;&gt;error -->
<g id="edge53" class="edge">
<title>ed25519&#45;&gt;error</title>
<path fill="none" stroke="black" d="M792.58,-288C800.02,-267.91 815.11,-234.84 839,-216 929.68,-144.47 1292.74,-105.52 1413.05,-94.38"/>
<polygon fill="black" stroke="black" points="1413.09,-97.89 1422.74,-93.5 1412.46,-90.92 1413.09,-97.89"/>
</g>
<!-- ed25519&#45;&gt;bcs -->
<g id="edge56" class="edge">
<title>ed25519&#45;&gt;bcs</title>
<path fill="none" stroke="black" d="M761.55,-291.5C739.85,-280 708.6,-263.43 685.56,-251.2"/>
<polygon fill="black" stroke="black" points="687.42,-248.23 676.94,-246.64 684.14,-254.41 687.42,-248.23"/>
</g>
<!-- ed25519&#45;&gt;option -->
<g id="edge52" class="edge">
<title>ed25519&#45;&gt;option</title>
<path fill="none" stroke="black" d="M786.96,-287.63C785.98,-267.81 781.39,-235.61 763,-216 728.96,-179.71 696.17,-210.67 657,-180 636.28,-163.77 620.88,-137.79 611.35,-118.08"/>
<polygon fill="black" stroke="black" points="614.65,-116.87 607.29,-109.25 608.29,-119.8 614.65,-116.87"/>
</g>
<!-- ed25519&#45;&gt;type_info -->
<g id="edge54" class="edge">
<title>ed25519&#45;&gt;type_info</title>
<path fill="none" stroke="black" d="M808.76,-290.5C823.62,-280.59 843.56,-267.29 860.2,-256.2"/>
<polygon fill="black" stroke="black" points="861.91,-259.27 868.29,-250.81 858.03,-253.44 861.91,-259.27"/>
</g>
<!-- ed25519&#45;&gt;hash -->
<g id="edge55" class="edge">
<title>ed25519&#45;&gt;hash</title>
<path fill="none" stroke="black" d="M773.08,-288.76C765.45,-279.86 755.84,-268.65 747.38,-258.78"/>
<polygon fill="black" stroke="black" points="750.17,-256.65 741,-251.34 744.85,-261.21 750.17,-256.65"/>
</g>
<!-- multi_ed25519&#45;&gt;error -->
<g id="edge58" class="edge">
<title>multi_ed25519&#45;&gt;error</title>
<path fill="none" stroke="black" d="M742.74,-363.2C769.6,-353.24 805.99,-338.95 837,-324 924.15,-281.99 936.38,-252.45 1026,-216 1085.11,-191.96 1103.62,-197.46 1165,-180 1256.35,-154.02 1362.91,-119.98 1416.86,-102.49"/>
<polygon fill="black" stroke="black" points="1417.68,-105.9 1426.11,-99.48 1415.51,-99.24 1417.68,-105.9"/>
</g>
<!-- multi_ed25519&#45;&gt;bcs -->
<g id="edge60" class="edge">
<title>multi_ed25519&#45;&gt;bcs</title>
<path fill="none" stroke="black" d="M697.99,-359.59C689.6,-335.27 674.29,-290.89 664.38,-262.19"/>
<polygon fill="black" stroke="black" points="667.82,-261.41 661.25,-253.1 661.2,-263.7 667.82,-261.41"/>
</g>
<!-- multi_ed25519&#45;&gt;option -->
<g id="edge57" class="edge">
<title>multi_ed25519&#45;&gt;option</title>
<path fill="none" stroke="black" d="M688.68,-360.3C668.89,-337.64 635.06,-295.03 619,-252 602.5,-207.81 599.46,-152.48 599.33,-119.53"/>
<polygon fill="black" stroke="black" points="602.83,-119.61 599.39,-109.58 595.83,-119.56 602.83,-119.61"/>
</g>
<!-- multi_ed25519&#45;&gt;hash -->
<g id="edge59" class="edge">
<title>multi_ed25519&#45;&gt;hash</title>
<path fill="none" stroke="black" d="M706.82,-359.59C710.7,-335.61 717.74,-292.14 722.4,-263.42"/>
<polygon fill="black" stroke="black" points="725.84,-264.04 723.99,-253.6 718.93,-262.92 725.84,-264.04"/>
</g>
<!-- multi_ed25519&#45;&gt;ed25519 -->
<g id="edge61" class="edge">
<title>multi_ed25519&#45;&gt;ed25519</title>
<path fill="none" stroke="black" d="M723.67,-360.41C734.52,-351.26 748.15,-339.76 759.98,-329.78"/>
<polygon fill="black" stroke="black" points="762.06,-332.61 767.45,-323.49 757.55,-327.26 762.06,-332.61"/>
</g>
<!-- from_bcs&#45;&gt;string -->
<g id="edge62" class="edge">
<title>from_bcs&#45;&gt;string</title>
<path fill="none" stroke="black" d="M558.21,-220.49C587.3,-208.44 631.27,-190.22 661.9,-177.54"/>
<polygon fill="black" stroke="black" points="663.23,-180.78 671.13,-173.72 660.55,-174.31 663.23,-180.78"/>
</g>
<!-- coin&#45;&gt;signer -->
<g id="edge65" class="edge">
<title>coin&#45;&gt;signer</title>
<path fill="none" stroke="black" d="M882.79,-520.38C768.8,-517.56 333.28,-504.46 285,-468 175.78,-385.52 200.62,-314.63 176,-180 173.12,-164.26 169.95,-158.81 176,-144 181,-131.76 190.35,-120.82 199.75,-112.1"/>
<polygon fill="black" stroke="black" points="201.84,-114.91 207.13,-105.73 197.27,-109.61 201.84,-114.91"/>
</g>
<!-- coin&#45;&gt;error -->
<g id="edge66" class="edge">
<title>coin&#45;&gt;error</title>
<path fill="none" stroke="black" d="M937.16,-519.2C987.12,-515.14 1096.28,-502.74 1181,-468 1195.98,-461.86 1424,-323.19 1424,-307 1424,-307 1424,-307 1424,-233 1424,-192.59 1435.05,-146.9 1443.27,-118.52"/>
<polygon fill="black" stroke="black" points="1446.52,-119.87 1446.03,-109.29 1439.81,-117.86 1446.52,-119.87"/>
</g>
<!-- coin&#45;&gt;system_addresses -->
<g id="edge68" class="edge">
<title>coin&#45;&gt;system_addresses</title>
<path fill="none" stroke="black" d="M936.68,-518.71C994.29,-513.35 1134.31,-498.11 1248,-468 1335.3,-444.88 1355.37,-432.43 1438,-396 1486.05,-374.82 1539.69,-347.07 1574.98,-328.23"/>
<polygon fill="black" stroke="black" points="1576.38,-331.45 1583.54,-323.64 1573.07,-325.29 1576.38,-331.45"/>
</g>
<!-- coin&#45;&gt;event -->
<g id="edge69" class="edge">
<title>coin&#45;&gt;event</title>
<path fill="none" stroke="black" d="M883.23,-518.74C824.74,-513.39 681.46,-498.12 565,-468 489.76,-448.54 405.34,-413.93 359.7,-394.09"/>
<polygon fill="black" stroke="black" points="361.18,-390.91 350.61,-390.1 358.37,-397.32 361.18,-390.91"/>
</g>
<!-- coin&#45;&gt;account -->
<g id="edge70" class="edge">
<title>coin&#45;&gt;account</title>
<path fill="none" stroke="black" d="M884.59,-515.03C833.87,-503.12 719.51,-476.25 656.22,-461.39"/>
<polygon fill="black" stroke="black" points="657.41,-458.07 646.87,-459.19 655.81,-464.89 657.41,-458.07"/>
</g>
<!-- coin&#45;&gt;option -->
<g id="edge63" class="edge">
<title>coin&#45;&gt;option</title>
<path fill="none" stroke="black" d="M882.85,-521.34C781.51,-522.16 426.2,-521.15 329,-468 293.43,-448.55 286.16,-434.35 273,-396 221.14,-244.84 464.11,-139.57 561.3,-104.13"/>
<polygon fill="black" stroke="black" points="562.47,-107.42 570.7,-100.76 560.11,-100.83 562.47,-107.42"/>
</g>
<!-- coin&#45;&gt;type_info -->
<g id="edge67" class="edge">
<title>coin&#45;&gt;type_info</title>
<path fill="none" stroke="black" d="M908.9,-503.54C905.89,-455.76 897.51,-322.51 893.8,-263.61"/>
<polygon fill="black" stroke="black" points="897.3,-263.5 893.18,-253.74 890.31,-263.94 897.3,-263.5"/>
</g>
<!-- coin&#45;&gt;string -->
<g id="edge64" class="edge">
<title>coin&#45;&gt;string</title>
<path fill="none" stroke="black" d="M882.77,-520.36C771.52,-517.07 354.26,-498 287,-396 258.28,-352.44 294.32,-323.02 333,-288 385.46,-240.51 408.57,-240.38 475,-216 536.59,-193.39 611.39,-177.86 656.53,-169.7"/>
<polygon fill="black" stroke="black" points="656.89,-173.19 666.13,-168 655.68,-166.3 656.89,-173.19"/>
</g>
<!-- optional_aggregator -->
<g id="node29" class="node">
<title>optional_aggregator</title>
<ellipse fill="none" stroke="black" cx="1091" cy="-450" rx="81.49" ry="18"/>
<text text-anchor="middle" x="1091" y="-446.3" font-family="Times,serif" font-size="14.00">optional_aggregator</text>
</g>
<!-- coin&#45;&gt;optional_aggregator -->
<g id="edge71" class="edge">
<title>coin&#45;&gt;optional_aggregator</title>
<path fill="none" stroke="black" d="M932.92,-512.13C959.99,-501.67 1005.8,-483.95 1041.16,-470.28"/>
<polygon fill="black" stroke="black" points="1042.29,-473.59 1050.35,-466.72 1039.76,-467.06 1042.29,-473.59"/>
</g>
<!-- aptos_coin&#45;&gt;signer -->
<g id="edge75" class="edge">
<title>aptos_coin&#45;&gt;signer</title>
<path fill="none" stroke="black" d="M1243.05,-581.76C1249.68,-579.8 1256.54,-577.81 1263,-576 1323.62,-559 1348.39,-576.05 1400,-540 1439.52,-512.4 1462,-499.21 1462,-451 1462,-451 1462,-451 1462,-377 1462,-317.5 1414.33,-316.32 1362,-288 1146.95,-171.62 1071.74,-186.87 831,-144 623.95,-107.13 372.14,-95.52 272.06,-92.2"/>
<polygon fill="black" stroke="black" points="272.24,-88.71 262.14,-91.89 272.02,-95.7 272.24,-88.71"/>
</g>
<!-- aptos_coin&#45;&gt;error -->
<g id="edge76" class="edge">
<title>aptos_coin&#45;&gt;error</title>
<path fill="none" stroke="black" d="M1242.31,-581.45C1249.15,-579.48 1256.26,-577.57 1263,-576 1309.76,-565.12 1445.01,-576.66 1476,-540 1581.66,-414.98 1498.13,-193.53 1464.45,-117.49"/>
<polygon fill="black" stroke="black" points="1467.8,-116.41 1460.49,-108.74 1461.42,-119.29 1467.8,-116.41"/>
</g>
<!-- aptos_coin&#45;&gt;system_addresses -->
<g id="edge77" class="edge">
<title>aptos_coin&#45;&gt;system_addresses</title>
<path fill="none" stroke="black" d="M1241.95,-581.29C1248.88,-579.32 1256.13,-577.44 1263,-576 1326.34,-562.71 1503.23,-582.54 1552,-540 1552.49,-539.57 1590.27,-396.78 1606.61,-334.98"/>
<polygon fill="black" stroke="black" points="1609.93,-336.12 1609.1,-325.56 1603.16,-334.33 1609.93,-336.12"/>
</g>
<!-- aptos_coin&#45;&gt;vector -->
<g id="edge72" class="edge">
<title>aptos_coin&#45;&gt;vector</title>
<path fill="none" stroke="black" d="M1236.53,-579.68C1254.52,-570.6 1276.68,-557.12 1292,-540 1315.6,-513.63 1316.59,-502.12 1326,-468 1347.44,-390.25 1357.61,-347.35 1303,-288 1117.85,-86.78 765.69,-34.78 643.25,-22.5"/>
<polygon fill="black" stroke="black" points="643.92,-19.05 633.63,-21.58 643.25,-26.02 643.92,-19.05"/>
</g>
<!-- aptos_coin&#45;&gt;option -->
<g id="edge73" class="edge">
<title>aptos_coin&#45;&gt;option</title>
<path fill="none" stroke="black" d="M1229.38,-577.93C1242.26,-568.5 1257.51,-555.25 1267,-540 1326.23,-444.84 1346.33,-376.07 1277,-288 1263,-270.22 917.81,-150.02 896,-144 807.96,-119.7 702.01,-103.86 643.75,-96.27"/>
<polygon fill="black" stroke="black" points="644.27,-92.81 633.91,-95.01 643.38,-99.75 644.27,-92.81"/>
</g>
<!-- aptos_coin&#45;&gt;coin -->
<g id="edge78" class="edge">
<title>aptos_coin&#45;&gt;coin</title>
<path fill="none" stroke="black" d="M1165.46,-583.41C1107.52,-569.71 1001.89,-544.73 946.35,-531.6"/>
<polygon fill="black" stroke="black" points="947.3,-528.23 936.77,-529.33 945.69,-535.04 947.3,-528.23"/>
</g>
<!-- aptos_coin&#45;&gt;string -->
<g id="edge74" class="edge">
<title>aptos_coin&#45;&gt;string</title>
<path fill="none" stroke="black" d="M1219.68,-576.25C1239.01,-550.82 1272,-500.21 1272,-451 1272,-451 1272,-451 1272,-377 1272,-336.55 1281.32,-316.88 1253,-288 1246.85,-281.73 953.61,-217.75 945,-216 853.06,-197.31 826.99,-206.52 737,-180 735.02,-179.42 733.01,-178.77 731,-178.07"/>
<polygon fill="black" stroke="black" points="732.36,-174.84 721.77,-174.53 729.86,-181.38 732.36,-174.84"/>
</g>
<!-- staking_config&#45;&gt;error -->
<g id="edge79" class="edge">
<title>staking_config&#45;&gt;error</title>
<path fill="none" stroke="black" d="M1736.29,-359.75C1728.43,-340.89 1714.16,-310.4 1696,-288 1631.85,-208.87 1531.12,-140.17 1481.56,-108.93"/>
<polygon fill="black" stroke="black" points="1483.7,-106.14 1473.36,-103.81 1479.99,-112.08 1483.7,-106.14"/>
</g>
<!-- staking_config&#45;&gt;system_addresses -->
<g id="edge80" class="edge">
<title>staking_config&#45;&gt;system_addresses</title>
<path fill="none" stroke="black" d="M1714.69,-361.64C1696.63,-351.84 1672.97,-339 1653.12,-328.23"/>
<polygon fill="black" stroke="black" points="1654.93,-325.23 1644.47,-323.53 1651.59,-331.38 1654.93,-325.23"/>
</g>
<!-- bls12381&#45;&gt;error -->
<g id="edge82" class="edge">
<title>bls12381&#45;&gt;error</title>
<path fill="none" stroke="black" d="M568.99,-155C594.19,-151.4 627.44,-146.94 657,-144 946.48,-115.16 1296.87,-97.94 1412.73,-92.71"/>
<polygon fill="black" stroke="black" points="1412.79,-96.21 1422.62,-92.26 1412.47,-89.21 1412.79,-96.21"/>
</g>
<!-- bls12381&#45;&gt;option -->
<g id="edge81" class="edge">
<title>bls12381&#45;&gt;option</title>
<path fill="none" stroke="black" d="M545.11,-145.12C554.32,-136.04 566.03,-124.49 576.27,-114.39"/>
<polygon fill="black" stroke="black" points="578.7,-116.92 583.36,-107.4 573.78,-111.93 578.7,-116.92"/>
</g>
<!-- state_storage&#45;&gt;error -->
<g id="edge83" class="edge">
<title>state_storage&#45;&gt;error</title>
<path fill="none" stroke="black" d="M2033.63,-359.51C2034.18,-315.38 2028.9,-199.13 1962,-144 1925.84,-114.2 1604.18,-97.57 1491.1,-92.6"/>
<polygon fill="black" stroke="black" points="1491.55,-89.12 1481.41,-92.18 1491.25,-96.11 1491.55,-89.12"/>
</g>
<!-- state_storage&#45;&gt;system_addresses -->
<g id="edge84" class="edge">
<title>state_storage&#45;&gt;system_addresses</title>
<path fill="none" stroke="black" d="M1983.7,-368.76C1909.77,-356.41 1769.79,-333.03 1684.9,-318.84"/>
<polygon fill="black" stroke="black" points="1685.48,-315.39 1675.04,-317.2 1684.33,-322.3 1685.48,-315.39"/>
</g>
<!-- string&#45;&gt;vector -->
<g id="edge85" class="edge">
<title>string&#45;&gt;vector</title>
<path fill="none" stroke="black" d="M687.62,-144.56C677.09,-126.41 659.21,-96.53 642,-72 635.36,-62.54 627.62,-52.52 620.61,-43.77"/>
<polygon fill="black" stroke="black" points="623.35,-41.59 614.32,-36.04 617.91,-46.01 623.35,-41.59"/>
</g>
<!-- string&#45;&gt;option -->
<g id="edge86" class="edge">
<title>string&#45;&gt;option</title>
<path fill="none" stroke="black" d="M678.3,-147.5C664.12,-137.27 644.4,-123.04 628.3,-111.42"/>
<polygon fill="black" stroke="black" points="630.69,-108.83 620.54,-105.82 626.6,-114.51 630.69,-108.83"/>
</g>
<!-- features&#45;&gt;signer -->
<g id="edge87" class="edge">
<title>features&#45;&gt;signer</title>
<path fill="none" stroke="black" d="M756,-149.62C749.83,-147.46 743.26,-145.44 737,-144 567.93,-105.23 360.7,-94.77 271.84,-91.99"/>
<polygon fill="black" stroke="black" points="272.22,-88.5 262.12,-91.7 272.01,-95.49 272.22,-88.5"/>
</g>
<!-- features&#45;&gt;error -->
<g id="edge88" class="edge">
<title>features&#45;&gt;error</title>
<path fill="none" stroke="black" d="M813.38,-150.09C820.68,-147.75 828.55,-145.52 836,-144 1050.31,-100.36 1313.69,-92.61 1412.28,-91.27"/>
<polygon fill="black" stroke="black" points="1412.27,-94.77 1422.22,-91.15 1412.18,-87.77 1412.27,-94.77"/>
</g>
<!-- optional_aggregator&#45;&gt;error -->
<g id="edge90" class="edge">
<title>optional_aggregator&#45;&gt;error</title>
<path fill="none" stroke="black" d="M1131.56,-433.93C1152.89,-424.86 1178.74,-411.96 1199,-396 1213.26,-384.77 1375.92,-184.81 1432.64,-114.89"/>
<polygon fill="black" stroke="black" points="1435.08,-117.44 1438.66,-107.47 1429.64,-113.03 1435.08,-117.44"/>
</g>
<!-- optional_aggregator&#45;&gt;option -->
<g id="edge89" class="edge">
<title>optional_aggregator&#45;&gt;option</title>
<path fill="none" stroke="black" d="M1054.18,-433.54C1037.13,-424.75 1017.85,-412.22 1005,-396 952.63,-329.91 997.01,-282.38 945,-216 871.25,-121.87 720.17,-98.58 644.81,-92.84"/>
<polygon fill="black" stroke="black" points="645.11,-89.36 634.9,-92.17 644.64,-96.34 645.11,-89.36"/>
</g>
<!-- aggregator -->
<g id="node30" class="node">
<title>aggregator</title>
<ellipse fill="none" stroke="black" cx="1196" cy="-306" rx="48.19" ry="18"/>
<text text-anchor="middle" x="1196" y="-302.3" font-family="Times,serif" font-size="14.00">aggregator</text>
</g>
<!-- optional_aggregator&#45;&gt;aggregator -->
<g id="edge91" class="edge">
<title>optional_aggregator&#45;&gt;aggregator</title>
<path fill="none" stroke="black" d="M1129.51,-433.7C1146.51,-425.06 1165.27,-412.62 1177,-396 1189.4,-378.42 1193.99,-354.36 1195.56,-335.69"/>
<polygon fill="black" stroke="black" points="1199.05,-336.01 1196.13,-325.83 1192.06,-335.61 1199.05,-336.01"/>
</g>
<!-- aggregator_factory -->
<g id="node31" class="node">
<title>aggregator_factory</title>
<ellipse fill="none" stroke="black" cx="1091" cy="-378" rx="77.19" ry="18"/>
<text text-anchor="middle" x="1091" y="-374.3" font-family="Times,serif" font-size="14.00">aggregator_factory</text>
</g>
<!-- optional_aggregator&#45;&gt;aggregator_factory -->
<g id="edge92" class="edge">
<title>optional_aggregator&#45;&gt;aggregator_factory</title>
<path fill="none" stroke="black" d="M1091,-431.7C1091,-424.41 1091,-415.73 1091,-407.54"/>
<polygon fill="black" stroke="black" points="1094.5,-407.62 1091,-397.62 1087.5,-407.62 1094.5,-407.62"/>
</g>
<!-- aggregator_factory&#45;&gt;error -->
<g id="edge93" class="edge">
<title>aggregator_factory&#45;&gt;error</title>
<path fill="none" stroke="black" d="M1096.98,-359.85C1104.4,-340.53 1118.62,-309.08 1139,-288 1205.17,-219.55 1244.67,-232.65 1324,-180 1346.22,-165.25 1350.21,-159.37 1372,-144 1388.75,-132.18 1407.88,-119.48 1423.23,-109.48"/>
<polygon fill="black" stroke="black" points="1424.96,-112.53 1431.44,-104.15 1421.15,-106.66 1424.96,-112.53"/>
</g>
<!-- aggregator_factory&#45;&gt;system_addresses -->
<g id="edge95" class="edge">
<title>aggregator_factory&#45;&gt;system_addresses</title>
<path fill="none" stroke="black" d="M1156.71,-368.21C1254.29,-355.15 1436.97,-330.69 1539.43,-316.98"/>
<polygon fill="black" stroke="black" points="1539.65,-320.48 1549.1,-315.69 1538.73,-313.54 1539.65,-320.48"/>
</g>
<!-- aggregator_factory&#45;&gt;table -->
<g id="edge94" class="edge">
<title>aggregator_factory&#45;&gt;table</title>
<path fill="none" stroke="black" d="M1084.33,-359.7C1081.37,-352.04 1077.83,-342.85 1074.53,-334.3"/>
<polygon fill="black" stroke="black" points="1077.82,-333.1 1070.96,-325.03 1071.29,-335.62 1077.82,-333.1"/>
</g>
<!-- aggregator_factory&#45;&gt;aggregator -->
<g id="edge96" class="edge">
<title>aggregator_factory&#45;&gt;aggregator</title>
<path fill="none" stroke="black" d="M1115.62,-360.59C1130.07,-350.95 1148.5,-338.66 1164.07,-328.29"/>
<polygon fill="black" stroke="black" points="1165.69,-331.41 1172.07,-322.95 1161.81,-325.59 1165.69,-331.41"/>
</g>
</g>
</svg>
