<?xml version="1.0" encoding="UTF-8" standalone="no"?>
<!DOCTYPE svg PUBLIC "-//W3C//DTD SVG 1.1//EN"
 "http://www.w3.org/Graphics/SVG/1.1/DTD/svg11.dtd">
<!-- Generated by graphviz version 7.0.0 (20221023.0053)
 -->
<!-- Title: G Pages: 1 -->
<svg width="2230pt" height="692pt"
 viewBox="0.00 0.00 2230.00 692.00" xmlns="http://www.w3.org/2000/svg" xmlns:xlink="http://www.w3.org/1999/xlink">
<g id="graph0" class="graph" transform="scale(1 1) rotate(0) translate(4 688)">
<title>G</title>
<polygon fill="white" stroke="none" points="-4,4 -4,-688 2226,-688 2226,4 -4,4"/>
<!-- resource_account -->
<g id="node1" class="node">
<title>resource_account</title>
<ellipse fill="none" stroke="black" cx="1640" cy="-666" rx="72.29" ry="18"/>
<text text-anchor="middle" x="1640" y="-662.3" font-family="Times,serif" font-size="14.00">resource_account</text>
</g>
<!-- vector -->
<g id="node2" class="node">
<title>vector</title>
<ellipse fill="none" stroke="black" cx="2038" cy="-18" rx="32.49" ry="18"/>
<text text-anchor="middle" x="2038" y="-14.3" font-family="Times,serif" font-size="14.00">vector</text>
</g>
<!-- resource_account&#45;&gt;vector -->
<g id="edge1" class="edge">
<title>resource_account&#45;&gt;vector</title>
<path fill="none" stroke="black" d="M1710.74,-662.08C1824.83,-656.55 2043.9,-642.27 2115,-612 2171.91,-587.77 2222,-584.86 2222,-523 2222,-523 2222,-523 2222,-161 2222,-88.67 2131.79,-48.01 2077.7,-30.13"/>
<polygon fill="black" stroke="black" points="2078.78,-26.81 2068.19,-27.12 2076.67,-33.48 2078.78,-26.81"/>
</g>
<!-- signer -->
<g id="node3" class="node">
<title>signer</title>
<ellipse fill="none" stroke="black" cx="1918" cy="-90" rx="32.49" ry="18"/>
<text text-anchor="middle" x="1918" y="-86.3" font-family="Times,serif" font-size="14.00">signer</text>
</g>
<!-- resource_account&#45;&gt;signer -->
<g id="edge2" class="edge">
<title>resource_account&#45;&gt;signer</title>
<path fill="none" stroke="black" d="M1710.28,-661.37C1857.34,-651.85 2184,-619.82 2184,-523 2184,-523 2184,-523 2184,-305 2184,-190.13 2031.55,-126.54 1957.48,-102.42"/>
<polygon fill="black" stroke="black" points="1958.75,-99.15 1948.16,-99.47 1956.64,-105.82 1958.75,-99.15"/>
</g>
<!-- error -->
<g id="node4" class="node">
<title>error</title>
<ellipse fill="none" stroke="black" cx="712" cy="-90" rx="27.9" ry="18"/>
<text text-anchor="middle" x="712" y="-86.3" font-family="Times,serif" font-size="14.00">error</text>
</g>
<!-- resource_account&#45;&gt;error -->
<g id="edge3" class="edge">
<title>resource_account&#45;&gt;error</title>
<path fill="none" stroke="black" d="M1568.58,-662.47C1257.7,-650.98 38,-600.96 38,-523 38,-523 38,-523 38,-233 38,-190.5 38.89,-169.36 73,-144 97.17,-126.03 537.35,-100.55 672.72,-93.12"/>
<polygon fill="black" stroke="black" points="672.82,-96.62 682.61,-92.57 672.44,-89.63 672.82,-96.62"/>
</g>
<!-- account -->
<g id="node5" class="node">
<title>account</title>
<ellipse fill="none" stroke="black" cx="737" cy="-450" rx="38.19" ry="18"/>
<text text-anchor="middle" x="737" y="-446.3" font-family="Times,serif" font-size="14.00">account</text>
</g>
<!-- resource_account&#45;&gt;account -->
<g id="edge4" class="edge">
<title>resource_account&#45;&gt;account</title>
<path fill="none" stroke="black" d="M1588.86,-652.88C1427.96,-614.75 933.73,-497.62 781.86,-461.63"/>
<polygon fill="black" stroke="black" points="782.71,-458.24 772.17,-459.34 781.1,-465.05 782.71,-458.24"/>
</g>
<!-- coin -->
<g id="node6" class="node">
<title>coin</title>
<ellipse fill="none" stroke="black" cx="1480" cy="-522" rx="27" ry="18"/>
<text text-anchor="middle" x="1480" y="-518.3" font-family="Times,serif" font-size="14.00">coin</text>
</g>
<!-- resource_account&#45;&gt;coin -->
<g id="edge5" class="edge">
<title>resource_account&#45;&gt;coin</title>
<path fill="none" stroke="black" d="M1621.02,-648.15C1591.81,-622.23 1535.89,-572.6 1503.94,-544.25"/>
<polygon fill="black" stroke="black" points="1506.55,-541.88 1496.74,-537.86 1501.9,-547.12 1506.55,-541.88"/>
</g>
<!-- aptos_coin -->
<g id="node7" class="node">
<title>aptos_coin</title>
<ellipse fill="none" stroke="black" cx="1920" cy="-594" rx="48.99" ry="18"/>
<text text-anchor="middle" x="1920" y="-590.3" font-family="Times,serif" font-size="14.00">aptos_coin</text>
</g>
<!-- resource_account&#45;&gt;aptos_coin -->
<g id="edge6" class="edge">
<title>resource_account&#45;&gt;aptos_coin</title>
<path fill="none" stroke="black" d="M1689.74,-652.57C1740.29,-639.93 1818.21,-620.45 1869.15,-607.71"/>
<polygon fill="black" stroke="black" points="1869.91,-611.13 1878.76,-605.31 1868.21,-604.34 1869.91,-611.13"/>
</g>
<!-- simple_map -->
<g id="node8" class="node">
<title>simple_map</title>
<ellipse fill="none" stroke="black" cx="197" cy="-378" rx="54.69" ry="18"/>
<text text-anchor="middle" x="197" y="-374.3" font-family="Times,serif" font-size="14.00">simple_map</text>
</g>
<!-- resource_account&#45;&gt;simple_map -->
<g id="edge7" class="edge">
<title>resource_account&#45;&gt;simple_map</title>
<path fill="none" stroke="black" d="M1575.75,-657.4C1500.19,-648.13 1371.1,-631.32 1261,-612 870.56,-543.5 406.1,-430.95 250.65,-392.42"/>
<polygon fill="black" stroke="black" points="251.59,-389.05 241.04,-390.04 249.9,-395.84 251.59,-389.05"/>
</g>
<!-- code -->
<g id="node9" class="node">
<title>code</title>
<ellipse fill="none" stroke="black" cx="1787" cy="-378" rx="27.1" ry="18"/>
<text text-anchor="middle" x="1787" y="-374.3" font-family="Times,serif" font-size="14.00">code</text>
</g>
<!-- resource_account&#45;&gt;code -->
<g id="edge8" class="edge">
<title>resource_account&#45;&gt;code</title>
<path fill="none" stroke="black" d="M1649.72,-647.8C1668.84,-613.79 1712.37,-535.42 1746,-468 1756.26,-447.42 1767.12,-423.76 1775.08,-406.01"/>
<polygon fill="black" stroke="black" points="1778.25,-407.49 1779.13,-396.93 1771.86,-404.64 1778.25,-407.49"/>
</g>
<!-- account&#45;&gt;vector -->
<g id="edge9" class="edge">
<title>account&#45;&gt;vector</title>
<path fill="none" stroke="black" d="M698.68,-449.35C576.31,-449.93 196.53,-447.44 87,-396 36.93,-372.49 0,-362.32 0,-307 0,-307 0,-307 0,-161 0,-57.42 1697.37,-24.63 1994.03,-19.69"/>
<polygon fill="black" stroke="black" points="1993.71,-23.2 2003.65,-19.53 1993.59,-16.2 1993.71,-23.2"/>
</g>
<!-- account&#45;&gt;signer -->
<g id="edge11" class="edge">
<title>account&#45;&gt;signer</title>
<path fill="none" stroke="black" d="M775.25,-447.95C852.33,-445.05 1031.31,-434.39 1176,-396 1255.7,-374.85 1273.74,-361.86 1347,-324 1481.76,-254.35 1495.62,-198.99 1637,-144 1717.34,-112.75 1817.98,-99.51 1874.42,-94.22"/>
<polygon fill="black" stroke="black" points="1874.61,-97.72 1884.26,-93.35 1873.98,-90.75 1874.61,-97.72"/>
</g>
<!-- account&#45;&gt;error -->
<g id="edge12" class="edge">
<title>account&#45;&gt;error</title>
<path fill="none" stroke="black" d="M698.77,-447.59C573.61,-442.73 181.35,-425.27 133,-396 92.82,-371.67 76,-353.97 76,-307 76,-307 76,-307 76,-233 76,-192.03 68.58,-170.3 100,-144 143.87,-107.28 544.07,-94.88 672.52,-91.83"/>
<polygon fill="black" stroke="black" points="672.3,-95.34 682.22,-91.61 672.14,-88.34 672.3,-95.34"/>
</g>
<!-- option -->
<g id="node10" class="node">
<title>option</title>
<ellipse fill="none" stroke="black" cx="1370" cy="-90" rx="33.29" ry="18"/>
<text text-anchor="middle" x="1370" y="-86.3" font-family="Times,serif" font-size="14.00">option</text>
</g>
<!-- account&#45;&gt;option -->
<g id="edge10" class="edge">
<title>account&#45;&gt;option</title>
<path fill="none" stroke="black" d="M761.36,-435.94C776.22,-426.72 794.35,-413 805,-396 826.47,-361.72 824,-347.45 824,-307 824,-307 824,-307 824,-233 824,-129.61 1195.37,-100.17 1325.56,-93.03"/>
<polygon fill="black" stroke="black" points="1325.35,-96.54 1335.16,-92.52 1324.98,-89.55 1325.35,-96.54"/>
</g>
<!-- type_info -->
<g id="node11" class="node">
<title>type_info</title>
<ellipse fill="none" stroke="black" cx="1326" cy="-234" rx="44.39" ry="18"/>
<text text-anchor="middle" x="1326" y="-230.3" font-family="Times,serif" font-size="14.00">type_info</text>
</g>
<!-- account&#45;&gt;type_info -->
<g id="edge13" class="edge">
<title>account&#45;&gt;type_info</title>
<path fill="none" stroke="black" d="M766.06,-437.87C787.45,-428.74 816.44,-414.36 838,-396 883.69,-357.11 867.18,-318.25 919,-288 977.47,-253.87 1173.39,-241.21 1270.49,-236.95"/>
<polygon fill="black" stroke="black" points="1270.47,-240.45 1280.31,-236.53 1270.17,-233.46 1270.47,-240.45"/>
</g>
<!-- table -->
<g id="node12" class="node">
<title>table</title>
<ellipse fill="none" stroke="black" cx="956" cy="-306" rx="27.9" ry="18"/>
<text text-anchor="middle" x="956" y="-302.3" font-family="Times,serif" font-size="14.00">table</text>
</g>
<!-- account&#45;&gt;table -->
<g id="edge14" class="edge">
<title>account&#45;&gt;table</title>
<path fill="none" stroke="black" d="M770.57,-441.02C800.13,-432.92 843.42,-418.36 876,-396 901.21,-378.7 923.87,-351.89 938.58,-332.21"/>
<polygon fill="black" stroke="black" points="941.39,-334.3 944.44,-324.15 935.73,-330.18 941.39,-334.3"/>
</g>
<!-- system_addresses -->
<g id="node13" class="node">
<title>system_addresses</title>
<ellipse fill="none" stroke="black" cx="1265" cy="-306" rx="73.39" ry="18"/>
<text text-anchor="middle" x="1265" y="-302.3" font-family="Times,serif" font-size="14.00">system_addresses</text>
</g>
<!-- account&#45;&gt;system_addresses -->
<g id="edge15" class="edge">
<title>account&#45;&gt;system_addresses</title>
<path fill="none" stroke="black" d="M775.65,-449.35C847.55,-448.81 1005.78,-441.95 1129,-396 1169.74,-380.81 1210.7,-351.66 1236.87,-330.87"/>
<polygon fill="black" stroke="black" points="1239.06,-333.59 1244.63,-324.57 1234.66,-328.15 1239.06,-333.59"/>
</g>
<!-- hash -->
<g id="node14" class="node">
<title>hash</title>
<ellipse fill="none" stroke="black" cx="438" cy="-234" rx="27" ry="18"/>
<text text-anchor="middle" x="438" y="-230.3" font-family="Times,serif" font-size="14.00">hash</text>
</g>
<!-- account&#45;&gt;hash -->
<g id="edge16" class="edge">
<title>account&#45;&gt;hash</title>
<path fill="none" stroke="black" d="M699.71,-445.79C594.07,-435.81 297.17,-401.2 247,-324 208.92,-265.4 334.03,-244.7 399.98,-237.96"/>
<polygon fill="black" stroke="black" points="400.04,-241.47 409.67,-237.04 399.38,-234.51 400.04,-241.47"/>
</g>
<!-- bcs -->
<g id="node15" class="node">
<title>bcs</title>
<ellipse fill="none" stroke="black" cx="631" cy="-234" rx="27" ry="18"/>
<text text-anchor="middle" x="631" y="-230.3" font-family="Times,serif" font-size="14.00">bcs</text>
</g>
<!-- account&#45;&gt;bcs -->
<g id="edge17" class="edge">
<title>account&#45;&gt;bcs</title>
<path fill="none" stroke="black" d="M728.68,-432.21C710.33,-395.16 666.25,-306.17 644.13,-261.51"/>
<polygon fill="black" stroke="black" points="647.38,-260.18 639.81,-252.78 641.11,-263.29 647.38,-260.18"/>
</g>
<!-- ed25519 -->
<g id="node16" class="node">
<title>ed25519</title>
<ellipse fill="none" stroke="black" cx="531" cy="-306" rx="40.89" ry="18"/>
<text text-anchor="middle" x="531" y="-302.3" font-family="Times,serif" font-size="14.00">ed25519</text>
</g>
<!-- account&#45;&gt;ed25519 -->
<g id="edge18" class="edge">
<title>account&#45;&gt;ed25519</title>
<path fill="none" stroke="black" d="M714.84,-434.84C698.47,-424.29 675.71,-409.46 656,-396 622.84,-373.36 585.39,-346.52 560.2,-328.28"/>
<polygon fill="black" stroke="black" points="562.55,-325.67 552.4,-322.63 558.44,-331.33 562.55,-325.67"/>
</g>
<!-- multi_ed25519 -->
<g id="node17" class="node">
<title>multi_ed25519</title>
<ellipse fill="none" stroke="black" cx="482" cy="-378" rx="64.19" ry="18"/>
<text text-anchor="middle" x="482" y="-374.3" font-family="Times,serif" font-size="14.00">multi_ed25519</text>
</g>
<!-- account&#45;&gt;multi_ed25519 -->
<g id="edge19" class="edge">
<title>account&#45;&gt;multi_ed25519</title>
<path fill="none" stroke="black" d="M704.45,-440.06C662.42,-428.53 588.63,-408.27 537.63,-394.27"/>
<polygon fill="black" stroke="black" points="538.82,-390.97 528.25,-391.7 536.97,-397.72 538.82,-390.97"/>
</g>
<!-- guid -->
<g id="node18" class="node">
<title>guid</title>
<ellipse fill="none" stroke="black" cx="731" cy="-306" rx="27" ry="18"/>
<text text-anchor="middle" x="731" y="-302.3" font-family="Times,serif" font-size="14.00">guid</text>
</g>
<!-- account&#45;&gt;guid -->
<g id="edge20" class="edge">
<title>account&#45;&gt;guid</title>
<path fill="none" stroke="black" d="M732.94,-431.93C730.69,-421.6 728.13,-408.12 727,-396 725.13,-375.95 726.19,-353.28 727.69,-335.83"/>
<polygon fill="black" stroke="black" points="731.17,-336.23 728.65,-325.94 724.2,-335.55 731.17,-336.23"/>
</g>
<!-- from_bcs -->
<g id="node19" class="node">
<title>from_bcs</title>
<ellipse fill="none" stroke="black" cx="1622" cy="-234" rx="44.39" ry="18"/>
<text text-anchor="middle" x="1622" y="-230.3" font-family="Times,serif" font-size="14.00">from_bcs</text>
</g>
<!-- account&#45;&gt;from_bcs -->
<g id="edge21" class="edge">
<title>account&#45;&gt;from_bcs</title>
<path fill="none" stroke="black" d="M774.77,-446.73C908.57,-438.58 1355.26,-410.57 1418,-396 1502.33,-376.42 1541.75,-388.94 1599,-324 1613.61,-307.42 1619.15,-282.74 1621.15,-263.57"/>
<polygon fill="black" stroke="black" points="1624.63,-263.93 1621.89,-253.7 1617.65,-263.41 1624.63,-263.93"/>
</g>
<!-- event -->
<g id="node20" class="node">
<title>event</title>
<ellipse fill="none" stroke="black" cx="766" cy="-378" rx="29.8" ry="18"/>
<text text-anchor="middle" x="766" y="-374.3" font-family="Times,serif" font-size="14.00">event</text>
</g>
<!-- account&#45;&gt;event -->
<g id="edge22" class="edge">
<title>account&#45;&gt;event</title>
<path fill="none" stroke="black" d="M744.02,-432.05C747.23,-424.32 751.1,-414.96 754.7,-406.27"/>
<polygon fill="black" stroke="black" points="757.87,-407.77 758.47,-397.19 751.4,-405.09 757.87,-407.77"/>
</g>
<!-- coin&#45;&gt;signer -->
<g id="edge25" class="edge">
<title>coin&#45;&gt;signer</title>
<path fill="none" stroke="black" d="M1506.69,-518.32C1585.75,-508.8 1819.57,-468.97 1921,-324 1967.2,-257.96 1960.62,-222.65 1943,-144 1940.99,-135.03 1937.28,-125.78 1933.33,-117.58"/>
<polygon fill="black" stroke="black" points="1936.51,-116.11 1928.8,-108.84 1930.29,-119.33 1936.51,-116.11"/>
</g>
<!-- coin&#45;&gt;error -->
<g id="edge26" class="edge">
<title>coin&#45;&gt;error</title>
<path fill="none" stroke="black" d="M1452.62,-521.32C1319.4,-522.6 743.11,-524.79 690,-468 643.15,-417.9 687.59,-197.81 705.38,-119.1"/>
<polygon fill="black" stroke="black" points="708.73,-120.15 707.56,-109.62 701.91,-118.58 708.73,-120.15"/>
</g>
<!-- coin&#45;&gt;account -->
<g id="edge30" class="edge">
<title>coin&#45;&gt;account</title>
<path fill="none" stroke="black" d="M1453.12,-518.47C1343.42,-508.13 928.73,-469.06 785.78,-455.6"/>
<polygon fill="black" stroke="black" points="786.18,-452.12 775.89,-454.66 785.52,-459.09 786.18,-452.12"/>
</g>
<!-- coin&#45;&gt;option -->
<g id="edge23" class="edge">
<title>coin&#45;&gt;option</title>
<path fill="none" stroke="black" d="M1496.61,-507.28C1537.68,-471.61 1637.93,-372.84 1599,-288 1588.12,-264.3 1455.88,-158.48 1397.45,-112.47"/>
<polygon fill="black" stroke="black" points="1399.63,-109.73 1389.6,-106.31 1395.3,-115.24 1399.63,-109.73"/>
</g>
<!-- coin&#45;&gt;type_info -->
<g id="edge27" class="edge">
<title>coin&#45;&gt;type_info</title>
<path fill="none" stroke="black" d="M1471.28,-504.8C1445.94,-457.75 1372.14,-320.68 1340.58,-262.08"/>
<polygon fill="black" stroke="black" points="1343.74,-260.57 1335.92,-253.42 1337.58,-263.89 1343.74,-260.57"/>
</g>
<!-- coin&#45;&gt;system_addresses -->
<g id="edge28" class="edge">
<title>coin&#45;&gt;system_addresses</title>
<path fill="none" stroke="black" d="M1465.56,-506.63C1429.56,-470.79 1335.48,-377.15 1290.14,-332.02"/>
<polygon fill="black" stroke="black" points="1292.64,-329.57 1283.08,-325 1287.7,-334.53 1292.64,-329.57"/>
</g>
<!-- coin&#45;&gt;event -->
<g id="edge29" class="edge">
<title>coin&#45;&gt;event</title>
<path fill="none" stroke="black" d="M1452.82,-519.2C1385.38,-514.4 1205.13,-499.42 1058,-468 963.89,-447.9 856.37,-411.54 801.82,-392.09"/>
<polygon fill="black" stroke="black" points="803.03,-388.81 792.43,-388.73 800.66,-395.4 803.03,-388.81"/>
</g>
<!-- string -->
<g id="node21" class="node">
<title>string</title>
<ellipse fill="none" stroke="black" cx="1677" cy="-162" rx="30.59" ry="18"/>
<text text-anchor="middle" x="1677" y="-158.3" font-family="Times,serif" font-size="14.00">string</text>
</g>
<!-- coin&#45;&gt;string -->
<g id="edge24" class="edge">
<title>coin&#45;&gt;string</title>
<path fill="none" stroke="black" d="M1506.97,-518.48C1571.98,-510.79 1732,-481.44 1732,-379 1732,-379 1732,-379 1732,-305 1732,-262.1 1709.9,-216.53 1693.72,-188.92"/>
<polygon fill="black" stroke="black" points="1696.83,-187.29 1688.65,-180.55 1690.84,-190.91 1696.83,-187.29"/>
</g>
<!-- optional_aggregator -->
<g id="node22" class="node">
<title>optional_aggregator</title>
<ellipse fill="none" stroke="black" cx="1148" cy="-450" rx="81.49" ry="18"/>
<text text-anchor="middle" x="1148" y="-446.3" font-family="Times,serif" font-size="14.00">optional_aggregator</text>
</g>
<!-- coin&#45;&gt;optional_aggregator -->
<g id="edge31" class="edge">
<title>coin&#45;&gt;optional_aggregator</title>
<path fill="none" stroke="black" d="M1454.22,-515.57C1403.72,-504.92 1290.25,-480.99 1216.52,-465.45"/>
<polygon fill="black" stroke="black" points="1217.48,-462.07 1206.98,-463.43 1216.04,-468.92 1217.48,-462.07"/>
</g>
<!-- aptos_coin&#45;&gt;vector -->
<g id="edge32" class="edge">
<title>aptos_coin&#45;&gt;vector</title>
<path fill="none" stroke="black" d="M1968.7,-590.71C2010.27,-586.33 2069.28,-574.03 2108,-540 2140.31,-511.61 2146,-494.01 2146,-451 2146,-451 2146,-451 2146,-161 2146,-108.85 2099.28,-63.87 2067.3,-39.19"/>
<polygon fill="black" stroke="black" points="2069.63,-36.57 2059.53,-33.39 2065.45,-42.18 2069.63,-36.57"/>
</g>
<!-- aptos_coin&#45;&gt;signer -->
<g id="edge35" class="edge">
<title>aptos_coin&#45;&gt;signer</title>
<path fill="none" stroke="black" d="M1967.76,-589.63C2004.44,-584.52 2053.77,-571.75 2084,-540 2112.25,-510.33 2108,-491.97 2108,-451 2108,-451 2108,-451 2108,-377 2108,-260.88 1997.98,-155.87 1945.38,-112.31"/>
<polygon fill="black" stroke="black" points="1947.7,-109.69 1937.74,-106.09 1943.29,-115.12 1947.7,-109.69"/>
</g>
<!-- aptos_coin&#45;&gt;error -->
<g id="edge36" class="edge">
<title>aptos_coin&#45;&gt;error</title>
<path fill="none" stroke="black" d="M1872.54,-588.83C1706.77,-574.16 1138.17,-522.78 670,-468 414.48,-438.1 114,-564.26 114,-307 114,-307 114,-307 114,-233 114,-117.77 539.65,-95.9 672.73,-91.88"/>
<polygon fill="black" stroke="black" points="672.55,-95.38 682.45,-91.6 672.35,-88.39 672.55,-95.38"/>
</g>
<!-- aptos_coin&#45;&gt;coin -->
<g id="edge38" class="edge">
<title>aptos_coin&#45;&gt;coin</title>
<path fill="none" stroke="black" d="M1875.8,-585.97C1789.17,-572.19 1598.47,-541.85 1517.52,-528.97"/>
<polygon fill="black" stroke="black" points="1518.09,-525.52 1507.67,-527.4 1516.99,-532.43 1518.09,-525.52"/>
</g>
<!-- aptos_coin&#45;&gt;option -->
<g id="edge33" class="edge">
<title>aptos_coin&#45;&gt;option</title>
<path fill="none" stroke="black" d="M1951.81,-579.95C1995.84,-559.53 2070,-515.55 2070,-451 2070,-451 2070,-451 2070,-377 2070,-201.79 1919.95,-193.91 1752,-144 1633.45,-108.77 1487.1,-96.79 1414.78,-92.84"/>
<polygon fill="black" stroke="black" points="1415.09,-89.36 1404.93,-92.34 1414.73,-96.35 1415.09,-89.36"/>
</g>
<!-- aptos_coin&#45;&gt;system_addresses -->
<g id="edge37" class="edge">
<title>aptos_coin&#45;&gt;system_addresses</title>
<path fill="none" stroke="black" d="M1889.29,-579.59C1783.73,-533.5 1435.48,-381.44 1310.31,-326.78"/>
<polygon fill="black" stroke="black" points="1311.89,-323.66 1301.33,-322.86 1309.09,-330.07 1311.89,-323.66"/>
</g>
<!-- aptos_coin&#45;&gt;string -->
<g id="edge34" class="edge">
<title>aptos_coin&#45;&gt;string</title>
<path fill="none" stroke="black" d="M1935.33,-576.53C1957.01,-551.47 1994,-501.32 1994,-451 1994,-451 1994,-451 1994,-377 1994,-244.95 1802.72,-188.92 1717.33,-170.49"/>
<polygon fill="black" stroke="black" points="1718.24,-167.1 1707.74,-168.49 1716.81,-173.96 1718.24,-167.1"/>
</g>
<!-- simple_map&#45;&gt;error -->
<g id="edge40" class="edge">
<title>simple_map&#45;&gt;error</title>
<path fill="none" stroke="black" d="M186.83,-360.05C177.22,-341.72 165.71,-311.92 176,-288 194.38,-245.26 212.86,-241.16 252,-216 389.65,-127.5 589.1,-101.14 672.76,-93.73"/>
<polygon fill="black" stroke="black" points="672.82,-97.23 682.5,-92.91 672.24,-90.26 672.82,-97.23"/>
</g>
<!-- simple_map&#45;&gt;option -->
<g id="edge39" class="edge">
<title>simple_map&#45;&gt;option</title>
<path fill="none" stroke="black" d="M200.33,-359.78C204.96,-340.1 215.11,-308.03 235,-288 348.05,-174.17 410.1,-181.84 566,-144 711.92,-108.59 1178.54,-95.3 1325.34,-91.93"/>
<polygon fill="black" stroke="black" points="1325.12,-95.43 1335.04,-91.71 1324.96,-88.44 1325.12,-95.43"/>
</g>
<!-- comparator -->
<g id="node23" class="node">
<title>comparator</title>
<ellipse fill="none" stroke="black" cx="307" cy="-306" rx="51.19" ry="18"/>
<text text-anchor="middle" x="307" y="-302.3" font-family="Times,serif" font-size="14.00">comparator</text>
</g>
<!-- simple_map&#45;&gt;comparator -->
<g id="edge41" class="edge">
<title>simple_map&#45;&gt;comparator</title>
<path fill="none" stroke="black" d="M221.41,-361.46C236.76,-351.7 256.76,-338.97 273.57,-328.28"/>
<polygon fill="black" stroke="black" points="275.2,-331.39 281.76,-323.06 271.44,-325.48 275.2,-331.39"/>
</g>
<!-- code&#45;&gt;vector -->
<g id="edge42" class="edge">
<title>code&#45;&gt;vector</title>
<path fill="none" stroke="black" d="M1813.02,-371.96C1842.08,-365.23 1889.19,-350.9 1921,-324 2006.69,-251.54 2029.81,-108.88 2035.9,-47.83"/>
<polygon fill="black" stroke="black" points="2039.38,-48.2 2036.79,-37.93 2032.4,-47.57 2039.38,-48.2"/>
</g>
<!-- code&#45;&gt;signer -->
<g id="edge45" class="edge">
<title>code&#45;&gt;signer</title>
<path fill="none" stroke="black" d="M1813.19,-372.4C1839.59,-366.27 1879.18,-352.66 1899,-324 1942.11,-261.67 1932.44,-166.29 1924.05,-119.24"/>
<polygon fill="black" stroke="black" points="1927.52,-118.76 1922.2,-109.6 1920.64,-120.08 1927.52,-118.76"/>
</g>
<!-- code&#45;&gt;error -->
<g id="edge46" class="edge">
<title>code&#45;&gt;error</title>
<path fill="none" stroke="black" d="M1759.98,-374.5C1703.64,-368.87 1569.79,-353.34 1461,-324 1374.61,-300.7 1354.23,-289.51 1273,-252 1181.99,-209.98 1170.08,-175.74 1075,-144 961.59,-106.14 819.31,-95.31 751.48,-92.22"/>
<polygon fill="black" stroke="black" points="751.74,-88.73 741.61,-91.81 751.45,-95.72 751.74,-88.73"/>
</g>
<!-- code&#45;&gt;option -->
<g id="edge43" class="edge">
<title>code&#45;&gt;option</title>
<path fill="none" stroke="black" d="M1790.52,-359.82C1793.66,-341.81 1797.17,-312.74 1793,-288 1780.96,-216.64 1778.58,-182.01 1717,-144 1667.2,-113.26 1496.82,-98.81 1414.81,-93.51"/>
<polygon fill="black" stroke="black" points="1415.09,-90.03 1404.89,-92.89 1414.65,-97.01 1415.09,-90.03"/>
</g>
<!-- code&#45;&gt;system_addresses -->
<g id="edge48" class="edge">
<title>code&#45;&gt;system_addresses</title>
<path fill="none" stroke="black" d="M1760.4,-373.43C1683.31,-363.1 1457.79,-332.85 1339.45,-316.98"/>
<polygon fill="black" stroke="black" points="1340.22,-313.56 1329.84,-315.7 1339.29,-320.49 1340.22,-313.56"/>
</g>
<!-- code&#45;&gt;string -->
<g id="edge44" class="edge">
<title>code&#45;&gt;string</title>
<path fill="none" stroke="black" d="M1786.24,-359.54C1784.13,-328.28 1776.15,-261.76 1746,-216 1736.57,-201.69 1721.95,-189.65 1708.58,-180.69"/>
<polygon fill="black" stroke="black" points="1710.76,-177.92 1700.45,-175.52 1707.01,-183.83 1710.76,-177.92"/>
</g>
<!-- features -->
<g id="node24" class="node">
<title>features</title>
<ellipse fill="none" stroke="black" cx="1370" cy="-162" rx="38.19" ry="18"/>
<text text-anchor="middle" x="1370" y="-158.3" font-family="Times,serif" font-size="14.00">features</text>
</g>
<!-- code&#45;&gt;features -->
<g id="edge47" class="edge">
<title>code&#45;&gt;features</title>
<path fill="none" stroke="black" d="M1780.6,-360.27C1766.85,-326.81 1731.13,-251.78 1675,-216 1633.24,-189.38 1493.54,-173.62 1418.56,-166.88"/>
<polygon fill="black" stroke="black" points="1419.32,-163.43 1409.05,-166.05 1418.71,-170.41 1419.32,-163.43"/>
</g>
<!-- util -->
<g id="node25" class="node">
<title>util</title>
<ellipse fill="none" stroke="black" cx="1863" cy="-306" rx="27" ry="18"/>
<text text-anchor="middle" x="1863" y="-302.3" font-family="Times,serif" font-size="14.00">util</text>
</g>
<!-- code&#45;&gt;util -->
<g id="edge49" class="edge">
<title>code&#45;&gt;util</title>
<path fill="none" stroke="black" d="M1802.38,-362.83C1812.99,-353.06 1827.3,-339.88 1839.35,-328.78"/>
<polygon fill="black" stroke="black" points="1841.55,-331.52 1846.53,-322.17 1836.8,-326.37 1841.55,-331.52"/>
</g>
<!-- copyable_any -->
<g id="node26" class="node">
<title>copyable_any</title>
<ellipse fill="none" stroke="black" cx="1530" cy="-306" rx="59.59" ry="18"/>
<text text-anchor="middle" x="1530" y="-302.3" font-family="Times,serif" font-size="14.00">copyable_any</text>
</g>
<!-- code&#45;&gt;copyable_any -->
<g id="edge50" class="edge">
<title>code&#45;&gt;copyable_any</title>
<path fill="none" stroke="black" d="M1762.36,-370.29C1721.57,-359.18 1639.09,-336.71 1584.19,-321.76"/>
<polygon fill="black" stroke="black" points="1585.29,-318.43 1574.72,-319.18 1583.45,-325.19 1585.29,-318.43"/>
</g>
<!-- option&#45;&gt;vector -->
<g id="edge51" class="edge">
<title>option&#45;&gt;vector</title>
<path fill="none" stroke="black" d="M1402.67,-85.58C1512.8,-74.04 1870.47,-36.56 1994.88,-23.52"/>
<polygon fill="black" stroke="black" points="1995.09,-27.02 2004.67,-22.49 1994.36,-20.05 1995.09,-27.02"/>
</g>
<!-- type_info&#45;&gt;error -->
<g id="edge53" class="edge">
<title>type_info&#45;&gt;error</title>
<path fill="none" stroke="black" d="M1309.94,-216.88C1288.09,-196.06 1246.8,-160.54 1204,-144 1121.43,-112.09 852.94,-97.21 751.39,-92.62"/>
<polygon fill="black" stroke="black" points="751.8,-89.13 741.65,-92.19 751.49,-96.13 751.8,-89.13"/>
</g>
<!-- type_info&#45;&gt;string -->
<g id="edge52" class="edge">
<title>type_info&#45;&gt;string</title>
<path fill="none" stroke="black" d="M1365.24,-225.17C1432.55,-211.75 1569.28,-184.48 1637.06,-170.97"/>
<polygon fill="black" stroke="black" points="1637.5,-174.45 1646.62,-169.06 1636.13,-167.58 1637.5,-174.45"/>
</g>
<!-- type_info&#45;&gt;features -->
<g id="edge54" class="edge">
<title>type_info&#45;&gt;features</title>
<path fill="none" stroke="black" d="M1336.65,-216.05C1341.68,-208.06 1347.79,-198.33 1353.41,-189.4"/>
<polygon fill="black" stroke="black" points="1356.28,-191.4 1358.64,-181.07 1350.36,-187.67 1356.28,-191.4"/>
</g>
<!-- system_addresses&#45;&gt;signer -->
<g id="edge55" class="edge">
<title>system_addresses&#45;&gt;signer</title>
<path fill="none" stroke="black" d="M1304.01,-290.31C1326.78,-280.91 1355.54,-267.57 1379,-252 1438.5,-212.5 1433.12,-173.86 1498,-144 1564.35,-113.47 1780.83,-98.4 1874.33,-93.19"/>
<polygon fill="black" stroke="black" points="1874.33,-96.69 1884.12,-92.65 1873.95,-89.7 1874.33,-96.69"/>
</g>
<!-- system_addresses&#45;&gt;error -->
<g id="edge56" class="edge">
<title>system_addresses&#45;&gt;error</title>
<path fill="none" stroke="black" d="M1246.48,-288.35C1208.31,-255.04 1116.83,-180.28 1026,-144 932.14,-106.51 812.21,-95.54 751.3,-92.33"/>
<polygon fill="black" stroke="black" points="751.6,-88.84 741.45,-91.85 751.27,-95.83 751.6,-88.84"/>
</g>
<!-- ed25519&#45;&gt;error -->
<g id="edge58" class="edge">
<title>ed25519&#45;&gt;error</title>
<path fill="none" stroke="black" d="M534.14,-287.67C538.2,-268.75 546.63,-238.2 562,-216 594.27,-169.4 648.37,-130.35 682.02,-108.86"/>
<polygon fill="black" stroke="black" points="683.86,-111.85 690.48,-103.58 680.15,-105.91 683.86,-111.85"/>
</g>
<!-- ed25519&#45;&gt;option -->
<g id="edge57" class="edge">
<title>ed25519&#45;&gt;option</title>
<path fill="none" stroke="black" d="M539,-288.12C549.28,-268.15 568.96,-235.2 595,-216 676.11,-156.2 711.42,-164.88 810,-144 998.7,-104.03 1229.57,-94.19 1325.21,-91.78"/>
<polygon fill="black" stroke="black" points="1325.03,-95.28 1334.95,-91.55 1324.87,-88.28 1325.03,-95.28"/>
</g>
<!-- ed25519&#45;&gt;type_info -->
<g id="edge59" class="edge">
<title>ed25519&#45;&gt;type_info</title>
<path fill="none" stroke="black" d="M570.41,-300.7C603.62,-297.12 652.39,-292 695,-288 908.06,-268.01 1161.94,-247.78 1271.37,-239.23"/>
<polygon fill="black" stroke="black" points="1271.54,-242.73 1281.24,-238.46 1271,-235.75 1271.54,-242.73"/>
</g>
<!-- ed25519&#45;&gt;hash -->
<g id="edge60" class="edge">
<title>ed25519&#45;&gt;hash</title>
<path fill="none" stroke="black" d="M511.28,-290.15C497.59,-279.85 479.21,-266.01 464.28,-254.78"/>
<polygon fill="black" stroke="black" points="466.8,-252.3 456.71,-249.08 462.59,-257.89 466.8,-252.3"/>
</g>
<!-- ed25519&#45;&gt;bcs -->
<g id="edge61" class="edge">
<title>ed25519&#45;&gt;bcs</title>
<path fill="none" stroke="black" d="M552.21,-290.15C567.26,-279.62 587.58,-265.39 603.82,-254.02"/>
<polygon fill="black" stroke="black" points="605.41,-257.18 611.6,-248.58 601.4,-251.45 605.41,-257.18"/>
</g>
<!-- multi_ed25519&#45;&gt;error -->
<g id="edge63" class="edge">
<title>multi_ed25519&#45;&gt;error</title>
<path fill="none" stroke="black" d="M462.44,-360.45C429.28,-330.37 368.73,-265.28 402,-216 463.69,-124.61 604.58,-100.02 673.12,-93.42"/>
<polygon fill="black" stroke="black" points="673.09,-96.93 682.75,-92.57 672.48,-89.96 673.09,-96.93"/>
</g>
<!-- multi_ed25519&#45;&gt;option -->
<g id="edge62" class="edge">
<title>multi_ed25519&#45;&gt;option</title>
<path fill="none" stroke="black" d="M477.83,-359.8C474.21,-341.26 470.99,-311.28 481,-288 520.13,-197.04 558.46,-179.22 651,-144 775.18,-96.74 1187.92,-91.42 1325.18,-90.98"/>
<polygon fill="black" stroke="black" points="1324.96,-94.48 1334.95,-90.95 1324.94,-87.48 1324.96,-94.48"/>
</g>
<!-- multi_ed25519&#45;&gt;hash -->
<g id="edge64" class="edge">
<title>multi_ed25519&#45;&gt;hash</title>
<path fill="none" stroke="black" d="M468.51,-360.39C461.18,-350.44 452.68,-337.19 448,-324 441.11,-304.59 438.67,-281.45 437.93,-263.62"/>
<polygon fill="black" stroke="black" points="441.43,-263.67 437.68,-253.76 434.43,-263.84 441.43,-263.67"/>
</g>
<!-- multi_ed25519&#45;&gt;bcs -->
<g id="edge65" class="edge">
<title>multi_ed25519&#45;&gt;bcs</title>
<path fill="none" stroke="black" d="M519.57,-362.97C539.58,-354.09 563.59,-341.06 581,-324 598.78,-306.58 612.1,-281.49 620.5,-262.39"/>
<polygon fill="black" stroke="black" points="623.66,-263.9 624.29,-253.33 617.2,-261.2 623.66,-263.9"/>
</g>
<!-- multi_ed25519&#45;&gt;ed25519 -->
<g id="edge66" class="edge">
<title>multi_ed25519&#45;&gt;ed25519</title>
<path fill="none" stroke="black" d="M493.86,-360.05C499.6,-351.85 506.62,-341.83 513,-332.71"/>
<polygon fill="black" stroke="black" points="515.85,-334.75 518.72,-324.55 510.12,-330.73 515.85,-334.75"/>
</g>
<!-- from_bcs&#45;&gt;string -->
<g id="edge67" class="edge">
<title>from_bcs&#45;&gt;string</title>
<path fill="none" stroke="black" d="M1635.03,-216.41C1641.8,-207.8 1650.2,-197.11 1657.7,-187.56"/>
<polygon fill="black" stroke="black" points="1660.45,-189.73 1663.88,-179.7 1654.95,-185.4 1660.45,-189.73"/>
</g>
<!-- event&#45;&gt;bcs -->
<g id="edge68" class="edge">
<title>event&#45;&gt;bcs</title>
<path fill="none" stroke="black" d="M771.56,-359.93C776.7,-340.69 781.56,-309.3 767,-288 745.22,-256.14 701.22,-243.43 669.15,-238.36"/>
<polygon fill="black" stroke="black" points="669.82,-234.92 659.44,-237.02 668.86,-241.85 669.82,-234.92"/>
</g>
<!-- event&#45;&gt;guid -->
<g id="edge69" class="edge">
<title>event&#45;&gt;guid</title>
<path fill="none" stroke="black" d="M757.71,-360.41C753.7,-352.39 748.78,-342.57 744.27,-333.54"/>
<polygon fill="black" stroke="black" points="747.51,-332.2 739.91,-324.82 741.25,-335.33 747.51,-332.2"/>
</g>
<!-- string&#45;&gt;vector -->
<g id="edge70" class="edge">
<title>string&#45;&gt;vector</title>
<path fill="none" stroke="black" d="M1700.08,-149.82C1736.98,-132.14 1811.76,-97.18 1877,-72 1918.01,-56.17 1965.98,-40.77 1998.83,-30.68"/>
<polygon fill="black" stroke="black" points="1999.78,-34.05 2008.33,-27.79 1997.74,-27.36 1999.78,-34.05"/>
</g>
<!-- string&#45;&gt;option -->
<g id="edge71" class="edge">
<title>string&#45;&gt;option</title>
<path fill="none" stroke="black" d="M1648.67,-154.54C1594.17,-142.11 1474.54,-114.84 1411.21,-100.4"/>
<polygon fill="black" stroke="black" points="1412.07,-97 1401.54,-98.19 1410.51,-103.83 1412.07,-97"/>
</g>
<!-- optional_aggregator&#45;&gt;error -->
<g id="edge73" class="edge">
<title>optional_aggregator&#45;&gt;error</title>
<path fill="none" stroke="black" d="M1078.28,-440.33C1040.05,-433.06 993.21,-419.85 957,-396 843.52,-321.27 757.79,-177.09 725.73,-117.63"/>
<polygon fill="black" stroke="black" points="728.87,-116.08 721.09,-108.89 722.69,-119.36 728.87,-116.08"/>
</g>
<!-- optional_aggregator&#45;&gt;option -->
<g id="edge72" class="edge">
<title>optional_aggregator&#45;&gt;option</title>
<path fill="none" stroke="black" d="M1148.74,-431.51C1150.69,-400.77 1157.71,-335.78 1183,-288 1223,-212.4 1300.19,-145.04 1341.79,-112.19"/>
<polygon fill="black" stroke="black" points="1343.89,-114.99 1349.63,-106.08 1339.59,-109.46 1343.89,-114.99"/>
</g>
<!-- aggregator -->
<g id="node27" class="node">
<title>aggregator</title>
<ellipse fill="none" stroke="black" cx="1088" cy="-306" rx="48.19" ry="18"/>
<text text-anchor="middle" x="1088" y="-302.3" font-family="Times,serif" font-size="14.00">aggregator</text>
</g>
<!-- optional_aggregator&#45;&gt;aggregator -->
<g id="edge74" class="edge">
<title>optional_aggregator&#45;&gt;aggregator</title>
<path fill="none" stroke="black" d="M1146.59,-431.55C1144.58,-413.06 1139.84,-383.36 1129,-360 1124.45,-350.19 1117.79,-340.51 1111.16,-332.16"/>
<polygon fill="black" stroke="black" points="1113.87,-329.95 1104.77,-324.53 1108.51,-334.44 1113.87,-329.95"/>
</g>
<!-- aggregator_factory -->
<g id="node28" class="node">
<title>aggregator_factory</title>
<ellipse fill="none" stroke="black" cx="1043" cy="-378" rx="77.19" ry="18"/>
<text text-anchor="middle" x="1043" y="-374.3" font-family="Times,serif" font-size="14.00">aggregator_factory</text>
</g>
<!-- optional_aggregator&#45;&gt;aggregator_factory -->
<g id="edge75" class="edge">
<title>optional_aggregator&#45;&gt;aggregator_factory</title>
<path fill="none" stroke="black" d="M1123.12,-432.41C1109.39,-423.26 1092.13,-411.76 1077.16,-401.77"/>
<polygon fill="black" stroke="black" points="1079.23,-398.94 1068.96,-396.31 1075.34,-404.77 1079.23,-398.94"/>
</g>
<!-- comparator&#45;&gt;bcs -->
<g id="edge76" class="edge">
<title>comparator&#45;&gt;bcs</title>
<path fill="none" stroke="black" d="M349.69,-295.78C413.81,-281.92 533.87,-255.98 594.29,-242.93"/>
<polygon fill="black" stroke="black" points="595.03,-246.35 604.06,-240.82 593.55,-239.51 595.03,-246.35"/>
</g>
<!-- features&#45;&gt;signer -->
<g id="edge77" class="edge">
<title>features&#45;&gt;signer</title>
<path fill="none" stroke="black" d="M1399.4,-150.2C1406.71,-147.85 1414.57,-145.59 1422,-144 1586.54,-108.72 1787.07,-96.46 1874.15,-92.6"/>
<polygon fill="black" stroke="black" points="1874.07,-96.11 1883.91,-92.19 1873.77,-89.12 1874.07,-96.11"/>
</g>
<!-- features&#45;&gt;error -->
<g id="edge78" class="edge">
<title>features&#45;&gt;error</title>
<path fill="none" stroke="black" d="M1340.62,-150.1C1333.31,-147.75 1325.44,-145.52 1318,-144 1107.42,-100.96 848.67,-92.86 751.42,-91.34"/>
<polygon fill="black" stroke="black" points="751.67,-87.85 741.62,-91.21 751.58,-94.85 751.67,-87.85"/>
</g>
<!-- copyable_any&#45;&gt;error -->
<g id="edge80" class="edge">
<title>copyable_any&#45;&gt;error</title>
<path fill="none" stroke="black" d="M1504.17,-289.4C1439.83,-250.65 1275.6,-152.55 1248,-144 1155.02,-115.18 858.77,-98.18 751.37,-92.84"/>
<polygon fill="black" stroke="black" points="751.77,-89.36 741.62,-92.36 751.43,-96.35 751.77,-89.36"/>
</g>
<!-- copyable_any&#45;&gt;type_info -->
<g id="edge81" class="edge">
<title>copyable_any&#45;&gt;type_info</title>
<path fill="none" stroke="black" d="M1491.63,-291.83C1457.01,-279.95 1406.1,-262.49 1369.88,-250.06"/>
<polygon fill="black" stroke="black" points="1371.17,-246.8 1360.57,-246.86 1368.89,-253.42 1371.17,-246.8"/>
</g>
<!-- copyable_any&#45;&gt;bcs -->
<g id="edge82" class="edge">
<title>copyable_any&#45;&gt;bcs</title>
<path fill="none" stroke="black" d="M1473.96,-299.52C1437.75,-296.05 1389.61,-291.56 1347,-288 1088.36,-266.42 776.77,-244.88 669.48,-237.59"/>
<polygon fill="black" stroke="black" points="669.72,-234.1 659.51,-236.92 669.25,-241.09 669.72,-234.1"/>
</g>
<!-- copyable_any&#45;&gt;from_bcs -->
<g id="edge83" class="edge">
<title>copyable_any&#45;&gt;from_bcs</title>
<path fill="none" stroke="black" d="M1551.34,-288.76C1563.67,-279.38 1579.37,-267.44 1592.83,-257.2"/>
<polygon fill="black" stroke="black" points="1594.68,-260.18 1600.52,-251.34 1590.44,-254.61 1594.68,-260.18"/>
</g>
<!-- copyable_any&#45;&gt;string -->
<g id="edge79" class="edge">
<title>copyable_any&#45;&gt;string</title>
<path fill="none" stroke="black" d="M1533.8,-287.59C1538.85,-268.02 1549.51,-236.35 1569,-216 1588.12,-196.04 1616.33,-182.55 1639.13,-174.18"/>
<polygon fill="black" stroke="black" points="1640.09,-177.55 1648.39,-170.97 1637.8,-170.94 1640.09,-177.55"/>
</g>
<!-- aggregator_factory&#45;&gt;error -->
<g id="edge84" class="edge">
<title>aggregator_factory&#45;&gt;error</title>
<path fill="none" stroke="black" d="M1036.13,-359.82C1027.9,-340.76 1012.74,-309.81 993,-288 917.13,-204.17 799.33,-136.37 743.46,-106.9"/>
<polygon fill="black" stroke="black" points="745.28,-103.91 734.8,-102.39 742.05,-110.11 745.28,-103.91"/>
</g>
<!-- aggregator_factory&#45;&gt;table -->
<g id="edge85" class="edge">
<title>aggregator_factory&#45;&gt;table</title>
<path fill="none" stroke="black" d="M1022.38,-360.41C1010.25,-350.65 994.8,-338.22 981.86,-327.81"/>
<polygon fill="black" stroke="black" points="984.13,-325.14 974.14,-321.6 979.74,-330.59 984.13,-325.14"/>
</g>
<!-- aggregator_factory&#45;&gt;system_addresses -->
<g id="edge86" class="edge">
<title>aggregator_factory&#45;&gt;system_addresses</title>
<path fill="none" stroke="black" d="M1087.66,-362.92C1123.04,-351.76 1172.62,-336.13 1210.36,-324.23"/>
<polygon fill="black" stroke="black" points="1211.24,-327.62 1219.73,-321.28 1209.14,-320.94 1211.24,-327.62"/>
</g>
<!-- aggregator_factory&#45;&gt;aggregator -->
<g id="edge87" class="edge">
<title>aggregator_factory&#45;&gt;aggregator</title>
<path fill="none" stroke="black" d="M1054.12,-359.7C1059.27,-351.7 1065.49,-342.02 1071.19,-333.15"/>
<polygon fill="black" stroke="black" points="1074.03,-335.2 1076.5,-324.9 1068.14,-331.41 1074.03,-335.2"/>
</g>
</g>
</svg>
