<?xml version="1.0" encoding="UTF-8" standalone="no"?>
<!DOCTYPE svg PUBLIC "-//W3C//DTD SVG 1.1//EN"
 "http://www.w3.org/Graphics/SVG/1.1/DTD/svg11.dtd">
<!-- Generated by graphviz version 7.0.0 (20221023.0053)
 -->
<!-- Title: G Pages: 1 -->
<svg width="2687pt" height="517pt"
 viewBox="0.00 0.00 2686.66 517.00" xmlns="http://www.w3.org/2000/svg" xmlns:xlink="http://www.w3.org/1999/xlink">
<g id="graph0" class="graph" transform="scale(1 1) rotate(0) translate(4 513)">
<title>G</title>
<polygon fill="white" stroke="none" points="-4,4 -4,-513 2682.66,-513 2682.66,4 -4,4"/>
<g id="clust1" class="cluster">
<title>cluster_account</title>
<polygon fill="none" stroke="black" points="1072.66,-163 1072.66,-393 1834.66,-393 1834.66,-163 1072.66,-163"/>
<text text-anchor="middle" x="1453.66" y="-377.8" font-family="Times,serif" font-size="14.00">account</text>
</g>
<g id="clust2" class="cluster">
<title>cluster_option</title>
<polygon fill="none" stroke="black" points="285.66,-80 285.66,-238 616.66,-238 616.66,-80 285.66,-80"/>
<text text-anchor="middle" x="451.16" y="-222.8" font-family="Times,serif" font-size="14.00">option</text>
</g>
<g id="clust3" class="cluster">
<title>cluster_signer</title>
<polygon fill="none" stroke="black" points="1968.66,-80 1968.66,-238 2118.66,-238 2118.66,-80 1968.66,-80"/>
<text text-anchor="middle" x="2043.66" y="-222.8" font-family="Times,serif" font-size="14.00">signer</text>
</g>
<g id="clust4" class="cluster">
<title>cluster_error</title>
<polygon fill="none" stroke="black" points="2126.66,-80 2126.66,-238 2670.66,-238 2670.66,-80 2126.66,-80"/>
<text text-anchor="middle" x="2398.66" y="-222.8" font-family="Times,serif" font-size="14.00">error</text>
</g>
<g id="clust5" class="cluster">
<title>cluster_vector</title>
<polygon fill="none" stroke="black" points="728.66,-8 728.66,-155 922.66,-155 922.66,-8 728.66,-8"/>
<text text-anchor="middle" x="825.66" y="-139.8" font-family="Times,serif" font-size="14.00">vector</text>
</g>
<g id="clust6" class="cluster">
<title>cluster_simple_map</title>
<polygon fill="none" stroke="black" points="469.66,-246 469.66,-393 621.66,-393 621.66,-246 469.66,-246"/>
<text text-anchor="middle" x="545.66" y="-377.8" font-family="Times,serif" font-size="14.00">simple_map</text>
</g>
<g id="clust7" class="cluster">
<title>cluster_bcs</title>
<polygon fill="none" stroke="black" points="624.66,-80 624.66,-155 720.66,-155 720.66,-80 624.66,-80"/>
<text text-anchor="middle" x="672.66" y="-139.8" font-family="Times,serif" font-size="14.00">bcs</text>
</g>
<g id="clust8" class="cluster">
<title>cluster_guid</title>
<polygon fill="none" stroke="black" points="694.66,-163 694.66,-238 774.66,-238 774.66,-163 694.66,-163"/>
<text text-anchor="middle" x="734.66" y="-222.8" font-family="Times,serif" font-size="14.00">guid</text>
</g>
<g id="clust9" class="cluster">
<title>cluster_event</title>
<polygon fill="none" stroke="black" points="782.66,-163 782.66,-238 952.66,-238 952.66,-163 782.66,-163"/>
<text text-anchor="middle" x="867.66" y="-222.8" font-family="Times,serif" font-size="14.00">event</text>
</g>
<g id="clust10" class="cluster">
<title>cluster_hash</title>
<polygon fill="none" stroke="black" points="960.66,-163 960.66,-238 1064.66,-238 1064.66,-163 960.66,-163"/>
<text text-anchor="middle" x="1012.66" y="-222.8" font-family="Times,serif" font-size="14.00">hash</text>
</g>
<g id="clust11" class="cluster">
<title>cluster_from_bcs</title>
<polygon fill="none" stroke="black" points="1842.66,-80 1842.66,-238 1960.66,-238 1960.66,-80 1842.66,-80"/>
<text text-anchor="middle" x="1901.66" y="-222.8" font-family="Times,serif" font-size="14.00">from_bcs</text>
</g>
<g id="clust12" class="cluster">
<title>cluster_comparator</title>
<polygon fill="none" stroke="black" points="25.66,-80 25.66,-238 277.66,-238 277.66,-80 25.66,-80"/>
<text text-anchor="middle" x="151.66" y="-222.8" font-family="Times,serif" font-size="14.00">comparator</text>
</g>
<!-- create_resource_account -->
<g id="node1" class="node">
<title>create_resource_account</title>
<ellipse fill="none" stroke="black" cx="1228.66" cy="-491" rx="97.48" ry="18"/>
<text text-anchor="middle" x="1228.66" y="-487.3" font-family="Times,serif" font-size="14.00">create_resource_account</text>
</g>
<!-- account::create_resource_account -->
<g id="node2" class="node">
<title>account::create_resource_account</title>
<ellipse fill="none" stroke="black" cx="1521.66" cy="-344" rx="97.48" ry="18"/>
<text text-anchor="middle" x="1521.66" y="-340.3" font-family="Times,serif" font-size="14.00">create_resource_account</text>
</g>
<!-- create_resource_account&#45;&gt;account::create_resource_account -->
<g id="edge1" class="edge">
<title>create_resource_account&#45;&gt;account::create_resource_account</title>
<path fill="none" stroke="black" d="M1261.7,-473.65C1314.92,-447.31 1419.64,-395.49 1478.63,-366.29"/>
<polygon fill="black" stroke="black" points="1479.97,-369.54 1487.38,-361.96 1476.86,-363.26 1479.97,-369.54"/>
</g>
<!-- rotate_account_authentication_key_and_store_capability -->
<g id="node3" class="node">
<title>rotate_account_authentication_key_and_store_capability</title>
<ellipse fill="none" stroke="black" cx="1109.66" cy="-419" rx="211.46" ry="18"/>
<text text-anchor="middle" x="1109.66" y="-415.3" font-family="Times,serif" font-size="14.00">rotate_account_authentication_key_and_store_capability</text>
</g>
<!-- create_resource_account&#45;&gt;rotate_account_authentication_key_and_store_capability -->
<g id="edge2" class="edge">
<title>create_resource_account&#45;&gt;rotate_account_authentication_key_and_store_capability</title>
<path fill="none" stroke="black" d="M1200.45,-473.41C1184.94,-464.29 1165.46,-452.83 1148.53,-442.86"/>
<polygon fill="black" stroke="black" points="1150.6,-440.02 1140.2,-437.97 1147.05,-446.06 1150.6,-440.02"/>
</g>
<!-- option::is_none -->
<g id="node4" class="node">
<title>option::is_none</title>
<ellipse fill="none" stroke="black" cx="331.66" cy="-189" rx="38.19" ry="18"/>
<text text-anchor="middle" x="331.66" y="-185.3" font-family="Times,serif" font-size="14.00">is_none</text>
</g>
<!-- account::create_resource_account&#45;&gt;option::is_none -->
<g id="edge3" class="edge">
<title>account::create_resource_account&#45;&gt;option::is_none</title>
<path fill="none" stroke="black" d="M1436.06,-335C1403.68,-332.05 1366.48,-328.76 1332.66,-326 1114.13,-308.18 1057.84,-320.04 840.66,-290 744.04,-276.64 722.52,-257.4 625.66,-246 598.5,-242.8 404.75,-248.87 379.66,-238 368.3,-233.08 358.19,-224.12 350.2,-215.26"/>
<polygon fill="black" stroke="black" points="353.03,-213.19 343.94,-207.76 347.66,-217.67 353.03,-213.19"/>
</g>
<!-- option::some -->
<g id="node5" class="node">
<title>option::some</title>
<ellipse fill="none" stroke="black" cx="504.66" cy="-189" rx="29.8" ry="18"/>
<text text-anchor="middle" x="504.66" y="-185.3" font-family="Times,serif" font-size="14.00">some</text>
</g>
<!-- account::create_resource_account&#45;&gt;option::some -->
<g id="edge4" class="edge">
<title>account::create_resource_account&#45;&gt;option::some</title>
<path fill="none" stroke="black" d="M1436.82,-334.82C1346.17,-325.66 1198.39,-309.51 1071.66,-290 968.36,-274.1 944.56,-257.22 840.66,-246 824.25,-244.23 558.46,-245.29 543.66,-238 533.86,-233.17 525.69,-224.6 519.4,-216.03"/>
<polygon fill="black" stroke="black" points="522.39,-214.21 513.95,-207.8 516.56,-218.07 522.39,-214.21"/>
</g>
<!-- signer::address_of -->
<g id="node6" class="node">
<title>signer::address_of</title>
<ellipse fill="none" stroke="black" cx="2025.66" cy="-189" rx="48.99" ry="18"/>
<text text-anchor="middle" x="2025.66" y="-185.3" font-family="Times,serif" font-size="14.00">address_of</text>
</g>
<!-- account::create_resource_account&#45;&gt;signer::address_of -->
<g id="edge5" class="edge">
<title>account::create_resource_account&#45;&gt;signer::address_of</title>
<path fill="none" stroke="black" d="M1606.32,-334.72C1670.31,-327.03 1759.78,-313.18 1835.66,-290 1880.93,-276.17 1887.96,-261.58 1932.66,-246 1946.5,-241.17 1951.49,-244.45 1964.66,-238 1977.48,-231.71 1990.14,-222.41 2000.57,-213.66"/>
<polygon fill="black" stroke="black" points="2002.74,-216.41 2007.97,-207.2 1998.14,-211.14 2002.74,-216.41"/>
</g>
<!-- error::already_exists -->
<g id="node7" class="node">
<title>error::already_exists</title>
<ellipse fill="none" stroke="black" cx="2471.66" cy="-189" rx="61.19" ry="18"/>
<text text-anchor="middle" x="2471.66" y="-185.3" font-family="Times,serif" font-size="14.00">already_exists</text>
</g>
<!-- account::create_resource_account&#45;&gt;error::already_exists -->
<g id="edge6" class="edge">
<title>account::create_resource_account&#45;&gt;error::already_exists</title>
<path fill="none" stroke="black" d="M1612.15,-337C1712.47,-329.31 1867.19,-314 1920.66,-290 1947.97,-277.74 1943.69,-256.69 1971.66,-246 2016.29,-228.93 2356.15,-252.57 2401.66,-238 2417.42,-232.95 2432.84,-223.09 2445.17,-213.61"/>
<polygon fill="black" stroke="black" points="2447.19,-216.48 2452.77,-207.47 2442.79,-211.03 2447.19,-216.48"/>
</g>
<!-- error::invalid_state -->
<g id="node8" class="node">
<title>error::invalid_state</title>
<ellipse fill="none" stroke="black" cx="2606.66" cy="-189" rx="55.79" ry="18"/>
<text text-anchor="middle" x="2606.66" y="-185.3" font-family="Times,serif" font-size="14.00">invalid_state</text>
</g>
<!-- account::create_resource_account&#45;&gt;error::invalid_state -->
<g id="edge7" class="edge">
<title>account::create_resource_account&#45;&gt;error::invalid_state</title>
<path fill="none" stroke="black" d="M1616.69,-339.6C1836.51,-330.72 2374.08,-302.87 2541.66,-238 2555.86,-232.5 2569.71,-223.03 2580.95,-213.95"/>
<polygon fill="black" stroke="black" points="2583.21,-216.62 2588.58,-207.48 2578.69,-211.28 2583.21,-216.62"/>
</g>
<!-- account::create_account_unchecked -->
<g id="node9" class="node">
<title>account::create_account_unchecked</title>
<ellipse fill="none" stroke="black" cx="1185.66" cy="-272" rx="105.08" ry="18"/>
<text text-anchor="middle" x="1185.66" y="-268.3" font-family="Times,serif" font-size="14.00">create_account_unchecked</text>
</g>
<!-- account::create_resource_account&#45;&gt;account::create_account_unchecked -->
<g id="edge8" class="edge">
<title>account::create_resource_account&#45;&gt;account::create_account_unchecked</title>
<path fill="none" stroke="black" d="M1458.85,-329.92C1403.09,-318.3 1321.45,-301.29 1261.95,-288.89"/>
<polygon fill="black" stroke="black" points="1262.72,-285.48 1252.21,-286.87 1261.29,-292.33 1262.72,-285.48"/>
</g>
<!-- account::create_resource_address -->
<g id="node10" class="node">
<title>account::create_resource_address</title>
<ellipse fill="none" stroke="black" cx="1405.66" cy="-272" rx="96.68" ry="18"/>
<text text-anchor="middle" x="1405.66" y="-268.3" font-family="Times,serif" font-size="14.00">create_resource_address</text>
</g>
<!-- account::create_resource_account&#45;&gt;account::create_resource_address -->
<g id="edge9" class="edge">
<title>account::create_resource_account&#45;&gt;account::create_resource_address</title>
<path fill="none" stroke="black" d="M1494.17,-326.41C1478.82,-317.15 1459.49,-305.49 1442.81,-295.42"/>
<polygon fill="black" stroke="black" points="1445.02,-292.66 1434.65,-290.49 1441.4,-298.66 1445.02,-292.66"/>
</g>
<!-- account::create_signer -->
<g id="node11" class="node">
<title>account::create_signer</title>
<ellipse fill="none" stroke="black" cx="1341.66" cy="-189" rx="57.69" ry="18"/>
<text text-anchor="middle" x="1341.66" y="-185.3" font-family="Times,serif" font-size="14.00">create_signer</text>
</g>
<!-- account::create_resource_account&#45;&gt;account::create_signer -->
<g id="edge10" class="edge">
<title>account::create_resource_account&#45;&gt;account::create_signer</title>
<path fill="none" stroke="black" d="M1525.03,-325.85C1528.15,-304.67 1529.91,-268.68 1511.66,-246 1486.94,-215.29 1444.96,-201.26 1408.91,-194.93"/>
<polygon fill="black" stroke="black" points="1409.86,-191.53 1399.43,-193.43 1408.77,-198.45 1409.86,-191.53"/>
</g>
<!-- account::exists_at -->
<g id="node12" class="node">
<title>account::exists_at</title>
<ellipse fill="none" stroke="black" cx="1617.66" cy="-189" rx="41.69" ry="18"/>
<text text-anchor="middle" x="1617.66" y="-185.3" font-family="Times,serif" font-size="14.00">exists_at</text>
</g>
<!-- account::create_resource_account&#45;&gt;account::exists_at -->
<g id="edge11" class="edge">
<title>account::create_resource_account&#45;&gt;account::exists_at</title>
<path fill="none" stroke="black" d="M1524.01,-325.62C1527.43,-305.17 1535.24,-270.86 1551.66,-246 1560.56,-232.51 1573.64,-220.47 1585.81,-211.04"/>
<polygon fill="black" stroke="black" points="1587.67,-214.02 1593.63,-205.26 1583.51,-208.39 1587.67,-214.02"/>
</g>
<!-- account::rotate_authentication_key_internal -->
<g id="node13" class="node">
<title>account::rotate_authentication_key_internal</title>
<ellipse fill="none" stroke="black" cx="1693.66" cy="-272" rx="133.48" ry="18"/>
<text text-anchor="middle" x="1693.66" y="-268.3" font-family="Times,serif" font-size="14.00">rotate_authentication_key_internal</text>
</g>
<!-- account::create_resource_account&#45;&gt;account::rotate_authentication_key_internal -->
<g id="edge12" class="edge">
<title>account::create_resource_account&#45;&gt;account::rotate_authentication_key_internal</title>
<path fill="none" stroke="black" d="M1560.69,-327.12C1584.9,-317.26 1616.29,-304.49 1642.49,-293.83"/>
<polygon fill="black" stroke="black" points="1643.64,-297.13 1651.58,-290.12 1641,-290.65 1643.64,-297.13"/>
</g>
<!-- rotate_account_authentication_key_and_store_capability&#45;&gt;signer::address_of -->
<g id="edge14" class="edge">
<title>rotate_account_authentication_key_and_store_capability&#45;&gt;signer::address_of</title>
<path fill="none" stroke="black" d="M1315.77,-414.82C1522.96,-411.03 1815.08,-403.82 1838.66,-393 1920.87,-355.26 1983.53,-262.78 2010.76,-216.82"/>
<polygon fill="black" stroke="black" points="2013.72,-218.69 2015.71,-208.29 2007.66,-215.18 2013.72,-218.69"/>
</g>
<!-- rotate_account_authentication_key_and_store_capability&#45;&gt;account::rotate_authentication_key_internal -->
<g id="edge16" class="edge">
<title>rotate_account_authentication_key_and_store_capability&#45;&gt;account::rotate_authentication_key_internal</title>
<path fill="none" stroke="black" d="M1107.7,-400.83C1106.37,-379.81 1107.76,-344.71 1128.66,-326 1128.66,-326 1409.47,-299.66 1575.15,-284.12"/>
<polygon fill="black" stroke="black" points="1575.25,-287.62 1584.88,-283.2 1574.6,-280.65 1575.25,-287.62"/>
</g>
<!-- vector::is_empty -->
<g id="node14" class="node">
<title>vector::is_empty</title>
<ellipse fill="none" stroke="black" cx="780.66" cy="-34" rx="43.59" ry="18"/>
<text text-anchor="middle" x="780.66" y="-30.3" font-family="Times,serif" font-size="14.00">is_empty</text>
</g>
<!-- rotate_account_authentication_key_and_store_capability&#45;&gt;vector::is_empty -->
<g id="edge13" class="edge">
<title>rotate_account_authentication_key_and_store_capability&#45;&gt;vector::is_empty</title>
<path fill="none" stroke="black" d="M903.47,-414.82C747.62,-411.51 547.08,-405.06 465.66,-393 256.65,-362.05 5.66,-484.29 5.66,-273 5.66,-273 5.66,-273 5.66,-188 5.66,-139.48 -14.13,-112.77 21.66,-80 47.56,-56.28 555.2,-40.89 725.5,-36.38"/>
<polygon fill="black" stroke="black" points="725.51,-39.88 735.42,-36.12 725.33,-32.88 725.51,-39.88"/>
</g>
<!-- account::get_authentication_key -->
<g id="node15" class="node">
<title>account::get_authentication_key</title>
<ellipse fill="none" stroke="black" cx="1230.66" cy="-344" rx="92.88" ry="18"/>
<text text-anchor="middle" x="1230.66" y="-340.3" font-family="Times,serif" font-size="14.00">get_authentication_key</text>
</g>
<!-- rotate_account_authentication_key_and_store_capability&#45;&gt;account::get_authentication_key -->
<g id="edge15" class="edge">
<title>rotate_account_authentication_key_and_store_capability&#45;&gt;account::get_authentication_key</title>
<path fill="none" stroke="black" d="M1138.33,-400.7C1154.96,-390.67 1176.07,-377.93 1193.91,-367.17"/>
<polygon fill="black" stroke="black" points="1195.38,-370.37 1202.14,-362.21 1191.77,-364.37 1195.38,-370.37"/>
</g>
<!-- simple_map::add -->
<g id="node16" class="node">
<title>simple_map::add</title>
<ellipse fill="none" stroke="black" cx="586.66" cy="-344" rx="27" ry="18"/>
<text text-anchor="middle" x="586.66" y="-340.3" font-family="Times,serif" font-size="14.00">add</text>
</g>
<!-- rotate_account_authentication_key_and_store_capability&#45;&gt;simple_map::add -->
<g id="edge17" class="edge">
<title>rotate_account_authentication_key_and_store_capability&#45;&gt;simple_map::add</title>
<path fill="none" stroke="black" d="M1002.56,-403.05C885.02,-386.65 702.64,-361.19 624.39,-350.27"/>
<polygon fill="black" stroke="black" points="625.08,-346.83 614.69,-348.91 624.11,-353.76 625.08,-346.83"/>
</g>
<!-- simple_map::create -->
<g id="node17" class="node">
<title>simple_map::create</title>
<ellipse fill="none" stroke="black" cx="509.66" cy="-344" rx="31.7" ry="18"/>
<text text-anchor="middle" x="509.66" y="-340.3" font-family="Times,serif" font-size="14.00">create</text>
</g>
<!-- rotate_account_authentication_key_and_store_capability&#45;&gt;simple_map::create -->
<g id="edge18" class="edge">
<title>rotate_account_authentication_key_and_store_capability&#45;&gt;simple_map::create</title>
<path fill="none" stroke="black" d="M899.58,-416.63C754.42,-414.32 582.03,-408.32 550.66,-393 540.53,-388.06 531.93,-379.34 525.25,-370.68"/>
<polygon fill="black" stroke="black" points="528.27,-368.89 519.66,-362.73 522.55,-372.92 528.27,-368.89"/>
</g>
<!-- option::is_none&#45;&gt;vector::is_empty -->
<g id="edge19" class="edge">
<title>option::is_none&#45;&gt;vector::is_empty</title>
<path fill="none" stroke="black" d="M343.64,-171.51C362.51,-146.97 401.64,-101.41 446.66,-80 495.04,-56.99 645.13,-43.87 726.64,-38.27"/>
<polygon fill="black" stroke="black" points="726.42,-41.79 736.16,-37.63 725.95,-34.81 726.42,-41.79"/>
</g>
<!-- vector::singleton -->
<g id="node18" class="node">
<title>vector::singleton</title>
<ellipse fill="none" stroke="black" cx="779.66" cy="-106" rx="42.79" ry="18"/>
<text text-anchor="middle" x="779.66" y="-102.3" font-family="Times,serif" font-size="14.00">singleton</text>
</g>
<!-- option::some&#45;&gt;vector::singleton -->
<g id="edge20" class="edge">
<title>option::some&#45;&gt;vector::singleton</title>
<path fill="none" stroke="black" d="M521.91,-174.17C528.36,-169.78 535.99,-165.43 543.66,-163 582.03,-150.83 687.28,-169.97 724.66,-155 737.27,-149.95 748.96,-140.71 758.29,-131.68"/>
<polygon fill="black" stroke="black" points="760.65,-134.27 765.1,-124.66 755.63,-129.4 760.65,-134.27"/>
</g>
<!-- signer::borrow_address -->
<g id="node19" class="node">
<title>signer::borrow_address</title>
<ellipse fill="none" stroke="black" cx="2043.66" cy="-106" rx="66.89" ry="18"/>
<text text-anchor="middle" x="2043.66" y="-102.3" font-family="Times,serif" font-size="14.00">borrow_address</text>
</g>
<!-- signer::address_of&#45;&gt;signer::borrow_address -->
<g id="edge21" class="edge">
<title>signer::address_of&#45;&gt;signer::borrow_address</title>
<path fill="none" stroke="black" d="M2029.47,-170.82C2031.75,-160.58 2034.69,-147.33 2037.31,-135.55"/>
<polygon fill="black" stroke="black" points="2040.7,-136.43 2039.45,-125.91 2033.87,-134.91 2040.7,-136.43"/>
</g>
<!-- error::canonical -->
<g id="node20" class="node">
<title>error::canonical</title>
<ellipse fill="none" stroke="black" cx="2408.66" cy="-106" rx="44.39" ry="18"/>
<text text-anchor="middle" x="2408.66" y="-102.3" font-family="Times,serif" font-size="14.00">canonical</text>
</g>
<!-- error::already_exists&#45;&gt;error::canonical -->
<g id="edge22" class="edge">
<title>error::already_exists&#45;&gt;error::canonical</title>
<path fill="none" stroke="black" d="M2458.6,-171.22C2449.84,-159.96 2438.15,-144.92 2428.28,-132.22"/>
<polygon fill="black" stroke="black" points="2431.31,-130.42 2422.41,-124.68 2425.78,-134.72 2431.31,-130.42"/>
</g>
<!-- error::invalid_state&#45;&gt;error::canonical -->
<g id="edge23" class="edge">
<title>error::invalid_state&#45;&gt;error::canonical</title>
<path fill="none" stroke="black" d="M2573.07,-174.26C2538.93,-160.29 2485.99,-138.64 2449.46,-123.69"/>
<polygon fill="black" stroke="black" points="2451.13,-120.6 2440.55,-120.05 2448.48,-127.07 2451.13,-120.6"/>
</g>
<!-- account::create_account_unchecked&#45;&gt;account::create_signer -->
<g id="edge29" class="edge">
<title>account::create_account_unchecked&#45;&gt;account::create_signer</title>
<path fill="none" stroke="black" d="M1217.6,-254.41C1242.31,-241.58 1276.63,-223.76 1302.91,-210.12"/>
<polygon fill="black" stroke="black" points="1304.3,-213.34 1311.56,-205.63 1301.07,-207.13 1304.3,-213.34"/>
</g>
<!-- option::none -->
<g id="node21" class="node">
<title>option::none</title>
<ellipse fill="none" stroke="black" cx="580.66" cy="-189" rx="27.9" ry="18"/>
<text text-anchor="middle" x="580.66" y="-185.3" font-family="Times,serif" font-size="14.00">none</text>
</g>
<!-- account::create_account_unchecked&#45;&gt;option::none -->
<g id="edge24" class="edge">
<title>account::create_account_unchecked&#45;&gt;option::none</title>
<path fill="none" stroke="black" d="M1106.17,-259.87C1066.19,-254.74 1016.95,-249.1 972.66,-246 953.25,-244.64 640.27,-246.24 622.66,-238 612.2,-233.11 603.29,-224.24 596.4,-215.44"/>
<polygon fill="black" stroke="black" points="599.29,-213.46 590.63,-207.35 593.59,-217.52 599.29,-213.46"/>
</g>
<!-- error::invalid_argument -->
<g id="node22" class="node">
<title>error::invalid_argument</title>
<ellipse fill="none" stroke="black" cx="2207.66" cy="-189" rx="73.39" ry="18"/>
<text text-anchor="middle" x="2207.66" y="-185.3" font-family="Times,serif" font-size="14.00">invalid_argument</text>
</g>
<!-- account::create_account_unchecked&#45;&gt;error::invalid_argument -->
<g id="edge25" class="edge">
<title>account::create_account_unchecked&#45;&gt;error::invalid_argument</title>
<path fill="none" stroke="black" d="M1241.52,-256.34C1259.9,-252.17 1280.53,-248.17 1299.66,-246 1345.09,-240.85 2078.49,-249.84 2122.66,-238 2141.59,-232.92 2160.77,-222.64 2176.1,-212.88"/>
<polygon fill="black" stroke="black" points="2177.91,-215.88 2184.32,-207.45 2174.05,-210.04 2177.91,-215.88"/>
</g>
<!-- bcs::to_bytes -->
<g id="node23" class="node">
<title>bcs::to_bytes</title>
<ellipse fill="none" stroke="black" cx="672.66" cy="-106" rx="40.09" ry="18"/>
<text text-anchor="middle" x="672.66" y="-102.3" font-family="Times,serif" font-size="14.00">to_bytes</text>
</g>
<!-- account::create_account_unchecked&#45;&gt;bcs::to_bytes -->
<g id="edge26" class="edge">
<title>account::create_account_unchecked&#45;&gt;bcs::to_bytes</title>
<path fill="none" stroke="black" d="M1105.91,-259.89C1065.98,-254.78 1016.85,-249.15 972.66,-246 964.01,-245.38 666.71,-244.21 660.66,-238 634.22,-210.88 647.07,-163.93 659.4,-134.22"/>
<polygon fill="black" stroke="black" points="662.57,-135.7 663.4,-125.14 656.16,-132.88 662.57,-135.7"/>
</g>
<!-- guid::create -->
<g id="node24" class="node">
<title>guid::create</title>
<ellipse fill="none" stroke="black" cx="734.66" cy="-189" rx="31.7" ry="18"/>
<text text-anchor="middle" x="734.66" y="-185.3" font-family="Times,serif" font-size="14.00">create</text>
</g>
<!-- account::create_account_unchecked&#45;&gt;guid::create -->
<g id="edge27" class="edge">
<title>account::create_account_unchecked&#45;&gt;guid::create</title>
<path fill="none" stroke="black" d="M1105.13,-260.09C1065.34,-255.07 1016.55,-249.48 972.66,-246 951.15,-244.3 798.22,-247.09 778.66,-238 768,-233.05 758.75,-224.21 751.51,-215.45"/>
<polygon fill="black" stroke="black" points="754.48,-213.58 745.65,-207.73 748.91,-217.81 754.48,-213.58"/>
</g>
<!-- event::new_event_handle -->
<g id="node25" class="node">
<title>event::new_event_handle</title>
<ellipse fill="none" stroke="black" cx="867.66" cy="-189" rx="76.89" ry="18"/>
<text text-anchor="middle" x="867.66" y="-185.3" font-family="Times,serif" font-size="14.00">new_event_handle</text>
</g>
<!-- account::create_account_unchecked&#45;&gt;event::new_event_handle -->
<g id="edge28" class="edge">
<title>account::create_account_unchecked&#45;&gt;event::new_event_handle</title>
<path fill="none" stroke="black" d="M1088.95,-264.65C1047.45,-260 998.9,-251.95 956.66,-238 937.6,-231.71 917.83,-221.47 901.77,-212.06"/>
<polygon fill="black" stroke="black" points="903.96,-209.29 893.59,-207.13 900.35,-215.29 903.96,-209.29"/>
</g>
<!-- account::create_resource_address&#45;&gt;bcs::to_bytes -->
<g id="edge32" class="edge">
<title>account::create_resource_address&#45;&gt;bcs::to_bytes</title>
<path fill="none" stroke="black" d="M1353.77,-256.37C1336.68,-252.2 1317.48,-248.19 1299.66,-246 1282.86,-243.93 703.33,-249.2 690.66,-238 662.26,-212.91 663,-165.7 667.11,-135.34"/>
<polygon fill="black" stroke="black" points="670.52,-136.14 668.63,-125.72 663.61,-135.05 670.52,-136.14"/>
</g>
<!-- vector::append -->
<g id="node26" class="node">
<title>vector::append</title>
<ellipse fill="none" stroke="black" cx="878.66" cy="-106" rx="36.29" ry="18"/>
<text text-anchor="middle" x="878.66" y="-102.3" font-family="Times,serif" font-size="14.00">append</text>
</g>
<!-- account::create_resource_address&#45;&gt;vector::append -->
<g id="edge30" class="edge">
<title>account::create_resource_address&#45;&gt;vector::append</title>
<path fill="none" stroke="black" d="M1346.28,-257.41C1323.72,-251.88 1297.86,-245.13 1274.66,-238 1181.51,-209.4 1161.21,-193.45 1068.66,-163 1018.11,-146.37 959.26,-129.38 920.6,-118.55"/>
<polygon fill="black" stroke="black" points="921.81,-115.25 911.23,-115.93 919.92,-121.99 921.81,-115.25"/>
</g>
<!-- hash::sha3_256 -->
<g id="node27" class="node">
<title>hash::sha3_256</title>
<ellipse fill="none" stroke="black" cx="1012.66" cy="-189" rx="44.39" ry="18"/>
<text text-anchor="middle" x="1012.66" y="-185.3" font-family="Times,serif" font-size="14.00">sha3_256</text>
</g>
<!-- account::create_resource_address&#45;&gt;hash::sha3_256 -->
<g id="edge31" class="edge">
<title>account::create_resource_address&#45;&gt;hash::sha3_256</title>
<path fill="none" stroke="black" d="M1353.2,-256.47C1336.24,-252.36 1317.27,-248.36 1299.66,-246 1274.2,-242.59 1092.59,-247.33 1068.66,-238 1055.68,-232.94 1043.63,-223.53 1034.05,-214.36"/>
<polygon fill="black" stroke="black" points="1036.56,-211.92 1027.06,-207.23 1031.56,-216.82 1036.56,-211.92"/>
</g>
<!-- from_bcs::to_address -->
<g id="node28" class="node">
<title>from_bcs::to_address</title>
<ellipse fill="none" stroke="black" cx="1899.66" cy="-189" rx="48.19" ry="18"/>
<text text-anchor="middle" x="1899.66" y="-185.3" font-family="Times,serif" font-size="14.00">to_address</text>
</g>
<!-- account::create_resource_address&#45;&gt;from_bcs::to_address -->
<g id="edge33" class="edge">
<title>account::create_resource_address&#45;&gt;from_bcs::to_address</title>
<path fill="none" stroke="black" d="M1469.35,-258.08C1494.84,-253.43 1524.53,-248.69 1551.66,-246 1583.4,-242.86 1808.66,-248.86 1838.66,-238 1852.71,-232.91 1866.04,-223.22 1876.63,-213.87"/>
<polygon fill="black" stroke="black" points="1878.82,-216.62 1883.74,-207.24 1874.04,-211.5 1878.82,-216.62"/>
</g>
<!-- account::rotate_authentication_key_internal&#45;&gt;signer::address_of -->
<g id="edge34" class="edge">
<title>account::rotate_authentication_key_internal&#45;&gt;signer::address_of</title>
<path fill="none" stroke="black" d="M1772.03,-257.04C1796.8,-253 1824.31,-248.91 1849.66,-246 1875.11,-243.08 1940.75,-247.22 1964.66,-238 1978.41,-232.7 1991.54,-223.16 2002.08,-213.98"/>
<polygon fill="black" stroke="black" points="2004.16,-216.82 2009.16,-207.48 1999.43,-211.67 2004.16,-216.82"/>
</g>
<!-- account::rotate_authentication_key_internal&#45;&gt;account::exists_at -->
<g id="edge37" class="edge">
<title>account::rotate_authentication_key_internal&#45;&gt;account::exists_at</title>
<path fill="none" stroke="black" d="M1677.54,-253.82C1666.78,-242.35 1652.46,-227.09 1640.53,-214.37"/>
<polygon fill="black" stroke="black" points="1643.15,-212.05 1633.75,-207.16 1638.04,-216.84 1643.15,-212.05"/>
</g>
<!-- account::rotate_authentication_key_internal&#45;&gt;error::invalid_argument -->
<g id="edge35" class="edge">
<title>account::rotate_authentication_key_internal&#45;&gt;error::invalid_argument</title>
<path fill="none" stroke="black" d="M1782.14,-258.15C1816.57,-253.6 1856.38,-248.9 1892.66,-246 1943.64,-241.92 2073.43,-251.86 2122.66,-238 2141.52,-232.69 2160.69,-222.38 2176.04,-212.67"/>
<polygon fill="black" stroke="black" points="2177.83,-215.68 2184.27,-207.27 2173.99,-209.83 2177.83,-215.68"/>
</g>
<!-- error::not_found -->
<g id="node29" class="node">
<title>error::not_found</title>
<ellipse fill="none" stroke="black" cx="2345.66" cy="-189" rx="46.59" ry="18"/>
<text text-anchor="middle" x="2345.66" y="-185.3" font-family="Times,serif" font-size="14.00">not_found</text>
</g>
<!-- account::rotate_authentication_key_internal&#45;&gt;error::not_found -->
<g id="edge36" class="edge">
<title>account::rotate_authentication_key_internal&#45;&gt;error::not_found</title>
<path fill="none" stroke="black" d="M1789.74,-259.14C1833.3,-254.23 1885.5,-248.99 1932.66,-246 1952.45,-244.74 2271.13,-245.09 2289.66,-238 2302.47,-233.09 2314.38,-223.88 2323.88,-214.83"/>
<polygon fill="black" stroke="black" points="2326.31,-217.35 2330.83,-207.77 2321.32,-212.44 2326.31,-217.35"/>
</g>
<!-- simple_map::add&#45;&gt;option::is_none -->
<g id="edge39" class="edge">
<title>simple_map::add&#45;&gt;option::is_none</title>
<path fill="none" stroke="black" d="M583.98,-325.84C579.45,-303.23 567.93,-264.22 540.66,-246 510.87,-226.11 412.4,-252.53 379.66,-238 368.34,-232.98 358.24,-224.01 350.25,-215.16"/>
<polygon fill="black" stroke="black" points="353.08,-213.09 343.97,-207.67 347.71,-217.59 353.08,-213.09"/>
</g>
<!-- simple_map::add&#45;&gt;error::invalid_argument -->
<g id="edge40" class="edge">
<title>simple_map::add&#45;&gt;error::invalid_argument</title>
<path fill="none" stroke="black" d="M613.84,-342.02C793.86,-335.49 1808.07,-298.38 1838.66,-290 1878.55,-279.07 1880.75,-256.87 1920.66,-246 1964,-234.19 2079.44,-250.28 2122.66,-238 2141.51,-232.64 2160.68,-222.33 2176.03,-212.63"/>
<polygon fill="black" stroke="black" points="2177.82,-215.64 2184.26,-207.23 2173.98,-209.79 2177.82,-215.64"/>
</g>
<!-- option::extract -->
<g id="node30" class="node">
<title>option::extract</title>
<ellipse fill="none" stroke="black" cx="422.66" cy="-189" rx="34.39" ry="18"/>
<text text-anchor="middle" x="422.66" y="-185.3" font-family="Times,serif" font-size="14.00">extract</text>
</g>
<!-- simple_map::add&#45;&gt;option::extract -->
<g id="edge38" class="edge">
<title>simple_map::add&#45;&gt;option::extract</title>
<path fill="none" stroke="black" d="M590.13,-325.76C593.45,-303.8 595.17,-266.28 573.66,-246 556.14,-229.49 487.25,-248.62 465.66,-238 455.33,-232.92 446.37,-224.18 439.33,-215.54"/>
<polygon fill="black" stroke="black" points="442.18,-213.5 433.39,-207.59 436.57,-217.69 442.18,-213.5"/>
</g>
<!-- simple_map::find -->
<g id="node31" class="node">
<title>simple_map::find</title>
<ellipse fill="none" stroke="black" cx="504.66" cy="-272" rx="27" ry="18"/>
<text text-anchor="middle" x="504.66" y="-268.3" font-family="Times,serif" font-size="14.00">find</text>
</g>
<!-- simple_map::add&#45;&gt;simple_map::find -->
<g id="edge41" class="edge">
<title>simple_map::add&#45;&gt;simple_map::find</title>
<path fill="none" stroke="black" d="M570.46,-329.17C558.78,-319.2 542.79,-305.56 529.51,-294.21"/>
<polygon fill="black" stroke="black" points="531.85,-291.61 521.97,-287.78 527.31,-296.94 531.85,-291.61"/>
</g>
<!-- error::invalid_argument&#45;&gt;error::canonical -->
<g id="edge42" class="edge">
<title>error::invalid_argument&#45;&gt;error::canonical</title>
<path fill="none" stroke="black" d="M2244.52,-173.14C2279.24,-159.15 2331.16,-138.23 2367.28,-123.67"/>
<polygon fill="black" stroke="black" points="2368.57,-126.93 2376.54,-119.94 2365.96,-120.43 2368.57,-126.93"/>
</g>
<!-- vector::append&#45;&gt;vector::is_empty -->
<g id="edge43" class="edge">
<title>vector::append&#45;&gt;vector::is_empty</title>
<path fill="none" stroke="black" d="M858.82,-90.83C845.11,-81.04 826.62,-67.83 811.05,-56.71"/>
<polygon fill="black" stroke="black" points="813.22,-53.96 803.05,-50.99 809.15,-59.65 813.22,-53.96"/>
</g>
<!-- vector::reverse -->
<g id="node32" class="node">
<title>vector::reverse</title>
<ellipse fill="none" stroke="black" cx="878.66" cy="-34" rx="36.29" ry="18"/>
<text text-anchor="middle" x="878.66" y="-30.3" font-family="Times,serif" font-size="14.00">reverse</text>
</g>
<!-- vector::append&#45;&gt;vector::reverse -->
<g id="edge44" class="edge">
<title>vector::append&#45;&gt;vector::reverse</title>
<path fill="none" stroke="black" d="M878.66,-87.7C878.66,-80.41 878.66,-71.73 878.66,-63.54"/>
<polygon fill="black" stroke="black" points="882.16,-63.62 878.66,-53.62 875.16,-63.62 882.16,-63.62"/>
</g>
<!-- from_bcs::from_bytes -->
<g id="node33" class="node">
<title>from_bcs::from_bytes</title>
<ellipse fill="none" stroke="black" cx="1901.66" cy="-106" rx="51.19" ry="18"/>
<text text-anchor="middle" x="1901.66" y="-102.3" font-family="Times,serif" font-size="14.00">from_bytes</text>
</g>
<!-- from_bcs::to_address&#45;&gt;from_bcs::from_bytes -->
<g id="edge45" class="edge">
<title>from_bcs::to_address&#45;&gt;from_bcs::from_bytes</title>
<path fill="none" stroke="black" d="M1900.08,-170.82C1900.33,-160.69 1900.65,-147.6 1900.94,-135.92"/>
<polygon fill="black" stroke="black" points="1904.44,-136.03 1901.19,-125.95 1897.44,-135.86 1904.44,-136.03"/>
</g>
<!-- error::not_found&#45;&gt;error::canonical -->
<g id="edge46" class="edge">
<title>error::not_found&#45;&gt;error::canonical</title>
<path fill="none" stroke="black" d="M2358.41,-171.61C2367.14,-160.37 2378.91,-145.25 2388.86,-132.46"/>
<polygon fill="black" stroke="black" points="2391.4,-134.88 2394.78,-124.84 2385.88,-130.58 2391.4,-134.88"/>
</g>
<!-- option::is_some -->
<g id="node34" class="node">
<title>option::is_some</title>
<ellipse fill="none" stroke="black" cx="495.66" cy="-106" rx="40.09" ry="18"/>
<text text-anchor="middle" x="495.66" y="-102.3" font-family="Times,serif" font-size="14.00">is_some</text>
</g>
<!-- option::extract&#45;&gt;option::is_some -->
<g id="edge47" class="edge">
<title>option::extract&#45;&gt;option::is_some</title>
<path fill="none" stroke="black" d="M436.73,-172.38C447.2,-160.77 461.68,-144.69 473.67,-131.39"/>
<polygon fill="black" stroke="black" points="476.02,-134.02 480.11,-124.25 470.82,-129.33 476.02,-134.02"/>
</g>
<!-- simple_map::find&#45;&gt;option::some -->
<g id="edge49" class="edge">
<title>simple_map::find&#45;&gt;option::some</title>
<path fill="none" stroke="black" d="M504.66,-253.82C504.66,-243.69 504.66,-230.6 504.66,-218.92"/>
<polygon fill="black" stroke="black" points="508.16,-218.95 504.66,-208.95 501.16,-218.95 508.16,-218.95"/>
</g>
<!-- simple_map::find&#45;&gt;option::none -->
<g id="edge48" class="edge">
<title>simple_map::find&#45;&gt;option::none</title>
<path fill="none" stroke="black" d="M521.67,-257.93C528.77,-252.14 536.92,-245.05 543.66,-238 550.4,-230.94 557.12,-222.69 562.94,-215.04"/>
<polygon fill="black" stroke="black" points="565.74,-217.14 568.88,-207.02 560.11,-212.98 565.74,-217.14"/>
</g>
<!-- comparator::compare -->
<g id="node35" class="node">
<title>comparator::compare</title>
<ellipse fill="none" stroke="black" cx="227.66" cy="-189" rx="41.69" ry="18"/>
<text text-anchor="middle" x="227.66" y="-185.3" font-family="Times,serif" font-size="14.00">compare</text>
</g>
<!-- simple_map::find&#45;&gt;comparator::compare -->
<g id="edge50" class="edge">
<title>simple_map::find&#45;&gt;comparator::compare</title>
<path fill="none" stroke="black" d="M477.5,-271.86C434.03,-272.2 347.08,-268.55 281.66,-238 269.47,-232.31 258.03,-222.97 248.83,-214.04"/>
<polygon fill="black" stroke="black" points="251.61,-211.87 242.12,-207.14 246.59,-216.75 251.61,-211.87"/>
</g>
<!-- comparator::is_smaller_than -->
<g id="node36" class="node">
<title>comparator::is_smaller_than</title>
<ellipse fill="none" stroke="black" cx="100.66" cy="-189" rx="66.89" ry="18"/>
<text text-anchor="middle" x="100.66" y="-185.3" font-family="Times,serif" font-size="14.00">is_smaller_than</text>
</g>
<!-- simple_map::find&#45;&gt;comparator::is_smaller_than -->
<g id="edge51" class="edge">
<title>simple_map::find&#45;&gt;comparator::is_smaller_than</title>
<path fill="none" stroke="black" d="M477.39,-269.87C409.08,-266.77 232.12,-257.11 176.66,-238 160.15,-232.31 143.56,-222.43 130.11,-213.11"/>
<polygon fill="black" stroke="black" points="132.31,-210.38 122.15,-207.37 128.21,-216.06 132.31,-210.38"/>
</g>
<!-- option::is_some&#45;&gt;vector::is_empty -->
<g id="edge52" class="edge">
<title>option::is_some&#45;&gt;vector::is_empty</title>
<path fill="none" stroke="black" d="M530.32,-96.49C581.08,-84.02 675.81,-60.75 733.06,-46.69"/>
<polygon fill="black" stroke="black" points="733.64,-50.15 742.52,-44.37 731.97,-43.35 733.64,-50.15"/>
</g>
<!-- comparator::compare&#45;&gt;bcs::to_bytes -->
<g id="edge53" class="edge">
<title>comparator::compare&#45;&gt;bcs::to_bytes</title>
<path fill="none" stroke="black" d="M252.16,-174.07C261.15,-169.67 271.59,-165.34 281.66,-163 318.35,-154.46 585.73,-169.13 620.66,-155 632.91,-150.04 644.05,-140.77 652.85,-131.69"/>
<polygon fill="black" stroke="black" points="655.41,-134.08 659.51,-124.31 650.21,-129.39 655.41,-134.08"/>
</g>
<!-- comparator::compare_u8_vector -->
<g id="node37" class="node">
<title>comparator::compare_u8_vector</title>
<ellipse fill="none" stroke="black" cx="188.66" cy="-106" rx="81.49" ry="18"/>
<text text-anchor="middle" x="188.66" y="-102.3" font-family="Times,serif" font-size="14.00">compare_u8_vector</text>
</g>
<!-- comparator::compare&#45;&gt;comparator::compare_u8_vector -->
<g id="edge54" class="edge">
<title>comparator::compare&#45;&gt;comparator::compare_u8_vector</title>
<path fill="none" stroke="black" d="M219.58,-171.22C214.47,-160.61 207.75,-146.65 201.87,-134.45"/>
<polygon fill="black" stroke="black" points="205.14,-133.18 197.65,-125.68 198.84,-136.21 205.14,-133.18"/>
</g>
</g>
</svg>
