<?xml version="1.0" encoding="UTF-8" standalone="no"?>
<!DOCTYPE svg PUBLIC "-//W3C//DTD SVG 1.1//EN"
 "http://www.w3.org/Graphics/SVG/1.1/DTD/svg11.dtd">
<!-- Generated by graphviz version 7.0.0 (20221023.0053)
 -->
<!-- Title: G Pages: 1 -->
<svg width="1697pt" height="459pt"
 viewBox="0.00 0.00 1697.00 459.00" xmlns="http://www.w3.org/2000/svg" xmlns:xlink="http://www.w3.org/1999/xlink">
<g id="graph0" class="graph" transform="scale(1 1) rotate(0) translate(4 455)">
<title>G</title>
<polygon fill="white" stroke="none" points="-4,4 -4,-455 1693,-455 1693,4 -4,4"/>
<g id="clust1" class="cluster">
<title>cluster_vector</title>
<polygon fill="none" stroke="black" points="8,-8 8,-83 215,-83 215,-8 8,-8"/>
<text text-anchor="middle" x="111.5" y="-67.8" font-family="Times,serif" font-size="14.00">vector</text>
</g>
<g id="clust2" class="cluster">
<title>cluster_signer</title>
<polygon fill="none" stroke="black" points="1531,-174 1531,-332 1681,-332 1681,-174 1531,-174"/>
<text text-anchor="middle" x="1606" y="-316.8" font-family="Times,serif" font-size="14.00">signer</text>
</g>
<g id="clust3" class="cluster">
<title>cluster_account</title>
<polygon fill="none" stroke="black" points="1037,-257 1037,-407 1523,-407 1523,-257 1037,-257"/>
<text text-anchor="middle" x="1280" y="-391.8" font-family="Times,serif" font-size="14.00">account</text>
</g>
<g id="clust4" class="cluster">
<title>cluster_simple_map</title>
<polygon fill="none" stroke="black" points="469,-257 469,-407 621,-407 621,-257 469,-257"/>
<text text-anchor="middle" x="545" y="-391.8" font-family="Times,serif" font-size="14.00">simple_map</text>
</g>
<g id="clust5" class="cluster">
<title>cluster_error</title>
<polygon fill="none" stroke="black" points="755,-174 755,-332 1029,-332 1029,-174 755,-174"/>
<text text-anchor="middle" x="892" y="-316.8" font-family="Times,serif" font-size="14.00">error</text>
</g>
<g id="clust6" class="cluster">
<title>cluster_option</title>
<polygon fill="none" stroke="black" points="52,-91 52,-249 383,-249 383,-91 52,-91"/>
<text text-anchor="middle" x="217.5" y="-233.8" font-family="Times,serif" font-size="14.00">option</text>
</g>
<g id="clust7" class="cluster">
<title>cluster_comparator</title>
<polygon fill="none" stroke="black" points="495,-91 495,-249 747,-249 747,-91 495,-91"/>
<text text-anchor="middle" x="621" y="-233.8" font-family="Times,serif" font-size="14.00">comparator</text>
</g>
<g id="clust8" class="cluster">
<title>cluster_bcs</title>
<polygon fill="none" stroke="black" points="391,-91 391,-166 487,-166 487,-91 391,-91"/>
<text text-anchor="middle" x="439" y="-150.8" font-family="Times,serif" font-size="14.00">bcs</text>
</g>
<!-- rotate_account_authentication_key_and_store_capability -->
<g id="node1" class="node">
<title>rotate_account_authentication_key_and_store_capability</title>
<ellipse fill="none" stroke="black" cx="902" cy="-433" rx="211.46" ry="18"/>
<text text-anchor="middle" x="902" y="-429.3" font-family="Times,serif" font-size="14.00">rotate_account_authentication_key_and_store_capability</text>
</g>
<!-- vector::is_empty -->
<g id="node2" class="node">
<title>vector::is_empty</title>
<ellipse fill="none" stroke="black" cx="60" cy="-34" rx="43.59" ry="18"/>
<text text-anchor="middle" x="60" y="-30.3" font-family="Times,serif" font-size="14.00">is_empty</text>
</g>
<!-- rotate_account_authentication_key_and_store_capability&#45;&gt;vector::is_empty -->
<g id="edge1" class="edge">
<title>rotate_account_authentication_key_and_store_capability&#45;&gt;vector::is_empty</title>
<path fill="none" stroke="black" d="M699.5,-427.57C625.44,-424.07 541.17,-417.89 465,-407 318.25,-386.02 280.6,-378.98 140,-332 90.18,-315.35 32,-336.53 32,-284 32,-284 32,-284 32,-199 32,-150.64 43.98,-95.38 52.27,-62.94"/>
<polygon fill="black" stroke="black" points="55.58,-64.1 54.74,-53.54 48.81,-62.32 55.58,-64.1"/>
</g>
<!-- signer::address_of -->
<g id="node3" class="node">
<title>signer::address_of</title>
<ellipse fill="none" stroke="black" cx="1588" cy="-283" rx="48.99" ry="18"/>
<text text-anchor="middle" x="1588" y="-279.3" font-family="Times,serif" font-size="14.00">address_of</text>
</g>
<!-- rotate_account_authentication_key_and_store_capability&#45;&gt;signer::address_of -->
<g id="edge2" class="edge">
<title>rotate_account_authentication_key_and_store_capability&#45;&gt;signer::address_of</title>
<path fill="none" stroke="black" d="M1108,-428.76C1283.22,-425.22 1509.32,-418.46 1527,-407 1559.7,-385.8 1575.51,-341.52 1582.67,-312.28"/>
<polygon fill="black" stroke="black" points="1586.06,-313.15 1584.83,-302.63 1579.23,-311.62 1586.06,-313.15"/>
</g>
<!-- account::get_authentication_key -->
<g id="node4" class="node">
<title>account::get_authentication_key</title>
<ellipse fill="none" stroke="black" cx="1422" cy="-358" rx="92.88" ry="18"/>
<text text-anchor="middle" x="1422" y="-354.3" font-family="Times,serif" font-size="14.00">get_authentication_key</text>
</g>
<!-- rotate_account_authentication_key_and_store_capability&#45;&gt;account::get_authentication_key -->
<g id="edge3" class="edge">
<title>rotate_account_authentication_key_and_store_capability&#45;&gt;account::get_authentication_key</title>
<path fill="none" stroke="black" d="M1102.81,-427.13C1188.91,-423.57 1279.01,-417.46 1320,-407 1342.4,-401.29 1365.85,-390.62 1384.6,-380.8"/>
<polygon fill="black" stroke="black" points="1386.03,-384.01 1393.17,-376.18 1382.71,-377.84 1386.03,-384.01"/>
</g>
<!-- account::rotate_authentication_key_internal -->
<g id="node5" class="node">
<title>account::rotate_authentication_key_internal</title>
<ellipse fill="none" stroke="black" cx="1178" cy="-358" rx="133.48" ry="18"/>
<text text-anchor="middle" x="1178" y="-354.3" font-family="Times,serif" font-size="14.00">rotate_authentication_key_internal</text>
</g>
<!-- rotate_account_authentication_key_and_store_capability&#45;&gt;account::rotate_authentication_key_internal -->
<g id="edge4" class="edge">
<title>rotate_account_authentication_key_and_store_capability&#45;&gt;account::rotate_authentication_key_internal</title>
<path fill="none" stroke="black" d="M964.97,-415.34C1007.65,-404.06 1064.09,-389.13 1108.15,-377.47"/>
<polygon fill="black" stroke="black" points="1108.84,-380.91 1117.61,-374.97 1107.05,-374.15 1108.84,-380.91"/>
</g>
<!-- simple_map::add -->
<g id="node6" class="node">
<title>simple_map::add</title>
<ellipse fill="none" stroke="black" cx="586" cy="-358" rx="27" ry="18"/>
<text text-anchor="middle" x="586" y="-354.3" font-family="Times,serif" font-size="14.00">add</text>
</g>
<!-- rotate_account_authentication_key_and_store_capability&#45;&gt;simple_map::add -->
<g id="edge5" class="edge">
<title>rotate_account_authentication_key_and_store_capability&#45;&gt;simple_map::add</title>
<path fill="none" stroke="black" d="M831.08,-415.62C766.26,-400.64 672.99,-379.1 622.24,-367.37"/>
<polygon fill="black" stroke="black" points="623.2,-364 612.67,-365.16 621.62,-370.82 623.2,-364"/>
</g>
<!-- simple_map::create -->
<g id="node7" class="node">
<title>simple_map::create</title>
<ellipse fill="none" stroke="black" cx="509" cy="-358" rx="31.7" ry="18"/>
<text text-anchor="middle" x="509" y="-354.3" font-family="Times,serif" font-size="14.00">create</text>
</g>
<!-- rotate_account_authentication_key_and_store_capability&#45;&gt;simple_map::create -->
<g id="edge6" class="edge">
<title>rotate_account_authentication_key_and_store_capability&#45;&gt;simple_map::create</title>
<path fill="none" stroke="black" d="M712.61,-424.77C637.72,-420.74 565.66,-414.9 550,-407 539.94,-401.92 531.35,-393.18 524.67,-384.54"/>
<polygon fill="black" stroke="black" points="527.69,-382.76 519.06,-376.61 521.98,-386.8 527.69,-382.76"/>
</g>
<!-- signer::borrow_address -->
<g id="node8" class="node">
<title>signer::borrow_address</title>
<ellipse fill="none" stroke="black" cx="1606" cy="-200" rx="66.89" ry="18"/>
<text text-anchor="middle" x="1606" y="-196.3" font-family="Times,serif" font-size="14.00">borrow_address</text>
</g>
<!-- signer::address_of&#45;&gt;signer::borrow_address -->
<g id="edge7" class="edge">
<title>signer::address_of&#45;&gt;signer::borrow_address</title>
<path fill="none" stroke="black" d="M1591.82,-264.82C1594.09,-254.58 1597.04,-241.33 1599.66,-229.55"/>
<polygon fill="black" stroke="black" points="1603.05,-230.43 1601.8,-219.91 1596.21,-228.91 1603.05,-230.43"/>
</g>
<!-- account::rotate_authentication_key_internal&#45;&gt;signer::address_of -->
<g id="edge8" class="edge">
<title>account::rotate_authentication_key_internal&#45;&gt;signer::address_of</title>
<path fill="none" stroke="black" d="M1271.08,-344.77C1287.36,-342.94 1304.16,-341.25 1320,-340 1342.95,-338.19 1505.4,-339.95 1527,-332 1541.03,-326.84 1554.36,-317.13 1564.95,-307.8"/>
<polygon fill="black" stroke="black" points="1567.13,-310.55 1572.06,-301.18 1562.36,-305.43 1567.13,-310.55"/>
</g>
<!-- error::invalid_argument -->
<g id="node9" class="node">
<title>error::invalid_argument</title>
<ellipse fill="none" stroke="black" cx="836" cy="-283" rx="73.39" ry="18"/>
<text text-anchor="middle" x="836" y="-279.3" font-family="Times,serif" font-size="14.00">invalid_argument</text>
</g>
<!-- account::rotate_authentication_key_internal&#45;&gt;error::invalid_argument -->
<g id="edge9" class="edge">
<title>account::rotate_authentication_key_internal&#45;&gt;error::invalid_argument</title>
<path fill="none" stroke="black" d="M1056.37,-350.32C1001.66,-346.29 943.67,-340.3 918,-332 900.27,-326.27 882.23,-316.25 867.6,-306.85"/>
<polygon fill="black" stroke="black" points="869.58,-303.96 859.32,-301.33 865.7,-309.79 869.58,-303.96"/>
</g>
<!-- error::not_found -->
<g id="node10" class="node">
<title>error::not_found</title>
<ellipse fill="none" stroke="black" cx="974" cy="-283" rx="46.59" ry="18"/>
<text text-anchor="middle" x="974" y="-279.3" font-family="Times,serif" font-size="14.00">not_found</text>
</g>
<!-- account::rotate_authentication_key_internal&#45;&gt;error::not_found -->
<g id="edge10" class="edge">
<title>account::rotate_authentication_key_internal&#45;&gt;error::not_found</title>
<path fill="none" stroke="black" d="M1075.78,-346.19C1061.05,-342.69 1046.37,-338.08 1033,-332 1020.17,-326.17 1007.78,-316.85 997.7,-307.97"/>
<polygon fill="black" stroke="black" points="1000.31,-305.62 990.59,-301.41 995.56,-310.77 1000.31,-305.62"/>
</g>
<!-- account::exists_at -->
<g id="node11" class="node">
<title>account::exists_at</title>
<ellipse fill="none" stroke="black" cx="1178" cy="-283" rx="41.69" ry="18"/>
<text text-anchor="middle" x="1178" y="-279.3" font-family="Times,serif" font-size="14.00">exists_at</text>
</g>
<!-- account::rotate_authentication_key_internal&#45;&gt;account::exists_at -->
<g id="edge11" class="edge">
<title>account::rotate_authentication_key_internal&#45;&gt;account::exists_at</title>
<path fill="none" stroke="black" d="M1178,-339.7C1178,-331.67 1178,-321.9 1178,-312.8"/>
<polygon fill="black" stroke="black" points="1181.5,-312.94 1178,-302.94 1174.5,-312.94 1181.5,-312.94"/>
</g>
<!-- simple_map::add&#45;&gt;error::invalid_argument -->
<g id="edge14" class="edge">
<title>simple_map::add&#45;&gt;error::invalid_argument</title>
<path fill="none" stroke="black" d="M610.43,-349.87C649.2,-338.55 725.86,-316.16 778.98,-300.65"/>
<polygon fill="black" stroke="black" points="779.87,-304.04 788.49,-297.87 777.91,-297.32 779.87,-304.04"/>
</g>
<!-- option::extract -->
<g id="node12" class="node">
<title>option::extract</title>
<ellipse fill="none" stroke="black" cx="189" cy="-200" rx="34.39" ry="18"/>
<text text-anchor="middle" x="189" y="-196.3" font-family="Times,serif" font-size="14.00">extract</text>
</g>
<!-- simple_map::add&#45;&gt;option::extract -->
<g id="edge12" class="edge">
<title>simple_map::add&#45;&gt;option::extract</title>
<path fill="none" stroke="black" d="M565.04,-346.03C560.19,-343.8 554.99,-341.64 550,-340 532.36,-334.21 527.03,-336.45 509,-332 384.22,-301.21 340.5,-317.89 232,-249 222.67,-243.07 214.13,-234.57 207.17,-226.36"/>
<polygon fill="black" stroke="black" points="209.93,-224.21 200.96,-218.56 204.45,-228.57 209.93,-224.21"/>
</g>
<!-- option::is_none -->
<g id="node13" class="node">
<title>option::is_none</title>
<ellipse fill="none" stroke="black" cx="98" cy="-200" rx="38.19" ry="18"/>
<text text-anchor="middle" x="98" y="-196.3" font-family="Times,serif" font-size="14.00">is_none</text>
</g>
<!-- simple_map::add&#45;&gt;option::is_none -->
<g id="edge13" class="edge">
<title>simple_map::add&#45;&gt;option::is_none</title>
<path fill="none" stroke="black" d="M565.98,-345.76C560.91,-343.42 555.38,-341.28 550,-340 517.13,-332.17 277.63,-343.89 246,-332 190.16,-311.01 141.91,-258.12 116.69,-226.33"/>
<polygon fill="black" stroke="black" points="119.73,-224.54 110.84,-218.78 114.2,-228.83 119.73,-224.54"/>
</g>
<!-- simple_map::find -->
<g id="node14" class="node">
<title>simple_map::find</title>
<ellipse fill="none" stroke="black" cx="545" cy="-283" rx="27" ry="18"/>
<text text-anchor="middle" x="545" y="-279.3" font-family="Times,serif" font-size="14.00">find</text>
</g>
<!-- simple_map::add&#45;&gt;simple_map::find -->
<g id="edge15" class="edge">
<title>simple_map::add&#45;&gt;simple_map::find</title>
<path fill="none" stroke="black" d="M576.9,-340.8C571.89,-331.88 565.55,-320.6 559.85,-310.44"/>
<polygon fill="black" stroke="black" points="562.91,-308.73 554.96,-301.73 556.8,-312.16 562.91,-308.73"/>
</g>
<!-- error::canonical -->
<g id="node15" class="node">
<title>error::canonical</title>
<ellipse fill="none" stroke="black" cx="905" cy="-200" rx="44.39" ry="18"/>
<text text-anchor="middle" x="905" y="-196.3" font-family="Times,serif" font-size="14.00">canonical</text>
</g>
<!-- error::invalid_argument&#45;&gt;error::canonical -->
<g id="edge16" class="edge">
<title>error::invalid_argument&#45;&gt;error::canonical</title>
<path fill="none" stroke="black" d="M850.3,-265.22C859.89,-253.96 872.7,-238.92 883.51,-226.22"/>
<polygon fill="black" stroke="black" points="886.16,-228.52 889.98,-218.64 880.83,-223.98 886.16,-228.52"/>
</g>
<!-- error::not_found&#45;&gt;error::canonical -->
<g id="edge17" class="edge">
<title>error::not_found&#45;&gt;error::canonical</title>
<path fill="none" stroke="black" d="M960.04,-265.61C950.31,-254.19 937.16,-238.75 926.15,-225.83"/>
<polygon fill="black" stroke="black" points="929.07,-223.86 919.92,-218.52 923.74,-228.4 929.07,-223.86"/>
</g>
<!-- option::is_some -->
<g id="node16" class="node">
<title>option::is_some</title>
<ellipse fill="none" stroke="black" cx="199" cy="-117" rx="40.09" ry="18"/>
<text text-anchor="middle" x="199" y="-113.3" font-family="Times,serif" font-size="14.00">is_some</text>
</g>
<!-- option::extract&#45;&gt;option::is_some -->
<g id="edge18" class="edge">
<title>option::extract&#45;&gt;option::is_some</title>
<path fill="none" stroke="black" d="M191.12,-181.82C192.38,-171.58 194.02,-158.33 195.48,-146.55"/>
<polygon fill="black" stroke="black" points="198.91,-147.29 196.66,-136.93 191.96,-146.43 198.91,-147.29"/>
</g>
<!-- option::is_none&#45;&gt;vector::is_empty -->
<g id="edge19" class="edge">
<title>option::is_none&#45;&gt;vector::is_empty</title>
<path fill="none" stroke="black" d="M94.01,-181.76C87.46,-153.51 74.39,-97.11 66.5,-63.04"/>
<polygon fill="black" stroke="black" points="69.95,-62.44 64.28,-53.48 63.13,-64.02 69.95,-62.44"/>
</g>
<!-- option::none -->
<g id="node17" class="node">
<title>option::none</title>
<ellipse fill="none" stroke="black" cx="269" cy="-200" rx="27.9" ry="18"/>
<text text-anchor="middle" x="269" y="-196.3" font-family="Times,serif" font-size="14.00">none</text>
</g>
<!-- simple_map::find&#45;&gt;option::none -->
<g id="edge20" class="edge">
<title>simple_map::find&#45;&gt;option::none</title>
<path fill="none" stroke="black" d="M518.65,-278.63C457.46,-270.76 310.59,-251.66 306,-249 296.97,-243.76 289.39,-235.38 283.48,-227.07"/>
<polygon fill="black" stroke="black" points="286.52,-225.32 278.15,-218.82 280.64,-229.12 286.52,-225.32"/>
</g>
<!-- option::some -->
<g id="node18" class="node">
<title>option::some</title>
<ellipse fill="none" stroke="black" cx="345" cy="-200" rx="29.8" ry="18"/>
<text text-anchor="middle" x="345" y="-196.3" font-family="Times,serif" font-size="14.00">some</text>
</g>
<!-- simple_map::find&#45;&gt;option::some -->
<g id="edge21" class="edge">
<title>simple_map::find&#45;&gt;option::some</title>
<path fill="none" stroke="black" d="M522.45,-272.87C487.73,-258.81 420.92,-231.75 379.92,-215.14"/>
<polygon fill="black" stroke="black" points="381.32,-211.93 370.74,-211.42 378.69,-218.42 381.32,-211.93"/>
</g>
<!-- comparator::compare -->
<g id="node19" class="node">
<title>comparator::compare</title>
<ellipse fill="none" stroke="black" cx="545" cy="-200" rx="41.69" ry="18"/>
<text text-anchor="middle" x="545" y="-196.3" font-family="Times,serif" font-size="14.00">compare</text>
</g>
<!-- simple_map::find&#45;&gt;comparator::compare -->
<g id="edge22" class="edge">
<title>simple_map::find&#45;&gt;comparator::compare</title>
<path fill="none" stroke="black" d="M545,-264.82C545,-254.69 545,-241.6 545,-229.92"/>
<polygon fill="black" stroke="black" points="548.5,-229.95 545,-219.95 541.5,-229.95 548.5,-229.95"/>
</g>
<!-- comparator::is_smaller_than -->
<g id="node20" class="node">
<title>comparator::is_smaller_than</title>
<ellipse fill="none" stroke="black" cx="672" cy="-200" rx="66.89" ry="18"/>
<text text-anchor="middle" x="672" y="-196.3" font-family="Times,serif" font-size="14.00">is_smaller_than</text>
</g>
<!-- simple_map::find&#45;&gt;comparator::is_smaller_than -->
<g id="edge23" class="edge">
<title>simple_map::find&#45;&gt;comparator::is_smaller_than</title>
<path fill="none" stroke="black" d="M564.01,-269.87C583.27,-257.59 613.49,-238.32 637.07,-223.28"/>
<polygon fill="black" stroke="black" points="638.89,-226.27 645.44,-217.94 635.13,-220.37 638.89,-226.27"/>
</g>
<!-- option::is_some&#45;&gt;vector::is_empty -->
<g id="edge24" class="edge">
<title>option::is_some&#45;&gt;vector::is_empty</title>
<path fill="none" stroke="black" d="M165.8,-106.73C148.97,-101.22 128.62,-93.28 112,-83 101.5,-76.5 91.23,-67.71 82.63,-59.43"/>
<polygon fill="black" stroke="black" points="85.24,-57.09 75.7,-52.48 80.29,-62.04 85.24,-57.09"/>
</g>
<!-- vector::singleton -->
<g id="node21" class="node">
<title>vector::singleton</title>
<ellipse fill="none" stroke="black" cx="164" cy="-34" rx="42.79" ry="18"/>
<text text-anchor="middle" x="164" y="-30.3" font-family="Times,serif" font-size="14.00">singleton</text>
</g>
<!-- option::some&#45;&gt;vector::singleton -->
<g id="edge25" class="edge">
<title>option::some&#45;&gt;vector::singleton</title>
<path fill="none" stroke="black" d="M327.73,-185.2C321.28,-180.81 313.66,-176.46 306,-174 289.47,-168.69 161.95,-178.58 150,-166 123.88,-138.5 137.47,-91.67 150.29,-62.08"/>
<polygon fill="black" stroke="black" points="153.45,-63.58 154.44,-53.04 147.09,-60.66 153.45,-63.58"/>
</g>
<!-- bcs::to_bytes -->
<g id="node22" class="node">
<title>bcs::to_bytes</title>
<ellipse fill="none" stroke="black" cx="439" cy="-117" rx="40.09" ry="18"/>
<text text-anchor="middle" x="439" y="-113.3" font-family="Times,serif" font-size="14.00">to_bytes</text>
</g>
<!-- comparator::compare&#45;&gt;bcs::to_bytes -->
<g id="edge26" class="edge">
<title>comparator::compare&#45;&gt;bcs::to_bytes</title>
<path fill="none" stroke="black" d="M520.14,-185.2C510.74,-179.63 500.12,-172.89 491,-166 481.29,-158.67 471.32,-149.83 462.73,-141.74"/>
<polygon fill="black" stroke="black" points="465.4,-139.45 455.76,-135.04 460.55,-144.5 465.4,-139.45"/>
</g>
<!-- comparator::compare_u8_vector -->
<g id="node23" class="node">
<title>comparator::compare_u8_vector</title>
<ellipse fill="none" stroke="black" cx="584" cy="-117" rx="81.49" ry="18"/>
<text text-anchor="middle" x="584" y="-113.3" font-family="Times,serif" font-size="14.00">compare_u8_vector</text>
</g>
<!-- comparator::compare&#45;&gt;comparator::compare_u8_vector -->
<g id="edge27" class="edge">
<title>comparator::compare&#45;&gt;comparator::compare_u8_vector</title>
<path fill="none" stroke="black" d="M553.08,-182.22C558.19,-171.61 564.91,-157.65 570.78,-145.45"/>
<polygon fill="black" stroke="black" points="573.82,-147.21 575,-136.68 567.51,-144.18 573.82,-147.21"/>
</g>
</g>
</svg>
