<?xml version="1.0" encoding="UTF-8" standalone="no"?>
<!DOCTYPE svg PUBLIC "-//W3C//DTD SVG 1.1//EN"
 "http://www.w3.org/Graphics/SVG/1.1/DTD/svg11.dtd">
<!-- Generated by graphviz version 7.0.0 (20221023.0053)
 -->
<!-- Title: G Pages: 1 -->
<svg width="1675pt" height="459pt"
 viewBox="0.00 0.00 1675.00 459.00" xmlns="http://www.w3.org/2000/svg" xmlns:xlink="http://www.w3.org/1999/xlink">
<g id="graph0" class="graph" transform="scale(1 1) rotate(0) translate(4 455)">
<title>G</title>
<polygon fill="white" stroke="none" points="-4,4 -4,-455 1671,-455 1671,4 -4,4"/>
<g id="clust1" class="cluster">
<title>cluster_signer</title>
<polygon fill="none" stroke="black" points="8,-174 8,-332 158,-332 158,-174 8,-174"/>
<text text-anchor="middle" x="83" y="-316.8" font-family="Times,serif" font-size="14.00">signer</text>
</g>
<g id="clust2" class="cluster">
<title>cluster_error</title>
<polygon fill="none" stroke="black" points="707,-174 707,-332 981,-332 981,-174 707,-174"/>
<text text-anchor="middle" x="844" y="-316.8" font-family="Times,serif" font-size="14.00">error</text>
</g>
<g id="clust3" class="cluster">
<title>cluster_account</title>
<polygon fill="none" stroke="black" points="166,-257 166,-407 699,-407 699,-257 166,-257"/>
<text text-anchor="middle" x="432.5" y="-391.8" font-family="Times,serif" font-size="14.00">account</text>
</g>
<g id="clust4" class="cluster">
<title>cluster_simple_map</title>
<polygon fill="none" stroke="black" points="989,-257 989,-407 1442,-407 1442,-257 989,-257"/>
<text text-anchor="middle" x="1215.5" y="-391.8" font-family="Times,serif" font-size="14.00">simple_map</text>
</g>
<g id="clust5" class="cluster">
<title>cluster_option</title>
<polygon fill="none" stroke="black" points="1059,-91 1059,-249 1295,-249 1295,-91 1059,-91"/>
<text text-anchor="middle" x="1177" y="-233.8" font-family="Times,serif" font-size="14.00">option</text>
</g>
<g id="clust6" class="cluster">
<title>cluster_vector</title>
<polygon fill="none" stroke="black" points="1066,-8 1066,-83 1273,-83 1273,-8 1066,-8"/>
<text text-anchor="middle" x="1169.5" y="-67.8" font-family="Times,serif" font-size="14.00">vector</text>
</g>
<g id="clust7" class="cluster">
<title>cluster_comparator</title>
<polygon fill="none" stroke="black" points="1303,-91 1303,-249 1555,-249 1555,-91 1303,-91"/>
<text text-anchor="middle" x="1429" y="-233.8" font-family="Times,serif" font-size="14.00">comparator</text>
</g>
<g id="clust8" class="cluster">
<title>cluster_bcs</title>
<polygon fill="none" stroke="black" points="1563,-91 1563,-166 1659,-166 1659,-91 1563,-91"/>
<text text-anchor="middle" x="1611" y="-150.8" font-family="Times,serif" font-size="14.00">bcs</text>
</g>
<!-- retrieve_resource_account_cap -->
<g id="node1" class="node">
<title>retrieve_resource_account_cap</title>
<ellipse fill="none" stroke="black" cx="900" cy="-433" rx="120.48" ry="18"/>
<text text-anchor="middle" x="900" y="-429.3" font-family="Times,serif" font-size="14.00">retrieve_resource_account_cap</text>
</g>
<!-- signer::address_of -->
<g id="node2" class="node">
<title>signer::address_of</title>
<ellipse fill="none" stroke="black" cx="101" cy="-283" rx="48.99" ry="18"/>
<text text-anchor="middle" x="101" y="-279.3" font-family="Times,serif" font-size="14.00">address_of</text>
</g>
<!-- retrieve_resource_account_cap&#45;&gt;signer::address_of -->
<g id="edge1" class="edge">
<title>retrieve_resource_account_cap&#45;&gt;signer::address_of</title>
<path fill="none" stroke="black" d="M780.04,-431.13C577.58,-429.21 187.46,-423.4 162,-407 129.24,-385.9 113.44,-341.59 106.31,-312.32"/>
<polygon fill="black" stroke="black" points="109.74,-311.65 104.16,-302.65 102.91,-313.17 109.74,-311.65"/>
</g>
<!-- error::invalid_argument -->
<g id="node3" class="node">
<title>error::invalid_argument</title>
<ellipse fill="none" stroke="black" cx="900" cy="-283" rx="73.39" ry="18"/>
<text text-anchor="middle" x="900" y="-279.3" font-family="Times,serif" font-size="14.00">invalid_argument</text>
</g>
<!-- retrieve_resource_account_cap&#45;&gt;error::invalid_argument -->
<g id="edge2" class="edge">
<title>retrieve_resource_account_cap&#45;&gt;error::invalid_argument</title>
<path fill="none" stroke="black" d="M900,-414.73C900,-389.67 900,-342.9 900,-312.63"/>
<polygon fill="black" stroke="black" points="903.5,-312.67 900,-302.67 896.5,-312.67 903.5,-312.67"/>
</g>
<!-- error::not_found -->
<g id="node4" class="node">
<title>error::not_found</title>
<ellipse fill="none" stroke="black" cx="762" cy="-283" rx="46.59" ry="18"/>
<text text-anchor="middle" x="762" y="-279.3" font-family="Times,serif" font-size="14.00">not_found</text>
</g>
<!-- retrieve_resource_account_cap&#45;&gt;error::not_found -->
<g id="edge3" class="edge">
<title>retrieve_resource_account_cap&#45;&gt;error::not_found</title>
<path fill="none" stroke="black" d="M883.9,-414.73C859.44,-388.5 812.81,-338.49 784.85,-308.51"/>
<polygon fill="black" stroke="black" points="787.57,-306.29 778.19,-301.36 782.45,-311.06 787.57,-306.29"/>
</g>
<!-- account::create_signer_with_capability -->
<g id="node5" class="node">
<title>account::create_signer_with_capability</title>
<ellipse fill="none" stroke="black" cx="290" cy="-358" rx="116.18" ry="18"/>
<text text-anchor="middle" x="290" y="-354.3" font-family="Times,serif" font-size="14.00">create_signer_with_capability</text>
</g>
<!-- retrieve_resource_account_cap&#45;&gt;account::create_signer_with_capability -->
<g id="edge4" class="edge">
<title>retrieve_resource_account_cap&#45;&gt;account::create_signer_with_capability</title>
<path fill="none" stroke="black" d="M780.8,-430.09C660.42,-427.39 483,-421.13 416,-407 388.29,-401.16 358.63,-390.12 335.06,-380.1"/>
<polygon fill="black" stroke="black" points="336.64,-376.97 326.07,-376.19 333.85,-383.39 336.64,-376.97"/>
</g>
<!-- account::rotate_authentication_key_internal -->
<g id="node6" class="node">
<title>account::rotate_authentication_key_internal</title>
<ellipse fill="none" stroke="black" cx="558" cy="-358" rx="133.48" ry="18"/>
<text text-anchor="middle" x="558" y="-354.3" font-family="Times,serif" font-size="14.00">rotate_authentication_key_internal</text>
</g>
<!-- retrieve_resource_account_cap&#45;&gt;account::rotate_authentication_key_internal -->
<g id="edge5" class="edge">
<title>retrieve_resource_account_cap&#45;&gt;account::rotate_authentication_key_internal</title>
<path fill="none" stroke="black" d="M832.84,-417.66C777.1,-405.77 697.67,-388.81 638.52,-376.19"/>
<polygon fill="black" stroke="black" points="639.34,-372.78 628.83,-374.12 637.88,-379.63 639.34,-372.78"/>
</g>
<!-- simple_map::destroy_empty -->
<g id="node7" class="node">
<title>simple_map::destroy_empty</title>
<ellipse fill="none" stroke="black" cx="1370" cy="-358" rx="63.89" ry="18"/>
<text text-anchor="middle" x="1370" y="-354.3" font-family="Times,serif" font-size="14.00">destroy_empty</text>
</g>
<!-- retrieve_resource_account_cap&#45;&gt;simple_map::destroy_empty -->
<g id="edge6" class="edge">
<title>retrieve_resource_account_cap&#45;&gt;simple_map::destroy_empty</title>
<path fill="none" stroke="black" d="M1020.13,-431.18C1117.88,-429.26 1247.46,-423.54 1297,-407 1313.21,-401.59 1329.29,-391.64 1342.21,-382.2"/>
<polygon fill="black" stroke="black" points="1343.99,-385.25 1349.82,-376.41 1339.74,-379.68 1343.99,-385.25"/>
</g>
<!-- simple_map::length -->
<g id="node8" class="node">
<title>simple_map::length</title>
<ellipse fill="none" stroke="black" cx="1256" cy="-358" rx="32.49" ry="18"/>
<text text-anchor="middle" x="1256" y="-354.3" font-family="Times,serif" font-size="14.00">length</text>
</g>
<!-- retrieve_resource_account_cap&#45;&gt;simple_map::length -->
<g id="edge7" class="edge">
<title>retrieve_resource_account_cap&#45;&gt;simple_map::length</title>
<path fill="none" stroke="black" d="M1020.4,-431.68C1094.23,-429.71 1180.77,-423.7 1214,-407 1224.17,-401.89 1232.95,-393.14 1239.81,-384.5"/>
<polygon fill="black" stroke="black" points="1242.53,-386.71 1245.59,-376.57 1236.87,-382.59 1242.53,-386.71"/>
</g>
<!-- simple_map::remove -->
<g id="node9" class="node">
<title>simple_map::remove</title>
<ellipse fill="none" stroke="black" cx="1035" cy="-358" rx="37.89" ry="18"/>
<text text-anchor="middle" x="1035" y="-354.3" font-family="Times,serif" font-size="14.00">remove</text>
</g>
<!-- retrieve_resource_account_cap&#45;&gt;simple_map::remove -->
<g id="edge8" class="edge">
<title>retrieve_resource_account_cap&#45;&gt;simple_map::remove</title>
<path fill="none" stroke="black" d="M930.97,-415.25C951.84,-403.97 979.38,-389.07 1000.88,-377.45"/>
<polygon fill="black" stroke="black" points="1002.44,-380.59 1009.57,-372.75 999.11,-374.43 1002.44,-380.59"/>
</g>
<!-- simple_map::contains_key -->
<g id="node10" class="node">
<title>simple_map::contains_key</title>
<ellipse fill="none" stroke="black" cx="1148" cy="-358" rx="57.39" ry="18"/>
<text text-anchor="middle" x="1148" y="-354.3" font-family="Times,serif" font-size="14.00">contains_key</text>
</g>
<!-- retrieve_resource_account_cap&#45;&gt;simple_map::contains_key -->
<g id="edge9" class="edge">
<title>retrieve_resource_account_cap&#45;&gt;simple_map::contains_key</title>
<path fill="none" stroke="black" d="M1010.53,-425.65C1034.67,-421.85 1059.66,-415.99 1082,-407 1096.31,-401.24 1110.39,-391.7 1121.84,-382.63"/>
<polygon fill="black" stroke="black" points="1123.77,-385.57 1129.25,-376.5 1119.32,-380.18 1123.77,-385.57"/>
</g>
<!-- signer::borrow_address -->
<g id="node11" class="node">
<title>signer::borrow_address</title>
<ellipse fill="none" stroke="black" cx="83" cy="-200" rx="66.89" ry="18"/>
<text text-anchor="middle" x="83" y="-196.3" font-family="Times,serif" font-size="14.00">borrow_address</text>
</g>
<!-- signer::address_of&#45;&gt;signer::borrow_address -->
<g id="edge10" class="edge">
<title>signer::address_of&#45;&gt;signer::borrow_address</title>
<path fill="none" stroke="black" d="M97.18,-264.82C94.91,-254.58 91.96,-241.33 89.34,-229.55"/>
<polygon fill="black" stroke="black" points="92.79,-228.91 87.2,-219.91 85.95,-230.43 92.79,-228.91"/>
</g>
<!-- error::canonical -->
<g id="node12" class="node">
<title>error::canonical</title>
<ellipse fill="none" stroke="black" cx="831" cy="-200" rx="44.39" ry="18"/>
<text text-anchor="middle" x="831" y="-196.3" font-family="Times,serif" font-size="14.00">canonical</text>
</g>
<!-- error::invalid_argument&#45;&gt;error::canonical -->
<g id="edge11" class="edge">
<title>error::invalid_argument&#45;&gt;error::canonical</title>
<path fill="none" stroke="black" d="M885.7,-265.22C876.11,-253.96 863.3,-238.92 852.49,-226.22"/>
<polygon fill="black" stroke="black" points="855.17,-223.98 846.02,-218.64 849.84,-228.52 855.17,-223.98"/>
</g>
<!-- error::not_found&#45;&gt;error::canonical -->
<g id="edge12" class="edge">
<title>error::not_found&#45;&gt;error::canonical</title>
<path fill="none" stroke="black" d="M775.96,-265.61C785.69,-254.19 798.84,-238.75 809.85,-225.83"/>
<polygon fill="black" stroke="black" points="812.26,-228.4 816.08,-218.52 806.93,-223.86 812.26,-228.4"/>
</g>
<!-- account::create_signer -->
<g id="node13" class="node">
<title>account::create_signer</title>
<ellipse fill="none" stroke="black" cx="290" cy="-283" rx="57.69" ry="18"/>
<text text-anchor="middle" x="290" y="-279.3" font-family="Times,serif" font-size="14.00">create_signer</text>
</g>
<!-- account::create_signer_with_capability&#45;&gt;account::create_signer -->
<g id="edge13" class="edge">
<title>account::create_signer_with_capability&#45;&gt;account::create_signer</title>
<path fill="none" stroke="black" d="M290,-339.7C290,-331.67 290,-321.9 290,-312.8"/>
<polygon fill="black" stroke="black" points="293.5,-312.94 290,-302.94 286.5,-312.94 293.5,-312.94"/>
</g>
<!-- account::rotate_authentication_key_internal&#45;&gt;signer::address_of -->
<g id="edge14" class="edge">
<title>account::rotate_authentication_key_internal&#45;&gt;signer::address_of</title>
<path fill="none" stroke="black" d="M465.04,-344.76C448.4,-342.91 431.21,-341.22 415,-340 386.95,-337.89 188.43,-341.62 162,-332 147.95,-326.89 134.62,-317.19 124.03,-307.84"/>
<polygon fill="black" stroke="black" points="126.63,-305.48 116.93,-301.22 121.85,-310.6 126.63,-305.48"/>
</g>
<!-- account::rotate_authentication_key_internal&#45;&gt;error::invalid_argument -->
<g id="edge15" class="edge">
<title>account::rotate_authentication_key_internal&#45;&gt;error::invalid_argument</title>
<path fill="none" stroke="black" d="M679.63,-350.32C734.34,-346.29 792.33,-340.3 818,-332 835.73,-326.27 853.77,-316.25 868.4,-306.85"/>
<polygon fill="black" stroke="black" points="870.3,-309.79 876.68,-301.33 866.42,-303.96 870.3,-309.79"/>
</g>
<!-- account::rotate_authentication_key_internal&#45;&gt;error::not_found -->
<g id="edge16" class="edge">
<title>account::rotate_authentication_key_internal&#45;&gt;error::not_found</title>
<path fill="none" stroke="black" d="M660.22,-346.19C674.95,-342.69 689.63,-338.08 703,-332 715.83,-326.17 728.22,-316.85 738.3,-307.97"/>
<polygon fill="black" stroke="black" points="740.44,-310.77 745.41,-301.41 735.69,-305.62 740.44,-310.77"/>
</g>
<!-- account::exists_at -->
<g id="node14" class="node">
<title>account::exists_at</title>
<ellipse fill="none" stroke="black" cx="558" cy="-283" rx="41.69" ry="18"/>
<text text-anchor="middle" x="558" y="-279.3" font-family="Times,serif" font-size="14.00">exists_at</text>
</g>
<!-- account::rotate_authentication_key_internal&#45;&gt;account::exists_at -->
<g id="edge17" class="edge">
<title>account::rotate_authentication_key_internal&#45;&gt;account::exists_at</title>
<path fill="none" stroke="black" d="M558,-339.7C558,-331.67 558,-321.9 558,-312.8"/>
<polygon fill="black" stroke="black" points="561.5,-312.94 558,-302.94 554.5,-312.94 561.5,-312.94"/>
</g>
<!-- simple_map::remove&#45;&gt;error::invalid_argument -->
<g id="edge20" class="edge">
<title>simple_map::remove&#45;&gt;error::invalid_argument</title>
<path fill="none" stroke="black" d="M1009.18,-344.4C1001.37,-340.51 992.8,-336.15 985,-332 969.32,-323.66 952.23,-314.1 937.51,-305.72"/>
<polygon fill="black" stroke="black" points="939.48,-302.82 929.07,-300.89 936.01,-308.89 939.48,-302.82"/>
</g>
<!-- option::extract -->
<g id="node15" class="node">
<title>option::extract</title>
<ellipse fill="none" stroke="black" cx="1101" cy="-200" rx="34.39" ry="18"/>
<text text-anchor="middle" x="1101" y="-196.3" font-family="Times,serif" font-size="14.00">extract</text>
</g>
<!-- simple_map::remove&#45;&gt;option::extract -->
<g id="edge18" class="edge">
<title>simple_map::remove&#45;&gt;option::extract</title>
<path fill="none" stroke="black" d="M1042.19,-340.01C1053.55,-313.17 1075.75,-260.69 1089.38,-228.45"/>
<polygon fill="black" stroke="black" points="1092.56,-229.94 1093.23,-219.36 1086.11,-227.21 1092.56,-229.94"/>
</g>
<!-- option::is_some -->
<g id="node16" class="node">
<title>option::is_some</title>
<ellipse fill="none" stroke="black" cx="1107" cy="-117" rx="40.09" ry="18"/>
<text text-anchor="middle" x="1107" y="-113.3" font-family="Times,serif" font-size="14.00">is_some</text>
</g>
<!-- simple_map::remove&#45;&gt;option::is_some -->
<g id="edge19" class="edge">
<title>simple_map::remove&#45;&gt;option::is_some</title>
<path fill="none" stroke="black" d="M1031.96,-339.81C1026.83,-306.1 1019.47,-229.76 1046,-174 1052.53,-160.27 1064.07,-148.33 1075.37,-139.04"/>
<polygon fill="black" stroke="black" points="1077.3,-141.98 1083.08,-133.1 1073.03,-136.43 1077.3,-141.98"/>
</g>
<!-- simple_map::find -->
<g id="node17" class="node">
<title>simple_map::find</title>
<ellipse fill="none" stroke="black" cx="1219" cy="-283" rx="27" ry="18"/>
<text text-anchor="middle" x="1219" y="-279.3" font-family="Times,serif" font-size="14.00">find</text>
</g>
<!-- simple_map::remove&#45;&gt;simple_map::find -->
<g id="edge21" class="edge">
<title>simple_map::remove&#45;&gt;simple_map::find</title>
<path fill="none" stroke="black" d="M1064.55,-346.43C1076.53,-342.07 1090.46,-336.9 1103,-332 1131.39,-320.91 1163.38,-307.61 1186.57,-297.83"/>
<polygon fill="black" stroke="black" points="1187.63,-301.18 1195.47,-294.06 1184.9,-294.73 1187.63,-301.18"/>
</g>
<!-- simple_map::contains_key&#45;&gt;option::is_some -->
<g id="edge22" class="edge">
<title>simple_map::contains_key&#45;&gt;option::is_some</title>
<path fill="none" stroke="black" d="M1127.96,-340.81C1105.95,-321.61 1071.88,-287.33 1058,-249 1046.65,-217.66 1046.28,-205.2 1058,-174 1062.63,-161.69 1071.33,-150.31 1080.12,-141.07"/>
<polygon fill="black" stroke="black" points="1082.36,-143.78 1087.04,-134.28 1077.45,-138.79 1082.36,-143.78"/>
</g>
<!-- simple_map::contains_key&#45;&gt;simple_map::find -->
<g id="edge23" class="edge">
<title>simple_map::contains_key&#45;&gt;simple_map::find</title>
<path fill="none" stroke="black" d="M1164.11,-340.44C1173.8,-330.48 1186.26,-317.66 1196.86,-306.76"/>
<polygon fill="black" stroke="black" points="1199.36,-309.22 1203.82,-299.61 1194.34,-304.34 1199.36,-309.22"/>
</g>
<!-- option::extract&#45;&gt;option::is_some -->
<g id="edge24" class="edge">
<title>option::extract&#45;&gt;option::is_some</title>
<path fill="none" stroke="black" d="M1102.27,-181.82C1103.03,-171.58 1104.01,-158.33 1104.89,-146.55"/>
<polygon fill="black" stroke="black" points="1108.35,-147.17 1105.6,-136.94 1101.37,-146.66 1108.35,-147.17"/>
</g>
<!-- vector::is_empty -->
<g id="node18" class="node">
<title>vector::is_empty</title>
<ellipse fill="none" stroke="black" cx="1118" cy="-34" rx="43.59" ry="18"/>
<text text-anchor="middle" x="1118" y="-30.3" font-family="Times,serif" font-size="14.00">is_empty</text>
</g>
<!-- option::is_some&#45;&gt;vector::is_empty -->
<g id="edge25" class="edge">
<title>option::is_some&#45;&gt;vector::is_empty</title>
<path fill="none" stroke="black" d="M1109.33,-98.82C1110.72,-88.58 1112.52,-75.33 1114.12,-63.55"/>
<polygon fill="black" stroke="black" points="1117.55,-64.31 1115.43,-53.93 1110.62,-63.37 1117.55,-64.31"/>
</g>
<!-- option::none -->
<g id="node19" class="node">
<title>option::none</title>
<ellipse fill="none" stroke="black" cx="1181" cy="-200" rx="27.9" ry="18"/>
<text text-anchor="middle" x="1181" y="-196.3" font-family="Times,serif" font-size="14.00">none</text>
</g>
<!-- simple_map::find&#45;&gt;option::none -->
<g id="edge26" class="edge">
<title>simple_map::find&#45;&gt;option::none</title>
<path fill="none" stroke="black" d="M1211.31,-265.61C1206.24,-254.81 1199.49,-240.42 1193.65,-227.96"/>
<polygon fill="black" stroke="black" points="1196.87,-226.58 1189.45,-219.02 1190.53,-229.56 1196.87,-226.58"/>
</g>
<!-- option::some -->
<g id="node20" class="node">
<title>option::some</title>
<ellipse fill="none" stroke="black" cx="1257" cy="-200" rx="29.8" ry="18"/>
<text text-anchor="middle" x="1257" y="-196.3" font-family="Times,serif" font-size="14.00">some</text>
</g>
<!-- simple_map::find&#45;&gt;option::some -->
<g id="edge27" class="edge">
<title>simple_map::find&#45;&gt;option::some</title>
<path fill="none" stroke="black" d="M1226.69,-265.61C1231.76,-254.81 1238.51,-240.42 1244.35,-227.96"/>
<polygon fill="black" stroke="black" points="1247.47,-229.56 1248.55,-219.02 1241.13,-226.58 1247.47,-229.56"/>
</g>
<!-- comparator::compare -->
<g id="node21" class="node">
<title>comparator::compare</title>
<ellipse fill="none" stroke="black" cx="1505" cy="-200" rx="41.69" ry="18"/>
<text text-anchor="middle" x="1505" y="-196.3" font-family="Times,serif" font-size="14.00">compare</text>
</g>
<!-- simple_map::find&#45;&gt;comparator::compare -->
<g id="edge28" class="edge">
<title>simple_map::find&#45;&gt;comparator::compare</title>
<path fill="none" stroke="black" d="M1246.09,-280.26C1299.79,-276.48 1417.69,-266.42 1454,-249 1465.35,-243.56 1475.85,-234.67 1484.35,-226.01"/>
<polygon fill="black" stroke="black" points="1486.9,-228.41 1491.1,-218.68 1481.75,-223.66 1486.9,-228.41"/>
</g>
<!-- comparator::is_smaller_than -->
<g id="node22" class="node">
<title>comparator::is_smaller_than</title>
<ellipse fill="none" stroke="black" cx="1378" cy="-200" rx="66.89" ry="18"/>
<text text-anchor="middle" x="1378" y="-196.3" font-family="Times,serif" font-size="14.00">is_smaller_than</text>
</g>
<!-- simple_map::find&#45;&gt;comparator::is_smaller_than -->
<g id="edge29" class="edge">
<title>simple_map::find&#45;&gt;comparator::is_smaller_than</title>
<path fill="none" stroke="black" d="M1242.18,-273.53C1258.38,-267.35 1280.37,-258.43 1299,-249 1314.21,-241.3 1330.4,-231.73 1344.13,-223.16"/>
<polygon fill="black" stroke="black" points="1345.79,-226.25 1352.37,-217.95 1342.05,-220.34 1345.79,-226.25"/>
</g>
<!-- vector::singleton -->
<g id="node23" class="node">
<title>vector::singleton</title>
<ellipse fill="none" stroke="black" cx="1222" cy="-34" rx="42.79" ry="18"/>
<text text-anchor="middle" x="1222" y="-30.3" font-family="Times,serif" font-size="14.00">singleton</text>
</g>
<!-- option::some&#45;&gt;vector::singleton -->
<g id="edge30" class="edge">
<title>option::some&#45;&gt;vector::singleton</title>
<path fill="none" stroke="black" d="M1253.32,-181.76C1247.29,-153.51 1235.25,-97.11 1227.99,-63.04"/>
<polygon fill="black" stroke="black" points="1231.46,-62.54 1225.95,-53.49 1224.61,-64 1231.46,-62.54"/>
</g>
<!-- bcs::to_bytes -->
<g id="node24" class="node">
<title>bcs::to_bytes</title>
<ellipse fill="none" stroke="black" cx="1611" cy="-117" rx="40.09" ry="18"/>
<text text-anchor="middle" x="1611" y="-113.3" font-family="Times,serif" font-size="14.00">to_bytes</text>
</g>
<!-- comparator::compare&#45;&gt;bcs::to_bytes -->
<g id="edge31" class="edge">
<title>comparator::compare&#45;&gt;bcs::to_bytes</title>
<path fill="none" stroke="black" d="M1529.86,-185.2C1539.26,-179.63 1549.88,-172.89 1559,-166 1568.71,-158.67 1578.68,-149.83 1587.27,-141.74"/>
<polygon fill="black" stroke="black" points="1589.45,-144.5 1594.24,-135.04 1584.6,-139.45 1589.45,-144.5"/>
</g>
<!-- comparator::compare_u8_vector -->
<g id="node25" class="node">
<title>comparator::compare_u8_vector</title>
<ellipse fill="none" stroke="black" cx="1466" cy="-117" rx="81.49" ry="18"/>
<text text-anchor="middle" x="1466" y="-113.3" font-family="Times,serif" font-size="14.00">compare_u8_vector</text>
</g>
<!-- comparator::compare&#45;&gt;comparator::compare_u8_vector -->
<g id="edge32" class="edge">
<title>comparator::compare&#45;&gt;comparator::compare_u8_vector</title>
<path fill="none" stroke="black" d="M1496.92,-182.22C1491.81,-171.61 1485.09,-157.65 1479.22,-145.45"/>
<polygon fill="black" stroke="black" points="1482.49,-144.18 1475,-136.68 1476.18,-147.21 1482.49,-144.18"/>
</g>
</g>
</svg>
