<?xml version="1.0" encoding="UTF-8" standalone="no"?>
<!DOCTYPE svg PUBLIC "-//W3C//DTD SVG 1.1//EN"
 "http://www.w3.org/Graphics/SVG/1.1/DTD/svg11.dtd">
<!-- Generated by graphviz version 7.0.0 (20221023.0053)
 -->
<!-- Title: G Pages: 1 -->
<svg width="976pt" height="531pt"
 viewBox="0.00 0.00 976.00 531.00" xmlns="http://www.w3.org/2000/svg" xmlns:xlink="http://www.w3.org/1999/xlink">
<g id="graph0" class="graph" transform="scale(1 1) rotate(0) translate(4 527)">
<title>G</title>
<polygon fill="white" stroke="none" points="-4,4 -4,-527 972,-527 972,4 -4,4"/>
<g id="clust1" class="cluster">
<title>cluster_simple_map</title>
<polygon fill="none" stroke="black" points="451,-257 451,-407 672,-407 672,-257 451,-257"/>
<text text-anchor="middle" x="561.5" y="-391.8" font-family="Times,serif" font-size="14.00">simple_map</text>
</g>
<g id="clust2" class="cluster">
<title>cluster_option</title>
<polygon fill="none" stroke="black" points="372,-91 372,-249 608,-249 608,-91 372,-91"/>
<text text-anchor="middle" x="490" y="-233.8" font-family="Times,serif" font-size="14.00">option</text>
</g>
<g id="clust3" class="cluster">
<title>cluster_error</title>
<polygon fill="none" stroke="black" points="686,-174 686,-332 960,-332 960,-174 686,-174"/>
<text text-anchor="middle" x="823" y="-316.8" font-family="Times,serif" font-size="14.00">error</text>
</g>
<g id="clust4" class="cluster">
<title>cluster_vector</title>
<polygon fill="none" stroke="black" points="393,-8 393,-83 600,-83 600,-8 393,-8"/>
<text text-anchor="middle" x="496.5" y="-67.8" font-family="Times,serif" font-size="14.00">vector</text>
</g>
<g id="clust5" class="cluster">
<title>cluster_comparator</title>
<polygon fill="none" stroke="black" points="8,-91 8,-249 260,-249 260,-91 8,-91"/>
<text text-anchor="middle" x="134" y="-233.8" font-family="Times,serif" font-size="14.00">comparator</text>
</g>
<g id="clust6" class="cluster">
<title>cluster_bcs</title>
<polygon fill="none" stroke="black" points="268,-91 268,-166 364,-166 364,-91 268,-91"/>
<text text-anchor="middle" x="316" y="-150.8" font-family="Times,serif" font-size="14.00">bcs</text>
</g>
<!-- stake_pool_address -->
<g id="node1" class="node">
<title>stake_pool_address</title>
<ellipse fill="none" stroke="black" cx="701" cy="-505" rx="79.09" ry="18"/>
<text text-anchor="middle" x="701" y="-501.3" font-family="Times,serif" font-size="14.00">stake_pool_address</text>
</g>
<!-- simple_map::borrow -->
<g id="node2" class="node">
<title>simple_map::borrow</title>
<ellipse fill="none" stroke="black" cx="628" cy="-358" rx="36.29" ry="18"/>
<text text-anchor="middle" x="628" y="-354.3" font-family="Times,serif" font-size="14.00">borrow</text>
</g>
<!-- stake_pool_address&#45;&gt;simple_map::borrow -->
<g id="edge1" class="edge">
<title>stake_pool_address&#45;&gt;simple_map::borrow</title>
<path fill="none" stroke="black" d="M678.68,-487.43C667.5,-477.97 654.73,-465.19 647,-451 636.32,-431.41 631.63,-406.48 629.57,-387.51"/>
<polygon fill="black" stroke="black" points="633.08,-387.47 628.72,-377.81 626.11,-388.08 633.08,-387.47"/>
</g>
<!-- assert_staking_contract_exists -->
<g id="node3" class="node">
<title>assert_staking_contract_exists</title>
<ellipse fill="none" stroke="black" cx="774" cy="-433" rx="117.78" ry="18"/>
<text text-anchor="middle" x="774" y="-429.3" font-family="Times,serif" font-size="14.00">assert_staking_contract_exists</text>
</g>
<!-- stake_pool_address&#45;&gt;assert_staking_contract_exists -->
<g id="edge2" class="edge">
<title>stake_pool_address&#45;&gt;assert_staking_contract_exists</title>
<path fill="none" stroke="black" d="M718.67,-487.05C727.42,-478.67 738.15,-468.38 747.83,-459.1"/>
<polygon fill="black" stroke="black" points="750.1,-461.77 754.89,-452.32 745.25,-456.72 750.1,-461.77"/>
</g>
<!-- option::extract -->
<g id="node4" class="node">
<title>option::extract</title>
<ellipse fill="none" stroke="black" cx="566" cy="-200" rx="34.39" ry="18"/>
<text text-anchor="middle" x="566" y="-196.3" font-family="Times,serif" font-size="14.00">extract</text>
</g>
<!-- simple_map::borrow&#45;&gt;option::extract -->
<g id="edge3" class="edge">
<title>simple_map::borrow&#45;&gt;option::extract</title>
<path fill="none" stroke="black" d="M621.25,-340.01C610.58,-313.17 589.72,-260.69 576.91,-228.45"/>
<polygon fill="black" stroke="black" points="580.25,-227.38 573.3,-219.38 573.74,-229.96 580.25,-227.38"/>
</g>
<!-- option::is_some -->
<g id="node5" class="node">
<title>option::is_some</title>
<ellipse fill="none" stroke="black" cx="560" cy="-117" rx="40.09" ry="18"/>
<text text-anchor="middle" x="560" y="-113.3" font-family="Times,serif" font-size="14.00">is_some</text>
</g>
<!-- simple_map::borrow&#45;&gt;option::is_some -->
<g id="edge4" class="edge">
<title>simple_map::borrow&#45;&gt;option::is_some</title>
<path fill="none" stroke="black" d="M632.47,-339.81C640.29,-306.1 653.25,-229.76 627,-174 619.98,-159.1 606.86,-146.76 594.07,-137.49"/>
<polygon fill="black" stroke="black" points="596.41,-134.85 586.17,-132.14 592.49,-140.65 596.41,-134.85"/>
</g>
<!-- error::invalid_argument -->
<g id="node6" class="node">
<title>error::invalid_argument</title>
<ellipse fill="none" stroke="black" cx="767" cy="-283" rx="73.39" ry="18"/>
<text text-anchor="middle" x="767" y="-279.3" font-family="Times,serif" font-size="14.00">invalid_argument</text>
</g>
<!-- simple_map::borrow&#45;&gt;error::invalid_argument -->
<g id="edge5" class="edge">
<title>simple_map::borrow&#45;&gt;error::invalid_argument</title>
<path fill="none" stroke="black" d="M652.43,-344.31C659.99,-340.37 668.34,-336.01 676,-332 692.74,-323.23 711.19,-313.5 727.08,-305.12"/>
<polygon fill="black" stroke="black" points="728.56,-308.29 735.76,-300.53 725.29,-302.1 728.56,-308.29"/>
</g>
<!-- simple_map::find -->
<g id="node7" class="node">
<title>simple_map::find</title>
<ellipse fill="none" stroke="black" cx="486" cy="-283" rx="27" ry="18"/>
<text text-anchor="middle" x="486" y="-279.3" font-family="Times,serif" font-size="14.00">find</text>
</g>
<!-- simple_map::borrow&#45;&gt;simple_map::find -->
<g id="edge6" class="edge">
<title>simple_map::borrow&#45;&gt;simple_map::find</title>
<path fill="none" stroke="black" d="M603.59,-344.45C579.61,-332.13 542.95,-313.28 516.94,-299.91"/>
<polygon fill="black" stroke="black" points="518.7,-296.88 508.21,-295.42 515.5,-303.1 518.7,-296.88"/>
</g>
<!-- error::not_found -->
<g id="node8" class="node">
<title>error::not_found</title>
<ellipse fill="none" stroke="black" cx="905" cy="-283" rx="46.59" ry="18"/>
<text text-anchor="middle" x="905" y="-279.3" font-family="Times,serif" font-size="14.00">not_found</text>
</g>
<!-- assert_staking_contract_exists&#45;&gt;error::not_found -->
<g id="edge7" class="edge">
<title>assert_staking_contract_exists&#45;&gt;error::not_found</title>
<path fill="none" stroke="black" d="M789.28,-414.73C812.5,-388.5 856.77,-338.49 883.31,-308.51"/>
<polygon fill="black" stroke="black" points="885.6,-311.2 889.61,-301.39 880.36,-306.56 885.6,-311.2"/>
</g>
<!-- simple_map::contains_key -->
<g id="node9" class="node">
<title>simple_map::contains_key</title>
<ellipse fill="none" stroke="black" cx="516" cy="-358" rx="57.39" ry="18"/>
<text text-anchor="middle" x="516" y="-354.3" font-family="Times,serif" font-size="14.00">contains_key</text>
</g>
<!-- assert_staking_contract_exists&#45;&gt;simple_map::contains_key -->
<g id="edge8" class="edge">
<title>assert_staking_contract_exists&#45;&gt;simple_map::contains_key</title>
<path fill="none" stroke="black" d="M662.84,-426.76C636.05,-422.98 607.96,-416.85 583,-407 568.51,-401.28 554.22,-391.74 542.59,-382.67"/>
<polygon fill="black" stroke="black" points="545.01,-380.13 535.05,-376.53 540.59,-385.56 545.01,-380.13"/>
</g>
<!-- option::extract&#45;&gt;option::is_some -->
<g id="edge9" class="edge">
<title>option::extract&#45;&gt;option::is_some</title>
<path fill="none" stroke="black" d="M564.73,-181.82C563.97,-171.58 562.99,-158.33 562.11,-146.55"/>
<polygon fill="black" stroke="black" points="565.63,-146.66 561.4,-136.94 558.65,-147.17 565.63,-146.66"/>
</g>
<!-- vector::is_empty -->
<g id="node10" class="node">
<title>vector::is_empty</title>
<ellipse fill="none" stroke="black" cx="548" cy="-34" rx="43.59" ry="18"/>
<text text-anchor="middle" x="548" y="-30.3" font-family="Times,serif" font-size="14.00">is_empty</text>
</g>
<!-- option::is_some&#45;&gt;vector::is_empty -->
<g id="edge10" class="edge">
<title>option::is_some&#45;&gt;vector::is_empty</title>
<path fill="none" stroke="black" d="M557.46,-98.82C555.94,-88.58 553.97,-75.33 552.23,-63.55"/>
<polygon fill="black" stroke="black" points="555.73,-63.31 550.8,-53.93 548.81,-64.33 555.73,-63.31"/>
</g>
<!-- error::canonical -->
<g id="node11" class="node">
<title>error::canonical</title>
<ellipse fill="none" stroke="black" cx="836" cy="-200" rx="44.39" ry="18"/>
<text text-anchor="middle" x="836" y="-196.3" font-family="Times,serif" font-size="14.00">canonical</text>
</g>
<!-- error::invalid_argument&#45;&gt;error::canonical -->
<g id="edge11" class="edge">
<title>error::invalid_argument&#45;&gt;error::canonical</title>
<path fill="none" stroke="black" d="M781.3,-265.22C790.89,-253.96 803.7,-238.92 814.51,-226.22"/>
<polygon fill="black" stroke="black" points="817.16,-228.52 820.98,-218.64 811.83,-223.98 817.16,-228.52"/>
</g>
<!-- option::none -->
<g id="node12" class="node">
<title>option::none</title>
<ellipse fill="none" stroke="black" cx="486" cy="-200" rx="27.9" ry="18"/>
<text text-anchor="middle" x="486" y="-196.3" font-family="Times,serif" font-size="14.00">none</text>
</g>
<!-- simple_map::find&#45;&gt;option::none -->
<g id="edge12" class="edge">
<title>simple_map::find&#45;&gt;option::none</title>
<path fill="none" stroke="black" d="M486,-264.82C486,-254.69 486,-241.6 486,-229.92"/>
<polygon fill="black" stroke="black" points="489.5,-229.95 486,-219.95 482.5,-229.95 489.5,-229.95"/>
</g>
<!-- option::some -->
<g id="node13" class="node">
<title>option::some</title>
<ellipse fill="none" stroke="black" cx="410" cy="-200" rx="29.8" ry="18"/>
<text text-anchor="middle" x="410" y="-196.3" font-family="Times,serif" font-size="14.00">some</text>
</g>
<!-- simple_map::find&#45;&gt;option::some -->
<g id="edge13" class="edge">
<title>simple_map::find&#45;&gt;option::some</title>
<path fill="none" stroke="black" d="M469.64,-268.4C463.01,-262.65 455.42,-255.72 449,-249 442.04,-241.71 434.94,-233.32 428.74,-225.61"/>
<polygon fill="black" stroke="black" points="431.57,-223.54 422.63,-217.85 426.07,-227.87 431.57,-223.54"/>
</g>
<!-- comparator::compare -->
<g id="node14" class="node">
<title>comparator::compare</title>
<ellipse fill="none" stroke="black" cx="210" cy="-200" rx="41.69" ry="18"/>
<text text-anchor="middle" x="210" y="-196.3" font-family="Times,serif" font-size="14.00">compare</text>
</g>
<!-- simple_map::find&#45;&gt;comparator::compare -->
<g id="edge14" class="edge">
<title>simple_map::find&#45;&gt;comparator::compare</title>
<path fill="none" stroke="black" d="M461.09,-275.21C437.18,-268.64 400.06,-258.35 368,-249 329.35,-237.73 285.55,-224.38 253.89,-214.62"/>
<polygon fill="black" stroke="black" points="255.26,-211.38 244.67,-211.77 253.2,-218.07 255.26,-211.38"/>
</g>
<!-- comparator::is_smaller_than -->
<g id="node15" class="node">
<title>comparator::is_smaller_than</title>
<ellipse fill="none" stroke="black" cx="83" cy="-200" rx="66.89" ry="18"/>
<text text-anchor="middle" x="83" y="-196.3" font-family="Times,serif" font-size="14.00">is_smaller_than</text>
</g>
<!-- simple_map::find&#45;&gt;comparator::is_smaller_than -->
<g id="edge15" class="edge">
<title>simple_map::find&#45;&gt;comparator::is_smaller_than</title>
<path fill="none" stroke="black" d="M458.82,-280.86C390.72,-277.76 214.29,-268.06 159,-249 142.5,-243.31 125.91,-233.43 112.46,-224.11"/>
<polygon fill="black" stroke="black" points="114.65,-221.37 104.49,-218.37 110.56,-227.05 114.65,-221.37"/>
</g>
<!-- error::not_found&#45;&gt;error::canonical -->
<g id="edge16" class="edge">
<title>error::not_found&#45;&gt;error::canonical</title>
<path fill="none" stroke="black" d="M891.04,-265.61C881.31,-254.19 868.16,-238.75 857.15,-225.83"/>
<polygon fill="black" stroke="black" points="860.07,-223.86 850.92,-218.52 854.74,-228.4 860.07,-223.86"/>
</g>
<!-- simple_map::contains_key&#45;&gt;option::is_some -->
<g id="edge17" class="edge">
<title>simple_map::contains_key&#45;&gt;option::is_some</title>
<path fill="none" stroke="black" d="M536.69,-340.96C559.42,-321.9 594.62,-287.74 609,-249 620.6,-217.75 620.72,-205.2 609,-174 604.37,-161.69 595.67,-150.31 586.88,-141.07"/>
<polygon fill="black" stroke="black" points="589.55,-138.79 579.96,-134.28 584.64,-143.78 589.55,-138.79"/>
</g>
<!-- simple_map::contains_key&#45;&gt;simple_map::find -->
<g id="edge18" class="edge">
<title>simple_map::contains_key&#45;&gt;simple_map::find</title>
<path fill="none" stroke="black" d="M508.89,-339.7C505.4,-331.21 501.12,-320.79 497.21,-311.27"/>
<polygon fill="black" stroke="black" points="500.47,-309.99 493.43,-302.07 493.99,-312.65 500.47,-309.99"/>
</g>
<!-- vector::singleton -->
<g id="node16" class="node">
<title>vector::singleton</title>
<ellipse fill="none" stroke="black" cx="444" cy="-34" rx="42.79" ry="18"/>
<text text-anchor="middle" x="444" y="-30.3" font-family="Times,serif" font-size="14.00">singleton</text>
</g>
<!-- option::some&#45;&gt;vector::singleton -->
<g id="edge19" class="edge">
<title>option::some&#45;&gt;vector::singleton</title>
<path fill="none" stroke="black" d="M413.57,-181.76C419.43,-153.51 431.12,-97.11 438.19,-63.04"/>
<polygon fill="black" stroke="black" points="441.56,-63.99 440.17,-53.49 434.71,-62.57 441.56,-63.99"/>
</g>
<!-- bcs::to_bytes -->
<g id="node17" class="node">
<title>bcs::to_bytes</title>
<ellipse fill="none" stroke="black" cx="316" cy="-117" rx="40.09" ry="18"/>
<text text-anchor="middle" x="316" y="-113.3" font-family="Times,serif" font-size="14.00">to_bytes</text>
</g>
<!-- comparator::compare&#45;&gt;bcs::to_bytes -->
<g id="edge20" class="edge">
<title>comparator::compare&#45;&gt;bcs::to_bytes</title>
<path fill="none" stroke="black" d="M234.86,-185.2C244.26,-179.63 254.88,-172.89 264,-166 273.71,-158.67 283.68,-149.83 292.27,-141.74"/>
<polygon fill="black" stroke="black" points="294.45,-144.5 299.24,-135.04 289.6,-139.45 294.45,-144.5"/>
</g>
<!-- comparator::compare_u8_vector -->
<g id="node18" class="node">
<title>comparator::compare_u8_vector</title>
<ellipse fill="none" stroke="black" cx="171" cy="-117" rx="81.49" ry="18"/>
<text text-anchor="middle" x="171" y="-113.3" font-family="Times,serif" font-size="14.00">compare_u8_vector</text>
</g>
<!-- comparator::compare&#45;&gt;comparator::compare_u8_vector -->
<g id="edge21" class="edge">
<title>comparator::compare&#45;&gt;comparator::compare_u8_vector</title>
<path fill="none" stroke="black" d="M201.92,-182.22C196.81,-171.61 190.09,-157.65 184.22,-145.45"/>
<polygon fill="black" stroke="black" points="187.49,-144.18 180,-136.68 181.18,-147.21 187.49,-144.18"/>
</g>
</g>
</svg>
