<?xml version="1.0" encoding="UTF-8" standalone="no"?>
<!DOCTYPE svg PUBLIC "-//W3C//DTD SVG 1.1//EN"
 "http://www.w3.org/Graphics/SVG/1.1/DTD/svg11.dtd">
<!-- Generated by graphviz version 7.0.0 (20221023.0053)
 -->
<!-- Title: G Pages: 1 -->
<svg width="692pt" height="745pt"
 viewBox="0.00 0.00 692.00 745.00" xmlns="http://www.w3.org/2000/svg" xmlns:xlink="http://www.w3.org/1999/xlink">
<g id="graph0" class="graph" transform="scale(1 1) rotate(0) translate(4 741)">
<title>G</title>
<polygon fill="white" stroke="none" points="-4,4 -4,-741 688,-741 688,4 -4,4"/>
<g id="clust1" class="cluster">
<title>cluster_staking_contract</title>
<polygon fill="none" stroke="black" points="234,-208 234,-427 548,-427 548,-208 234,-208"/>
<text text-anchor="middle" x="391" y="-411.8" font-family="Times,serif" font-size="14.00">staking_contract</text>
</g>
<g id="clust2" class="cluster">
<title>cluster_vesting</title>
<polygon fill="none" stroke="black" points="472,-579 472,-654 676,-654 676,-579 472,-579"/>
<text text-anchor="middle" x="574" y="-638.8" font-family="Times,serif" font-size="14.00">vesting</text>
</g>
<g id="clust3" class="cluster">
<title>cluster_genesis</title>
<polygon fill="none" stroke="black" points="8,-435 8,-729 464,-729 464,-435 8,-435"/>
<text text-anchor="middle" x="236" y="-713.8" font-family="Times,serif" font-size="14.00">genesis</text>
</g>
<!-- add_stake_with_cap -->
<g id="node1" class="node">
<title>add_stake_with_cap</title>
<ellipse fill="none" stroke="black" cx="356" cy="-18" rx="82.59" ry="18"/>
<text text-anchor="middle" x="356" y="-14.3" font-family="Times,serif" font-size="14.00">add_stake_with_cap</text>
</g>
<!-- add_stake -->
<g id="node2" class="node">
<title>add_stake</title>
<ellipse fill="none" stroke="black" cx="356" cy="-90" rx="46.29" ry="18"/>
<text text-anchor="middle" x="356" y="-86.3" font-family="Times,serif" font-size="14.00">add_stake</text>
</g>
<!-- add_stake&#45;&gt;add_stake_with_cap -->
<g id="edge1" class="edge">
<title>add_stake&#45;&gt;add_stake_with_cap</title>
<path fill="none" stroke="black" d="M356,-71.7C356,-64.41 356,-55.73 356,-47.54"/>
<polygon fill="black" stroke="black" points="359.5,-47.62 356,-37.62 352.5,-47.62 359.5,-47.62"/>
</g>
<!-- staking_contract::add_stake -->
<g id="node3" class="node">
<title>staking_contract::add_stake</title>
<ellipse fill="none" stroke="black" cx="288" cy="-378" rx="46.29" ry="18"/>
<text text-anchor="middle" x="288" y="-374.3" font-family="Times,serif" font-size="14.00">add_stake</text>
</g>
<!-- staking_contract::add_stake&#45;&gt;add_stake_with_cap -->
<g id="edge2" class="edge">
<title>staking_contract::add_stake&#45;&gt;add_stake_with_cap</title>
<path fill="none" stroke="black" d="M276.5,-360.51C269.92,-350.39 262.01,-336.92 257,-324 242.38,-286.29 238,-275.45 238,-235 238,-235 238,-235 238,-161 238,-109.43 284.6,-66.6 319.23,-41.89"/>
<polygon fill="black" stroke="black" points="321.14,-44.82 327.39,-36.27 317.17,-39.06 321.14,-44.82"/>
</g>
<!-- staking_contract::create_staking_contract_with_coins -->
<g id="node4" class="node">
<title>staking_contract::create_staking_contract_with_coins</title>
<ellipse fill="none" stroke="black" cx="403" cy="-306" rx="137.28" ry="18"/>
<text text-anchor="middle" x="403" y="-302.3" font-family="Times,serif" font-size="14.00">create_staking_contract_with_coins</text>
</g>
<!-- staking_contract::create_staking_contract_with_coins&#45;&gt;add_stake_with_cap -->
<g id="edge3" class="edge">
<title>staking_contract::create_staking_contract_with_coins&#45;&gt;add_stake_with_cap</title>
<path fill="none" stroke="black" d="M421.86,-287.68C431.03,-278.09 441.29,-265.43 447,-252 465.82,-207.7 468.04,-190.33 455,-144 443.46,-103 410.03,-66.13 385.19,-43.24"/>
<polygon fill="black" stroke="black" points="387.73,-40.81 377.94,-36.75 383.06,-46.02 387.73,-40.81"/>
</g>
<!-- staking_contract::create_stake_pool -->
<g id="node8" class="node">
<title>staking_contract::create_stake_pool</title>
<ellipse fill="none" stroke="black" cx="364" cy="-234" rx="74.19" ry="18"/>
<text text-anchor="middle" x="364" y="-230.3" font-family="Times,serif" font-size="14.00">create_stake_pool</text>
</g>
<!-- staking_contract::create_staking_contract_with_coins&#45;&gt;staking_contract::create_stake_pool -->
<g id="edge11" class="edge">
<title>staking_contract::create_staking_contract_with_coins&#45;&gt;staking_contract::create_stake_pool</title>
<path fill="none" stroke="black" d="M393.36,-287.7C389.06,-279.98 383.9,-270.71 379.11,-262.11"/>
<polygon fill="black" stroke="black" points="382.19,-260.46 374.27,-253.43 376.08,-263.87 382.19,-260.46"/>
</g>
<!-- initialize_stake_owner -->
<g id="node5" class="node">
<title>initialize_stake_owner</title>
<ellipse fill="none" stroke="black" cx="356" cy="-162" rx="90.18" ry="18"/>
<text text-anchor="middle" x="356" y="-158.3" font-family="Times,serif" font-size="14.00">initialize_stake_owner</text>
</g>
<!-- initialize_stake_owner&#45;&gt;add_stake -->
<g id="edge4" class="edge">
<title>initialize_stake_owner&#45;&gt;add_stake</title>
<path fill="none" stroke="black" d="M356,-143.7C356,-136.41 356,-127.73 356,-119.54"/>
<polygon fill="black" stroke="black" points="359.5,-119.62 356,-109.62 352.5,-119.62 359.5,-119.62"/>
</g>
<!-- staking_contract::create_staking_contract -->
<g id="node6" class="node">
<title>staking_contract::create_staking_contract</title>
<ellipse fill="none" stroke="black" cx="446" cy="-378" rx="94.48" ry="18"/>
<text text-anchor="middle" x="446" y="-374.3" font-family="Times,serif" font-size="14.00">create_staking_contract</text>
</g>
<!-- staking_contract::create_staking_contract&#45;&gt;staking_contract::create_staking_contract_with_coins -->
<g id="edge5" class="edge">
<title>staking_contract::create_staking_contract&#45;&gt;staking_contract::create_staking_contract_with_coins</title>
<path fill="none" stroke="black" d="M435.37,-359.7C430.58,-351.9 424.81,-342.51 419.48,-333.83"/>
<polygon fill="black" stroke="black" points="422.52,-332.08 414.3,-325.39 416.55,-335.75 422.52,-332.08"/>
</g>
<!-- vesting::create_vesting_contract -->
<g id="node7" class="node">
<title>vesting::create_vesting_contract</title>
<ellipse fill="none" stroke="black" cx="574" cy="-605" rx="94.48" ry="18"/>
<text text-anchor="middle" x="574" y="-601.3" font-family="Times,serif" font-size="14.00">create_vesting_contract</text>
</g>
<!-- vesting::create_vesting_contract&#45;&gt;staking_contract::create_staking_contract_with_coins -->
<g id="edge6" class="edge">
<title>vesting::create_vesting_contract&#45;&gt;staking_contract::create_staking_contract_with_coins</title>
<path fill="none" stroke="black" d="M577.87,-586.69C586.5,-543.33 602.55,-428.67 549,-360 536.27,-343.67 518.04,-332.37 498.76,-324.55"/>
<polygon fill="black" stroke="black" points="499.98,-321.27 489.38,-321.08 497.55,-327.84 499.98,-321.27"/>
</g>
<!-- staking_contract::create_stake_pool&#45;&gt;initialize_stake_owner -->
<g id="edge7" class="edge">
<title>staking_contract::create_stake_pool&#45;&gt;initialize_stake_owner</title>
<path fill="none" stroke="black" d="M362.02,-215.7C361.19,-208.41 360.2,-199.73 359.26,-191.54"/>
<polygon fill="black" stroke="black" points="362.74,-191.15 358.13,-181.61 355.78,-191.94 362.74,-191.15"/>
</g>
<!-- genesis::create_initialize_validator -->
<g id="node9" class="node">
<title>genesis::create_initialize_validator</title>
<ellipse fill="none" stroke="black" cx="200" cy="-461" rx="102.88" ry="18"/>
<text text-anchor="middle" x="200" y="-457.3" font-family="Times,serif" font-size="14.00">create_initialize_validator</text>
</g>
<!-- genesis::create_initialize_validator&#45;&gt;initialize_stake_owner -->
<g id="edge8" class="edge">
<title>genesis::create_initialize_validator&#45;&gt;initialize_stake_owner</title>
<path fill="none" stroke="black" d="M196.45,-442.71C188.4,-398.31 173.55,-278.79 230,-208 241.39,-193.71 257.68,-183.96 274.78,-177.3"/>
<polygon fill="black" stroke="black" points="275.79,-180.65 284.07,-174.04 273.48,-174.05 275.79,-180.65"/>
</g>
<!-- genesis::create_initialize_validator&#45;&gt;staking_contract::create_staking_contract -->
<g id="edge9" class="edge">
<title>genesis::create_initialize_validator&#45;&gt;staking_contract::create_staking_contract</title>
<path fill="none" stroke="black" d="M268.47,-447.25C292.36,-442 319.15,-435.21 343,-427 363.99,-419.78 386.43,-409.63 404.99,-400.52"/>
<polygon fill="black" stroke="black" points="406.41,-403.72 413.8,-396.13 403.28,-397.46 406.41,-403.72"/>
</g>
<!-- genesis::create_employee_validators -->
<g id="node10" class="node">
<title>genesis::create_employee_validators</title>
<ellipse fill="none" stroke="black" cx="346" cy="-680" rx="109.68" ry="18"/>
<text text-anchor="middle" x="346" y="-676.3" font-family="Times,serif" font-size="14.00">create_employee_validators</text>
</g>
<!-- genesis::create_employee_validators&#45;&gt;vesting::create_vesting_contract -->
<g id="edge10" class="edge">
<title>genesis::create_employee_validators&#45;&gt;vesting::create_vesting_contract</title>
<path fill="none" stroke="black" d="M420.56,-666.47C436.39,-663.05 452.88,-658.9 468,-654 489.89,-646.9 513.28,-636.62 532.51,-627.39"/>
<polygon fill="black" stroke="black" points="533.92,-630.59 541.37,-623.06 530.85,-624.3 533.92,-630.59"/>
</g>
<!-- genesis::create_initialize_validators_with_commission -->
<g id="node11" class="node">
<title>genesis::create_initialize_validators_with_commission</title>
<ellipse fill="none" stroke="black" cx="198" cy="-533" rx="173.57" ry="18"/>
<text text-anchor="middle" x="198" y="-529.3" font-family="Times,serif" font-size="14.00">create_initialize_validators_with_commission</text>
</g>
<!-- genesis::create_initialize_validators_with_commission&#45;&gt;genesis::create_initialize_validator -->
<g id="edge12" class="edge">
<title>genesis::create_initialize_validators_with_commission&#45;&gt;genesis::create_initialize_validator</title>
<path fill="none" stroke="black" d="M198.49,-514.7C198.7,-507.41 198.95,-498.73 199.18,-490.54"/>
<polygon fill="black" stroke="black" points="202.68,-490.71 199.47,-480.62 195.68,-490.51 202.68,-490.71"/>
</g>
<!-- genesis::create_initialize_validators -->
<g id="node12" class="node">
<title>genesis::create_initialize_validators</title>
<ellipse fill="none" stroke="black" cx="156" cy="-605" rx="105.88" ry="18"/>
<text text-anchor="middle" x="156" y="-601.3" font-family="Times,serif" font-size="14.00">create_initialize_validators</text>
</g>
<!-- genesis::create_initialize_validators&#45;&gt;genesis::create_initialize_validators_with_commission -->
<g id="edge13" class="edge">
<title>genesis::create_initialize_validators&#45;&gt;genesis::create_initialize_validators_with_commission</title>
<path fill="none" stroke="black" d="M166.38,-586.7C171.06,-578.9 176.69,-569.51 181.9,-560.83"/>
<polygon fill="black" stroke="black" points="184.81,-562.78 186.96,-552.4 178.81,-559.18 184.81,-562.78"/>
</g>
<!-- genesis::initialize_for_verification -->
<g id="node13" class="node">
<title>genesis::initialize_for_verification</title>
<ellipse fill="none" stroke="black" cx="117" cy="-680" rx="100.98" ry="18"/>
<text text-anchor="middle" x="117" y="-676.3" font-family="Times,serif" font-size="14.00">initialize_for_verification</text>
</g>
<!-- genesis::initialize_for_verification&#45;&gt;genesis::create_initialize_validators -->
<g id="edge14" class="edge">
<title>genesis::initialize_for_verification&#45;&gt;genesis::create_initialize_validators</title>
<path fill="none" stroke="black" d="M126.24,-661.7C130.73,-653.31 136.22,-643.02 141.27,-633.58"/>
<polygon fill="black" stroke="black" points="144.35,-635.23 145.98,-624.76 138.18,-631.93 144.35,-635.23"/>
</g>
</g>
</svg>
