<?xml version="1.0" encoding="UTF-8" standalone="no"?>
<!DOCTYPE svg PUBLIC "-//W3C//DTD SVG 1.1//EN"
 "http://www.w3.org/Graphics/SVG/1.1/DTD/svg11.dtd">
<!-- Generated by graphviz version 7.0.0 (20221023.0053)
 -->
<!-- Title: G Pages: 1 -->
<svg width="2159pt" height="596pt"
 viewBox="0.00 0.00 2159.00 596.00" xmlns="http://www.w3.org/2000/svg" xmlns:xlink="http://www.w3.org/1999/xlink">
<g id="graph0" class="graph" transform="scale(1 1) rotate(0) translate(4 592)">
<title>G</title>
<polygon fill="white" stroke="none" points="-4,4 -4,-592 2155,-592 2155,4 -4,4"/>
<g id="clust1" class="cluster">
<title>cluster_aptos_governance</title>
<polygon fill="none" stroke="black" points="8,-64 8,-211 228,-211 228,-64 8,-64"/>
<text text-anchor="middle" x="118" y="-195.8" font-family="Times,serif" font-size="14.00">aptos_governance</text>
</g>
<g id="clust2" class="cluster">
<title>cluster_staking_contract</title>
<polygon fill="none" stroke="black" points="268,-64 268,-358 927,-358 927,-64 268,-64"/>
<text text-anchor="middle" x="597.5" y="-342.8" font-family="Times,serif" font-size="14.00">staking_contract</text>
</g>
<g id="clust3" class="cluster">
<title>cluster_vesting</title>
<polygon fill="none" stroke="black" points="935,-283 935,-505 1636,-505 1636,-283 935,-283"/>
<text text-anchor="middle" x="1285.5" y="-489.8" font-family="Times,serif" font-size="14.00">vesting</text>
</g>
<g id="clust4" class="cluster">
<title>cluster_staking_proxy</title>
<polygon fill="none" stroke="black" points="1644,-430 1644,-580 2143,-580 2143,-430 1644,-430"/>
<text text-anchor="middle" x="1893.5" y="-564.8" font-family="Times,serif" font-size="14.00">staking_proxy</text>
</g>
<!-- get_stake -->
<g id="node1" class="node">
<title>get_stake</title>
<ellipse fill="none" stroke="black" cx="492" cy="-18" rx="44.39" ry="18"/>
<text text-anchor="middle" x="492" y="-14.3" font-family="Times,serif" font-size="14.00">get_stake</text>
</g>
<!-- aptos_governance::get_voting_power -->
<g id="node2" class="node">
<title>aptos_governance::get_voting_power</title>
<ellipse fill="none" stroke="black" cx="145" cy="-90" rx="74.99" ry="18"/>
<text text-anchor="middle" x="145" y="-86.3" font-family="Times,serif" font-size="14.00">get_voting_power</text>
</g>
<!-- aptos_governance::get_voting_power&#45;&gt;get_stake -->
<g id="edge1" class="edge">
<title>aptos_governance::get_voting_power&#45;&gt;get_stake</title>
<path fill="none" stroke="black" d="M190.51,-75.26C204.39,-71.33 219.76,-67.23 234,-64 304.49,-48 386.93,-34.51 439.29,-26.6"/>
<polygon fill="black" stroke="black" points="439.77,-30.06 449.14,-25.12 438.73,-23.14 439.77,-30.06"/>
</g>
<!-- staking_contract::add_distribution -->
<g id="node3" class="node">
<title>staking_contract::add_distribution</title>
<ellipse fill="none" stroke="black" cx="817" cy="-90" rx="68.49" ry="18"/>
<text text-anchor="middle" x="817" y="-86.3" font-family="Times,serif" font-size="14.00">add_distribution</text>
</g>
<!-- staking_contract::add_distribution&#45;&gt;get_stake -->
<g id="edge2" class="edge">
<title>staking_contract::add_distribution&#45;&gt;get_stake</title>
<path fill="none" stroke="black" d="M776.8,-75.02C764.74,-71.12 751.42,-67.11 739,-64 672.7,-47.41 594.97,-34.26 544.67,-26.56"/>
<polygon fill="black" stroke="black" points="545.34,-23.12 534.93,-25.09 544.29,-30.05 545.34,-23.12"/>
</g>
<!-- staking_contract::distribute_internal -->
<g id="node4" class="node">
<title>staking_contract::distribute_internal</title>
<ellipse fill="none" stroke="black" cx="576" cy="-162" rx="75.29" ry="18"/>
<text text-anchor="middle" x="576" y="-158.3" font-family="Times,serif" font-size="14.00">distribute_internal</text>
</g>
<!-- staking_contract::distribute_internal&#45;&gt;get_stake -->
<g id="edge3" class="edge">
<title>staking_contract::distribute_internal&#45;&gt;get_stake</title>
<path fill="none" stroke="black" d="M521.72,-149.21C482.66,-139.5 434.86,-124.66 423,-108 411.66,-92.07 413.69,-81.19 423,-64 429.27,-52.43 439.95,-43.36 451.06,-36.49"/>
<polygon fill="black" stroke="black" points="452.5,-39.69 459.51,-31.75 449.08,-33.59 452.5,-39.69"/>
</g>
<!-- staking_contract::get_staking_contract_amounts_internal -->
<g id="node5" class="node">
<title>staking_contract::get_staking_contract_amounts_internal</title>
<ellipse fill="none" stroke="black" cx="581" cy="-90" rx="149.47" ry="18"/>
<text text-anchor="middle" x="581" y="-86.3" font-family="Times,serif" font-size="14.00">get_staking_contract_amounts_internal</text>
</g>
<!-- staking_contract::get_staking_contract_amounts_internal&#45;&gt;get_stake -->
<g id="edge4" class="edge">
<title>staking_contract::get_staking_contract_amounts_internal&#45;&gt;get_stake</title>
<path fill="none" stroke="black" d="M559.46,-72.05C547.78,-62.87 533.21,-51.41 520.59,-41.49"/>
<polygon fill="black" stroke="black" points="523.04,-38.96 513.01,-35.53 518.71,-44.46 523.04,-38.96"/>
</g>
<!-- staking_contract::unlock_stake -->
<g id="node6" class="node">
<title>staking_contract::unlock_stake</title>
<ellipse fill="none" stroke="black" cx="862" cy="-237" rx="57.39" ry="18"/>
<text text-anchor="middle" x="862" y="-233.3" font-family="Times,serif" font-size="14.00">unlock_stake</text>
</g>
<!-- staking_contract::unlock_stake&#45;&gt;get_stake -->
<g id="edge5" class="edge">
<title>staking_contract::unlock_stake&#45;&gt;get_stake</title>
<path fill="none" stroke="black" d="M903.55,-224.23C909.27,-220.86 914.41,-216.54 918,-211 954.03,-155.46 944.83,-106.41 894,-64 867.88,-42.21 651.06,-27.63 547.14,-21.82"/>
<polygon fill="black" stroke="black" points="547.63,-18.35 537.45,-21.29 547.25,-25.33 547.63,-18.35"/>
</g>
<!-- staking_contract::unlock_stake&#45;&gt;staking_contract::add_distribution -->
<g id="edge10" class="edge">
<title>staking_contract::unlock_stake&#45;&gt;staking_contract::add_distribution</title>
<path fill="none" stroke="black" d="M897.15,-222.4C901.47,-219.29 905.31,-215.53 908,-211 923.22,-185.41 922.84,-169.82 908,-144 899.26,-128.79 884.28,-117.53 868.97,-109.4"/>
<polygon fill="black" stroke="black" points="870.81,-106.41 860.28,-105.17 867.74,-112.7 870.81,-106.41"/>
</g>
<!-- staking_contract::unlock_stake&#45;&gt;staking_contract::distribute_internal -->
<g id="edge14" class="edge">
<title>staking_contract::unlock_stake&#45;&gt;staking_contract::distribute_internal</title>
<path fill="none" stroke="black" d="M820.71,-224.06C812.58,-222.08 804.07,-220.26 796,-219 736.18,-209.63 718.04,-228.25 660,-211 641.51,-205.5 622.7,-195.28 607.59,-185.67"/>
<polygon fill="black" stroke="black" points="609.77,-182.92 599.49,-180.34 605.92,-188.76 609.77,-182.92"/>
</g>
<!-- staking_contract::request_commission_internal -->
<g id="node10" class="node">
<title>staking_contract::request_commission_internal</title>
<ellipse fill="none" stroke="black" cx="784" cy="-162" rx="115.08" ry="18"/>
<text text-anchor="middle" x="784" y="-158.3" font-family="Times,serif" font-size="14.00">request_commission_internal</text>
</g>
<!-- staking_contract::unlock_stake&#45;&gt;staking_contract::request_commission_internal -->
<g id="edge21" class="edge">
<title>staking_contract::unlock_stake&#45;&gt;staking_contract::request_commission_internal</title>
<path fill="none" stroke="black" d="M844.3,-219.44C834.34,-210.12 821.71,-198.3 810.59,-187.88"/>
<polygon fill="black" stroke="black" points="813.24,-185.57 803.55,-181.3 808.46,-190.68 813.24,-185.57"/>
</g>
<!-- vesting::terminate_vesting_contract -->
<g id="node7" class="node">
<title>vesting::terminate_vesting_contract</title>
<ellipse fill="none" stroke="black" cx="1050" cy="-456" rx="106.68" ry="18"/>
<text text-anchor="middle" x="1050" y="-452.3" font-family="Times,serif" font-size="14.00">terminate_vesting_contract</text>
</g>
<!-- vesting::terminate_vesting_contract&#45;&gt;get_stake -->
<g id="edge6" class="edge">
<title>vesting::terminate_vesting_contract&#45;&gt;get_stake</title>
<path fill="none" stroke="black" d="M942.99,-455.5C752.62,-454.21 365.54,-441.11 264,-358 246.6,-343.76 248,-332.49 248,-310 248,-310 248,-310 248,-161 248,-117.31 233.59,-95.38 264,-64 287.48,-39.77 377.57,-28 437.23,-22.74"/>
<polygon fill="black" stroke="black" points="437.18,-26.26 446.85,-21.93 436.59,-19.28 437.18,-26.26"/>
</g>
<!-- vesting::unlock_stake -->
<g id="node16" class="node">
<title>vesting::unlock_stake</title>
<ellipse fill="none" stroke="black" cx="1106" cy="-384" rx="57.39" ry="18"/>
<text text-anchor="middle" x="1106" y="-380.3" font-family="Times,serif" font-size="14.00">unlock_stake</text>
</g>
<!-- vesting::terminate_vesting_contract&#45;&gt;vesting::unlock_stake -->
<g id="edge28" class="edge">
<title>vesting::terminate_vesting_contract&#45;&gt;vesting::unlock_stake</title>
<path fill="none" stroke="black" d="M1063.84,-437.7C1070.38,-429.52 1078.32,-419.6 1085.53,-410.58"/>
<polygon fill="black" stroke="black" points="1088.24,-412.8 1091.76,-402.8 1082.78,-408.43 1088.24,-412.8"/>
</g>
<!-- vesting::distribute -->
<g id="node23" class="node">
<title>vesting::distribute</title>
<ellipse fill="none" stroke="black" cx="987" cy="-384" rx="44.39" ry="18"/>
<text text-anchor="middle" x="987" y="-380.3" font-family="Times,serif" font-size="14.00">distribute</text>
</g>
<!-- vesting::terminate_vesting_contract&#45;&gt;vesting::distribute -->
<g id="edge36" class="edge">
<title>vesting::terminate_vesting_contract&#45;&gt;vesting::distribute</title>
<path fill="none" stroke="black" d="M1034.43,-437.7C1026.81,-429.23 1017.5,-418.89 1009.15,-409.61"/>
<polygon fill="black" stroke="black" points="1011.83,-407.36 1002.54,-402.27 1006.63,-412.04 1011.83,-407.36"/>
</g>
<!-- aptos_governance::create_proposal -->
<g id="node8" class="node">
<title>aptos_governance::create_proposal</title>
<ellipse fill="none" stroke="black" cx="154" cy="-162" rx="66.09" ry="18"/>
<text text-anchor="middle" x="154" y="-158.3" font-family="Times,serif" font-size="14.00">create_proposal</text>
</g>
<!-- aptos_governance::create_proposal&#45;&gt;aptos_governance::get_voting_power -->
<g id="edge7" class="edge">
<title>aptos_governance::create_proposal&#45;&gt;aptos_governance::get_voting_power</title>
<path fill="none" stroke="black" d="M151.78,-143.7C150.83,-136.32 149.7,-127.52 148.63,-119.25"/>
<polygon fill="black" stroke="black" points="152.14,-119.08 147.39,-109.61 145.2,-119.97 152.14,-119.08"/>
</g>
<!-- aptos_governance::vote -->
<g id="node9" class="node">
<title>aptos_governance::vote</title>
<ellipse fill="none" stroke="black" cx="43" cy="-162" rx="27" ry="18"/>
<text text-anchor="middle" x="43" y="-158.3" font-family="Times,serif" font-size="14.00">vote</text>
</g>
<!-- aptos_governance::vote&#45;&gt;aptos_governance::get_voting_power -->
<g id="edge8" class="edge">
<title>aptos_governance::vote&#45;&gt;aptos_governance::get_voting_power</title>
<path fill="none" stroke="black" d="M61.24,-148.49C75.22,-138.89 94.91,-125.37 111.69,-113.86"/>
<polygon fill="black" stroke="black" points="113.65,-116.76 119.91,-108.22 109.69,-110.99 113.65,-116.76"/>
</g>
<!-- staking_contract::request_commission_internal&#45;&gt;staking_contract::add_distribution -->
<g id="edge9" class="edge">
<title>staking_contract::request_commission_internal&#45;&gt;staking_contract::add_distribution</title>
<path fill="none" stroke="black" d="M792.16,-143.7C795.75,-136.07 800.07,-126.92 804.08,-118.4"/>
<polygon fill="black" stroke="black" points="807.19,-120.01 808.29,-109.47 800.86,-117.03 807.19,-120.01"/>
</g>
<!-- staking_contract::request_commission_internal&#45;&gt;staking_contract::get_staking_contract_amounts_internal -->
<g id="edge15" class="edge">
<title>staking_contract::request_commission_internal&#45;&gt;staking_contract::get_staking_contract_amounts_internal</title>
<path fill="none" stroke="black" d="M737.94,-145.12C708.74,-135.05 670.72,-121.94 639.41,-111.14"/>
<polygon fill="black" stroke="black" points="640.67,-107.87 630.08,-107.92 638.39,-114.49 640.67,-107.87"/>
</g>
<!-- staking_contract::distribute -->
<g id="node11" class="node">
<title>staking_contract::distribute</title>
<ellipse fill="none" stroke="black" cx="557" cy="-237" rx="44.39" ry="18"/>
<text text-anchor="middle" x="557" y="-233.3" font-family="Times,serif" font-size="14.00">distribute</text>
</g>
<!-- staking_contract::distribute&#45;&gt;staking_contract::distribute_internal -->
<g id="edge11" class="edge">
<title>staking_contract::distribute&#45;&gt;staking_contract::distribute_internal</title>
<path fill="none" stroke="black" d="M561.5,-218.7C563.62,-210.58 566.19,-200.68 568.58,-191.5"/>
<polygon fill="black" stroke="black" points="571.95,-192.45 571.08,-181.89 565.18,-190.69 571.95,-192.45"/>
</g>
<!-- staking_contract::request_commission -->
<g id="node12" class="node">
<title>staking_contract::request_commission</title>
<ellipse fill="none" stroke="black" cx="703" cy="-237" rx="83.69" ry="18"/>
<text text-anchor="middle" x="703" y="-233.3" font-family="Times,serif" font-size="14.00">request_commission</text>
</g>
<!-- staking_contract::request_commission&#45;&gt;staking_contract::distribute_internal -->
<g id="edge12" class="edge">
<title>staking_contract::request_commission&#45;&gt;staking_contract::distribute_internal</title>
<path fill="none" stroke="black" d="M674.5,-219.62C656.56,-209.31 633.21,-195.88 613.74,-184.7"/>
<polygon fill="black" stroke="black" points="615.7,-181.78 605.28,-179.83 612.21,-187.85 615.7,-181.78"/>
</g>
<!-- staking_contract::request_commission&#45;&gt;staking_contract::request_commission_internal -->
<g id="edge19" class="edge">
<title>staking_contract::request_commission&#45;&gt;staking_contract::request_commission_internal</title>
<path fill="none" stroke="black" d="M721.79,-219.07C732.14,-209.74 745.18,-197.99 756.65,-187.65"/>
<polygon fill="black" stroke="black" points="758.83,-190.4 763.91,-181.11 754.14,-185.2 758.83,-190.4"/>
</g>
<!-- staking_contract::switch_operator -->
<g id="node13" class="node">
<title>staking_contract::switch_operator</title>
<ellipse fill="none" stroke="black" cx="427" cy="-237" rx="67.69" ry="18"/>
<text text-anchor="middle" x="427" y="-233.3" font-family="Times,serif" font-size="14.00">switch_operator</text>
</g>
<!-- staking_contract::switch_operator&#45;&gt;staking_contract::distribute_internal -->
<g id="edge13" class="edge">
<title>staking_contract::switch_operator&#45;&gt;staking_contract::distribute_internal</title>
<path fill="none" stroke="black" d="M465.62,-221.93C474.08,-218.57 482.92,-214.84 491,-211 507.42,-203.21 525,-193.52 539.89,-184.89"/>
<polygon fill="black" stroke="black" points="541.56,-187.97 548.41,-179.89 538.01,-181.93 541.56,-187.97"/>
</g>
<!-- staking_contract::switch_operator&#45;&gt;staking_contract::request_commission_internal -->
<g id="edge20" class="edge">
<title>staking_contract::switch_operator&#45;&gt;staking_contract::request_commission_internal</title>
<path fill="none" stroke="black" d="M475.25,-224.06C484.73,-222.08 494.64,-220.26 504,-219 572.8,-209.71 592.1,-225.49 660,-211 687.19,-205.2 716.24,-194.23 739.38,-184.24"/>
<polygon fill="black" stroke="black" points="740.78,-187.45 748.51,-180.21 737.95,-181.05 740.78,-187.45"/>
</g>
<!-- staking_contract::staking_contract_amounts -->
<g id="node14" class="node">
<title>staking_contract::staking_contract_amounts</title>
<ellipse fill="none" stroke="black" cx="379" cy="-162" rx="103.18" ry="18"/>
<text text-anchor="middle" x="379" y="-158.3" font-family="Times,serif" font-size="14.00">staking_contract_amounts</text>
</g>
<!-- staking_contract::staking_contract_amounts&#45;&gt;staking_contract::get_staking_contract_amounts_internal -->
<g id="edge16" class="edge">
<title>staking_contract::staking_contract_amounts&#45;&gt;staking_contract::get_staking_contract_amounts_internal</title>
<path fill="none" stroke="black" d="M424.08,-145.38C453.21,-135.29 491.39,-122.05 522.8,-111.17"/>
<polygon fill="black" stroke="black" points="523.86,-114.5 532.17,-107.92 521.57,-107.89 523.86,-114.5"/>
</g>
<!-- staking_contract::unlock_rewards -->
<g id="node15" class="node">
<title>staking_contract::unlock_rewards</title>
<ellipse fill="none" stroke="black" cx="852" cy="-309" rx="66.89" ry="18"/>
<text text-anchor="middle" x="852" y="-305.3" font-family="Times,serif" font-size="14.00">unlock_rewards</text>
</g>
<!-- staking_contract::unlock_rewards&#45;&gt;staking_contract::unlock_stake -->
<g id="edge17" class="edge">
<title>staking_contract::unlock_rewards&#45;&gt;staking_contract::unlock_stake</title>
<path fill="none" stroke="black" d="M854.47,-290.7C855.53,-283.32 856.78,-274.52 857.96,-266.25"/>
<polygon fill="black" stroke="black" points="861.39,-267 859.34,-256.6 854.46,-266.01 861.39,-267"/>
</g>
<!-- staking_contract::unlock_rewards&#45;&gt;staking_contract::staking_contract_amounts -->
<g id="edge26" class="edge">
<title>staking_contract::unlock_rewards&#45;&gt;staking_contract::staking_contract_amounts</title>
<path fill="none" stroke="black" d="M814.61,-293.63C802.47,-289.52 788.82,-285.49 776,-283 729.43,-273.96 382.42,-289.62 350,-255 333.28,-237.14 345.09,-209.7 358.31,-189.44"/>
<polygon fill="black" stroke="black" points="361.08,-191.58 363.93,-181.38 355.34,-187.58 361.08,-191.58"/>
</g>
<!-- vesting::unlock_stake&#45;&gt;staking_contract::unlock_stake -->
<g id="edge18" class="edge">
<title>vesting::unlock_stake&#45;&gt;staking_contract::unlock_stake</title>
<path fill="none" stroke="black" d="M1107.45,-365.85C1108.32,-343.53 1106.18,-304.81 1084,-283 1062.28,-261.64 985.55,-249.65 928.34,-243.52"/>
<polygon fill="black" stroke="black" points="928.99,-240.06 918.69,-242.52 928.27,-247.03 928.99,-240.06"/>
</g>
<!-- vesting::withdraw_stake -->
<g id="node17" class="node">
<title>vesting::withdraw_stake</title>
<ellipse fill="none" stroke="black" cx="1009" cy="-309" rx="66.09" ry="18"/>
<text text-anchor="middle" x="1009" y="-305.3" font-family="Times,serif" font-size="14.00">withdraw_stake</text>
</g>
<!-- vesting::withdraw_stake&#45;&gt;staking_contract::distribute -->
<g id="edge22" class="edge">
<title>vesting::withdraw_stake&#45;&gt;staking_contract::distribute</title>
<path fill="none" stroke="black" d="M970.97,-293.94C958.4,-289.8 944.24,-285.67 931,-283 790.61,-254.75 750.39,-283.27 610,-255 606.85,-254.37 603.62,-253.61 600.39,-252.77"/>
<polygon fill="black" stroke="black" points="601.53,-249.46 590.95,-250.09 599.61,-256.19 601.53,-249.46"/>
</g>
<!-- staking_contract::switch_operator_with_same_commission -->
<g id="node18" class="node">
<title>staking_contract::switch_operator_with_same_commission</title>
<ellipse fill="none" stroke="black" cx="609" cy="-309" rx="157.87" ry="18"/>
<text text-anchor="middle" x="609" y="-305.3" font-family="Times,serif" font-size="14.00">switch_operator_with_same_commission</text>
</g>
<!-- staking_contract::switch_operator_with_same_commission&#45;&gt;staking_contract::switch_operator -->
<g id="edge23" class="edge">
<title>staking_contract::switch_operator_with_same_commission&#45;&gt;staking_contract::switch_operator</title>
<path fill="none" stroke="black" d="M565.41,-291.23C538.08,-280.72 502.85,-267.17 474.77,-256.37"/>
<polygon fill="black" stroke="black" points="476.4,-253.25 465.81,-252.93 473.88,-259.78 476.4,-253.25"/>
</g>
<!-- vesting::update_operator -->
<g id="node19" class="node">
<title>vesting::update_operator</title>
<ellipse fill="none" stroke="black" cx="1401" cy="-384" rx="67.69" ry="18"/>
<text text-anchor="middle" x="1401" y="-380.3" font-family="Times,serif" font-size="14.00">update_operator</text>
</g>
<!-- vesting::update_operator&#45;&gt;staking_contract::switch_operator -->
<g id="edge24" class="edge">
<title>vesting::update_operator&#45;&gt;staking_contract::switch_operator</title>
<path fill="none" stroke="black" d="M1353.2,-370.83C1343.59,-368.84 1333.52,-367.08 1324,-366 1311.83,-364.62 451.15,-366.15 442,-358 416.87,-335.61 417.33,-294.22 421.18,-266.4"/>
<polygon fill="black" stroke="black" points="424.64,-266.97 422.8,-256.53 417.73,-265.83 424.64,-266.97"/>
</g>
<!-- staking_proxy::set_staking_contract_operator -->
<g id="node20" class="node">
<title>staking_proxy::set_staking_contract_operator</title>
<ellipse fill="none" stroke="black" cx="2019" cy="-456" rx="116.18" ry="18"/>
<text text-anchor="middle" x="2019" y="-452.3" font-family="Times,serif" font-size="14.00">set_staking_contract_operator</text>
</g>
<!-- staking_proxy::set_staking_contract_operator&#45;&gt;staking_contract::switch_operator -->
<g id="edge25" class="edge">
<title>staking_proxy::set_staking_contract_operator&#45;&gt;staking_contract::switch_operator</title>
<path fill="none" stroke="black" d="M1992.3,-438.27C1932.19,-401.67 1780.51,-315.21 1640,-283 1393.86,-226.58 754.68,-285.47 504,-255 498.05,-254.28 491.89,-253.31 485.76,-252.19"/>
<polygon fill="black" stroke="black" points="486.78,-248.82 476.3,-250.34 485.44,-255.69 486.78,-248.82"/>
</g>
<!-- vesting::unlock_rewards -->
<g id="node21" class="node">
<title>vesting::unlock_rewards</title>
<ellipse fill="none" stroke="black" cx="1248" cy="-384" rx="66.89" ry="18"/>
<text text-anchor="middle" x="1248" y="-380.3" font-family="Times,serif" font-size="14.00">unlock_rewards</text>
</g>
<!-- vesting::unlock_rewards&#45;&gt;staking_contract::unlock_rewards -->
<g id="edge27" class="edge">
<title>vesting::unlock_rewards&#45;&gt;staking_contract::unlock_rewards</title>
<path fill="none" stroke="black" d="M1200.4,-370.93C1191.04,-368.96 1181.25,-367.18 1172,-366 1118.84,-359.23 982.35,-373.3 931,-358 913.38,-352.75 895.71,-342.59 881.56,-332.96"/>
<polygon fill="black" stroke="black" points="883.79,-330.25 873.61,-327.32 879.74,-335.96 883.79,-330.25"/>
</g>
<!-- vesting::vest -->
<g id="node22" class="node">
<title>vesting::vest</title>
<ellipse fill="none" stroke="black" cx="1202" cy="-456" rx="27" ry="18"/>
<text text-anchor="middle" x="1202" y="-452.3" font-family="Times,serif" font-size="14.00">vest</text>
</g>
<!-- vesting::vest&#45;&gt;vesting::unlock_stake -->
<g id="edge29" class="edge">
<title>vesting::vest&#45;&gt;vesting::unlock_stake</title>
<path fill="none" stroke="black" d="M1184.39,-442.16C1171.09,-432.46 1152.49,-418.9 1136.75,-407.42"/>
<polygon fill="black" stroke="black" points="1139.24,-404.91 1129.1,-401.84 1135.12,-410.56 1139.24,-404.91"/>
</g>
<!-- vesting::vest&#45;&gt;vesting::unlock_rewards -->
<g id="edge35" class="edge">
<title>vesting::vest&#45;&gt;vesting::unlock_rewards</title>
<path fill="none" stroke="black" d="M1212.44,-439.12C1217.87,-430.85 1224.65,-420.54 1230.82,-411.14"/>
<polygon fill="black" stroke="black" points="1233.56,-413.34 1236.13,-403.06 1227.71,-409.5 1233.56,-413.34"/>
</g>
<!-- vesting::distribute&#45;&gt;vesting::withdraw_stake -->
<g id="edge30" class="edge">
<title>vesting::distribute&#45;&gt;vesting::withdraw_stake</title>
<path fill="none" stroke="black" d="M992.21,-365.7C994.69,-357.49 997.71,-347.46 1000.5,-338.19"/>
<polygon fill="black" stroke="black" points="1003.78,-339.46 1003.31,-328.88 997.07,-337.44 1003.78,-339.46"/>
</g>
<!-- vesting::admin_withdraw -->
<g id="node24" class="node">
<title>vesting::admin_withdraw</title>
<ellipse fill="none" stroke="black" cx="1557" cy="-384" rx="70.69" ry="18"/>
<text text-anchor="middle" x="1557" y="-380.3" font-family="Times,serif" font-size="14.00">admin_withdraw</text>
</g>
<!-- vesting::admin_withdraw&#45;&gt;vesting::withdraw_stake -->
<g id="edge31" class="edge">
<title>vesting::admin_withdraw&#45;&gt;vesting::withdraw_stake</title>
<path fill="none" stroke="black" d="M1505.71,-371.24C1496.51,-369.34 1486.99,-367.5 1478,-366 1338.82,-342.77 1174.85,-325.47 1082.3,-316.62"/>
<polygon fill="black" stroke="black" points="1082.89,-313.16 1072.6,-315.7 1082.23,-320.13 1082.89,-313.16"/>
</g>
<!-- vesting::update_operator_with_same_commission -->
<g id="node25" class="node">
<title>vesting::update_operator_with_same_commission</title>
<ellipse fill="none" stroke="black" cx="1406" cy="-456" rx="158.67" ry="18"/>
<text text-anchor="middle" x="1406" y="-452.3" font-family="Times,serif" font-size="14.00">update_operator_with_same_commission</text>
</g>
<!-- vesting::update_operator_with_same_commission&#45;&gt;vesting::update_operator -->
<g id="edge32" class="edge">
<title>vesting::update_operator_with_same_commission&#45;&gt;vesting::update_operator</title>
<path fill="none" stroke="black" d="M1404.76,-437.7C1404.24,-430.41 1403.62,-421.73 1403.04,-413.54"/>
<polygon fill="black" stroke="black" points="1406.53,-413.34 1402.33,-403.61 1399.55,-413.84 1406.53,-413.34"/>
</g>
<!-- staking_proxy::set_vesting_contract_operator -->
<g id="node26" class="node">
<title>staking_proxy::set_vesting_contract_operator</title>
<ellipse fill="none" stroke="black" cx="1768" cy="-456" rx="116.18" ry="18"/>
<text text-anchor="middle" x="1768" y="-452.3" font-family="Times,serif" font-size="14.00">set_vesting_contract_operator</text>
</g>
<!-- staking_proxy::set_vesting_contract_operator&#45;&gt;vesting::update_operator -->
<g id="edge33" class="edge">
<title>staking_proxy::set_vesting_contract_operator&#45;&gt;vesting::update_operator</title>
<path fill="none" stroke="black" d="M1698.63,-441.15C1679.64,-437.44 1659.04,-433.49 1640,-430 1567.7,-416.73 1549.11,-416.25 1477,-402 1472.09,-401.03 1467.02,-399.99 1461.92,-398.91"/>
<polygon fill="black" stroke="black" points="1462.79,-395.52 1452.28,-396.83 1461.32,-402.36 1462.79,-395.52"/>
</g>
<!-- staking_proxy::set_operator -->
<g id="node27" class="node">
<title>staking_proxy::set_operator</title>
<ellipse fill="none" stroke="black" cx="1893" cy="-531" rx="53.89" ry="18"/>
<text text-anchor="middle" x="1893" y="-527.3" font-family="Times,serif" font-size="14.00">set_operator</text>
</g>
<!-- staking_proxy::set_operator&#45;&gt;staking_proxy::set_staking_contract_operator -->
<g id="edge34" class="edge">
<title>staking_proxy::set_operator&#45;&gt;staking_proxy::set_staking_contract_operator</title>
<path fill="none" stroke="black" d="M1919.11,-514.87C1936.66,-504.7 1960.12,-491.11 1979.89,-479.66"/>
<polygon fill="black" stroke="black" points="1981.64,-482.69 1988.53,-474.65 1978.13,-476.64 1981.64,-482.69"/>
</g>
<!-- staking_proxy::set_operator&#45;&gt;staking_proxy::set_vesting_contract_operator -->
<g id="edge37" class="edge">
<title>staking_proxy::set_operator&#45;&gt;staking_proxy::set_vesting_contract_operator</title>
<path fill="none" stroke="black" d="M1867.1,-514.87C1849.68,-504.7 1826.41,-491.11 1806.8,-479.66"/>
<polygon fill="black" stroke="black" points="1808.63,-476.68 1798.23,-474.66 1805.1,-482.72 1808.63,-476.68"/>
</g>
</g>
</svg>
