<?xml version="1.0" encoding="UTF-8" standalone="no"?>
<!DOCTYPE svg PUBLIC "-//W3C//DTD SVG 1.1//EN"
 "http://www.w3.org/Graphics/SVG/1.1/DTD/svg11.dtd">
<!-- Generated by graphviz version 7.0.0 (20221023.0053)
 -->
<!-- Title: G Pages: 1 -->
<svg width="1802pt" height="708pt"
 viewBox="0.00 0.00 1802.00 708.00" xmlns="http://www.w3.org/2000/svg" xmlns:xlink="http://www.w3.org/1999/xlink">
<g id="graph0" class="graph" transform="scale(1 1) rotate(0) translate(4 704)">
<title>G</title>
<polygon fill="white" stroke="none" points="-4,4 -4,-704 1798,-704 1798,4 -4,4"/>
<g id="clust1" class="cluster">
<title>cluster_signer</title>
<polygon fill="none" stroke="black" points="674,-340 674,-498 824,-498 824,-340 674,-340"/>
<text text-anchor="middle" x="749" y="-482.8" font-family="Times,serif" font-size="14.00">signer</text>
</g>
<g id="clust2" class="cluster">
<title>cluster_vesting</title>
<polygon fill="none" stroke="black" points="8,-506 8,-656 691,-656 691,-506 8,-506"/>
<text text-anchor="middle" x="349.5" y="-640.8" font-family="Times,serif" font-size="14.00">vesting</text>
</g>
<g id="clust3" class="cluster">
<title>cluster_event</title>
<polygon fill="none" stroke="black" points="480,-340 480,-498 666,-498 666,-340 480,-340"/>
<text text-anchor="middle" x="573" y="-482.8" font-family="Times,serif" font-size="14.00">event</text>
</g>
<g id="clust4" class="cluster">
<title>cluster_staking_contract</title>
<polygon fill="none" stroke="black" points="832,-423 832,-581 1084,-581 1084,-423 832,-423"/>
<text text-anchor="middle" x="958" y="-565.8" font-family="Times,serif" font-size="14.00">staking_contract</text>
</g>
<g id="clust5" class="cluster">
<title>cluster_error</title>
<polygon fill="none" stroke="black" points="348,-174 348,-332 772,-332 772,-174 348,-174"/>
<text text-anchor="middle" x="560" y="-316.8" font-family="Times,serif" font-size="14.00">error</text>
</g>
<g id="clust6" class="cluster">
<title>cluster_bcs</title>
<polygon fill="none" stroke="black" points="478,-91 478,-166 574,-166 574,-91 478,-91"/>
<text text-anchor="middle" x="526" y="-150.8" font-family="Times,serif" font-size="14.00">bcs</text>
</g>
<g id="clust7" class="cluster">
<title>cluster_simple_map</title>
<polygon fill="none" stroke="black" points="1034,-257 1034,-415 1292,-415 1292,-257 1034,-257"/>
<text text-anchor="middle" x="1163" y="-399.8" font-family="Times,serif" font-size="14.00">simple_map</text>
</g>
<g id="clust8" class="cluster">
<title>cluster_stake</title>
<polygon fill="none" stroke="black" points="1352,-257 1352,-498 1786,-498 1786,-257 1352,-257"/>
<text text-anchor="middle" x="1569" y="-482.8" font-family="Times,serif" font-size="14.00">stake</text>
</g>
<g id="clust9" class="cluster">
<title>cluster_account</title>
<polygon fill="none" stroke="black" points="62,-340 62,-498 310,-498 310,-340 62,-340"/>
<text text-anchor="middle" x="186" y="-482.8" font-family="Times,serif" font-size="14.00">account</text>
</g>
<g id="clust10" class="cluster">
<title>cluster_option</title>
<polygon fill="none" stroke="black" points="1040,-91 1040,-249 1276,-249 1276,-91 1040,-91"/>
<text text-anchor="middle" x="1158" y="-233.8" font-family="Times,serif" font-size="14.00">option</text>
</g>
<g id="clust11" class="cluster">
<title>cluster_vector</title>
<polygon fill="none" stroke="black" points="1061,-8 1061,-83 1268,-83 1268,-8 1061,-8"/>
<text text-anchor="middle" x="1164.5" y="-67.8" font-family="Times,serif" font-size="14.00">vector</text>
</g>
<g id="clust12" class="cluster">
<title>cluster_comparator</title>
<polygon fill="none" stroke="black" points="780,-91 780,-249 1032,-249 1032,-91 780,-91"/>
<text text-anchor="middle" x="906" y="-233.8" font-family="Times,serif" font-size="14.00">comparator</text>
</g>
<!-- set_vesting_contract_voter -->
<g id="node1" class="node">
<title>set_vesting_contract_voter</title>
<ellipse fill="none" stroke="black" cx="567" cy="-682" rx="105.08" ry="18"/>
<text text-anchor="middle" x="567" y="-678.3" font-family="Times,serif" font-size="14.00">set_vesting_contract_voter</text>
</g>
<!-- signer::address_of -->
<g id="node2" class="node">
<title>signer::address_of</title>
<ellipse fill="none" stroke="black" cx="749" cy="-449" rx="48.99" ry="18"/>
<text text-anchor="middle" x="749" y="-445.3" font-family="Times,serif" font-size="14.00">address_of</text>
</g>
<!-- set_vesting_contract_voter&#45;&gt;signer::address_of -->
<g id="edge1" class="edge">
<title>set_vesting_contract_voter&#45;&gt;signer::address_of</title>
<path fill="none" stroke="black" d="M652.64,-671.25C671.51,-667.55 687.98,-662.59 695,-656 744.53,-609.52 750.78,-523.65 750.36,-478.87"/>
<polygon fill="black" stroke="black" points="753.86,-478.83 750.13,-468.91 746.86,-478.99 753.86,-478.83"/>
</g>
<!-- vesting::operator -->
<g id="node3" class="node">
<title>vesting::operator</title>
<ellipse fill="none" stroke="black" cx="510" cy="-607" rx="40.09" ry="18"/>
<text text-anchor="middle" x="510" y="-603.3" font-family="Times,serif" font-size="14.00">operator</text>
</g>
<!-- set_vesting_contract_voter&#45;&gt;vesting::operator -->
<g id="edge2" class="edge">
<title>set_vesting_contract_voter&#45;&gt;vesting::operator</title>
<path fill="none" stroke="black" d="M553.49,-663.7C546.33,-654.53 537.41,-643.11 529.51,-632.99"/>
<polygon fill="black" stroke="black" points="532.47,-631.1 523.56,-625.37 526.96,-635.4 532.47,-631.1"/>
</g>
<!-- vesting::update_voter -->
<g id="node4" class="node">
<title>vesting::update_voter</title>
<ellipse fill="none" stroke="black" cx="625" cy="-607" rx="56.59" ry="18"/>
<text text-anchor="middle" x="625" y="-603.3" font-family="Times,serif" font-size="14.00">update_voter</text>
</g>
<!-- set_vesting_contract_voter&#45;&gt;vesting::update_voter -->
<g id="edge3" class="edge">
<title>set_vesting_contract_voter&#45;&gt;vesting::update_voter</title>
<path fill="none" stroke="black" d="M580.75,-663.7C587.88,-654.73 596.73,-643.59 604.63,-633.63"/>
<polygon fill="black" stroke="black" points="607.13,-636.12 610.61,-626.11 601.65,-631.76 607.13,-636.12"/>
</g>
<!-- vesting::vesting_contracts -->
<g id="node5" class="node">
<title>vesting::vesting_contracts</title>
<ellipse fill="none" stroke="black" cx="380" cy="-607" rx="72.29" ry="18"/>
<text text-anchor="middle" x="380" y="-603.3" font-family="Times,serif" font-size="14.00">vesting_contracts</text>
</g>
<!-- set_vesting_contract_voter&#45;&gt;vesting::vesting_contracts -->
<g id="edge4" class="edge">
<title>set_vesting_contract_voter&#45;&gt;vesting::vesting_contracts</title>
<path fill="none" stroke="black" d="M498.19,-667.99C485.61,-664.71 472.75,-660.74 461,-656 444.37,-649.29 427.12,-639.52 412.84,-630.54"/>
<polygon fill="black" stroke="black" points="415.04,-627.8 404.74,-625.32 411.24,-633.68 415.04,-627.8"/>
</g>
<!-- signer::borrow_address -->
<g id="node6" class="node">
<title>signer::borrow_address</title>
<ellipse fill="none" stroke="black" cx="749" cy="-366" rx="66.89" ry="18"/>
<text text-anchor="middle" x="749" y="-362.3" font-family="Times,serif" font-size="14.00">borrow_address</text>
</g>
<!-- signer::address_of&#45;&gt;signer::borrow_address -->
<g id="edge5" class="edge">
<title>signer::address_of&#45;&gt;signer::borrow_address</title>
<path fill="none" stroke="black" d="M749,-430.82C749,-420.69 749,-407.6 749,-395.92"/>
<polygon fill="black" stroke="black" points="752.5,-395.95 749,-385.95 745.5,-395.95 752.5,-395.95"/>
</g>
<!-- vesting::assert_vesting_contract_exists -->
<g id="node7" class="node">
<title>vesting::assert_vesting_contract_exists</title>
<ellipse fill="none" stroke="black" cx="134" cy="-532" rx="117.78" ry="18"/>
<text text-anchor="middle" x="134" y="-528.3" font-family="Times,serif" font-size="14.00">assert_vesting_contract_exists</text>
</g>
<!-- vesting::operator&#45;&gt;vesting::assert_vesting_contract_exists -->
<g id="edge6" class="edge">
<title>vesting::operator&#45;&gt;vesting::assert_vesting_contract_exists</title>
<path fill="none" stroke="black" d="M480.84,-594.32C474.4,-592.18 467.55,-590.24 461,-589 373.15,-572.39 347.59,-598.93 260,-581 232.16,-575.3 202.39,-564.21 178.78,-554.13"/>
<polygon fill="black" stroke="black" points="180.34,-550.99 169.78,-550.19 177.54,-557.41 180.34,-550.99"/>
</g>
<!-- event::emit_event -->
<g id="node8" class="node">
<title>event::emit_event</title>
<ellipse fill="none" stroke="black" cx="590" cy="-449" rx="50.09" ry="18"/>
<text text-anchor="middle" x="590" y="-445.3" font-family="Times,serif" font-size="14.00">emit_event</text>
</g>
<!-- vesting::update_voter&#45;&gt;event::emit_event -->
<g id="edge7" class="edge">
<title>vesting::update_voter&#45;&gt;event::emit_event</title>
<path fill="none" stroke="black" d="M672.2,-596.73C680,-593.1 687.11,-588.04 692,-581 711.01,-553.62 711.12,-533.3 692,-506 686.03,-497.48 679.39,-502.47 670,-498 653.72,-490.25 636.48,-480.16 622.18,-471.24"/>
<polygon fill="black" stroke="black" points="624.4,-468.5 614.08,-466.1 620.65,-474.41 624.4,-468.5"/>
</g>
<!-- staking_contract::update_voter -->
<g id="node9" class="node">
<title>staking_contract::update_voter</title>
<ellipse fill="none" stroke="black" cx="958" cy="-532" rx="56.59" ry="18"/>
<text text-anchor="middle" x="958" y="-528.3" font-family="Times,serif" font-size="14.00">update_voter</text>
</g>
<!-- vesting::update_voter&#45;&gt;staking_contract::update_voter -->
<g id="edge8" class="edge">
<title>vesting::update_voter&#45;&gt;staking_contract::update_voter</title>
<path fill="none" stroke="black" d="M670.6,-596C730.72,-582.82 836.45,-559.65 901.54,-545.38"/>
<polygon fill="black" stroke="black" points="901.92,-548.88 910.94,-543.32 900.42,-542.04 901.92,-548.88"/>
</g>
<!-- vesting::get_vesting_account_signer_internal -->
<g id="node10" class="node">
<title>vesting::get_vesting_account_signer_internal</title>
<ellipse fill="none" stroke="black" cx="409" cy="-532" rx="139.98" ry="18"/>
<text text-anchor="middle" x="409" y="-528.3" font-family="Times,serif" font-size="14.00">get_vesting_account_signer_internal</text>
</g>
<!-- vesting::update_voter&#45;&gt;vesting::get_vesting_account_signer_internal -->
<g id="edge9" class="edge">
<title>vesting::update_voter&#45;&gt;vesting::get_vesting_account_signer_internal</title>
<path fill="none" stroke="black" d="M587.38,-593.28C554.34,-582.12 505.75,-565.7 467.62,-552.81"/>
<polygon fill="black" stroke="black" points="469.19,-549.65 458.6,-549.76 466.95,-556.28 469.19,-549.65"/>
</g>
<!-- vesting::verify_admin -->
<g id="node11" class="node">
<title>vesting::verify_admin</title>
<ellipse fill="none" stroke="black" cx="625" cy="-532" rx="58.49" ry="18"/>
<text text-anchor="middle" x="625" y="-528.3" font-family="Times,serif" font-size="14.00">verify_admin</text>
</g>
<!-- vesting::update_voter&#45;&gt;vesting::verify_admin -->
<g id="edge10" class="edge">
<title>vesting::update_voter&#45;&gt;vesting::verify_admin</title>
<path fill="none" stroke="black" d="M625,-588.7C625,-580.67 625,-570.9 625,-561.8"/>
<polygon fill="black" stroke="black" points="628.5,-561.94 625,-551.94 621.5,-561.94 628.5,-561.94"/>
</g>
<!-- error::not_found -->
<g id="node12" class="node">
<title>error::not_found</title>
<ellipse fill="none" stroke="black" cx="553" cy="-283" rx="46.59" ry="18"/>
<text text-anchor="middle" x="553" y="-279.3" font-family="Times,serif" font-size="14.00">not_found</text>
</g>
<!-- vesting::assert_vesting_contract_exists&#45;&gt;error::not_found -->
<g id="edge11" class="edge">
<title>vesting::assert_vesting_contract_exists&#45;&gt;error::not_found</title>
<path fill="none" stroke="black" d="M201.89,-516.9C220.68,-513.17 241.1,-509.27 260,-506 283.91,-501.86 292.26,-508.77 314,-498 404.12,-453.35 391.24,-394.14 476,-340 484.42,-334.62 488.41,-337.1 497,-332 508.18,-325.36 519.3,-316.43 528.65,-308.08"/>
<polygon fill="black" stroke="black" points="530.94,-310.73 535.91,-301.37 526.19,-305.59 530.94,-310.73"/>
</g>
<!-- bcs::to_bytes -->
<g id="node13" class="node">
<title>bcs::to_bytes</title>
<ellipse fill="none" stroke="black" cx="526" cy="-117" rx="40.09" ry="18"/>
<text text-anchor="middle" x="526" y="-113.3" font-family="Times,serif" font-size="14.00">to_bytes</text>
</g>
<!-- event::emit_event&#45;&gt;bcs::to_bytes -->
<g id="edge12" class="edge">
<title>event::emit_event&#45;&gt;bcs::to_bytes</title>
<path fill="none" stroke="black" d="M543.3,-442.08C483.9,-431.69 384.21,-403.92 344,-332 309.73,-270.71 302.28,-230.49 344,-174 373.69,-133.81 431.76,-121.55 474.35,-118.26"/>
<polygon fill="black" stroke="black" points="474.37,-121.77 484.13,-117.66 473.94,-114.78 474.37,-121.77"/>
</g>
<!-- event::write_to_event_store -->
<g id="node14" class="node">
<title>event::write_to_event_store</title>
<ellipse fill="none" stroke="black" cx="573" cy="-366" rx="85.29" ry="18"/>
<text text-anchor="middle" x="573" y="-362.3" font-family="Times,serif" font-size="14.00">write_to_event_store</text>
</g>
<!-- event::emit_event&#45;&gt;event::write_to_event_store -->
<g id="edge13" class="edge">
<title>event::emit_event&#45;&gt;event::write_to_event_store</title>
<path fill="none" stroke="black" d="M586.39,-430.82C584.25,-420.58 581.46,-407.33 578.99,-395.55"/>
<polygon fill="black" stroke="black" points="582.45,-394.98 576.97,-385.91 575.6,-396.42 582.45,-394.98"/>
</g>
<!-- staking_contract::update_voter&#45;&gt;signer::address_of -->
<g id="edge14" class="edge">
<title>staking_contract::update_voter&#45;&gt;signer::address_of</title>
<path fill="none" stroke="black" d="M909.66,-522.31C884.7,-516.94 854.09,-508.95 828,-498 811.29,-490.99 793.94,-480.82 779.78,-471.65"/>
<polygon fill="black" stroke="black" points="782.06,-468.96 771.79,-466.34 778.19,-474.79 782.06,-468.96"/>
</g>
<!-- staking_contract::update_voter&#45;&gt;event::emit_event -->
<g id="edge15" class="edge">
<title>staking_contract::update_voter&#45;&gt;event::emit_event</title>
<path fill="none" stroke="black" d="M904.74,-525.49C824.56,-517.1 680.95,-501.72 670,-498 652.3,-491.99 634.31,-481.65 619.88,-472.1"/>
<polygon fill="black" stroke="black" points="621.98,-469.3 611.76,-466.54 618.03,-475.07 621.98,-469.3"/>
</g>
<!-- simple_map::borrow_mut -->
<g id="node15" class="node">
<title>simple_map::borrow_mut</title>
<ellipse fill="none" stroke="black" cx="1097" cy="-366" rx="54.69" ry="18"/>
<text text-anchor="middle" x="1097" y="-362.3" font-family="Times,serif" font-size="14.00">borrow_mut</text>
</g>
<!-- staking_contract::update_voter&#45;&gt;simple_map::borrow_mut -->
<g id="edge16" class="edge">
<title>staking_contract::update_voter&#45;&gt;simple_map::borrow_mut</title>
<path fill="none" stroke="black" d="M1008.95,-523.83C1039.76,-518.38 1074.97,-509.81 1085,-498 1109.04,-469.69 1107.38,-424.5 1102.97,-395.29"/>
<polygon fill="black" stroke="black" points="1106.47,-394.96 1101.31,-385.7 1099.57,-396.15 1106.47,-394.96"/>
</g>
<!-- stake::get_delegated_voter -->
<g id="node16" class="node">
<title>stake::get_delegated_voter</title>
<ellipse fill="none" stroke="black" cx="1696" cy="-449" rx="81.79" ry="18"/>
<text text-anchor="middle" x="1696" y="-445.3" font-family="Times,serif" font-size="14.00">get_delegated_voter</text>
</g>
<!-- staking_contract::update_voter&#45;&gt;stake::get_delegated_voter -->
<g id="edge17" class="edge">
<title>staking_contract::update_voter&#45;&gt;stake::get_delegated_voter</title>
<path fill="none" stroke="black" d="M1014.8,-531.23C1151.32,-531.29 1494.72,-528.3 1605,-498 1624.97,-492.51 1645.51,-482.15 1662.02,-472.46"/>
<polygon fill="black" stroke="black" points="1663.71,-475.52 1670.44,-467.34 1660.08,-469.54 1663.71,-475.52"/>
</g>
<!-- stake::set_delegated_voter_with_cap -->
<g id="node17" class="node">
<title>stake::set_delegated_voter_with_cap</title>
<ellipse fill="none" stroke="black" cx="1478" cy="-449" rx="117.78" ry="18"/>
<text text-anchor="middle" x="1478" y="-445.3" font-family="Times,serif" font-size="14.00">set_delegated_voter_with_cap</text>
</g>
<!-- staking_contract::update_voter&#45;&gt;stake::set_delegated_voter_with_cap -->
<g id="edge18" class="edge">
<title>staking_contract::update_voter&#45;&gt;stake::set_delegated_voter_with_cap</title>
<path fill="none" stroke="black" d="M1007.86,-523.23C1094.98,-509.66 1276.13,-481.45 1386.39,-464.27"/>
<polygon fill="black" stroke="black" points="1386.65,-467.77 1395.99,-462.77 1385.57,-460.86 1386.65,-467.77"/>
</g>
<!-- staking_contract::assert_staking_contract_exists -->
<g id="node18" class="node">
<title>staking_contract::assert_staking_contract_exists</title>
<ellipse fill="none" stroke="black" cx="958" cy="-449" rx="117.78" ry="18"/>
<text text-anchor="middle" x="958" y="-445.3" font-family="Times,serif" font-size="14.00">assert_staking_contract_exists</text>
</g>
<!-- staking_contract::update_voter&#45;&gt;staking_contract::assert_staking_contract_exists -->
<g id="edge19" class="edge">
<title>staking_contract::update_voter&#45;&gt;staking_contract::assert_staking_contract_exists</title>
<path fill="none" stroke="black" d="M958,-513.82C958,-503.69 958,-490.6 958,-478.92"/>
<polygon fill="black" stroke="black" points="961.5,-478.95 958,-468.95 954.5,-478.95 961.5,-478.95"/>
</g>
<!-- account::create_signer_with_capability -->
<g id="node19" class="node">
<title>account::create_signer_with_capability</title>
<ellipse fill="none" stroke="black" cx="186" cy="-449" rx="116.18" ry="18"/>
<text text-anchor="middle" x="186" y="-445.3" font-family="Times,serif" font-size="14.00">create_signer_with_capability</text>
</g>
<!-- vesting::get_vesting_account_signer_internal&#45;&gt;account::create_signer_with_capability -->
<g id="edge20" class="edge">
<title>vesting::get_vesting_account_signer_internal&#45;&gt;account::create_signer_with_capability</title>
<path fill="none" stroke="black" d="M363.6,-514.51C328.14,-501.63 278.7,-483.67 240.99,-469.97"/>
<polygon fill="black" stroke="black" points="242.21,-466.69 231.61,-466.57 239.82,-473.27 242.21,-466.69"/>
</g>
<!-- vesting::verify_admin&#45;&gt;signer::address_of -->
<g id="edge21" class="edge">
<title>vesting::verify_admin&#45;&gt;signer::address_of</title>
<path fill="none" stroke="black" d="M649.2,-515.19C668.31,-502.71 695.16,-485.17 716.19,-471.43"/>
<polygon fill="black" stroke="black" points="717.97,-474.45 724.43,-466.05 714.14,-468.59 717.97,-474.45"/>
</g>
<!-- error::unauthenticated -->
<g id="node20" class="node">
<title>error::unauthenticated</title>
<ellipse fill="none" stroke="black" cx="422" cy="-283" rx="66.09" ry="18"/>
<text text-anchor="middle" x="422" y="-279.3" font-family="Times,serif" font-size="14.00">unauthenticated</text>
</g>
<!-- vesting::verify_admin&#45;&gt;error::unauthenticated -->
<g id="edge22" class="edge">
<title>vesting::verify_admin&#45;&gt;error::unauthenticated</title>
<path fill="none" stroke="black" d="M592.13,-516.79C581.42,-512.7 569.37,-508.63 558,-506 540.16,-501.88 489.88,-509.94 476,-498 421.87,-451.43 417.93,-359.27 419.8,-312.56"/>
<polygon fill="black" stroke="black" points="423.28,-312.88 420.32,-302.71 416.29,-312.51 423.28,-312.88"/>
</g>
<!-- error::canonical -->
<g id="node21" class="node">
<title>error::canonical</title>
<ellipse fill="none" stroke="black" cx="553" cy="-200" rx="44.39" ry="18"/>
<text text-anchor="middle" x="553" y="-196.3" font-family="Times,serif" font-size="14.00">canonical</text>
</g>
<!-- error::not_found&#45;&gt;error::canonical -->
<g id="edge23" class="edge">
<title>error::not_found&#45;&gt;error::canonical</title>
<path fill="none" stroke="black" d="M553,-264.82C553,-254.69 553,-241.6 553,-229.92"/>
<polygon fill="black" stroke="black" points="556.5,-229.95 553,-219.95 549.5,-229.95 556.5,-229.95"/>
</g>
<!-- option::extract -->
<g id="node22" class="node">
<title>option::extract</title>
<ellipse fill="none" stroke="black" cx="1234" cy="-200" rx="34.39" ry="18"/>
<text text-anchor="middle" x="1234" y="-196.3" font-family="Times,serif" font-size="14.00">extract</text>
</g>
<!-- simple_map::borrow_mut&#45;&gt;option::extract -->
<g id="edge24" class="edge">
<title>simple_map::borrow_mut&#45;&gt;option::extract</title>
<path fill="none" stroke="black" d="M1110.89,-348.37C1135.14,-319.34 1185.3,-259.29 1213.54,-225.49"/>
<polygon fill="black" stroke="black" points="1216.19,-227.79 1219.91,-217.87 1210.81,-223.3 1216.19,-227.79"/>
</g>
<!-- option::is_some -->
<g id="node23" class="node">
<title>option::is_some</title>
<ellipse fill="none" stroke="black" cx="1228" cy="-117" rx="40.09" ry="18"/>
<text text-anchor="middle" x="1228" y="-113.3" font-family="Times,serif" font-size="14.00">is_some</text>
</g>
<!-- simple_map::borrow_mut&#45;&gt;option::is_some -->
<g id="edge25" class="edge">
<title>simple_map::borrow_mut&#45;&gt;option::is_some</title>
<path fill="none" stroke="black" d="M1130.91,-351.65C1143.51,-346.18 1157.73,-339.39 1170,-332 1221.56,-300.95 1250.52,-303.05 1277,-249 1291.66,-219.07 1288.72,-205.2 1277,-174 1272.37,-161.69 1263.67,-150.31 1254.88,-141.07"/>
<polygon fill="black" stroke="black" points="1257.55,-138.79 1247.96,-134.28 1252.64,-143.78 1257.55,-138.79"/>
</g>
<!-- error::invalid_argument -->
<g id="node24" class="node">
<title>error::invalid_argument</title>
<ellipse fill="none" stroke="black" cx="691" cy="-283" rx="73.39" ry="18"/>
<text text-anchor="middle" x="691" y="-279.3" font-family="Times,serif" font-size="14.00">invalid_argument</text>
</g>
<!-- simple_map::borrow_mut&#45;&gt;error::invalid_argument -->
<g id="edge26" class="edge">
<title>simple_map::borrow_mut&#45;&gt;error::invalid_argument</title>
<path fill="none" stroke="black" d="M1051.22,-355.87C979.54,-341.57 840.5,-313.83 757.69,-297.31"/>
<polygon fill="black" stroke="black" points="758.62,-293.92 748.13,-295.4 757.25,-300.79 758.62,-293.92"/>
</g>
<!-- simple_map::find -->
<g id="node25" class="node">
<title>simple_map::find</title>
<ellipse fill="none" stroke="black" cx="1084" cy="-283" rx="27" ry="18"/>
<text text-anchor="middle" x="1084" y="-279.3" font-family="Times,serif" font-size="14.00">find</text>
</g>
<!-- simple_map::borrow_mut&#45;&gt;simple_map::find -->
<g id="edge27" class="edge">
<title>simple_map::borrow_mut&#45;&gt;simple_map::find</title>
<path fill="none" stroke="black" d="M1094.24,-347.82C1092.59,-337.51 1090.44,-324.14 1088.54,-312.31"/>
<polygon fill="black" stroke="black" points="1092.03,-311.97 1086.99,-302.65 1085.12,-313.08 1092.03,-311.97"/>
</g>
<!-- stake::assert_stake_pool_exists -->
<g id="node26" class="node">
<title>stake::assert_stake_pool_exists</title>
<ellipse fill="none" stroke="black" cx="1478" cy="-366" rx="97.48" ry="18"/>
<text text-anchor="middle" x="1478" y="-362.3" font-family="Times,serif" font-size="14.00">assert_stake_pool_exists</text>
</g>
<!-- stake::get_delegated_voter&#45;&gt;stake::assert_stake_pool_exists -->
<g id="edge28" class="edge">
<title>stake::get_delegated_voter&#45;&gt;stake::assert_stake_pool_exists</title>
<path fill="none" stroke="black" d="M1655.51,-432.95C1620.28,-419.86 1568.99,-400.81 1530.6,-386.54"/>
<polygon fill="black" stroke="black" points="1532.15,-383.38 1521.55,-383.18 1529.71,-389.95 1532.15,-383.38"/>
</g>
<!-- stake::set_delegated_voter_with_cap&#45;&gt;stake::assert_stake_pool_exists -->
<g id="edge29" class="edge">
<title>stake::set_delegated_voter_with_cap&#45;&gt;stake::assert_stake_pool_exists</title>
<path fill="none" stroke="black" d="M1478,-430.82C1478,-420.69 1478,-407.6 1478,-395.92"/>
<polygon fill="black" stroke="black" points="1481.5,-395.95 1478,-385.95 1474.5,-395.95 1481.5,-395.95"/>
</g>
<!-- staking_contract::assert_staking_contract_exists&#45;&gt;error::not_found -->
<g id="edge30" class="edge">
<title>staking_contract::assert_staking_contract_exists&#45;&gt;error::not_found</title>
<path fill="none" stroke="black" d="M944.2,-430.92C922.55,-405.6 877.89,-359.06 828,-340 782.51,-322.62 654.36,-349.73 609,-332 596.22,-327 584.32,-317.78 574.81,-308.74"/>
<polygon fill="black" stroke="black" points="577.37,-306.35 567.85,-301.69 572.39,-311.27 577.37,-306.35"/>
</g>
<!-- simple_map::contains_key -->
<g id="node27" class="node">
<title>simple_map::contains_key</title>
<ellipse fill="none" stroke="black" cx="1227" cy="-366" rx="57.39" ry="18"/>
<text text-anchor="middle" x="1227" y="-362.3" font-family="Times,serif" font-size="14.00">contains_key</text>
</g>
<!-- staking_contract::assert_staking_contract_exists&#45;&gt;simple_map::contains_key -->
<g id="edge31" class="edge">
<title>staking_contract::assert_staking_contract_exists&#45;&gt;simple_map::contains_key</title>
<path fill="none" stroke="black" d="M1062.82,-440.44C1095.18,-435.63 1130.35,-427.78 1161,-415 1175.24,-409.06 1189.31,-399.49 1200.77,-390.45"/>
<polygon fill="black" stroke="black" points="1202.69,-393.41 1208.19,-384.36 1198.24,-388 1202.69,-393.41"/>
</g>
<!-- account::create_signer -->
<g id="node28" class="node">
<title>account::create_signer</title>
<ellipse fill="none" stroke="black" cx="186" cy="-366" rx="57.69" ry="18"/>
<text text-anchor="middle" x="186" y="-362.3" font-family="Times,serif" font-size="14.00">create_signer</text>
</g>
<!-- account::create_signer_with_capability&#45;&gt;account::create_signer -->
<g id="edge32" class="edge">
<title>account::create_signer_with_capability&#45;&gt;account::create_signer</title>
<path fill="none" stroke="black" d="M186,-430.82C186,-420.69 186,-407.6 186,-395.92"/>
<polygon fill="black" stroke="black" points="189.5,-395.95 186,-385.95 182.5,-395.95 189.5,-395.95"/>
</g>
<!-- error::unauthenticated&#45;&gt;error::canonical -->
<g id="edge33" class="edge">
<title>error::unauthenticated&#45;&gt;error::canonical</title>
<path fill="none" stroke="black" d="M447.88,-266C468.44,-253.28 497.35,-235.41 519.65,-221.62"/>
<polygon fill="black" stroke="black" points="521.42,-224.64 528.09,-216.4 517.74,-218.69 521.42,-224.64"/>
</g>
<!-- option::extract&#45;&gt;option::is_some -->
<g id="edge34" class="edge">
<title>option::extract&#45;&gt;option::is_some</title>
<path fill="none" stroke="black" d="M1232.73,-181.82C1231.97,-171.58 1230.99,-158.33 1230.11,-146.55"/>
<polygon fill="black" stroke="black" points="1233.63,-146.66 1229.4,-136.94 1226.65,-147.17 1233.63,-146.66"/>
</g>
<!-- vector::is_empty -->
<g id="node29" class="node">
<title>vector::is_empty</title>
<ellipse fill="none" stroke="black" cx="1216" cy="-34" rx="43.59" ry="18"/>
<text text-anchor="middle" x="1216" y="-30.3" font-family="Times,serif" font-size="14.00">is_empty</text>
</g>
<!-- option::is_some&#45;&gt;vector::is_empty -->
<g id="edge35" class="edge">
<title>option::is_some&#45;&gt;vector::is_empty</title>
<path fill="none" stroke="black" d="M1225.46,-98.82C1223.94,-88.58 1221.97,-75.33 1220.23,-63.55"/>
<polygon fill="black" stroke="black" points="1223.73,-63.31 1218.8,-53.93 1216.81,-64.33 1223.73,-63.31"/>
</g>
<!-- error::invalid_argument&#45;&gt;error::canonical -->
<g id="edge36" class="edge">
<title>error::invalid_argument&#45;&gt;error::canonical</title>
<path fill="none" stroke="black" d="M663.74,-266C641.74,-253.09 610.69,-234.86 587.06,-220.99"/>
<polygon fill="black" stroke="black" points="589.13,-218.15 578.74,-216.11 585.59,-224.19 589.13,-218.15"/>
</g>
<!-- option::none -->
<g id="node30" class="node">
<title>option::none</title>
<ellipse fill="none" stroke="black" cx="1154" cy="-200" rx="27.9" ry="18"/>
<text text-anchor="middle" x="1154" y="-196.3" font-family="Times,serif" font-size="14.00">none</text>
</g>
<!-- simple_map::find&#45;&gt;option::none -->
<g id="edge37" class="edge">
<title>simple_map::find&#45;&gt;option::none</title>
<path fill="none" stroke="black" d="M1099.2,-267.61C1104.95,-261.96 1111.44,-255.33 1117,-249 1123.45,-241.67 1130.08,-233.34 1135.92,-225.71"/>
<polygon fill="black" stroke="black" points="1138.7,-227.84 1141.91,-217.74 1133.1,-223.63 1138.7,-227.84"/>
</g>
<!-- option::some -->
<g id="node31" class="node">
<title>option::some</title>
<ellipse fill="none" stroke="black" cx="1078" cy="-200" rx="29.8" ry="18"/>
<text text-anchor="middle" x="1078" y="-196.3" font-family="Times,serif" font-size="14.00">some</text>
</g>
<!-- simple_map::find&#45;&gt;option::some -->
<g id="edge38" class="edge">
<title>simple_map::find&#45;&gt;option::some</title>
<path fill="none" stroke="black" d="M1082.73,-264.82C1081.97,-254.58 1080.99,-241.33 1080.11,-229.55"/>
<polygon fill="black" stroke="black" points="1083.63,-229.66 1079.4,-219.94 1076.65,-230.17 1083.63,-229.66"/>
</g>
<!-- comparator::compare -->
<g id="node32" class="node">
<title>comparator::compare</title>
<ellipse fill="none" stroke="black" cx="982" cy="-200" rx="41.69" ry="18"/>
<text text-anchor="middle" x="982" y="-196.3" font-family="Times,serif" font-size="14.00">compare</text>
</g>
<!-- simple_map::find&#45;&gt;comparator::compare -->
<g id="edge39" class="edge">
<title>simple_map::find&#45;&gt;comparator::compare</title>
<path fill="none" stroke="black" d="M1065.38,-269.99C1056.33,-263.94 1045.39,-256.36 1036,-249 1026.22,-241.34 1015.93,-232.43 1006.99,-224.38"/>
<polygon fill="black" stroke="black" points="1009.43,-221.86 999.68,-217.71 1004.71,-227.03 1009.43,-221.86"/>
</g>
<!-- comparator::is_smaller_than -->
<g id="node33" class="node">
<title>comparator::is_smaller_than</title>
<ellipse fill="none" stroke="black" cx="855" cy="-200" rx="66.89" ry="18"/>
<text text-anchor="middle" x="855" y="-196.3" font-family="Times,serif" font-size="14.00">is_smaller_than</text>
</g>
<!-- simple_map::find&#45;&gt;comparator::is_smaller_than -->
<g id="edge40" class="edge">
<title>simple_map::find&#45;&gt;comparator::is_smaller_than</title>
<path fill="none" stroke="black" d="M1057.17,-279.1C1025.95,-275.08 973.26,-266.27 931,-249 915.19,-242.54 899.01,-232.83 885.66,-223.83"/>
<polygon fill="black" stroke="black" points="887.94,-221.16 877.73,-218.33 883.95,-226.9 887.94,-221.16"/>
</g>
<!-- stake::assert_stake_pool_exists&#45;&gt;error::invalid_argument -->
<g id="edge41" class="edge">
<title>stake::assert_stake_pool_exists&#45;&gt;error::invalid_argument</title>
<path fill="none" stroke="black" d="M1406.45,-353.38C1372.99,-348.41 1332.55,-343.05 1296,-340 1178.13,-330.16 1147.85,-342.08 1030,-332 936.17,-323.97 828.64,-307.5 760.3,-296.1"/>
<polygon fill="black" stroke="black" points="761.2,-292.71 750.76,-294.5 760.04,-299.61 761.2,-292.71"/>
</g>
<!-- stake::stake_pool_exists -->
<g id="node34" class="node">
<title>stake::stake_pool_exists</title>
<ellipse fill="none" stroke="black" cx="1478" cy="-283" rx="73.39" ry="18"/>
<text text-anchor="middle" x="1478" y="-279.3" font-family="Times,serif" font-size="14.00">stake_pool_exists</text>
</g>
<!-- stake::assert_stake_pool_exists&#45;&gt;stake::stake_pool_exists -->
<g id="edge42" class="edge">
<title>stake::assert_stake_pool_exists&#45;&gt;stake::stake_pool_exists</title>
<path fill="none" stroke="black" d="M1478,-347.82C1478,-337.69 1478,-324.6 1478,-312.92"/>
<polygon fill="black" stroke="black" points="1481.5,-312.95 1478,-302.95 1474.5,-312.95 1481.5,-312.95"/>
</g>
<!-- simple_map::contains_key&#45;&gt;option::is_some -->
<g id="edge43" class="edge">
<title>simple_map::contains_key&#45;&gt;option::is_some</title>
<path fill="none" stroke="black" d="M1275.68,-356.26C1289.02,-351.39 1301.99,-343.81 1310,-332 1349.43,-273.89 1342.79,-236.1 1310,-174 1300.87,-156.7 1283.72,-143.74 1267.46,-134.67"/>
<polygon fill="black" stroke="black" points="1269.37,-131.71 1258.88,-130.21 1266.14,-137.92 1269.37,-131.71"/>
</g>
<!-- simple_map::contains_key&#45;&gt;simple_map::find -->
<g id="edge44" class="edge">
<title>simple_map::contains_key&#45;&gt;simple_map::find</title>
<path fill="none" stroke="black" d="M1200.1,-349.76C1175.5,-335.83 1139.16,-315.25 1113.71,-300.83"/>
<polygon fill="black" stroke="black" points="1115.61,-297.89 1105.19,-296 1112.16,-303.98 1115.61,-297.89"/>
</g>
<!-- vector::singleton -->
<g id="node35" class="node">
<title>vector::singleton</title>
<ellipse fill="none" stroke="black" cx="1112" cy="-34" rx="42.79" ry="18"/>
<text text-anchor="middle" x="1112" y="-30.3" font-family="Times,serif" font-size="14.00">singleton</text>
</g>
<!-- option::some&#45;&gt;vector::singleton -->
<g id="edge45" class="edge">
<title>option::some&#45;&gt;vector::singleton</title>
<path fill="none" stroke="black" d="M1081.57,-181.76C1087.43,-153.51 1099.12,-97.11 1106.19,-63.04"/>
<polygon fill="black" stroke="black" points="1109.56,-63.99 1108.17,-53.49 1102.71,-62.57 1109.56,-63.99"/>
</g>
<!-- comparator::compare&#45;&gt;bcs::to_bytes -->
<g id="edge46" class="edge">
<title>comparator::compare&#45;&gt;bcs::to_bytes</title>
<path fill="none" stroke="black" d="M958.13,-184.83C949.82,-180.57 940.26,-176.4 931,-174 864.23,-156.69 844.48,-174.3 776,-166 704.16,-157.29 621.94,-140.09 572.01,-128.82"/>
<polygon fill="black" stroke="black" points="572.95,-125.44 562.43,-126.63 571.4,-132.27 572.95,-125.44"/>
</g>
<!-- comparator::compare_u8_vector -->
<g id="node36" class="node">
<title>comparator::compare_u8_vector</title>
<ellipse fill="none" stroke="black" cx="943" cy="-117" rx="81.49" ry="18"/>
<text text-anchor="middle" x="943" y="-113.3" font-family="Times,serif" font-size="14.00">compare_u8_vector</text>
</g>
<!-- comparator::compare&#45;&gt;comparator::compare_u8_vector -->
<g id="edge47" class="edge">
<title>comparator::compare&#45;&gt;comparator::compare_u8_vector</title>
<path fill="none" stroke="black" d="M973.92,-182.22C968.81,-171.61 962.09,-157.65 956.22,-145.45"/>
<polygon fill="black" stroke="black" points="959.49,-144.18 952,-136.68 953.18,-147.21 959.49,-144.18"/>
</g>
</g>
</svg>
