<?xml version="1.0" encoding="UTF-8" standalone="no"?>
<!DOCTYPE svg PUBLIC "-//W3C//DTD SVG 1.1//EN"
 "http://www.w3.org/Graphics/SVG/1.1/DTD/svg11.dtd">
<!-- Generated by graphviz version 7.0.0 (20221023.0053)
 -->
<!-- Title: G Pages: 1 -->
<svg width="896pt" height="260pt"
 viewBox="0.00 0.00 895.65 260.00" xmlns="http://www.w3.org/2000/svg" xmlns:xlink="http://www.w3.org/1999/xlink">
<g id="graph0" class="graph" transform="scale(1 1) rotate(0) translate(4 256)">
<title>G</title>
<polygon fill="white" stroke="none" points="-4,4 -4,-256 891.65,-256 891.65,4 -4,4"/>
<!-- stake -->
<g id="node1" class="node">
<title>stake</title>
<ellipse fill="none" stroke="black" cx="601.56" cy="-18" rx="28.7" ry="18"/>
<text text-anchor="middle" x="601.56" y="-14.3" font-family="Times,serif" font-size="14.00">stake</text>
</g>
<!-- reconfiguration -->
<g id="node2" class="node">
<title>reconfiguration</title>
<ellipse fill="none" stroke="black" cx="416.56" cy="-90" rx="64.99" ry="18"/>
<text text-anchor="middle" x="416.56" y="-86.3" font-family="Times,serif" font-size="14.00">reconfiguration</text>
</g>
<!-- reconfiguration&#45;&gt;stake -->
<g id="edge1" class="edge">
<title>reconfiguration&#45;&gt;stake</title>
<path fill="none" stroke="black" d="M453.99,-74.83C486.95,-62.36 534.58,-44.34 566.74,-32.17"/>
<polygon fill="black" stroke="black" points="567.88,-35.48 576,-28.67 565.41,-28.94 567.88,-35.48"/>
</g>
<!-- aptos_governance -->
<g id="node3" class="node">
<title>aptos_governance</title>
<ellipse fill="none" stroke="black" cx="90.56" cy="-162" rx="74.19" ry="18"/>
<text text-anchor="middle" x="90.56" y="-158.3" font-family="Times,serif" font-size="14.00">aptos_governance</text>
</g>
<!-- aptos_governance&#45;&gt;stake -->
<g id="edge2" class="edge">
<title>aptos_governance&#45;&gt;stake</title>
<path fill="none" stroke="black" d="M127.61,-146.1C176.3,-126.94 264.76,-93.59 342.56,-72 419.49,-50.65 511.45,-33.85 562.5,-25.26"/>
<polygon fill="black" stroke="black" points="562.87,-28.75 572.17,-23.66 561.73,-21.85 562.87,-28.75"/>
</g>
<!-- aptos_governance&#45;&gt;reconfiguration -->
<g id="edge8" class="edge">
<title>aptos_governance&#45;&gt;reconfiguration</title>
<path fill="none" stroke="black" d="M144.75,-149.36C202.79,-136.9 294.69,-117.17 355.31,-104.15"/>
<polygon fill="black" stroke="black" points="355.73,-107.64 364.77,-102.12 354.26,-100.8 355.73,-107.64"/>
</g>
<!-- block -->
<g id="node4" class="node">
<title>block</title>
<ellipse fill="none" stroke="black" cx="639.56" cy="-162" rx="30.59" ry="18"/>
<text text-anchor="middle" x="639.56" y="-158.3" font-family="Times,serif" font-size="14.00">block</text>
</g>
<!-- block&#45;&gt;stake -->
<g id="edge3" class="edge">
<title>block&#45;&gt;stake</title>
<path fill="none" stroke="black" d="M632.81,-144C628.88,-133.7 624.03,-120.22 620.56,-108 614.86,-88 610,-65.04 606.62,-47.45"/>
<polygon fill="black" stroke="black" points="610.08,-46.9 604.8,-37.72 603.2,-48.19 610.08,-46.9"/>
</g>
<!-- block&#45;&gt;reconfiguration -->
<g id="edge9" class="edge">
<title>block&#45;&gt;reconfiguration</title>
<path fill="none" stroke="black" d="M615.63,-150.28C610.38,-148.08 604.82,-145.87 599.56,-144 558.18,-129.28 510.5,-115.57 474.19,-105.79"/>
<polygon fill="black" stroke="black" points="475.33,-102.47 464.76,-103.27 473.52,-109.23 475.33,-102.47"/>
</g>
<!-- staking_contract -->
<g id="node5" class="node">
<title>staking_contract</title>
<ellipse fill="none" stroke="black" cx="698.56" cy="-90" rx="68.79" ry="18"/>
<text text-anchor="middle" x="698.56" y="-86.3" font-family="Times,serif" font-size="14.00">staking_contract</text>
</g>
<!-- staking_contract&#45;&gt;stake -->
<g id="edge4" class="edge">
<title>staking_contract&#45;&gt;stake</title>
<path fill="none" stroke="black" d="M676.06,-72.76C662.01,-62.63 643.83,-49.51 628.94,-38.76"/>
<polygon fill="black" stroke="black" points="631.1,-36 620.94,-32.99 627,-41.68 631.1,-36"/>
</g>
<!-- vesting -->
<g id="node6" class="node">
<title>vesting</title>
<ellipse fill="none" stroke="black" cx="762.56" cy="-162" rx="36.29" ry="18"/>
<text text-anchor="middle" x="762.56" y="-158.3" font-family="Times,serif" font-size="14.00">vesting</text>
</g>
<!-- vesting&#45;&gt;stake -->
<g id="edge5" class="edge">
<title>vesting&#45;&gt;stake</title>
<path fill="none" stroke="black" d="M771.93,-144.16C781.29,-124.84 792.21,-93.1 776.56,-72 745.76,-30.49 683.35,-20.34 642,-18.46"/>
<polygon fill="black" stroke="black" points="642.29,-14.96 632.19,-18.16 642.08,-21.96 642.29,-14.96"/>
</g>
<!-- vesting&#45;&gt;staking_contract -->
<g id="edge16" class="edge">
<title>vesting&#45;&gt;staking_contract</title>
<path fill="none" stroke="black" d="M748.03,-145.12C740.24,-136.59 730.45,-125.89 721.64,-116.25"/>
<polygon fill="black" stroke="black" points="724.27,-113.93 714.93,-108.91 719.1,-118.66 724.27,-113.93"/>
</g>
<!-- genesis -->
<g id="node7" class="node">
<title>genesis</title>
<ellipse fill="none" stroke="black" cx="416.56" cy="-234" rx="36.29" ry="18"/>
<text text-anchor="middle" x="416.56" y="-230.3" font-family="Times,serif" font-size="14.00">genesis</text>
</g>
<!-- genesis&#45;&gt;stake -->
<g id="edge6" class="edge">
<title>genesis&#45;&gt;stake</title>
<path fill="none" stroke="black" d="M380.37,-231C284.94,-225.35 32.04,-207.87 7.56,-180 -3.01,-167.98 -1.84,-156.95 7.56,-144 73.25,-53.38 438.92,-27.08 561.5,-20.75"/>
<polygon fill="black" stroke="black" points="561.59,-24.25 571.4,-20.26 561.24,-17.26 561.59,-24.25"/>
</g>
<!-- genesis&#45;&gt;reconfiguration -->
<g id="edge13" class="edge">
<title>genesis&#45;&gt;reconfiguration</title>
<path fill="none" stroke="black" d="M416.56,-215.59C416.56,-191.61 416.56,-148.14 416.56,-119.42"/>
<polygon fill="black" stroke="black" points="420.06,-119.62 416.56,-109.62 413.06,-119.62 420.06,-119.62"/>
</g>
<!-- genesis&#45;&gt;aptos_governance -->
<g id="edge14" class="edge">
<title>genesis&#45;&gt;aptos_governance</title>
<path fill="none" stroke="black" d="M383.5,-225.9C330.3,-214.48 224.67,-191.8 155.85,-177.02"/>
<polygon fill="black" stroke="black" points="156.71,-173.63 146.2,-174.95 155.24,-180.47 156.71,-173.63"/>
</g>
<!-- genesis&#45;&gt;block -->
<g id="edge15" class="edge">
<title>genesis&#45;&gt;block</title>
<path fill="none" stroke="black" d="M448.33,-225.04C485.12,-215.53 547.36,-198.57 599.56,-180 601.36,-179.36 603.21,-178.67 605.06,-177.96"/>
<polygon fill="black" stroke="black" points="606.25,-181.26 614.22,-174.29 603.64,-174.76 606.25,-181.26"/>
</g>
<!-- genesis&#45;&gt;staking_contract -->
<g id="edge17" class="edge">
<title>genesis&#45;&gt;staking_contract</title>
<path fill="none" stroke="black" d="M452.69,-230.53C517.09,-225.38 647.92,-211.27 679.56,-180 695.28,-164.45 699.49,-139.31 700.08,-119.7"/>
<polygon fill="black" stroke="black" points="703.58,-119.85 700.05,-109.86 696.58,-119.87 703.58,-119.85"/>
</g>
<!-- genesis&#45;&gt;vesting -->
<g id="edge19" class="edge">
<title>genesis&#45;&gt;vesting</title>
<path fill="none" stroke="black" d="M451.55,-228.47C507.32,-220.88 619.54,-203.99 712.56,-180 716.06,-179.1 719.68,-178.07 723.28,-176.97"/>
<polygon fill="black" stroke="black" points="724.06,-180.4 732.52,-174.01 721.93,-173.73 724.06,-180.4"/>
</g>
<!-- consensus_config -->
<g id="node9" class="node">
<title>consensus_config</title>
<ellipse fill="none" stroke="black" cx="517.56" cy="-162" rx="73.39" ry="18"/>
<text text-anchor="middle" x="517.56" y="-158.3" font-family="Times,serif" font-size="14.00">consensus_config</text>
</g>
<!-- genesis&#45;&gt;consensus_config -->
<g id="edge21" class="edge">
<title>genesis&#45;&gt;consensus_config</title>
<path fill="none" stroke="black" d="M436.99,-218.83C450.65,-209.37 468.91,-196.72 484.59,-185.85"/>
<polygon fill="black" stroke="black" points="486.49,-188.79 492.72,-180.22 482.5,-183.04 486.49,-188.79"/>
</g>
<!-- gas_schedule -->
<g id="node10" class="node">
<title>gas_schedule</title>
<ellipse fill="none" stroke="black" cx="240.56" cy="-162" rx="57.69" ry="18"/>
<text text-anchor="middle" x="240.56" y="-158.3" font-family="Times,serif" font-size="14.00">gas_schedule</text>
</g>
<!-- genesis&#45;&gt;gas_schedule -->
<g id="edge22" class="edge">
<title>genesis&#45;&gt;gas_schedule</title>
<path fill="none" stroke="black" d="M389.06,-222.06C361.43,-211.08 318.4,-193.96 285.75,-180.98"/>
<polygon fill="black" stroke="black" points="287.11,-177.75 276.52,-177.31 284.52,-184.25 287.11,-177.75"/>
</g>
<!-- version -->
<g id="node11" class="node">
<title>version</title>
<ellipse fill="none" stroke="black" cx="352.56" cy="-162" rx="36.29" ry="18"/>
<text text-anchor="middle" x="352.56" y="-158.3" font-family="Times,serif" font-size="14.00">version</text>
</g>
<!-- genesis&#45;&gt;version -->
<g id="edge23" class="edge">
<title>genesis&#45;&gt;version</title>
<path fill="none" stroke="black" d="M402.03,-217.12C393.93,-208.26 383.68,-197.04 374.6,-187.12"/>
<polygon fill="black" stroke="black" points="377.37,-184.96 368.04,-179.94 372.21,-189.68 377.37,-184.96"/>
</g>
<!-- staking_proxy -->
<g id="node8" class="node">
<title>staking_proxy</title>
<ellipse fill="none" stroke="black" cx="826.56" cy="-234" rx="61.19" ry="18"/>
<text text-anchor="middle" x="826.56" y="-230.3" font-family="Times,serif" font-size="14.00">staking_proxy</text>
</g>
<!-- staking_proxy&#45;&gt;stake -->
<g id="edge7" class="edge">
<title>staking_proxy&#45;&gt;stake</title>
<path fill="none" stroke="black" d="M829.14,-215.73C833.1,-181.99 836.22,-107.49 793.56,-72 750.06,-35.82 683.73,-24.24 641.53,-20.59"/>
<polygon fill="black" stroke="black" points="642.04,-17.12 631.81,-19.87 641.52,-24.1 642.04,-17.12"/>
</g>
<!-- staking_proxy&#45;&gt;staking_contract -->
<g id="edge18" class="edge">
<title>staking_proxy&#45;&gt;staking_contract</title>
<path fill="none" stroke="black" d="M827.16,-215.74C826.95,-196.32 823.82,-164.77 807.56,-144 794.65,-127.51 775.3,-115.83 756.47,-107.72"/>
<polygon fill="black" stroke="black" points="757.8,-104.48 747.21,-104.02 755.2,-110.98 757.8,-104.48"/>
</g>
<!-- staking_proxy&#45;&gt;vesting -->
<g id="edge20" class="edge">
<title>staking_proxy&#45;&gt;vesting</title>
<path fill="none" stroke="black" d="M811.39,-216.41C803.35,-207.62 793.33,-196.66 784.47,-186.96"/>
<polygon fill="black" stroke="black" points="787.09,-184.65 777.76,-179.63 781.92,-189.37 787.09,-184.65"/>
</g>
<!-- consensus_config&#45;&gt;reconfiguration -->
<g id="edge10" class="edge">
<title>consensus_config&#45;&gt;reconfiguration</title>
<path fill="none" stroke="black" d="M493.88,-144.59C480.48,-135.31 463.55,-123.57 448.94,-113.44"/>
<polygon fill="black" stroke="black" points="451.2,-110.75 440.98,-107.93 447.21,-116.5 451.2,-110.75"/>
</g>
<!-- gas_schedule&#45;&gt;reconfiguration -->
<g id="edge11" class="edge">
<title>gas_schedule&#45;&gt;reconfiguration</title>
<path fill="none" stroke="black" d="M275.33,-147.17C302.36,-136.42 340.13,-121.4 369.81,-109.59"/>
<polygon fill="black" stroke="black" points="370.94,-112.91 378.94,-105.96 368.35,-106.41 370.94,-112.91"/>
</g>
<!-- version&#45;&gt;reconfiguration -->
<g id="edge12" class="edge">
<title>version&#45;&gt;reconfiguration</title>
<path fill="none" stroke="black" d="M367.08,-145.12C374.87,-136.59 384.66,-125.89 393.47,-116.25"/>
<polygon fill="black" stroke="black" points="396.01,-118.66 400.18,-108.91 390.85,-113.93 396.01,-118.66"/>
</g>
</g>
</svg>
