<?xml version="1.0" encoding="UTF-8" standalone="no"?>
<!DOCTYPE svg PUBLIC "-//W3C//DTD SVG 1.1//EN"
 "http://www.w3.org/Graphics/SVG/1.1/DTD/svg11.dtd">
<!-- Generated by graphviz version 7.0.0 (20221023.0053)
 -->
<!-- Title: G Pages: 1 -->
<svg width="267pt" height="227pt"
 viewBox="0.00 0.00 266.68 227.00" xmlns="http://www.w3.org/2000/svg" xmlns:xlink="http://www.w3.org/1999/xlink">
<g id="graph0" class="graph" transform="scale(1 1) rotate(0) translate(4 223)">
<title>G</title>
<polygon fill="white" stroke="none" points="-4,4 -4,-223 262.68,-223 262.68,4 -4,4"/>
<g id="clust1" class="cluster">
<title>cluster_aptos_governance</title>
<polygon fill="none" stroke="black" points="19.34,-64 19.34,-211 239.34,-211 239.34,-64 19.34,-64"/>
<text text-anchor="middle" x="129.34" y="-195.8" font-family="Times,serif" font-size="14.00">aptos_governance</text>
</g>
<!-- get_current_epoch_voting_power -->
<g id="node1" class="node">
<title>get_current_epoch_voting_power</title>
<ellipse fill="none" stroke="black" cx="129.34" cy="-18" rx="129.18" ry="18"/>
<text text-anchor="middle" x="129.34" y="-14.3" font-family="Times,serif" font-size="14.00">get_current_epoch_voting_power</text>
</g>
<!-- aptos_governance::get_voting_power -->
<g id="node2" class="node">
<title>aptos_governance::get_voting_power</title>
<ellipse fill="none" stroke="black" cx="129.34" cy="-90" rx="74.99" ry="18"/>
<text text-anchor="middle" x="129.34" y="-86.3" font-family="Times,serif" font-size="14.00">get_voting_power</text>
</g>
<!-- aptos_governance::get_voting_power&#45;&gt;get_current_epoch_voting_power -->
<g id="edge1" class="edge">
<title>aptos_governance::get_voting_power&#45;&gt;get_current_epoch_voting_power</title>
<path fill="none" stroke="black" d="M129.34,-71.7C129.34,-64.41 129.34,-55.73 129.34,-47.54"/>
<polygon fill="black" stroke="black" points="132.84,-47.62 129.34,-37.62 125.84,-47.62 132.84,-47.62"/>
</g>
<!-- aptos_governance::create_proposal -->
<g id="node3" class="node">
<title>aptos_governance::create_proposal</title>
<ellipse fill="none" stroke="black" cx="165.34" cy="-162" rx="66.09" ry="18"/>
<text text-anchor="middle" x="165.34" y="-158.3" font-family="Times,serif" font-size="14.00">create_proposal</text>
</g>
<!-- aptos_governance::create_proposal&#45;&gt;aptos_governance::get_voting_power -->
<g id="edge2" class="edge">
<title>aptos_governance::create_proposal&#45;&gt;aptos_governance::get_voting_power</title>
<path fill="none" stroke="black" d="M156.44,-143.7C152.47,-135.98 147.7,-126.71 143.28,-118.11"/>
<polygon fill="black" stroke="black" points="146.51,-116.74 138.83,-109.45 140.29,-119.94 146.51,-116.74"/>
</g>
<!-- aptos_governance::vote -->
<g id="node4" class="node">
<title>aptos_governance::vote</title>
<ellipse fill="none" stroke="black" cx="54.34" cy="-162" rx="27" ry="18"/>
<text text-anchor="middle" x="54.34" y="-158.3" font-family="Times,serif" font-size="14.00">vote</text>
</g>
<!-- aptos_governance::vote&#45;&gt;aptos_governance::get_voting_power -->
<g id="edge3" class="edge">
<title>aptos_governance::vote&#45;&gt;aptos_governance::get_voting_power</title>
<path fill="none" stroke="black" d="M69.52,-146.83C79.13,-137.86 91.83,-126 103.06,-115.53"/>
<polygon fill="black" stroke="black" points="105.25,-118.27 110.17,-108.89 100.47,-113.16 105.25,-118.27"/>
</g>
</g>
</svg>
