<?xml version="1.0" encoding="UTF-8" standalone="no"?>
<!DOCTYPE svg PUBLIC "-//W3C//DTD SVG 1.1//EN"
 "http://www.w3.org/Graphics/SVG/1.1/DTD/svg11.dtd">
<!-- Generated by graphviz version 7.0.0 (20221023.0053)
 -->
<!-- Title: G Pages: 1 -->
<svg width="692pt" height="446pt"
 viewBox="0.00 0.00 692.00 446.00" xmlns="http://www.w3.org/2000/svg" xmlns:xlink="http://www.w3.org/1999/xlink">
<g id="graph0" class="graph" transform="scale(1 1) rotate(0) translate(4 442)">
<title>G</title>
<polygon fill="white" stroke="none" points="-4,4 -4,-442 688,-442 688,4 -4,4"/>
<g id="clust1" class="cluster">
<title>cluster_vesting</title>
<polygon fill="none" stroke="black" points="472,-280 472,-355 676,-355 676,-280 472,-280"/>
<text text-anchor="middle" x="574" y="-339.8" font-family="Times,serif" font-size="14.00">vesting</text>
</g>
<g id="clust2" class="cluster">
<title>cluster_genesis</title>
<polygon fill="none" stroke="black" points="8,-136 8,-430 464,-430 464,-136 8,-136"/>
<text text-anchor="middle" x="236" y="-414.8" font-family="Times,serif" font-size="14.00">genesis</text>
</g>
<!-- create_staking_contract_with_coins -->
<g id="node1" class="node">
<title>create_staking_contract_with_coins</title>
<ellipse fill="none" stroke="black" cx="382" cy="-18" rx="137.28" ry="18"/>
<text text-anchor="middle" x="382" y="-14.3" font-family="Times,serif" font-size="14.00">create_staking_contract_with_coins</text>
</g>
<!-- create_staking_contract -->
<g id="node2" class="node">
<title>create_staking_contract</title>
<ellipse fill="none" stroke="black" cx="321" cy="-90" rx="94.48" ry="18"/>
<text text-anchor="middle" x="321" y="-86.3" font-family="Times,serif" font-size="14.00">create_staking_contract</text>
</g>
<!-- create_staking_contract&#45;&gt;create_staking_contract_with_coins -->
<g id="edge1" class="edge">
<title>create_staking_contract&#45;&gt;create_staking_contract_with_coins</title>
<path fill="none" stroke="black" d="M335.77,-72.05C342.85,-63.92 351.5,-54 359.39,-44.94"/>
<polygon fill="black" stroke="black" points="362.02,-47.25 365.95,-37.42 356.74,-42.66 362.02,-47.25"/>
</g>
<!-- vesting::create_vesting_contract -->
<g id="node3" class="node">
<title>vesting::create_vesting_contract</title>
<ellipse fill="none" stroke="black" cx="574" cy="-306" rx="94.48" ry="18"/>
<text text-anchor="middle" x="574" y="-302.3" font-family="Times,serif" font-size="14.00">create_vesting_contract</text>
</g>
<!-- vesting::create_vesting_contract&#45;&gt;create_staking_contract_with_coins -->
<g id="edge2" class="edge">
<title>vesting::create_vesting_contract&#45;&gt;create_staking_contract_with_coins</title>
<path fill="none" stroke="black" d="M563.99,-287.83C540.86,-248.57 481.31,-149.59 424,-72 417.34,-62.98 409.81,-53.32 402.98,-44.75"/>
<polygon fill="black" stroke="black" points="405.86,-42.74 396.87,-37.14 400.4,-47.13 405.86,-42.74"/>
</g>
<!-- genesis::create_initialize_validator -->
<g id="node4" class="node">
<title>genesis::create_initialize_validator</title>
<ellipse fill="none" stroke="black" cx="291" cy="-162" rx="102.88" ry="18"/>
<text text-anchor="middle" x="291" y="-158.3" font-family="Times,serif" font-size="14.00">create_initialize_validator</text>
</g>
<!-- genesis::create_initialize_validator&#45;&gt;create_staking_contract -->
<g id="edge3" class="edge">
<title>genesis::create_initialize_validator&#45;&gt;create_staking_contract</title>
<path fill="none" stroke="black" d="M298.42,-143.7C301.65,-136.15 305.52,-127.12 309.14,-118.68"/>
<polygon fill="black" stroke="black" points="312.35,-120.07 313.07,-109.5 305.92,-117.31 312.35,-120.07"/>
</g>
<!-- genesis::create_employee_validators -->
<g id="node5" class="node">
<title>genesis::create_employee_validators</title>
<ellipse fill="none" stroke="black" cx="346" cy="-381" rx="109.68" ry="18"/>
<text text-anchor="middle" x="346" y="-377.3" font-family="Times,serif" font-size="14.00">create_employee_validators</text>
</g>
<!-- genesis::create_employee_validators&#45;&gt;vesting::create_vesting_contract -->
<g id="edge4" class="edge">
<title>genesis::create_employee_validators&#45;&gt;vesting::create_vesting_contract</title>
<path fill="none" stroke="black" d="M420.56,-367.47C436.39,-364.05 452.88,-359.9 468,-355 489.89,-347.9 513.28,-337.62 532.51,-328.39"/>
<polygon fill="black" stroke="black" points="533.92,-331.59 541.37,-324.06 530.85,-325.3 533.92,-331.59"/>
</g>
<!-- genesis::create_initialize_validators_with_commission -->
<g id="node6" class="node">
<title>genesis::create_initialize_validators_with_commission</title>
<ellipse fill="none" stroke="black" cx="261" cy="-234" rx="173.57" ry="18"/>
<text text-anchor="middle" x="261" y="-230.3" font-family="Times,serif" font-size="14.00">create_initialize_validators_with_commission</text>
</g>
<!-- genesis::create_initialize_validators_with_commission&#45;&gt;genesis::create_initialize_validator -->
<g id="edge5" class="edge">
<title>genesis::create_initialize_validators_with_commission&#45;&gt;genesis::create_initialize_validator</title>
<path fill="none" stroke="black" d="M268.42,-215.7C271.65,-208.15 275.52,-199.12 279.14,-190.68"/>
<polygon fill="black" stroke="black" points="282.35,-192.07 283.07,-181.5 275.92,-189.31 282.35,-192.07"/>
</g>
<!-- genesis::create_initialize_validators -->
<g id="node7" class="node">
<title>genesis::create_initialize_validators</title>
<ellipse fill="none" stroke="black" cx="201" cy="-306" rx="105.88" ry="18"/>
<text text-anchor="middle" x="201" y="-302.3" font-family="Times,serif" font-size="14.00">create_initialize_validators</text>
</g>
<!-- genesis::create_initialize_validators&#45;&gt;genesis::create_initialize_validators_with_commission -->
<g id="edge6" class="edge">
<title>genesis::create_initialize_validators&#45;&gt;genesis::create_initialize_validators_with_commission</title>
<path fill="none" stroke="black" d="M215.83,-287.7C222.81,-279.56 231.27,-269.69 238.97,-260.7"/>
<polygon fill="black" stroke="black" points="241.5,-263.12 245.35,-253.25 236.19,-258.57 241.5,-263.12"/>
</g>
<!-- genesis::initialize_for_verification -->
<g id="node8" class="node">
<title>genesis::initialize_for_verification</title>
<ellipse fill="none" stroke="black" cx="117" cy="-381" rx="100.98" ry="18"/>
<text text-anchor="middle" x="117" y="-377.3" font-family="Times,serif" font-size="14.00">initialize_for_verification</text>
</g>
<!-- genesis::initialize_for_verification&#45;&gt;genesis::create_initialize_validators -->
<g id="edge7" class="edge">
<title>genesis::initialize_for_verification&#45;&gt;genesis::create_initialize_validators</title>
<path fill="none" stroke="black" d="M136.48,-363.07C147.32,-353.65 161.01,-341.75 172.98,-331.35"/>
<polygon fill="black" stroke="black" points="174.94,-334.29 180.19,-325.09 170.35,-329 174.94,-334.29"/>
</g>
</g>
</svg>
