<?xml version="1.0" encoding="UTF-8" standalone="no"?>
<!DOCTYPE svg PUBLIC "-//W3C//DTD SVG 1.1//EN"
 "http://www.w3.org/Graphics/SVG/1.1/DTD/svg11.dtd">
<!-- Generated by graphviz version 7.0.0 (20221023.0053)
 -->
<!-- Title: G Pages: 1 -->
<svg width="1160pt" height="614pt"
 viewBox="0.00 0.00 1159.81 614.00" xmlns="http://www.w3.org/2000/svg" xmlns:xlink="http://www.w3.org/1999/xlink">
<g id="graph0" class="graph" transform="scale(1 1) rotate(0) translate(4 610)">
<title>G</title>
<polygon fill="white" stroke="none" points="-4,4 -4,-610 1155.81,-610 1155.81,4 -4,4"/>
<g id="clust1" class="cluster">
<title>cluster_simple_map</title>
<polygon fill="none" stroke="black" points="174.81,-257 174.81,-415 395.81,-415 395.81,-257 174.81,-257"/>
<text text-anchor="middle" x="285.31" y="-399.8" font-family="Times,serif" font-size="14.00">simple_map</text>
</g>
<g id="clust2" class="cluster">
<title>cluster_option</title>
<polygon fill="none" stroke="black" points="63.81,-91 63.81,-249 299.81,-249 299.81,-91 63.81,-91"/>
<text text-anchor="middle" x="181.81" y="-233.8" font-family="Times,serif" font-size="14.00">option</text>
</g>
<g id="clust3" class="cluster">
<title>cluster_error</title>
<polygon fill="none" stroke="black" points="567.81,-174 567.81,-332 841.81,-332 841.81,-174 567.81,-174"/>
<text text-anchor="middle" x="704.81" y="-316.8" font-family="Times,serif" font-size="14.00">error</text>
</g>
<g id="clust4" class="cluster">
<title>cluster_stake</title>
<polygon fill="none" stroke="black" points="849.81,-257 849.81,-490 1059.81,-490 1059.81,-257 849.81,-257"/>
<text text-anchor="middle" x="954.81" y="-474.8" font-family="Times,serif" font-size="14.00">stake</text>
</g>
<g id="clust5" class="cluster">
<title>cluster_vector</title>
<polygon fill="none" stroke="black" points="61.81,-8 61.81,-83 268.81,-83 268.81,-8 61.81,-8"/>
<text text-anchor="middle" x="165.31" y="-67.8" font-family="Times,serif" font-size="14.00">vector</text>
</g>
<g id="clust6" class="cluster">
<title>cluster_comparator</title>
<polygon fill="none" stroke="black" points="307.81,-91 307.81,-249 559.81,-249 559.81,-91 307.81,-91"/>
<text text-anchor="middle" x="433.81" y="-233.8" font-family="Times,serif" font-size="14.00">comparator</text>
</g>
<g id="clust7" class="cluster">
<title>cluster_coin</title>
<polygon fill="none" stroke="black" points="1067.81,-340 1067.81,-415 1143.81,-415 1143.81,-340 1067.81,-340"/>
<text text-anchor="middle" x="1105.81" y="-399.8" font-family="Times,serif" font-size="14.00">coin</text>
</g>
<g id="clust8" class="cluster">
<title>cluster_bcs</title>
<polygon fill="none" stroke="black" points="567.81,-91 567.81,-166 663.81,-166 663.81,-91 567.81,-91"/>
<text text-anchor="middle" x="615.81" y="-150.8" font-family="Times,serif" font-size="14.00">bcs</text>
</g>
<!-- staking_contract_amounts -->
<g id="node1" class="node">
<title>staking_contract_amounts</title>
<ellipse fill="none" stroke="black" cx="505.81" cy="-588" rx="103.18" ry="18"/>
<text text-anchor="middle" x="505.81" y="-584.3" font-family="Times,serif" font-size="14.00">staking_contract_amounts</text>
</g>
<!-- simple_map::borrow -->
<g id="node2" class="node">
<title>simple_map::borrow</title>
<ellipse fill="none" stroke="black" cx="351.81" cy="-366" rx="36.29" ry="18"/>
<text text-anchor="middle" x="351.81" y="-362.3" font-family="Times,serif" font-size="14.00">borrow</text>
</g>
<!-- staking_contract_amounts&#45;&gt;simple_map::borrow -->
<g id="edge1" class="edge">
<title>staking_contract_amounts&#45;&gt;simple_map::borrow</title>
<path fill="none" stroke="black" d="M509.06,-569.61C514.07,-537.21 519.96,-466.93 486.81,-423 465.74,-395.07 428.2,-380.98 398.05,-373.93"/>
<polygon fill="black" stroke="black" points="398.89,-370.53 388.38,-371.87 397.44,-377.38 398.89,-370.53"/>
</g>
<!-- assert_staking_contract_exists -->
<g id="node3" class="node">
<title>assert_staking_contract_exists</title>
<ellipse fill="none" stroke="black" cx="359.81" cy="-441" rx="117.78" ry="18"/>
<text text-anchor="middle" x="359.81" y="-437.3" font-family="Times,serif" font-size="14.00">assert_staking_contract_exists</text>
</g>
<!-- staking_contract_amounts&#45;&gt;assert_staking_contract_exists -->
<g id="edge2" class="edge">
<title>staking_contract_amounts&#45;&gt;assert_staking_contract_exists</title>
<path fill="none" stroke="black" d="M488.49,-569.8C462.81,-544.29 414.48,-496.3 384.92,-466.93"/>
<polygon fill="black" stroke="black" points="387.75,-464.81 378.18,-460.25 382.81,-469.78 387.75,-464.81"/>
</g>
<!-- get_staking_contract_amounts_internal -->
<g id="node4" class="node">
<title>get_staking_contract_amounts_internal</title>
<ellipse fill="none" stroke="black" cx="923.81" cy="-516" rx="149.47" ry="18"/>
<text text-anchor="middle" x="923.81" y="-512.3" font-family="Times,serif" font-size="14.00">get_staking_contract_amounts_internal</text>
</g>
<!-- staking_contract_amounts&#45;&gt;get_staking_contract_amounts_internal -->
<g id="edge3" class="edge">
<title>staking_contract_amounts&#45;&gt;get_staking_contract_amounts_internal</title>
<path fill="none" stroke="black" d="M578.14,-574.89C647.3,-563.31 752,-545.77 828.04,-533.04"/>
<polygon fill="black" stroke="black" points="828.27,-536.55 837.56,-531.44 827.11,-529.64 828.27,-536.55"/>
</g>
<!-- option::extract -->
<g id="node5" class="node">
<title>option::extract</title>
<ellipse fill="none" stroke="black" cx="105.81" cy="-200" rx="34.39" ry="18"/>
<text text-anchor="middle" x="105.81" y="-196.3" font-family="Times,serif" font-size="14.00">extract</text>
</g>
<!-- simple_map::borrow&#45;&gt;option::extract -->
<g id="edge4" class="edge">
<title>simple_map::borrow&#45;&gt;option::extract</title>
<path fill="none" stroke="black" d="M328.68,-351.74C321.45,-347.78 313.38,-343.56 305.81,-340 297.15,-335.93 294.38,-336.27 285.81,-332 222.1,-300.23 203.6,-294.45 148.81,-249 140.55,-242.15 132.45,-233.69 125.54,-225.8"/>
<polygon fill="black" stroke="black" points="128.41,-223.77 119.28,-218.39 123.06,-228.29 128.41,-223.77"/>
</g>
<!-- option::is_some -->
<g id="node6" class="node">
<title>option::is_some</title>
<ellipse fill="none" stroke="black" cx="111.81" cy="-117" rx="40.09" ry="18"/>
<text text-anchor="middle" x="111.81" y="-113.3" font-family="Times,serif" font-size="14.00">is_some</text>
</g>
<!-- simple_map::borrow&#45;&gt;option::is_some -->
<g id="edge5" class="edge">
<title>simple_map::borrow&#45;&gt;option::is_some</title>
<path fill="none" stroke="black" d="M330.67,-350.96C323.13,-346.66 314.38,-342.43 305.81,-340 274.12,-331.03 188.32,-344.4 157.81,-332 105.87,-310.89 86,-300.05 62.81,-249 49.03,-218.65 51.09,-205.2 62.81,-174 67.44,-161.69 76.14,-150.31 84.94,-141.07"/>
<polygon fill="black" stroke="black" points="87.17,-143.78 91.85,-134.28 82.26,-138.79 87.17,-143.78"/>
</g>
<!-- error::invalid_argument -->
<g id="node7" class="node">
<title>error::invalid_argument</title>
<ellipse fill="none" stroke="black" cx="648.81" cy="-283" rx="73.39" ry="18"/>
<text text-anchor="middle" x="648.81" y="-279.3" font-family="Times,serif" font-size="14.00">invalid_argument</text>
</g>
<!-- simple_map::borrow&#45;&gt;error::invalid_argument -->
<g id="edge6" class="edge">
<title>simple_map::borrow&#45;&gt;error::invalid_argument</title>
<path fill="none" stroke="black" d="M383.03,-356.48C432.07,-343.11 527.94,-316.97 590.13,-300"/>
<polygon fill="black" stroke="black" points="590.77,-303.46 599.5,-297.45 588.93,-296.7 590.77,-303.46"/>
</g>
<!-- simple_map::find -->
<g id="node8" class="node">
<title>simple_map::find</title>
<ellipse fill="none" stroke="black" cx="321.81" cy="-283" rx="27" ry="18"/>
<text text-anchor="middle" x="321.81" y="-279.3" font-family="Times,serif" font-size="14.00">find</text>
</g>
<!-- simple_map::borrow&#45;&gt;simple_map::find -->
<g id="edge7" class="edge">
<title>simple_map::borrow&#45;&gt;simple_map::find</title>
<path fill="none" stroke="black" d="M345.45,-347.82C341.53,-337.23 336.4,-323.4 331.93,-311.33"/>
<polygon fill="black" stroke="black" points="335.34,-310.46 328.59,-302.29 328.78,-312.89 335.34,-310.46"/>
</g>
<!-- error::not_found -->
<g id="node9" class="node">
<title>error::not_found</title>
<ellipse fill="none" stroke="black" cx="786.81" cy="-283" rx="46.59" ry="18"/>
<text text-anchor="middle" x="786.81" y="-279.3" font-family="Times,serif" font-size="14.00">not_found</text>
</g>
<!-- assert_staking_contract_exists&#45;&gt;error::not_found -->
<g id="edge8" class="edge">
<title>assert_staking_contract_exists&#45;&gt;error::not_found</title>
<path fill="none" stroke="black" d="M438.1,-427.24C515.85,-412.31 636.71,-382.92 730.81,-332 742.54,-325.66 753.99,-316.53 763.45,-307.94"/>
<polygon fill="black" stroke="black" points="765.57,-310.75 770.43,-301.33 760.76,-305.66 765.57,-310.75"/>
</g>
<!-- simple_map::contains_key -->
<g id="node10" class="node">
<title>simple_map::contains_key</title>
<ellipse fill="none" stroke="black" cx="239.81" cy="-366" rx="57.39" ry="18"/>
<text text-anchor="middle" x="239.81" y="-362.3" font-family="Times,serif" font-size="14.00">contains_key</text>
</g>
<!-- assert_staking_contract_exists&#45;&gt;simple_map::contains_key -->
<g id="edge9" class="edge">
<title>assert_staking_contract_exists&#45;&gt;simple_map::contains_key</title>
<path fill="none" stroke="black" d="M322.59,-423.49C317.21,-420.81 311.81,-417.94 306.81,-415 294.09,-407.52 280.74,-398.28 269.34,-389.91"/>
<polygon fill="black" stroke="black" points="271.6,-387.23 261.49,-384.05 267.41,-392.84 271.6,-387.23"/>
</g>
<!-- stake::get_stake -->
<g id="node11" class="node">
<title>stake::get_stake</title>
<ellipse fill="none" stroke="black" cx="954.81" cy="-441" rx="44.39" ry="18"/>
<text text-anchor="middle" x="954.81" y="-437.3" font-family="Times,serif" font-size="14.00">get_stake</text>
</g>
<!-- get_staking_contract_amounts_internal&#45;&gt;stake::get_stake -->
<g id="edge10" class="edge">
<title>get_staking_contract_amounts_internal&#45;&gt;stake::get_stake</title>
<path fill="none" stroke="black" d="M931.16,-497.7C934.71,-489.34 939.06,-479.09 943.06,-469.68"/>
<polygon fill="black" stroke="black" points="946.24,-471.14 946.93,-460.57 939.8,-468.41 946.24,-471.14"/>
</g>
<!-- option::extract&#45;&gt;option::is_some -->
<g id="edge11" class="edge">
<title>option::extract&#45;&gt;option::is_some</title>
<path fill="none" stroke="black" d="M107.08,-181.82C107.84,-171.58 108.82,-158.33 109.7,-146.55"/>
<polygon fill="black" stroke="black" points="113.16,-147.17 110.41,-136.94 106.18,-146.66 113.16,-147.17"/>
</g>
<!-- vector::is_empty -->
<g id="node12" class="node">
<title>vector::is_empty</title>
<ellipse fill="none" stroke="black" cx="113.81" cy="-34" rx="43.59" ry="18"/>
<text text-anchor="middle" x="113.81" y="-30.3" font-family="Times,serif" font-size="14.00">is_empty</text>
</g>
<!-- option::is_some&#45;&gt;vector::is_empty -->
<g id="edge12" class="edge">
<title>option::is_some&#45;&gt;vector::is_empty</title>
<path fill="none" stroke="black" d="M112.24,-98.82C112.49,-88.69 112.81,-75.6 113.1,-63.92"/>
<polygon fill="black" stroke="black" points="116.6,-64.03 113.34,-53.95 109.6,-63.86 116.6,-64.03"/>
</g>
<!-- error::canonical -->
<g id="node13" class="node">
<title>error::canonical</title>
<ellipse fill="none" stroke="black" cx="717.81" cy="-200" rx="44.39" ry="18"/>
<text text-anchor="middle" x="717.81" y="-196.3" font-family="Times,serif" font-size="14.00">canonical</text>
</g>
<!-- error::invalid_argument&#45;&gt;error::canonical -->
<g id="edge13" class="edge">
<title>error::invalid_argument&#45;&gt;error::canonical</title>
<path fill="none" stroke="black" d="M663.11,-265.22C672.7,-253.96 685.51,-238.92 696.32,-226.22"/>
<polygon fill="black" stroke="black" points="698.97,-228.52 702.79,-218.64 693.64,-223.98 698.97,-228.52"/>
</g>
<!-- option::none -->
<g id="node14" class="node">
<title>option::none</title>
<ellipse fill="none" stroke="black" cx="185.81" cy="-200" rx="27.9" ry="18"/>
<text text-anchor="middle" x="185.81" y="-196.3" font-family="Times,serif" font-size="14.00">none</text>
</g>
<!-- simple_map::find&#45;&gt;option::none -->
<g id="edge14" class="edge">
<title>simple_map::find&#45;&gt;option::none</title>
<path fill="none" stroke="black" d="M295.92,-277.72C274.74,-273.25 244.81,-264.64 222.81,-249 214.52,-243.11 207.21,-234.82 201.33,-226.78"/>
<polygon fill="black" stroke="black" points="204.25,-224.85 195.74,-218.54 198.46,-228.78 204.25,-224.85"/>
</g>
<!-- option::some -->
<g id="node15" class="node">
<title>option::some</title>
<ellipse fill="none" stroke="black" cx="261.81" cy="-200" rx="29.8" ry="18"/>
<text text-anchor="middle" x="261.81" y="-196.3" font-family="Times,serif" font-size="14.00">some</text>
</g>
<!-- simple_map::find&#45;&gt;option::some -->
<g id="edge15" class="edge">
<title>simple_map::find&#45;&gt;option::some</title>
<path fill="none" stroke="black" d="M310.24,-266.38C301.75,-254.91 290.03,-239.1 280.25,-225.9"/>
<polygon fill="black" stroke="black" points="283.21,-224.01 274.45,-218.06 277.59,-228.18 283.21,-224.01"/>
</g>
<!-- comparator::compare -->
<g id="node16" class="node">
<title>comparator::compare</title>
<ellipse fill="none" stroke="black" cx="509.81" cy="-200" rx="41.69" ry="18"/>
<text text-anchor="middle" x="509.81" y="-196.3" font-family="Times,serif" font-size="14.00">compare</text>
</g>
<!-- simple_map::find&#45;&gt;comparator::compare -->
<g id="edge16" class="edge">
<title>simple_map::find&#45;&gt;comparator::compare</title>
<path fill="none" stroke="black" d="M348.76,-279.64C377.5,-276.21 423.63,-268.03 458.81,-249 469.88,-243.01 480.34,-234.02 488.86,-225.43"/>
<polygon fill="black" stroke="black" points="491.36,-227.89 495.66,-218.21 486.26,-223.09 491.36,-227.89"/>
</g>
<!-- comparator::is_smaller_than -->
<g id="node17" class="node">
<title>comparator::is_smaller_than</title>
<ellipse fill="none" stroke="black" cx="382.81" cy="-200" rx="66.89" ry="18"/>
<text text-anchor="middle" x="382.81" y="-196.3" font-family="Times,serif" font-size="14.00">is_smaller_than</text>
</g>
<!-- simple_map::find&#45;&gt;comparator::is_smaller_than -->
<g id="edge17" class="edge">
<title>simple_map::find&#45;&gt;comparator::is_smaller_than</title>
<path fill="none" stroke="black" d="M333.57,-266.38C341.99,-255.21 353.51,-239.91 363.29,-226.93"/>
<polygon fill="black" stroke="black" points="365.9,-229.27 369.12,-219.18 360.31,-225.06 365.9,-229.27"/>
</g>
<!-- error::not_found&#45;&gt;error::canonical -->
<g id="edge18" class="edge">
<title>error::not_found&#45;&gt;error::canonical</title>
<path fill="none" stroke="black" d="M772.85,-265.61C763.12,-254.19 749.97,-238.75 738.96,-225.83"/>
<polygon fill="black" stroke="black" points="741.88,-223.86 732.74,-218.52 736.56,-228.4 741.88,-223.86"/>
</g>
<!-- simple_map::contains_key&#45;&gt;option::is_some -->
<g id="edge19" class="edge">
<title>simple_map::contains_key&#45;&gt;option::is_some</title>
<path fill="none" stroke="black" d="M182.49,-364.07C127.2,-361.81 49.12,-354.58 29.81,-332 -15.83,-278.63 -2.98,-236.1 29.81,-174 38.94,-156.7 56.09,-143.74 72.35,-134.67"/>
<polygon fill="black" stroke="black" points="73.67,-137.92 80.93,-130.21 70.45,-131.71 73.67,-137.92"/>
</g>
<!-- simple_map::contains_key&#45;&gt;simple_map::find -->
<g id="edge20" class="edge">
<title>simple_map::contains_key&#45;&gt;simple_map::find</title>
<path fill="none" stroke="black" d="M256.41,-348.61C268.73,-336.43 285.68,-319.69 299.24,-306.3"/>
<polygon fill="black" stroke="black" points="301.43,-309.05 306.09,-299.53 296.52,-304.07 301.43,-309.05"/>
</g>
<!-- coin::value -->
<g id="node18" class="node">
<title>coin::value</title>
<ellipse fill="none" stroke="black" cx="1105.81" cy="-366" rx="29.8" ry="18"/>
<text text-anchor="middle" x="1105.81" y="-362.3" font-family="Times,serif" font-size="14.00">value</text>
</g>
<!-- stake::get_stake&#45;&gt;coin::value -->
<g id="edge21" class="edge">
<title>stake::get_stake&#45;&gt;coin::value</title>
<path fill="none" stroke="black" d="M998.01,-436.37C1019.03,-433.09 1043.98,-426.85 1063.81,-415 1073.34,-409.3 1081.85,-400.71 1088.67,-392.35"/>
<polygon fill="black" stroke="black" points="1091.45,-394.48 1094.71,-384.4 1085.88,-390.25 1091.45,-394.48"/>
</g>
<!-- stake::assert_stake_pool_exists -->
<g id="node19" class="node">
<title>stake::assert_stake_pool_exists</title>
<ellipse fill="none" stroke="black" cx="954.81" cy="-366" rx="97.48" ry="18"/>
<text text-anchor="middle" x="954.81" y="-362.3" font-family="Times,serif" font-size="14.00">assert_stake_pool_exists</text>
</g>
<!-- stake::get_stake&#45;&gt;stake::assert_stake_pool_exists -->
<g id="edge22" class="edge">
<title>stake::get_stake&#45;&gt;stake::assert_stake_pool_exists</title>
<path fill="none" stroke="black" d="M954.81,-422.7C954.81,-414.67 954.81,-404.9 954.81,-395.8"/>
<polygon fill="black" stroke="black" points="958.31,-395.94 954.81,-385.94 951.31,-395.94 958.31,-395.94"/>
</g>
<!-- vector::singleton -->
<g id="node20" class="node">
<title>vector::singleton</title>
<ellipse fill="none" stroke="black" cx="217.81" cy="-34" rx="42.79" ry="18"/>
<text text-anchor="middle" x="217.81" y="-30.3" font-family="Times,serif" font-size="14.00">singleton</text>
</g>
<!-- option::some&#45;&gt;vector::singleton -->
<g id="edge23" class="edge">
<title>option::some&#45;&gt;vector::singleton</title>
<path fill="none" stroke="black" d="M257.19,-181.76C249.61,-153.51 234.47,-97.11 225.34,-63.04"/>
<polygon fill="black" stroke="black" points="228.74,-62.22 222.77,-53.47 221.98,-64.04 228.74,-62.22"/>
</g>
<!-- bcs::to_bytes -->
<g id="node21" class="node">
<title>bcs::to_bytes</title>
<ellipse fill="none" stroke="black" cx="615.81" cy="-117" rx="40.09" ry="18"/>
<text text-anchor="middle" x="615.81" y="-113.3" font-family="Times,serif" font-size="14.00">to_bytes</text>
</g>
<!-- comparator::compare&#45;&gt;bcs::to_bytes -->
<g id="edge24" class="edge">
<title>comparator::compare&#45;&gt;bcs::to_bytes</title>
<path fill="none" stroke="black" d="M534.67,-185.2C544.07,-179.63 554.69,-172.89 563.81,-166 573.52,-158.67 583.49,-149.83 592.08,-141.74"/>
<polygon fill="black" stroke="black" points="594.26,-144.5 599.05,-135.04 589.41,-139.45 594.26,-144.5"/>
</g>
<!-- comparator::compare_u8_vector -->
<g id="node22" class="node">
<title>comparator::compare_u8_vector</title>
<ellipse fill="none" stroke="black" cx="470.81" cy="-117" rx="81.49" ry="18"/>
<text text-anchor="middle" x="470.81" y="-113.3" font-family="Times,serif" font-size="14.00">compare_u8_vector</text>
</g>
<!-- comparator::compare&#45;&gt;comparator::compare_u8_vector -->
<g id="edge25" class="edge">
<title>comparator::compare&#45;&gt;comparator::compare_u8_vector</title>
<path fill="none" stroke="black" d="M501.73,-182.22C496.62,-171.61 489.9,-157.65 484.03,-145.45"/>
<polygon fill="black" stroke="black" points="487.3,-144.18 479.81,-136.68 480.99,-147.21 487.3,-144.18"/>
</g>
<!-- stake::assert_stake_pool_exists&#45;&gt;error::invalid_argument -->
<g id="edge26" class="edge">
<title>stake::assert_stake_pool_exists&#45;&gt;error::invalid_argument</title>
<path fill="none" stroke="black" d="M863.26,-359.49C821.92,-354.99 773,-346.82 730.81,-332 713.36,-325.87 695.47,-315.9 680.86,-306.63"/>
<polygon fill="black" stroke="black" points="682.88,-303.76 672.59,-301.21 679.04,-309.62 682.88,-303.76"/>
</g>
<!-- stake::stake_pool_exists -->
<g id="node23" class="node">
<title>stake::stake_pool_exists</title>
<ellipse fill="none" stroke="black" cx="954.81" cy="-283" rx="73.39" ry="18"/>
<text text-anchor="middle" x="954.81" y="-279.3" font-family="Times,serif" font-size="14.00">stake_pool_exists</text>
</g>
<!-- stake::assert_stake_pool_exists&#45;&gt;stake::stake_pool_exists -->
<g id="edge27" class="edge">
<title>stake::assert_stake_pool_exists&#45;&gt;stake::stake_pool_exists</title>
<path fill="none" stroke="black" d="M954.81,-347.82C954.81,-337.69 954.81,-324.6 954.81,-312.92"/>
<polygon fill="black" stroke="black" points="958.31,-312.95 954.81,-302.95 951.31,-312.95 958.31,-312.95"/>
</g>
</g>
</svg>
