<?xml version="1.0" encoding="UTF-8" standalone="no"?>
<!DOCTYPE svg PUBLIC "-//W3C//DTD SVG 1.1//EN"
 "http://www.w3.org/Graphics/SVG/1.1/DTD/svg11.dtd">
<!-- Generated by graphviz version 7.0.0 (20221023.0053)
 -->
<!-- Title: G Pages: 1 -->
<svg width="949pt" height="332pt"
 viewBox="0.00 0.00 949.13 332.00" xmlns="http://www.w3.org/2000/svg" xmlns:xlink="http://www.w3.org/1999/xlink">
<g id="graph0" class="graph" transform="scale(1 1) rotate(0) translate(4 328)">
<title>G</title>
<polygon fill="white" stroke="none" points="-4,4 -4,-328 945.13,-328 945.13,4 -4,4"/>
<!-- staking_config -->
<g id="node1" class="node">
<title>staking_config</title>
<ellipse fill="none" stroke="black" cx="512.09" cy="-18" rx="63.09" ry="18"/>
<text text-anchor="middle" x="512.09" y="-14.3" font-family="Times,serif" font-size="14.00">staking_config</text>
</g>
<!-- stake -->
<g id="node2" class="node">
<title>stake</title>
<ellipse fill="none" stroke="black" cx="271.09" cy="-90" rx="28.7" ry="18"/>
<text text-anchor="middle" x="271.09" y="-86.3" font-family="Times,serif" font-size="14.00">stake</text>
</g>
<!-- stake&#45;&gt;staking_config -->
<g id="edge1" class="edge">
<title>stake&#45;&gt;staking_config</title>
<path fill="none" stroke="black" d="M296.89,-81.51C335.16,-70.39 407.86,-49.28 458.1,-34.68"/>
<polygon fill="black" stroke="black" points="459.01,-38.06 467.63,-31.91 457.05,-31.34 459.01,-38.06"/>
</g>
<!-- aptos_governance -->
<g id="node3" class="node">
<title>aptos_governance</title>
<ellipse fill="none" stroke="black" cx="835.09" cy="-234" rx="74.19" ry="18"/>
<text text-anchor="middle" x="835.09" y="-230.3" font-family="Times,serif" font-size="14.00">aptos_governance</text>
</g>
<!-- aptos_governance&#45;&gt;staking_config -->
<g id="edge2" class="edge">
<title>aptos_governance&#45;&gt;staking_config</title>
<path fill="none" stroke="black" d="M810.29,-216.56C752.82,-178.49 610.53,-84.21 545.49,-41.13"/>
<polygon fill="black" stroke="black" points="547.64,-38.35 537.37,-35.75 543.77,-44.19 547.64,-38.35"/>
</g>
<!-- aptos_governance&#45;&gt;stake -->
<g id="edge6" class="edge">
<title>aptos_governance&#45;&gt;stake</title>
<path fill="none" stroke="black" d="M798.22,-218.1C748.83,-198.64 658.11,-164.62 578.09,-144 483.52,-119.63 369.63,-103.27 310.72,-95.75"/>
<polygon fill="black" stroke="black" points="311.22,-92.28 300.86,-94.51 310.34,-99.23 311.22,-92.28"/>
</g>
<!-- reconfiguration -->
<g id="node6" class="node">
<title>reconfiguration</title>
<ellipse fill="none" stroke="black" cx="504.09" cy="-162" rx="64.99" ry="18"/>
<text text-anchor="middle" x="504.09" y="-158.3" font-family="Times,serif" font-size="14.00">reconfiguration</text>
</g>
<!-- aptos_governance&#45;&gt;reconfiguration -->
<g id="edge16" class="edge">
<title>aptos_governance&#45;&gt;reconfiguration</title>
<path fill="none" stroke="black" d="M780.44,-221.44C721.4,-208.96 627.55,-189.11 565.88,-176.07"/>
<polygon fill="black" stroke="black" points="566.75,-172.67 556.24,-174.03 565.3,-179.52 566.75,-172.67"/>
</g>
<!-- staking_contract -->
<g id="node4" class="node">
<title>staking_contract</title>
<ellipse fill="none" stroke="black" cx="117.09" cy="-162" rx="68.79" ry="18"/>
<text text-anchor="middle" x="117.09" y="-158.3" font-family="Times,serif" font-size="14.00">staking_contract</text>
</g>
<!-- staking_contract&#45;&gt;staking_config -->
<g id="edge3" class="edge">
<title>staking_contract&#45;&gt;staking_config</title>
<path fill="none" stroke="black" d="M133.5,-144.31C154.58,-123.89 193.25,-89.85 233.09,-72 299.22,-42.38 381.36,-29.31 439.35,-23.54"/>
<polygon fill="black" stroke="black" points="439.47,-27.04 449.1,-22.62 438.82,-20.07 439.47,-27.04"/>
</g>
<!-- staking_contract&#45;&gt;stake -->
<g id="edge8" class="edge">
<title>staking_contract&#45;&gt;stake</title>
<path fill="none" stroke="black" d="M150.51,-145.81C176.36,-134.06 211.99,-117.87 237.81,-106.13"/>
<polygon fill="black" stroke="black" points="239.19,-109.35 246.84,-102.02 236.29,-102.98 239.19,-109.35"/>
</g>
<!-- genesis -->
<g id="node5" class="node">
<title>genesis</title>
<ellipse fill="none" stroke="black" cx="448.09" cy="-306" rx="36.29" ry="18"/>
<text text-anchor="middle" x="448.09" y="-302.3" font-family="Times,serif" font-size="14.00">genesis</text>
</g>
<!-- genesis&#45;&gt;staking_config -->
<g id="edge4" class="edge">
<title>genesis&#45;&gt;staking_config</title>
<path fill="none" stroke="black" d="M484.25,-303.64C589.37,-299.32 889.27,-284.26 918.09,-252 1026.7,-130.46 715.92,-56.34 576.23,-29.95"/>
<polygon fill="black" stroke="black" points="577.23,-26.57 566.76,-28.18 575.95,-33.45 577.23,-26.57"/>
</g>
<!-- genesis&#45;&gt;stake -->
<g id="edge10" class="edge">
<title>genesis&#45;&gt;stake</title>
<path fill="none" stroke="black" d="M413.13,-300.94C360.87,-294.06 266.36,-278.27 246.09,-252 215.72,-212.62 238.86,-151.4 256.33,-116.9"/>
<polygon fill="black" stroke="black" points="259.22,-118.93 260.8,-108.45 253.03,-115.65 259.22,-118.93"/>
</g>
<!-- genesis&#45;&gt;aptos_governance -->
<g id="edge12" class="edge">
<title>genesis&#45;&gt;aptos_governance</title>
<path fill="none" stroke="black" d="M482.23,-299.33C538.39,-289.94 653.75,-270.36 751.09,-252 756.94,-250.9 763.01,-249.72 769.1,-248.53"/>
<polygon fill="black" stroke="black" points="769.4,-252.04 778.53,-246.66 768.04,-245.17 769.4,-252.04"/>
</g>
<!-- genesis&#45;&gt;staking_contract -->
<g id="edge14" class="edge">
<title>genesis&#45;&gt;staking_contract</title>
<path fill="none" stroke="black" d="M412.26,-302.72C364.38,-298.42 278.04,-286.2 213.09,-252 204.87,-247.67 167.99,-212.56 142.41,-187.76"/>
<polygon fill="black" stroke="black" points="144.92,-185.32 135.31,-180.86 140.04,-190.34 144.92,-185.32"/>
</g>
<!-- genesis&#45;&gt;reconfiguration -->
<g id="edge21" class="edge">
<title>genesis&#45;&gt;reconfiguration</title>
<path fill="none" stroke="black" d="M480.7,-297.46C504.23,-290.12 534.34,-276.4 549.09,-252 561.8,-230.99 546.62,-205.95 530.55,-187.79"/>
<polygon fill="black" stroke="black" points="533.16,-185.45 523.75,-180.58 528.07,-190.25 533.16,-185.45"/>
</g>
<!-- block -->
<g id="node7" class="node">
<title>block</title>
<ellipse fill="none" stroke="black" cx="286.09" cy="-234" rx="30.59" ry="18"/>
<text text-anchor="middle" x="286.09" y="-230.3" font-family="Times,serif" font-size="14.00">block</text>
</g>
<!-- genesis&#45;&gt;block -->
<g id="edge22" class="edge">
<title>genesis&#45;&gt;block</title>
<path fill="none" stroke="black" d="M421.21,-293.45C396.28,-282.74 358.16,-266.33 325.09,-252 323.57,-251.34 322.01,-250.66 320.44,-249.98"/>
<polygon fill="black" stroke="black" points="321.97,-246.83 311.4,-246.05 319.17,-253.25 321.97,-246.83"/>
</g>
<!-- vesting -->
<g id="node8" class="node">
<title>vesting</title>
<ellipse fill="none" stroke="black" cx="125.09" cy="-234" rx="36.29" ry="18"/>
<text text-anchor="middle" x="125.09" y="-230.3" font-family="Times,serif" font-size="14.00">vesting</text>
</g>
<!-- genesis&#45;&gt;vesting -->
<g id="edge23" class="edge">
<title>genesis&#45;&gt;vesting</title>
<path fill="none" stroke="black" d="M413.71,-299.86C361.61,-291.74 259.78,-274.51 175.09,-252 171.59,-251.07 167.98,-250.02 164.38,-248.91"/>
<polygon fill="black" stroke="black" points="165.74,-245.68 155.15,-245.94 163.59,-252.34 165.74,-245.68"/>
</g>
<!-- consensus_config -->
<g id="node10" class="node">
<title>consensus_config</title>
<ellipse fill="none" stroke="black" cx="669.09" cy="-234" rx="73.39" ry="18"/>
<text text-anchor="middle" x="669.09" y="-230.3" font-family="Times,serif" font-size="14.00">consensus_config</text>
</g>
<!-- genesis&#45;&gt;consensus_config -->
<g id="edge25" class="edge">
<title>genesis&#45;&gt;consensus_config</title>
<path fill="none" stroke="black" d="M477.9,-295.56C512.8,-284.51 571.31,-265.97 614.44,-252.31"/>
<polygon fill="black" stroke="black" points="615.4,-255.68 623.88,-249.32 613.29,-249.01 615.4,-255.68"/>
</g>
<!-- gas_schedule -->
<g id="node11" class="node">
<title>gas_schedule</title>
<ellipse fill="none" stroke="black" cx="392.09" cy="-234" rx="57.69" ry="18"/>
<text text-anchor="middle" x="392.09" y="-230.3" font-family="Times,serif" font-size="14.00">gas_schedule</text>
</g>
<!-- genesis&#45;&gt;gas_schedule -->
<g id="edge26" class="edge">
<title>genesis&#45;&gt;gas_schedule</title>
<path fill="none" stroke="black" d="M435.11,-288.76C428.42,-280.4 420.11,-270.02 412.58,-260.61"/>
<polygon fill="black" stroke="black" points="415.33,-258.44 406.35,-252.82 409.86,-262.81 415.33,-258.44"/>
</g>
<!-- version -->
<g id="node12" class="node">
<title>version</title>
<ellipse fill="none" stroke="black" cx="504.09" cy="-234" rx="36.29" ry="18"/>
<text text-anchor="middle" x="504.09" y="-230.3" font-family="Times,serif" font-size="14.00">version</text>
</g>
<!-- genesis&#45;&gt;version -->
<g id="edge27" class="edge">
<title>genesis&#45;&gt;version</title>
<path fill="none" stroke="black" d="M461.08,-288.76C467.94,-280.19 476.5,-269.49 484.17,-259.9"/>
<polygon fill="black" stroke="black" points="486.72,-262.32 490.23,-252.33 481.25,-257.95 486.72,-262.32"/>
</g>
<!-- reconfiguration&#45;&gt;stake -->
<g id="edge5" class="edge">
<title>reconfiguration&#45;&gt;stake</title>
<path fill="none" stroke="black" d="M461.09,-148.08C416.98,-134.83 349.11,-114.44 307.55,-101.95"/>
<polygon fill="black" stroke="black" points="308.6,-98.61 298.02,-99.09 306.59,-105.32 308.6,-98.61"/>
</g>
<!-- block&#45;&gt;stake -->
<g id="edge7" class="edge">
<title>block&#45;&gt;stake</title>
<path fill="none" stroke="black" d="M284.26,-215.59C281.72,-191.61 277.13,-148.14 274.1,-119.42"/>
<polygon fill="black" stroke="black" points="277.59,-119.19 273.06,-109.62 270.63,-119.93 277.59,-119.19"/>
</g>
<!-- block&#45;&gt;reconfiguration -->
<g id="edge17" class="edge">
<title>block&#45;&gt;reconfiguration</title>
<path fill="none" stroke="black" d="M309.83,-222.1C314.83,-219.96 320.1,-217.82 325.09,-216 365.21,-201.38 411.44,-187.77 446.87,-178.01"/>
<polygon fill="black" stroke="black" points="447.79,-181.38 456.51,-175.37 445.95,-174.63 447.79,-181.38"/>
</g>
<!-- vesting&#45;&gt;stake -->
<g id="edge9" class="edge">
<title>vesting&#45;&gt;stake</title>
<path fill="none" stroke="black" d="M145.93,-219.02C160.37,-208.91 179.68,-194.54 195.09,-180 216.37,-159.94 237.74,-134.31 252.38,-115.71"/>
<polygon fill="black" stroke="black" points="255.09,-117.93 258.46,-107.88 249.56,-113.63 255.09,-117.93"/>
</g>
<!-- vesting&#45;&gt;staking_contract -->
<g id="edge13" class="edge">
<title>vesting&#45;&gt;staking_contract</title>
<path fill="none" stroke="black" d="M123.12,-215.7C122.28,-208.41 121.29,-199.73 120.36,-191.54"/>
<polygon fill="black" stroke="black" points="123.83,-191.15 119.22,-181.61 116.88,-191.94 123.83,-191.15"/>
</g>
<!-- staking_proxy -->
<g id="node9" class="node">
<title>staking_proxy</title>
<ellipse fill="none" stroke="black" cx="61.09" cy="-306" rx="61.19" ry="18"/>
<text text-anchor="middle" x="61.09" y="-302.3" font-family="Times,serif" font-size="14.00">staking_proxy</text>
</g>
<!-- staking_proxy&#45;&gt;stake -->
<g id="edge11" class="edge">
<title>staking_proxy&#45;&gt;stake</title>
<path fill="none" stroke="black" d="M51.33,-287.78C34.59,-255.74 5.33,-186.35 39.09,-144 62.7,-114.4 171.42,-100.02 231.28,-94.23"/>
<polygon fill="black" stroke="black" points="231.42,-97.74 241.06,-93.33 230.78,-90.77 231.42,-97.74"/>
</g>
<!-- staking_proxy&#45;&gt;staking_contract -->
<g id="edge15" class="edge">
<title>staking_proxy&#45;&gt;staking_contract</title>
<path fill="none" stroke="black" d="M62.73,-287.65C64.94,-269.24 69.83,-239.62 80.09,-216 84.21,-206.53 90.14,-197.02 96.06,-188.73"/>
<polygon fill="black" stroke="black" points="98.78,-190.93 101.98,-180.83 93.18,-186.73 98.78,-190.93"/>
</g>
<!-- staking_proxy&#45;&gt;vesting -->
<g id="edge24" class="edge">
<title>staking_proxy&#45;&gt;vesting</title>
<path fill="none" stroke="black" d="M76.26,-288.41C84.3,-279.62 94.32,-268.66 103.18,-258.96"/>
<polygon fill="black" stroke="black" points="105.73,-261.37 109.89,-251.63 100.56,-256.65 105.73,-261.37"/>
</g>
<!-- consensus_config&#45;&gt;reconfiguration -->
<g id="edge18" class="edge">
<title>consensus_config&#45;&gt;reconfiguration</title>
<path fill="none" stroke="black" d="M633.7,-217.98C608.98,-207.5 575.78,-193.41 549.17,-182.12"/>
<polygon fill="black" stroke="black" points="550.55,-178.91 539.98,-178.22 547.82,-185.35 550.55,-178.91"/>
</g>
<!-- gas_schedule&#45;&gt;reconfiguration -->
<g id="edge19" class="edge">
<title>gas_schedule&#45;&gt;reconfiguration</title>
<path fill="none" stroke="black" d="M416.95,-217.46C432.25,-207.9 452.1,-195.5 468.99,-184.94"/>
<polygon fill="black" stroke="black" points="470.62,-188.05 477.25,-179.78 466.91,-182.11 470.62,-188.05"/>
</g>
<!-- version&#45;&gt;reconfiguration -->
<g id="edge20" class="edge">
<title>version&#45;&gt;reconfiguration</title>
<path fill="none" stroke="black" d="M504.09,-215.7C504.09,-208.41 504.09,-199.73 504.09,-191.54"/>
<polygon fill="black" stroke="black" points="507.59,-191.62 504.09,-181.62 500.59,-191.62 507.59,-191.62"/>
</g>
</g>
</svg>
