<?xml version="1.0" encoding="UTF-8" standalone="no"?>
<!DOCTYPE svg PUBLIC "-//W3C//DTD SVG 1.1//EN"
 "http://www.w3.org/Graphics/SVG/1.1/DTD/svg11.dtd">
<!-- Generated by graphviz version 7.0.0 (20221023.0053)
 -->
<!-- Title: G Pages: 1 -->
<svg width="692pt" height="673pt"
 viewBox="0.00 0.00 692.00 673.00" xmlns="http://www.w3.org/2000/svg" xmlns:xlink="http://www.w3.org/1999/xlink">
<g id="graph0" class="graph" transform="scale(1 1) rotate(0) translate(4 669)">
<title>G</title>
<polygon fill="white" stroke="none" points="-4,4 -4,-669 688,-669 688,4 -4,4"/>
<g id="clust1" class="cluster">
<title>cluster_staking_contract</title>
<polygon fill="none" stroke="black" points="228,-136 228,-355 518,-355 518,-136 228,-136"/>
<text text-anchor="middle" x="373" y="-339.8" font-family="Times,serif" font-size="14.00">staking_contract</text>
</g>
<g id="clust2" class="cluster">
<title>cluster_genesis</title>
<polygon fill="none" stroke="black" points="8,-363 8,-657 464,-657 464,-363 8,-363"/>
<text text-anchor="middle" x="236" y="-641.8" font-family="Times,serif" font-size="14.00">genesis</text>
</g>
<g id="clust3" class="cluster">
<title>cluster_vesting</title>
<polygon fill="none" stroke="black" points="472,-507 472,-582 676,-582 676,-507 472,-507"/>
<text text-anchor="middle" x="574" y="-566.8" font-family="Times,serif" font-size="14.00">vesting</text>
</g>
<!-- add_stake -->
<g id="node1" class="node">
<title>add_stake</title>
<ellipse fill="none" stroke="black" cx="274" cy="-18" rx="46.29" ry="18"/>
<text text-anchor="middle" x="274" y="-14.3" font-family="Times,serif" font-size="14.00">add_stake</text>
</g>
<!-- initialize_stake_owner -->
<g id="node2" class="node">
<title>initialize_stake_owner</title>
<ellipse fill="none" stroke="black" cx="274" cy="-90" rx="90.18" ry="18"/>
<text text-anchor="middle" x="274" y="-86.3" font-family="Times,serif" font-size="14.00">initialize_stake_owner</text>
</g>
<!-- initialize_stake_owner&#45;&gt;add_stake -->
<g id="edge1" class="edge">
<title>initialize_stake_owner&#45;&gt;add_stake</title>
<path fill="none" stroke="black" d="M274,-71.7C274,-64.41 274,-55.73 274,-47.54"/>
<polygon fill="black" stroke="black" points="277.5,-47.62 274,-37.62 270.5,-47.62 277.5,-47.62"/>
</g>
<!-- staking_contract::create_stake_pool -->
<g id="node3" class="node">
<title>staking_contract::create_stake_pool</title>
<ellipse fill="none" stroke="black" cx="341" cy="-162" rx="74.19" ry="18"/>
<text text-anchor="middle" x="341" y="-158.3" font-family="Times,serif" font-size="14.00">create_stake_pool</text>
</g>
<!-- staking_contract::create_stake_pool&#45;&gt;initialize_stake_owner -->
<g id="edge2" class="edge">
<title>staking_contract::create_stake_pool&#45;&gt;initialize_stake_owner</title>
<path fill="none" stroke="black" d="M324.78,-144.05C316.72,-135.63 306.81,-125.28 297.9,-115.97"/>
<polygon fill="black" stroke="black" points="300.56,-113.69 291.12,-108.88 295.5,-118.53 300.56,-113.69"/>
</g>
<!-- genesis::create_initialize_validator -->
<g id="node4" class="node">
<title>genesis::create_initialize_validator</title>
<ellipse fill="none" stroke="black" cx="208" cy="-389" rx="102.88" ry="18"/>
<text text-anchor="middle" x="208" y="-385.3" font-family="Times,serif" font-size="14.00">create_initialize_validator</text>
</g>
<!-- genesis::create_initialize_validator&#45;&gt;initialize_stake_owner -->
<g id="edge3" class="edge">
<title>genesis::create_initialize_validator&#45;&gt;initialize_stake_owner</title>
<path fill="none" stroke="black" d="M204.84,-370.68C197.95,-328.18 185.14,-216.3 224,-136 227.83,-128.09 233.72,-120.94 240.14,-114.79"/>
<polygon fill="black" stroke="black" points="242.06,-117.76 247.29,-108.55 237.46,-112.49 242.06,-117.76"/>
</g>
<!-- staking_contract::create_staking_contract -->
<g id="node7" class="node">
<title>staking_contract::create_staking_contract</title>
<ellipse fill="none" stroke="black" cx="347" cy="-306" rx="94.48" ry="18"/>
<text text-anchor="middle" x="347" y="-302.3" font-family="Times,serif" font-size="14.00">create_staking_contract</text>
</g>
<!-- genesis::create_initialize_validator&#45;&gt;staking_contract::create_staking_contract -->
<g id="edge9" class="edge">
<title>genesis::create_initialize_validator&#45;&gt;staking_contract::create_staking_contract</title>
<path fill="none" stroke="black" d="M236.46,-371.41C257.36,-359.24 285.96,-342.57 308.84,-329.24"/>
<polygon fill="black" stroke="black" points="310.39,-332.39 317.27,-324.33 306.86,-326.34 310.39,-332.39"/>
</g>
<!-- staking_contract::create_staking_contract_with_coins -->
<g id="node5" class="node">
<title>staking_contract::create_staking_contract_with_coins</title>
<ellipse fill="none" stroke="black" cx="373" cy="-234" rx="137.28" ry="18"/>
<text text-anchor="middle" x="373" y="-230.3" font-family="Times,serif" font-size="14.00">create_staking_contract_with_coins</text>
</g>
<!-- staking_contract::create_staking_contract_with_coins&#45;&gt;staking_contract::create_stake_pool -->
<g id="edge4" class="edge">
<title>staking_contract::create_staking_contract_with_coins&#45;&gt;staking_contract::create_stake_pool</title>
<path fill="none" stroke="black" d="M365.09,-215.7C361.6,-208.07 357.42,-198.92 353.52,-190.4"/>
<polygon fill="black" stroke="black" points="356.79,-189.12 349.45,-181.48 350.42,-192.03 356.79,-189.12"/>
</g>
<!-- genesis::create_initialize_validators_with_commission -->
<g id="node6" class="node">
<title>genesis::create_initialize_validators_with_commission</title>
<ellipse fill="none" stroke="black" cx="199" cy="-461" rx="173.57" ry="18"/>
<text text-anchor="middle" x="199" y="-457.3" font-family="Times,serif" font-size="14.00">create_initialize_validators_with_commission</text>
</g>
<!-- genesis::create_initialize_validators_with_commission&#45;&gt;genesis::create_initialize_validator -->
<g id="edge5" class="edge">
<title>genesis::create_initialize_validators_with_commission&#45;&gt;genesis::create_initialize_validator</title>
<path fill="none" stroke="black" d="M201.22,-442.7C202.17,-435.32 203.3,-426.52 204.37,-418.25"/>
<polygon fill="black" stroke="black" points="207.8,-418.97 205.61,-408.61 200.86,-418.08 207.8,-418.97"/>
</g>
<!-- staking_contract::create_staking_contract&#45;&gt;staking_contract::create_staking_contract_with_coins -->
<g id="edge6" class="edge">
<title>staking_contract::create_staking_contract&#45;&gt;staking_contract::create_staking_contract_with_coins</title>
<path fill="none" stroke="black" d="M353.43,-287.7C356.23,-280.15 359.58,-271.12 362.72,-262.68"/>
<polygon fill="black" stroke="black" points="365.92,-264.12 366.12,-253.52 359.36,-261.68 365.92,-264.12"/>
</g>
<!-- vesting::create_vesting_contract -->
<g id="node8" class="node">
<title>vesting::create_vesting_contract</title>
<ellipse fill="none" stroke="black" cx="574" cy="-533" rx="94.48" ry="18"/>
<text text-anchor="middle" x="574" y="-529.3" font-family="Times,serif" font-size="14.00">create_vesting_contract</text>
</g>
<!-- vesting::create_vesting_contract&#45;&gt;staking_contract::create_staking_contract_with_coins -->
<g id="edge7" class="edge">
<title>vesting::create_vesting_contract&#45;&gt;staking_contract::create_staking_contract_with_coins</title>
<path fill="none" stroke="black" d="M568.53,-514.6C554.48,-472.03 513.69,-360.76 450,-288 439.86,-276.42 426.67,-266.15 414.08,-257.8"/>
<polygon fill="black" stroke="black" points="416.22,-255.02 405.9,-252.62 412.47,-260.93 416.22,-255.02"/>
</g>
<!-- genesis::create_initialize_validators -->
<g id="node9" class="node">
<title>genesis::create_initialize_validators</title>
<ellipse fill="none" stroke="black" cx="180" cy="-533" rx="105.88" ry="18"/>
<text text-anchor="middle" x="180" y="-529.3" font-family="Times,serif" font-size="14.00">create_initialize_validators</text>
</g>
<!-- genesis::create_initialize_validators&#45;&gt;genesis::create_initialize_validators_with_commission -->
<g id="edge8" class="edge">
<title>genesis::create_initialize_validators&#45;&gt;genesis::create_initialize_validators_with_commission</title>
<path fill="none" stroke="black" d="M184.7,-514.7C186.72,-507.24 189.14,-498.32 191.41,-489.97"/>
<polygon fill="black" stroke="black" points="194.72,-491.13 193.96,-480.57 187.96,-489.3 194.72,-491.13"/>
</g>
<!-- genesis::create_employee_validators -->
<g id="node10" class="node">
<title>genesis::create_employee_validators</title>
<ellipse fill="none" stroke="black" cx="346" cy="-608" rx="109.68" ry="18"/>
<text text-anchor="middle" x="346" y="-604.3" font-family="Times,serif" font-size="14.00">create_employee_validators</text>
</g>
<!-- genesis::create_employee_validators&#45;&gt;vesting::create_vesting_contract -->
<g id="edge10" class="edge">
<title>genesis::create_employee_validators&#45;&gt;vesting::create_vesting_contract</title>
<path fill="none" stroke="black" d="M420.56,-594.47C436.39,-591.05 452.88,-586.9 468,-582 489.89,-574.9 513.28,-564.62 532.51,-555.39"/>
<polygon fill="black" stroke="black" points="533.92,-558.59 541.37,-551.06 530.85,-552.3 533.92,-558.59"/>
</g>
<!-- genesis::initialize_for_verification -->
<g id="node11" class="node">
<title>genesis::initialize_for_verification</title>
<ellipse fill="none" stroke="black" cx="117" cy="-608" rx="100.98" ry="18"/>
<text text-anchor="middle" x="117" y="-604.3" font-family="Times,serif" font-size="14.00">initialize_for_verification</text>
</g>
<!-- genesis::initialize_for_verification&#45;&gt;genesis::create_initialize_validators -->
<g id="edge11" class="edge">
<title>genesis::initialize_for_verification&#45;&gt;genesis::create_initialize_validators</title>
<path fill="none" stroke="black" d="M131.61,-590.07C139.43,-581.01 149.21,-569.67 157.93,-559.57"/>
<polygon fill="black" stroke="black" points="160.38,-562.1 164.26,-552.24 155.08,-557.52 160.38,-562.1"/>
</g>
</g>
</svg>
