<?xml version="1.0" encoding="UTF-8" standalone="no"?>
<!DOCTYPE svg PUBLIC "-//W3C//DTD SVG 1.1//EN"
 "http://www.w3.org/Graphics/SVG/1.1/DTD/svg11.dtd">
<!-- Generated by graphviz version 7.0.0 (20221023.0053)
 -->
<!-- Title: G Pages: 1 -->
<svg width="2087pt" height="542pt"
 viewBox="0.00 0.00 2087.00 542.00" xmlns="http://www.w3.org/2000/svg" xmlns:xlink="http://www.w3.org/1999/xlink">
<g id="graph0" class="graph" transform="scale(1 1) rotate(0) translate(4 538)">
<title>G</title>
<polygon fill="white" stroke="none" points="-4,4 -4,-538 2083,-538 2083,4 -4,4"/>
<g id="clust1" class="cluster">
<title>cluster_signer</title>
<polygon fill="none" stroke="black" points="8,-340 8,-490 158,-490 158,-340 8,-340"/>
<text text-anchor="middle" x="83" y="-474.8" font-family="Times,serif" font-size="14.00">signer</text>
</g>
<g id="clust2" class="cluster">
<title>cluster_event</title>
<polygon fill="none" stroke="black" points="166,-257 166,-415 352,-415 352,-257 166,-257"/>
<text text-anchor="middle" x="259" y="-399.8" font-family="Times,serif" font-size="14.00">event</text>
</g>
<g id="clust3" class="cluster">
<title>cluster_simple_map</title>
<polygon fill="none" stroke="black" points="1394,-257 1394,-415 1652,-415 1652,-257 1394,-257"/>
<text text-anchor="middle" x="1523" y="-399.8" font-family="Times,serif" font-size="14.00">simple_map</text>
</g>
<g id="clust4" class="cluster">
<title>cluster_stake</title>
<polygon fill="none" stroke="black" points="878,-257 878,-490 1104,-490 1104,-257 878,-257"/>
<text text-anchor="middle" x="991" y="-474.8" font-family="Times,serif" font-size="14.00">stake</text>
</g>
<g id="clust5" class="cluster">
<title>cluster_bcs</title>
<polygon fill="none" stroke="black" points="1715,-91 1715,-166 1811,-166 1811,-91 1715,-91"/>
<text text-anchor="middle" x="1763" y="-150.8" font-family="Times,serif" font-size="14.00">bcs</text>
</g>
<g id="clust6" class="cluster">
<title>cluster_option</title>
<polygon fill="none" stroke="black" points="1471,-91 1471,-249 1707,-249 1707,-91 1471,-91"/>
<text text-anchor="middle" x="1589" y="-233.8" font-family="Times,serif" font-size="14.00">option</text>
</g>
<g id="clust7" class="cluster">
<title>cluster_error</title>
<polygon fill="none" stroke="black" points="1112,-174 1112,-332 1386,-332 1386,-174 1112,-174"/>
<text text-anchor="middle" x="1249" y="-316.8" font-family="Times,serif" font-size="14.00">error</text>
</g>
<g id="clust8" class="cluster">
<title>cluster_timestamp</title>
<polygon fill="none" stroke="black" points="360,-257 360,-415 534,-415 534,-257 360,-257"/>
<text text-anchor="middle" x="447" y="-399.8" font-family="Times,serif" font-size="14.00">timestamp</text>
</g>
<g id="clust9" class="cluster">
<title>cluster_staking_config</title>
<polygon fill="none" stroke="black" points="542,-340 542,-415 870,-415 870,-340 542,-340"/>
<text text-anchor="middle" x="706" y="-399.8" font-family="Times,serif" font-size="14.00">staking_config</text>
</g>
<g id="clust10" class="cluster">
<title>cluster_vector</title>
<polygon fill="none" stroke="black" points="1478,-8 1478,-83 1685,-83 1685,-8 1478,-8"/>
<text text-anchor="middle" x="1581.5" y="-67.8" font-family="Times,serif" font-size="14.00">vector</text>
</g>
<g id="clust11" class="cluster">
<title>cluster_comparator</title>
<polygon fill="none" stroke="black" points="1819,-91 1819,-249 2071,-249 2071,-91 1819,-91"/>
<text text-anchor="middle" x="1945" y="-233.8" font-family="Times,serif" font-size="14.00">comparator</text>
</g>
<!-- reset_lockup -->
<g id="node1" class="node">
<title>reset_lockup</title>
<ellipse fill="none" stroke="black" cx="991" cy="-516" rx="55.79" ry="18"/>
<text text-anchor="middle" x="991" y="-512.3" font-family="Times,serif" font-size="14.00">reset_lockup</text>
</g>
<!-- signer::address_of -->
<g id="node2" class="node">
<title>signer::address_of</title>
<ellipse fill="none" stroke="black" cx="92" cy="-441" rx="48.99" ry="18"/>
<text text-anchor="middle" x="92" y="-437.3" font-family="Times,serif" font-size="14.00">address_of</text>
</g>
<!-- reset_lockup&#45;&gt;signer::address_of -->
<g id="edge1" class="edge">
<title>reset_lockup&#45;&gt;signer::address_of</title>
<path fill="none" stroke="black" d="M935.97,-512.69C852.92,-509.01 690.6,-501.08 553,-490 407.35,-478.27 236.36,-459.03 149.28,-448.83"/>
<polygon fill="black" stroke="black" points="149.91,-445.38 139.57,-447.69 149.09,-452.34 149.91,-445.38"/>
</g>
<!-- event::emit_event -->
<g id="node3" class="node">
<title>event::emit_event</title>
<ellipse fill="none" stroke="black" cx="276" cy="-366" rx="50.09" ry="18"/>
<text text-anchor="middle" x="276" y="-362.3" font-family="Times,serif" font-size="14.00">emit_event</text>
</g>
<!-- reset_lockup&#45;&gt;event::emit_event -->
<g id="edge2" class="edge">
<title>reset_lockup&#45;&gt;event::emit_event</title>
<path fill="none" stroke="black" d="M935.3,-513.34C822.59,-508.47 560.82,-489.37 356,-415 338.56,-408.67 320.71,-398.39 306.3,-388.97"/>
<polygon fill="black" stroke="black" points="308.43,-386.18 298.19,-383.48 304.51,-391.98 308.43,-386.18"/>
</g>
<!-- simple_map::borrow_mut -->
<g id="node4" class="node">
<title>simple_map::borrow_mut</title>
<ellipse fill="none" stroke="black" cx="1457" cy="-366" rx="54.69" ry="18"/>
<text text-anchor="middle" x="1457" y="-362.3" font-family="Times,serif" font-size="14.00">borrow_mut</text>
</g>
<!-- reset_lockup&#45;&gt;simple_map::borrow_mut -->
<g id="edge3" class="edge">
<title>reset_lockup&#45;&gt;simple_map::borrow_mut</title>
<path fill="none" stroke="black" d="M1047.2,-515.73C1160.86,-516.66 1409.68,-515.69 1438,-490 1463.77,-466.63 1464.64,-424 1461.74,-395.59"/>
<polygon fill="black" stroke="black" points="1465.24,-395.36 1460.51,-385.88 1458.29,-396.24 1465.24,-395.36"/>
</g>
<!-- stake::increase_lockup_with_cap -->
<g id="node5" class="node">
<title>stake::increase_lockup_with_cap</title>
<ellipse fill="none" stroke="black" cx="991" cy="-441" rx="104.78" ry="18"/>
<text text-anchor="middle" x="991" y="-437.3" font-family="Times,serif" font-size="14.00">increase_lockup_with_cap</text>
</g>
<!-- reset_lockup&#45;&gt;stake::increase_lockup_with_cap -->
<g id="edge4" class="edge">
<title>reset_lockup&#45;&gt;stake::increase_lockup_with_cap</title>
<path fill="none" stroke="black" d="M991,-497.7C991,-489.67 991,-479.9 991,-470.8"/>
<polygon fill="black" stroke="black" points="994.5,-470.94 991,-460.94 987.5,-470.94 994.5,-470.94"/>
</g>
<!-- assert_staking_contract_exists -->
<g id="node6" class="node">
<title>assert_staking_contract_exists</title>
<ellipse fill="none" stroke="black" cx="1311" cy="-441" rx="117.78" ry="18"/>
<text text-anchor="middle" x="1311" y="-437.3" font-family="Times,serif" font-size="14.00">assert_staking_contract_exists</text>
</g>
<!-- reset_lockup&#45;&gt;assert_staking_contract_exists -->
<g id="edge5" class="edge">
<title>reset_lockup&#45;&gt;assert_staking_contract_exists</title>
<path fill="none" stroke="black" d="M1036.89,-505.43C1058.49,-500.87 1084.59,-495.27 1108,-490 1151.57,-480.19 1200.28,-468.7 1239.05,-459.41"/>
<polygon fill="black" stroke="black" points="1239.85,-462.82 1248.76,-457.09 1238.22,-456.01 1239.85,-462.82"/>
</g>
<!-- signer::borrow_address -->
<g id="node7" class="node">
<title>signer::borrow_address</title>
<ellipse fill="none" stroke="black" cx="83" cy="-366" rx="66.89" ry="18"/>
<text text-anchor="middle" x="83" y="-362.3" font-family="Times,serif" font-size="14.00">borrow_address</text>
</g>
<!-- signer::address_of&#45;&gt;signer::borrow_address -->
<g id="edge6" class="edge">
<title>signer::address_of&#45;&gt;signer::borrow_address</title>
<path fill="none" stroke="black" d="M89.87,-422.7C88.88,-414.67 87.67,-404.9 86.55,-395.8"/>
<polygon fill="black" stroke="black" points="90.03,-395.43 85.33,-385.93 83.08,-396.28 90.03,-395.43"/>
</g>
<!-- bcs::to_bytes -->
<g id="node8" class="node">
<title>bcs::to_bytes</title>
<ellipse fill="none" stroke="black" cx="1763" cy="-117" rx="40.09" ry="18"/>
<text text-anchor="middle" x="1763" y="-113.3" font-family="Times,serif" font-size="14.00">to_bytes</text>
</g>
<!-- event::emit_event&#45;&gt;bcs::to_bytes -->
<g id="edge7" class="edge">
<title>event::emit_event&#45;&gt;bcs::to_bytes</title>
<path fill="none" stroke="black" d="M226.09,-363.1C203.67,-359.44 179.12,-350.93 165,-332 145.07,-305.28 142.49,-281.58 165,-257 236.04,-179.43 1002.95,-179.31 1108,-174 1124.73,-173.15 1695.44,-172.2 1711,-166 1723.28,-161.1 1734.43,-151.84 1743.22,-142.75"/>
<polygon fill="black" stroke="black" points="1745.78,-145.13 1749.88,-135.36 1740.58,-140.45 1745.78,-145.13"/>
</g>
<!-- event::write_to_event_store -->
<g id="node9" class="node">
<title>event::write_to_event_store</title>
<ellipse fill="none" stroke="black" cx="259" cy="-283" rx="85.29" ry="18"/>
<text text-anchor="middle" x="259" y="-279.3" font-family="Times,serif" font-size="14.00">write_to_event_store</text>
</g>
<!-- event::emit_event&#45;&gt;event::write_to_event_store -->
<g id="edge8" class="edge">
<title>event::emit_event&#45;&gt;event::write_to_event_store</title>
<path fill="none" stroke="black" d="M272.39,-347.82C270.25,-337.58 267.46,-324.33 264.99,-312.55"/>
<polygon fill="black" stroke="black" points="268.45,-311.98 262.97,-302.91 261.6,-313.42 268.45,-311.98"/>
</g>
<!-- option::extract -->
<g id="node10" class="node">
<title>option::extract</title>
<ellipse fill="none" stroke="black" cx="1513" cy="-200" rx="34.39" ry="18"/>
<text text-anchor="middle" x="1513" y="-196.3" font-family="Times,serif" font-size="14.00">extract</text>
</g>
<!-- simple_map::borrow_mut&#45;&gt;option::extract -->
<g id="edge9" class="edge">
<title>simple_map::borrow_mut&#45;&gt;option::extract</title>
<path fill="none" stroke="black" d="M1462.89,-347.76C1472.58,-319.39 1491.96,-262.62 1503.58,-228.6"/>
<polygon fill="black" stroke="black" points="1506.78,-230.04 1506.7,-219.44 1500.16,-227.77 1506.78,-230.04"/>
</g>
<!-- option::is_some -->
<g id="node11" class="node">
<title>option::is_some</title>
<ellipse fill="none" stroke="black" cx="1519" cy="-117" rx="40.09" ry="18"/>
<text text-anchor="middle" x="1519" y="-113.3" font-family="Times,serif" font-size="14.00">is_some</text>
</g>
<!-- simple_map::borrow_mut&#45;&gt;option::is_some -->
<g id="edge10" class="edge">
<title>simple_map::borrow_mut&#45;&gt;option::is_some</title>
<path fill="none" stroke="black" d="M1449.08,-347.7C1434.28,-312.63 1406.57,-231.64 1437,-174 1446.13,-156.7 1463.28,-143.74 1479.54,-134.67"/>
<polygon fill="black" stroke="black" points="1480.86,-137.92 1488.12,-130.21 1477.63,-131.71 1480.86,-137.92"/>
</g>
<!-- error::invalid_argument -->
<g id="node12" class="node">
<title>error::invalid_argument</title>
<ellipse fill="none" stroke="black" cx="1193" cy="-283" rx="73.39" ry="18"/>
<text text-anchor="middle" x="1193" y="-279.3" font-family="Times,serif" font-size="14.00">invalid_argument</text>
</g>
<!-- simple_map::borrow_mut&#45;&gt;error::invalid_argument -->
<g id="edge11" class="edge">
<title>simple_map::borrow_mut&#45;&gt;error::invalid_argument</title>
<path fill="none" stroke="black" d="M1404.73,-360.43C1367.64,-356.01 1317.16,-347.6 1275,-332 1257.78,-325.63 1240.03,-315.72 1225.47,-306.56"/>
<polygon fill="black" stroke="black" points="1227.51,-303.71 1217.21,-301.21 1223.7,-309.59 1227.51,-303.71"/>
</g>
<!-- simple_map::find -->
<g id="node13" class="node">
<title>simple_map::find</title>
<ellipse fill="none" stroke="black" cx="1593" cy="-283" rx="27" ry="18"/>
<text text-anchor="middle" x="1593" y="-279.3" font-family="Times,serif" font-size="14.00">find</text>
</g>
<!-- simple_map::borrow_mut&#45;&gt;simple_map::find -->
<g id="edge12" class="edge">
<title>simple_map::borrow_mut&#45;&gt;simple_map::find</title>
<path fill="none" stroke="black" d="M1482.58,-349.76C1505.61,-336.05 1539.44,-315.9 1563.58,-301.52"/>
<polygon fill="black" stroke="black" points="1565.17,-304.65 1571.97,-296.53 1561.58,-298.64 1565.17,-304.65"/>
</g>
<!-- stake::increase_lockup_with_cap&#45;&gt;event::emit_event -->
<g id="edge14" class="edge">
<title>stake::increase_lockup_with_cap&#45;&gt;event::emit_event</title>
<path fill="none" stroke="black" d="M890.33,-435.66C807.34,-432.12 686.54,-427.06 581,-423 556,-422.04 379.99,-422.1 356,-415 337.96,-409.66 319.81,-399.27 305.38,-389.53"/>
<polygon fill="black" stroke="black" points="307.45,-386.71 297.26,-383.83 303.43,-392.44 307.45,-386.71"/>
</g>
<!-- stake::increase_lockup_with_cap&#45;&gt;error::invalid_argument -->
<g id="edge13" class="edge">
<title>stake::increase_lockup_with_cap&#45;&gt;error::invalid_argument</title>
<path fill="none" stroke="black" d="M1071.41,-429.07C1081.88,-425.58 1092.06,-421 1101,-415 1139.43,-389.21 1166.8,-341.53 1181.23,-311.36"/>
<polygon fill="black" stroke="black" points="1184.31,-313.03 1185.32,-302.48 1177.96,-310.1 1184.31,-313.03"/>
</g>
<!-- timestamp::now_seconds -->
<g id="node14" class="node">
<title>timestamp::now_seconds</title>
<ellipse fill="none" stroke="black" cx="457" cy="-366" rx="57.69" ry="18"/>
<text text-anchor="middle" x="457" y="-362.3" font-family="Times,serif" font-size="14.00">now_seconds</text>
</g>
<!-- stake::increase_lockup_with_cap&#45;&gt;timestamp::now_seconds -->
<g id="edge15" class="edge">
<title>stake::increase_lockup_with_cap&#45;&gt;timestamp::now_seconds</title>
<path fill="none" stroke="black" d="M888.5,-436.92C765.16,-432.81 570.52,-424.88 538,-415 519.96,-409.52 501.72,-399.23 487.14,-389.57"/>
<polygon fill="black" stroke="black" points="489.14,-386.7 478.92,-383.92 485.17,-392.47 489.14,-386.7"/>
</g>
<!-- staking_config::get -->
<g id="node15" class="node">
<title>staking_config::get</title>
<ellipse fill="none" stroke="black" cx="835" cy="-366" rx="27" ry="18"/>
<text text-anchor="middle" x="835" y="-362.3" font-family="Times,serif" font-size="14.00">get</text>
</g>
<!-- stake::increase_lockup_with_cap&#45;&gt;staking_config::get -->
<g id="edge16" class="edge">
<title>stake::increase_lockup_with_cap&#45;&gt;staking_config::get</title>
<path fill="none" stroke="black" d="M908.04,-429.65C896.1,-426.1 884.36,-421.35 874,-415 864.92,-409.44 857.02,-400.98 850.75,-392.71"/>
<polygon fill="black" stroke="black" points="853.62,-390.7 845.03,-384.5 847.88,-394.71 853.62,-390.7"/>
</g>
<!-- staking_config::get_recurring_lockup_duration -->
<g id="node16" class="node">
<title>staking_config::get_recurring_lockup_duration</title>
<ellipse fill="none" stroke="black" cx="670" cy="-366" rx="120.48" ry="18"/>
<text text-anchor="middle" x="670" y="-362.3" font-family="Times,serif" font-size="14.00">get_recurring_lockup_duration</text>
</g>
<!-- stake::increase_lockup_with_cap&#45;&gt;staking_config::get_recurring_lockup_duration -->
<g id="edge17" class="edge">
<title>stake::increase_lockup_with_cap&#45;&gt;staking_config::get_recurring_lockup_duration</title>
<path fill="none" stroke="black" d="M898.41,-432.24C866.61,-428.44 830.98,-422.92 799,-415 771.54,-408.2 741.9,-397.42 717.96,-387.81"/>
<polygon fill="black" stroke="black" points="719.37,-384.6 708.79,-384.06 716.72,-391.08 719.37,-384.6"/>
</g>
<!-- stake::assert_stake_pool_exists -->
<g id="node17" class="node">
<title>stake::assert_stake_pool_exists</title>
<ellipse fill="none" stroke="black" cx="995" cy="-366" rx="97.48" ry="18"/>
<text text-anchor="middle" x="995" y="-362.3" font-family="Times,serif" font-size="14.00">assert_stake_pool_exists</text>
</g>
<!-- stake::increase_lockup_with_cap&#45;&gt;stake::assert_stake_pool_exists -->
<g id="edge18" class="edge">
<title>stake::increase_lockup_with_cap&#45;&gt;stake::assert_stake_pool_exists</title>
<path fill="none" stroke="black" d="M991.95,-422.7C992.39,-414.67 992.92,-404.9 993.42,-395.8"/>
<polygon fill="black" stroke="black" points="996.91,-396.12 993.96,-385.94 989.92,-395.73 996.91,-396.12"/>
</g>
<!-- error::not_found -->
<g id="node18" class="node">
<title>error::not_found</title>
<ellipse fill="none" stroke="black" cx="1331" cy="-283" rx="46.59" ry="18"/>
<text text-anchor="middle" x="1331" y="-279.3" font-family="Times,serif" font-size="14.00">not_found</text>
</g>
<!-- assert_staking_contract_exists&#45;&gt;error::not_found -->
<g id="edge19" class="edge">
<title>assert_staking_contract_exists&#45;&gt;error::not_found</title>
<path fill="none" stroke="black" d="M1313.22,-422.71C1316.63,-396.12 1323.19,-344.9 1327.32,-312.69"/>
<polygon fill="black" stroke="black" points="1330.78,-313.23 1328.58,-302.87 1323.84,-312.34 1330.78,-313.23"/>
</g>
<!-- simple_map::contains_key -->
<g id="node19" class="node">
<title>simple_map::contains_key</title>
<ellipse fill="none" stroke="black" cx="1587" cy="-366" rx="57.39" ry="18"/>
<text text-anchor="middle" x="1587" y="-362.3" font-family="Times,serif" font-size="14.00">contains_key</text>
</g>
<!-- assert_staking_contract_exists&#45;&gt;simple_map::contains_key -->
<g id="edge20" class="edge">
<title>assert_staking_contract_exists&#45;&gt;simple_map::contains_key</title>
<path fill="none" stroke="black" d="M1415.73,-432.45C1458.12,-428.38 1501.6,-422.61 1521,-415 1535.47,-409.33 1549.65,-399.71 1561.14,-390.56"/>
<polygon fill="black" stroke="black" points="1563.12,-393.46 1568.57,-384.38 1558.64,-388.08 1563.12,-393.46"/>
</g>
<!-- option::extract&#45;&gt;option::is_some -->
<g id="edge21" class="edge">
<title>option::extract&#45;&gt;option::is_some</title>
<path fill="none" stroke="black" d="M1514.27,-181.82C1515.03,-171.58 1516.01,-158.33 1516.89,-146.55"/>
<polygon fill="black" stroke="black" points="1520.35,-147.17 1517.6,-136.94 1513.37,-146.66 1520.35,-147.17"/>
</g>
<!-- vector::is_empty -->
<g id="node20" class="node">
<title>vector::is_empty</title>
<ellipse fill="none" stroke="black" cx="1530" cy="-34" rx="43.59" ry="18"/>
<text text-anchor="middle" x="1530" y="-30.3" font-family="Times,serif" font-size="14.00">is_empty</text>
</g>
<!-- option::is_some&#45;&gt;vector::is_empty -->
<g id="edge22" class="edge">
<title>option::is_some&#45;&gt;vector::is_empty</title>
<path fill="none" stroke="black" d="M1521.33,-98.82C1522.72,-88.58 1524.52,-75.33 1526.12,-63.55"/>
<polygon fill="black" stroke="black" points="1529.55,-64.31 1527.43,-53.93 1522.62,-63.37 1529.55,-64.31"/>
</g>
<!-- error::canonical -->
<g id="node21" class="node">
<title>error::canonical</title>
<ellipse fill="none" stroke="black" cx="1262" cy="-200" rx="44.39" ry="18"/>
<text text-anchor="middle" x="1262" y="-196.3" font-family="Times,serif" font-size="14.00">canonical</text>
</g>
<!-- error::invalid_argument&#45;&gt;error::canonical -->
<g id="edge23" class="edge">
<title>error::invalid_argument&#45;&gt;error::canonical</title>
<path fill="none" stroke="black" d="M1207.3,-265.22C1216.89,-253.96 1229.7,-238.92 1240.51,-226.22"/>
<polygon fill="black" stroke="black" points="1243.16,-228.52 1246.98,-218.64 1237.83,-223.98 1243.16,-228.52"/>
</g>
<!-- option::none -->
<g id="node22" class="node">
<title>option::none</title>
<ellipse fill="none" stroke="black" cx="1593" cy="-200" rx="27.9" ry="18"/>
<text text-anchor="middle" x="1593" y="-196.3" font-family="Times,serif" font-size="14.00">none</text>
</g>
<!-- simple_map::find&#45;&gt;option::none -->
<g id="edge24" class="edge">
<title>simple_map::find&#45;&gt;option::none</title>
<path fill="none" stroke="black" d="M1593,-264.82C1593,-254.69 1593,-241.6 1593,-229.92"/>
<polygon fill="black" stroke="black" points="1596.5,-229.95 1593,-219.95 1589.5,-229.95 1596.5,-229.95"/>
</g>
<!-- option::some -->
<g id="node23" class="node">
<title>option::some</title>
<ellipse fill="none" stroke="black" cx="1669" cy="-200" rx="29.8" ry="18"/>
<text text-anchor="middle" x="1669" y="-196.3" font-family="Times,serif" font-size="14.00">some</text>
</g>
<!-- simple_map::find&#45;&gt;option::some -->
<g id="edge25" class="edge">
<title>simple_map::find&#45;&gt;option::some</title>
<path fill="none" stroke="black" d="M1609.36,-268.4C1615.99,-262.65 1623.58,-255.72 1630,-249 1636.96,-241.71 1644.06,-233.32 1650.26,-225.61"/>
<polygon fill="black" stroke="black" points="1652.93,-227.87 1656.37,-217.85 1647.43,-223.54 1652.93,-227.87"/>
</g>
<!-- comparator::compare -->
<g id="node24" class="node">
<title>comparator::compare</title>
<ellipse fill="none" stroke="black" cx="2021" cy="-200" rx="41.69" ry="18"/>
<text text-anchor="middle" x="2021" y="-196.3" font-family="Times,serif" font-size="14.00">compare</text>
</g>
<!-- simple_map::find&#45;&gt;comparator::compare -->
<g id="edge26" class="edge">
<title>simple_map::find&#45;&gt;comparator::compare</title>
<path fill="none" stroke="black" d="M1620.39,-281.91C1696.22,-281.29 1907.42,-277.04 1970,-249 1981.77,-243.73 1992.55,-234.58 2001.13,-225.68"/>
<polygon fill="black" stroke="black" points="2003.53,-228.24 2007.63,-218.47 1998.33,-223.55 2003.53,-228.24"/>
</g>
<!-- comparator::is_smaller_than -->
<g id="node25" class="node">
<title>comparator::is_smaller_than</title>
<ellipse fill="none" stroke="black" cx="1894" cy="-200" rx="66.89" ry="18"/>
<text text-anchor="middle" x="1894" y="-196.3" font-family="Times,serif" font-size="14.00">is_smaller_than</text>
</g>
<!-- simple_map::find&#45;&gt;comparator::is_smaller_than -->
<g id="edge27" class="edge">
<title>simple_map::find&#45;&gt;comparator::is_smaller_than</title>
<path fill="none" stroke="black" d="M1617.89,-275.3C1665.56,-262.48 1770.84,-234.14 1836.75,-216.41"/>
<polygon fill="black" stroke="black" points="1837.57,-219.81 1846.31,-213.83 1835.75,-213.05 1837.57,-219.81"/>
</g>
<!-- timestamp::now_microseconds -->
<g id="node26" class="node">
<title>timestamp::now_microseconds</title>
<ellipse fill="none" stroke="black" cx="447" cy="-283" rx="79.09" ry="18"/>
<text text-anchor="middle" x="447" y="-279.3" font-family="Times,serif" font-size="14.00">now_microseconds</text>
</g>
<!-- timestamp::now_seconds&#45;&gt;timestamp::now_microseconds -->
<g id="edge28" class="edge">
<title>timestamp::now_seconds&#45;&gt;timestamp::now_microseconds</title>
<path fill="none" stroke="black" d="M454.88,-347.82C453.62,-337.58 451.98,-324.33 450.52,-312.55"/>
<polygon fill="black" stroke="black" points="454.04,-312.43 449.34,-302.93 447.09,-313.29 454.04,-312.43"/>
</g>
<!-- stake::assert_stake_pool_exists&#45;&gt;error::invalid_argument -->
<g id="edge29" class="edge">
<title>stake::assert_stake_pool_exists&#45;&gt;error::invalid_argument</title>
<path fill="none" stroke="black" d="M1052.22,-351.05C1070.36,-345.9 1090.3,-339.47 1108,-332 1125,-324.83 1142.92,-315.08 1157.89,-306.23"/>
<polygon fill="black" stroke="black" points="1159.69,-309.24 1166.45,-301.08 1156.07,-303.24 1159.69,-309.24"/>
</g>
<!-- stake::stake_pool_exists -->
<g id="node27" class="node">
<title>stake::stake_pool_exists</title>
<ellipse fill="none" stroke="black" cx="995" cy="-283" rx="73.39" ry="18"/>
<text text-anchor="middle" x="995" y="-279.3" font-family="Times,serif" font-size="14.00">stake_pool_exists</text>
</g>
<!-- stake::assert_stake_pool_exists&#45;&gt;stake::stake_pool_exists -->
<g id="edge30" class="edge">
<title>stake::assert_stake_pool_exists&#45;&gt;stake::stake_pool_exists</title>
<path fill="none" stroke="black" d="M995,-347.82C995,-337.69 995,-324.6 995,-312.92"/>
<polygon fill="black" stroke="black" points="998.5,-312.95 995,-302.95 991.5,-312.95 998.5,-312.95"/>
</g>
<!-- error::not_found&#45;&gt;error::canonical -->
<g id="edge31" class="edge">
<title>error::not_found&#45;&gt;error::canonical</title>
<path fill="none" stroke="black" d="M1317.04,-265.61C1307.31,-254.19 1294.16,-238.75 1283.15,-225.83"/>
<polygon fill="black" stroke="black" points="1286.07,-223.86 1276.92,-218.52 1280.74,-228.4 1286.07,-223.86"/>
</g>
<!-- simple_map::contains_key&#45;&gt;option::is_some -->
<g id="edge32" class="edge">
<title>simple_map::contains_key&#45;&gt;option::is_some</title>
<path fill="none" stroke="black" d="M1562.09,-349.37C1533.63,-329.88 1488.59,-293.62 1470,-249 1457.18,-218.23 1458.28,-205.2 1470,-174 1474.63,-161.69 1483.33,-150.31 1492.12,-141.07"/>
<polygon fill="black" stroke="black" points="1494.36,-143.78 1499.04,-134.28 1489.45,-138.79 1494.36,-143.78"/>
</g>
<!-- simple_map::contains_key&#45;&gt;simple_map::find -->
<g id="edge33" class="edge">
<title>simple_map::contains_key&#45;&gt;simple_map::find</title>
<path fill="none" stroke="black" d="M1588.27,-347.82C1589.03,-337.58 1590.01,-324.33 1590.89,-312.55"/>
<polygon fill="black" stroke="black" points="1594.35,-313.17 1591.6,-302.94 1587.37,-312.66 1594.35,-313.17"/>
</g>
<!-- vector::singleton -->
<g id="node28" class="node">
<title>vector::singleton</title>
<ellipse fill="none" stroke="black" cx="1634" cy="-34" rx="42.79" ry="18"/>
<text text-anchor="middle" x="1634" y="-30.3" font-family="Times,serif" font-size="14.00">singleton</text>
</g>
<!-- option::some&#45;&gt;vector::singleton -->
<g id="edge34" class="edge">
<title>option::some&#45;&gt;vector::singleton</title>
<path fill="none" stroke="black" d="M1665.32,-181.76C1659.29,-153.51 1647.25,-97.11 1639.99,-63.04"/>
<polygon fill="black" stroke="black" points="1643.46,-62.54 1637.95,-53.49 1636.61,-64 1643.46,-62.54"/>
</g>
<!-- comparator::compare&#45;&gt;bcs::to_bytes -->
<g id="edge35" class="edge">
<title>comparator::compare&#45;&gt;bcs::to_bytes</title>
<path fill="none" stroke="black" d="M1997.13,-184.83C1988.82,-180.57 1979.26,-176.4 1970,-174 1936.61,-165.34 1846.79,-179.38 1815,-166 1802.99,-160.94 1792,-151.83 1783.25,-142.9"/>
<polygon fill="black" stroke="black" points="1785.94,-140.66 1776.61,-135.64 1780.78,-145.38 1785.94,-140.66"/>
</g>
<!-- comparator::compare_u8_vector -->
<g id="node29" class="node">
<title>comparator::compare_u8_vector</title>
<ellipse fill="none" stroke="black" cx="1982" cy="-117" rx="81.49" ry="18"/>
<text text-anchor="middle" x="1982" y="-113.3" font-family="Times,serif" font-size="14.00">compare_u8_vector</text>
</g>
<!-- comparator::compare&#45;&gt;comparator::compare_u8_vector -->
<g id="edge36" class="edge">
<title>comparator::compare&#45;&gt;comparator::compare_u8_vector</title>
<path fill="none" stroke="black" d="M2012.92,-182.22C2007.81,-171.61 2001.09,-157.65 1995.22,-145.45"/>
<polygon fill="black" stroke="black" points="1998.49,-144.18 1991,-136.68 1992.18,-147.21 1998.49,-144.18"/>
</g>
</g>
</svg>
