<?xml version="1.0" encoding="UTF-8" standalone="no"?>
<!DOCTYPE svg PUBLIC "-//W3C//DTD SVG 1.1//EN"
 "http://www.w3.org/Graphics/SVG/1.1/DTD/svg11.dtd">
<!-- Generated by graphviz version 7.0.0 (20221023.0053)
 -->
<!-- Title: G Pages: 1 -->
<svg width="692pt" height="518pt"
 viewBox="0.00 0.00 692.00 518.00" xmlns="http://www.w3.org/2000/svg" xmlns:xlink="http://www.w3.org/1999/xlink">
<g id="graph0" class="graph" transform="scale(1 1) rotate(0) translate(4 514)">
<title>G</title>
<polygon fill="white" stroke="none" points="-4,4 -4,-514 688,-514 688,4 -4,4"/>
<g id="clust1" class="cluster">
<title>cluster_vesting</title>
<polygon fill="none" stroke="black" points="472,-352 472,-427 676,-427 676,-352 472,-352"/>
<text text-anchor="middle" x="574" y="-411.8" font-family="Times,serif" font-size="14.00">vesting</text>
</g>
<g id="clust2" class="cluster">
<title>cluster_genesis</title>
<polygon fill="none" stroke="black" points="8,-208 8,-502 464,-502 464,-208 8,-208"/>
<text text-anchor="middle" x="236" y="-486.8" font-family="Times,serif" font-size="14.00">genesis</text>
</g>
<!-- new_staking_contracts_holder -->
<g id="node1" class="node">
<title>new_staking_contracts_holder</title>
<ellipse fill="none" stroke="black" cx="382" cy="-18" rx="118.08" ry="18"/>
<text text-anchor="middle" x="382" y="-14.3" font-family="Times,serif" font-size="14.00">new_staking_contracts_holder</text>
</g>
<!-- create_staking_contract_with_coins -->
<g id="node2" class="node">
<title>create_staking_contract_with_coins</title>
<ellipse fill="none" stroke="black" cx="382" cy="-90" rx="137.28" ry="18"/>
<text text-anchor="middle" x="382" y="-86.3" font-family="Times,serif" font-size="14.00">create_staking_contract_with_coins</text>
</g>
<!-- create_staking_contract_with_coins&#45;&gt;new_staking_contracts_holder -->
<g id="edge1" class="edge">
<title>create_staking_contract_with_coins&#45;&gt;new_staking_contracts_holder</title>
<path fill="none" stroke="black" d="M382,-71.7C382,-64.41 382,-55.73 382,-47.54"/>
<polygon fill="black" stroke="black" points="385.5,-47.62 382,-37.62 378.5,-47.62 385.5,-47.62"/>
</g>
<!-- create_staking_contract -->
<g id="node3" class="node">
<title>create_staking_contract</title>
<ellipse fill="none" stroke="black" cx="321" cy="-162" rx="94.48" ry="18"/>
<text text-anchor="middle" x="321" y="-158.3" font-family="Times,serif" font-size="14.00">create_staking_contract</text>
</g>
<!-- create_staking_contract&#45;&gt;create_staking_contract_with_coins -->
<g id="edge2" class="edge">
<title>create_staking_contract&#45;&gt;create_staking_contract_with_coins</title>
<path fill="none" stroke="black" d="M335.77,-144.05C342.85,-135.92 351.5,-126 359.39,-116.94"/>
<polygon fill="black" stroke="black" points="362.02,-119.25 365.95,-109.42 356.74,-114.66 362.02,-119.25"/>
</g>
<!-- vesting::create_vesting_contract -->
<g id="node4" class="node">
<title>vesting::create_vesting_contract</title>
<ellipse fill="none" stroke="black" cx="574" cy="-378" rx="94.48" ry="18"/>
<text text-anchor="middle" x="574" y="-374.3" font-family="Times,serif" font-size="14.00">create_vesting_contract</text>
</g>
<!-- vesting::create_vesting_contract&#45;&gt;create_staking_contract_with_coins -->
<g id="edge3" class="edge">
<title>vesting::create_vesting_contract&#45;&gt;create_staking_contract_with_coins</title>
<path fill="none" stroke="black" d="M563.99,-359.83C540.86,-320.57 481.31,-221.59 424,-144 417.34,-134.98 409.81,-125.32 402.98,-116.75"/>
<polygon fill="black" stroke="black" points="405.86,-114.74 396.87,-109.14 400.4,-119.13 405.86,-114.74"/>
</g>
<!-- genesis::create_initialize_validator -->
<g id="node5" class="node">
<title>genesis::create_initialize_validator</title>
<ellipse fill="none" stroke="black" cx="291" cy="-234" rx="102.88" ry="18"/>
<text text-anchor="middle" x="291" y="-230.3" font-family="Times,serif" font-size="14.00">create_initialize_validator</text>
</g>
<!-- genesis::create_initialize_validator&#45;&gt;create_staking_contract -->
<g id="edge4" class="edge">
<title>genesis::create_initialize_validator&#45;&gt;create_staking_contract</title>
<path fill="none" stroke="black" d="M298.42,-215.7C301.65,-208.15 305.52,-199.12 309.14,-190.68"/>
<polygon fill="black" stroke="black" points="312.35,-192.07 313.07,-181.5 305.92,-189.31 312.35,-192.07"/>
</g>
<!-- genesis::create_employee_validators -->
<g id="node6" class="node">
<title>genesis::create_employee_validators</title>
<ellipse fill="none" stroke="black" cx="346" cy="-453" rx="109.68" ry="18"/>
<text text-anchor="middle" x="346" y="-449.3" font-family="Times,serif" font-size="14.00">create_employee_validators</text>
</g>
<!-- genesis::create_employee_validators&#45;&gt;vesting::create_vesting_contract -->
<g id="edge5" class="edge">
<title>genesis::create_employee_validators&#45;&gt;vesting::create_vesting_contract</title>
<path fill="none" stroke="black" d="M420.56,-439.47C436.39,-436.05 452.88,-431.9 468,-427 489.89,-419.9 513.28,-409.62 532.51,-400.39"/>
<polygon fill="black" stroke="black" points="533.92,-403.59 541.37,-396.06 530.85,-397.3 533.92,-403.59"/>
</g>
<!-- genesis::create_initialize_validators_with_commission -->
<g id="node7" class="node">
<title>genesis::create_initialize_validators_with_commission</title>
<ellipse fill="none" stroke="black" cx="261" cy="-306" rx="173.57" ry="18"/>
<text text-anchor="middle" x="261" y="-302.3" font-family="Times,serif" font-size="14.00">create_initialize_validators_with_commission</text>
</g>
<!-- genesis::create_initialize_validators_with_commission&#45;&gt;genesis::create_initialize_validator -->
<g id="edge6" class="edge">
<title>genesis::create_initialize_validators_with_commission&#45;&gt;genesis::create_initialize_validator</title>
<path fill="none" stroke="black" d="M268.42,-287.7C271.65,-280.15 275.52,-271.12 279.14,-262.68"/>
<polygon fill="black" stroke="black" points="282.35,-264.07 283.07,-253.5 275.92,-261.31 282.35,-264.07"/>
</g>
<!-- genesis::create_initialize_validators -->
<g id="node8" class="node">
<title>genesis::create_initialize_validators</title>
<ellipse fill="none" stroke="black" cx="201" cy="-378" rx="105.88" ry="18"/>
<text text-anchor="middle" x="201" y="-374.3" font-family="Times,serif" font-size="14.00">create_initialize_validators</text>
</g>
<!-- genesis::create_initialize_validators&#45;&gt;genesis::create_initialize_validators_with_commission -->
<g id="edge7" class="edge">
<title>genesis::create_initialize_validators&#45;&gt;genesis::create_initialize_validators_with_commission</title>
<path fill="none" stroke="black" d="M215.83,-359.7C222.81,-351.56 231.27,-341.69 238.97,-332.7"/>
<polygon fill="black" stroke="black" points="241.5,-335.12 245.35,-325.25 236.19,-330.57 241.5,-335.12"/>
</g>
<!-- genesis::initialize_for_verification -->
<g id="node9" class="node">
<title>genesis::initialize_for_verification</title>
<ellipse fill="none" stroke="black" cx="117" cy="-453" rx="100.98" ry="18"/>
<text text-anchor="middle" x="117" y="-449.3" font-family="Times,serif" font-size="14.00">initialize_for_verification</text>
</g>
<!-- genesis::initialize_for_verification&#45;&gt;genesis::create_initialize_validators -->
<g id="edge8" class="edge">
<title>genesis::initialize_for_verification&#45;&gt;genesis::create_initialize_validators</title>
<path fill="none" stroke="black" d="M136.48,-435.07C147.32,-425.65 161.01,-413.75 172.98,-403.35"/>
<polygon fill="black" stroke="black" points="174.94,-406.29 180.19,-397.09 170.35,-401 174.94,-406.29"/>
</g>
</g>
</svg>
