<?xml version="1.0" encoding="UTF-8" standalone="no"?>
<!DOCTYPE svg PUBLIC "-//W3C//DTD SVG 1.1//EN"
 "http://www.w3.org/Graphics/SVG/1.1/DTD/svg11.dtd">
<!-- Generated by graphviz version 7.0.0 (20221023.0053)
 -->
<!-- Title: G Pages: 1 -->
<svg width="380pt" height="155pt"
 viewBox="0.00 0.00 380.00 155.00" xmlns="http://www.w3.org/2000/svg" xmlns:xlink="http://www.w3.org/1999/xlink">
<g id="graph0" class="graph" transform="scale(1 1) rotate(0) translate(4 151)">
<title>G</title>
<polygon fill="white" stroke="none" points="-4,4 -4,-151 376,-151 376,4 -4,4"/>
<g id="clust1" class="cluster">
<title>cluster_aptos_governance</title>
<polygon fill="none" stroke="black" points="8,-64 8,-139 228,-139 228,-64 8,-64"/>
<text text-anchor="middle" x="118" y="-123.8" font-family="Times,serif" font-size="14.00">aptos_governance</text>
</g>
<g id="clust2" class="cluster">
<title>cluster_vesting</title>
<polygon fill="none" stroke="black" points="236,-64 236,-139 364,-139 364,-64 236,-64"/>
<text text-anchor="middle" x="300" y="-123.8" font-family="Times,serif" font-size="14.00">vesting</text>
</g>
<!-- get_lockup_secs -->
<g id="node1" class="node">
<title>get_lockup_secs</title>
<ellipse fill="none" stroke="black" cx="154" cy="-18" rx="68.79" ry="18"/>
<text text-anchor="middle" x="154" y="-14.3" font-family="Times,serif" font-size="14.00">get_lockup_secs</text>
</g>
<!-- aptos_governance::create_proposal -->
<g id="node2" class="node">
<title>aptos_governance::create_proposal</title>
<ellipse fill="none" stroke="black" cx="154" cy="-90" rx="66.09" ry="18"/>
<text text-anchor="middle" x="154" y="-86.3" font-family="Times,serif" font-size="14.00">create_proposal</text>
</g>
<!-- aptos_governance::create_proposal&#45;&gt;get_lockup_secs -->
<g id="edge1" class="edge">
<title>aptos_governance::create_proposal&#45;&gt;get_lockup_secs</title>
<path fill="none" stroke="black" d="M154,-71.7C154,-64.41 154,-55.73 154,-47.54"/>
<polygon fill="black" stroke="black" points="157.5,-47.62 154,-37.62 150.5,-47.62 157.5,-47.62"/>
</g>
<!-- aptos_governance::vote -->
<g id="node3" class="node">
<title>aptos_governance::vote</title>
<ellipse fill="none" stroke="black" cx="43" cy="-90" rx="27" ry="18"/>
<text text-anchor="middle" x="43" y="-86.3" font-family="Times,serif" font-size="14.00">vote</text>
</g>
<!-- aptos_governance::vote&#45;&gt;get_lockup_secs -->
<g id="edge2" class="edge">
<title>aptos_governance::vote&#45;&gt;get_lockup_secs</title>
<path fill="none" stroke="black" d="M60.79,-76.3C66.54,-72.28 72.99,-67.88 79,-64 91.16,-56.14 104.66,-47.9 116.82,-40.65"/>
<polygon fill="black" stroke="black" points="118.53,-43.7 125.35,-35.59 114.97,-37.67 118.53,-43.7"/>
</g>
<!-- vesting::reset_lockup -->
<g id="node4" class="node">
<title>vesting::reset_lockup</title>
<ellipse fill="none" stroke="black" cx="300" cy="-90" rx="55.79" ry="18"/>
<text text-anchor="middle" x="300" y="-86.3" font-family="Times,serif" font-size="14.00">reset_lockup</text>
</g>
<!-- vesting::reset_lockup&#45;&gt;get_lockup_secs -->
<g id="edge3" class="edge">
<title>vesting::reset_lockup&#45;&gt;get_lockup_secs</title>
<path fill="none" stroke="black" d="M269.75,-74.5C248.43,-64.28 219.6,-50.45 196.05,-39.16"/>
<polygon fill="black" stroke="black" points="197.88,-36.16 187.35,-34.99 194.85,-42.47 197.88,-36.16"/>
</g>
</g>
</svg>
