<?xml version="1.0" encoding="UTF-8" standalone="no"?>
<!DOCTYPE svg PUBLIC "-//W3C//DTD SVG 1.1//EN"
 "http://www.w3.org/Graphics/SVG/1.1/DTD/svg11.dtd">
<!-- Generated by graphviz version 7.0.0 (20221023.0053)
 -->
<!-- Title: G Pages: 1 -->
<svg width="2420pt" height="1106pt"
 viewBox="0.00 0.00 2420.49 1106.00" xmlns="http://www.w3.org/2000/svg" xmlns:xlink="http://www.w3.org/1999/xlink">
<g id="graph0" class="graph" transform="scale(1 1) rotate(0) translate(4 1102)">
<title>G</title>
<polygon fill="white" stroke="none" points="-4,4 -4,-1102 2416.49,-1102 2416.49,4 -4,4"/>
<g id="clust1" class="cluster">
<title>cluster_staking_contract</title>
<polygon fill="none" stroke="black" points="1524,-430 1524,-649 2392,-649 2392,-430 1524,-430"/>
<text text-anchor="middle" x="1958" y="-633.8" font-family="Times,serif" font-size="14.00">staking_contract</text>
</g>
<g id="clust2" class="cluster">
<title>cluster_vesting</title>
<polygon fill="none" stroke="black" points="672,-574 672,-796 1516,-796 1516,-574 672,-574"/>
<text text-anchor="middle" x="1094" y="-780.8" font-family="Times,serif" font-size="14.00">vesting</text>
</g>
<g id="clust3" class="cluster">
<title>cluster_aptos_governance</title>
<polygon fill="none" stroke="black" points="1523,-208 1523,-358 1743,-358 1743,-208 1523,-208"/>
<text text-anchor="middle" x="1633" y="-342.8" font-family="Times,serif" font-size="14.00">aptos_governance</text>
</g>
<g id="clust4" class="cluster">
<title>cluster_block</title>
<polygon fill="none" stroke="black" points="1805,-208 1805,-283 1953,-283 1953,-208 1805,-208"/>
<text text-anchor="middle" x="1879" y="-267.8" font-family="Times,serif" font-size="14.00">block</text>
</g>
<g id="clust5" class="cluster">
<title>cluster_genesis</title>
<polygon fill="none" stroke="black" points="8,-721 8,-1090 468,-1090 468,-721 8,-721"/>
<text text-anchor="middle" x="238" y="-1074.8" font-family="Times,serif" font-size="14.00">genesis</text>
</g>
<g id="clust6" class="cluster">
<title>cluster_staking_proxy</title>
<polygon fill="none" stroke="black" points="1804,-721 1804,-871 2303,-871 2303,-721 1804,-721"/>
<text text-anchor="middle" x="2053.5" y="-855.8" font-family="Times,serif" font-size="14.00">staking_proxy</text>
</g>
<!-- find_validator -->
<g id="node1" class="node">
<title>find_validator</title>
<ellipse fill="none" stroke="black" cx="2090" cy="-18" rx="60.39" ry="18"/>
<text text-anchor="middle" x="2090" y="-14.3" font-family="Times,serif" font-size="14.00">find_validator</text>
</g>
<!-- add_stake_with_cap -->
<g id="node2" class="node">
<title>add_stake_with_cap</title>
<ellipse fill="none" stroke="black" cx="2045" cy="-234" rx="82.59" ry="18"/>
<text text-anchor="middle" x="2045" y="-230.3" font-family="Times,serif" font-size="14.00">add_stake_with_cap</text>
</g>
<!-- add_stake_with_cap&#45;&gt;find_validator -->
<g id="edge1" class="edge">
<title>add_stake_with_cap&#45;&gt;find_validator</title>
<path fill="none" stroke="black" d="M2043.42,-215.54C2041.28,-185.4 2039.47,-122.01 2056,-72 2059.12,-62.55 2064.32,-53.13 2069.73,-44.9"/>
<polygon fill="black" stroke="black" points="2072.55,-46.97 2075.43,-36.77 2066.82,-42.95 2072.55,-46.97"/>
</g>
<!-- is_current_epoch_validator -->
<g id="node10" class="node">
<title>is_current_epoch_validator</title>
<ellipse fill="none" stroke="black" cx="1887" cy="-162" rx="106.68" ry="18"/>
<text text-anchor="middle" x="1887" y="-158.3" font-family="Times,serif" font-size="14.00">is_current_epoch_validator</text>
</g>
<!-- add_stake_with_cap&#45;&gt;is_current_epoch_validator -->
<g id="edge16" class="edge">
<title>add_stake_with_cap&#45;&gt;is_current_epoch_validator</title>
<path fill="none" stroke="black" d="M2009.54,-217.29C1987.27,-207.42 1958.29,-194.58 1934.1,-183.87"/>
<polygon fill="black" stroke="black" points="1935.66,-180.73 1925.1,-179.88 1932.82,-187.13 1935.66,-180.73"/>
</g>
<!-- get_validator_state -->
<g id="node3" class="node">
<title>get_validator_state</title>
<ellipse fill="none" stroke="black" cx="1633" cy="-90" rx="77.19" ry="18"/>
<text text-anchor="middle" x="1633" y="-86.3" font-family="Times,serif" font-size="14.00">get_validator_state</text>
</g>
<!-- get_validator_state&#45;&gt;find_validator -->
<g id="edge2" class="edge">
<title>get_validator_state&#45;&gt;find_validator</title>
<path fill="none" stroke="black" d="M1696.06,-79.34C1782.89,-66.04 1938.39,-42.22 2025.8,-28.83"/>
<polygon fill="black" stroke="black" points="2026.3,-32.3 2035.66,-27.32 2025.24,-25.38 2026.3,-32.3"/>
</g>
<!-- leave_validator_set -->
<g id="node4" class="node">
<title>leave_validator_set</title>
<ellipse fill="none" stroke="black" cx="2144" cy="-90" rx="79.09" ry="18"/>
<text text-anchor="middle" x="2144" y="-86.3" font-family="Times,serif" font-size="14.00">leave_validator_set</text>
</g>
<!-- leave_validator_set&#45;&gt;find_validator -->
<g id="edge3" class="edge">
<title>leave_validator_set&#45;&gt;find_validator</title>
<path fill="none" stroke="black" d="M2130.93,-72.05C2124.63,-63.89 2116.93,-53.91 2109.92,-44.82"/>
<polygon fill="black" stroke="black" points="2112.76,-42.77 2103.88,-36.99 2107.21,-47.04 2112.76,-42.77"/>
</g>
<!-- remove_validators -->
<g id="node5" class="node">
<title>remove_validators</title>
<ellipse fill="none" stroke="black" cx="2318" cy="-90" rx="76.89" ry="18"/>
<text text-anchor="middle" x="2318" y="-86.3" font-family="Times,serif" font-size="14.00">remove_validators</text>
</g>
<!-- remove_validators&#45;&gt;find_validator -->
<g id="edge4" class="edge">
<title>remove_validators&#45;&gt;find_validator</title>
<path fill="none" stroke="black" d="M2272.68,-75.09C2235.01,-63.52 2181.4,-47.06 2141.99,-34.96"/>
<polygon fill="black" stroke="black" points="2143.05,-31.63 2132.47,-32.04 2141,-38.32 2143.05,-31.63"/>
</g>
<!-- add_stake -->
<g id="node6" class="node">
<title>add_stake</title>
<ellipse fill="none" stroke="black" cx="1997" cy="-309" rx="46.29" ry="18"/>
<text text-anchor="middle" x="1997" y="-305.3" font-family="Times,serif" font-size="14.00">add_stake</text>
</g>
<!-- add_stake&#45;&gt;add_stake_with_cap -->
<g id="edge5" class="edge">
<title>add_stake&#45;&gt;add_stake_with_cap</title>
<path fill="none" stroke="black" d="M2008.13,-291.07C2013.91,-282.29 2021.09,-271.36 2027.58,-261.49"/>
<polygon fill="black" stroke="black" points="2030.36,-263.64 2032.93,-253.36 2024.51,-259.79 2030.36,-263.64"/>
</g>
<!-- staking_contract::add_stake -->
<g id="node7" class="node">
<title>staking_contract::add_stake</title>
<ellipse fill="none" stroke="black" cx="2329" cy="-600" rx="46.29" ry="18"/>
<text text-anchor="middle" x="2329" y="-596.3" font-family="Times,serif" font-size="14.00">add_stake</text>
</g>
<!-- staking_contract::add_stake&#45;&gt;add_stake_with_cap -->
<g id="edge6" class="edge">
<title>staking_contract::add_stake&#45;&gt;add_stake_with_cap</title>
<path fill="none" stroke="black" d="M2353.82,-584.34C2367.43,-575.04 2383.43,-561.79 2393,-546 2413.96,-511.41 2412,-497.45 2412,-457 2412,-457 2412,-457 2412,-383 2412,-320.05 2223.92,-271.38 2117.04,-248.81"/>
<polygon fill="black" stroke="black" points="2118,-245.43 2107.5,-246.82 2116.57,-252.28 2118,-245.43"/>
</g>
<!-- staking_contract::create_staking_contract_with_coins -->
<g id="node8" class="node">
<title>staking_contract::create_staking_contract_with_coins</title>
<ellipse fill="none" stroke="black" cx="2093" cy="-528" rx="137.28" ry="18"/>
<text text-anchor="middle" x="2093" y="-524.3" font-family="Times,serif" font-size="14.00">create_staking_contract_with_coins</text>
</g>
<!-- staking_contract::create_staking_contract_with_coins&#45;&gt;add_stake_with_cap -->
<g id="edge7" class="edge">
<title>staking_contract::create_staking_contract_with_coins&#45;&gt;add_stake_with_cap</title>
<path fill="none" stroke="black" d="M2091.52,-509.53C2088.87,-479.88 2082.78,-417.89 2074,-366 2067.97,-330.35 2058.59,-289.77 2052.14,-263.34"/>
<polygon fill="black" stroke="black" points="2055.56,-262.61 2049.77,-253.74 2048.77,-264.28 2055.56,-262.61"/>
</g>
<!-- staking_contract::create_stake_pool -->
<g id="node22" class="node">
<title>staking_contract::create_stake_pool</title>
<ellipse fill="none" stroke="black" cx="1983" cy="-456" rx="74.19" ry="18"/>
<text text-anchor="middle" x="1983" y="-452.3" font-family="Times,serif" font-size="14.00">create_stake_pool</text>
</g>
<!-- staking_contract::create_staking_contract_with_coins&#45;&gt;staking_contract::create_stake_pool -->
<g id="edge34" class="edge">
<title>staking_contract::create_staking_contract_with_coins&#45;&gt;staking_contract::create_stake_pool</title>
<path fill="none" stroke="black" d="M2066.09,-509.88C2051.55,-500.62 2033.44,-489.1 2017.83,-479.17"/>
<polygon fill="black" stroke="black" points="2020.09,-476.45 2009.77,-474.04 2016.33,-482.36 2020.09,-476.45"/>
</g>
<!-- get_current_epoch_voting_power -->
<g id="node9" class="node">
<title>get_current_epoch_voting_power</title>
<ellipse fill="none" stroke="black" cx="1633" cy="-162" rx="129.18" ry="18"/>
<text text-anchor="middle" x="1633" y="-158.3" font-family="Times,serif" font-size="14.00">get_current_epoch_voting_power</text>
</g>
<!-- get_current_epoch_voting_power&#45;&gt;get_validator_state -->
<g id="edge8" class="edge">
<title>get_current_epoch_voting_power&#45;&gt;get_validator_state</title>
<path fill="none" stroke="black" d="M1633,-143.7C1633,-136.41 1633,-127.73 1633,-119.54"/>
<polygon fill="black" stroke="black" points="1636.5,-119.62 1633,-109.62 1629.5,-119.62 1636.5,-119.62"/>
</g>
<!-- is_current_epoch_validator&#45;&gt;get_validator_state -->
<g id="edge9" class="edge">
<title>is_current_epoch_validator&#45;&gt;get_validator_state</title>
<path fill="none" stroke="black" d="M1832.82,-146.07C1791.63,-134.72 1735,-119.11 1692.54,-107.41"/>
<polygon fill="black" stroke="black" points="1693.55,-104.06 1682.98,-104.77 1691.69,-110.8 1693.55,-104.06"/>
</g>
<!-- join_validator_set_internal -->
<g id="node11" class="node">
<title>join_validator_set_internal</title>
<ellipse fill="none" stroke="black" cx="508" cy="-675" rx="105.08" ry="18"/>
<text text-anchor="middle" x="508" y="-671.3" font-family="Times,serif" font-size="14.00">join_validator_set_internal</text>
</g>
<!-- join_validator_set_internal&#45;&gt;get_validator_state -->
<g id="edge10" class="edge">
<title>join_validator_set_internal&#45;&gt;get_validator_state</title>
<path fill="none" stroke="black" d="M508,-656.59C508,-629.37 508,-575.07 508,-529 508,-529 508,-529 508,-233 508,-128.68 1279.32,-99.76 1544.62,-92.9"/>
<polygon fill="black" stroke="black" points="1544.7,-96.4 1554.6,-92.65 1544.52,-89.4 1544.7,-96.4"/>
</g>
<!-- withdraw_with_cap -->
<g id="node12" class="node">
<title>withdraw_with_cap</title>
<ellipse fill="none" stroke="black" cx="1476" cy="-384" rx="80.69" ry="18"/>
<text text-anchor="middle" x="1476" y="-380.3" font-family="Times,serif" font-size="14.00">withdraw_with_cap</text>
</g>
<!-- withdraw_with_cap&#45;&gt;get_validator_state -->
<g id="edge11" class="edge">
<title>withdraw_with_cap&#45;&gt;get_validator_state</title>
<path fill="none" stroke="black" d="M1471.67,-365.53C1462.2,-322.86 1444.3,-211.85 1495,-144 1510.12,-123.76 1534.01,-111.25 1557.7,-103.52"/>
<polygon fill="black" stroke="black" points="1558.5,-106.93 1567.08,-100.73 1556.5,-100.23 1558.5,-106.93"/>
</g>
<!-- initialize_stake_owner -->
<g id="node13" class="node">
<title>initialize_stake_owner</title>
<ellipse fill="none" stroke="black" cx="1975" cy="-384" rx="90.18" ry="18"/>
<text text-anchor="middle" x="1975" y="-380.3" font-family="Times,serif" font-size="14.00">initialize_stake_owner</text>
</g>
<!-- initialize_stake_owner&#45;&gt;add_stake -->
<g id="edge12" class="edge">
<title>initialize_stake_owner&#45;&gt;add_stake</title>
<path fill="none" stroke="black" d="M1980.21,-365.7C1982.71,-357.43 1985.75,-347.31 1988.57,-337.99"/>
<polygon fill="black" stroke="black" points="1991.85,-339.21 1991.39,-328.62 1985.15,-337.19 1991.85,-339.21"/>
</g>
<!-- staking_contract::create_staking_contract -->
<g id="node14" class="node">
<title>staking_contract::create_staking_contract</title>
<ellipse fill="none" stroke="black" cx="1829" cy="-600" rx="94.48" ry="18"/>
<text text-anchor="middle" x="1829" y="-596.3" font-family="Times,serif" font-size="14.00">create_staking_contract</text>
</g>
<!-- staking_contract::create_staking_contract&#45;&gt;staking_contract::create_staking_contract_with_coins -->
<g id="edge13" class="edge">
<title>staking_contract::create_staking_contract&#45;&gt;staking_contract::create_staking_contract_with_coins</title>
<path fill="none" stroke="black" d="M1882.74,-584.75C1923.19,-574.03 1978.97,-559.24 2022.92,-547.58"/>
<polygon fill="black" stroke="black" points="2023.59,-551.03 2032.36,-545.08 2021.79,-544.26 2023.59,-551.03"/>
</g>
<!-- vesting::create_vesting_contract -->
<g id="node15" class="node">
<title>vesting::create_vesting_contract</title>
<ellipse fill="none" stroke="black" cx="774" cy="-747" rx="94.48" ry="18"/>
<text text-anchor="middle" x="774" y="-743.3" font-family="Times,serif" font-size="14.00">create_vesting_contract</text>
</g>
<!-- vesting::create_vesting_contract&#45;&gt;staking_contract::create_staking_contract_with_coins -->
<g id="edge14" class="edge">
<title>vesting::create_vesting_contract&#45;&gt;staking_contract::create_staking_contract_with_coins</title>
<path fill="none" stroke="black" d="M777.12,-728.54C781.31,-709.22 790.37,-678.05 808,-657 853.95,-602.13 877.31,-594.1 946,-574 1052.79,-542.75 1836.02,-554 1947,-546 1959.83,-545.08 1973.26,-543.86 1986.56,-542.49"/>
<polygon fill="black" stroke="black" points="1986.61,-546.01 1996.19,-541.48 1985.88,-539.05 1986.61,-546.01"/>
</g>
<!-- aptos_governance::get_voting_power -->
<g id="node16" class="node">
<title>aptos_governance::get_voting_power</title>
<ellipse fill="none" stroke="black" cx="1633" cy="-234" rx="74.99" ry="18"/>
<text text-anchor="middle" x="1633" y="-230.3" font-family="Times,serif" font-size="14.00">get_voting_power</text>
</g>
<!-- aptos_governance::get_voting_power&#45;&gt;get_current_epoch_voting_power -->
<g id="edge15" class="edge">
<title>aptos_governance::get_voting_power&#45;&gt;get_current_epoch_voting_power</title>
<path fill="none" stroke="black" d="M1633,-215.7C1633,-208.41 1633,-199.73 1633,-191.54"/>
<polygon fill="black" stroke="black" points="1636.5,-191.62 1633,-181.62 1629.5,-191.62 1636.5,-191.62"/>
</g>
<!-- block::block_prologue -->
<g id="node17" class="node">
<title>block::block_prologue</title>
<ellipse fill="none" stroke="black" cx="1879" cy="-234" rx="65.79" ry="18"/>
<text text-anchor="middle" x="1879" y="-230.3" font-family="Times,serif" font-size="14.00">block_prologue</text>
</g>
<!-- block::block_prologue&#45;&gt;is_current_epoch_validator -->
<g id="edge17" class="edge">
<title>block::block_prologue&#45;&gt;is_current_epoch_validator</title>
<path fill="none" stroke="black" d="M1880.98,-215.7C1881.81,-208.41 1882.8,-199.73 1883.74,-191.54"/>
<polygon fill="black" stroke="black" points="1887.22,-191.94 1884.87,-181.61 1880.26,-191.15 1887.22,-191.94"/>
</g>
<!-- join_validator_set -->
<g id="node18" class="node">
<title>join_validator_set</title>
<ellipse fill="none" stroke="black" cx="550" cy="-747" rx="74.19" ry="18"/>
<text text-anchor="middle" x="550" y="-743.3" font-family="Times,serif" font-size="14.00">join_validator_set</text>
</g>
<!-- join_validator_set&#45;&gt;join_validator_set_internal -->
<g id="edge18" class="edge">
<title>join_validator_set&#45;&gt;join_validator_set_internal</title>
<path fill="none" stroke="black" d="M539.62,-728.7C534.94,-720.9 529.31,-711.51 524.1,-702.83"/>
<polygon fill="black" stroke="black" points="527.19,-701.18 519.04,-694.4 521.19,-704.78 527.19,-701.18"/>
</g>
<!-- genesis::initialize_validator -->
<g id="node19" class="node">
<title>genesis::initialize_validator</title>
<ellipse fill="none" stroke="black" cx="357" cy="-747" rx="77.19" ry="18"/>
<text text-anchor="middle" x="357" y="-743.3" font-family="Times,serif" font-size="14.00">initialize_validator</text>
</g>
<!-- genesis::initialize_validator&#45;&gt;join_validator_set_internal -->
<g id="edge19" class="edge">
<title>genesis::initialize_validator&#45;&gt;join_validator_set_internal</title>
<path fill="none" stroke="black" d="M390.51,-730.46C411.68,-720.65 439.32,-707.84 462.46,-697.11"/>
<polygon fill="black" stroke="black" points="463.77,-700.36 471.37,-692.98 460.83,-694.01 463.77,-700.36"/>
</g>
<!-- withdraw -->
<g id="node20" class="node">
<title>withdraw</title>
<ellipse fill="none" stroke="black" cx="580" cy="-456" rx="44.39" ry="18"/>
<text text-anchor="middle" x="580" y="-452.3" font-family="Times,serif" font-size="14.00">withdraw</text>
</g>
<!-- withdraw&#45;&gt;withdraw_with_cap -->
<g id="edge20" class="edge">
<title>withdraw&#45;&gt;withdraw_with_cap</title>
<path fill="none" stroke="black" d="M606.47,-441.25C616.14,-436.87 627.32,-432.5 638,-430 777.37,-397.32 1196.56,-388.3 1383.85,-385.87"/>
<polygon fill="black" stroke="black" points="1383.84,-389.37 1393.79,-385.74 1383.75,-382.37 1383.84,-389.37"/>
</g>
<!-- staking_contract::distribute_internal -->
<g id="node21" class="node">
<title>staking_contract::distribute_internal</title>
<ellipse fill="none" stroke="black" cx="1762" cy="-456" rx="75.29" ry="18"/>
<text text-anchor="middle" x="1762" y="-452.3" font-family="Times,serif" font-size="14.00">distribute_internal</text>
</g>
<!-- staking_contract::distribute_internal&#45;&gt;withdraw_with_cap -->
<g id="edge21" class="edge">
<title>staking_contract::distribute_internal&#45;&gt;withdraw_with_cap</title>
<path fill="none" stroke="black" d="M1710.87,-442.49C1662.97,-430.76 1591.22,-413.2 1539.64,-400.58"/>
<polygon fill="black" stroke="black" points="1540.64,-397.22 1530.09,-398.24 1538.97,-404.02 1540.64,-397.22"/>
</g>
<!-- staking_contract::create_stake_pool&#45;&gt;initialize_stake_owner -->
<g id="edge22" class="edge">
<title>staking_contract::create_stake_pool&#45;&gt;initialize_stake_owner</title>
<path fill="none" stroke="black" d="M1981.02,-437.7C1980.19,-430.41 1979.2,-421.73 1978.26,-413.54"/>
<polygon fill="black" stroke="black" points="1981.74,-413.15 1977.13,-403.61 1974.78,-413.94 1981.74,-413.15"/>
</g>
<!-- genesis::create_initialize_validator -->
<g id="node23" class="node">
<title>genesis::create_initialize_validator</title>
<ellipse fill="none" stroke="black" cx="357" cy="-822" rx="102.88" ry="18"/>
<text text-anchor="middle" x="357" y="-818.3" font-family="Times,serif" font-size="14.00">create_initialize_validator</text>
</g>
<!-- genesis::create_initialize_validator&#45;&gt;initialize_stake_owner -->
<g id="edge23" class="edge">
<title>genesis::create_initialize_validator&#45;&gt;initialize_stake_owner</title>
<path fill="none" stroke="black" d="M457.48,-817.83C531,-814.53 620.09,-808.08 633,-796 672.43,-759.11 652,-730 652,-676 652,-676 652,-676 652,-527 652,-465.37 1571.69,-407.8 1877.47,-390.36"/>
<polygon fill="black" stroke="black" points="1877.66,-393.85 1887.45,-389.79 1877.27,-386.86 1877.66,-393.85"/>
</g>
<!-- genesis::create_initialize_validator&#45;&gt;staking_contract::create_staking_contract -->
<g id="edge24" class="edge">
<title>genesis::create_initialize_validator&#45;&gt;staking_contract::create_staking_contract</title>
<path fill="none" stroke="black" d="M459.52,-820.28C734.27,-818.17 1469.75,-811.12 1520,-796 1636.33,-761 1751.53,-669.25 1802.19,-625.23"/>
<polygon fill="black" stroke="black" points="1804.27,-628.07 1809.47,-618.84 1799.65,-622.81 1804.27,-628.07"/>
</g>
<!-- genesis::create_initialize_validator&#45;&gt;genesis::initialize_validator -->
<g id="edge29" class="edge">
<title>genesis::create_initialize_validator&#45;&gt;genesis::initialize_validator</title>
<path fill="none" stroke="black" d="M357,-803.7C357,-795.67 357,-785.9 357,-776.8"/>
<polygon fill="black" stroke="black" points="360.5,-776.94 357,-766.94 353.5,-776.94 360.5,-776.94"/>
</g>
<!-- genesis::create_employee_validators -->
<g id="node24" class="node">
<title>genesis::create_employee_validators</title>
<ellipse fill="none" stroke="black" cx="126" cy="-822" rx="109.68" ry="18"/>
<text text-anchor="middle" x="126" y="-818.3" font-family="Times,serif" font-size="14.00">create_employee_validators</text>
</g>
<!-- genesis::create_employee_validators&#45;&gt;vesting::create_vesting_contract -->
<g id="edge25" class="edge">
<title>genesis::create_employee_validators&#45;&gt;vesting::create_vesting_contract</title>
<path fill="none" stroke="black" d="M202.34,-808.7C216.49,-806.81 231.17,-805.13 245,-804 330.96,-797 548.07,-810.96 633,-796 665.12,-790.34 699.81,-778.61 726.75,-768.16"/>
<polygon fill="black" stroke="black" points="728,-771.43 736.01,-764.49 725.42,-764.92 728,-771.43"/>
</g>
<!-- genesis::create_employee_validators&#45;&gt;genesis::initialize_validator -->
<g id="edge28" class="edge">
<title>genesis::create_employee_validators&#45;&gt;genesis::initialize_validator</title>
<path fill="none" stroke="black" d="M174.99,-805.52C212.15,-793.77 263.25,-777.63 301.85,-765.43"/>
<polygon fill="black" stroke="black" points="302.46,-768.91 310.94,-762.56 300.35,-762.23 302.46,-768.91"/>
</g>
<!-- aptos_governance::create_proposal -->
<g id="node25" class="node">
<title>aptos_governance::create_proposal</title>
<ellipse fill="none" stroke="black" cx="1669" cy="-309" rx="66.09" ry="18"/>
<text text-anchor="middle" x="1669" y="-305.3" font-family="Times,serif" font-size="14.00">create_proposal</text>
</g>
<!-- aptos_governance::create_proposal&#45;&gt;aptos_governance::get_voting_power -->
<g id="edge26" class="edge">
<title>aptos_governance::create_proposal&#45;&gt;aptos_governance::get_voting_power</title>
<path fill="none" stroke="black" d="M1660.47,-290.7C1656.3,-282.25 1651.18,-271.87 1646.5,-262.37"/>
<polygon fill="black" stroke="black" points="1649.7,-260.95 1642.14,-253.53 1643.42,-264.05 1649.7,-260.95"/>
</g>
<!-- aptos_governance::vote -->
<g id="node26" class="node">
<title>aptos_governance::vote</title>
<ellipse fill="none" stroke="black" cx="1558" cy="-309" rx="27" ry="18"/>
<text text-anchor="middle" x="1558" y="-305.3" font-family="Times,serif" font-size="14.00">vote</text>
</g>
<!-- aptos_governance::vote&#45;&gt;aptos_governance::get_voting_power -->
<g id="edge27" class="edge">
<title>aptos_governance::vote&#45;&gt;aptos_governance::get_voting_power</title>
<path fill="none" stroke="black" d="M1572.82,-293.58C1582.71,-283.95 1595.98,-271.03 1607.54,-259.78"/>
<polygon fill="black" stroke="black" points="1609.77,-262.49 1614.5,-253.01 1604.89,-257.48 1609.77,-262.49"/>
</g>
<!-- staking_contract::distribute -->
<g id="node27" class="node">
<title>staking_contract::distribute</title>
<ellipse fill="none" stroke="black" cx="1762" cy="-528" rx="44.39" ry="18"/>
<text text-anchor="middle" x="1762" y="-524.3" font-family="Times,serif" font-size="14.00">distribute</text>
</g>
<!-- staking_contract::distribute&#45;&gt;staking_contract::distribute_internal -->
<g id="edge30" class="edge">
<title>staking_contract::distribute&#45;&gt;staking_contract::distribute_internal</title>
<path fill="none" stroke="black" d="M1762,-509.7C1762,-502.41 1762,-493.73 1762,-485.54"/>
<polygon fill="black" stroke="black" points="1765.5,-485.62 1762,-475.62 1758.5,-485.62 1765.5,-485.62"/>
</g>
<!-- staking_contract::request_commission -->
<g id="node28" class="node">
<title>staking_contract::request_commission</title>
<ellipse fill="none" stroke="black" cx="1616" cy="-528" rx="83.69" ry="18"/>
<text text-anchor="middle" x="1616" y="-524.3" font-family="Times,serif" font-size="14.00">request_commission</text>
</g>
<!-- staking_contract::request_commission&#45;&gt;staking_contract::distribute_internal -->
<g id="edge31" class="edge">
<title>staking_contract::request_commission&#45;&gt;staking_contract::distribute_internal</title>
<path fill="none" stroke="black" d="M1649.13,-511.12C1669.9,-501.16 1696.89,-488.22 1719.26,-477.49"/>
<polygon fill="black" stroke="black" points="1720.64,-480.71 1728.14,-473.23 1717.61,-474.4 1720.64,-480.71"/>
</g>
<!-- staking_contract::switch_operator -->
<g id="node29" class="node">
<title>staking_contract::switch_operator</title>
<ellipse fill="none" stroke="black" cx="2316" cy="-528" rx="67.69" ry="18"/>
<text text-anchor="middle" x="2316" y="-524.3" font-family="Times,serif" font-size="14.00">switch_operator</text>
</g>
<!-- staking_contract::switch_operator&#45;&gt;staking_contract::distribute_internal -->
<g id="edge32" class="edge">
<title>staking_contract::switch_operator&#45;&gt;staking_contract::distribute_internal</title>
<path fill="none" stroke="black" d="M2266.87,-515.3C2257.64,-513.34 2248.05,-511.48 2239,-510 2089.46,-485.63 2050.53,-491.26 1900,-474 1880.06,-471.71 1858.52,-469.12 1838.51,-466.66"/>
<polygon fill="black" stroke="black" points="1839.11,-463.21 1828.76,-465.45 1838.26,-470.15 1839.11,-463.21"/>
</g>
<!-- staking_contract::unlock_stake -->
<g id="node30" class="node">
<title>staking_contract::unlock_stake</title>
<ellipse fill="none" stroke="black" cx="1881" cy="-528" rx="57.39" ry="18"/>
<text text-anchor="middle" x="1881" y="-524.3" font-family="Times,serif" font-size="14.00">unlock_stake</text>
</g>
<!-- staking_contract::unlock_stake&#45;&gt;staking_contract::distribute_internal -->
<g id="edge33" class="edge">
<title>staking_contract::unlock_stake&#45;&gt;staking_contract::distribute_internal</title>
<path fill="none" stroke="black" d="M1854.88,-511.64C1838.49,-501.99 1817.1,-489.41 1798.97,-478.75"/>
<polygon fill="black" stroke="black" points="1800.99,-475.88 1790.6,-473.82 1797.44,-481.91 1800.99,-475.88"/>
</g>
<!-- genesis::create_initialize_validators_with_commission -->
<g id="node31" class="node">
<title>genesis::create_initialize_validators_with_commission</title>
<ellipse fill="none" stroke="black" cx="286" cy="-897" rx="173.57" ry="18"/>
<text text-anchor="middle" x="286" y="-893.3" font-family="Times,serif" font-size="14.00">create_initialize_validators_with_commission</text>
</g>
<!-- genesis::create_initialize_validators_with_commission&#45;&gt;genesis::create_initialize_validator -->
<g id="edge35" class="edge">
<title>genesis::create_initialize_validators_with_commission&#45;&gt;genesis::create_initialize_validator</title>
<path fill="none" stroke="black" d="M302.83,-878.7C311.67,-869.61 322.67,-858.3 332.45,-848.25"/>
<polygon fill="black" stroke="black" points="334.78,-850.87 339.24,-841.26 329.76,-845.99 334.78,-850.87"/>
</g>
<!-- vesting::withdraw_stake -->
<g id="node32" class="node">
<title>vesting::withdraw_stake</title>
<ellipse fill="none" stroke="black" cx="1021" cy="-600" rx="66.09" ry="18"/>
<text text-anchor="middle" x="1021" y="-596.3" font-family="Times,serif" font-size="14.00">withdraw_stake</text>
</g>
<!-- vesting::withdraw_stake&#45;&gt;staking_contract::distribute -->
<g id="edge36" class="edge">
<title>vesting::withdraw_stake&#45;&gt;staking_contract::distribute</title>
<path fill="none" stroke="black" d="M1082.07,-592.69C1135.34,-587.3 1214.74,-579.57 1284,-574 1472.69,-558.82 1523.04,-581.4 1709,-546 1712.2,-545.39 1715.48,-544.65 1718.76,-543.81"/>
<polygon fill="black" stroke="black" points="1719.68,-547.19 1728.35,-541.12 1717.78,-540.45 1719.68,-547.19"/>
</g>
<!-- staking_contract::switch_operator_with_same_commission -->
<g id="node33" class="node">
<title>staking_contract::switch_operator_with_same_commission</title>
<ellipse fill="none" stroke="black" cx="2107" cy="-600" rx="157.87" ry="18"/>
<text text-anchor="middle" x="2107" y="-596.3" font-family="Times,serif" font-size="14.00">switch_operator_with_same_commission</text>
</g>
<!-- staking_contract::switch_operator_with_same_commission&#45;&gt;staking_contract::switch_operator -->
<g id="edge37" class="edge">
<title>staking_contract::switch_operator_with_same_commission&#45;&gt;staking_contract::switch_operator</title>
<path fill="none" stroke="black" d="M2156.27,-582.5C2188.79,-571.61 2231.34,-557.35 2264.34,-546.3"/>
<polygon fill="black" stroke="black" points="2265.34,-549.66 2273.71,-543.17 2263.11,-543.02 2265.34,-549.66"/>
</g>
<!-- vesting::update_operator -->
<g id="node34" class="node">
<title>vesting::update_operator</title>
<ellipse fill="none" stroke="black" cx="1440" cy="-675" rx="67.69" ry="18"/>
<text text-anchor="middle" x="1440" y="-671.3" font-family="Times,serif" font-size="14.00">update_operator</text>
</g>
<!-- vesting::update_operator&#45;&gt;staking_contract::switch_operator -->
<g id="edge38" class="edge">
<title>vesting::update_operator&#45;&gt;staking_contract::switch_operator</title>
<path fill="none" stroke="black" d="M1453.3,-657.05C1473.02,-633.41 1512.48,-591.48 1557,-574 1627.6,-546.28 2163.79,-555.77 2239,-546 2244.71,-545.26 2250.62,-544.3 2256.51,-543.22"/>
<polygon fill="black" stroke="black" points="2257.14,-546.67 2266.28,-541.3 2255.79,-539.8 2257.14,-546.67"/>
</g>
<!-- staking_proxy::set_staking_contract_operator -->
<g id="node35" class="node">
<title>staking_proxy::set_staking_contract_operator</title>
<ellipse fill="none" stroke="black" cx="2179" cy="-747" rx="116.18" ry="18"/>
<text text-anchor="middle" x="2179" y="-743.3" font-family="Times,serif" font-size="14.00">set_staking_contract_operator</text>
</g>
<!-- staking_proxy::set_staking_contract_operator&#45;&gt;staking_contract::switch_operator -->
<g id="edge39" class="edge">
<title>staking_proxy::set_staking_contract_operator&#45;&gt;staking_contract::switch_operator</title>
<path fill="none" stroke="black" d="M2250.73,-732.5C2297.43,-719.6 2354.88,-694.99 2384,-649 2401.83,-620.84 2399.78,-603.36 2384,-574 2378.73,-564.19 2370.27,-556.16 2361.09,-549.74"/>
<polygon fill="black" stroke="black" points="2362.97,-546.79 2352.64,-544.43 2359.25,-552.72 2362.97,-546.79"/>
</g>
<!-- staking_contract::unlock_rewards -->
<g id="node36" class="node">
<title>staking_contract::unlock_rewards</title>
<ellipse fill="none" stroke="black" cx="1633" cy="-600" rx="66.89" ry="18"/>
<text text-anchor="middle" x="1633" y="-596.3" font-family="Times,serif" font-size="14.00">unlock_rewards</text>
</g>
<!-- staking_contract::unlock_rewards&#45;&gt;staking_contract::unlock_stake -->
<g id="edge40" class="edge">
<title>staking_contract::unlock_rewards&#45;&gt;staking_contract::unlock_stake</title>
<path fill="none" stroke="black" d="M1677.91,-586.32C1720.25,-574.37 1783.69,-556.47 1828.38,-543.85"/>
<polygon fill="black" stroke="black" points="1829.18,-547.26 1837.86,-541.18 1827.28,-540.53 1829.18,-547.26"/>
</g>
<!-- vesting::unlock_stake -->
<g id="node37" class="node">
<title>vesting::unlock_stake</title>
<ellipse fill="none" stroke="black" cx="1145" cy="-675" rx="57.39" ry="18"/>
<text text-anchor="middle" x="1145" y="-671.3" font-family="Times,serif" font-size="14.00">unlock_stake</text>
</g>
<!-- vesting::unlock_stake&#45;&gt;staking_contract::unlock_stake -->
<g id="edge41" class="edge">
<title>vesting::unlock_stake&#45;&gt;staking_contract::unlock_stake</title>
<path fill="none" stroke="black" d="M1180.51,-660.51C1240.31,-638.42 1365.32,-594.89 1475,-574 1623.95,-545.63 1665.49,-571.22 1815,-546 1819.4,-545.26 1823.94,-544.36 1828.48,-543.38"/>
<polygon fill="black" stroke="black" points="1829.26,-546.79 1838.21,-541.13 1827.68,-539.97 1829.26,-546.79"/>
</g>
<!-- genesis::create_initialize_validators -->
<g id="node38" class="node">
<title>genesis::create_initialize_validators</title>
<ellipse fill="none" stroke="black" cx="286" cy="-969" rx="105.88" ry="18"/>
<text text-anchor="middle" x="286" y="-965.3" font-family="Times,serif" font-size="14.00">create_initialize_validators</text>
</g>
<!-- genesis::create_initialize_validators&#45;&gt;genesis::create_initialize_validators_with_commission -->
<g id="edge42" class="edge">
<title>genesis::create_initialize_validators&#45;&gt;genesis::create_initialize_validators_with_commission</title>
<path fill="none" stroke="black" d="M286,-950.7C286,-943.41 286,-934.73 286,-926.54"/>
<polygon fill="black" stroke="black" points="289.5,-926.62 286,-916.62 282.5,-926.62 289.5,-926.62"/>
</g>
<!-- vesting::distribute -->
<g id="node39" class="node">
<title>vesting::distribute</title>
<ellipse fill="none" stroke="black" cx="1021" cy="-675" rx="44.39" ry="18"/>
<text text-anchor="middle" x="1021" y="-671.3" font-family="Times,serif" font-size="14.00">distribute</text>
</g>
<!-- vesting::distribute&#45;&gt;vesting::withdraw_stake -->
<g id="edge43" class="edge">
<title>vesting::distribute&#45;&gt;vesting::withdraw_stake</title>
<path fill="none" stroke="black" d="M1021,-656.7C1021,-648.67 1021,-638.9 1021,-629.8"/>
<polygon fill="black" stroke="black" points="1024.5,-629.94 1021,-619.94 1017.5,-629.94 1024.5,-629.94"/>
</g>
<!-- vesting::admin_withdraw -->
<g id="node40" class="node">
<title>vesting::admin_withdraw</title>
<ellipse fill="none" stroke="black" cx="888" cy="-675" rx="70.69" ry="18"/>
<text text-anchor="middle" x="888" y="-671.3" font-family="Times,serif" font-size="14.00">admin_withdraw</text>
</g>
<!-- vesting::admin_withdraw&#45;&gt;vesting::withdraw_stake -->
<g id="edge44" class="edge">
<title>vesting::admin_withdraw&#45;&gt;vesting::withdraw_stake</title>
<path fill="none" stroke="black" d="M916.86,-658.16C936.16,-647.57 961.77,-633.51 982.77,-621.98"/>
<polygon fill="black" stroke="black" points="984.25,-625.17 991.33,-617.29 980.88,-619.03 984.25,-625.17"/>
</g>
<!-- vesting::update_operator_with_same_commission -->
<g id="node41" class="node">
<title>vesting::update_operator_with_same_commission</title>
<ellipse fill="none" stroke="black" cx="1349" cy="-747" rx="158.67" ry="18"/>
<text text-anchor="middle" x="1349" y="-743.3" font-family="Times,serif" font-size="14.00">update_operator_with_same_commission</text>
</g>
<!-- vesting::update_operator_with_same_commission&#45;&gt;vesting::update_operator -->
<g id="edge45" class="edge">
<title>vesting::update_operator_with_same_commission&#45;&gt;vesting::update_operator</title>
<path fill="none" stroke="black" d="M1371.49,-728.7C1382.99,-719.86 1397.14,-708.97 1409.59,-699.4"/>
<polygon fill="black" stroke="black" points="1411.71,-702.18 1417.5,-693.31 1407.44,-696.63 1411.71,-702.18"/>
</g>
<!-- staking_proxy::set_vesting_contract_operator -->
<g id="node42" class="node">
<title>staking_proxy::set_vesting_contract_operator</title>
<ellipse fill="none" stroke="black" cx="1928" cy="-747" rx="116.18" ry="18"/>
<text text-anchor="middle" x="1928" y="-743.3" font-family="Times,serif" font-size="14.00">set_vesting_contract_operator</text>
</g>
<!-- staking_proxy::set_vesting_contract_operator&#45;&gt;vesting::update_operator -->
<g id="edge46" class="edge">
<title>staking_proxy::set_vesting_contract_operator&#45;&gt;vesting::update_operator</title>
<path fill="none" stroke="black" d="M1844.94,-734.09C1750.58,-720.55 1598.27,-698.7 1509.8,-686.01"/>
<polygon fill="black" stroke="black" points="1510.44,-682.57 1500.04,-684.61 1509.44,-689.5 1510.44,-682.57"/>
</g>
<!-- staking_proxy::set_operator -->
<g id="node43" class="node">
<title>staking_proxy::set_operator</title>
<ellipse fill="none" stroke="black" cx="2053" cy="-822" rx="53.89" ry="18"/>
<text text-anchor="middle" x="2053" y="-818.3" font-family="Times,serif" font-size="14.00">set_operator</text>
</g>
<!-- staking_proxy::set_operator&#45;&gt;staking_proxy::set_staking_contract_operator -->
<g id="edge47" class="edge">
<title>staking_proxy::set_operator&#45;&gt;staking_proxy::set_staking_contract_operator</title>
<path fill="none" stroke="black" d="M2079.11,-805.87C2096.66,-795.7 2120.12,-782.11 2139.89,-770.66"/>
<polygon fill="black" stroke="black" points="2141.64,-773.69 2148.53,-765.65 2138.13,-767.64 2141.64,-773.69"/>
</g>
<!-- staking_proxy::set_operator&#45;&gt;staking_proxy::set_vesting_contract_operator -->
<g id="edge53" class="edge">
<title>staking_proxy::set_operator&#45;&gt;staking_proxy::set_vesting_contract_operator</title>
<path fill="none" stroke="black" d="M2027.1,-805.87C2009.68,-795.7 1986.41,-782.11 1966.8,-770.66"/>
<polygon fill="black" stroke="black" points="1968.63,-767.68 1958.23,-765.66 1965.1,-773.72 1968.63,-767.68"/>
</g>
<!-- vesting::unlock_rewards -->
<g id="node44" class="node">
<title>vesting::unlock_rewards</title>
<ellipse fill="none" stroke="black" cx="1287" cy="-675" rx="66.89" ry="18"/>
<text text-anchor="middle" x="1287" y="-671.3" font-family="Times,serif" font-size="14.00">unlock_rewards</text>
</g>
<!-- vesting::unlock_rewards&#45;&gt;staking_contract::unlock_rewards -->
<g id="edge48" class="edge">
<title>vesting::unlock_rewards&#45;&gt;staking_contract::unlock_rewards</title>
<path fill="none" stroke="black" d="M1334.62,-662.06C1343.97,-660.08 1353.76,-658.26 1363,-657 1432.23,-647.56 1451.91,-664.68 1520,-649 1545.59,-643.11 1572.72,-631.77 1593.98,-621.6"/>
<polygon fill="black" stroke="black" points="1595.42,-624.79 1602.86,-617.24 1592.34,-618.5 1595.42,-624.79"/>
</g>
<!-- vesting::terminate_vesting_contract -->
<g id="node45" class="node">
<title>vesting::terminate_vesting_contract</title>
<ellipse fill="none" stroke="black" cx="993" cy="-747" rx="106.68" ry="18"/>
<text text-anchor="middle" x="993" y="-743.3" font-family="Times,serif" font-size="14.00">terminate_vesting_contract</text>
</g>
<!-- vesting::terminate_vesting_contract&#45;&gt;vesting::unlock_stake -->
<g id="edge49" class="edge">
<title>vesting::terminate_vesting_contract&#45;&gt;vesting::unlock_stake</title>
<path fill="none" stroke="black" d="M1028.64,-729.59C1051.01,-719.29 1079.95,-705.96 1103.38,-695.17"/>
<polygon fill="black" stroke="black" points="1104.71,-698.41 1112.33,-691.04 1101.79,-692.05 1104.71,-698.41"/>
</g>
<!-- vesting::terminate_vesting_contract&#45;&gt;vesting::distribute -->
<g id="edge52" class="edge">
<title>vesting::terminate_vesting_contract&#45;&gt;vesting::distribute</title>
<path fill="none" stroke="black" d="M999.92,-728.7C1002.94,-721.15 1006.55,-712.12 1009.93,-703.68"/>
<polygon fill="black" stroke="black" points="1013.13,-705.09 1013.6,-694.51 1006.63,-702.49 1013.13,-705.09"/>
</g>
<!-- vesting::vest -->
<g id="node46" class="node">
<title>vesting::vest</title>
<ellipse fill="none" stroke="black" cx="1145" cy="-747" rx="27" ry="18"/>
<text text-anchor="middle" x="1145" y="-743.3" font-family="Times,serif" font-size="14.00">vest</text>
</g>
<!-- vesting::vest&#45;&gt;vesting::unlock_stake -->
<g id="edge50" class="edge">
<title>vesting::vest&#45;&gt;vesting::unlock_stake</title>
<path fill="none" stroke="black" d="M1145,-728.7C1145,-721.41 1145,-712.73 1145,-704.54"/>
<polygon fill="black" stroke="black" points="1148.5,-704.62 1145,-694.62 1141.5,-704.62 1148.5,-704.62"/>
</g>
<!-- vesting::vest&#45;&gt;vesting::unlock_rewards -->
<g id="edge54" class="edge">
<title>vesting::vest&#45;&gt;vesting::unlock_rewards</title>
<path fill="none" stroke="black" d="M1162.48,-732.79C1168.22,-728.74 1174.74,-724.46 1181,-721 1199.07,-711.03 1219.81,-701.78 1238.12,-694.3"/>
<polygon fill="black" stroke="black" points="1239.2,-697.63 1247.17,-690.66 1236.59,-691.14 1239.2,-697.63"/>
</g>
<!-- genesis::initialize_for_verification -->
<g id="node47" class="node">
<title>genesis::initialize_for_verification</title>
<ellipse fill="none" stroke="black" cx="286" cy="-1041" rx="100.98" ry="18"/>
<text text-anchor="middle" x="286" y="-1037.3" font-family="Times,serif" font-size="14.00">initialize_for_verification</text>
</g>
<!-- genesis::initialize_for_verification&#45;&gt;genesis::create_initialize_validators -->
<g id="edge51" class="edge">
<title>genesis::initialize_for_verification&#45;&gt;genesis::create_initialize_validators</title>
<path fill="none" stroke="black" d="M286,-1022.7C286,-1015.41 286,-1006.73 286,-998.54"/>
<polygon fill="black" stroke="black" points="289.5,-998.62 286,-988.62 282.5,-998.62 289.5,-998.62"/>
</g>
</g>
</svg>
