<?xml version="1.0" encoding="UTF-8" standalone="no"?>
<!DOCTYPE svg PUBLIC "-//W3C//DTD SVG 1.1//EN"
 "http://www.w3.org/Graphics/SVG/1.1/DTD/svg11.dtd">
<!-- Generated by graphviz version 7.0.0 (20221023.0053)
 -->
<!-- Title: G Pages: 1 -->
<svg width="1823pt" height="622pt"
 viewBox="0.00 0.00 1823.00 622.00" xmlns="http://www.w3.org/2000/svg" xmlns:xlink="http://www.w3.org/1999/xlink">
<g id="graph0" class="graph" transform="scale(1 1) rotate(0) translate(4 618)">
<title>G</title>
<polygon fill="white" stroke="none" points="-4,4 -4,-618 1819,-618 1819,4 -4,4"/>
<g id="clust8" class="cluster">
<title>cluster_optional_aggregator</title>
<polygon fill="none" stroke="black" points="591,-174 591,-332 716,-332 716,-174 591,-174"/>
<text text-anchor="middle" x="653.5" y="-316.8" font-family="Times,serif" font-size="14.00">optional_aggregator</text>
</g>
<g id="clust1" class="cluster">
<title>cluster_timestamp</title>
<polygon fill="none" stroke="black" points="20,-340 20,-498 194,-498 194,-340 20,-340"/>
<text text-anchor="middle" x="107" y="-482.8" font-family="Times,serif" font-size="14.00">timestamp</text>
</g>
<g id="clust2" class="cluster">
<title>cluster_staking_config</title>
<polygon fill="none" stroke="black" points="1152,-423 1152,-498 1807,-498 1807,-423 1152,-423"/>
<text text-anchor="middle" x="1479.5" y="-482.8" font-family="Times,serif" font-size="14.00">staking_config</text>
</g>
<g id="clust3" class="cluster">
<title>cluster_vector</title>
<polygon fill="none" stroke="black" points="68,-8 68,-83 172,-83 172,-8 68,-8"/>
<text text-anchor="middle" x="120" y="-67.8" font-family="Times,serif" font-size="14.00">vector</text>
</g>
<g id="clust4" class="cluster">
<title>cluster_event</title>
<polygon fill="none" stroke="black" points="202,-340 202,-498 388,-498 388,-340 202,-340"/>
<text text-anchor="middle" x="295" y="-482.8" font-family="Times,serif" font-size="14.00">event</text>
</g>
<g id="clust5" class="cluster">
<title>cluster_coin</title>
<polygon fill="none" stroke="black" points="724,-257 724,-415 1070,-415 1070,-257 724,-257"/>
<text text-anchor="middle" x="897" y="-399.8" font-family="Times,serif" font-size="14.00">coin</text>
</g>
<g id="clust6" class="cluster">
<title>cluster_bcs</title>
<polygon fill="none" stroke="black" points="396,-340 396,-415 492,-415 492,-340 396,-340"/>
<text text-anchor="middle" x="444" y="-399.8" font-family="Times,serif" font-size="14.00">bcs</text>
</g>
<g id="clust7" class="cluster">
<title>cluster_option</title>
<polygon fill="none" stroke="black" points="345,-91 345,-249 471,-249 471,-91 345,-91"/>
<text text-anchor="middle" x="408" y="-233.8" font-family="Times,serif" font-size="14.00">option</text>
</g>
<g id="clust9" class="cluster">
<title>cluster_aggregator</title>
<polygon fill="none" stroke="black" points="509,-174 509,-249 583,-249 583,-174 509,-174"/>
<text text-anchor="middle" x="546" y="-233.8" font-family="Times,serif" font-size="14.00">aggregator</text>
</g>
<g id="clust10" class="cluster">
<title>cluster_type_info</title>
<polygon fill="none" stroke="black" points="733,-174 733,-249 981,-249 981,-174 733,-174"/>
<text text-anchor="middle" x="857" y="-233.8" font-family="Times,serif" font-size="14.00">type_info</text>
</g>
<g id="clust11" class="cluster">
<title>cluster_error</title>
<polygon fill="none" stroke="black" points="585,-8 585,-166 717,-166 717,-8 585,-8"/>
<text text-anchor="middle" x="651" y="-150.8" font-family="Times,serif" font-size="14.00">error</text>
</g>
<!-- on_new_epoch -->
<g id="node1" class="node">
<title>on_new_epoch</title>
<ellipse fill="none" stroke="black" cx="1025" cy="-596" rx="63.89" ry="18"/>
<text text-anchor="middle" x="1025" y="-592.3" font-family="Times,serif" font-size="14.00">on_new_epoch</text>
</g>
<!-- timestamp::now_seconds -->
<g id="node2" class="node">
<title>timestamp::now_seconds</title>
<ellipse fill="none" stroke="black" cx="128" cy="-449" rx="57.69" ry="18"/>
<text text-anchor="middle" x="128" y="-445.3" font-family="Times,serif" font-size="14.00">now_seconds</text>
</g>
<!-- on_new_epoch&#45;&gt;timestamp::now_seconds -->
<g id="edge1" class="edge">
<title>on_new_epoch&#45;&gt;timestamp::now_seconds</title>
<path fill="none" stroke="black" d="M962.62,-591.56C795.09,-581.73 338.51,-550.71 198,-498 182.72,-492.27 167.56,-482.51 155.27,-473.28"/>
<polygon fill="black" stroke="black" points="157.71,-470.74 147.67,-467.34 153.39,-476.26 157.71,-470.74"/>
</g>
<!-- staking_config::get -->
<g id="node3" class="node">
<title>staking_config::get</title>
<ellipse fill="none" stroke="black" cx="1341" cy="-449" rx="27" ry="18"/>
<text text-anchor="middle" x="1341" y="-445.3" font-family="Times,serif" font-size="14.00">get</text>
</g>
<!-- on_new_epoch&#45;&gt;staking_config::get -->
<g id="edge2" class="edge">
<title>on_new_epoch&#45;&gt;staking_config::get</title>
<path fill="none" stroke="black" d="M1079.18,-586.07C1139.06,-574.1 1236.12,-548.26 1305,-498 1313.14,-492.06 1320.26,-483.76 1325.98,-475.73"/>
<polygon fill="black" stroke="black" points="1328.82,-477.79 1331.4,-467.51 1322.97,-473.94 1328.82,-477.79"/>
</g>
<!-- staking_config::get_recurring_lockup_duration -->
<g id="node4" class="node">
<title>staking_config::get_recurring_lockup_duration</title>
<ellipse fill="none" stroke="black" cx="1506" cy="-449" rx="120.48" ry="18"/>
<text text-anchor="middle" x="1506" y="-445.3" font-family="Times,serif" font-size="14.00">get_recurring_lockup_duration</text>
</g>
<!-- on_new_epoch&#45;&gt;staking_config::get_recurring_lockup_duration -->
<g id="edge3" class="edge">
<title>on_new_epoch&#45;&gt;staking_config::get_recurring_lockup_duration</title>
<path fill="none" stroke="black" d="M1078.86,-586.15C1129.54,-577.19 1207.25,-561.86 1273,-542 1339.05,-522.05 1412.71,-491.5 1459.19,-471.14"/>
<polygon fill="black" stroke="black" points="1460.42,-474.43 1468.16,-467.19 1457.6,-468.02 1460.42,-474.43"/>
</g>
<!-- staking_config::get_required_stake -->
<g id="node5" class="node">
<title>staking_config::get_required_stake</title>
<ellipse fill="none" stroke="black" cx="1722" cy="-449" rx="77.19" ry="18"/>
<text text-anchor="middle" x="1722" y="-445.3" font-family="Times,serif" font-size="14.00">get_required_stake</text>
</g>
<!-- on_new_epoch&#45;&gt;staking_config::get_required_stake -->
<g id="edge4" class="edge">
<title>on_new_epoch&#45;&gt;staking_config::get_required_stake</title>
<path fill="none" stroke="black" d="M1087.75,-592.16C1200.27,-585.51 1442.57,-564.11 1635,-498 1653.33,-491.7 1672.34,-481.68 1687.89,-472.42"/>
<polygon fill="black" stroke="black" points="1689.58,-475.49 1696.28,-467.29 1685.92,-469.52 1689.58,-475.49"/>
</g>
<!-- append -->
<g id="node6" class="node">
<title>append</title>
<ellipse fill="none" stroke="black" cx="84" cy="-117" rx="36.29" ry="18"/>
<text text-anchor="middle" x="84" y="-113.3" font-family="Times,serif" font-size="14.00">append</text>
</g>
<!-- on_new_epoch&#45;&gt;append -->
<g id="edge5" class="edge">
<title>on_new_epoch&#45;&gt;append</title>
<path fill="none" stroke="black" d="M961.15,-593.66C825.92,-590.19 500.89,-578.45 231,-542 121.48,-527.21 0,-560.51 0,-450 0,-450 0,-450 0,-282 0,-227.5 37.21,-172.9 62.09,-142.48"/>
<polygon fill="black" stroke="black" points="64.63,-144.9 68.39,-134.99 59.28,-140.39 64.63,-144.9"/>
</g>
<!-- generate_validator_info -->
<g id="node7" class="node">
<title>generate_validator_info</title>
<ellipse fill="none" stroke="black" cx="1025" cy="-524" rx="94.78" ry="18"/>
<text text-anchor="middle" x="1025" y="-520.3" font-family="Times,serif" font-size="14.00">generate_validator_info</text>
</g>
<!-- on_new_epoch&#45;&gt;generate_validator_info -->
<g id="edge6" class="edge">
<title>on_new_epoch&#45;&gt;generate_validator_info</title>
<path fill="none" stroke="black" d="M1025,-577.7C1025,-570.41 1025,-561.73 1025,-553.54"/>
<polygon fill="black" stroke="black" points="1028.5,-553.62 1025,-543.62 1021.5,-553.62 1028.5,-553.62"/>
</g>
<!-- update_stake_pool -->
<g id="node8" class="node">
<title>update_stake_pool</title>
<ellipse fill="none" stroke="black" cx="835" cy="-524" rx="76.89" ry="18"/>
<text text-anchor="middle" x="835" y="-520.3" font-family="Times,serif" font-size="14.00">update_stake_pool</text>
</g>
<!-- on_new_epoch&#45;&gt;update_stake_pool -->
<g id="edge7" class="edge">
<title>on_new_epoch&#45;&gt;update_stake_pool</title>
<path fill="none" stroke="black" d="M987.46,-581.17C958.31,-570.43 917.6,-555.43 885.58,-543.64"/>
<polygon fill="black" stroke="black" points="887.1,-540.46 876.5,-540.29 884.68,-547.03 887.1,-540.46"/>
</g>
<!-- timestamp::now_microseconds -->
<g id="node9" class="node">
<title>timestamp::now_microseconds</title>
<ellipse fill="none" stroke="black" cx="107" cy="-366" rx="79.09" ry="18"/>
<text text-anchor="middle" x="107" y="-362.3" font-family="Times,serif" font-size="14.00">now_microseconds</text>
</g>
<!-- timestamp::now_seconds&#45;&gt;timestamp::now_microseconds -->
<g id="edge8" class="edge">
<title>timestamp::now_seconds&#45;&gt;timestamp::now_microseconds</title>
<path fill="none" stroke="black" d="M123.55,-430.82C120.89,-420.58 117.45,-407.33 114.4,-395.55"/>
<polygon fill="black" stroke="black" points="117.8,-394.7 111.9,-385.9 111.02,-396.46 117.8,-394.7"/>
</g>
<!-- vector::is_empty -->
<g id="node10" class="node">
<title>vector::is_empty</title>
<ellipse fill="none" stroke="black" cx="120" cy="-34" rx="43.59" ry="18"/>
<text text-anchor="middle" x="120" y="-30.3" font-family="Times,serif" font-size="14.00">is_empty</text>
</g>
<!-- append&#45;&gt;vector::is_empty -->
<g id="edge9" class="edge">
<title>append&#45;&gt;vector::is_empty</title>
<path fill="none" stroke="black" d="M91.46,-99.22C96.21,-88.54 102.46,-74.46 107.91,-62.21"/>
<polygon fill="black" stroke="black" points="110.95,-63.98 111.81,-53.42 104.55,-61.14 110.95,-63.98"/>
</g>
<!-- get_next_epoch_voting_power -->
<g id="node11" class="node">
<title>get_next_epoch_voting_power</title>
<ellipse fill="none" stroke="black" cx="1023" cy="-449" rx="119.68" ry="18"/>
<text text-anchor="middle" x="1023" y="-445.3" font-family="Times,serif" font-size="14.00">get_next_epoch_voting_power</text>
</g>
<!-- generate_validator_info&#45;&gt;get_next_epoch_voting_power -->
<g id="edge10" class="edge">
<title>generate_validator_info&#45;&gt;get_next_epoch_voting_power</title>
<path fill="none" stroke="black" d="M1024.53,-505.7C1024.31,-497.67 1024.04,-487.9 1023.79,-478.8"/>
<polygon fill="black" stroke="black" points="1027.29,-478.84 1023.52,-468.94 1020.29,-479.03 1027.29,-478.84"/>
</g>
<!-- update_stake_pool&#45;&gt;timestamp::now_seconds -->
<g id="edge14" class="edge">
<title>update_stake_pool&#45;&gt;timestamp::now_seconds</title>
<path fill="none" stroke="black" d="M760.03,-519.52C680.96,-515.91 552.73,-510.21 442,-506 414.89,-504.97 223.77,-506.45 198,-498 182.27,-492.84 166.86,-482.96 154.52,-473.5"/>
<polygon fill="black" stroke="black" points="156.9,-470.92 146.91,-467.38 152.51,-476.38 156.9,-470.92"/>
</g>
<!-- event::emit_event -->
<g id="node12" class="node">
<title>event::emit_event</title>
<ellipse fill="none" stroke="black" cx="330" cy="-449" rx="50.09" ry="18"/>
<text text-anchor="middle" x="330" y="-445.3" font-family="Times,serif" font-size="14.00">emit_event</text>
</g>
<!-- update_stake_pool&#45;&gt;event::emit_event -->
<g id="edge11" class="edge">
<title>update_stake_pool&#45;&gt;event::emit_event</title>
<path fill="none" stroke="black" d="M769.19,-514.48C733.34,-509.77 688.21,-503.72 648,-498 556.41,-484.97 450.17,-468.7 386.61,-458.84"/>
<polygon fill="black" stroke="black" points="387.17,-455.38 376.75,-457.31 386.09,-462.3 387.17,-455.38"/>
</g>
<!-- coin::extract_all -->
<g id="node13" class="node">
<title>coin::extract_all</title>
<ellipse fill="none" stroke="black" cx="936" cy="-366" rx="48.19" ry="18"/>
<text text-anchor="middle" x="936" y="-362.3" font-family="Times,serif" font-size="14.00">extract_all</text>
</g>
<!-- update_stake_pool&#45;&gt;coin::extract_all -->
<g id="edge12" class="edge">
<title>update_stake_pool&#45;&gt;coin::extract_all</title>
<path fill="none" stroke="black" d="M844.85,-505.78C858.85,-481.4 883.93,-438.09 894,-423 900.88,-412.69 908.94,-401.7 916.16,-392.22"/>
<polygon fill="black" stroke="black" points="918.76,-394.57 922.09,-384.51 913.21,-390.3 918.76,-394.57"/>
</g>
<!-- coin::merge -->
<g id="node14" class="node">
<title>coin::merge</title>
<ellipse fill="none" stroke="black" cx="837" cy="-366" rx="33.29" ry="18"/>
<text text-anchor="middle" x="837" y="-362.3" font-family="Times,serif" font-size="14.00">merge</text>
</g>
<!-- update_stake_pool&#45;&gt;coin::merge -->
<g id="edge13" class="edge">
<title>update_stake_pool&#45;&gt;coin::merge</title>
<path fill="none" stroke="black" d="M835.22,-505.71C835.56,-479.12 836.22,-427.9 836.63,-395.69"/>
<polygon fill="black" stroke="black" points="840.13,-395.93 836.76,-385.88 833.13,-395.84 840.13,-395.93"/>
</g>
<!-- staking_config::get_reward_rate -->
<g id="node15" class="node">
<title>staking_config::get_reward_rate</title>
<ellipse fill="none" stroke="black" cx="1228" cy="-449" rx="67.69" ry="18"/>
<text text-anchor="middle" x="1228" y="-445.3" font-family="Times,serif" font-size="14.00">get_reward_rate</text>
</g>
<!-- update_stake_pool&#45;&gt;staking_config::get_reward_rate -->
<g id="edge15" class="edge">
<title>update_stake_pool&#45;&gt;staking_config::get_reward_rate</title>
<path fill="none" stroke="black" d="M889.39,-510.88C899.83,-508.94 910.72,-507.19 921,-506 972.03,-500.11 1102.91,-513.13 1152,-498 1168.8,-492.82 1185.53,-482.91 1199,-473.42"/>
<polygon fill="black" stroke="black" points="1200.99,-476.31 1206.97,-467.57 1196.84,-470.67 1200.99,-476.31"/>
</g>
<!-- distribute_rewards -->
<g id="node16" class="node">
<title>distribute_rewards</title>
<ellipse fill="none" stroke="black" cx="733" cy="-449" rx="76.09" ry="18"/>
<text text-anchor="middle" x="733" y="-445.3" font-family="Times,serif" font-size="14.00">distribute_rewards</text>
</g>
<!-- update_stake_pool&#45;&gt;distribute_rewards -->
<g id="edge16" class="edge">
<title>update_stake_pool&#45;&gt;distribute_rewards</title>
<path fill="none" stroke="black" d="M811.85,-506.44C798.03,-496.54 780.27,-483.83 765.1,-472.98"/>
<polygon fill="black" stroke="black" points="767.45,-470.35 757.28,-467.38 763.38,-476.05 767.45,-470.35"/>
</g>
<!-- coin::value -->
<g id="node17" class="node">
<title>coin::value</title>
<ellipse fill="none" stroke="black" cx="1032" cy="-366" rx="29.8" ry="18"/>
<text text-anchor="middle" x="1032" y="-362.3" font-family="Times,serif" font-size="14.00">value</text>
</g>
<!-- get_next_epoch_voting_power&#45;&gt;coin::value -->
<g id="edge17" class="edge">
<title>get_next_epoch_voting_power&#45;&gt;coin::value</title>
<path fill="none" stroke="black" d="M1024.91,-430.82C1026.05,-420.58 1027.52,-407.33 1028.83,-395.55"/>
<polygon fill="black" stroke="black" points="1032.27,-396.26 1029.9,-385.94 1025.31,-395.49 1032.27,-396.26"/>
</g>
<!-- bcs::to_bytes -->
<g id="node18" class="node">
<title>bcs::to_bytes</title>
<ellipse fill="none" stroke="black" cx="444" cy="-366" rx="40.09" ry="18"/>
<text text-anchor="middle" x="444" y="-362.3" font-family="Times,serif" font-size="14.00">to_bytes</text>
</g>
<!-- event::emit_event&#45;&gt;bcs::to_bytes -->
<g id="edge18" class="edge">
<title>event::emit_event&#45;&gt;bcs::to_bytes</title>
<path fill="none" stroke="black" d="M359.62,-434.2C370.19,-428.77 381.96,-422.13 392,-415 402.07,-407.85 412.25,-398.92 420.9,-390.7"/>
<polygon fill="black" stroke="black" points="423.18,-393.37 427.89,-383.88 418.29,-388.36 423.18,-393.37"/>
</g>
<!-- event::write_to_event_store -->
<g id="node19" class="node">
<title>event::write_to_event_store</title>
<ellipse fill="none" stroke="black" cx="295" cy="-366" rx="85.29" ry="18"/>
<text text-anchor="middle" x="295" y="-362.3" font-family="Times,serif" font-size="14.00">write_to_event_store</text>
</g>
<!-- event::emit_event&#45;&gt;event::write_to_event_store -->
<g id="edge19" class="edge">
<title>event::emit_event&#45;&gt;event::write_to_event_store</title>
<path fill="none" stroke="black" d="M322.58,-430.82C318.03,-420.3 312.11,-406.59 306.91,-394.57"/>
<polygon fill="black" stroke="black" points="310.19,-393.33 303.01,-385.54 303.77,-396.11 310.19,-393.33"/>
</g>
<!-- distribute_rewards&#45;&gt;coin::merge -->
<g id="edge21" class="edge">
<title>distribute_rewards&#45;&gt;coin::merge</title>
<path fill="none" stroke="black" d="M767.2,-432.63C776.64,-427.65 786.59,-421.67 795,-415 803.45,-408.3 811.54,-399.75 818.33,-391.74"/>
<polygon fill="black" stroke="black" points="820.86,-394.18 824.44,-384.21 815.42,-389.77 820.86,-394.18"/>
</g>
<!-- distribute_rewards&#45;&gt;coin::value -->
<g id="edge20" class="edge">
<title>distribute_rewards&#45;&gt;coin::value</title>
<path fill="none" stroke="black" d="M792.87,-437.63C823.12,-432.67 860.43,-426.96 894,-423 915.92,-420.42 973.47,-425.28 993,-415 1002.66,-409.91 1010.81,-401.29 1017.11,-392.74"/>
<polygon fill="black" stroke="black" points="1019.92,-394.83 1022.58,-384.58 1014.11,-390.94 1019.92,-394.83"/>
</g>
<!-- coin::mint -->
<g id="node20" class="node">
<title>coin::mint</title>
<ellipse fill="none" stroke="black" cx="759" cy="-366" rx="27.1" ry="18"/>
<text text-anchor="middle" x="759" y="-362.3" font-family="Times,serif" font-size="14.00">mint</text>
</g>
<!-- distribute_rewards&#45;&gt;coin::mint -->
<g id="edge22" class="edge">
<title>distribute_rewards&#45;&gt;coin::mint</title>
<path fill="none" stroke="black" d="M738.51,-430.82C741.88,-420.33 746.26,-406.68 750.11,-394.7"/>
<polygon fill="black" stroke="black" points="753.4,-395.91 753.12,-385.32 746.73,-393.77 753.4,-395.91"/>
</g>
<!-- calculate_rewards_amount -->
<g id="node21" class="node">
<title>calculate_rewards_amount</title>
<ellipse fill="none" stroke="black" cx="608" cy="-366" rx="105.08" ry="18"/>
<text text-anchor="middle" x="608" y="-362.3" font-family="Times,serif" font-size="14.00">calculate_rewards_amount</text>
</g>
<!-- distribute_rewards&#45;&gt;calculate_rewards_amount -->
<g id="edge23" class="edge">
<title>distribute_rewards&#45;&gt;calculate_rewards_amount</title>
<path fill="none" stroke="black" d="M707.7,-431.61C689.31,-419.69 664.16,-403.39 643.72,-390.15"/>
<polygon fill="black" stroke="black" points="645.68,-387.25 635.39,-384.75 641.88,-393.12 645.68,-387.25"/>
</g>
<!-- option::borrow_mut -->
<g id="node22" class="node">
<title>option::borrow_mut</title>
<ellipse fill="none" stroke="black" cx="408" cy="-200" rx="54.69" ry="18"/>
<text text-anchor="middle" x="408" y="-196.3" font-family="Times,serif" font-size="14.00">borrow_mut</text>
</g>
<!-- coin::mint&#45;&gt;option::borrow_mut -->
<g id="edge24" class="edge">
<title>coin::mint&#45;&gt;option::borrow_mut</title>
<path fill="none" stroke="black" d="M742.71,-351.24C736.59,-346.85 729.34,-342.49 722,-340 665.07,-320.71 643.78,-351.71 587,-332 523.21,-309.86 462.84,-256.6 431.12,-225.23"/>
<polygon fill="black" stroke="black" points="433.92,-223.08 424.39,-218.46 428.95,-228.02 433.92,-223.08"/>
</g>
<!-- option::is_some -->
<g id="node23" class="node">
<title>option::is_some</title>
<ellipse fill="none" stroke="black" cx="400" cy="-117" rx="40.09" ry="18"/>
<text text-anchor="middle" x="400" y="-113.3" font-family="Times,serif" font-size="14.00">is_some</text>
</g>
<!-- coin::mint&#45;&gt;option::is_some -->
<g id="edge25" class="edge">
<title>coin::mint&#45;&gt;option::is_some</title>
<path fill="none" stroke="black" d="M742.74,-351.12C736.64,-346.72 729.38,-342.38 722,-340 666.99,-322.23 516.84,-350.29 462,-332 401.17,-311.72 373.55,-305.91 344,-249 328.64,-219.42 331.24,-204.8 344,-174 349.47,-160.8 359.72,-149.09 369.98,-139.84"/>
<polygon fill="black" stroke="black" points="371.94,-142.76 377.33,-133.64 367.43,-137.41 371.94,-142.76"/>
</g>
<!-- optional_aggregator::add -->
<g id="node24" class="node">
<title>optional_aggregator::add</title>
<ellipse fill="none" stroke="black" cx="626" cy="-283" rx="27" ry="18"/>
<text text-anchor="middle" x="626" y="-279.3" font-family="Times,serif" font-size="14.00">add</text>
</g>
<!-- coin::mint&#45;&gt;optional_aggregator::add -->
<g id="edge26" class="edge">
<title>coin::mint&#45;&gt;optional_aggregator::add</title>
<path fill="none" stroke="black" d="M740.71,-352.3C734.8,-348.28 728.17,-343.88 722,-340 700.22,-326.31 675.09,-311.69 656.01,-300.83"/>
<polygon fill="black" stroke="black" points="657.83,-297.84 647.4,-295.95 654.38,-303.93 657.83,-297.84"/>
</g>
<!-- coin::coin_address -->
<g id="node25" class="node">
<title>coin::coin_address</title>
<ellipse fill="none" stroke="black" cx="789" cy="-283" rx="56.59" ry="18"/>
<text text-anchor="middle" x="789" y="-279.3" font-family="Times,serif" font-size="14.00">coin_address</text>
</g>
<!-- coin::mint&#45;&gt;coin::coin_address -->
<g id="edge27" class="edge">
<title>coin::mint&#45;&gt;coin::coin_address</title>
<path fill="none" stroke="black" d="M765.22,-348.22C769.11,-337.72 774.21,-323.93 778.7,-311.82"/>
<polygon fill="black" stroke="black" points="781.87,-313.33 782.06,-302.74 775.3,-310.9 781.87,-313.33"/>
</g>
<!-- coin::zero -->
<g id="node26" class="node">
<title>coin::zero</title>
<ellipse fill="none" stroke="black" cx="891" cy="-283" rx="27" ry="18"/>
<text text-anchor="middle" x="891" y="-279.3" font-family="Times,serif" font-size="14.00">zero</text>
</g>
<!-- coin::mint&#45;&gt;coin::zero -->
<g id="edge28" class="edge">
<title>coin::mint&#45;&gt;coin::zero</title>
<path fill="none" stroke="black" d="M775.27,-351.27C781.14,-346.99 788.05,-342.69 795,-340 820.08,-330.28 831.79,-345.6 855,-332 863.91,-326.78 871.33,-318.4 877.06,-310.09"/>
<polygon fill="black" stroke="black" points="879.88,-312.18 882.21,-301.85 873.94,-308.47 879.88,-312.18"/>
</g>
<!-- option::borrow_mut&#45;&gt;option::is_some -->
<g id="edge29" class="edge">
<title>option::borrow_mut&#45;&gt;option::is_some</title>
<path fill="none" stroke="black" d="M406.3,-181.82C405.29,-171.58 403.98,-158.33 402.82,-146.55"/>
<polygon fill="black" stroke="black" points="406.34,-146.55 401.87,-136.94 399.37,-147.23 406.34,-146.55"/>
</g>
<!-- option::is_some&#45;&gt;vector::is_empty -->
<g id="edge30" class="edge">
<title>option::is_some&#45;&gt;vector::is_empty</title>
<path fill="none" stroke="black" d="M366.78,-106.39C316.8,-91.93 222.13,-64.54 165.69,-48.22"/>
<polygon fill="black" stroke="black" points="166.96,-44.94 156.39,-45.53 165.02,-51.67 166.96,-44.94"/>
</g>
<!-- optional_aggregator::add&#45;&gt;option::borrow_mut -->
<g id="edge31" class="edge">
<title>optional_aggregator::add&#45;&gt;option::borrow_mut</title>
<path fill="none" stroke="black" d="M600.24,-276.86C560.65,-268.88 488.19,-253.9 477,-249 462.55,-242.67 448,-233.13 436.01,-224.21"/>
<polygon fill="black" stroke="black" points="438.25,-221.52 428.2,-218.2 433.98,-227.07 438.25,-221.52"/>
</g>
<!-- optional_aggregator::add&#45;&gt;option::is_some -->
<g id="edge32" class="edge">
<title>optional_aggregator::add&#45;&gt;option::is_some</title>
<path fill="none" stroke="black" d="M598.85,-281.15C572.06,-278.95 531.39,-271.74 505,-249 477.41,-225.23 494.39,-202.72 472,-174 461.27,-160.23 446.43,-147.94 433.01,-138.4"/>
<polygon fill="black" stroke="black" points="435.05,-135.56 424.81,-132.81 431.1,-141.34 435.05,-135.56"/>
</g>
<!-- aggregator::add -->
<g id="node27" class="node">
<title>aggregator::add</title>
<ellipse fill="none" stroke="black" cx="548" cy="-200" rx="27" ry="18"/>
<text text-anchor="middle" x="548" y="-196.3" font-family="Times,serif" font-size="14.00">add</text>
</g>
<!-- optional_aggregator::add&#45;&gt;aggregator::add -->
<g id="edge33" class="edge">
<title>optional_aggregator::add&#45;&gt;aggregator::add</title>
<path fill="none" stroke="black" d="M609.08,-268.84C601.99,-263.04 593.83,-255.97 587,-249 579.95,-241.8 572.82,-233.43 566.63,-225.72"/>
<polygon fill="black" stroke="black" points="569.46,-223.65 560.54,-217.94 563.95,-227.97 569.46,-223.65"/>
</g>
<!-- optional_aggregator::add_integer -->
<g id="node28" class="node">
<title>optional_aggregator::add_integer</title>
<ellipse fill="none" stroke="black" cx="651" cy="-200" rx="51.99" ry="18"/>
<text text-anchor="middle" x="651" y="-196.3" font-family="Times,serif" font-size="14.00">add_integer</text>
</g>
<!-- optional_aggregator::add&#45;&gt;optional_aggregator::add_integer -->
<g id="edge34" class="edge">
<title>optional_aggregator::add&#45;&gt;optional_aggregator::add_integer</title>
<path fill="none" stroke="black" d="M631.18,-265.22C634.39,-254.82 638.59,-241.21 642.3,-229.19"/>
<polygon fill="black" stroke="black" points="645.6,-230.35 645.21,-219.77 638.91,-228.29 645.6,-230.35"/>
</g>
<!-- type_info::account_address -->
<g id="node29" class="node">
<title>type_info::account_address</title>
<ellipse fill="none" stroke="black" cx="904" cy="-200" rx="68.79" ry="18"/>
<text text-anchor="middle" x="904" y="-196.3" font-family="Times,serif" font-size="14.00">account_address</text>
</g>
<!-- coin::coin_address&#45;&gt;type_info::account_address -->
<g id="edge35" class="edge">
<title>coin::coin_address&#45;&gt;type_info::account_address</title>
<path fill="none" stroke="black" d="M811.45,-266.19C828.56,-254.14 852.37,-237.37 871.55,-223.86"/>
<polygon fill="black" stroke="black" points="873.42,-226.82 879.58,-218.2 869.39,-221.09 873.42,-226.82"/>
</g>
<!-- type_info::type_of -->
<g id="node30" class="node">
<title>type_info::type_of</title>
<ellipse fill="none" stroke="black" cx="779" cy="-200" rx="37.89" ry="18"/>
<text text-anchor="middle" x="779" y="-196.3" font-family="Times,serif" font-size="14.00">type_of</text>
</g>
<!-- coin::coin_address&#45;&gt;type_info::type_of -->
<g id="edge36" class="edge">
<title>coin::coin_address&#45;&gt;type_info::type_of</title>
<path fill="none" stroke="black" d="M786.88,-264.82C785.62,-254.58 783.98,-241.33 782.52,-229.55"/>
<polygon fill="black" stroke="black" points="786.04,-229.43 781.34,-219.93 779.09,-230.29 786.04,-229.43"/>
</g>
<!-- error::out_of_range -->
<g id="node31" class="node">
<title>error::out_of_range</title>
<ellipse fill="none" stroke="black" cx="651" cy="-117" rx="57.69" ry="18"/>
<text text-anchor="middle" x="651" y="-113.3" font-family="Times,serif" font-size="14.00">out_of_range</text>
</g>
<!-- optional_aggregator::add_integer&#45;&gt;error::out_of_range -->
<g id="edge37" class="edge">
<title>optional_aggregator::add_integer&#45;&gt;error::out_of_range</title>
<path fill="none" stroke="black" d="M651,-181.82C651,-171.69 651,-158.6 651,-146.92"/>
<polygon fill="black" stroke="black" points="654.5,-146.95 651,-136.95 647.5,-146.95 654.5,-146.95"/>
</g>
<!-- error::canonical -->
<g id="node32" class="node">
<title>error::canonical</title>
<ellipse fill="none" stroke="black" cx="651" cy="-34" rx="44.39" ry="18"/>
<text text-anchor="middle" x="651" y="-30.3" font-family="Times,serif" font-size="14.00">canonical</text>
</g>
<!-- error::out_of_range&#45;&gt;error::canonical -->
<g id="edge38" class="edge">
<title>error::out_of_range&#45;&gt;error::canonical</title>
<path fill="none" stroke="black" d="M651,-98.82C651,-88.69 651,-75.6 651,-63.92"/>
<polygon fill="black" stroke="black" points="654.5,-63.95 651,-53.95 647.5,-63.95 654.5,-63.95"/>
</g>
</g>
</svg>
