<?xml version="1.0" encoding="UTF-8" standalone="no"?>
<!DOCTYPE svg PUBLIC "-//W3C//DTD SVG 1.1//EN"
 "http://www.w3.org/Graphics/SVG/1.1/DTD/svg11.dtd">
<!-- Generated by graphviz version 7.0.0 (20221023.0053)
 -->
<!-- Title: G Pages: 1 -->
<svg width="2266pt" height="764pt"
 viewBox="0.00 0.00 2266.00 764.00" xmlns="http://www.w3.org/2000/svg" xmlns:xlink="http://www.w3.org/1999/xlink">
<g id="graph0" class="graph" transform="scale(1 1) rotate(0) translate(4 760)">
<title>G</title>
<polygon fill="white" stroke="none" points="-4,4 -4,-760 2262,-760 2262,4 -4,4"/>
<!-- staking_contract -->
<g id="node1" class="node">
<title>staking_contract</title>
<ellipse fill="none" stroke="black" cx="875" cy="-738" rx="68.79" ry="18"/>
<text text-anchor="middle" x="875" y="-734.3" font-family="Times,serif" font-size="14.00">staking_contract</text>
</g>
<!-- vector -->
<g id="node2" class="node">
<title>vector</title>
<ellipse fill="none" stroke="black" cx="760" cy="-18" rx="32.49" ry="18"/>
<text text-anchor="middle" x="760" y="-14.3" font-family="Times,serif" font-size="14.00">vector</text>
</g>
<!-- staking_contract&#45;&gt;vector -->
<g id="edge1" class="edge">
<title>staking_contract&#45;&gt;vector</title>
<path fill="none" stroke="black" d="M943.41,-735.63C1182.81,-730.6 1974.49,-712.02 2085,-684 2168.82,-662.75 2258,-681.47 2258,-595 2258,-595 2258,-595 2258,-161 2258,-88.76 2190.81,-93.98 2122,-72 1994.17,-31.17 1023.6,-21.09 804.05,-19.32"/>
<polygon fill="black" stroke="black" points="804.25,-15.82 794.22,-19.24 804.19,-22.82 804.25,-15.82"/>
</g>
<!-- signer -->
<g id="node3" class="node">
<title>signer</title>
<ellipse fill="none" stroke="black" cx="2044" cy="-90" rx="32.49" ry="18"/>
<text text-anchor="middle" x="2044" y="-86.3" font-family="Times,serif" font-size="14.00">signer</text>
</g>
<!-- staking_contract&#45;&gt;signer -->
<g id="edge2" class="edge">
<title>staking_contract&#45;&gt;signer</title>
<path fill="none" stroke="black" d="M944.01,-737.04C1218.77,-736.29 2220,-724.66 2220,-595 2220,-595 2220,-595 2220,-305 2220,-223.02 2186.72,-203.19 2130,-144 2115.53,-128.9 2095.88,-116.37 2079.01,-107.29"/>
<polygon fill="black" stroke="black" points="2080.78,-104.26 2070.29,-102.78 2077.57,-110.48 2080.78,-104.26"/>
</g>
<!-- error -->
<g id="node4" class="node">
<title>error</title>
<ellipse fill="none" stroke="black" cx="1506" cy="-90" rx="27.9" ry="18"/>
<text text-anchor="middle" x="1506" y="-86.3" font-family="Times,serif" font-size="14.00">error</text>
</g>
<!-- staking_contract&#45;&gt;error -->
<g id="edge3" class="edge">
<title>staking_contract&#45;&gt;error</title>
<path fill="none" stroke="black" d="M943.82,-736.35C1203.06,-733.01 2106,-712.92 2106,-595 2106,-595 2106,-595 2106,-305 2106,-189.15 2007.73,-189.07 1901,-144 1837.31,-117.1 1632.33,-99.9 1545.48,-93.65"/>
<polygon fill="black" stroke="black" points="1545.77,-90.16 1535.55,-92.95 1545.27,-97.14 1545.77,-90.16"/>
</g>
<!-- bcs -->
<g id="node5" class="node">
<title>bcs</title>
<ellipse fill="none" stroke="black" cx="531" cy="-234" rx="27" ry="18"/>
<text text-anchor="middle" x="531" y="-230.3" font-family="Times,serif" font-size="14.00">bcs</text>
</g>
<!-- staking_contract&#45;&gt;bcs -->
<g id="edge4" class="edge">
<title>staking_contract&#45;&gt;bcs</title>
<path fill="none" stroke="black" d="M807.71,-733.86C707.53,-728.24 524.79,-714.14 467,-684 419.58,-659.26 386,-648.48 386,-595 386,-595 386,-595 386,-521 386,-412.97 469.32,-304.37 509.64,-258.15"/>
<polygon fill="black" stroke="black" points="512.07,-260.69 516.09,-250.89 506.84,-256.04 512.07,-260.69"/>
</g>
<!-- event -->
<g id="node6" class="node">
<title>event</title>
<ellipse fill="none" stroke="black" cx="520" cy="-378" rx="29.8" ry="18"/>
<text text-anchor="middle" x="520" y="-374.3" font-family="Times,serif" font-size="14.00">event</text>
</g>
<!-- staking_contract&#45;&gt;event -->
<g id="edge5" class="edge">
<title>staking_contract&#45;&gt;event</title>
<path fill="none" stroke="black" d="M811.82,-730.46C687.69,-715.84 424,-675.34 424,-595 424,-595 424,-595 424,-521 424,-471.06 465.26,-425.56 493.68,-400.15"/>
<polygon fill="black" stroke="black" points="495.97,-402.81 501.25,-393.62 491.39,-397.51 495.97,-402.81"/>
</g>
<!-- account -->
<g id="node7" class="node">
<title>account</title>
<ellipse fill="none" stroke="black" cx="946" cy="-450" rx="38.19" ry="18"/>
<text text-anchor="middle" x="946" y="-446.3" font-family="Times,serif" font-size="14.00">account</text>
</g>
<!-- staking_contract&#45;&gt;account -->
<g id="edge6" class="edge">
<title>staking_contract&#45;&gt;account</title>
<path fill="none" stroke="black" d="M879.33,-719.54C891.22,-671.66 924.41,-537.95 938.99,-479.24"/>
<polygon fill="black" stroke="black" points="942.35,-480.25 941.36,-469.7 935.55,-478.56 942.35,-480.25"/>
</g>
<!-- coin -->
<g id="node8" class="node">
<title>coin</title>
<ellipse fill="none" stroke="black" cx="1262" cy="-522" rx="27" ry="18"/>
<text text-anchor="middle" x="1262" y="-518.3" font-family="Times,serif" font-size="14.00">coin</text>
</g>
<!-- staking_contract&#45;&gt;coin -->
<g id="edge7" class="edge">
<title>staking_contract&#45;&gt;coin</title>
<path fill="none" stroke="black" d="M899.68,-720.77C927.88,-702.42 975.63,-671.98 1018,-648 1092.74,-605.69 1183.34,-560.92 1230.32,-538.18"/>
<polygon fill="black" stroke="black" points="1231.62,-541.44 1239.11,-533.94 1228.58,-535.13 1231.62,-541.44"/>
</g>
<!-- aptos_coin -->
<g id="node9" class="node">
<title>aptos_coin</title>
<ellipse fill="none" stroke="black" cx="1262" cy="-594" rx="48.99" ry="18"/>
<text text-anchor="middle" x="1262" y="-590.3" font-family="Times,serif" font-size="14.00">aptos_coin</text>
</g>
<!-- staking_contract&#45;&gt;aptos_coin -->
<g id="edge8" class="edge">
<title>staking_contract&#45;&gt;aptos_coin</title>
<path fill="none" stroke="black" d="M913.88,-722.73C986.22,-696.19 1141.09,-639.37 1217.49,-611.33"/>
<polygon fill="black" stroke="black" points="1218.57,-614.66 1226.76,-607.93 1216.16,-608.09 1218.57,-614.66"/>
</g>
<!-- simple_map -->
<g id="node10" class="node">
<title>simple_map</title>
<ellipse fill="none" stroke="black" cx="190" cy="-378" rx="54.69" ry="18"/>
<text text-anchor="middle" x="190" y="-374.3" font-family="Times,serif" font-size="14.00">simple_map</text>
</g>
<!-- staking_contract&#45;&gt;simple_map -->
<g id="edge9" class="edge">
<title>staking_contract&#45;&gt;simple_map</title>
<path fill="none" stroke="black" d="M807.26,-734.72C688.7,-729.92 448.85,-716.44 372,-684 315.01,-659.95 265,-656.86 265,-595 265,-595 265,-595 265,-521 265,-475.86 235,-431.02 212.95,-404.15"/>
<polygon fill="black" stroke="black" points="215.66,-401.94 206.52,-396.58 210.32,-406.47 215.66,-401.94"/>
</g>
<!-- staking_config -->
<g id="node11" class="node">
<title>staking_config</title>
<ellipse fill="none" stroke="black" cx="1992" cy="-522" rx="63.09" ry="18"/>
<text text-anchor="middle" x="1992" y="-518.3" font-family="Times,serif" font-size="14.00">staking_config</text>
</g>
<!-- staking_contract&#45;&gt;staking_config -->
<g id="edge10" class="edge">
<title>staking_contract&#45;&gt;staking_config</title>
<path fill="none" stroke="black" d="M943.48,-735.28C1120.29,-730.44 1588.88,-714.99 1741,-684 1834.8,-664.89 1871.31,-674.29 1944,-612 1962.83,-595.86 1975.5,-570.43 1983.07,-550.88"/>
<polygon fill="black" stroke="black" points="1986.32,-552.18 1986.43,-541.58 1979.74,-549.8 1986.32,-552.18"/>
</g>
<!-- stake -->
<g id="node12" class="node">
<title>stake</title>
<ellipse fill="none" stroke="black" cx="1703" cy="-666" rx="28.7" ry="18"/>
<text text-anchor="middle" x="1703" y="-662.3" font-family="Times,serif" font-size="14.00">stake</text>
</g>
<!-- staking_contract&#45;&gt;stake -->
<g id="edge11" class="edge">
<title>staking_contract&#45;&gt;stake</title>
<path fill="none" stroke="black" d="M939.63,-731.54C1103.29,-717.7 1530.53,-681.58 1663.14,-670.37"/>
<polygon fill="black" stroke="black" points="1663.15,-673.88 1672.82,-669.55 1662.56,-666.91 1663.15,-673.88"/>
</g>
<!-- pool_u64 -->
<g id="node13" class="node">
<title>pool_u64</title>
<ellipse fill="none" stroke="black" cx="161" cy="-450" rx="44.39" ry="18"/>
<text text-anchor="middle" x="161" y="-446.3" font-family="Times,serif" font-size="14.00">pool_u64</text>
</g>
<!-- staking_contract&#45;&gt;pool_u64 -->
<g id="edge12" class="edge">
<title>staking_contract&#45;&gt;pool_u64</title>
<path fill="none" stroke="black" d="M806.74,-735.24C654.01,-730.74 294.68,-716.76 251,-684 185.14,-634.61 167.46,-530.33 162.73,-479.74"/>
<polygon fill="black" stroke="black" points="166.23,-479.57 161.93,-469.89 159.25,-480.14 166.23,-479.57"/>
</g>
<!-- event&#45;&gt;bcs -->
<g id="edge13" class="edge">
<title>event&#45;&gt;bcs</title>
<path fill="none" stroke="black" d="M518.55,-359.54C517.34,-341.55 516.24,-312.72 519,-288 519.92,-279.81 521.6,-271.04 523.43,-263.04"/>
<polygon fill="black" stroke="black" points="526.79,-264.04 525.77,-253.49 519.99,-262.37 526.79,-264.04"/>
</g>
<!-- guid -->
<g id="node14" class="node">
<title>guid</title>
<ellipse fill="none" stroke="black" cx="555" cy="-306" rx="27" ry="18"/>
<text text-anchor="middle" x="555" y="-302.3" font-family="Times,serif" font-size="14.00">guid</text>
</g>
<!-- event&#45;&gt;guid -->
<g id="edge14" class="edge">
<title>event&#45;&gt;guid</title>
<path fill="none" stroke="black" d="M528.29,-360.41C532.3,-352.39 537.22,-342.57 541.73,-333.54"/>
<polygon fill="black" stroke="black" points="544.75,-335.33 546.09,-324.82 538.49,-332.2 544.75,-335.33"/>
</g>
<!-- account&#45;&gt;vector -->
<g id="edge15" class="edge">
<title>account&#45;&gt;vector</title>
<path fill="none" stroke="black" d="M960.52,-432.9C989.55,-398.95 1052,-316.47 1052,-235 1052,-235 1052,-235 1052,-161 1052,-52.07 885.61,-26.68 804.04,-20.78"/>
<polygon fill="black" stroke="black" points="804.36,-17.29 794.16,-20.14 803.91,-24.28 804.36,-17.29"/>
</g>
<!-- account&#45;&gt;signer -->
<g id="edge17" class="edge">
<title>account&#45;&gt;signer</title>
<path fill="none" stroke="black" d="M981.83,-443.18C1015.59,-436.33 1066.33,-422.37 1103,-396 1151.93,-360.81 1134.24,-320.49 1185,-288 1247.49,-248 1275.64,-268.36 1348,-252 1597.48,-195.6 1896.7,-125.58 2003.61,-100.49"/>
<polygon fill="black" stroke="black" points="2004.11,-103.97 2013.04,-98.28 2002.51,-97.16 2004.11,-103.97"/>
</g>
<!-- account&#45;&gt;error -->
<g id="edge18" class="edge">
<title>account&#45;&gt;error</title>
<path fill="none" stroke="black" d="M972.63,-436.84C991.58,-427.39 1016.94,-413.05 1036,-396 1080.72,-356 1074.21,-330.06 1117,-288 1194.85,-211.47 1217.66,-191.41 1316,-144 1365.87,-119.96 1428.52,-105.15 1467.93,-97.49"/>
<polygon fill="black" stroke="black" points="1468.46,-100.96 1477.64,-95.67 1467.16,-94.08 1468.46,-100.96"/>
</g>
<!-- account&#45;&gt;bcs -->
<g id="edge23" class="edge">
<title>account&#45;&gt;bcs</title>
<path fill="none" stroke="black" d="M909.89,-443.42C840.57,-432.51 693.89,-408.31 674,-396 622.52,-364.15 632.32,-332.24 591,-288 580.4,-276.65 567.63,-265.12 556.59,-255.72"/>
<polygon fill="black" stroke="black" points="558.9,-253.08 548.98,-249.34 554.4,-258.45 558.9,-253.08"/>
</g>
<!-- account&#45;&gt;event -->
<g id="edge28" class="edge">
<title>account&#45;&gt;event</title>
<path fill="none" stroke="black" d="M908.03,-446.64C838.72,-441.7 687.48,-427.96 564,-396 560.88,-395.19 557.68,-394.23 554.49,-393.18"/>
<polygon fill="black" stroke="black" points="555.9,-389.97 545.3,-389.89 553.53,-396.56 555.9,-389.97"/>
</g>
<!-- account&#45;&gt;guid -->
<g id="edge26" class="edge">
<title>account&#45;&gt;guid</title>
<path fill="none" stroke="black" d="M908.93,-445.18C825.19,-436.3 626.76,-413.64 602,-396 581.56,-381.44 569.26,-355.21 562.4,-334.98"/>
<polygon fill="black" stroke="black" points="565.81,-334.15 559.5,-325.63 559.12,-336.22 565.81,-334.15"/>
</g>
<!-- option -->
<g id="node15" class="node">
<title>option</title>
<ellipse fill="none" stroke="black" cx="760" cy="-90" rx="33.29" ry="18"/>
<text text-anchor="middle" x="760" y="-86.3" font-family="Times,serif" font-size="14.00">option</text>
</g>
<!-- account&#45;&gt;option -->
<g id="edge16" class="edge">
<title>account&#45;&gt;option</title>
<path fill="none" stroke="black" d="M907.96,-446.77C868.28,-442.58 806.33,-430.54 766,-396 732.78,-367.55 724,-350.74 724,-307 724,-307 724,-307 724,-233 724,-192.09 738.21,-146.54 748.78,-118.32"/>
<polygon fill="black" stroke="black" points="751.99,-119.7 752.34,-109.11 745.47,-117.17 751.99,-119.7"/>
</g>
<!-- type_info -->
<g id="node16" class="node">
<title>type_info</title>
<ellipse fill="none" stroke="black" cx="1295" cy="-234" rx="44.39" ry="18"/>
<text text-anchor="middle" x="1295" y="-230.3" font-family="Times,serif" font-size="14.00">type_info</text>
</g>
<!-- account&#45;&gt;type_info -->
<g id="edge19" class="edge">
<title>account&#45;&gt;type_info</title>
<path fill="none" stroke="black" d="M979.38,-440.69C1006.88,-432.63 1045.79,-418.3 1074,-396 1120.45,-359.28 1104.87,-323.84 1152,-288 1179.38,-267.18 1215.79,-253.84 1245.02,-245.76"/>
<polygon fill="black" stroke="black" points="1245.6,-249.22 1254.38,-243.29 1243.81,-242.45 1245.6,-249.22"/>
</g>
<!-- table -->
<g id="node17" class="node">
<title>table</title>
<ellipse fill="none" stroke="black" cx="1222" cy="-306" rx="27.9" ry="18"/>
<text text-anchor="middle" x="1222" y="-302.3" font-family="Times,serif" font-size="14.00">table</text>
</g>
<!-- account&#45;&gt;table -->
<g id="edge20" class="edge">
<title>account&#45;&gt;table</title>
<path fill="none" stroke="black" d="M983.81,-446.28C1027.04,-441.64 1098.48,-429.2 1150,-396 1174.47,-380.23 1194.51,-353.37 1207.18,-333.28"/>
<polygon fill="black" stroke="black" points="1210.14,-335.14 1212.33,-324.77 1204.15,-331.51 1210.14,-335.14"/>
</g>
<!-- system_addresses -->
<g id="node18" class="node">
<title>system_addresses</title>
<ellipse fill="none" stroke="black" cx="1739" cy="-306" rx="73.39" ry="18"/>
<text text-anchor="middle" x="1739" y="-302.3" font-family="Times,serif" font-size="14.00">system_addresses</text>
</g>
<!-- account&#45;&gt;system_addresses -->
<g id="edge21" class="edge">
<title>account&#45;&gt;system_addresses</title>
<path fill="none" stroke="black" d="M983.89,-446.45C1062.54,-440.76 1248.99,-425.17 1403,-396 1503.47,-376.97 1618.14,-344.14 1684.2,-324.12"/>
<polygon fill="black" stroke="black" points="1685.17,-327.48 1693.72,-321.22 1683.13,-320.78 1685.17,-327.48"/>
</g>
<!-- hash -->
<g id="node19" class="node">
<title>hash</title>
<ellipse fill="none" stroke="black" cx="853" cy="-234" rx="27" ry="18"/>
<text text-anchor="middle" x="853" y="-230.3" font-family="Times,serif" font-size="14.00">hash</text>
</g>
<!-- account&#45;&gt;hash -->
<g id="edge22" class="edge">
<title>account&#45;&gt;hash</title>
<path fill="none" stroke="black" d="M907.57,-448.76C868.52,-446.21 809.8,-435.51 781,-396 748.38,-351.26 797.77,-289.39 829.59,-256.91"/>
<polygon fill="black" stroke="black" points="831.91,-259.54 836.55,-250.01 826.99,-254.57 831.91,-259.54"/>
</g>
<!-- ed25519 -->
<g id="node20" class="node">
<title>ed25519</title>
<ellipse fill="none" stroke="black" cx="907" cy="-306" rx="40.89" ry="18"/>
<text text-anchor="middle" x="907" y="-302.3" font-family="Times,serif" font-size="14.00">ed25519</text>
</g>
<!-- account&#45;&gt;ed25519 -->
<g id="edge24" class="edge">
<title>account&#45;&gt;ed25519</title>
<path fill="none" stroke="black" d="M943.11,-431.75C939.9,-413.68 934.21,-384.56 927,-360 924.52,-351.57 921.34,-342.56 918.24,-334.41"/>
<polygon fill="black" stroke="black" points="921.61,-333.41 914.7,-325.37 915.09,-335.96 921.61,-333.41"/>
</g>
<!-- multi_ed25519 -->
<g id="node21" class="node">
<title>multi_ed25519</title>
<ellipse fill="none" stroke="black" cx="854" cy="-378" rx="64.19" ry="18"/>
<text text-anchor="middle" x="854" y="-374.3" font-family="Times,serif" font-size="14.00">multi_ed25519</text>
</g>
<!-- account&#45;&gt;multi_ed25519 -->
<g id="edge25" class="edge">
<title>account&#45;&gt;multi_ed25519</title>
<path fill="none" stroke="black" d="M926.49,-434.15C914.32,-424.89 898.39,-412.78 884.57,-402.26"/>
<polygon fill="black" stroke="black" points="886.69,-399.48 876.61,-396.21 882.45,-405.05 886.69,-399.48"/>
</g>
<!-- from_bcs -->
<g id="node22" class="node">
<title>from_bcs</title>
<ellipse fill="none" stroke="black" cx="636" cy="-234" rx="44.39" ry="18"/>
<text text-anchor="middle" x="636" y="-230.3" font-family="Times,serif" font-size="14.00">from_bcs</text>
</g>
<!-- account&#45;&gt;from_bcs -->
<g id="edge27" class="edge">
<title>account&#45;&gt;from_bcs</title>
<path fill="none" stroke="black" d="M909.05,-444.73C850.59,-437.32 740.27,-420.5 710,-396 668.25,-362.21 649.03,-299.62 641.02,-263.23"/>
<polygon fill="black" stroke="black" points="644.55,-262.98 639.11,-253.89 637.69,-264.39 644.55,-262.98"/>
</g>
<!-- coin&#45;&gt;signer -->
<g id="edge31" class="edge">
<title>coin&#45;&gt;signer</title>
<path fill="none" stroke="black" d="M1287.07,-514.86C1318.2,-506.67 1372.38,-490.54 1415,-468 1533.49,-405.33 1543.09,-358.66 1657,-288 1781.37,-210.86 1939.64,-137.44 2008.89,-106.45"/>
<polygon fill="black" stroke="black" points="2010.13,-109.73 2017.84,-102.46 2007.28,-103.33 2010.13,-109.73"/>
</g>
<!-- coin&#45;&gt;error -->
<g id="edge32" class="edge">
<title>coin&#45;&gt;error</title>
<path fill="none" stroke="black" d="M1287.01,-514.66C1313.22,-507.04 1354.47,-492.16 1383,-468 1440.96,-418.92 1442.21,-392.5 1475,-324 1510.3,-250.25 1518.36,-225.59 1513,-144 1512.47,-136 1511.51,-127.38 1510.46,-119.45"/>
<polygon fill="black" stroke="black" points="1513.93,-119.03 1509.06,-109.63 1507,-120.02 1513.93,-119.03"/>
</g>
<!-- coin&#45;&gt;event -->
<g id="edge35" class="edge">
<title>coin&#45;&gt;event</title>
<path fill="none" stroke="black" d="M1235.15,-518.04C1141.79,-507.35 823.19,-467.55 569,-396 564.69,-394.79 560.2,-393.4 555.77,-391.96"/>
<polygon fill="black" stroke="black" points="557.03,-388.69 546.43,-388.8 554.78,-395.32 557.03,-388.69"/>
</g>
<!-- coin&#45;&gt;account -->
<g id="edge36" class="edge">
<title>coin&#45;&gt;account</title>
<path fill="none" stroke="black" d="M1236.41,-515.33C1182.79,-503.45 1058.1,-475.83 990.87,-460.94"/>
<polygon fill="black" stroke="black" points="991.8,-457.56 981.28,-458.82 990.29,-464.4 991.8,-457.56"/>
</g>
<!-- coin&#45;&gt;option -->
<g id="edge29" class="edge">
<title>coin&#45;&gt;option</title>
<path fill="none" stroke="black" d="M1234.88,-521.41C1107.7,-522.67 572.8,-520.46 481,-396 456.61,-362.93 417.19,-326.51 495,-216 547.55,-141.37 656.62,-109.95 717.17,-97.83"/>
<polygon fill="black" stroke="black" points="717.59,-101.31 726.75,-96 716.28,-94.44 717.59,-101.31"/>
</g>
<!-- coin&#45;&gt;type_info -->
<g id="edge33" class="edge">
<title>coin&#45;&gt;type_info</title>
<path fill="none" stroke="black" d="M1284.06,-511.28C1303.42,-502.04 1331.58,-486.78 1352,-468 1380.87,-441.46 1391.11,-433.37 1403,-396 1418.11,-348.53 1404.49,-326.6 1373,-288 1361.9,-274.4 1346.41,-262.89 1332.16,-254.11"/>
<polygon fill="black" stroke="black" points="1334.26,-251.28 1323.86,-249.24 1330.71,-257.32 1334.26,-251.28"/>
</g>
<!-- coin&#45;&gt;system_addresses -->
<g id="edge34" class="edge">
<title>coin&#45;&gt;system_addresses</title>
<path fill="none" stroke="black" d="M1289.23,-520.62C1342.08,-518.9 1461.15,-510.24 1550,-468 1619.98,-434.73 1684.87,-368.8 1717.32,-332.48"/>
<polygon fill="black" stroke="black" points="1719.87,-334.88 1723.85,-325.06 1714.62,-330.25 1719.87,-334.88"/>
</g>
<!-- string -->
<g id="node23" class="node">
<title>string</title>
<ellipse fill="none" stroke="black" cx="386" cy="-162" rx="30.59" ry="18"/>
<text text-anchor="middle" x="386" y="-158.3" font-family="Times,serif" font-size="14.00">string</text>
</g>
<!-- coin&#45;&gt;string -->
<g id="edge30" class="edge">
<title>coin&#45;&gt;string</title>
<path fill="none" stroke="black" d="M1234.65,-520.12C1108.95,-515.96 590.05,-497.1 524,-468 449.3,-435.09 435.43,-401.57 410,-324 395.32,-279.23 389.58,-224.5 387.37,-191.76"/>
<polygon fill="black" stroke="black" points="390.87,-191.64 386.77,-181.87 383.88,-192.06 390.87,-191.64"/>
</g>
<!-- optional_aggregator -->
<g id="node24" class="node">
<title>optional_aggregator</title>
<ellipse fill="none" stroke="black" cx="1262" cy="-450" rx="81.49" ry="18"/>
<text text-anchor="middle" x="1262" y="-446.3" font-family="Times,serif" font-size="14.00">optional_aggregator</text>
</g>
<!-- coin&#45;&gt;optional_aggregator -->
<g id="edge37" class="edge">
<title>coin&#45;&gt;optional_aggregator</title>
<path fill="none" stroke="black" d="M1262,-503.7C1262,-496.41 1262,-487.73 1262,-479.54"/>
<polygon fill="black" stroke="black" points="1265.5,-479.62 1262,-469.62 1258.5,-479.62 1265.5,-479.62"/>
</g>
<!-- aptos_coin&#45;&gt;vector -->
<g id="edge38" class="edge">
<title>aptos_coin&#45;&gt;vector</title>
<path fill="none" stroke="black" d="M1212.83,-593.17C1017.44,-593.03 297.34,-584.47 108,-468 34.61,-422.85 0,-393.16 0,-307 0,-307 0,-307 0,-161 0,-109.84 27.63,-95.64 73,-72 129.88,-42.36 573.64,-25.18 716.12,-20.39"/>
<polygon fill="black" stroke="black" points="716.01,-23.9 725.89,-20.07 715.78,-16.9 716.01,-23.9"/>
</g>
<!-- aptos_coin&#45;&gt;signer -->
<g id="edge41" class="edge">
<title>aptos_coin&#45;&gt;signer</title>
<path fill="none" stroke="black" d="M1308.31,-587.65C1456.88,-569.5 1917.37,-505.23 2011,-396 2079.42,-316.17 2061.95,-178.11 2050.36,-119.08"/>
<polygon fill="black" stroke="black" points="2053.84,-118.62 2048.39,-109.53 2046.98,-120.03 2053.84,-118.62"/>
</g>
<!-- aptos_coin&#45;&gt;error -->
<g id="edge42" class="edge">
<title>aptos_coin&#45;&gt;error</title>
<path fill="none" stroke="black" d="M1304,-584.23C1346.03,-574.99 1412.29,-559.12 1468,-540 1641.97,-480.31 1739.79,-489.03 1821,-324 1866.53,-231.48 1743.18,-179.74 1685,-144 1640.95,-116.94 1582.31,-103.03 1544.35,-96.38"/>
<polygon fill="black" stroke="black" points="1545.21,-92.97 1534.77,-94.79 1544.06,-99.88 1545.21,-92.97"/>
</g>
<!-- aptos_coin&#45;&gt;coin -->
<g id="edge44" class="edge">
<title>aptos_coin&#45;&gt;coin</title>
<path fill="none" stroke="black" d="M1262,-575.7C1262,-568.41 1262,-559.73 1262,-551.54"/>
<polygon fill="black" stroke="black" points="1265.5,-551.62 1262,-541.62 1258.5,-551.62 1265.5,-551.62"/>
</g>
<!-- aptos_coin&#45;&gt;option -->
<g id="edge39" class="edge">
<title>aptos_coin&#45;&gt;option</title>
<path fill="none" stroke="black" d="M1213.31,-591.37C1075.6,-586.45 685.24,-570.15 561,-540 521.13,-530.33 514.36,-518.55 476,-504 429.09,-486.2 412.05,-493.77 369,-468 308.83,-431.99 306.97,-405.94 254,-360 234.65,-343.22 220.1,-347.08 209,-324 176.58,-256.55 241.18,-172.29 282,-144 351.47,-95.86 610,-90.71 715.12,-90.67"/>
<polygon fill="black" stroke="black" points="715.05,-94.17 725.06,-90.68 715.06,-87.17 715.05,-94.17"/>
</g>
<!-- aptos_coin&#45;&gt;system_addresses -->
<g id="edge43" class="edge">
<title>aptos_coin&#45;&gt;system_addresses</title>
<path fill="none" stroke="black" d="M1296.24,-580.66C1375.11,-552.15 1564.93,-482.98 1592,-468 1638.36,-442.35 1651.85,-435.64 1687,-396 1703.38,-377.53 1717.2,-353.13 1726.47,-334.55"/>
<polygon fill="black" stroke="black" points="1729.53,-336.26 1730.73,-325.73 1723.23,-333.21 1729.53,-336.26"/>
</g>
<!-- aptos_coin&#45;&gt;string -->
<g id="edge40" class="edge">
<title>aptos_coin&#45;&gt;string</title>
<path fill="none" stroke="black" d="M1212.86,-593.66C1084.13,-593.65 728.61,-582.47 463,-468 403.65,-442.42 348,-443.63 348,-379 348,-379 348,-379 348,-305 348,-263.95 363,-218.43 374.15,-190.26"/>
<polygon fill="black" stroke="black" points="377.37,-191.64 377.92,-181.06 370.89,-188.99 377.37,-191.64"/>
</g>
<!-- simple_map&#45;&gt;error -->
<g id="edge46" class="edge">
<title>simple_map&#45;&gt;error</title>
<path fill="none" stroke="black" d="M190.91,-359.66C192.51,-341 196.91,-310.92 209,-288 250.22,-209.87 265.63,-180.66 346,-144 398.02,-120.27 1268.9,-96.97 1466.39,-91.98"/>
<polygon fill="black" stroke="black" points="1466.48,-95.48 1476.38,-91.73 1466.3,-88.48 1466.48,-95.48"/>
</g>
<!-- simple_map&#45;&gt;option -->
<g id="edge45" class="edge">
<title>simple_map&#45;&gt;option</title>
<path fill="none" stroke="black" d="M167.87,-361.29C156.64,-351.9 144.1,-338.92 138,-324 107.74,-249.94 83.89,-202.92 138,-144 176.91,-101.63 579.1,-93.09 715.24,-91.4"/>
<polygon fill="black" stroke="black" points="714.98,-94.91 724.93,-91.29 714.89,-87.91 714.98,-94.91"/>
</g>
<!-- comparator -->
<g id="node25" class="node">
<title>comparator</title>
<ellipse fill="none" stroke="black" cx="269" cy="-306" rx="51.19" ry="18"/>
<text text-anchor="middle" x="269" y="-302.3" font-family="Times,serif" font-size="14.00">comparator</text>
</g>
<!-- simple_map&#45;&gt;comparator -->
<g id="edge47" class="edge">
<title>simple_map&#45;&gt;comparator</title>
<path fill="none" stroke="black" d="M208.32,-360.76C218.39,-351.84 231.07,-340.61 242.23,-330.72"/>
<polygon fill="black" stroke="black" points="244.48,-333.4 249.64,-324.15 239.84,-328.16 244.48,-333.4"/>
</g>
<!-- staking_config&#45;&gt;error -->
<g id="edge48" class="edge">
<title>staking_config&#45;&gt;error</title>
<path fill="none" stroke="black" d="M1999.69,-503.91C2010.79,-477.62 2030,-425.45 2030,-379 2030,-379 2030,-379 2030,-305 2030,-279.39 1887.95,-155.37 1865,-144 1809.36,-116.44 1626.6,-99.9 1545.44,-93.75"/>
<polygon fill="black" stroke="black" points="1545.74,-90.26 1535.51,-93.01 1545.22,-97.24 1545.74,-90.26"/>
</g>
<!-- staking_config&#45;&gt;system_addresses -->
<g id="edge49" class="edge">
<title>staking_config&#45;&gt;system_addresses</title>
<path fill="none" stroke="black" d="M1972.57,-504.56C1928.25,-467.08 1819.54,-375.12 1767.57,-331.16"/>
<polygon fill="black" stroke="black" points="1769.9,-328.55 1760,-324.77 1765.38,-333.9 1769.9,-328.55"/>
</g>
<!-- stake&#45;&gt;vector -->
<g id="edge50" class="edge">
<title>stake&#45;&gt;vector</title>
<path fill="none" stroke="black" d="M1731.88,-665.38C1835.45,-665.09 2182,-649.33 2182,-451 2182,-451 2182,-451 2182,-305 2182,-192.83 2182,-128.33 2085,-72 2028.43,-39.15 1027.68,-22.85 804.07,-19.61"/>
<polygon fill="black" stroke="black" points="804.39,-16.11 794.34,-19.47 804.28,-23.11 804.39,-16.11"/>
</g>
<!-- stake&#45;&gt;signer -->
<g id="edge52" class="edge">
<title>stake&#45;&gt;signer</title>
<path fill="none" stroke="black" d="M1731.34,-661.79C1777.29,-655.92 1870.35,-641.28 1944,-612 1997.02,-590.92 2144,-508.06 2144,-451 2144,-451 2144,-451 2144,-233 2144,-182.45 2101.11,-137.21 2071.51,-112"/>
<polygon fill="black" stroke="black" points="2073.92,-109.45 2063.98,-105.8 2069.47,-114.86 2073.92,-109.45"/>
</g>
<!-- stake&#45;&gt;error -->
<g id="edge53" class="edge">
<title>stake&#45;&gt;error</title>
<path fill="none" stroke="black" d="M1724.95,-653.97C1753.6,-639.49 1800.41,-615.49 1803,-612 1907.92,-470.41 1917.79,-364.56 1823,-216 1762.24,-120.77 1615.75,-98.06 1545.23,-92.66"/>
<polygon fill="black" stroke="black" points="1545.51,-89.18 1535.29,-91.99 1545.04,-96.16 1545.51,-89.18"/>
</g>
<!-- stake&#45;&gt;event -->
<g id="edge55" class="edge">
<title>stake&#45;&gt;event</title>
<path fill="none" stroke="black" d="M1674.04,-663.75C1596.93,-660.02 1380.46,-647 1204,-612 981.35,-567.83 926.6,-547.53 714,-468 655.63,-446.16 590.22,-414.6 552.21,-395.52"/>
<polygon fill="black" stroke="black" points="554.11,-392.56 543.6,-391.17 550.95,-398.81 554.11,-392.56"/>
</g>
<!-- stake&#45;&gt;account -->
<g id="edge56" class="edge">
<title>stake&#45;&gt;account</title>
<path fill="none" stroke="black" d="M1679.87,-655.03C1626.82,-632.18 1500.59,-577.82 1496,-576 1408.95,-541.49 1388.75,-527.09 1298,-504 1191.56,-476.92 1063.26,-461.9 994.75,-455.24"/>
<polygon fill="black" stroke="black" points="995.27,-451.77 984.99,-454.31 994.61,-458.74 995.27,-451.77"/>
</g>
<!-- stake&#45;&gt;coin -->
<g id="edge57" class="edge">
<title>stake&#45;&gt;coin</title>
<path fill="none" stroke="black" d="M1677.71,-656.86C1602.91,-632.77 1382.69,-561.86 1296.83,-534.22"/>
<polygon fill="black" stroke="black" points="1298.14,-530.96 1287.55,-531.23 1295.99,-537.62 1298.14,-530.96"/>
</g>
<!-- stake&#45;&gt;aptos_coin -->
<g id="edge58" class="edge">
<title>stake&#45;&gt;aptos_coin</title>
<path fill="none" stroke="black" d="M1675.41,-660.62C1604.11,-649.3 1412.64,-618.91 1317.39,-603.79"/>
<polygon fill="black" stroke="black" points="1318.18,-600.37 1307.76,-602.26 1317.08,-607.29 1318.18,-600.37"/>
</g>
<!-- stake&#45;&gt;staking_config -->
<g id="edge60" class="edge">
<title>stake&#45;&gt;staking_config</title>
<path fill="none" stroke="black" d="M1731.56,-662.93C1773.59,-658.78 1853.34,-646.64 1911,-612 1937.16,-596.28 1959.85,-569.52 1974.5,-549.44"/>
<polygon fill="black" stroke="black" points="1977.24,-551.62 1980.15,-541.43 1971.53,-547.58 1977.24,-551.62"/>
</g>
<!-- stake&#45;&gt;option -->
<g id="edge51" class="edge">
<title>stake&#45;&gt;option</title>
<path fill="none" stroke="black" d="M1692.5,-648.95C1644.33,-575.78 1442.77,-274.84 1348,-216 1169.78,-105.35 908.93,-91.4 805.08,-90.51"/>
<polygon fill="black" stroke="black" points="805.31,-87.01 795.3,-90.47 805.28,-94.01 805.31,-87.01"/>
</g>
<!-- stake&#45;&gt;system_addresses -->
<g id="edge54" class="edge">
<title>stake&#45;&gt;system_addresses</title>
<path fill="none" stroke="black" d="M1724.46,-653.83C1745.9,-642.18 1776.58,-623.96 1783,-612 1832.6,-519.65 1780.5,-389.99 1753.32,-334.24"/>
<polygon fill="black" stroke="black" points="1756.53,-332.84 1748.93,-325.46 1750.27,-335.97 1756.53,-332.84"/>
</g>
<!-- timestamp -->
<g id="node26" class="node">
<title>timestamp</title>
<ellipse fill="none" stroke="black" cx="1954" cy="-378" rx="48.19" ry="18"/>
<text text-anchor="middle" x="1954" y="-374.3" font-family="Times,serif" font-size="14.00">timestamp</text>
</g>
<!-- stake&#45;&gt;timestamp -->
<g id="edge59" class="edge">
<title>stake&#45;&gt;timestamp</title>
<path fill="none" stroke="black" d="M1724.29,-653.53C1728.44,-651.53 1732.8,-649.59 1737,-648 1795.49,-625.9 1827.14,-654.51 1873,-612 1888.57,-597.57 1928.61,-465.71 1945.88,-406.99"/>
<polygon fill="black" stroke="black" points="1949.14,-408.31 1948.59,-397.73 1942.42,-406.34 1949.14,-408.31"/>
</g>
<!-- math64 -->
<g id="node27" class="node">
<title>math64</title>
<ellipse fill="none" stroke="black" cx="1736" cy="-594" rx="37.89" ry="18"/>
<text text-anchor="middle" x="1736" y="-590.3" font-family="Times,serif" font-size="14.00">math64</text>
</g>
<!-- stake&#45;&gt;math64 -->
<g id="edge61" class="edge">
<title>stake&#45;&gt;math64</title>
<path fill="none" stroke="black" d="M1710.82,-648.41C1714.51,-640.59 1719,-631.06 1723.16,-622.23"/>
<polygon fill="black" stroke="black" points="1726.26,-623.86 1727.36,-613.33 1719.93,-620.88 1726.26,-623.86"/>
</g>
<!-- bls12381 -->
<g id="node28" class="node">
<title>bls12381</title>
<ellipse fill="none" stroke="black" cx="1435" cy="-162" rx="42.79" ry="18"/>
<text text-anchor="middle" x="1435" y="-158.3" font-family="Times,serif" font-size="14.00">bls12381</text>
</g>
<!-- stake&#45;&gt;bls12381 -->
<g id="edge62" class="edge">
<title>stake&#45;&gt;bls12381</title>
<path fill="none" stroke="black" d="M1698.55,-648.03C1685.68,-600.52 1645.65,-462.95 1588,-360 1550.16,-292.42 1490.52,-223.12 1458.01,-187.48"/>
<polygon fill="black" stroke="black" points="1460.73,-185.27 1451.38,-180.28 1455.58,-190.01 1460.73,-185.27"/>
</g>
<!-- pool_u64&#45;&gt;vector -->
<g id="edge63" class="edge">
<title>pool_u64&#45;&gt;vector</title>
<path fill="none" stroke="black" d="M135.51,-434.78C99.49,-412.57 38,-366.03 38,-307 38,-307 38,-307 38,-161 38,-22.04 559.43,-16.71 716.04,-18.24"/>
<polygon fill="black" stroke="black" points="715.55,-21.74 725.59,-18.35 715.63,-14.74 715.55,-21.74"/>
</g>
<!-- pool_u64&#45;&gt;error -->
<g id="edge64" class="edge">
<title>pool_u64&#45;&gt;error</title>
<path fill="none" stroke="black" d="M146.55,-432.64C138.81,-422.77 130.06,-409.52 126,-396 112.11,-349.75 115.9,-330.94 138,-288 179.42,-207.52 199.15,-180.44 282,-144 337.42,-119.63 1262.7,-96.68 1466.5,-91.91"/>
<polygon fill="black" stroke="black" points="1466.38,-95.41 1476.3,-91.68 1466.22,-88.41 1466.38,-95.41"/>
</g>
<!-- pool_u64&#45;&gt;simple_map -->
<g id="edge65" class="edge">
<title>pool_u64&#45;&gt;simple_map</title>
<path fill="none" stroke="black" d="M168.02,-432.05C171.18,-424.43 174.99,-415.23 178.54,-406.65"/>
<polygon fill="black" stroke="black" points="181.67,-408.25 182.26,-397.67 175.2,-405.57 181.67,-408.25"/>
</g>
<!-- option&#45;&gt;vector -->
<g id="edge66" class="edge">
<title>option&#45;&gt;vector</title>
<path fill="none" stroke="black" d="M760,-71.7C760,-64.41 760,-55.73 760,-47.54"/>
<polygon fill="black" stroke="black" points="763.5,-47.62 760,-37.62 756.5,-47.62 763.5,-47.62"/>
</g>
<!-- type_info&#45;&gt;error -->
<g id="edge68" class="edge">
<title>type_info&#45;&gt;error</title>
<path fill="none" stroke="black" d="M1301.42,-215.77C1309.71,-195.78 1325.98,-163.12 1350,-144 1384.33,-116.67 1433.54,-103.06 1467.46,-96.54"/>
<polygon fill="black" stroke="black" points="1468.06,-99.99 1477.28,-94.79 1466.83,-93.1 1468.06,-99.99"/>
</g>
<!-- type_info&#45;&gt;string -->
<g id="edge67" class="edge">
<title>type_info&#45;&gt;string</title>
<path fill="none" stroke="black" d="M1251.46,-229.65C1097.34,-217.78 578.79,-177.85 427.66,-166.21"/>
<polygon fill="black" stroke="black" points="427.96,-162.72 417.72,-165.44 427.42,-169.7 427.96,-162.72"/>
</g>
<!-- features -->
<g id="node29" class="node">
<title>features</title>
<ellipse fill="none" stroke="black" cx="1610" cy="-162" rx="38.19" ry="18"/>
<text text-anchor="middle" x="1610" y="-158.3" font-family="Times,serif" font-size="14.00">features</text>
</g>
<!-- type_info&#45;&gt;features -->
<g id="edge69" class="edge">
<title>type_info&#45;&gt;features</title>
<path fill="none" stroke="black" d="M1333.31,-224.49C1391.66,-211.52 1502.56,-186.88 1564.77,-173.05"/>
<polygon fill="black" stroke="black" points="1565.32,-176.51 1574.32,-170.93 1563.8,-169.68 1565.32,-176.51"/>
</g>
<!-- system_addresses&#45;&gt;signer -->
<g id="edge70" class="edge">
<title>system_addresses&#45;&gt;signer</title>
<path fill="none" stroke="black" d="M1796.83,-294.62C1860.72,-280.1 1962.2,-247.55 2020,-180 2034.32,-163.26 2040.18,-138.8 2042.54,-119.75"/>
<polygon fill="black" stroke="black" points="2046.01,-120.22 2043.47,-109.94 2039.04,-119.56 2046.01,-120.22"/>
</g>
<!-- system_addresses&#45;&gt;error -->
<g id="edge71" class="edge">
<title>system_addresses&#45;&gt;error</title>
<path fill="none" stroke="black" d="M1734.76,-287.53C1725.91,-254.76 1702.45,-183.75 1657,-144 1625.1,-116.1 1577.62,-102.63 1544.44,-96.3"/>
<polygon fill="black" stroke="black" points="1545.29,-92.9 1534.84,-94.61 1544.08,-99.79 1545.29,-92.9"/>
</g>
<!-- ed25519&#45;&gt;error -->
<g id="edge73" class="edge">
<title>ed25519&#45;&gt;error</title>
<path fill="none" stroke="black" d="M921.74,-288.82C953.3,-255.35 1031.31,-178.74 1114,-144 1177.27,-117.42 1380.65,-100.04 1466.83,-93.69"/>
<polygon fill="black" stroke="black" points="1466.95,-97.19 1476.67,-92.98 1466.45,-90.21 1466.95,-97.19"/>
</g>
<!-- ed25519&#45;&gt;bcs -->
<g id="edge76" class="edge">
<title>ed25519&#45;&gt;bcs</title>
<path fill="none" stroke="black" d="M867.71,-300.55C806.36,-293.17 684.34,-276.7 583,-252 577.21,-250.59 571.13,-248.85 565.26,-247.02"/>
<polygon fill="black" stroke="black" points="566.37,-243.7 555.77,-243.94 564.2,-250.36 566.37,-243.7"/>
</g>
<!-- ed25519&#45;&gt;option -->
<g id="edge72" class="edge">
<title>ed25519&#45;&gt;option</title>
<path fill="none" stroke="black" d="M906.5,-287.57C905.3,-268.83 901.4,-238.68 889,-216 864.7,-171.56 819.31,-133.19 789.37,-111.08"/>
<polygon fill="black" stroke="black" points="791.62,-108.39 781.46,-105.37 787.52,-114.07 791.62,-108.39"/>
</g>
<!-- ed25519&#45;&gt;type_info -->
<g id="edge74" class="edge">
<title>ed25519&#45;&gt;type_info</title>
<path fill="none" stroke="black" d="M944.56,-298.22C1014.43,-285.62 1164.5,-258.54 1243.67,-244.26"/>
<polygon fill="black" stroke="black" points="1244.11,-247.74 1253.33,-242.52 1242.87,-240.85 1244.11,-247.74"/>
</g>
<!-- ed25519&#45;&gt;hash -->
<g id="edge75" class="edge">
<title>ed25519&#45;&gt;hash</title>
<path fill="none" stroke="black" d="M894.2,-288.41C887.56,-279.8 879.31,-269.11 871.95,-259.56"/>
<polygon fill="black" stroke="black" points="874.77,-257.49 865.89,-251.71 869.23,-261.76 874.77,-257.49"/>
</g>
<!-- multi_ed25519&#45;&gt;error -->
<g id="edge78" class="edge">
<title>multi_ed25519&#45;&gt;error</title>
<path fill="none" stroke="black" d="M885.61,-361.92C906.26,-351.79 933.62,-337.8 957,-324 1080.56,-251.05 1092.23,-198.41 1225,-144 1306.96,-110.41 1411.16,-97.9 1466.79,-93.4"/>
<polygon fill="black" stroke="black" points="1467.01,-96.89 1476.72,-92.65 1466.48,-89.91 1467.01,-96.89"/>
</g>
<!-- multi_ed25519&#45;&gt;bcs -->
<g id="edge80" class="edge">
<title>multi_ed25519&#45;&gt;bcs</title>
<path fill="none" stroke="black" d="M820.35,-362.21C757.85,-334.73 624.66,-276.17 563.24,-249.17"/>
<polygon fill="black" stroke="black" points="564.94,-246.1 554.37,-245.28 562.12,-252.5 564.94,-246.1"/>
</g>
<!-- multi_ed25519&#45;&gt;option -->
<g id="edge77" class="edge">
<title>multi_ed25519&#45;&gt;option</title>
<path fill="none" stroke="black" d="M848.4,-359.97C832.73,-312.28 788.3,-177.11 769.06,-118.58"/>
<polygon fill="black" stroke="black" points="772.49,-117.79 766.04,-109.38 765.84,-119.98 772.49,-117.79"/>
</g>
<!-- multi_ed25519&#45;&gt;hash -->
<g id="edge79" class="edge">
<title>multi_ed25519&#45;&gt;hash</title>
<path fill="none" stroke="black" d="M853.88,-359.59C853.71,-335.61 853.4,-292.14 853.2,-263.42"/>
<polygon fill="black" stroke="black" points="856.7,-263.6 853.13,-253.62 849.7,-263.65 856.7,-263.6"/>
</g>
<!-- multi_ed25519&#45;&gt;ed25519 -->
<g id="edge81" class="edge">
<title>multi_ed25519&#45;&gt;ed25519</title>
<path fill="none" stroke="black" d="M866.83,-360.05C873.11,-351.77 880.79,-341.62 887.75,-332.42"/>
<polygon fill="black" stroke="black" points="890.49,-334.6 893.74,-324.51 884.91,-330.37 890.49,-334.6"/>
</g>
<!-- from_bcs&#45;&gt;string -->
<g id="edge82" class="edge">
<title>from_bcs&#45;&gt;string</title>
<path fill="none" stroke="black" d="M600.18,-222.97C553.43,-209.88 471.96,-187.07 424.11,-173.67"/>
<polygon fill="black" stroke="black" points="425.32,-170.37 414.74,-171.05 423.43,-177.12 425.32,-170.37"/>
</g>
<!-- string&#45;&gt;vector -->
<g id="edge83" class="edge">
<title>string&#45;&gt;vector</title>
<path fill="none" stroke="black" d="M411.41,-151.35C476.13,-126.78 647.38,-61.76 723.1,-33.01"/>
<polygon fill="black" stroke="black" points="724.04,-36.4 732.14,-29.58 721.55,-29.85 724.04,-36.4"/>
</g>
<!-- string&#45;&gt;option -->
<g id="edge84" class="edge">
<title>string&#45;&gt;option</title>
<path fill="none" stroke="black" d="M410.46,-150.74C417.05,-148.26 424.22,-145.81 431,-144 531.26,-117.28 652.5,-101.99 716.13,-95.22"/>
<polygon fill="black" stroke="black" points="716.23,-98.73 725.82,-94.22 715.51,-91.77 716.23,-98.73"/>
</g>
<!-- optional_aggregator&#45;&gt;error -->
<g id="edge86" class="edge">
<title>optional_aggregator&#45;&gt;error</title>
<path fill="none" stroke="black" d="M1323.39,-437.82C1350.72,-430.1 1381.52,-417.24 1403,-396 1481.45,-318.43 1500.16,-179.14 1504.61,-119.43"/>
<polygon fill="black" stroke="black" points="1508.08,-119.99 1505.25,-109.78 1501.1,-119.53 1508.08,-119.99"/>
</g>
<!-- optional_aggregator&#45;&gt;option -->
<g id="edge85" class="edge">
<title>optional_aggregator&#45;&gt;option</title>
<path fill="none" stroke="black" d="M1242.42,-432.2C1185.72,-384 1015.59,-242.38 861,-144 839.76,-130.48 814.7,-117.32 794.86,-107.49"/>
<polygon fill="black" stroke="black" points="796.6,-104.45 786.08,-103.2 793.53,-110.73 796.6,-104.45"/>
</g>
<!-- aggregator -->
<g id="node30" class="node">
<title>aggregator</title>
<ellipse fill="none" stroke="black" cx="1316" cy="-306" rx="48.19" ry="18"/>
<text text-anchor="middle" x="1316" y="-302.3" font-family="Times,serif" font-size="14.00">aggregator</text>
</g>
<!-- optional_aggregator&#45;&gt;aggregator -->
<g id="edge87" class="edge">
<title>optional_aggregator&#45;&gt;aggregator</title>
<path fill="none" stroke="black" d="M1247.82,-431.87C1234.36,-413.39 1217.98,-383.46 1231,-360 1239.86,-344.03 1255.75,-332.25 1271.42,-323.9"/>
<polygon fill="black" stroke="black" points="1272.81,-327.12 1280.24,-319.57 1269.72,-320.83 1272.81,-327.12"/>
</g>
<!-- aggregator_factory -->
<g id="node31" class="node">
<title>aggregator_factory</title>
<ellipse fill="none" stroke="black" cx="1317" cy="-378" rx="77.19" ry="18"/>
<text text-anchor="middle" x="1317" y="-374.3" font-family="Times,serif" font-size="14.00">aggregator_factory</text>
</g>
<!-- optional_aggregator&#45;&gt;aggregator_factory -->
<g id="edge88" class="edge">
<title>optional_aggregator&#45;&gt;aggregator_factory</title>
<path fill="none" stroke="black" d="M1275.31,-432.05C1281.73,-423.89 1289.57,-413.91 1296.71,-404.82"/>
<polygon fill="black" stroke="black" points="1299.45,-407 1302.87,-396.98 1293.94,-402.68 1299.45,-407"/>
</g>
<!-- comparator&#45;&gt;bcs -->
<g id="edge89" class="edge">
<title>comparator&#45;&gt;bcs</title>
<path fill="none" stroke="black" d="M308.79,-294.37C359.55,-280.81 446.58,-257.56 495.29,-244.54"/>
<polygon fill="black" stroke="black" points="496.01,-247.97 504.77,-242.01 494.21,-241.21 496.01,-247.97"/>
</g>
<!-- timestamp&#45;&gt;error -->
<g id="edge90" class="edge">
<title>timestamp&#45;&gt;error</title>
<path fill="none" stroke="black" d="M1951.2,-359.76C1942.75,-314.1 1912.74,-190.39 1830,-144 1781.75,-116.94 1620.38,-100.45 1545.19,-94.05"/>
<polygon fill="black" stroke="black" points="1545.65,-90.58 1535.4,-93.24 1545.07,-97.55 1545.65,-90.58"/>
</g>
<!-- timestamp&#45;&gt;system_addresses -->
<g id="edge91" class="edge">
<title>timestamp&#45;&gt;system_addresses</title>
<path fill="none" stroke="black" d="M1918.5,-365.44C1884.26,-354.3 1832.01,-337.28 1792.69,-324.48"/>
<polygon fill="black" stroke="black" points="1794,-321.23 1783.41,-321.46 1791.83,-327.88 1794,-321.23"/>
</g>
<!-- bls12381&#45;&gt;error -->
<g id="edge93" class="edge">
<title>bls12381&#45;&gt;error</title>
<path fill="none" stroke="black" d="M1451.11,-145.12C1460.67,-135.69 1472.93,-123.61 1483.43,-113.25"/>
<polygon fill="black" stroke="black" points="1485.66,-115.97 1490.32,-106.46 1480.75,-110.98 1485.66,-115.97"/>
</g>
<!-- bls12381&#45;&gt;option -->
<g id="edge92" class="edge">
<title>bls12381&#45;&gt;option</title>
<path fill="none" stroke="black" d="M1393.54,-156.7C1273.5,-144.25 926.42,-108.26 803.66,-95.53"/>
<polygon fill="black" stroke="black" points="804.31,-92.08 794,-94.53 803.58,-99.04 804.31,-92.08"/>
</g>
<!-- features&#45;&gt;signer -->
<g id="edge94" class="edge">
<title>features&#45;&gt;signer</title>
<path fill="none" stroke="black" d="M1645.89,-155.21C1725.51,-142.37 1916.63,-111.54 2001.8,-97.81"/>
<polygon fill="black" stroke="black" points="2002.29,-101.27 2011.6,-96.23 2001.17,-94.36 2002.29,-101.27"/>
</g>
<!-- features&#45;&gt;error -->
<g id="edge95" class="edge">
<title>features&#45;&gt;error</title>
<path fill="none" stroke="black" d="M1588.7,-146.67C1573.01,-136.1 1551.49,-121.62 1534.34,-110.08"/>
<polygon fill="black" stroke="black" points="1536.33,-107.2 1526.08,-104.52 1532.42,-113 1536.33,-107.2"/>
</g>
<!-- aggregator_factory&#45;&gt;error -->
<g id="edge96" class="edge">
<title>aggregator_factory&#45;&gt;error</title>
<path fill="none" stroke="black" d="M1341.61,-360.59C1353.3,-351.34 1366.19,-338.69 1373,-324 1406.71,-251.31 1337.12,-209.69 1383,-144 1402.25,-116.44 1438.99,-103.1 1467.32,-96.72"/>
<polygon fill="black" stroke="black" points="1467.9,-100.17 1477,-94.76 1466.51,-93.31 1467.9,-100.17"/>
</g>
<!-- aggregator_factory&#45;&gt;table -->
<g id="edge97" class="edge">
<title>aggregator_factory&#45;&gt;table</title>
<path fill="none" stroke="black" d="M1294.49,-360.41C1280.8,-350.33 1263.25,-337.4 1248.85,-326.78"/>
<polygon fill="black" stroke="black" points="1251.26,-324.21 1241.13,-321.1 1247.1,-329.84 1251.26,-324.21"/>
</g>
<!-- aggregator_factory&#45;&gt;system_addresses -->
<g id="edge98" class="edge">
<title>aggregator_factory&#45;&gt;system_addresses</title>
<path fill="none" stroke="black" d="M1378.36,-366.82C1455.43,-354.04 1587.38,-332.15 1668.51,-318.69"/>
<polygon fill="black" stroke="black" points="1668.82,-322.19 1678.12,-317.1 1667.68,-315.28 1668.82,-322.19"/>
</g>
<!-- aggregator_factory&#45;&gt;aggregator -->
<g id="edge99" class="edge">
<title>aggregator_factory&#45;&gt;aggregator</title>
<path fill="none" stroke="black" d="M1316.75,-359.7C1316.65,-352.41 1316.52,-343.73 1316.41,-335.54"/>
<polygon fill="black" stroke="black" points="1319.91,-335.57 1316.27,-325.62 1312.91,-335.67 1319.91,-335.57"/>
</g>
</g>
</svg>
