<?xml version="1.0" encoding="UTF-8" standalone="no"?>
<!DOCTYPE svg PUBLIC "-//W3C//DTD SVG 1.1//EN"
 "http://www.w3.org/Graphics/SVG/1.1/DTD/svg11.dtd">
<!-- Generated by graphviz version 7.0.0 (20221023.0053)
 -->
<!-- Title: G Pages: 1 -->
<svg width="2674pt" height="780pt"
 viewBox="0.00 0.00 2673.54 780.00" xmlns="http://www.w3.org/2000/svg" xmlns:xlink="http://www.w3.org/1999/xlink">
<g id="graph0" class="graph" transform="scale(1 1) rotate(0) translate(4 776)">
<title>G</title>
<polygon fill="white" stroke="none" points="-4,4 -4,-776 2669.54,-776 2669.54,4 -4,4"/>
<g id="clust1" class="cluster">
<title>cluster_signer</title>
<polygon fill="none" stroke="black" points="677.54,-340 677.54,-498 827.54,-498 827.54,-340 677.54,-340"/>
<text text-anchor="middle" x="752.54" y="-482.8" font-family="Times,serif" font-size="14.00">signer</text>
</g>
<g id="clust2" class="cluster">
<title>cluster_stake</title>
<polygon fill="none" stroke="black" points="15.54,-257 15.54,-581 663.54,-581 663.54,-257 15.54,-257"/>
<text text-anchor="middle" x="339.54" y="-565.8" font-family="Times,serif" font-size="14.00">stake</text>
</g>
<g id="clust3" class="cluster">
<title>cluster_staking_contract</title>
<polygon fill="none" stroke="black" points="1463.54,-423 1463.54,-581 1796.54,-581 1796.54,-423 1463.54,-423"/>
<text text-anchor="middle" x="1630.04" y="-565.8" font-family="Times,serif" font-size="14.00">staking_contract</text>
</g>
<g id="clust4" class="cluster">
<title>cluster_vesting</title>
<polygon fill="none" stroke="black" points="739.54,-506 739.54,-656 1423.54,-656 1423.54,-506 739.54,-506"/>
<text text-anchor="middle" x="1081.54" y="-640.8" font-family="Times,serif" font-size="14.00">vesting</text>
</g>
<g id="clust5" class="cluster">
<title>cluster_simple_map</title>
<polygon fill="none" stroke="black" points="1998.54,-257 1998.54,-415 2256.54,-415 2256.54,-257 1998.54,-257"/>
<text text-anchor="middle" x="2127.54" y="-399.8" font-family="Times,serif" font-size="14.00">simple_map</text>
</g>
<g id="clust6" class="cluster">
<title>cluster_event</title>
<polygon fill="none" stroke="black" points="1804.54,-340 1804.54,-498 1990.54,-498 1990.54,-340 1804.54,-340"/>
<text text-anchor="middle" x="1897.54" y="-482.8" font-family="Times,serif" font-size="14.00">event</text>
</g>
<g id="clust7" class="cluster">
<title>cluster_error</title>
<polygon fill="none" stroke="black" points="840.54,-174 840.54,-332 1265.54,-332 1265.54,-174 840.54,-174"/>
<text text-anchor="middle" x="1053.04" y="-316.8" font-family="Times,serif" font-size="14.00">error</text>
</g>
<g id="clust8" class="cluster">
<title>cluster_option</title>
<polygon fill="none" stroke="black" points="1805.54,-91 1805.54,-249 2041.54,-249 2041.54,-91 1805.54,-91"/>
<text text-anchor="middle" x="1923.54" y="-233.8" font-family="Times,serif" font-size="14.00">option</text>
</g>
<g id="clust9" class="cluster">
<title>cluster_bcs</title>
<polygon fill="none" stroke="black" points="2379.54,-91 2379.54,-166 2475.54,-166 2475.54,-91 2379.54,-91"/>
<text text-anchor="middle" x="2427.54" y="-150.8" font-family="Times,serif" font-size="14.00">bcs</text>
</g>
<g id="clust10" class="cluster">
<title>cluster_account</title>
<polygon fill="none" stroke="black" points="2409.54,-340 2409.54,-498 2657.54,-498 2657.54,-340 2409.54,-340"/>
<text text-anchor="middle" x="2533.54" y="-482.8" font-family="Times,serif" font-size="14.00">account</text>
</g>
<g id="clust11" class="cluster">
<title>cluster_vector</title>
<polygon fill="none" stroke="black" points="1847.54,-8 1847.54,-83 2054.54,-83 2054.54,-8 1847.54,-8"/>
<text text-anchor="middle" x="1951.04" y="-67.8" font-family="Times,serif" font-size="14.00">vector</text>
</g>
<g id="clust12" class="cluster">
<title>cluster_comparator</title>
<polygon fill="none" stroke="black" points="2119.54,-91 2119.54,-249 2371.54,-249 2371.54,-91 2119.54,-91"/>
<text text-anchor="middle" x="2245.54" y="-233.8" font-family="Times,serif" font-size="14.00">comparator</text>
</g>
<!-- set_voter -->
<g id="node1" class="node">
<title>set_voter</title>
<ellipse fill="none" stroke="black" cx="884.54" cy="-754" rx="42.79" ry="18"/>
<text text-anchor="middle" x="884.54" y="-750.3" font-family="Times,serif" font-size="14.00">set_voter</text>
</g>
<!-- set_stake_pool_voter -->
<g id="node2" class="node">
<title>set_stake_pool_voter</title>
<ellipse fill="none" stroke="black" cx="481.54" cy="-607" rx="85.29" ry="18"/>
<text text-anchor="middle" x="481.54" y="-603.3" font-family="Times,serif" font-size="14.00">set_stake_pool_voter</text>
</g>
<!-- set_voter&#45;&gt;set_stake_pool_voter -->
<g id="edge1" class="edge">
<title>set_voter&#45;&gt;set_stake_pool_voter</title>
<path fill="none" stroke="black" d="M852.92,-741.62C783.86,-716.77 618.96,-657.44 534.05,-626.89"/>
<polygon fill="black" stroke="black" points="535.37,-623.65 524.78,-623.56 533,-630.24 535.37,-623.65"/>
</g>
<!-- set_staking_contract_voter -->
<g id="node3" class="node">
<title>set_staking_contract_voter</title>
<ellipse fill="none" stroke="black" cx="1536.54" cy="-607" rx="105.08" ry="18"/>
<text text-anchor="middle" x="1536.54" y="-603.3" font-family="Times,serif" font-size="14.00">set_staking_contract_voter</text>
</g>
<!-- set_voter&#45;&gt;set_staking_contract_voter -->
<g id="edge2" class="edge">
<title>set_voter&#45;&gt;set_staking_contract_voter</title>
<path fill="none" stroke="black" d="M926.2,-748.98C1018.25,-739.35 1245.25,-711.55 1427.54,-656 1450.17,-649.1 1474.35,-638.78 1494.17,-629.47"/>
<polygon fill="black" stroke="black" points="1495.53,-632.71 1503.04,-625.23 1492.5,-626.39 1495.53,-632.71"/>
</g>
<!-- set_vesting_contract_voter -->
<g id="node4" class="node">
<title>set_vesting_contract_voter</title>
<ellipse fill="none" stroke="black" cx="884.54" cy="-682" rx="105.08" ry="18"/>
<text text-anchor="middle" x="884.54" y="-678.3" font-family="Times,serif" font-size="14.00">set_vesting_contract_voter</text>
</g>
<!-- set_voter&#45;&gt;set_vesting_contract_voter -->
<g id="edge3" class="edge">
<title>set_voter&#45;&gt;set_vesting_contract_voter</title>
<path fill="none" stroke="black" d="M884.54,-735.7C884.54,-728.41 884.54,-719.73 884.54,-711.54"/>
<polygon fill="black" stroke="black" points="888.04,-711.62 884.54,-701.62 881.04,-711.62 888.04,-711.62"/>
</g>
<!-- signer::address_of -->
<g id="node5" class="node">
<title>signer::address_of</title>
<ellipse fill="none" stroke="black" cx="752.54" cy="-449" rx="48.99" ry="18"/>
<text text-anchor="middle" x="752.54" y="-445.3" font-family="Times,serif" font-size="14.00">address_of</text>
</g>
<!-- set_stake_pool_voter&#45;&gt;signer::address_of -->
<g id="edge4" class="edge">
<title>set_stake_pool_voter&#45;&gt;signer::address_of</title>
<path fill="none" stroke="black" d="M564.27,-602.37C605.85,-599.08 650.87,-592.84 667.54,-581 698,-559.36 684.95,-537.18 705.54,-506 712.64,-495.24 721.5,-484.21 729.61,-474.81"/>
<polygon fill="black" stroke="black" points="732.08,-477.31 736.07,-467.5 726.83,-472.68 732.08,-477.31"/>
</g>
<!-- stake::set_delegated_voter -->
<g id="node6" class="node">
<title>stake::set_delegated_voter</title>
<ellipse fill="none" stroke="black" cx="418.54" cy="-532" rx="81.49" ry="18"/>
<text text-anchor="middle" x="418.54" y="-528.3" font-family="Times,serif" font-size="14.00">set_delegated_voter</text>
</g>
<!-- set_stake_pool_voter&#45;&gt;stake::set_delegated_voter -->
<g id="edge5" class="edge">
<title>set_stake_pool_voter&#45;&gt;stake::set_delegated_voter</title>
<path fill="none" stroke="black" d="M466.93,-589.07C459.11,-580.01 449.33,-568.67 440.6,-558.57"/>
<polygon fill="black" stroke="black" points="443.46,-556.52 434.28,-551.24 438.16,-561.1 443.46,-556.52"/>
</g>
<!-- stake::stake_pool_exists -->
<g id="node7" class="node">
<title>stake::stake_pool_exists</title>
<ellipse fill="none" stroke="black" cx="225.54" cy="-283" rx="73.39" ry="18"/>
<text text-anchor="middle" x="225.54" y="-279.3" font-family="Times,serif" font-size="14.00">stake_pool_exists</text>
</g>
<!-- set_stake_pool_voter&#45;&gt;stake::stake_pool_exists -->
<g id="edge6" class="edge">
<title>set_stake_pool_voter&#45;&gt;stake::stake_pool_exists</title>
<path fill="none" stroke="black" d="M403.07,-599.62C282.67,-587.99 61.31,-558.74 14.54,-498 -46.01,-419.37 99.9,-339.44 178.9,-303.56"/>
<polygon fill="black" stroke="black" points="180.03,-306.89 187.73,-299.61 177.17,-300.5 180.03,-306.89"/>
</g>
<!-- set_staking_contract_voter&#45;&gt;signer::address_of -->
<g id="edge7" class="edge">
<title>set_staking_contract_voter&#45;&gt;signer::address_of</title>
<path fill="none" stroke="black" d="M1475.74,-591.94C1469.85,-588.97 1464.31,-585.36 1459.54,-581 1432.79,-556.54 1456.93,-527.21 1427.54,-506 1378.29,-470.46 968.98,-455.81 812.79,-451.48"/>
<polygon fill="black" stroke="black" points="813.15,-447.99 803.06,-451.22 812.96,-454.99 813.15,-447.99"/>
</g>
<!-- staking_contract::staking_contract_exists -->
<g id="node8" class="node">
<title>staking_contract::staking_contract_exists</title>
<ellipse fill="none" stroke="black" cx="1695.54" cy="-532" rx="92.88" ry="18"/>
<text text-anchor="middle" x="1695.54" y="-528.3" font-family="Times,serif" font-size="14.00">staking_contract_exists</text>
</g>
<!-- set_staking_contract_voter&#45;&gt;staking_contract::staking_contract_exists -->
<g id="edge8" class="edge">
<title>set_staking_contract_voter&#45;&gt;staking_contract::staking_contract_exists</title>
<path fill="none" stroke="black" d="M1574.69,-589.79C1581.33,-586.91 1588.15,-583.9 1594.54,-581 1613.52,-572.4 1634.34,-562.58 1652.12,-554.06"/>
<polygon fill="black" stroke="black" points="1653.61,-557.23 1661.11,-549.74 1650.58,-550.92 1653.61,-557.23"/>
</g>
<!-- staking_contract::update_voter -->
<g id="node9" class="node">
<title>staking_contract::update_voter</title>
<ellipse fill="none" stroke="black" cx="1528.54" cy="-532" rx="56.59" ry="18"/>
<text text-anchor="middle" x="1528.54" y="-528.3" font-family="Times,serif" font-size="14.00">update_voter</text>
</g>
<!-- set_staking_contract_voter&#45;&gt;staking_contract::update_voter -->
<g id="edge9" class="edge">
<title>set_staking_contract_voter&#45;&gt;staking_contract::update_voter</title>
<path fill="none" stroke="black" d="M1534.64,-588.7C1533.76,-580.67 1532.69,-570.9 1531.7,-561.8"/>
<polygon fill="black" stroke="black" points="1535.18,-561.49 1530.61,-551.93 1528.22,-562.26 1535.18,-561.49"/>
</g>
<!-- set_vesting_contract_voter&#45;&gt;signer::address_of -->
<g id="edge10" class="edge">
<title>set_vesting_contract_voter&#45;&gt;signer::address_of</title>
<path fill="none" stroke="black" d="M788.24,-674.59C764.3,-670.9 743.25,-665.11 735.54,-656 692.78,-605.47 720.46,-520.82 739.28,-477.44"/>
<polygon fill="black" stroke="black" points="742.4,-479.04 743.31,-468.48 736.01,-476.16 742.4,-479.04"/>
</g>
<!-- vesting::operator -->
<g id="node10" class="node">
<title>vesting::operator</title>
<ellipse fill="none" stroke="black" cx="949.54" cy="-607" rx="40.09" ry="18"/>
<text text-anchor="middle" x="949.54" y="-603.3" font-family="Times,serif" font-size="14.00">operator</text>
</g>
<!-- set_vesting_contract_voter&#45;&gt;vesting::operator -->
<g id="edge11" class="edge">
<title>set_vesting_contract_voter&#45;&gt;vesting::operator</title>
<path fill="none" stroke="black" d="M899.94,-663.7C908.19,-654.44 918.49,-642.87 927.56,-632.68"/>
<polygon fill="black" stroke="black" points="930.09,-635.1 934.13,-625.31 924.87,-630.45 930.09,-635.1"/>
</g>
<!-- vesting::update_voter -->
<g id="node11" class="node">
<title>vesting::update_voter</title>
<ellipse fill="none" stroke="black" cx="1275.54" cy="-607" rx="56.59" ry="18"/>
<text text-anchor="middle" x="1275.54" y="-603.3" font-family="Times,serif" font-size="14.00">update_voter</text>
</g>
<!-- set_vesting_contract_voter&#45;&gt;vesting::update_voter -->
<g id="edge12" class="edge">
<title>set_vesting_contract_voter&#45;&gt;vesting::update_voter</title>
<path fill="none" stroke="black" d="M953.54,-668.12C1028.25,-654.17 1146.15,-632.16 1216.65,-618.99"/>
<polygon fill="black" stroke="black" points="1216.87,-622.51 1226.06,-617.24 1215.59,-615.63 1216.87,-622.51"/>
</g>
<!-- vesting::vesting_contracts -->
<g id="node12" class="node">
<title>vesting::vesting_contracts</title>
<ellipse fill="none" stroke="black" cx="819.54" cy="-607" rx="72.29" ry="18"/>
<text text-anchor="middle" x="819.54" y="-603.3" font-family="Times,serif" font-size="14.00">vesting_contracts</text>
</g>
<!-- set_vesting_contract_voter&#45;&gt;vesting::vesting_contracts -->
<g id="edge13" class="edge">
<title>set_vesting_contract_voter&#45;&gt;vesting::vesting_contracts</title>
<path fill="none" stroke="black" d="M869.13,-663.7C861.06,-654.63 851.02,-643.36 842.09,-633.33"/>
<polygon fill="black" stroke="black" points="844.88,-631.2 835.61,-626.05 839.65,-635.85 844.88,-631.2"/>
</g>
<!-- signer::borrow_address -->
<g id="node13" class="node">
<title>signer::borrow_address</title>
<ellipse fill="none" stroke="black" cx="752.54" cy="-366" rx="66.89" ry="18"/>
<text text-anchor="middle" x="752.54" y="-362.3" font-family="Times,serif" font-size="14.00">borrow_address</text>
</g>
<!-- signer::address_of&#45;&gt;signer::borrow_address -->
<g id="edge14" class="edge">
<title>signer::address_of&#45;&gt;signer::borrow_address</title>
<path fill="none" stroke="black" d="M752.54,-430.82C752.54,-420.69 752.54,-407.6 752.54,-395.92"/>
<polygon fill="black" stroke="black" points="756.04,-395.95 752.54,-385.95 749.04,-395.95 756.04,-395.95"/>
</g>
<!-- stake::set_delegated_voter&#45;&gt;signer::address_of -->
<g id="edge15" class="edge">
<title>stake::set_delegated_voter&#45;&gt;signer::address_of</title>
<path fill="none" stroke="black" d="M498.5,-528.15C548.21,-524.5 612.85,-516.3 667.54,-498 686.26,-491.74 705.54,-481.23 721,-471.65"/>
<polygon fill="black" stroke="black" points="722.75,-474.69 729.29,-466.35 718.97,-468.79 722.75,-474.69"/>
</g>
<!-- stake::assert_owner_cap_exists -->
<g id="node14" class="node">
<title>stake::assert_owner_cap_exists</title>
<ellipse fill="none" stroke="black" cx="121.54" cy="-449" rx="98.28" ry="18"/>
<text text-anchor="middle" x="121.54" y="-445.3" font-family="Times,serif" font-size="14.00">assert_owner_cap_exists</text>
</g>
<!-- stake::set_delegated_voter&#45;&gt;stake::assert_owner_cap_exists -->
<g id="edge16" class="edge">
<title>stake::set_delegated_voter&#45;&gt;stake::assert_owner_cap_exists</title>
<path fill="none" stroke="black" d="M347.17,-522.9C311.11,-517.74 266.96,-509.75 228.54,-498 206.2,-491.17 182.39,-480.82 162.91,-471.47"/>
<polygon fill="black" stroke="black" points="164.46,-468.33 153.94,-467.08 161.38,-474.62 164.46,-468.33"/>
</g>
<!-- stake::set_delegated_voter_with_cap -->
<g id="node15" class="node">
<title>stake::set_delegated_voter_with_cap</title>
<ellipse fill="none" stroke="black" cx="355.54" cy="-449" rx="117.78" ry="18"/>
<text text-anchor="middle" x="355.54" y="-445.3" font-family="Times,serif" font-size="14.00">set_delegated_voter_with_cap</text>
</g>
<!-- stake::set_delegated_voter&#45;&gt;stake::set_delegated_voter_with_cap -->
<g id="edge17" class="edge">
<title>stake::set_delegated_voter&#45;&gt;stake::set_delegated_voter_with_cap</title>
<path fill="none" stroke="black" d="M405.18,-513.82C396.66,-502.87 385.45,-488.46 375.85,-476.11"/>
<polygon fill="black" stroke="black" points="378.71,-474.09 369.81,-468.35 373.19,-478.39 378.71,-474.09"/>
</g>
<!-- simple_map::contains_key -->
<g id="node16" class="node">
<title>simple_map::contains_key</title>
<ellipse fill="none" stroke="black" cx="2191.54" cy="-366" rx="57.39" ry="18"/>
<text text-anchor="middle" x="2191.54" y="-362.3" font-family="Times,serif" font-size="14.00">contains_key</text>
</g>
<!-- staking_contract::staking_contract_exists&#45;&gt;simple_map::contains_key -->
<g id="edge18" class="edge">
<title>staking_contract::staking_contract_exists&#45;&gt;simple_map::contains_key</title>
<path fill="none" stroke="black" d="M1787.41,-529.01C1876.1,-525.91 2003.38,-518.03 2048.54,-498 2101.26,-474.62 2147.44,-423.88 2172.24,-392.86"/>
<polygon fill="black" stroke="black" points="2174.9,-395.15 2178.3,-385.11 2169.38,-390.83 2174.9,-395.15"/>
</g>
<!-- staking_contract::update_voter&#45;&gt;signer::address_of -->
<g id="edge19" class="edge">
<title>staking_contract::update_voter&#45;&gt;signer::address_of</title>
<path fill="none" stroke="black" d="M1494.75,-517.09C1483.14,-512.85 1469.94,-508.63 1457.54,-506 1223.08,-456.29 936.27,-449.83 813.27,-449.56"/>
<polygon fill="black" stroke="black" points="813.4,-446.06 803.4,-449.56 813.39,-453.06 813.4,-446.06"/>
</g>
<!-- staking_contract::update_voter&#45;&gt;stake::set_delegated_voter_with_cap -->
<g id="edge23" class="edge">
<title>staking_contract::update_voter&#45;&gt;stake::set_delegated_voter_with_cap</title>
<path fill="none" stroke="black" d="M1488.65,-518.84C1470.23,-513.82 1447.97,-508.58 1427.54,-506 1323.36,-492.85 585.75,-517.31 482.54,-498 454.21,-492.7 423.97,-481.51 400.11,-471.27"/>
<polygon fill="black" stroke="black" points="401.57,-468.09 391.01,-467.27 398.75,-474.5 401.57,-468.09"/>
</g>
<!-- event::emit_event -->
<g id="node17" class="node">
<title>event::emit_event</title>
<ellipse fill="none" stroke="black" cx="1879.54" cy="-449" rx="50.09" ry="18"/>
<text text-anchor="middle" x="1879.54" y="-445.3" font-family="Times,serif" font-size="14.00">emit_event</text>
</g>
<!-- staking_contract::update_voter&#45;&gt;event::emit_event -->
<g id="edge20" class="edge">
<title>staking_contract::update_voter&#45;&gt;event::emit_event</title>
<path fill="none" stroke="black" d="M1559.65,-516.65C1570.19,-512.44 1582.17,-508.34 1593.54,-506 1638.63,-496.72 1756.46,-511.27 1800.54,-498 1818.39,-492.63 1836.32,-482.24 1850.56,-472.5"/>
<polygon fill="black" stroke="black" points="1852.44,-475.46 1858.56,-466.81 1848.39,-469.76 1852.44,-475.46"/>
</g>
<!-- simple_map::borrow_mut -->
<g id="node18" class="node">
<title>simple_map::borrow_mut</title>
<ellipse fill="none" stroke="black" cx="2061.54" cy="-366" rx="54.69" ry="18"/>
<text text-anchor="middle" x="2061.54" y="-362.3" font-family="Times,serif" font-size="14.00">borrow_mut</text>
</g>
<!-- staking_contract::update_voter&#45;&gt;simple_map::borrow_mut -->
<g id="edge21" class="edge">
<title>staking_contract::update_voter&#45;&gt;simple_map::borrow_mut</title>
<path fill="none" stroke="black" d="M1559.62,-516.53C1570.16,-512.31 1582.15,-508.23 1593.54,-506 1615.41,-501.71 1975.65,-509.82 1994.54,-498 2030.64,-475.42 2048.14,-426.7 2055.95,-395.45"/>
<polygon fill="black" stroke="black" points="2059.31,-396.43 2058.15,-385.9 2052.49,-394.86 2059.31,-396.43"/>
</g>
<!-- stake::get_delegated_voter -->
<g id="node19" class="node">
<title>stake::get_delegated_voter</title>
<ellipse fill="none" stroke="black" cx="573.54" cy="-449" rx="81.79" ry="18"/>
<text text-anchor="middle" x="573.54" y="-445.3" font-family="Times,serif" font-size="14.00">get_delegated_voter</text>
</g>
<!-- staking_contract::update_voter&#45;&gt;stake::get_delegated_voter -->
<g id="edge22" class="edge">
<title>staking_contract::update_voter&#45;&gt;stake::get_delegated_voter</title>
<path fill="none" stroke="black" d="M1488.64,-518.86C1470.23,-513.84 1447.97,-508.6 1427.54,-506 1385.98,-500.71 714.34,-507.51 673.54,-498 651.17,-492.79 627.94,-482.01 609.51,-471.99"/>
<polygon fill="black" stroke="black" points="611.28,-468.97 600.85,-467.13 607.85,-475.07 611.28,-468.97"/>
</g>
<!-- staking_contract::assert_staking_contract_exists -->
<g id="node20" class="node">
<title>staking_contract::assert_staking_contract_exists</title>
<ellipse fill="none" stroke="black" cx="1589.54" cy="-449" rx="117.78" ry="18"/>
<text text-anchor="middle" x="1589.54" y="-445.3" font-family="Times,serif" font-size="14.00">assert_staking_contract_exists</text>
</g>
<!-- staking_contract::update_voter&#45;&gt;staking_contract::assert_staking_contract_exists -->
<g id="edge24" class="edge">
<title>staking_contract::update_voter&#45;&gt;staking_contract::assert_staking_contract_exists</title>
<path fill="none" stroke="black" d="M1541.18,-514.22C1549.41,-503.29 1560.32,-488.8 1569.7,-476.35"/>
<polygon fill="black" stroke="black" points="1572.36,-478.62 1575.58,-468.53 1566.77,-474.41 1572.36,-478.62"/>
</g>
<!-- vesting::assert_vesting_contract_exists -->
<g id="node21" class="node">
<title>vesting::assert_vesting_contract_exists</title>
<ellipse fill="none" stroke="black" cx="865.54" cy="-532" rx="117.78" ry="18"/>
<text text-anchor="middle" x="865.54" y="-528.3" font-family="Times,serif" font-size="14.00">assert_vesting_contract_exists</text>
</g>
<!-- vesting::operator&#45;&gt;vesting::assert_vesting_contract_exists -->
<g id="edge25" class="edge">
<title>vesting::operator&#45;&gt;vesting::assert_vesting_contract_exists</title>
<path fill="none" stroke="black" d="M931.72,-590.52C920.61,-580.86 906.07,-568.23 893.45,-557.26"/>
<polygon fill="black" stroke="black" points="896.07,-554.9 886.23,-550.98 891.48,-560.18 896.07,-554.9"/>
</g>
<!-- vesting::update_voter&#45;&gt;staking_contract::update_voter -->
<g id="edge27" class="edge">
<title>vesting::update_voter&#45;&gt;staking_contract::update_voter</title>
<path fill="none" stroke="black" d="M1329.15,-600.9C1358.65,-597.18 1395.64,-590.99 1427.54,-581 1449.63,-574.08 1473.06,-563.2 1491.79,-553.54"/>
<polygon fill="black" stroke="black" points="1493.39,-556.65 1500.6,-548.89 1490.13,-550.45 1493.39,-556.65"/>
</g>
<!-- vesting::update_voter&#45;&gt;event::emit_event -->
<g id="edge26" class="edge">
<title>vesting::update_voter&#45;&gt;event::emit_event</title>
<path fill="none" stroke="black" d="M1326.79,-598.88C1354.99,-595.26 1390.63,-591.18 1422.54,-589 1443.49,-587.57 1782.36,-591.52 1800.54,-581 1839.23,-558.61 1861.2,-509.02 1871.7,-477.69"/>
<polygon fill="black" stroke="black" points="1874.93,-479.09 1874.61,-468.5 1868.26,-476.98 1874.93,-479.09"/>
</g>
<!-- vesting::get_vesting_account_signer_internal -->
<g id="node22" class="node">
<title>vesting::get_vesting_account_signer_internal</title>
<ellipse fill="none" stroke="black" cx="1275.54" cy="-532" rx="139.98" ry="18"/>
<text text-anchor="middle" x="1275.54" y="-528.3" font-family="Times,serif" font-size="14.00">get_vesting_account_signer_internal</text>
</g>
<!-- vesting::update_voter&#45;&gt;vesting::get_vesting_account_signer_internal -->
<g id="edge28" class="edge">
<title>vesting::update_voter&#45;&gt;vesting::get_vesting_account_signer_internal</title>
<path fill="none" stroke="black" d="M1275.54,-588.7C1275.54,-580.67 1275.54,-570.9 1275.54,-561.8"/>
<polygon fill="black" stroke="black" points="1279.04,-561.94 1275.54,-551.94 1272.04,-561.94 1279.04,-561.94"/>
</g>
<!-- vesting::verify_admin -->
<g id="node23" class="node">
<title>vesting::verify_admin</title>
<ellipse fill="none" stroke="black" cx="1059.54" cy="-532" rx="58.49" ry="18"/>
<text text-anchor="middle" x="1059.54" y="-528.3" font-family="Times,serif" font-size="14.00">verify_admin</text>
</g>
<!-- vesting::update_voter&#45;&gt;vesting::verify_admin -->
<g id="edge29" class="edge">
<title>vesting::update_voter&#45;&gt;vesting::verify_admin</title>
<path fill="none" stroke="black" d="M1220.09,-602.72C1191.31,-599.54 1156.09,-593.28 1126.54,-581 1112.15,-575.02 1097.88,-565.44 1086.23,-556.41"/>
<polygon fill="black" stroke="black" points="1088.66,-553.87 1078.68,-550.31 1084.26,-559.32 1088.66,-553.87"/>
</g>
<!-- error::not_found -->
<g id="node24" class="node">
<title>error::not_found</title>
<ellipse fill="none" stroke="black" cx="895.54" cy="-283" rx="46.59" ry="18"/>
<text text-anchor="middle" x="895.54" y="-279.3" font-family="Times,serif" font-size="14.00">not_found</text>
</g>
<!-- stake::assert_owner_cap_exists&#45;&gt;error::not_found -->
<g id="edge30" class="edge">
<title>stake::assert_owner_cap_exists&#45;&gt;error::not_found</title>
<path fill="none" stroke="black" d="M174.49,-433.43C191.61,-429.32 210.76,-425.33 228.54,-423 285.63,-415.52 431.19,-426.84 487.54,-415 574.77,-396.67 588.8,-367.63 673.54,-340 731.2,-321.2 798.98,-304.92 844.34,-294.83"/>
<polygon fill="black" stroke="black" points="844.88,-298.3 853.89,-292.73 843.37,-291.46 844.88,-298.3"/>
</g>
<!-- stake::assert_stake_pool_exists -->
<g id="node25" class="node">
<title>stake::assert_stake_pool_exists</title>
<ellipse fill="none" stroke="black" cx="381.54" cy="-366" rx="97.48" ry="18"/>
<text text-anchor="middle" x="381.54" y="-362.3" font-family="Times,serif" font-size="14.00">assert_stake_pool_exists</text>
</g>
<!-- stake::set_delegated_voter_with_cap&#45;&gt;stake::assert_stake_pool_exists -->
<g id="edge31" class="edge">
<title>stake::set_delegated_voter_with_cap&#45;&gt;stake::assert_stake_pool_exists</title>
<path fill="none" stroke="black" d="M361.05,-430.82C364.37,-420.48 368.68,-407.05 372.49,-395.18"/>
<polygon fill="black" stroke="black" points="375.76,-396.46 375.48,-385.87 369.09,-394.33 375.76,-396.46"/>
</g>
<!-- option::is_some -->
<g id="node26" class="node">
<title>option::is_some</title>
<ellipse fill="none" stroke="black" cx="1993.54" cy="-117" rx="40.09" ry="18"/>
<text text-anchor="middle" x="1993.54" y="-113.3" font-family="Times,serif" font-size="14.00">is_some</text>
</g>
<!-- simple_map::contains_key&#45;&gt;option::is_some -->
<g id="edge32" class="edge">
<title>simple_map::contains_key&#45;&gt;option::is_some</title>
<path fill="none" stroke="black" d="M2190.32,-347.54C2187.67,-323.45 2179.25,-280.36 2152.54,-257 2139.87,-245.92 2129.45,-258.47 2115.54,-249 2082.43,-226.45 2092.81,-203.34 2065.54,-174 2053.48,-161.03 2038.21,-148.7 2024.85,-138.93"/>
<polygon fill="black" stroke="black" points="2026.93,-136.12 2016.75,-133.17 2022.87,-141.82 2026.93,-136.12"/>
</g>
<!-- simple_map::find -->
<g id="node27" class="node">
<title>simple_map::find</title>
<ellipse fill="none" stroke="black" cx="2116.54" cy="-283" rx="27" ry="18"/>
<text text-anchor="middle" x="2116.54" y="-279.3" font-family="Times,serif" font-size="14.00">find</text>
</g>
<!-- simple_map::contains_key&#45;&gt;simple_map::find -->
<g id="edge33" class="edge">
<title>simple_map::contains_key&#45;&gt;simple_map::find</title>
<path fill="none" stroke="black" d="M2173.93,-348.52C2168.57,-343.33 2162.72,-337.52 2157.54,-332 2150.42,-324.42 2142.95,-315.86 2136.36,-308.1"/>
<polygon fill="black" stroke="black" points="2139.19,-306.02 2130.08,-300.61 2133.83,-310.52 2139.19,-306.02"/>
</g>
<!-- bcs::to_bytes -->
<g id="node28" class="node">
<title>bcs::to_bytes</title>
<ellipse fill="none" stroke="black" cx="2427.54" cy="-117" rx="40.09" ry="18"/>
<text text-anchor="middle" x="2427.54" y="-113.3" font-family="Times,serif" font-size="14.00">to_bytes</text>
</g>
<!-- event::emit_event&#45;&gt;bcs::to_bytes -->
<g id="edge34" class="edge">
<title>event::emit_event&#45;&gt;bcs::to_bytes</title>
<path fill="none" stroke="black" d="M1929.79,-448.85C2020.12,-449.53 2205.62,-446.86 2260.54,-415 2362.69,-355.74 2407.08,-208.29 2421.67,-146.24"/>
<polygon fill="black" stroke="black" points="2425.01,-147.35 2423.8,-136.82 2418.18,-145.81 2425.01,-147.35"/>
</g>
<!-- event::write_to_event_store -->
<g id="node29" class="node">
<title>event::write_to_event_store</title>
<ellipse fill="none" stroke="black" cx="1897.54" cy="-366" rx="85.29" ry="18"/>
<text text-anchor="middle" x="1897.54" y="-362.3" font-family="Times,serif" font-size="14.00">write_to_event_store</text>
</g>
<!-- event::emit_event&#45;&gt;event::write_to_event_store -->
<g id="edge35" class="edge">
<title>event::emit_event&#45;&gt;event::write_to_event_store</title>
<path fill="none" stroke="black" d="M1883.36,-430.82C1885.63,-420.58 1888.58,-407.33 1891.19,-395.55"/>
<polygon fill="black" stroke="black" points="1894.58,-396.43 1893.34,-385.91 1887.75,-394.91 1894.58,-396.43"/>
</g>
<!-- simple_map::borrow_mut&#45;&gt;option::is_some -->
<g id="edge37" class="edge">
<title>simple_map::borrow_mut&#45;&gt;option::is_some</title>
<path fill="none" stroke="black" d="M2063.24,-347.52C2065.89,-312.83 2068.31,-233.47 2042.54,-174 2037.27,-161.84 2028.35,-150.43 2019.56,-141.13"/>
<polygon fill="black" stroke="black" points="2022.25,-138.87 2012.7,-134.28 2017.3,-143.82 2022.25,-138.87"/>
</g>
<!-- simple_map::borrow_mut&#45;&gt;simple_map::find -->
<g id="edge39" class="edge">
<title>simple_map::borrow_mut&#45;&gt;simple_map::find</title>
<path fill="none" stroke="black" d="M2072.94,-348.22C2080.61,-336.92 2090.86,-321.82 2099.5,-309.1"/>
<polygon fill="black" stroke="black" points="2102.15,-311.43 2104.87,-301.19 2096.36,-307.49 2102.15,-311.43"/>
</g>
<!-- option::extract -->
<g id="node30" class="node">
<title>option::extract</title>
<ellipse fill="none" stroke="black" cx="1847.54" cy="-200" rx="34.39" ry="18"/>
<text text-anchor="middle" x="1847.54" y="-196.3" font-family="Times,serif" font-size="14.00">extract</text>
</g>
<!-- simple_map::borrow_mut&#45;&gt;option::extract -->
<g id="edge36" class="edge">
<title>simple_map::borrow_mut&#45;&gt;option::extract</title>
<path fill="none" stroke="black" d="M2035.21,-349.92C2000.36,-329.35 1937.81,-290.31 1890.54,-249 1882.46,-241.94 1874.4,-233.43 1867.48,-225.55"/>
<polygon fill="black" stroke="black" points="1870.34,-223.52 1861.19,-218.19 1865.02,-228.06 1870.34,-223.52"/>
</g>
<!-- error::invalid_argument -->
<g id="node31" class="node">
<title>error::invalid_argument</title>
<ellipse fill="none" stroke="black" cx="1184.54" cy="-283" rx="73.39" ry="18"/>
<text text-anchor="middle" x="1184.54" y="-279.3" font-family="Times,serif" font-size="14.00">invalid_argument</text>
</g>
<!-- simple_map::borrow_mut&#45;&gt;error::invalid_argument -->
<g id="edge38" class="edge">
<title>simple_map::borrow_mut&#45;&gt;error::invalid_argument</title>
<path fill="none" stroke="black" d="M2029.73,-351C2018.78,-346.75 2006.31,-342.55 1994.54,-340 1959.38,-332.39 1465.13,-301.3 1266.4,-289.02"/>
<polygon fill="black" stroke="black" points="1266.88,-285.55 1256.68,-288.42 1266.44,-292.53 1266.88,-285.55"/>
</g>
<!-- stake::get_delegated_voter&#45;&gt;stake::assert_stake_pool_exists -->
<g id="edge40" class="edge">
<title>stake::get_delegated_voter&#45;&gt;stake::assert_stake_pool_exists</title>
<path fill="none" stroke="black" d="M536.97,-432.57C506.54,-419.73 462.96,-401.35 429.69,-387.31"/>
<polygon fill="black" stroke="black" points="431.25,-384.17 420.68,-383.51 428.53,-390.62 431.25,-384.17"/>
</g>
<!-- staking_contract::assert_staking_contract_exists&#45;&gt;simple_map::contains_key -->
<g id="edge42" class="edge">
<title>staking_contract::assert_staking_contract_exists&#45;&gt;simple_map::contains_key</title>
<path fill="none" stroke="black" d="M1674.32,-436.12C1712.77,-431.21 1758.87,-425.97 1800.54,-423 1836.57,-420.43 2091.33,-426.59 2125.54,-415 2140.47,-409.94 2154.89,-400.21 2166.42,-390.83"/>
<polygon fill="black" stroke="black" points="2168.54,-393.62 2173.85,-384.46 2163.98,-388.31 2168.54,-393.62"/>
</g>
<!-- staking_contract::assert_staking_contract_exists&#45;&gt;error::not_found -->
<g id="edge41" class="edge">
<title>staking_contract::assert_staking_contract_exists&#45;&gt;error::not_found</title>
<path fill="none" stroke="black" d="M1474.26,-445.04C1342.06,-437.66 1121.68,-412.98 951.54,-332 939.32,-326.19 927.65,-316.99 918.16,-308.2"/>
<polygon fill="black" stroke="black" points="920.78,-305.88 911.18,-301.41 915.9,-310.89 920.78,-305.88"/>
</g>
<!-- vesting::assert_vesting_contract_exists&#45;&gt;error::not_found -->
<g id="edge43" class="edge">
<title>vesting::assert_vesting_contract_exists&#45;&gt;error::not_found</title>
<path fill="none" stroke="black" d="M867.65,-513.63C872.75,-471.65 885.78,-364.31 892.06,-312.64"/>
<polygon fill="black" stroke="black" points="895.52,-313.2 893.25,-302.85 888.57,-312.36 895.52,-313.2"/>
</g>
<!-- account::create_signer_with_capability -->
<g id="node32" class="node">
<title>account::create_signer_with_capability</title>
<ellipse fill="none" stroke="black" cx="2533.54" cy="-449" rx="116.18" ry="18"/>
<text text-anchor="middle" x="2533.54" y="-445.3" font-family="Times,serif" font-size="14.00">create_signer_with_capability</text>
</g>
<!-- vesting::get_vesting_account_signer_internal&#45;&gt;account::create_signer_with_capability -->
<g id="edge44" class="edge">
<title>vesting::get_vesting_account_signer_internal&#45;&gt;account::create_signer_with_capability</title>
<path fill="none" stroke="black" d="M1360.51,-517.29C1391.58,-512.85 1427.07,-508.44 1459.54,-506 1696.67,-488.18 1757.05,-510.33 1994.54,-498 2146.54,-490.11 2322.03,-472.98 2430.4,-461.47"/>
<polygon fill="black" stroke="black" points="2430.57,-464.97 2440.15,-460.43 2429.83,-458.01 2430.57,-464.97"/>
</g>
<!-- vesting::verify_admin&#45;&gt;signer::address_of -->
<g id="edge45" class="edge">
<title>vesting::verify_admin&#45;&gt;signer::address_of</title>
<path fill="none" stroke="black" d="M1025.05,-517.17C1014.69,-513.28 1003.24,-509.23 992.54,-506 929.4,-486.94 855.29,-470.53 806.3,-460.49"/>
<polygon fill="black" stroke="black" points="807,-457.06 796.51,-458.5 805.61,-463.92 807,-457.06"/>
</g>
<!-- error::unauthenticated -->
<g id="node33" class="node">
<title>error::unauthenticated</title>
<ellipse fill="none" stroke="black" cx="1026.54" cy="-283" rx="66.09" ry="18"/>
<text text-anchor="middle" x="1026.54" y="-279.3" font-family="Times,serif" font-size="14.00">unauthenticated</text>
</g>
<!-- vesting::verify_admin&#45;&gt;error::unauthenticated -->
<g id="edge46" class="edge">
<title>vesting::verify_admin&#45;&gt;error::unauthenticated</title>
<path fill="none" stroke="black" d="M1057.22,-513.63C1051.61,-471.65 1037.27,-364.31 1030.37,-312.64"/>
<polygon fill="black" stroke="black" points="1033.85,-312.3 1029.06,-302.85 1026.91,-313.23 1033.85,-312.3"/>
</g>
<!-- error::canonical -->
<g id="node34" class="node">
<title>error::canonical</title>
<ellipse fill="none" stroke="black" cx="1026.54" cy="-200" rx="44.39" ry="18"/>
<text text-anchor="middle" x="1026.54" y="-196.3" font-family="Times,serif" font-size="14.00">canonical</text>
</g>
<!-- error::not_found&#45;&gt;error::canonical -->
<g id="edge47" class="edge">
<title>error::not_found&#45;&gt;error::canonical</title>
<path fill="none" stroke="black" d="M919.57,-267.14C940.28,-254.33 970.41,-235.71 993.41,-221.48"/>
<polygon fill="black" stroke="black" points="995.15,-224.52 1001.82,-216.29 991.47,-218.57 995.15,-224.52"/>
</g>
<!-- stake::assert_stake_pool_exists&#45;&gt;stake::stake_pool_exists -->
<g id="edge49" class="edge">
<title>stake::assert_stake_pool_exists&#45;&gt;stake::stake_pool_exists</title>
<path fill="none" stroke="black" d="M349.97,-348.61C325.76,-336.04 292.17,-318.6 265.99,-305.01"/>
<polygon fill="black" stroke="black" points="267.83,-302.02 257.34,-300.51 264.6,-308.23 267.83,-302.02"/>
</g>
<!-- stake::assert_stake_pool_exists&#45;&gt;error::invalid_argument -->
<g id="edge48" class="edge">
<title>stake::assert_stake_pool_exists&#45;&gt;error::invalid_argument</title>
<path fill="none" stroke="black" d="M465.14,-356.35C523.47,-350.68 603.17,-343.67 673.54,-340 721.04,-337.53 1055.72,-344.76 1101.54,-332 1120.09,-326.84 1138.82,-316.54 1153.78,-306.8"/>
<polygon fill="black" stroke="black" points="1155.45,-309.9 1161.77,-301.39 1151.53,-304.1 1155.45,-309.9"/>
</g>
<!-- vector::is_empty -->
<g id="node35" class="node">
<title>vector::is_empty</title>
<ellipse fill="none" stroke="black" cx="2002.54" cy="-34" rx="43.59" ry="18"/>
<text text-anchor="middle" x="2002.54" y="-30.3" font-family="Times,serif" font-size="14.00">is_empty</text>
</g>
<!-- option::is_some&#45;&gt;vector::is_empty -->
<g id="edge50" class="edge">
<title>option::is_some&#45;&gt;vector::is_empty</title>
<path fill="none" stroke="black" d="M1995.45,-98.82C1996.59,-88.58 1998.06,-75.33 1999.37,-63.55"/>
<polygon fill="black" stroke="black" points="2002.81,-64.26 2000.43,-53.94 1995.85,-63.49 2002.81,-64.26"/>
</g>
<!-- option::none -->
<g id="node36" class="node">
<title>option::none</title>
<ellipse fill="none" stroke="black" cx="2005.54" cy="-200" rx="27.9" ry="18"/>
<text text-anchor="middle" x="2005.54" y="-196.3" font-family="Times,serif" font-size="14.00">none</text>
</g>
<!-- simple_map::find&#45;&gt;option::none -->
<g id="edge51" class="edge">
<title>simple_map::find&#45;&gt;option::none</title>
<path fill="none" stroke="black" d="M2098.7,-268.99C2080.82,-255.94 2053.06,-235.68 2032.49,-220.67"/>
<polygon fill="black" stroke="black" points="2034.69,-217.94 2024.55,-214.87 2030.57,-223.6 2034.69,-217.94"/>
</g>
<!-- option::some -->
<g id="node37" class="node">
<title>option::some</title>
<ellipse fill="none" stroke="black" cx="1929.54" cy="-200" rx="29.8" ry="18"/>
<text text-anchor="middle" x="1929.54" y="-196.3" font-family="Times,serif" font-size="14.00">some</text>
</g>
<!-- simple_map::find&#45;&gt;option::some -->
<g id="edge52" class="edge">
<title>simple_map::find&#45;&gt;option::some</title>
<path fill="none" stroke="black" d="M2089.43,-281.23C2058.14,-279.21 2006.15,-272.26 1968.54,-249 1959.48,-243.4 1951.59,-234.93 1945.32,-226.66"/>
<polygon fill="black" stroke="black" points="1948.19,-224.66 1939.59,-218.47 1942.45,-228.67 1948.19,-224.66"/>
</g>
<!-- comparator::compare -->
<g id="node38" class="node">
<title>comparator::compare</title>
<ellipse fill="none" stroke="black" cx="2169.54" cy="-200" rx="41.69" ry="18"/>
<text text-anchor="middle" x="2169.54" y="-196.3" font-family="Times,serif" font-size="14.00">compare</text>
</g>
<!-- simple_map::find&#45;&gt;comparator::compare -->
<g id="edge53" class="edge">
<title>simple_map::find&#45;&gt;comparator::compare</title>
<path fill="none" stroke="black" d="M2127.01,-266C2134.27,-254.9 2144.1,-239.88 2152.48,-227.07"/>
<polygon fill="black" stroke="black" points="2155.17,-229.36 2157.71,-219.07 2149.31,-225.52 2155.17,-229.36"/>
</g>
<!-- comparator::is_smaller_than -->
<g id="node39" class="node">
<title>comparator::is_smaller_than</title>
<ellipse fill="none" stroke="black" cx="2296.54" cy="-200" rx="66.89" ry="18"/>
<text text-anchor="middle" x="2296.54" y="-196.3" font-family="Times,serif" font-size="14.00">is_smaller_than</text>
</g>
<!-- simple_map::find&#45;&gt;comparator::is_smaller_than -->
<g id="edge54" class="edge">
<title>simple_map::find&#45;&gt;comparator::is_smaller_than</title>
<path fill="none" stroke="black" d="M2141.58,-275.99C2163.08,-270.38 2194.6,-261.06 2220.54,-249 2235.8,-241.9 2251.69,-232.27 2264.97,-223.5"/>
<polygon fill="black" stroke="black" points="2266.55,-226.65 2272.87,-218.15 2262.63,-220.85 2266.55,-226.65"/>
</g>
<!-- option::extract&#45;&gt;option::is_some -->
<g id="edge55" class="edge">
<title>option::extract&#45;&gt;option::is_some</title>
<path fill="none" stroke="black" d="M1869.79,-185.9C1876.44,-182.03 1883.77,-177.81 1890.54,-174 1913.05,-161.34 1938.55,-147.47 1958.54,-136.71"/>
<polygon fill="black" stroke="black" points="1959.97,-139.91 1967.12,-132.1 1956.65,-133.75 1959.97,-139.91"/>
</g>
<!-- error::invalid_argument&#45;&gt;error::canonical -->
<g id="edge56" class="edge">
<title>error::invalid_argument&#45;&gt;error::canonical</title>
<path fill="none" stroke="black" d="M1153.7,-266.19C1127.82,-252.92 1090.79,-233.94 1063.36,-219.87"/>
<polygon fill="black" stroke="black" points="1065.2,-216.89 1054.7,-215.44 1062.01,-223.12 1065.2,-216.89"/>
</g>
<!-- account::create_signer -->
<g id="node40" class="node">
<title>account::create_signer</title>
<ellipse fill="none" stroke="black" cx="2533.54" cy="-366" rx="57.69" ry="18"/>
<text text-anchor="middle" x="2533.54" y="-362.3" font-family="Times,serif" font-size="14.00">create_signer</text>
</g>
<!-- account::create_signer_with_capability&#45;&gt;account::create_signer -->
<g id="edge57" class="edge">
<title>account::create_signer_with_capability&#45;&gt;account::create_signer</title>
<path fill="none" stroke="black" d="M2533.54,-430.82C2533.54,-420.69 2533.54,-407.6 2533.54,-395.92"/>
<polygon fill="black" stroke="black" points="2537.04,-395.95 2533.54,-385.95 2530.04,-395.95 2537.04,-395.95"/>
</g>
<!-- error::unauthenticated&#45;&gt;error::canonical -->
<g id="edge58" class="edge">
<title>error::unauthenticated&#45;&gt;error::canonical</title>
<path fill="none" stroke="black" d="M1026.54,-264.82C1026.54,-254.69 1026.54,-241.6 1026.54,-229.92"/>
<polygon fill="black" stroke="black" points="1030.04,-229.95 1026.54,-219.95 1023.04,-229.95 1030.04,-229.95"/>
</g>
<!-- vector::singleton -->
<g id="node41" class="node">
<title>vector::singleton</title>
<ellipse fill="none" stroke="black" cx="1898.54" cy="-34" rx="42.79" ry="18"/>
<text text-anchor="middle" x="1898.54" y="-30.3" font-family="Times,serif" font-size="14.00">singleton</text>
</g>
<!-- option::some&#45;&gt;vector::singleton -->
<g id="edge59" class="edge">
<title>option::some&#45;&gt;vector::singleton</title>
<path fill="none" stroke="black" d="M1926.28,-181.76C1920.94,-153.51 1910.28,-97.11 1903.84,-63.04"/>
<polygon fill="black" stroke="black" points="1907.33,-62.67 1902.04,-53.5 1900.45,-63.97 1907.33,-62.67"/>
</g>
<!-- comparator::compare&#45;&gt;bcs::to_bytes -->
<g id="edge60" class="edge">
<title>comparator::compare&#45;&gt;bcs::to_bytes</title>
<path fill="none" stroke="black" d="M2193.41,-184.83C2201.72,-180.57 2211.28,-176.4 2220.54,-174 2253.93,-165.34 2343.75,-179.38 2375.54,-166 2387.55,-160.94 2398.54,-151.83 2407.29,-142.9"/>
<polygon fill="black" stroke="black" points="2409.76,-145.38 2413.93,-135.64 2404.6,-140.66 2409.76,-145.38"/>
</g>
<!-- comparator::compare_u8_vector -->
<g id="node42" class="node">
<title>comparator::compare_u8_vector</title>
<ellipse fill="none" stroke="black" cx="2208.54" cy="-117" rx="81.49" ry="18"/>
<text text-anchor="middle" x="2208.54" y="-113.3" font-family="Times,serif" font-size="14.00">compare_u8_vector</text>
</g>
<!-- comparator::compare&#45;&gt;comparator::compare_u8_vector -->
<g id="edge61" class="edge">
<title>comparator::compare&#45;&gt;comparator::compare_u8_vector</title>
<path fill="none" stroke="black" d="M2177.62,-182.22C2182.73,-171.61 2189.45,-157.65 2195.32,-145.45"/>
<polygon fill="black" stroke="black" points="2198.36,-147.21 2199.54,-136.68 2192.05,-144.18 2198.36,-147.21"/>
</g>
</g>
</svg>
