<?xml version="1.0" encoding="UTF-8" standalone="no"?>
<!DOCTYPE svg PUBLIC "-//W3C//DTD SVG 1.1//EN"
 "http://www.w3.org/Graphics/SVG/1.1/DTD/svg11.dtd">
<!-- Generated by graphviz version 7.0.0 (20221023.0053)
 -->
<!-- Title: G Pages: 1 -->
<svg width="692pt" height="601pt"
 viewBox="0.00 0.00 692.00 601.00" xmlns="http://www.w3.org/2000/svg" xmlns:xlink="http://www.w3.org/1999/xlink">
<g id="graph0" class="graph" transform="scale(1 1) rotate(0) translate(4 597)">
<title>G</title>
<polygon fill="white" stroke="none" points="-4,4 -4,-597 688,-597 688,4 -4,4"/>
<g id="clust1" class="cluster">
<title>cluster_staking_contract</title>
<polygon fill="none" stroke="black" points="228,-64 228,-283 518,-283 518,-64 228,-64"/>
<text text-anchor="middle" x="373" y="-267.8" font-family="Times,serif" font-size="14.00">staking_contract</text>
</g>
<g id="clust2" class="cluster">
<title>cluster_genesis</title>
<polygon fill="none" stroke="black" points="8,-291 8,-585 464,-585 464,-291 8,-291"/>
<text text-anchor="middle" x="236" y="-569.8" font-family="Times,serif" font-size="14.00">genesis</text>
</g>
<g id="clust3" class="cluster">
<title>cluster_vesting</title>
<polygon fill="none" stroke="black" points="472,-435 472,-510 676,-510 676,-435 472,-435"/>
<text text-anchor="middle" x="574" y="-494.8" font-family="Times,serif" font-size="14.00">vesting</text>
</g>
<!-- initialize_stake_owner -->
<g id="node1" class="node">
<title>initialize_stake_owner</title>
<ellipse fill="none" stroke="black" cx="274" cy="-18" rx="90.18" ry="18"/>
<text text-anchor="middle" x="274" y="-14.3" font-family="Times,serif" font-size="14.00">initialize_stake_owner</text>
</g>
<!-- staking_contract::create_stake_pool -->
<g id="node2" class="node">
<title>staking_contract::create_stake_pool</title>
<ellipse fill="none" stroke="black" cx="341" cy="-90" rx="74.19" ry="18"/>
<text text-anchor="middle" x="341" y="-86.3" font-family="Times,serif" font-size="14.00">create_stake_pool</text>
</g>
<!-- staking_contract::create_stake_pool&#45;&gt;initialize_stake_owner -->
<g id="edge1" class="edge">
<title>staking_contract::create_stake_pool&#45;&gt;initialize_stake_owner</title>
<path fill="none" stroke="black" d="M324.78,-72.05C316.72,-63.63 306.81,-53.28 297.9,-43.97"/>
<polygon fill="black" stroke="black" points="300.56,-41.69 291.12,-36.88 295.5,-46.53 300.56,-41.69"/>
</g>
<!-- genesis::create_initialize_validator -->
<g id="node3" class="node">
<title>genesis::create_initialize_validator</title>
<ellipse fill="none" stroke="black" cx="208" cy="-317" rx="102.88" ry="18"/>
<text text-anchor="middle" x="208" y="-313.3" font-family="Times,serif" font-size="14.00">create_initialize_validator</text>
</g>
<!-- genesis::create_initialize_validator&#45;&gt;initialize_stake_owner -->
<g id="edge2" class="edge">
<title>genesis::create_initialize_validator&#45;&gt;initialize_stake_owner</title>
<path fill="none" stroke="black" d="M204.84,-298.68C197.95,-256.18 185.14,-144.3 224,-64 227.83,-56.09 233.72,-48.94 240.14,-42.79"/>
<polygon fill="black" stroke="black" points="242.06,-45.76 247.29,-36.55 237.46,-40.49 242.06,-45.76"/>
</g>
<!-- staking_contract::create_staking_contract -->
<g id="node6" class="node">
<title>staking_contract::create_staking_contract</title>
<ellipse fill="none" stroke="black" cx="347" cy="-234" rx="94.48" ry="18"/>
<text text-anchor="middle" x="347" y="-230.3" font-family="Times,serif" font-size="14.00">create_staking_contract</text>
</g>
<!-- genesis::create_initialize_validator&#45;&gt;staking_contract::create_staking_contract -->
<g id="edge8" class="edge">
<title>genesis::create_initialize_validator&#45;&gt;staking_contract::create_staking_contract</title>
<path fill="none" stroke="black" d="M236.46,-299.41C257.36,-287.24 285.96,-270.57 308.84,-257.24"/>
<polygon fill="black" stroke="black" points="310.39,-260.39 317.27,-252.33 306.86,-254.34 310.39,-260.39"/>
</g>
<!-- staking_contract::create_staking_contract_with_coins -->
<g id="node4" class="node">
<title>staking_contract::create_staking_contract_with_coins</title>
<ellipse fill="none" stroke="black" cx="373" cy="-162" rx="137.28" ry="18"/>
<text text-anchor="middle" x="373" y="-158.3" font-family="Times,serif" font-size="14.00">create_staking_contract_with_coins</text>
</g>
<!-- staking_contract::create_staking_contract_with_coins&#45;&gt;staking_contract::create_stake_pool -->
<g id="edge3" class="edge">
<title>staking_contract::create_staking_contract_with_coins&#45;&gt;staking_contract::create_stake_pool</title>
<path fill="none" stroke="black" d="M365.09,-143.7C361.6,-136.07 357.42,-126.92 353.52,-118.4"/>
<polygon fill="black" stroke="black" points="356.79,-117.12 349.45,-109.48 350.42,-120.03 356.79,-117.12"/>
</g>
<!-- genesis::create_initialize_validators_with_commission -->
<g id="node5" class="node">
<title>genesis::create_initialize_validators_with_commission</title>
<ellipse fill="none" stroke="black" cx="199" cy="-389" rx="173.57" ry="18"/>
<text text-anchor="middle" x="199" y="-385.3" font-family="Times,serif" font-size="14.00">create_initialize_validators_with_commission</text>
</g>
<!-- genesis::create_initialize_validators_with_commission&#45;&gt;genesis::create_initialize_validator -->
<g id="edge4" class="edge">
<title>genesis::create_initialize_validators_with_commission&#45;&gt;genesis::create_initialize_validator</title>
<path fill="none" stroke="black" d="M201.22,-370.7C202.17,-363.32 203.3,-354.52 204.37,-346.25"/>
<polygon fill="black" stroke="black" points="207.8,-346.97 205.61,-336.61 200.86,-346.08 207.8,-346.97"/>
</g>
<!-- staking_contract::create_staking_contract&#45;&gt;staking_contract::create_staking_contract_with_coins -->
<g id="edge5" class="edge">
<title>staking_contract::create_staking_contract&#45;&gt;staking_contract::create_staking_contract_with_coins</title>
<path fill="none" stroke="black" d="M353.43,-215.7C356.23,-208.15 359.58,-199.12 362.72,-190.68"/>
<polygon fill="black" stroke="black" points="365.92,-192.12 366.12,-181.52 359.36,-189.68 365.92,-192.12"/>
</g>
<!-- vesting::create_vesting_contract -->
<g id="node7" class="node">
<title>vesting::create_vesting_contract</title>
<ellipse fill="none" stroke="black" cx="574" cy="-461" rx="94.48" ry="18"/>
<text text-anchor="middle" x="574" y="-457.3" font-family="Times,serif" font-size="14.00">create_vesting_contract</text>
</g>
<!-- vesting::create_vesting_contract&#45;&gt;staking_contract::create_staking_contract_with_coins -->
<g id="edge6" class="edge">
<title>vesting::create_vesting_contract&#45;&gt;staking_contract::create_staking_contract_with_coins</title>
<path fill="none" stroke="black" d="M568.53,-442.6C554.48,-400.03 513.69,-288.76 450,-216 439.86,-204.42 426.67,-194.15 414.08,-185.8"/>
<polygon fill="black" stroke="black" points="416.22,-183.02 405.9,-180.62 412.47,-188.93 416.22,-183.02"/>
</g>
<!-- genesis::create_initialize_validators -->
<g id="node8" class="node">
<title>genesis::create_initialize_validators</title>
<ellipse fill="none" stroke="black" cx="180" cy="-461" rx="105.88" ry="18"/>
<text text-anchor="middle" x="180" y="-457.3" font-family="Times,serif" font-size="14.00">create_initialize_validators</text>
</g>
<!-- genesis::create_initialize_validators&#45;&gt;genesis::create_initialize_validators_with_commission -->
<g id="edge7" class="edge">
<title>genesis::create_initialize_validators&#45;&gt;genesis::create_initialize_validators_with_commission</title>
<path fill="none" stroke="black" d="M184.7,-442.7C186.72,-435.24 189.14,-426.32 191.41,-417.97"/>
<polygon fill="black" stroke="black" points="194.72,-419.13 193.96,-408.57 187.96,-417.3 194.72,-419.13"/>
</g>
<!-- genesis::create_employee_validators -->
<g id="node9" class="node">
<title>genesis::create_employee_validators</title>
<ellipse fill="none" stroke="black" cx="346" cy="-536" rx="109.68" ry="18"/>
<text text-anchor="middle" x="346" y="-532.3" font-family="Times,serif" font-size="14.00">create_employee_validators</text>
</g>
<!-- genesis::create_employee_validators&#45;&gt;vesting::create_vesting_contract -->
<g id="edge9" class="edge">
<title>genesis::create_employee_validators&#45;&gt;vesting::create_vesting_contract</title>
<path fill="none" stroke="black" d="M420.56,-522.47C436.39,-519.05 452.88,-514.9 468,-510 489.89,-502.9 513.28,-492.62 532.51,-483.39"/>
<polygon fill="black" stroke="black" points="533.92,-486.59 541.37,-479.06 530.85,-480.3 533.92,-486.59"/>
</g>
<!-- genesis::initialize_for_verification -->
<g id="node10" class="node">
<title>genesis::initialize_for_verification</title>
<ellipse fill="none" stroke="black" cx="117" cy="-536" rx="100.98" ry="18"/>
<text text-anchor="middle" x="117" y="-532.3" font-family="Times,serif" font-size="14.00">initialize_for_verification</text>
</g>
<!-- genesis::initialize_for_verification&#45;&gt;genesis::create_initialize_validators -->
<g id="edge10" class="edge">
<title>genesis::initialize_for_verification&#45;&gt;genesis::create_initialize_validators</title>
<path fill="none" stroke="black" d="M131.61,-518.07C139.43,-509.01 149.21,-497.67 157.93,-487.57"/>
<polygon fill="black" stroke="black" points="160.38,-490.1 164.26,-480.24 155.08,-485.52 160.38,-490.1"/>
</g>
</g>
</svg>
