<?xml version="1.0" encoding="UTF-8" standalone="no"?>
<!DOCTYPE svg PUBLIC "-//W3C//DTD SVG 1.1//EN"
 "http://www.w3.org/Graphics/SVG/1.1/DTD/svg11.dtd">
<!-- Generated by graphviz version 7.0.0 (20221023.0053)
 -->
<!-- Title: G Pages: 1 -->
<svg width="728pt" height="676pt"
 viewBox="0.00 0.00 728.00 676.00" xmlns="http://www.w3.org/2000/svg" xmlns:xlink="http://www.w3.org/1999/xlink">
<g id="graph0" class="graph" transform="scale(1 1) rotate(0) translate(4 672)">
<title>G</title>
<polygon fill="white" stroke="none" points="-4,4 -4,-672 724,-672 724,4 -4,4"/>
<g id="clust1" class="cluster">
<title>cluster_staking_proxy</title>
<polygon fill="none" stroke="black" points="526,-64 526,-211 712,-211 712,-64 526,-64"/>
<text text-anchor="middle" x="619" y="-195.8" font-family="Times,serif" font-size="14.00">staking_proxy</text>
</g>
<g id="clust2" class="cluster">
<title>cluster_staking_contract</title>
<polygon fill="none" stroke="black" points="228,-136 228,-358 518,-358 518,-136 228,-136"/>
<text text-anchor="middle" x="373" y="-342.8" font-family="Times,serif" font-size="14.00">staking_contract</text>
</g>
<g id="clust3" class="cluster">
<title>cluster_genesis</title>
<polygon fill="none" stroke="black" points="8,-366 8,-660 464,-660 464,-366 8,-366"/>
<text text-anchor="middle" x="236" y="-644.8" font-family="Times,serif" font-size="14.00">genesis</text>
</g>
<g id="clust4" class="cluster">
<title>cluster_vesting</title>
<polygon fill="none" stroke="black" points="472,-510 472,-585 676,-585 676,-510 472,-510"/>
<text text-anchor="middle" x="574" y="-569.8" font-family="Times,serif" font-size="14.00">vesting</text>
</g>
<!-- set_delegated_voter -->
<g id="node1" class="node">
<title>set_delegated_voter</title>
<ellipse fill="none" stroke="black" cx="496" cy="-18" rx="81.49" ry="18"/>
<text text-anchor="middle" x="496" y="-14.3" font-family="Times,serif" font-size="14.00">set_delegated_voter</text>
</g>
<!-- initialize_stake_owner -->
<g id="node2" class="node">
<title>initialize_stake_owner</title>
<ellipse fill="none" stroke="black" cx="373" cy="-90" rx="90.18" ry="18"/>
<text text-anchor="middle" x="373" y="-86.3" font-family="Times,serif" font-size="14.00">initialize_stake_owner</text>
</g>
<!-- initialize_stake_owner&#45;&gt;set_delegated_voter -->
<g id="edge1" class="edge">
<title>initialize_stake_owner&#45;&gt;set_delegated_voter</title>
<path fill="none" stroke="black" d="M401.84,-72.59C418.42,-63.15 439.46,-51.18 457.44,-40.95"/>
<polygon fill="black" stroke="black" points="459.07,-44.05 466.03,-36.06 455.6,-37.96 459.07,-44.05"/>
</g>
<!-- staking_proxy::set_stake_pool_voter -->
<g id="node3" class="node">
<title>staking_proxy::set_stake_pool_voter</title>
<ellipse fill="none" stroke="black" cx="619" cy="-90" rx="85.29" ry="18"/>
<text text-anchor="middle" x="619" y="-86.3" font-family="Times,serif" font-size="14.00">set_stake_pool_voter</text>
</g>
<!-- staking_proxy::set_stake_pool_voter&#45;&gt;set_delegated_voter -->
<g id="edge2" class="edge">
<title>staking_proxy::set_stake_pool_voter&#45;&gt;set_delegated_voter</title>
<path fill="none" stroke="black" d="M590.16,-72.59C573.58,-63.15 552.54,-51.18 534.56,-40.95"/>
<polygon fill="black" stroke="black" points="536.4,-37.96 525.97,-36.06 532.93,-44.05 536.4,-37.96"/>
</g>
<!-- staking_contract::create_stake_pool -->
<g id="node4" class="node">
<title>staking_contract::create_stake_pool</title>
<ellipse fill="none" stroke="black" cx="373" cy="-162" rx="74.19" ry="18"/>
<text text-anchor="middle" x="373" y="-158.3" font-family="Times,serif" font-size="14.00">create_stake_pool</text>
</g>
<!-- staking_contract::create_stake_pool&#45;&gt;initialize_stake_owner -->
<g id="edge3" class="edge">
<title>staking_contract::create_stake_pool&#45;&gt;initialize_stake_owner</title>
<path fill="none" stroke="black" d="M373,-143.7C373,-136.41 373,-127.73 373,-119.54"/>
<polygon fill="black" stroke="black" points="376.5,-119.62 373,-109.62 369.5,-119.62 376.5,-119.62"/>
</g>
<!-- genesis::create_initialize_validator -->
<g id="node5" class="node">
<title>genesis::create_initialize_validator</title>
<ellipse fill="none" stroke="black" cx="208" cy="-392" rx="102.88" ry="18"/>
<text text-anchor="middle" x="208" y="-388.3" font-family="Times,serif" font-size="14.00">create_initialize_validator</text>
</g>
<!-- genesis::create_initialize_validator&#45;&gt;initialize_stake_owner -->
<g id="edge4" class="edge">
<title>genesis::create_initialize_validator&#45;&gt;initialize_stake_owner</title>
<path fill="none" stroke="black" d="M203.1,-373.81C191.47,-329.09 167.25,-207.62 224,-136 237.93,-118.43 258.48,-107.52 279.9,-100.8"/>
<polygon fill="black" stroke="black" points="280.66,-104.22 289.35,-98.15 278.77,-97.48 280.66,-104.22"/>
</g>
<!-- staking_contract::create_staking_contract -->
<g id="node9" class="node">
<title>staking_contract::create_staking_contract</title>
<ellipse fill="none" stroke="black" cx="347" cy="-309" rx="94.48" ry="18"/>
<text text-anchor="middle" x="347" y="-305.3" font-family="Times,serif" font-size="14.00">create_staking_contract</text>
</g>
<!-- genesis::create_initialize_validator&#45;&gt;staking_contract::create_staking_contract -->
<g id="edge11" class="edge">
<title>genesis::create_initialize_validator&#45;&gt;staking_contract::create_staking_contract</title>
<path fill="none" stroke="black" d="M236.46,-374.41C257.36,-362.24 285.96,-345.57 308.84,-332.24"/>
<polygon fill="black" stroke="black" points="310.39,-335.39 317.27,-327.33 306.86,-329.34 310.39,-335.39"/>
</g>
<!-- staking_proxy::set_voter -->
<g id="node6" class="node">
<title>staking_proxy::set_voter</title>
<ellipse fill="none" stroke="black" cx="619" cy="-162" rx="42.79" ry="18"/>
<text text-anchor="middle" x="619" y="-158.3" font-family="Times,serif" font-size="14.00">set_voter</text>
</g>
<!-- staking_proxy::set_voter&#45;&gt;staking_proxy::set_stake_pool_voter -->
<g id="edge5" class="edge">
<title>staking_proxy::set_voter&#45;&gt;staking_proxy::set_stake_pool_voter</title>
<path fill="none" stroke="black" d="M619,-143.7C619,-136.41 619,-127.73 619,-119.54"/>
<polygon fill="black" stroke="black" points="622.5,-119.62 619,-109.62 615.5,-119.62 622.5,-119.62"/>
</g>
<!-- staking_contract::create_staking_contract_with_coins -->
<g id="node7" class="node">
<title>staking_contract::create_staking_contract_with_coins</title>
<ellipse fill="none" stroke="black" cx="373" cy="-237" rx="137.28" ry="18"/>
<text text-anchor="middle" x="373" y="-233.3" font-family="Times,serif" font-size="14.00">create_staking_contract_with_coins</text>
</g>
<!-- staking_contract::create_staking_contract_with_coins&#45;&gt;staking_contract::create_stake_pool -->
<g id="edge6" class="edge">
<title>staking_contract::create_staking_contract_with_coins&#45;&gt;staking_contract::create_stake_pool</title>
<path fill="none" stroke="black" d="M373,-218.7C373,-210.67 373,-200.9 373,-191.8"/>
<polygon fill="black" stroke="black" points="376.5,-191.94 373,-181.94 369.5,-191.94 376.5,-191.94"/>
</g>
<!-- genesis::create_initialize_validators_with_commission -->
<g id="node8" class="node">
<title>genesis::create_initialize_validators_with_commission</title>
<ellipse fill="none" stroke="black" cx="199" cy="-464" rx="173.57" ry="18"/>
<text text-anchor="middle" x="199" y="-460.3" font-family="Times,serif" font-size="14.00">create_initialize_validators_with_commission</text>
</g>
<!-- genesis::create_initialize_validators_with_commission&#45;&gt;genesis::create_initialize_validator -->
<g id="edge7" class="edge">
<title>genesis::create_initialize_validators_with_commission&#45;&gt;genesis::create_initialize_validator</title>
<path fill="none" stroke="black" d="M201.22,-445.7C202.17,-438.32 203.3,-429.52 204.37,-421.25"/>
<polygon fill="black" stroke="black" points="207.8,-421.97 205.61,-411.61 200.86,-421.08 207.8,-421.97"/>
</g>
<!-- staking_contract::create_staking_contract&#45;&gt;staking_contract::create_staking_contract_with_coins -->
<g id="edge8" class="edge">
<title>staking_contract::create_staking_contract&#45;&gt;staking_contract::create_staking_contract_with_coins</title>
<path fill="none" stroke="black" d="M353.43,-290.7C356.23,-283.15 359.58,-274.12 362.72,-265.68"/>
<polygon fill="black" stroke="black" points="365.92,-267.12 366.12,-256.52 359.36,-264.68 365.92,-267.12"/>
</g>
<!-- vesting::create_vesting_contract -->
<g id="node10" class="node">
<title>vesting::create_vesting_contract</title>
<ellipse fill="none" stroke="black" cx="574" cy="-536" rx="94.48" ry="18"/>
<text text-anchor="middle" x="574" y="-532.3" font-family="Times,serif" font-size="14.00">create_vesting_contract</text>
</g>
<!-- vesting::create_vesting_contract&#45;&gt;staking_contract::create_staking_contract_with_coins -->
<g id="edge9" class="edge">
<title>vesting::create_vesting_contract&#45;&gt;staking_contract::create_staking_contract_with_coins</title>
<path fill="none" stroke="black" d="M568.53,-517.6C554.48,-475.03 513.69,-363.76 450,-291 439.86,-279.42 426.67,-269.15 414.08,-260.8"/>
<polygon fill="black" stroke="black" points="416.22,-258.02 405.9,-255.62 412.47,-263.93 416.22,-258.02"/>
</g>
<!-- genesis::create_initialize_validators -->
<g id="node11" class="node">
<title>genesis::create_initialize_validators</title>
<ellipse fill="none" stroke="black" cx="180" cy="-536" rx="105.88" ry="18"/>
<text text-anchor="middle" x="180" y="-532.3" font-family="Times,serif" font-size="14.00">create_initialize_validators</text>
</g>
<!-- genesis::create_initialize_validators&#45;&gt;genesis::create_initialize_validators_with_commission -->
<g id="edge10" class="edge">
<title>genesis::create_initialize_validators&#45;&gt;genesis::create_initialize_validators_with_commission</title>
<path fill="none" stroke="black" d="M184.7,-517.7C186.72,-510.24 189.14,-501.32 191.41,-492.97"/>
<polygon fill="black" stroke="black" points="194.72,-494.13 193.96,-483.57 187.96,-492.3 194.72,-494.13"/>
</g>
<!-- genesis::create_employee_validators -->
<g id="node12" class="node">
<title>genesis::create_employee_validators</title>
<ellipse fill="none" stroke="black" cx="346" cy="-611" rx="109.68" ry="18"/>
<text text-anchor="middle" x="346" y="-607.3" font-family="Times,serif" font-size="14.00">create_employee_validators</text>
</g>
<!-- genesis::create_employee_validators&#45;&gt;vesting::create_vesting_contract -->
<g id="edge12" class="edge">
<title>genesis::create_employee_validators&#45;&gt;vesting::create_vesting_contract</title>
<path fill="none" stroke="black" d="M420.56,-597.47C436.39,-594.05 452.88,-589.9 468,-585 489.89,-577.9 513.28,-567.62 532.51,-558.39"/>
<polygon fill="black" stroke="black" points="533.92,-561.59 541.37,-554.06 530.85,-555.3 533.92,-561.59"/>
</g>
<!-- genesis::initialize_for_verification -->
<g id="node13" class="node">
<title>genesis::initialize_for_verification</title>
<ellipse fill="none" stroke="black" cx="117" cy="-611" rx="100.98" ry="18"/>
<text text-anchor="middle" x="117" y="-607.3" font-family="Times,serif" font-size="14.00">initialize_for_verification</text>
</g>
<!-- genesis::initialize_for_verification&#45;&gt;genesis::create_initialize_validators -->
<g id="edge13" class="edge">
<title>genesis::initialize_for_verification&#45;&gt;genesis::create_initialize_validators</title>
<path fill="none" stroke="black" d="M131.61,-593.07C139.43,-584.01 149.21,-572.67 157.93,-562.57"/>
<polygon fill="black" stroke="black" points="160.38,-565.1 164.26,-555.24 155.08,-560.52 160.38,-565.1"/>
</g>
</g>
</svg>
