<?xml version="1.0" encoding="UTF-8" standalone="no"?>
<!DOCTYPE svg PUBLIC "-//W3C//DTD SVG 1.1//EN"
 "http://www.w3.org/Graphics/SVG/1.1/DTD/svg11.dtd">
<!-- Generated by graphviz version 7.0.0 (20221023.0053)
 -->
<!-- Title: G Pages: 1 -->
<svg width="2249pt" height="761pt"
 viewBox="0.00 0.00 2249.00 761.00" xmlns="http://www.w3.org/2000/svg" xmlns:xlink="http://www.w3.org/1999/xlink">
<g id="graph0" class="graph" transform="scale(1 1) rotate(0) translate(4 757)">
<title>G</title>
<polygon fill="white" stroke="none" points="-4,4 -4,-757 2245,-757 2245,4 -4,4"/>
<g id="clust1" class="cluster">
<title>cluster_event</title>
<polygon fill="none" stroke="black" points="8,-91 8,-249 194,-249 194,-91 8,-91"/>
<text text-anchor="middle" x="101" y="-233.8" font-family="Times,serif" font-size="14.00">event</text>
</g>
<g id="clust2" class="cluster">
<title>cluster_stake</title>
<polygon fill="none" stroke="black" points="1939,-257 1939,-490 2149,-490 2149,-257 1939,-257"/>
<text text-anchor="middle" x="2044" y="-474.8" font-family="Times,serif" font-size="14.00">stake</text>
</g>
<g id="clust3" class="cluster">
<title>cluster_pool_u64</title>
<polygon fill="none" stroke="black" points="202,-174 202,-637 886,-637 886,-174 202,-174"/>
<text text-anchor="middle" x="544" y="-621.8" font-family="Times,serif" font-size="14.00">pool_u64</text>
</g>
<g id="clust4" class="cluster">
<title>cluster_bcs</title>
<polygon fill="none" stroke="black" points="760,-91 760,-166 856,-166 856,-91 760,-91"/>
<text text-anchor="middle" x="808" y="-150.8" font-family="Times,serif" font-size="14.00">bcs</text>
</g>
<g id="clust5" class="cluster">
<title>cluster_coin</title>
<polygon fill="none" stroke="black" points="2157,-340 2157,-415 2233,-415 2233,-340 2157,-340"/>
<text text-anchor="middle" x="2195" y="-399.8" font-family="Times,serif" font-size="14.00">coin</text>
</g>
<g id="clust6" class="cluster">
<title>cluster_error</title>
<polygon fill="none" stroke="black" points="1639,-174 1639,-332 1931,-332 1931,-174 1639,-174"/>
<text text-anchor="middle" x="1785" y="-316.8" font-family="Times,serif" font-size="14.00">error</text>
</g>
<g id="clust7" class="cluster">
<title>cluster_simple_map</title>
<polygon fill="none" stroke="black" points="1072,-257 1072,-415 1585,-415 1585,-257 1072,-257"/>
<text text-anchor="middle" x="1328.5" y="-399.8" font-family="Times,serif" font-size="14.00">simple_map</text>
</g>
<g id="clust8" class="cluster">
<title>cluster_option</title>
<polygon fill="none" stroke="black" points="1154,-91 1154,-249 1485,-249 1485,-91 1154,-91"/>
<text text-anchor="middle" x="1319.5" y="-233.8" font-family="Times,serif" font-size="14.00">option</text>
</g>
<g id="clust9" class="cluster">
<title>cluster_vector</title>
<polygon fill="none" stroke="black" points="1001,-8 1001,-83 1404,-83 1404,-8 1001,-8"/>
<text text-anchor="middle" x="1202.5" y="-67.8" font-family="Times,serif" font-size="14.00">vector</text>
</g>
<g id="clust10" class="cluster">
<title>cluster_comparator</title>
<polygon fill="none" stroke="black" points="894,-91 894,-249 1146,-249 1146,-91 894,-91"/>
<text text-anchor="middle" x="1020" y="-233.8" font-family="Times,serif" font-size="14.00">comparator</text>
</g>
<!-- add_distribution -->
<g id="node1" class="node">
<title>add_distribution</title>
<ellipse fill="none" stroke="black" cx="367" cy="-735" rx="68.49" ry="18"/>
<text text-anchor="middle" x="367" y="-731.3" font-family="Times,serif" font-size="14.00">add_distribution</text>
</g>
<!-- event::emit_event -->
<g id="node2" class="node">
<title>event::emit_event</title>
<ellipse fill="none" stroke="black" cx="136" cy="-200" rx="50.09" ry="18"/>
<text text-anchor="middle" x="136" y="-196.3" font-family="Times,serif" font-size="14.00">emit_event</text>
</g>
<!-- add_distribution&#45;&gt;event::emit_event -->
<g id="edge1" class="edge">
<title>add_distribution&#45;&gt;event::emit_event</title>
<path fill="none" stroke="black" d="M313.02,-723.63C247.02,-707.46 144,-669.35 144,-589 144,-589 144,-589 144,-365 144,-317.48 140.61,-262.31 138.24,-229.6"/>
<polygon fill="black" stroke="black" points="141.74,-229.44 137.51,-219.73 134.76,-229.96 141.74,-229.44"/>
</g>
<!-- stake::get_stake -->
<g id="node3" class="node">
<title>stake::get_stake</title>
<ellipse fill="none" stroke="black" cx="2044" cy="-441" rx="44.39" ry="18"/>
<text text-anchor="middle" x="2044" y="-437.3" font-family="Times,serif" font-size="14.00">get_stake</text>
</g>
<!-- add_distribution&#45;&gt;stake::get_stake -->
<g id="edge2" class="edge">
<title>add_distribution&#45;&gt;stake::get_stake</title>
<path fill="none" stroke="black" d="M427.2,-726.16C610.76,-701.91 1179.32,-624.3 1646,-534 1773.32,-509.36 1921.82,-472.98 1996.28,-454.2"/>
<polygon fill="black" stroke="black" points="1996.85,-457.67 2005.68,-451.83 1995.13,-450.88 1996.85,-457.67"/>
</g>
<!-- pool_u64::buy_in -->
<g id="node4" class="node">
<title>pool_u64::buy_in</title>
<ellipse fill="none" stroke="black" cx="685" cy="-516" rx="35.19" ry="18"/>
<text text-anchor="middle" x="685" y="-512.3" font-family="Times,serif" font-size="14.00">buy_in</text>
</g>
<!-- add_distribution&#45;&gt;pool_u64::buy_in -->
<g id="edge3" class="edge">
<title>add_distribution&#45;&gt;pool_u64::buy_in</title>
<path fill="none" stroke="black" d="M347.99,-717.38C338.52,-707.82 328.04,-694.95 323,-681 306.25,-634.6 290.74,-607.33 323,-570 363.2,-523.49 549.55,-517.01 638.07,-516.62"/>
<polygon fill="black" stroke="black" points="637.87,-520.12 647.87,-516.6 637.86,-513.12 637.87,-520.12"/>
</g>
<!-- update_distribution_pool -->
<g id="node5" class="node">
<title>update_distribution_pool</title>
<ellipse fill="none" stroke="black" cx="431" cy="-663" rx="98.58" ry="18"/>
<text text-anchor="middle" x="431" y="-659.3" font-family="Times,serif" font-size="14.00">update_distribution_pool</text>
</g>
<!-- add_distribution&#45;&gt;update_distribution_pool -->
<g id="edge4" class="edge">
<title>add_distribution&#45;&gt;update_distribution_pool</title>
<path fill="none" stroke="black" d="M382.49,-717.05C390.12,-708.71 399.47,-698.49 407.91,-689.25"/>
<polygon fill="black" stroke="black" points="410.46,-691.65 414.63,-681.91 405.3,-686.92 410.46,-691.65"/>
</g>
<!-- bcs::to_bytes -->
<g id="node6" class="node">
<title>bcs::to_bytes</title>
<ellipse fill="none" stroke="black" cx="808" cy="-117" rx="40.09" ry="18"/>
<text text-anchor="middle" x="808" y="-113.3" font-family="Times,serif" font-size="14.00">to_bytes</text>
</g>
<!-- event::emit_event&#45;&gt;bcs::to_bytes -->
<g id="edge5" class="edge">
<title>event::emit_event&#45;&gt;bcs::to_bytes</title>
<path fill="none" stroke="black" d="M165.38,-185.11C175.51,-180.88 187.06,-176.65 198,-174 400.5,-125 650.3,-118.2 756.42,-117.71"/>
<polygon fill="black" stroke="black" points="756.23,-121.21 766.22,-117.68 756.21,-114.21 756.23,-121.21"/>
</g>
<!-- event::write_to_event_store -->
<g id="node7" class="node">
<title>event::write_to_event_store</title>
<ellipse fill="none" stroke="black" cx="101" cy="-117" rx="85.29" ry="18"/>
<text text-anchor="middle" x="101" y="-113.3" font-family="Times,serif" font-size="14.00">write_to_event_store</text>
</g>
<!-- event::emit_event&#45;&gt;event::write_to_event_store -->
<g id="edge6" class="edge">
<title>event::emit_event&#45;&gt;event::write_to_event_store</title>
<path fill="none" stroke="black" d="M128.58,-181.82C124.03,-171.3 118.11,-157.59 112.91,-145.57"/>
<polygon fill="black" stroke="black" points="116.19,-144.33 109.01,-136.54 109.77,-147.11 116.19,-144.33"/>
</g>
<!-- coin::value -->
<g id="node8" class="node">
<title>coin::value</title>
<ellipse fill="none" stroke="black" cx="2195" cy="-366" rx="29.8" ry="18"/>
<text text-anchor="middle" x="2195" y="-362.3" font-family="Times,serif" font-size="14.00">value</text>
</g>
<!-- stake::get_stake&#45;&gt;coin::value -->
<g id="edge7" class="edge">
<title>stake::get_stake&#45;&gt;coin::value</title>
<path fill="none" stroke="black" d="M2087.2,-436.37C2108.22,-433.09 2133.17,-426.85 2153,-415 2162.53,-409.3 2171.04,-400.71 2177.86,-392.35"/>
<polygon fill="black" stroke="black" points="2180.64,-394.48 2183.9,-384.4 2175.07,-390.25 2180.64,-394.48"/>
</g>
<!-- stake::assert_stake_pool_exists -->
<g id="node9" class="node">
<title>stake::assert_stake_pool_exists</title>
<ellipse fill="none" stroke="black" cx="2044" cy="-366" rx="97.48" ry="18"/>
<text text-anchor="middle" x="2044" y="-362.3" font-family="Times,serif" font-size="14.00">assert_stake_pool_exists</text>
</g>
<!-- stake::get_stake&#45;&gt;stake::assert_stake_pool_exists -->
<g id="edge8" class="edge">
<title>stake::get_stake&#45;&gt;stake::assert_stake_pool_exists</title>
<path fill="none" stroke="black" d="M2044,-422.7C2044,-414.67 2044,-404.9 2044,-395.8"/>
<polygon fill="black" stroke="black" points="2047.5,-395.94 2044,-385.94 2040.5,-395.94 2047.5,-395.94"/>
</g>
<!-- error::invalid_argument -->
<g id="node10" class="node">
<title>error::invalid_argument</title>
<ellipse fill="none" stroke="black" cx="1720" cy="-283" rx="73.39" ry="18"/>
<text text-anchor="middle" x="1720" y="-279.3" font-family="Times,serif" font-size="14.00">invalid_argument</text>
</g>
<!-- pool_u64::buy_in&#45;&gt;error::invalid_argument -->
<g id="edge9" class="edge">
<title>pool_u64::buy_in&#45;&gt;error::invalid_argument</title>
<path fill="none" stroke="black" d="M714.69,-505.78C725.4,-502.81 737.65,-499.82 749,-498 809.66,-488.29 825.76,-494.89 887,-490 1050.88,-476.91 1480.12,-496.33 1623,-415 1664.36,-391.46 1693.24,-342.31 1708.19,-311.36"/>
<polygon fill="black" stroke="black" points="1711.21,-313.16 1712.25,-302.62 1704.86,-310.21 1711.21,-313.16"/>
</g>
<!-- pool_u64::add_shares -->
<g id="node11" class="node">
<title>pool_u64::add_shares</title>
<ellipse fill="none" stroke="black" cx="828" cy="-441" rx="50.09" ry="18"/>
<text text-anchor="middle" x="828" y="-437.3" font-family="Times,serif" font-size="14.00">add_shares</text>
</g>
<!-- pool_u64::buy_in&#45;&gt;pool_u64::add_shares -->
<g id="edge10" class="edge">
<title>pool_u64::buy_in&#45;&gt;pool_u64::add_shares</title>
<path fill="none" stroke="black" d="M713.08,-504.7C719.89,-502.36 727.17,-499.98 734,-498 748.91,-493.67 754.04,-496.79 768,-490 780.8,-483.77 793.36,-474.39 803.65,-465.57"/>
<polygon fill="black" stroke="black" points="805.8,-468.34 810.93,-459.07 801.14,-463.12 805.8,-468.34"/>
</g>
<!-- pool_u64::amount_to_shares -->
<g id="node12" class="node">
<title>pool_u64::amount_to_shares</title>
<ellipse fill="none" stroke="black" cx="517" cy="-441" rx="75.29" ry="18"/>
<text text-anchor="middle" x="517" y="-437.3" font-family="Times,serif" font-size="14.00">amount_to_shares</text>
</g>
<!-- pool_u64::buy_in&#45;&gt;pool_u64::amount_to_shares -->
<g id="edge11" class="edge">
<title>pool_u64::buy_in&#45;&gt;pool_u64::amount_to_shares</title>
<path fill="none" stroke="black" d="M658.75,-503.59C633.08,-492.44 593.45,-475.22 562.62,-461.82"/>
<polygon fill="black" stroke="black" points="564.07,-458.64 553.5,-457.86 561.28,-465.06 564.07,-458.64"/>
</g>
<!-- pool_u64::balance -->
<g id="node13" class="node">
<title>pool_u64::balance</title>
<ellipse fill="none" stroke="black" cx="348" cy="-516" rx="37.89" ry="18"/>
<text text-anchor="middle" x="348" y="-512.3" font-family="Times,serif" font-size="14.00">balance</text>
</g>
<!-- update_distribution_pool&#45;&gt;pool_u64::balance -->
<g id="edge12" class="edge">
<title>update_distribution_pool&#45;&gt;pool_u64::balance</title>
<path fill="none" stroke="black" d="M354.57,-651.28C339.98,-647.67 327.76,-642.99 323,-637 301.72,-610.23 317,-569.8 331.33,-543.39"/>
<polygon fill="black" stroke="black" points="334.21,-545.41 336.15,-535 328.13,-541.93 334.21,-545.41"/>
</g>
<!-- pool_u64::amount_to_shares_with_total_coins -->
<g id="node14" class="node">
<title>pool_u64::amount_to_shares_with_total_coins</title>
<ellipse fill="none" stroke="black" cx="642" cy="-366" rx="137.58" ry="18"/>
<text text-anchor="middle" x="642" y="-362.3" font-family="Times,serif" font-size="14.00">amount_to_shares_with_total_coins</text>
</g>
<!-- update_distribution_pool&#45;&gt;pool_u64::amount_to_shares_with_total_coins -->
<g id="edge13" class="edge">
<title>update_distribution_pool&#45;&gt;pool_u64::amount_to_shares_with_total_coins</title>
<path fill="none" stroke="black" d="M350.76,-652.19C331.83,-648.44 315.08,-643.47 308,-637 236.31,-571.51 196.54,-492.84 264,-423 272.92,-413.76 482.36,-417.24 495,-415 527.67,-409.22 563.06,-397.83 590.93,-387.6"/>
<polygon fill="black" stroke="black" points="592.05,-390.92 600.19,-384.13 589.59,-384.36 592.05,-390.92"/>
</g>
<!-- pool_u64::total_coins -->
<g id="node15" class="node">
<title>pool_u64::total_coins</title>
<ellipse fill="none" stroke="black" cx="656" cy="-588" rx="49.29" ry="18"/>
<text text-anchor="middle" x="656" y="-584.3" font-family="Times,serif" font-size="14.00">total_coins</text>
</g>
<!-- update_distribution_pool&#45;&gt;pool_u64::total_coins -->
<g id="edge14" class="edge">
<title>update_distribution_pool&#45;&gt;pool_u64::total_coins</title>
<path fill="none" stroke="black" d="M523.92,-656.84C548.43,-653.14 574.34,-647.02 597,-637 609.89,-631.3 622.29,-622.01 632.36,-613.11"/>
<polygon fill="black" stroke="black" points="634.51,-615.89 639.46,-606.53 629.75,-610.76 634.51,-615.89"/>
</g>
<!-- pool_u64::shareholders -->
<g id="node16" class="node">
<title>pool_u64::shareholders</title>
<ellipse fill="none" stroke="black" cx="533" cy="-588" rx="55.49" ry="18"/>
<text text-anchor="middle" x="533" y="-584.3" font-family="Times,serif" font-size="14.00">shareholders</text>
</g>
<!-- update_distribution_pool&#45;&gt;pool_u64::shareholders -->
<g id="edge15" class="edge">
<title>update_distribution_pool&#45;&gt;pool_u64::shareholders</title>
<path fill="none" stroke="black" d="M456.9,-645.27C460.98,-642.55 465.12,-639.72 469,-637 480.34,-629.03 492.56,-619.98 503.25,-611.91"/>
<polygon fill="black" stroke="black" points="505.15,-614.86 510.99,-606.03 500.91,-609.29 505.15,-614.86"/>
</g>
<!-- pool_u64::shares -->
<g id="node17" class="node">
<title>pool_u64::shares</title>
<ellipse fill="none" stroke="black" cx="727" cy="-441" rx="32.49" ry="18"/>
<text text-anchor="middle" x="727" y="-437.3" font-family="Times,serif" font-size="14.00">shares</text>
</g>
<!-- update_distribution_pool&#45;&gt;pool_u64::shares -->
<g id="edge16" class="edge">
<title>update_distribution_pool&#45;&gt;pool_u64::shares</title>
<path fill="none" stroke="black" d="M528.55,-660.03C658.85,-656.9 874.86,-649.82 887,-637 929.47,-592.14 929.18,-543.14 887,-498 878.03,-488.4 780.78,-495.83 769,-490 758.8,-484.95 750.02,-476.21 743.16,-467.57"/>
<polygon fill="black" stroke="black" points="746.1,-465.65 737.39,-459.62 740.43,-469.77 746.1,-465.65"/>
</g>
<!-- pool_u64::shares_to_amount_with_total_coins -->
<g id="node18" class="node">
<title>pool_u64::shares_to_amount_with_total_coins</title>
<ellipse fill="none" stroke="black" cx="348" cy="-366" rx="137.58" ry="18"/>
<text text-anchor="middle" x="348" y="-362.3" font-family="Times,serif" font-size="14.00">shares_to_amount_with_total_coins</text>
</g>
<!-- update_distribution_pool&#45;&gt;pool_u64::shares_to_amount_with_total_coins -->
<g id="edge17" class="edge">
<title>update_distribution_pool&#45;&gt;pool_u64::shares_to_amount_with_total_coins</title>
<path fill="none" stroke="black" d="M337.4,-656.95C282.62,-653.01 222.53,-646.57 214,-637 150.71,-566 161.28,-502.17 214,-423 225.44,-405.82 243.26,-393.91 262.21,-385.64"/>
<polygon fill="black" stroke="black" points="263.42,-388.93 271.42,-381.97 260.83,-382.42 263.42,-388.93"/>
</g>
<!-- pool_u64::transfer_shares -->
<g id="node19" class="node">
<title>pool_u64::transfer_shares</title>
<ellipse fill="none" stroke="black" cx="396" cy="-588" rx="63.89" ry="18"/>
<text text-anchor="middle" x="396" y="-584.3" font-family="Times,serif" font-size="14.00">transfer_shares</text>
</g>
<!-- update_distribution_pool&#45;&gt;pool_u64::transfer_shares -->
<g id="edge18" class="edge">
<title>update_distribution_pool&#45;&gt;pool_u64::transfer_shares</title>
<path fill="none" stroke="black" d="M422.71,-644.7C418.65,-636.25 413.68,-625.87 409.12,-616.37"/>
<polygon fill="black" stroke="black" points="412.37,-615.04 404.89,-607.54 406.06,-618.07 412.37,-615.04"/>
</g>
<!-- pool_u64::update_total_coins -->
<g id="node20" class="node">
<title>pool_u64::update_total_coins</title>
<ellipse fill="none" stroke="black" cx="801" cy="-588" rx="77.19" ry="18"/>
<text text-anchor="middle" x="801" y="-584.3" font-family="Times,serif" font-size="14.00">update_total_coins</text>
</g>
<!-- update_distribution_pool&#45;&gt;pool_u64::update_total_coins -->
<g id="edge19" class="edge">
<title>update_distribution_pool&#45;&gt;pool_u64::update_total_coins</title>
<path fill="none" stroke="black" d="M525.89,-657.82C594.14,-654.02 679.92,-647.4 714,-637 732.81,-631.26 752.13,-621.11 767.76,-611.62"/>
<polygon fill="black" stroke="black" points="769.57,-614.61 776.18,-606.33 765.85,-608.69 769.57,-614.61"/>
</g>
<!-- stake::assert_stake_pool_exists&#45;&gt;error::invalid_argument -->
<g id="edge20" class="edge">
<title>stake::assert_stake_pool_exists&#45;&gt;error::invalid_argument</title>
<path fill="none" stroke="black" d="M1950.08,-360.81C1904.4,-356.62 1849.29,-348.33 1802,-332 1784.52,-325.96 1766.62,-316 1752.02,-306.72"/>
<polygon fill="black" stroke="black" points="1754.03,-303.85 1743.76,-301.29 1750.19,-309.7 1754.03,-303.85"/>
</g>
<!-- stake::stake_pool_exists -->
<g id="node21" class="node">
<title>stake::stake_pool_exists</title>
<ellipse fill="none" stroke="black" cx="2044" cy="-283" rx="73.39" ry="18"/>
<text text-anchor="middle" x="2044" y="-279.3" font-family="Times,serif" font-size="14.00">stake_pool_exists</text>
</g>
<!-- stake::assert_stake_pool_exists&#45;&gt;stake::stake_pool_exists -->
<g id="edge21" class="edge">
<title>stake::assert_stake_pool_exists&#45;&gt;stake::stake_pool_exists</title>
<path fill="none" stroke="black" d="M2044,-347.82C2044,-337.69 2044,-324.6 2044,-312.92"/>
<polygon fill="black" stroke="black" points="2047.5,-312.95 2044,-302.95 2040.5,-312.95 2047.5,-312.95"/>
</g>
<!-- error::canonical -->
<g id="node22" class="node">
<title>error::canonical</title>
<ellipse fill="none" stroke="black" cx="1793" cy="-200" rx="44.39" ry="18"/>
<text text-anchor="middle" x="1793" y="-196.3" font-family="Times,serif" font-size="14.00">canonical</text>
</g>
<!-- error::invalid_argument&#45;&gt;error::canonical -->
<g id="edge22" class="edge">
<title>error::invalid_argument&#45;&gt;error::canonical</title>
<path fill="none" stroke="black" d="M1735.13,-265.22C1745.44,-253.77 1759.27,-238.42 1770.83,-225.6"/>
<polygon fill="black" stroke="black" points="1773.28,-228.1 1777.38,-218.33 1768.08,-223.42 1773.28,-228.1"/>
</g>
<!-- pool_u64::add_shares&#45;&gt;error::invalid_argument -->
<g id="edge23" class="edge">
<title>pool_u64::add_shares&#45;&gt;error::invalid_argument</title>
<path fill="none" stroke="black" d="M878.27,-439.72C1043.18,-438.64 1558.86,-433.76 1589,-415 1621.07,-395.03 1603.12,-367.52 1629,-340 1642.36,-325.79 1660.11,-313.8 1676.37,-304.61"/>
<polygon fill="black" stroke="black" points="1677.8,-307.81 1684.93,-299.97 1674.47,-301.66 1677.8,-307.81"/>
</g>
<!-- error::invalid_state -->
<g id="node23" class="node">
<title>error::invalid_state</title>
<ellipse fill="none" stroke="black" cx="1867" cy="-283" rx="55.79" ry="18"/>
<text text-anchor="middle" x="1867" y="-279.3" font-family="Times,serif" font-size="14.00">invalid_state</text>
</g>
<!-- pool_u64::add_shares&#45;&gt;error::invalid_state -->
<g id="edge24" class="edge">
<title>pool_u64::add_shares&#45;&gt;error::invalid_state</title>
<path fill="none" stroke="black" d="M878.22,-439.59C1041.5,-438.09 1550.95,-432.08 1623,-415 1708.33,-394.77 1726.57,-376.72 1802,-332 1814.32,-324.7 1827.15,-315.58 1838.13,-307.27"/>
<polygon fill="black" stroke="black" points="1840.26,-310.04 1846.04,-301.15 1835.98,-304.5 1840.26,-310.04"/>
</g>
<!-- simple_map::borrow_mut -->
<g id="node24" class="node">
<title>simple_map::borrow_mut</title>
<ellipse fill="none" stroke="black" cx="1429" cy="-366" rx="54.69" ry="18"/>
<text text-anchor="middle" x="1429" y="-362.3" font-family="Times,serif" font-size="14.00">borrow_mut</text>
</g>
<!-- pool_u64::add_shares&#45;&gt;simple_map::borrow_mut -->
<g id="edge25" class="edge">
<title>pool_u64::add_shares&#45;&gt;simple_map::borrow_mut</title>
<path fill="none" stroke="black" d="M877.75,-437.67C947.84,-434.39 1079.67,-428.22 1192,-423 1211.22,-422.11 1346.89,-421.51 1365,-415 1379.3,-409.86 1393.06,-400.36 1404.13,-391.15"/>
<polygon fill="black" stroke="black" points="1406.41,-393.81 1411.62,-384.58 1401.79,-388.54 1406.41,-393.81"/>
</g>
<!-- simple_map::add -->
<g id="node25" class="node">
<title>simple_map::add</title>
<ellipse fill="none" stroke="black" cx="1239" cy="-366" rx="27" ry="18"/>
<text text-anchor="middle" x="1239" y="-362.3" font-family="Times,serif" font-size="14.00">add</text>
</g>
<!-- pool_u64::add_shares&#45;&gt;simple_map::add -->
<g id="edge26" class="edge">
<title>pool_u64::add_shares&#45;&gt;simple_map::add</title>
<path fill="none" stroke="black" d="M878.07,-438.97C973.65,-436.68 1175.15,-430.11 1203,-415 1212.21,-410 1219.75,-401.52 1225.5,-393.06"/>
<polygon fill="black" stroke="black" points="1228.41,-395 1230.63,-384.64 1222.43,-391.36 1228.41,-395"/>
</g>
<!-- pool_u64::contains -->
<g id="node26" class="node">
<title>pool_u64::contains</title>
<ellipse fill="none" stroke="black" cx="838" cy="-366" rx="40.09" ry="18"/>
<text text-anchor="middle" x="838" y="-362.3" font-family="Times,serif" font-size="14.00">contains</text>
</g>
<!-- pool_u64::add_shares&#45;&gt;pool_u64::contains -->
<g id="edge27" class="edge">
<title>pool_u64::add_shares&#45;&gt;pool_u64::contains</title>
<path fill="none" stroke="black" d="M830.37,-422.7C831.47,-414.67 832.81,-404.9 834.05,-395.8"/>
<polygon fill="black" stroke="black" points="837.52,-396.31 835.41,-385.93 830.58,-395.36 837.52,-396.31"/>
</g>
<!-- pool_u64::amount_to_shares&#45;&gt;pool_u64::amount_to_shares_with_total_coins -->
<g id="edge28" class="edge">
<title>pool_u64::amount_to_shares&#45;&gt;pool_u64::amount_to_shares_with_total_coins</title>
<path fill="none" stroke="black" d="M544.74,-423.8C561.93,-413.76 584.27,-400.71 603.21,-389.66"/>
<polygon fill="black" stroke="black" points="604.86,-392.75 611.73,-384.68 601.33,-386.7 604.86,-392.75"/>
</g>
<!-- pool_u64::balance&#45;&gt;pool_u64::shares -->
<g id="edge29" class="edge">
<title>pool_u64::balance&#45;&gt;pool_u64::shares</title>
<path fill="none" stroke="black" d="M386.23,-514.37C436.23,-512.83 526.24,-507.6 601,-490 632.96,-482.48 667.71,-468.79 692.61,-457.95"/>
<polygon fill="black" stroke="black" points="693.87,-461.22 701.6,-453.97 691.04,-454.82 693.87,-461.22"/>
</g>
<!-- pool_u64::shares_to_amount -->
<g id="node27" class="node">
<title>pool_u64::shares_to_amount</title>
<ellipse fill="none" stroke="black" cx="348" cy="-441" rx="75.29" ry="18"/>
<text text-anchor="middle" x="348" y="-437.3" font-family="Times,serif" font-size="14.00">shares_to_amount</text>
</g>
<!-- pool_u64::balance&#45;&gt;pool_u64::shares_to_amount -->
<g id="edge30" class="edge">
<title>pool_u64::balance&#45;&gt;pool_u64::shares_to_amount</title>
<path fill="none" stroke="black" d="M348,-497.7C348,-489.67 348,-479.9 348,-470.8"/>
<polygon fill="black" stroke="black" points="351.5,-470.94 348,-460.94 344.5,-470.94 351.5,-470.94"/>
</g>
<!-- pool_u64::multiply_then_divide -->
<g id="node28" class="node">
<title>pool_u64::multiply_then_divide</title>
<ellipse fill="none" stroke="black" cx="495" cy="-283" rx="87.18" ry="18"/>
<text text-anchor="middle" x="495" y="-279.3" font-family="Times,serif" font-size="14.00">multiply_then_divide</text>
</g>
<!-- pool_u64::amount_to_shares_with_total_coins&#45;&gt;pool_u64::multiply_then_divide -->
<g id="edge31" class="edge">
<title>pool_u64::amount_to_shares_with_total_coins&#45;&gt;pool_u64::multiply_then_divide</title>
<path fill="none" stroke="black" d="M611.18,-348.02C588.86,-335.72 558.51,-318.99 534.42,-305.72"/>
<polygon fill="black" stroke="black" points="536.29,-302.76 525.85,-301 532.92,-308.89 536.29,-302.76"/>
</g>
<!-- pool_u64::shares&#45;&gt;pool_u64::contains -->
<g id="edge33" class="edge">
<title>pool_u64::shares&#45;&gt;pool_u64::contains</title>
<path fill="none" stroke="black" d="M752.76,-429.55C758.12,-427.38 763.75,-425.11 769,-423 777.88,-419.43 780.98,-420.23 789,-415 798.92,-408.53 808.53,-399.84 816.57,-391.64"/>
<polygon fill="black" stroke="black" points="819,-394.16 823.29,-384.48 813.9,-389.37 819,-394.16"/>
</g>
<!-- simple_map::borrow -->
<g id="node29" class="node">
<title>simple_map::borrow</title>
<ellipse fill="none" stroke="black" cx="1320" cy="-366" rx="36.29" ry="18"/>
<text text-anchor="middle" x="1320" y="-362.3" font-family="Times,serif" font-size="14.00">borrow</text>
</g>
<!-- pool_u64::shares&#45;&gt;simple_map::borrow -->
<g id="edge32" class="edge">
<title>pool_u64::shares&#45;&gt;simple_map::borrow</title>
<path fill="none" stroke="black" d="M750.96,-428.54C756.74,-426.28 762.99,-424.22 769,-423 796.55,-417.41 1249.29,-426.38 1275,-415 1285.85,-410.2 1295.31,-401.38 1302.71,-392.61"/>
<polygon fill="black" stroke="black" points="1305.37,-394.89 1308.73,-384.84 1299.84,-390.6 1305.37,-394.89"/>
</g>
<!-- pool_u64::shares_to_amount_with_total_coins&#45;&gt;pool_u64::multiply_then_divide -->
<g id="edge34" class="edge">
<title>pool_u64::shares_to_amount_with_total_coins&#45;&gt;pool_u64::multiply_then_divide</title>
<path fill="none" stroke="black" d="M378.82,-348.02C401.14,-335.72 431.49,-318.99 455.58,-305.72"/>
<polygon fill="black" stroke="black" points="457.08,-308.89 464.15,-301 453.71,-302.76 457.08,-308.89"/>
</g>
<!-- pool_u64::transfer_shares&#45;&gt;error::invalid_argument -->
<g id="edge35" class="edge">
<title>pool_u64::transfer_shares&#45;&gt;error::invalid_argument</title>
<path fill="none" stroke="black" d="M441.73,-575.13C450.72,-573.15 460.12,-571.31 469,-570 607.35,-549.63 1617.99,-580.03 1725,-490 1776.38,-446.77 1756,-405.87 1743,-340 1741.11,-330.43 1737.57,-320.44 1733.82,-311.59"/>
<polygon fill="black" stroke="black" points="1737.01,-310.15 1729.7,-302.49 1730.64,-313.04 1737.01,-310.15"/>
</g>
<!-- pool_u64::transfer_shares&#45;&gt;pool_u64::add_shares -->
<g id="edge37" class="edge">
<title>pool_u64::transfer_shares&#45;&gt;pool_u64::add_shares</title>
<path fill="none" stroke="black" d="M442.99,-575.39C451.61,-573.45 460.56,-571.56 469,-570 583.71,-548.75 632.76,-599.93 729,-534 744.1,-523.66 735.37,-510.22 749,-498 755.82,-491.88 760.13,-494.68 768,-490 779.67,-483.06 791.55,-474.04 801.63,-465.7"/>
<polygon fill="black" stroke="black" points="803.81,-468.44 809.16,-459.29 799.28,-463.11 803.81,-468.44"/>
</g>
<!-- pool_u64::transfer_shares&#45;&gt;pool_u64::shares -->
<g id="edge39" class="edge">
<title>pool_u64::transfer_shares&#45;&gt;pool_u64::shares</title>
<path fill="none" stroke="black" d="M443.78,-575.71C507.95,-560.52 614.19,-535.24 616,-534 632.08,-523 627.02,-511.57 641,-498 656.71,-482.75 677.15,-469.24 694.17,-459.31"/>
<polygon fill="black" stroke="black" points="695.43,-462.61 702.41,-454.64 691.98,-456.52 695.43,-462.61"/>
</g>
<!-- pool_u64::transfer_shares&#45;&gt;pool_u64::contains -->
<g id="edge36" class="edge">
<title>pool_u64::transfer_shares&#45;&gt;pool_u64::contains</title>
<path fill="none" stroke="black" d="M434.82,-573.35C477.76,-557.21 547.87,-527.73 601,-490 635.08,-465.8 628.99,-440.39 667,-423 716.41,-400.39 739.39,-437.17 789,-415 800.42,-409.9 810.71,-400.91 818.88,-392.07"/>
<polygon fill="black" stroke="black" points="821.45,-394.45 825.32,-384.59 816.15,-389.89 821.45,-394.45"/>
</g>
<!-- pool_u64::deduct_shares -->
<g id="node30" class="node">
<title>pool_u64::deduct_shares</title>
<ellipse fill="none" stroke="black" cx="818" cy="-516" rx="60.39" ry="18"/>
<text text-anchor="middle" x="818" y="-512.3" font-family="Times,serif" font-size="14.00">deduct_shares</text>
</g>
<!-- pool_u64::transfer_shares&#45;&gt;pool_u64::deduct_shares -->
<g id="edge38" class="edge">
<title>pool_u64::transfer_shares&#45;&gt;pool_u64::deduct_shares</title>
<path fill="none" stroke="black" d="M442.59,-575.43C451.33,-573.46 460.42,-571.56 469,-570 590.28,-547.99 622.68,-555.82 744,-534 749.61,-532.99 755.44,-531.84 761.25,-530.62"/>
<polygon fill="black" stroke="black" points="761.84,-534.07 770.87,-528.53 760.36,-527.23 761.84,-534.07"/>
</g>
<!-- error::invalid_state&#45;&gt;error::canonical -->
<g id="edge40" class="edge">
<title>error::invalid_state&#45;&gt;error::canonical</title>
<path fill="none" stroke="black" d="M1851.67,-265.22C1841.21,-253.77 1827.19,-238.42 1815.48,-225.6"/>
<polygon fill="black" stroke="black" points="1818.16,-223.35 1808.83,-218.33 1812.99,-228.07 1818.16,-223.35"/>
</g>
<!-- simple_map::borrow_mut&#45;&gt;error::invalid_argument -->
<g id="edge43" class="edge">
<title>simple_map::borrow_mut&#45;&gt;error::invalid_argument</title>
<path fill="none" stroke="black" d="M1459.82,-350.67C1469.88,-346.56 1481.23,-342.52 1492,-340 1534.12,-330.14 1546.75,-341.3 1589,-332 1618.57,-325.49 1650.5,-313.89 1675.43,-303.73"/>
<polygon fill="black" stroke="black" points="1676.72,-306.98 1684.61,-299.91 1674.03,-300.52 1676.72,-306.98"/>
</g>
<!-- option::extract -->
<g id="node31" class="node">
<title>option::extract</title>
<ellipse fill="none" stroke="black" cx="1443" cy="-200" rx="34.39" ry="18"/>
<text text-anchor="middle" x="1443" y="-196.3" font-family="Times,serif" font-size="14.00">extract</text>
</g>
<!-- simple_map::borrow_mut&#45;&gt;option::extract -->
<g id="edge41" class="edge">
<title>simple_map::borrow_mut&#45;&gt;option::extract</title>
<path fill="none" stroke="black" d="M1430.47,-347.76C1432.88,-319.51 1437.7,-263.11 1440.61,-229.04"/>
<polygon fill="black" stroke="black" points="1444.06,-229.78 1441.42,-219.52 1437.08,-229.18 1444.06,-229.78"/>
</g>
<!-- option::is_some -->
<g id="node32" class="node">
<title>option::is_some</title>
<ellipse fill="none" stroke="black" cx="1437" cy="-117" rx="40.09" ry="18"/>
<text text-anchor="middle" x="1437" y="-113.3" font-family="Times,serif" font-size="14.00">is_some</text>
</g>
<!-- simple_map::borrow_mut&#45;&gt;option::is_some -->
<g id="edge42" class="edge">
<title>simple_map::borrow_mut&#45;&gt;option::is_some</title>
<path fill="none" stroke="black" d="M1460.2,-350.8C1470.18,-346.75 1481.4,-342.71 1492,-340 1506.1,-336.4 1547.36,-342.9 1557,-332 1603.52,-279.4 1594.72,-233.23 1557,-174 1541.17,-149.14 1511.1,-135.14 1485.03,-127.35"/>
<polygon fill="black" stroke="black" points="1486.18,-124.04 1475.61,-124.78 1484.34,-130.79 1486.18,-124.04"/>
</g>
<!-- simple_map::find -->
<g id="node33" class="node">
<title>simple_map::find</title>
<ellipse fill="none" stroke="black" cx="1239" cy="-283" rx="27" ry="18"/>
<text text-anchor="middle" x="1239" y="-279.3" font-family="Times,serif" font-size="14.00">find</text>
</g>
<!-- simple_map::borrow_mut&#45;&gt;simple_map::find -->
<g id="edge44" class="edge">
<title>simple_map::borrow_mut&#45;&gt;simple_map::find</title>
<path fill="none" stroke="black" d="M1396.77,-351.26C1361.84,-336.37 1306.43,-312.75 1271.43,-297.82"/>
<polygon fill="black" stroke="black" points="1273.23,-294.79 1262.66,-294.09 1270.49,-301.23 1273.23,-294.79"/>
</g>
<!-- simple_map::add&#45;&gt;error::invalid_argument -->
<g id="edge47" class="edge">
<title>simple_map::add&#45;&gt;error::invalid_argument</title>
<path fill="none" stroke="black" d="M1254.76,-351.1C1260.69,-346.7 1267.77,-342.37 1275,-340 1308.17,-329.15 1554.72,-338.53 1589,-332 1619.19,-326.25 1651.63,-314.41 1676.68,-303.92"/>
<polygon fill="black" stroke="black" points="1677.72,-307.28 1685.54,-300.13 1674.97,-300.85 1677.72,-307.28"/>
</g>
<!-- simple_map::add&#45;&gt;option::extract -->
<g id="edge45" class="edge">
<title>simple_map::add&#45;&gt;option::extract</title>
<path fill="none" stroke="black" d="M1255.4,-351.58C1261.28,-347.33 1268.16,-342.97 1275,-340 1290.43,-333.29 1298.23,-341.67 1312,-332 1344.2,-309.4 1326.63,-279.35 1359,-257 1373.92,-246.7 1383.2,-257.9 1399,-249 1408.98,-243.38 1417.96,-234.68 1425.16,-226.23"/>
<polygon fill="black" stroke="black" points="1427.82,-228.51 1431.29,-218.5 1422.34,-224.15 1427.82,-228.51"/>
</g>
<!-- simple_map::add&#45;&gt;simple_map::find -->
<g id="edge48" class="edge">
<title>simple_map::add&#45;&gt;simple_map::find</title>
<path fill="none" stroke="black" d="M1239,-347.82C1239,-337.69 1239,-324.6 1239,-312.92"/>
<polygon fill="black" stroke="black" points="1242.5,-312.95 1239,-302.95 1235.5,-312.95 1242.5,-312.95"/>
</g>
<!-- option::is_none -->
<g id="node34" class="node">
<title>option::is_none</title>
<ellipse fill="none" stroke="black" cx="1352" cy="-200" rx="38.19" ry="18"/>
<text text-anchor="middle" x="1352" y="-196.3" font-family="Times,serif" font-size="14.00">is_none</text>
</g>
<!-- simple_map::add&#45;&gt;option::is_none -->
<g id="edge46" class="edge">
<title>simple_map::add&#45;&gt;option::is_none</title>
<path fill="none" stroke="black" d="M1255.77,-351.48C1262.2,-345.85 1269.35,-338.99 1275,-332 1301.8,-298.86 1325.44,-255.38 1339.24,-227.8"/>
<polygon fill="black" stroke="black" points="1342.25,-229.6 1343.53,-219.08 1335.97,-226.51 1342.25,-229.6"/>
</g>
<!-- simple_map::contains_key -->
<g id="node35" class="node">
<title>simple_map::contains_key</title>
<ellipse fill="none" stroke="black" cx="1137" cy="-366" rx="57.39" ry="18"/>
<text text-anchor="middle" x="1137" y="-362.3" font-family="Times,serif" font-size="14.00">contains_key</text>
</g>
<!-- pool_u64::contains&#45;&gt;simple_map::contains_key -->
<g id="edge49" class="edge">
<title>pool_u64::contains&#45;&gt;simple_map::contains_key</title>
<path fill="none" stroke="black" d="M878.59,-366C941.67,-366 1004.76,-366 1067.85,-366"/>
<polygon fill="black" stroke="black" points="1067.7,-369.5 1077.7,-366 1067.7,-362.5 1067.7,-369.5"/>
</g>
<!-- pool_u64::shares_to_amount&#45;&gt;pool_u64::shares_to_amount_with_total_coins -->
<g id="edge50" class="edge">
<title>pool_u64::shares_to_amount&#45;&gt;pool_u64::shares_to_amount_with_total_coins</title>
<path fill="none" stroke="black" d="M348,-422.7C348,-414.67 348,-404.9 348,-395.8"/>
<polygon fill="black" stroke="black" points="351.5,-395.94 348,-385.94 344.5,-395.94 351.5,-395.94"/>
</g>
<!-- pool_u64::to_u128 -->
<g id="node36" class="node">
<title>pool_u64::to_u128</title>
<ellipse fill="none" stroke="black" cx="495" cy="-200" rx="39.79" ry="18"/>
<text text-anchor="middle" x="495" y="-196.3" font-family="Times,serif" font-size="14.00">to_u128</text>
</g>
<!-- pool_u64::multiply_then_divide&#45;&gt;pool_u64::to_u128 -->
<g id="edge51" class="edge">
<title>pool_u64::multiply_then_divide&#45;&gt;pool_u64::to_u128</title>
<path fill="none" stroke="black" d="M495,-264.82C495,-254.69 495,-241.6 495,-229.92"/>
<polygon fill="black" stroke="black" points="498.5,-229.95 495,-219.95 491.5,-229.95 498.5,-229.95"/>
</g>
<!-- simple_map::borrow&#45;&gt;error::invalid_argument -->
<g id="edge54" class="edge">
<title>simple_map::borrow&#45;&gt;error::invalid_argument</title>
<path fill="none" stroke="black" d="M1340.62,-350.87C1347.99,-346.56 1356.56,-342.35 1365,-340 1412.99,-326.65 1540.12,-341.58 1589,-332 1619.02,-326.12 1651.31,-314.36 1676.32,-303.95"/>
<polygon fill="black" stroke="black" points="1677.69,-307.17 1685.52,-300.03 1674.95,-300.73 1677.69,-307.17"/>
</g>
<!-- simple_map::borrow&#45;&gt;option::extract -->
<g id="edge52" class="edge">
<title>simple_map::borrow&#45;&gt;option::extract</title>
<path fill="none" stroke="black" d="M1339.29,-350.6C1345.93,-345.17 1353.16,-338.67 1359,-332 1387.76,-299.17 1413.67,-255.6 1428.88,-227.93"/>
<polygon fill="black" stroke="black" points="1431.95,-229.6 1433.63,-219.14 1425.8,-226.27 1431.95,-229.6"/>
</g>
<!-- simple_map::borrow&#45;&gt;option::is_some -->
<g id="edge53" class="edge">
<title>simple_map::borrow&#45;&gt;option::is_some</title>
<path fill="none" stroke="black" d="M1340.64,-350.95C1348.01,-346.65 1356.58,-342.42 1365,-340 1381.47,-335.27 1507.2,-344.43 1519,-332 1567.35,-281.07 1551.79,-236.1 1519,-174 1509.87,-156.7 1492.72,-143.74 1476.46,-134.67"/>
<polygon fill="black" stroke="black" points="1478.37,-131.71 1467.88,-130.21 1475.14,-137.92 1478.37,-131.71"/>
</g>
<!-- simple_map::borrow&#45;&gt;simple_map::find -->
<g id="edge55" class="edge">
<title>simple_map::borrow&#45;&gt;simple_map::find</title>
<path fill="none" stroke="black" d="M1304.38,-349.38C1292.2,-337.2 1275.11,-320.11 1261.46,-306.46"/>
<polygon fill="black" stroke="black" points="1264.1,-304.15 1254.55,-299.55 1259.15,-309.1 1264.1,-304.15"/>
</g>
<!-- pool_u64::deduct_shares&#45;&gt;error::invalid_argument -->
<g id="edge58" class="edge">
<title>pool_u64::deduct_shares&#45;&gt;error::invalid_argument</title>
<path fill="none" stroke="black" d="M878.64,-515.42C1072.28,-516.48 1664.89,-517.45 1695,-490 1744.24,-445.1 1735.38,-357.54 1726.67,-312.41"/>
<polygon fill="black" stroke="black" points="1730.15,-311.94 1724.68,-302.87 1723.29,-313.37 1730.15,-311.94"/>
</g>
<!-- pool_u64::deduct_shares&#45;&gt;pool_u64::shares -->
<g id="edge62" class="edge">
<title>pool_u64::deduct_shares&#45;&gt;pool_u64::shares</title>
<path fill="none" stroke="black" d="M785.31,-500.53C779.64,-497.41 773.97,-493.87 769,-490 760.5,-483.37 752.39,-474.85 745.6,-466.82"/>
<polygon fill="black" stroke="black" points="748.51,-464.85 739.5,-459.28 743.07,-469.25 748.51,-464.85"/>
</g>
<!-- pool_u64::deduct_shares&#45;&gt;simple_map::borrow_mut -->
<g id="edge59" class="edge">
<title>pool_u64::deduct_shares&#45;&gt;simple_map::borrow_mut</title>
<path fill="none" stroke="black" d="M868.88,-505.98C895.45,-501.26 928.48,-495.35 958,-490 1138.98,-457.17 1196.52,-488.8 1365,-415 1378.62,-409.04 1392.03,-399.67 1403.04,-390.79"/>
<polygon fill="black" stroke="black" points="1405.11,-393.62 1410.51,-384.5 1400.6,-388.26 1405.11,-393.62"/>
</g>
<!-- pool_u64::deduct_shares&#45;&gt;pool_u64::contains -->
<g id="edge61" class="edge">
<title>pool_u64::deduct_shares&#45;&gt;pool_u64::contains</title>
<path fill="none" stroke="black" d="M768.11,-505.43C755.36,-502.99 741.68,-500.39 729,-498 719.45,-496.2 692.21,-497.47 686,-490 666.97,-467.1 665.78,-444.86 686,-423 701.59,-406.15 768.1,-424.49 789,-415 800.38,-409.83 810.67,-400.83 818.85,-392"/>
<polygon fill="black" stroke="black" points="821.41,-394.39 825.3,-384.53 816.11,-389.82 821.41,-394.39"/>
</g>
<!-- vector::index_of -->
<g id="node37" class="node">
<title>vector::index_of</title>
<ellipse fill="none" stroke="black" cx="1051" cy="-34" rx="42.49" ry="18"/>
<text text-anchor="middle" x="1051" y="-30.3" font-family="Times,serif" font-size="14.00">index_of</text>
</g>
<!-- pool_u64::deduct_shares&#45;&gt;vector::index_of -->
<g id="edge56" class="edge">
<title>pool_u64::deduct_shares&#45;&gt;vector::index_of</title>
<path fill="none" stroke="black" d="M867.63,-505.51C875.25,-501.88 882.17,-496.88 887,-490 925.28,-435.42 908.14,-403.23 887,-340 847.35,-221.41 676.25,-187.32 756,-91 786.04,-54.72 920.68,-41.75 997.27,-37.27"/>
<polygon fill="black" stroke="black" points="997.28,-40.77 1007.07,-36.72 996.9,-33.78 997.28,-40.77"/>
</g>
<!-- vector::remove -->
<g id="node38" class="node">
<title>vector::remove</title>
<ellipse fill="none" stroke="black" cx="1149" cy="-34" rx="37.89" ry="18"/>
<text text-anchor="middle" x="1149" y="-30.3" font-family="Times,serif" font-size="14.00">remove</text>
</g>
<!-- pool_u64::deduct_shares&#45;&gt;vector::remove -->
<g id="edge57" class="edge">
<title>pool_u64::deduct_shares&#45;&gt;vector::remove</title>
<path fill="none" stroke="black" d="M870.61,-506.79C889.01,-502.76 906.47,-497.2 912,-490 930.15,-466.39 912.18,-452.78 912,-423 911.78,-386.11 915.4,-376.63 911,-340 906.05,-298.79 894.7,-290.24 890,-249 882.05,-179.23 841.29,-141.58 890,-91 906.35,-74.02 1080.45,-92.54 1102,-83 1113.2,-78.04 1123.12,-69.08 1130.92,-60.22"/>
<polygon fill="black" stroke="black" points="1133.42,-62.7 1137.03,-52.74 1128,-58.27 1133.42,-62.7"/>
</g>
<!-- simple_map::remove -->
<g id="node39" class="node">
<title>simple_map::remove</title>
<ellipse fill="none" stroke="black" cx="1539" cy="-366" rx="37.89" ry="18"/>
<text text-anchor="middle" x="1539" y="-362.3" font-family="Times,serif" font-size="14.00">remove</text>
</g>
<!-- pool_u64::deduct_shares&#45;&gt;simple_map::remove -->
<g id="edge60" class="edge">
<title>pool_u64::deduct_shares&#45;&gt;simple_map::remove</title>
<path fill="none" stroke="black" d="M878.18,-513.45C947.62,-511.02 1065.09,-504.93 1165,-490 1312.9,-467.9 1362.91,-488.75 1493,-415 1503.28,-409.17 1512.7,-400.32 1520.3,-391.8"/>
<polygon fill="black" stroke="black" points="1522.81,-394.26 1526.55,-384.35 1517.44,-389.76 1522.81,-394.26"/>
</g>
<!-- option::extract&#45;&gt;option::is_some -->
<g id="edge63" class="edge">
<title>option::extract&#45;&gt;option::is_some</title>
<path fill="none" stroke="black" d="M1441.73,-181.82C1440.97,-171.58 1439.99,-158.33 1439.11,-146.55"/>
<polygon fill="black" stroke="black" points="1442.63,-146.66 1438.4,-136.94 1435.65,-147.17 1442.63,-146.66"/>
</g>
<!-- vector::is_empty -->
<g id="node40" class="node">
<title>vector::is_empty</title>
<ellipse fill="none" stroke="black" cx="1352" cy="-34" rx="43.59" ry="18"/>
<text text-anchor="middle" x="1352" y="-30.3" font-family="Times,serif" font-size="14.00">is_empty</text>
</g>
<!-- option::is_some&#45;&gt;vector::is_empty -->
<g id="edge64" class="edge">
<title>option::is_some&#45;&gt;vector::is_empty</title>
<path fill="none" stroke="black" d="M1420.61,-100.38C1408.23,-88.58 1391.01,-72.18 1376.92,-58.75"/>
<polygon fill="black" stroke="black" points="1379.38,-56.26 1369.72,-51.89 1374.55,-61.32 1379.38,-56.26"/>
</g>
<!-- option::none -->
<g id="node41" class="node">
<title>option::none</title>
<ellipse fill="none" stroke="black" cx="1190" cy="-200" rx="27.9" ry="18"/>
<text text-anchor="middle" x="1190" y="-196.3" font-family="Times,serif" font-size="14.00">none</text>
</g>
<!-- simple_map::find&#45;&gt;option::none -->
<g id="edge65" class="edge">
<title>simple_map::find&#45;&gt;option::none</title>
<path fill="none" stroke="black" d="M1229.32,-266C1222.58,-254.86 1213.46,-239.78 1205.69,-226.94"/>
<polygon fill="black" stroke="black" points="1208.78,-225.29 1200.61,-218.54 1202.79,-228.91 1208.78,-225.29"/>
</g>
<!-- option::some -->
<g id="node42" class="node">
<title>option::some</title>
<ellipse fill="none" stroke="black" cx="1266" cy="-200" rx="29.8" ry="18"/>
<text text-anchor="middle" x="1266" y="-196.3" font-family="Times,serif" font-size="14.00">some</text>
</g>
<!-- simple_map::find&#45;&gt;option::some -->
<g id="edge66" class="edge">
<title>simple_map::find&#45;&gt;option::some</title>
<path fill="none" stroke="black" d="M1244.59,-265.22C1248.08,-254.75 1252.66,-241.03 1256.68,-228.95"/>
<polygon fill="black" stroke="black" points="1260,-230.07 1259.84,-219.48 1253.36,-227.86 1260,-230.07"/>
</g>
<!-- comparator::compare -->
<g id="node43" class="node">
<title>comparator::compare</title>
<ellipse fill="none" stroke="black" cx="944" cy="-200" rx="41.69" ry="18"/>
<text text-anchor="middle" x="944" y="-196.3" font-family="Times,serif" font-size="14.00">compare</text>
</g>
<!-- simple_map::find&#45;&gt;comparator::compare -->
<g id="edge67" class="edge">
<title>simple_map::find&#45;&gt;comparator::compare</title>
<path fill="none" stroke="black" d="M1212.15,-280.44C1157.01,-276.89 1033.01,-267.12 995,-249 983.64,-243.59 973.13,-234.7 964.64,-226.04"/>
<polygon fill="black" stroke="black" points="967.23,-223.7 957.89,-218.71 962.08,-228.43 967.23,-223.7"/>
</g>
<!-- comparator::is_smaller_than -->
<g id="node44" class="node">
<title>comparator::is_smaller_than</title>
<ellipse fill="none" stroke="black" cx="1071" cy="-200" rx="66.89" ry="18"/>
<text text-anchor="middle" x="1071" y="-196.3" font-family="Times,serif" font-size="14.00">is_smaller_than</text>
</g>
<!-- simple_map::find&#45;&gt;comparator::is_smaller_than -->
<g id="edge68" class="edge">
<title>simple_map::find&#45;&gt;comparator::is_smaller_than</title>
<path fill="none" stroke="black" d="M1214.69,-274.39C1196.5,-268.36 1171.21,-259.26 1150,-249 1134.54,-241.52 1118.2,-231.91 1104.41,-223.25"/>
<polygon fill="black" stroke="black" points="1106.47,-220.41 1096.16,-217.97 1102.7,-226.31 1106.47,-220.41"/>
</g>
<!-- option::is_none&#45;&gt;vector::is_empty -->
<g id="edge69" class="edge">
<title>option::is_none&#45;&gt;vector::is_empty</title>
<path fill="none" stroke="black" d="M1352,-181.76C1352,-153.63 1352,-97.6 1352,-63.49"/>
<polygon fill="black" stroke="black" points="1355.5,-63.52 1352,-53.52 1348.5,-63.52 1355.5,-63.52"/>
</g>
<!-- simple_map::contains_key&#45;&gt;option::is_some -->
<g id="edge70" class="edge">
<title>simple_map::contains_key&#45;&gt;option::is_some</title>
<path fill="none" stroke="black" d="M1169.72,-350.75C1180.18,-346.7 1191.92,-342.67 1203,-340 1234.3,-332.46 1243.75,-339.74 1275,-332 1372.82,-307.78 1429.27,-332.28 1486,-249 1504.77,-221.45 1497.72,-205.2 1486,-174 1481.37,-161.69 1472.67,-150.31 1463.88,-141.07"/>
<polygon fill="black" stroke="black" points="1466.55,-138.79 1456.96,-134.28 1461.64,-143.78 1466.55,-138.79"/>
</g>
<!-- simple_map::contains_key&#45;&gt;simple_map::find -->
<g id="edge71" class="edge">
<title>simple_map::contains_key&#45;&gt;simple_map::find</title>
<path fill="none" stroke="black" d="M1157.15,-349C1173.37,-336.12 1196.25,-317.95 1213.7,-304.09"/>
<polygon fill="black" stroke="black" points="1215.42,-307.19 1221.08,-298.23 1211.07,-301.71 1215.42,-307.19"/>
</g>
<!-- simple_map::remove&#45;&gt;error::invalid_argument -->
<g id="edge74" class="edge">
<title>simple_map::remove&#45;&gt;error::invalid_argument</title>
<path fill="none" stroke="black" d="M1563.32,-351.7C1571.87,-347.45 1581.68,-343.07 1591,-340 1609.05,-334.06 1615.13,-338.45 1633,-332 1651.24,-325.42 1670.23,-315.37 1685.8,-306.16"/>
<polygon fill="black" stroke="black" points="1687.47,-309.24 1694.2,-301.06 1683.83,-303.26 1687.47,-309.24"/>
</g>
<!-- simple_map::remove&#45;&gt;option::extract -->
<g id="edge72" class="edge">
<title>simple_map::remove&#45;&gt;option::extract</title>
<path fill="none" stroke="black" d="M1529.27,-348.37C1512.59,-319.89 1478.43,-261.53 1458.47,-227.42"/>
<polygon fill="black" stroke="black" points="1461.6,-225.84 1453.52,-218.98 1455.55,-229.38 1461.6,-225.84"/>
</g>
<!-- simple_map::remove&#45;&gt;option::is_some -->
<g id="edge73" class="edge">
<title>simple_map::remove&#45;&gt;option::is_some</title>
<path fill="none" stroke="black" d="M1565.46,-352.71C1573.55,-347.54 1581.49,-340.67 1586,-332 1618.38,-269.69 1625.98,-231.73 1586,-174 1564.02,-142.26 1521.66,-128.48 1487.7,-122.52"/>
<polygon fill="black" stroke="black" points="1488.47,-119.1 1478.05,-121.01 1487.39,-126.01 1488.47,-119.1"/>
</g>
<!-- simple_map::remove&#45;&gt;simple_map::find -->
<g id="edge75" class="edge">
<title>simple_map::remove&#45;&gt;simple_map::find</title>
<path fill="none" stroke="black" d="M1516.7,-351.13C1509.37,-347.05 1501.03,-342.91 1493,-340 1475.95,-333.82 1470.74,-335.76 1453,-332 1390.53,-318.75 1318.05,-302.26 1275.5,-292.46"/>
<polygon fill="black" stroke="black" points="1276.33,-289.06 1265.8,-290.22 1274.76,-295.88 1276.33,-289.06"/>
</g>
<!-- vector::singleton -->
<g id="node45" class="node">
<title>vector::singleton</title>
<ellipse fill="none" stroke="black" cx="1248" cy="-34" rx="42.79" ry="18"/>
<text text-anchor="middle" x="1248" y="-30.3" font-family="Times,serif" font-size="14.00">singleton</text>
</g>
<!-- option::some&#45;&gt;vector::singleton -->
<g id="edge76" class="edge">
<title>option::some&#45;&gt;vector::singleton</title>
<path fill="none" stroke="black" d="M1264.11,-181.76C1261.01,-153.51 1254.82,-97.11 1251.08,-63.04"/>
<polygon fill="black" stroke="black" points="1254.6,-63.07 1250.03,-53.51 1247.64,-63.84 1254.6,-63.07"/>
</g>
<!-- comparator::compare&#45;&gt;bcs::to_bytes -->
<g id="edge77" class="edge">
<title>comparator::compare&#45;&gt;bcs::to_bytes</title>
<path fill="none" stroke="black" d="M920.31,-184.89C898.37,-171.82 865.53,-152.27 841.02,-137.67"/>
<polygon fill="black" stroke="black" points="843.1,-134.83 832.72,-132.72 839.52,-140.85 843.1,-134.83"/>
</g>
<!-- comparator::compare_u8_vector -->
<g id="node46" class="node">
<title>comparator::compare_u8_vector</title>
<ellipse fill="none" stroke="black" cx="985" cy="-117" rx="81.49" ry="18"/>
<text text-anchor="middle" x="985" y="-113.3" font-family="Times,serif" font-size="14.00">compare_u8_vector</text>
</g>
<!-- comparator::compare&#45;&gt;comparator::compare_u8_vector -->
<g id="edge78" class="edge">
<title>comparator::compare&#45;&gt;comparator::compare_u8_vector</title>
<path fill="none" stroke="black" d="M952.5,-182.22C957.87,-171.61 964.93,-157.65 971.1,-145.45"/>
<polygon fill="black" stroke="black" points="974.16,-147.17 975.55,-136.67 967.91,-144.01 974.16,-147.17"/>
</g>
</g>
</svg>
