<?xml version="1.0" encoding="UTF-8" standalone="no"?>
<!DOCTYPE svg PUBLIC "-//W3C//DTD SVG 1.1//EN"
 "http://www.w3.org/Graphics/SVG/1.1/DTD/svg11.dtd">
<!-- Generated by graphviz version 7.0.0 (20221023.0053)
 -->
<!-- Title: G Pages: 1 -->
<svg width="2428pt" height="1034pt"
 viewBox="0.00 0.00 2428.09 1034.00" xmlns="http://www.w3.org/2000/svg" xmlns:xlink="http://www.w3.org/1999/xlink">
<g id="graph0" class="graph" transform="scale(1 1) rotate(0) translate(4 1030)">
<title>G</title>
<polygon fill="white" stroke="none" points="-4,4 -4,-1030 2424.09,-1030 2424.09,4 -4,4"/>
<g id="clust1" class="cluster">
<title>cluster_aptos_governance</title>
<polygon fill="none" stroke="black" points="179.09,-136 179.09,-286 399.09,-286 399.09,-136 179.09,-136"/>
<text text-anchor="middle" x="289.09" y="-270.8" font-family="Times,serif" font-size="14.00">aptos_governance</text>
</g>
<g id="clust2" class="cluster">
<title>cluster_block</title>
<polygon fill="none" stroke="black" points="1181.09,-136 1181.09,-211 1329.09,-211 1329.09,-136 1181.09,-136"/>
<text text-anchor="middle" x="1255.09" y="-195.8" font-family="Times,serif" font-size="14.00">block</text>
</g>
<g id="clust3" class="cluster">
<title>cluster_genesis</title>
<polygon fill="none" stroke="black" points="156.09,-649 156.09,-1018 616.09,-1018 616.09,-649 156.09,-649"/>
<text text-anchor="middle" x="386.09" y="-1002.8" font-family="Times,serif" font-size="14.00">genesis</text>
</g>
<g id="clust4" class="cluster">
<title>cluster_staking_contract</title>
<polygon fill="none" stroke="black" points="1476.09,-358 1476.09,-577 2344.09,-577 2344.09,-358 1476.09,-358"/>
<text text-anchor="middle" x="1910.09" y="-561.8" font-family="Times,serif" font-size="14.00">staking_contract</text>
</g>
<g id="clust5" class="cluster">
<title>cluster_vesting</title>
<polygon fill="none" stroke="black" points="624.09,-502 624.09,-724 1468.09,-724 1468.09,-502 624.09,-502"/>
<text text-anchor="middle" x="1046.09" y="-708.8" font-family="Times,serif" font-size="14.00">vesting</text>
</g>
<g id="clust6" class="cluster">
<title>cluster_staking_proxy</title>
<polygon fill="none" stroke="black" points="1913.09,-649 1913.09,-799 2412.09,-799 2412.09,-649 1913.09,-649"/>
<text text-anchor="middle" x="2162.59" y="-783.8" font-family="Times,serif" font-size="14.00">staking_proxy</text>
</g>
<!-- get_validator_state -->
<g id="node1" class="node">
<title>get_validator_state</title>
<ellipse fill="none" stroke="black" cx="496.09" cy="-18" rx="77.19" ry="18"/>
<text text-anchor="middle" x="496.09" y="-14.3" font-family="Times,serif" font-size="14.00">get_validator_state</text>
</g>
<!-- get_current_epoch_voting_power -->
<g id="node2" class="node">
<title>get_current_epoch_voting_power</title>
<ellipse fill="none" stroke="black" cx="285.09" cy="-90" rx="129.18" ry="18"/>
<text text-anchor="middle" x="285.09" y="-86.3" font-family="Times,serif" font-size="14.00">get_current_epoch_voting_power</text>
</g>
<!-- get_current_epoch_voting_power&#45;&gt;get_validator_state -->
<g id="edge1" class="edge">
<title>get_current_epoch_voting_power&#45;&gt;get_validator_state</title>
<path fill="none" stroke="black" d="M333.77,-72.85C366.27,-62.07 409.04,-47.88 442.52,-36.77"/>
<polygon fill="black" stroke="black" points="443.21,-40.23 451.6,-33.76 441,-33.59 443.21,-40.23"/>
</g>
<!-- is_current_epoch_validator -->
<g id="node3" class="node">
<title>is_current_epoch_validator</title>
<ellipse fill="none" stroke="black" cx="1255.09" cy="-90" rx="106.68" ry="18"/>
<text text-anchor="middle" x="1255.09" y="-86.3" font-family="Times,serif" font-size="14.00">is_current_epoch_validator</text>
</g>
<!-- is_current_epoch_validator&#45;&gt;get_validator_state -->
<g id="edge2" class="edge">
<title>is_current_epoch_validator&#45;&gt;get_validator_state</title>
<path fill="none" stroke="black" d="M1163.16,-80.52C1013.78,-66.74 720.71,-39.72 578.03,-26.56"/>
<polygon fill="black" stroke="black" points="578.56,-23.09 568.28,-25.66 577.92,-30.06 578.56,-23.09"/>
</g>
<!-- join_validator_set_internal -->
<g id="node4" class="node">
<title>join_validator_set_internal</title>
<ellipse fill="none" stroke="black" cx="358.09" cy="-603" rx="105.08" ry="18"/>
<text text-anchor="middle" x="358.09" y="-599.3" font-family="Times,serif" font-size="14.00">join_validator_set_internal</text>
</g>
<!-- join_validator_set_internal&#45;&gt;get_validator_state -->
<g id="edge3" class="edge">
<title>join_validator_set_internal&#45;&gt;get_validator_state</title>
<path fill="none" stroke="black" d="M375.91,-585.1C400.57,-559.78 442.09,-509.37 442.09,-457 442.09,-457 442.09,-457 442.09,-161 442.09,-118.67 463.32,-73.6 479.15,-45.87"/>
<polygon fill="black" stroke="black" points="482.06,-47.82 484.14,-37.43 476.04,-44.26 482.06,-47.82"/>
</g>
<!-- withdraw_with_cap -->
<g id="node5" class="node">
<title>withdraw_with_cap</title>
<ellipse fill="none" stroke="black" cx="551.09" cy="-312" rx="80.69" ry="18"/>
<text text-anchor="middle" x="551.09" y="-308.3" font-family="Times,serif" font-size="14.00">withdraw_with_cap</text>
</g>
<!-- withdraw_with_cap&#45;&gt;get_validator_state -->
<g id="edge4" class="edge">
<title>withdraw_with_cap&#45;&gt;get_validator_state</title>
<path fill="none" stroke="black" d="M547.82,-293.61C538.67,-245.02 512.76,-107.49 501.47,-47.53"/>
<polygon fill="black" stroke="black" points="504.92,-46.97 499.63,-37.79 498.04,-48.26 504.92,-46.97"/>
</g>
<!-- aptos_governance::get_voting_power -->
<g id="node6" class="node">
<title>aptos_governance::get_voting_power</title>
<ellipse fill="none" stroke="black" cx="285.09" cy="-162" rx="74.99" ry="18"/>
<text text-anchor="middle" x="285.09" y="-158.3" font-family="Times,serif" font-size="14.00">get_voting_power</text>
</g>
<!-- aptos_governance::get_voting_power&#45;&gt;get_current_epoch_voting_power -->
<g id="edge5" class="edge">
<title>aptos_governance::get_voting_power&#45;&gt;get_current_epoch_voting_power</title>
<path fill="none" stroke="black" d="M285.09,-143.7C285.09,-136.41 285.09,-127.73 285.09,-119.54"/>
<polygon fill="black" stroke="black" points="288.59,-119.62 285.09,-109.62 281.59,-119.62 288.59,-119.62"/>
</g>
<!-- add_stake_with_cap -->
<g id="node7" class="node">
<title>add_stake_with_cap</title>
<ellipse fill="none" stroke="black" cx="1997.09" cy="-162" rx="82.59" ry="18"/>
<text text-anchor="middle" x="1997.09" y="-158.3" font-family="Times,serif" font-size="14.00">add_stake_with_cap</text>
</g>
<!-- add_stake_with_cap&#45;&gt;is_current_epoch_validator -->
<g id="edge6" class="edge">
<title>add_stake_with_cap&#45;&gt;is_current_epoch_validator</title>
<path fill="none" stroke="black" d="M1922.55,-153.97C1789.09,-141.38 1509.15,-114.97 1357.68,-100.68"/>
<polygon fill="black" stroke="black" points="1358.34,-97.23 1348.06,-99.77 1357.69,-104.19 1358.34,-97.23"/>
</g>
<!-- block::block_prologue -->
<g id="node8" class="node">
<title>block::block_prologue</title>
<ellipse fill="none" stroke="black" cx="1255.09" cy="-162" rx="65.79" ry="18"/>
<text text-anchor="middle" x="1255.09" y="-158.3" font-family="Times,serif" font-size="14.00">block_prologue</text>
</g>
<!-- block::block_prologue&#45;&gt;is_current_epoch_validator -->
<g id="edge7" class="edge">
<title>block::block_prologue&#45;&gt;is_current_epoch_validator</title>
<path fill="none" stroke="black" d="M1255.09,-143.7C1255.09,-136.41 1255.09,-127.73 1255.09,-119.54"/>
<polygon fill="black" stroke="black" points="1258.59,-119.62 1255.09,-109.62 1251.59,-119.62 1258.59,-119.62"/>
</g>
<!-- join_validator_set -->
<g id="node9" class="node">
<title>join_validator_set</title>
<ellipse fill="none" stroke="black" cx="74.09" cy="-675" rx="74.19" ry="18"/>
<text text-anchor="middle" x="74.09" y="-671.3" font-family="Times,serif" font-size="14.00">join_validator_set</text>
</g>
<!-- join_validator_set&#45;&gt;join_validator_set_internal -->
<g id="edge8" class="edge">
<title>join_validator_set&#45;&gt;join_validator_set_internal</title>
<path fill="none" stroke="black" d="M115.98,-659.77C127.61,-656.04 140.28,-652.17 152.09,-649 193.76,-637.8 240.73,-627.37 279.28,-619.38"/>
<polygon fill="black" stroke="black" points="279.87,-622.84 288.96,-617.39 278.46,-615.98 279.87,-622.84"/>
</g>
<!-- genesis::initialize_validator -->
<g id="node10" class="node">
<title>genesis::initialize_validator</title>
<ellipse fill="none" stroke="black" cx="358.09" cy="-675" rx="77.19" ry="18"/>
<text text-anchor="middle" x="358.09" y="-671.3" font-family="Times,serif" font-size="14.00">initialize_validator</text>
</g>
<!-- genesis::initialize_validator&#45;&gt;join_validator_set_internal -->
<g id="edge9" class="edge">
<title>genesis::initialize_validator&#45;&gt;join_validator_set_internal</title>
<path fill="none" stroke="black" d="M358.09,-656.7C358.09,-649.41 358.09,-640.73 358.09,-632.54"/>
<polygon fill="black" stroke="black" points="361.59,-632.62 358.09,-622.62 354.59,-632.62 361.59,-632.62"/>
</g>
<!-- withdraw -->
<g id="node11" class="node">
<title>withdraw</title>
<ellipse fill="none" stroke="black" cx="532.09" cy="-384" rx="44.39" ry="18"/>
<text text-anchor="middle" x="532.09" y="-380.3" font-family="Times,serif" font-size="14.00">withdraw</text>
</g>
<!-- withdraw&#45;&gt;withdraw_with_cap -->
<g id="edge10" class="edge">
<title>withdraw&#45;&gt;withdraw_with_cap</title>
<path fill="none" stroke="black" d="M536.79,-365.7C538.81,-358.24 541.23,-349.32 543.5,-340.97"/>
<polygon fill="black" stroke="black" points="546.81,-342.13 546.05,-331.57 540.06,-340.3 546.81,-342.13"/>
</g>
<!-- staking_contract::distribute_internal -->
<g id="node12" class="node">
<title>staking_contract::distribute_internal</title>
<ellipse fill="none" stroke="black" cx="1714.09" cy="-384" rx="75.29" ry="18"/>
<text text-anchor="middle" x="1714.09" y="-380.3" font-family="Times,serif" font-size="14.00">distribute_internal</text>
</g>
<!-- staking_contract::distribute_internal&#45;&gt;withdraw_with_cap -->
<g id="edge11" class="edge">
<title>staking_contract::distribute_internal&#45;&gt;withdraw_with_cap</title>
<path fill="none" stroke="black" d="M1641.78,-378.65C1438.26,-366.4 860.97,-331.65 639.29,-318.31"/>
<polygon fill="black" stroke="black" points="639.76,-314.83 629.56,-317.72 639.33,-321.82 639.76,-314.83"/>
</g>
<!-- aptos_governance::create_proposal -->
<g id="node13" class="node">
<title>aptos_governance::create_proposal</title>
<ellipse fill="none" stroke="black" cx="325.09" cy="-237" rx="66.09" ry="18"/>
<text text-anchor="middle" x="325.09" y="-233.3" font-family="Times,serif" font-size="14.00">create_proposal</text>
</g>
<!-- aptos_governance::create_proposal&#45;&gt;aptos_governance::get_voting_power -->
<g id="edge12" class="edge">
<title>aptos_governance::create_proposal&#45;&gt;aptos_governance::get_voting_power</title>
<path fill="none" stroke="black" d="M315.61,-218.7C310.93,-210.15 305.17,-199.65 299.92,-190.07"/>
<polygon fill="black" stroke="black" points="303.11,-188.59 295.23,-181.5 296.97,-191.95 303.11,-188.59"/>
</g>
<!-- aptos_governance::vote -->
<g id="node14" class="node">
<title>aptos_governance::vote</title>
<ellipse fill="none" stroke="black" cx="214.09" cy="-237" rx="27" ry="18"/>
<text text-anchor="middle" x="214.09" y="-233.3" font-family="Times,serif" font-size="14.00">vote</text>
</g>
<!-- aptos_governance::vote&#45;&gt;aptos_governance::get_voting_power -->
<g id="edge13" class="edge">
<title>aptos_governance::vote&#45;&gt;aptos_governance::get_voting_power</title>
<path fill="none" stroke="black" d="M228.46,-221.23C237.76,-211.67 250.1,-198.98 260.89,-187.89"/>
<polygon fill="black" stroke="black" points="263.24,-190.49 267.7,-180.88 258.22,-185.61 263.24,-190.49"/>
</g>
<!-- add_stake -->
<g id="node15" class="node">
<title>add_stake</title>
<ellipse fill="none" stroke="black" cx="1949.09" cy="-237" rx="46.29" ry="18"/>
<text text-anchor="middle" x="1949.09" y="-233.3" font-family="Times,serif" font-size="14.00">add_stake</text>
</g>
<!-- add_stake&#45;&gt;add_stake_with_cap -->
<g id="edge14" class="edge">
<title>add_stake&#45;&gt;add_stake_with_cap</title>
<path fill="none" stroke="black" d="M1960.23,-219.07C1966,-210.29 1973.19,-199.36 1979.68,-189.49"/>
<polygon fill="black" stroke="black" points="1982.45,-191.64 1985.02,-181.36 1976.6,-187.79 1982.45,-191.64"/>
</g>
<!-- staking_contract::add_stake -->
<g id="node16" class="node">
<title>staking_contract::add_stake</title>
<ellipse fill="none" stroke="black" cx="2281.09" cy="-528" rx="46.29" ry="18"/>
<text text-anchor="middle" x="2281.09" y="-524.3" font-family="Times,serif" font-size="14.00">add_stake</text>
</g>
<!-- staking_contract::add_stake&#45;&gt;add_stake_with_cap -->
<g id="edge15" class="edge">
<title>staking_contract::add_stake&#45;&gt;add_stake_with_cap</title>
<path fill="none" stroke="black" d="M2305.92,-512.34C2319.52,-503.04 2335.52,-489.79 2345.09,-474 2366.05,-439.41 2364.09,-425.45 2364.09,-385 2364.09,-385 2364.09,-385 2364.09,-311 2364.09,-248.05 2176.01,-199.38 2069.14,-176.81"/>
<polygon fill="black" stroke="black" points="2070.09,-173.43 2059.59,-174.82 2068.67,-180.28 2070.09,-173.43"/>
</g>
<!-- staking_contract::create_staking_contract_with_coins -->
<g id="node17" class="node">
<title>staking_contract::create_staking_contract_with_coins</title>
<ellipse fill="none" stroke="black" cx="2045.09" cy="-456" rx="137.28" ry="18"/>
<text text-anchor="middle" x="2045.09" y="-452.3" font-family="Times,serif" font-size="14.00">create_staking_contract_with_coins</text>
</g>
<!-- staking_contract::create_staking_contract_with_coins&#45;&gt;add_stake_with_cap -->
<g id="edge16" class="edge">
<title>staking_contract::create_staking_contract_with_coins&#45;&gt;add_stake_with_cap</title>
<path fill="none" stroke="black" d="M2043.61,-437.53C2040.97,-407.88 2034.88,-345.89 2026.09,-294 2020.06,-258.35 2010.68,-217.77 2004.23,-191.34"/>
<polygon fill="black" stroke="black" points="2007.65,-190.61 2001.86,-181.74 2000.86,-192.28 2007.65,-190.61"/>
</g>
<!-- staking_contract::create_stake_pool -->
<g id="node34" class="node">
<title>staking_contract::create_stake_pool</title>
<ellipse fill="none" stroke="black" cx="1935.09" cy="-384" rx="74.19" ry="18"/>
<text text-anchor="middle" x="1935.09" y="-380.3" font-family="Times,serif" font-size="14.00">create_stake_pool</text>
</g>
<!-- staking_contract::create_staking_contract_with_coins&#45;&gt;staking_contract::create_stake_pool -->
<g id="edge46" class="edge">
<title>staking_contract::create_staking_contract_with_coins&#45;&gt;staking_contract::create_stake_pool</title>
<path fill="none" stroke="black" d="M2018.18,-437.88C2003.65,-428.62 1985.53,-417.1 1969.93,-407.17"/>
<polygon fill="black" stroke="black" points="1972.18,-404.45 1961.87,-402.04 1968.43,-410.36 1972.18,-404.45"/>
</g>
<!-- genesis::create_employee_validators -->
<g id="node18" class="node">
<title>genesis::create_employee_validators</title>
<ellipse fill="none" stroke="black" cx="274.09" cy="-750" rx="109.68" ry="18"/>
<text text-anchor="middle" x="274.09" y="-746.3" font-family="Times,serif" font-size="14.00">create_employee_validators</text>
</g>
<!-- genesis::create_employee_validators&#45;&gt;genesis::initialize_validator -->
<g id="edge17" class="edge">
<title>genesis::create_employee_validators&#45;&gt;genesis::initialize_validator</title>
<path fill="none" stroke="black" d="M293.58,-732.07C304.5,-722.58 318.3,-710.58 330.33,-700.13"/>
<polygon fill="black" stroke="black" points="332.32,-703.03 337.57,-693.83 327.73,-697.75 332.32,-703.03"/>
</g>
<!-- vesting::create_vesting_contract -->
<g id="node26" class="node">
<title>vesting::create_vesting_contract</title>
<ellipse fill="none" stroke="black" cx="726.09" cy="-675" rx="94.48" ry="18"/>
<text text-anchor="middle" x="726.09" y="-671.3" font-family="Times,serif" font-size="14.00">create_vesting_contract</text>
</g>
<!-- genesis::create_employee_validators&#45;&gt;vesting::create_vesting_contract -->
<g id="edge36" class="edge">
<title>genesis::create_employee_validators&#45;&gt;vesting::create_vesting_contract</title>
<path fill="none" stroke="black" d="M351.09,-736.78C365.04,-734.91 379.48,-733.21 393.09,-732 443.37,-727.54 570.95,-735.52 620.09,-724 643.6,-718.49 668.26,-707.66 687.88,-697.68"/>
<polygon fill="black" stroke="black" points="689.35,-700.86 696.59,-693.12 686.11,-694.66 689.35,-700.86"/>
</g>
<!-- genesis::create_initialize_validator -->
<g id="node19" class="node">
<title>genesis::create_initialize_validator</title>
<ellipse fill="none" stroke="black" cx="505.09" cy="-750" rx="102.88" ry="18"/>
<text text-anchor="middle" x="505.09" y="-746.3" font-family="Times,serif" font-size="14.00">create_initialize_validator</text>
</g>
<!-- genesis::create_initialize_validator&#45;&gt;genesis::initialize_validator -->
<g id="edge18" class="edge">
<title>genesis::create_initialize_validator&#45;&gt;genesis::initialize_validator</title>
<path fill="none" stroke="black" d="M472.1,-732.62C450.82,-722.05 422.93,-708.2 400.07,-696.85"/>
<polygon fill="black" stroke="black" points="401.83,-693.81 391.32,-692.5 398.72,-700.08 401.83,-693.81"/>
</g>
<!-- initialize_stake_owner -->
<g id="node24" class="node">
<title>initialize_stake_owner</title>
<ellipse fill="none" stroke="black" cx="1927.09" cy="-312" rx="90.18" ry="18"/>
<text text-anchor="middle" x="1927.09" y="-308.3" font-family="Times,serif" font-size="14.00">initialize_stake_owner</text>
</g>
<!-- genesis::create_initialize_validator&#45;&gt;initialize_stake_owner -->
<g id="edge34" class="edge">
<title>genesis::create_initialize_validator&#45;&gt;initialize_stake_owner</title>
<path fill="none" stroke="black" d="M527.06,-731.93C556.23,-707.16 604.09,-658.26 604.09,-604 604.09,-604 604.09,-604 604.09,-455 604.09,-332.28 1515.67,-315.45 1825.47,-313.28"/>
<polygon fill="black" stroke="black" points="1825.19,-316.78 1835.17,-313.21 1825.14,-309.78 1825.19,-316.78"/>
</g>
<!-- staking_contract::create_staking_contract -->
<g id="node25" class="node">
<title>staking_contract::create_staking_contract</title>
<ellipse fill="none" stroke="black" cx="1781.09" cy="-528" rx="94.48" ry="18"/>
<text text-anchor="middle" x="1781.09" y="-524.3" font-family="Times,serif" font-size="14.00">create_staking_contract</text>
</g>
<!-- genesis::create_initialize_validator&#45;&gt;staking_contract::create_staking_contract -->
<g id="edge35" class="edge">
<title>genesis::create_initialize_validator&#45;&gt;staking_contract::create_staking_contract</title>
<path fill="none" stroke="black" d="M608.2,-749.42C840.58,-749.94 1391.29,-748.5 1472.09,-724 1588.06,-688.84 1703.02,-597.57 1753.9,-553.51"/>
<polygon fill="black" stroke="black" points="1756,-556.32 1761.22,-547.1 1751.39,-551.06 1756,-556.32"/>
</g>
<!-- staking_contract::distribute -->
<g id="node20" class="node">
<title>staking_contract::distribute</title>
<ellipse fill="none" stroke="black" cx="1714.09" cy="-456" rx="44.39" ry="18"/>
<text text-anchor="middle" x="1714.09" y="-452.3" font-family="Times,serif" font-size="14.00">distribute</text>
</g>
<!-- staking_contract::distribute&#45;&gt;staking_contract::distribute_internal -->
<g id="edge19" class="edge">
<title>staking_contract::distribute&#45;&gt;staking_contract::distribute_internal</title>
<path fill="none" stroke="black" d="M1714.09,-437.7C1714.09,-430.41 1714.09,-421.73 1714.09,-413.54"/>
<polygon fill="black" stroke="black" points="1717.59,-413.62 1714.09,-403.62 1710.59,-413.62 1717.59,-413.62"/>
</g>
<!-- staking_contract::request_commission -->
<g id="node21" class="node">
<title>staking_contract::request_commission</title>
<ellipse fill="none" stroke="black" cx="1568.09" cy="-456" rx="83.69" ry="18"/>
<text text-anchor="middle" x="1568.09" y="-452.3" font-family="Times,serif" font-size="14.00">request_commission</text>
</g>
<!-- staking_contract::request_commission&#45;&gt;staking_contract::distribute_internal -->
<g id="edge20" class="edge">
<title>staking_contract::request_commission&#45;&gt;staking_contract::distribute_internal</title>
<path fill="none" stroke="black" d="M1601.22,-439.12C1622,-429.16 1648.98,-416.22 1671.36,-405.49"/>
<polygon fill="black" stroke="black" points="1672.73,-408.71 1680.23,-401.23 1669.7,-402.4 1672.73,-408.71"/>
</g>
<!-- staking_contract::switch_operator -->
<g id="node22" class="node">
<title>staking_contract::switch_operator</title>
<ellipse fill="none" stroke="black" cx="2268.09" cy="-456" rx="67.69" ry="18"/>
<text text-anchor="middle" x="2268.09" y="-452.3" font-family="Times,serif" font-size="14.00">switch_operator</text>
</g>
<!-- staking_contract::switch_operator&#45;&gt;staking_contract::distribute_internal -->
<g id="edge21" class="edge">
<title>staking_contract::switch_operator&#45;&gt;staking_contract::distribute_internal</title>
<path fill="none" stroke="black" d="M2218.96,-443.3C2209.73,-441.34 2200.15,-439.48 2191.09,-438 2041.55,-413.63 2002.62,-419.26 1852.09,-402 1832.15,-399.71 1810.61,-397.12 1790.61,-394.66"/>
<polygon fill="black" stroke="black" points="1791.21,-391.21 1780.85,-393.45 1790.35,-398.15 1791.21,-391.21"/>
</g>
<!-- staking_contract::unlock_stake -->
<g id="node23" class="node">
<title>staking_contract::unlock_stake</title>
<ellipse fill="none" stroke="black" cx="1833.09" cy="-456" rx="57.39" ry="18"/>
<text text-anchor="middle" x="1833.09" y="-452.3" font-family="Times,serif" font-size="14.00">unlock_stake</text>
</g>
<!-- staking_contract::unlock_stake&#45;&gt;staking_contract::distribute_internal -->
<g id="edge22" class="edge">
<title>staking_contract::unlock_stake&#45;&gt;staking_contract::distribute_internal</title>
<path fill="none" stroke="black" d="M1806.98,-439.64C1790.58,-429.99 1769.19,-417.41 1751.07,-406.75"/>
<polygon fill="black" stroke="black" points="1753.09,-403.88 1742.69,-401.82 1749.54,-409.91 1753.09,-403.88"/>
</g>
<!-- initialize_stake_owner&#45;&gt;add_stake -->
<g id="edge23" class="edge">
<title>initialize_stake_owner&#45;&gt;add_stake</title>
<path fill="none" stroke="black" d="M1932.31,-293.7C1934.8,-285.43 1937.85,-275.31 1940.66,-265.99"/>
<polygon fill="black" stroke="black" points="1943.95,-267.21 1943.48,-256.62 1937.24,-265.19 1943.95,-267.21"/>
</g>
<!-- staking_contract::create_staking_contract&#45;&gt;staking_contract::create_staking_contract_with_coins -->
<g id="edge24" class="edge">
<title>staking_contract::create_staking_contract&#45;&gt;staking_contract::create_staking_contract_with_coins</title>
<path fill="none" stroke="black" d="M1834.84,-512.75C1875.28,-502.03 1931.06,-487.24 1975.01,-475.58"/>
<polygon fill="black" stroke="black" points="1975.68,-479.03 1984.45,-473.08 1973.89,-472.26 1975.68,-479.03"/>
</g>
<!-- vesting::create_vesting_contract&#45;&gt;staking_contract::create_staking_contract_with_coins -->
<g id="edge25" class="edge">
<title>vesting::create_vesting_contract&#45;&gt;staking_contract::create_staking_contract_with_coins</title>
<path fill="none" stroke="black" d="M729.17,-656.72C733.63,-636.68 743.81,-603.97 765.09,-585 858.81,-501.47 911.26,-522.66 1035.09,-502 1224.58,-470.39 1707.52,-488.23 1899.09,-474 1911.69,-473.06 1924.87,-471.85 1937.95,-470.51"/>
<polygon fill="black" stroke="black" points="1938.31,-473.99 1947.88,-469.46 1937.57,-467.03 1938.31,-473.99"/>
</g>
<!-- genesis::create_initialize_validators_with_commission -->
<g id="node27" class="node">
<title>genesis::create_initialize_validators_with_commission</title>
<ellipse fill="none" stroke="black" cx="434.09" cy="-825" rx="173.57" ry="18"/>
<text text-anchor="middle" x="434.09" y="-821.3" font-family="Times,serif" font-size="14.00">create_initialize_validators_with_commission</text>
</g>
<!-- genesis::create_initialize_validators_with_commission&#45;&gt;genesis::create_initialize_validator -->
<g id="edge26" class="edge">
<title>genesis::create_initialize_validators_with_commission&#45;&gt;genesis::create_initialize_validator</title>
<path fill="none" stroke="black" d="M450.92,-806.7C459.76,-797.61 470.76,-786.3 480.54,-776.25"/>
<polygon fill="black" stroke="black" points="482.87,-778.87 487.33,-769.26 477.85,-773.99 482.87,-778.87"/>
</g>
<!-- vesting::withdraw_stake -->
<g id="node28" class="node">
<title>vesting::withdraw_stake</title>
<ellipse fill="none" stroke="black" cx="1110.09" cy="-528" rx="66.09" ry="18"/>
<text text-anchor="middle" x="1110.09" y="-524.3" font-family="Times,serif" font-size="14.00">withdraw_stake</text>
</g>
<!-- vesting::withdraw_stake&#45;&gt;staking_contract::distribute -->
<g id="edge27" class="edge">
<title>vesting::withdraw_stake&#45;&gt;staking_contract::distribute</title>
<path fill="none" stroke="black" d="M1172.66,-521.74C1306.91,-510.35 1614.24,-483.65 1661.09,-474 1664.24,-473.35 1667.47,-472.58 1670.7,-471.74"/>
<polygon fill="black" stroke="black" points="1671.48,-475.16 1680.13,-469.05 1669.56,-468.43 1671.48,-475.16"/>
</g>
<!-- staking_contract::switch_operator_with_same_commission -->
<g id="node29" class="node">
<title>staking_contract::switch_operator_with_same_commission</title>
<ellipse fill="none" stroke="black" cx="2059.09" cy="-528" rx="157.87" ry="18"/>
<text text-anchor="middle" x="2059.09" y="-524.3" font-family="Times,serif" font-size="14.00">switch_operator_with_same_commission</text>
</g>
<!-- staking_contract::switch_operator_with_same_commission&#45;&gt;staking_contract::switch_operator -->
<g id="edge28" class="edge">
<title>staking_contract::switch_operator_with_same_commission&#45;&gt;staking_contract::switch_operator</title>
<path fill="none" stroke="black" d="M2108.36,-510.5C2140.89,-499.61 2183.43,-485.35 2216.44,-474.3"/>
<polygon fill="black" stroke="black" points="2217.43,-477.66 2225.8,-471.17 2215.21,-471.02 2217.43,-477.66"/>
</g>
<!-- vesting::update_operator -->
<g id="node30" class="node">
<title>vesting::update_operator</title>
<ellipse fill="none" stroke="black" cx="1392.09" cy="-603" rx="67.69" ry="18"/>
<text text-anchor="middle" x="1392.09" y="-599.3" font-family="Times,serif" font-size="14.00">update_operator</text>
</g>
<!-- vesting::update_operator&#45;&gt;staking_contract::switch_operator -->
<g id="edge29" class="edge">
<title>vesting::update_operator&#45;&gt;staking_contract::switch_operator</title>
<path fill="none" stroke="black" d="M1405.4,-585.05C1425.11,-561.41 1464.57,-519.48 1509.09,-502 1579.69,-474.28 2115.88,-483.77 2191.09,-474 2196.8,-473.26 2202.71,-472.3 2208.6,-471.22"/>
<polygon fill="black" stroke="black" points="2209.23,-474.67 2218.37,-469.3 2207.88,-467.8 2209.23,-474.67"/>
</g>
<!-- staking_proxy::set_staking_contract_operator -->
<g id="node31" class="node">
<title>staking_proxy::set_staking_contract_operator</title>
<ellipse fill="none" stroke="black" cx="2288.09" cy="-675" rx="116.18" ry="18"/>
<text text-anchor="middle" x="2288.09" y="-671.3" font-family="Times,serif" font-size="14.00">set_staking_contract_operator</text>
</g>
<!-- staking_proxy::set_staking_contract_operator&#45;&gt;staking_contract::switch_operator -->
<g id="edge30" class="edge">
<title>staking_proxy::set_staking_contract_operator&#45;&gt;staking_contract::switch_operator</title>
<path fill="none" stroke="black" d="M2301.05,-656.71C2323.4,-624.6 2364.2,-554.3 2336.09,-502 2330.82,-492.19 2322.37,-484.16 2313.19,-477.74"/>
<polygon fill="black" stroke="black" points="2315.07,-474.79 2304.74,-472.43 2311.34,-480.72 2315.07,-474.79"/>
</g>
<!-- staking_contract::unlock_rewards -->
<g id="node32" class="node">
<title>staking_contract::unlock_rewards</title>
<ellipse fill="none" stroke="black" cx="1585.09" cy="-528" rx="66.89" ry="18"/>
<text text-anchor="middle" x="1585.09" y="-524.3" font-family="Times,serif" font-size="14.00">unlock_rewards</text>
</g>
<!-- staking_contract::unlock_rewards&#45;&gt;staking_contract::unlock_stake -->
<g id="edge31" class="edge">
<title>staking_contract::unlock_rewards&#45;&gt;staking_contract::unlock_stake</title>
<path fill="none" stroke="black" d="M1630,-514.32C1672.34,-502.37 1735.78,-484.47 1780.47,-471.85"/>
<polygon fill="black" stroke="black" points="1781.28,-475.26 1789.95,-469.18 1779.37,-468.53 1781.28,-475.26"/>
</g>
<!-- vesting::unlock_stake -->
<g id="node33" class="node">
<title>vesting::unlock_stake</title>
<ellipse fill="none" stroke="black" cx="831.09" cy="-603" rx="57.39" ry="18"/>
<text text-anchor="middle" x="831.09" y="-599.3" font-family="Times,serif" font-size="14.00">unlock_stake</text>
</g>
<!-- vesting::unlock_stake&#45;&gt;staking_contract::unlock_stake -->
<g id="edge32" class="edge">
<title>vesting::unlock_stake&#45;&gt;staking_contract::unlock_stake</title>
<path fill="none" stroke="black" d="M854.93,-586.16C891.74,-562.69 965.49,-519.55 1035.09,-502 1192.94,-462.2 1606.02,-497.55 1767.09,-474 1771.7,-473.33 1776.46,-472.46 1781.2,-471.47"/>
<polygon fill="black" stroke="black" points="1781.72,-474.94 1790.7,-469.32 1780.18,-468.11 1781.72,-474.94"/>
</g>
<!-- staking_contract::create_stake_pool&#45;&gt;initialize_stake_owner -->
<g id="edge33" class="edge">
<title>staking_contract::create_stake_pool&#45;&gt;initialize_stake_owner</title>
<path fill="none" stroke="black" d="M1933.12,-365.7C1932.28,-358.41 1931.29,-349.73 1930.35,-341.54"/>
<polygon fill="black" stroke="black" points="1933.83,-341.15 1929.22,-331.61 1926.88,-341.94 1933.83,-341.15"/>
</g>
<!-- genesis::create_initialize_validators -->
<g id="node35" class="node">
<title>genesis::create_initialize_validators</title>
<ellipse fill="none" stroke="black" cx="434.09" cy="-897" rx="105.88" ry="18"/>
<text text-anchor="middle" x="434.09" y="-893.3" font-family="Times,serif" font-size="14.00">create_initialize_validators</text>
</g>
<!-- genesis::create_initialize_validators&#45;&gt;genesis::create_initialize_validators_with_commission -->
<g id="edge37" class="edge">
<title>genesis::create_initialize_validators&#45;&gt;genesis::create_initialize_validators_with_commission</title>
<path fill="none" stroke="black" d="M434.09,-878.7C434.09,-871.41 434.09,-862.73 434.09,-854.54"/>
<polygon fill="black" stroke="black" points="437.59,-854.62 434.09,-844.62 430.59,-854.62 437.59,-854.62"/>
</g>
<!-- vesting::distribute -->
<g id="node36" class="node">
<title>vesting::distribute</title>
<ellipse fill="none" stroke="black" cx="1110.09" cy="-603" rx="44.39" ry="18"/>
<text text-anchor="middle" x="1110.09" y="-599.3" font-family="Times,serif" font-size="14.00">distribute</text>
</g>
<!-- vesting::distribute&#45;&gt;vesting::withdraw_stake -->
<g id="edge38" class="edge">
<title>vesting::distribute&#45;&gt;vesting::withdraw_stake</title>
<path fill="none" stroke="black" d="M1110.09,-584.7C1110.09,-576.67 1110.09,-566.9 1110.09,-557.8"/>
<polygon fill="black" stroke="black" points="1113.59,-557.94 1110.09,-547.94 1106.59,-557.94 1113.59,-557.94"/>
</g>
<!-- vesting::admin_withdraw -->
<g id="node37" class="node">
<title>vesting::admin_withdraw</title>
<ellipse fill="none" stroke="black" cx="977.09" cy="-603" rx="70.69" ry="18"/>
<text text-anchor="middle" x="977.09" y="-599.3" font-family="Times,serif" font-size="14.00">admin_withdraw</text>
</g>
<!-- vesting::admin_withdraw&#45;&gt;vesting::withdraw_stake -->
<g id="edge39" class="edge">
<title>vesting::admin_withdraw&#45;&gt;vesting::withdraw_stake</title>
<path fill="none" stroke="black" d="M1005.95,-586.16C1025.26,-575.57 1050.87,-561.51 1071.86,-549.98"/>
<polygon fill="black" stroke="black" points="1073.34,-553.17 1080.42,-545.29 1069.97,-547.03 1073.34,-553.17"/>
</g>
<!-- vesting::update_operator_with_same_commission -->
<g id="node38" class="node">
<title>vesting::update_operator_with_same_commission</title>
<ellipse fill="none" stroke="black" cx="1301.09" cy="-675" rx="158.67" ry="18"/>
<text text-anchor="middle" x="1301.09" y="-671.3" font-family="Times,serif" font-size="14.00">update_operator_with_same_commission</text>
</g>
<!-- vesting::update_operator_with_same_commission&#45;&gt;vesting::update_operator -->
<g id="edge40" class="edge">
<title>vesting::update_operator_with_same_commission&#45;&gt;vesting::update_operator</title>
<path fill="none" stroke="black" d="M1323.59,-656.7C1335.08,-647.86 1349.23,-636.97 1361.68,-627.4"/>
<polygon fill="black" stroke="black" points="1363.8,-630.18 1369.6,-621.31 1359.54,-624.63 1363.8,-630.18"/>
</g>
<!-- staking_proxy::set_vesting_contract_operator -->
<g id="node39" class="node">
<title>staking_proxy::set_vesting_contract_operator</title>
<ellipse fill="none" stroke="black" cx="2037.09" cy="-675" rx="116.18" ry="18"/>
<text text-anchor="middle" x="2037.09" y="-671.3" font-family="Times,serif" font-size="14.00">set_vesting_contract_operator</text>
</g>
<!-- staking_proxy::set_vesting_contract_operator&#45;&gt;vesting::update_operator -->
<g id="edge41" class="edge">
<title>staking_proxy::set_vesting_contract_operator&#45;&gt;vesting::update_operator</title>
<path fill="none" stroke="black" d="M1943.99,-663.9C1814.51,-649.84 1582.75,-624.69 1465.03,-611.92"/>
<polygon fill="black" stroke="black" points="1465.48,-608.44 1455.16,-610.84 1464.72,-615.4 1465.48,-608.44"/>
</g>
<!-- staking_proxy::set_operator -->
<g id="node40" class="node">
<title>staking_proxy::set_operator</title>
<ellipse fill="none" stroke="black" cx="2162.09" cy="-750" rx="53.89" ry="18"/>
<text text-anchor="middle" x="2162.09" y="-746.3" font-family="Times,serif" font-size="14.00">set_operator</text>
</g>
<!-- staking_proxy::set_operator&#45;&gt;staking_proxy::set_staking_contract_operator -->
<g id="edge42" class="edge">
<title>staking_proxy::set_operator&#45;&gt;staking_proxy::set_staking_contract_operator</title>
<path fill="none" stroke="black" d="M2188.2,-733.87C2205.76,-723.7 2229.21,-710.11 2248.98,-698.66"/>
<polygon fill="black" stroke="black" points="2250.73,-701.69 2257.63,-693.65 2247.22,-695.64 2250.73,-701.69"/>
</g>
<!-- staking_proxy::set_operator&#45;&gt;staking_proxy::set_vesting_contract_operator -->
<g id="edge49" class="edge">
<title>staking_proxy::set_operator&#45;&gt;staking_proxy::set_vesting_contract_operator</title>
<path fill="none" stroke="black" d="M2136.19,-733.87C2118.78,-723.7 2095.51,-710.11 2075.89,-698.66"/>
<polygon fill="black" stroke="black" points="2077.73,-695.68 2067.33,-693.66 2074.2,-701.72 2077.73,-695.68"/>
</g>
<!-- vesting::unlock_rewards -->
<g id="node41" class="node">
<title>vesting::unlock_rewards</title>
<ellipse fill="none" stroke="black" cx="1239.09" cy="-603" rx="66.89" ry="18"/>
<text text-anchor="middle" x="1239.09" y="-599.3" font-family="Times,serif" font-size="14.00">unlock_rewards</text>
</g>
<!-- vesting::unlock_rewards&#45;&gt;staking_contract::unlock_rewards -->
<g id="edge43" class="edge">
<title>vesting::unlock_rewards&#45;&gt;staking_contract::unlock_rewards</title>
<path fill="none" stroke="black" d="M1286.71,-590.06C1296.07,-588.08 1305.85,-586.26 1315.09,-585 1384.32,-575.56 1404.01,-592.68 1472.09,-577 1497.68,-571.11 1524.81,-559.77 1546.07,-549.6"/>
<polygon fill="black" stroke="black" points="1547.51,-552.79 1554.95,-545.24 1544.43,-546.5 1547.51,-552.79"/>
</g>
<!-- vesting::terminate_vesting_contract -->
<g id="node42" class="node">
<title>vesting::terminate_vesting_contract</title>
<ellipse fill="none" stroke="black" cx="945.09" cy="-675" rx="106.68" ry="18"/>
<text text-anchor="middle" x="945.09" y="-671.3" font-family="Times,serif" font-size="14.00">terminate_vesting_contract</text>
</g>
<!-- vesting::terminate_vesting_contract&#45;&gt;vesting::unlock_stake -->
<g id="edge44" class="edge">
<title>vesting::terminate_vesting_contract&#45;&gt;vesting::unlock_stake</title>
<path fill="none" stroke="black" d="M917.79,-657.23C902.15,-647.63 882.37,-635.49 865.66,-625.23"/>
<polygon fill="black" stroke="black" points="867.87,-622.48 857.52,-620.23 864.21,-628.44 867.87,-622.48"/>
</g>
<!-- vesting::terminate_vesting_contract&#45;&gt;vesting::distribute -->
<g id="edge48" class="edge">
<title>vesting::terminate_vesting_contract&#45;&gt;vesting::distribute</title>
<path fill="none" stroke="black" d="M983.36,-657.76C1009.3,-646.76 1043.52,-632.24 1069.86,-621.07"/>
<polygon fill="black" stroke="black" points="1071.03,-624.37 1078.87,-617.25 1068.29,-617.93 1071.03,-624.37"/>
</g>
<!-- vesting::vest -->
<g id="node43" class="node">
<title>vesting::vest</title>
<ellipse fill="none" stroke="black" cx="1097.09" cy="-675" rx="27" ry="18"/>
<text text-anchor="middle" x="1097.09" y="-671.3" font-family="Times,serif" font-size="14.00">vest</text>
</g>
<!-- vesting::vest&#45;&gt;vesting::unlock_stake -->
<g id="edge45" class="edge">
<title>vesting::vest&#45;&gt;vesting::unlock_stake</title>
<path fill="none" stroke="black" d="M1080.77,-660.41C1074.89,-656.15 1068,-651.82 1061.09,-649 992.65,-621.02 969.4,-636.46 897.09,-621 893.04,-620.13 888.85,-619.18 884.65,-618.19"/>
<polygon fill="black" stroke="black" points="885.59,-614.82 875.05,-615.85 883.93,-621.62 885.59,-614.82"/>
</g>
<!-- vesting::vest&#45;&gt;vesting::unlock_rewards -->
<g id="edge50" class="edge">
<title>vesting::vest&#45;&gt;vesting::unlock_rewards</title>
<path fill="none" stroke="black" d="M1114.57,-660.79C1120.31,-656.74 1126.83,-652.46 1133.09,-649 1151.16,-639.03 1171.9,-629.78 1190.21,-622.3"/>
<polygon fill="black" stroke="black" points="1191.29,-625.63 1199.27,-618.66 1188.68,-619.14 1191.29,-625.63"/>
</g>
<!-- genesis::initialize_for_verification -->
<g id="node44" class="node">
<title>genesis::initialize_for_verification</title>
<ellipse fill="none" stroke="black" cx="434.09" cy="-969" rx="100.98" ry="18"/>
<text text-anchor="middle" x="434.09" y="-965.3" font-family="Times,serif" font-size="14.00">initialize_for_verification</text>
</g>
<!-- genesis::initialize_for_verification&#45;&gt;genesis::create_initialize_validators -->
<g id="edge47" class="edge">
<title>genesis::initialize_for_verification&#45;&gt;genesis::create_initialize_validators</title>
<path fill="none" stroke="black" d="M434.09,-950.7C434.09,-943.41 434.09,-934.73 434.09,-926.54"/>
<polygon fill="black" stroke="black" points="437.59,-926.62 434.09,-916.62 430.59,-926.62 437.59,-926.62"/>
</g>
</g>
</svg>
