<?xml version="1.0" encoding="UTF-8" standalone="no"?>
<!DOCTYPE svg PUBLIC "-//W3C//DTD SVG 1.1//EN"
 "http://www.w3.org/Graphics/SVG/1.1/DTD/svg11.dtd">
<!-- Generated by graphviz version 7.0.0 (20221023.0053)
 -->
<!-- Title: G Pages: 1 -->
<svg width="2540pt" height="529pt"
 viewBox="0.00 0.00 2539.65 529.00" xmlns="http://www.w3.org/2000/svg" xmlns:xlink="http://www.w3.org/1999/xlink">
<g id="graph0" class="graph" transform="scale(1 1) rotate(0) translate(4 525)">
<title>G</title>
<polygon fill="white" stroke="none" points="-4,4 -4,-525 2535.65,-525 2535.65,4 -4,4"/>
<g id="clust1" class="cluster">
<title>cluster_staking_proxy</title>
<polygon fill="none" stroke="black" points="235.65,-363 235.65,-513 1192.65,-513 1192.65,-363 235.65,-363"/>
<text text-anchor="middle" x="714.15" y="-497.8" font-family="Times,serif" font-size="14.00">staking_proxy</text>
</g>
<g id="clust2" class="cluster">
<title>cluster_vesting</title>
<polygon fill="none" stroke="black" points="417.65,-136 417.65,-355 1315.65,-355 1315.65,-136 417.65,-136"/>
<text text-anchor="middle" x="866.65" y="-339.8" font-family="Times,serif" font-size="14.00">vesting</text>
</g>
<g id="clust3" class="cluster">
<title>cluster_genesis</title>
<polygon fill="none" stroke="black" points="2159.65,-136 2159.65,-438 2523.65,-438 2523.65,-136 2159.65,-136"/>
<text text-anchor="middle" x="2341.65" y="-422.8" font-family="Times,serif" font-size="14.00">genesis</text>
</g>
<!-- assert_staking_contract_exists -->
<g id="node1" class="node">
<title>assert_staking_contract_exists</title>
<ellipse fill="none" stroke="black" cx="1276.65" cy="-18" rx="117.78" ry="18"/>
<text text-anchor="middle" x="1276.65" y="-14.3" font-family="Times,serif" font-size="14.00">assert_staking_contract_exists</text>
</g>
<!-- add_stake -->
<g id="node2" class="node">
<title>add_stake</title>
<ellipse fill="none" stroke="black" cx="133.65" cy="-90" rx="46.29" ry="18"/>
<text text-anchor="middle" x="133.65" y="-86.3" font-family="Times,serif" font-size="14.00">add_stake</text>
</g>
<!-- add_stake&#45;&gt;assert_staking_contract_exists -->
<g id="edge1" class="edge">
<title>add_stake&#45;&gt;assert_staking_contract_exists</title>
<path fill="none" stroke="black" d="M168.25,-77.75C176.49,-75.48 185.32,-73.37 193.65,-72 374,-42.43 903.79,-27.23 1149.19,-21.61"/>
<polygon fill="black" stroke="black" points="1149.23,-25.11 1159.15,-21.38 1149.07,-18.11 1149.23,-25.11"/>
</g>
<!-- commission_percentage -->
<g id="node3" class="node">
<title>commission_percentage</title>
<ellipse fill="none" stroke="black" cx="120.65" cy="-162" rx="96.68" ry="18"/>
<text text-anchor="middle" x="120.65" y="-158.3" font-family="Times,serif" font-size="14.00">commission_percentage</text>
</g>
<!-- commission_percentage&#45;&gt;assert_staking_contract_exists -->
<g id="edge2" class="edge">
<title>commission_percentage&#45;&gt;assert_staking_contract_exists</title>
<path fill="none" stroke="black" d="M142.85,-144.01C156.22,-133.7 173.51,-120.23 188.65,-108 208.04,-92.34 208.45,-81.1 231.65,-72 314.86,-39.36 887.84,-25.58 1148.29,-20.95"/>
<polygon fill="black" stroke="black" points="1148.25,-24.46 1158.18,-20.78 1148.12,-17.46 1148.25,-24.46"/>
</g>
<!-- distribute -->
<g id="node4" class="node">
<title>distribute</title>
<ellipse fill="none" stroke="black" cx="947.65" cy="-90" rx="44.39" ry="18"/>
<text text-anchor="middle" x="947.65" y="-86.3" font-family="Times,serif" font-size="14.00">distribute</text>
</g>
<!-- distribute&#45;&gt;assert_staking_contract_exists -->
<g id="edge3" class="edge">
<title>distribute&#45;&gt;assert_staking_contract_exists</title>
<path fill="none" stroke="black" d="M986.36,-80.76C1038.41,-69.69 1132.14,-49.75 1199.02,-35.52"/>
<polygon fill="black" stroke="black" points="1199.39,-39.02 1208.44,-33.51 1197.93,-32.17 1199.39,-39.02"/>
</g>
<!-- last_recorded_principal -->
<g id="node5" class="node">
<title>last_recorded_principal</title>
<ellipse fill="none" stroke="black" cx="1724.65" cy="-90" rx="93.68" ry="18"/>
<text text-anchor="middle" x="1724.65" y="-86.3" font-family="Times,serif" font-size="14.00">last_recorded_principal</text>
</g>
<!-- last_recorded_principal&#45;&gt;assert_staking_contract_exists -->
<g id="edge4" class="edge">
<title>last_recorded_principal&#45;&gt;assert_staking_contract_exists</title>
<path fill="none" stroke="black" d="M1655.81,-77.4C1644.73,-75.57 1633.38,-73.72 1622.65,-72 1537.24,-58.34 1439.86,-43.49 1370.21,-32.99"/>
<polygon fill="black" stroke="black" points="1370.75,-29.53 1360.34,-31.5 1369.7,-36.45 1370.75,-29.53"/>
</g>
<!-- pending_distribution_counts -->
<g id="node6" class="node">
<title>pending_distribution_counts</title>
<ellipse fill="none" stroke="black" cx="1947.65" cy="-90" rx="111.28" ry="18"/>
<text text-anchor="middle" x="1947.65" y="-86.3" font-family="Times,serif" font-size="14.00">pending_distribution_counts</text>
</g>
<!-- pending_distribution_counts&#45;&gt;assert_staking_contract_exists -->
<g id="edge5" class="edge">
<title>pending_distribution_counts&#45;&gt;assert_staking_contract_exists</title>
<path fill="none" stroke="black" d="M1867.68,-77.16C1854.32,-75.33 1840.6,-73.54 1827.65,-72 1676.34,-54.01 1501.1,-37.98 1389.61,-28.37"/>
<polygon fill="black" stroke="black" points="1390.12,-24.91 1379.86,-27.54 1389.52,-31.88 1390.12,-24.91"/>
</g>
<!-- request_commission -->
<g id="node7" class="node">
<title>request_commission</title>
<ellipse fill="none" stroke="black" cx="2160.65" cy="-90" rx="83.69" ry="18"/>
<text text-anchor="middle" x="2160.65" y="-86.3" font-family="Times,serif" font-size="14.00">request_commission</text>
</g>
<!-- request_commission&#45;&gt;assert_staking_contract_exists -->
<g id="edge6" class="edge">
<title>request_commission&#45;&gt;assert_staking_contract_exists</title>
<path fill="none" stroke="black" d="M2100.77,-77.02C2089.79,-75.12 2078.4,-73.34 2067.65,-72 1833.57,-42.86 1558.39,-28.98 1402.05,-22.99"/>
<polygon fill="black" stroke="black" points="1402.64,-19.51 1392.51,-22.63 1402.37,-26.51 1402.64,-19.51"/>
</g>
<!-- reset_lockup -->
<g id="node8" class="node">
<title>reset_lockup</title>
<ellipse fill="none" stroke="black" cx="1557.65" cy="-90" rx="55.79" ry="18"/>
<text text-anchor="middle" x="1557.65" y="-86.3" font-family="Times,serif" font-size="14.00">reset_lockup</text>
</g>
<!-- reset_lockup&#45;&gt;assert_staking_contract_exists -->
<g id="edge7" class="edge">
<title>reset_lockup&#45;&gt;assert_staking_contract_exists</title>
<path fill="none" stroke="black" d="M1514.36,-78.22C1469.88,-67.13 1399.89,-49.7 1347.36,-36.61"/>
<polygon fill="black" stroke="black" points="1348.45,-33.28 1337.9,-34.26 1346.76,-40.07 1348.45,-33.28"/>
</g>
<!-- stake_pool_address -->
<g id="node9" class="node">
<title>stake_pool_address</title>
<ellipse fill="none" stroke="black" cx="2341.65" cy="-90" rx="79.09" ry="18"/>
<text text-anchor="middle" x="2341.65" y="-86.3" font-family="Times,serif" font-size="14.00">stake_pool_address</text>
</g>
<!-- stake_pool_address&#45;&gt;assert_staking_contract_exists -->
<g id="edge8" class="edge">
<title>stake_pool_address&#45;&gt;assert_staking_contract_exists</title>
<path fill="none" stroke="black" d="M2285.5,-76.97C2274.96,-75.05 2264,-73.27 2253.65,-72 1951.09,-34.75 1592.61,-23.68 1405.3,-20.39"/>
<polygon fill="black" stroke="black" points="1405.61,-16.89 1395.55,-20.22 1405.49,-23.89 1405.61,-16.89"/>
</g>
<!-- staking_contract_amounts -->
<g id="node10" class="node">
<title>staking_contract_amounts</title>
<ellipse fill="none" stroke="black" cx="1342.65" cy="-90" rx="103.18" ry="18"/>
<text text-anchor="middle" x="1342.65" y="-86.3" font-family="Times,serif" font-size="14.00">staking_contract_amounts</text>
</g>
<!-- staking_contract_amounts&#45;&gt;assert_staking_contract_exists -->
<g id="edge9" class="edge">
<title>staking_contract_amounts&#45;&gt;assert_staking_contract_exists</title>
<path fill="none" stroke="black" d="M1326.67,-72.05C1318.85,-63.75 1309.26,-53.58 1300.58,-44.38"/>
<polygon fill="black" stroke="black" points="1303.38,-42.25 1293.98,-37.38 1298.29,-47.05 1303.38,-42.25"/>
</g>
<!-- switch_operator -->
<g id="node11" class="node">
<title>switch_operator</title>
<ellipse fill="none" stroke="black" cx="341.65" cy="-162" rx="67.69" ry="18"/>
<text text-anchor="middle" x="341.65" y="-158.3" font-family="Times,serif" font-size="14.00">switch_operator</text>
</g>
<!-- switch_operator&#45;&gt;assert_staking_contract_exists -->
<g id="edge10" class="edge">
<title>switch_operator&#45;&gt;assert_staking_contract_exists</title>
<path fill="none" stroke="black" d="M378.6,-146.59C389.73,-142.68 402.07,-138.77 413.65,-136 676.72,-73.16 993.54,-41.01 1160.53,-27.35"/>
<polygon fill="black" stroke="black" points="1160.61,-30.85 1170.29,-26.56 1160.04,-23.87 1160.61,-30.85"/>
</g>
<!-- switch_operator_with_same_commission -->
<g id="node12" class="node">
<title>switch_operator_with_same_commission</title>
<ellipse fill="none" stroke="black" cx="173.65" cy="-234" rx="157.87" ry="18"/>
<text text-anchor="middle" x="173.65" y="-230.3" font-family="Times,serif" font-size="14.00">switch_operator_with_same_commission</text>
</g>
<!-- switch_operator_with_same_commission&#45;&gt;assert_staking_contract_exists -->
<g id="edge11" class="edge">
<title>switch_operator_with_same_commission&#45;&gt;assert_staking_contract_exists</title>
<path fill="none" stroke="black" d="M191.65,-215.65C202.06,-205.45 215.31,-192.2 226.65,-180 244.24,-161.07 242.49,-149.29 264.65,-136 375.62,-69.47 420.66,-90.97 548.65,-72 758.17,-40.94 1004.44,-27.85 1150.15,-22.5"/>
<polygon fill="black" stroke="black" points="1149.95,-26.01 1159.82,-22.15 1149.7,-19.01 1149.95,-26.01"/>
</g>
<!-- switch_operator_with_same_commission&#45;&gt;commission_percentage -->
<g id="edge15" class="edge">
<title>switch_operator_with_same_commission&#45;&gt;commission_percentage</title>
<path fill="none" stroke="black" d="M160.55,-215.7C154.52,-207.73 147.23,-198.1 140.54,-189.26"/>
<polygon fill="black" stroke="black" points="143.34,-187.17 134.51,-181.31 137.76,-191.4 143.34,-187.17"/>
</g>
<!-- switch_operator_with_same_commission&#45;&gt;switch_operator -->
<g id="edge21" class="edge">
<title>switch_operator_with_same_commission&#45;&gt;switch_operator</title>
<path fill="none" stroke="black" d="M213.89,-216.23C238.52,-205.97 270.12,-192.8 295.73,-182.13"/>
<polygon fill="black" stroke="black" points="297.02,-185.39 304.9,-178.31 294.33,-178.93 297.02,-185.39"/>
</g>
<!-- unlock_rewards -->
<g id="node13" class="node">
<title>unlock_rewards</title>
<ellipse fill="none" stroke="black" cx="1390.65" cy="-162" rx="66.89" ry="18"/>
<text text-anchor="middle" x="1390.65" y="-158.3" font-family="Times,serif" font-size="14.00">unlock_rewards</text>
</g>
<!-- unlock_rewards&#45;&gt;assert_staking_contract_exists -->
<g id="edge12" class="edge">
<title>unlock_rewards&#45;&gt;assert_staking_contract_exists</title>
<path fill="none" stroke="black" d="M1351.67,-147.01C1341.29,-143.36 1330.06,-139.47 1319.65,-136 1280.31,-122.89 1255.18,-141.43 1230.65,-108 1215.99,-88.02 1231.89,-62.72 1248.87,-44.21"/>
<polygon fill="black" stroke="black" points="1251.38,-46.66 1255.85,-37.05 1246.36,-41.77 1251.38,-46.66"/>
</g>
<!-- unlock_rewards&#45;&gt;staking_contract_amounts -->
<g id="edge20" class="edge">
<title>unlock_rewards&#45;&gt;staking_contract_amounts</title>
<path fill="none" stroke="black" d="M1379.03,-144.05C1373.57,-136.09 1366.93,-126.41 1360.83,-117.51"/>
<polygon fill="black" stroke="black" points="1363.89,-115.79 1355.35,-109.52 1358.12,-119.75 1363.89,-115.79"/>
</g>
<!-- unlock_stake -->
<g id="node14" class="node">
<title>unlock_stake</title>
<ellipse fill="none" stroke="black" cx="1126.65" cy="-90" rx="57.39" ry="18"/>
<text text-anchor="middle" x="1126.65" y="-86.3" font-family="Times,serif" font-size="14.00">unlock_stake</text>
</g>
<!-- unlock_rewards&#45;&gt;unlock_stake -->
<g id="edge25" class="edge">
<title>unlock_rewards&#45;&gt;unlock_stake</title>
<path fill="none" stroke="black" d="M1352.95,-146.84C1342.27,-143.07 1330.57,-139.16 1319.65,-136 1266.22,-120.51 1251.81,-120.7 1197.65,-108 1192.73,-106.85 1187.62,-105.64 1182.49,-104.42"/>
<polygon fill="black" stroke="black" points="1183.34,-101.03 1172.8,-102.12 1181.72,-107.84 1183.34,-101.03"/>
</g>
<!-- unlock_stake&#45;&gt;assert_staking_contract_exists -->
<g id="edge13" class="edge">
<title>unlock_stake&#45;&gt;assert_staking_contract_exists</title>
<path fill="none" stroke="black" d="M1157.73,-74.5C1178.88,-64.62 1207.24,-51.39 1230.95,-40.33"/>
<polygon fill="black" stroke="black" points="1232.18,-43.61 1239.76,-36.21 1229.22,-37.27 1232.18,-43.61"/>
</g>
<!-- update_voter -->
<g id="node15" class="node">
<title>update_voter</title>
<ellipse fill="none" stroke="black" cx="1380.65" cy="-234" rx="56.59" ry="18"/>
<text text-anchor="middle" x="1380.65" y="-230.3" font-family="Times,serif" font-size="14.00">update_voter</text>
</g>
<!-- update_voter&#45;&gt;assert_staking_contract_exists -->
<g id="edge14" class="edge">
<title>update_voter&#45;&gt;assert_staking_contract_exists</title>
<path fill="none" stroke="black" d="M1417.65,-220.2C1435.87,-211.81 1456.13,-198.83 1466.65,-180 1490.2,-137.83 1486.98,-107.88 1454.65,-72 1436.44,-51.79 1410.9,-39.14 1384.83,-31.27"/>
<polygon fill="black" stroke="black" points="1386.08,-27.98 1375.51,-28.69 1384.21,-34.73 1386.08,-27.98"/>
</g>
<!-- staking_proxy::set_staking_contract_operator -->
<g id="node16" class="node">
<title>staking_proxy::set_staking_contract_operator</title>
<ellipse fill="none" stroke="black" cx="359.65" cy="-389" rx="116.18" ry="18"/>
<text text-anchor="middle" x="359.65" y="-385.3" font-family="Times,serif" font-size="14.00">set_staking_contract_operator</text>
</g>
<!-- staking_proxy::set_staking_contract_operator&#45;&gt;commission_percentage -->
<g id="edge16" class="edge">
<title>staking_proxy::set_staking_contract_operator&#45;&gt;commission_percentage</title>
<path fill="none" stroke="black" d="M259.77,-379.59C176.62,-366.71 63.05,-334.17 6.65,-252 -2.4,-238.81 -1.95,-229.49 6.65,-216 16.9,-199.93 33.43,-188.65 50.76,-180.77"/>
<polygon fill="black" stroke="black" points="51.73,-184.16 59.62,-177.09 49.04,-177.7 51.73,-184.16"/>
</g>
<!-- staking_proxy::set_staking_contract_operator&#45;&gt;switch_operator -->
<g id="edge23" class="edge">
<title>staking_proxy::set_staking_contract_operator&#45;&gt;switch_operator</title>
<path fill="none" stroke="black" d="M358.27,-370.72C355.19,-332.19 347.72,-238.93 343.94,-191.59"/>
<polygon fill="black" stroke="black" points="347.44,-191.54 343.16,-181.85 340.47,-192.1 347.44,-191.54"/>
</g>
<!-- vesting::withdraw_stake -->
<g id="node17" class="node">
<title>vesting::withdraw_stake</title>
<ellipse fill="none" stroke="black" cx="883.65" cy="-162" rx="66.09" ry="18"/>
<text text-anchor="middle" x="883.65" y="-158.3" font-family="Times,serif" font-size="14.00">withdraw_stake</text>
</g>
<!-- vesting::withdraw_stake&#45;&gt;distribute -->
<g id="edge17" class="edge">
<title>vesting::withdraw_stake&#45;&gt;distribute</title>
<path fill="none" stroke="black" d="M899.14,-144.05C906.96,-135.5 916.59,-124.97 925.2,-115.56"/>
<polygon fill="black" stroke="black" points="927.56,-118.17 931.72,-108.42 922.39,-113.44 927.56,-118.17"/>
</g>
<!-- vesting::reset_lockup -->
<g id="node18" class="node">
<title>vesting::reset_lockup</title>
<ellipse fill="none" stroke="black" cx="1251.65" cy="-306" rx="55.79" ry="18"/>
<text text-anchor="middle" x="1251.65" y="-302.3" font-family="Times,serif" font-size="14.00">reset_lockup</text>
</g>
<!-- vesting::reset_lockup&#45;&gt;reset_lockup -->
<g id="edge18" class="edge">
<title>vesting::reset_lockup&#45;&gt;reset_lockup</title>
<path fill="none" stroke="black" d="M1305.14,-300.51C1346.91,-294.77 1404.71,-281.71 1446.65,-252 1495.23,-217.59 1529.34,-154.78 1546.01,-118.62"/>
<polygon fill="black" stroke="black" points="1549.11,-120.25 1550,-109.7 1542.72,-117.39 1549.11,-120.25"/>
</g>
<!-- genesis::create_initialize_validator -->
<g id="node19" class="node">
<title>genesis::create_initialize_validator</title>
<ellipse fill="none" stroke="black" cx="2341.65" cy="-162" rx="102.88" ry="18"/>
<text text-anchor="middle" x="2341.65" y="-158.3" font-family="Times,serif" font-size="14.00">create_initialize_validator</text>
</g>
<!-- genesis::create_initialize_validator&#45;&gt;stake_pool_address -->
<g id="edge19" class="edge">
<title>genesis::create_initialize_validator&#45;&gt;stake_pool_address</title>
<path fill="none" stroke="black" d="M2341.65,-143.7C2341.65,-136.41 2341.65,-127.73 2341.65,-119.54"/>
<polygon fill="black" stroke="black" points="2345.15,-119.62 2341.65,-109.62 2338.15,-119.62 2345.15,-119.62"/>
</g>
<!-- vesting::update_operator -->
<g id="node20" class="node">
<title>vesting::update_operator</title>
<ellipse fill="none" stroke="black" cx="493.65" cy="-234" rx="67.69" ry="18"/>
<text text-anchor="middle" x="493.65" y="-230.3" font-family="Times,serif" font-size="14.00">update_operator</text>
</g>
<!-- vesting::update_operator&#45;&gt;switch_operator -->
<g id="edge22" class="edge">
<title>vesting::update_operator&#45;&gt;switch_operator</title>
<path fill="none" stroke="black" d="M460.67,-217.81C438.46,-207.58 408.94,-193.99 384.86,-182.9"/>
<polygon fill="black" stroke="black" points="386.49,-179.8 375.94,-178.79 383.56,-186.15 386.49,-179.8"/>
</g>
<!-- vesting::unlock_rewards -->
<g id="node21" class="node">
<title>vesting::unlock_rewards</title>
<ellipse fill="none" stroke="black" cx="1200.65" cy="-234" rx="66.89" ry="18"/>
<text text-anchor="middle" x="1200.65" y="-230.3" font-family="Times,serif" font-size="14.00">unlock_rewards</text>
</g>
<!-- vesting::unlock_rewards&#45;&gt;unlock_rewards -->
<g id="edge24" class="edge">
<title>vesting::unlock_rewards&#45;&gt;unlock_rewards</title>
<path fill="none" stroke="black" d="M1239.1,-218.83C1268.72,-207.92 1309.86,-192.76 1341.81,-180.99"/>
<polygon fill="black" stroke="black" points="1342.66,-184.41 1350.84,-177.67 1340.24,-177.84 1342.66,-184.41"/>
</g>
<!-- vesting::unlock_stake -->
<g id="node22" class="node">
<title>vesting::unlock_stake</title>
<ellipse fill="none" stroke="black" cx="1019.65" cy="-234" rx="57.39" ry="18"/>
<text text-anchor="middle" x="1019.65" y="-230.3" font-family="Times,serif" font-size="14.00">unlock_stake</text>
</g>
<!-- vesting::unlock_stake&#45;&gt;unlock_stake -->
<g id="edge26" class="edge">
<title>vesting::unlock_stake&#45;&gt;unlock_stake</title>
<path fill="none" stroke="black" d="M1032.34,-216.15C1050.85,-191.6 1085.38,-145.77 1107.13,-116.91"/>
<polygon fill="black" stroke="black" points="1109.84,-119.13 1113.06,-109.03 1104.25,-114.91 1109.84,-119.13"/>
</g>
<!-- vesting::update_voter -->
<g id="node23" class="node">
<title>vesting::update_voter</title>
<ellipse fill="none" stroke="black" cx="1121.65" cy="-306" rx="56.59" ry="18"/>
<text text-anchor="middle" x="1121.65" y="-302.3" font-family="Times,serif" font-size="14.00">update_voter</text>
</g>
<!-- vesting::update_voter&#45;&gt;update_voter -->
<g id="edge27" class="edge">
<title>vesting::update_voter&#45;&gt;update_voter</title>
<path fill="none" stroke="black" d="M1164.17,-293.75C1204.29,-283.11 1266.1,-266.63 1319.65,-252 1322.53,-251.21 1325.49,-250.4 1328.48,-249.58"/>
<polygon fill="black" stroke="black" points="1329.16,-253.02 1337.86,-246.98 1327.29,-246.27 1329.16,-253.02"/>
</g>
<!-- staking_proxy::set_staking_contract_voter -->
<g id="node24" class="node">
<title>staking_proxy::set_staking_contract_voter</title>
<ellipse fill="none" stroke="black" cx="1079.65" cy="-389" rx="105.08" ry="18"/>
<text text-anchor="middle" x="1079.65" y="-385.3" font-family="Times,serif" font-size="14.00">set_staking_contract_voter</text>
</g>
<!-- staking_proxy::set_staking_contract_voter&#45;&gt;update_voter -->
<g id="edge28" class="edge">
<title>staking_proxy::set_staking_contract_voter&#45;&gt;update_voter</title>
<path fill="none" stroke="black" d="M1180.33,-383.43C1235.6,-379.15 1297.33,-370.88 1319.65,-355 1350.3,-333.18 1366.53,-291.34 1374.35,-263.3"/>
<polygon fill="black" stroke="black" points="1377.72,-264.24 1376.82,-253.69 1370.94,-262.5 1377.72,-264.24"/>
</g>
<!-- staking_proxy::set_operator -->
<g id="node25" class="node">
<title>staking_proxy::set_operator</title>
<ellipse fill="none" stroke="black" cx="484.65" cy="-464" rx="53.89" ry="18"/>
<text text-anchor="middle" x="484.65" y="-460.3" font-family="Times,serif" font-size="14.00">set_operator</text>
</g>
<!-- staking_proxy::set_operator&#45;&gt;staking_proxy::set_staking_contract_operator -->
<g id="edge29" class="edge">
<title>staking_proxy::set_operator&#45;&gt;staking_proxy::set_staking_contract_operator</title>
<path fill="none" stroke="black" d="M458.75,-447.87C441.33,-437.7 418.06,-424.11 398.45,-412.66"/>
<polygon fill="black" stroke="black" points="400.28,-409.68 389.88,-407.66 396.75,-415.72 400.28,-409.68"/>
</g>
<!-- staking_proxy::set_vesting_contract_operator -->
<g id="node30" class="node">
<title>staking_proxy::set_vesting_contract_operator</title>
<ellipse fill="none" stroke="black" cx="610.65" cy="-389" rx="116.18" ry="18"/>
<text text-anchor="middle" x="610.65" y="-385.3" font-family="Times,serif" font-size="14.00">set_vesting_contract_operator</text>
</g>
<!-- staking_proxy::set_operator&#45;&gt;staking_proxy::set_vesting_contract_operator -->
<g id="edge42" class="edge">
<title>staking_proxy::set_operator&#45;&gt;staking_proxy::set_vesting_contract_operator</title>
<path fill="none" stroke="black" d="M510.76,-447.87C528.31,-437.7 551.77,-424.11 571.54,-412.66"/>
<polygon fill="black" stroke="black" points="573.29,-415.69 580.18,-407.65 569.78,-409.64 573.29,-415.69"/>
</g>
<!-- vesting::distribute -->
<g id="node26" class="node">
<title>vesting::distribute</title>
<ellipse fill="none" stroke="black" cx="883.65" cy="-234" rx="44.39" ry="18"/>
<text text-anchor="middle" x="883.65" y="-230.3" font-family="Times,serif" font-size="14.00">distribute</text>
</g>
<!-- vesting::distribute&#45;&gt;vesting::withdraw_stake -->
<g id="edge30" class="edge">
<title>vesting::distribute&#45;&gt;vesting::withdraw_stake</title>
<path fill="none" stroke="black" d="M883.65,-215.7C883.65,-208.41 883.65,-199.73 883.65,-191.54"/>
<polygon fill="black" stroke="black" points="887.15,-191.62 883.65,-181.62 880.15,-191.62 887.15,-191.62"/>
</g>
<!-- vesting::admin_withdraw -->
<g id="node27" class="node">
<title>vesting::admin_withdraw</title>
<ellipse fill="none" stroke="black" cx="750.65" cy="-234" rx="70.69" ry="18"/>
<text text-anchor="middle" x="750.65" y="-230.3" font-family="Times,serif" font-size="14.00">admin_withdraw</text>
</g>
<!-- vesting::admin_withdraw&#45;&gt;vesting::withdraw_stake -->
<g id="edge31" class="edge">
<title>vesting::admin_withdraw&#45;&gt;vesting::withdraw_stake</title>
<path fill="none" stroke="black" d="M780.5,-217.29C799.37,-207.36 823.96,-194.41 844.4,-183.66"/>
<polygon fill="black" stroke="black" points="845.8,-186.88 853.02,-179.12 842.54,-180.68 845.8,-186.88"/>
</g>
<!-- genesis::create_initialize_validators_with_commission -->
<g id="node28" class="node">
<title>genesis::create_initialize_validators_with_commission</title>
<ellipse fill="none" stroke="black" cx="2341.65" cy="-234" rx="173.57" ry="18"/>
<text text-anchor="middle" x="2341.65" y="-230.3" font-family="Times,serif" font-size="14.00">create_initialize_validators_with_commission</text>
</g>
<!-- genesis::create_initialize_validators_with_commission&#45;&gt;genesis::create_initialize_validator -->
<g id="edge32" class="edge">
<title>genesis::create_initialize_validators_with_commission&#45;&gt;genesis::create_initialize_validator</title>
<path fill="none" stroke="black" d="M2341.65,-215.7C2341.65,-208.41 2341.65,-199.73 2341.65,-191.54"/>
<polygon fill="black" stroke="black" points="2345.15,-191.62 2341.65,-181.62 2338.15,-191.62 2345.15,-191.62"/>
</g>
<!-- vesting::update_operator_with_same_commission -->
<g id="node29" class="node">
<title>vesting::update_operator_with_same_commission</title>
<ellipse fill="none" stroke="black" cx="584.65" cy="-306" rx="158.67" ry="18"/>
<text text-anchor="middle" x="584.65" y="-302.3" font-family="Times,serif" font-size="14.00">update_operator_with_same_commission</text>
</g>
<!-- vesting::update_operator_with_same_commission&#45;&gt;vesting::update_operator -->
<g id="edge33" class="edge">
<title>vesting::update_operator_with_same_commission&#45;&gt;vesting::update_operator</title>
<path fill="none" stroke="black" d="M562.16,-287.7C550.66,-278.86 536.51,-267.97 524.07,-258.4"/>
<polygon fill="black" stroke="black" points="526.21,-255.63 516.15,-252.31 521.94,-261.18 526.21,-255.63"/>
</g>
<!-- staking_proxy::set_vesting_contract_operator&#45;&gt;vesting::update_operator -->
<g id="edge34" class="edge">
<title>staking_proxy::set_vesting_contract_operator&#45;&gt;vesting::update_operator</title>
<path fill="none" stroke="black" d="M544.45,-373.85C525.22,-370.01 504.15,-366.08 484.65,-363 469.62,-360.63 426.76,-366.37 416.65,-355 396.86,-332.75 402.79,-314.36 416.65,-288 423.75,-274.49 436.02,-263.76 448.71,-255.58"/>
<polygon fill="black" stroke="black" points="450.3,-258.71 457.11,-250.59 446.73,-252.69 450.3,-258.71"/>
</g>
<!-- vesting::vest -->
<g id="node31" class="node">
<title>vesting::vest</title>
<ellipse fill="none" stroke="black" cx="1019.65" cy="-306" rx="27" ry="18"/>
<text text-anchor="middle" x="1019.65" y="-302.3" font-family="Times,serif" font-size="14.00">vest</text>
</g>
<!-- vesting::vest&#45;&gt;vesting::unlock_rewards -->
<g id="edge35" class="edge">
<title>vesting::vest&#45;&gt;vesting::unlock_rewards</title>
<path fill="none" stroke="black" d="M1040.83,-294.61C1045.66,-292.35 1050.8,-290.03 1055.65,-288 1086.43,-275.14 1121.56,-262.25 1149.53,-252.41"/>
<polygon fill="black" stroke="black" points="1150.55,-255.76 1158.84,-249.16 1148.24,-249.15 1150.55,-255.76"/>
</g>
<!-- vesting::vest&#45;&gt;vesting::unlock_stake -->
<g id="edge37" class="edge">
<title>vesting::vest&#45;&gt;vesting::unlock_stake</title>
<path fill="none" stroke="black" d="M1019.65,-287.7C1019.65,-280.41 1019.65,-271.73 1019.65,-263.54"/>
<polygon fill="black" stroke="black" points="1023.15,-263.62 1019.65,-253.62 1016.15,-263.62 1023.15,-263.62"/>
</g>
<!-- vesting::terminate_vesting_contract -->
<g id="node32" class="node">
<title>vesting::terminate_vesting_contract</title>
<ellipse fill="none" stroke="black" cx="867.65" cy="-306" rx="106.68" ry="18"/>
<text text-anchor="middle" x="867.65" y="-302.3" font-family="Times,serif" font-size="14.00">terminate_vesting_contract</text>
</g>
<!-- vesting::terminate_vesting_contract&#45;&gt;vesting::unlock_stake -->
<g id="edge36" class="edge">
<title>vesting::terminate_vesting_contract&#45;&gt;vesting::unlock_stake</title>
<path fill="none" stroke="black" d="M903.29,-288.59C925.66,-278.29 954.6,-264.96 978.03,-254.17"/>
<polygon fill="black" stroke="black" points="979.36,-257.41 986.98,-250.04 976.44,-251.05 979.36,-257.41"/>
</g>
<!-- vesting::terminate_vesting_contract&#45;&gt;vesting::distribute -->
<g id="edge40" class="edge">
<title>vesting::terminate_vesting_contract&#45;&gt;vesting::distribute</title>
<path fill="none" stroke="black" d="M871.61,-287.7C873.29,-280.32 875.3,-271.52 877.19,-263.25"/>
<polygon fill="black" stroke="black" points="880.59,-264.11 879.4,-253.58 873.76,-262.55 880.59,-264.11"/>
</g>
<!-- staking_proxy::set_vesting_contract_voter -->
<g id="node33" class="node">
<title>staking_proxy::set_vesting_contract_voter</title>
<ellipse fill="none" stroke="black" cx="850.65" cy="-389" rx="105.08" ry="18"/>
<text text-anchor="middle" x="850.65" y="-385.3" font-family="Times,serif" font-size="14.00">set_vesting_contract_voter</text>
</g>
<!-- staking_proxy::set_vesting_contract_voter&#45;&gt;vesting::update_voter -->
<g id="edge38" class="edge">
<title>staking_proxy::set_vesting_contract_voter&#45;&gt;vesting::update_voter</title>
<path fill="none" stroke="black" d="M909.48,-373.72C927.43,-369.77 947.27,-365.8 965.65,-363 1005.35,-356.94 1018.05,-369.1 1055.65,-355 1070.2,-349.54 1084.4,-339.95 1095.87,-330.77"/>
<polygon fill="black" stroke="black" points="1097.87,-333.66 1103.29,-324.55 1093.38,-328.3 1097.87,-333.66"/>
</g>
<!-- staking_proxy::set_voter -->
<g id="node34" class="node">
<title>staking_proxy::set_voter</title>
<ellipse fill="none" stroke="black" cx="964.65" cy="-464" rx="42.79" ry="18"/>
<text text-anchor="middle" x="964.65" y="-460.3" font-family="Times,serif" font-size="14.00">set_voter</text>
</g>
<!-- staking_proxy::set_voter&#45;&gt;staking_proxy::set_staking_contract_voter -->
<g id="edge39" class="edge">
<title>staking_proxy::set_voter&#45;&gt;staking_proxy::set_staking_contract_voter</title>
<path fill="none" stroke="black" d="M987.65,-448.4C1003.65,-438.25 1025.31,-424.5 1043.59,-412.89"/>
<polygon fill="black" stroke="black" points="1045.22,-416 1051.79,-407.68 1041.47,-410.09 1045.22,-416"/>
</g>
<!-- staking_proxy::set_voter&#45;&gt;staking_proxy::set_vesting_contract_voter -->
<g id="edge43" class="edge">
<title>staking_proxy::set_voter&#45;&gt;staking_proxy::set_vesting_contract_voter</title>
<path fill="none" stroke="black" d="M941.85,-448.4C926.07,-438.29 904.72,-424.62 886.65,-413.05"/>
<polygon fill="black" stroke="black" points="888.58,-410.14 878.28,-407.69 884.81,-416.03 888.58,-410.14"/>
</g>
<!-- genesis::create_initialize_validators -->
<g id="node35" class="node">
<title>genesis::create_initialize_validators</title>
<ellipse fill="none" stroke="black" cx="2341.65" cy="-306" rx="105.88" ry="18"/>
<text text-anchor="middle" x="2341.65" y="-302.3" font-family="Times,serif" font-size="14.00">create_initialize_validators</text>
</g>
<!-- genesis::create_initialize_validators&#45;&gt;genesis::create_initialize_validators_with_commission -->
<g id="edge41" class="edge">
<title>genesis::create_initialize_validators&#45;&gt;genesis::create_initialize_validators_with_commission</title>
<path fill="none" stroke="black" d="M2341.65,-287.7C2341.65,-280.41 2341.65,-271.73 2341.65,-263.54"/>
<polygon fill="black" stroke="black" points="2345.15,-263.62 2341.65,-253.62 2338.15,-263.62 2345.15,-263.62"/>
</g>
<!-- genesis::initialize_for_verification -->
<g id="node36" class="node">
<title>genesis::initialize_for_verification</title>
<ellipse fill="none" stroke="black" cx="2341.65" cy="-389" rx="100.98" ry="18"/>
<text text-anchor="middle" x="2341.65" y="-385.3" font-family="Times,serif" font-size="14.00">initialize_for_verification</text>
</g>
<!-- genesis::initialize_for_verification&#45;&gt;genesis::create_initialize_validators -->
<g id="edge44" class="edge">
<title>genesis::initialize_for_verification&#45;&gt;genesis::create_initialize_validators</title>
<path fill="none" stroke="black" d="M2341.65,-370.82C2341.65,-360.69 2341.65,-347.6 2341.65,-335.92"/>
<polygon fill="black" stroke="black" points="2345.15,-335.95 2341.65,-325.95 2338.15,-335.95 2345.15,-335.95"/>
</g>
</g>
</svg>
