<?xml version="1.0" encoding="UTF-8" standalone="no"?>
<!DOCTYPE svg PUBLIC "-//W3C//DTD SVG 1.1//EN"
 "http://www.w3.org/Graphics/SVG/1.1/DTD/svg11.dtd">
<!-- Generated by graphviz version 7.0.0 (20221023.0053)
 -->
<!-- Title: G Pages: 1 -->
<svg width="592pt" height="230pt"
 viewBox="0.00 0.00 592.00 230.00" xmlns="http://www.w3.org/2000/svg" xmlns:xlink="http://www.w3.org/1999/xlink">
<g id="graph0" class="graph" transform="scale(1 1) rotate(0) translate(4 226)">
<title>G</title>
<polygon fill="white" stroke="none" points="-4,4 -4,-226 588,-226 588,4 -4,4"/>
<g id="clust1" class="cluster">
<title>cluster_stake</title>
<polygon fill="none" stroke="black" points="8,-64 8,-139 348,-139 348,-64 8,-64"/>
<text text-anchor="middle" x="178" y="-123.8" font-family="Times,serif" font-size="14.00">stake</text>
</g>
<g id="clust2" class="cluster">
<title>cluster_aptos_governance</title>
<polygon fill="none" stroke="black" points="356,-64 356,-214 576,-214 576,-64 356,-64"/>
<text text-anchor="middle" x="466" y="-198.8" font-family="Times,serif" font-size="14.00">aptos_governance</text>
</g>
<!-- get_allow_validator_set_change -->
<g id="node1" class="node">
<title>get_allow_validator_set_change</title>
<ellipse fill="none" stroke="black" cx="266" cy="-18" rx="124.28" ry="18"/>
<text text-anchor="middle" x="266" y="-14.3" font-family="Times,serif" font-size="14.00">get_allow_validator_set_change</text>
</g>
<!-- stake::join_validator_set -->
<g id="node2" class="node">
<title>stake::join_validator_set</title>
<ellipse fill="none" stroke="black" cx="266" cy="-90" rx="74.19" ry="18"/>
<text text-anchor="middle" x="266" y="-86.3" font-family="Times,serif" font-size="14.00">join_validator_set</text>
</g>
<!-- stake::join_validator_set&#45;&gt;get_allow_validator_set_change -->
<g id="edge1" class="edge">
<title>stake::join_validator_set&#45;&gt;get_allow_validator_set_change</title>
<path fill="none" stroke="black" d="M266,-71.7C266,-64.41 266,-55.73 266,-47.54"/>
<polygon fill="black" stroke="black" points="269.5,-47.62 266,-37.62 262.5,-47.62 269.5,-47.62"/>
</g>
<!-- stake::leave_validator_set -->
<g id="node3" class="node">
<title>stake::leave_validator_set</title>
<ellipse fill="none" stroke="black" cx="95" cy="-90" rx="79.09" ry="18"/>
<text text-anchor="middle" x="95" y="-86.3" font-family="Times,serif" font-size="14.00">leave_validator_set</text>
</g>
<!-- stake::leave_validator_set&#45;&gt;get_allow_validator_set_change -->
<g id="edge2" class="edge">
<title>stake::leave_validator_set&#45;&gt;get_allow_validator_set_change</title>
<path fill="none" stroke="black" d="M132.1,-73.81C156.47,-63.84 188.66,-50.66 215.37,-39.73"/>
<polygon fill="black" stroke="black" points="216.35,-43.1 224.28,-36.08 213.7,-36.63 216.35,-43.1"/>
</g>
<!-- aptos_governance::get_voting_power -->
<g id="node4" class="node">
<title>aptos_governance::get_voting_power</title>
<ellipse fill="none" stroke="black" cx="439" cy="-90" rx="74.99" ry="18"/>
<text text-anchor="middle" x="439" y="-86.3" font-family="Times,serif" font-size="14.00">get_voting_power</text>
</g>
<!-- aptos_governance::get_voting_power&#45;&gt;get_allow_validator_set_change -->
<g id="edge3" class="edge">
<title>aptos_governance::get_voting_power&#45;&gt;get_allow_validator_set_change</title>
<path fill="none" stroke="black" d="M401.89,-73.98C377.17,-63.98 344.36,-50.71 317.18,-39.71"/>
<polygon fill="black" stroke="black" points="318.66,-36.53 308.08,-36.03 316.04,-43.02 318.66,-36.53"/>
</g>
<!-- aptos_governance::create_proposal -->
<g id="node5" class="node">
<title>aptos_governance::create_proposal</title>
<ellipse fill="none" stroke="black" cx="502" cy="-165" rx="66.09" ry="18"/>
<text text-anchor="middle" x="502" y="-161.3" font-family="Times,serif" font-size="14.00">create_proposal</text>
</g>
<!-- aptos_governance::create_proposal&#45;&gt;aptos_governance::get_voting_power -->
<g id="edge4" class="edge">
<title>aptos_governance::create_proposal&#45;&gt;aptos_governance::get_voting_power</title>
<path fill="none" stroke="black" d="M487.39,-147.07C479.57,-138.01 469.79,-126.67 461.07,-116.57"/>
<polygon fill="black" stroke="black" points="463.92,-114.52 454.74,-109.24 458.62,-119.1 463.92,-114.52"/>
</g>
<!-- aptos_governance::vote -->
<g id="node6" class="node">
<title>aptos_governance::vote</title>
<ellipse fill="none" stroke="black" cx="391" cy="-165" rx="27" ry="18"/>
<text text-anchor="middle" x="391" y="-161.3" font-family="Times,serif" font-size="14.00">vote</text>
</g>
<!-- aptos_governance::vote&#45;&gt;aptos_governance::get_voting_power -->
<g id="edge5" class="edge">
<title>aptos_governance::vote&#45;&gt;aptos_governance::get_voting_power</title>
<path fill="none" stroke="black" d="M401.42,-148.16C407.31,-139.2 414.83,-127.76 421.59,-117.47"/>
<polygon fill="black" stroke="black" points="424.37,-119.63 426.94,-109.35 418.52,-115.78 424.37,-119.63"/>
</g>
</g>
</svg>
