<?xml version="1.0" encoding="UTF-8" standalone="no"?>
<!DOCTYPE svg PUBLIC "-//W3C//DTD SVG 1.1//EN"
 "http://www.w3.org/Graphics/SVG/1.1/DTD/svg11.dtd">
<!-- Generated by graphviz version 7.0.0 (20221023.0053)
 -->
<!-- Title: G Pages: 1 -->
<svg width="2056pt" height="986pt"
 viewBox="0.00 0.00 2056.00 986.00" xmlns="http://www.w3.org/2000/svg" xmlns:xlink="http://www.w3.org/1999/xlink">
<g id="graph0" class="graph" transform="scale(1 1) rotate(0) translate(4 982)">
<title>G</title>
<polygon fill="white" stroke="none" points="-4,4 -4,-982 2052,-982 2052,4 -4,4"/>
<g id="clust1" class="cluster">
<title>cluster_stake</title>
<polygon fill="none" stroke="black" points="923,-64 923,-355 1594,-355 1594,-64 923,-64"/>
<text text-anchor="middle" x="1258.5" y="-339.8" font-family="Times,serif" font-size="14.00">stake</text>
</g>
<g id="clust2" class="cluster">
<title>cluster_aptos_governance</title>
<polygon fill="none" stroke="black" points="8,-363 8,-521 349,-521 349,-363 8,-363"/>
<text text-anchor="middle" x="178.5" y="-505.8" font-family="Times,serif" font-size="14.00">aptos_governance</text>
</g>
<g id="clust3" class="cluster">
<title>cluster_staking_contract</title>
<polygon fill="none" stroke="black" points="1304,-363 1304,-596 1748,-596 1748,-363 1304,-363"/>
<text text-anchor="middle" x="1526" y="-580.8" font-family="Times,serif" font-size="14.00">staking_contract</text>
</g>
<g id="clust4" class="cluster">
<title>cluster_genesis</title>
<polygon fill="none" stroke="black" points="1580,-604 1580,-970 2040,-970 2040,-604 1580,-604"/>
<text text-anchor="middle" x="1810" y="-954.8" font-family="Times,serif" font-size="14.00">genesis</text>
</g>
<g id="clust5" class="cluster">
<title>cluster_reconfiguration</title>
<polygon fill="none" stroke="black" points="702,-363 702,-438 820,-438 820,-363 702,-363"/>
<text text-anchor="middle" x="761" y="-422.8" font-family="Times,serif" font-size="14.00">reconfiguration</text>
</g>
<g id="clust6" class="cluster">
<title>cluster_vesting</title>
<polygon fill="none" stroke="black" points="1238,-604 1238,-679 1572,-679 1572,-604 1238,-604"/>
<text text-anchor="middle" x="1405" y="-663.8" font-family="Times,serif" font-size="14.00">vesting</text>
</g>
<g id="clust7" class="cluster">
<title>cluster_block</title>
<polygon fill="none" stroke="black" points="974,-446 974,-521 1122,-521 1122,-446 974,-446"/>
<text text-anchor="middle" x="1048" y="-505.8" font-family="Times,serif" font-size="14.00">block</text>
</g>
<g id="clust8" class="cluster">
<title>cluster_consensus_config</title>
<polygon fill="none" stroke="black" points="357,-446 357,-521 470,-521 470,-446 357,-446"/>
<text text-anchor="middle" x="413.5" y="-505.8" font-family="Times,serif" font-size="14.00">consensus_config</text>
</g>
<g id="clust9" class="cluster">
<title>cluster_gas_schedule</title>
<polygon fill="none" stroke="black" points="478,-446 478,-521 840,-521 840,-446 478,-446"/>
<text text-anchor="middle" x="659" y="-505.8" font-family="Times,serif" font-size="14.00">gas_schedule</text>
</g>
<g id="clust10" class="cluster">
<title>cluster_version</title>
<polygon fill="none" stroke="black" points="848,-446 848,-521 966,-521 966,-446 848,-446"/>
<text text-anchor="middle" x="907" y="-505.8" font-family="Times,serif" font-size="14.00">version</text>
</g>
<!-- get -->
<g id="node1" class="node">
<title>get</title>
<ellipse fill="none" stroke="black" cx="1097" cy="-18" rx="27" ry="18"/>
<text text-anchor="middle" x="1097" y="-14.3" font-family="Times,serif" font-size="14.00">get</text>
</g>
<!-- stake::add_stake_with_cap -->
<g id="node2" class="node">
<title>stake::add_stake_with_cap</title>
<ellipse fill="none" stroke="black" cx="1503" cy="-162" rx="82.59" ry="18"/>
<text text-anchor="middle" x="1503" y="-158.3" font-family="Times,serif" font-size="14.00">add_stake_with_cap</text>
</g>
<!-- stake::add_stake_with_cap&#45;&gt;get -->
<g id="edge1" class="edge">
<title>stake::add_stake_with_cap&#45;&gt;get</title>
<path fill="none" stroke="black" d="M1498.77,-143.7C1492.32,-121.31 1477.74,-82.93 1450,-64 1399.47,-29.53 1215.92,-21.46 1135.35,-19.57"/>
<polygon fill="black" stroke="black" points="1135.83,-16.08 1125.76,-19.37 1135.68,-23.08 1135.83,-16.08"/>
</g>
<!-- stake::update_voting_power_increase -->
<g id="node8" class="node">
<title>stake::update_voting_power_increase</title>
<ellipse fill="none" stroke="black" cx="1321" cy="-90" rx="120.48" ry="18"/>
<text text-anchor="middle" x="1321" y="-86.3" font-family="Times,serif" font-size="14.00">update_voting_power_increase</text>
</g>
<!-- stake::add_stake_with_cap&#45;&gt;stake::update_voting_power_increase -->
<g id="edge19" class="edge">
<title>stake::add_stake_with_cap&#45;&gt;stake::update_voting_power_increase</title>
<path fill="none" stroke="black" d="M1463.51,-145.81C1437.27,-135.72 1402.52,-122.35 1373.9,-111.35"/>
<polygon fill="black" stroke="black" points="1375.27,-108.12 1364.68,-107.8 1372.76,-114.66 1375.27,-108.12"/>
</g>
<!-- stake::increase_lockup_with_cap -->
<g id="node3" class="node">
<title>stake::increase_lockup_with_cap</title>
<ellipse fill="none" stroke="black" cx="1181" cy="-234" rx="104.78" ry="18"/>
<text text-anchor="middle" x="1181" y="-230.3" font-family="Times,serif" font-size="14.00">increase_lockup_with_cap</text>
</g>
<!-- stake::increase_lockup_with_cap&#45;&gt;get -->
<g id="edge2" class="edge">
<title>stake::increase_lockup_with_cap&#45;&gt;get</title>
<path fill="none" stroke="black" d="M1154.62,-216.2C1142.41,-207.01 1128.89,-194.53 1121,-180 1098.17,-137.98 1095.04,-81.16 1095.53,-47.47"/>
<polygon fill="black" stroke="black" points="1099.03,-47.79 1095.81,-37.69 1092.03,-47.59 1099.03,-47.79"/>
</g>
<!-- stake::join_validator_set -->
<g id="node4" class="node">
<title>stake::join_validator_set</title>
<ellipse fill="none" stroke="black" cx="1378" cy="-234" rx="74.19" ry="18"/>
<text text-anchor="middle" x="1378" y="-230.3" font-family="Times,serif" font-size="14.00">join_validator_set</text>
</g>
<!-- stake::join_validator_set&#45;&gt;get -->
<g id="edge3" class="edge">
<title>stake::join_validator_set&#45;&gt;get</title>
<path fill="none" stroke="black" d="M1325.4,-220.97C1271.58,-208.31 1194.28,-188.99 1183,-180 1160.29,-161.9 1126.02,-87.2 1108.38,-46.22"/>
<polygon fill="black" stroke="black" points="1111.6,-44.85 1104.46,-37.02 1105.16,-47.59 1111.6,-44.85"/>
</g>
<!-- stake::join_validator_set_internal -->
<g id="node5" class="node">
<title>stake::join_validator_set_internal</title>
<ellipse fill="none" stroke="black" cx="1297" cy="-162" rx="105.08" ry="18"/>
<text text-anchor="middle" x="1297" y="-158.3" font-family="Times,serif" font-size="14.00">join_validator_set_internal</text>
</g>
<!-- stake::join_validator_set&#45;&gt;stake::join_validator_set_internal -->
<g id="edge15" class="edge">
<title>stake::join_validator_set&#45;&gt;stake::join_validator_set_internal</title>
<path fill="none" stroke="black" d="M1358.8,-216.41C1348.76,-207.73 1336.28,-196.95 1325.17,-187.34"/>
<polygon fill="black" stroke="black" points="1327.62,-184.84 1317.77,-180.95 1323.04,-190.13 1327.62,-184.84"/>
</g>
<!-- stake::join_validator_set_internal&#45;&gt;get -->
<g id="edge4" class="edge">
<title>stake::join_validator_set_internal&#45;&gt;get</title>
<path fill="none" stroke="black" d="M1257.58,-144.85C1237.09,-135.55 1212.18,-122.78 1192,-108 1169.94,-91.84 1168.91,-82.74 1149,-64 1140.35,-55.86 1130.58,-47.26 1121.85,-39.77"/>
<polygon fill="black" stroke="black" points="1124.28,-37.24 1114.39,-33.43 1119.74,-42.57 1124.28,-37.24"/>
</g>
<!-- stake::join_validator_set_internal&#45;&gt;stake::update_voting_power_increase -->
<g id="edge20" class="edge">
<title>stake::join_validator_set_internal&#45;&gt;stake::update_voting_power_increase</title>
<path fill="none" stroke="black" d="M1302.93,-143.7C1305.49,-136.24 1308.55,-127.32 1311.41,-118.97"/>
<polygon fill="black" stroke="black" points="1314.71,-120.13 1314.64,-109.54 1308.09,-117.86 1314.71,-120.13"/>
</g>
<!-- stake::leave_validator_set -->
<g id="node6" class="node">
<title>stake::leave_validator_set</title>
<ellipse fill="none" stroke="black" cx="1010" cy="-306" rx="79.09" ry="18"/>
<text text-anchor="middle" x="1010" y="-302.3" font-family="Times,serif" font-size="14.00">leave_validator_set</text>
</g>
<!-- stake::leave_validator_set&#45;&gt;get -->
<g id="edge5" class="edge">
<title>stake::leave_validator_set&#45;&gt;get</title>
<path fill="none" stroke="black" d="M1010.14,-287.63C1011.12,-246.52 1017.51,-140.95 1056,-64 1060.19,-55.63 1066.39,-47.66 1072.71,-40.82"/>
<polygon fill="black" stroke="black" points="1075.02,-43.46 1079.56,-33.89 1070.04,-38.54 1075.02,-43.46"/>
</g>
<!-- stake::on_new_epoch -->
<g id="node7" class="node">
<title>stake::on_new_epoch</title>
<ellipse fill="none" stroke="black" cx="1171" cy="-306" rx="63.89" ry="18"/>
<text text-anchor="middle" x="1171" y="-302.3" font-family="Times,serif" font-size="14.00">on_new_epoch</text>
</g>
<!-- stake::on_new_epoch&#45;&gt;get -->
<g id="edge6" class="edge">
<title>stake::on_new_epoch&#45;&gt;get</title>
<path fill="none" stroke="black" d="M1124.35,-293.38C1102.96,-285.46 1079.6,-272.56 1067,-252 1026.94,-186.62 1061.9,-91.61 1083.29,-45.75"/>
<polygon fill="black" stroke="black" points="1086.41,-47.34 1087.6,-36.81 1080.11,-44.3 1086.41,-47.34"/>
</g>
<!-- stake::update_voting_power_increase&#45;&gt;get -->
<g id="edge7" class="edge">
<title>stake::update_voting_power_increase&#45;&gt;get</title>
<path fill="none" stroke="black" d="M1270.45,-73.2C1228.24,-60.01 1169.15,-41.55 1131.99,-29.93"/>
<polygon fill="black" stroke="black" points="1133.24,-26.66 1122.65,-27.02 1131.15,-33.34 1133.24,-26.66"/>
</g>
<!-- aptos_governance::get_voting_power -->
<g id="node9" class="node">
<title>aptos_governance::get_voting_power</title>
<ellipse fill="none" stroke="black" cx="154" cy="-389" rx="74.99" ry="18"/>
<text text-anchor="middle" x="154" y="-385.3" font-family="Times,serif" font-size="14.00">get_voting_power</text>
</g>
<!-- aptos_governance::get_voting_power&#45;&gt;get -->
<g id="edge8" class="edge">
<title>aptos_governance::get_voting_power&#45;&gt;get</title>
<path fill="none" stroke="black" d="M229.06,-387.59C333.51,-382.61 510,-356.26 510,-235 510,-235 510,-235 510,-161 510,-47.76 927.92,-24.52 1058.5,-20.02"/>
<polygon fill="black" stroke="black" points="1058.47,-23.53 1068.35,-19.7 1058.24,-16.53 1058.47,-23.53"/>
</g>
<!-- staking_contract::create_staking_contract_with_coins -->
<g id="node10" class="node">
<title>staking_contract::create_staking_contract_with_coins</title>
<ellipse fill="none" stroke="black" cx="1449" cy="-472" rx="137.28" ry="18"/>
<text text-anchor="middle" x="1449" y="-468.3" font-family="Times,serif" font-size="14.00">create_staking_contract_with_coins</text>
</g>
<!-- staking_contract::create_staking_contract_with_coins&#45;&gt;get -->
<g id="edge9" class="edge">
<title>staking_contract::create_staking_contract_with_coins&#45;&gt;get</title>
<path fill="none" stroke="black" d="M1336.59,-461.36C1198.11,-447.03 974.33,-415.12 919,-355 882.56,-315.41 903,-288.81 903,-235 903,-235 903,-235 903,-161 903,-117.31 889.43,-96.17 919,-64 937.69,-43.66 1012.66,-30.24 1059.14,-23.69"/>
<polygon fill="black" stroke="black" points="1059.35,-27.19 1068.79,-22.37 1058.41,-20.25 1059.35,-27.19"/>
</g>
<!-- staking_contract::create_staking_contract_with_coins&#45;&gt;stake::add_stake_with_cap -->
<g id="edge12" class="edge">
<title>staking_contract::create_staking_contract_with_coins&#45;&gt;stake::add_stake_with_cap</title>
<path fill="none" stroke="black" d="M1523.22,-456.54C1534.72,-451.96 1545.81,-445.93 1555,-438 1586.01,-411.25 1585.88,-394.92 1595,-355 1608.96,-293.88 1607.18,-267.2 1571,-216 1562.83,-204.45 1551.43,-194.2 1540.28,-185.87"/>
<polygon fill="black" stroke="black" points="1542.48,-183.13 1532.3,-180.21 1538.44,-188.85 1542.48,-183.13"/>
</g>
<!-- staking_contract::create_stake_pool -->
<g id="node33" class="node">
<title>staking_contract::create_stake_pool</title>
<ellipse fill="none" stroke="black" cx="1472" cy="-389" rx="74.19" ry="18"/>
<text text-anchor="middle" x="1472" y="-385.3" font-family="Times,serif" font-size="14.00">create_stake_pool</text>
</g>
<!-- staking_contract::create_staking_contract_with_coins&#45;&gt;staking_contract::create_stake_pool -->
<g id="edge42" class="edge">
<title>staking_contract::create_staking_contract_with_coins&#45;&gt;staking_contract::create_stake_pool</title>
<path fill="none" stroke="black" d="M1453.88,-453.82C1456.82,-443.48 1460.63,-430.05 1464,-418.18"/>
<polygon fill="black" stroke="black" points="1467.27,-419.46 1466.64,-408.89 1460.54,-417.55 1467.27,-419.46"/>
</g>
<!-- stake::add_stake -->
<g id="node11" class="node">
<title>stake::add_stake</title>
<ellipse fill="none" stroke="black" cx="1516" cy="-234" rx="46.29" ry="18"/>
<text text-anchor="middle" x="1516" y="-230.3" font-family="Times,serif" font-size="14.00">add_stake</text>
</g>
<!-- stake::add_stake&#45;&gt;stake::add_stake_with_cap -->
<g id="edge10" class="edge">
<title>stake::add_stake&#45;&gt;stake::add_stake_with_cap</title>
<path fill="none" stroke="black" d="M1512.79,-215.7C1511.42,-208.32 1509.78,-199.52 1508.25,-191.25"/>
<polygon fill="black" stroke="black" points="1511.72,-190.79 1506.45,-181.59 1504.84,-192.06 1511.72,-190.79"/>
</g>
<!-- staking_contract::add_stake -->
<g id="node12" class="node">
<title>staking_contract::add_stake</title>
<ellipse fill="none" stroke="black" cx="1694" cy="-547" rx="46.29" ry="18"/>
<text text-anchor="middle" x="1694" y="-543.3" font-family="Times,serif" font-size="14.00">add_stake</text>
</g>
<!-- staking_contract::add_stake&#45;&gt;stake::add_stake_with_cap -->
<g id="edge11" class="edge">
<title>staking_contract::add_stake&#45;&gt;stake::add_stake_with_cap</title>
<path fill="none" stroke="black" d="M1707.27,-529.42C1747.46,-477.1 1860.36,-313.19 1780,-216 1756.57,-187.66 1665.26,-174.33 1593.8,-168.15"/>
<polygon fill="black" stroke="black" points="1594.28,-164.68 1584.03,-167.35 1593.71,-171.66 1594.28,-164.68"/>
</g>
<!-- stake::increase_lockup -->
<g id="node13" class="node">
<title>stake::increase_lockup</title>
<ellipse fill="none" stroke="black" cx="1320" cy="-306" rx="67.69" ry="18"/>
<text text-anchor="middle" x="1320" y="-302.3" font-family="Times,serif" font-size="14.00">increase_lockup</text>
</g>
<!-- stake::increase_lockup&#45;&gt;stake::increase_lockup_with_cap -->
<g id="edge13" class="edge">
<title>stake::increase_lockup&#45;&gt;stake::increase_lockup_with_cap</title>
<path fill="none" stroke="black" d="M1289.5,-289.64C1270.27,-279.95 1245.15,-267.3 1223.92,-256.62"/>
<polygon fill="black" stroke="black" points="1225.72,-253.6 1215.21,-252.23 1222.57,-259.85 1225.72,-253.6"/>
</g>
<!-- staking_contract::reset_lockup -->
<g id="node14" class="node">
<title>staking_contract::reset_lockup</title>
<ellipse fill="none" stroke="black" cx="1574" cy="-547" rx="55.79" ry="18"/>
<text text-anchor="middle" x="1574" y="-543.3" font-family="Times,serif" font-size="14.00">reset_lockup</text>
</g>
<!-- staking_contract::reset_lockup&#45;&gt;stake::increase_lockup_with_cap -->
<g id="edge14" class="edge">
<title>staking_contract::reset_lockup&#45;&gt;stake::increase_lockup_with_cap</title>
<path fill="none" stroke="black" d="M1590.44,-529.53C1592.3,-526.86 1593.91,-523.98 1595,-521 1630.44,-423.7 1663.72,-365.46 1595,-288 1550.44,-237.77 1361.55,-260.95 1295,-252 1286.42,-250.85 1277.49,-249.6 1268.57,-248.32"/>
<polygon fill="black" stroke="black" points="1269.2,-244.87 1258.8,-246.9 1268.2,-251.8 1269.2,-244.87"/>
</g>
<!-- genesis::initialize_validator -->
<g id="node15" class="node">
<title>genesis::initialize_validator</title>
<ellipse fill="none" stroke="black" cx="1768" cy="-630" rx="77.19" ry="18"/>
<text text-anchor="middle" x="1768" y="-626.3" font-family="Times,serif" font-size="14.00">initialize_validator</text>
</g>
<!-- genesis::initialize_validator&#45;&gt;stake::join_validator_set_internal -->
<g id="edge16" class="edge">
<title>genesis::initialize_validator&#45;&gt;stake::join_validator_set_internal</title>
<path fill="none" stroke="black" d="M1771.51,-611.58C1779.52,-567.19 1795.32,-447.37 1752,-363 1704.66,-270.81 1664.91,-259.82 1571,-216 1553.83,-207.99 1455.29,-189.97 1381.26,-177.17"/>
<polygon fill="black" stroke="black" points="1382.01,-173.75 1371.56,-175.5 1380.82,-180.65 1382.01,-173.75"/>
</g>
<!-- reconfiguration::reconfigure -->
<g id="node16" class="node">
<title>reconfiguration::reconfigure</title>
<ellipse fill="none" stroke="black" cx="761" cy="-389" rx="51.19" ry="18"/>
<text text-anchor="middle" x="761" y="-385.3" font-family="Times,serif" font-size="14.00">reconfigure</text>
</g>
<!-- reconfiguration::reconfigure&#45;&gt;stake::on_new_epoch -->
<g id="edge17" class="edge">
<title>reconfiguration::reconfigure&#45;&gt;stake::on_new_epoch</title>
<path fill="none" stroke="black" d="M811.9,-386C892.74,-382.33 1046.59,-373.16 1098,-355 1113.84,-349.4 1129.64,-339.66 1142.47,-330.41"/>
<polygon fill="black" stroke="black" points="1144.55,-333.23 1150.44,-324.42 1140.34,-327.63 1144.55,-333.23"/>
</g>
<!-- genesis::create_initialize_validators_with_commission -->
<g id="node17" class="node">
<title>genesis::create_initialize_validators_with_commission</title>
<ellipse fill="none" stroke="black" cx="1762" cy="-777" rx="173.57" ry="18"/>
<text text-anchor="middle" x="1762" y="-773.3" font-family="Times,serif" font-size="14.00">create_initialize_validators_with_commission</text>
</g>
<!-- genesis::create_initialize_validators_with_commission&#45;&gt;stake::on_new_epoch -->
<g id="edge18" class="edge">
<title>genesis::create_initialize_validators_with_commission&#45;&gt;stake::on_new_epoch</title>
<path fill="none" stroke="black" d="M1601.53,-769.87C1417.82,-758.36 1142,-725.38 1142,-631 1142,-631 1142,-631 1142,-471 1142,-422.59 1154.41,-367.35 1162.99,-334.92"/>
<polygon fill="black" stroke="black" points="1166.3,-336.09 1165.55,-325.52 1159.54,-334.25 1166.3,-336.09"/>
</g>
<!-- genesis::create_initialize_validator -->
<g id="node25" class="node">
<title>genesis::create_initialize_validator</title>
<ellipse fill="none" stroke="black" cx="1691" cy="-705" rx="102.88" ry="18"/>
<text text-anchor="middle" x="1691" y="-701.3" font-family="Times,serif" font-size="14.00">create_initialize_validator</text>
</g>
<!-- genesis::create_initialize_validators_with_commission&#45;&gt;genesis::create_initialize_validator -->
<g id="edge40" class="edge">
<title>genesis::create_initialize_validators_with_commission&#45;&gt;genesis::create_initialize_validator</title>
<path fill="none" stroke="black" d="M1744.45,-758.7C1736.02,-750.39 1725.77,-740.28 1716.5,-731.14"/>
<polygon fill="black" stroke="black" points="1719,-728.7 1709.43,-724.17 1714.09,-733.68 1719,-728.7"/>
</g>
<!-- aptos_governance::create_proposal -->
<g id="node18" class="node">
<title>aptos_governance::create_proposal</title>
<ellipse fill="none" stroke="black" cx="154" cy="-472" rx="66.09" ry="18"/>
<text text-anchor="middle" x="154" y="-468.3" font-family="Times,serif" font-size="14.00">create_proposal</text>
</g>
<!-- aptos_governance::create_proposal&#45;&gt;aptos_governance::get_voting_power -->
<g id="edge21" class="edge">
<title>aptos_governance::create_proposal&#45;&gt;aptos_governance::get_voting_power</title>
<path fill="none" stroke="black" d="M154,-453.82C154,-443.69 154,-430.6 154,-418.92"/>
<polygon fill="black" stroke="black" points="157.5,-418.95 154,-408.95 150.5,-418.95 157.5,-418.95"/>
</g>
<!-- aptos_governance::vote -->
<g id="node19" class="node">
<title>aptos_governance::vote</title>
<ellipse fill="none" stroke="black" cx="43" cy="-472" rx="27" ry="18"/>
<text text-anchor="middle" x="43" y="-468.3" font-family="Times,serif" font-size="14.00">vote</text>
</g>
<!-- aptos_governance::vote&#45;&gt;aptos_governance::get_voting_power -->
<g id="edge22" class="edge">
<title>aptos_governance::vote&#45;&gt;aptos_governance::get_voting_power</title>
<path fill="none" stroke="black" d="M60.83,-457.99C77.34,-445.94 102.26,-427.75 122.18,-413.22"/>
<polygon fill="black" stroke="black" points="123.97,-416.24 129.99,-407.52 119.85,-410.59 123.97,-416.24"/>
</g>
<!-- staking_contract::create_staking_contract -->
<g id="node20" class="node">
<title>staking_contract::create_staking_contract</title>
<ellipse fill="none" stroke="black" cx="1406" cy="-547" rx="94.48" ry="18"/>
<text text-anchor="middle" x="1406" y="-543.3" font-family="Times,serif" font-size="14.00">create_staking_contract</text>
</g>
<!-- staking_contract::create_staking_contract&#45;&gt;staking_contract::create_staking_contract_with_coins -->
<g id="edge23" class="edge">
<title>staking_contract::create_staking_contract&#45;&gt;staking_contract::create_staking_contract_with_coins</title>
<path fill="none" stroke="black" d="M1416.19,-528.7C1421.19,-520.22 1427.32,-509.8 1432.93,-500.28"/>
<polygon fill="black" stroke="black" points="1435.91,-502.13 1437.97,-491.73 1429.87,-498.57 1435.91,-502.13"/>
</g>
<!-- vesting::create_vesting_contract -->
<g id="node21" class="node">
<title>vesting::create_vesting_contract</title>
<ellipse fill="none" stroke="black" cx="1340" cy="-630" rx="94.48" ry="18"/>
<text text-anchor="middle" x="1340" y="-626.3" font-family="Times,serif" font-size="14.00">create_vesting_contract</text>
</g>
<!-- vesting::create_vesting_contract&#45;&gt;staking_contract::create_staking_contract_with_coins -->
<g id="edge24" class="edge">
<title>vesting::create_vesting_contract&#45;&gt;staking_contract::create_staking_contract_with_coins</title>
<path fill="none" stroke="black" d="M1315.19,-612.21C1310.25,-607.58 1305.75,-602.13 1303,-596 1290.82,-568.83 1286.13,-553.54 1303,-529 1315.31,-511.09 1334.2,-498.91 1354.34,-490.62"/>
<polygon fill="black" stroke="black" points="1355.42,-493.96 1363.55,-487.16 1352.96,-487.4 1355.42,-493.96"/>
</g>
<!-- stake::initialize_stake_owner -->
<g id="node22" class="node">
<title>stake::initialize_stake_owner</title>
<ellipse fill="none" stroke="black" cx="1496" cy="-306" rx="90.18" ry="18"/>
<text text-anchor="middle" x="1496" y="-302.3" font-family="Times,serif" font-size="14.00">initialize_stake_owner</text>
</g>
<!-- stake::initialize_stake_owner&#45;&gt;stake::add_stake -->
<g id="edge25" class="edge">
<title>stake::initialize_stake_owner&#45;&gt;stake::add_stake</title>
<path fill="none" stroke="black" d="M1500.94,-287.7C1503.08,-280.24 1505.62,-271.32 1508.01,-262.97"/>
<polygon fill="black" stroke="black" points="1511.32,-264.14 1510.7,-253.56 1504.58,-262.21 1511.32,-264.14"/>
</g>
<!-- vesting::reset_lockup -->
<g id="node23" class="node">
<title>vesting::reset_lockup</title>
<ellipse fill="none" stroke="black" cx="1508" cy="-630" rx="55.79" ry="18"/>
<text text-anchor="middle" x="1508" y="-626.3" font-family="Times,serif" font-size="14.00">reset_lockup</text>
</g>
<!-- vesting::reset_lockup&#45;&gt;staking_contract::reset_lockup -->
<g id="edge26" class="edge">
<title>vesting::reset_lockup&#45;&gt;staking_contract::reset_lockup</title>
<path fill="none" stroke="black" d="M1521.68,-612.22C1530.79,-601.03 1542.94,-586.12 1553.24,-573.48"/>
<polygon fill="black" stroke="black" points="1555.78,-575.9 1559.39,-565.94 1550.36,-571.48 1555.78,-575.9"/>
</g>
<!-- genesis::create_employee_validators -->
<g id="node24" class="node">
<title>genesis::create_employee_validators</title>
<ellipse fill="none" stroke="black" cx="1922" cy="-705" rx="109.68" ry="18"/>
<text text-anchor="middle" x="1922" y="-701.3" font-family="Times,serif" font-size="14.00">create_employee_validators</text>
</g>
<!-- genesis::create_employee_validators&#45;&gt;genesis::initialize_validator -->
<g id="edge27" class="edge">
<title>genesis::create_employee_validators&#45;&gt;genesis::initialize_validator</title>
<path fill="none" stroke="black" d="M1887.44,-687.62C1864.96,-676.96 1835.46,-662.98 1811.41,-651.58"/>
<polygon fill="black" stroke="black" points="1813.03,-648.47 1802.49,-647.35 1810.03,-654.8 1813.03,-648.47"/>
</g>
<!-- genesis::create_employee_validators&#45;&gt;vesting::create_vesting_contract -->
<g id="edge37" class="edge">
<title>genesis::create_employee_validators&#45;&gt;vesting::create_vesting_contract</title>
<path fill="none" stroke="black" d="M1845.65,-691.72C1831.51,-689.83 1816.83,-688.14 1803,-687 1763.12,-683.72 1481.96,-688.09 1443,-679 1420.14,-673.67 1396.29,-662.93 1377.29,-652.95"/>
<polygon fill="black" stroke="black" points="1379.07,-649.94 1368.61,-648.25 1375.74,-656.09 1379.07,-649.94"/>
</g>
<!-- genesis::create_initialize_validator&#45;&gt;genesis::initialize_validator -->
<g id="edge28" class="edge">
<title>genesis::create_initialize_validator&#45;&gt;genesis::initialize_validator</title>
<path fill="none" stroke="black" d="M1708.86,-687.07C1718.67,-677.76 1731.03,-666.05 1741.91,-655.74"/>
<polygon fill="black" stroke="black" points="1744.29,-658.3 1749.14,-648.88 1739.47,-653.22 1744.29,-658.3"/>
</g>
<!-- genesis::create_initialize_validator&#45;&gt;staking_contract::create_staking_contract -->
<g id="edge36" class="edge">
<title>genesis::create_initialize_validator&#45;&gt;staking_contract::create_staking_contract</title>
<path fill="none" stroke="black" d="M1677.14,-686.73C1657.4,-663.52 1618.81,-622.98 1576,-604 1548.58,-591.85 1537.84,-604.21 1509,-596 1486.91,-589.71 1463.6,-579.21 1444.76,-569.63"/>
<polygon fill="black" stroke="black" points="1446.62,-566.65 1436.13,-565.14 1443.38,-572.86 1446.62,-566.65"/>
</g>
<!-- genesis::create_initialize_validator&#45;&gt;stake::initialize_stake_owner -->
<g id="edge39" class="edge">
<title>genesis::create_initialize_validator&#45;&gt;stake::initialize_stake_owner</title>
<path fill="none" stroke="black" d="M1589.3,-701.71C1458.58,-698.3 1246.79,-690.96 1234,-679 1191.16,-638.93 1218,-606.65 1218,-548 1218,-548 1218,-548 1218,-471 1218,-410.73 1247.16,-391.99 1300,-363 1318.96,-352.6 1376.14,-360.7 1397,-355 1418.41,-349.15 1440.78,-338.72 1458.83,-329.07"/>
<polygon fill="black" stroke="black" points="1460.51,-332.14 1467.59,-324.26 1457.14,-326.01 1460.51,-332.14"/>
</g>
<!-- aptos_governance::reconfigure -->
<g id="node26" class="node">
<title>aptos_governance::reconfigure</title>
<ellipse fill="none" stroke="black" cx="290" cy="-472" rx="51.19" ry="18"/>
<text text-anchor="middle" x="290" y="-468.3" font-family="Times,serif" font-size="14.00">reconfigure</text>
</g>
<!-- aptos_governance::reconfigure&#45;&gt;reconfiguration::reconfigure -->
<g id="edge29" class="edge">
<title>aptos_governance::reconfigure&#45;&gt;reconfiguration::reconfigure</title>
<path fill="none" stroke="black" d="M320.58,-457.15C330.73,-453.02 342.19,-448.84 353,-446 473.28,-414.38 618.47,-399.87 699.19,-393.83"/>
<polygon fill="black" stroke="black" points="699.39,-397.32 709.11,-393.1 698.89,-390.34 699.39,-397.32"/>
</g>
<!-- block::block_prologue -->
<g id="node27" class="node">
<title>block::block_prologue</title>
<ellipse fill="none" stroke="black" cx="1048" cy="-472" rx="65.79" ry="18"/>
<text text-anchor="middle" x="1048" y="-468.3" font-family="Times,serif" font-size="14.00">block_prologue</text>
</g>
<!-- block::block_prologue&#45;&gt;reconfiguration::reconfigure -->
<g id="edge30" class="edge">
<title>block::block_prologue&#45;&gt;reconfiguration::reconfigure</title>
<path fill="none" stroke="black" d="M1007.23,-457.52C995.27,-453.68 982.14,-449.57 970,-446 916.57,-430.29 854.93,-413.99 812.51,-403.06"/>
<polygon fill="black" stroke="black" points="813.64,-399.74 803.09,-400.64 811.9,-406.52 813.64,-399.74"/>
</g>
<!-- consensus_config::set -->
<g id="node28" class="node">
<title>consensus_config::set</title>
<ellipse fill="none" stroke="black" cx="435" cy="-472" rx="27" ry="18"/>
<text text-anchor="middle" x="435" y="-468.3" font-family="Times,serif" font-size="14.00">set</text>
</g>
<!-- consensus_config::set&#45;&gt;reconfiguration::reconfigure -->
<g id="edge31" class="edge">
<title>consensus_config::set&#45;&gt;reconfiguration::reconfigure</title>
<path fill="none" stroke="black" d="M452.48,-457.8C458.95,-453.46 466.54,-448.99 474,-446 548.54,-416.11 640.56,-401.77 699.98,-395.19"/>
<polygon fill="black" stroke="black" points="700.34,-398.67 709.91,-394.13 699.6,-391.71 700.34,-398.67"/>
</g>
<!-- gas_schedule::set_gas_schedule -->
<g id="node29" class="node">
<title>gas_schedule::set_gas_schedule</title>
<ellipse fill="none" stroke="black" cx="761" cy="-472" rx="71.49" ry="18"/>
<text text-anchor="middle" x="761" y="-468.3" font-family="Times,serif" font-size="14.00">set_gas_schedule</text>
</g>
<!-- gas_schedule::set_gas_schedule&#45;&gt;reconfiguration::reconfigure -->
<g id="edge32" class="edge">
<title>gas_schedule::set_gas_schedule&#45;&gt;reconfiguration::reconfigure</title>
<path fill="none" stroke="black" d="M761,-453.82C761,-443.69 761,-430.6 761,-418.92"/>
<polygon fill="black" stroke="black" points="764.5,-418.95 761,-408.95 757.5,-418.95 764.5,-418.95"/>
</g>
<!-- gas_schedule::set_storage_gas_config -->
<g id="node30" class="node">
<title>gas_schedule::set_storage_gas_config</title>
<ellipse fill="none" stroke="black" cx="579" cy="-472" rx="92.88" ry="18"/>
<text text-anchor="middle" x="579" y="-468.3" font-family="Times,serif" font-size="14.00">set_storage_gas_config</text>
</g>
<!-- gas_schedule::set_storage_gas_config&#45;&gt;reconfiguration::reconfigure -->
<g id="edge33" class="edge">
<title>gas_schedule::set_storage_gas_config&#45;&gt;reconfiguration::reconfigure</title>
<path fill="none" stroke="black" d="M614.96,-455C645.21,-441.53 688.45,-422.29 720.03,-408.23"/>
<polygon fill="black" stroke="black" points="721.16,-411.56 728.88,-404.3 718.32,-405.17 721.16,-411.56"/>
</g>
<!-- version::set_version -->
<g id="node31" class="node">
<title>version::set_version</title>
<ellipse fill="none" stroke="black" cx="907" cy="-472" rx="50.89" ry="18"/>
<text text-anchor="middle" x="907" y="-468.3" font-family="Times,serif" font-size="14.00">set_version</text>
</g>
<!-- version::set_version&#45;&gt;reconfiguration::reconfigure -->
<g id="edge34" class="edge">
<title>version::set_version&#45;&gt;reconfiguration::reconfigure</title>
<path fill="none" stroke="black" d="M880.56,-456.33C857.2,-443.37 822.93,-424.36 797.06,-410"/>
<polygon fill="black" stroke="black" points="799.01,-407.08 788.57,-405.29 795.61,-413.21 799.01,-407.08"/>
</g>
<!-- genesis::create_initialize_validators -->
<g id="node32" class="node">
<title>genesis::create_initialize_validators</title>
<ellipse fill="none" stroke="black" cx="1762" cy="-849" rx="105.88" ry="18"/>
<text text-anchor="middle" x="1762" y="-845.3" font-family="Times,serif" font-size="14.00">create_initialize_validators</text>
</g>
<!-- genesis::create_initialize_validators&#45;&gt;genesis::create_initialize_validators_with_commission -->
<g id="edge35" class="edge">
<title>genesis::create_initialize_validators&#45;&gt;genesis::create_initialize_validators_with_commission</title>
<path fill="none" stroke="black" d="M1762,-830.7C1762,-823.41 1762,-814.73 1762,-806.54"/>
<polygon fill="black" stroke="black" points="1765.5,-806.62 1762,-796.62 1758.5,-806.62 1765.5,-806.62"/>
</g>
<!-- staking_contract::create_stake_pool&#45;&gt;stake::initialize_stake_owner -->
<g id="edge38" class="edge">
<title>staking_contract::create_stake_pool&#45;&gt;stake::initialize_stake_owner</title>
<path fill="none" stroke="black" d="M1477.09,-370.82C1480.16,-360.48 1484.13,-347.05 1487.65,-335.18"/>
<polygon fill="black" stroke="black" points="1490.92,-336.47 1490.4,-325.88 1484.21,-334.48 1490.92,-336.47"/>
</g>
<!-- genesis::initialize_for_verification -->
<g id="node34" class="node">
<title>genesis::initialize_for_verification</title>
<ellipse fill="none" stroke="black" cx="1762" cy="-921" rx="100.98" ry="18"/>
<text text-anchor="middle" x="1762" y="-917.3" font-family="Times,serif" font-size="14.00">initialize_for_verification</text>
</g>
<!-- genesis::initialize_for_verification&#45;&gt;genesis::create_initialize_validators -->
<g id="edge41" class="edge">
<title>genesis::initialize_for_verification&#45;&gt;genesis::create_initialize_validators</title>
<path fill="none" stroke="black" d="M1762,-902.7C1762,-895.41 1762,-886.73 1762,-878.54"/>
<polygon fill="black" stroke="black" points="1765.5,-878.62 1762,-868.62 1758.5,-878.62 1765.5,-878.62"/>
</g>
</g>
</svg>
