<?xml version="1.0" encoding="UTF-8" standalone="no"?>
<!DOCTYPE svg PUBLIC "-//W3C//DTD SVG 1.1//EN"
 "http://www.w3.org/Graphics/SVG/1.1/DTD/svg11.dtd">
<!-- Generated by graphviz version 7.0.0 (20221023.0053)
 -->
<!-- Title: G Pages: 1 -->
<svg width="1131pt" height="756pt"
 viewBox="0.00 0.00 1131.00 756.00" xmlns="http://www.w3.org/2000/svg" xmlns:xlink="http://www.w3.org/1999/xlink">
<g id="graph0" class="graph" transform="scale(1 1) rotate(0) translate(4 752)">
<title>G</title>
<polygon fill="white" stroke="none" points="-4,4 -4,-752 1127,-752 1127,4 -4,4"/>
<g id="clust1" class="cluster">
<title>cluster_staking_contract</title>
<polygon fill="none" stroke="black" points="437,-208 437,-427 773,-427 773,-208 437,-208"/>
<text text-anchor="middle" x="605" y="-411.8" font-family="Times,serif" font-size="14.00">staking_contract</text>
</g>
<g id="clust2" class="cluster">
<title>cluster_staking_proxy</title>
<polygon fill="none" stroke="black" points="8,-518 8,-665 651,-665 651,-518 8,-518"/>
<text text-anchor="middle" x="329.5" y="-649.8" font-family="Times,serif" font-size="14.00">staking_proxy</text>
</g>
<g id="clust3" class="cluster">
<title>cluster_vesting</title>
<polygon fill="none" stroke="black" points="315,-435 315,-510 651,-510 651,-435 315,-435"/>
<text text-anchor="middle" x="483" y="-494.8" font-family="Times,serif" font-size="14.00">vesting</text>
</g>
<g id="clust4" class="cluster">
<title>cluster_genesis</title>
<polygon fill="none" stroke="black" points="659,-435 659,-740 1115,-740 1115,-435 659,-435"/>
<text text-anchor="middle" x="887" y="-724.8" font-family="Times,serif" font-size="14.00">genesis</text>
</g>
<!-- set_delegated_voter_with_cap -->
<g id="node1" class="node">
<title>set_delegated_voter_with_cap</title>
<ellipse fill="none" stroke="black" cx="710" cy="-18" rx="117.78" ry="18"/>
<text text-anchor="middle" x="710" y="-14.3" font-family="Times,serif" font-size="14.00">set_delegated_voter_with_cap</text>
</g>
<!-- set_delegated_voter -->
<g id="node2" class="node">
<title>set_delegated_voter</title>
<ellipse fill="none" stroke="black" cx="651" cy="-90" rx="81.49" ry="18"/>
<text text-anchor="middle" x="651" y="-86.3" font-family="Times,serif" font-size="14.00">set_delegated_voter</text>
</g>
<!-- set_delegated_voter&#45;&gt;set_delegated_voter_with_cap -->
<g id="edge1" class="edge">
<title>set_delegated_voter&#45;&gt;set_delegated_voter_with_cap</title>
<path fill="none" stroke="black" d="M665.28,-72.05C672.14,-63.92 680.5,-54 688.13,-44.94"/>
<polygon fill="black" stroke="black" points="690.7,-47.33 694.46,-37.43 685.34,-42.82 690.7,-47.33"/>
</g>
<!-- staking_contract::update_voter -->
<g id="node3" class="node">
<title>staking_contract::update_voter</title>
<ellipse fill="none" stroke="black" cx="502" cy="-378" rx="56.59" ry="18"/>
<text text-anchor="middle" x="502" y="-374.3" font-family="Times,serif" font-size="14.00">update_voter</text>
</g>
<!-- staking_contract::update_voter&#45;&gt;set_delegated_voter_with_cap -->
<g id="edge2" class="edge">
<title>staking_contract::update_voter&#45;&gt;set_delegated_voter_with_cap</title>
<path fill="none" stroke="black" d="M544.16,-365.73C552.06,-363.73 560.27,-361.74 568,-360 650.58,-341.44 701.11,-389.26 755,-324 826.43,-237.51 777.01,-178.24 741,-72 737.97,-63.06 733.32,-53.95 728.54,-45.88"/>
<polygon fill="black" stroke="black" points="731.61,-44.18 723.33,-37.56 725.68,-47.89 731.61,-44.18"/>
</g>
<!-- initialize_stake_owner -->
<g id="node4" class="node">
<title>initialize_stake_owner</title>
<ellipse fill="none" stroke="black" cx="651" cy="-162" rx="90.18" ry="18"/>
<text text-anchor="middle" x="651" y="-158.3" font-family="Times,serif" font-size="14.00">initialize_stake_owner</text>
</g>
<!-- initialize_stake_owner&#45;&gt;set_delegated_voter -->
<g id="edge3" class="edge">
<title>initialize_stake_owner&#45;&gt;set_delegated_voter</title>
<path fill="none" stroke="black" d="M651,-143.7C651,-136.41 651,-127.73 651,-119.54"/>
<polygon fill="black" stroke="black" points="654.5,-119.62 651,-109.62 647.5,-119.62 654.5,-119.62"/>
</g>
<!-- staking_proxy::set_stake_pool_voter -->
<g id="node5" class="node">
<title>staking_proxy::set_stake_pool_voter</title>
<ellipse fill="none" stroke="black" cx="101" cy="-544" rx="85.29" ry="18"/>
<text text-anchor="middle" x="101" y="-540.3" font-family="Times,serif" font-size="14.00">set_stake_pool_voter</text>
</g>
<!-- staking_proxy::set_stake_pool_voter&#45;&gt;set_delegated_voter -->
<g id="edge4" class="edge">
<title>staking_proxy::set_stake_pool_voter&#45;&gt;set_delegated_voter</title>
<path fill="none" stroke="black" d="M115.31,-526.07C137.82,-497.64 179,-437.64 179,-379 179,-379 179,-379 179,-233 179,-153.15 429.85,-114.26 565.81,-99.04"/>
<polygon fill="black" stroke="black" points="565.93,-102.55 575.49,-97.98 565.16,-95.59 565.93,-102.55"/>
</g>
<!-- vesting::update_voter -->
<g id="node6" class="node">
<title>vesting::update_voter</title>
<ellipse fill="none" stroke="black" cx="586" cy="-461" rx="56.59" ry="18"/>
<text text-anchor="middle" x="586" y="-457.3" font-family="Times,serif" font-size="14.00">update_voter</text>
</g>
<!-- vesting::update_voter&#45;&gt;staking_contract::update_voter -->
<g id="edge5" class="edge">
<title>vesting::update_voter&#45;&gt;staking_contract::update_voter</title>
<path fill="none" stroke="black" d="M569,-443.61C556.93,-431.97 540.53,-416.16 526.98,-403.09"/>
<polygon fill="black" stroke="black" points="529.69,-400.84 520.06,-396.42 524.83,-405.88 529.69,-400.84"/>
</g>
<!-- staking_proxy::set_staking_contract_voter -->
<g id="node7" class="node">
<title>staking_proxy::set_staking_contract_voter</title>
<ellipse fill="none" stroke="black" cx="309" cy="-544" rx="105.08" ry="18"/>
<text text-anchor="middle" x="309" y="-540.3" font-family="Times,serif" font-size="14.00">set_staking_contract_voter</text>
</g>
<!-- staking_proxy::set_staking_contract_voter&#45;&gt;staking_contract::update_voter -->
<g id="edge6" class="edge">
<title>staking_proxy::set_staking_contract_voter&#45;&gt;staking_contract::update_voter</title>
<path fill="none" stroke="black" d="M303.6,-525.64C297.54,-502.44 290.97,-461.23 311,-435 326.9,-414.17 391.02,-398.36 440.63,-388.94"/>
<polygon fill="black" stroke="black" points="441.24,-392.39 450.44,-387.13 439.97,-385.5 441.24,-392.39"/>
</g>
<!-- staking_contract::create_stake_pool -->
<g id="node8" class="node">
<title>staking_contract::create_stake_pool</title>
<ellipse fill="none" stroke="black" cx="630" cy="-234" rx="74.19" ry="18"/>
<text text-anchor="middle" x="630" y="-230.3" font-family="Times,serif" font-size="14.00">create_stake_pool</text>
</g>
<!-- staking_contract::create_stake_pool&#45;&gt;initialize_stake_owner -->
<g id="edge7" class="edge">
<title>staking_contract::create_stake_pool&#45;&gt;initialize_stake_owner</title>
<path fill="none" stroke="black" d="M635.19,-215.7C637.43,-208.24 640.1,-199.32 642.61,-190.97"/>
<polygon fill="black" stroke="black" points="645.91,-192.14 645.43,-181.55 639.21,-190.13 645.91,-192.14"/>
</g>
<!-- genesis::create_initialize_validator -->
<g id="node9" class="node">
<title>genesis::create_initialize_validator</title>
<ellipse fill="none" stroke="black" cx="812" cy="-461" rx="102.88" ry="18"/>
<text text-anchor="middle" x="812" y="-457.3" font-family="Times,serif" font-size="14.00">create_initialize_validator</text>
</g>
<!-- genesis::create_initialize_validator&#45;&gt;initialize_stake_owner -->
<g id="edge8" class="edge">
<title>genesis::create_initialize_validator&#45;&gt;initialize_stake_owner</title>
<path fill="none" stroke="black" d="M815.14,-442.67C822.15,-398.17 834.28,-278.41 777,-208 765.41,-193.75 748.95,-184.01 731.75,-177.35"/>
<polygon fill="black" stroke="black" points="733,-174.08 722.4,-174.09 730.69,-180.69 733,-174.08"/>
</g>
<!-- staking_contract::create_staking_contract -->
<g id="node14" class="node">
<title>staking_contract::create_staking_contract</title>
<ellipse fill="none" stroke="black" cx="671" cy="-378" rx="94.48" ry="18"/>
<text text-anchor="middle" x="671" y="-374.3" font-family="Times,serif" font-size="14.00">create_staking_contract</text>
</g>
<!-- genesis::create_initialize_validator&#45;&gt;staking_contract::create_staking_contract -->
<g id="edge18" class="edge">
<title>genesis::create_initialize_validator&#45;&gt;staking_contract::create_staking_contract</title>
<path fill="none" stroke="black" d="M783.13,-443.41C761.93,-431.24 732.91,-414.57 709.71,-401.24"/>
<polygon fill="black" stroke="black" points="711.56,-398.27 701.15,-396.32 708.08,-404.33 711.56,-398.27"/>
</g>
<!-- staking_proxy::set_voter -->
<g id="node10" class="node">
<title>staking_proxy::set_voter</title>
<ellipse fill="none" stroke="black" cx="309" cy="-616" rx="42.79" ry="18"/>
<text text-anchor="middle" x="309" y="-612.3" font-family="Times,serif" font-size="14.00">set_voter</text>
</g>
<!-- staking_proxy::set_voter&#45;&gt;staking_proxy::set_stake_pool_voter -->
<g id="edge9" class="edge">
<title>staking_proxy::set_voter&#45;&gt;staking_proxy::set_stake_pool_voter</title>
<path fill="none" stroke="black" d="M276.5,-604.06C244.12,-593.17 193.83,-576.24 155.37,-563.3"/>
<polygon fill="black" stroke="black" points="156.89,-560.11 146.29,-560.24 154.65,-566.75 156.89,-560.11"/>
</g>
<!-- staking_proxy::set_voter&#45;&gt;staking_proxy::set_staking_contract_voter -->
<g id="edge11" class="edge">
<title>staking_proxy::set_voter&#45;&gt;staking_proxy::set_staking_contract_voter</title>
<path fill="none" stroke="black" d="M309,-597.7C309,-590.41 309,-581.73 309,-573.54"/>
<polygon fill="black" stroke="black" points="312.5,-573.62 309,-563.62 305.5,-573.62 312.5,-573.62"/>
</g>
<!-- staking_proxy::set_vesting_contract_voter -->
<g id="node11" class="node">
<title>staking_proxy::set_vesting_contract_voter</title>
<ellipse fill="none" stroke="black" cx="538" cy="-544" rx="105.08" ry="18"/>
<text text-anchor="middle" x="538" y="-540.3" font-family="Times,serif" font-size="14.00">set_vesting_contract_voter</text>
</g>
<!-- staking_proxy::set_voter&#45;&gt;staking_proxy::set_vesting_contract_voter -->
<g id="edge14" class="edge">
<title>staking_proxy::set_voter&#45;&gt;staking_proxy::set_vesting_contract_voter</title>
<path fill="none" stroke="black" d="M342.79,-604.67C378.04,-593.9 434.06,-576.77 477.06,-563.63"/>
<polygon fill="black" stroke="black" points="477.99,-567 486.53,-560.73 475.94,-560.31 477.99,-567"/>
</g>
<!-- staking_proxy::set_vesting_contract_voter&#45;&gt;vesting::update_voter -->
<g id="edge10" class="edge">
<title>staking_proxy::set_vesting_contract_voter&#45;&gt;vesting::update_voter</title>
<path fill="none" stroke="black" d="M548.18,-525.82C554.54,-515.08 562.87,-501.03 570.1,-488.84"/>
<polygon fill="black" stroke="black" points="572.98,-490.84 575.06,-480.46 566.95,-487.27 572.98,-490.84"/>
</g>
<!-- staking_contract::create_staking_contract_with_coins -->
<g id="node12" class="node">
<title>staking_contract::create_staking_contract_with_coins</title>
<ellipse fill="none" stroke="black" cx="609" cy="-306" rx="137.28" ry="18"/>
<text text-anchor="middle" x="609" y="-302.3" font-family="Times,serif" font-size="14.00">create_staking_contract_with_coins</text>
</g>
<!-- staking_contract::create_staking_contract_with_coins&#45;&gt;staking_contract::create_stake_pool -->
<g id="edge12" class="edge">
<title>staking_contract::create_staking_contract_with_coins&#45;&gt;staking_contract::create_stake_pool</title>
<path fill="none" stroke="black" d="M614.19,-287.7C616.43,-280.24 619.1,-271.32 621.61,-262.97"/>
<polygon fill="black" stroke="black" points="624.91,-264.14 624.43,-253.55 618.21,-262.13 624.91,-264.14"/>
</g>
<!-- genesis::create_initialize_validators_with_commission -->
<g id="node13" class="node">
<title>genesis::create_initialize_validators_with_commission</title>
<ellipse fill="none" stroke="black" cx="918" cy="-544" rx="173.57" ry="18"/>
<text text-anchor="middle" x="918" y="-540.3" font-family="Times,serif" font-size="14.00">create_initialize_validators_with_commission</text>
</g>
<!-- genesis::create_initialize_validators_with_commission&#45;&gt;genesis::create_initialize_validator -->
<g id="edge13" class="edge">
<title>genesis::create_initialize_validators_with_commission&#45;&gt;genesis::create_initialize_validator</title>
<path fill="none" stroke="black" d="M895.52,-525.82C880.24,-514.15 859.82,-498.55 843,-485.69"/>
<polygon fill="black" stroke="black" points="845.36,-483.09 835.29,-479.79 841.11,-488.65 845.36,-483.09"/>
</g>
<!-- staking_contract::create_staking_contract&#45;&gt;staking_contract::create_staking_contract_with_coins -->
<g id="edge15" class="edge">
<title>staking_contract::create_staking_contract&#45;&gt;staking_contract::create_staking_contract_with_coins</title>
<path fill="none" stroke="black" d="M655.99,-360.05C648.71,-351.84 639.81,-341.79 631.73,-332.66"/>
<polygon fill="black" stroke="black" points="634.55,-330.57 625.3,-325.41 629.31,-335.21 634.55,-330.57"/>
</g>
<!-- vesting::create_vesting_contract -->
<g id="node15" class="node">
<title>vesting::create_vesting_contract</title>
<ellipse fill="none" stroke="black" cx="417" cy="-461" rx="94.48" ry="18"/>
<text text-anchor="middle" x="417" y="-457.3" font-family="Times,serif" font-size="14.00">create_vesting_contract</text>
</g>
<!-- vesting::create_vesting_contract&#45;&gt;staking_contract::create_staking_contract_with_coins -->
<g id="edge16" class="edge">
<title>vesting::create_vesting_contract&#45;&gt;staking_contract::create_staking_contract_with_coins</title>
<path fill="none" stroke="black" d="M415.28,-442.84C414.08,-420.87 415.48,-382.9 436,-360 452.27,-341.84 474.58,-329.82 497.76,-321.89"/>
<polygon fill="black" stroke="black" points="498.53,-325.32 507.02,-318.98 496.43,-318.64 498.53,-325.32"/>
</g>
<!-- genesis::create_initialize_validators -->
<g id="node16" class="node">
<title>genesis::create_initialize_validators</title>
<ellipse fill="none" stroke="black" cx="959" cy="-616" rx="105.88" ry="18"/>
<text text-anchor="middle" x="959" y="-612.3" font-family="Times,serif" font-size="14.00">create_initialize_validators</text>
</g>
<!-- genesis::create_initialize_validators&#45;&gt;genesis::create_initialize_validators_with_commission -->
<g id="edge17" class="edge">
<title>genesis::create_initialize_validators&#45;&gt;genesis::create_initialize_validators_with_commission</title>
<path fill="none" stroke="black" d="M948.87,-597.7C944.3,-589.9 938.8,-580.51 933.71,-571.83"/>
<polygon fill="black" stroke="black" points="936.86,-570.27 928.78,-563.41 930.82,-573.81 936.86,-570.27"/>
</g>
<!-- genesis::create_employee_validators -->
<g id="node17" class="node">
<title>genesis::create_employee_validators</title>
<ellipse fill="none" stroke="black" cx="777" cy="-691" rx="109.68" ry="18"/>
<text text-anchor="middle" x="777" y="-687.3" font-family="Times,serif" font-size="14.00">create_employee_validators</text>
</g>
<!-- genesis::create_employee_validators&#45;&gt;vesting::create_vesting_contract -->
<g id="edge19" class="edge">
<title>genesis::create_employee_validators&#45;&gt;vesting::create_vesting_contract</title>
<path fill="none" stroke="black" d="M770.7,-672.65C756.51,-636.4 718.23,-553.08 655,-518 628.72,-503.42 549.14,-517.37 520,-510 497.41,-504.29 473.73,-493.63 454.79,-483.8"/>
<polygon fill="black" stroke="black" points="456.59,-480.8 446.12,-479.18 453.3,-486.97 456.59,-480.8"/>
</g>
<!-- genesis::initialize_for_verification -->
<g id="node18" class="node">
<title>genesis::initialize_for_verification</title>
<ellipse fill="none" stroke="black" cx="1006" cy="-691" rx="100.98" ry="18"/>
<text text-anchor="middle" x="1006" y="-687.3" font-family="Times,serif" font-size="14.00">initialize_for_verification</text>
</g>
<!-- genesis::initialize_for_verification&#45;&gt;genesis::create_initialize_validators -->
<g id="edge20" class="edge">
<title>genesis::initialize_for_verification&#45;&gt;genesis::create_initialize_validators</title>
<path fill="none" stroke="black" d="M994.86,-672.7C989.3,-664.06 982.45,-653.42 976.23,-643.76"/>
<polygon fill="black" stroke="black" points="979.23,-641.96 970.88,-635.45 973.35,-645.75 979.23,-641.96"/>
</g>
</g>
</svg>
