<?xml version="1.0" encoding="UTF-8" standalone="no"?>
<!DOCTYPE svg PUBLIC "-//W3C//DTD SVG 1.1//EN"
 "http://www.w3.org/Graphics/SVG/1.1/DTD/svg11.dtd">
<!-- Generated by graphviz version 7.0.0 (20221023.0053)
 -->
<!-- Title: G Pages: 1 -->
<svg width="1618pt" height="542pt"
 viewBox="0.00 0.00 1618.00 542.00" xmlns="http://www.w3.org/2000/svg" xmlns:xlink="http://www.w3.org/1999/xlink">
<g id="graph0" class="graph" transform="scale(1 1) rotate(0) translate(4 538)">
<title>G</title>
<polygon fill="white" stroke="none" points="-4,4 -4,-538 1614,-538 1614,4 -4,4"/>
<g id="clust1" class="cluster">
<title>cluster_signer</title>
<polygon fill="none" stroke="black" points="399,-340 399,-490 549,-490 549,-340 399,-340"/>
<text text-anchor="middle" x="474" y="-474.8" font-family="Times,serif" font-size="14.00">signer</text>
</g>
<g id="clust2" class="cluster">
<title>cluster_event</title>
<polygon fill="none" stroke="black" points="8,-91 8,-249 194,-249 194,-91 8,-91"/>
<text text-anchor="middle" x="101" y="-233.8" font-family="Times,serif" font-size="14.00">event</text>
</g>
<g id="clust3" class="cluster">
<title>cluster_simple_map</title>
<polygon fill="none" stroke="black" points="620,-257 620,-415 878,-415 878,-257 620,-257"/>
<text text-anchor="middle" x="749" y="-399.8" font-family="Times,serif" font-size="14.00">simple_map</text>
</g>
<g id="clust4" class="cluster">
<title>cluster_stake</title>
<polygon fill="none" stroke="black" points="1168,-257 1168,-490 1602,-490 1602,-257 1168,-257"/>
<text text-anchor="middle" x="1385" y="-474.8" font-family="Times,serif" font-size="14.00">stake</text>
</g>
<g id="clust5" class="cluster">
<title>cluster_bcs</title>
<polygon fill="none" stroke="black" points="202,-91 202,-166 298,-166 298,-91 202,-91"/>
<text text-anchor="middle" x="250" y="-150.8" font-family="Times,serif" font-size="14.00">bcs</text>
</g>
<g id="clust6" class="cluster">
<title>cluster_option</title>
<polygon fill="none" stroke="black" points="566,-91 566,-249 802,-249 802,-91 566,-91"/>
<text text-anchor="middle" x="684" y="-233.8" font-family="Times,serif" font-size="14.00">option</text>
</g>
<g id="clust7" class="cluster">
<title>cluster_error</title>
<polygon fill="none" stroke="black" points="886,-174 886,-332 1160,-332 1160,-174 886,-174"/>
<text text-anchor="middle" x="1023" y="-316.8" font-family="Times,serif" font-size="14.00">error</text>
</g>
<g id="clust8" class="cluster">
<title>cluster_vector</title>
<polygon fill="none" stroke="black" points="606,-8 606,-83 813,-83 813,-8 606,-8"/>
<text text-anchor="middle" x="709.5" y="-67.8" font-family="Times,serif" font-size="14.00">vector</text>
</g>
<g id="clust9" class="cluster">
<title>cluster_comparator</title>
<polygon fill="none" stroke="black" points="306,-91 306,-249 558,-249 558,-91 306,-91"/>
<text text-anchor="middle" x="432" y="-233.8" font-family="Times,serif" font-size="14.00">comparator</text>
</g>
<!-- update_voter -->
<g id="node1" class="node">
<title>update_voter</title>
<ellipse fill="none" stroke="black" cx="788" cy="-516" rx="56.59" ry="18"/>
<text text-anchor="middle" x="788" y="-512.3" font-family="Times,serif" font-size="14.00">update_voter</text>
</g>
<!-- signer::address_of -->
<g id="node2" class="node">
<title>signer::address_of</title>
<ellipse fill="none" stroke="black" cx="483" cy="-441" rx="48.99" ry="18"/>
<text text-anchor="middle" x="483" y="-437.3" font-family="Times,serif" font-size="14.00">address_of</text>
</g>
<!-- update_voter&#45;&gt;signer::address_of -->
<g id="edge1" class="edge">
<title>update_voter&#45;&gt;signer::address_of</title>
<path fill="none" stroke="black" d="M732.3,-512.08C673.96,-508.49 586.51,-501.41 555,-490 539.13,-484.25 523.32,-474.3 510.58,-464.95"/>
<polygon fill="black" stroke="black" points="512.75,-462.2 502.68,-458.91 508.5,-467.76 512.75,-462.2"/>
</g>
<!-- event::emit_event -->
<g id="node3" class="node">
<title>event::emit_event</title>
<ellipse fill="none" stroke="black" cx="136" cy="-200" rx="50.09" ry="18"/>
<text text-anchor="middle" x="136" y="-196.3" font-family="Times,serif" font-size="14.00">emit_event</text>
</g>
<!-- update_voter&#45;&gt;event::emit_event -->
<g id="edge2" class="edge">
<title>update_voter&#45;&gt;event::emit_event</title>
<path fill="none" stroke="black" d="M731.05,-514.93C679.46,-513.65 608.48,-508.44 588,-490 537.12,-444.2 599.12,-390.59 553,-340 540.11,-325.85 291.25,-248.49 184.24,-215.7"/>
<polygon fill="black" stroke="black" points="185.47,-212.41 174.88,-212.83 183.42,-219.11 185.47,-212.41"/>
</g>
<!-- simple_map::borrow_mut -->
<g id="node4" class="node">
<title>simple_map::borrow_mut</title>
<ellipse fill="none" stroke="black" cx="815" cy="-366" rx="54.69" ry="18"/>
<text text-anchor="middle" x="815" y="-362.3" font-family="Times,serif" font-size="14.00">borrow_mut</text>
</g>
<!-- update_voter&#45;&gt;simple_map::borrow_mut -->
<g id="edge3" class="edge">
<title>update_voter&#45;&gt;simple_map::borrow_mut</title>
<path fill="none" stroke="black" d="M828.09,-502.99C833.61,-499.65 838.55,-495.4 842,-490 860.81,-460.56 845.62,-419.95 831.54,-393.59"/>
<polygon fill="black" stroke="black" points="834.79,-392.21 826.82,-385.22 828.69,-395.65 834.79,-392.21"/>
</g>
<!-- stake::get_delegated_voter -->
<g id="node5" class="node">
<title>stake::get_delegated_voter</title>
<ellipse fill="none" stroke="black" cx="1512" cy="-441" rx="81.79" ry="18"/>
<text text-anchor="middle" x="1512" y="-437.3" font-family="Times,serif" font-size="14.00">get_delegated_voter</text>
</g>
<!-- update_voter&#45;&gt;stake::get_delegated_voter -->
<g id="edge4" class="edge">
<title>update_voter&#45;&gt;stake::get_delegated_voter</title>
<path fill="none" stroke="black" d="M844.75,-514.19C989.75,-511.93 1366.3,-504.69 1421,-490 1441,-484.63 1461.55,-474.28 1478.05,-464.56"/>
<polygon fill="black" stroke="black" points="1479.75,-467.62 1486.46,-459.43 1476.1,-461.64 1479.75,-467.62"/>
</g>
<!-- stake::set_delegated_voter_with_cap -->
<g id="node6" class="node">
<title>stake::set_delegated_voter_with_cap</title>
<ellipse fill="none" stroke="black" cx="1294" cy="-441" rx="117.78" ry="18"/>
<text text-anchor="middle" x="1294" y="-437.3" font-family="Times,serif" font-size="14.00">set_delegated_voter_with_cap</text>
</g>
<!-- update_voter&#45;&gt;stake::set_delegated_voter_with_cap -->
<g id="edge5" class="edge">
<title>update_voter&#45;&gt;stake::set_delegated_voter_with_cap</title>
<path fill="none" stroke="black" d="M838.83,-507.67C923.07,-495.51 1092.86,-471.02 1199.57,-455.62"/>
<polygon fill="black" stroke="black" points="1199.77,-459.13 1209.16,-454.24 1198.77,-452.2 1199.77,-459.13"/>
</g>
<!-- assert_staking_contract_exists -->
<g id="node7" class="node">
<title>assert_staking_contract_exists</title>
<ellipse fill="none" stroke="black" cx="715" cy="-441" rx="117.78" ry="18"/>
<text text-anchor="middle" x="715" y="-437.3" font-family="Times,serif" font-size="14.00">assert_staking_contract_exists</text>
</g>
<!-- update_voter&#45;&gt;assert_staking_contract_exists -->
<g id="edge6" class="edge">
<title>update_voter&#45;&gt;assert_staking_contract_exists</title>
<path fill="none" stroke="black" d="M771.44,-498.44C762.21,-489.21 750.53,-477.53 740.19,-467.19"/>
<polygon fill="black" stroke="black" points="742.88,-464.93 733.33,-460.33 737.93,-469.88 742.88,-464.93"/>
</g>
<!-- signer::borrow_address -->
<g id="node8" class="node">
<title>signer::borrow_address</title>
<ellipse fill="none" stroke="black" cx="474" cy="-366" rx="66.89" ry="18"/>
<text text-anchor="middle" x="474" y="-362.3" font-family="Times,serif" font-size="14.00">borrow_address</text>
</g>
<!-- signer::address_of&#45;&gt;signer::borrow_address -->
<g id="edge7" class="edge">
<title>signer::address_of&#45;&gt;signer::borrow_address</title>
<path fill="none" stroke="black" d="M480.87,-422.7C479.88,-414.67 478.67,-404.9 477.55,-395.8"/>
<polygon fill="black" stroke="black" points="481.03,-395.43 476.33,-385.93 474.08,-396.28 481.03,-395.43"/>
</g>
<!-- bcs::to_bytes -->
<g id="node9" class="node">
<title>bcs::to_bytes</title>
<ellipse fill="none" stroke="black" cx="250" cy="-117" rx="40.09" ry="18"/>
<text text-anchor="middle" x="250" y="-113.3" font-family="Times,serif" font-size="14.00">to_bytes</text>
</g>
<!-- event::emit_event&#45;&gt;bcs::to_bytes -->
<g id="edge8" class="edge">
<title>event::emit_event&#45;&gt;bcs::to_bytes</title>
<path fill="none" stroke="black" d="M165.62,-185.2C176.19,-179.77 187.96,-173.13 198,-166 208.07,-158.85 218.25,-149.92 226.9,-141.7"/>
<polygon fill="black" stroke="black" points="229.18,-144.37 233.89,-134.88 224.29,-139.36 229.18,-144.37"/>
</g>
<!-- event::write_to_event_store -->
<g id="node10" class="node">
<title>event::write_to_event_store</title>
<ellipse fill="none" stroke="black" cx="101" cy="-117" rx="85.29" ry="18"/>
<text text-anchor="middle" x="101" y="-113.3" font-family="Times,serif" font-size="14.00">write_to_event_store</text>
</g>
<!-- event::emit_event&#45;&gt;event::write_to_event_store -->
<g id="edge9" class="edge">
<title>event::emit_event&#45;&gt;event::write_to_event_store</title>
<path fill="none" stroke="black" d="M128.58,-181.82C124.03,-171.3 118.11,-157.59 112.91,-145.57"/>
<polygon fill="black" stroke="black" points="116.19,-144.33 109.01,-136.54 109.77,-147.11 116.19,-144.33"/>
</g>
<!-- option::extract -->
<g id="node11" class="node">
<title>option::extract</title>
<ellipse fill="none" stroke="black" cx="760" cy="-200" rx="34.39" ry="18"/>
<text text-anchor="middle" x="760" y="-196.3" font-family="Times,serif" font-size="14.00">extract</text>
</g>
<!-- simple_map::borrow_mut&#45;&gt;option::extract -->
<g id="edge10" class="edge">
<title>simple_map::borrow_mut&#45;&gt;option::extract</title>
<path fill="none" stroke="black" d="M809.22,-347.76C799.7,-319.39 780.66,-262.62 769.26,-228.6"/>
<polygon fill="black" stroke="black" points="772.68,-227.81 766.19,-219.44 766.05,-230.04 772.68,-227.81"/>
</g>
<!-- option::is_some -->
<g id="node12" class="node">
<title>option::is_some</title>
<ellipse fill="none" stroke="black" cx="754" cy="-117" rx="40.09" ry="18"/>
<text text-anchor="middle" x="754" y="-113.3" font-family="Times,serif" font-size="14.00">is_some</text>
</g>
<!-- simple_map::borrow_mut&#45;&gt;option::is_some -->
<g id="edge11" class="edge">
<title>simple_map::borrow_mut&#45;&gt;option::is_some</title>
<path fill="none" stroke="black" d="M823.07,-347.7C838.15,-312.65 866.45,-231.67 836,-174 826.87,-156.7 809.72,-143.74 793.46,-134.67"/>
<polygon fill="black" stroke="black" points="795.37,-131.71 784.88,-130.21 792.14,-137.92 795.37,-131.71"/>
</g>
<!-- error::invalid_argument -->
<g id="node13" class="node">
<title>error::invalid_argument</title>
<ellipse fill="none" stroke="black" cx="967" cy="-283" rx="73.39" ry="18"/>
<text text-anchor="middle" x="967" y="-279.3" font-family="Times,serif" font-size="14.00">invalid_argument</text>
</g>
<!-- simple_map::borrow_mut&#45;&gt;error::invalid_argument -->
<g id="edge12" class="edge">
<title>simple_map::borrow_mut&#45;&gt;error::invalid_argument</title>
<path fill="none" stroke="black" d="M845.2,-350.57C856.78,-344.92 870.08,-338.3 882,-332 897.83,-323.64 915.07,-314.01 929.85,-305.58"/>
<polygon fill="black" stroke="black" points="931.4,-308.72 938.34,-300.71 927.92,-302.65 931.4,-308.72"/>
</g>
<!-- simple_map::find -->
<g id="node14" class="node">
<title>simple_map::find</title>
<ellipse fill="none" stroke="black" cx="664" cy="-283" rx="27" ry="18"/>
<text text-anchor="middle" x="664" y="-279.3" font-family="Times,serif" font-size="14.00">find</text>
</g>
<!-- simple_map::borrow_mut&#45;&gt;simple_map::find -->
<g id="edge13" class="edge">
<title>simple_map::borrow_mut&#45;&gt;simple_map::find</title>
<path fill="none" stroke="black" d="M787.3,-350.14C761.15,-336.11 721.99,-315.1 694.84,-300.55"/>
<polygon fill="black" stroke="black" points="696.53,-297.48 686.06,-295.83 693.22,-303.65 696.53,-297.48"/>
</g>
<!-- stake::assert_stake_pool_exists -->
<g id="node15" class="node">
<title>stake::assert_stake_pool_exists</title>
<ellipse fill="none" stroke="black" cx="1294" cy="-366" rx="97.48" ry="18"/>
<text text-anchor="middle" x="1294" y="-362.3" font-family="Times,serif" font-size="14.00">assert_stake_pool_exists</text>
</g>
<!-- stake::get_delegated_voter&#45;&gt;stake::assert_stake_pool_exists -->
<g id="edge14" class="edge">
<title>stake::get_delegated_voter&#45;&gt;stake::assert_stake_pool_exists</title>
<path fill="none" stroke="black" d="M1468.41,-425.4C1434.48,-414.04 1387.14,-398.19 1350.34,-385.87"/>
<polygon fill="black" stroke="black" points="1351.8,-382.66 1341.21,-382.81 1349.58,-389.3 1351.8,-382.66"/>
</g>
<!-- stake::set_delegated_voter_with_cap&#45;&gt;stake::assert_stake_pool_exists -->
<g id="edge15" class="edge">
<title>stake::set_delegated_voter_with_cap&#45;&gt;stake::assert_stake_pool_exists</title>
<path fill="none" stroke="black" d="M1294,-422.7C1294,-414.67 1294,-404.9 1294,-395.8"/>
<polygon fill="black" stroke="black" points="1297.5,-395.94 1294,-385.94 1290.5,-395.94 1297.5,-395.94"/>
</g>
<!-- error::not_found -->
<g id="node16" class="node">
<title>error::not_found</title>
<ellipse fill="none" stroke="black" cx="1105" cy="-283" rx="46.59" ry="18"/>
<text text-anchor="middle" x="1105" y="-279.3" font-family="Times,serif" font-size="14.00">not_found</text>
</g>
<!-- assert_staking_contract_exists&#45;&gt;error::not_found -->
<g id="edge16" class="edge">
<title>assert_staking_contract_exists&#45;&gt;error::not_found</title>
<path fill="none" stroke="black" d="M812.42,-430.64C835.55,-427 859.91,-421.95 882,-415 961.06,-390.12 979.9,-377.76 1049,-332 1059.84,-324.82 1070.89,-315.78 1080.28,-307.49"/>
<polygon fill="black" stroke="black" points="1082.53,-310.18 1087.59,-300.87 1077.83,-304.99 1082.53,-310.18"/>
</g>
<!-- simple_map::contains_key -->
<g id="node17" class="node">
<title>simple_map::contains_key</title>
<ellipse fill="none" stroke="black" cx="685" cy="-366" rx="57.39" ry="18"/>
<text text-anchor="middle" x="685" y="-362.3" font-family="Times,serif" font-size="14.00">contains_key</text>
</g>
<!-- assert_staking_contract_exists&#45;&gt;simple_map::contains_key -->
<g id="edge17" class="edge">
<title>assert_staking_contract_exists&#45;&gt;simple_map::contains_key</title>
<path fill="none" stroke="black" d="M707.89,-422.7C704.45,-414.34 700.24,-404.09 696.38,-394.68"/>
<polygon fill="black" stroke="black" points="699.67,-393.49 692.63,-385.58 693.2,-396.16 699.67,-393.49"/>
</g>
<!-- option::extract&#45;&gt;option::is_some -->
<g id="edge18" class="edge">
<title>option::extract&#45;&gt;option::is_some</title>
<path fill="none" stroke="black" d="M758.73,-181.82C757.97,-171.58 756.99,-158.33 756.11,-146.55"/>
<polygon fill="black" stroke="black" points="759.63,-146.66 755.4,-136.94 752.65,-147.17 759.63,-146.66"/>
</g>
<!-- vector::is_empty -->
<g id="node18" class="node">
<title>vector::is_empty</title>
<ellipse fill="none" stroke="black" cx="761" cy="-34" rx="43.59" ry="18"/>
<text text-anchor="middle" x="761" y="-30.3" font-family="Times,serif" font-size="14.00">is_empty</text>
</g>
<!-- option::is_some&#45;&gt;vector::is_empty -->
<g id="edge19" class="edge">
<title>option::is_some&#45;&gt;vector::is_empty</title>
<path fill="none" stroke="black" d="M755.48,-98.82C756.37,-88.58 757.52,-75.33 758.53,-63.55"/>
<polygon fill="black" stroke="black" points="761.99,-64.2 759.36,-53.94 755.02,-63.6 761.99,-64.2"/>
</g>
<!-- error::canonical -->
<g id="node19" class="node">
<title>error::canonical</title>
<ellipse fill="none" stroke="black" cx="1036" cy="-200" rx="44.39" ry="18"/>
<text text-anchor="middle" x="1036" y="-196.3" font-family="Times,serif" font-size="14.00">canonical</text>
</g>
<!-- error::invalid_argument&#45;&gt;error::canonical -->
<g id="edge20" class="edge">
<title>error::invalid_argument&#45;&gt;error::canonical</title>
<path fill="none" stroke="black" d="M981.3,-265.22C990.89,-253.96 1003.7,-238.92 1014.51,-226.22"/>
<polygon fill="black" stroke="black" points="1017.16,-228.52 1020.98,-218.64 1011.83,-223.98 1017.16,-228.52"/>
</g>
<!-- option::none -->
<g id="node20" class="node">
<title>option::none</title>
<ellipse fill="none" stroke="black" cx="602" cy="-200" rx="27.9" ry="18"/>
<text text-anchor="middle" x="602" y="-196.3" font-family="Times,serif" font-size="14.00">none</text>
</g>
<!-- simple_map::find&#45;&gt;option::none -->
<g id="edge21" class="edge">
<title>simple_map::find&#45;&gt;option::none</title>
<path fill="none" stroke="black" d="M652.05,-266.38C643.21,-254.84 631.01,-238.9 620.86,-225.64"/>
<polygon fill="black" stroke="black" points="623.69,-223.58 614.84,-217.77 618.14,-227.84 623.69,-223.58"/>
</g>
<!-- option::some -->
<g id="node21" class="node">
<title>option::some</title>
<ellipse fill="none" stroke="black" cx="678" cy="-200" rx="29.8" ry="18"/>
<text text-anchor="middle" x="678" y="-196.3" font-family="Times,serif" font-size="14.00">some</text>
</g>
<!-- simple_map::find&#45;&gt;option::some -->
<g id="edge22" class="edge">
<title>simple_map::find&#45;&gt;option::some</title>
<path fill="none" stroke="black" d="M666.97,-264.82C668.75,-254.51 671.06,-241.14 673.11,-229.31"/>
<polygon fill="black" stroke="black" points="676.52,-230.09 674.78,-219.64 669.63,-228.9 676.52,-230.09"/>
</g>
<!-- comparator::compare -->
<g id="node22" class="node">
<title>comparator::compare</title>
<ellipse fill="none" stroke="black" cx="356" cy="-200" rx="41.69" ry="18"/>
<text text-anchor="middle" x="356" y="-196.3" font-family="Times,serif" font-size="14.00">compare</text>
</g>
<!-- simple_map::find&#45;&gt;comparator::compare -->
<g id="edge23" class="edge">
<title>simple_map::find&#45;&gt;comparator::compare</title>
<path fill="none" stroke="black" d="M640.99,-273.18C624.98,-267.48 603.01,-260.48 583,-257 544.43,-250.28 443.06,-264.26 407,-249 395.12,-243.97 384.33,-234.87 375.76,-225.93"/>
<polygon fill="black" stroke="black" points="378.55,-223.8 369.28,-218.68 373.33,-228.47 378.55,-223.8"/>
</g>
<!-- comparator::is_smaller_than -->
<g id="node23" class="node">
<title>comparator::is_smaller_than</title>
<ellipse fill="none" stroke="black" cx="483" cy="-200" rx="66.89" ry="18"/>
<text text-anchor="middle" x="483" y="-196.3" font-family="Times,serif" font-size="14.00">is_smaller_than</text>
</g>
<!-- simple_map::find&#45;&gt;comparator::is_smaller_than -->
<g id="edge24" class="edge">
<title>simple_map::find&#45;&gt;comparator::is_smaller_than</title>
<path fill="none" stroke="black" d="M639.79,-274.88C614.3,-267.25 575.96,-255.39 562,-249 546.27,-241.79 529.77,-232.14 515.95,-223.39"/>
<polygon fill="black" stroke="black" points="517.97,-220.53 507.67,-218.03 514.17,-226.4 517.97,-220.53"/>
</g>
<!-- stake::assert_stake_pool_exists&#45;&gt;error::invalid_argument -->
<g id="edge25" class="edge">
<title>stake::assert_stake_pool_exists&#45;&gt;error::invalid_argument</title>
<path fill="none" stroke="black" d="M1199.8,-361.03C1153.39,-356.9 1097.19,-348.6 1049,-332 1031.51,-325.98 1013.61,-316.02 999.02,-306.73"/>
<polygon fill="black" stroke="black" points="1001.03,-303.87 990.75,-301.3 997.18,-309.72 1001.03,-303.87"/>
</g>
<!-- stake::stake_pool_exists -->
<g id="node24" class="node">
<title>stake::stake_pool_exists</title>
<ellipse fill="none" stroke="black" cx="1294" cy="-283" rx="73.39" ry="18"/>
<text text-anchor="middle" x="1294" y="-279.3" font-family="Times,serif" font-size="14.00">stake_pool_exists</text>
</g>
<!-- stake::assert_stake_pool_exists&#45;&gt;stake::stake_pool_exists -->
<g id="edge26" class="edge">
<title>stake::assert_stake_pool_exists&#45;&gt;stake::stake_pool_exists</title>
<path fill="none" stroke="black" d="M1294,-347.82C1294,-337.69 1294,-324.6 1294,-312.92"/>
<polygon fill="black" stroke="black" points="1297.5,-312.95 1294,-302.95 1290.5,-312.95 1297.5,-312.95"/>
</g>
<!-- error::not_found&#45;&gt;error::canonical -->
<g id="edge27" class="edge">
<title>error::not_found&#45;&gt;error::canonical</title>
<path fill="none" stroke="black" d="M1091.04,-265.61C1081.31,-254.19 1068.16,-238.75 1057.15,-225.83"/>
<polygon fill="black" stroke="black" points="1060.07,-223.86 1050.92,-218.52 1054.74,-228.4 1060.07,-223.86"/>
</g>
<!-- simple_map::contains_key&#45;&gt;option::is_some -->
<g id="edge28" class="edge">
<title>simple_map::contains_key&#45;&gt;option::is_some</title>
<path fill="none" stroke="black" d="M710.12,-349.43C738.82,-329.99 784.23,-293.77 803,-249 815.89,-218.26 814.72,-205.2 803,-174 798.37,-161.69 789.67,-150.31 780.88,-141.07"/>
<polygon fill="black" stroke="black" points="783.55,-138.79 773.96,-134.28 778.64,-143.78 783.55,-138.79"/>
</g>
<!-- simple_map::contains_key&#45;&gt;simple_map::find -->
<g id="edge29" class="edge">
<title>simple_map::contains_key&#45;&gt;simple_map::find</title>
<path fill="none" stroke="black" d="M680.55,-347.82C677.85,-337.41 674.34,-323.87 671.24,-311.94"/>
<polygon fill="black" stroke="black" points="674.72,-311.42 668.83,-302.62 667.95,-313.18 674.72,-311.42"/>
</g>
<!-- vector::singleton -->
<g id="node25" class="node">
<title>vector::singleton</title>
<ellipse fill="none" stroke="black" cx="657" cy="-34" rx="42.79" ry="18"/>
<text text-anchor="middle" x="657" y="-30.3" font-family="Times,serif" font-size="14.00">singleton</text>
</g>
<!-- option::some&#45;&gt;vector::singleton -->
<g id="edge30" class="edge">
<title>option::some&#45;&gt;vector::singleton</title>
<path fill="none" stroke="black" d="M675.79,-181.76C672.18,-153.51 664.95,-97.11 660.59,-63.04"/>
<polygon fill="black" stroke="black" points="664.11,-62.99 659.37,-53.51 657.17,-63.87 664.11,-62.99"/>
</g>
<!-- comparator::compare&#45;&gt;bcs::to_bytes -->
<g id="edge31" class="edge">
<title>comparator::compare&#45;&gt;bcs::to_bytes</title>
<path fill="none" stroke="black" d="M331.14,-185.2C321.74,-179.63 311.12,-172.89 302,-166 292.29,-158.67 282.32,-149.83 273.73,-141.74"/>
<polygon fill="black" stroke="black" points="276.4,-139.45 266.76,-135.04 271.55,-144.5 276.4,-139.45"/>
</g>
<!-- comparator::compare_u8_vector -->
<g id="node26" class="node">
<title>comparator::compare_u8_vector</title>
<ellipse fill="none" stroke="black" cx="395" cy="-117" rx="81.49" ry="18"/>
<text text-anchor="middle" x="395" y="-113.3" font-family="Times,serif" font-size="14.00">compare_u8_vector</text>
</g>
<!-- comparator::compare&#45;&gt;comparator::compare_u8_vector -->
<g id="edge32" class="edge">
<title>comparator::compare&#45;&gt;comparator::compare_u8_vector</title>
<path fill="none" stroke="black" d="M364.08,-182.22C369.19,-171.61 375.91,-157.65 381.78,-145.45"/>
<polygon fill="black" stroke="black" points="384.82,-147.21 386,-136.68 378.51,-144.18 384.82,-147.21"/>
</g>
</g>
</svg>
