<?xml version="1.0" encoding="UTF-8" standalone="no"?>
<!DOCTYPE svg PUBLIC "-//W3C//DTD SVG 1.1//EN"
 "http://www.w3.org/Graphics/SVG/1.1/DTD/svg11.dtd">
<!-- Generated by graphviz version 7.0.0 (20221023.0053)
 -->
<!-- Title: G Pages: 1 -->
<svg width="1950pt" height="692pt"
 viewBox="0.00 0.00 1949.92 692.00" xmlns="http://www.w3.org/2000/svg" xmlns:xlink="http://www.w3.org/1999/xlink">
<g id="graph0" class="graph" transform="scale(1 1) rotate(0) translate(4 688)">
<title>G</title>
<polygon fill="white" stroke="none" points="-4,4 -4,-688 1945.92,-688 1945.92,4 -4,4"/>
<!-- stake -->
<g id="node1" class="node">
<title>stake</title>
<ellipse fill="none" stroke="black" cx="1020" cy="-666" rx="28.7" ry="18"/>
<text text-anchor="middle" x="1020" y="-662.3" font-family="Times,serif" font-size="14.00">stake</text>
</g>
<!-- vector -->
<g id="node2" class="node">
<title>vector</title>
<ellipse fill="none" stroke="black" cx="486" cy="-18" rx="32.49" ry="18"/>
<text text-anchor="middle" x="486" y="-14.3" font-family="Times,serif" font-size="14.00">vector</text>
</g>
<!-- stake&#45;&gt;vector -->
<g id="edge1" class="edge">
<title>stake&#45;&gt;vector</title>
<path fill="none" stroke="black" d="M991.07,-665.24C857.6,-666.03 300.92,-665.97 137,-612 68.03,-589.3 0,-595.61 0,-523 0,-523 0,-523 0,-161 0,-107.52 33.59,-96.76 81,-72 143.1,-39.57 350.61,-25.63 442.07,-20.95"/>
<polygon fill="black" stroke="black" points="442.08,-24.46 451.89,-20.47 441.73,-17.47 442.08,-24.46"/>
</g>
<!-- option -->
<g id="node3" class="node">
<title>option</title>
<ellipse fill="none" stroke="black" cx="486" cy="-90" rx="33.29" ry="18"/>
<text text-anchor="middle" x="486" y="-86.3" font-family="Times,serif" font-size="14.00">option</text>
</g>
<!-- stake&#45;&gt;option -->
<g id="edge2" class="edge">
<title>stake&#45;&gt;option</title>
<path fill="none" stroke="black" d="M991.14,-663.95C828.94,-657.66 38,-621.94 38,-523 38,-523 38,-523 38,-449 38,-303.49 31.49,-217.61 157,-144 204.47,-116.16 363.06,-100.43 441.42,-94.18"/>
<polygon fill="black" stroke="black" points="441.61,-97.68 451.31,-93.41 441.07,-90.7 441.61,-97.68"/>
</g>
<!-- signer -->
<g id="node4" class="node">
<title>signer</title>
<ellipse fill="none" stroke="black" cx="1799" cy="-90" rx="32.49" ry="18"/>
<text text-anchor="middle" x="1799" y="-86.3" font-family="Times,serif" font-size="14.00">signer</text>
</g>
<!-- stake&#45;&gt;signer -->
<g id="edge3" class="edge">
<title>stake&#45;&gt;signer</title>
<path fill="none" stroke="black" d="M1048.95,-665.34C1195.65,-666.78 1852.54,-669.94 1920,-612 1950.68,-585.65 1939,-563.45 1939,-523 1939,-523 1939,-523 1939,-233 1939,-173.16 1875.17,-129.39 1833.71,-107.27"/>
<polygon fill="black" stroke="black" points="1835.55,-104.28 1825.05,-102.81 1832.34,-110.5 1835.55,-104.28"/>
</g>
<!-- error -->
<g id="node5" class="node">
<title>error</title>
<ellipse fill="none" stroke="black" cx="1251" cy="-90" rx="27.9" ry="18"/>
<text text-anchor="middle" x="1251" y="-86.3" font-family="Times,serif" font-size="14.00">error</text>
</g>
<!-- stake&#45;&gt;error -->
<g id="edge4" class="edge">
<title>stake&#45;&gt;error</title>
<path fill="none" stroke="black" d="M1048.86,-664.92C1151.52,-664.25 1498.12,-658.51 1597,-612 1719.57,-554.35 1760.31,-521.2 1812,-396 1855.12,-291.55 1807.69,-224.45 1685,-144 1620.47,-101.69 1384.72,-93.15 1290.39,-91.43"/>
<polygon fill="black" stroke="black" points="1290.66,-87.94 1280.61,-91.27 1290.55,-94.94 1290.66,-87.94"/>
</g>
<!-- system_addresses -->
<g id="node6" class="node">
<title>system_addresses</title>
<ellipse fill="none" stroke="black" cx="1471" cy="-306" rx="73.39" ry="18"/>
<text text-anchor="middle" x="1471" y="-302.3" font-family="Times,serif" font-size="14.00">system_addresses</text>
</g>
<!-- stake&#45;&gt;system_addresses -->
<g id="edge5" class="edge">
<title>stake&#45;&gt;system_addresses</title>
<path fill="none" stroke="black" d="M1047.81,-660.48C1123.33,-646.68 1333.5,-597.84 1438,-468 1459.96,-440.72 1462.54,-430.21 1470,-396 1474.33,-376.13 1474.48,-353.16 1473.59,-335.54"/>
<polygon fill="black" stroke="black" points="1477.1,-335.55 1472.95,-325.8 1470.11,-336.01 1477.1,-335.55"/>
</g>
<!-- event -->
<g id="node7" class="node">
<title>event</title>
<ellipse fill="none" stroke="black" cx="172" cy="-378" rx="29.8" ry="18"/>
<text text-anchor="middle" x="172" y="-374.3" font-family="Times,serif" font-size="14.00">event</text>
</g>
<!-- stake&#45;&gt;event -->
<g id="edge6" class="edge">
<title>stake&#45;&gt;event</title>
<path fill="none" stroke="black" d="M991.18,-663.86C928.28,-660.74 774.5,-649.56 652,-612 471.83,-556.77 274.9,-442.18 201.62,-397.45"/>
<polygon fill="black" stroke="black" points="203.75,-394.66 193.4,-392.41 200.09,-400.62 203.75,-394.66"/>
</g>
<!-- account -->
<g id="node8" class="node">
<title>account</title>
<ellipse fill="none" stroke="black" cx="609" cy="-450" rx="38.19" ry="18"/>
<text text-anchor="middle" x="609" y="-446.3" font-family="Times,serif" font-size="14.00">account</text>
</g>
<!-- stake&#45;&gt;account -->
<g id="edge7" class="edge">
<title>stake&#45;&gt;account</title>
<path fill="none" stroke="black" d="M991.12,-663.68C919.84,-659.92 737.87,-647.05 690,-612 645.69,-579.56 624.07,-515.93 614.85,-479.12"/>
<polygon fill="black" stroke="black" points="618.32,-478.59 612.62,-469.66 611.5,-480.2 618.32,-478.59"/>
</g>
<!-- coin -->
<g id="node9" class="node">
<title>coin</title>
<ellipse fill="none" stroke="black" cx="943" cy="-522" rx="27" ry="18"/>
<text text-anchor="middle" x="943" y="-518.3" font-family="Times,serif" font-size="14.00">coin</text>
</g>
<!-- stake&#45;&gt;coin -->
<g id="edge8" class="edge">
<title>stake&#45;&gt;coin</title>
<path fill="none" stroke="black" d="M1019.42,-647.83C1018.11,-629.05 1013.96,-598.62 1001,-576 993.53,-562.96 981.75,-551.33 970.75,-542.31"/>
<polygon fill="black" stroke="black" points="973.05,-539.67 963,-536.3 968.76,-545.2 973.05,-539.67"/>
</g>
<!-- aptos_coin -->
<g id="node10" class="node">
<title>aptos_coin</title>
<ellipse fill="none" stroke="black" cx="943" cy="-594" rx="48.99" ry="18"/>
<text text-anchor="middle" x="943" y="-590.3" font-family="Times,serif" font-size="14.00">aptos_coin</text>
</g>
<!-- stake&#45;&gt;aptos_coin -->
<g id="edge9" class="edge">
<title>stake&#45;&gt;aptos_coin</title>
<path fill="none" stroke="black" d="M1004.42,-650.83C994.23,-641.58 980.69,-629.26 968.91,-618.55"/>
<polygon fill="black" stroke="black" points="971.59,-616.26 961.83,-612.12 966.88,-621.44 971.59,-616.26"/>
</g>
<!-- timestamp -->
<g id="node11" class="node">
<title>timestamp</title>
<ellipse fill="none" stroke="black" cx="1704" cy="-378" rx="48.19" ry="18"/>
<text text-anchor="middle" x="1704" y="-374.3" font-family="Times,serif" font-size="14.00">timestamp</text>
</g>
<!-- stake&#45;&gt;timestamp -->
<g id="edge10" class="edge">
<title>stake&#45;&gt;timestamp</title>
<path fill="none" stroke="black" d="M1048.94,-665.51C1148.62,-666.77 1476.33,-666.57 1563,-612 1639.47,-563.85 1680.34,-457.74 1696.15,-407.04"/>
<polygon fill="black" stroke="black" points="1699.43,-408.29 1698.96,-397.7 1692.73,-406.27 1699.43,-408.29"/>
</g>
<!-- staking_config -->
<g id="node12" class="node">
<title>staking_config</title>
<ellipse fill="none" stroke="black" cx="1575" cy="-378" rx="63.09" ry="18"/>
<text text-anchor="middle" x="1575" y="-374.3" font-family="Times,serif" font-size="14.00">staking_config</text>
</g>
<!-- stake&#45;&gt;staking_config -->
<g id="edge11" class="edge">
<title>stake&#45;&gt;staking_config</title>
<path fill="none" stroke="black" d="M1048.72,-664.05C1151.99,-660.37 1500.25,-645.55 1536,-612 1592.64,-558.85 1586.82,-456.82 1579.96,-407.32"/>
<polygon fill="black" stroke="black" points="1583.46,-407.07 1578.5,-397.7 1576.54,-408.12 1583.46,-407.07"/>
</g>
<!-- math64 -->
<g id="node13" class="node">
<title>math64</title>
<ellipse fill="none" stroke="black" cx="1873" cy="-594" rx="37.89" ry="18"/>
<text text-anchor="middle" x="1873" y="-590.3" font-family="Times,serif" font-size="14.00">math64</text>
</g>
<!-- stake&#45;&gt;math64 -->
<g id="edge12" class="edge">
<title>stake&#45;&gt;math64</title>
<path fill="none" stroke="black" d="M1048.89,-664.06C1173.86,-659.82 1668.43,-641.5 1821,-612 1824.89,-611.25 1828.9,-610.29 1832.88,-609.21"/>
<polygon fill="black" stroke="black" points="1833.88,-612.56 1842.46,-606.36 1831.88,-605.86 1833.88,-612.56"/>
</g>
<!-- bls12381 -->
<g id="node14" class="node">
<title>bls12381</title>
<ellipse fill="none" stroke="black" cx="1011" cy="-162" rx="42.79" ry="18"/>
<text text-anchor="middle" x="1011" y="-158.3" font-family="Times,serif" font-size="14.00">bls12381</text>
</g>
<!-- stake&#45;&gt;bls12381 -->
<g id="edge13" class="edge">
<title>stake&#45;&gt;bls12381</title>
<path fill="none" stroke="black" d="M991.27,-662.87C959.22,-658.78 908.76,-646.85 885,-612 864.09,-581.32 855.52,-673.99 984,-252 990.22,-231.57 997.22,-208.5 1002.53,-190.96"/>
<polygon fill="black" stroke="black" points="1005.85,-192.1 1005.4,-181.51 999.15,-190.07 1005.85,-192.1"/>
</g>
<!-- option&#45;&gt;vector -->
<g id="edge14" class="edge">
<title>option&#45;&gt;vector</title>
<path fill="none" stroke="black" d="M486,-71.7C486,-64.41 486,-55.73 486,-47.54"/>
<polygon fill="black" stroke="black" points="489.5,-47.62 486,-37.62 482.5,-47.62 489.5,-47.62"/>
</g>
<!-- system_addresses&#45;&gt;signer -->
<g id="edge15" class="edge">
<title>system_addresses&#45;&gt;signer</title>
<path fill="none" stroke="black" d="M1500.84,-289.23C1542.91,-266.62 1621.61,-222.98 1685,-180 1716.42,-158.7 1750.48,-131.52 1773.11,-112.83"/>
<polygon fill="black" stroke="black" points="1775.16,-115.68 1780.62,-106.6 1770.69,-110.3 1775.16,-115.68"/>
</g>
<!-- system_addresses&#45;&gt;error -->
<g id="edge16" class="edge">
<title>system_addresses&#45;&gt;error</title>
<path fill="none" stroke="black" d="M1466.03,-287.7C1455.86,-255.21 1429.68,-184.66 1384,-144 1356.95,-119.93 1317.63,-106.09 1288.75,-98.63"/>
<polygon fill="black" stroke="black" points="1289.87,-95.3 1279.33,-96.35 1288.22,-102.11 1289.87,-95.3"/>
</g>
<!-- bcs -->
<g id="node15" class="node">
<title>bcs</title>
<ellipse fill="none" stroke="black" cx="319" cy="-234" rx="27" ry="18"/>
<text text-anchor="middle" x="319" y="-230.3" font-family="Times,serif" font-size="14.00">bcs</text>
</g>
<!-- event&#45;&gt;bcs -->
<g id="edge17" class="edge">
<title>event&#45;&gt;bcs</title>
<path fill="none" stroke="black" d="M166.33,-359.86C161.1,-340.55 156.14,-309.1 171,-288 195.63,-253.01 245.6,-241 280.64,-236.95"/>
<polygon fill="black" stroke="black" points="280.77,-240.45 290.38,-236 280.09,-233.48 280.77,-240.45"/>
</g>
<!-- guid -->
<g id="node16" class="node">
<title>guid</title>
<ellipse fill="none" stroke="black" cx="207" cy="-306" rx="27" ry="18"/>
<text text-anchor="middle" x="207" y="-302.3" font-family="Times,serif" font-size="14.00">guid</text>
</g>
<!-- event&#45;&gt;guid -->
<g id="edge18" class="edge">
<title>event&#45;&gt;guid</title>
<path fill="none" stroke="black" d="M180.29,-360.41C184.3,-352.39 189.22,-342.57 193.73,-333.54"/>
<polygon fill="black" stroke="black" points="196.75,-335.33 198.09,-324.82 190.49,-332.2 196.75,-335.33"/>
</g>
<!-- account&#45;&gt;vector -->
<g id="edge19" class="edge">
<title>account&#45;&gt;vector</title>
<path fill="none" stroke="black" d="M608.87,-431.91C608.38,-402.32 606.1,-339.74 596,-288 576.72,-189.22 575.15,-160.92 528,-72 522.53,-61.68 514.97,-51.38 507.77,-42.65"/>
<polygon fill="black" stroke="black" points="510.65,-40.63 501.49,-35.32 505.34,-45.19 510.65,-40.63"/>
</g>
<!-- account&#45;&gt;option -->
<g id="edge20" class="edge">
<title>account&#45;&gt;option</title>
<path fill="none" stroke="black" d="M572.97,-443.43C506.18,-432.83 368.35,-409.63 351,-396 295.35,-352.26 298.49,-321.06 283,-252 279.5,-236.39 275.2,-229.97 283,-216 317.74,-153.82 397.51,-118.75 446.07,-102.44"/>
<polygon fill="black" stroke="black" points="446.93,-105.84 455.37,-99.43 444.78,-99.18 446.93,-105.84"/>
</g>
<!-- account&#45;&gt;signer -->
<g id="edge21" class="edge">
<title>account&#45;&gt;signer</title>
<path fill="none" stroke="black" d="M647.26,-447.56C845.83,-440.02 1750.13,-405.22 1761,-396 1791.85,-369.84 1780,-347.45 1780,-307 1780,-307 1780,-307 1780,-233 1780,-193.17 1787.43,-147.61 1793,-119.07"/>
<polygon fill="black" stroke="black" points="1796.4,-119.93 1794.95,-109.43 1789.54,-118.54 1796.4,-119.93"/>
</g>
<!-- account&#45;&gt;error -->
<g id="edge22" class="edge">
<title>account&#45;&gt;error</title>
<path fill="none" stroke="black" d="M620.9,-432.45C627.78,-422.31 636.2,-408.84 642,-396 691.8,-285.73 641.15,-206.08 745,-144 823.57,-97.03 1106.59,-91.38 1211.51,-90.92"/>
<polygon fill="black" stroke="black" points="1211.32,-94.43 1221.31,-90.9 1211.3,-87.43 1211.32,-94.43"/>
</g>
<!-- account&#45;&gt;system_addresses -->
<g id="edge25" class="edge">
<title>account&#45;&gt;system_addresses</title>
<path fill="none" stroke="black" d="M647.44,-449.45C746.49,-449.83 1018.03,-445.85 1237,-396 1306.4,-380.2 1382.75,-348.2 1428.77,-327.19"/>
<polygon fill="black" stroke="black" points="1429.97,-330.49 1437.58,-323.13 1427.04,-324.14 1429.97,-330.49"/>
</g>
<!-- account&#45;&gt;event -->
<g id="edge32" class="edge">
<title>account&#45;&gt;event</title>
<path fill="none" stroke="black" d="M571.05,-446.85C500.26,-442.18 343.7,-428.79 216,-396 212.7,-395.15 209.3,-394.13 205.94,-393.01"/>
<polygon fill="black" stroke="black" points="207.43,-389.83 196.84,-389.73 205.06,-396.42 207.43,-389.83"/>
</g>
<!-- account&#45;&gt;bcs -->
<g id="edge27" class="edge">
<title>account&#45;&gt;bcs</title>
<path fill="none" stroke="black" d="M571.79,-445.29C529.11,-439.74 458.2,-426.44 405,-396 365.72,-373.52 353.52,-364.33 333,-324 323.5,-305.34 320.11,-281.85 319.03,-263.69"/>
<polygon fill="black" stroke="black" points="322.54,-263.74 318.67,-253.88 315.54,-264 322.54,-263.74"/>
</g>
<!-- account&#45;&gt;guid -->
<g id="edge30" class="edge">
<title>account&#45;&gt;guid</title>
<path fill="none" stroke="black" d="M571.7,-445.35C485.86,-436.68 279.67,-414.2 254,-396 233.53,-381.49 221.23,-355.25 214.38,-335.01"/>
<polygon fill="black" stroke="black" points="217.79,-334.17 211.49,-325.65 211.1,-336.24 217.79,-334.17"/>
</g>
<!-- type_info -->
<g id="node17" class="node">
<title>type_info</title>
<ellipse fill="none" stroke="black" cx="931" cy="-234" rx="44.39" ry="18"/>
<text text-anchor="middle" x="931" y="-230.3" font-family="Times,serif" font-size="14.00">type_info</text>
</g>
<!-- account&#45;&gt;type_info -->
<g id="edge23" class="edge">
<title>account&#45;&gt;type_info</title>
<path fill="none" stroke="black" d="M634.32,-436.04C653.94,-425.75 681.64,-410.7 705,-396 778.16,-349.96 859.79,-289.37 902.07,-257.24"/>
<polygon fill="black" stroke="black" points="903.94,-260.22 909.77,-251.37 899.69,-254.65 903.94,-260.22"/>
</g>
<!-- table -->
<g id="node18" class="node">
<title>table</title>
<ellipse fill="none" stroke="black" cx="1026" cy="-306" rx="27.9" ry="18"/>
<text text-anchor="middle" x="1026" y="-302.3" font-family="Times,serif" font-size="14.00">table</text>
</g>
<!-- account&#45;&gt;table -->
<g id="edge24" class="edge">
<title>account&#45;&gt;table</title>
<path fill="none" stroke="black" d="M646.34,-445.2C697.95,-439.1 793.39,-424.78 870,-396 917.73,-378.07 968.13,-346.73 998.32,-326.43"/>
<polygon fill="black" stroke="black" points="1000.2,-329.38 1006.5,-320.86 996.26,-323.6 1000.2,-329.38"/>
</g>
<!-- hash -->
<g id="node19" class="node">
<title>hash</title>
<ellipse fill="none" stroke="black" cx="431" cy="-234" rx="27" ry="18"/>
<text text-anchor="middle" x="431" y="-230.3" font-family="Times,serif" font-size="14.00">hash</text>
</g>
<!-- account&#45;&gt;hash -->
<g id="edge26" class="edge">
<title>account&#45;&gt;hash</title>
<path fill="none" stroke="black" d="M572.71,-443.76C524.34,-435.94 442.74,-419.57 425,-396 395.83,-357.25 408.93,-297.13 420.42,-262.37"/>
<polygon fill="black" stroke="black" points="423.68,-263.64 423.69,-253.04 417.08,-261.32 423.68,-263.64"/>
</g>
<!-- ed25519 -->
<g id="node20" class="node">
<title>ed25519</title>
<ellipse fill="none" stroke="black" cx="521" cy="-306" rx="40.89" ry="18"/>
<text text-anchor="middle" x="521" y="-302.3" font-family="Times,serif" font-size="14.00">ed25519</text>
</g>
<!-- account&#45;&gt;ed25519 -->
<g id="edge28" class="edge">
<title>account&#45;&gt;ed25519</title>
<path fill="none" stroke="black" d="M603.65,-431.71C597.45,-413.09 586.1,-383.05 571,-360 564.07,-349.41 554.92,-339.01 546.34,-330.26"/>
<polygon fill="black" stroke="black" points="549.05,-328.01 539.47,-323.49 544.14,-333 549.05,-328.01"/>
</g>
<!-- multi_ed25519 -->
<g id="node21" class="node">
<title>multi_ed25519</title>
<ellipse fill="none" stroke="black" cx="498" cy="-378" rx="64.19" ry="18"/>
<text text-anchor="middle" x="498" y="-374.3" font-family="Times,serif" font-size="14.00">multi_ed25519</text>
</g>
<!-- account&#45;&gt;multi_ed25519 -->
<g id="edge29" class="edge">
<title>account&#45;&gt;multi_ed25519</title>
<path fill="none" stroke="black" d="M586.8,-435C571.32,-425.24 550.36,-412.02 532.68,-400.87"/>
<polygon fill="black" stroke="black" points="534.87,-398.11 524.54,-395.74 531.13,-404.03 534.87,-398.11"/>
</g>
<!-- from_bcs -->
<g id="node22" class="node">
<title>from_bcs</title>
<ellipse fill="none" stroke="black" cx="749" cy="-234" rx="44.39" ry="18"/>
<text text-anchor="middle" x="749" y="-230.3" font-family="Times,serif" font-size="14.00">from_bcs</text>
</g>
<!-- account&#45;&gt;from_bcs -->
<g id="edge31" class="edge">
<title>account&#45;&gt;from_bcs</title>
<path fill="none" stroke="black" d="M632.98,-435.6C648.11,-426.16 667.15,-412.31 680,-396 712.15,-355.19 732.12,-297.14 741.85,-263.04"/>
<polygon fill="black" stroke="black" points="745.19,-264.07 744.46,-253.5 738.44,-262.22 745.19,-264.07"/>
</g>
<!-- coin&#45;&gt;option -->
<g id="edge33" class="edge">
<title>coin&#45;&gt;option</title>
<path fill="none" stroke="black" d="M927.79,-506.69C860.85,-443.7 592.06,-190.79 509.94,-113.53"/>
<polygon fill="black" stroke="black" points="512.51,-111.14 502.83,-106.84 507.72,-116.24 512.51,-111.14"/>
</g>
<!-- coin&#45;&gt;signer -->
<g id="edge35" class="edge">
<title>coin&#45;&gt;signer</title>
<path fill="none" stroke="black" d="M970,-518.68C1041.94,-512.34 1244.08,-493.48 1411,-468 1452.83,-461.61 1752.71,-423.36 1785,-396 1817.19,-368.73 1818,-349.19 1818,-307 1818,-307 1818,-307 1818,-233 1818,-193.17 1810.57,-147.61 1805,-119.07"/>
<polygon fill="black" stroke="black" points="1808.46,-118.54 1803.05,-109.43 1801.6,-119.93 1808.46,-118.54"/>
</g>
<!-- coin&#45;&gt;error -->
<g id="edge36" class="edge">
<title>coin&#45;&gt;error</title>
<path fill="none" stroke="black" d="M969.96,-520.02C1023.56,-517.26 1146.47,-506.85 1241,-468 1305.42,-441.52 1370,-448.65 1370,-379 1370,-379 1370,-379 1370,-233 1370,-177.58 1316.09,-132.44 1280.84,-108.84"/>
<polygon fill="black" stroke="black" points="1283.02,-106.08 1272.73,-103.59 1279.22,-111.96 1283.02,-106.08"/>
</g>
<!-- coin&#45;&gt;system_addresses -->
<g id="edge38" class="edge">
<title>coin&#45;&gt;system_addresses</title>
<path fill="none" stroke="black" d="M970.25,-521.15C1055.9,-521.09 1317.86,-516.84 1384,-468 1426.25,-436.8 1405.61,-405.42 1432,-360 1437.34,-350.81 1443.94,-341.31 1450.19,-332.93"/>
<polygon fill="black" stroke="black" points="1452.79,-335.29 1456.09,-325.22 1447.23,-331.03 1452.79,-335.29"/>
</g>
<!-- coin&#45;&gt;event -->
<g id="edge39" class="edge">
<title>coin&#45;&gt;event</title>
<path fill="none" stroke="black" d="M916.41,-518.27C821.05,-508.07 487.82,-469.06 222,-396 217.38,-394.73 212.55,-393.27 207.81,-391.75"/>
<polygon fill="black" stroke="black" points="209.03,-388.46 198.43,-388.63 206.82,-395.11 209.03,-388.46"/>
</g>
<!-- coin&#45;&gt;account -->
<g id="edge40" class="edge">
<title>coin&#45;&gt;account</title>
<path fill="none" stroke="black" d="M917.35,-515.62C860.94,-503.8 725.52,-475.42 654.39,-460.51"/>
<polygon fill="black" stroke="black" points="655.53,-457.18 645.03,-458.55 654.1,-464.03 655.53,-457.18"/>
</g>
<!-- coin&#45;&gt;type_info -->
<g id="edge37" class="edge">
<title>coin&#45;&gt;type_info</title>
<path fill="none" stroke="black" d="M942.27,-503.54C940.26,-455.76 934.67,-322.51 932.2,-263.61"/>
<polygon fill="black" stroke="black" points="935.7,-263.59 931.79,-253.74 928.71,-263.88 935.7,-263.59"/>
</g>
<!-- string -->
<g id="node23" class="node">
<title>string</title>
<ellipse fill="none" stroke="black" cx="785" cy="-162" rx="30.59" ry="18"/>
<text text-anchor="middle" x="785" y="-158.3" font-family="Times,serif" font-size="14.00">string</text>
</g>
<!-- coin&#45;&gt;string -->
<g id="edge34" class="edge">
<title>coin&#45;&gt;string</title>
<path fill="none" stroke="black" d="M939.53,-503.72C929.29,-455.41 896.05,-315.95 835,-216 828.2,-204.87 818.78,-194.12 809.94,-185.23"/>
<polygon fill="black" stroke="black" points="812.47,-182.81 802.84,-178.39 807.61,-187.85 812.47,-182.81"/>
</g>
<!-- optional_aggregator -->
<g id="node24" class="node">
<title>optional_aggregator</title>
<ellipse fill="none" stroke="black" cx="1151" cy="-450" rx="81.49" ry="18"/>
<text text-anchor="middle" x="1151" y="-446.3" font-family="Times,serif" font-size="14.00">optional_aggregator</text>
</g>
<!-- coin&#45;&gt;optional_aggregator -->
<g id="edge41" class="edge">
<title>coin&#45;&gt;optional_aggregator</title>
<path fill="none" stroke="black" d="M966.86,-512.97C998.37,-502.37 1054.79,-483.38 1096.9,-469.21"/>
<polygon fill="black" stroke="black" points="1097.75,-472.61 1106.11,-466.11 1095.51,-465.98 1097.75,-472.61"/>
</g>
<!-- aptos_coin&#45;&gt;vector -->
<g id="edge42" class="edge">
<title>aptos_coin&#45;&gt;vector</title>
<path fill="none" stroke="black" d="M894,-591.75C760.1,-587.91 390.33,-574.41 274,-540 109.64,-491.38 38,-406.4 38,-235 38,-235 38,-235 38,-161 38,-76.58 330.71,-35.86 442.93,-23.35"/>
<polygon fill="black" stroke="black" points="443.07,-26.85 452.64,-22.29 442.31,-19.89 443.07,-26.85"/>
</g>
<!-- aptos_coin&#45;&gt;option -->
<g id="edge43" class="edge">
<title>aptos_coin&#45;&gt;option</title>
<path fill="none" stroke="black" d="M894.24,-590.99C716.54,-582.38 114,-541.21 114,-379 114,-379 114,-379 114,-233 114,-163.25 345.15,-115.23 443.03,-98.02"/>
<polygon fill="black" stroke="black" points="443.53,-101.49 452.79,-96.33 442.34,-94.59 443.53,-101.49"/>
</g>
<!-- aptos_coin&#45;&gt;signer -->
<g id="edge45" class="edge">
<title>aptos_coin&#45;&gt;signer</title>
<path fill="none" stroke="black" d="M990.49,-589.19C1182.86,-572.49 1894,-497.83 1894,-307 1894,-307 1894,-307 1894,-233 1894,-183.49 1853.6,-138.17 1825.5,-112.62"/>
<polygon fill="black" stroke="black" points="1827.83,-110.02 1818.01,-106.05 1823.21,-115.27 1827.83,-110.02"/>
</g>
<!-- aptos_coin&#45;&gt;error -->
<g id="edge46" class="edge">
<title>aptos_coin&#45;&gt;error</title>
<path fill="none" stroke="black" d="M955.35,-576.23C962.63,-566.01 971.8,-552.54 979,-540 1023.15,-463.11 1020.54,-436.71 1065,-360 1119.63,-265.76 1196.84,-161.69 1232.11,-115.45"/>
<polygon fill="black" stroke="black" points="1234.75,-117.76 1238.05,-107.69 1229.19,-113.5 1234.75,-117.76"/>
</g>
<!-- aptos_coin&#45;&gt;system_addresses -->
<g id="edge47" class="edge">
<title>aptos_coin&#45;&gt;system_addresses</title>
<path fill="none" stroke="black" d="M992.25,-593.85C1085.87,-592.77 1290.87,-577.15 1411,-468 1449.28,-433.22 1463.23,-371.69 1468.25,-335.61"/>
<polygon fill="black" stroke="black" points="1471.69,-336.27 1469.44,-325.92 1464.74,-335.42 1471.69,-336.27"/>
</g>
<!-- aptos_coin&#45;&gt;coin -->
<g id="edge48" class="edge">
<title>aptos_coin&#45;&gt;coin</title>
<path fill="none" stroke="black" d="M943,-575.7C943,-568.41 943,-559.73 943,-551.54"/>
<polygon fill="black" stroke="black" points="946.5,-551.62 943,-541.62 939.5,-551.62 946.5,-551.62"/>
</g>
<!-- aptos_coin&#45;&gt;string -->
<g id="edge44" class="edge">
<title>aptos_coin&#45;&gt;string</title>
<path fill="none" stroke="black" d="M930.04,-576.56C922.54,-566.45 913.35,-552.99 907,-540 904.99,-535.88 821.71,-277.14 793.92,-190.74"/>
<polygon fill="black" stroke="black" points="797.31,-189.85 790.92,-181.4 790.65,-192 797.31,-189.85"/>
</g>
<!-- timestamp&#45;&gt;error -->
<g id="edge49" class="edge">
<title>timestamp&#45;&gt;error</title>
<path fill="none" stroke="black" d="M1691.35,-360.46C1657.64,-317.59 1560.8,-202.15 1453,-144 1400.5,-115.68 1332.04,-101.87 1289.83,-95.62"/>
<polygon fill="black" stroke="black" points="1290.54,-92.18 1280.15,-94.26 1289.57,-99.11 1290.54,-92.18"/>
</g>
<!-- timestamp&#45;&gt;system_addresses -->
<g id="edge50" class="edge">
<title>timestamp&#45;&gt;system_addresses</title>
<path fill="none" stroke="black" d="M1667.34,-365.99C1629.73,-354.69 1570.73,-336.96 1527.22,-323.89"/>
<polygon fill="black" stroke="black" points="1528.27,-320.55 1517.68,-321.03 1526.25,-327.25 1528.27,-320.55"/>
</g>
<!-- staking_config&#45;&gt;error -->
<g id="edge51" class="edge">
<title>staking_config&#45;&gt;error</title>
<path fill="none" stroke="black" d="M1573.43,-359.62C1571.14,-340.93 1565.67,-310.82 1553,-288 1509.67,-209.96 1488.73,-191.25 1413,-144 1374.2,-119.79 1323.22,-105.5 1288.89,-97.97"/>
<polygon fill="black" stroke="black" points="1289.92,-94.61 1279.41,-95.98 1288.48,-101.46 1289.92,-94.61"/>
</g>
<!-- staking_config&#45;&gt;system_addresses -->
<g id="edge52" class="edge">
<title>staking_config&#45;&gt;system_addresses</title>
<path fill="none" stroke="black" d="M1551.14,-360.94C1537.23,-351.58 1519.49,-339.64 1504.23,-329.37"/>
<polygon fill="black" stroke="black" points="1506.61,-326.75 1496.36,-324.07 1502.71,-332.56 1506.61,-326.75"/>
</g>
<!-- bls12381&#45;&gt;option -->
<g id="edge53" class="edge">
<title>bls12381&#45;&gt;option</title>
<path fill="none" stroke="black" d="M972.71,-153.66C955.42,-150.47 934.72,-146.83 916,-144 775.4,-122.77 607.97,-103.99 530,-95.62"/>
<polygon fill="black" stroke="black" points="530.54,-92.16 520.22,-94.58 529.79,-99.12 530.54,-92.16"/>
</g>
<!-- bls12381&#45;&gt;error -->
<g id="edge54" class="edge">
<title>bls12381&#45;&gt;error</title>
<path fill="none" stroke="black" d="M1045.05,-150.8C1052.6,-148.55 1060.57,-146.18 1068,-144 1119.05,-129 1178.2,-111.92 1215.11,-101.3"/>
<polygon fill="black" stroke="black" points="1215.72,-104.77 1224.37,-98.64 1213.79,-98.04 1215.72,-104.77"/>
</g>
<!-- type_info&#45;&gt;error -->
<g id="edge56" class="edge">
<title>type_info&#45;&gt;error</title>
<path fill="none" stroke="black" d="M931.36,-215.78C932.78,-195.49 938.35,-162.21 959,-144 996.06,-111.31 1141.53,-97.85 1212.13,-93.16"/>
<polygon fill="black" stroke="black" points="1211.93,-96.68 1221.69,-92.55 1211.48,-89.69 1211.93,-96.68"/>
</g>
<!-- type_info&#45;&gt;string -->
<g id="edge55" class="edge">
<title>type_info&#45;&gt;string</title>
<path fill="none" stroke="black" d="M903.19,-219.67C879.16,-208.15 844.35,-191.46 818.73,-179.17"/>
<polygon fill="black" stroke="black" points="820.26,-176.03 809.73,-174.86 817.24,-182.34 820.26,-176.03"/>
</g>
<!-- features -->
<g id="node25" class="node">
<title>features</title>
<ellipse fill="none" stroke="black" cx="1638" cy="-162" rx="38.19" ry="18"/>
<text text-anchor="middle" x="1638" y="-158.3" font-family="Times,serif" font-size="14.00">features</text>
</g>
<!-- type_info&#45;&gt;features -->
<g id="edge57" class="edge">
<title>type_info&#45;&gt;features</title>
<path fill="none" stroke="black" d="M973.9,-228.75C1098.34,-216.43 1458.89,-180.73 1589.79,-167.77"/>
<polygon fill="black" stroke="black" points="1589.89,-171.28 1599.49,-166.81 1589.2,-164.31 1589.89,-171.28"/>
</g>
<!-- ed25519&#45;&gt;option -->
<g id="edge58" class="edge">
<title>ed25519&#45;&gt;option</title>
<path fill="none" stroke="black" d="M517.19,-287.86C514.95,-277.51 512.14,-264.03 510,-252 501.78,-205.87 494.14,-151.95 489.78,-119.69"/>
<polygon fill="black" stroke="black" points="493.27,-119.39 488.47,-109.94 486.33,-120.32 493.27,-119.39"/>
</g>
<!-- ed25519&#45;&gt;error -->
<g id="edge59" class="edge">
<title>ed25519&#45;&gt;error</title>
<path fill="none" stroke="black" d="M521.96,-287.75C524.91,-253.34 536.96,-176.68 586,-144 638.1,-109.28 1076.6,-95.4 1211.6,-91.93"/>
<polygon fill="black" stroke="black" points="1211.55,-95.43 1221.46,-91.68 1211.38,-88.43 1211.55,-95.43"/>
</g>
<!-- ed25519&#45;&gt;bcs -->
<g id="edge62" class="edge">
<title>ed25519&#45;&gt;bcs</title>
<path fill="none" stroke="black" d="M489.44,-294.06C452.47,-281.25 391.46,-260.11 353.34,-246.9"/>
<polygon fill="black" stroke="black" points="354.79,-243.7 344.2,-243.73 352.5,-250.31 354.79,-243.7"/>
</g>
<!-- ed25519&#45;&gt;type_info -->
<g id="edge60" class="edge">
<title>ed25519&#45;&gt;type_info</title>
<path fill="none" stroke="black" d="M558.84,-298.54C632.58,-285.95 795.63,-258.11 879.28,-243.83"/>
<polygon fill="black" stroke="black" points="879.78,-247.3 889.05,-242.16 878.6,-240.4 879.78,-247.3"/>
</g>
<!-- ed25519&#45;&gt;hash -->
<g id="edge61" class="edge">
<title>ed25519&#45;&gt;hash</title>
<path fill="none" stroke="black" d="M501.47,-289.81C488.41,-279.65 471.08,-266.17 456.87,-255.12"/>
<polygon fill="black" stroke="black" points="459.3,-252.58 449.26,-249.2 455,-258.1 459.3,-252.58"/>
</g>
<!-- multi_ed25519&#45;&gt;option -->
<g id="edge63" class="edge">
<title>multi_ed25519&#45;&gt;option</title>
<path fill="none" stroke="black" d="M477.52,-360.61C452.28,-338.92 410.79,-298.01 395,-252 376.68,-198.61 426.43,-142.63 459.4,-112.79"/>
<polygon fill="black" stroke="black" points="461.44,-115.66 466.64,-106.43 456.82,-110.4 461.44,-115.66"/>
</g>
<!-- multi_ed25519&#45;&gt;error -->
<g id="edge64" class="edge">
<title>multi_ed25519&#45;&gt;error</title>
<path fill="none" stroke="black" d="M525.43,-361.48C540.29,-352.07 558.17,-339 571,-324 629.4,-255.73 588.55,-194.29 663,-144 708.36,-113.36 1087.41,-96.95 1211.7,-92.36"/>
<polygon fill="black" stroke="black" points="1211.54,-95.87 1221.4,-92.01 1211.28,-88.87 1211.54,-95.87"/>
</g>
<!-- multi_ed25519&#45;&gt;bcs -->
<g id="edge66" class="edge">
<title>multi_ed25519&#45;&gt;bcs</title>
<path fill="none" stroke="black" d="M446.87,-366.74C419.02,-358.96 385.54,-345.76 362,-324 344.28,-307.62 333.05,-282.38 326.53,-262.96"/>
<polygon fill="black" stroke="black" points="329.9,-261.99 323.59,-253.48 323.21,-264.06 329.9,-261.99"/>
</g>
<!-- multi_ed25519&#45;&gt;hash -->
<g id="edge65" class="edge">
<title>multi_ed25519&#45;&gt;hash</title>
<path fill="none" stroke="black" d="M489.03,-359.92C483.67,-349.58 476.8,-336.11 471,-324 461.11,-303.35 450.51,-279.69 442.71,-261.96"/>
<polygon fill="black" stroke="black" points="445.96,-260.66 438.74,-252.9 439.55,-263.46 445.96,-260.66"/>
</g>
<!-- multi_ed25519&#45;&gt;ed25519 -->
<g id="edge67" class="edge">
<title>multi_ed25519&#45;&gt;ed25519</title>
<path fill="none" stroke="black" d="M503.69,-359.7C506.14,-352.24 509.07,-343.32 511.81,-334.97"/>
<polygon fill="black" stroke="black" points="515.11,-336.14 514.91,-325.54 508.46,-333.95 515.11,-336.14"/>
</g>
<!-- from_bcs&#45;&gt;string -->
<g id="edge68" class="edge">
<title>from_bcs&#45;&gt;string</title>
<path fill="none" stroke="black" d="M757.71,-216.05C761.84,-208.03 766.87,-198.26 771.48,-189.3"/>
<polygon fill="black" stroke="black" points="774.46,-191.15 775.92,-180.65 768.24,-187.95 774.46,-191.15"/>
</g>
<!-- string&#45;&gt;vector -->
<g id="edge69" class="edge">
<title>string&#45;&gt;vector</title>
<path fill="none" stroke="black" d="M767.47,-146.91C742.92,-127.73 696.29,-93.36 652,-72 611.12,-52.28 561.13,-37.47 526.76,-28.59"/>
<polygon fill="black" stroke="black" points="527.76,-25.23 517.21,-26.18 526.05,-32.02 527.76,-25.23"/>
</g>
<!-- string&#45;&gt;option -->
<g id="edge70" class="edge">
<title>string&#45;&gt;option</title>
<path fill="none" stroke="black" d="M756.87,-154.41C703.77,-141.98 588.57,-115.01 526.91,-100.58"/>
<polygon fill="black" stroke="black" points="528.05,-97.25 517.52,-98.38 526.46,-104.07 528.05,-97.25"/>
</g>
<!-- optional_aggregator&#45;&gt;option -->
<g id="edge71" class="edge">
<title>optional_aggregator&#45;&gt;option</title>
<path fill="none" stroke="black" d="M1110.12,-434.2C1093.05,-425.78 1074.91,-413.37 1065,-396 1041.21,-354.3 1082.8,-331.73 1063,-288 1043.41,-244.72 1023.68,-242.12 984,-216 837.95,-119.87 623.34,-97.66 530.98,-92.54"/>
<polygon fill="black" stroke="black" points="531.23,-89.05 521.07,-92.03 530.88,-96.04 531.23,-89.05"/>
</g>
<!-- optional_aggregator&#45;&gt;error -->
<g id="edge72" class="edge">
<title>optional_aggregator&#45;&gt;error</title>
<path fill="none" stroke="black" d="M1197.61,-435.02C1251.24,-415.71 1332,-375.3 1332,-307 1332,-307 1332,-307 1332,-233 1332,-185.83 1297.86,-140.05 1273.9,-113.74"/>
<polygon fill="black" stroke="black" points="1276.67,-111.58 1267.27,-106.7 1271.58,-116.38 1276.67,-111.58"/>
</g>
<!-- aggregator -->
<g id="node26" class="node">
<title>aggregator</title>
<ellipse fill="none" stroke="black" cx="1251" cy="-306" rx="48.19" ry="18"/>
<text text-anchor="middle" x="1251" y="-302.3" font-family="Times,serif" font-size="14.00">aggregator</text>
</g>
<!-- optional_aggregator&#45;&gt;aggregator -->
<g id="edge73" class="edge">
<title>optional_aggregator&#45;&gt;aggregator</title>
<path fill="none" stroke="black" d="M1189.92,-433.98C1207.01,-425.41 1225.73,-412.94 1237,-396 1248.8,-378.27 1252.01,-354.22 1252.43,-335.59"/>
<polygon fill="black" stroke="black" points="1255.93,-335.74 1252.37,-325.76 1248.93,-335.79 1255.93,-335.74"/>
</g>
<!-- aggregator_factory -->
<g id="node27" class="node">
<title>aggregator_factory</title>
<ellipse fill="none" stroke="black" cx="1151" cy="-378" rx="77.19" ry="18"/>
<text text-anchor="middle" x="1151" y="-374.3" font-family="Times,serif" font-size="14.00">aggregator_factory</text>
</g>
<!-- optional_aggregator&#45;&gt;aggregator_factory -->
<g id="edge74" class="edge">
<title>optional_aggregator&#45;&gt;aggregator_factory</title>
<path fill="none" stroke="black" d="M1151,-431.7C1151,-424.41 1151,-415.73 1151,-407.54"/>
<polygon fill="black" stroke="black" points="1154.5,-407.62 1151,-397.62 1147.5,-407.62 1154.5,-407.62"/>
</g>
<!-- features&#45;&gt;signer -->
<g id="edge75" class="edge">
<title>features&#45;&gt;signer</title>
<path fill="none" stroke="black" d="M1665.31,-149.13C1692.4,-137.35 1734.03,-119.25 1763.63,-106.38"/>
<polygon fill="black" stroke="black" points="1764.78,-109.7 1772.55,-102.5 1761.99,-103.28 1764.78,-109.7"/>
</g>
<!-- features&#45;&gt;error -->
<g id="edge76" class="edge">
<title>features&#45;&gt;error</title>
<path fill="none" stroke="black" d="M1608.26,-150.38C1601.04,-148.05 1593.29,-145.76 1586,-144 1480.32,-118.54 1352.86,-102.24 1289.98,-95.13"/>
<polygon fill="black" stroke="black" points="1290.48,-91.66 1280.15,-94.03 1289.7,-98.62 1290.48,-91.66"/>
</g>
<!-- aggregator_factory&#45;&gt;error -->
<g id="edge77" class="edge">
<title>aggregator_factory&#45;&gt;error</title>
<path fill="none" stroke="black" d="M1156.96,-359.97C1173.63,-312.28 1220.89,-177.11 1241.36,-118.58"/>
<polygon fill="black" stroke="black" points="1244.58,-119.97 1244.58,-109.37 1237.97,-117.66 1244.58,-119.97"/>
</g>
<!-- aggregator_factory&#45;&gt;system_addresses -->
<g id="edge79" class="edge">
<title>aggregator_factory&#45;&gt;system_addresses</title>
<path fill="none" stroke="black" d="M1206.01,-364.97C1261.66,-352.79 1347.65,-333.98 1406.48,-321.11"/>
<polygon fill="black" stroke="black" points="1407.01,-324.58 1416.03,-319.03 1405.51,-317.74 1407.01,-324.58"/>
</g>
<!-- aggregator_factory&#45;&gt;table -->
<g id="edge78" class="edge">
<title>aggregator_factory&#45;&gt;table</title>
<path fill="none" stroke="black" d="M1122.32,-360.94C1102.68,-349.94 1076.66,-335.37 1056.62,-324.15"/>
<polygon fill="black" stroke="black" points="1058.5,-321.19 1048.07,-319.36 1055.08,-327.3 1058.5,-321.19"/>
</g>
<!-- aggregator_factory&#45;&gt;aggregator -->
<g id="edge80" class="edge">
<title>aggregator_factory&#45;&gt;aggregator</title>
<path fill="none" stroke="black" d="M1174.7,-360.41C1188.25,-350.93 1205.4,-338.92 1220.01,-328.69"/>
<polygon fill="black" stroke="black" points="1221.75,-331.74 1227.94,-323.14 1217.74,-326.01 1221.75,-331.74"/>
</g>
</g>
</svg>
