<?xml version="1.0" encoding="UTF-8" standalone="no"?>
<!DOCTYPE svg PUBLIC "-//W3C//DTD SVG 1.1//EN"
 "http://www.w3.org/Graphics/SVG/1.1/DTD/svg11.dtd">
<!-- Generated by graphviz version 7.0.0 (20221023.0053)
 -->
<!-- Title: G Pages: 1 -->
<svg width="1932pt" height="678pt"
 viewBox="0.00 0.00 1932.09 678.00" xmlns="http://www.w3.org/2000/svg" xmlns:xlink="http://www.w3.org/1999/xlink">
<g id="graph0" class="graph" transform="scale(1 1) rotate(0) translate(4 674)">
<title>G</title>
<polygon fill="white" stroke="none" points="-4,4 -4,-674 1928.09,-674 1928.09,4 -4,4"/>
<g id="clust1" class="cluster">
<title>cluster_pool_u64</title>
<polygon fill="none" stroke="black" points="1211.02,-174 1211.02,-626 1895.02,-626 1895.02,-174 1211.02,-174"/>
<text text-anchor="middle" x="1553.02" y="-610.8" font-family="Times,serif" font-size="14.00">pool_u64</text>
</g>
<g id="clust2" class="cluster">
<title>cluster_simple_map</title>
<polygon fill="none" stroke="black" points="390.02,-257 390.02,-407 903.02,-407 903.02,-257 390.02,-257"/>
<text text-anchor="middle" x="646.52" y="-391.8" font-family="Times,serif" font-size="14.00">simple_map</text>
</g>
<g id="clust3" class="cluster">
<title>cluster_error</title>
<polygon fill="none" stroke="black" points="911.02,-174 911.02,-332 1203.02,-332 1203.02,-174 911.02,-174"/>
<text text-anchor="middle" x="1057.02" y="-316.8" font-family="Times,serif" font-size="14.00">error</text>
</g>
<g id="clust4" class="cluster">
<title>cluster_option</title>
<polygon fill="none" stroke="black" points="426.02,-91 426.02,-249 757.02,-249 757.02,-91 426.02,-91"/>
<text text-anchor="middle" x="591.52" y="-233.8" font-family="Times,serif" font-size="14.00">option</text>
</g>
<g id="clust5" class="cluster">
<title>cluster_vector</title>
<polygon fill="none" stroke="black" points="273.02,-8 273.02,-83 676.02,-83 676.02,-8 273.02,-8"/>
<text text-anchor="middle" x="474.52" y="-67.8" font-family="Times,serif" font-size="14.00">vector</text>
</g>
<g id="clust6" class="cluster">
<title>cluster_comparator</title>
<polygon fill="none" stroke="black" points="62.02,-91 62.02,-249 314.02,-249 314.02,-91 62.02,-91"/>
<text text-anchor="middle" x="188.02" y="-233.8" font-family="Times,serif" font-size="14.00">comparator</text>
</g>
<g id="clust7" class="cluster">
<title>cluster_bcs</title>
<polygon fill="none" stroke="black" points="322.02,-91 322.02,-166 418.02,-166 418.02,-91 322.02,-91"/>
<text text-anchor="middle" x="370.02" y="-150.8" font-family="Times,serif" font-size="14.00">bcs</text>
</g>
<!-- update_distribution_pool -->
<g id="node1" class="node">
<title>update_distribution_pool</title>
<ellipse fill="none" stroke="black" cx="1753.02" cy="-652" rx="98.58" ry="18"/>
<text text-anchor="middle" x="1753.02" y="-648.3" font-family="Times,serif" font-size="14.00">update_distribution_pool</text>
</g>
<!-- pool_u64::balance -->
<g id="node2" class="node">
<title>pool_u64::balance</title>
<ellipse fill="none" stroke="black" cx="1534.02" cy="-505" rx="37.89" ry="18"/>
<text text-anchor="middle" x="1534.02" y="-501.3" font-family="Times,serif" font-size="14.00">balance</text>
</g>
<!-- update_distribution_pool&#45;&gt;pool_u64::balance -->
<g id="edge1" class="edge">
<title>update_distribution_pool&#45;&gt;pool_u64::balance</title>
<path fill="none" stroke="black" d="M1769.06,-633.87C1770.67,-631.38 1772.06,-628.73 1773.02,-626 1782.88,-597.9 1791.66,-582.22 1773.02,-559 1749.61,-529.82 1645.37,-515.71 1582.55,-509.74"/>
<polygon fill="black" stroke="black" points="1583.11,-506.28 1572.84,-508.86 1582.48,-513.25 1583.11,-506.28"/>
</g>
<!-- pool_u64::amount_to_shares_with_total_coins -->
<g id="node3" class="node">
<title>pool_u64::amount_to_shares_with_total_coins</title>
<ellipse fill="none" stroke="black" cx="1749.02" cy="-358" rx="137.58" ry="18"/>
<text text-anchor="middle" x="1749.02" y="-354.3" font-family="Times,serif" font-size="14.00">amount_to_shares_with_total_coins</text>
</g>
<!-- update_distribution_pool&#45;&gt;pool_u64::amount_to_shares_with_total_coins -->
<g id="edge2" class="edge">
<title>update_distribution_pool&#45;&gt;pool_u64::amount_to_shares_with_total_coins</title>
<path fill="none" stroke="black" d="M1838.86,-642.77C1858.59,-639.06 1875.67,-633.7 1882.02,-626 1941.69,-553.66 1933.89,-493.12 1882.02,-415 1870.68,-397.92 1853,-386.03 1834.18,-377.77"/>
<polygon fill="black" stroke="black" points="1835.64,-374.58 1825.05,-374.11 1833.03,-381.08 1835.64,-374.58"/>
</g>
<!-- pool_u64::total_coins -->
<g id="node4" class="node">
<title>pool_u64::total_coins</title>
<ellipse fill="none" stroke="black" cx="1715.02" cy="-577" rx="49.29" ry="18"/>
<text text-anchor="middle" x="1715.02" y="-573.3" font-family="Times,serif" font-size="14.00">total_coins</text>
</g>
<!-- update_distribution_pool&#45;&gt;pool_u64::total_coins -->
<g id="edge3" class="edge">
<title>update_distribution_pool&#45;&gt;pool_u64::total_coins</title>
<path fill="none" stroke="black" d="M1744.02,-633.7C1739.61,-625.25 1734.21,-614.87 1729.27,-605.37"/>
<polygon fill="black" stroke="black" points="1732.38,-603.77 1724.66,-596.52 1726.17,-607 1732.38,-603.77"/>
</g>
<!-- pool_u64::shareholders -->
<g id="node5" class="node">
<title>pool_u64::shareholders</title>
<ellipse fill="none" stroke="black" cx="1592.02" cy="-577" rx="55.49" ry="18"/>
<text text-anchor="middle" x="1592.02" y="-573.3" font-family="Times,serif" font-size="14.00">shareholders</text>
</g>
<!-- update_distribution_pool&#45;&gt;pool_u64::shareholders -->
<g id="edge4" class="edge">
<title>update_distribution_pool&#45;&gt;pool_u64::shareholders</title>
<path fill="none" stroke="black" d="M1688.81,-637.92C1677.94,-634.69 1666.97,-630.75 1657.02,-626 1643.57,-619.58 1630.09,-610.22 1618.92,-601.47"/>
<polygon fill="black" stroke="black" points="1621.27,-598.87 1611.3,-595.29 1616.86,-604.31 1621.27,-598.87"/>
</g>
<!-- pool_u64::shares -->
<g id="node6" class="node">
<title>pool_u64::shares</title>
<ellipse fill="none" stroke="black" cx="1389.02" cy="-433" rx="32.49" ry="18"/>
<text text-anchor="middle" x="1389.02" y="-429.3" font-family="Times,serif" font-size="14.00">shares</text>
</g>
<!-- update_distribution_pool&#45;&gt;pool_u64::shares -->
<g id="edge5" class="edge">
<title>update_distribution_pool&#45;&gt;pool_u64::shares</title>
<path fill="none" stroke="black" d="M1785.11,-634.68C1787.85,-632.13 1790.25,-629.25 1792.02,-626 1806.31,-599.87 1809.35,-583.22 1792.02,-559 1699.28,-429.36 1603.65,-493.52 1450.02,-451 1443.07,-449.08 1435.67,-447.02 1428.51,-445.03"/>
<polygon fill="black" stroke="black" points="1429.6,-441.7 1419.02,-442.38 1427.72,-448.44 1429.6,-441.7"/>
</g>
<!-- pool_u64::shares_to_amount_with_total_coins -->
<g id="node7" class="node">
<title>pool_u64::shares_to_amount_with_total_coins</title>
<ellipse fill="none" stroke="black" cx="1455.02" cy="-358" rx="137.58" ry="18"/>
<text text-anchor="middle" x="1455.02" y="-354.3" font-family="Times,serif" font-size="14.00">shares_to_amount_with_total_coins</text>
</g>
<!-- update_distribution_pool&#45;&gt;pool_u64::shares_to_amount_with_total_coins -->
<g id="edge6" class="edge">
<title>update_distribution_pool&#45;&gt;pool_u64::shares_to_amount_with_total_coins</title>
<path fill="none" stroke="black" d="M1801.28,-636.06C1805.07,-633.26 1808.43,-629.94 1811.02,-626 1848.2,-569.49 1801.57,-529.6 1749.02,-487 1697.41,-445.16 1678.77,-441.89 1618.02,-415 1586.46,-401.03 1550.26,-388.28 1519.99,-378.49"/>
<polygon fill="black" stroke="black" points="1521.17,-375.19 1510.57,-375.48 1519.03,-381.86 1521.17,-375.19"/>
</g>
<!-- pool_u64::transfer_shares -->
<g id="node8" class="node">
<title>pool_u64::transfer_shares</title>
<ellipse fill="none" stroke="black" cx="1455.02" cy="-577" rx="63.89" ry="18"/>
<text text-anchor="middle" x="1455.02" y="-573.3" font-family="Times,serif" font-size="14.00">transfer_shares</text>
</g>
<!-- update_distribution_pool&#45;&gt;pool_u64::transfer_shares -->
<g id="edge7" class="edge">
<title>update_distribution_pool&#45;&gt;pool_u64::transfer_shares</title>
<path fill="none" stroke="black" d="M1661.21,-645.14C1610.14,-641.03 1552.15,-634.7 1528.02,-626 1512.22,-620.3 1496.42,-610.55 1483.59,-601.31"/>
<polygon fill="black" stroke="black" points="1485.71,-598.53 1475.61,-595.34 1481.52,-604.14 1485.71,-598.53"/>
</g>
<!-- pool_u64::update_total_coins -->
<g id="node9" class="node">
<title>pool_u64::update_total_coins</title>
<ellipse fill="none" stroke="black" cx="1296.02" cy="-577" rx="77.19" ry="18"/>
<text text-anchor="middle" x="1296.02" y="-573.3" font-family="Times,serif" font-size="14.00">update_total_coins</text>
</g>
<!-- update_distribution_pool&#45;&gt;pool_u64::update_total_coins -->
<g id="edge8" class="edge">
<title>update_distribution_pool&#45;&gt;pool_u64::update_total_coins</title>
<path fill="none" stroke="black" d="M1655.22,-649.25C1562.84,-646.72 1431.3,-640.61 1382.02,-626 1363.19,-620.42 1343.95,-610.19 1328.46,-600.6"/>
<polygon fill="black" stroke="black" points="1330.44,-597.71 1320.13,-595.26 1326.66,-603.6 1330.44,-597.71"/>
</g>
<!-- pool_u64::balance&#45;&gt;pool_u64::shares -->
<g id="edge9" class="edge">
<title>pool_u64::balance&#45;&gt;pool_u64::shares</title>
<path fill="none" stroke="black" d="M1508.1,-491.49C1484.33,-480.01 1448.98,-462.94 1422.96,-450.39"/>
<polygon fill="black" stroke="black" points="1424.69,-447.33 1414.16,-446.14 1421.64,-453.64 1424.69,-447.33"/>
</g>
<!-- pool_u64::shares_to_amount -->
<g id="node10" class="node">
<title>pool_u64::shares_to_amount</title>
<ellipse fill="none" stroke="black" cx="1534.02" cy="-433" rx="75.29" ry="18"/>
<text text-anchor="middle" x="1534.02" y="-429.3" font-family="Times,serif" font-size="14.00">shares_to_amount</text>
</g>
<!-- pool_u64::balance&#45;&gt;pool_u64::shares_to_amount -->
<g id="edge10" class="edge">
<title>pool_u64::balance&#45;&gt;pool_u64::shares_to_amount</title>
<path fill="none" stroke="black" d="M1534.02,-486.7C1534.02,-479.41 1534.02,-470.73 1534.02,-462.54"/>
<polygon fill="black" stroke="black" points="1537.52,-462.62 1534.02,-452.62 1530.52,-462.62 1537.52,-462.62"/>
</g>
<!-- pool_u64::multiply_then_divide -->
<g id="node11" class="node">
<title>pool_u64::multiply_then_divide</title>
<ellipse fill="none" stroke="black" cx="1602.02" cy="-283" rx="87.18" ry="18"/>
<text text-anchor="middle" x="1602.02" y="-279.3" font-family="Times,serif" font-size="14.00">multiply_then_divide</text>
</g>
<!-- pool_u64::amount_to_shares_with_total_coins&#45;&gt;pool_u64::multiply_then_divide -->
<g id="edge11" class="edge">
<title>pool_u64::amount_to_shares_with_total_coins&#45;&gt;pool_u64::multiply_then_divide</title>
<path fill="none" stroke="black" d="M1715.3,-340.25C1694.37,-329.86 1667.28,-316.41 1644.85,-305.27"/>
<polygon fill="black" stroke="black" points="1646.45,-302.15 1635.93,-300.84 1643.33,-308.42 1646.45,-302.15"/>
</g>
<!-- simple_map::borrow -->
<g id="node12" class="node">
<title>simple_map::borrow</title>
<ellipse fill="none" stroke="black" cx="859.02" cy="-358" rx="36.29" ry="18"/>
<text text-anchor="middle" x="859.02" y="-354.3" font-family="Times,serif" font-size="14.00">borrow</text>
</g>
<!-- pool_u64::shares&#45;&gt;simple_map::borrow -->
<g id="edge12" class="edge">
<title>pool_u64::shares&#45;&gt;simple_map::borrow</title>
<path fill="none" stroke="black" d="M1361.36,-422.99C1351,-419.97 1339.08,-416.89 1328.02,-415 1274.89,-405.94 1260.64,-412.46 1207.02,-407 1097.98,-395.89 970.54,-376.72 904.27,-366.29"/>
<polygon fill="black" stroke="black" points="904.93,-362.85 894.5,-364.74 903.83,-369.76 904.93,-362.85"/>
</g>
<!-- pool_u64::contains -->
<g id="node13" class="node">
<title>pool_u64::contains</title>
<ellipse fill="none" stroke="black" cx="1259.02" cy="-358" rx="40.09" ry="18"/>
<text text-anchor="middle" x="1259.02" y="-354.3" font-family="Times,serif" font-size="14.00">contains</text>
</g>
<!-- pool_u64::shares&#45;&gt;pool_u64::contains -->
<g id="edge13" class="edge">
<title>pool_u64::shares&#45;&gt;pool_u64::contains</title>
<path fill="none" stroke="black" d="M1362.95,-421.7C1356.49,-419.33 1349.55,-416.94 1343.02,-415 1327.73,-410.45 1322.03,-414.65 1308.02,-407 1297.2,-401.09 1287.12,-392.12 1278.95,-383.52"/>
<polygon fill="black" stroke="black" points="1281.76,-381.4 1272.47,-376.3 1276.55,-386.08 1281.76,-381.4"/>
</g>
<!-- pool_u64::shares_to_amount_with_total_coins&#45;&gt;pool_u64::multiply_then_divide -->
<g id="edge14" class="edge">
<title>pool_u64::shares_to_amount_with_total_coins&#45;&gt;pool_u64::multiply_then_divide</title>
<path fill="none" stroke="black" d="M1488.75,-340.25C1509.67,-329.86 1536.76,-316.41 1559.2,-305.27"/>
<polygon fill="black" stroke="black" points="1560.71,-308.42 1568.11,-300.84 1557.6,-302.15 1560.71,-308.42"/>
</g>
<!-- pool_u64::transfer_shares&#45;&gt;pool_u64::shares -->
<g id="edge19" class="edge">
<title>pool_u64::transfer_shares&#45;&gt;pool_u64::shares</title>
<path fill="none" stroke="black" d="M1447.06,-558.87C1435.75,-534.54 1414.92,-489.73 1401.54,-460.93"/>
<polygon fill="black" stroke="black" points="1404.83,-459.71 1397.44,-452.12 1398.48,-462.66 1404.83,-459.71"/>
</g>
<!-- pool_u64::transfer_shares&#45;&gt;pool_u64::contains -->
<g id="edge16" class="edge">
<title>pool_u64::transfer_shares&#45;&gt;pool_u64::contains</title>
<path fill="none" stroke="black" d="M1454.95,-558.72C1454.39,-521.18 1450.84,-434.05 1430.02,-415 1409.98,-396.66 1332.83,-418.09 1308.02,-407 1296.61,-401.9 1286.31,-392.91 1278.14,-384.07"/>
<polygon fill="black" stroke="black" points="1280.87,-381.89 1271.7,-376.59 1275.57,-386.45 1280.87,-381.89"/>
</g>
<!-- error::invalid_argument -->
<g id="node14" class="node">
<title>error::invalid_argument</title>
<ellipse fill="none" stroke="black" cx="992.02" cy="-283" rx="73.39" ry="18"/>
<text text-anchor="middle" x="992.02" y="-279.3" font-family="Times,serif" font-size="14.00">invalid_argument</text>
</g>
<!-- pool_u64::transfer_shares&#45;&gt;error::invalid_argument -->
<g id="edge15" class="edge">
<title>pool_u64::transfer_shares&#45;&gt;error::invalid_argument</title>
<path fill="none" stroke="black" d="M1407.15,-564.69C1398.78,-562.76 1390.15,-560.8 1382.02,-559 1305.76,-542.14 1281.75,-553.9 1210.02,-523 1127.02,-487.25 1099.73,-477.36 1043.02,-407 1020.15,-378.62 1006.1,-338.54 998.69,-311.94"/>
<polygon fill="black" stroke="black" points="1002.15,-311.34 996.21,-302.56 995.38,-313.12 1002.15,-311.34"/>
</g>
<!-- pool_u64::add_shares -->
<g id="node15" class="node">
<title>pool_u64::add_shares</title>
<ellipse fill="none" stroke="black" cx="1269.02" cy="-433" rx="50.09" ry="18"/>
<text text-anchor="middle" x="1269.02" y="-429.3" font-family="Times,serif" font-size="14.00">add_shares</text>
</g>
<!-- pool_u64::transfer_shares&#45;&gt;pool_u64::add_shares -->
<g id="edge17" class="edge">
<title>pool_u64::transfer_shares&#45;&gt;pool_u64::add_shares</title>
<path fill="none" stroke="black" d="M1436.17,-559.31C1415.17,-540.95 1379.94,-510.88 1348.02,-487 1333.41,-476.07 1316.69,-464.7 1302.41,-455.31"/>
<polygon fill="black" stroke="black" points="1304.52,-452.51 1294.24,-449.98 1300.7,-458.37 1304.52,-452.51"/>
</g>
<!-- pool_u64::deduct_shares -->
<g id="node16" class="node">
<title>pool_u64::deduct_shares</title>
<ellipse fill="none" stroke="black" cx="1279.02" cy="-505" rx="60.39" ry="18"/>
<text text-anchor="middle" x="1279.02" y="-501.3" font-family="Times,serif" font-size="14.00">deduct_shares</text>
</g>
<!-- pool_u64::transfer_shares&#45;&gt;pool_u64::deduct_shares -->
<g id="edge18" class="edge">
<title>pool_u64::transfer_shares&#45;&gt;pool_u64::deduct_shares</title>
<path fill="none" stroke="black" d="M1419.4,-561.83C1392.12,-550.98 1354.27,-535.93 1324.75,-524.19"/>
<polygon fill="black" stroke="black" points="1326.28,-521.03 1315.69,-520.58 1323.69,-527.53 1326.28,-521.03"/>
</g>
<!-- pool_u64::shares_to_amount&#45;&gt;pool_u64::shares_to_amount_with_total_coins -->
<g id="edge20" class="edge">
<title>pool_u64::shares_to_amount&#45;&gt;pool_u64::shares_to_amount_with_total_coins</title>
<path fill="none" stroke="black" d="M1515.7,-415.07C1505.6,-405.74 1492.88,-393.99 1481.7,-383.65"/>
<polygon fill="black" stroke="black" points="1484.35,-381.34 1474.63,-377.12 1479.6,-386.48 1484.35,-381.34"/>
</g>
<!-- pool_u64::to_u128 -->
<g id="node17" class="node">
<title>pool_u64::to_u128</title>
<ellipse fill="none" stroke="black" cx="1602.02" cy="-200" rx="39.79" ry="18"/>
<text text-anchor="middle" x="1602.02" y="-196.3" font-family="Times,serif" font-size="14.00">to_u128</text>
</g>
<!-- pool_u64::multiply_then_divide&#45;&gt;pool_u64::to_u128 -->
<g id="edge21" class="edge">
<title>pool_u64::multiply_then_divide&#45;&gt;pool_u64::to_u128</title>
<path fill="none" stroke="black" d="M1602.02,-264.82C1602.02,-254.69 1602.02,-241.6 1602.02,-229.92"/>
<polygon fill="black" stroke="black" points="1605.52,-229.95 1602.02,-219.95 1598.52,-229.95 1605.52,-229.95"/>
</g>
<!-- simple_map::borrow&#45;&gt;error::invalid_argument -->
<g id="edge24" class="edge">
<title>simple_map::borrow&#45;&gt;error::invalid_argument</title>
<path fill="none" stroke="black" d="M883.52,-344.44C891.09,-340.51 899.42,-336.12 907.02,-332 922.63,-323.53 939.71,-313.95 954.44,-305.59"/>
<polygon fill="black" stroke="black" points="955.93,-308.76 962.89,-300.77 952.47,-302.68 955.93,-308.76"/>
</g>
<!-- option::extract -->
<g id="node18" class="node">
<title>option::extract</title>
<ellipse fill="none" stroke="black" cx="715.02" cy="-200" rx="34.39" ry="18"/>
<text text-anchor="middle" x="715.02" y="-196.3" font-family="Times,serif" font-size="14.00">extract</text>
</g>
<!-- simple_map::borrow&#45;&gt;option::extract -->
<g id="edge22" class="edge">
<title>simple_map::borrow&#45;&gt;option::extract</title>
<path fill="none" stroke="black" d="M844.42,-341.18C819.06,-313.71 766.75,-257.04 736.99,-224.8"/>
<polygon fill="black" stroke="black" points="739.61,-222.48 730.26,-217.51 734.47,-227.23 739.61,-222.48"/>
</g>
<!-- option::is_some -->
<g id="node19" class="node">
<title>option::is_some</title>
<ellipse fill="none" stroke="black" cx="709.02" cy="-117" rx="40.09" ry="18"/>
<text text-anchor="middle" x="709.02" y="-113.3" font-family="Times,serif" font-size="14.00">is_some</text>
</g>
<!-- simple_map::borrow&#45;&gt;option::is_some -->
<g id="edge23" class="edge">
<title>simple_map::borrow&#45;&gt;option::is_some</title>
<path fill="none" stroke="black" d="M864.62,-339.97C874.92,-305.2 892.7,-225.04 857.02,-174 835.1,-142.64 793.24,-128.83 759.61,-122.75"/>
<polygon fill="black" stroke="black" points="760.49,-119.35 750.06,-121.21 759.37,-126.26 760.49,-119.35"/>
</g>
<!-- simple_map::find -->
<g id="node20" class="node">
<title>simple_map::find</title>
<ellipse fill="none" stroke="black" cx="532.02" cy="-283" rx="27" ry="18"/>
<text text-anchor="middle" x="532.02" y="-279.3" font-family="Times,serif" font-size="14.00">find</text>
</g>
<!-- simple_map::borrow&#45;&gt;simple_map::find -->
<g id="edge25" class="edge">
<title>simple_map::borrow&#45;&gt;simple_map::find</title>
<path fill="none" stroke="black" d="M831.71,-345.66C825.94,-343.55 819.83,-341.54 814.02,-340 791.84,-334.14 785.59,-336.11 763.02,-332 694.07,-319.44 614.09,-302.22 568.63,-292.19"/>
<polygon fill="black" stroke="black" points="569.58,-288.81 559.06,-290.07 568.06,-295.65 569.58,-288.81"/>
</g>
<!-- simple_map::contains_key -->
<g id="node21" class="node">
<title>simple_map::contains_key</title>
<ellipse fill="none" stroke="black" cx="455.02" cy="-358" rx="57.39" ry="18"/>
<text text-anchor="middle" x="455.02" y="-354.3" font-family="Times,serif" font-size="14.00">contains_key</text>
</g>
<!-- pool_u64::contains&#45;&gt;simple_map::contains_key -->
<g id="edge26" class="edge">
<title>pool_u64::contains&#45;&gt;simple_map::contains_key</title>
<path fill="none" stroke="black" d="M1221.8,-365.3C1156.55,-377.68 1017.11,-402.3 898.02,-411 877.63,-412.49 550.02,-415.24 530.02,-411 511.09,-406.98 493.24,-394.85 479.71,-383.21"/>
<polygon fill="black" stroke="black" points="482.35,-380.88 472.6,-376.74 477.64,-386.06 482.35,-380.88"/>
</g>
<!-- error::canonical -->
<g id="node22" class="node">
<title>error::canonical</title>
<ellipse fill="none" stroke="black" cx="1065.02" cy="-200" rx="44.39" ry="18"/>
<text text-anchor="middle" x="1065.02" y="-196.3" font-family="Times,serif" font-size="14.00">canonical</text>
</g>
<!-- error::invalid_argument&#45;&gt;error::canonical -->
<g id="edge27" class="edge">
<title>error::invalid_argument&#45;&gt;error::canonical</title>
<path fill="none" stroke="black" d="M1007.15,-265.22C1017.46,-253.77 1031.29,-238.42 1042.85,-225.6"/>
<polygon fill="black" stroke="black" points="1045.3,-228.1 1049.4,-218.33 1040.11,-223.42 1045.3,-228.1"/>
</g>
<!-- pool_u64::add_shares&#45;&gt;pool_u64::contains -->
<g id="edge32" class="edge">
<title>pool_u64::add_shares&#45;&gt;pool_u64::contains</title>
<path fill="none" stroke="black" d="M1266.65,-414.7C1265.55,-406.67 1264.21,-396.9 1262.97,-387.8"/>
<polygon fill="black" stroke="black" points="1266.44,-387.36 1261.61,-377.93 1259.5,-388.31 1266.44,-387.36"/>
</g>
<!-- pool_u64::add_shares&#45;&gt;error::invalid_argument -->
<g id="edge28" class="edge">
<title>pool_u64::add_shares&#45;&gt;error::invalid_argument</title>
<path fill="none" stroke="black" d="M1220.14,-428.51C1201.18,-425.18 1180.19,-418.86 1164.02,-407 1136.06,-386.48 1152.73,-359.46 1124.02,-340 1105.39,-327.37 1095.21,-339.59 1074.02,-332 1056.74,-325.81 1038.98,-315.92 1024.43,-306.73"/>
<polygon fill="black" stroke="black" points="1026.47,-303.88 1016.18,-301.36 1022.65,-309.75 1026.47,-303.88"/>
</g>
<!-- error::invalid_state -->
<g id="node23" class="node">
<title>error::invalid_state</title>
<ellipse fill="none" stroke="black" cx="1139.02" cy="-283" rx="55.79" ry="18"/>
<text text-anchor="middle" x="1139.02" y="-279.3" font-family="Times,serif" font-size="14.00">invalid_state</text>
</g>
<!-- pool_u64::add_shares&#45;&gt;error::invalid_state -->
<g id="edge29" class="edge">
<title>pool_u64::add_shares&#45;&gt;error::invalid_state</title>
<path fill="none" stroke="black" d="M1231.93,-420.61C1224.13,-417.08 1216.35,-412.6 1210.02,-407 1194.26,-393.06 1167.95,-343.02 1152.16,-311.22"/>
<polygon fill="black" stroke="black" points="1155.47,-310.01 1147.91,-302.58 1149.18,-313.09 1155.47,-310.01"/>
</g>
<!-- simple_map::borrow_mut -->
<g id="node24" class="node">
<title>simple_map::borrow_mut</title>
<ellipse fill="none" stroke="black" cx="750.02" cy="-358" rx="54.69" ry="18"/>
<text text-anchor="middle" x="750.02" y="-354.3" font-family="Times,serif" font-size="14.00">borrow_mut</text>
</g>
<!-- pool_u64::add_shares&#45;&gt;simple_map::borrow_mut -->
<g id="edge30" class="edge">
<title>pool_u64::add_shares&#45;&gt;simple_map::borrow_mut</title>
<path fill="none" stroke="black" d="M1221.56,-426.91C1183.59,-423.03 1128.95,-417.88 1081.02,-415 1051.39,-413.22 842.03,-416.81 814.02,-407 799.68,-401.98 785.91,-392.49 774.85,-383.26"/>
<polygon fill="black" stroke="black" points="777.18,-380.66 767.37,-376.68 772.56,-385.91 777.18,-380.66"/>
</g>
<!-- simple_map::add -->
<g id="node25" class="node">
<title>simple_map::add</title>
<ellipse fill="none" stroke="black" cx="557.02" cy="-358" rx="27" ry="18"/>
<text text-anchor="middle" x="557.02" y="-354.3" font-family="Times,serif" font-size="14.00">add</text>
</g>
<!-- pool_u64::add_shares&#45;&gt;simple_map::add -->
<g id="edge31" class="edge">
<title>pool_u64::add_shares&#45;&gt;simple_map::add</title>
<path fill="none" stroke="black" d="M1219.89,-428.6C1161.53,-424.7 1061.23,-418.39 975.02,-415 953.81,-414.16 611.91,-416.69 593.02,-407 583.7,-402.21 576.14,-393.77 570.4,-385.29"/>
<polygon fill="black" stroke="black" points="573.45,-383.58 565.29,-376.83 567.46,-387.2 573.45,-383.58"/>
</g>
<!-- pool_u64::deduct_shares&#45;&gt;pool_u64::shares -->
<g id="edge39" class="edge">
<title>pool_u64::deduct_shares&#45;&gt;pool_u64::shares</title>
<path fill="none" stroke="black" d="M1303.71,-488.29C1319.91,-477.98 1341.22,-464.42 1358.48,-453.43"/>
<polygon fill="black" stroke="black" points="1360.28,-456.44 1366.84,-448.12 1356.52,-450.53 1360.28,-456.44"/>
</g>
<!-- pool_u64::deduct_shares&#45;&gt;pool_u64::contains -->
<g id="edge38" class="edge">
<title>pool_u64::deduct_shares&#45;&gt;pool_u64::contains</title>
<path fill="none" stroke="black" d="M1299.02,-487.72C1318.96,-469.47 1344.44,-439.25 1328.02,-415 1322.65,-407.07 1316.04,-412.23 1308.02,-407 1298.1,-400.53 1288.49,-391.84 1280.45,-383.64"/>
<polygon fill="black" stroke="black" points="1283.13,-381.37 1273.73,-376.48 1278.02,-386.16 1283.13,-381.37"/>
</g>
<!-- pool_u64::deduct_shares&#45;&gt;error::invalid_argument -->
<g id="edge35" class="edge">
<title>pool_u64::deduct_shares&#45;&gt;error::invalid_argument</title>
<path fill="none" stroke="black" d="M1251.09,-488.68C1219.22,-470.72 1166.07,-439.28 1124.02,-407 1083.84,-376.16 1041.75,-335.2 1016.19,-309.21"/>
<polygon fill="black" stroke="black" points="1018.74,-306.8 1009.25,-302.09 1013.73,-311.69 1018.74,-306.8"/>
</g>
<!-- pool_u64::deduct_shares&#45;&gt;simple_map::borrow_mut -->
<g id="edge36" class="edge">
<title>pool_u64::deduct_shares&#45;&gt;simple_map::borrow_mut</title>
<path fill="none" stroke="black" d="M1231.71,-493.58C1194.12,-484.52 1140.64,-469.89 1096.02,-451 1066.32,-438.43 1064.03,-423.84 1033.02,-415 986.19,-401.64 859.93,-423.24 814.02,-407 799.7,-401.93 785.93,-392.43 774.86,-383.22"/>
<polygon fill="black" stroke="black" points="777.2,-380.61 767.38,-376.64 772.58,-385.87 777.2,-380.61"/>
</g>
<!-- vector::index_of -->
<g id="node26" class="node">
<title>vector::index_of</title>
<ellipse fill="none" stroke="black" cx="323.02" cy="-34" rx="42.49" ry="18"/>
<text text-anchor="middle" x="323.02" y="-30.3" font-family="Times,serif" font-size="14.00">index_of</text>
</g>
<!-- pool_u64::deduct_shares&#45;&gt;vector::index_of -->
<g id="edge33" class="edge">
<title>pool_u64::deduct_shares&#45;&gt;vector::index_of</title>
<path fill="none" stroke="black" d="M1218.38,-503.56C965,-500.93 4.02,-482.78 4.02,-359 4.02,-359 4.02,-359 4.02,-199 4.02,-150.34 -12.06,-125.73 22.02,-91 55.71,-56.67 192.17,-42.9 269.28,-37.77"/>
<polygon fill="black" stroke="black" points="269.39,-41.27 279.15,-37.14 268.95,-34.28 269.39,-41.27"/>
</g>
<!-- vector::remove -->
<g id="node27" class="node">
<title>vector::remove</title>
<ellipse fill="none" stroke="black" cx="421.02" cy="-34" rx="37.89" ry="18"/>
<text text-anchor="middle" x="421.02" y="-30.3" font-family="Times,serif" font-size="14.00">remove</text>
</g>
<!-- pool_u64::deduct_shares&#45;&gt;vector::remove -->
<g id="edge34" class="edge">
<title>pool_u64::deduct_shares&#45;&gt;vector::remove</title>
<path fill="none" stroke="black" d="M1218.96,-502.19C990.8,-493.81 184.38,-450.13 58.02,-249 20.66,-189.54 9,-141.28 58.02,-91 70.28,-78.43 357.92,-90.01 374.02,-83 385.25,-78.11 395.17,-69.16 402.97,-60.3"/>
<polygon fill="black" stroke="black" points="405.48,-62.76 409.08,-52.79 400.05,-58.34 405.48,-62.76"/>
</g>
<!-- simple_map::remove -->
<g id="node28" class="node">
<title>simple_map::remove</title>
<ellipse fill="none" stroke="black" cx="640.02" cy="-358" rx="37.89" ry="18"/>
<text text-anchor="middle" x="640.02" y="-354.3" font-family="Times,serif" font-size="14.00">remove</text>
</g>
<!-- pool_u64::deduct_shares&#45;&gt;simple_map::remove -->
<g id="edge37" class="edge">
<title>pool_u64::deduct_shares&#45;&gt;simple_map::remove</title>
<path fill="none" stroke="black" d="M1223.68,-497.6C1172.75,-490.44 1095.81,-476.36 1033.02,-451 1004.89,-439.64 1004.08,-423.72 975.02,-415 944.25,-405.77 715.39,-420.02 686.02,-407 675.06,-402.14 665.41,-393.32 657.83,-384.55"/>
<polygon fill="black" stroke="black" points="660.61,-382.42 651.64,-376.79 655.13,-386.79 660.61,-382.42"/>
</g>
<!-- option::extract&#45;&gt;option::is_some -->
<g id="edge40" class="edge">
<title>option::extract&#45;&gt;option::is_some</title>
<path fill="none" stroke="black" d="M713.75,-181.82C712.99,-171.58 712.01,-158.33 711.14,-146.55"/>
<polygon fill="black" stroke="black" points="714.65,-146.66 710.42,-136.94 707.67,-147.17 714.65,-146.66"/>
</g>
<!-- vector::is_empty -->
<g id="node29" class="node">
<title>vector::is_empty</title>
<ellipse fill="none" stroke="black" cx="624.02" cy="-34" rx="43.59" ry="18"/>
<text text-anchor="middle" x="624.02" y="-30.3" font-family="Times,serif" font-size="14.00">is_empty</text>
</g>
<!-- option::is_some&#45;&gt;vector::is_empty -->
<g id="edge41" class="edge">
<title>option::is_some&#45;&gt;vector::is_empty</title>
<path fill="none" stroke="black" d="M692.63,-100.38C680.25,-88.58 663.03,-72.18 648.95,-58.75"/>
<polygon fill="black" stroke="black" points="651.4,-56.26 641.75,-51.89 646.57,-61.32 651.4,-56.26"/>
</g>
<!-- option::none -->
<g id="node30" class="node">
<title>option::none</title>
<ellipse fill="none" stroke="black" cx="462.02" cy="-200" rx="27.9" ry="18"/>
<text text-anchor="middle" x="462.02" y="-196.3" font-family="Times,serif" font-size="14.00">none</text>
</g>
<!-- simple_map::find&#45;&gt;option::none -->
<g id="edge42" class="edge">
<title>simple_map::find&#45;&gt;option::none</title>
<path fill="none" stroke="black" d="M516.82,-267.61C511.07,-261.96 504.58,-255.33 499.02,-249 492.57,-241.67 485.94,-233.34 480.1,-225.71"/>
<polygon fill="black" stroke="black" points="482.92,-223.63 474.11,-217.74 477.32,-227.84 482.92,-223.63"/>
</g>
<!-- option::some -->
<g id="node31" class="node">
<title>option::some</title>
<ellipse fill="none" stroke="black" cx="538.02" cy="-200" rx="29.8" ry="18"/>
<text text-anchor="middle" x="538.02" y="-196.3" font-family="Times,serif" font-size="14.00">some</text>
</g>
<!-- simple_map::find&#45;&gt;option::some -->
<g id="edge43" class="edge">
<title>simple_map::find&#45;&gt;option::some</title>
<path fill="none" stroke="black" d="M533.29,-264.82C534.05,-254.58 535.03,-241.33 535.91,-229.55"/>
<polygon fill="black" stroke="black" points="539.37,-230.17 536.62,-219.94 532.39,-229.66 539.37,-230.17"/>
</g>
<!-- comparator::compare -->
<g id="node32" class="node">
<title>comparator::compare</title>
<ellipse fill="none" stroke="black" cx="264.02" cy="-200" rx="41.69" ry="18"/>
<text text-anchor="middle" x="264.02" y="-196.3" font-family="Times,serif" font-size="14.00">compare</text>
</g>
<!-- simple_map::find&#45;&gt;comparator::compare -->
<g id="edge44" class="edge">
<title>simple_map::find&#45;&gt;comparator::compare</title>
<path fill="none" stroke="black" d="M507.55,-274.68C485.25,-268.01 451.42,-257.87 422.02,-249 383.48,-237.36 339.67,-224.05 307.98,-214.4"/>
<polygon fill="black" stroke="black" points="309.33,-211.15 298.75,-211.59 307.3,-217.85 309.33,-211.15"/>
</g>
<!-- comparator::is_smaller_than -->
<g id="node33" class="node">
<title>comparator::is_smaller_than</title>
<ellipse fill="none" stroke="black" cx="137.02" cy="-200" rx="66.89" ry="18"/>
<text text-anchor="middle" x="137.02" y="-196.3" font-family="Times,serif" font-size="14.00">is_smaller_than</text>
</g>
<!-- simple_map::find&#45;&gt;comparator::is_smaller_than -->
<g id="edge45" class="edge">
<title>simple_map::find&#45;&gt;comparator::is_smaller_than</title>
<path fill="none" stroke="black" d="M505.02,-280.79C438.23,-277.55 266.82,-267.62 213.02,-249 196.53,-243.29 179.94,-233.41 166.48,-224.09"/>
<polygon fill="black" stroke="black" points="168.68,-221.35 158.52,-218.35 164.59,-227.04 168.68,-221.35"/>
</g>
<!-- simple_map::contains_key&#45;&gt;option::is_some -->
<g id="edge46" class="edge">
<title>simple_map::contains_key&#45;&gt;option::is_some</title>
<path fill="none" stroke="black" d="M497.5,-345.5C505.3,-343.55 513.38,-341.63 521.02,-340 541.74,-335.58 548.1,-339.22 568.02,-332 630.37,-309.41 634.25,-278.4 697.02,-257 709.96,-252.59 749,-259.28 758.02,-249 780.01,-223.94 769.75,-205.2 758.02,-174 753.39,-161.69 744.7,-150.31 735.9,-141.07"/>
<polygon fill="black" stroke="black" points="738.57,-138.79 728.98,-134.28 733.67,-143.78 738.57,-138.79"/>
</g>
<!-- simple_map::contains_key&#45;&gt;simple_map::find -->
<g id="edge47" class="edge">
<title>simple_map::contains_key&#45;&gt;simple_map::find</title>
<path fill="none" stroke="black" d="M472.49,-340.44C483.28,-330.21 497.23,-316.98 508.92,-305.9"/>
<polygon fill="black" stroke="black" points="511.01,-308.74 515.86,-299.32 506.19,-303.66 511.01,-308.74"/>
</g>
<!-- error::invalid_state&#45;&gt;error::canonical -->
<g id="edge48" class="edge">
<title>error::invalid_state&#45;&gt;error::canonical</title>
<path fill="none" stroke="black" d="M1123.69,-265.22C1113.23,-253.77 1099.21,-238.42 1087.5,-225.6"/>
<polygon fill="black" stroke="black" points="1090.18,-223.35 1080.85,-218.33 1085.01,-228.07 1090.18,-223.35"/>
</g>
<!-- simple_map::borrow_mut&#45;&gt;error::invalid_argument -->
<g id="edge51" class="edge">
<title>simple_map::borrow_mut&#45;&gt;error::invalid_argument</title>
<path fill="none" stroke="black" d="M789.73,-345.31C797.72,-343.28 806.09,-341.38 814.02,-340 854.89,-332.87 867.39,-344.26 907.02,-332 925.48,-326.29 944.36,-316.14 959.62,-306.65"/>
<polygon fill="black" stroke="black" points="961.3,-309.73 967.82,-301.37 957.51,-303.84 961.3,-309.73"/>
</g>
<!-- simple_map::borrow_mut&#45;&gt;option::extract -->
<g id="edge49" class="edge">
<title>simple_map::borrow_mut&#45;&gt;option::extract</title>
<path fill="none" stroke="black" d="M746.14,-339.71C740.15,-313 728.58,-261.45 721.36,-229.27"/>
<polygon fill="black" stroke="black" points="724.85,-228.84 719.25,-219.85 718.02,-230.37 724.85,-228.84"/>
</g>
<!-- simple_map::borrow_mut&#45;&gt;option::is_some -->
<g id="edge50" class="edge">
<title>simple_map::borrow_mut&#45;&gt;option::is_some</title>
<path fill="none" stroke="black" d="M791.95,-346.02C809.53,-341 826.51,-335.42 829.02,-332 870.51,-275.35 866.74,-233.23 829.02,-174 813.19,-149.14 783.13,-135.14 757.05,-127.35"/>
<polygon fill="black" stroke="black" points="758.2,-124.04 747.63,-124.78 756.36,-130.79 758.2,-124.04"/>
</g>
<!-- simple_map::borrow_mut&#45;&gt;simple_map::find -->
<g id="edge52" class="edge">
<title>simple_map::borrow_mut&#45;&gt;simple_map::find</title>
<path fill="none" stroke="black" d="M712.55,-344.45C671.57,-330.73 606.46,-308.93 566.65,-295.6"/>
<polygon fill="black" stroke="black" points="567.92,-292.33 557.32,-292.47 565.7,-298.97 567.92,-292.33"/>
</g>
<!-- simple_map::add&#45;&gt;error::invalid_argument -->
<g id="edge55" class="edge">
<title>simple_map::add&#45;&gt;error::invalid_argument</title>
<path fill="none" stroke="black" d="M577.04,-345.76C582.11,-343.42 587.64,-341.28 593.02,-340 660.93,-323.86 839.75,-350.6 907.02,-332 925.91,-326.78 945.09,-316.47 960.43,-306.75"/>
<polygon fill="black" stroke="black" points="962.23,-309.76 968.65,-301.33 958.38,-303.91 962.23,-309.76"/>
</g>
<!-- simple_map::add&#45;&gt;option::extract -->
<g id="edge53" class="edge">
<title>simple_map::add&#45;&gt;option::extract</title>
<path fill="none" stroke="black" d="M578.28,-346.41C585.04,-342.45 592.25,-337.54 598.02,-332 626.92,-304.25 616.34,-281.52 648.02,-257 656.58,-250.37 661.98,-254.95 671.02,-249 680.45,-242.8 689.22,-234.13 696.41,-225.86"/>
<polygon fill="black" stroke="black" points="698.94,-228.3 702.59,-218.35 693.53,-223.85 698.94,-228.3"/>
</g>
<!-- simple_map::add&#45;&gt;simple_map::find -->
<g id="edge56" class="edge">
<title>simple_map::add&#45;&gt;simple_map::find</title>
<path fill="none" stroke="black" d="M551.22,-340.07C548.32,-331.59 544.73,-321.12 541.45,-311.52"/>
<polygon fill="black" stroke="black" points="544.83,-310.6 538.28,-302.27 538.21,-312.87 544.83,-310.6"/>
</g>
<!-- option::is_none -->
<g id="node34" class="node">
<title>option::is_none</title>
<ellipse fill="none" stroke="black" cx="624.02" cy="-200" rx="38.19" ry="18"/>
<text text-anchor="middle" x="624.02" y="-196.3" font-family="Times,serif" font-size="14.00">is_none</text>
</g>
<!-- simple_map::add&#45;&gt;option::is_none -->
<g id="edge54" class="edge">
<title>simple_map::add&#45;&gt;option::is_none</title>
<path fill="none" stroke="black" d="M564.38,-340.34C565.6,-337.55 566.85,-334.7 568.02,-332 583.52,-296.26 601.15,-254.91 612.41,-228.38"/>
<polygon fill="black" stroke="black" points="615.55,-229.95 616.24,-219.38 609.11,-227.21 615.55,-229.95"/>
</g>
<!-- simple_map::remove&#45;&gt;error::invalid_argument -->
<g id="edge59" class="edge">
<title>simple_map::remove&#45;&gt;error::invalid_argument</title>
<path fill="none" stroke="black" d="M667.34,-345.29C673.39,-343.16 679.84,-341.22 686.02,-340 734.23,-330.47 859.73,-345.35 907.02,-332 925.89,-326.67 945.06,-316.36 960.4,-306.66"/>
<polygon fill="black" stroke="black" points="962.19,-309.67 968.63,-301.26 958.35,-303.82 962.19,-309.67"/>
</g>
<!-- simple_map::remove&#45;&gt;option::extract -->
<g id="edge57" class="edge">
<title>simple_map::remove&#45;&gt;option::extract</title>
<path fill="none" stroke="black" d="M648.19,-340.01C661.15,-313.05 686.54,-260.23 702.02,-228.03"/>
<polygon fill="black" stroke="black" points="705.03,-229.86 706.21,-219.33 698.72,-226.83 705.03,-229.86"/>
</g>
<!-- simple_map::remove&#45;&gt;option::is_some -->
<g id="edge58" class="edge">
<title>simple_map::remove&#45;&gt;option::is_some</title>
<path fill="none" stroke="black" d="M669.26,-346.21C705.73,-330.94 766.31,-299.16 791.02,-249 805.75,-219.1 806.59,-203.48 791.02,-174 781.89,-156.7 764.75,-143.74 748.49,-134.67"/>
<polygon fill="black" stroke="black" points="750.39,-131.71 739.9,-130.21 747.16,-137.92 750.39,-131.71"/>
</g>
<!-- simple_map::remove&#45;&gt;simple_map::find -->
<g id="edge60" class="edge">
<title>simple_map::remove&#45;&gt;simple_map::find</title>
<path fill="none" stroke="black" d="M618.94,-342.75C602.08,-331.36 578.3,-315.28 559.87,-302.83"/>
<polygon fill="black" stroke="black" points="562.03,-300.06 551.78,-297.36 558.11,-305.86 562.03,-300.06"/>
</g>
<!-- vector::singleton -->
<g id="node35" class="node">
<title>vector::singleton</title>
<ellipse fill="none" stroke="black" cx="520.02" cy="-34" rx="42.79" ry="18"/>
<text text-anchor="middle" x="520.02" y="-30.3" font-family="Times,serif" font-size="14.00">singleton</text>
</g>
<!-- option::some&#45;&gt;vector::singleton -->
<g id="edge61" class="edge">
<title>option::some&#45;&gt;vector::singleton</title>
<path fill="none" stroke="black" d="M536.13,-181.76C533.03,-153.51 526.84,-97.11 523.1,-63.04"/>
<polygon fill="black" stroke="black" points="526.62,-63.07 522.05,-53.51 519.67,-63.84 526.62,-63.07"/>
</g>
<!-- bcs::to_bytes -->
<g id="node36" class="node">
<title>bcs::to_bytes</title>
<ellipse fill="none" stroke="black" cx="370.02" cy="-117" rx="40.09" ry="18"/>
<text text-anchor="middle" x="370.02" y="-113.3" font-family="Times,serif" font-size="14.00">to_bytes</text>
</g>
<!-- comparator::compare&#45;&gt;bcs::to_bytes -->
<g id="edge62" class="edge">
<title>comparator::compare&#45;&gt;bcs::to_bytes</title>
<path fill="none" stroke="black" d="M288.88,-185.2C298.28,-179.63 308.9,-172.89 318.02,-166 327.73,-158.67 337.7,-149.83 346.29,-141.74"/>
<polygon fill="black" stroke="black" points="348.47,-144.5 353.26,-135.04 343.62,-139.45 348.47,-144.5"/>
</g>
<!-- comparator::compare_u8_vector -->
<g id="node37" class="node">
<title>comparator::compare_u8_vector</title>
<ellipse fill="none" stroke="black" cx="225.02" cy="-117" rx="81.49" ry="18"/>
<text text-anchor="middle" x="225.02" y="-113.3" font-family="Times,serif" font-size="14.00">compare_u8_vector</text>
</g>
<!-- comparator::compare&#45;&gt;comparator::compare_u8_vector -->
<g id="edge63" class="edge">
<title>comparator::compare&#45;&gt;comparator::compare_u8_vector</title>
<path fill="none" stroke="black" d="M255.94,-182.22C250.83,-171.61 244.11,-157.65 238.24,-145.45"/>
<polygon fill="black" stroke="black" points="241.51,-144.18 234.02,-136.68 235.2,-147.21 241.51,-144.18"/>
</g>
<!-- option::is_none&#45;&gt;vector::is_empty -->
<g id="edge64" class="edge">
<title>option::is_none&#45;&gt;vector::is_empty</title>
<path fill="none" stroke="black" d="M624.02,-181.76C624.02,-153.63 624.02,-97.6 624.02,-63.49"/>
<polygon fill="black" stroke="black" points="627.52,-63.52 624.02,-53.52 620.52,-63.52 627.52,-63.52"/>
</g>
</g>
</svg>
