<?xml version="1.0" encoding="UTF-8" standalone="no"?>
<!DOCTYPE svg PUBLIC "-//W3C//DTD SVG 1.1//EN"
 "http://www.w3.org/Graphics/SVG/1.1/DTD/svg11.dtd">
<!-- Generated by graphviz version 7.0.0 (20221023.0053)
 -->
<!-- Title: G Pages: 1 -->
<svg width="1873pt" height="748pt"
 viewBox="0.00 0.00 1873.00 748.00" xmlns="http://www.w3.org/2000/svg" xmlns:xlink="http://www.w3.org/1999/xlink">
<g id="graph0" class="graph" transform="scale(1 1) rotate(0) translate(4 744)">
<title>G</title>
<polygon fill="white" stroke="none" points="-4,4 -4,-744 1869,-744 1869,4 -4,4"/>
<g id="clust1" class="cluster">
<title>cluster_staking_contract</title>
<polygon fill="none" stroke="black" points="52,-208 52,-427 590,-427 590,-208 52,-208"/>
<text text-anchor="middle" x="321" y="-411.8" font-family="Times,serif" font-size="14.00">staking_contract</text>
</g>
<g id="clust2" class="cluster">
<title>cluster_staking_proxy</title>
<polygon fill="none" stroke="black" points="1146,-435 1146,-585 1857,-585 1857,-435 1146,-435"/>
<text text-anchor="middle" x="1501.5" y="-569.8" font-family="Times,serif" font-size="14.00">staking_proxy</text>
</g>
<g id="clust3" class="cluster">
<title>cluster_vesting</title>
<polygon fill="none" stroke="black" points="598,-352 598,-510 1138,-510 1138,-352 598,-352"/>
<text text-anchor="middle" x="868" y="-494.8" font-family="Times,serif" font-size="14.00">vesting</text>
</g>
<g id="clust4" class="cluster">
<title>cluster_genesis</title>
<polygon fill="none" stroke="black" points="8,-435 8,-732 464,-732 464,-435 8,-435"/>
<text text-anchor="middle" x="236" y="-716.8" font-family="Times,serif" font-size="14.00">genesis</text>
</g>
<!-- set_operator_with_cap -->
<g id="node1" class="node">
<title>set_operator_with_cap</title>
<ellipse fill="none" stroke="black" cx="555" cy="-18" rx="90.98" ry="18"/>
<text text-anchor="middle" x="555" y="-14.3" font-family="Times,serif" font-size="14.00">set_operator_with_cap</text>
</g>
<!-- set_operator -->
<g id="node2" class="node">
<title>set_operator</title>
<ellipse fill="none" stroke="black" cx="596" cy="-90" rx="53.89" ry="18"/>
<text text-anchor="middle" x="596" y="-86.3" font-family="Times,serif" font-size="14.00">set_operator</text>
</g>
<!-- set_operator&#45;&gt;set_operator_with_cap -->
<g id="edge1" class="edge">
<title>set_operator&#45;&gt;set_operator_with_cap</title>
<path fill="none" stroke="black" d="M586.08,-72.05C581.51,-64.26 575.98,-54.82 570.86,-46.08"/>
<polygon fill="black" stroke="black" points="573.96,-44.44 565.88,-37.58 567.92,-47.98 573.96,-44.44"/>
</g>
<!-- staking_contract::switch_operator -->
<g id="node3" class="node">
<title>staking_contract::switch_operator</title>
<ellipse fill="none" stroke="black" cx="514" cy="-306" rx="67.69" ry="18"/>
<text text-anchor="middle" x="514" y="-302.3" font-family="Times,serif" font-size="14.00">switch_operator</text>
</g>
<!-- staking_contract::switch_operator&#45;&gt;set_operator_with_cap -->
<g id="edge2" class="edge">
<title>staking_contract::switch_operator&#45;&gt;set_operator_with_cap</title>
<path fill="none" stroke="black" d="M513.59,-287.76C513.05,-248.73 513.91,-150.89 533,-72 535.06,-63.48 538.31,-54.55 541.68,-46.51"/>
<polygon fill="black" stroke="black" points="544.78,-48.15 545.64,-37.59 538.38,-45.31 544.78,-48.15"/>
</g>
<!-- initialize_stake_owner -->
<g id="node4" class="node">
<title>initialize_stake_owner</title>
<ellipse fill="none" stroke="black" cx="244" cy="-162" rx="90.18" ry="18"/>
<text text-anchor="middle" x="244" y="-158.3" font-family="Times,serif" font-size="14.00">initialize_stake_owner</text>
</g>
<!-- initialize_stake_owner&#45;&gt;set_operator -->
<g id="edge3" class="edge">
<title>initialize_stake_owner&#45;&gt;set_operator</title>
<path fill="none" stroke="black" d="M306.12,-148.65C372.12,-135.52 475.58,-114.95 539.4,-102.26"/>
<polygon fill="black" stroke="black" points="539.84,-105.74 548.96,-100.35 538.47,-98.87 539.84,-105.74"/>
</g>
<!-- staking_proxy::set_stake_pool_operator -->
<g id="node5" class="node">
<title>staking_proxy::set_stake_pool_operator</title>
<ellipse fill="none" stroke="black" cx="1752" cy="-461" rx="96.68" ry="18"/>
<text text-anchor="middle" x="1752" y="-457.3" font-family="Times,serif" font-size="14.00">set_stake_pool_operator</text>
</g>
<!-- staking_proxy::set_stake_pool_operator&#45;&gt;set_operator -->
<g id="edge4" class="edge">
<title>staking_proxy::set_stake_pool_operator&#45;&gt;set_operator</title>
<path fill="none" stroke="black" d="M1705.04,-444.95C1649.36,-423.82 1564,-379.59 1564,-307 1564,-307 1564,-307 1564,-233 1564,-141.48 877.83,-103.41 660.91,-93.66"/>
<polygon fill="black" stroke="black" points="661.08,-90.17 650.93,-93.22 660.77,-97.16 661.08,-90.17"/>
</g>
<!-- staking_contract::switch_operator_with_same_commission -->
<g id="node6" class="node">
<title>staking_contract::switch_operator_with_same_commission</title>
<ellipse fill="none" stroke="black" cx="424" cy="-378" rx="157.87" ry="18"/>
<text text-anchor="middle" x="424" y="-374.3" font-family="Times,serif" font-size="14.00">switch_operator_with_same_commission</text>
</g>
<!-- staking_contract::switch_operator_with_same_commission&#45;&gt;staking_contract::switch_operator -->
<g id="edge5" class="edge">
<title>staking_contract::switch_operator_with_same_commission&#45;&gt;staking_contract::switch_operator</title>
<path fill="none" stroke="black" d="M446.25,-359.7C457.61,-350.86 471.61,-339.97 483.92,-330.4"/>
<polygon fill="black" stroke="black" points="486,-333.21 491.74,-324.31 481.7,-327.69 486,-333.21"/>
</g>
<!-- vesting::update_operator -->
<g id="node7" class="node">
<title>vesting::update_operator</title>
<ellipse fill="none" stroke="black" cx="971" cy="-378" rx="67.69" ry="18"/>
<text text-anchor="middle" x="971" y="-374.3" font-family="Times,serif" font-size="14.00">update_operator</text>
</g>
<!-- vesting::update_operator&#45;&gt;staking_contract::switch_operator -->
<g id="edge6" class="edge">
<title>vesting::update_operator&#45;&gt;staking_contract::switch_operator</title>
<path fill="none" stroke="black" d="M913.58,-368.21C829.44,-355.32 672.88,-331.34 582.73,-317.53"/>
<polygon fill="black" stroke="black" points="583.45,-314.1 573.04,-316.04 582.39,-321.02 583.45,-314.1"/>
</g>
<!-- staking_proxy::set_staking_contract_operator -->
<g id="node8" class="node">
<title>staking_proxy::set_staking_contract_operator</title>
<ellipse fill="none" stroke="black" cx="1521" cy="-461" rx="116.18" ry="18"/>
<text text-anchor="middle" x="1521" y="-457.3" font-family="Times,serif" font-size="14.00">set_staking_contract_operator</text>
</g>
<!-- staking_proxy::set_staking_contract_operator&#45;&gt;staking_contract::switch_operator -->
<g id="edge7" class="edge">
<title>staking_proxy::set_staking_contract_operator&#45;&gt;staking_contract::switch_operator</title>
<path fill="none" stroke="black" d="M1476.2,-443.97C1405.99,-419.59 1265.3,-373.75 1142,-352 946.73,-317.56 712.88,-309.33 593.16,-307.46"/>
<polygon fill="black" stroke="black" points="593.5,-303.97 583.45,-307.32 593.4,-310.97 593.5,-303.97"/>
</g>
<!-- staking_contract::create_stake_pool -->
<g id="node9" class="node">
<title>staking_contract::create_stake_pool</title>
<ellipse fill="none" stroke="black" cx="244" cy="-234" rx="74.19" ry="18"/>
<text text-anchor="middle" x="244" y="-230.3" font-family="Times,serif" font-size="14.00">create_stake_pool</text>
</g>
<!-- staking_contract::create_stake_pool&#45;&gt;initialize_stake_owner -->
<g id="edge8" class="edge">
<title>staking_contract::create_stake_pool&#45;&gt;initialize_stake_owner</title>
<path fill="none" stroke="black" d="M244,-215.7C244,-208.41 244,-199.73 244,-191.54"/>
<polygon fill="black" stroke="black" points="247.5,-191.62 244,-181.62 240.5,-191.62 247.5,-191.62"/>
</g>
<!-- genesis::create_initialize_validator -->
<g id="node10" class="node">
<title>genesis::create_initialize_validator</title>
<ellipse fill="none" stroke="black" cx="154" cy="-461" rx="102.88" ry="18"/>
<text text-anchor="middle" x="154" y="-457.3" font-family="Times,serif" font-size="14.00">create_initialize_validator</text>
</g>
<!-- genesis::create_initialize_validator&#45;&gt;initialize_stake_owner -->
<g id="edge9" class="edge">
<title>genesis::create_initialize_validator&#45;&gt;initialize_stake_owner</title>
<path fill="none" stroke="black" d="M76.64,-448.8C65.43,-443.85 55.25,-436.86 48,-427 -9.7,-348.61 -12.64,-284.14 48,-208 61.66,-190.85 109.1,-179.69 153.88,-172.78"/>
<polygon fill="black" stroke="black" points="154.31,-176.26 163.69,-171.34 153.29,-169.33 154.31,-176.26"/>
</g>
<!-- staking_contract::create_staking_contract -->
<g id="node16" class="node">
<title>staking_contract::create_staking_contract</title>
<ellipse fill="none" stroke="black" cx="154" cy="-378" rx="94.48" ry="18"/>
<text text-anchor="middle" x="154" y="-374.3" font-family="Times,serif" font-size="14.00">create_staking_contract</text>
</g>
<!-- genesis::create_initialize_validator&#45;&gt;staking_contract::create_staking_contract -->
<g id="edge20" class="edge">
<title>genesis::create_initialize_validator&#45;&gt;staking_contract::create_staking_contract</title>
<path fill="none" stroke="black" d="M154,-442.82C154,-432.69 154,-419.6 154,-407.92"/>
<polygon fill="black" stroke="black" points="157.5,-407.95 154,-397.95 150.5,-407.95 157.5,-407.95"/>
</g>
<!-- staking_proxy::set_operator -->
<g id="node11" class="node">
<title>staking_proxy::set_operator</title>
<ellipse fill="none" stroke="black" cx="1521" cy="-536" rx="53.89" ry="18"/>
<text text-anchor="middle" x="1521" y="-532.3" font-family="Times,serif" font-size="14.00">set_operator</text>
</g>
<!-- staking_proxy::set_operator&#45;&gt;staking_proxy::set_stake_pool_operator -->
<g id="edge10" class="edge">
<title>staking_proxy::set_operator&#45;&gt;staking_proxy::set_stake_pool_operator</title>
<path fill="none" stroke="black" d="M1569.74,-527.91C1593.12,-523.83 1621.35,-517.93 1646,-510 1667.9,-502.95 1691.3,-492.67 1710.53,-483.43"/>
<polygon fill="black" stroke="black" points="1711.94,-486.64 1719.38,-479.1 1708.86,-480.35 1711.94,-486.64"/>
</g>
<!-- staking_proxy::set_operator&#45;&gt;staking_proxy::set_staking_contract_operator -->
<g id="edge13" class="edge">
<title>staking_proxy::set_operator&#45;&gt;staking_proxy::set_staking_contract_operator</title>
<path fill="none" stroke="black" d="M1521,-517.7C1521,-509.67 1521,-499.9 1521,-490.8"/>
<polygon fill="black" stroke="black" points="1524.5,-490.94 1521,-480.94 1517.5,-490.94 1524.5,-490.94"/>
</g>
<!-- staking_proxy::set_vesting_contract_operator -->
<g id="node13" class="node">
<title>staking_proxy::set_vesting_contract_operator</title>
<ellipse fill="none" stroke="black" cx="1270" cy="-461" rx="116.18" ry="18"/>
<text text-anchor="middle" x="1270" y="-457.3" font-family="Times,serif" font-size="14.00">set_vesting_contract_operator</text>
</g>
<!-- staking_proxy::set_operator&#45;&gt;staking_proxy::set_vesting_contract_operator -->
<g id="edge16" class="edge">
<title>staking_proxy::set_operator&#45;&gt;staking_proxy::set_vesting_contract_operator</title>
<path fill="none" stroke="black" d="M1473.07,-527.34C1449.61,-523.11 1421.09,-517.23 1396,-510 1369.98,-502.5 1341.75,-491.98 1318.62,-482.69"/>
<polygon fill="black" stroke="black" points="1320.02,-479.49 1309.44,-478.96 1317.39,-485.97 1320.02,-479.49"/>
</g>
<!-- vesting::update_operator_with_same_commission -->
<g id="node12" class="node">
<title>vesting::update_operator_with_same_commission</title>
<ellipse fill="none" stroke="black" cx="971" cy="-461" rx="158.67" ry="18"/>
<text text-anchor="middle" x="971" y="-457.3" font-family="Times,serif" font-size="14.00">update_operator_with_same_commission</text>
</g>
<!-- vesting::update_operator_with_same_commission&#45;&gt;vesting::update_operator -->
<g id="edge11" class="edge">
<title>vesting::update_operator_with_same_commission&#45;&gt;vesting::update_operator</title>
<path fill="none" stroke="black" d="M971,-442.82C971,-432.69 971,-419.6 971,-407.92"/>
<polygon fill="black" stroke="black" points="974.5,-407.95 971,-397.95 967.5,-407.95 974.5,-407.95"/>
</g>
<!-- staking_proxy::set_vesting_contract_operator&#45;&gt;vesting::update_operator -->
<g id="edge12" class="edge">
<title>staking_proxy::set_vesting_contract_operator&#45;&gt;vesting::update_operator</title>
<path fill="none" stroke="black" d="M1214.11,-444.86C1161.09,-430.5 1081.78,-409.01 1028.3,-394.52"/>
<polygon fill="black" stroke="black" points="1029.33,-391.17 1018.76,-391.94 1027.5,-397.93 1029.33,-391.17"/>
</g>
<!-- staking_contract::create_staking_contract_with_coins -->
<g id="node14" class="node">
<title>staking_contract::create_staking_contract_with_coins</title>
<ellipse fill="none" stroke="black" cx="244" cy="-306" rx="137.28" ry="18"/>
<text text-anchor="middle" x="244" y="-302.3" font-family="Times,serif" font-size="14.00">create_staking_contract_with_coins</text>
</g>
<!-- staking_contract::create_staking_contract_with_coins&#45;&gt;staking_contract::create_stake_pool -->
<g id="edge14" class="edge">
<title>staking_contract::create_staking_contract_with_coins&#45;&gt;staking_contract::create_stake_pool</title>
<path fill="none" stroke="black" d="M244,-287.7C244,-280.41 244,-271.73 244,-263.54"/>
<polygon fill="black" stroke="black" points="247.5,-263.62 244,-253.62 240.5,-263.62 247.5,-263.62"/>
</g>
<!-- genesis::create_initialize_validators_with_commission -->
<g id="node15" class="node">
<title>genesis::create_initialize_validators_with_commission</title>
<ellipse fill="none" stroke="black" cx="190" cy="-536" rx="173.57" ry="18"/>
<text text-anchor="middle" x="190" y="-532.3" font-family="Times,serif" font-size="14.00">create_initialize_validators_with_commission</text>
</g>
<!-- genesis::create_initialize_validators_with_commission&#45;&gt;genesis::create_initialize_validator -->
<g id="edge15" class="edge">
<title>genesis::create_initialize_validators_with_commission&#45;&gt;genesis::create_initialize_validator</title>
<path fill="none" stroke="black" d="M181.47,-517.7C177.33,-509.31 172.26,-499.02 167.6,-489.58"/>
<polygon fill="black" stroke="black" points="170.83,-488.21 163.26,-480.79 164.55,-491.3 170.83,-488.21"/>
</g>
<!-- staking_contract::create_staking_contract&#45;&gt;staking_contract::create_staking_contract_with_coins -->
<g id="edge17" class="edge">
<title>staking_contract::create_staking_contract&#45;&gt;staking_contract::create_staking_contract_with_coins</title>
<path fill="none" stroke="black" d="M175.79,-360.05C186.98,-351.35 200.81,-340.59 213.09,-331.04"/>
<polygon fill="black" stroke="black" points="215.16,-333.86 220.91,-324.96 210.87,-328.34 215.16,-333.86"/>
</g>
<!-- vesting::create_vesting_contract -->
<g id="node17" class="node">
<title>vesting::create_vesting_contract</title>
<ellipse fill="none" stroke="black" cx="700" cy="-461" rx="94.48" ry="18"/>
<text text-anchor="middle" x="700" y="-457.3" font-family="Times,serif" font-size="14.00">create_vesting_contract</text>
</g>
<!-- vesting::create_vesting_contract&#45;&gt;staking_contract::create_staking_contract_with_coins -->
<g id="edge18" class="edge">
<title>vesting::create_vesting_contract&#45;&gt;staking_contract::create_staking_contract_with_coins</title>
<path fill="none" stroke="black" d="M688.27,-442.67C670.46,-417.9 634.08,-373.07 591,-352 570.57,-342.01 455.3,-328.31 363.14,-318.66"/>
<polygon fill="black" stroke="black" points="363.55,-315.18 353.24,-317.63 362.83,-322.14 363.55,-315.18"/>
</g>
<!-- genesis::create_initialize_validators -->
<g id="node18" class="node">
<title>genesis::create_initialize_validators</title>
<ellipse fill="none" stroke="black" cx="156" cy="-611" rx="105.88" ry="18"/>
<text text-anchor="middle" x="156" y="-607.3" font-family="Times,serif" font-size="14.00">create_initialize_validators</text>
</g>
<!-- genesis::create_initialize_validators&#45;&gt;genesis::create_initialize_validators_with_commission -->
<g id="edge19" class="edge">
<title>genesis::create_initialize_validators&#45;&gt;genesis::create_initialize_validators_with_commission</title>
<path fill="none" stroke="black" d="M164.06,-592.7C167.97,-584.31 172.76,-574.02 177.15,-564.58"/>
<polygon fill="black" stroke="black" points="180.19,-566.34 181.24,-555.8 173.85,-563.39 180.19,-566.34"/>
</g>
<!-- genesis::create_employee_validators -->
<g id="node19" class="node">
<title>genesis::create_employee_validators</title>
<ellipse fill="none" stroke="black" cx="346" cy="-683" rx="109.68" ry="18"/>
<text text-anchor="middle" x="346" y="-679.3" font-family="Times,serif" font-size="14.00">create_employee_validators</text>
</g>
<!-- genesis::create_employee_validators&#45;&gt;vesting::create_vesting_contract -->
<g id="edge21" class="edge">
<title>genesis::create_employee_validators&#45;&gt;vesting::create_vesting_contract</title>
<path fill="none" stroke="black" d="M373.19,-665.1C436.28,-625.89 592.64,-528.72 663.75,-484.53"/>
<polygon fill="black" stroke="black" points="665.27,-487.7 671.92,-479.45 661.58,-481.76 665.27,-487.7"/>
</g>
<!-- genesis::initialize_for_verification -->
<g id="node20" class="node">
<title>genesis::initialize_for_verification</title>
<ellipse fill="none" stroke="black" cx="117" cy="-683" rx="100.98" ry="18"/>
<text text-anchor="middle" x="117" y="-679.3" font-family="Times,serif" font-size="14.00">initialize_for_verification</text>
</g>
<!-- genesis::initialize_for_verification&#45;&gt;genesis::create_initialize_validators -->
<g id="edge22" class="edge">
<title>genesis::initialize_for_verification&#45;&gt;genesis::create_initialize_validators</title>
<path fill="none" stroke="black" d="M126.64,-664.7C130.94,-656.98 136.1,-647.71 140.89,-639.11"/>
<polygon fill="black" stroke="black" points="143.92,-640.87 145.73,-630.43 137.81,-637.46 143.92,-640.87"/>
</g>
</g>
</svg>
