<?xml version="1.0" encoding="UTF-8" standalone="no"?>
<!DOCTYPE svg PUBLIC "-//W3C//DTD SVG 1.1//EN"
 "http://www.w3.org/Graphics/SVG/1.1/DTD/svg11.dtd">
<!-- Generated by graphviz version 7.0.0 (20221023.0053)
 -->
<!-- Title: G Pages: 1 -->
<svg width="2533pt" height="617pt"
 viewBox="0.00 0.00 2533.00 617.00" xmlns="http://www.w3.org/2000/svg" xmlns:xlink="http://www.w3.org/1999/xlink">
<g id="graph0" class="graph" transform="scale(1 1) rotate(0) translate(4 613)">
<title>G</title>
<polygon fill="white" stroke="none" points="-4,4 -4,-613 2529,-613 2529,4 -4,4"/>
<g id="clust1" class="cluster">
<title>cluster_signer</title>
<polygon fill="none" stroke="black" points="8,-257 8,-415 158,-415 158,-257 8,-257"/>
<text text-anchor="middle" x="83" y="-399.8" font-family="Times,serif" font-size="14.00">signer</text>
</g>
<g id="clust2" class="cluster">
<title>cluster_event</title>
<polygon fill="none" stroke="black" points="198,-257 198,-415 384,-415 384,-257 198,-257"/>
<text text-anchor="middle" x="291" y="-399.8" font-family="Times,serif" font-size="14.00">event</text>
</g>
<g id="clust3" class="cluster">
<title>cluster_coin</title>
<polygon fill="none" stroke="black" points="392,-340 392,-490 788,-490 788,-340 392,-340"/>
<text text-anchor="middle" x="590" y="-474.8" font-family="Times,serif" font-size="14.00">coin</text>
</g>
<g id="clust4" class="cluster">
<title>cluster_simple_map</title>
<polygon fill="none" stroke="black" points="940,-257 940,-415 1198,-415 1198,-257 940,-257"/>
<text text-anchor="middle" x="1069" y="-399.8" font-family="Times,serif" font-size="14.00">simple_map</text>
</g>
<g id="clust5" class="cluster">
<title>cluster_stake</title>
<polygon fill="none" stroke="black" points="1732,-257 1732,-565 2517,-565 2517,-257 1732,-257"/>
<text text-anchor="middle" x="2124.5" y="-549.8" font-family="Times,serif" font-size="14.00">stake</text>
</g>
<g id="clust6" class="cluster">
<title>cluster_bcs</title>
<polygon fill="none" stroke="black" points="1343,-91 1343,-166 1439,-166 1439,-91 1343,-91"/>
<text text-anchor="middle" x="1391" y="-150.8" font-family="Times,serif" font-size="14.00">bcs</text>
</g>
<g id="clust7" class="cluster">
<title>cluster_error</title>
<polygon fill="none" stroke="black" points="436,-174 436,-332 882,-332 882,-174 436,-174"/>
<text text-anchor="middle" x="659" y="-316.8" font-family="Times,serif" font-size="14.00">error</text>
</g>
<g id="clust8" class="cluster">
<title>cluster_option</title>
<polygon fill="none" stroke="black" points="1099,-91 1099,-249 1335,-249 1335,-91 1099,-91"/>
<text text-anchor="middle" x="1217" y="-233.8" font-family="Times,serif" font-size="14.00">option</text>
</g>
<g id="clust9" class="cluster">
<title>cluster_staking_config</title>
<polygon fill="none" stroke="black" points="1206,-340 1206,-415 1724,-415 1724,-340 1206,-340"/>
<text text-anchor="middle" x="1465" y="-399.8" font-family="Times,serif" font-size="14.00">staking_config</text>
</g>
<g id="clust10" class="cluster">
<title>cluster_vector</title>
<polygon fill="none" stroke="black" points="1199,-8 1199,-83 1406,-83 1406,-8 1199,-8"/>
<text text-anchor="middle" x="1302.5" y="-67.8" font-family="Times,serif" font-size="14.00">vector</text>
</g>
<g id="clust11" class="cluster">
<title>cluster_comparator</title>
<polygon fill="none" stroke="black" points="1776,-91 1776,-249 2028,-249 2028,-91 1776,-91"/>
<text text-anchor="middle" x="1902" y="-233.8" font-family="Times,serif" font-size="14.00">comparator</text>
</g>
<!-- add_stake -->
<g id="node1" class="node">
<title>add_stake</title>
<ellipse fill="none" stroke="black" cx="739" cy="-591" rx="46.29" ry="18"/>
<text text-anchor="middle" x="739" y="-587.3" font-family="Times,serif" font-size="14.00">add_stake</text>
</g>
<!-- signer::address_of -->
<g id="node2" class="node">
<title>signer::address_of</title>
<ellipse fill="none" stroke="black" cx="101" cy="-366" rx="48.99" ry="18"/>
<text text-anchor="middle" x="101" y="-362.3" font-family="Times,serif" font-size="14.00">address_of</text>
</g>
<!-- add_stake&#45;&gt;signer::address_of -->
<g id="edge1" class="edge">
<title>add_stake&#45;&gt;signer::address_of</title>
<path fill="none" stroke="black" d="M692.48,-590.51C602.84,-590.91 409.6,-588.88 348,-565 250.44,-527.18 161.38,-436.11 122.13,-391.9"/>
<polygon fill="black" stroke="black" points="124.96,-389.82 115.74,-384.6 119.7,-394.43 124.96,-389.82"/>
</g>
<!-- event::emit_event -->
<g id="node3" class="node">
<title>event::emit_event</title>
<ellipse fill="none" stroke="black" cx="326" cy="-366" rx="50.09" ry="18"/>
<text text-anchor="middle" x="326" y="-362.3" font-family="Times,serif" font-size="14.00">emit_event</text>
</g>
<!-- add_stake&#45;&gt;event::emit_event -->
<g id="edge2" class="edge">
<title>add_stake&#45;&gt;event::emit_event</title>
<path fill="none" stroke="black" d="M692.8,-589.15C646.17,-587.31 572.48,-581.73 511,-565 432.49,-543.64 393.05,-554.92 344,-490 323.58,-462.97 321.43,-422.85 322.83,-395.85"/>
<polygon fill="black" stroke="black" points="326.31,-396.2 323.56,-385.97 319.33,-395.69 326.31,-396.2"/>
</g>
<!-- coin::withdraw -->
<g id="node4" class="node">
<title>coin::withdraw</title>
<ellipse fill="none" stroke="black" cx="444" cy="-441" rx="44.39" ry="18"/>
<text text-anchor="middle" x="444" y="-437.3" font-family="Times,serif" font-size="14.00">withdraw</text>
</g>
<!-- add_stake&#45;&gt;coin::withdraw -->
<g id="edge3" class="edge">
<title>add_stake&#45;&gt;coin::withdraw</title>
<path fill="none" stroke="black" d="M702.68,-579.33C653.65,-563.99 564.62,-532.76 497,-490 486.46,-483.33 476.02,-474.5 467.24,-466.23"/>
<polygon fill="black" stroke="black" points="469.74,-463.79 460.14,-459.31 464.86,-468.8 469.74,-463.79"/>
</g>
<!-- simple_map::borrow_mut -->
<g id="node5" class="node">
<title>simple_map::borrow_mut</title>
<ellipse fill="none" stroke="black" cx="1003" cy="-366" rx="54.69" ry="18"/>
<text text-anchor="middle" x="1003" y="-362.3" font-family="Times,serif" font-size="14.00">borrow_mut</text>
</g>
<!-- add_stake&#45;&gt;simple_map::borrow_mut -->
<g id="edge4" class="edge">
<title>add_stake&#45;&gt;simple_map::borrow_mut</title>
<path fill="none" stroke="black" d="M785.5,-590.4C855.01,-588.15 984.13,-572.39 1043,-490 1060.31,-465.77 1052.09,-451.36 1043,-423 1039.48,-412.02 1032.93,-401.36 1026.14,-392.35"/>
<polygon fill="black" stroke="black" points="1029.04,-390.36 1020.04,-384.77 1023.59,-394.76 1029.04,-390.36"/>
</g>
<!-- stake::add_stake_with_cap -->
<g id="node6" class="node">
<title>stake::add_stake_with_cap</title>
<ellipse fill="none" stroke="black" cx="1823" cy="-516" rx="82.59" ry="18"/>
<text text-anchor="middle" x="1823" y="-512.3" font-family="Times,serif" font-size="14.00">add_stake_with_cap</text>
</g>
<!-- add_stake&#45;&gt;stake::add_stake_with_cap -->
<g id="edge5" class="edge">
<title>add_stake&#45;&gt;stake::add_stake_with_cap</title>
<path fill="none" stroke="black" d="M784.54,-586.93C948.95,-575.86 1513.71,-537.83 1734,-522.99"/>
<polygon fill="black" stroke="black" points="1733.93,-526.51 1743.67,-522.34 1733.46,-519.52 1733.93,-526.51"/>
</g>
<!-- assert_staking_contract_exists -->
<g id="node7" class="node">
<title>assert_staking_contract_exists</title>
<ellipse fill="none" stroke="black" cx="916" cy="-441" rx="117.78" ry="18"/>
<text text-anchor="middle" x="916" y="-437.3" font-family="Times,serif" font-size="14.00">assert_staking_contract_exists</text>
</g>
<!-- add_stake&#45;&gt;assert_staking_contract_exists -->
<g id="edge6" class="edge">
<title>add_stake&#45;&gt;assert_staking_contract_exists</title>
<path fill="none" stroke="black" d="M757.94,-574.16C788.85,-548.31 850.35,-496.89 886.86,-466.37"/>
<polygon fill="black" stroke="black" points="888.98,-469.16 894.41,-460.06 884.49,-463.79 888.98,-469.16"/>
</g>
<!-- signer::borrow_address -->
<g id="node8" class="node">
<title>signer::borrow_address</title>
<ellipse fill="none" stroke="black" cx="83" cy="-283" rx="66.89" ry="18"/>
<text text-anchor="middle" x="83" y="-279.3" font-family="Times,serif" font-size="14.00">borrow_address</text>
</g>
<!-- signer::address_of&#45;&gt;signer::borrow_address -->
<g id="edge7" class="edge">
<title>signer::address_of&#45;&gt;signer::borrow_address</title>
<path fill="none" stroke="black" d="M97.18,-347.82C94.91,-337.58 91.96,-324.33 89.34,-312.55"/>
<polygon fill="black" stroke="black" points="92.79,-311.91 87.2,-302.91 85.95,-313.43 92.79,-311.91"/>
</g>
<!-- bcs::to_bytes -->
<g id="node9" class="node">
<title>bcs::to_bytes</title>
<ellipse fill="none" stroke="black" cx="1391" cy="-117" rx="40.09" ry="18"/>
<text text-anchor="middle" x="1391" y="-113.3" font-family="Times,serif" font-size="14.00">to_bytes</text>
</g>
<!-- event::emit_event&#45;&gt;bcs::to_bytes -->
<g id="edge8" class="edge">
<title>event::emit_event&#45;&gt;bcs::to_bytes</title>
<path fill="none" stroke="black" d="M279.39,-359.13C246.75,-353.95 207.21,-345.15 197,-332 176.56,-305.67 177.75,-284.21 197,-257 260.97,-166.57 322.91,-193.19 432,-174 456.81,-169.63 1315.58,-175.28 1339,-166 1351.29,-161.13 1362.44,-151.87 1371.23,-142.78"/>
<polygon fill="black" stroke="black" points="1373.8,-145.16 1377.89,-135.38 1368.6,-140.47 1373.8,-145.16"/>
</g>
<!-- event::write_to_event_store -->
<g id="node10" class="node">
<title>event::write_to_event_store</title>
<ellipse fill="none" stroke="black" cx="291" cy="-283" rx="85.29" ry="18"/>
<text text-anchor="middle" x="291" y="-279.3" font-family="Times,serif" font-size="14.00">write_to_event_store</text>
</g>
<!-- event::emit_event&#45;&gt;event::write_to_event_store -->
<g id="edge9" class="edge">
<title>event::emit_event&#45;&gt;event::write_to_event_store</title>
<path fill="none" stroke="black" d="M318.58,-347.82C314.03,-337.3 308.11,-323.59 302.91,-311.57"/>
<polygon fill="black" stroke="black" points="306.19,-310.33 299.01,-302.54 299.77,-313.11 306.19,-310.33"/>
</g>
<!-- coin::withdraw&#45;&gt;signer::address_of -->
<g id="edge10" class="edge">
<title>coin::withdraw&#45;&gt;signer::address_of</title>
<path fill="none" stroke="black" d="M399.23,-440.54C348.44,-440 263.63,-435.63 194,-415 173.03,-408.79 151.22,-397.8 133.99,-387.91"/>
<polygon fill="black" stroke="black" points="136.11,-385.1 125.72,-383.03 132.55,-391.13 136.11,-385.1"/>
</g>
<!-- coin::withdraw&#45;&gt;event::emit_event -->
<g id="edge13" class="edge">
<title>coin::withdraw&#45;&gt;event::emit_event</title>
<path fill="none" stroke="black" d="M413.11,-427.79C404.75,-424.07 395.86,-419.7 388,-415 375.98,-407.81 363.61,-398.65 353.12,-390.26"/>
<polygon fill="black" stroke="black" points="355.56,-387.73 345.6,-384.11 351.13,-393.15 355.56,-387.73"/>
</g>
<!-- error::not_found -->
<g id="node11" class="node">
<title>error::not_found</title>
<ellipse fill="none" stroke="black" cx="663" cy="-283" rx="46.59" ry="18"/>
<text text-anchor="middle" x="663" y="-279.3" font-family="Times,serif" font-size="14.00">not_found</text>
</g>
<!-- coin::withdraw&#45;&gt;error::not_found -->
<g id="edge11" class="edge">
<title>coin::withdraw&#45;&gt;error::not_found</title>
<path fill="none" stroke="black" d="M476.16,-428.11C482.95,-426.05 490.14,-424.18 497,-423 510.8,-420.62 739.25,-425.06 749,-415 772.19,-391.06 769.31,-366.43 749,-340 740.59,-329.06 731.21,-338.43 719,-332 707.2,-325.79 695.74,-316.69 686.29,-308.08"/>
<polygon fill="black" stroke="black" points="688.97,-305.81 679.32,-301.45 684.15,-310.88 688.97,-305.81"/>
</g>
<!-- error::permission_denied -->
<g id="node12" class="node">
<title>error::permission_denied</title>
<ellipse fill="none" stroke="black" cx="521" cy="-283" rx="77.19" ry="18"/>
<text text-anchor="middle" x="521" y="-279.3" font-family="Times,serif" font-size="14.00">permission_denied</text>
</g>
<!-- coin::withdraw&#45;&gt;error::permission_denied -->
<g id="edge12" class="edge">
<title>coin::withdraw&#45;&gt;error::permission_denied</title>
<path fill="none" stroke="black" d="M437.55,-422.93C430.8,-402.04 422.96,-366.24 437,-340 445.06,-324.93 459.17,-313.22 473.55,-304.49"/>
<polygon fill="black" stroke="black" points="475.14,-307.61 482.15,-299.66 471.72,-301.5 475.14,-307.61"/>
</g>
<!-- coin::extract -->
<g id="node13" class="node">
<title>coin::extract</title>
<ellipse fill="none" stroke="black" cx="706" cy="-366" rx="34.39" ry="18"/>
<text text-anchor="middle" x="706" y="-362.3" font-family="Times,serif" font-size="14.00">extract</text>
</g>
<!-- coin::withdraw&#45;&gt;coin::extract -->
<g id="edge14" class="edge">
<title>coin::withdraw&#45;&gt;coin::extract</title>
<path fill="none" stroke="black" d="M476.17,-428.2C482.97,-426.13 490.15,-424.24 497,-423 533.12,-416.45 628.77,-430.59 662,-415 672.63,-410.01 681.88,-401.16 689.12,-392.41"/>
<polygon fill="black" stroke="black" points="691.72,-394.78 694.99,-384.7 686.15,-390.54 691.72,-394.78"/>
</g>
<!-- coin::is_account_registered -->
<g id="node14" class="node">
<title>coin::is_account_registered</title>
<ellipse fill="none" stroke="black" cx="566" cy="-366" rx="87.18" ry="18"/>
<text text-anchor="middle" x="566" y="-362.3" font-family="Times,serif" font-size="14.00">is_account_registered</text>
</g>
<!-- coin::withdraw&#45;&gt;coin::is_account_registered -->
<g id="edge15" class="edge">
<title>coin::withdraw&#45;&gt;coin::is_account_registered</title>
<path fill="none" stroke="black" d="M468.1,-425.58C485.45,-415.2 509.17,-401 528.92,-389.19"/>
<polygon fill="black" stroke="black" points="530.46,-392.35 537.24,-384.21 526.86,-386.34 530.46,-392.35"/>
</g>
<!-- option::extract -->
<g id="node15" class="node">
<title>option::extract</title>
<ellipse fill="none" stroke="black" cx="1141" cy="-200" rx="34.39" ry="18"/>
<text text-anchor="middle" x="1141" y="-196.3" font-family="Times,serif" font-size="14.00">extract</text>
</g>
<!-- simple_map::borrow_mut&#45;&gt;option::extract -->
<g id="edge16" class="edge">
<title>simple_map::borrow_mut&#45;&gt;option::extract</title>
<path fill="none" stroke="black" d="M1016.99,-348.37C1041.42,-319.34 1091.95,-259.29 1120.39,-225.49"/>
<polygon fill="black" stroke="black" points="1123.05,-227.77 1126.81,-217.86 1117.69,-223.26 1123.05,-227.77"/>
</g>
<!-- option::is_some -->
<g id="node16" class="node">
<title>option::is_some</title>
<ellipse fill="none" stroke="black" cx="1147" cy="-117" rx="40.09" ry="18"/>
<text text-anchor="middle" x="1147" y="-113.3" font-family="Times,serif" font-size="14.00">is_some</text>
</g>
<!-- simple_map::borrow_mut&#45;&gt;option::is_some -->
<g id="edge17" class="edge">
<title>simple_map::borrow_mut&#45;&gt;option::is_some</title>
<path fill="none" stroke="black" d="M1005,-347.53C1007.96,-325.64 1014.66,-287.3 1028,-257 1046.03,-216.04 1055.53,-207.67 1085,-174 1095.4,-162.12 1108.17,-150.21 1119.41,-140.45"/>
<polygon fill="black" stroke="black" points="1121.52,-143.25 1126.88,-134.11 1116.99,-137.92 1121.52,-143.25"/>
</g>
<!-- error::invalid_argument -->
<g id="node17" class="node">
<title>error::invalid_argument</title>
<ellipse fill="none" stroke="black" cx="801" cy="-283" rx="73.39" ry="18"/>
<text text-anchor="middle" x="801" y="-279.3" font-family="Times,serif" font-size="14.00">invalid_argument</text>
</g>
<!-- simple_map::borrow_mut&#45;&gt;error::invalid_argument -->
<g id="edge18" class="edge">
<title>simple_map::borrow_mut&#45;&gt;error::invalid_argument</title>
<path fill="none" stroke="black" d="M969.19,-351.44C936.17,-338.2 885.62,-317.93 848.56,-303.07"/>
<polygon fill="black" stroke="black" points="849.99,-299.88 839.41,-299.4 847.39,-306.37 849.99,-299.88"/>
</g>
<!-- simple_map::find -->
<g id="node18" class="node">
<title>simple_map::find</title>
<ellipse fill="none" stroke="black" cx="1163" cy="-283" rx="27" ry="18"/>
<text text-anchor="middle" x="1163" y="-279.3" font-family="Times,serif" font-size="14.00">find</text>
</g>
<!-- simple_map::borrow_mut&#45;&gt;simple_map::find -->
<g id="edge19" class="edge">
<title>simple_map::borrow_mut&#45;&gt;simple_map::find</title>
<path fill="none" stroke="black" d="M1031.97,-350.33C1060.21,-336.04 1102.99,-314.38 1131.92,-299.73"/>
<polygon fill="black" stroke="black" points="1133.21,-303.01 1140.55,-295.37 1130.04,-296.76 1133.21,-303.01"/>
</g>
<!-- stake::add_stake_with_cap&#45;&gt;event::emit_event -->
<g id="edge22" class="edge">
<title>stake::add_stake_with_cap&#45;&gt;event::emit_event</title>
<path fill="none" stroke="black" d="M1740.21,-514.71C1438.89,-513.5 416.78,-508.07 388,-490 370.61,-479.08 348.65,-427.45 336.07,-394.65"/>
<polygon fill="black" stroke="black" points="339.37,-393.47 332.57,-385.35 332.82,-395.94 339.37,-393.47"/>
</g>
<!-- stake::add_stake_with_cap&#45;&gt;option::is_some -->
<g id="edge20" class="edge">
<title>stake::add_stake_with_cap&#45;&gt;option::is_some</title>
<path fill="none" stroke="black" d="M1740.33,-515.88C1644.95,-515.69 1483.7,-511.66 1347,-490 1233.39,-472 1210.64,-440.84 1097,-423 1079.31,-420.22 948.35,-427.98 936,-415 887.59,-364.13 907.64,-321.24 936,-257 966.35,-188.25 1050.57,-149.27 1102.97,-131"/>
<polygon fill="black" stroke="black" points="1103.84,-134.4 1112.2,-127.89 1101.61,-127.76 1103.84,-134.4"/>
</g>
<!-- stake::add_stake_with_cap&#45;&gt;error::invalid_argument -->
<g id="edge21" class="edge">
<title>stake::add_stake_with_cap&#45;&gt;error::invalid_argument</title>
<path fill="none" stroke="black" d="M1740.27,-515.02C1567.6,-514.64 1180.18,-511.37 1124,-490 1080.33,-473.39 1086.59,-439.82 1043,-423 1024.84,-415.99 884.37,-425.53 868,-415 858.44,-408.85 829.8,-347.96 813.23,-311.4"/>
<polygon fill="black" stroke="black" points="816.62,-310.42 809.32,-302.74 810.24,-313.29 816.62,-310.42"/>
</g>
<!-- coin::value -->
<g id="node19" class="node">
<title>coin::value</title>
<ellipse fill="none" stroke="black" cx="536" cy="-441" rx="29.8" ry="18"/>
<text text-anchor="middle" x="536" y="-437.3" font-family="Times,serif" font-size="14.00">value</text>
</g>
<!-- stake::add_stake_with_cap&#45;&gt;coin::value -->
<g id="edge23" class="edge">
<title>stake::add_stake_with_cap&#45;&gt;coin::value</title>
<path fill="none" stroke="black" d="M1740.31,-515.25C1470.06,-515.82 627.27,-515.53 575,-490 565.19,-485.21 557.01,-476.65 550.73,-468.07"/>
<polygon fill="black" stroke="black" points="553.72,-466.24 545.28,-459.83 547.88,-470.11 553.72,-466.24"/>
</g>
<!-- coin::destroy_zero -->
<g id="node20" class="node">
<title>coin::destroy_zero</title>
<ellipse fill="none" stroke="black" cx="724" cy="-441" rx="55.79" ry="18"/>
<text text-anchor="middle" x="724" y="-437.3" font-family="Times,serif" font-size="14.00">destroy_zero</text>
</g>
<!-- stake::add_stake_with_cap&#45;&gt;coin::destroy_zero -->
<g id="edge24" class="edge">
<title>stake::add_stake_with_cap&#45;&gt;coin::destroy_zero</title>
<path fill="none" stroke="black" d="M1740.43,-514.36C1503.2,-512.34 833.67,-505.31 789,-490 774.24,-484.94 760.03,-475.21 748.68,-465.83"/>
<polygon fill="black" stroke="black" points="751.22,-463.4 741.38,-459.47 746.62,-468.68 751.22,-463.4"/>
</g>
<!-- coin::merge -->
<g id="node21" class="node">
<title>coin::merge</title>
<ellipse fill="none" stroke="black" cx="617" cy="-441" rx="33.29" ry="18"/>
<text text-anchor="middle" x="617" y="-437.3" font-family="Times,serif" font-size="14.00">merge</text>
</g>
<!-- stake::add_stake_with_cap&#45;&gt;coin::merge -->
<g id="edge25" class="edge">
<title>stake::add_stake_with_cap&#45;&gt;coin::merge</title>
<path fill="none" stroke="black" d="M1740.09,-515.05C1482.1,-514.96 707.79,-512.78 659,-490 648.68,-485.18 639.88,-476.5 633.04,-467.82"/>
<polygon fill="black" stroke="black" points="635.97,-465.9 627.29,-459.82 630.28,-469.99 635.97,-465.9"/>
</g>
<!-- staking_config::get -->
<g id="node22" class="node">
<title>staking_config::get</title>
<ellipse fill="none" stroke="black" cx="1413" cy="-366" rx="27" ry="18"/>
<text text-anchor="middle" x="1413" y="-362.3" font-family="Times,serif" font-size="14.00">get</text>
</g>
<!-- stake::add_stake_with_cap&#45;&gt;staking_config::get -->
<g id="edge26" class="edge">
<title>stake::add_stake_with_cap&#45;&gt;staking_config::get</title>
<path fill="none" stroke="black" d="M1745.99,-509.2C1665.8,-499.96 1539.49,-476.15 1449,-415 1440.66,-409.36 1433.48,-401.13 1427.78,-393.08"/>
<polygon fill="black" stroke="black" points="1430.78,-391.28 1422.4,-384.79 1424.91,-395.09 1430.78,-391.28"/>
</g>
<!-- staking_config::get_required_stake -->
<g id="node23" class="node">
<title>staking_config::get_required_stake</title>
<ellipse fill="none" stroke="black" cx="1291" cy="-366" rx="77.19" ry="18"/>
<text text-anchor="middle" x="1291" y="-362.3" font-family="Times,serif" font-size="14.00">get_required_stake</text>
</g>
<!-- stake::add_stake_with_cap&#45;&gt;staking_config::get_required_stake -->
<g id="edge27" class="edge">
<title>stake::add_stake_with_cap&#45;&gt;staking_config::get_required_stake</title>
<path fill="none" stroke="black" d="M1740.33,-514.49C1649.93,-513.02 1511.34,-507.81 1462,-490 1403.2,-468.78 1346.69,-421.06 1315.62,-391.69"/>
<polygon fill="black" stroke="black" points="1318.28,-389.39 1308.64,-384.98 1313.42,-394.43 1318.28,-389.39"/>
</g>
<!-- stake::assert_stake_pool_exists -->
<g id="node24" class="node">
<title>stake::assert_stake_pool_exists</title>
<ellipse fill="none" stroke="black" cx="1870" cy="-366" rx="97.48" ry="18"/>
<text text-anchor="middle" x="1870" y="-362.3" font-family="Times,serif" font-size="14.00">assert_stake_pool_exists</text>
</g>
<!-- stake::add_stake_with_cap&#45;&gt;stake::assert_stake_pool_exists -->
<g id="edge28" class="edge">
<title>stake::add_stake_with_cap&#45;&gt;stake::assert_stake_pool_exists</title>
<path fill="none" stroke="black" d="M1904.57,-512.51C1940.71,-509.52 1977.64,-503.2 1989,-490 2008.43,-467.43 2004.96,-448.14 1989,-423 1977.8,-405.35 1959.39,-393.16 1940.36,-384.79"/>
<polygon fill="black" stroke="black" points="1941.76,-381.58 1931.18,-381.08 1939.14,-388.07 1941.76,-381.58"/>
</g>
<!-- stake::find_validator -->
<g id="node25" class="node">
<title>stake::find_validator</title>
<ellipse fill="none" stroke="black" cx="1965" cy="-283" rx="60.39" ry="18"/>
<text text-anchor="middle" x="1965" y="-279.3" font-family="Times,serif" font-size="14.00">find_validator</text>
</g>
<!-- stake::add_stake_with_cap&#45;&gt;stake::find_validator -->
<g id="edge29" class="edge">
<title>stake::add_stake_with_cap&#45;&gt;stake::find_validator</title>
<path fill="none" stroke="black" d="M1905.1,-513.53C1945.12,-510.9 1987.33,-504.58 2000,-490 2044.07,-439.27 2006.04,-354.11 1981.65,-310.9"/>
<polygon fill="black" stroke="black" points="1984.77,-309.29 1976.71,-302.41 1978.72,-312.82 1984.77,-309.29"/>
</g>
<!-- stake::get_next_epoch_voting_power -->
<g id="node26" class="node">
<title>stake::get_next_epoch_voting_power</title>
<ellipse fill="none" stroke="black" cx="2389" cy="-441" rx="119.68" ry="18"/>
<text text-anchor="middle" x="2389" y="-437.3" font-family="Times,serif" font-size="14.00">get_next_epoch_voting_power</text>
</g>
<!-- stake::add_stake_with_cap&#45;&gt;stake::get_next_epoch_voting_power -->
<g id="edge30" class="edge">
<title>stake::add_stake_with_cap&#45;&gt;stake::get_next_epoch_voting_power</title>
<path fill="none" stroke="black" d="M1904.92,-513.27C2012.47,-510.48 2195.32,-503.85 2261,-490 2288.99,-484.1 2319,-473.11 2342.92,-463.14"/>
<polygon fill="black" stroke="black" points="2344.24,-466.38 2352.06,-459.24 2341.49,-459.94 2344.24,-466.38"/>
</g>
<!-- stake::is_current_epoch_validator -->
<g id="node27" class="node">
<title>stake::is_current_epoch_validator</title>
<ellipse fill="none" stroke="black" cx="2145" cy="-441" rx="106.68" ry="18"/>
<text text-anchor="middle" x="2145" y="-437.3" font-family="Times,serif" font-size="14.00">is_current_epoch_validator</text>
</g>
<!-- stake::add_stake_with_cap&#45;&gt;stake::is_current_epoch_validator -->
<g id="edge31" class="edge">
<title>stake::add_stake_with_cap&#45;&gt;stake::is_current_epoch_validator</title>
<path fill="none" stroke="black" d="M1901.17,-509.92C1938.73,-506.31 1984.14,-500.21 2024,-490 2049.78,-483.4 2077.44,-472.72 2099.79,-463.1"/>
<polygon fill="black" stroke="black" points="2101.17,-466.32 2108.93,-459.1 2098.36,-459.91 2101.17,-466.32"/>
</g>
<!-- stake::update_voting_power_increase -->
<g id="node28" class="node">
<title>stake::update_voting_power_increase</title>
<ellipse fill="none" stroke="black" cx="1860" cy="-441" rx="120.48" ry="18"/>
<text text-anchor="middle" x="1860" y="-437.3" font-family="Times,serif" font-size="14.00">update_voting_power_increase</text>
</g>
<!-- stake::add_stake_with_cap&#45;&gt;stake::update_voting_power_increase -->
<g id="edge32" class="edge">
<title>stake::add_stake_with_cap&#45;&gt;stake::update_voting_power_increase</title>
<path fill="none" stroke="black" d="M1831.77,-497.7C1836.02,-489.31 1841.24,-479.02 1846.02,-469.58"/>
<polygon fill="black" stroke="black" points="1849.08,-471.28 1850.48,-460.78 1842.84,-468.12 1849.08,-471.28"/>
</g>
<!-- assert_staking_contract_exists&#45;&gt;error::not_found -->
<g id="edge33" class="edge">
<title>assert_staking_contract_exists&#45;&gt;error::not_found</title>
<path fill="none" stroke="black" d="M847.58,-425.95C841.26,-422.97 835.27,-419.37 830,-415 801.24,-391.15 822.72,-361.27 792,-340 765.16,-321.42 748.95,-344.98 719,-332 706.41,-326.54 694.54,-317.24 685,-308.27"/>
<polygon fill="black" stroke="black" points="687.57,-305.89 678.01,-301.31 682.63,-310.85 687.57,-305.89"/>
</g>
<!-- simple_map::contains_key -->
<g id="node29" class="node">
<title>simple_map::contains_key</title>
<ellipse fill="none" stroke="black" cx="1133" cy="-366" rx="57.39" ry="18"/>
<text text-anchor="middle" x="1133" y="-362.3" font-family="Times,serif" font-size="14.00">contains_key</text>
</g>
<!-- assert_staking_contract_exists&#45;&gt;simple_map::contains_key -->
<g id="edge34" class="edge">
<title>assert_staking_contract_exists&#45;&gt;simple_map::contains_key</title>
<path fill="none" stroke="black" d="M1013.73,-430.64C1031.87,-427.01 1050.33,-421.98 1067,-415 1081.23,-409.04 1095.3,-399.47 1106.76,-390.43"/>
<polygon fill="black" stroke="black" points="1108.68,-393.39 1114.19,-384.34 1104.23,-387.98 1108.68,-393.39"/>
</g>
<!-- error::canonical -->
<g id="node30" class="node">
<title>error::canonical</title>
<ellipse fill="none" stroke="black" cx="663" cy="-200" rx="44.39" ry="18"/>
<text text-anchor="middle" x="663" y="-196.3" font-family="Times,serif" font-size="14.00">canonical</text>
</g>
<!-- error::not_found&#45;&gt;error::canonical -->
<g id="edge35" class="edge">
<title>error::not_found&#45;&gt;error::canonical</title>
<path fill="none" stroke="black" d="M663,-264.82C663,-254.69 663,-241.6 663,-229.92"/>
<polygon fill="black" stroke="black" points="666.5,-229.95 663,-219.95 659.5,-229.95 666.5,-229.95"/>
</g>
<!-- error::permission_denied&#45;&gt;error::canonical -->
<g id="edge36" class="edge">
<title>error::permission_denied&#45;&gt;error::canonical</title>
<path fill="none" stroke="black" d="M549.39,-265.8C572.06,-252.88 603.91,-234.71 628.12,-220.9"/>
<polygon fill="black" stroke="black" points="629.71,-224.02 636.67,-216.02 626.25,-217.94 629.71,-224.02"/>
</g>
<!-- coin::extract&#45;&gt;error::invalid_argument -->
<g id="edge37" class="edge">
<title>coin::extract&#45;&gt;error::invalid_argument</title>
<path fill="none" stroke="black" d="M723.42,-350.14C737.25,-338.35 756.86,-321.63 772.91,-307.95"/>
<polygon fill="black" stroke="black" points="774.9,-310.85 780.24,-301.7 770.36,-305.53 774.9,-310.85"/>
</g>
<!-- option::extract&#45;&gt;option::is_some -->
<g id="edge38" class="edge">
<title>option::extract&#45;&gt;option::is_some</title>
<path fill="none" stroke="black" d="M1142.27,-181.82C1143.03,-171.58 1144.01,-158.33 1144.89,-146.55"/>
<polygon fill="black" stroke="black" points="1148.35,-147.17 1145.6,-136.94 1141.37,-146.66 1148.35,-147.17"/>
</g>
<!-- vector::is_empty -->
<g id="node31" class="node">
<title>vector::is_empty</title>
<ellipse fill="none" stroke="black" cx="1251" cy="-34" rx="43.59" ry="18"/>
<text text-anchor="middle" x="1251" y="-30.3" font-family="Times,serif" font-size="14.00">is_empty</text>
</g>
<!-- option::is_some&#45;&gt;vector::is_empty -->
<g id="edge39" class="edge">
<title>option::is_some&#45;&gt;vector::is_empty</title>
<path fill="none" stroke="black" d="M1166.08,-101.14C1181.85,-88.85 1204.51,-71.21 1222.45,-57.24"/>
<polygon fill="black" stroke="black" points="1224.41,-60.15 1230.14,-51.24 1220.1,-54.63 1224.41,-60.15"/>
</g>
<!-- error::invalid_argument&#45;&gt;error::canonical -->
<g id="edge40" class="edge">
<title>error::invalid_argument&#45;&gt;error::canonical</title>
<path fill="none" stroke="black" d="M773.74,-266C751.74,-253.09 720.69,-234.86 697.06,-220.99"/>
<polygon fill="black" stroke="black" points="699.13,-218.15 688.74,-216.11 695.59,-224.19 699.13,-218.15"/>
</g>
<!-- option::none -->
<g id="node32" class="node">
<title>option::none</title>
<ellipse fill="none" stroke="black" cx="1221" cy="-200" rx="27.9" ry="18"/>
<text text-anchor="middle" x="1221" y="-196.3" font-family="Times,serif" font-size="14.00">none</text>
</g>
<!-- simple_map::find&#45;&gt;option::none -->
<g id="edge41" class="edge">
<title>simple_map::find&#45;&gt;option::none</title>
<path fill="none" stroke="black" d="M1174.18,-266.38C1182.39,-254.91 1193.72,-239.1 1203.17,-225.9"/>
<polygon fill="black" stroke="black" points="1205.8,-228.24 1208.77,-218.08 1200.1,-224.17 1205.8,-228.24"/>
</g>
<!-- option::some -->
<g id="node33" class="node">
<title>option::some</title>
<ellipse fill="none" stroke="black" cx="1297" cy="-200" rx="29.8" ry="18"/>
<text text-anchor="middle" x="1297" y="-196.3" font-family="Times,serif" font-size="14.00">some</text>
</g>
<!-- simple_map::find&#45;&gt;option::some -->
<g id="edge42" class="edge">
<title>simple_map::find&#45;&gt;option::some</title>
<path fill="none" stroke="black" d="M1188.98,-277.06C1209.16,-272.31 1237.13,-263.63 1258,-249 1266.59,-242.98 1274.31,-234.55 1280.57,-226.44"/>
<polygon fill="black" stroke="black" points="1283.32,-228.62 1286.32,-218.46 1277.64,-224.52 1283.32,-228.62"/>
</g>
<!-- comparator::compare -->
<g id="node34" class="node">
<title>comparator::compare</title>
<ellipse fill="none" stroke="black" cx="1826" cy="-200" rx="41.69" ry="18"/>
<text text-anchor="middle" x="1826" y="-196.3" font-family="Times,serif" font-size="14.00">compare</text>
</g>
<!-- simple_map::find&#45;&gt;comparator::compare -->
<g id="edge43" class="edge">
<title>simple_map::find&#45;&gt;comparator::compare</title>
<path fill="none" stroke="black" d="M1189.4,-278.77C1288.87,-266.62 1642.14,-223.46 1774.99,-207.23"/>
<polygon fill="black" stroke="black" points="1775.4,-210.71 1784.9,-206.02 1774.55,-203.76 1775.4,-210.71"/>
</g>
<!-- comparator::is_smaller_than -->
<g id="node35" class="node">
<title>comparator::is_smaller_than</title>
<ellipse fill="none" stroke="black" cx="1953" cy="-200" rx="66.89" ry="18"/>
<text text-anchor="middle" x="1953" y="-196.3" font-family="Times,serif" font-size="14.00">is_smaller_than</text>
</g>
<!-- simple_map::find&#45;&gt;comparator::is_smaller_than -->
<g id="edge44" class="edge">
<title>simple_map::find&#45;&gt;comparator::is_smaller_than</title>
<path fill="none" stroke="black" d="M1190.2,-280.84C1319.8,-275.28 1868.65,-251.63 1877,-249 1893.77,-243.72 1910.5,-233.8 1923.97,-224.33"/>
<polygon fill="black" stroke="black" points="1925.95,-227.23 1931.94,-218.49 1921.81,-221.58 1925.95,-227.23"/>
</g>
<!-- coin::destroy_zero&#45;&gt;error::invalid_argument -->
<g id="edge45" class="edge">
<title>coin::destroy_zero&#45;&gt;error::invalid_argument</title>
<path fill="none" stroke="black" d="M684.06,-428.12C675.84,-426.09 667.19,-424.23 659,-423 648.61,-421.44 477.27,-422.59 470,-415 446.93,-390.94 446.81,-363.95 470,-340 479.63,-330.06 705.7,-335.84 719,-332 737.2,-326.75 755.58,-316.55 770.3,-306.9"/>
<polygon fill="black" stroke="black" points="771.87,-310.07 778.17,-301.54 767.93,-304.28 771.87,-310.07"/>
</g>
<!-- stake::assert_stake_pool_exists&#45;&gt;error::invalid_argument -->
<g id="edge46" class="edge">
<title>stake::assert_stake_pool_exists&#45;&gt;error::invalid_argument</title>
<path fill="none" stroke="black" d="M1807.74,-351.76C1783.04,-347.1 1754.3,-342.43 1728,-340 1640.37,-331.9 1022.65,-347.4 936,-332 904.71,-326.44 871.03,-314.48 845.14,-303.88"/>
<polygon fill="black" stroke="black" points="846.52,-300.67 835.95,-300.04 843.82,-307.13 846.52,-300.67"/>
</g>
<!-- stake::stake_pool_exists -->
<g id="node36" class="node">
<title>stake::stake_pool_exists</title>
<ellipse fill="none" stroke="black" cx="1813" cy="-283" rx="73.39" ry="18"/>
<text text-anchor="middle" x="1813" y="-279.3" font-family="Times,serif" font-size="14.00">stake_pool_exists</text>
</g>
<!-- stake::assert_stake_pool_exists&#45;&gt;stake::stake_pool_exists -->
<g id="edge47" class="edge">
<title>stake::assert_stake_pool_exists&#45;&gt;stake::stake_pool_exists</title>
<path fill="none" stroke="black" d="M1857.91,-347.82C1850.28,-336.98 1840.26,-322.74 1831.63,-310.47"/>
<polygon fill="black" stroke="black" points="1834.56,-308.55 1825.94,-302.39 1828.83,-312.58 1834.56,-308.55"/>
</g>
<!-- stake::find_validator&#45;&gt;option::none -->
<g id="edge48" class="edge">
<title>stake::find_validator&#45;&gt;option::none</title>
<path fill="none" stroke="black" d="M1931.79,-267.61C1920.35,-263.34 1907.32,-259.21 1895,-257 1860.17,-250.74 1289.66,-264.82 1258,-249 1248.43,-244.22 1240.62,-235.66 1234.69,-227.08"/>
<polygon fill="black" stroke="black" points="1237.84,-225.51 1229.59,-218.87 1231.89,-229.21 1237.84,-225.51"/>
</g>
<!-- stake::find_validator&#45;&gt;option::some -->
<g id="edge49" class="edge">
<title>stake::find_validator&#45;&gt;option::some</title>
<path fill="none" stroke="black" d="M1931.38,-267.76C1920.03,-263.56 1907.15,-259.43 1895,-257 1828.23,-243.63 1809.88,-254.43 1742,-249 1592.44,-237.03 1415.33,-215.81 1337.32,-206.1"/>
<polygon fill="black" stroke="black" points="1337.96,-202.66 1327.61,-204.89 1337.1,-209.6 1337.96,-202.66"/>
</g>
<!-- stake::get_next_epoch_voting_power&#45;&gt;coin::value -->
<g id="edge50" class="edge">
<title>stake::get_next_epoch_voting_power&#45;&gt;coin::value</title>
<path fill="none" stroke="black" d="M2354.01,-458.69C2326.94,-471.33 2288.1,-487.26 2252,-494 2229.23,-498.25 606.66,-498.81 584,-494 569.77,-490.98 558.51,-479.62 550.48,-468.19"/>
<polygon fill="black" stroke="black" points="553.62,-466.6 545.31,-460.03 547.71,-470.35 553.62,-466.6"/>
</g>
<!-- stake::is_current_epoch_validator&#45;&gt;stake::assert_stake_pool_exists -->
<g id="edge51" class="edge">
<title>stake::is_current_epoch_validator&#45;&gt;stake::assert_stake_pool_exists</title>
<path fill="none" stroke="black" d="M2078.23,-426.58C2062.05,-423.06 2044.86,-419.1 2029,-415 1995.06,-406.23 1957.5,-394.97 1927.41,-385.56"/>
<polygon fill="black" stroke="black" points="1928.71,-382.3 1918.12,-382.63 1926.61,-388.97 1928.71,-382.3"/>
</g>
<!-- stake::get_validator_state -->
<g id="node37" class="node">
<title>stake::get_validator_state</title>
<ellipse fill="none" stroke="black" cx="2115" cy="-366" rx="77.19" ry="18"/>
<text text-anchor="middle" x="2115" y="-362.3" font-family="Times,serif" font-size="14.00">get_validator_state</text>
</g>
<!-- stake::is_current_epoch_validator&#45;&gt;stake::get_validator_state -->
<g id="edge52" class="edge">
<title>stake::is_current_epoch_validator&#45;&gt;stake::get_validator_state</title>
<path fill="none" stroke="black" d="M2137.89,-422.7C2134.45,-414.34 2130.24,-404.09 2126.38,-394.68"/>
<polygon fill="black" stroke="black" points="2129.67,-393.49 2122.63,-385.58 2123.2,-396.16 2129.67,-393.49"/>
</g>
<!-- stake::update_voting_power_increase&#45;&gt;error::invalid_argument -->
<g id="edge53" class="edge">
<title>stake::update_voting_power_increase&#45;&gt;error::invalid_argument</title>
<path fill="none" stroke="black" d="M1741.55,-437.35C1494.27,-431.73 945.16,-418.86 936,-415 934.26,-414.27 864.88,-346.52 826.28,-308.75"/>
<polygon fill="black" stroke="black" points="828.77,-306.29 819.17,-301.8 823.87,-311.29 828.77,-306.29"/>
</g>
<!-- stake::update_voting_power_increase&#45;&gt;staking_config::get -->
<g id="edge54" class="edge">
<title>stake::update_voting_power_increase&#45;&gt;staking_config::get</title>
<path fill="none" stroke="black" d="M1749.88,-433.44C1628.42,-426.18 1449.83,-415.45 1449,-415 1439.77,-410.03 1432.24,-401.55 1426.49,-393.09"/>
<polygon fill="black" stroke="black" points="1429.55,-391.39 1421.36,-384.67 1423.57,-395.03 1429.55,-391.39"/>
</g>
<!-- staking_config::get_voting_power_increase_limit -->
<g id="node38" class="node">
<title>staking_config::get_voting_power_increase_limit</title>
<ellipse fill="none" stroke="black" cx="1587" cy="-366" rx="129.18" ry="18"/>
<text text-anchor="middle" x="1587" y="-362.3" font-family="Times,serif" font-size="14.00">get_voting_power_increase_limit</text>
</g>
<!-- stake::update_voting_power_increase&#45;&gt;staking_config::get_voting_power_increase_limit -->
<g id="edge55" class="edge">
<title>stake::update_voting_power_increase&#45;&gt;staking_config::get_voting_power_increase_limit</title>
<path fill="none" stroke="black" d="M1781.42,-427C1763.74,-423.56 1745.14,-419.52 1728,-415 1698.79,-407.3 1666.88,-396.64 1640.82,-387.31"/>
<polygon fill="black" stroke="black" points="1642.05,-384.04 1631.45,-383.93 1639.66,-390.62 1642.05,-384.04"/>
</g>
<!-- simple_map::contains_key&#45;&gt;option::is_some -->
<g id="edge56" class="edge">
<title>simple_map::contains_key&#45;&gt;option::is_some</title>
<path fill="none" stroke="black" d="M1123.92,-347.85C1107.12,-313.74 1074.94,-235.38 1098,-174 1102.63,-161.69 1111.33,-150.31 1120.12,-141.07"/>
<polygon fill="black" stroke="black" points="1122.36,-143.78 1127.04,-134.28 1117.45,-138.79 1122.36,-143.78"/>
</g>
<!-- simple_map::contains_key&#45;&gt;simple_map::find -->
<g id="edge57" class="edge">
<title>simple_map::contains_key&#45;&gt;simple_map::find</title>
<path fill="none" stroke="black" d="M1139.36,-347.82C1143.29,-337.23 1148.41,-323.4 1152.88,-311.33"/>
<polygon fill="black" stroke="black" points="1156.03,-312.89 1156.22,-302.29 1149.47,-310.46 1156.03,-312.89"/>
</g>
<!-- vector::singleton -->
<g id="node39" class="node">
<title>vector::singleton</title>
<ellipse fill="none" stroke="black" cx="1355" cy="-34" rx="42.79" ry="18"/>
<text text-anchor="middle" x="1355" y="-30.3" font-family="Times,serif" font-size="14.00">singleton</text>
</g>
<!-- option::some&#45;&gt;vector::singleton -->
<g id="edge58" class="edge">
<title>option::some&#45;&gt;vector::singleton</title>
<path fill="none" stroke="black" d="M1326.68,-196.58C1365.07,-192.76 1428.72,-183.86 1443,-166 1463.81,-139.96 1459.04,-120.22 1443,-91 1433.09,-72.95 1414.63,-59.89 1397.16,-50.95"/>
<polygon fill="black" stroke="black" points="1398.97,-47.93 1388.44,-46.8 1395.97,-54.25 1398.97,-47.93"/>
</g>
<!-- comparator::compare&#45;&gt;bcs::to_bytes -->
<g id="edge59" class="edge">
<title>comparator::compare&#45;&gt;bcs::to_bytes</title>
<path fill="none" stroke="black" d="M1799.78,-185.52C1790.57,-181.26 1780.02,-176.92 1770,-174 1655.58,-140.69 1515.68,-126.58 1442.01,-121.1"/>
<polygon fill="black" stroke="black" points="1442.5,-117.63 1432.28,-120.41 1442,-124.61 1442.5,-117.63"/>
</g>
<!-- comparator::compare_u8_vector -->
<g id="node40" class="node">
<title>comparator::compare_u8_vector</title>
<ellipse fill="none" stroke="black" cx="1865" cy="-117" rx="81.49" ry="18"/>
<text text-anchor="middle" x="1865" y="-113.3" font-family="Times,serif" font-size="14.00">compare_u8_vector</text>
</g>
<!-- comparator::compare&#45;&gt;comparator::compare_u8_vector -->
<g id="edge60" class="edge">
<title>comparator::compare&#45;&gt;comparator::compare_u8_vector</title>
<path fill="none" stroke="black" d="M1834.08,-182.22C1839.19,-171.61 1845.91,-157.65 1851.78,-145.45"/>
<polygon fill="black" stroke="black" points="1854.82,-147.21 1856,-136.68 1848.51,-144.18 1854.82,-147.21"/>
</g>
<!-- stake::get_validator_state&#45;&gt;option::is_some -->
<g id="edge61" class="edge">
<title>stake::get_validator_state&#45;&gt;option::is_some</title>
<path fill="none" stroke="black" d="M2107.91,-347.66C2096.55,-322.44 2071.65,-276.55 2034,-257 2008.15,-243.58 1800.95,-252.2 1772,-249 1577.24,-227.5 1530.34,-208.22 1339,-166 1288.31,-154.81 1230.57,-140.11 1191.77,-129.94"/>
<polygon fill="black" stroke="black" points="1192.88,-126.61 1182.32,-127.45 1191.1,-133.38 1192.88,-126.61"/>
</g>
<!-- stake::get_validator_state&#45;&gt;stake::find_validator -->
<g id="edge62" class="edge">
<title>stake::get_validator_state&#45;&gt;stake::find_validator</title>
<path fill="none" stroke="black" d="M2076.92,-349.93C2064.61,-344.67 2051.04,-338.46 2039,-332 2024.81,-324.38 2009.78,-314.92 1997.01,-306.42"/>
<polygon fill="black" stroke="black" points="1999.23,-303.69 1988.98,-301 1995.31,-309.49 1999.23,-303.69"/>
</g>
</g>
</svg>
