<?xml version="1.0" encoding="UTF-8" standalone="no"?>
<!DOCTYPE svg PUBLIC "-//W3C//DTD SVG 1.1//EN"
 "http://www.w3.org/Graphics/SVG/1.1/DTD/svg11.dtd">
<!-- Generated by graphviz version 7.0.0 (20221023.0053)
 -->
<!-- Title: G Pages: 1 -->
<svg width="2546pt" height="908pt"
 viewBox="0.00 0.00 2546.21 908.00" xmlns="http://www.w3.org/2000/svg" xmlns:xlink="http://www.w3.org/1999/xlink">
<g id="graph0" class="graph" transform="scale(1 1) rotate(0) translate(4 904)">
<title>G</title>
<polygon fill="white" stroke="none" points="-4,4 -4,-904 2542.21,-904 2542.21,4 -4,4"/>
<!-- staking_proxy -->
<g id="node1" class="node">
<title>staking_proxy</title>
<ellipse fill="none" stroke="black" cx="1254" cy="-882" rx="61.19" ry="18"/>
<text text-anchor="middle" x="1254" y="-878.3" font-family="Times,serif" font-size="14.00">staking_proxy</text>
</g>
<!-- signer -->
<g id="node2" class="node">
<title>signer</title>
<ellipse fill="none" stroke="black" cx="253" cy="-90" rx="32.49" ry="18"/>
<text text-anchor="middle" x="253" y="-86.3" font-family="Times,serif" font-size="14.00">signer</text>
</g>
<!-- staking_proxy&#45;&gt;signer -->
<g id="edge1" class="edge">
<title>staking_proxy&#45;&gt;signer</title>
<path fill="none" stroke="black" d="M1192.67,-880.58C940.9,-878.05 0,-860.46 0,-739 0,-739 0,-739 0,-377 0,-256.42 49.47,-224.78 139,-144 160.4,-124.69 190.07,-111.2 213.77,-102.66"/>
<polygon fill="black" stroke="black" points="214.77,-106.02 223.1,-99.46 212.5,-99.39 214.77,-106.02"/>
</g>
<!-- stake -->
<g id="node3" class="node">
<title>stake</title>
<ellipse fill="none" stroke="black" cx="1150" cy="-666" rx="28.7" ry="18"/>
<text text-anchor="middle" x="1150" y="-662.3" font-family="Times,serif" font-size="14.00">stake</text>
</g>
<!-- staking_proxy&#45;&gt;stake -->
<g id="edge2" class="edge">
<title>staking_proxy&#45;&gt;stake</title>
<path fill="none" stroke="black" d="M1245.67,-863.85C1227.59,-826.65 1184.66,-738.31 1162.99,-693.72"/>
<polygon fill="black" stroke="black" points="1166.27,-692.47 1158.75,-685 1159.97,-695.53 1166.27,-692.47"/>
</g>
<!-- staking_contract -->
<g id="node4" class="node">
<title>staking_contract</title>
<ellipse fill="none" stroke="black" cx="1996" cy="-738" rx="68.79" ry="18"/>
<text text-anchor="middle" x="1996" y="-734.3" font-family="Times,serif" font-size="14.00">staking_contract</text>
</g>
<!-- staking_proxy&#45;&gt;staking_contract -->
<g id="edge3" class="edge">
<title>staking_proxy&#45;&gt;staking_contract</title>
<path fill="none" stroke="black" d="M1311.4,-875.48C1388.74,-867.55 1530.51,-851.28 1650,-828 1753.95,-807.75 1873.15,-774.92 1941.02,-755.3"/>
<polygon fill="black" stroke="black" points="1941.79,-758.72 1950.42,-752.57 1939.84,-752 1941.79,-758.72"/>
</g>
<!-- vesting -->
<g id="node5" class="node">
<title>vesting</title>
<ellipse fill="none" stroke="black" cx="1605" cy="-810" rx="36.29" ry="18"/>
<text text-anchor="middle" x="1605" y="-806.3" font-family="Times,serif" font-size="14.00">vesting</text>
</g>
<!-- staking_proxy&#45;&gt;vesting -->
<g id="edge4" class="edge">
<title>staking_proxy&#45;&gt;vesting</title>
<path fill="none" stroke="black" d="M1303.55,-871.12C1372.18,-857.43 1495.13,-832.91 1560.8,-819.81"/>
<polygon fill="black" stroke="black" points="1561.38,-823.27 1570.5,-817.88 1560.01,-816.4 1561.38,-823.27"/>
</g>
<!-- stake&#45;&gt;signer -->
<g id="edge7" class="edge">
<title>stake&#45;&gt;signer</title>
<path fill="none" stroke="black" d="M1120.91,-665.09C1004.72,-665.09 574.21,-661.7 449,-612 378.32,-583.95 190,-402.18 190,-379 190,-379 190,-379 190,-233 190,-189.04 215.54,-143.5 234.09,-116.21"/>
<polygon fill="black" stroke="black" points="236.8,-118.45 239.68,-108.25 231.07,-114.42 236.8,-118.45"/>
</g>
<!-- vector -->
<g id="node6" class="node">
<title>vector</title>
<ellipse fill="none" stroke="black" cx="1107" cy="-18" rx="32.49" ry="18"/>
<text text-anchor="middle" x="1107" y="-14.3" font-family="Times,serif" font-size="14.00">vector</text>
</g>
<!-- stake&#45;&gt;vector -->
<g id="edge5" class="edge">
<title>stake&#45;&gt;vector</title>
<path fill="none" stroke="black" d="M1120.91,-665.3C998.46,-666.22 525.06,-666.14 388,-612 188.24,-533.09 94.73,-430.17 111,-216 116.06,-149.4 99.03,-109.94 154,-72 229.37,-19.99 885.1,-18.28 1062.77,-18.79"/>
<polygon fill="black" stroke="black" points="1062.72,-22.29 1072.73,-18.82 1062.74,-15.29 1062.72,-22.29"/>
</g>
<!-- option -->
<g id="node7" class="node">
<title>option</title>
<ellipse fill="none" stroke="black" cx="1077" cy="-90" rx="33.29" ry="18"/>
<text text-anchor="middle" x="1077" y="-86.3" font-family="Times,serif" font-size="14.00">option</text>
</g>
<!-- stake&#45;&gt;option -->
<g id="edge6" class="edge">
<title>stake&#45;&gt;option</title>
<path fill="none" stroke="black" d="M1121.15,-664.43C995.53,-661.34 497.59,-642.69 389,-540 341.36,-494.95 364.15,-461.17 357,-396 342.07,-259.95 403.73,-185.97 534,-144 626.52,-114.19 919.69,-98.11 1032.33,-92.91"/>
<polygon fill="black" stroke="black" points="1032.25,-96.42 1042.08,-92.47 1031.93,-89.42 1032.25,-96.42"/>
</g>
<!-- error -->
<g id="node8" class="node">
<title>error</title>
<ellipse fill="none" stroke="black" cx="1640" cy="-90" rx="27.9" ry="18"/>
<text text-anchor="middle" x="1640" y="-86.3" font-family="Times,serif" font-size="14.00">error</text>
</g>
<!-- stake&#45;&gt;error -->
<g id="edge8" class="edge">
<title>stake&#45;&gt;error</title>
<path fill="none" stroke="black" d="M1160.66,-648.83C1207.72,-577.68 1397.84,-292.59 1473,-216 1516.05,-172.12 1575.44,-131.48 1610.56,-109.07"/>
<polygon fill="black" stroke="black" points="1612.35,-112.08 1618.94,-103.78 1608.61,-106.16 1612.35,-112.08"/>
</g>
<!-- system_addresses -->
<g id="node9" class="node">
<title>system_addresses</title>
<ellipse fill="none" stroke="black" cx="468" cy="-306" rx="73.39" ry="18"/>
<text text-anchor="middle" x="468" y="-302.3" font-family="Times,serif" font-size="14.00">system_addresses</text>
</g>
<!-- stake&#45;&gt;system_addresses -->
<g id="edge9" class="edge">
<title>stake&#45;&gt;system_addresses</title>
<path fill="none" stroke="black" d="M1139.12,-649.19C1132.29,-638.88 1123.55,-624.96 1117,-612 1093.7,-565.89 1115.8,-534.37 1074,-504 973.83,-431.23 615.27,-544.61 518,-468 477.82,-436.35 469.2,-372.89 467.77,-335.8"/>
<polygon fill="black" stroke="black" points="471.27,-335.75 467.56,-325.83 464.27,-335.9 471.27,-335.75"/>
</g>
<!-- event -->
<g id="node10" class="node">
<title>event</title>
<ellipse fill="none" stroke="black" cx="1920" cy="-378" rx="29.8" ry="18"/>
<text text-anchor="middle" x="1920" y="-374.3" font-family="Times,serif" font-size="14.00">event</text>
</g>
<!-- stake&#45;&gt;event -->
<g id="edge10" class="edge">
<title>stake&#45;&gt;event</title>
<path fill="none" stroke="black" d="M1174.11,-655.79C1196.99,-646.48 1231.84,-630.8 1259,-612 1278.13,-598.76 1276.07,-586.16 1297,-576 1396.41,-527.75 1436.64,-569.95 1543,-540 1676.08,-502.53 1824.28,-429.22 1888.02,-396.04"/>
<polygon fill="black" stroke="black" points="1889.64,-399.14 1896.87,-391.4 1886.39,-392.94 1889.64,-399.14"/>
</g>
<!-- account -->
<g id="node11" class="node">
<title>account</title>
<ellipse fill="none" stroke="black" cx="1464" cy="-450" rx="38.19" ry="18"/>
<text text-anchor="middle" x="1464" y="-446.3" font-family="Times,serif" font-size="14.00">account</text>
</g>
<!-- stake&#45;&gt;account -->
<g id="edge11" class="edge">
<title>stake&#45;&gt;account</title>
<path fill="none" stroke="black" d="M1168.1,-651.51C1182.45,-640.8 1203.02,-625.45 1221,-612 1242.35,-596.02 1247.09,-591.21 1269,-576 1324.95,-537.16 1392.22,-495 1431.34,-470.91"/>
<polygon fill="black" stroke="black" points="1433.15,-473.91 1439.84,-465.7 1429.48,-467.95 1433.15,-473.91"/>
</g>
<!-- coin -->
<g id="node12" class="node">
<title>coin</title>
<ellipse fill="none" stroke="black" cx="1186" cy="-522" rx="27" ry="18"/>
<text text-anchor="middle" x="1186" y="-518.3" font-family="Times,serif" font-size="14.00">coin</text>
</g>
<!-- stake&#45;&gt;coin -->
<g id="edge12" class="edge">
<title>stake&#45;&gt;coin</title>
<path fill="none" stroke="black" d="M1154.34,-647.87C1160.42,-623.88 1171.55,-579.99 1178.86,-551.16"/>
<polygon fill="black" stroke="black" points="1182.21,-552.21 1181.27,-541.66 1175.42,-550.49 1182.21,-552.21"/>
</g>
<!-- aptos_coin -->
<g id="node13" class="node">
<title>aptos_coin</title>
<ellipse fill="none" stroke="black" cx="940" cy="-594" rx="48.99" ry="18"/>
<text text-anchor="middle" x="940" y="-590.3" font-family="Times,serif" font-size="14.00">aptos_coin</text>
</g>
<!-- stake&#45;&gt;aptos_coin -->
<g id="edge13" class="edge">
<title>stake&#45;&gt;aptos_coin</title>
<path fill="none" stroke="black" d="M1125.09,-656.7C1090.9,-645.3 1028.84,-624.61 986.07,-610.36"/>
<polygon fill="black" stroke="black" points="987.4,-607.11 976.81,-607.27 985.19,-613.75 987.4,-607.11"/>
</g>
<!-- timestamp -->
<g id="node14" class="node">
<title>timestamp</title>
<ellipse fill="none" stroke="black" cx="1017" cy="-522" rx="48.19" ry="18"/>
<text text-anchor="middle" x="1017" y="-518.3" font-family="Times,serif" font-size="14.00">timestamp</text>
</g>
<!-- stake&#45;&gt;timestamp -->
<g id="edge14" class="edge">
<title>stake&#45;&gt;timestamp</title>
<path fill="none" stroke="black" d="M1129.97,-652.58C1114.94,-642.7 1094.4,-627.92 1079,-612 1060.66,-593.05 1043.83,-568.19 1032.35,-549.57"/>
<polygon fill="black" stroke="black" points="1035.48,-547.99 1027.32,-541.23 1029.49,-551.6 1035.48,-547.99"/>
</g>
<!-- staking_config -->
<g id="node15" class="node">
<title>staking_config</title>
<ellipse fill="none" stroke="black" cx="1772" cy="-522" rx="63.09" ry="18"/>
<text text-anchor="middle" x="1772" y="-518.3" font-family="Times,serif" font-size="14.00">staking_config</text>
</g>
<!-- stake&#45;&gt;staking_config -->
<g id="edge15" class="edge">
<title>stake&#45;&gt;staking_config</title>
<path fill="none" stroke="black" d="M1176.43,-658.49C1206.83,-650.34 1257.6,-634.64 1297,-612 1318.61,-599.58 1317.09,-585.82 1340,-576 1470.32,-520.12 1516.4,-558.37 1657,-540 1673.02,-537.91 1690.26,-535.46 1706.39,-533.09"/>
<polygon fill="black" stroke="black" points="1706.48,-536.61 1715.86,-531.68 1705.46,-529.69 1706.48,-536.61"/>
</g>
<!-- math64 -->
<g id="node16" class="node">
<title>math64</title>
<ellipse fill="none" stroke="black" cx="1387" cy="-594" rx="37.89" ry="18"/>
<text text-anchor="middle" x="1387" y="-590.3" font-family="Times,serif" font-size="14.00">math64</text>
</g>
<!-- stake&#45;&gt;math64 -->
<g id="edge16" class="edge">
<title>stake&#45;&gt;math64</title>
<path fill="none" stroke="black" d="M1176.13,-657.84C1212.04,-647.93 1278.62,-629.29 1335,-612 1338.5,-610.93 1342.12,-609.79 1345.75,-608.64"/>
<polygon fill="black" stroke="black" points="1346.65,-612.03 1355.1,-605.63 1344.51,-605.36 1346.65,-612.03"/>
</g>
<!-- bls12381 -->
<g id="node17" class="node">
<title>bls12381</title>
<ellipse fill="none" stroke="black" cx="1047" cy="-162" rx="42.79" ry="18"/>
<text text-anchor="middle" x="1047" y="-158.3" font-family="Times,serif" font-size="14.00">bls12381</text>
</g>
<!-- stake&#45;&gt;bls12381 -->
<g id="edge17" class="edge">
<title>stake&#45;&gt;bls12381</title>
<path fill="none" stroke="black" d="M1147.54,-647.87C1142.53,-617.13 1129.07,-551.41 1100,-504 1040.03,-406.21 959.63,-429.68 915,-324 896.1,-279.24 901.24,-253.62 932,-216 948.82,-195.43 975.39,-182.47 998.75,-174.52"/>
<polygon fill="black" stroke="black" points="999.64,-177.91 1008.12,-171.56 997.53,-171.24 999.64,-177.91"/>
</g>
<!-- staking_contract&#45;&gt;signer -->
<g id="edge19" class="edge">
<title>staking_contract&#45;&gt;signer</title>
<path fill="none" stroke="black" d="M1934.55,-729.48C1905.34,-726.14 1869.91,-722.42 1838,-720 1667.84,-707.1 448.57,-705.78 306,-612 179.13,-528.55 152,-458.86 152,-307 152,-307 152,-307 152,-233 152,-182.28 195.32,-137.09 225.22,-111.94"/>
<polygon fill="black" stroke="black" points="227.28,-114.77 232.83,-105.75 222.86,-109.34 227.28,-114.77"/>
</g>
<!-- staking_contract&#45;&gt;stake -->
<g id="edge28" class="edge">
<title>staking_contract&#45;&gt;stake</title>
<path fill="none" stroke="black" d="M1934.14,-729.91C1904.99,-726.67 1869.73,-722.93 1838,-720 1591.9,-697.29 1295.65,-676.76 1189.9,-669.65"/>
<polygon fill="black" stroke="black" points="1190.26,-666.17 1180.04,-668.99 1189.79,-673.15 1190.26,-666.17"/>
</g>
<!-- staking_contract&#45;&gt;vector -->
<g id="edge18" class="edge">
<title>staking_contract&#45;&gt;vector</title>
<path fill="none" stroke="black" d="M2057.54,-729.5C2187.48,-709.88 2478,-644.39 2478,-451 2478,-451 2478,-451 2478,-161 2478,-24.36 1386.65,-18.51 1151.36,-18.83"/>
<polygon fill="black" stroke="black" points="1151.38,-15.33 1141.39,-18.85 1151.39,-22.33 1151.38,-15.33"/>
</g>
<!-- staking_contract&#45;&gt;error -->
<g id="edge20" class="edge">
<title>staking_contract&#45;&gt;error</title>
<path fill="none" stroke="black" d="M2036.35,-723.09C2062.13,-713.54 2095.88,-699.75 2124,-684 2294.29,-588.6 2440,-574.19 2440,-379 2440,-379 2440,-379 2440,-305 2440,-226.06 2429.98,-188.83 2365,-144 2308.35,-104.92 1821.93,-93.96 1679.21,-91.57"/>
<polygon fill="black" stroke="black" points="1679.57,-88.08 1669.52,-91.41 1679.46,-95.08 1679.57,-88.08"/>
</g>
<!-- staking_contract&#45;&gt;event -->
<g id="edge22" class="edge">
<title>staking_contract&#45;&gt;event</title>
<path fill="none" stroke="black" d="M1996,-719.51C1996,-692.71 1996,-639.87 1996,-595 1996,-595 1996,-595 1996,-521 1996,-474.98 1964.58,-429.43 1942.15,-402.78"/>
<polygon fill="black" stroke="black" points="1944.85,-400.56 1935.65,-395.31 1939.57,-405.15 1944.85,-400.56"/>
</g>
<!-- staking_contract&#45;&gt;account -->
<g id="edge23" class="edge">
<title>staking_contract&#45;&gt;account</title>
<path fill="none" stroke="black" d="M1990.37,-719.59C1975,-675.13 1927.79,-557.2 1844,-504 1790.06,-469.75 1603.57,-457.07 1513.48,-452.87"/>
<polygon fill="black" stroke="black" points="1513.86,-449.38 1503.72,-452.43 1513.55,-456.37 1513.86,-449.38"/>
</g>
<!-- staking_contract&#45;&gt;coin -->
<g id="edge24" class="edge">
<title>staking_contract&#45;&gt;coin</title>
<path fill="none" stroke="black" d="M1955.47,-723.16C1853.16,-688.34 1586.06,-598.32 1495,-576 1398.56,-552.36 1282.65,-535.5 1224,-527.76"/>
<polygon fill="black" stroke="black" points="1224.58,-524.3 1214.21,-526.48 1223.68,-531.25 1224.58,-524.3"/>
</g>
<!-- staking_contract&#45;&gt;aptos_coin -->
<g id="edge25" class="edge">
<title>staking_contract&#45;&gt;aptos_coin</title>
<path fill="none" stroke="black" d="M1934.55,-729.56C1905.34,-726.23 1869.9,-722.51 1838,-720 1676.96,-707.35 1267.96,-726.08 1112,-684 1059.64,-669.87 1004.97,-638.21 971.69,-616.72"/>
<polygon fill="black" stroke="black" points="973.63,-613.8 963.35,-611.24 969.78,-619.65 973.63,-613.8"/>
</g>
<!-- staking_contract&#45;&gt;staking_config -->
<g id="edge27" class="edge">
<title>staking_contract&#45;&gt;staking_config</title>
<path fill="none" stroke="black" d="M1955.63,-723.01C1933.76,-714.11 1907.17,-701.04 1887,-684 1841.35,-645.42 1804.63,-584.91 1785.79,-550.1"/>
<polygon fill="black" stroke="black" points="1789.01,-548.71 1781.23,-541.51 1782.83,-551.99 1789.01,-548.71"/>
</g>
<!-- bcs -->
<g id="node18" class="node">
<title>bcs</title>
<ellipse fill="none" stroke="black" cx="1940" cy="-234" rx="27" ry="18"/>
<text text-anchor="middle" x="1940" y="-230.3" font-family="Times,serif" font-size="14.00">bcs</text>
</g>
<!-- staking_contract&#45;&gt;bcs -->
<g id="edge21" class="edge">
<title>staking_contract&#45;&gt;bcs</title>
<path fill="none" stroke="black" d="M2003.69,-719.91C2014.79,-693.62 2034,-641.45 2034,-595 2034,-595 2034,-595 2034,-521 2034,-420.9 1981.39,-310.51 1954.89,-261.24"/>
<polygon fill="black" stroke="black" points="1957.96,-259.56 1950.08,-252.47 1951.82,-262.93 1957.96,-259.56"/>
</g>
<!-- simple_map -->
<g id="node19" class="node">
<title>simple_map</title>
<ellipse fill="none" stroke="black" cx="2199" cy="-378" rx="54.69" ry="18"/>
<text text-anchor="middle" x="2199" y="-374.3" font-family="Times,serif" font-size="14.00">simple_map</text>
</g>
<!-- staking_contract&#45;&gt;simple_map -->
<g id="edge26" class="edge">
<title>staking_contract&#45;&gt;simple_map</title>
<path fill="none" stroke="black" d="M2015.09,-720.36C2025.66,-710.5 2038.53,-697.36 2048,-684 2120.18,-582.16 2116.11,-543.61 2172,-432 2176.18,-423.65 2180.77,-414.59 2184.97,-406.36"/>
<polygon fill="black" stroke="black" points="2188.06,-408 2189.5,-397.5 2181.83,-404.82 2188.06,-408"/>
</g>
<!-- pool_u64 -->
<g id="node20" class="node">
<title>pool_u64</title>
<ellipse fill="none" stroke="black" cx="2368" cy="-450" rx="44.39" ry="18"/>
<text text-anchor="middle" x="2368" y="-446.3" font-family="Times,serif" font-size="14.00">pool_u64</text>
</g>
<!-- staking_contract&#45;&gt;pool_u64 -->
<g id="edge29" class="edge">
<title>staking_contract&#45;&gt;pool_u64</title>
<path fill="none" stroke="black" d="M2025.1,-721.41C2043.08,-711.4 2066.4,-697.74 2086,-684 2185.63,-614.16 2294.07,-518.37 2342.34,-474.57"/>
<polygon fill="black" stroke="black" points="2344.48,-477.36 2349.52,-468.04 2339.77,-472.18 2344.48,-477.36"/>
</g>
<!-- vesting&#45;&gt;signer -->
<g id="edge32" class="edge">
<title>vesting&#45;&gt;signer</title>
<path fill="none" stroke="black" d="M1568.46,-808.82C1385.31,-807.72 566.17,-800.35 316,-756 188.26,-733.35 38,-796.73 38,-667 38,-667 38,-667 38,-521 38,-432.6 108.47,-211.97 165,-144 178.82,-127.38 199.28,-114.62 217,-105.78"/>
<polygon fill="black" stroke="black" points="218.13,-109.12 225.67,-101.68 215.14,-102.79 218.13,-109.12"/>
</g>
<!-- vesting&#45;&gt;stake -->
<g id="edge44" class="edge">
<title>vesting&#45;&gt;stake</title>
<path fill="none" stroke="black" d="M1571.29,-802.94C1525.92,-794.41 1442.95,-777.47 1374,-756 1304.72,-734.43 1226.52,-701.24 1183.27,-682.08"/>
<polygon fill="black" stroke="black" points="1184.74,-678.9 1174.18,-678.02 1181.89,-685.29 1184.74,-678.9"/>
</g>
<!-- vesting&#45;&gt;staking_contract -->
<g id="edge46" class="edge">
<title>vesting&#45;&gt;staking_contract</title>
<path fill="none" stroke="black" d="M1639.25,-803.47C1696.17,-794.2 1813.82,-774.68 1913,-756 1919.39,-754.8 1926.05,-753.5 1932.69,-752.18"/>
<polygon fill="black" stroke="black" points="1933.2,-755.65 1942.32,-750.25 1931.83,-748.79 1933.2,-755.65"/>
</g>
<!-- vesting&#45;&gt;vector -->
<g id="edge30" class="edge">
<title>vesting&#45;&gt;vector</title>
<path fill="none" stroke="black" d="M1641.38,-808.9C1775.08,-808.17 2238.69,-802.26 2378,-756 2447.26,-733 2516,-739.98 2516,-667 2516,-667 2516,-667 2516,-161 2516,-131.77 2624.53,-144.61 2355,-72 2236.95,-40.2 1358.55,-23.3 1150.9,-19.72"/>
<polygon fill="black" stroke="black" points="1151.15,-16.23 1141.09,-19.56 1151.03,-23.23 1151.15,-16.23"/>
</g>
<!-- vesting&#45;&gt;error -->
<g id="edge33" class="edge">
<title>vesting&#45;&gt;error</title>
<path fill="none" stroke="black" d="M1641.4,-808.11C1762.38,-804.83 2145.67,-791.67 2187,-756 2280.13,-675.62 2324.83,-338 2309,-216 2304.74,-183.18 2315.38,-165.25 2290,-144 2266.46,-124.29 1816.09,-99.93 1679.16,-92.95"/>
<polygon fill="black" stroke="black" points="1679.68,-89.47 1669.51,-92.46 1679.32,-96.46 1679.68,-89.47"/>
</g>
<!-- vesting&#45;&gt;system_addresses -->
<g id="edge34" class="edge">
<title>vesting&#45;&gt;system_addresses</title>
<path fill="none" stroke="black" d="M1568.33,-809.12C1351.52,-809.35 247,-803.82 247,-667 247,-667 247,-667 247,-593 247,-472.98 370.37,-372.65 432.75,-329.59"/>
<polygon fill="black" stroke="black" points="434.65,-332.53 440.96,-324.03 430.72,-326.74 434.65,-332.53"/>
</g>
<!-- vesting&#45;&gt;event -->
<g id="edge36" class="edge">
<title>vesting&#45;&gt;event</title>
<path fill="none" stroke="black" d="M1631.17,-797.2C1636.04,-795.28 1641.13,-793.45 1646,-792 1729.21,-767.24 1775.73,-816.5 1838,-756 1935.89,-660.89 1929.9,-478.34 1923.38,-407.8"/>
<polygon fill="black" stroke="black" points="1926.86,-407.45 1922.37,-397.86 1919.9,-408.16 1926.86,-407.45"/>
</g>
<!-- vesting&#45;&gt;account -->
<g id="edge37" class="edge">
<title>vesting&#45;&gt;account</title>
<path fill="none" stroke="black" d="M1620.02,-793.43C1642.16,-768.74 1681,-718.17 1681,-667 1681,-667 1681,-667 1681,-593 1681,-512.09 1574.06,-474.8 1510.33,-459.76"/>
<polygon fill="black" stroke="black" points="1511.35,-456.4 1500.82,-457.62 1509.81,-463.23 1511.35,-456.4"/>
</g>
<!-- vesting&#45;&gt;coin -->
<g id="edge38" class="edge">
<title>vesting&#45;&gt;coin</title>
<path fill="none" stroke="black" d="M1579.1,-796.94C1542.48,-778.37 1476.64,-739.08 1446,-684 1422.52,-641.79 1466.4,-611.81 1434,-576 1406.39,-545.48 1286.84,-531.27 1224.37,-525.83"/>
<polygon fill="black" stroke="black" points="1224.8,-522.35 1214.55,-525.01 1224.22,-529.33 1224.8,-522.35"/>
</g>
<!-- vesting&#45;&gt;aptos_coin -->
<g id="edge39" class="edge">
<title>vesting&#45;&gt;aptos_coin</title>
<path fill="none" stroke="black" d="M1568.82,-808.01C1445.74,-804.34 1048.35,-789.96 1003,-756 960.84,-724.42 946.87,-660.47 942.26,-623.38"/>
<polygon fill="black" stroke="black" points="945.79,-623.42 941.23,-613.86 938.83,-624.17 945.79,-623.42"/>
</g>
<!-- vesting&#45;&gt;timestamp -->
<g id="edge41" class="edge">
<title>vesting&#45;&gt;timestamp</title>
<path fill="none" stroke="black" d="M1568.36,-808.67C1480.94,-806.13 1256.67,-789.08 1112,-684 1076.88,-658.49 1067.89,-649.49 1046,-612 1034.98,-593.12 1027.53,-569.5 1022.95,-551.35"/>
<polygon fill="black" stroke="black" points="1026.39,-550.7 1020.69,-541.78 1019.58,-552.31 1026.39,-550.7"/>
</g>
<!-- vesting&#45;&gt;math64 -->
<g id="edge43" class="edge">
<title>vesting&#45;&gt;math64</title>
<path fill="none" stroke="black" d="M1570.6,-804.02C1521.22,-796.15 1433.89,-779.3 1413,-756 1380.32,-719.54 1379.93,-658.86 1383.11,-623.33"/>
<polygon fill="black" stroke="black" points="1386.55,-624.13 1384.13,-613.82 1379.59,-623.39 1386.55,-624.13"/>
</g>
<!-- vesting&#45;&gt;bcs -->
<g id="edge35" class="edge">
<title>vesting&#45;&gt;bcs</title>
<path fill="none" stroke="black" d="M1641.46,-807.62C1746.69,-803.27 2045.27,-788.16 2074,-756 2192.34,-623.53 2078.04,-527.88 2020,-360 2008.67,-327.24 2008.87,-317.08 1990,-288 1982.62,-276.63 1972.65,-265.48 1963.56,-256.38"/>
<polygon fill="black" stroke="black" points="1966.27,-254.12 1956.65,-249.69 1961.4,-259.15 1966.27,-254.12"/>
</g>
<!-- vesting&#45;&gt;simple_map -->
<g id="edge42" class="edge">
<title>vesting&#45;&gt;simple_map</title>
<path fill="none" stroke="black" d="M1641.44,-807.91C1758.9,-804.07 2122.24,-789.56 2162,-756 2193.3,-729.57 2186,-707.97 2186,-667 2186,-667 2186,-667 2186,-521 2186,-481.58 2191.03,-436.25 2194.83,-407.62"/>
<polygon fill="black" stroke="black" points="2198.27,-408.32 2196.16,-397.94 2191.33,-407.37 2198.27,-408.32"/>
</g>
<!-- vesting&#45;&gt;pool_u64 -->
<g id="edge45" class="edge">
<title>vesting&#45;&gt;pool_u64</title>
<path fill="none" stroke="black" d="M1641.45,-808.83C1768.11,-807.84 2188.25,-801.16 2314,-756 2378.53,-732.83 2440,-735.56 2440,-667 2440,-667 2440,-667 2440,-593 2440,-548 2410.88,-502.81 2389.68,-475.86"/>
<polygon fill="black" stroke="black" points="2392.55,-473.85 2383.53,-468.3 2387.12,-478.27 2392.55,-473.85"/>
</g>
<!-- string -->
<g id="node21" class="node">
<title>string</title>
<ellipse fill="none" stroke="black" cx="1138" cy="-162" rx="30.59" ry="18"/>
<text text-anchor="middle" x="1138" y="-158.3" font-family="Times,serif" font-size="14.00">string</text>
</g>
<!-- vesting&#45;&gt;string -->
<g id="edge31" class="edge">
<title>vesting&#45;&gt;string</title>
<path fill="none" stroke="black" d="M1605,-791.51C1605,-764.71 1605,-711.87 1605,-667 1605,-667 1605,-667 1605,-593 1605,-572.64 1311.98,-408.61 1296,-396 1223.7,-338.96 1187.19,-334.86 1147,-252 1137.93,-233.29 1135.88,-209.81 1136,-191.66"/>
<polygon fill="black" stroke="black" points="1139.49,-191.96 1136.3,-181.86 1132.49,-191.74 1139.49,-191.96"/>
</g>
<!-- aptos_account -->
<g id="node22" class="node">
<title>aptos_account</title>
<ellipse fill="none" stroke="black" cx="1516" cy="-666" rx="61.19" ry="18"/>
<text text-anchor="middle" x="1516" y="-662.3" font-family="Times,serif" font-size="14.00">aptos_account</text>
</g>
<!-- vesting&#45;&gt;aptos_account -->
<g id="edge40" class="edge">
<title>vesting&#45;&gt;aptos_account</title>
<path fill="none" stroke="black" d="M1594.62,-792.43C1579.36,-768.09 1550.72,-722.4 1532.55,-693.4"/>
<polygon fill="black" stroke="black" points="1535.67,-691.8 1527.4,-685.18 1529.74,-695.52 1535.67,-691.8"/>
</g>
<!-- fixed_point32 -->
<g id="node23" class="node">
<title>fixed_point32</title>
<ellipse fill="none" stroke="black" cx="1769" cy="-738" rx="59.59" ry="18"/>
<text text-anchor="middle" x="1769" y="-734.3" font-family="Times,serif" font-size="14.00">fixed_point32</text>
</g>
<!-- vesting&#45;&gt;fixed_point32 -->
<g id="edge47" class="edge">
<title>vesting&#45;&gt;fixed_point32</title>
<path fill="none" stroke="black" d="M1631.71,-797.6C1656.94,-786.83 1695.22,-770.49 1724.96,-757.8"/>
<polygon fill="black" stroke="black" points="1726.27,-761.04 1734.09,-753.9 1723.52,-754.61 1726.27,-761.04"/>
</g>
<!-- option&#45;&gt;vector -->
<g id="edge48" class="edge">
<title>option&#45;&gt;vector</title>
<path fill="none" stroke="black" d="M1084.26,-72.05C1087.58,-64.32 1091.59,-54.96 1095.31,-46.27"/>
<polygon fill="black" stroke="black" points="1098.49,-47.75 1099.21,-37.18 1092.05,-44.99 1098.49,-47.75"/>
</g>
<!-- system_addresses&#45;&gt;signer -->
<g id="edge49" class="edge">
<title>system_addresses&#45;&gt;signer</title>
<path fill="none" stroke="black" d="M456.5,-288.07C434.92,-257.09 385.85,-190.22 334,-144 319.18,-130.79 300.79,-118.49 285.28,-109.07"/>
<polygon fill="black" stroke="black" points="287.26,-106.17 276.87,-104.08 283.69,-112.19 287.26,-106.17"/>
</g>
<!-- system_addresses&#45;&gt;error -->
<g id="edge50" class="edge">
<title>system_addresses&#45;&gt;error</title>
<path fill="none" stroke="black" d="M506.29,-290.18C592.21,-257.62 807.55,-179.9 995,-144 1221.36,-100.64 1499.09,-92.74 1600.53,-91.31"/>
<polygon fill="black" stroke="black" points="1600.27,-94.81 1610.22,-91.19 1600.18,-87.81 1600.27,-94.81"/>
</g>
<!-- event&#45;&gt;bcs -->
<g id="edge51" class="edge">
<title>event&#45;&gt;bcs</title>
<path fill="none" stroke="black" d="M1922.45,-359.59C1925.83,-335.61 1931.95,-292.14 1936,-263.42"/>
<polygon fill="black" stroke="black" points="1939.45,-264 1937.38,-253.61 1932.52,-263.02 1939.45,-264"/>
</g>
<!-- guid -->
<g id="node24" class="node">
<title>guid</title>
<ellipse fill="none" stroke="black" cx="1885" cy="-306" rx="27" ry="18"/>
<text text-anchor="middle" x="1885" y="-302.3" font-family="Times,serif" font-size="14.00">guid</text>
</g>
<!-- event&#45;&gt;guid -->
<g id="edge52" class="edge">
<title>event&#45;&gt;guid</title>
<path fill="none" stroke="black" d="M1911.71,-360.41C1907.7,-352.39 1902.78,-342.57 1898.27,-333.54"/>
<polygon fill="black" stroke="black" points="1901.51,-332.2 1893.91,-324.82 1895.25,-335.33 1901.51,-332.2"/>
</g>
<!-- account&#45;&gt;signer -->
<g id="edge55" class="edge">
<title>account&#45;&gt;signer</title>
<path fill="none" stroke="black" d="M1429.69,-441.47C1388.85,-432.19 1318.77,-415.26 1260,-396 1136.79,-355.62 1112.06,-328.83 989,-288 728.3,-201.5 406.28,-125.71 293.94,-100.17"/>
<polygon fill="black" stroke="black" points="294.82,-96.78 284.29,-97.98 293.27,-103.61 294.82,-96.78"/>
</g>
<!-- account&#45;&gt;vector -->
<g id="edge53" class="edge">
<title>account&#45;&gt;vector</title>
<path fill="none" stroke="black" d="M1429.63,-441.55C1394.79,-433.22 1339.9,-417.97 1296,-396 1222.38,-359.15 1032.59,-253.25 995,-180 966.87,-125.2 1034.43,-67.45 1076.48,-38.29"/>
<polygon fill="black" stroke="black" points="1078.2,-41.35 1084.53,-32.85 1074.29,-35.54 1078.2,-41.35"/>
</g>
<!-- account&#45;&gt;option -->
<g id="edge54" class="edge">
<title>account&#45;&gt;option</title>
<path fill="none" stroke="black" d="M1441.64,-435.21C1426.48,-425.3 1406.48,-411.08 1391,-396 1318.8,-325.66 1320.22,-291.12 1253,-216 1251.07,-213.85 1180.34,-145.69 1178,-144 1157.7,-129.38 1132.85,-116.29 1112.88,-106.77"/>
<polygon fill="black" stroke="black" points="1114.55,-103.69 1104.01,-102.64 1111.59,-110.04 1114.55,-103.69"/>
</g>
<!-- account&#45;&gt;error -->
<g id="edge56" class="edge">
<title>account&#45;&gt;error</title>
<path fill="none" stroke="black" d="M1502.41,-449.61C1544.66,-448 1611.17,-438.3 1646,-396 1717.33,-309.36 1683.94,-254.06 1662,-144 1660.21,-135.03 1656.88,-125.68 1653.34,-117.38"/>
<polygon fill="black" stroke="black" points="1656.65,-116.2 1649.3,-108.56 1650.28,-119.11 1656.65,-116.2"/>
</g>
<!-- account&#45;&gt;system_addresses -->
<g id="edge59" class="edge">
<title>account&#45;&gt;system_addresses</title>
<path fill="none" stroke="black" d="M1425.55,-449.43C1316.9,-449.95 998.79,-446.69 741,-396 719.02,-391.68 593.28,-349.54 520.35,-324.82"/>
<polygon fill="black" stroke="black" points="521.59,-321.55 510.99,-321.65 519.34,-328.18 521.59,-321.55"/>
</g>
<!-- account&#45;&gt;event -->
<g id="edge66" class="edge">
<title>account&#45;&gt;event</title>
<path fill="none" stroke="black" d="M1501.19,-445.37C1588.63,-436.66 1805.22,-413.95 1876,-396 1879.31,-395.16 1882.7,-394.15 1886.07,-393.03"/>
<polygon fill="black" stroke="black" points="1886.95,-396.44 1895.17,-389.76 1884.57,-389.85 1886.95,-396.44"/>
</g>
<!-- account&#45;&gt;bcs -->
<g id="edge61" class="edge">
<title>account&#45;&gt;bcs</title>
<path fill="none" stroke="black" d="M1501.04,-445.37C1548.8,-439.67 1633.6,-425.98 1700,-396 1774.54,-362.35 1780.47,-332.64 1849,-288 1868.72,-275.15 1891.62,-261.83 1909.51,-251.75"/>
<polygon fill="black" stroke="black" points="1911.07,-254.89 1918.09,-246.96 1907.65,-248.78 1911.07,-254.89"/>
</g>
<!-- account&#45;&gt;guid -->
<g id="edge64" class="edge">
<title>account&#45;&gt;guid</title>
<path fill="none" stroke="black" d="M1501.29,-445.65C1590.48,-437.36 1810.71,-415.19 1838,-396 1858.53,-381.57 1870.81,-355.32 1877.65,-335.05"/>
<polygon fill="black" stroke="black" points="1880.93,-336.27 1880.53,-325.68 1874.25,-334.21 1880.93,-336.27"/>
</g>
<!-- type_info -->
<g id="node25" class="node">
<title>type_info</title>
<ellipse fill="none" stroke="black" cx="1344" cy="-234" rx="44.39" ry="18"/>
<text text-anchor="middle" x="1344" y="-230.3" font-family="Times,serif" font-size="14.00">type_info</text>
</g>
<!-- account&#45;&gt;type_info -->
<g id="edge57" class="edge">
<title>account&#45;&gt;type_info</title>
<path fill="none" stroke="black" d="M1450.08,-433.05C1430.77,-410.23 1395.75,-366.34 1374,-324 1364.04,-304.61 1356.3,-281.19 1351.18,-263.25"/>
<polygon fill="black" stroke="black" points="1354.61,-262.52 1348.59,-253.8 1347.86,-264.37 1354.61,-262.52"/>
</g>
<!-- table -->
<g id="node26" class="node">
<title>table</title>
<ellipse fill="none" stroke="black" cx="952" cy="-306" rx="27.9" ry="18"/>
<text text-anchor="middle" x="952" y="-302.3" font-family="Times,serif" font-size="14.00">table</text>
</g>
<!-- account&#45;&gt;table -->
<g id="edge58" class="edge">
<title>account&#45;&gt;table</title>
<path fill="none" stroke="black" d="M1427.27,-444.19C1373.29,-436.65 1269.67,-420.33 1184,-396 1111.12,-375.3 1029.05,-341.12 984.7,-321.69"/>
<polygon fill="black" stroke="black" points="986.21,-318.53 975.65,-317.7 983.39,-324.94 986.21,-318.53"/>
</g>
<!-- hash -->
<g id="node27" class="node">
<title>hash</title>
<ellipse fill="none" stroke="black" cx="1509" cy="-234" rx="27" ry="18"/>
<text text-anchor="middle" x="1509" y="-230.3" font-family="Times,serif" font-size="14.00">hash</text>
</g>
<!-- account&#45;&gt;hash -->
<g id="edge60" class="edge">
<title>account&#45;&gt;hash</title>
<path fill="none" stroke="black" d="M1467.61,-431.85C1475.34,-395.07 1493.59,-308.29 1503.06,-263.24"/>
<polygon fill="black" stroke="black" points="1506.43,-264.22 1505.06,-253.71 1499.58,-262.78 1506.43,-264.22"/>
</g>
<!-- ed25519 -->
<g id="node28" class="node">
<title>ed25519</title>
<ellipse fill="none" stroke="black" cx="1571" cy="-306" rx="40.89" ry="18"/>
<text text-anchor="middle" x="1571" y="-302.3" font-family="Times,serif" font-size="14.00">ed25519</text>
</g>
<!-- account&#45;&gt;ed25519 -->
<g id="edge62" class="edge">
<title>account&#45;&gt;ed25519</title>
<path fill="none" stroke="black" d="M1502.43,-448.76C1541.48,-446.21 1600.2,-435.51 1629,-396 1638.43,-383.07 1635.45,-374.64 1629,-360 1623.47,-347.45 1613.33,-336.58 1603.07,-328.01"/>
<polygon fill="black" stroke="black" points="1605.37,-325.37 1595.32,-322.01 1601.08,-330.9 1605.37,-325.37"/>
</g>
<!-- multi_ed25519 -->
<g id="node29" class="node">
<title>multi_ed25519</title>
<ellipse fill="none" stroke="black" cx="1556" cy="-378" rx="64.19" ry="18"/>
<text text-anchor="middle" x="1556" y="-374.3" font-family="Times,serif" font-size="14.00">multi_ed25519</text>
</g>
<!-- account&#45;&gt;multi_ed25519 -->
<g id="edge63" class="edge">
<title>account&#45;&gt;multi_ed25519</title>
<path fill="none" stroke="black" d="M1483.51,-434.15C1495.68,-424.89 1511.61,-412.78 1525.43,-402.26"/>
<polygon fill="black" stroke="black" points="1527.55,-405.05 1533.39,-396.21 1523.31,-399.48 1527.55,-405.05"/>
</g>
<!-- from_bcs -->
<g id="node30" class="node">
<title>from_bcs</title>
<ellipse fill="none" stroke="black" cx="1200" cy="-234" rx="44.39" ry="18"/>
<text text-anchor="middle" x="1200" y="-230.3" font-family="Times,serif" font-size="14.00">from_bcs</text>
</g>
<!-- account&#45;&gt;from_bcs -->
<g id="edge65" class="edge">
<title>account&#45;&gt;from_bcs</title>
<path fill="none" stroke="black" d="M1431.16,-440.43C1403.81,-432.17 1364.82,-417.7 1336,-396 1286.98,-359.09 1290.2,-334.36 1250,-288 1241.58,-278.3 1231.98,-267.95 1223.45,-259"/>
<polygon fill="black" stroke="black" points="1226.18,-256.79 1216.73,-252 1221.13,-261.64 1226.18,-256.79"/>
</g>
<!-- coin&#45;&gt;signer -->
<g id="edge69" class="edge">
<title>coin&#45;&gt;signer</title>
<path fill="none" stroke="black" d="M1159.81,-516.59C1137.15,-512.89 1103.48,-507.62 1074,-504 760.29,-465.44 618.13,-538.51 386,-324 321.53,-264.42 279.9,-166.29 262.43,-118.66"/>
<polygon fill="black" stroke="black" points="265.77,-117.61 259.11,-109.38 259.18,-119.97 265.77,-117.61"/>
</g>
<!-- coin&#45;&gt;option -->
<g id="edge67" class="edge">
<title>coin&#45;&gt;option</title>
<path fill="none" stroke="black" d="M1160.52,-515.29C1143.47,-511.64 1120.48,-507.03 1100,-504 1019.81,-492.13 806.69,-509.4 737,-468 676.15,-431.85 678.11,-394.19 669,-324 656.5,-227.66 705.02,-185.19 793,-144 871.83,-107.09 974.3,-95.87 1032.12,-92.47"/>
<polygon fill="black" stroke="black" points="1032.11,-95.97 1041.91,-91.95 1031.74,-88.98 1032.11,-95.97"/>
</g>
<!-- coin&#45;&gt;error -->
<g id="edge70" class="edge">
<title>coin&#45;&gt;error</title>
<path fill="none" stroke="black" d="M1213.08,-518.99C1269.51,-514.27 1403.43,-500.37 1511,-468 1585.67,-445.53 1616.64,-451.91 1671,-396 1749.12,-315.66 1726.03,-245.71 1679,-144 1674.28,-133.8 1667.43,-123.61 1660.78,-114.93"/>
<polygon fill="black" stroke="black" points="1663.69,-112.96 1654.7,-107.35 1658.23,-117.34 1663.69,-112.96"/>
</g>
<!-- coin&#45;&gt;system_addresses -->
<g id="edge72" class="edge">
<title>coin&#45;&gt;system_addresses</title>
<path fill="none" stroke="black" d="M1160.9,-514.65C1145.46,-510.97 1125.2,-506.58 1107,-504 993.85,-487.94 694.92,-521.62 594,-468 590.27,-466.02 522.35,-377.88 487.82,-332.87"/>
<polygon fill="black" stroke="black" points="490.77,-330.97 481.91,-325.17 485.22,-335.23 490.77,-330.97"/>
</g>
<!-- coin&#45;&gt;event -->
<g id="edge73" class="edge">
<title>coin&#45;&gt;event</title>
<path fill="none" stroke="black" d="M1213.14,-520.35C1283.06,-518.11 1474.62,-508.46 1628,-468 1668.07,-457.43 1674.6,-444.82 1714,-432 1780.02,-410.52 1799.07,-414.44 1866,-396 1871.66,-394.44 1877.62,-392.68 1883.42,-390.91"/>
<polygon fill="black" stroke="black" points="1884.35,-394.29 1892.85,-387.96 1882.26,-387.6 1884.35,-394.29"/>
</g>
<!-- coin&#45;&gt;account -->
<g id="edge74" class="edge">
<title>coin&#45;&gt;account</title>
<path fill="none" stroke="black" d="M1211.16,-514.66C1258.5,-502.74 1361.33,-476.85 1420.23,-462.02"/>
<polygon fill="black" stroke="black" points="1420.73,-465.5 1429.58,-459.67 1419.03,-458.72 1420.73,-465.5"/>
</g>
<!-- coin&#45;&gt;string -->
<g id="edge68" class="edge">
<title>coin&#45;&gt;string</title>
<path fill="none" stroke="black" d="M1171.2,-506.73C1133.57,-469.28 1034.76,-363.38 1000,-252 995.23,-236.73 990.82,-229.11 1000,-216 1026.86,-177.65 1055.52,-197.36 1099,-180 1100.54,-179.38 1102.12,-178.74 1103.7,-178.09"/>
<polygon fill="black" stroke="black" points="1104.93,-181.37 1112.78,-174.25 1102.21,-174.92 1104.93,-181.37"/>
</g>
<!-- coin&#45;&gt;type_info -->
<g id="edge71" class="edge">
<title>coin&#45;&gt;type_info</title>
<path fill="none" stroke="black" d="M1194.95,-504.8C1221,-457.64 1297.02,-320.03 1329.27,-261.67"/>
<polygon fill="black" stroke="black" points="1332.25,-263.5 1334.03,-253.06 1326.13,-260.12 1332.25,-263.5"/>
</g>
<!-- optional_aggregator -->
<g id="node31" class="node">
<title>optional_aggregator</title>
<ellipse fill="none" stroke="black" cx="827" cy="-450" rx="81.49" ry="18"/>
<text text-anchor="middle" x="827" y="-446.3" font-family="Times,serif" font-size="14.00">optional_aggregator</text>
</g>
<!-- coin&#45;&gt;optional_aggregator -->
<g id="edge75" class="edge">
<title>coin&#45;&gt;optional_aggregator</title>
<path fill="none" stroke="black" d="M1160.42,-515.33C1144.97,-511.94 1124.88,-507.61 1107,-504 1036.65,-489.77 956.11,-474.65 899.52,-464.22"/>
<polygon fill="black" stroke="black" points="900.49,-460.84 890.02,-462.47 899.23,-467.72 900.49,-460.84"/>
</g>
<!-- aptos_coin&#45;&gt;signer -->
<g id="edge79" class="edge">
<title>aptos_coin&#45;&gt;signer</title>
<path fill="none" stroke="black" d="M890.85,-591.98C781.71,-589.05 522.67,-578.16 445,-540 283.99,-460.9 257.98,-205.82 253.79,-119.7"/>
<polygon fill="black" stroke="black" points="257.29,-119.62 253.38,-109.78 250.3,-119.91 257.29,-119.62"/>
</g>
<!-- aptos_coin&#45;&gt;vector -->
<g id="edge76" class="edge">
<title>aptos_coin&#45;&gt;vector</title>
<path fill="none" stroke="black" d="M890.69,-592.52C772.67,-590.7 477.19,-581.96 389,-540 200.84,-450.46 56.94,-335.96 138,-144 155.85,-101.73 170.02,-90.52 212,-72 290.23,-37.49 893.51,-23.18 1062.9,-19.81"/>
<polygon fill="black" stroke="black" points="1062.89,-23.31 1072.82,-19.62 1062.75,-16.31 1062.89,-23.31"/>
</g>
<!-- aptos_coin&#45;&gt;option -->
<g id="edge77" class="edge">
<title>aptos_coin&#45;&gt;option</title>
<path fill="none" stroke="black" d="M891.39,-590.99C793.32,-586.29 575.49,-572.44 509,-540 396.99,-485.36 317.17,-391.9 386,-288 476.63,-151.19 568.07,-188.6 726,-144 833.7,-113.58 965.23,-99.65 1032.58,-94.12"/>
<polygon fill="black" stroke="black" points="1032.8,-97.61 1042.49,-93.33 1032.24,-90.64 1032.8,-97.61"/>
</g>
<!-- aptos_coin&#45;&gt;error -->
<g id="edge80" class="edge">
<title>aptos_coin&#45;&gt;error</title>
<path fill="none" stroke="black" d="M983.03,-585.07C1038.36,-574.85 1137.4,-556.41 1222,-540 1439.4,-497.83 1551.3,-561 1699,-396 1753,-335.68 1744.74,-294.99 1727,-216 1719.51,-182.65 1719.38,-172.15 1700,-144 1691.32,-131.39 1679,-119.82 1667.78,-110.73"/>
<polygon fill="black" stroke="black" points="1669.96,-107.99 1659.91,-104.63 1665.67,-113.52 1669.96,-107.99"/>
</g>
<!-- aptos_coin&#45;&gt;system_addresses -->
<g id="edge81" class="edge">
<title>aptos_coin&#45;&gt;system_addresses</title>
<path fill="none" stroke="black" d="M893.75,-587.79C784.17,-574.43 513.66,-535.22 457,-468 425.55,-430.69 441.98,-369.64 455.7,-334.41"/>
<polygon fill="black" stroke="black" points="458.87,-335.92 459.42,-325.34 452.39,-333.26 458.87,-335.92"/>
</g>
<!-- aptos_coin&#45;&gt;coin -->
<g id="edge82" class="edge">
<title>aptos_coin&#45;&gt;coin</title>
<path fill="none" stroke="black" d="M977.9,-582.22C1024.99,-568.82 1104.72,-546.13 1150.61,-533.07"/>
<polygon fill="black" stroke="black" points="1151.39,-536.49 1160.05,-530.38 1149.48,-529.75 1151.39,-536.49"/>
</g>
<!-- aptos_coin&#45;&gt;string -->
<g id="edge78" class="edge">
<title>aptos_coin&#45;&gt;string</title>
<path fill="none" stroke="black" d="M937.65,-575.77C929.52,-515.23 903.7,-314.51 915,-288 952.18,-200.77 1010.42,-213.85 1099,-180 1100.55,-179.41 1102.13,-178.79 1103.73,-178.15"/>
<polygon fill="black" stroke="black" points="1104.93,-181.44 1112.82,-174.36 1102.24,-174.97 1104.93,-181.44"/>
</g>
<!-- timestamp&#45;&gt;error -->
<g id="edge83" class="edge">
<title>timestamp&#45;&gt;error</title>
<path fill="none" stroke="black" d="M1018.7,-503.75C1024.87,-451.09 1051.06,-291.41 1147,-216 1223.86,-155.59 1269.89,-206.49 1364,-180 1405.07,-168.44 1412.64,-157.84 1453,-144 1504.35,-126.4 1565,-109.99 1602.99,-100.23"/>
<polygon fill="black" stroke="black" points="1603.72,-103.65 1612.55,-97.79 1601.99,-96.87 1603.72,-103.65"/>
</g>
<!-- timestamp&#45;&gt;system_addresses -->
<g id="edge84" class="edge">
<title>timestamp&#45;&gt;system_addresses</title>
<path fill="none" stroke="black" d="M968.78,-519.72C843.27,-515.9 513.83,-502.65 480,-468 446.05,-433.22 452.58,-371.69 460.34,-335.61"/>
<polygon fill="black" stroke="black" points="463.74,-336.43 462.61,-325.89 456.92,-334.83 463.74,-336.43"/>
</g>
<!-- staking_config&#45;&gt;error -->
<g id="edge85" class="edge">
<title>staking_config&#45;&gt;error</title>
<path fill="none" stroke="black" d="M1809.78,-507.16C1853.66,-488.94 1924.43,-452.45 1959,-396 2000.97,-327.48 2020.38,-282.99 1976,-216 1909.77,-116.02 1752.88,-95.73 1679.33,-91.81"/>
<polygon fill="black" stroke="black" points="1679.93,-88.33 1669.78,-91.38 1679.61,-95.33 1679.93,-88.33"/>
</g>
<!-- staking_config&#45;&gt;system_addresses -->
<g id="edge86" class="edge">
<title>staking_config&#45;&gt;system_addresses</title>
<path fill="none" stroke="black" d="M1709.76,-518.64C1493.26,-510.34 783.64,-482.18 737,-468 687.18,-452.85 561.55,-370.4 501.27,-329.72"/>
<polygon fill="black" stroke="black" points="503.33,-326.89 493.09,-324.18 499.41,-332.69 503.33,-326.89"/>
</g>
<!-- bls12381&#45;&gt;option -->
<g id="edge87" class="edge">
<title>bls12381&#45;&gt;option</title>
<path fill="none" stroke="black" d="M1054.26,-144.05C1057.58,-136.32 1061.59,-126.96 1065.31,-118.27"/>
<polygon fill="black" stroke="black" points="1068.49,-119.75 1069.21,-109.18 1062.05,-116.99 1068.49,-119.75"/>
</g>
<!-- bls12381&#45;&gt;error -->
<g id="edge88" class="edge">
<title>bls12381&#45;&gt;error</title>
<path fill="none" stroke="black" d="M1078.25,-149.36C1084.71,-147.3 1091.52,-145.38 1098,-144 1283.19,-104.6 1510.31,-94.41 1600.44,-91.84"/>
<polygon fill="black" stroke="black" points="1600.32,-95.35 1610.22,-91.58 1600.13,-88.35 1600.32,-95.35"/>
</g>
<!-- simple_map&#45;&gt;option -->
<g id="edge89" class="edge">
<title>simple_map&#45;&gt;option</title>
<path fill="none" stroke="black" d="M2203.07,-359.62C2206.56,-340.09 2208.83,-308.45 2193,-288 2130.79,-207.65 2074.96,-239.09 1976,-216 1652.76,-140.57 1252.8,-104.64 1121.22,-94.28"/>
<polygon fill="black" stroke="black" points="1121.8,-90.81 1111.56,-93.53 1121.26,-97.79 1121.8,-90.81"/>
</g>
<!-- simple_map&#45;&gt;error -->
<g id="edge90" class="edge">
<title>simple_map&#45;&gt;error</title>
<path fill="none" stroke="black" d="M2226.85,-362.27C2240.76,-353.25 2256.25,-340.31 2264,-324 2298.32,-251.74 2318.12,-202.91 2264,-144 2224.46,-100.96 1811.06,-92.83 1679.78,-91.33"/>
<polygon fill="black" stroke="black" points="1679.88,-87.83 1669.84,-91.22 1679.81,-94.83 1679.88,-87.83"/>
</g>
<!-- comparator -->
<g id="node32" class="node">
<title>comparator</title>
<ellipse fill="none" stroke="black" cx="2133" cy="-306" rx="51.19" ry="18"/>
<text text-anchor="middle" x="2133" y="-302.3" font-family="Times,serif" font-size="14.00">comparator</text>
</g>
<!-- simple_map&#45;&gt;comparator -->
<g id="edge91" class="edge">
<title>simple_map&#45;&gt;comparator</title>
<path fill="none" stroke="black" d="M2183.36,-360.41C2175.3,-351.87 2165.32,-341.28 2156.37,-331.79"/>
<polygon fill="black" stroke="black" points="2158.97,-329.45 2149.57,-324.57 2153.88,-334.25 2158.97,-329.45"/>
</g>
<!-- pool_u64&#45;&gt;vector -->
<g id="edge92" class="edge">
<title>pool_u64&#45;&gt;vector</title>
<path fill="none" stroke="black" d="M2375.06,-431.84C2395.34,-379.42 2447.28,-220.38 2365,-144 2274.13,-59.64 1363.45,-26.81 1151.1,-20.27"/>
<polygon fill="black" stroke="black" points="1151.43,-16.78 1141.33,-19.98 1151.21,-23.78 1151.43,-16.78"/>
</g>
<!-- pool_u64&#45;&gt;error -->
<g id="edge93" class="edge">
<title>pool_u64&#45;&gt;error</title>
<path fill="none" stroke="black" d="M2367.19,-431.52C2366.02,-404.72 2364,-351.89 2364,-307 2364,-307 2364,-307 2364,-233 2364,-192.03 2371.56,-170.12 2340,-144 2288.97,-101.76 1819.73,-93.04 1679.44,-91.37"/>
<polygon fill="black" stroke="black" points="1679.58,-87.87 1669.54,-91.26 1679.5,-94.87 1679.58,-87.87"/>
</g>
<!-- pool_u64&#45;&gt;simple_map -->
<g id="edge94" class="edge">
<title>pool_u64&#45;&gt;simple_map</title>
<path fill="none" stroke="black" d="M2337.79,-436.49C2311.32,-425.52 2272.53,-409.46 2242.68,-397.09"/>
<polygon fill="black" stroke="black" points="2244.11,-393.9 2233.53,-393.3 2241.43,-400.36 2244.11,-393.9"/>
</g>
<!-- string&#45;&gt;vector -->
<g id="edge95" class="edge">
<title>string&#45;&gt;vector</title>
<path fill="none" stroke="black" d="M1134.42,-143.92C1130.65,-126 1124.5,-97 1119,-72 1117.23,-63.95 1115.27,-55.23 1113.46,-47.22"/>
<polygon fill="black" stroke="black" points="1116.91,-46.62 1111.28,-37.65 1110.09,-48.18 1116.91,-46.62"/>
</g>
<!-- string&#45;&gt;option -->
<g id="edge96" class="edge">
<title>string&#45;&gt;option</title>
<path fill="none" stroke="black" d="M1124.46,-145.46C1116.64,-136.49 1106.64,-125.02 1097.84,-114.92"/>
<polygon fill="black" stroke="black" points="1100.7,-112.87 1091.49,-107.63 1095.43,-117.47 1100.7,-112.87"/>
</g>
<!-- aptos_account&#45;&gt;error -->
<g id="edge97" class="edge">
<title>aptos_account&#45;&gt;error</title>
<path fill="none" stroke="black" d="M1556.93,-652.19C1620.06,-631.83 1744.3,-589.29 1844,-540 1844.32,-539.84 2192.83,-324.31 2193,-324 2303.72,-125.27 1823.21,-96.04 1679.53,-91.74"/>
<polygon fill="black" stroke="black" points="1679.83,-88.25 1669.74,-91.48 1679.64,-95.25 1679.83,-88.25"/>
</g>
<!-- aptos_account&#45;&gt;account -->
<g id="edge98" class="edge">
<title>aptos_account&#45;&gt;account</title>
<path fill="none" stroke="black" d="M1511.95,-647.59C1507.77,-629.64 1501.01,-600.84 1495,-576 1486.97,-542.79 1477.48,-504.69 1471.13,-479.37"/>
<polygon fill="black" stroke="black" points="1474.57,-478.69 1468.74,-469.84 1467.78,-480.39 1474.57,-478.69"/>
</g>
<!-- aptos_account&#45;&gt;coin -->
<g id="edge99" class="edge">
<title>aptos_account&#45;&gt;coin</title>
<path fill="none" stroke="black" d="M1511.35,-647.57C1504.92,-627.07 1491.28,-593.59 1467,-576 1428.7,-548.25 1291.72,-532.45 1224.19,-526.18"/>
<polygon fill="black" stroke="black" points="1224.6,-522.7 1214.32,-525.29 1223.97,-529.67 1224.6,-522.7"/>
</g>
<!-- aptos_account&#45;&gt;aptos_coin -->
<g id="edge100" class="edge">
<title>aptos_account&#45;&gt;aptos_coin</title>
<path fill="none" stroke="black" d="M1460.25,-658.22C1350.63,-644.9 1108.09,-615.43 997.27,-601.96"/>
<polygon fill="black" stroke="black" points="997.86,-598.51 987.51,-600.77 997.01,-605.45 997.86,-598.51"/>
</g>
<!-- type_info&#45;&gt;error -->
<g id="edge102" class="edge">
<title>type_info&#45;&gt;error</title>
<path fill="none" stroke="black" d="M1372.38,-219.82C1395.26,-209.17 1428.26,-193.73 1457,-180 1510.24,-154.57 1571.9,-124.44 1608.34,-106.57"/>
<polygon fill="black" stroke="black" points="1609.56,-109.86 1617,-102.32 1606.48,-103.58 1609.56,-109.86"/>
</g>
<!-- type_info&#45;&gt;string -->
<g id="edge101" class="edge">
<title>type_info&#45;&gt;string</title>
<path fill="none" stroke="black" d="M1310.9,-221.75C1273.74,-209.13 1213.59,-188.69 1174.93,-175.55"/>
<polygon fill="black" stroke="black" points="1176.18,-172.28 1165.59,-172.37 1173.93,-178.91 1176.18,-172.28"/>
</g>
<!-- features -->
<g id="node33" class="node">
<title>features</title>
<ellipse fill="none" stroke="black" cx="1263" cy="-162" rx="38.19" ry="18"/>
<text text-anchor="middle" x="1263" y="-158.3" font-family="Times,serif" font-size="14.00">features</text>
</g>
<!-- type_info&#45;&gt;features -->
<g id="edge103" class="edge">
<title>type_info&#45;&gt;features</title>
<path fill="none" stroke="black" d="M1326.02,-217.46C1315.15,-208.07 1301.09,-195.92 1289.02,-185.48"/>
<polygon fill="black" stroke="black" points="1291.65,-183.13 1281.79,-179.24 1287.07,-188.43 1291.65,-183.13"/>
</g>
<!-- ed25519&#45;&gt;option -->
<g id="edge104" class="edge">
<title>ed25519&#45;&gt;option</title>
<path fill="none" stroke="black" d="M1570.47,-287.65C1568.96,-267.85 1563.56,-235.67 1545,-216 1486.3,-153.79 1225.41,-111.52 1120.7,-96.78"/>
<polygon fill="black" stroke="black" points="1121.2,-93.32 1110.81,-95.41 1120.24,-100.25 1121.2,-93.32"/>
</g>
<!-- ed25519&#45;&gt;error -->
<g id="edge105" class="edge">
<title>ed25519&#45;&gt;error</title>
<path fill="none" stroke="black" d="M1576.53,-287.85C1588.44,-250.9 1616.63,-163.49 1631.09,-118.62"/>
<polygon fill="black" stroke="black" points="1634.34,-119.97 1634.08,-109.38 1627.68,-117.82 1634.34,-119.97"/>
</g>
<!-- ed25519&#45;&gt;bcs -->
<g id="edge108" class="edge">
<title>ed25519&#45;&gt;bcs</title>
<path fill="none" stroke="black" d="M1608.07,-297.97C1678.88,-284.54 1832.59,-255.38 1903.19,-241.98"/>
<polygon fill="black" stroke="black" points="1903.52,-245.48 1912.69,-240.18 1902.22,-238.61 1903.52,-245.48"/>
</g>
<!-- ed25519&#45;&gt;type_info -->
<g id="edge106" class="edge">
<title>ed25519&#45;&gt;type_info</title>
<path fill="none" stroke="black" d="M1538.48,-294.97C1499.46,-282.94 1433.79,-262.69 1389.69,-249.09"/>
<polygon fill="black" stroke="black" points="1390.73,-245.75 1380.14,-246.15 1388.67,-252.44 1390.73,-245.75"/>
</g>
<!-- ed25519&#45;&gt;hash -->
<g id="edge107" class="edge">
<title>ed25519&#45;&gt;hash</title>
<path fill="none" stroke="black" d="M1556.62,-288.76C1548.54,-279.64 1538.32,-268.11 1529.43,-258.06"/>
<polygon fill="black" stroke="black" points="1532.29,-256.02 1523.04,-250.85 1527.05,-260.66 1532.29,-256.02"/>
</g>
<!-- multi_ed25519&#45;&gt;option -->
<g id="edge109" class="edge">
<title>multi_ed25519&#45;&gt;option</title>
<path fill="none" stroke="black" d="M1540.71,-360.13C1496.07,-311.26 1365.55,-171.35 1310,-144 1248.63,-113.78 1169.64,-100.5 1121.2,-94.88"/>
<polygon fill="black" stroke="black" points="1121.69,-91.41 1111.37,-93.8 1120.93,-98.37 1121.69,-91.41"/>
</g>
<!-- multi_ed25519&#45;&gt;error -->
<g id="edge110" class="edge">
<title>multi_ed25519&#45;&gt;error</title>
<path fill="none" stroke="black" d="M1583.99,-361.56C1597.58,-352.5 1612.73,-339.72 1621,-324 1655.94,-257.55 1650.31,-165.49 1644.49,-119.51"/>
<polygon fill="black" stroke="black" points="1647.99,-119.27 1643.16,-109.84 1641.06,-120.22 1647.99,-119.27"/>
</g>
<!-- multi_ed25519&#45;&gt;bcs -->
<g id="edge112" class="edge">
<title>multi_ed25519&#45;&gt;bcs</title>
<path fill="none" stroke="black" d="M1593.52,-363.13C1668.22,-335.5 1834.5,-274.01 1906.12,-247.53"/>
<polygon fill="black" stroke="black" points="1907.18,-250.87 1915.35,-244.12 1904.76,-244.3 1907.18,-250.87"/>
</g>
<!-- multi_ed25519&#45;&gt;hash -->
<g id="edge111" class="edge">
<title>multi_ed25519&#45;&gt;hash</title>
<path fill="none" stroke="black" d="M1542.22,-360.41C1534.71,-350.47 1525.96,-337.22 1521,-324 1513.75,-304.67 1510.79,-281.52 1509.62,-263.67"/>
<polygon fill="black" stroke="black" points="1513.12,-263.61 1509.14,-253.79 1506.13,-263.95 1513.12,-263.61"/>
</g>
<!-- multi_ed25519&#45;&gt;ed25519 -->
<g id="edge113" class="edge">
<title>multi_ed25519&#45;&gt;ed25519</title>
<path fill="none" stroke="black" d="M1559.71,-359.7C1561.29,-352.32 1563.17,-343.52 1564.95,-335.25"/>
<polygon fill="black" stroke="black" points="1568.34,-336.1 1567.02,-325.58 1561.5,-334.63 1568.34,-336.1"/>
</g>
<!-- from_bcs&#45;&gt;string -->
<g id="edge114" class="edge">
<title>from_bcs&#45;&gt;string</title>
<path fill="none" stroke="black" d="M1185.62,-216.76C1177.73,-207.86 1167.81,-196.65 1159.06,-186.78"/>
<polygon fill="black" stroke="black" points="1161.71,-184.49 1152.46,-179.32 1156.47,-189.13 1161.71,-184.49"/>
</g>
<!-- optional_aggregator&#45;&gt;option -->
<g id="edge115" class="edge">
<title>optional_aggregator&#45;&gt;option</title>
<path fill="none" stroke="black" d="M788.37,-433.92C768.76,-424.95 745.45,-412.16 728,-396 689.72,-360.56 655.97,-333.21 682,-288 756.66,-158.31 947.25,-111.85 1033.47,-97.1"/>
<polygon fill="black" stroke="black" points="1033.88,-100.58 1043.18,-95.51 1032.75,-93.68 1033.88,-100.58"/>
</g>
<!-- optional_aggregator&#45;&gt;error -->
<g id="edge116" class="edge">
<title>optional_aggregator&#45;&gt;error</title>
<path fill="none" stroke="black" d="M854.96,-432.76C872.01,-422.62 894.09,-409.05 913,-396 1020.99,-321.48 1026.67,-268.31 1147,-216 1236.66,-177.03 1269.7,-205.78 1364,-180 1406.75,-168.31 1415.01,-158.18 1457,-144 1507.27,-127.03 1566.39,-110.52 1603.53,-100.55"/>
<polygon fill="black" stroke="black" points="1604.1,-104.02 1612.86,-98.07 1602.29,-97.26 1604.1,-104.02"/>
</g>
<!-- aggregator -->
<g id="node34" class="node">
<title>aggregator</title>
<ellipse fill="none" stroke="black" cx="739" cy="-306" rx="48.19" ry="18"/>
<text text-anchor="middle" x="739" y="-302.3" font-family="Times,serif" font-size="14.00">aggregator</text>
</g>
<!-- optional_aggregator&#45;&gt;aggregator -->
<g id="edge117" class="edge">
<title>optional_aggregator&#45;&gt;aggregator</title>
<path fill="none" stroke="black" d="M786.15,-434.18C769.08,-425.75 750.94,-413.35 741,-396 730.6,-377.85 730.64,-354.01 732.98,-335.58"/>
<polygon fill="black" stroke="black" points="736.41,-336.28 734.53,-325.85 729.5,-335.17 736.41,-336.28"/>
</g>
<!-- aggregator_factory -->
<g id="node35" class="node">
<title>aggregator_factory</title>
<ellipse fill="none" stroke="black" cx="827" cy="-378" rx="77.19" ry="18"/>
<text text-anchor="middle" x="827" y="-374.3" font-family="Times,serif" font-size="14.00">aggregator_factory</text>
</g>
<!-- optional_aggregator&#45;&gt;aggregator_factory -->
<g id="edge118" class="edge">
<title>optional_aggregator&#45;&gt;aggregator_factory</title>
<path fill="none" stroke="black" d="M827,-431.7C827,-424.41 827,-415.73 827,-407.54"/>
<polygon fill="black" stroke="black" points="830.5,-407.62 827,-397.62 823.5,-407.62 830.5,-407.62"/>
</g>
<!-- comparator&#45;&gt;bcs -->
<g id="edge119" class="edge">
<title>comparator&#45;&gt;bcs</title>
<path fill="none" stroke="black" d="M2098.5,-292.49C2063.27,-279.71 2008.95,-260.01 1973.93,-247.31"/>
<polygon fill="black" stroke="black" points="1975.31,-244.08 1964.72,-243.96 1972.92,-250.66 1975.31,-244.08"/>
</g>
<!-- features&#45;&gt;signer -->
<g id="edge120" class="edge">
<title>features&#45;&gt;signer</title>
<path fill="none" stroke="black" d="M1229.26,-153.12C1213.73,-149.79 1195.02,-146.18 1178,-144 840.75,-100.83 429.82,-92.82 296.79,-91.33"/>
<polygon fill="black" stroke="black" points="297.06,-87.84 287.02,-91.23 296.99,-94.84 297.06,-87.84"/>
</g>
<!-- features&#45;&gt;error -->
<g id="edge121" class="edge">
<title>features&#45;&gt;error</title>
<path fill="none" stroke="black" d="M1298.04,-154.35C1314.69,-151.19 1334.87,-147.39 1353,-144 1442.33,-127.32 1547.35,-108 1602.24,-97.92"/>
<polygon fill="black" stroke="black" points="1602.79,-101.38 1611.99,-96.13 1601.53,-94.49 1602.79,-101.38"/>
</g>
<!-- aggregator_factory&#45;&gt;error -->
<g id="edge122" class="edge">
<title>aggregator_factory&#45;&gt;error</title>
<path fill="none" stroke="black" d="M840.41,-360.05C856.47,-340.62 884.99,-308.79 915,-288 979.44,-243.37 1000.81,-238.16 1076,-216 1176.93,-186.26 1209.03,-209.63 1310,-180 1347.8,-168.91 1353.53,-156.17 1391,-144 1463.97,-120.31 1552.47,-104.38 1601.88,-96.58"/>
<polygon fill="black" stroke="black" points="1602.14,-100.08 1611.49,-95.09 1601.07,-93.16 1602.14,-100.08"/>
</g>
<!-- aggregator_factory&#45;&gt;system_addresses -->
<g id="edge124" class="edge">
<title>aggregator_factory&#45;&gt;system_addresses</title>
<path fill="none" stroke="black" d="M769.32,-365.75C705.39,-353.29 602.43,-333.21 534.98,-320.06"/>
<polygon fill="black" stroke="black" points="536.03,-316.7 525.54,-318.22 534.69,-323.57 536.03,-316.7"/>
</g>
<!-- aggregator_factory&#45;&gt;table -->
<g id="edge123" class="edge">
<title>aggregator_factory&#45;&gt;table</title>
<path fill="none" stroke="black" d="M855.68,-360.94C875.32,-349.94 901.34,-335.37 921.38,-324.15"/>
<polygon fill="black" stroke="black" points="922.92,-327.3 929.93,-319.36 919.5,-321.19 922.92,-327.3"/>
</g>
<!-- aggregator_factory&#45;&gt;aggregator -->
<g id="edge125" class="edge">
<title>aggregator_factory&#45;&gt;aggregator</title>
<path fill="none" stroke="black" d="M806.15,-360.41C794.61,-351.24 780.11,-339.7 767.54,-329.7"/>
<polygon fill="black" stroke="black" points="769.99,-327.18 759.98,-323.69 765.63,-332.66 769.99,-327.18"/>
</g>
</g>
</svg>
