<?xml version="1.0" encoding="UTF-8" standalone="no"?>
<!DOCTYPE svg PUBLIC "-//W3C//DTD SVG 1.1//EN"
 "http://www.w3.org/Graphics/SVG/1.1/DTD/svg11.dtd">
<!-- Generated by graphviz version 7.0.0 (20221023.0053)
 -->
<!-- Title: G Pages: 1 -->
<svg width="692pt" height="745pt"
 viewBox="0.00 0.00 692.00 745.00" xmlns="http://www.w3.org/2000/svg" xmlns:xlink="http://www.w3.org/1999/xlink">
<g id="graph0" class="graph" transform="scale(1 1) rotate(0) translate(4 741)">
<title>G</title>
<polygon fill="white" stroke="none" points="-4,4 -4,-741 688,-741 688,4 -4,4"/>
<g id="clust1" class="cluster">
<title>cluster_staking_contract</title>
<polygon fill="none" stroke="black" points="228,-208 228,-427 518,-427 518,-208 228,-208"/>
<text text-anchor="middle" x="373" y="-411.8" font-family="Times,serif" font-size="14.00">staking_contract</text>
</g>
<g id="clust2" class="cluster">
<title>cluster_genesis</title>
<polygon fill="none" stroke="black" points="8,-435 8,-729 464,-729 464,-435 8,-435"/>
<text text-anchor="middle" x="236" y="-713.8" font-family="Times,serif" font-size="14.00">genesis</text>
</g>
<g id="clust3" class="cluster">
<title>cluster_vesting</title>
<polygon fill="none" stroke="black" points="472,-579 472,-654 676,-654 676,-579 472,-579"/>
<text text-anchor="middle" x="574" y="-638.8" font-family="Times,serif" font-size="14.00">vesting</text>
</g>
<!-- is_allowed -->
<g id="node1" class="node">
<title>is_allowed</title>
<ellipse fill="none" stroke="black" cx="367" cy="-18" rx="48.99" ry="18"/>
<text text-anchor="middle" x="367" y="-14.3" font-family="Times,serif" font-size="14.00">is_allowed</text>
</g>
<!-- initialize_owner -->
<g id="node2" class="node">
<title>initialize_owner</title>
<ellipse fill="none" stroke="black" cx="367" cy="-90" rx="67.69" ry="18"/>
<text text-anchor="middle" x="367" y="-86.3" font-family="Times,serif" font-size="14.00">initialize_owner</text>
</g>
<!-- initialize_owner&#45;&gt;is_allowed -->
<g id="edge1" class="edge">
<title>initialize_owner&#45;&gt;is_allowed</title>
<path fill="none" stroke="black" d="M367,-71.7C367,-64.41 367,-55.73 367,-47.54"/>
<polygon fill="black" stroke="black" points="370.5,-47.62 367,-37.62 363.5,-47.62 370.5,-47.62"/>
</g>
<!-- initialize_stake_owner -->
<g id="node3" class="node">
<title>initialize_stake_owner</title>
<ellipse fill="none" stroke="black" cx="274" cy="-162" rx="90.18" ry="18"/>
<text text-anchor="middle" x="274" y="-158.3" font-family="Times,serif" font-size="14.00">initialize_stake_owner</text>
</g>
<!-- initialize_stake_owner&#45;&gt;initialize_owner -->
<g id="edge2" class="edge">
<title>initialize_stake_owner&#45;&gt;initialize_owner</title>
<path fill="none" stroke="black" d="M296.04,-144.41C307.97,-135.43 322.9,-124.19 335.99,-114.34"/>
<polygon fill="black" stroke="black" points="338.02,-117.19 343.91,-108.38 333.81,-111.6 338.02,-117.19"/>
</g>
<!-- initialize_validator -->
<g id="node4" class="node">
<title>initialize_validator</title>
<ellipse fill="none" stroke="black" cx="460" cy="-162" rx="77.19" ry="18"/>
<text text-anchor="middle" x="460" y="-158.3" font-family="Times,serif" font-size="14.00">initialize_validator</text>
</g>
<!-- initialize_validator&#45;&gt;initialize_owner -->
<g id="edge3" class="edge">
<title>initialize_validator&#45;&gt;initialize_owner</title>
<path fill="none" stroke="black" d="M437.96,-144.41C426.03,-135.43 411.1,-124.19 398.01,-114.34"/>
<polygon fill="black" stroke="black" points="400.19,-111.6 390.09,-108.38 395.98,-117.19 400.19,-111.6"/>
</g>
<!-- staking_contract::create_stake_pool -->
<g id="node5" class="node">
<title>staking_contract::create_stake_pool</title>
<ellipse fill="none" stroke="black" cx="341" cy="-234" rx="74.19" ry="18"/>
<text text-anchor="middle" x="341" y="-230.3" font-family="Times,serif" font-size="14.00">create_stake_pool</text>
</g>
<!-- staking_contract::create_stake_pool&#45;&gt;initialize_stake_owner -->
<g id="edge4" class="edge">
<title>staking_contract::create_stake_pool&#45;&gt;initialize_stake_owner</title>
<path fill="none" stroke="black" d="M324.78,-216.05C316.72,-207.63 306.81,-197.28 297.9,-187.97"/>
<polygon fill="black" stroke="black" points="300.56,-185.69 291.12,-180.88 295.5,-190.53 300.56,-185.69"/>
</g>
<!-- genesis::create_initialize_validator -->
<g id="node6" class="node">
<title>genesis::create_initialize_validator</title>
<ellipse fill="none" stroke="black" cx="208" cy="-461" rx="102.88" ry="18"/>
<text text-anchor="middle" x="208" y="-457.3" font-family="Times,serif" font-size="14.00">create_initialize_validator</text>
</g>
<!-- genesis::create_initialize_validator&#45;&gt;initialize_stake_owner -->
<g id="edge5" class="edge">
<title>genesis::create_initialize_validator&#45;&gt;initialize_stake_owner</title>
<path fill="none" stroke="black" d="M204.84,-442.68C197.95,-400.18 185.14,-288.3 224,-208 227.83,-200.09 233.72,-192.94 240.14,-186.79"/>
<polygon fill="black" stroke="black" points="242.06,-189.76 247.29,-180.55 237.46,-184.49 242.06,-189.76"/>
</g>
<!-- staking_contract::create_staking_contract -->
<g id="node9" class="node">
<title>staking_contract::create_staking_contract</title>
<ellipse fill="none" stroke="black" cx="347" cy="-378" rx="94.48" ry="18"/>
<text text-anchor="middle" x="347" y="-374.3" font-family="Times,serif" font-size="14.00">create_staking_contract</text>
</g>
<!-- genesis::create_initialize_validator&#45;&gt;staking_contract::create_staking_contract -->
<g id="edge11" class="edge">
<title>genesis::create_initialize_validator&#45;&gt;staking_contract::create_staking_contract</title>
<path fill="none" stroke="black" d="M236.46,-443.41C257.36,-431.24 285.96,-414.57 308.84,-401.24"/>
<polygon fill="black" stroke="black" points="310.39,-404.39 317.27,-396.33 306.86,-398.34 310.39,-404.39"/>
</g>
<!-- staking_contract::create_staking_contract_with_coins -->
<g id="node7" class="node">
<title>staking_contract::create_staking_contract_with_coins</title>
<ellipse fill="none" stroke="black" cx="373" cy="-306" rx="137.28" ry="18"/>
<text text-anchor="middle" x="373" y="-302.3" font-family="Times,serif" font-size="14.00">create_staking_contract_with_coins</text>
</g>
<!-- staking_contract::create_staking_contract_with_coins&#45;&gt;staking_contract::create_stake_pool -->
<g id="edge6" class="edge">
<title>staking_contract::create_staking_contract_with_coins&#45;&gt;staking_contract::create_stake_pool</title>
<path fill="none" stroke="black" d="M365.09,-287.7C361.6,-280.07 357.42,-270.92 353.52,-262.4"/>
<polygon fill="black" stroke="black" points="356.79,-261.12 349.45,-253.48 350.42,-264.03 356.79,-261.12"/>
</g>
<!-- genesis::create_initialize_validators_with_commission -->
<g id="node8" class="node">
<title>genesis::create_initialize_validators_with_commission</title>
<ellipse fill="none" stroke="black" cx="199" cy="-533" rx="173.57" ry="18"/>
<text text-anchor="middle" x="199" y="-529.3" font-family="Times,serif" font-size="14.00">create_initialize_validators_with_commission</text>
</g>
<!-- genesis::create_initialize_validators_with_commission&#45;&gt;genesis::create_initialize_validator -->
<g id="edge7" class="edge">
<title>genesis::create_initialize_validators_with_commission&#45;&gt;genesis::create_initialize_validator</title>
<path fill="none" stroke="black" d="M201.22,-514.7C202.17,-507.32 203.3,-498.52 204.37,-490.25"/>
<polygon fill="black" stroke="black" points="207.8,-490.97 205.61,-480.61 200.86,-490.08 207.8,-490.97"/>
</g>
<!-- staking_contract::create_staking_contract&#45;&gt;staking_contract::create_staking_contract_with_coins -->
<g id="edge8" class="edge">
<title>staking_contract::create_staking_contract&#45;&gt;staking_contract::create_staking_contract_with_coins</title>
<path fill="none" stroke="black" d="M353.43,-359.7C356.23,-352.15 359.58,-343.12 362.72,-334.68"/>
<polygon fill="black" stroke="black" points="365.92,-336.12 366.12,-325.52 359.36,-333.68 365.92,-336.12"/>
</g>
<!-- vesting::create_vesting_contract -->
<g id="node10" class="node">
<title>vesting::create_vesting_contract</title>
<ellipse fill="none" stroke="black" cx="574" cy="-605" rx="94.48" ry="18"/>
<text text-anchor="middle" x="574" y="-601.3" font-family="Times,serif" font-size="14.00">create_vesting_contract</text>
</g>
<!-- vesting::create_vesting_contract&#45;&gt;staking_contract::create_staking_contract_with_coins -->
<g id="edge9" class="edge">
<title>vesting::create_vesting_contract&#45;&gt;staking_contract::create_staking_contract_with_coins</title>
<path fill="none" stroke="black" d="M568.53,-586.6C554.48,-544.03 513.69,-432.76 450,-360 439.86,-348.42 426.67,-338.15 414.08,-329.8"/>
<polygon fill="black" stroke="black" points="416.22,-327.02 405.9,-324.62 412.47,-332.93 416.22,-327.02"/>
</g>
<!-- genesis::create_initialize_validators -->
<g id="node11" class="node">
<title>genesis::create_initialize_validators</title>
<ellipse fill="none" stroke="black" cx="180" cy="-605" rx="105.88" ry="18"/>
<text text-anchor="middle" x="180" y="-601.3" font-family="Times,serif" font-size="14.00">create_initialize_validators</text>
</g>
<!-- genesis::create_initialize_validators&#45;&gt;genesis::create_initialize_validators_with_commission -->
<g id="edge10" class="edge">
<title>genesis::create_initialize_validators&#45;&gt;genesis::create_initialize_validators_with_commission</title>
<path fill="none" stroke="black" d="M184.7,-586.7C186.72,-579.24 189.14,-570.32 191.41,-561.97"/>
<polygon fill="black" stroke="black" points="194.72,-563.13 193.96,-552.57 187.96,-561.3 194.72,-563.13"/>
</g>
<!-- genesis::create_employee_validators -->
<g id="node12" class="node">
<title>genesis::create_employee_validators</title>
<ellipse fill="none" stroke="black" cx="346" cy="-680" rx="109.68" ry="18"/>
<text text-anchor="middle" x="346" y="-676.3" font-family="Times,serif" font-size="14.00">create_employee_validators</text>
</g>
<!-- genesis::create_employee_validators&#45;&gt;vesting::create_vesting_contract -->
<g id="edge12" class="edge">
<title>genesis::create_employee_validators&#45;&gt;vesting::create_vesting_contract</title>
<path fill="none" stroke="black" d="M420.56,-666.47C436.39,-663.05 452.88,-658.9 468,-654 489.89,-646.9 513.28,-636.62 532.51,-627.39"/>
<polygon fill="black" stroke="black" points="533.92,-630.59 541.37,-623.06 530.85,-624.3 533.92,-630.59"/>
</g>
<!-- genesis::initialize_for_verification -->
<g id="node13" class="node">
<title>genesis::initialize_for_verification</title>
<ellipse fill="none" stroke="black" cx="117" cy="-680" rx="100.98" ry="18"/>
<text text-anchor="middle" x="117" y="-676.3" font-family="Times,serif" font-size="14.00">initialize_for_verification</text>
</g>
<!-- genesis::initialize_for_verification&#45;&gt;genesis::create_initialize_validators -->
<g id="edge13" class="edge">
<title>genesis::initialize_for_verification&#45;&gt;genesis::create_initialize_validators</title>
<path fill="none" stroke="black" d="M131.61,-662.07C139.43,-653.01 149.21,-641.67 157.93,-631.57"/>
<polygon fill="black" stroke="black" points="160.38,-634.1 164.26,-624.24 155.08,-629.52 160.38,-634.1"/>
</g>
</g>
</svg>
