<?xml version="1.0" encoding="UTF-8" standalone="no"?>
<!DOCTYPE svg PUBLIC "-//W3C//DTD SVG 1.1//EN"
 "http://www.w3.org/Graphics/SVG/1.1/DTD/svg11.dtd">
<!-- Generated by graphviz version 7.0.0 (20221023.0053)
 -->
<!-- Title: G Pages: 1 -->
<svg width="1531pt" height="529pt"
 viewBox="0.00 0.00 1531.09 529.00" xmlns="http://www.w3.org/2000/svg" xmlns:xlink="http://www.w3.org/1999/xlink">
<g id="graph0" class="graph" transform="scale(1 1) rotate(0) translate(4 525)">
<title>G</title>
<polygon fill="white" stroke="none" points="-4,4 -4,-525 1527.09,-525 1527.09,4 -4,4"/>
<g id="clust3" class="cluster">
<title>cluster_aptos_governance</title>
<polygon fill="none" stroke="black" points="1397.09,-363 1397.09,-438 1515.09,-438 1515.09,-363 1397.09,-363"/>
<text text-anchor="middle" x="1456.09" y="-422.8" font-family="Times,serif" font-size="14.00">aptos_governance</text>
</g>
<g id="clust4" class="cluster">
<title>cluster_block</title>
<polygon fill="none" stroke="black" points="624.09,-363 624.09,-438 772.09,-438 772.09,-363 624.09,-363"/>
<text text-anchor="middle" x="698.09" y="-422.8" font-family="Times,serif" font-size="14.00">block</text>
</g>
<g id="clust5" class="cluster">
<title>cluster_consensus_config</title>
<polygon fill="none" stroke="black" points="780.09,-363 780.09,-438 893.09,-438 893.09,-363 780.09,-363"/>
<text text-anchor="middle" x="836.59" y="-422.8" font-family="Times,serif" font-size="14.00">consensus_config</text>
</g>
<g id="clust6" class="cluster">
<title>cluster_gas_schedule</title>
<polygon fill="none" stroke="black" points="901.09,-363 901.09,-438 1263.09,-438 1263.09,-363 901.09,-363"/>
<text text-anchor="middle" x="1082.09" y="-422.8" font-family="Times,serif" font-size="14.00">gas_schedule</text>
</g>
<g id="clust7" class="cluster">
<title>cluster_version</title>
<polygon fill="none" stroke="black" points="1271.09,-363 1271.09,-438 1389.09,-438 1389.09,-363 1271.09,-363"/>
<text text-anchor="middle" x="1330.09" y="-422.8" font-family="Times,serif" font-size="14.00">version</text>
</g>
<g id="clust1" class="cluster">
<title>cluster_genesis</title>
<polygon fill="none" stroke="black" points="156.09,-136 156.09,-513 616.09,-513 616.09,-136 156.09,-136"/>
<text text-anchor="middle" x="386.09" y="-497.8" font-family="Times,serif" font-size="14.00">genesis</text>
</g>
<g id="clust2" class="cluster">
<title>cluster_reconfiguration</title>
<polygon fill="none" stroke="black" points="943.09,-280 943.09,-355 1061.09,-355 1061.09,-280 943.09,-280"/>
<text text-anchor="middle" x="1002.09" y="-339.8" font-family="Times,serif" font-size="14.00">reconfiguration</text>
</g>
<!-- generate_validator_info -->
<g id="node1" class="node">
<title>generate_validator_info</title>
<ellipse fill="none" stroke="black" cx="556.09" cy="-18" rx="94.78" ry="18"/>
<text text-anchor="middle" x="556.09" y="-14.3" font-family="Times,serif" font-size="14.00">generate_validator_info</text>
</g>
<!-- join_validator_set_internal -->
<g id="node2" class="node">
<title>join_validator_set_internal</title>
<ellipse fill="none" stroke="black" cx="373.09" cy="-90" rx="105.08" ry="18"/>
<text text-anchor="middle" x="373.09" y="-86.3" font-family="Times,serif" font-size="14.00">join_validator_set_internal</text>
</g>
<!-- join_validator_set_internal&#45;&gt;generate_validator_info -->
<g id="edge1" class="edge">
<title>join_validator_set_internal&#45;&gt;generate_validator_info</title>
<path fill="none" stroke="black" d="M414.62,-73.12C441.36,-62.89 476.32,-49.51 504.8,-38.62"/>
<polygon fill="black" stroke="black" points="505.86,-41.96 513.95,-35.12 503.36,-35.42 505.86,-41.96"/>
</g>
<!-- on_new_epoch -->
<g id="node3" class="node">
<title>on_new_epoch</title>
<ellipse fill="none" stroke="black" cx="690.09" cy="-234" rx="63.89" ry="18"/>
<text text-anchor="middle" x="690.09" y="-230.3" font-family="Times,serif" font-size="14.00">on_new_epoch</text>
</g>
<!-- on_new_epoch&#45;&gt;generate_validator_info -->
<g id="edge2" class="edge">
<title>on_new_epoch&#45;&gt;generate_validator_info</title>
<path fill="none" stroke="black" d="M679.35,-215.85C656.08,-178.68 600.83,-90.44 572.89,-45.82"/>
<polygon fill="black" stroke="black" points="575.96,-44.13 567.69,-37.52 570.03,-47.85 575.96,-44.13"/>
</g>
<!-- join_validator_set -->
<g id="node4" class="node">
<title>join_validator_set</title>
<ellipse fill="none" stroke="black" cx="74.09" cy="-162" rx="74.19" ry="18"/>
<text text-anchor="middle" x="74.09" y="-158.3" font-family="Times,serif" font-size="14.00">join_validator_set</text>
</g>
<!-- join_validator_set&#45;&gt;join_validator_set_internal -->
<g id="edge3" class="edge">
<title>join_validator_set&#45;&gt;join_validator_set_internal</title>
<path fill="none" stroke="black" d="M115.54,-146.79C127.28,-143.02 140.12,-139.13 152.09,-136 197.38,-124.17 248.56,-113.58 290.26,-105.64"/>
<polygon fill="black" stroke="black" points="290.81,-109.1 299.99,-103.81 289.51,-102.22 290.81,-109.1"/>
</g>
<!-- genesis::initialize_validator -->
<g id="node5" class="node">
<title>genesis::initialize_validator</title>
<ellipse fill="none" stroke="black" cx="373.09" cy="-162" rx="77.19" ry="18"/>
<text text-anchor="middle" x="373.09" y="-158.3" font-family="Times,serif" font-size="14.00">initialize_validator</text>
</g>
<!-- genesis::initialize_validator&#45;&gt;join_validator_set_internal -->
<g id="edge4" class="edge">
<title>genesis::initialize_validator&#45;&gt;join_validator_set_internal</title>
<path fill="none" stroke="black" d="M373.09,-143.7C373.09,-136.41 373.09,-127.73 373.09,-119.54"/>
<polygon fill="black" stroke="black" points="376.59,-119.62 373.09,-109.62 369.59,-119.62 376.59,-119.62"/>
</g>
<!-- reconfiguration::reconfigure -->
<g id="node6" class="node">
<title>reconfiguration::reconfigure</title>
<ellipse fill="none" stroke="black" cx="1002.09" cy="-306" rx="51.19" ry="18"/>
<text text-anchor="middle" x="1002.09" y="-302.3" font-family="Times,serif" font-size="14.00">reconfigure</text>
</g>
<!-- reconfiguration::reconfigure&#45;&gt;on_new_epoch -->
<g id="edge5" class="edge">
<title>reconfiguration::reconfigure&#45;&gt;on_new_epoch</title>
<path fill="none" stroke="black" d="M959.69,-295.49C905.58,-283.35 811.63,-262.27 750.17,-248.48"/>
<polygon fill="black" stroke="black" points="751.08,-245.1 740.56,-246.32 749.55,-251.93 751.08,-245.1"/>
</g>
<!-- genesis::create_initialize_validators_with_commission -->
<g id="node7" class="node">
<title>genesis::create_initialize_validators_with_commission</title>
<ellipse fill="none" stroke="black" cx="386.09" cy="-306" rx="173.57" ry="18"/>
<text text-anchor="middle" x="386.09" y="-302.3" font-family="Times,serif" font-size="14.00">create_initialize_validators_with_commission</text>
</g>
<!-- genesis::create_initialize_validators_with_commission&#45;&gt;on_new_epoch -->
<g id="edge6" class="edge">
<title>genesis::create_initialize_validators_with_commission&#45;&gt;on_new_epoch</title>
<path fill="none" stroke="black" d="M457.33,-289.17C503.73,-278.78 565.55,-264.8 620.09,-252 624.04,-251.07 628.11,-250.11 632.2,-249.13"/>
<polygon fill="black" stroke="black" points="632.67,-252.62 641.58,-246.88 631.04,-245.81 632.67,-252.62"/>
</g>
<!-- genesis::create_initialize_validator -->
<g id="node9" class="node">
<title>genesis::create_initialize_validator</title>
<ellipse fill="none" stroke="black" cx="267.09" cy="-234" rx="102.88" ry="18"/>
<text text-anchor="middle" x="267.09" y="-230.3" font-family="Times,serif" font-size="14.00">create_initialize_validator</text>
</g>
<!-- genesis::create_initialize_validators_with_commission&#45;&gt;genesis::create_initialize_validator -->
<g id="edge16" class="edge">
<title>genesis::create_initialize_validators_with_commission&#45;&gt;genesis::create_initialize_validator</title>
<path fill="none" stroke="black" d="M356.98,-287.88C341.34,-278.67 321.86,-267.22 305.04,-257.32"/>
<polygon fill="black" stroke="black" points="307.19,-254.53 296.8,-252.47 303.64,-260.56 307.19,-254.53"/>
</g>
<!-- genesis::create_employee_validators -->
<g id="node8" class="node">
<title>genesis::create_employee_validators</title>
<ellipse fill="none" stroke="black" cx="498.09" cy="-234" rx="109.68" ry="18"/>
<text text-anchor="middle" x="498.09" y="-230.3" font-family="Times,serif" font-size="14.00">create_employee_validators</text>
</g>
<!-- genesis::create_employee_validators&#45;&gt;genesis::initialize_validator -->
<g id="edge7" class="edge">
<title>genesis::create_employee_validators&#45;&gt;genesis::initialize_validator</title>
<path fill="none" stroke="black" d="M468.15,-216.23C451.29,-206.79 430.04,-194.89 411.91,-184.74"/>
<polygon fill="black" stroke="black" points="413.68,-181.72 403.25,-179.89 410.26,-187.83 413.68,-181.72"/>
</g>
<!-- genesis::create_initialize_validator&#45;&gt;genesis::initialize_validator -->
<g id="edge8" class="edge">
<title>genesis::create_initialize_validator&#45;&gt;genesis::initialize_validator</title>
<path fill="none" stroke="black" d="M292.48,-216.23C306.35,-207.08 323.72,-195.61 338.77,-185.66"/>
<polygon fill="black" stroke="black" points="340.6,-188.65 347.01,-180.22 336.74,-182.81 340.6,-188.65"/>
</g>
<!-- aptos_governance::reconfigure -->
<g id="node10" class="node">
<title>aptos_governance::reconfigure</title>
<ellipse fill="none" stroke="black" cx="1456.09" cy="-389" rx="51.19" ry="18"/>
<text text-anchor="middle" x="1456.09" y="-385.3" font-family="Times,serif" font-size="14.00">reconfigure</text>
</g>
<!-- aptos_governance::reconfigure&#45;&gt;reconfiguration::reconfigure -->
<g id="edge9" class="edge">
<title>aptos_governance::reconfigure&#45;&gt;reconfiguration::reconfigure</title>
<path fill="none" stroke="black" d="M1425.5,-374.18C1415.36,-370.06 1403.9,-365.87 1393.09,-363 1278.77,-332.59 1140.96,-317.73 1063.24,-311.28"/>
<polygon fill="black" stroke="black" points="1063.98,-307.83 1053.73,-310.51 1063.42,-314.8 1063.98,-307.83"/>
</g>
<!-- block::block_prologue -->
<g id="node11" class="node">
<title>block::block_prologue</title>
<ellipse fill="none" stroke="black" cx="698.09" cy="-389" rx="65.79" ry="18"/>
<text text-anchor="middle" x="698.09" y="-385.3" font-family="Times,serif" font-size="14.00">block_prologue</text>
</g>
<!-- block::block_prologue&#45;&gt;reconfiguration::reconfigure -->
<g id="edge10" class="edge">
<title>block::block_prologue&#45;&gt;reconfiguration::reconfigure</title>
<path fill="none" stroke="black" d="M738.42,-374.5C750.49,-370.62 763.78,-366.49 776.09,-363 834.71,-346.37 902.64,-329.91 948.61,-319.18"/>
<polygon fill="black" stroke="black" points="949.38,-322.6 958.33,-316.93 947.79,-315.78 949.38,-322.6"/>
</g>
<!-- consensus_config::set -->
<g id="node12" class="node">
<title>consensus_config::set</title>
<ellipse fill="none" stroke="black" cx="858.09" cy="-389" rx="27" ry="18"/>
<text text-anchor="middle" x="858.09" y="-385.3" font-family="Times,serif" font-size="14.00">set</text>
</g>
<!-- consensus_config::set&#45;&gt;reconfiguration::reconfigure -->
<g id="edge11" class="edge">
<title>consensus_config::set&#45;&gt;reconfiguration::reconfigure</title>
<path fill="none" stroke="black" d="M876.55,-375.74C882.98,-371.58 890.29,-366.98 897.09,-363 918.8,-350.28 943.61,-336.99 963.67,-326.55"/>
<polygon fill="black" stroke="black" points="965.06,-329.77 972.34,-322.07 961.85,-323.55 965.06,-329.77"/>
</g>
<!-- gas_schedule::set_gas_schedule -->
<g id="node13" class="node">
<title>gas_schedule::set_gas_schedule</title>
<ellipse fill="none" stroke="black" cx="1184.09" cy="-389" rx="71.49" ry="18"/>
<text text-anchor="middle" x="1184.09" y="-385.3" font-family="Times,serif" font-size="14.00">set_gas_schedule</text>
</g>
<!-- gas_schedule::set_gas_schedule&#45;&gt;reconfiguration::reconfigure -->
<g id="edge12" class="edge">
<title>gas_schedule::set_gas_schedule&#45;&gt;reconfiguration::reconfigure</title>
<path fill="none" stroke="black" d="M1149.86,-372.76C1119.61,-359.3 1075.42,-339.64 1043.25,-325.32"/>
<polygon fill="black" stroke="black" points="1044.78,-322.17 1034.22,-321.3 1041.94,-328.56 1044.78,-322.17"/>
</g>
<!-- gas_schedule::set_storage_gas_config -->
<g id="node14" class="node">
<title>gas_schedule::set_storage_gas_config</title>
<ellipse fill="none" stroke="black" cx="1002.09" cy="-389" rx="92.88" ry="18"/>
<text text-anchor="middle" x="1002.09" y="-385.3" font-family="Times,serif" font-size="14.00">set_storage_gas_config</text>
</g>
<!-- gas_schedule::set_storage_gas_config&#45;&gt;reconfiguration::reconfigure -->
<g id="edge13" class="edge">
<title>gas_schedule::set_storage_gas_config&#45;&gt;reconfiguration::reconfigure</title>
<path fill="none" stroke="black" d="M1002.09,-370.82C1002.09,-360.69 1002.09,-347.6 1002.09,-335.92"/>
<polygon fill="black" stroke="black" points="1005.59,-335.95 1002.09,-325.95 998.59,-335.95 1005.59,-335.95"/>
</g>
<!-- version::set_version -->
<g id="node15" class="node">
<title>version::set_version</title>
<ellipse fill="none" stroke="black" cx="1330.09" cy="-389" rx="50.89" ry="18"/>
<text text-anchor="middle" x="1330.09" y="-385.3" font-family="Times,serif" font-size="14.00">set_version</text>
</g>
<!-- version::set_version&#45;&gt;reconfiguration::reconfigure -->
<g id="edge14" class="edge">
<title>version::set_version&#45;&gt;reconfiguration::reconfigure</title>
<path fill="none" stroke="black" d="M1298.74,-374.35C1288.75,-370.32 1277.57,-366.16 1267.09,-363 1196.69,-341.76 1113.42,-325.57 1059.27,-316.19"/>
<polygon fill="black" stroke="black" points="1060.11,-312.79 1049.66,-314.55 1058.93,-319.68 1060.11,-312.79"/>
</g>
<!-- genesis::create_initialize_validators -->
<g id="node16" class="node">
<title>genesis::create_initialize_validators</title>
<ellipse fill="none" stroke="black" cx="386.09" cy="-389" rx="105.88" ry="18"/>
<text text-anchor="middle" x="386.09" y="-385.3" font-family="Times,serif" font-size="14.00">create_initialize_validators</text>
</g>
<!-- genesis::create_initialize_validators&#45;&gt;genesis::create_initialize_validators_with_commission -->
<g id="edge15" class="edge">
<title>genesis::create_initialize_validators&#45;&gt;genesis::create_initialize_validators_with_commission</title>
<path fill="none" stroke="black" d="M386.09,-370.82C386.09,-360.69 386.09,-347.6 386.09,-335.92"/>
<polygon fill="black" stroke="black" points="389.59,-335.95 386.09,-325.95 382.59,-335.95 389.59,-335.95"/>
</g>
<!-- genesis::initialize_for_verification -->
<g id="node17" class="node">
<title>genesis::initialize_for_verification</title>
<ellipse fill="none" stroke="black" cx="386.09" cy="-464" rx="100.98" ry="18"/>
<text text-anchor="middle" x="386.09" y="-460.3" font-family="Times,serif" font-size="14.00">initialize_for_verification</text>
</g>
<!-- genesis::initialize_for_verification&#45;&gt;genesis::create_initialize_validators -->
<g id="edge17" class="edge">
<title>genesis::initialize_for_verification&#45;&gt;genesis::create_initialize_validators</title>
<path fill="none" stroke="black" d="M386.09,-445.7C386.09,-437.67 386.09,-427.9 386.09,-418.8"/>
<polygon fill="black" stroke="black" points="389.59,-418.94 386.09,-408.94 382.59,-418.94 389.59,-418.94"/>
</g>
</g>
</svg>
