<?xml version="1.0" encoding="UTF-8" standalone="no"?>
<!DOCTYPE svg PUBLIC "-//W3C//DTD SVG 1.1//EN"
 "http://www.w3.org/Graphics/SVG/1.1/DTD/svg11.dtd">
<!-- Generated by graphviz version 7.0.0 (20221023.0053)
 -->
<!-- Title: G Pages: 1 -->
<svg width="692pt" height="820pt"
 viewBox="0.00 0.00 692.00 820.00" xmlns="http://www.w3.org/2000/svg" xmlns:xlink="http://www.w3.org/1999/xlink">
<g id="graph0" class="graph" transform="scale(1 1) rotate(0) translate(4 816)">
<title>G</title>
<polygon fill="white" stroke="none" points="-4,4 -4,-816 688,-816 688,4 -4,4"/>
<g id="clust1" class="cluster">
<title>cluster_block</title>
<polygon fill="none" stroke="black" points="448,-64 448,-139 596,-139 596,-64 448,-64"/>
<text text-anchor="middle" x="522" y="-123.8" font-family="Times,serif" font-size="14.00">block</text>
</g>
<g id="clust2" class="cluster">
<title>cluster_staking_contract</title>
<polygon fill="none" stroke="black" points="234,-283 234,-502 548,-502 548,-283 234,-283"/>
<text text-anchor="middle" x="391" y="-486.8" font-family="Times,serif" font-size="14.00">staking_contract</text>
</g>
<g id="clust3" class="cluster">
<title>cluster_vesting</title>
<polygon fill="none" stroke="black" points="472,-654 472,-729 676,-729 676,-654 472,-654"/>
<text text-anchor="middle" x="574" y="-713.8" font-family="Times,serif" font-size="14.00">vesting</text>
</g>
<g id="clust4" class="cluster">
<title>cluster_genesis</title>
<polygon fill="none" stroke="black" points="8,-510 8,-804 464,-804 464,-510 8,-510"/>
<text text-anchor="middle" x="236" y="-788.8" font-family="Times,serif" font-size="14.00">genesis</text>
</g>
<!-- is_current_epoch_validator -->
<g id="node1" class="node">
<title>is_current_epoch_validator</title>
<ellipse fill="none" stroke="black" cx="439" cy="-18" rx="106.68" ry="18"/>
<text text-anchor="middle" x="439" y="-14.3" font-family="Times,serif" font-size="14.00">is_current_epoch_validator</text>
</g>
<!-- add_stake_with_cap -->
<g id="node2" class="node">
<title>add_stake_with_cap</title>
<ellipse fill="none" stroke="black" cx="356" cy="-90" rx="82.59" ry="18"/>
<text text-anchor="middle" x="356" y="-86.3" font-family="Times,serif" font-size="14.00">add_stake_with_cap</text>
</g>
<!-- add_stake_with_cap&#45;&gt;is_current_epoch_validator -->
<g id="edge1" class="edge">
<title>add_stake_with_cap&#45;&gt;is_current_epoch_validator</title>
<path fill="none" stroke="black" d="M376.09,-72.05C386.31,-63.43 398.92,-52.8 410.16,-43.32"/>
<polygon fill="black" stroke="black" points="412.26,-46.13 417.65,-37.01 407.75,-40.78 412.26,-46.13"/>
</g>
<!-- block::block_prologue -->
<g id="node3" class="node">
<title>block::block_prologue</title>
<ellipse fill="none" stroke="black" cx="522" cy="-90" rx="65.79" ry="18"/>
<text text-anchor="middle" x="522" y="-86.3" font-family="Times,serif" font-size="14.00">block_prologue</text>
</g>
<!-- block::block_prologue&#45;&gt;is_current_epoch_validator -->
<g id="edge2" class="edge">
<title>block::block_prologue&#45;&gt;is_current_epoch_validator</title>
<path fill="none" stroke="black" d="M502.33,-72.41C492.04,-63.73 479.25,-52.95 467.86,-43.34"/>
<polygon fill="black" stroke="black" points="470.16,-40.7 460.26,-36.93 465.65,-46.05 470.16,-40.7"/>
</g>
<!-- add_stake -->
<g id="node4" class="node">
<title>add_stake</title>
<ellipse fill="none" stroke="black" cx="356" cy="-165" rx="46.29" ry="18"/>
<text text-anchor="middle" x="356" y="-161.3" font-family="Times,serif" font-size="14.00">add_stake</text>
</g>
<!-- add_stake&#45;&gt;add_stake_with_cap -->
<g id="edge3" class="edge">
<title>add_stake&#45;&gt;add_stake_with_cap</title>
<path fill="none" stroke="black" d="M356,-146.7C356,-138.67 356,-128.9 356,-119.8"/>
<polygon fill="black" stroke="black" points="359.5,-119.94 356,-109.94 352.5,-119.94 359.5,-119.94"/>
</g>
<!-- staking_contract::add_stake -->
<g id="node5" class="node">
<title>staking_contract::add_stake</title>
<ellipse fill="none" stroke="black" cx="288" cy="-453" rx="46.29" ry="18"/>
<text text-anchor="middle" x="288" y="-449.3" font-family="Times,serif" font-size="14.00">add_stake</text>
</g>
<!-- staking_contract::add_stake&#45;&gt;add_stake_with_cap -->
<g id="edge4" class="edge">
<title>staking_contract::add_stake&#45;&gt;add_stake_with_cap</title>
<path fill="none" stroke="black" d="M276.5,-435.51C269.92,-425.39 262.01,-411.92 257,-399 242.38,-361.29 238,-350.45 238,-310 238,-310 238,-310 238,-236 238,-183.49 285.13,-139.44 319.82,-114.12"/>
<polygon fill="black" stroke="black" points="321.83,-116.99 327.99,-108.36 317.8,-111.27 321.83,-116.99"/>
</g>
<!-- staking_contract::create_staking_contract_with_coins -->
<g id="node6" class="node">
<title>staking_contract::create_staking_contract_with_coins</title>
<ellipse fill="none" stroke="black" cx="403" cy="-381" rx="137.28" ry="18"/>
<text text-anchor="middle" x="403" y="-377.3" font-family="Times,serif" font-size="14.00">create_staking_contract_with_coins</text>
</g>
<!-- staking_contract::create_staking_contract_with_coins&#45;&gt;add_stake_with_cap -->
<g id="edge5" class="edge">
<title>staking_contract::create_staking_contract_with_coins&#45;&gt;add_stake_with_cap</title>
<path fill="none" stroke="black" d="M421.86,-362.68C431.03,-353.09 441.29,-340.43 447,-327 465.82,-282.7 468.04,-265.33 455,-219 443.22,-177.15 409.51,-139.12 384.68,-115.59"/>
<polygon fill="black" stroke="black" points="387.16,-113.11 377.43,-108.91 382.42,-118.26 387.16,-113.11"/>
</g>
<!-- staking_contract::create_stake_pool -->
<g id="node10" class="node">
<title>staking_contract::create_stake_pool</title>
<ellipse fill="none" stroke="black" cx="364" cy="-309" rx="74.19" ry="18"/>
<text text-anchor="middle" x="364" y="-305.3" font-family="Times,serif" font-size="14.00">create_stake_pool</text>
</g>
<!-- staking_contract::create_staking_contract_with_coins&#45;&gt;staking_contract::create_stake_pool -->
<g id="edge13" class="edge">
<title>staking_contract::create_staking_contract_with_coins&#45;&gt;staking_contract::create_stake_pool</title>
<path fill="none" stroke="black" d="M393.36,-362.7C389.06,-354.98 383.9,-345.71 379.11,-337.11"/>
<polygon fill="black" stroke="black" points="382.19,-335.46 374.27,-328.43 376.08,-338.87 382.19,-335.46"/>
</g>
<!-- initialize_stake_owner -->
<g id="node7" class="node">
<title>initialize_stake_owner</title>
<ellipse fill="none" stroke="black" cx="356" cy="-237" rx="90.18" ry="18"/>
<text text-anchor="middle" x="356" y="-233.3" font-family="Times,serif" font-size="14.00">initialize_stake_owner</text>
</g>
<!-- initialize_stake_owner&#45;&gt;add_stake -->
<g id="edge6" class="edge">
<title>initialize_stake_owner&#45;&gt;add_stake</title>
<path fill="none" stroke="black" d="M356,-218.7C356,-211.41 356,-202.73 356,-194.54"/>
<polygon fill="black" stroke="black" points="359.5,-194.62 356,-184.62 352.5,-194.62 359.5,-194.62"/>
</g>
<!-- staking_contract::create_staking_contract -->
<g id="node8" class="node">
<title>staking_contract::create_staking_contract</title>
<ellipse fill="none" stroke="black" cx="446" cy="-453" rx="94.48" ry="18"/>
<text text-anchor="middle" x="446" y="-449.3" font-family="Times,serif" font-size="14.00">create_staking_contract</text>
</g>
<!-- staking_contract::create_staking_contract&#45;&gt;staking_contract::create_staking_contract_with_coins -->
<g id="edge7" class="edge">
<title>staking_contract::create_staking_contract&#45;&gt;staking_contract::create_staking_contract_with_coins</title>
<path fill="none" stroke="black" d="M435.37,-434.7C430.58,-426.9 424.81,-417.51 419.48,-408.83"/>
<polygon fill="black" stroke="black" points="422.52,-407.08 414.3,-400.39 416.55,-410.75 422.52,-407.08"/>
</g>
<!-- vesting::create_vesting_contract -->
<g id="node9" class="node">
<title>vesting::create_vesting_contract</title>
<ellipse fill="none" stroke="black" cx="574" cy="-680" rx="94.48" ry="18"/>
<text text-anchor="middle" x="574" y="-676.3" font-family="Times,serif" font-size="14.00">create_vesting_contract</text>
</g>
<!-- vesting::create_vesting_contract&#45;&gt;staking_contract::create_staking_contract_with_coins -->
<g id="edge8" class="edge">
<title>vesting::create_vesting_contract&#45;&gt;staking_contract::create_staking_contract_with_coins</title>
<path fill="none" stroke="black" d="M577.87,-661.69C586.5,-618.33 602.55,-503.67 549,-435 536.27,-418.67 518.04,-407.37 498.76,-399.55"/>
<polygon fill="black" stroke="black" points="499.98,-396.27 489.38,-396.08 497.55,-402.84 499.98,-396.27"/>
</g>
<!-- staking_contract::create_stake_pool&#45;&gt;initialize_stake_owner -->
<g id="edge9" class="edge">
<title>staking_contract::create_stake_pool&#45;&gt;initialize_stake_owner</title>
<path fill="none" stroke="black" d="M362.02,-290.7C361.19,-283.41 360.2,-274.73 359.26,-266.54"/>
<polygon fill="black" stroke="black" points="362.74,-266.15 358.13,-256.61 355.78,-266.94 362.74,-266.15"/>
</g>
<!-- genesis::create_initialize_validator -->
<g id="node11" class="node">
<title>genesis::create_initialize_validator</title>
<ellipse fill="none" stroke="black" cx="200" cy="-536" rx="102.88" ry="18"/>
<text text-anchor="middle" x="200" y="-532.3" font-family="Times,serif" font-size="14.00">create_initialize_validator</text>
</g>
<!-- genesis::create_initialize_validator&#45;&gt;initialize_stake_owner -->
<g id="edge10" class="edge">
<title>genesis::create_initialize_validator&#45;&gt;initialize_stake_owner</title>
<path fill="none" stroke="black" d="M196.45,-517.71C188.4,-473.31 173.55,-353.79 230,-283 241.39,-268.71 257.68,-258.96 274.78,-252.3"/>
<polygon fill="black" stroke="black" points="275.79,-255.65 284.07,-249.04 273.48,-249.05 275.79,-255.65"/>
</g>
<!-- genesis::create_initialize_validator&#45;&gt;staking_contract::create_staking_contract -->
<g id="edge11" class="edge">
<title>genesis::create_initialize_validator&#45;&gt;staking_contract::create_staking_contract</title>
<path fill="none" stroke="black" d="M268.47,-522.25C292.36,-517 319.15,-510.21 343,-502 363.99,-494.78 386.43,-484.63 404.99,-475.52"/>
<polygon fill="black" stroke="black" points="406.41,-478.72 413.8,-471.13 403.28,-472.46 406.41,-478.72"/>
</g>
<!-- genesis::create_employee_validators -->
<g id="node12" class="node">
<title>genesis::create_employee_validators</title>
<ellipse fill="none" stroke="black" cx="346" cy="-755" rx="109.68" ry="18"/>
<text text-anchor="middle" x="346" y="-751.3" font-family="Times,serif" font-size="14.00">create_employee_validators</text>
</g>
<!-- genesis::create_employee_validators&#45;&gt;vesting::create_vesting_contract -->
<g id="edge12" class="edge">
<title>genesis::create_employee_validators&#45;&gt;vesting::create_vesting_contract</title>
<path fill="none" stroke="black" d="M420.56,-741.47C436.39,-738.05 452.88,-733.9 468,-729 489.89,-721.9 513.28,-711.62 532.51,-702.39"/>
<polygon fill="black" stroke="black" points="533.92,-705.59 541.37,-698.06 530.85,-699.3 533.92,-705.59"/>
</g>
<!-- genesis::create_initialize_validators_with_commission -->
<g id="node13" class="node">
<title>genesis::create_initialize_validators_with_commission</title>
<ellipse fill="none" stroke="black" cx="198" cy="-608" rx="173.57" ry="18"/>
<text text-anchor="middle" x="198" y="-604.3" font-family="Times,serif" font-size="14.00">create_initialize_validators_with_commission</text>
</g>
<!-- genesis::create_initialize_validators_with_commission&#45;&gt;genesis::create_initialize_validator -->
<g id="edge14" class="edge">
<title>genesis::create_initialize_validators_with_commission&#45;&gt;genesis::create_initialize_validator</title>
<path fill="none" stroke="black" d="M198.49,-589.7C198.7,-582.41 198.95,-573.73 199.18,-565.54"/>
<polygon fill="black" stroke="black" points="202.68,-565.71 199.47,-555.62 195.68,-565.51 202.68,-565.71"/>
</g>
<!-- genesis::create_initialize_validators -->
<g id="node14" class="node">
<title>genesis::create_initialize_validators</title>
<ellipse fill="none" stroke="black" cx="156" cy="-680" rx="105.88" ry="18"/>
<text text-anchor="middle" x="156" y="-676.3" font-family="Times,serif" font-size="14.00">create_initialize_validators</text>
</g>
<!-- genesis::create_initialize_validators&#45;&gt;genesis::create_initialize_validators_with_commission -->
<g id="edge15" class="edge">
<title>genesis::create_initialize_validators&#45;&gt;genesis::create_initialize_validators_with_commission</title>
<path fill="none" stroke="black" d="M166.38,-661.7C171.06,-653.9 176.69,-644.51 181.9,-635.83"/>
<polygon fill="black" stroke="black" points="184.81,-637.78 186.96,-627.4 178.81,-634.18 184.81,-637.78"/>
</g>
<!-- genesis::initialize_for_verification -->
<g id="node15" class="node">
<title>genesis::initialize_for_verification</title>
<ellipse fill="none" stroke="black" cx="117" cy="-755" rx="100.98" ry="18"/>
<text text-anchor="middle" x="117" y="-751.3" font-family="Times,serif" font-size="14.00">initialize_for_verification</text>
</g>
<!-- genesis::initialize_for_verification&#45;&gt;genesis::create_initialize_validators -->
<g id="edge16" class="edge">
<title>genesis::initialize_for_verification&#45;&gt;genesis::create_initialize_validators</title>
<path fill="none" stroke="black" d="M126.24,-736.7C130.73,-728.31 136.22,-718.02 141.27,-708.58"/>
<polygon fill="black" stroke="black" points="144.35,-710.23 145.98,-699.76 138.18,-706.93 144.35,-710.23"/>
</g>
</g>
</svg>
