<?xml version="1.0" encoding="UTF-8" standalone="no"?>
<!DOCTYPE svg PUBLIC "-//W3C//DTD SVG 1.1//EN"
 "http://www.w3.org/Graphics/SVG/1.1/DTD/svg11.dtd">
<!-- Generated by graphviz version 7.0.0 (20221023.0053)
 -->
<!-- Title: G Pages: 1 -->
<svg width="1444pt" height="468pt"
 viewBox="0.00 0.00 1444.00 468.00" xmlns="http://www.w3.org/2000/svg" xmlns:xlink="http://www.w3.org/1999/xlink">
<g id="graph0" class="graph" transform="scale(1 1) rotate(0) translate(4 464)">
<title>G</title>
<polygon fill="white" stroke="none" points="-4,4 -4,-464 1440,-464 1440,4 -4,4"/>
<g id="clust1" class="cluster">
<title>cluster_stake</title>
<polygon fill="none" stroke="black" points="995,-64 995,-211 1292,-211 1292,-64 995,-64"/>
<text text-anchor="middle" x="1143.5" y="-195.8" font-family="Times,serif" font-size="14.00">stake</text>
</g>
<g id="clust2" class="cluster">
<title>cluster_staking_contract</title>
<polygon fill="none" stroke="black" points="1300,-136 1300,-211 1428,-211 1428,-136 1300,-136"/>
<text text-anchor="middle" x="1364" y="-195.8" font-family="Times,serif" font-size="14.00">staking_contract</text>
</g>
<g id="clust3" class="cluster">
<title>cluster_reconfiguration</title>
<polygon fill="none" stroke="black" points="453,-219 453,-294 571,-294 571,-219 453,-219"/>
<text text-anchor="middle" x="512" y="-278.8" font-family="Times,serif" font-size="14.00">reconfiguration</text>
</g>
<g id="clust4" class="cluster">
<title>cluster_genesis</title>
<polygon fill="none" stroke="black" points="907,-219 907,-452 1271,-452 1271,-219 907,-219"/>
<text text-anchor="middle" x="1089" y="-436.8" font-family="Times,serif" font-size="14.00">genesis</text>
</g>
<g id="clust5" class="cluster">
<title>cluster_vesting</title>
<polygon fill="none" stroke="black" points="1300,-219 1300,-294 1428,-294 1428,-219 1300,-219"/>
<text text-anchor="middle" x="1364" y="-278.8" font-family="Times,serif" font-size="14.00">vesting</text>
</g>
<g id="clust6" class="cluster">
<title>cluster_aptos_governance</title>
<polygon fill="none" stroke="black" points="8,-302 8,-377 126,-377 126,-302 8,-302"/>
<text text-anchor="middle" x="67" y="-361.8" font-family="Times,serif" font-size="14.00">aptos_governance</text>
</g>
<g id="clust7" class="cluster">
<title>cluster_block</title>
<polygon fill="none" stroke="black" points="134,-302 134,-377 282,-377 282,-302 134,-302"/>
<text text-anchor="middle" x="208" y="-361.8" font-family="Times,serif" font-size="14.00">block</text>
</g>
<g id="clust8" class="cluster">
<title>cluster_consensus_config</title>
<polygon fill="none" stroke="black" points="290,-302 290,-377 403,-377 403,-302 290,-302"/>
<text text-anchor="middle" x="346.5" y="-361.8" font-family="Times,serif" font-size="14.00">consensus_config</text>
</g>
<g id="clust9" class="cluster">
<title>cluster_gas_schedule</title>
<polygon fill="none" stroke="black" points="411,-302 411,-377 773,-377 773,-302 411,-302"/>
<text text-anchor="middle" x="592" y="-361.8" font-family="Times,serif" font-size="14.00">gas_schedule</text>
</g>
<g id="clust10" class="cluster">
<title>cluster_version</title>
<polygon fill="none" stroke="black" points="781,-302 781,-377 899,-377 899,-302 781,-302"/>
<text text-anchor="middle" x="840" y="-361.8" font-family="Times,serif" font-size="14.00">version</text>
</g>
<!-- get_recurring_lockup_duration -->
<g id="node1" class="node">
<title>get_recurring_lockup_duration</title>
<ellipse fill="none" stroke="black" cx="1112" cy="-18" rx="120.48" ry="18"/>
<text text-anchor="middle" x="1112" y="-14.3" font-family="Times,serif" font-size="14.00">get_recurring_lockup_duration</text>
</g>
<!-- stake::increase_lockup_with_cap -->
<g id="node2" class="node">
<title>stake::increase_lockup_with_cap</title>
<ellipse fill="none" stroke="black" cx="1179" cy="-90" rx="104.78" ry="18"/>
<text text-anchor="middle" x="1179" y="-86.3" font-family="Times,serif" font-size="14.00">increase_lockup_with_cap</text>
</g>
<!-- stake::increase_lockup_with_cap&#45;&gt;get_recurring_lockup_duration -->
<g id="edge1" class="edge">
<title>stake::increase_lockup_with_cap&#45;&gt;get_recurring_lockup_duration</title>
<path fill="none" stroke="black" d="M1162.78,-72.05C1154.83,-63.75 1145.1,-53.58 1136.29,-44.38"/>
<polygon fill="black" stroke="black" points="1139.02,-42.17 1129.58,-37.37 1133.97,-47.01 1139.02,-42.17"/>
</g>
<!-- stake::on_new_epoch -->
<g id="node3" class="node">
<title>stake::on_new_epoch</title>
<ellipse fill="none" stroke="black" cx="1067" cy="-162" rx="63.89" ry="18"/>
<text text-anchor="middle" x="1067" y="-158.3" font-family="Times,serif" font-size="14.00">on_new_epoch</text>
</g>
<!-- stake::on_new_epoch&#45;&gt;get_recurring_lockup_duration -->
<g id="edge2" class="edge">
<title>stake::on_new_epoch&#45;&gt;get_recurring_lockup_duration</title>
<path fill="none" stroke="black" d="M1062.51,-143.72C1058.22,-123.67 1053.89,-90.02 1065,-64 1068.23,-56.43 1073.43,-49.52 1079.22,-43.51"/>
<polygon fill="black" stroke="black" points="1081.34,-46.33 1086.24,-36.94 1076.55,-41.22 1081.34,-46.33"/>
</g>
<!-- stake::increase_lockup -->
<g id="node4" class="node">
<title>stake::increase_lockup</title>
<ellipse fill="none" stroke="black" cx="1216" cy="-162" rx="67.69" ry="18"/>
<text text-anchor="middle" x="1216" y="-158.3" font-family="Times,serif" font-size="14.00">increase_lockup</text>
</g>
<!-- stake::increase_lockup&#45;&gt;stake::increase_lockup_with_cap -->
<g id="edge3" class="edge">
<title>stake::increase_lockup&#45;&gt;stake::increase_lockup_with_cap</title>
<path fill="none" stroke="black" d="M1206.85,-143.7C1202.78,-135.98 1197.88,-126.71 1193.33,-118.11"/>
<polygon fill="black" stroke="black" points="1196.52,-116.65 1188.75,-109.44 1190.33,-119.92 1196.52,-116.65"/>
</g>
<!-- staking_contract::reset_lockup -->
<g id="node5" class="node">
<title>staking_contract::reset_lockup</title>
<ellipse fill="none" stroke="black" cx="1364" cy="-162" rx="55.79" ry="18"/>
<text text-anchor="middle" x="1364" y="-158.3" font-family="Times,serif" font-size="14.00">reset_lockup</text>
</g>
<!-- staking_contract::reset_lockup&#45;&gt;stake::increase_lockup_with_cap -->
<g id="edge4" class="edge">
<title>staking_contract::reset_lockup&#45;&gt;stake::increase_lockup_with_cap</title>
<path fill="none" stroke="black" d="M1328.77,-147.67C1301.29,-137.27 1262.7,-122.67 1231.57,-110.89"/>
<polygon fill="black" stroke="black" points="1232.91,-107.66 1222.32,-107.39 1230.43,-114.2 1232.91,-107.66"/>
</g>
<!-- reconfiguration::reconfigure -->
<g id="node6" class="node">
<title>reconfiguration::reconfigure</title>
<ellipse fill="none" stroke="black" cx="512" cy="-245" rx="51.19" ry="18"/>
<text text-anchor="middle" x="512" y="-241.3" font-family="Times,serif" font-size="14.00">reconfigure</text>
</g>
<!-- reconfiguration::reconfigure&#45;&gt;stake::on_new_epoch -->
<g id="edge5" class="edge">
<title>reconfiguration::reconfigure&#45;&gt;stake::on_new_epoch</title>
<path fill="none" stroke="black" d="M558.36,-237.23C656.6,-222.9 885.99,-189.42 1000.09,-172.76"/>
<polygon fill="black" stroke="black" points="1000.54,-176.24 1009.93,-171.33 999.53,-169.31 1000.54,-176.24"/>
</g>
<!-- genesis::create_initialize_validators_with_commission -->
<g id="node7" class="node">
<title>genesis::create_initialize_validators_with_commission</title>
<ellipse fill="none" stroke="black" cx="1089" cy="-245" rx="173.57" ry="18"/>
<text text-anchor="middle" x="1089" y="-241.3" font-family="Times,serif" font-size="14.00">create_initialize_validators_with_commission</text>
</g>
<!-- genesis::create_initialize_validators_with_commission&#45;&gt;stake::on_new_epoch -->
<g id="edge6" class="edge">
<title>genesis::create_initialize_validators_with_commission&#45;&gt;stake::on_new_epoch</title>
<path fill="none" stroke="black" d="M1084.33,-226.82C1081.52,-216.48 1077.88,-203.05 1074.65,-191.18"/>
<polygon fill="black" stroke="black" points="1078.13,-190.63 1072.13,-181.89 1071.37,-192.46 1078.13,-190.63"/>
</g>
<!-- vesting::reset_lockup -->
<g id="node8" class="node">
<title>vesting::reset_lockup</title>
<ellipse fill="none" stroke="black" cx="1364" cy="-245" rx="55.79" ry="18"/>
<text text-anchor="middle" x="1364" y="-241.3" font-family="Times,serif" font-size="14.00">reset_lockup</text>
</g>
<!-- vesting::reset_lockup&#45;&gt;staking_contract::reset_lockup -->
<g id="edge7" class="edge">
<title>vesting::reset_lockup&#45;&gt;staking_contract::reset_lockup</title>
<path fill="none" stroke="black" d="M1364,-226.82C1364,-216.69 1364,-203.6 1364,-191.92"/>
<polygon fill="black" stroke="black" points="1367.5,-191.95 1364,-181.95 1360.5,-191.95 1367.5,-191.95"/>
</g>
<!-- aptos_governance::reconfigure -->
<g id="node9" class="node">
<title>aptos_governance::reconfigure</title>
<ellipse fill="none" stroke="black" cx="67" cy="-328" rx="51.19" ry="18"/>
<text text-anchor="middle" x="67" y="-324.3" font-family="Times,serif" font-size="14.00">reconfigure</text>
</g>
<!-- aptos_governance::reconfigure&#45;&gt;reconfiguration::reconfigure -->
<g id="edge8" class="edge">
<title>aptos_governance::reconfigure&#45;&gt;reconfiguration::reconfigure</title>
<path fill="none" stroke="black" d="M97.6,-313.2C107.74,-309.08 119.2,-304.89 130,-302 241.01,-272.27 374.66,-257.25 450.84,-250.56"/>
<polygon fill="black" stroke="black" points="450.94,-254.07 460.6,-249.73 450.34,-247.09 450.94,-254.07"/>
</g>
<!-- block::block_prologue -->
<g id="node10" class="node">
<title>block::block_prologue</title>
<ellipse fill="none" stroke="black" cx="208" cy="-328" rx="65.79" ry="18"/>
<text text-anchor="middle" x="208" y="-324.3" font-family="Times,serif" font-size="14.00">block_prologue</text>
</g>
<!-- block::block_prologue&#45;&gt;reconfiguration::reconfigure -->
<g id="edge9" class="edge">
<title>block::block_prologue&#45;&gt;reconfiguration::reconfigure</title>
<path fill="none" stroke="black" d="M248.33,-313.5C260.39,-309.62 273.69,-305.49 286,-302 344.61,-285.37 412.55,-268.91 458.51,-258.18"/>
<polygon fill="black" stroke="black" points="459.28,-261.6 468.23,-255.93 457.7,-254.78 459.28,-261.6"/>
</g>
<!-- consensus_config::set -->
<g id="node11" class="node">
<title>consensus_config::set</title>
<ellipse fill="none" stroke="black" cx="368" cy="-328" rx="27" ry="18"/>
<text text-anchor="middle" x="368" y="-324.3" font-family="Times,serif" font-size="14.00">set</text>
</g>
<!-- consensus_config::set&#45;&gt;reconfiguration::reconfigure -->
<g id="edge10" class="edge">
<title>consensus_config::set&#45;&gt;reconfiguration::reconfigure</title>
<path fill="none" stroke="black" d="M386.46,-314.74C392.89,-310.58 400.2,-305.98 407,-302 428.71,-289.28 453.52,-275.99 473.57,-265.55"/>
<polygon fill="black" stroke="black" points="474.97,-268.77 482.24,-261.07 471.75,-262.55 474.97,-268.77"/>
</g>
<!-- gas_schedule::set_gas_schedule -->
<g id="node12" class="node">
<title>gas_schedule::set_gas_schedule</title>
<ellipse fill="none" stroke="black" cx="694" cy="-328" rx="71.49" ry="18"/>
<text text-anchor="middle" x="694" y="-324.3" font-family="Times,serif" font-size="14.00">set_gas_schedule</text>
</g>
<!-- gas_schedule::set_gas_schedule&#45;&gt;reconfiguration::reconfigure -->
<g id="edge11" class="edge">
<title>gas_schedule::set_gas_schedule&#45;&gt;reconfiguration::reconfigure</title>
<path fill="none" stroke="black" d="M659.77,-311.76C629.52,-298.3 585.33,-278.64 553.16,-264.32"/>
<polygon fill="black" stroke="black" points="554.69,-261.17 544.13,-260.3 551.84,-267.56 554.69,-261.17"/>
</g>
<!-- gas_schedule::set_storage_gas_config -->
<g id="node13" class="node">
<title>gas_schedule::set_storage_gas_config</title>
<ellipse fill="none" stroke="black" cx="512" cy="-328" rx="92.88" ry="18"/>
<text text-anchor="middle" x="512" y="-324.3" font-family="Times,serif" font-size="14.00">set_storage_gas_config</text>
</g>
<!-- gas_schedule::set_storage_gas_config&#45;&gt;reconfiguration::reconfigure -->
<g id="edge12" class="edge">
<title>gas_schedule::set_storage_gas_config&#45;&gt;reconfiguration::reconfigure</title>
<path fill="none" stroke="black" d="M512,-309.82C512,-299.69 512,-286.6 512,-274.92"/>
<polygon fill="black" stroke="black" points="515.5,-274.95 512,-264.95 508.5,-274.95 515.5,-274.95"/>
</g>
<!-- version::set_version -->
<g id="node14" class="node">
<title>version::set_version</title>
<ellipse fill="none" stroke="black" cx="840" cy="-328" rx="50.89" ry="18"/>
<text text-anchor="middle" x="840" y="-324.3" font-family="Times,serif" font-size="14.00">set_version</text>
</g>
<!-- version::set_version&#45;&gt;reconfiguration::reconfigure -->
<g id="edge13" class="edge">
<title>version::set_version&#45;&gt;reconfiguration::reconfigure</title>
<path fill="none" stroke="black" d="M808.64,-313.35C798.66,-309.32 787.48,-305.16 777,-302 706.6,-280.76 623.33,-264.57 569.18,-255.19"/>
<polygon fill="black" stroke="black" points="570.02,-251.79 559.57,-253.55 568.84,-258.68 570.02,-251.79"/>
</g>
<!-- genesis::create_initialize_validators -->
<g id="node15" class="node">
<title>genesis::create_initialize_validators</title>
<ellipse fill="none" stroke="black" cx="1089" cy="-328" rx="105.88" ry="18"/>
<text text-anchor="middle" x="1089" y="-324.3" font-family="Times,serif" font-size="14.00">create_initialize_validators</text>
</g>
<!-- genesis::create_initialize_validators&#45;&gt;genesis::create_initialize_validators_with_commission -->
<g id="edge14" class="edge">
<title>genesis::create_initialize_validators&#45;&gt;genesis::create_initialize_validators_with_commission</title>
<path fill="none" stroke="black" d="M1089,-309.82C1089,-299.69 1089,-286.6 1089,-274.92"/>
<polygon fill="black" stroke="black" points="1092.5,-274.95 1089,-264.95 1085.5,-274.95 1092.5,-274.95"/>
</g>
<!-- genesis::initialize_for_verification -->
<g id="node16" class="node">
<title>genesis::initialize_for_verification</title>
<ellipse fill="none" stroke="black" cx="1089" cy="-403" rx="100.98" ry="18"/>
<text text-anchor="middle" x="1089" y="-399.3" font-family="Times,serif" font-size="14.00">initialize_for_verification</text>
</g>
<!-- genesis::initialize_for_verification&#45;&gt;genesis::create_initialize_validators -->
<g id="edge15" class="edge">
<title>genesis::initialize_for_verification&#45;&gt;genesis::create_initialize_validators</title>
<path fill="none" stroke="black" d="M1089,-384.7C1089,-376.67 1089,-366.9 1089,-357.8"/>
<polygon fill="black" stroke="black" points="1092.5,-357.94 1089,-347.94 1085.5,-357.94 1092.5,-357.94"/>
</g>
</g>
</svg>
