<?xml version="1.0" encoding="UTF-8" standalone="no"?>
<!DOCTYPE svg PUBLIC "-//W3C//DTD SVG 1.1//EN"
 "http://www.w3.org/Graphics/SVG/1.1/DTD/svg11.dtd">
<!-- Generated by graphviz version 7.0.0 (20221023.0053)
 -->
<!-- Title: G Pages: 1 -->
<svg width="1229pt" height="550pt"
 viewBox="0.00 0.00 1228.97 550.00" xmlns="http://www.w3.org/2000/svg" xmlns:xlink="http://www.w3.org/1999/xlink">
<g id="graph0" class="graph" transform="scale(1 1) rotate(0) translate(4 546)">
<title>G</title>
<polygon fill="white" stroke="none" points="-4,4 -4,-546 1224.97,-546 1224.97,4 -4,4"/>
<g id="clust1" class="cluster">
<title>cluster_event</title>
<polygon fill="none" stroke="black" points="112,-340 112,-498 298,-498 298,-340 112,-340"/>
<text text-anchor="middle" x="205" y="-482.8" font-family="Times,serif" font-size="14.00">event</text>
</g>
<g id="clust2" class="cluster">
<title>cluster_coin</title>
<polygon fill="none" stroke="black" points="488,-257 488,-415 834,-415 834,-257 488,-257"/>
<text text-anchor="middle" x="661" y="-399.8" font-family="Times,serif" font-size="14.00">coin</text>
</g>
<g id="clust3" class="cluster">
<title>cluster_timestamp</title>
<polygon fill="none" stroke="black" points="306,-340 306,-498 480,-498 480,-340 306,-340"/>
<text text-anchor="middle" x="393" y="-482.8" font-family="Times,serif" font-size="14.00">timestamp</text>
</g>
<g id="clust4" class="cluster">
<title>cluster_staking_config</title>
<polygon fill="none" stroke="black" points="557,-423 557,-498 709,-498 709,-423 557,-423"/>
<text text-anchor="middle" x="633" y="-482.8" font-family="Times,serif" font-size="14.00">staking_config</text>
</g>
<g id="clust5" class="cluster">
<title>cluster_bcs</title>
<polygon fill="none" stroke="black" points="8,-340 8,-415 104,-415 104,-340 8,-340"/>
<text text-anchor="middle" x="56" y="-399.8" font-family="Times,serif" font-size="14.00">bcs</text>
</g>
<g id="clust6" class="cluster">
<title>cluster_option</title>
<polygon fill="none" stroke="black" points="1082,-91 1082,-249 1208,-249 1208,-91 1082,-91"/>
<text text-anchor="middle" x="1145" y="-233.8" font-family="Times,serif" font-size="14.00">option</text>
</g>
<g id="clust8" class="cluster">
<title>cluster_vector</title>
<polygon fill="none" stroke="black" points="1093,-8 1093,-83 1197,-83 1197,-8 1093,-8"/>
<text text-anchor="middle" x="1145" y="-67.8" font-family="Times,serif" font-size="14.00">vector</text>
</g>
<g id="clust9" class="cluster">
<title>cluster_aggregator</title>
<polygon fill="none" stroke="black" points="1000,-174 1000,-249 1074,-249 1074,-174 1000,-174"/>
<text text-anchor="middle" x="1037" y="-233.8" font-family="Times,serif" font-size="14.00">aggregator</text>
</g>
<g id="clust10" class="cluster">
<title>cluster_type_info</title>
<polygon fill="none" stroke="black" points="548,-174 548,-249 796,-249 796,-174 548,-174"/>
<text text-anchor="middle" x="672" y="-233.8" font-family="Times,serif" font-size="14.00">type_info</text>
</g>
<g id="clust11" class="cluster">
<title>cluster_error</title>
<polygon fill="none" stroke="black" points="836,-8 836,-166 968,-166 968,-8 836,-8"/>
<text text-anchor="middle" x="902" y="-150.8" font-family="Times,serif" font-size="14.00">error</text>
</g>
<g id="clust7" class="cluster">
<title>cluster_optional_aggregator</title>
<polygon fill="none" stroke="black" points="842,-174 842,-332 967,-332 967,-174 842,-174"/>
<text text-anchor="middle" x="904.5" y="-316.8" font-family="Times,serif" font-size="14.00">optional_aggregator</text>
</g>
<!-- update_stake_pool -->
<g id="node1" class="node">
<title>update_stake_pool</title>
<ellipse fill="none" stroke="black" cx="518" cy="-524" rx="76.89" ry="18"/>
<text text-anchor="middle" x="518" y="-520.3" font-family="Times,serif" font-size="14.00">update_stake_pool</text>
</g>
<!-- event::emit_event -->
<g id="node2" class="node">
<title>event::emit_event</title>
<ellipse fill="none" stroke="black" cx="205" cy="-449" rx="50.09" ry="18"/>
<text text-anchor="middle" x="205" y="-445.3" font-family="Times,serif" font-size="14.00">emit_event</text>
</g>
<!-- update_stake_pool&#45;&gt;event::emit_event -->
<g id="edge1" class="edge">
<title>update_stake_pool&#45;&gt;event::emit_event</title>
<path fill="none" stroke="black" d="M442,-520.58C400.02,-517.67 347.34,-511.4 302,-498 280.31,-491.59 257.57,-480.59 239.57,-470.74"/>
<polygon fill="black" stroke="black" points="241.31,-467.71 230.87,-465.86 237.88,-473.81 241.31,-467.71"/>
</g>
<!-- coin::extract_all -->
<g id="node3" class="node">
<title>coin::extract_all</title>
<ellipse fill="none" stroke="black" cx="544" cy="-366" rx="48.19" ry="18"/>
<text text-anchor="middle" x="544" y="-362.3" font-family="Times,serif" font-size="14.00">extract_all</text>
</g>
<!-- update_stake_pool&#45;&gt;coin::extract_all -->
<g id="edge2" class="edge">
<title>update_stake_pool&#45;&gt;coin::extract_all</title>
<path fill="none" stroke="black" d="M517.27,-505.81C516.77,-485.73 517.07,-451.6 523,-423 524.96,-413.56 528.25,-403.61 531.66,-394.75"/>
<polygon fill="black" stroke="black" points="534.84,-396.22 535.38,-385.64 528.36,-393.58 534.84,-396.22"/>
</g>
<!-- coin::merge -->
<g id="node4" class="node">
<title>coin::merge</title>
<ellipse fill="none" stroke="black" cx="643" cy="-366" rx="33.29" ry="18"/>
<text text-anchor="middle" x="643" y="-362.3" font-family="Times,serif" font-size="14.00">merge</text>
</g>
<!-- update_stake_pool&#45;&gt;coin::merge -->
<g id="edge3" class="edge">
<title>update_stake_pool&#45;&gt;coin::merge</title>
<path fill="none" stroke="black" d="M521.77,-505.89C527.77,-480.28 540.12,-433.84 553,-423 569.55,-409.07 582.11,-425.53 601,-415 610.8,-409.54 619.43,-400.88 626.27,-392.41"/>
<polygon fill="black" stroke="black" points="628.87,-394.77 632.06,-384.66 623.27,-390.58 628.87,-394.77"/>
</g>
<!-- timestamp::now_seconds -->
<g id="node5" class="node">
<title>timestamp::now_seconds</title>
<ellipse fill="none" stroke="black" cx="403" cy="-449" rx="57.69" ry="18"/>
<text text-anchor="middle" x="403" y="-445.3" font-family="Times,serif" font-size="14.00">now_seconds</text>
</g>
<!-- update_stake_pool&#45;&gt;timestamp::now_seconds -->
<g id="edge4" class="edge">
<title>update_stake_pool&#45;&gt;timestamp::now_seconds</title>
<path fill="none" stroke="black" d="M492.19,-506.62C475.88,-496.26 454.61,-482.76 436.94,-471.54"/>
<polygon fill="black" stroke="black" points="439.14,-468.79 428.82,-466.39 435.39,-474.7 439.14,-468.79"/>
</g>
<!-- staking_config::get_reward_rate -->
<g id="node6" class="node">
<title>staking_config::get_reward_rate</title>
<ellipse fill="none" stroke="black" cx="633" cy="-449" rx="67.69" ry="18"/>
<text text-anchor="middle" x="633" y="-445.3" font-family="Times,serif" font-size="14.00">get_reward_rate</text>
</g>
<!-- update_stake_pool&#45;&gt;staking_config::get_reward_rate -->
<g id="edge5" class="edge">
<title>update_stake_pool&#45;&gt;staking_config::get_reward_rate</title>
<path fill="none" stroke="black" d="M543.81,-506.62C559.9,-496.4 580.81,-483.13 598.34,-472"/>
<polygon fill="black" stroke="black" points="599.83,-475.2 606.4,-466.89 596.08,-469.29 599.83,-475.2"/>
</g>
<!-- distribute_rewards -->
<g id="node7" class="node">
<title>distribute_rewards</title>
<ellipse fill="none" stroke="black" cx="795" cy="-449" rx="76.09" ry="18"/>
<text text-anchor="middle" x="795" y="-445.3" font-family="Times,serif" font-size="14.00">distribute_rewards</text>
</g>
<!-- update_stake_pool&#45;&gt;distribute_rewards -->
<g id="edge6" class="edge">
<title>update_stake_pool&#45;&gt;distribute_rewards</title>
<path fill="none" stroke="black" d="M593.67,-520.37C630.47,-517.32 674.88,-511 713,-498 730.51,-492.03 748.41,-482.08 763,-472.79"/>
<polygon fill="black" stroke="black" points="764.84,-475.77 771.26,-467.34 760.99,-469.92 764.84,-475.77"/>
</g>
<!-- bcs::to_bytes -->
<g id="node8" class="node">
<title>bcs::to_bytes</title>
<ellipse fill="none" stroke="black" cx="56" cy="-366" rx="40.09" ry="18"/>
<text text-anchor="middle" x="56" y="-362.3" font-family="Times,serif" font-size="14.00">to_bytes</text>
</g>
<!-- event::emit_event&#45;&gt;bcs::to_bytes -->
<g id="edge7" class="edge">
<title>event::emit_event&#45;&gt;bcs::to_bytes</title>
<path fill="none" stroke="black" d="M164.18,-438.23C146.2,-432.91 125.27,-425.28 108,-415 97.23,-408.59 86.79,-399.67 78.12,-391.26"/>
<polygon fill="black" stroke="black" points="80.68,-388.86 71.16,-384.2 75.69,-393.78 80.68,-388.86"/>
</g>
<!-- event::write_to_event_store -->
<g id="node9" class="node">
<title>event::write_to_event_store</title>
<ellipse fill="none" stroke="black" cx="205" cy="-366" rx="85.29" ry="18"/>
<text text-anchor="middle" x="205" y="-362.3" font-family="Times,serif" font-size="14.00">write_to_event_store</text>
</g>
<!-- event::emit_event&#45;&gt;event::write_to_event_store -->
<g id="edge8" class="edge">
<title>event::emit_event&#45;&gt;event::write_to_event_store</title>
<path fill="none" stroke="black" d="M205,-430.82C205,-420.69 205,-407.6 205,-395.92"/>
<polygon fill="black" stroke="black" points="208.5,-395.95 205,-385.95 201.5,-395.95 208.5,-395.95"/>
</g>
<!-- timestamp::now_microseconds -->
<g id="node10" class="node">
<title>timestamp::now_microseconds</title>
<ellipse fill="none" stroke="black" cx="393" cy="-366" rx="79.09" ry="18"/>
<text text-anchor="middle" x="393" y="-362.3" font-family="Times,serif" font-size="14.00">now_microseconds</text>
</g>
<!-- timestamp::now_seconds&#45;&gt;timestamp::now_microseconds -->
<g id="edge9" class="edge">
<title>timestamp::now_seconds&#45;&gt;timestamp::now_microseconds</title>
<path fill="none" stroke="black" d="M400.88,-430.82C399.62,-420.58 397.98,-407.33 396.52,-395.55"/>
<polygon fill="black" stroke="black" points="400.04,-395.43 395.34,-385.93 393.09,-396.29 400.04,-395.43"/>
</g>
<!-- distribute_rewards&#45;&gt;coin::merge -->
<g id="edge11" class="edge">
<title>distribute_rewards&#45;&gt;coin::merge</title>
<path fill="none" stroke="black" d="M749.93,-434.1C737.94,-430.45 724.99,-426.54 713,-423 700.59,-419.33 695.93,-421.93 685,-415 675.76,-409.14 667.4,-400.65 660.61,-392.44"/>
<polygon fill="black" stroke="black" points="663.46,-390.41 654.58,-384.63 657.92,-394.69 663.46,-390.41"/>
</g>
<!-- coin::value -->
<g id="node11" class="node">
<title>coin::value</title>
<ellipse fill="none" stroke="black" cx="796" cy="-366" rx="29.8" ry="18"/>
<text text-anchor="middle" x="796" y="-362.3" font-family="Times,serif" font-size="14.00">value</text>
</g>
<!-- distribute_rewards&#45;&gt;coin::value -->
<g id="edge10" class="edge">
<title>distribute_rewards&#45;&gt;coin::value</title>
<path fill="none" stroke="black" d="M795.21,-430.82C795.34,-420.69 795.5,-407.6 795.64,-395.92"/>
<polygon fill="black" stroke="black" points="799.14,-395.99 795.77,-385.95 792.14,-395.9 799.14,-395.99"/>
</g>
<!-- coin::mint -->
<g id="node12" class="node">
<title>coin::mint</title>
<ellipse fill="none" stroke="black" cx="721" cy="-366" rx="27.1" ry="18"/>
<text text-anchor="middle" x="721" y="-362.3" font-family="Times,serif" font-size="14.00">mint</text>
</g>
<!-- distribute_rewards&#45;&gt;coin::mint -->
<g id="edge12" class="edge">
<title>distribute_rewards&#45;&gt;coin::mint</title>
<path fill="none" stroke="black" d="M774.15,-431.29C768.37,-426.29 762.24,-420.63 757,-415 750.41,-407.92 743.87,-399.67 738.21,-392.02"/>
<polygon fill="black" stroke="black" points="741.13,-390.09 732.45,-384.02 735.45,-394.18 741.13,-390.09"/>
</g>
<!-- calculate_rewards_amount -->
<g id="node13" class="node">
<title>calculate_rewards_amount</title>
<ellipse fill="none" stroke="black" cx="949" cy="-366" rx="105.08" ry="18"/>
<text text-anchor="middle" x="949" y="-362.3" font-family="Times,serif" font-size="14.00">calculate_rewards_amount</text>
</g>
<!-- distribute_rewards&#45;&gt;calculate_rewards_amount -->
<g id="edge13" class="edge">
<title>distribute_rewards&#45;&gt;calculate_rewards_amount</title>
<path fill="none" stroke="black" d="M825.06,-432.19C848.55,-419.83 881.47,-402.52 907.48,-388.84"/>
<polygon fill="black" stroke="black" points="908.87,-392.06 916.09,-384.31 905.61,-385.87 908.87,-392.06"/>
</g>
<!-- option::borrow_mut -->
<g id="node14" class="node">
<title>option::borrow_mut</title>
<ellipse fill="none" stroke="black" cx="1145" cy="-200" rx="54.69" ry="18"/>
<text text-anchor="middle" x="1145" y="-196.3" font-family="Times,serif" font-size="14.00">borrow_mut</text>
</g>
<!-- coin::mint&#45;&gt;option::borrow_mut -->
<g id="edge14" class="edge">
<title>coin::mint&#45;&gt;option::borrow_mut</title>
<path fill="none" stroke="black" d="M736.77,-351.15C742.71,-346.75 749.78,-342.41 757,-340 802.14,-324.93 926.16,-347.93 971,-332 1033.21,-309.9 1091.49,-257.02 1122.27,-225.62"/>
<polygon fill="black" stroke="black" points="1124.74,-228.09 1129.16,-218.46 1119.7,-223.24 1124.74,-228.09"/>
</g>
<!-- option::is_some -->
<g id="node15" class="node">
<title>option::is_some</title>
<ellipse fill="none" stroke="black" cx="1145" cy="-117" rx="40.09" ry="18"/>
<text text-anchor="middle" x="1145" y="-113.3" font-family="Times,serif" font-size="14.00">is_some</text>
</g>
<!-- coin::mint&#45;&gt;option::is_some -->
<g id="edge15" class="edge">
<title>coin::mint&#45;&gt;option::is_some</title>
<path fill="none" stroke="black" d="M736.76,-351.11C742.7,-346.71 749.77,-342.38 757,-340 817.4,-320.15 981.33,-347.47 1043,-332 1123.01,-311.93 1165.63,-319.17 1209,-249 1226.52,-220.64 1222.77,-204.35 1209,-174 1202.49,-159.64 1190.27,-147.52 1178.24,-138.27"/>
<polygon fill="black" stroke="black" points="1180.58,-135.63 1170.41,-132.64 1176.49,-141.32 1180.58,-135.63"/>
</g>
<!-- optional_aggregator::add -->
<g id="node16" class="node">
<title>optional_aggregator::add</title>
<ellipse fill="none" stroke="black" cx="932" cy="-283" rx="27" ry="18"/>
<text text-anchor="middle" x="932" y="-279.3" font-family="Times,serif" font-size="14.00">add</text>
</g>
<!-- coin::mint&#45;&gt;optional_aggregator::add -->
<g id="edge16" class="edge">
<title>coin::mint&#45;&gt;optional_aggregator::add</title>
<path fill="none" stroke="black" d="M737.22,-351.13C743.09,-346.84 750,-342.58 757,-340 790.95,-327.5 803.29,-342.18 838,-332 861.08,-325.23 885.2,-312.79 903.23,-302.27"/>
<polygon fill="black" stroke="black" points="905.01,-305.28 911.79,-297.13 901.41,-299.27 905.01,-305.28"/>
</g>
<!-- coin::coin_address -->
<g id="node17" class="node">
<title>coin::coin_address</title>
<ellipse fill="none" stroke="black" cx="657" cy="-283" rx="56.59" ry="18"/>
<text text-anchor="middle" x="657" y="-279.3" font-family="Times,serif" font-size="14.00">coin_address</text>
</g>
<!-- coin::mint&#45;&gt;coin::coin_address -->
<g id="edge17" class="edge">
<title>coin::mint&#45;&gt;coin::coin_address</title>
<path fill="none" stroke="black" d="M708.96,-349.76C700.02,-338.45 687.61,-322.74 677.16,-309.52"/>
<polygon fill="black" stroke="black" points="680.19,-307.71 671.25,-302.03 674.7,-312.05 680.19,-307.71"/>
</g>
<!-- coin::zero -->
<g id="node18" class="node">
<title>coin::zero</title>
<ellipse fill="none" stroke="black" cx="759" cy="-283" rx="27" ry="18"/>
<text text-anchor="middle" x="759" y="-279.3" font-family="Times,serif" font-size="14.00">zero</text>
</g>
<!-- coin::mint&#45;&gt;coin::zero -->
<g id="edge18" class="edge">
<title>coin::mint&#45;&gt;coin::zero</title>
<path fill="none" stroke="black" d="M728.69,-348.61C733.76,-337.81 740.51,-323.42 746.35,-310.96"/>
<polygon fill="black" stroke="black" points="749.47,-312.56 750.55,-302.02 743.13,-309.58 749.47,-312.56"/>
</g>
<!-- option::borrow_mut&#45;&gt;option::is_some -->
<g id="edge19" class="edge">
<title>option::borrow_mut&#45;&gt;option::is_some</title>
<path fill="none" stroke="black" d="M1145,-181.82C1145,-171.69 1145,-158.6 1145,-146.92"/>
<polygon fill="black" stroke="black" points="1148.5,-146.95 1145,-136.95 1141.5,-146.95 1148.5,-146.95"/>
</g>
<!-- vector::is_empty -->
<g id="node19" class="node">
<title>vector::is_empty</title>
<ellipse fill="none" stroke="black" cx="1145" cy="-34" rx="43.59" ry="18"/>
<text text-anchor="middle" x="1145" y="-30.3" font-family="Times,serif" font-size="14.00">is_empty</text>
</g>
<!-- option::is_some&#45;&gt;vector::is_empty -->
<g id="edge20" class="edge">
<title>option::is_some&#45;&gt;vector::is_empty</title>
<path fill="none" stroke="black" d="M1145,-98.82C1145,-88.69 1145,-75.6 1145,-63.92"/>
<polygon fill="black" stroke="black" points="1148.5,-63.95 1145,-53.95 1141.5,-63.95 1148.5,-63.95"/>
</g>
<!-- optional_aggregator::add&#45;&gt;option::borrow_mut -->
<g id="edge21" class="edge">
<title>optional_aggregator::add&#45;&gt;option::borrow_mut</title>
<path fill="none" stroke="black" d="M957.56,-276.8C996.44,-268.8 1067.09,-253.9 1078,-249 1092.11,-242.66 1106.25,-233.12 1117.88,-224.21"/>
<polygon fill="black" stroke="black" points="1119.78,-227.17 1125.44,-218.21 1115.43,-221.69 1119.78,-227.17"/>
</g>
<!-- optional_aggregator::add&#45;&gt;option::is_some -->
<g id="edge22" class="edge">
<title>optional_aggregator::add&#45;&gt;option::is_some</title>
<path fill="none" stroke="black" d="M947.36,-267.8C952.76,-262.28 958.58,-255.69 963,-249 983.09,-218.63 969.55,-199.03 996,-174 1023.56,-147.92 1064.42,-133.7 1096.39,-126.13"/>
<polygon fill="black" stroke="black" points="1096.8,-129.62 1105.81,-124.05 1095.29,-122.79 1096.8,-129.62"/>
</g>
<!-- aggregator::add -->
<g id="node20" class="node">
<title>aggregator::add</title>
<ellipse fill="none" stroke="black" cx="1037" cy="-200" rx="27" ry="18"/>
<text text-anchor="middle" x="1037" y="-196.3" font-family="Times,serif" font-size="14.00">add</text>
</g>
<!-- optional_aggregator::add&#45;&gt;aggregator::add -->
<g id="edge23" class="edge">
<title>optional_aggregator::add&#45;&gt;aggregator::add</title>
<path fill="none" stroke="black" d="M954.9,-272.82C967.71,-267.06 983.56,-258.86 996,-249 1004.49,-242.28 1012.53,-233.59 1019.21,-225.46"/>
<polygon fill="black" stroke="black" points="1021.77,-227.87 1025.19,-217.84 1016.26,-223.55 1021.77,-227.87"/>
</g>
<!-- optional_aggregator::add_integer -->
<g id="node21" class="node">
<title>optional_aggregator::add_integer</title>
<ellipse fill="none" stroke="black" cx="902" cy="-200" rx="51.99" ry="18"/>
<text text-anchor="middle" x="902" y="-196.3" font-family="Times,serif" font-size="14.00">add_integer</text>
</g>
<!-- optional_aggregator::add&#45;&gt;optional_aggregator::add_integer -->
<g id="edge24" class="edge">
<title>optional_aggregator::add&#45;&gt;optional_aggregator::add_integer</title>
<path fill="none" stroke="black" d="M925.78,-265.22C921.89,-254.72 916.79,-240.93 912.3,-228.82"/>
<polygon fill="black" stroke="black" points="915.7,-227.9 908.94,-219.74 909.13,-230.33 915.7,-227.9"/>
</g>
<!-- type_info::account_address -->
<g id="node22" class="node">
<title>type_info::account_address</title>
<ellipse fill="none" stroke="black" cx="719" cy="-200" rx="68.79" ry="18"/>
<text text-anchor="middle" x="719" y="-196.3" font-family="Times,serif" font-size="14.00">account_address</text>
</g>
<!-- coin::coin_address&#45;&gt;type_info::account_address -->
<g id="edge25" class="edge">
<title>coin::coin_address&#45;&gt;type_info::account_address</title>
<path fill="none" stroke="black" d="M669.85,-265.22C678.27,-254.21 689.45,-239.6 699.02,-227.1"/>
<polygon fill="black" stroke="black" points="701.74,-229.31 705.04,-219.24 696.18,-225.06 701.74,-229.31"/>
</g>
<!-- type_info::type_of -->
<g id="node23" class="node">
<title>type_info::type_of</title>
<ellipse fill="none" stroke="black" cx="594" cy="-200" rx="37.89" ry="18"/>
<text text-anchor="middle" x="594" y="-196.3" font-family="Times,serif" font-size="14.00">type_of</text>
</g>
<!-- coin::coin_address&#45;&gt;type_info::type_of -->
<g id="edge26" class="edge">
<title>coin::coin_address&#45;&gt;type_info::type_of</title>
<path fill="none" stroke="black" d="M643.95,-265.22C635.13,-253.88 623.34,-238.72 613.42,-225.97"/>
<polygon fill="black" stroke="black" points="616.44,-224.15 607.54,-218.4 610.91,-228.45 616.44,-224.15"/>
</g>
<!-- error::out_of_range -->
<g id="node24" class="node">
<title>error::out_of_range</title>
<ellipse fill="none" stroke="black" cx="902" cy="-117" rx="57.69" ry="18"/>
<text text-anchor="middle" x="902" y="-113.3" font-family="Times,serif" font-size="14.00">out_of_range</text>
</g>
<!-- optional_aggregator::add_integer&#45;&gt;error::out_of_range -->
<g id="edge27" class="edge">
<title>optional_aggregator::add_integer&#45;&gt;error::out_of_range</title>
<path fill="none" stroke="black" d="M902,-181.82C902,-171.69 902,-158.6 902,-146.92"/>
<polygon fill="black" stroke="black" points="905.5,-146.95 902,-136.95 898.5,-146.95 905.5,-146.95"/>
</g>
<!-- error::canonical -->
<g id="node25" class="node">
<title>error::canonical</title>
<ellipse fill="none" stroke="black" cx="902" cy="-34" rx="44.39" ry="18"/>
<text text-anchor="middle" x="902" y="-30.3" font-family="Times,serif" font-size="14.00">canonical</text>
</g>
<!-- error::out_of_range&#45;&gt;error::canonical -->
<g id="edge28" class="edge">
<title>error::out_of_range&#45;&gt;error::canonical</title>
<path fill="none" stroke="black" d="M902,-98.82C902,-88.69 902,-75.6 902,-63.92"/>
<polygon fill="black" stroke="black" points="905.5,-63.95 902,-53.95 898.5,-63.95 905.5,-63.95"/>
</g>
</g>
</svg>
