<?xml version="1.0" encoding="UTF-8" standalone="no"?>
<!DOCTYPE svg PUBLIC "-//W3C//DTD SVG 1.1//EN"
 "http://www.w3.org/Graphics/SVG/1.1/DTD/svg11.dtd">
<!-- Generated by graphviz version 7.0.0 (20221023.0053)
 -->
<!-- Title: G Pages: 1 -->
<svg width="484pt" height="443pt"
 viewBox="0.00 0.00 484.00 443.00" xmlns="http://www.w3.org/2000/svg" xmlns:xlink="http://www.w3.org/1999/xlink">
<g id="graph0" class="graph" transform="scale(1 1) rotate(0) translate(4 439)">
<title>G</title>
<polygon fill="white" stroke="none" points="-4,4 -4,-439 480,-439 480,4 -4,4"/>
<g id="clust1" class="cluster">
<title>cluster_genesis</title>
<polygon fill="none" stroke="black" points="8,-64 8,-427 468,-427 468,-64 8,-64"/>
<text text-anchor="middle" x="238" y="-411.8" font-family="Times,serif" font-size="14.00">genesis</text>
</g>
<!-- rotate_consensus_key -->
<g id="node1" class="node">
<title>rotate_consensus_key</title>
<ellipse fill="none" stroke="black" cx="234" cy="-18" rx="87.99" ry="18"/>
<text text-anchor="middle" x="234" y="-14.3" font-family="Times,serif" font-size="14.00">rotate_consensus_key</text>
</g>
<!-- genesis::initialize_validator -->
<g id="node2" class="node">
<title>genesis::initialize_validator</title>
<ellipse fill="none" stroke="black" cx="234" cy="-90" rx="77.19" ry="18"/>
<text text-anchor="middle" x="234" y="-86.3" font-family="Times,serif" font-size="14.00">initialize_validator</text>
</g>
<!-- genesis::initialize_validator&#45;&gt;rotate_consensus_key -->
<g id="edge1" class="edge">
<title>genesis::initialize_validator&#45;&gt;rotate_consensus_key</title>
<path fill="none" stroke="black" d="M234,-71.7C234,-64.41 234,-55.73 234,-47.54"/>
<polygon fill="black" stroke="black" points="237.5,-47.62 234,-37.62 230.5,-47.62 237.5,-47.62"/>
</g>
<!-- genesis::create_employee_validators -->
<g id="node3" class="node">
<title>genesis::create_employee_validators</title>
<ellipse fill="none" stroke="black" cx="350" cy="-162" rx="109.68" ry="18"/>
<text text-anchor="middle" x="350" y="-158.3" font-family="Times,serif" font-size="14.00">create_employee_validators</text>
</g>
<!-- genesis::create_employee_validators&#45;&gt;genesis::initialize_validator -->
<g id="edge2" class="edge">
<title>genesis::create_employee_validators&#45;&gt;genesis::initialize_validator</title>
<path fill="none" stroke="black" d="M322.22,-144.23C306.64,-134.83 287.03,-123 270.26,-112.88"/>
<polygon fill="black" stroke="black" points="272.43,-110.1 262.06,-107.93 268.81,-116.09 272.43,-110.1"/>
</g>
<!-- genesis::create_initialize_validator -->
<g id="node4" class="node">
<title>genesis::create_initialize_validator</title>
<ellipse fill="none" stroke="black" cx="119" cy="-162" rx="102.88" ry="18"/>
<text text-anchor="middle" x="119" y="-158.3" font-family="Times,serif" font-size="14.00">create_initialize_validator</text>
</g>
<!-- genesis::create_initialize_validator&#45;&gt;genesis::initialize_validator -->
<g id="edge3" class="edge">
<title>genesis::create_initialize_validator&#45;&gt;genesis::initialize_validator</title>
<path fill="none" stroke="black" d="M146.55,-144.23C161.99,-134.83 181.43,-123 198.06,-112.88"/>
<polygon fill="black" stroke="black" points="199.46,-116.12 206.18,-107.93 195.82,-110.14 199.46,-116.12"/>
</g>
<!-- genesis::create_initialize_validators_with_commission -->
<g id="node5" class="node">
<title>genesis::create_initialize_validators_with_commission</title>
<ellipse fill="none" stroke="black" cx="190" cy="-234" rx="173.57" ry="18"/>
<text text-anchor="middle" x="190" y="-230.3" font-family="Times,serif" font-size="14.00">create_initialize_validators_with_commission</text>
</g>
<!-- genesis::create_initialize_validators_with_commission&#45;&gt;genesis::create_initialize_validator -->
<g id="edge4" class="edge">
<title>genesis::create_initialize_validators_with_commission&#45;&gt;genesis::create_initialize_validator</title>
<path fill="none" stroke="black" d="M172.45,-215.7C164.02,-207.39 153.77,-197.28 144.5,-188.14"/>
<polygon fill="black" stroke="black" points="147,-185.7 137.43,-181.17 142.09,-190.68 147,-185.7"/>
</g>
<!-- genesis::create_initialize_validators -->
<g id="node6" class="node">
<title>genesis::create_initialize_validators</title>
<ellipse fill="none" stroke="black" cx="190" cy="-306" rx="105.88" ry="18"/>
<text text-anchor="middle" x="190" y="-302.3" font-family="Times,serif" font-size="14.00">create_initialize_validators</text>
</g>
<!-- genesis::create_initialize_validators&#45;&gt;genesis::create_initialize_validators_with_commission -->
<g id="edge5" class="edge">
<title>genesis::create_initialize_validators&#45;&gt;genesis::create_initialize_validators_with_commission</title>
<path fill="none" stroke="black" d="M190,-287.7C190,-280.41 190,-271.73 190,-263.54"/>
<polygon fill="black" stroke="black" points="193.5,-263.62 190,-253.62 186.5,-263.62 193.5,-263.62"/>
</g>
<!-- genesis::initialize_for_verification -->
<g id="node7" class="node">
<title>genesis::initialize_for_verification</title>
<ellipse fill="none" stroke="black" cx="190" cy="-378" rx="100.98" ry="18"/>
<text text-anchor="middle" x="190" y="-374.3" font-family="Times,serif" font-size="14.00">initialize_for_verification</text>
</g>
<!-- genesis::initialize_for_verification&#45;&gt;genesis::create_initialize_validators -->
<g id="edge6" class="edge">
<title>genesis::initialize_for_verification&#45;&gt;genesis::create_initialize_validators</title>
<path fill="none" stroke="black" d="M190,-359.7C190,-352.41 190,-343.73 190,-335.54"/>
<polygon fill="black" stroke="black" points="193.5,-335.62 190,-325.62 186.5,-335.62 193.5,-335.62"/>
</g>
</g>
</svg>
