<?xml version="1.0" encoding="UTF-8" standalone="no"?>
<!DOCTYPE svg PUBLIC "-//W3C//DTD SVG 1.1//EN"
 "http://www.w3.org/Graphics/SVG/1.1/DTD/svg11.dtd">
<!-- Generated by graphviz version 7.0.0 (20221023.0053)
 -->
<!-- Title: G Pages: 1 -->
<svg width="1576pt" height="625pt"
 viewBox="0.00 0.00 1576.00 625.00" xmlns="http://www.w3.org/2000/svg" xmlns:xlink="http://www.w3.org/1999/xlink">
<g id="graph0" class="graph" transform="scale(1 1) rotate(0) translate(4 621)">
<title>G</title>
<polygon fill="white" stroke="none" points="-4,4 -4,-621 1572,-621 1572,4 -4,4"/>
<g id="clust1" class="cluster">
<title>cluster_signer</title>
<polygon fill="none" stroke="black" points="8,-340 8,-498 158,-498 158,-340 8,-340"/>
<text text-anchor="middle" x="83" y="-482.8" font-family="Times,serif" font-size="14.00">signer</text>
</g>
<g id="clust2" class="cluster">
<title>cluster_staking_contract</title>
<polygon fill="none" stroke="black" points="608,-423 608,-573 941,-573 941,-423 608,-423"/>
<text text-anchor="middle" x="774.5" y="-557.8" font-family="Times,serif" font-size="14.00">staking_contract</text>
</g>
<g id="clust3" class="cluster">
<title>cluster_simple_map</title>
<polygon fill="none" stroke="black" points="890,-257 890,-415 1148,-415 1148,-257 890,-257"/>
<text text-anchor="middle" x="1019" y="-399.8" font-family="Times,serif" font-size="14.00">simple_map</text>
</g>
<g id="clust4" class="cluster">
<title>cluster_event</title>
<polygon fill="none" stroke="black" points="1231,-340 1231,-498 1417,-498 1417,-340 1231,-340"/>
<text text-anchor="middle" x="1324" y="-482.8" font-family="Times,serif" font-size="14.00">event</text>
</g>
<g id="clust5" class="cluster">
<title>cluster_stake</title>
<polygon fill="none" stroke="black" points="166,-257 166,-498 600,-498 600,-257 166,-257"/>
<text text-anchor="middle" x="383" y="-482.8" font-family="Times,serif" font-size="14.00">stake</text>
</g>
<g id="clust6" class="cluster">
<title>cluster_option</title>
<polygon fill="none" stroke="black" points="960,-91 960,-249 1196,-249 1196,-91 960,-91"/>
<text text-anchor="middle" x="1078" y="-233.8" font-family="Times,serif" font-size="14.00">option</text>
</g>
<g id="clust7" class="cluster">
<title>cluster_bcs</title>
<polygon fill="none" stroke="black" points="1464,-91 1464,-166 1560,-166 1560,-91 1464,-91"/>
<text text-anchor="middle" x="1512" y="-150.8" font-family="Times,serif" font-size="14.00">bcs</text>
</g>
<g id="clust8" class="cluster">
<title>cluster_error</title>
<polygon fill="none" stroke="black" points="608,-174 608,-332 882,-332 882,-174 608,-174"/>
<text text-anchor="middle" x="745" y="-316.8" font-family="Times,serif" font-size="14.00">error</text>
</g>
<g id="clust9" class="cluster">
<title>cluster_vector</title>
<polygon fill="none" stroke="black" points="949,-8 949,-83 1156,-83 1156,-8 949,-8"/>
<text text-anchor="middle" x="1052.5" y="-67.8" font-family="Times,serif" font-size="14.00">vector</text>
</g>
<g id="clust10" class="cluster">
<title>cluster_comparator</title>
<polygon fill="none" stroke="black" points="1204,-91 1204,-249 1456,-249 1456,-91 1204,-91"/>
<text text-anchor="middle" x="1330" y="-233.8" font-family="Times,serif" font-size="14.00">comparator</text>
</g>
<!-- set_staking_contract_voter -->
<g id="node1" class="node">
<title>set_staking_contract_voter</title>
<ellipse fill="none" stroke="black" cx="673" cy="-599" rx="105.08" ry="18"/>
<text text-anchor="middle" x="673" y="-595.3" font-family="Times,serif" font-size="14.00">set_staking_contract_voter</text>
</g>
<!-- signer::address_of -->
<g id="node2" class="node">
<title>signer::address_of</title>
<ellipse fill="none" stroke="black" cx="101" cy="-449" rx="48.99" ry="18"/>
<text text-anchor="middle" x="101" y="-445.3" font-family="Times,serif" font-size="14.00">address_of</text>
</g>
<!-- set_staking_contract_voter&#45;&gt;signer::address_of -->
<g id="edge1" class="edge">
<title>set_staking_contract_voter&#45;&gt;signer::address_of</title>
<path fill="none" stroke="black" d="M574.66,-592.48C468.57,-583.46 296.76,-559.8 162,-498 148.93,-492 136.15,-482.66 125.7,-473.81"/>
<polygon fill="black" stroke="black" points="128.1,-471.26 118.29,-467.26 123.46,-476.5 128.1,-471.26"/>
</g>
<!-- staking_contract::staking_contract_exists -->
<g id="node3" class="node">
<title>staking_contract::staking_contract_exists</title>
<ellipse fill="none" stroke="black" cx="840" cy="-524" rx="92.88" ry="18"/>
<text text-anchor="middle" x="840" y="-520.3" font-family="Times,serif" font-size="14.00">staking_contract_exists</text>
</g>
<!-- set_staking_contract_voter&#45;&gt;staking_contract::staking_contract_exists -->
<g id="edge2" class="edge">
<title>set_staking_contract_voter&#45;&gt;staking_contract::staking_contract_exists</title>
<path fill="none" stroke="black" d="M716.16,-582.23C723.81,-579.27 731.67,-576.12 739,-573 758.41,-564.73 779.54,-554.83 797.43,-546.18"/>
<polygon fill="black" stroke="black" points="798.74,-549.43 806.2,-541.91 795.67,-543.14 798.74,-549.43"/>
</g>
<!-- staking_contract::update_voter -->
<g id="node4" class="node">
<title>staking_contract::update_voter</title>
<ellipse fill="none" stroke="black" cx="673" cy="-524" rx="56.59" ry="18"/>
<text text-anchor="middle" x="673" y="-520.3" font-family="Times,serif" font-size="14.00">update_voter</text>
</g>
<!-- set_staking_contract_voter&#45;&gt;staking_contract::update_voter -->
<g id="edge3" class="edge">
<title>set_staking_contract_voter&#45;&gt;staking_contract::update_voter</title>
<path fill="none" stroke="black" d="M673,-580.7C673,-572.67 673,-562.9 673,-553.8"/>
<polygon fill="black" stroke="black" points="676.5,-553.94 673,-543.94 669.5,-553.94 676.5,-553.94"/>
</g>
<!-- signer::borrow_address -->
<g id="node5" class="node">
<title>signer::borrow_address</title>
<ellipse fill="none" stroke="black" cx="83" cy="-366" rx="66.89" ry="18"/>
<text text-anchor="middle" x="83" y="-362.3" font-family="Times,serif" font-size="14.00">borrow_address</text>
</g>
<!-- signer::address_of&#45;&gt;signer::borrow_address -->
<g id="edge4" class="edge">
<title>signer::address_of&#45;&gt;signer::borrow_address</title>
<path fill="none" stroke="black" d="M97.18,-430.82C94.91,-420.58 91.96,-407.33 89.34,-395.55"/>
<polygon fill="black" stroke="black" points="92.79,-394.91 87.2,-385.91 85.95,-396.43 92.79,-394.91"/>
</g>
<!-- simple_map::contains_key -->
<g id="node6" class="node">
<title>simple_map::contains_key</title>
<ellipse fill="none" stroke="black" cx="1083" cy="-366" rx="57.39" ry="18"/>
<text text-anchor="middle" x="1083" y="-362.3" font-family="Times,serif" font-size="14.00">contains_key</text>
</g>
<!-- staking_contract::staking_contract_exists&#45;&gt;simple_map::contains_key -->
<g id="edge5" class="edge">
<title>staking_contract::staking_contract_exists&#45;&gt;simple_map::contains_key</title>
<path fill="none" stroke="black" d="M900.96,-509.99C910.95,-506.76 920.98,-502.8 930,-498 982.53,-470.02 1032.84,-421.34 1060.66,-391.85"/>
<polygon fill="black" stroke="black" points="1062.95,-394.53 1067.19,-384.83 1057.82,-389.77 1062.95,-394.53"/>
</g>
<!-- staking_contract::update_voter&#45;&gt;signer::address_of -->
<g id="edge6" class="edge">
<title>staking_contract::update_voter&#45;&gt;signer::address_of</title>
<path fill="none" stroke="black" d="M617.71,-519.78C554.99,-516.18 449.66,-510.29 359,-506 337.12,-504.96 182.55,-505.59 162,-498 147.98,-492.82 134.65,-483.12 124.05,-473.78"/>
<polygon fill="black" stroke="black" points="126.65,-471.42 116.94,-467.17 121.88,-476.54 126.65,-471.42"/>
</g>
<!-- event::emit_event -->
<g id="node7" class="node">
<title>event::emit_event</title>
<ellipse fill="none" stroke="black" cx="1324" cy="-449" rx="50.09" ry="18"/>
<text text-anchor="middle" x="1324" y="-445.3" font-family="Times,serif" font-size="14.00">emit_event</text>
</g>
<!-- staking_contract::update_voter&#45;&gt;event::emit_event -->
<g id="edge7" class="edge">
<title>staking_contract::update_voter&#45;&gt;event::emit_event</title>
<path fill="none" stroke="black" d="M713.29,-511.01C721.4,-509.01 729.92,-507.2 738,-506 829.07,-492.49 853.24,-505.57 945,-498 1059.82,-488.53 1193.32,-469.81 1267.28,-458.76"/>
<polygon fill="black" stroke="black" points="1267.76,-462.22 1277.13,-457.27 1266.72,-455.3 1267.76,-462.22"/>
</g>
<!-- simple_map::borrow_mut -->
<g id="node8" class="node">
<title>simple_map::borrow_mut</title>
<ellipse fill="none" stroke="black" cx="953" cy="-366" rx="54.69" ry="18"/>
<text text-anchor="middle" x="953" y="-362.3" font-family="Times,serif" font-size="14.00">borrow_mut</text>
</g>
<!-- staking_contract::update_voter&#45;&gt;simple_map::borrow_mut -->
<g id="edge8" class="edge">
<title>staking_contract::update_voter&#45;&gt;simple_map::borrow_mut</title>
<path fill="none" stroke="black" d="M713.66,-511.1C721.67,-509.11 730.05,-507.29 738,-506 765.04,-501.63 837.12,-511.41 861,-498 901.79,-475.09 928.71,-425.67 942.37,-394.51"/>
<polygon fill="black" stroke="black" points="945.58,-395.91 946.22,-385.33 939.12,-393.2 945.58,-395.91"/>
</g>
<!-- stake::get_delegated_voter -->
<g id="node9" class="node">
<title>stake::get_delegated_voter</title>
<ellipse fill="none" stroke="black" cx="510" cy="-449" rx="81.79" ry="18"/>
<text text-anchor="middle" x="510" y="-445.3" font-family="Times,serif" font-size="14.00">get_delegated_voter</text>
</g>
<!-- staking_contract::update_voter&#45;&gt;stake::get_delegated_voter -->
<g id="edge9" class="edge">
<title>staking_contract::update_voter&#45;&gt;stake::get_delegated_voter</title>
<path fill="none" stroke="black" d="M635.07,-510.21C624.88,-506.52 613.93,-502.32 604,-498 585.63,-490.02 565.81,-480.1 549.12,-471.36"/>
<polygon fill="black" stroke="black" points="551,-468.39 540.52,-466.8 547.72,-474.57 551,-468.39"/>
</g>
<!-- stake::set_delegated_voter_with_cap -->
<g id="node10" class="node">
<title>stake::set_delegated_voter_with_cap</title>
<ellipse fill="none" stroke="black" cx="292" cy="-449" rx="117.78" ry="18"/>
<text text-anchor="middle" x="292" y="-445.3" font-family="Times,serif" font-size="14.00">set_delegated_voter_with_cap</text>
</g>
<!-- staking_contract::update_voter&#45;&gt;stake::set_delegated_voter_with_cap -->
<g id="edge10" class="edge">
<title>staking_contract::update_voter&#45;&gt;stake::set_delegated_voter_with_cap</title>
<path fill="none" stroke="black" d="M616.57,-521.69C564.63,-519.49 485.77,-513.61 419,-498 391.63,-491.6 362.21,-480.75 338.58,-470.98"/>
<polygon fill="black" stroke="black" points="340.13,-467.84 329.55,-467.18 337.41,-474.29 340.13,-467.84"/>
</g>
<!-- staking_contract::assert_staking_contract_exists -->
<g id="node11" class="node">
<title>staking_contract::assert_staking_contract_exists</title>
<ellipse fill="none" stroke="black" cx="734" cy="-449" rx="117.78" ry="18"/>
<text text-anchor="middle" x="734" y="-445.3" font-family="Times,serif" font-size="14.00">assert_staking_contract_exists</text>
</g>
<!-- staking_contract::update_voter&#45;&gt;staking_contract::assert_staking_contract_exists -->
<g id="edge11" class="edge">
<title>staking_contract::update_voter&#45;&gt;staking_contract::assert_staking_contract_exists</title>
<path fill="none" stroke="black" d="M686.84,-506.44C694.4,-497.39 703.93,-485.99 712.44,-475.81"/>
<polygon fill="black" stroke="black" points="714.88,-478.34 718.61,-468.42 709.51,-473.85 714.88,-478.34"/>
</g>
<!-- option::is_some -->
<g id="node12" class="node">
<title>option::is_some</title>
<ellipse fill="none" stroke="black" cx="1008" cy="-117" rx="40.09" ry="18"/>
<text text-anchor="middle" x="1008" y="-113.3" font-family="Times,serif" font-size="14.00">is_some</text>
</g>
<!-- simple_map::contains_key&#45;&gt;option::is_some -->
<g id="edge12" class="edge">
<title>simple_map::contains_key&#45;&gt;option::is_some</title>
<path fill="none" stroke="black" d="M1056.37,-349.58C1026.24,-330.4 978.77,-294.57 959,-249 945.73,-218.42 947.28,-205.2 959,-174 963.63,-161.69 972.33,-150.31 981.12,-141.07"/>
<polygon fill="black" stroke="black" points="983.36,-143.78 988.04,-134.28 978.45,-138.79 983.36,-143.78"/>
</g>
<!-- simple_map::find -->
<g id="node13" class="node">
<title>simple_map::find</title>
<ellipse fill="none" stroke="black" cx="1098" cy="-283" rx="27" ry="18"/>
<text text-anchor="middle" x="1098" y="-279.3" font-family="Times,serif" font-size="14.00">find</text>
</g>
<!-- simple_map::contains_key&#45;&gt;simple_map::find -->
<g id="edge13" class="edge">
<title>simple_map::contains_key&#45;&gt;simple_map::find</title>
<path fill="none" stroke="black" d="M1086.18,-347.82C1088.09,-337.51 1090.57,-324.14 1092.76,-312.31"/>
<polygon fill="black" stroke="black" points="1096.17,-313.11 1094.55,-302.64 1089.29,-311.84 1096.17,-313.11"/>
</g>
<!-- bcs::to_bytes -->
<g id="node14" class="node">
<title>bcs::to_bytes</title>
<ellipse fill="none" stroke="black" cx="1512" cy="-117" rx="40.09" ry="18"/>
<text text-anchor="middle" x="1512" y="-113.3" font-family="Times,serif" font-size="14.00">to_bytes</text>
</g>
<!-- event::emit_event&#45;&gt;bcs::to_bytes -->
<g id="edge14" class="edge">
<title>event::emit_event&#45;&gt;bcs::to_bytes</title>
<path fill="none" stroke="black" d="M1369.37,-440.98C1386.58,-436.23 1405.12,-428.29 1418,-415 1491.8,-338.87 1507.69,-205.15 1511.09,-146.7"/>
<polygon fill="black" stroke="black" points="1514.58,-147.09 1511.57,-136.93 1507.58,-146.75 1514.58,-147.09"/>
</g>
<!-- event::write_to_event_store -->
<g id="node15" class="node">
<title>event::write_to_event_store</title>
<ellipse fill="none" stroke="black" cx="1324" cy="-366" rx="85.29" ry="18"/>
<text text-anchor="middle" x="1324" y="-362.3" font-family="Times,serif" font-size="14.00">write_to_event_store</text>
</g>
<!-- event::emit_event&#45;&gt;event::write_to_event_store -->
<g id="edge15" class="edge">
<title>event::emit_event&#45;&gt;event::write_to_event_store</title>
<path fill="none" stroke="black" d="M1324,-430.82C1324,-420.69 1324,-407.6 1324,-395.92"/>
<polygon fill="black" stroke="black" points="1327.5,-395.95 1324,-385.95 1320.5,-395.95 1327.5,-395.95"/>
</g>
<!-- simple_map::borrow_mut&#45;&gt;option::is_some -->
<g id="edge17" class="edge">
<title>simple_map::borrow_mut&#45;&gt;option::is_some</title>
<path fill="none" stroke="black" d="M935.93,-348.6C931.89,-343.69 928.14,-338 926,-332 902.39,-265.87 893.21,-236.1 926,-174 935.13,-156.7 952.28,-143.74 968.54,-134.67"/>
<polygon fill="black" stroke="black" points="969.86,-137.92 977.12,-130.21 966.63,-131.71 969.86,-137.92"/>
</g>
<!-- simple_map::borrow_mut&#45;&gt;simple_map::find -->
<g id="edge19" class="edge">
<title>simple_map::borrow_mut&#45;&gt;simple_map::find</title>
<path fill="none" stroke="black" d="M979.93,-349.95C1004.84,-336.04 1041.81,-315.39 1067.73,-300.91"/>
<polygon fill="black" stroke="black" points="1069.41,-303.98 1076.43,-296.05 1065.99,-297.87 1069.41,-303.98"/>
</g>
<!-- option::extract -->
<g id="node16" class="node">
<title>option::extract</title>
<ellipse fill="none" stroke="black" cx="1002" cy="-200" rx="34.39" ry="18"/>
<text text-anchor="middle" x="1002" y="-196.3" font-family="Times,serif" font-size="14.00">extract</text>
</g>
<!-- simple_map::borrow_mut&#45;&gt;option::extract -->
<g id="edge16" class="edge">
<title>simple_map::borrow_mut&#45;&gt;option::extract</title>
<path fill="none" stroke="black" d="M958.15,-347.76C966.63,-319.39 983.59,-262.62 993.75,-228.6"/>
<polygon fill="black" stroke="black" points="996.98,-230.04 996.48,-219.46 990.27,-228.04 996.98,-230.04"/>
</g>
<!-- error::invalid_argument -->
<g id="node17" class="node">
<title>error::invalid_argument</title>
<ellipse fill="none" stroke="black" cx="801" cy="-283" rx="73.39" ry="18"/>
<text text-anchor="middle" x="801" y="-279.3" font-family="Times,serif" font-size="14.00">invalid_argument</text>
</g>
<!-- simple_map::borrow_mut&#45;&gt;error::invalid_argument -->
<g id="edge18" class="edge">
<title>simple_map::borrow_mut&#45;&gt;error::invalid_argument</title>
<path fill="none" stroke="black" d="M922.8,-350.57C911.22,-344.92 897.92,-338.3 886,-332 870.17,-323.64 852.93,-314.01 838.15,-305.58"/>
<polygon fill="black" stroke="black" points="840.08,-302.65 829.66,-300.71 836.6,-308.72 840.08,-302.65"/>
</g>
<!-- stake::assert_stake_pool_exists -->
<g id="node18" class="node">
<title>stake::assert_stake_pool_exists</title>
<ellipse fill="none" stroke="black" cx="495" cy="-366" rx="97.48" ry="18"/>
<text text-anchor="middle" x="495" y="-362.3" font-family="Times,serif" font-size="14.00">assert_stake_pool_exists</text>
</g>
<!-- stake::get_delegated_voter&#45;&gt;stake::assert_stake_pool_exists -->
<g id="edge20" class="edge">
<title>stake::get_delegated_voter&#45;&gt;stake::assert_stake_pool_exists</title>
<path fill="none" stroke="black" d="M506.82,-430.82C504.92,-420.58 502.47,-407.33 500.29,-395.55"/>
<polygon fill="black" stroke="black" points="503.77,-395.12 498.5,-385.92 496.88,-396.39 503.77,-395.12"/>
</g>
<!-- stake::set_delegated_voter_with_cap&#45;&gt;stake::assert_stake_pool_exists -->
<g id="edge21" class="edge">
<title>stake::set_delegated_voter_with_cap&#45;&gt;stake::assert_stake_pool_exists</title>
<path fill="none" stroke="black" d="M332.59,-431.8C364.89,-418.92 410.24,-400.82 444.81,-387.03"/>
<polygon fill="black" stroke="black" points="445.77,-390.41 453.76,-383.45 443.18,-383.91 445.77,-390.41"/>
</g>
<!-- staking_contract::assert_staking_contract_exists&#45;&gt;simple_map::contains_key -->
<g id="edge23" class="edge">
<title>staking_contract::assert_staking_contract_exists&#45;&gt;simple_map::contains_key</title>
<path fill="none" stroke="black" d="M840.87,-441.17C907.18,-435.85 985.55,-427.28 1017,-415 1031.47,-409.35 1045.66,-399.73 1057.15,-390.58"/>
<polygon fill="black" stroke="black" points="1059.13,-393.48 1064.58,-384.39 1054.65,-388.1 1059.13,-393.48"/>
</g>
<!-- error::not_found -->
<g id="node19" class="node">
<title>error::not_found</title>
<ellipse fill="none" stroke="black" cx="663" cy="-283" rx="46.59" ry="18"/>
<text text-anchor="middle" x="663" y="-279.3" font-family="Times,serif" font-size="14.00">not_found</text>
</g>
<!-- staking_contract::assert_staking_contract_exists&#45;&gt;error::not_found -->
<g id="edge22" class="edge">
<title>staking_contract::assert_staking_contract_exists&#45;&gt;error::not_found</title>
<path fill="none" stroke="black" d="M726.54,-430.76C714.2,-402.26 689.46,-345.12 674.76,-311.16"/>
<polygon fill="black" stroke="black" points="678.15,-310.19 670.97,-302.4 671.73,-312.97 678.15,-310.19"/>
</g>
<!-- vector::is_empty -->
<g id="node20" class="node">
<title>vector::is_empty</title>
<ellipse fill="none" stroke="black" cx="1001" cy="-34" rx="43.59" ry="18"/>
<text text-anchor="middle" x="1001" y="-30.3" font-family="Times,serif" font-size="14.00">is_empty</text>
</g>
<!-- option::is_some&#45;&gt;vector::is_empty -->
<g id="edge24" class="edge">
<title>option::is_some&#45;&gt;vector::is_empty</title>
<path fill="none" stroke="black" d="M1006.52,-98.82C1005.63,-88.58 1004.48,-75.33 1003.47,-63.55"/>
<polygon fill="black" stroke="black" points="1006.98,-63.6 1002.64,-53.94 1000.01,-64.2 1006.98,-63.6"/>
</g>
<!-- option::none -->
<g id="node21" class="node">
<title>option::none</title>
<ellipse fill="none" stroke="black" cx="1160" cy="-200" rx="27.9" ry="18"/>
<text text-anchor="middle" x="1160" y="-196.3" font-family="Times,serif" font-size="14.00">none</text>
</g>
<!-- simple_map::find&#45;&gt;option::none -->
<g id="edge25" class="edge">
<title>simple_map::find&#45;&gt;option::none</title>
<path fill="none" stroke="black" d="M1109.95,-266.38C1118.79,-254.84 1130.99,-238.9 1141.14,-225.64"/>
<polygon fill="black" stroke="black" points="1143.86,-227.84 1147.16,-217.77 1138.31,-223.58 1143.86,-227.84"/>
</g>
<!-- option::some -->
<g id="node22" class="node">
<title>option::some</title>
<ellipse fill="none" stroke="black" cx="1084" cy="-200" rx="29.8" ry="18"/>
<text text-anchor="middle" x="1084" y="-196.3" font-family="Times,serif" font-size="14.00">some</text>
</g>
<!-- simple_map::find&#45;&gt;option::some -->
<g id="edge26" class="edge">
<title>simple_map::find&#45;&gt;option::some</title>
<path fill="none" stroke="black" d="M1095.03,-264.82C1093.25,-254.51 1090.94,-241.14 1088.89,-229.31"/>
<polygon fill="black" stroke="black" points="1092.37,-228.9 1087.22,-219.64 1085.48,-230.09 1092.37,-228.9"/>
</g>
<!-- comparator::compare -->
<g id="node23" class="node">
<title>comparator::compare</title>
<ellipse fill="none" stroke="black" cx="1254" cy="-200" rx="41.69" ry="18"/>
<text text-anchor="middle" x="1254" y="-196.3" font-family="Times,serif" font-size="14.00">compare</text>
</g>
<!-- simple_map::find&#45;&gt;comparator::compare -->
<g id="edge27" class="edge">
<title>simple_map::find&#45;&gt;comparator::compare</title>
<path fill="none" stroke="black" d="M1123.52,-276.84C1144.91,-271.81 1175.77,-262.87 1200,-249 1211.22,-242.58 1222.16,-233.55 1231.22,-225.05"/>
<polygon fill="black" stroke="black" points="1233.5,-227.72 1238.21,-218.23 1228.61,-222.71 1233.5,-227.72"/>
</g>
<!-- comparator::is_smaller_than -->
<g id="node24" class="node">
<title>comparator::is_smaller_than</title>
<ellipse fill="none" stroke="black" cx="1381" cy="-200" rx="66.89" ry="18"/>
<text text-anchor="middle" x="1381" y="-196.3" font-family="Times,serif" font-size="14.00">is_smaller_than</text>
</g>
<!-- simple_map::find&#45;&gt;comparator::is_smaller_than -->
<g id="edge28" class="edge">
<title>simple_map::find&#45;&gt;comparator::is_smaller_than</title>
<path fill="none" stroke="black" d="M1125.36,-281.13C1165.84,-279.08 1243.54,-272.18 1305,-249 1321.21,-242.88 1337.66,-233.04 1351.09,-223.86"/>
<polygon fill="black" stroke="black" points="1352.91,-226.86 1359.05,-218.22 1348.87,-221.14 1352.91,-226.86"/>
</g>
<!-- option::extract&#45;&gt;option::is_some -->
<g id="edge29" class="edge">
<title>option::extract&#45;&gt;option::is_some</title>
<path fill="none" stroke="black" d="M1003.27,-181.82C1004.03,-171.58 1005.01,-158.33 1005.89,-146.55"/>
<polygon fill="black" stroke="black" points="1009.35,-147.17 1006.6,-136.94 1002.37,-146.66 1009.35,-147.17"/>
</g>
<!-- error::canonical -->
<g id="node25" class="node">
<title>error::canonical</title>
<ellipse fill="none" stroke="black" cx="732" cy="-200" rx="44.39" ry="18"/>
<text text-anchor="middle" x="732" y="-196.3" font-family="Times,serif" font-size="14.00">canonical</text>
</g>
<!-- error::invalid_argument&#45;&gt;error::canonical -->
<g id="edge30" class="edge">
<title>error::invalid_argument&#45;&gt;error::canonical</title>
<path fill="none" stroke="black" d="M786.7,-265.22C777.11,-253.96 764.3,-238.92 753.49,-226.22"/>
<polygon fill="black" stroke="black" points="756.17,-223.98 747.02,-218.64 750.84,-228.52 756.17,-223.98"/>
</g>
<!-- stake::assert_stake_pool_exists&#45;&gt;error::invalid_argument -->
<g id="edge31" class="edge">
<title>stake::assert_stake_pool_exists&#45;&gt;error::invalid_argument</title>
<path fill="none" stroke="black" d="M586.55,-359.49C627.89,-354.99 676.82,-346.82 719,-332 736.45,-325.87 754.34,-315.9 768.95,-306.63"/>
<polygon fill="black" stroke="black" points="770.77,-309.62 777.22,-301.21 766.94,-303.76 770.77,-309.62"/>
</g>
<!-- stake::stake_pool_exists -->
<g id="node26" class="node">
<title>stake::stake_pool_exists</title>
<ellipse fill="none" stroke="black" cx="495" cy="-283" rx="73.39" ry="18"/>
<text text-anchor="middle" x="495" y="-279.3" font-family="Times,serif" font-size="14.00">stake_pool_exists</text>
</g>
<!-- stake::assert_stake_pool_exists&#45;&gt;stake::stake_pool_exists -->
<g id="edge32" class="edge">
<title>stake::assert_stake_pool_exists&#45;&gt;stake::stake_pool_exists</title>
<path fill="none" stroke="black" d="M495,-347.82C495,-337.69 495,-324.6 495,-312.92"/>
<polygon fill="black" stroke="black" points="498.5,-312.95 495,-302.95 491.5,-312.95 498.5,-312.95"/>
</g>
<!-- error::not_found&#45;&gt;error::canonical -->
<g id="edge33" class="edge">
<title>error::not_found&#45;&gt;error::canonical</title>
<path fill="none" stroke="black" d="M676.96,-265.61C686.69,-254.19 699.84,-238.75 710.85,-225.83"/>
<polygon fill="black" stroke="black" points="713.26,-228.4 717.08,-218.52 707.93,-223.86 713.26,-228.4"/>
</g>
<!-- vector::singleton -->
<g id="node27" class="node">
<title>vector::singleton</title>
<ellipse fill="none" stroke="black" cx="1105" cy="-34" rx="42.79" ry="18"/>
<text text-anchor="middle" x="1105" y="-30.3" font-family="Times,serif" font-size="14.00">singleton</text>
</g>
<!-- option::some&#45;&gt;vector::singleton -->
<g id="edge34" class="edge">
<title>option::some&#45;&gt;vector::singleton</title>
<path fill="none" stroke="black" d="M1086.21,-181.76C1089.82,-153.51 1097.05,-97.11 1101.41,-63.04"/>
<polygon fill="black" stroke="black" points="1104.83,-63.87 1102.63,-53.51 1097.89,-62.99 1104.83,-63.87"/>
</g>
<!-- comparator::compare&#45;&gt;bcs::to_bytes -->
<g id="edge35" class="edge">
<title>comparator::compare&#45;&gt;bcs::to_bytes</title>
<path fill="none" stroke="black" d="M1277.87,-184.83C1286.18,-180.57 1295.74,-176.4 1305,-174 1338.39,-165.34 1428.21,-179.38 1460,-166 1472.01,-160.94 1483,-151.83 1491.75,-142.9"/>
<polygon fill="black" stroke="black" points="1494.22,-145.38 1498.39,-135.64 1489.06,-140.66 1494.22,-145.38"/>
</g>
<!-- comparator::compare_u8_vector -->
<g id="node28" class="node">
<title>comparator::compare_u8_vector</title>
<ellipse fill="none" stroke="black" cx="1293" cy="-117" rx="81.49" ry="18"/>
<text text-anchor="middle" x="1293" y="-113.3" font-family="Times,serif" font-size="14.00">compare_u8_vector</text>
</g>
<!-- comparator::compare&#45;&gt;comparator::compare_u8_vector -->
<g id="edge36" class="edge">
<title>comparator::compare&#45;&gt;comparator::compare_u8_vector</title>
<path fill="none" stroke="black" d="M1262.08,-182.22C1267.19,-171.61 1273.91,-157.65 1279.78,-145.45"/>
<polygon fill="black" stroke="black" points="1282.82,-147.21 1284,-136.68 1276.51,-144.18 1282.82,-147.21"/>
</g>
</g>
</svg>
