<?xml version="1.0" encoding="UTF-8" standalone="no"?>
<!DOCTYPE svg PUBLIC "-//W3C//DTD SVG 1.1//EN"
 "http://www.w3.org/Graphics/SVG/1.1/DTD/svg11.dtd">
<!-- Generated by graphviz version 7.0.0 (20221023.0053)
 -->
<!-- Title: G Pages: 1 -->
<svg width="1125pt" height="748pt"
 viewBox="0.00 0.00 1125.45 748.00" xmlns="http://www.w3.org/2000/svg" xmlns:xlink="http://www.w3.org/1999/xlink">
<g id="graph0" class="graph" transform="scale(1 1) rotate(0) translate(4 744)">
<title>G</title>
<polygon fill="white" stroke="none" points="-4,4 -4,-744 1121.45,-744 1121.45,4 -4,4"/>
<g id="clust1" class="cluster">
<title>cluster_staking_contract</title>
<polygon fill="none" stroke="black" points="514,-208 514,-430 804,-430 804,-208 514,-208"/>
<text text-anchor="middle" x="659" y="-414.8" font-family="Times,serif" font-size="14.00">staking_contract</text>
</g>
<g id="clust2" class="cluster">
<title>cluster_staking_proxy</title>
<polygon fill="none" stroke="black" points="8,-136 8,-283 406,-283 406,-136 8,-136"/>
<text text-anchor="middle" x="207" y="-267.8" font-family="Times,serif" font-size="14.00">staking_proxy</text>
</g>
<g id="clust3" class="cluster">
<title>cluster_genesis</title>
<polygon fill="none" stroke="black" points="287,-438 287,-732 743,-732 743,-438 287,-438"/>
<text text-anchor="middle" x="515" y="-716.8" font-family="Times,serif" font-size="14.00">genesis</text>
</g>
<g id="clust4" class="cluster">
<title>cluster_vesting</title>
<polygon fill="none" stroke="black" points="751,-582 751,-657 955,-657 955,-582 751,-582"/>
<text text-anchor="middle" x="853" y="-641.8" font-family="Times,serif" font-size="14.00">vesting</text>
</g>
<!-- assert_owner_cap_exists -->
<g id="node1" class="node">
<title>assert_owner_cap_exists</title>
<ellipse fill="none" stroke="black" cx="576" cy="-18" rx="98.28" ry="18"/>
<text text-anchor="middle" x="576" y="-14.3" font-family="Times,serif" font-size="14.00">assert_owner_cap_exists</text>
</g>
<!-- withdraw -->
<g id="node2" class="node">
<title>withdraw</title>
<ellipse fill="none" stroke="black" cx="92" cy="-90" rx="44.39" ry="18"/>
<text text-anchor="middle" x="92" y="-86.3" font-family="Times,serif" font-size="14.00">withdraw</text>
</g>
<!-- withdraw&#45;&gt;assert_owner_cap_exists -->
<g id="edge1" class="edge">
<title>withdraw&#45;&gt;assert_owner_cap_exists</title>
<path fill="none" stroke="black" d="M124.82,-77.42C131.44,-75.38 138.39,-73.45 145,-72 256.1,-47.58 385.96,-33.53 473.87,-26.12"/>
<polygon fill="black" stroke="black" points="474,-29.62 483.68,-25.3 473.42,-22.64 474,-29.62"/>
</g>
<!-- add_stake -->
<g id="node3" class="node">
<title>add_stake</title>
<ellipse fill="none" stroke="black" cx="506" cy="-90" rx="46.29" ry="18"/>
<text text-anchor="middle" x="506" y="-86.3" font-family="Times,serif" font-size="14.00">add_stake</text>
</g>
<!-- add_stake&#45;&gt;assert_owner_cap_exists -->
<g id="edge2" class="edge">
<title>add_stake&#45;&gt;assert_owner_cap_exists</title>
<path fill="none" stroke="black" d="M522.24,-72.76C530.73,-64.27 541.32,-53.68 550.85,-44.15"/>
<polygon fill="black" stroke="black" points="553.21,-46.74 557.81,-37.19 548.26,-41.79 553.21,-46.74"/>
</g>
<!-- extract_owner_cap -->
<g id="node4" class="node">
<title>extract_owner_cap</title>
<ellipse fill="none" stroke="black" cx="647" cy="-90" rx="77.19" ry="18"/>
<text text-anchor="middle" x="647" y="-86.3" font-family="Times,serif" font-size="14.00">extract_owner_cap</text>
</g>
<!-- extract_owner_cap&#45;&gt;assert_owner_cap_exists -->
<g id="edge3" class="edge">
<title>extract_owner_cap&#45;&gt;assert_owner_cap_exists</title>
<path fill="none" stroke="black" d="M629.81,-72.05C621.18,-63.54 610.56,-53.07 601.03,-43.68"/>
<polygon fill="black" stroke="black" points="603.68,-41.38 594.11,-36.85 598.77,-46.36 603.68,-41.38"/>
</g>
<!-- increase_lockup -->
<g id="node5" class="node">
<title>increase_lockup</title>
<ellipse fill="none" stroke="black" cx="810" cy="-90" rx="67.69" ry="18"/>
<text text-anchor="middle" x="810" y="-86.3" font-family="Times,serif" font-size="14.00">increase_lockup</text>
</g>
<!-- increase_lockup&#45;&gt;assert_owner_cap_exists -->
<g id="edge4" class="edge">
<title>increase_lockup&#45;&gt;assert_owner_cap_exists</title>
<path fill="none" stroke="black" d="M766.26,-75.92C729.67,-64.97 677.07,-49.24 636.45,-37.08"/>
<polygon fill="black" stroke="black" points="637.64,-33.79 627.05,-34.27 635.63,-40.49 637.64,-33.79"/>
</g>
<!-- reactivate_stake -->
<g id="node6" class="node">
<title>reactivate_stake</title>
<ellipse fill="none" stroke="black" cx="963" cy="-90" rx="67.69" ry="18"/>
<text text-anchor="middle" x="963" y="-86.3" font-family="Times,serif" font-size="14.00">reactivate_stake</text>
</g>
<!-- reactivate_stake&#45;&gt;assert_owner_cap_exists -->
<g id="edge5" class="edge">
<title>reactivate_stake&#45;&gt;assert_owner_cap_exists</title>
<path fill="none" stroke="black" d="M913.2,-77.48C904.49,-75.57 895.49,-73.67 887,-72 810.45,-56.93 722.8,-42.22 660.1,-32.14"/>
<polygon fill="black" stroke="black" points="661.01,-28.74 650.58,-30.61 659.9,-35.65 661.01,-28.74"/>
</g>
<!-- set_delegated_voter -->
<g id="node7" class="node">
<title>set_delegated_voter</title>
<ellipse fill="none" stroke="black" cx="235" cy="-90" rx="81.49" ry="18"/>
<text text-anchor="middle" x="235" y="-86.3" font-family="Times,serif" font-size="14.00">set_delegated_voter</text>
</g>
<!-- set_delegated_voter&#45;&gt;assert_owner_cap_exists -->
<g id="edge6" class="edge">
<title>set_delegated_voter&#45;&gt;assert_owner_cap_exists</title>
<path fill="none" stroke="black" d="M293.23,-77.05C350.66,-65.26 438.66,-47.19 501.23,-34.35"/>
<polygon fill="black" stroke="black" points="501.64,-37.84 510.73,-32.4 500.23,-30.98 501.64,-37.84"/>
</g>
<!-- set_operator -->
<g id="node8" class="node">
<title>set_operator</title>
<ellipse fill="none" stroke="black" cx="388" cy="-90" rx="53.89" ry="18"/>
<text text-anchor="middle" x="388" y="-86.3" font-family="Times,serif" font-size="14.00">set_operator</text>
</g>
<!-- set_operator&#45;&gt;assert_owner_cap_exists -->
<g id="edge7" class="edge">
<title>set_operator&#45;&gt;assert_owner_cap_exists</title>
<path fill="none" stroke="black" d="M422.92,-76C451.16,-65.48 491.36,-50.51 523.48,-38.55"/>
<polygon fill="black" stroke="black" points="524.47,-41.92 532.62,-35.15 522.02,-35.36 524.47,-41.92"/>
</g>
<!-- unlock -->
<g id="node9" class="node">
<title>unlock</title>
<ellipse fill="none" stroke="black" cx="1083" cy="-90" rx="34.39" ry="18"/>
<text text-anchor="middle" x="1083" y="-86.3" font-family="Times,serif" font-size="14.00">unlock</text>
</g>
<!-- unlock&#45;&gt;assert_owner_cap_exists -->
<g id="edge8" class="edge">
<title>unlock&#45;&gt;assert_owner_cap_exists</title>
<path fill="none" stroke="black" d="M1057.44,-77.63C1051.79,-75.47 1045.76,-73.44 1040,-72 919.82,-41.94 777.82,-28.88 682.84,-23.24"/>
<polygon fill="black" stroke="black" points="683.2,-19.75 673.01,-22.67 682.79,-26.74 683.2,-19.75"/>
</g>
<!-- initialize_stake_owner -->
<g id="node10" class="node">
<title>initialize_stake_owner</title>
<ellipse fill="none" stroke="black" cx="506" cy="-162" rx="90.18" ry="18"/>
<text text-anchor="middle" x="506" y="-158.3" font-family="Times,serif" font-size="14.00">initialize_stake_owner</text>
</g>
<!-- initialize_stake_owner&#45;&gt;add_stake -->
<g id="edge9" class="edge">
<title>initialize_stake_owner&#45;&gt;add_stake</title>
<path fill="none" stroke="black" d="M506,-143.7C506,-136.41 506,-127.73 506,-119.54"/>
<polygon fill="black" stroke="black" points="509.5,-119.62 506,-109.62 502.5,-119.62 509.5,-119.62"/>
</g>
<!-- initialize_stake_owner&#45;&gt;set_delegated_voter -->
<g id="edge11" class="edge">
<title>initialize_stake_owner&#45;&gt;set_delegated_voter</title>
<path fill="none" stroke="black" d="M452.69,-147.09C438.8,-143.47 423.84,-139.58 410,-136 372.76,-126.36 331.03,-115.63 297.67,-107.07"/>
<polygon fill="black" stroke="black" points="298.72,-103.72 288.16,-104.63 296.98,-110.5 298.72,-103.72"/>
</g>
<!-- initialize_stake_owner&#45;&gt;set_operator -->
<g id="edge13" class="edge">
<title>initialize_stake_owner&#45;&gt;set_operator</title>
<path fill="none" stroke="black" d="M478.04,-144.41C461.74,-134.75 441.03,-122.46 423.59,-112.11"/>
<polygon fill="black" stroke="black" points="425.44,-109.14 415.05,-107.05 421.86,-115.16 425.44,-109.14"/>
</g>
<!-- staking_contract::create_stake_pool -->
<g id="node11" class="node">
<title>staking_contract::create_stake_pool</title>
<ellipse fill="none" stroke="black" cx="647" cy="-234" rx="74.19" ry="18"/>
<text text-anchor="middle" x="647" y="-230.3" font-family="Times,serif" font-size="14.00">create_stake_pool</text>
</g>
<!-- staking_contract::create_stake_pool&#45;&gt;extract_owner_cap -->
<g id="edge10" class="edge">
<title>staking_contract::create_stake_pool&#45;&gt;extract_owner_cap</title>
<path fill="none" stroke="black" d="M647,-215.59C647,-191.61 647,-148.14 647,-119.42"/>
<polygon fill="black" stroke="black" points="650.5,-119.62 647,-109.62 643.5,-119.62 650.5,-119.62"/>
</g>
<!-- staking_contract::create_stake_pool&#45;&gt;initialize_stake_owner -->
<g id="edge15" class="edge">
<title>staking_contract::create_stake_pool&#45;&gt;initialize_stake_owner</title>
<path fill="none" stroke="black" d="M615.36,-217.29C595.68,-207.52 570.13,-194.84 548.68,-184.19"/>
<polygon fill="black" stroke="black" points="550.38,-181.13 539.87,-179.82 547.27,-187.4 550.38,-181.13"/>
</g>
<!-- staking_proxy::set_stake_pool_voter -->
<g id="node12" class="node">
<title>staking_proxy::set_stake_pool_voter</title>
<ellipse fill="none" stroke="black" cx="101" cy="-162" rx="85.29" ry="18"/>
<text text-anchor="middle" x="101" y="-158.3" font-family="Times,serif" font-size="14.00">set_stake_pool_voter</text>
</g>
<!-- staking_proxy::set_stake_pool_voter&#45;&gt;set_delegated_voter -->
<g id="edge12" class="edge">
<title>staking_proxy::set_stake_pool_voter&#45;&gt;set_delegated_voter</title>
<path fill="none" stroke="black" d="M132.08,-144.76C150.65,-135.07 174.44,-122.64 194.47,-112.17"/>
<polygon fill="black" stroke="black" points="195.97,-115.34 203.21,-107.61 192.73,-109.13 195.97,-115.34"/>
</g>
<!-- staking_proxy::set_stake_pool_operator -->
<g id="node13" class="node">
<title>staking_proxy::set_stake_pool_operator</title>
<ellipse fill="none" stroke="black" cx="301" cy="-162" rx="96.68" ry="18"/>
<text text-anchor="middle" x="301" y="-158.3" font-family="Times,serif" font-size="14.00">set_stake_pool_operator</text>
</g>
<!-- staking_proxy::set_stake_pool_operator&#45;&gt;set_operator -->
<g id="edge14" class="edge">
<title>staking_proxy::set_stake_pool_operator&#45;&gt;set_operator</title>
<path fill="none" stroke="black" d="M322.06,-144.05C333.2,-135.09 347.05,-123.95 359.17,-114.2"/>
<polygon fill="black" stroke="black" points="361.25,-117.01 366.85,-108.02 356.87,-111.56 361.25,-117.01"/>
</g>
<!-- genesis::create_initialize_validator -->
<g id="node14" class="node">
<title>genesis::create_initialize_validator</title>
<ellipse fill="none" stroke="black" cx="494" cy="-464" rx="102.88" ry="18"/>
<text text-anchor="middle" x="494" y="-460.3" font-family="Times,serif" font-size="14.00">create_initialize_validator</text>
</g>
<!-- genesis::create_initialize_validator&#45;&gt;initialize_stake_owner -->
<g id="edge16" class="edge">
<title>genesis::create_initialize_validator&#45;&gt;initialize_stake_owner</title>
<path fill="none" stroke="black" d="M494.7,-445.57C496.69,-395.87 502.4,-253.02 504.86,-191.62"/>
<polygon fill="black" stroke="black" points="508.34,-192.12 505.24,-181.99 501.34,-191.84 508.34,-192.12"/>
</g>
<!-- staking_contract::create_staking_contract -->
<g id="node19" class="node">
<title>staking_contract::create_staking_contract</title>
<ellipse fill="none" stroke="black" cx="637" cy="-381" rx="94.48" ry="18"/>
<text text-anchor="middle" x="637" y="-377.3" font-family="Times,serif" font-size="14.00">create_staking_contract</text>
</g>
<!-- genesis::create_initialize_validator&#45;&gt;staking_contract::create_staking_contract -->
<g id="edge24" class="edge">
<title>genesis::create_initialize_validator&#45;&gt;staking_contract::create_staking_contract</title>
<path fill="none" stroke="black" d="M523.28,-446.41C544.78,-434.24 574.21,-417.57 597.74,-404.24"/>
<polygon fill="black" stroke="black" points="599.46,-407.28 606.44,-399.31 596.01,-401.19 599.46,-407.28"/>
</g>
<!-- staking_contract::create_staking_contract_with_coins -->
<g id="node15" class="node">
<title>staking_contract::create_staking_contract_with_coins</title>
<ellipse fill="none" stroke="black" cx="659" cy="-309" rx="137.28" ry="18"/>
<text text-anchor="middle" x="659" y="-305.3" font-family="Times,serif" font-size="14.00">create_staking_contract_with_coins</text>
</g>
<!-- staking_contract::create_staking_contract_with_coins&#45;&gt;staking_contract::create_stake_pool -->
<g id="edge17" class="edge">
<title>staking_contract::create_staking_contract_with_coins&#45;&gt;staking_contract::create_stake_pool</title>
<path fill="none" stroke="black" d="M656.16,-290.7C654.82,-282.58 653.19,-272.68 651.68,-263.5"/>
<polygon fill="black" stroke="black" points="655.19,-263.22 650.11,-253.92 648.28,-264.36 655.19,-263.22"/>
</g>
<!-- staking_proxy::set_voter -->
<g id="node16" class="node">
<title>staking_proxy::set_voter</title>
<ellipse fill="none" stroke="black" cx="101" cy="-234" rx="42.79" ry="18"/>
<text text-anchor="middle" x="101" y="-230.3" font-family="Times,serif" font-size="14.00">set_voter</text>
</g>
<!-- staking_proxy::set_voter&#45;&gt;staking_proxy::set_stake_pool_voter -->
<g id="edge18" class="edge">
<title>staking_proxy::set_voter&#45;&gt;staking_proxy::set_stake_pool_voter</title>
<path fill="none" stroke="black" d="M101,-215.7C101,-208.41 101,-199.73 101,-191.54"/>
<polygon fill="black" stroke="black" points="104.5,-191.62 101,-181.62 97.5,-191.62 104.5,-191.62"/>
</g>
<!-- staking_proxy::set_operator -->
<g id="node17" class="node">
<title>staking_proxy::set_operator</title>
<ellipse fill="none" stroke="black" cx="301" cy="-234" rx="53.89" ry="18"/>
<text text-anchor="middle" x="301" y="-230.3" font-family="Times,serif" font-size="14.00">set_operator</text>
</g>
<!-- staking_proxy::set_operator&#45;&gt;staking_proxy::set_stake_pool_operator -->
<g id="edge19" class="edge">
<title>staking_proxy::set_operator&#45;&gt;staking_proxy::set_stake_pool_operator</title>
<path fill="none" stroke="black" d="M301,-215.7C301,-208.41 301,-199.73 301,-191.54"/>
<polygon fill="black" stroke="black" points="304.5,-191.62 301,-181.62 297.5,-191.62 304.5,-191.62"/>
</g>
<!-- genesis::create_initialize_validators_with_commission -->
<g id="node18" class="node">
<title>genesis::create_initialize_validators_with_commission</title>
<ellipse fill="none" stroke="black" cx="482" cy="-536" rx="173.57" ry="18"/>
<text text-anchor="middle" x="482" y="-532.3" font-family="Times,serif" font-size="14.00">create_initialize_validators_with_commission</text>
</g>
<!-- genesis::create_initialize_validators_with_commission&#45;&gt;genesis::create_initialize_validator -->
<g id="edge20" class="edge">
<title>genesis::create_initialize_validators_with_commission&#45;&gt;genesis::create_initialize_validator</title>
<path fill="none" stroke="black" d="M484.97,-517.7C486.23,-510.32 487.74,-501.52 489.16,-493.25"/>
<polygon fill="black" stroke="black" points="492.57,-494.04 490.81,-483.6 485.67,-492.86 492.57,-494.04"/>
</g>
<!-- staking_contract::create_staking_contract&#45;&gt;staking_contract::create_staking_contract_with_coins -->
<g id="edge21" class="edge">
<title>staking_contract::create_staking_contract&#45;&gt;staking_contract::create_staking_contract_with_coins</title>
<path fill="none" stroke="black" d="M642.44,-362.7C644.78,-355.24 647.58,-346.32 650.21,-337.97"/>
<polygon fill="black" stroke="black" points="653.51,-339.14 653.17,-328.55 646.83,-337.04 653.51,-339.14"/>
</g>
<!-- vesting::create_vesting_contract -->
<g id="node20" class="node">
<title>vesting::create_vesting_contract</title>
<ellipse fill="none" stroke="black" cx="853" cy="-608" rx="94.48" ry="18"/>
<text text-anchor="middle" x="853" y="-604.3" font-family="Times,serif" font-size="14.00">create_vesting_contract</text>
</g>
<!-- vesting::create_vesting_contract&#45;&gt;staking_contract::create_staking_contract_with_coins -->
<g id="edge22" class="edge">
<title>vesting::create_vesting_contract&#45;&gt;staking_contract::create_staking_contract_with_coins</title>
<path fill="none" stroke="black" d="M848.61,-589.81C837.05,-547.22 802.26,-435.06 740,-363 729.76,-351.14 716.23,-340.89 703.17,-332.65"/>
<polygon fill="black" stroke="black" points="705.01,-329.67 694.64,-327.53 701.41,-335.68 705.01,-329.67"/>
</g>
<!-- genesis::create_initialize_validators -->
<g id="node21" class="node">
<title>genesis::create_initialize_validators</title>
<ellipse fill="none" stroke="black" cx="470" cy="-608" rx="105.88" ry="18"/>
<text text-anchor="middle" x="470" y="-604.3" font-family="Times,serif" font-size="14.00">create_initialize_validators</text>
</g>
<!-- genesis::create_initialize_validators&#45;&gt;genesis::create_initialize_validators_with_commission -->
<g id="edge23" class="edge">
<title>genesis::create_initialize_validators&#45;&gt;genesis::create_initialize_validators_with_commission</title>
<path fill="none" stroke="black" d="M472.97,-589.7C474.23,-582.32 475.74,-573.52 477.16,-565.25"/>
<polygon fill="black" stroke="black" points="480.57,-566.04 478.81,-555.6 473.67,-564.86 480.57,-566.04"/>
</g>
<!-- genesis::create_employee_validators -->
<g id="node22" class="node">
<title>genesis::create_employee_validators</title>
<ellipse fill="none" stroke="black" cx="625" cy="-683" rx="109.68" ry="18"/>
<text text-anchor="middle" x="625" y="-679.3" font-family="Times,serif" font-size="14.00">create_employee_validators</text>
</g>
<!-- genesis::create_employee_validators&#45;&gt;vesting::create_vesting_contract -->
<g id="edge25" class="edge">
<title>genesis::create_employee_validators&#45;&gt;vesting::create_vesting_contract</title>
<path fill="none" stroke="black" d="M699.56,-669.47C715.39,-666.05 731.88,-661.9 747,-657 768.89,-649.9 792.28,-639.62 811.51,-630.39"/>
<polygon fill="black" stroke="black" points="812.92,-633.59 820.37,-626.06 809.85,-627.3 812.92,-633.59"/>
</g>
<!-- genesis::initialize_for_verification -->
<g id="node23" class="node">
<title>genesis::initialize_for_verification</title>
<ellipse fill="none" stroke="black" cx="396" cy="-683" rx="100.98" ry="18"/>
<text text-anchor="middle" x="396" y="-679.3" font-family="Times,serif" font-size="14.00">initialize_for_verification</text>
</g>
<!-- genesis::initialize_for_verification&#45;&gt;genesis::create_initialize_validators -->
<g id="edge26" class="edge">
<title>genesis::initialize_for_verification&#45;&gt;genesis::create_initialize_validators</title>
<path fill="none" stroke="black" d="M413.16,-665.07C422.53,-655.83 434.3,-644.22 444.7,-633.96"/>
<polygon fill="black" stroke="black" points="446.94,-636.67 451.6,-627.16 442.02,-631.69 446.94,-636.67"/>
</g>
</g>
</svg>
