<?xml version="1.0" encoding="UTF-8" standalone="no"?>
<!DOCTYPE svg PUBLIC "-//W3C//DTD SVG 1.1//EN"
 "http://www.w3.org/Graphics/SVG/1.1/DTD/svg11.dtd">
<!-- Generated by graphviz version 7.0.0 (20221023.0053)
 -->
<!-- Title: G Pages: 1 -->
<svg width="733pt" height="465pt"
 viewBox="0.00 0.00 733.00 465.00" xmlns="http://www.w3.org/2000/svg" xmlns:xlink="http://www.w3.org/1999/xlink">
<g id="graph0" class="graph" transform="scale(1 1) rotate(0) translate(4 461)">
<title>G</title>
<polygon fill="white" stroke="none" points="-4,4 -4,-461 729,-461 729,4 -4,4"/>
<g id="clust1" class="cluster">
<title>cluster_vesting</title>
<polygon fill="none" stroke="black" points="34,-136 34,-211 238,-211 238,-136 34,-136"/>
<text text-anchor="middle" x="136" y="-195.8" font-family="Times,serif" font-size="14.00">vesting</text>
</g>
<g id="clust2" class="cluster">
<title>cluster_genesis</title>
<polygon fill="none" stroke="black" points="8,-219 8,-294 244,-294 244,-219 8,-219"/>
<text text-anchor="middle" x="126" y="-278.8" font-family="Times,serif" font-size="14.00">genesis</text>
</g>
<g id="clust3" class="cluster">
<title>cluster_timestamp</title>
<polygon fill="none" stroke="black" points="252,-219 252,-294 430,-294 430,-219 252,-219"/>
<text text-anchor="middle" x="341" y="-278.8" font-family="Times,serif" font-size="14.00">timestamp</text>
</g>
<g id="clust4" class="cluster">
<title>cluster_block</title>
<polygon fill="none" stroke="black" points="111,-302 111,-449 717,-449 717,-302 111,-302"/>
<text text-anchor="middle" x="414" y="-433.8" font-family="Times,serif" font-size="14.00">block</text>
</g>
<!-- is_vm_address -->
<g id="node1" class="node">
<title>is_vm_address</title>
<ellipse fill="none" stroke="black" cx="243" cy="-18" rx="63.89" ry="18"/>
<text text-anchor="middle" x="243" y="-14.3" font-family="Times,serif" font-size="14.00">is_vm_address</text>
</g>
<!-- is_reserved_address -->
<g id="node2" class="node">
<title>is_reserved_address</title>
<ellipse fill="none" stroke="black" cx="177" cy="-90" rx="81.49" ry="18"/>
<text text-anchor="middle" x="177" y="-86.3" font-family="Times,serif" font-size="14.00">is_reserved_address</text>
</g>
<!-- is_reserved_address&#45;&gt;is_vm_address -->
<g id="edge1" class="edge">
<title>is_reserved_address&#45;&gt;is_vm_address</title>
<path fill="none" stroke="black" d="M192.98,-72.05C200.92,-63.63 210.68,-53.28 219.46,-43.97"/>
<polygon fill="black" stroke="black" points="221.82,-46.57 226.13,-36.89 216.73,-41.77 221.82,-46.57"/>
</g>
<!-- is_vm -->
<g id="node3" class="node">
<title>is_vm</title>
<ellipse fill="none" stroke="black" cx="330" cy="-90" rx="32.49" ry="18"/>
<text text-anchor="middle" x="330" y="-86.3" font-family="Times,serif" font-size="14.00">is_vm</text>
</g>
<!-- is_vm&#45;&gt;is_vm_address -->
<g id="edge2" class="edge">
<title>is_vm&#45;&gt;is_vm_address</title>
<path fill="none" stroke="black" d="M312.39,-74.83C300.86,-65.55 285.5,-53.19 272.16,-42.46"/>
<polygon fill="black" stroke="black" points="274.49,-39.84 264.5,-36.3 270.1,-45.3 274.49,-39.84"/>
</g>
<!-- vesting::create_vesting_contract -->
<g id="node4" class="node">
<title>vesting::create_vesting_contract</title>
<ellipse fill="none" stroke="black" cx="136" cy="-162" rx="94.48" ry="18"/>
<text text-anchor="middle" x="136" y="-158.3" font-family="Times,serif" font-size="14.00">create_vesting_contract</text>
</g>
<!-- vesting::create_vesting_contract&#45;&gt;is_reserved_address -->
<g id="edge3" class="edge">
<title>vesting::create_vesting_contract&#45;&gt;is_reserved_address</title>
<path fill="none" stroke="black" d="M146.13,-143.7C150.7,-135.9 156.2,-126.51 161.29,-117.83"/>
<polygon fill="black" stroke="black" points="164.18,-119.81 166.22,-109.41 158.14,-116.27 164.18,-119.81"/>
</g>
<!-- assert_vm -->
<g id="node5" class="node">
<title>assert_vm</title>
<ellipse fill="none" stroke="black" cx="395" cy="-162" rx="46.59" ry="18"/>
<text text-anchor="middle" x="395" y="-158.3" font-family="Times,serif" font-size="14.00">assert_vm</text>
</g>
<!-- assert_vm&#45;&gt;is_vm -->
<g id="edge4" class="edge">
<title>assert_vm&#45;&gt;is_vm</title>
<path fill="none" stroke="black" d="M379.92,-144.76C371.57,-135.77 361.04,-124.42 351.8,-114.48"/>
<polygon fill="black" stroke="black" points="354.5,-112.24 345.13,-107.3 349.37,-117.01 354.5,-112.24"/>
</g>
<!-- genesis::create_employee_validators -->
<g id="node6" class="node">
<title>genesis::create_employee_validators</title>
<ellipse fill="none" stroke="black" cx="126" cy="-245" rx="109.68" ry="18"/>
<text text-anchor="middle" x="126" y="-241.3" font-family="Times,serif" font-size="14.00">create_employee_validators</text>
</g>
<!-- genesis::create_employee_validators&#45;&gt;vesting::create_vesting_contract -->
<g id="edge5" class="edge">
<title>genesis::create_employee_validators&#45;&gt;vesting::create_vesting_contract</title>
<path fill="none" stroke="black" d="M128.12,-226.82C129.38,-216.58 131.02,-203.33 132.48,-191.55"/>
<polygon fill="black" stroke="black" points="135.91,-192.29 133.66,-181.93 128.96,-191.43 135.91,-192.29"/>
</g>
<!-- timestamp::update_global_time -->
<g id="node7" class="node">
<title>timestamp::update_global_time</title>
<ellipse fill="none" stroke="black" cx="341" cy="-245" rx="81.49" ry="18"/>
<text text-anchor="middle" x="341" y="-241.3" font-family="Times,serif" font-size="14.00">update_global_time</text>
</g>
<!-- timestamp::update_global_time&#45;&gt;assert_vm -->
<g id="edge6" class="edge">
<title>timestamp::update_global_time&#45;&gt;assert_vm</title>
<path fill="none" stroke="black" d="M352.45,-226.82C359.73,-215.9 369.3,-201.55 377.52,-189.22"/>
<polygon fill="black" stroke="black" points="380.28,-191.4 382.91,-181.13 374.45,-187.51 380.28,-191.4"/>
</g>
<!-- block::block_prologue -->
<g id="node8" class="node">
<title>block::block_prologue</title>
<ellipse fill="none" stroke="black" cx="412" cy="-400" rx="65.79" ry="18"/>
<text text-anchor="middle" x="412" y="-396.3" font-family="Times,serif" font-size="14.00">block_prologue</text>
</g>
<!-- block::block_prologue&#45;&gt;assert_vm -->
<g id="edge7" class="edge">
<title>block::block_prologue&#45;&gt;assert_vm</title>
<path fill="none" stroke="black" d="M419.63,-381.7C423.75,-371.51 428.5,-358.26 431,-346 442.27,-290.68 450.91,-272.87 434,-219 430.52,-207.93 424,-197.13 417.26,-188.01"/>
<polygon fill="black" stroke="black" points="420.17,-186.05 411.23,-180.37 414.68,-190.39 420.17,-186.05"/>
</g>
<!-- block::emit_new_block_event -->
<g id="node10" class="node">
<title>block::emit_new_block_event</title>
<ellipse fill="none" stroke="black" cx="329" cy="-328" rx="92.88" ry="18"/>
<text text-anchor="middle" x="329" y="-324.3" font-family="Times,serif" font-size="14.00">emit_new_block_event</text>
</g>
<!-- block::block_prologue&#45;&gt;block::emit_new_block_event -->
<g id="edge10" class="edge">
<title>block::block_prologue&#45;&gt;block::emit_new_block_event</title>
<path fill="none" stroke="black" d="M392.33,-382.41C382.04,-373.73 369.25,-362.95 357.86,-353.34"/>
<polygon fill="black" stroke="black" points="360.16,-350.7 350.26,-346.93 355.65,-356.05 360.16,-350.7"/>
</g>
<!-- block::emit_writeset_block_event -->
<g id="node9" class="node">
<title>block::emit_writeset_block_event</title>
<ellipse fill="none" stroke="black" cx="602" cy="-400" rx="106.68" ry="18"/>
<text text-anchor="middle" x="602" y="-396.3" font-family="Times,serif" font-size="14.00">emit_writeset_block_event</text>
</g>
<!-- block::emit_writeset_block_event&#45;&gt;assert_vm -->
<g id="edge8" class="edge">
<title>block::emit_writeset_block_event&#45;&gt;assert_vm</title>
<path fill="none" stroke="black" d="M588.69,-381.9C563.14,-349.35 505.06,-276.59 452,-219 441.94,-208.08 430.33,-196.5 420.22,-186.73"/>
<polygon fill="black" stroke="black" points="422.88,-184.43 413.24,-180.04 418.04,-189.49 422.88,-184.43"/>
</g>
<!-- block::emit_new_block_event&#45;&gt;timestamp::update_global_time -->
<g id="edge9" class="edge">
<title>block::emit_new_block_event&#45;&gt;timestamp::update_global_time</title>
<path fill="none" stroke="black" d="M331.54,-309.82C333.06,-299.58 335.03,-286.33 336.77,-274.55"/>
<polygon fill="black" stroke="black" points="340.19,-275.33 338.2,-264.93 333.27,-274.31 340.19,-275.33"/>
</g>
<!-- block::emit_genesis_block_event -->
<g id="node11" class="node">
<title>block::emit_genesis_block_event</title>
<ellipse fill="none" stroke="black" cx="224" cy="-400" rx="104.78" ry="18"/>
<text text-anchor="middle" x="224" y="-396.3" font-family="Times,serif" font-size="14.00">emit_genesis_block_event</text>
</g>
<!-- block::emit_genesis_block_event&#45;&gt;block::emit_new_block_event -->
<g id="edge11" class="edge">
<title>block::emit_genesis_block_event&#45;&gt;block::emit_new_block_event</title>
<path fill="none" stroke="black" d="M249.42,-382.05C262.96,-373.03 279.81,-361.79 294.52,-351.99"/>
<polygon fill="black" stroke="black" points="296.18,-355.09 302.56,-346.63 292.3,-349.26 296.18,-355.09"/>
</g>
</g>
</svg>
