<?xml version="1.0" encoding="UTF-8" standalone="no"?>
<!DOCTYPE svg PUBLIC "-//W3C//DTD SVG 1.1//EN"
 "http://www.w3.org/Graphics/SVG/1.1/DTD/svg11.dtd">
<!-- Generated by graphviz version 7.0.0 (20221023.0053)
 -->
<!-- Title: G Pages: 1 -->
<svg width="2354pt" height="620pt"
 viewBox="0.00 0.00 2353.84 620.00" xmlns="http://www.w3.org/2000/svg" xmlns:xlink="http://www.w3.org/1999/xlink">
<g id="graph0" class="graph" transform="scale(1 1) rotate(0) translate(4 616)">
<title>G</title>
<polygon fill="white" stroke="none" points="-4,4 -4,-616 2349.84,-616 2349.84,4 -4,4"/>
<!-- system_addresses -->
<g id="node1" class="node">
<title>system_addresses</title>
<ellipse fill="none" stroke="black" cx="877.84" cy="-18" rx="73.39" ry="18"/>
<text text-anchor="middle" x="877.84" y="-14.3" font-family="Times,serif" font-size="14.00">system_addresses</text>
</g>
<!-- account -->
<g id="node2" class="node">
<title>account</title>
<ellipse fill="none" stroke="black" cx="1327.84" cy="-162" rx="38.19" ry="18"/>
<text text-anchor="middle" x="1327.84" y="-158.3" font-family="Times,serif" font-size="14.00">account</text>
</g>
<!-- account&#45;&gt;system_addresses -->
<g id="edge1" class="edge">
<title>account&#45;&gt;system_addresses</title>
<path fill="none" stroke="black" d="M1299.11,-149.75C1253.18,-131.99 1160.24,-96.92 1079.84,-72 1033.47,-57.63 980.34,-43.79 940.21,-33.86"/>
<polygon fill="black" stroke="black" points="941.27,-30.51 930.72,-31.52 939.6,-37.31 941.27,-30.51"/>
</g>
<!-- aggregator_factory -->
<g id="node3" class="node">
<title>aggregator_factory</title>
<ellipse fill="none" stroke="black" cx="1675.84" cy="-90" rx="77.19" ry="18"/>
<text text-anchor="middle" x="1675.84" y="-86.3" font-family="Times,serif" font-size="14.00">aggregator_factory</text>
</g>
<!-- aggregator_factory&#45;&gt;system_addresses -->
<g id="edge2" class="edge">
<title>aggregator_factory&#45;&gt;system_addresses</title>
<path fill="none" stroke="black" d="M1617.42,-77.92C1604.43,-75.72 1590.7,-73.6 1577.84,-72 1355.73,-44.39 1092.06,-29.12 960.76,-22.69"/>
<polygon fill="black" stroke="black" points="961.29,-19.21 951.13,-22.23 960.95,-26.21 961.29,-19.21"/>
</g>
<!-- coin -->
<g id="node4" class="node">
<title>coin</title>
<ellipse fill="none" stroke="black" cx="1675.84" cy="-234" rx="27" ry="18"/>
<text text-anchor="middle" x="1675.84" y="-230.3" font-family="Times,serif" font-size="14.00">coin</text>
</g>
<!-- coin&#45;&gt;system_addresses -->
<g id="edge3" class="edge">
<title>coin&#45;&gt;system_addresses</title>
<path fill="none" stroke="black" d="M1652.87,-224.18C1632.92,-215.53 1604.39,-200.63 1585.84,-180 1550.61,-140.8 1579.97,-102.31 1536.84,-72 1490.85,-39.68 1129.36,-25.79 962.15,-21.05"/>
<polygon fill="black" stroke="black" points="962.3,-17.55 952.21,-20.77 962.11,-24.55 962.3,-17.55"/>
</g>
<!-- coin&#45;&gt;account -->
<g id="edge22" class="edge">
<title>coin&#45;&gt;account</title>
<path fill="none" stroke="black" d="M1649.97,-227.8C1591.36,-216.01 1447.81,-187.13 1373.73,-172.23"/>
<polygon fill="black" stroke="black" points="1374.44,-168.8 1363.94,-170.26 1373.06,-175.66 1374.44,-168.8"/>
</g>
<!-- optional_aggregator -->
<g id="node28" class="node">
<title>optional_aggregator</title>
<ellipse fill="none" stroke="black" cx="1675.84" cy="-162" rx="81.49" ry="18"/>
<text text-anchor="middle" x="1675.84" y="-158.3" font-family="Times,serif" font-size="14.00">optional_aggregator</text>
</g>
<!-- coin&#45;&gt;optional_aggregator -->
<g id="edge107" class="edge">
<title>coin&#45;&gt;optional_aggregator</title>
<path fill="none" stroke="black" d="M1675.84,-215.7C1675.84,-208.41 1675.84,-199.73 1675.84,-191.54"/>
<polygon fill="black" stroke="black" points="1679.34,-191.62 1675.84,-181.62 1672.34,-191.62 1679.34,-191.62"/>
</g>
<!-- aptos_coin -->
<g id="node5" class="node">
<title>aptos_coin</title>
<ellipse fill="none" stroke="black" cx="1675.84" cy="-306" rx="48.99" ry="18"/>
<text text-anchor="middle" x="1675.84" y="-302.3" font-family="Times,serif" font-size="14.00">aptos_coin</text>
</g>
<!-- aptos_coin&#45;&gt;system_addresses -->
<g id="edge4" class="edge">
<title>aptos_coin&#45;&gt;system_addresses</title>
<path fill="none" stroke="black" d="M1659.76,-288.73C1637.19,-265.54 1595.35,-221.2 1563.84,-180 1529.1,-134.56 1542.88,-101.45 1493.84,-72 1449.25,-45.22 1118.99,-28.61 961.26,-22.12"/>
<polygon fill="black" stroke="black" points="961.85,-18.64 951.72,-21.73 961.57,-25.64 961.85,-18.64"/>
</g>
<!-- aptos_coin&#45;&gt;coin -->
<g id="edge36" class="edge">
<title>aptos_coin&#45;&gt;coin</title>
<path fill="none" stroke="black" d="M1675.84,-287.7C1675.84,-280.41 1675.84,-271.73 1675.84,-263.54"/>
<polygon fill="black" stroke="black" points="1679.34,-263.62 1675.84,-253.62 1672.34,-263.62 1679.34,-263.62"/>
</g>
<!-- chain_status -->
<g id="node6" class="node">
<title>chain_status</title>
<ellipse fill="none" stroke="black" cx="453.84" cy="-378" rx="53.89" ry="18"/>
<text text-anchor="middle" x="453.84" y="-374.3" font-family="Times,serif" font-size="14.00">chain_status</text>
</g>
<!-- chain_status&#45;&gt;system_addresses -->
<g id="edge5" class="edge">
<title>chain_status&#45;&gt;system_addresses</title>
<path fill="none" stroke="black" d="M454.45,-359.51C455.33,-332.72 456.84,-279.88 456.84,-235 456.84,-235 456.84,-235 456.84,-161 456.84,-112.02 479.93,-97.35 521.84,-72 566.65,-44.91 705.35,-30.57 795.81,-23.9"/>
<polygon fill="black" stroke="black" points="795.91,-27.41 805.64,-23.2 795.41,-20.42 795.91,-27.41"/>
</g>
<!-- timestamp -->
<g id="node7" class="node">
<title>timestamp</title>
<ellipse fill="none" stroke="black" cx="657.84" cy="-306" rx="48.19" ry="18"/>
<text text-anchor="middle" x="657.84" y="-302.3" font-family="Times,serif" font-size="14.00">timestamp</text>
</g>
<!-- timestamp&#45;&gt;system_addresses -->
<g id="edge6" class="edge">
<title>timestamp&#45;&gt;system_addresses</title>
<path fill="none" stroke="black" d="M670.62,-288.39C707.37,-240.62 813.52,-102.63 857.93,-44.89"/>
<polygon fill="black" stroke="black" points="860.51,-47.28 863.83,-37.22 854.96,-43.01 860.51,-47.28"/>
</g>
<!-- staking_config -->
<g id="node8" class="node">
<title>staking_config</title>
<ellipse fill="none" stroke="black" cx="786.84" cy="-306" rx="63.09" ry="18"/>
<text text-anchor="middle" x="786.84" y="-302.3" font-family="Times,serif" font-size="14.00">staking_config</text>
</g>
<!-- staking_config&#45;&gt;system_addresses -->
<g id="edge7" class="edge">
<title>staking_config&#45;&gt;system_addresses</title>
<path fill="none" stroke="black" d="M792.26,-287.97C807.4,-240.39 850.24,-105.75 868.94,-47"/>
<polygon fill="black" stroke="black" points="872.18,-48.34 871.88,-37.75 865.51,-46.22 872.18,-48.34"/>
</g>
<!-- stake -->
<g id="node9" class="node">
<title>stake</title>
<ellipse fill="none" stroke="black" cx="1132.84" cy="-378" rx="28.7" ry="18"/>
<text text-anchor="middle" x="1132.84" y="-374.3" font-family="Times,serif" font-size="14.00">stake</text>
</g>
<!-- stake&#45;&gt;system_addresses -->
<g id="edge8" class="edge">
<title>stake&#45;&gt;system_addresses</title>
<path fill="none" stroke="black" d="M1121.56,-361.16C1081.51,-304.94 945.99,-114.67 896.3,-44.91"/>
<polygon fill="black" stroke="black" points="899.41,-43.24 890.76,-37.13 893.71,-47.3 899.41,-43.24"/>
</g>
<!-- stake&#45;&gt;account -->
<g id="edge25" class="edge">
<title>stake&#45;&gt;account</title>
<path fill="none" stroke="black" d="M1146.56,-361.95C1179.81,-325.46 1264.99,-231.98 1305.63,-187.38"/>
<polygon fill="black" stroke="black" points="1308.19,-189.77 1312.34,-180.02 1303.02,-185.05 1308.19,-189.77"/>
</g>
<!-- stake&#45;&gt;coin -->
<g id="edge38" class="edge">
<title>stake&#45;&gt;coin</title>
<path fill="none" stroke="black" d="M1156.3,-367.08C1162.59,-364.6 1169.42,-362.06 1175.84,-360 1346.13,-305.31 1555.32,-259.82 1638.85,-242.5"/>
<polygon fill="black" stroke="black" points="1639.44,-245.95 1648.53,-240.51 1638.03,-239.1 1639.44,-245.95"/>
</g>
<!-- stake&#45;&gt;aptos_coin -->
<g id="edge48" class="edge">
<title>stake&#45;&gt;aptos_coin</title>
<path fill="none" stroke="black" d="M1155.68,-366.65C1162.09,-364.11 1169.14,-361.65 1175.84,-360 1258.11,-339.78 1503.03,-319.75 1616.69,-311.25"/>
<polygon fill="black" stroke="black" points="1616.7,-314.76 1626.41,-310.53 1616.18,-307.78 1616.7,-314.76"/>
</g>
<!-- stake&#45;&gt;timestamp -->
<g id="edge59" class="edge">
<title>stake&#45;&gt;timestamp</title>
<path fill="none" stroke="black" d="M1104.98,-372.84C1080.88,-369.29 1045.09,-364.11 1013.84,-360 881.14,-342.53 845.9,-351.23 714.84,-324 711.31,-323.26 707.67,-322.41 704.03,-321.49"/>
<polygon fill="black" stroke="black" points="705.21,-318.18 694.64,-318.95 703.38,-324.94 705.21,-318.18"/>
</g>
<!-- stake&#45;&gt;staking_config -->
<g id="edge66" class="edge">
<title>stake&#45;&gt;staking_config</title>
<path fill="none" stroke="black" d="M1105.69,-371.51C1050.5,-360.34 924,-334.75 847.98,-319.37"/>
<polygon fill="black" stroke="black" points="849.12,-316.03 838.62,-317.48 847.73,-322.89 849.12,-316.03"/>
</g>
<!-- state_storage -->
<g id="node10" class="node">
<title>state_storage</title>
<ellipse fill="none" stroke="black" cx="172.84" cy="-306" rx="56.59" ry="18"/>
<text text-anchor="middle" x="172.84" y="-302.3" font-family="Times,serif" font-size="14.00">state_storage</text>
</g>
<!-- state_storage&#45;&gt;system_addresses -->
<g id="edge9" class="edge">
<title>state_storage&#45;&gt;system_addresses</title>
<path fill="none" stroke="black" d="M172.15,-287.75C171.42,-243.68 176.23,-126.59 243.84,-72 285.68,-38.23 630.61,-25.17 793.4,-20.85"/>
<polygon fill="black" stroke="black" points="793.38,-24.35 803.28,-20.6 793.2,-17.36 793.38,-24.35"/>
</g>
<!-- storage_gas -->
<g id="node11" class="node">
<title>storage_gas</title>
<ellipse fill="none" stroke="black" cx="101.84" cy="-378" rx="51.99" ry="18"/>
<text text-anchor="middle" x="101.84" y="-374.3" font-family="Times,serif" font-size="14.00">storage_gas</text>
</g>
<!-- storage_gas&#45;&gt;system_addresses -->
<g id="edge10" class="edge">
<title>storage_gas&#45;&gt;system_addresses</title>
<path fill="none" stroke="black" d="M99.01,-359.57C94.92,-332.84 87.84,-280.09 87.84,-235 87.84,-235 87.84,-235 87.84,-161 87.84,-93.88 146.91,-95.31 209.84,-72 314.61,-33.2 638.19,-22.78 793.27,-20.01"/>
<polygon fill="black" stroke="black" points="793.14,-23.51 803.08,-19.84 793.02,-16.51 793.14,-23.51"/>
</g>
<!-- storage_gas&#45;&gt;state_storage -->
<g id="edge77" class="edge">
<title>storage_gas&#45;&gt;state_storage</title>
<path fill="none" stroke="black" d="M118.31,-360.76C127.15,-352.06 138.21,-341.15 148.06,-331.43"/>
<polygon fill="black" stroke="black" points="150.23,-334.21 154.9,-324.7 145.32,-329.22 150.23,-334.21"/>
</g>
<!-- reconfiguration -->
<g id="node12" class="node">
<title>reconfiguration</title>
<ellipse fill="none" stroke="black" cx="404.84" cy="-450" rx="64.99" ry="18"/>
<text text-anchor="middle" x="404.84" y="-446.3" font-family="Times,serif" font-size="14.00">reconfiguration</text>
</g>
<!-- reconfiguration&#45;&gt;system_addresses -->
<g id="edge11" class="edge">
<title>reconfiguration&#45;&gt;system_addresses</title>
<path fill="none" stroke="black" d="M389.79,-432C368.95,-406.66 333.84,-356.61 333.84,-307 333.84,-307 333.84,-307 333.84,-161 333.84,-66.79 643.18,-33.92 795.33,-23.45"/>
<polygon fill="black" stroke="black" points="795.19,-26.96 804.94,-22.8 794.73,-19.98 795.19,-26.96"/>
</g>
<!-- reconfiguration&#45;&gt;account -->
<g id="edge26" class="edge">
<title>reconfiguration&#45;&gt;account</title>
<path fill="none" stroke="black" d="M395.53,-431.74C386.6,-412.61 376.44,-381.6 390.84,-360 437.06,-290.71 484.34,-312.78 563.84,-288 825.82,-206.35 1155.86,-175.43 1278.78,-166.26"/>
<polygon fill="black" stroke="black" points="1278.79,-169.77 1288.51,-165.55 1278.28,-162.78 1278.79,-169.77"/>
</g>
<!-- reconfiguration&#45;&gt;chain_status -->
<g id="edge56" class="edge">
<title>reconfiguration&#45;&gt;chain_status</title>
<path fill="none" stroke="black" d="M416.71,-432.05C422.36,-423.97 429.26,-414.12 435.57,-405.11"/>
<polygon fill="black" stroke="black" points="438.36,-407.23 441.22,-397.03 432.62,-403.21 438.36,-407.23"/>
</g>
<!-- reconfiguration&#45;&gt;timestamp -->
<g id="edge60" class="edge">
<title>reconfiguration&#45;&gt;timestamp</title>
<path fill="none" stroke="black" d="M438.7,-434.27C461.2,-424.17 491.21,-410.09 516.84,-396 555.42,-374.8 597.92,-347.38 626.07,-328.61"/>
<polygon fill="black" stroke="black" points="627.79,-331.68 634.14,-323.2 623.89,-325.86 627.79,-331.68"/>
</g>
<!-- reconfiguration&#45;&gt;stake -->
<g id="edge70" class="edge">
<title>reconfiguration&#45;&gt;stake</title>
<path fill="none" stroke="black" d="M466.26,-443.75C571.61,-434.65 793.52,-415.09 980.84,-396 1019.14,-392.1 1062.81,-387.16 1093.49,-383.62"/>
<polygon fill="black" stroke="black" points="1093.53,-387.13 1103.06,-382.5 1092.73,-380.18 1093.53,-387.13"/>
</g>
<!-- reconfiguration&#45;&gt;storage_gas -->
<g id="edge80" class="edge">
<title>reconfiguration&#45;&gt;storage_gas</title>
<path fill="none" stroke="black" d="M356.16,-437.75C301.11,-425.04 211.78,-404.4 154.96,-391.27"/>
<polygon fill="black" stroke="black" points="156.06,-387.93 145.53,-389.09 154.48,-394.75 156.06,-387.93"/>
</g>
<!-- aptos_governance -->
<g id="node13" class="node">
<title>aptos_governance</title>
<ellipse fill="none" stroke="black" cx="938.84" cy="-522" rx="74.19" ry="18"/>
<text text-anchor="middle" x="938.84" y="-518.3" font-family="Times,serif" font-size="14.00">aptos_governance</text>
</g>
<!-- aptos_governance&#45;&gt;system_addresses -->
<g id="edge12" class="edge">
<title>aptos_governance&#45;&gt;system_addresses</title>
<path fill="none" stroke="black" d="M926.21,-504.08C908.34,-478.44 877.84,-427.56 877.84,-379 877.84,-379 877.84,-379 877.84,-161 877.84,-121.74 877.84,-76.38 877.84,-47.69"/>
<polygon fill="black" stroke="black" points="881.34,-48 877.84,-38 874.34,-48 881.34,-48"/>
</g>
<!-- aptos_governance&#45;&gt;account -->
<g id="edge27" class="edge">
<title>aptos_governance&#45;&gt;account</title>
<path fill="none" stroke="black" d="M950.84,-503.79C972.29,-473.5 1019.22,-409.18 1064.84,-360 1134.05,-285.4 1158.47,-272.88 1242.84,-216 1259.92,-204.49 1279.39,-192.29 1295.38,-182.49"/>
<polygon fill="black" stroke="black" points="1296.82,-185.71 1303.54,-177.52 1293.18,-179.74 1296.82,-185.71"/>
</g>
<!-- aptos_governance&#45;&gt;coin -->
<g id="edge39" class="edge">
<title>aptos_governance&#45;&gt;coin</title>
<path fill="none" stroke="black" d="M976.7,-506.12C995.83,-497.21 1018.4,-484.4 1034.84,-468 1073.72,-429.22 1053.07,-395.64 1094.84,-360 1166.09,-299.23 1201.96,-310.54 1292.84,-288 1416.95,-257.22 1568.41,-242.9 1637.81,-237.59"/>
<polygon fill="black" stroke="black" points="1637.79,-241.1 1647.5,-236.87 1637.27,-234.12 1637.79,-241.1"/>
</g>
<!-- aptos_governance&#45;&gt;aptos_coin -->
<g id="edge49" class="edge">
<title>aptos_governance&#45;&gt;aptos_coin</title>
<path fill="none" stroke="black" d="M994.88,-509.77C1027.71,-501.54 1069.04,-488.21 1101.84,-468 1116.23,-459.14 1193.65,-367.37 1208.84,-360 1279.24,-325.86 1506.21,-313.13 1615.69,-308.89"/>
<polygon fill="black" stroke="black" points="1615.8,-312.39 1625.66,-308.51 1615.53,-305.39 1615.8,-312.39"/>
</g>
<!-- aptos_governance&#45;&gt;timestamp -->
<g id="edge61" class="edge">
<title>aptos_governance&#45;&gt;timestamp</title>
<path fill="none" stroke="black" d="M903.33,-505.78C882.59,-496.2 856.35,-482.86 834.84,-468 774.3,-426.16 712.78,-365.12 680.64,-331.5"/>
<polygon fill="black" stroke="black" points="683.21,-329.12 673.79,-324.27 678.13,-333.93 683.21,-329.12"/>
</g>
<!-- aptos_governance&#45;&gt;staking_config -->
<g id="edge67" class="edge">
<title>aptos_governance&#45;&gt;staking_config</title>
<path fill="none" stroke="black" d="M909.39,-505.08C894.3,-495.81 876.49,-482.99 863.84,-468 829.56,-427.36 806.64,-368.86 795.25,-334.71"/>
<polygon fill="black" stroke="black" points="798.7,-334 792.3,-325.56 792.04,-336.15 798.7,-334"/>
</g>
<!-- aptos_governance&#45;&gt;stake -->
<g id="edge71" class="edge">
<title>aptos_governance&#45;&gt;stake</title>
<path fill="none" stroke="black" d="M990.02,-508.66C1016.73,-500.37 1048.76,-487.36 1072.84,-468 1093.68,-451.25 1110,-425.33 1120.33,-405.78"/>
<polygon fill="black" stroke="black" points="1123.37,-407.52 1124.76,-397.01 1117.12,-404.36 1123.37,-407.52"/>
</g>
<!-- aptos_governance&#45;&gt;reconfiguration -->
<g id="edge83" class="edge">
<title>aptos_governance&#45;&gt;reconfiguration</title>
<path fill="none" stroke="black" d="M874.7,-512.59C773.6,-499.34 578.02,-473.7 473.93,-460.06"/>
<polygon fill="black" stroke="black" points="474.5,-456.6 464.13,-458.77 473.59,-463.54 474.5,-456.6"/>
</g>
<!-- voting -->
<g id="node24" class="node">
<title>voting</title>
<ellipse fill="none" stroke="black" cx="938.84" cy="-378" rx="33.29" ry="18"/>
<text text-anchor="middle" x="938.84" y="-374.3" font-family="Times,serif" font-size="14.00">voting</text>
</g>
<!-- aptos_governance&#45;&gt;voting -->
<g id="edge103" class="edge">
<title>aptos_governance&#45;&gt;voting</title>
<path fill="none" stroke="black" d="M938.84,-503.59C938.84,-479.61 938.84,-436.14 938.84,-407.42"/>
<polygon fill="black" stroke="black" points="942.34,-407.62 938.84,-397.62 935.34,-407.62 942.34,-407.62"/>
</g>
<!-- block -->
<g id="node14" class="node">
<title>block</title>
<ellipse fill="none" stroke="black" cx="573.84" cy="-522" rx="30.59" ry="18"/>
<text text-anchor="middle" x="573.84" y="-518.3" font-family="Times,serif" font-size="14.00">block</text>
</g>
<!-- block&#45;&gt;system_addresses -->
<g id="edge13" class="edge">
<title>block&#45;&gt;system_addresses</title>
<path fill="none" stroke="black" d="M566.34,-504.34C555.26,-478.2 535.84,-425.7 535.84,-379 535.84,-379 535.84,-379 535.84,-161 535.84,-102.04 711.43,-54.67 810.98,-32.55"/>
<polygon fill="black" stroke="black" points="811.64,-35.99 820.66,-30.43 810.14,-29.15 811.64,-35.99"/>
</g>
<!-- block&#45;&gt;account -->
<g id="edge28" class="edge">
<title>block&#45;&gt;account</title>
<path fill="none" stroke="black" d="M569.73,-503.85C560.58,-461.02 543.6,-348.48 600.84,-288 603.82,-284.86 1120.94,-197.76 1281.11,-170.85"/>
<polygon fill="black" stroke="black" points="1281.68,-174.3 1290.96,-169.19 1280.52,-167.4 1281.68,-174.3"/>
</g>
<!-- block&#45;&gt;timestamp -->
<g id="edge62" class="edge">
<title>block&#45;&gt;timestamp</title>
<path fill="none" stroke="black" d="M580.44,-504.21C594.84,-467.51 629.25,-379.85 646.94,-334.79"/>
<polygon fill="black" stroke="black" points="650.1,-336.3 650.5,-325.72 643.59,-333.75 650.1,-336.3"/>
</g>
<!-- block&#45;&gt;stake -->
<g id="edge72" class="edge">
<title>block&#45;&gt;stake</title>
<path fill="none" stroke="black" d="M601.57,-513.96C693.83,-490.52 990.62,-415.13 1095.61,-388.46"/>
<polygon fill="black" stroke="black" points="1096.29,-391.9 1105.12,-386.04 1094.57,-385.11 1096.29,-391.9"/>
</g>
<!-- block&#45;&gt;state_storage -->
<g id="edge78" class="edge">
<title>block&#45;&gt;state_storage</title>
<path fill="none" stroke="black" d="M544.44,-516.74C488.15,-508.25 367.51,-488.26 330.84,-468 269.64,-434.18 216.96,-369.22 190.68,-333.01"/>
<polygon fill="black" stroke="black" points="193.81,-331.38 185.15,-325.27 188.11,-335.44 193.81,-331.38"/>
</g>
<!-- block&#45;&gt;reconfiguration -->
<g id="edge84" class="edge">
<title>block&#45;&gt;reconfiguration</title>
<path fill="none" stroke="black" d="M549.27,-510.82C523.44,-500.12 482.23,-483.05 450.43,-469.88"/>
<polygon fill="black" stroke="black" points="452.02,-466.75 441.44,-466.16 449.34,-473.22 452.02,-466.75"/>
</g>
<!-- chain_id -->
<g id="node15" class="node">
<title>chain_id</title>
<ellipse fill="none" stroke="black" cx="1258.84" cy="-378" rx="40.89" ry="18"/>
<text text-anchor="middle" x="1258.84" y="-374.3" font-family="Times,serif" font-size="14.00">chain_id</text>
</g>
<!-- chain_id&#45;&gt;system_addresses -->
<g id="edge14" class="edge">
<title>chain_id&#45;&gt;system_addresses</title>
<path fill="none" stroke="black" d="M1242.98,-361.07C1197.12,-315.17 1060.06,-179.11 940.84,-72 929.96,-62.22 917.71,-51.79 906.93,-42.79"/>
<polygon fill="black" stroke="black" points="909.37,-40.27 899.44,-36.58 904.9,-45.66 909.37,-40.27"/>
</g>
<!-- code -->
<g id="node16" class="node">
<title>code</title>
<ellipse fill="none" stroke="black" cx="2214.84" cy="-234" rx="27.1" ry="18"/>
<text text-anchor="middle" x="2214.84" y="-230.3" font-family="Times,serif" font-size="14.00">code</text>
</g>
<!-- code&#45;&gt;system_addresses -->
<g id="edge15" class="edge">
<title>code&#45;&gt;system_addresses</title>
<path fill="none" stroke="black" d="M2193.33,-222.83C2129.36,-193.14 1934.1,-106.57 1761.84,-72 1610.43,-41.61 1152.26,-26.28 962.04,-21.09"/>
<polygon fill="black" stroke="black" points="962.33,-17.59 952.24,-20.82 962.14,-24.59 962.33,-17.59"/>
</g>
<!-- consensus_config -->
<g id="node17" class="node">
<title>consensus_config</title>
<ellipse fill="none" stroke="black" cx="282.84" cy="-522" rx="73.39" ry="18"/>
<text text-anchor="middle" x="282.84" y="-518.3" font-family="Times,serif" font-size="14.00">consensus_config</text>
</g>
<!-- consensus_config&#45;&gt;system_addresses -->
<g id="edge16" class="edge">
<title>consensus_config&#45;&gt;system_addresses</title>
<path fill="none" stroke="black" d="M277.79,-503.68C270.48,-477.11 257.84,-424.56 257.84,-379 257.84,-379 257.84,-379 257.84,-161 257.84,-114.5 273.33,-96.52 312.84,-72 352.82,-47.19 647.73,-29.9 794.85,-22.72"/>
<polygon fill="black" stroke="black" points="794.71,-26.23 804.53,-22.25 794.37,-19.23 794.71,-26.23"/>
</g>
<!-- consensus_config&#45;&gt;reconfiguration -->
<g id="edge85" class="edge">
<title>consensus_config&#45;&gt;reconfiguration</title>
<path fill="none" stroke="black" d="M310.83,-504.94C327.69,-495.27 349.36,-482.83 367.65,-472.34"/>
<polygon fill="black" stroke="black" points="369.16,-475.51 376.09,-467.5 365.68,-469.44 369.16,-475.51"/>
</g>
<!-- gas_schedule -->
<g id="node18" class="node">
<title>gas_schedule</title>
<ellipse fill="none" stroke="black" cx="57.84" cy="-522" rx="57.69" ry="18"/>
<text text-anchor="middle" x="57.84" y="-518.3" font-family="Times,serif" font-size="14.00">gas_schedule</text>
</g>
<!-- gas_schedule&#45;&gt;system_addresses -->
<g id="edge17" class="edge">
<title>gas_schedule&#45;&gt;system_addresses</title>
<path fill="none" stroke="black" d="M50.56,-503.87C40.04,-477.53 21.84,-425.29 21.84,-379 21.84,-379 21.84,-379 21.84,-161 21.84,-105.68 58.63,-95.2 108.84,-72 169.75,-43.86 607.18,-27.28 793.81,-21.42"/>
<polygon fill="black" stroke="black" points="793.8,-24.92 803.69,-21.11 793.58,-17.93 793.8,-24.92"/>
</g>
<!-- gas_schedule&#45;&gt;storage_gas -->
<g id="edge81" class="edge">
<title>gas_schedule&#45;&gt;storage_gas</title>
<path fill="none" stroke="black" d="M63.24,-503.59C70.7,-479.5 84.26,-435.75 93.16,-407.03"/>
<polygon fill="black" stroke="black" points="96.48,-408.14 96.09,-397.56 89.79,-406.07 96.48,-408.14"/>
</g>
<!-- gas_schedule&#45;&gt;reconfiguration -->
<g id="edge86" class="edge">
<title>gas_schedule&#45;&gt;reconfiguration</title>
<path fill="none" stroke="black" d="M105.37,-511.41C166.91,-499 274.32,-477.33 342.4,-463.6"/>
<polygon fill="black" stroke="black" points="342.79,-467.09 351.9,-461.68 341.41,-460.23 342.79,-467.09"/>
</g>
<!-- vesting -->
<g id="node19" class="node">
<title>vesting</title>
<ellipse fill="none" stroke="black" cx="1869.84" cy="-522" rx="36.29" ry="18"/>
<text text-anchor="middle" x="1869.84" y="-518.3" font-family="Times,serif" font-size="14.00">vesting</text>
</g>
<!-- vesting&#45;&gt;system_addresses -->
<g id="edge18" class="edge">
<title>vesting&#45;&gt;system_addresses</title>
<path fill="none" stroke="black" d="M1895.5,-509.11C1900.51,-507.15 1905.78,-505.33 1910.84,-504 2042.05,-469.71 2092.48,-528.5 2213.84,-468 2316.97,-416.59 2347.59,-305.37 2274.84,-216 2212.3,-139.15 2157.82,-175.41 2063.84,-144 1966.27,-111.39 1944.96,-90.98 1843.84,-72 1676.04,-40.5 1165.52,-25.61 962.46,-20.81"/>
<polygon fill="black" stroke="black" points="962.58,-17.31 952.5,-20.58 962.41,-24.31 962.58,-17.31"/>
</g>
<!-- vesting&#45;&gt;account -->
<g id="edge30" class="edge">
<title>vesting&#45;&gt;account</title>
<path fill="none" stroke="black" d="M1906.08,-519.92C1962.37,-517.04 2073.15,-506.51 2157.84,-468 2215.72,-441.68 2269.84,-442.58 2269.84,-379 2269.84,-379 2269.84,-379 2269.84,-305 2269.84,-264.55 2281.59,-242.28 2250.84,-216 2194.6,-167.92 1659.71,-184.43 1585.84,-180 1512.94,-175.63 1428.5,-169.94 1376.63,-166.39"/>
<polygon fill="black" stroke="black" points="1377.16,-162.91 1366.95,-165.72 1376.68,-169.9 1377.16,-162.91"/>
</g>
<!-- vesting&#45;&gt;coin -->
<g id="edge41" class="edge">
<title>vesting&#45;&gt;coin</title>
<path fill="none" stroke="black" d="M1905.11,-517.18C1998.81,-505.53 2242.34,-464.66 2174.84,-360 2124.11,-281.33 1821.83,-247.68 1714.02,-238.07"/>
<polygon fill="black" stroke="black" points="1714.51,-234.6 1704.24,-237.22 1713.9,-241.58 1714.51,-234.6"/>
</g>
<!-- vesting&#45;&gt;aptos_coin -->
<g id="edge51" class="edge">
<title>vesting&#45;&gt;aptos_coin</title>
<path fill="none" stroke="black" d="M1873.72,-503.69C1876.98,-484.78 1879.35,-454.23 1866.84,-432 1835.54,-376.36 1768.01,-341.25 1722.23,-322.86"/>
<polygon fill="black" stroke="black" points="1723.67,-319.67 1713.08,-319.31 1721.14,-326.19 1723.67,-319.67"/>
</g>
<!-- vesting&#45;&gt;timestamp -->
<g id="edge63" class="edge">
<title>vesting&#45;&gt;timestamp</title>
<path fill="none" stroke="black" d="M1833.19,-521.39C1737.52,-521.64 1472.9,-517.44 1259.84,-468 1130.32,-437.95 1109.61,-393.14 980.84,-360 865.31,-330.26 831.47,-349.12 714.84,-324 711.47,-323.27 708.01,-322.45 704.53,-321.56"/>
<polygon fill="black" stroke="black" points="705.53,-318.2 694.96,-318.96 703.7,-324.96 705.53,-318.2"/>
</g>
<!-- vesting&#45;&gt;stake -->
<g id="edge74" class="edge">
<title>vesting&#45;&gt;stake</title>
<path fill="none" stroke="black" d="M1833.55,-519.97C1751.86,-517.01 1547.75,-506.1 1381.84,-468 1302.31,-449.74 1213.18,-413.93 1166.12,-393.74"/>
<polygon fill="black" stroke="black" points="1167.6,-390.57 1157.03,-389.81 1164.82,-396.99 1167.6,-390.57"/>
</g>
<!-- aptos_account -->
<g id="node23" class="node">
<title>aptos_account</title>
<ellipse fill="none" stroke="black" cx="1942.84" cy="-378" rx="61.19" ry="18"/>
<text text-anchor="middle" x="1942.84" y="-374.3" font-family="Times,serif" font-size="14.00">aptos_account</text>
</g>
<!-- vesting&#45;&gt;aptos_account -->
<g id="edge102" class="edge">
<title>vesting&#45;&gt;aptos_account</title>
<path fill="none" stroke="black" d="M1879.58,-504.44C1885.59,-494.07 1893.37,-480.36 1899.84,-468 1910.53,-447.61 1921.82,-424.15 1930.16,-406.43"/>
<polygon fill="black" stroke="black" points="1933.22,-408.14 1934.29,-397.6 1926.88,-405.17 1933.22,-408.14"/>
</g>
<!-- staking_contract -->
<g id="node25" class="node">
<title>staking_contract</title>
<ellipse fill="none" stroke="black" cx="1788.84" cy="-450" rx="68.79" ry="18"/>
<text text-anchor="middle" x="1788.84" y="-446.3" font-family="Times,serif" font-size="14.00">staking_contract</text>
</g>
<!-- vesting&#45;&gt;staking_contract -->
<g id="edge104" class="edge">
<title>vesting&#45;&gt;staking_contract</title>
<path fill="none" stroke="black" d="M1852.27,-505.81C1841.89,-496.84 1828.51,-485.28 1816.72,-475.09"/>
<polygon fill="black" stroke="black" points="1819.09,-472.51 1809.23,-468.62 1814.51,-477.8 1819.09,-472.51"/>
</g>
<!-- version -->
<g id="node20" class="node">
<title>version</title>
<ellipse fill="none" stroke="black" cx="410.84" cy="-522" rx="36.29" ry="18"/>
<text text-anchor="middle" x="410.84" y="-518.3" font-family="Times,serif" font-size="14.00">version</text>
</g>
<!-- version&#45;&gt;system_addresses -->
<g id="edge19" class="edge">
<title>version&#45;&gt;system_addresses</title>
<path fill="none" stroke="black" d="M384.74,-508.99C367.42,-499.88 345.3,-485.87 330.84,-468 304.11,-434.95 295.84,-421.5 295.84,-379 295.84,-379 295.84,-379 295.84,-161 295.84,-107.52 329.13,-96.17 376.84,-72 447.68,-36.11 670.09,-24.47 793.41,-20.73"/>
<polygon fill="black" stroke="black" points="793.25,-24.24 803.15,-20.45 793.05,-17.24 793.25,-24.24"/>
</g>
<!-- version&#45;&gt;reconfiguration -->
<g id="edge87" class="edge">
<title>version&#45;&gt;reconfiguration</title>
<path fill="none" stroke="black" d="M409.36,-503.7C408.74,-496.41 407.99,-487.73 407.29,-479.54"/>
<polygon fill="black" stroke="black" points="410.78,-479.28 406.44,-469.61 403.81,-479.87 410.78,-479.28"/>
</g>
<!-- transaction_fee -->
<g id="node21" class="node">
<title>transaction_fee</title>
<ellipse fill="none" stroke="black" cx="1571.84" cy="-378" rx="64.19" ry="18"/>
<text text-anchor="middle" x="1571.84" y="-374.3" font-family="Times,serif" font-size="14.00">transaction_fee</text>
</g>
<!-- transaction_fee&#45;&gt;system_addresses -->
<g id="edge20" class="edge">
<title>transaction_fee&#45;&gt;system_addresses</title>
<path fill="none" stroke="black" d="M1551.88,-360.46C1524.82,-336.06 1479.84,-287.58 1479.84,-235 1479.84,-235 1479.84,-235 1479.84,-161 1479.84,-120.03 1487.19,-98.37 1455.84,-72 1418.9,-40.92 1113.39,-26.67 962.09,-21.47"/>
<polygon fill="black" stroke="black" points="962.21,-17.97 952.1,-21.14 961.97,-24.97 962.21,-17.97"/>
</g>
<!-- transaction_fee&#45;&gt;coin -->
<g id="edge42" class="edge">
<title>transaction_fee&#45;&gt;coin</title>
<path fill="none" stroke="black" d="M1578.53,-359.89C1586.33,-341.17 1600.39,-310.78 1617.84,-288 1626.98,-276.07 1639,-264.6 1649.72,-255.39"/>
<polygon fill="black" stroke="black" points="1651.71,-258.29 1657.16,-249.2 1647.24,-252.9 1651.71,-258.29"/>
</g>
<!-- transaction_fee&#45;&gt;aptos_coin -->
<g id="edge52" class="edge">
<title>transaction_fee&#45;&gt;aptos_coin</title>
<path fill="none" stroke="black" d="M1595.7,-360.94C1610.01,-351.31 1628.37,-338.95 1643.92,-328.49"/>
<polygon fill="black" stroke="black" points="1645.57,-331.6 1651.91,-323.11 1641.66,-325.79 1645.57,-331.6"/>
</g>
<!-- transaction_validation -->
<g id="node22" class="node">
<title>transaction_validation</title>
<ellipse fill="none" stroke="black" cx="1479.84" cy="-450" rx="89.08" ry="18"/>
<text text-anchor="middle" x="1479.84" y="-446.3" font-family="Times,serif" font-size="14.00">transaction_validation</text>
</g>
<!-- transaction_validation&#45;&gt;system_addresses -->
<g id="edge21" class="edge">
<title>transaction_validation&#45;&gt;system_addresses</title>
<path fill="none" stroke="black" d="M1472.16,-431.91C1461.05,-405.62 1441.84,-353.45 1441.84,-307 1441.84,-307 1441.84,-307 1441.84,-161 1441.84,-63.11 1118.29,-32.04 961.31,-22.73"/>
<polygon fill="black" stroke="black" points="961.54,-19.24 951.36,-22.16 961.14,-26.23 961.54,-19.24"/>
</g>
<!-- transaction_validation&#45;&gt;account -->
<g id="edge31" class="edge">
<title>transaction_validation&#45;&gt;account</title>
<path fill="none" stroke="black" d="M1459.98,-432.08C1449.43,-422.33 1436.82,-409.38 1427.84,-396 1382.4,-328.23 1350.34,-236.44 1336.1,-190.95"/>
<polygon fill="black" stroke="black" points="1339.52,-190.15 1333.24,-181.61 1332.83,-192.2 1339.52,-190.15"/>
</g>
<!-- transaction_validation&#45;&gt;coin -->
<g id="edge43" class="edge">
<title>transaction_validation&#45;&gt;coin</title>
<path fill="none" stroke="black" d="M1480.08,-431.62C1481.09,-412.66 1484.97,-382.07 1498.84,-360 1533.39,-305.03 1601.8,-267.37 1642.71,-248.66"/>
<polygon fill="black" stroke="black" points="1643.88,-251.97 1651.6,-244.71 1641.04,-245.57 1643.88,-251.97"/>
</g>
<!-- transaction_validation&#45;&gt;aptos_coin -->
<g id="edge53" class="edge">
<title>transaction_validation&#45;&gt;aptos_coin</title>
<path fill="none" stroke="black" d="M1554.84,-439.9C1586.13,-432.62 1620.73,-419.54 1644.84,-396 1661.23,-380.01 1668.97,-354.9 1672.61,-335.43"/>
<polygon fill="black" stroke="black" points="1676.05,-336.08 1674.16,-325.65 1669.14,-334.98 1676.05,-336.08"/>
</g>
<!-- transaction_validation&#45;&gt;timestamp -->
<g id="edge64" class="edge">
<title>transaction_validation&#45;&gt;timestamp</title>
<path fill="none" stroke="black" d="M1390.8,-448.22C1275.45,-445.54 1068.79,-435.09 896.84,-396 824.15,-379.47 743.68,-346.18 697.12,-325.33"/>
<polygon fill="black" stroke="black" points="698.81,-322.25 688.26,-321.32 695.93,-328.63 698.81,-322.25"/>
</g>
<!-- transaction_validation&#45;&gt;chain_id -->
<g id="edge91" class="edge">
<title>transaction_validation&#45;&gt;chain_id</title>
<path fill="none" stroke="black" d="M1433.25,-434.24C1394.52,-421.97 1339.84,-404.65 1302.07,-392.69"/>
<polygon fill="black" stroke="black" points="1303.45,-389.46 1292.86,-389.77 1301.34,-396.13 1303.45,-389.46"/>
</g>
<!-- transaction_validation&#45;&gt;transaction_fee -->
<g id="edge99" class="edge">
<title>transaction_validation&#45;&gt;transaction_fee</title>
<path fill="none" stroke="black" d="M1501.65,-432.41C1513.53,-423.37 1528.43,-412.03 1541.45,-402.13"/>
<polygon fill="black" stroke="black" points="1543.47,-404.99 1549.31,-396.14 1539.23,-399.41 1543.47,-404.99"/>
</g>
<!-- aptos_account&#45;&gt;account -->
<g id="edge23" class="edge">
<title>aptos_account&#45;&gt;account</title>
<path fill="none" stroke="black" d="M1975.16,-362.41C1990.46,-353.65 2007.24,-340.88 2015.84,-324 2023.11,-309.75 2025.77,-300.55 2015.84,-288 1975.71,-237.25 1525.26,-184.33 1375.75,-168.06"/>
<polygon fill="black" stroke="black" points="1376.51,-164.62 1366.19,-167.02 1375.76,-171.58 1376.51,-164.62"/>
</g>
<!-- aptos_account&#45;&gt;coin -->
<g id="edge37" class="edge">
<title>aptos_account&#45;&gt;coin</title>
<path fill="none" stroke="black" d="M1965.18,-360.97C1988.38,-342.4 2018.7,-311.38 1998.84,-288 1962.72,-245.46 1791.89,-237 1714.32,-235.36"/>
<polygon fill="black" stroke="black" points="1714.72,-231.87 1704.66,-235.19 1714.59,-238.87 1714.72,-231.87"/>
</g>
<!-- aptos_account&#45;&gt;aptos_coin -->
<g id="edge47" class="edge">
<title>aptos_account&#45;&gt;aptos_coin</title>
<path fill="none" stroke="black" d="M1898.16,-365.28C1850.64,-352.83 1775.65,-333.17 1726.11,-320.18"/>
<polygon fill="black" stroke="black" points="1727.05,-316.81 1716.49,-317.66 1725.27,-323.58 1727.05,-316.81"/>
</g>
<!-- voting&#45;&gt;account -->
<g id="edge24" class="edge">
<title>voting&#45;&gt;account</title>
<path fill="none" stroke="black" d="M949.25,-360.49C971.02,-327.44 1024.77,-253.11 1089.84,-216 1149.2,-182.15 1228.34,-169.91 1278.7,-165.5"/>
<polygon fill="black" stroke="black" points="1278.73,-169 1288.42,-164.72 1278.17,-162.03 1278.73,-169"/>
</g>
<!-- voting&#45;&gt;timestamp -->
<g id="edge58" class="edge">
<title>voting&#45;&gt;timestamp</title>
<path fill="none" stroke="black" d="M908.27,-370.35C865.02,-360.81 783.57,-342.36 714.84,-324 711.71,-323.16 708.49,-322.28 705.25,-321.36"/>
<polygon fill="black" stroke="black" points="706.28,-318.02 695.7,-318.61 704.34,-324.74 706.28,-318.02"/>
</g>
<!-- staking_contract&#45;&gt;account -->
<g id="edge29" class="edge">
<title>staking_contract&#45;&gt;account</title>
<path fill="none" stroke="black" d="M1858.05,-449.9C1957.82,-449.55 2134.55,-442.2 2174.84,-396 2185.36,-383.94 2182.51,-374.04 2174.84,-360 2114.14,-248.8 2050.22,-252.29 1928.84,-216 1876.54,-200.36 1510.91,-175.05 1376.92,-166.19"/>
<polygon fill="black" stroke="black" points="1377.15,-162.69 1366.94,-165.53 1376.69,-169.68 1377.15,-162.69"/>
</g>
<!-- staking_contract&#45;&gt;coin -->
<g id="edge40" class="edge">
<title>staking_contract&#45;&gt;coin</title>
<path fill="none" stroke="black" d="M1806.59,-432.15C1815.42,-422.51 1825.18,-409.65 1829.84,-396 1835.02,-380.86 1834.9,-375.18 1829.84,-360 1817.2,-322.05 1806.25,-313.99 1775.84,-288 1756.1,-271.12 1730.07,-257.53 1709.52,-248.35"/>
<polygon fill="black" stroke="black" points="1710.99,-245.17 1700.42,-244.43 1708.22,-251.6 1710.99,-245.17"/>
</g>
<!-- staking_contract&#45;&gt;aptos_coin -->
<g id="edge50" class="edge">
<title>staking_contract&#45;&gt;aptos_coin</title>
<path fill="none" stroke="black" d="M1775.21,-431.87C1755.51,-407.11 1718.93,-361.14 1696.07,-332.42"/>
<polygon fill="black" stroke="black" points="1699.08,-330.58 1690.12,-324.93 1693.6,-334.94 1699.08,-330.58"/>
</g>
<!-- staking_contract&#45;&gt;staking_config -->
<g id="edge68" class="edge">
<title>staking_contract&#45;&gt;staking_config</title>
<path fill="none" stroke="black" d="M1733.5,-439C1675.13,-428.42 1580.48,-411.19 1498.84,-396 1414.35,-380.27 1393.9,-372.35 1308.84,-360 1148.7,-336.74 959.44,-320.24 858.59,-312.32"/>
<polygon fill="black" stroke="black" points="859.09,-308.85 848.84,-311.56 858.54,-315.83 859.09,-308.85"/>
</g>
<!-- staking_contract&#45;&gt;stake -->
<g id="edge73" class="edge">
<title>staking_contract&#45;&gt;stake</title>
<path fill="none" stroke="black" d="M1724.1,-443.56C1583.48,-431.67 1258.7,-403.82 1208.84,-396 1196.19,-394.02 1182.5,-391.17 1170.26,-388.38"/>
<polygon fill="black" stroke="black" points="1171.07,-384.97 1160.54,-386.09 1169.47,-391.79 1171.07,-384.97"/>
</g>
<!-- genesis -->
<g id="node26" class="node">
<title>genesis</title>
<ellipse fill="none" stroke="black" cx="938.84" cy="-594" rx="36.29" ry="18"/>
<text text-anchor="middle" x="938.84" y="-590.3" font-family="Times,serif" font-size="14.00">genesis</text>
</g>
<!-- genesis&#45;&gt;account -->
<g id="edge32" class="edge">
<title>genesis&#45;&gt;account</title>
<path fill="none" stroke="black" d="M972.95,-587.14C1049.93,-571.83 1236.12,-522.71 1308.84,-396 1346.31,-330.73 1339.47,-237.77 1332.85,-191.48"/>
<polygon fill="black" stroke="black" points="1336.33,-191.08 1331.34,-181.73 1329.41,-192.15 1336.33,-191.08"/>
</g>
<!-- genesis&#45;&gt;aggregator_factory -->
<g id="edge35" class="edge">
<title>genesis&#45;&gt;aggregator_factory</title>
<path fill="none" stroke="black" d="M975.32,-592.61C1104.17,-590.88 1549.87,-582.04 1914.84,-540 2109.16,-517.62 2345.84,-646.6 2345.84,-451 2345.84,-451 2345.84,-451 2345.84,-377 2345.84,-298.8 2335.63,-265.21 2274.84,-216 2196.17,-152.3 1902.64,-114.16 1757.77,-98.84"/>
<polygon fill="black" stroke="black" points="1758.15,-95.36 1747.84,-97.8 1757.42,-102.32 1758.15,-95.36"/>
</g>
<!-- genesis&#45;&gt;coin -->
<g id="edge44" class="edge">
<title>genesis&#45;&gt;coin</title>
<path fill="none" stroke="black" d="M975.3,-592.18C1089.2,-589.25 1437.15,-577.38 1542.84,-540 1663.66,-497.27 1700.4,-447.71 1733.84,-324 1738.02,-308.55 1740.3,-302.64 1733.84,-288 1727.74,-274.15 1716.04,-262.35 1704.73,-253.43"/>
<polygon fill="black" stroke="black" points="1706.81,-250.62 1696.68,-247.52 1702.67,-256.26 1706.81,-250.62"/>
</g>
<!-- genesis&#45;&gt;aptos_coin -->
<g id="edge54" class="edge">
<title>genesis&#45;&gt;aptos_coin</title>
<path fill="none" stroke="black" d="M975.18,-591.74C1081.6,-587.71 1391,-573.35 1485.84,-540 1583.48,-505.67 1625.19,-489.84 1668.84,-396 1677.6,-377.18 1679.11,-353.71 1678.56,-335.59"/>
<polygon fill="black" stroke="black" points="1682.07,-335.59 1678.02,-325.8 1675.08,-335.98 1682.07,-335.59"/>
</g>
<!-- genesis&#45;&gt;chain_status -->
<g id="edge57" class="edge">
<title>genesis&#45;&gt;chain_status</title>
<path fill="none" stroke="black" d="M902.47,-592.52C814.4,-590.7 592.65,-581.97 533.84,-540 530.86,-537.87 489.11,-452.04 467.15,-406.59"/>
<polygon fill="black" stroke="black" points="470.31,-405.09 462.81,-397.61 464.01,-408.14 470.31,-405.09"/>
</g>
<!-- genesis&#45;&gt;timestamp -->
<g id="edge65" class="edge">
<title>genesis&#45;&gt;timestamp</title>
<path fill="none" stroke="black" d="M909.88,-582.91C886.55,-573.91 853.66,-559.2 828.84,-540 753.74,-481.89 696.22,-382.36 671.34,-334.4"/>
<polygon fill="black" stroke="black" points="674.47,-332.85 666.81,-325.53 668.24,-336.03 674.47,-332.85"/>
</g>
<!-- genesis&#45;&gt;staking_config -->
<g id="edge69" class="edge">
<title>genesis&#45;&gt;staking_config</title>
<path fill="none" stroke="black" d="M912.09,-581.45C894.04,-572.47 870.86,-558.42 855.84,-540 806.08,-478.92 792.2,-382.97 788.34,-335.52"/>
<polygon fill="black" stroke="black" points="791.85,-335.52 787.64,-325.8 784.86,-336.02 791.85,-335.52"/>
</g>
<!-- genesis&#45;&gt;stake -->
<g id="edge75" class="edge">
<title>genesis&#45;&gt;stake</title>
<path fill="none" stroke="black" d="M964.02,-580.63C1000.16,-561.54 1066.31,-521.46 1101.84,-468 1114.1,-449.56 1122.06,-425.74 1126.85,-407.38"/>
<polygon fill="black" stroke="black" points="1130.24,-408.23 1129.19,-397.69 1123.44,-406.59 1130.24,-408.23"/>
</g>
<!-- genesis&#45;&gt;state_storage -->
<g id="edge79" class="edge">
<title>genesis&#45;&gt;state_storage</title>
<path fill="none" stroke="black" d="M902.2,-593.04C760.26,-592.85 251.98,-588.75 200.84,-540 172.06,-512.57 170.89,-391.53 171.96,-335.56"/>
<polygon fill="black" stroke="black" points="175.45,-335.95 172.19,-325.87 168.46,-335.78 175.45,-335.95"/>
</g>
<!-- genesis&#45;&gt;storage_gas -->
<g id="edge82" class="edge">
<title>genesis&#45;&gt;storage_gas</title>
<path fill="none" stroke="black" d="M902.43,-592.73C757.67,-591.34 227.88,-583.34 167.84,-540 124.85,-508.97 109.79,-444.82 104.57,-407.54"/>
<polygon fill="black" stroke="black" points="108.08,-407.45 103.38,-397.96 101.14,-408.31 108.08,-407.45"/>
</g>
<!-- genesis&#45;&gt;reconfiguration -->
<g id="edge88" class="edge">
<title>genesis&#45;&gt;reconfiguration</title>
<path fill="none" stroke="black" d="M902.59,-591.55C810.61,-587.41 570.41,-573.6 498.84,-540 490.48,-536.07 454.09,-500.48 429.12,-475.52"/>
<polygon fill="black" stroke="black" points="431.75,-473.2 422.21,-468.59 426.8,-478.14 431.75,-473.2"/>
</g>
<!-- genesis&#45;&gt;aptos_governance -->
<g id="edge89" class="edge">
<title>genesis&#45;&gt;aptos_governance</title>
<path fill="none" stroke="black" d="M938.84,-575.7C938.84,-568.41 938.84,-559.73 938.84,-551.54"/>
<polygon fill="black" stroke="black" points="942.34,-551.62 938.84,-541.62 935.34,-551.62 942.34,-551.62"/>
</g>
<!-- genesis&#45;&gt;block -->
<g id="edge90" class="edge">
<title>genesis&#45;&gt;block</title>
<path fill="none" stroke="black" d="M905.49,-586.6C838.17,-573.69 686.31,-544.57 613.82,-530.67"/>
<polygon fill="black" stroke="black" points="614.86,-527.3 604.38,-528.86 613.54,-534.18 614.86,-527.3"/>
</g>
<!-- genesis&#45;&gt;chain_id -->
<g id="edge92" class="edge">
<title>genesis&#45;&gt;chain_id</title>
<path fill="none" stroke="black" d="M968.55,-583.31C994.86,-574.09 1033.8,-558.84 1064.84,-540 1131.76,-499.39 1199.86,-436.94 1234.84,-402.99"/>
<polygon fill="black" stroke="black" points="1237.22,-405.56 1241.91,-396.06 1232.32,-400.56 1237.22,-405.56"/>
</g>
<!-- genesis&#45;&gt;consensus_config -->
<g id="edge94" class="edge">
<title>genesis&#45;&gt;consensus_config</title>
<path fill="none" stroke="black" d="M902.81,-591.05C812.2,-585.83 567.69,-569.91 365.84,-540 359.75,-539.1 353.43,-538.03 347.12,-536.89"/>
<polygon fill="black" stroke="black" points="347.79,-533.45 337.31,-535.03 346.49,-540.33 347.79,-533.45"/>
</g>
<!-- genesis&#45;&gt;gas_schedule -->
<g id="edge95" class="edge">
<title>genesis&#45;&gt;gas_schedule</title>
<path fill="none" stroke="black" d="M902.33,-592.77C787.8,-591.57 425.65,-584.3 129.84,-540 123.89,-539.11 117.7,-537.97 111.57,-536.71"/>
<polygon fill="black" stroke="black" points="112.63,-533.36 102.12,-534.66 111.15,-540.2 112.63,-533.36"/>
</g>
<!-- genesis&#45;&gt;vesting -->
<g id="edge96" class="edge">
<title>genesis&#45;&gt;vesting</title>
<path fill="none" stroke="black" d="M975.13,-591.7C1089.79,-587.38 1454.5,-571.9 1754.84,-540 1777.87,-537.55 1803.36,-533.89 1824.48,-530.58"/>
<polygon fill="black" stroke="black" points="1824.9,-534.06 1834.23,-529.03 1823.8,-527.15 1824.9,-534.06"/>
</g>
<!-- genesis&#45;&gt;version -->
<g id="edge98" class="edge">
<title>genesis&#45;&gt;version</title>
<path fill="none" stroke="black" d="M902.43,-591.66C821.9,-588.11 623.03,-576.11 460.84,-540 457.27,-539.2 453.58,-538.24 449.92,-537.18"/>
<polygon fill="black" stroke="black" points="451.13,-533.89 440.54,-534.25 449.04,-540.57 451.13,-533.89"/>
</g>
<!-- genesis&#45;&gt;transaction_fee -->
<g id="edge100" class="edge">
<title>genesis&#45;&gt;transaction_fee</title>
<path fill="none" stroke="black" d="M975.18,-592.21C1054.08,-589.77 1246.48,-579.86 1401.84,-540 1483.71,-519 1530.74,-538.17 1577.84,-468 1589.71,-450.32 1587.1,-425.97 1582.14,-407.2"/>
<polygon fill="black" stroke="black" points="1585.55,-406.36 1579.3,-397.8 1578.85,-408.39 1585.55,-406.36"/>
</g>
<!-- genesis&#45;&gt;transaction_validation -->
<g id="edge101" class="edge">
<title>genesis&#45;&gt;transaction_validation</title>
<path fill="none" stroke="black" d="M974.76,-590.77C1062.99,-584.91 1288.25,-567.64 1357.84,-540 1395.01,-525.24 1431.19,-496.48 1454.37,-475.64"/>
<polygon fill="black" stroke="black" points="1456.49,-478.45 1461.48,-469.11 1451.75,-473.29 1456.49,-478.45"/>
</g>
<!-- genesis&#45;&gt;staking_contract -->
<g id="edge105" class="edge">
<title>genesis&#45;&gt;staking_contract</title>
<path fill="none" stroke="black" d="M975.17,-592.05C1118.4,-588.1 1639.42,-571.65 1705.84,-540 1734.33,-526.43 1757.83,-498.4 1772.46,-477.4"/>
<polygon fill="black" stroke="black" points="1775.23,-479.56 1777.89,-469.3 1769.42,-475.66 1775.23,-479.56"/>
</g>
<!-- resource_account -->
<g id="node27" class="node">
<title>resource_account</title>
<ellipse fill="none" stroke="black" cx="2093.84" cy="-378" rx="72.29" ry="18"/>
<text text-anchor="middle" x="2093.84" y="-374.3" font-family="Times,serif" font-size="14.00">resource_account</text>
</g>
<!-- resource_account&#45;&gt;account -->
<g id="edge33" class="edge">
<title>resource_account&#45;&gt;account</title>
<path fill="none" stroke="black" d="M2085.88,-359.65C2076,-339.85 2057.41,-307.67 2032.84,-288 1965.59,-234.14 1936.53,-236.53 1852.84,-216 1763.26,-194.02 1489.76,-173.83 1377.12,-166.21"/>
<polygon fill="black" stroke="black" points="1377.5,-162.73 1367.29,-165.55 1377.03,-169.71 1377.5,-162.73"/>
</g>
<!-- resource_account&#45;&gt;coin -->
<g id="edge46" class="edge">
<title>resource_account&#45;&gt;coin</title>
<path fill="none" stroke="black" d="M2039.87,-365.6C1972.52,-351.28 1865.1,-328.08 1856.84,-324 1834.49,-312.97 1835.33,-300.64 1813.84,-288 1781.14,-268.75 1740.17,-254.06 1711.4,-245.08"/>
<polygon fill="black" stroke="black" points="1712.67,-241.81 1702.08,-242.25 1710.63,-248.5 1712.67,-241.81"/>
</g>
<!-- resource_account&#45;&gt;aptos_coin -->
<g id="edge55" class="edge">
<title>resource_account&#45;&gt;aptos_coin</title>
<path fill="none" stroke="black" d="M2040.76,-365.46C2031.48,-363.55 2021.89,-361.66 2012.84,-360 1914.55,-341.97 1799.42,-324.68 1732.36,-314.99"/>
<polygon fill="black" stroke="black" points="1733.11,-311.56 1722.71,-313.6 1732.11,-318.49 1733.11,-311.56"/>
</g>
<!-- resource_account&#45;&gt;code -->
<g id="edge93" class="edge">
<title>resource_account&#45;&gt;code</title>
<path fill="none" stroke="black" d="M2108.2,-360.15C2129.67,-334.96 2170.21,-287.38 2194.65,-258.7"/>
<polygon fill="black" stroke="black" points="2197.17,-261.13 2201,-251.25 2191.85,-256.59 2197.17,-261.13"/>
</g>
<!-- optional_aggregator&#45;&gt;aggregator_factory -->
<g id="edge34" class="edge">
<title>optional_aggregator&#45;&gt;aggregator_factory</title>
<path fill="none" stroke="black" d="M1675.84,-143.7C1675.84,-136.41 1675.84,-127.73 1675.84,-119.54"/>
<polygon fill="black" stroke="black" points="1679.34,-119.62 1675.84,-109.62 1672.34,-119.62 1679.34,-119.62"/>
</g>
<!-- managed_coin -->
<g id="node29" class="node">
<title>managed_coin</title>
<ellipse fill="none" stroke="black" cx="1927.84" cy="-306" rx="62.29" ry="18"/>
<text text-anchor="middle" x="1927.84" y="-302.3" font-family="Times,serif" font-size="14.00">managed_coin</text>
</g>
<!-- managed_coin&#45;&gt;coin -->
<g id="edge45" class="edge">
<title>managed_coin&#45;&gt;coin</title>
<path fill="none" stroke="black" d="M1883.95,-292.81C1835.04,-279.22 1756.91,-257.52 1711.58,-244.93"/>
<polygon fill="black" stroke="black" points="1712.56,-241.57 1701.99,-242.26 1710.69,-248.31 1712.56,-241.57"/>
</g>
<!-- staking_proxy -->
<g id="node30" class="node">
<title>staking_proxy</title>
<ellipse fill="none" stroke="black" cx="1788.84" cy="-594" rx="61.19" ry="18"/>
<text text-anchor="middle" x="1788.84" y="-590.3" font-family="Times,serif" font-size="14.00">staking_proxy</text>
</g>
<!-- staking_proxy&#45;&gt;stake -->
<g id="edge76" class="edge">
<title>staking_proxy&#45;&gt;stake</title>
<path fill="none" stroke="black" d="M1732.56,-586.5C1633.9,-573.64 1424.84,-539.73 1262.84,-468 1223.37,-450.52 1183.15,-420.76 1158.12,-400.51"/>
<polygon fill="black" stroke="black" points="1160.41,-397.87 1150.47,-394.22 1155.97,-403.28 1160.41,-397.87"/>
</g>
<!-- staking_proxy&#45;&gt;vesting -->
<g id="edge97" class="edge">
<title>staking_proxy&#45;&gt;vesting</title>
<path fill="none" stroke="black" d="M1807.63,-576.76C1818.36,-567.5 1831.97,-555.73 1843.72,-545.58"/>
<polygon fill="black" stroke="black" points="1845.85,-548.37 1851.12,-539.18 1841.27,-543.07 1845.85,-548.37"/>
</g>
<!-- staking_proxy&#45;&gt;staking_contract -->
<g id="edge106" class="edge">
<title>staking_proxy&#45;&gt;staking_contract</title>
<path fill="none" stroke="black" d="M1788.84,-575.59C1788.84,-551.61 1788.84,-508.14 1788.84,-479.42"/>
<polygon fill="black" stroke="black" points="1792.34,-479.62 1788.84,-469.62 1785.34,-479.62 1792.34,-479.62"/>
</g>
</g>
</svg>
