<?xml version="1.0" encoding="UTF-8" standalone="no"?>
<!DOCTYPE svg PUBLIC "-//W3C//DTD SVG 1.1//EN"
 "http://www.w3.org/Graphics/SVG/1.1/DTD/svg11.dtd">
<!-- Generated by graphviz version 7.0.0 (20221023.0053)
 -->
<!-- Title: G Pages: 1 -->
<svg width="3987pt" height="634pt"
 viewBox="0.00 0.00 3987.00 634.00" xmlns="http://www.w3.org/2000/svg" xmlns:xlink="http://www.w3.org/1999/xlink">
<g id="graph0" class="graph" transform="scale(1 1) rotate(0) translate(4 630)">
<title>G</title>
<polygon fill="white" stroke="none" points="-4,4 -4,-630 3983,-630 3983,4 -4,4"/>
<g id="clust5" class="cluster">
<title>cluster_transaction_validation</title>
<polygon fill="none" stroke="black" points="3228,-64 3228,-211 3783,-211 3783,-64 3228,-64"/>
<text text-anchor="middle" x="3505.5" y="-195.8" font-family="Times,serif" font-size="14.00">transaction_validation</text>
</g>
<g id="clust1" class="cluster">
<title>cluster_voting</title>
<polygon fill="none" stroke="black" points="723,-64 723,-377 962,-377 962,-64 723,-64"/>
<text text-anchor="middle" x="842.5" y="-361.8" font-family="Times,serif" font-size="14.00">voting</text>
</g>
<g id="clust2" class="cluster">
<title>cluster_stake</title>
<polygon fill="none" stroke="black" points="1104,-64 1104,-211 1743,-211 1743,-64 1104,-64"/>
<text text-anchor="middle" x="1423.5" y="-195.8" font-family="Times,serif" font-size="14.00">stake</text>
</g>
<g id="clust3" class="cluster">
<title>cluster_aptos_governance</title>
<polygon fill="none" stroke="black" points="8,-302 8,-460 715,-460 715,-302 8,-302"/>
<text text-anchor="middle" x="361.5" y="-444.8" font-family="Times,serif" font-size="14.00">aptos_governance</text>
</g>
<g id="clust4" class="cluster">
<title>cluster_vesting</title>
<polygon fill="none" stroke="black" points="2486,-302 2486,-543 3464,-543 3464,-302 2486,-302"/>
<text text-anchor="middle" x="2975" y="-527.8" font-family="Times,serif" font-size="14.00">vesting</text>
</g>
<g id="clust6" class="cluster">
<title>cluster_staking_contract</title>
<polygon fill="none" stroke="black" points="1864,-136 1864,-377 2478,-377 2478,-136 1864,-136"/>
<text text-anchor="middle" x="2171" y="-361.8" font-family="Times,serif" font-size="14.00">staking_contract</text>
</g>
<g id="clust7" class="cluster">
<title>cluster_reconfiguration</title>
<polygon fill="none" stroke="black" points="1353,-219 1353,-294 1471,-294 1471,-219 1353,-219"/>
<text text-anchor="middle" x="1412" y="-278.8" font-family="Times,serif" font-size="14.00">reconfiguration</text>
</g>
<g id="clust8" class="cluster">
<title>cluster_genesis</title>
<polygon fill="none" stroke="black" points="813,-385 813,-618 1269,-618 1269,-385 813,-385"/>
<text text-anchor="middle" x="1041" y="-602.8" font-family="Times,serif" font-size="14.00">genesis</text>
</g>
<g id="clust9" class="cluster">
<title>cluster_block</title>
<polygon fill="none" stroke="black" points="1587,-302 1587,-377 1735,-377 1735,-302 1587,-302"/>
<text text-anchor="middle" x="1661" y="-361.8" font-family="Times,serif" font-size="14.00">block</text>
</g>
<g id="clust10" class="cluster">
<title>cluster_consensus_config</title>
<polygon fill="none" stroke="black" points="1743,-302 1743,-377 1856,-377 1856,-302 1743,-302"/>
<text text-anchor="middle" x="1799.5" y="-361.8" font-family="Times,serif" font-size="14.00">consensus_config</text>
</g>
<g id="clust11" class="cluster">
<title>cluster_gas_schedule</title>
<polygon fill="none" stroke="black" points="1091,-302 1091,-377 1453,-377 1453,-302 1091,-302"/>
<text text-anchor="middle" x="1272" y="-361.8" font-family="Times,serif" font-size="14.00">gas_schedule</text>
</g>
<g id="clust12" class="cluster">
<title>cluster_version</title>
<polygon fill="none" stroke="black" points="1461,-302 1461,-377 1579,-377 1579,-302 1461,-302"/>
<text text-anchor="middle" x="1520" y="-361.8" font-family="Times,serif" font-size="14.00">version</text>
</g>
<g id="clust13" class="cluster">
<title>cluster_staking_proxy</title>
<polygon fill="none" stroke="black" points="3472,-468 3472,-618 3971,-618 3971,-468 3472,-468"/>
<text text-anchor="middle" x="3721.5" y="-602.8" font-family="Times,serif" font-size="14.00">staking_proxy</text>
</g>
<!-- now_seconds -->
<g id="node1" class="node">
<title>now_seconds</title>
<ellipse fill="none" stroke="black" cx="1109" cy="-18" rx="57.69" ry="18"/>
<text text-anchor="middle" x="1109" y="-14.3" font-family="Times,serif" font-size="14.00">now_seconds</text>
</g>
<!-- voting::create_proposal -->
<g id="node2" class="node">
<title>voting::create_proposal</title>
<ellipse fill="none" stroke="black" cx="797" cy="-328" rx="66.09" ry="18"/>
<text text-anchor="middle" x="797" y="-324.3" font-family="Times,serif" font-size="14.00">create_proposal</text>
</g>
<!-- voting::create_proposal&#45;&gt;now_seconds -->
<g id="edge1" class="edge">
<title>voting::create_proposal&#45;&gt;now_seconds</title>
<path fill="none" stroke="black" d="M835.76,-313.14C847.61,-309.2 860.76,-305.14 873,-302 891.83,-297.17 900.51,-305.75 916,-294 1006.73,-225.16 950.74,-146.75 1029,-64 1038.94,-53.49 1051.88,-44.78 1064.45,-37.91"/>
<polygon fill="black" stroke="black" points="1065.75,-41.18 1073.04,-33.49 1062.55,-34.96 1065.75,-41.18"/>
</g>
<!-- voting::is_voting_period_over -->
<g id="node3" class="node">
<title>voting::is_voting_period_over</title>
<ellipse fill="none" stroke="black" cx="853" cy="-90" rx="90.18" ry="18"/>
<text text-anchor="middle" x="853" y="-86.3" font-family="Times,serif" font-size="14.00">is_voting_period_over</text>
</g>
<!-- voting::is_voting_period_over&#45;&gt;now_seconds -->
<g id="edge2" class="edge">
<title>voting::is_voting_period_over&#45;&gt;now_seconds</title>
<path fill="none" stroke="black" d="M904.81,-74.83C948.71,-62.83 1011.43,-45.68 1055.74,-33.56"/>
<polygon fill="black" stroke="black" points="1056.41,-37.01 1065.13,-31 1054.56,-30.26 1056.41,-37.01"/>
</g>
<!-- voting::resolve -->
<g id="node4" class="node">
<title>voting::resolve</title>
<ellipse fill="none" stroke="black" cx="918" cy="-328" rx="36.29" ry="18"/>
<text text-anchor="middle" x="918" y="-324.3" font-family="Times,serif" font-size="14.00">resolve</text>
</g>
<!-- voting::resolve&#45;&gt;now_seconds -->
<g id="edge3" class="edge">
<title>voting::resolve&#45;&gt;now_seconds</title>
<path fill="none" stroke="black" d="M944.31,-315.14C953.77,-309.81 963.86,-302.72 971,-294 1040.12,-209.54 994.69,-153.6 1057,-64 1062.58,-55.97 1069.92,-48.47 1077.32,-41.98"/>
<polygon fill="black" stroke="black" points="1079.28,-44.9 1084.76,-35.83 1074.82,-39.5 1079.28,-44.9"/>
</g>
<!-- voting::get_proposal_state -->
<g id="node28" class="node">
<title>voting::get_proposal_state</title>
<ellipse fill="none" stroke="black" cx="830" cy="-245" rx="76.89" ry="18"/>
<text text-anchor="middle" x="830" y="-241.3" font-family="Times,serif" font-size="14.00">get_proposal_state</text>
</g>
<!-- voting::resolve&#45;&gt;voting::get_proposal_state -->
<g id="edge43" class="edge">
<title>voting::resolve&#45;&gt;voting::get_proposal_state</title>
<path fill="none" stroke="black" d="M901.45,-311.76C888.8,-300.12 871.1,-283.83 856.49,-270.38"/>
<polygon fill="black" stroke="black" points="859.14,-268.07 849.41,-263.87 854.4,-273.22 859.14,-268.07"/>
</g>
<!-- voting::vote -->
<g id="node5" class="node">
<title>voting::vote</title>
<ellipse fill="none" stroke="black" cx="758" cy="-162" rx="27" ry="18"/>
<text text-anchor="middle" x="758" y="-158.3" font-family="Times,serif" font-size="14.00">vote</text>
</g>
<!-- voting::vote&#45;&gt;now_seconds -->
<g id="edge4" class="edge">
<title>voting::vote&#45;&gt;now_seconds</title>
<path fill="none" stroke="black" d="M751.06,-144.29C743.43,-122.91 734.61,-86 754,-64 772.64,-42.84 943.41,-29.06 1041.14,-22.84"/>
<polygon fill="black" stroke="black" points="1041.12,-26.34 1050.88,-22.23 1040.68,-19.36 1041.12,-26.34"/>
</g>
<!-- voting::vote&#45;&gt;voting::is_voting_period_over -->
<g id="edge16" class="edge">
<title>voting::vote&#45;&gt;voting::is_voting_period_over</title>
<path fill="none" stroke="black" d="M775.42,-148.16C788.2,-138.75 805.91,-125.7 821.18,-114.45"/>
<polygon fill="black" stroke="black" points="823.11,-117.37 829.09,-108.62 818.96,-111.73 823.11,-117.37"/>
</g>
<!-- stake::get_remaining_lockup_secs -->
<g id="node6" class="node">
<title>stake::get_remaining_lockup_secs</title>
<ellipse fill="none" stroke="black" cx="1221" cy="-162" rx="109.38" ry="18"/>
<text text-anchor="middle" x="1221" y="-158.3" font-family="Times,serif" font-size="14.00">get_remaining_lockup_secs</text>
</g>
<!-- stake::get_remaining_lockup_secs&#45;&gt;now_seconds -->
<g id="edge5" class="edge">
<title>stake::get_remaining_lockup_secs&#45;&gt;now_seconds</title>
<path fill="none" stroke="black" d="M1180.66,-144.93C1163.7,-136.3 1145.13,-124.09 1133,-108 1119.88,-90.6 1113.93,-66.53 1111.23,-47.81"/>
<polygon fill="black" stroke="black" points="1114.71,-47.42 1110.06,-37.9 1107.76,-48.25 1114.71,-47.42"/>
</g>
<!-- stake::increase_lockup_with_cap -->
<g id="node7" class="node">
<title>stake::increase_lockup_with_cap</title>
<ellipse fill="none" stroke="black" cx="1451" cy="-90" rx="104.78" ry="18"/>
<text text-anchor="middle" x="1451" y="-86.3" font-family="Times,serif" font-size="14.00">increase_lockup_with_cap</text>
</g>
<!-- stake::increase_lockup_with_cap&#45;&gt;now_seconds -->
<g id="edge6" class="edge">
<title>stake::increase_lockup_with_cap&#45;&gt;now_seconds</title>
<path fill="none" stroke="black" d="M1389.18,-75.05C1372.58,-71.37 1354.62,-67.47 1338,-64 1280.47,-51.99 1214.62,-39.14 1168.35,-30.26"/>
<polygon fill="black" stroke="black" points="1169.28,-26.88 1158.8,-28.43 1167.97,-33.75 1169.28,-26.88"/>
</g>
<!-- stake::on_new_epoch -->
<g id="node8" class="node">
<title>stake::on_new_epoch</title>
<ellipse fill="none" stroke="black" cx="1412" cy="-162" rx="63.89" ry="18"/>
<text text-anchor="middle" x="1412" y="-158.3" font-family="Times,serif" font-size="14.00">on_new_epoch</text>
</g>
<!-- stake::on_new_epoch&#45;&gt;now_seconds -->
<g id="edge7" class="edge">
<title>stake::on_new_epoch&#45;&gt;now_seconds</title>
<path fill="none" stroke="black" d="M1374.85,-146.92C1363.47,-142.97 1350.83,-138.96 1339,-136 1263.44,-117.09 1231.12,-150.74 1166,-108 1154.16,-100.23 1135.88,-69.47 1123.22,-46.27"/>
<polygon fill="black" stroke="black" points="1126.38,-44.75 1118.56,-37.59 1120.21,-48.06 1126.38,-44.75"/>
</g>
<!-- stake::update_stake_pool -->
<g id="node9" class="node">
<title>stake::update_stake_pool</title>
<ellipse fill="none" stroke="black" cx="1252" cy="-90" rx="76.89" ry="18"/>
<text text-anchor="middle" x="1252" y="-86.3" font-family="Times,serif" font-size="14.00">update_stake_pool</text>
</g>
<!-- stake::on_new_epoch&#45;&gt;stake::update_stake_pool -->
<g id="edge23" class="edge">
<title>stake::on_new_epoch&#45;&gt;stake::update_stake_pool</title>
<path fill="none" stroke="black" d="M1378.46,-146.33C1354.94,-136.04 1323.23,-122.16 1297.44,-110.88"/>
<polygon fill="black" stroke="black" points="1299.11,-107.79 1288.55,-106.99 1296.3,-114.2 1299.11,-107.79"/>
</g>
<!-- stake::update_stake_pool&#45;&gt;now_seconds -->
<g id="edge8" class="edge">
<title>stake::update_stake_pool&#45;&gt;now_seconds</title>
<path fill="none" stroke="black" d="M1219.91,-73.29C1199.01,-63.06 1171.58,-49.63 1149.22,-38.69"/>
<polygon fill="black" stroke="black" points="1150.91,-35.62 1140.39,-34.37 1147.83,-41.91 1150.91,-35.62"/>
</g>
<!-- stake::withdraw_with_cap -->
<g id="node10" class="node">
<title>stake::withdraw_with_cap</title>
<ellipse fill="none" stroke="black" cx="1654" cy="-90" rx="80.69" ry="18"/>
<text text-anchor="middle" x="1654" y="-86.3" font-family="Times,serif" font-size="14.00">withdraw_with_cap</text>
</g>
<!-- stake::withdraw_with_cap&#45;&gt;now_seconds -->
<g id="edge9" class="edge">
<title>stake::withdraw_with_cap&#45;&gt;now_seconds</title>
<path fill="none" stroke="black" d="M1609.09,-74.73C1595.09,-70.73 1579.51,-66.73 1565,-64 1428.88,-38.37 1266.98,-26.79 1177.33,-22"/>
<polygon fill="black" stroke="black" points="1177.65,-18.51 1167.48,-21.49 1177.29,-25.5 1177.65,-18.51"/>
</g>
<!-- aptos_governance::create_proposal -->
<g id="node11" class="node">
<title>aptos_governance::create_proposal</title>
<ellipse fill="none" stroke="black" cx="82" cy="-411" rx="66.09" ry="18"/>
<text text-anchor="middle" x="82" y="-407.3" font-family="Times,serif" font-size="14.00">create_proposal</text>
</g>
<!-- aptos_governance::create_proposal&#45;&gt;now_seconds -->
<g id="edge10" class="edge">
<title>aptos_governance::create_proposal&#45;&gt;now_seconds</title>
<path fill="none" stroke="black" d="M88.44,-393.05C99.05,-363.6 119,-300.87 119,-246 119,-246 119,-246 119,-161 119,-67.72 816.56,-30.99 1040.61,-21.59"/>
<polygon fill="black" stroke="black" points="1040.5,-25.1 1050.34,-21.19 1040.21,-18.11 1040.5,-25.1"/>
</g>
<!-- aptos_governance::create_proposal&#45;&gt;voting::create_proposal -->
<g id="edge14" class="edge">
<title>aptos_governance::create_proposal&#45;&gt;voting::create_proposal</title>
<path fill="none" stroke="black" d="M118.05,-395.49C130.21,-391.27 144.01,-387.2 157,-385 218.57,-374.56 659.03,-394.44 719,-377 736.49,-371.91 753.95,-361.77 767.9,-352.11"/>
<polygon fill="black" stroke="black" points="769.67,-355.15 775.73,-346.45 765.57,-349.47 769.67,-355.15"/>
</g>
<!-- vesting::create_vesting_schedule -->
<g id="node12" class="node">
<title>vesting::create_vesting_schedule</title>
<ellipse fill="none" stroke="black" cx="3359" cy="-494" rx="96.68" ry="18"/>
<text text-anchor="middle" x="3359" y="-490.3" font-family="Times,serif" font-size="14.00">create_vesting_schedule</text>
</g>
<!-- vesting::create_vesting_schedule&#45;&gt;now_seconds -->
<g id="edge11" class="edge">
<title>vesting::create_vesting_schedule&#45;&gt;now_seconds</title>
<path fill="none" stroke="black" d="M3326.98,-476.64C3282.65,-451.44 3208,-398.67 3208,-329 3208,-329 3208,-329 3208,-161 3208,-56.84 1540.89,-25.55 1178.13,-19.98"/>
<polygon fill="black" stroke="black" points="1178.35,-16.48 1168.29,-19.83 1178.24,-23.48 1178.35,-16.48"/>
</g>
<!-- vesting::vest -->
<g id="node13" class="node">
<title>vesting::vest</title>
<ellipse fill="none" stroke="black" cx="2651" cy="-494" rx="27" ry="18"/>
<text text-anchor="middle" x="2651" y="-490.3" font-family="Times,serif" font-size="14.00">vest</text>
</g>
<!-- vesting::vest&#45;&gt;now_seconds -->
<g id="edge12" class="edge">
<title>vesting::vest&#45;&gt;now_seconds</title>
<path fill="none" stroke="black" d="M2635.2,-479.24C2629.25,-474.86 2622.19,-470.5 2615,-468 2587.66,-458.51 2513.89,-461.78 2485,-460 1946.33,-426.76 1811.96,-413.26 1273,-385 1262.67,-384.46 1094.6,-384.02 1087,-377 1043.93,-337.19 1071,-304.65 1071,-246 1071,-246 1071,-246 1071,-161 1071,-120.18 1085.84,-74.93 1096.97,-46.72"/>
<polygon fill="black" stroke="black" points="1100.2,-48.08 1100.74,-37.49 1093.72,-45.43 1100.2,-48.08"/>
</g>
<!-- vesting::unlock_stake -->
<g id="node48" class="node">
<title>vesting::unlock_stake</title>
<ellipse fill="none" stroke="black" cx="2969" cy="-411" rx="57.39" ry="18"/>
<text text-anchor="middle" x="2969" y="-407.3" font-family="Times,serif" font-size="14.00">unlock_stake</text>
</g>
<!-- vesting::vest&#45;&gt;vesting::unlock_stake -->
<g id="edge62" class="edge">
<title>vesting::vest&#45;&gt;vesting::unlock_stake</title>
<path fill="none" stroke="black" d="M2666.77,-479.15C2672.71,-474.75 2679.78,-470.41 2687,-468 2732.56,-452.8 2857.6,-475.7 2903,-460 2917.79,-454.89 2932.11,-445.25 2943.6,-435.94"/>
<polygon fill="black" stroke="black" points="2945.68,-438.77 2951.02,-429.62 2941.14,-433.44 2945.68,-438.77"/>
</g>
<!-- vesting::unlock_rewards -->
<g id="node55" class="node">
<title>vesting::unlock_rewards</title>
<ellipse fill="none" stroke="black" cx="2561" cy="-411" rx="66.89" ry="18"/>
<text text-anchor="middle" x="2561" y="-407.3" font-family="Times,serif" font-size="14.00">unlock_rewards</text>
</g>
<!-- vesting::vest&#45;&gt;vesting::unlock_rewards -->
<g id="edge65" class="edge">
<title>vesting::vest&#45;&gt;vesting::unlock_rewards</title>
<path fill="none" stroke="black" d="M2635.32,-478.89C2622.24,-467.11 2603.29,-450.06 2587.8,-436.12"/>
<polygon fill="black" stroke="black" points="2590.51,-433.85 2580.73,-429.76 2585.82,-439.05 2590.51,-433.85"/>
</g>
<!-- transaction_validation::prologue_common -->
<g id="node14" class="node">
<title>transaction_validation::prologue_common</title>
<ellipse fill="none" stroke="black" cx="3406" cy="-90" rx="77.99" ry="18"/>
<text text-anchor="middle" x="3406" y="-86.3" font-family="Times,serif" font-size="14.00">prologue_common</text>
</g>
<!-- transaction_validation::prologue_common&#45;&gt;now_seconds -->
<g id="edge13" class="edge">
<title>transaction_validation::prologue_common&#45;&gt;now_seconds</title>
<path fill="none" stroke="black" d="M3344.01,-78.79C3308.42,-73.37 3262.82,-67.2 3222,-64 2811.2,-31.82 1494.79,-21.47 1178.03,-19.41"/>
<polygon fill="black" stroke="black" points="1178.28,-15.91 1168.26,-19.35 1178.24,-22.91 1178.28,-15.91"/>
</g>
<!-- voting::is_voting_closed -->
<g id="node15" class="node">
<title>voting::is_voting_closed</title>
<ellipse fill="none" stroke="black" cx="873" cy="-162" rx="70.39" ry="18"/>
<text text-anchor="middle" x="873" y="-158.3" font-family="Times,serif" font-size="14.00">is_voting_closed</text>
</g>
<!-- voting::is_voting_closed&#45;&gt;voting::is_voting_period_over -->
<g id="edge15" class="edge">
<title>voting::is_voting_closed&#45;&gt;voting::is_voting_period_over</title>
<path fill="none" stroke="black" d="M868.06,-143.7C865.92,-136.24 863.38,-127.32 860.99,-118.97"/>
<polygon fill="black" stroke="black" points="864.42,-118.21 858.3,-109.56 857.68,-120.14 864.42,-118.21"/>
</g>
<!-- aptos_governance::resolve -->
<g id="node16" class="node">
<title>aptos_governance::resolve</title>
<ellipse fill="none" stroke="black" cx="550" cy="-411" rx="36.29" ry="18"/>
<text text-anchor="middle" x="550" y="-407.3" font-family="Times,serif" font-size="14.00">resolve</text>
</g>
<!-- aptos_governance::resolve&#45;&gt;voting::resolve -->
<g id="edge17" class="edge">
<title>aptos_governance::resolve&#45;&gt;voting::resolve</title>
<path fill="none" stroke="black" d="M570.65,-396.1C578.29,-391.7 587.22,-387.37 596,-385 625.62,-377.01 843.96,-389.45 872,-377 882.96,-372.13 892.6,-363.31 900.19,-354.54"/>
<polygon fill="black" stroke="black" points="902.88,-356.78 906.38,-346.78 897.41,-352.42 902.88,-356.78"/>
</g>
<!-- aptos_governance::vote -->
<g id="node17" class="node">
<title>aptos_governance::vote</title>
<ellipse fill="none" stroke="black" cx="193" cy="-411" rx="27" ry="18"/>
<text text-anchor="middle" x="193" y="-407.3" font-family="Times,serif" font-size="14.00">vote</text>
</g>
<!-- aptos_governance::vote&#45;&gt;voting::vote -->
<g id="edge18" class="edge">
<title>aptos_governance::vote&#45;&gt;voting::vote</title>
<path fill="none" stroke="black" d="M190.02,-392.62C187.03,-369.03 185.64,-326.95 208,-302 277.51,-224.43 607.62,-180.15 720.24,-167.11"/>
<polygon fill="black" stroke="black" points="720.32,-170.62 729.86,-166.01 719.53,-163.67 720.32,-170.62"/>
</g>
<!-- aptos_governance::vote&#45;&gt;voting::get_proposal_state -->
<g id="edge44" class="edge">
<title>aptos_governance::vote&#45;&gt;voting::get_proposal_state</title>
<path fill="none" stroke="black" d="M200.98,-393.73C215.25,-364.97 244.43,-307.61 253,-302 293.04,-275.75 592.37,-257.58 743.39,-249.99"/>
<polygon fill="black" stroke="black" points="743.56,-253.48 753.37,-249.49 743.21,-246.49 743.56,-253.48"/>
</g>
<!-- aptos_governance::add_approved_script_hash -->
<g id="node41" class="node">
<title>aptos_governance::add_approved_script_hash</title>
<ellipse fill="none" stroke="black" cx="367" cy="-328" rx="104.78" ry="18"/>
<text text-anchor="middle" x="367" y="-324.3" font-family="Times,serif" font-size="14.00">add_approved_script_hash</text>
</g>
<!-- aptos_governance::vote&#45;&gt;aptos_governance::add_approved_script_hash -->
<g id="edge53" class="edge">
<title>aptos_governance::vote&#45;&gt;aptos_governance::add_approved_script_hash</title>
<path fill="none" stroke="black" d="M210.45,-396.73C216.19,-392.68 222.71,-388.41 229,-385 233.22,-382.71 279,-364.23 316.69,-349.11"/>
<polygon fill="black" stroke="black" points="317.68,-352.49 325.66,-345.52 315.08,-345.99 317.68,-352.49"/>
</g>
<!-- stake::increase_lockup -->
<g id="node18" class="node">
<title>stake::increase_lockup</title>
<ellipse fill="none" stroke="black" cx="1561" cy="-162" rx="67.69" ry="18"/>
<text text-anchor="middle" x="1561" y="-158.3" font-family="Times,serif" font-size="14.00">increase_lockup</text>
</g>
<!-- stake::increase_lockup&#45;&gt;stake::increase_lockup_with_cap -->
<g id="edge19" class="edge">
<title>stake::increase_lockup&#45;&gt;stake::increase_lockup_with_cap</title>
<path fill="none" stroke="black" d="M1535.76,-144.94C1521.27,-135.71 1502.82,-123.98 1486.84,-113.81"/>
<polygon fill="black" stroke="black" points="1488.86,-110.94 1478.54,-108.53 1485.1,-116.85 1488.86,-110.94"/>
</g>
<!-- staking_contract::reset_lockup -->
<g id="node19" class="node">
<title>staking_contract::reset_lockup</title>
<ellipse fill="none" stroke="black" cx="1928" cy="-328" rx="55.79" ry="18"/>
<text text-anchor="middle" x="1928" y="-324.3" font-family="Times,serif" font-size="14.00">reset_lockup</text>
</g>
<!-- staking_contract::reset_lockup&#45;&gt;stake::increase_lockup_with_cap -->
<g id="edge20" class="edge">
<title>staking_contract::reset_lockup&#45;&gt;stake::increase_lockup_with_cap</title>
<path fill="none" stroke="black" d="M1914.25,-310.18C1879.14,-267.67 1786,-157.77 1744,-136 1742.84,-135.4 1624.81,-117.39 1538.93,-104.34"/>
<polygon fill="black" stroke="black" points="1539.48,-100.88 1529.07,-102.84 1538.43,-107.8 1539.48,-100.88"/>
</g>
<!-- reconfiguration::reconfigure -->
<g id="node20" class="node">
<title>reconfiguration::reconfigure</title>
<ellipse fill="none" stroke="black" cx="1412" cy="-245" rx="51.19" ry="18"/>
<text text-anchor="middle" x="1412" y="-241.3" font-family="Times,serif" font-size="14.00">reconfigure</text>
</g>
<!-- reconfiguration::reconfigure&#45;&gt;stake::on_new_epoch -->
<g id="edge21" class="edge">
<title>reconfiguration::reconfigure&#45;&gt;stake::on_new_epoch</title>
<path fill="none" stroke="black" d="M1412,-226.82C1412,-216.69 1412,-203.6 1412,-191.92"/>
<polygon fill="black" stroke="black" points="1415.5,-191.95 1412,-181.95 1408.5,-191.95 1415.5,-191.95"/>
</g>
<!-- genesis::create_initialize_validators_with_commission -->
<g id="node21" class="node">
<title>genesis::create_initialize_validators_with_commission</title>
<ellipse fill="none" stroke="black" cx="995" cy="-411" rx="173.57" ry="18"/>
<text text-anchor="middle" x="995" y="-407.3" font-family="Times,serif" font-size="14.00">create_initialize_validators_with_commission</text>
</g>
<!-- genesis::create_initialize_validators_with_commission&#45;&gt;stake::on_new_epoch -->
<g id="edge22" class="edge">
<title>genesis::create_initialize_validators_with_commission&#45;&gt;stake::on_new_epoch</title>
<path fill="none" stroke="black" d="M1005.64,-392.59C1020.9,-368.95 1051.16,-326.83 1087,-302 1184.88,-234.19 1232.52,-264.3 1339,-211 1353.38,-203.8 1368.36,-194.34 1380.99,-185.72"/>
<polygon fill="black" stroke="black" points="1382.69,-188.8 1388.89,-180.21 1378.68,-183.06 1382.69,-188.8"/>
</g>
<!-- stake::withdraw -->
<g id="node22" class="node">
<title>stake::withdraw</title>
<ellipse fill="none" stroke="black" cx="1691" cy="-162" rx="44.39" ry="18"/>
<text text-anchor="middle" x="1691" y="-158.3" font-family="Times,serif" font-size="14.00">withdraw</text>
</g>
<!-- stake::withdraw&#45;&gt;stake::withdraw_with_cap -->
<g id="edge24" class="edge">
<title>stake::withdraw&#45;&gt;stake::withdraw_with_cap</title>
<path fill="none" stroke="black" d="M1682.04,-144.05C1677.97,-136.35 1673.04,-127.03 1668.46,-118.36"/>
<polygon fill="black" stroke="black" points="1671.61,-116.82 1663.84,-109.61 1665.42,-120.09 1671.61,-116.82"/>
</g>
<!-- staking_contract::distribute_internal -->
<g id="node23" class="node">
<title>staking_contract::distribute_internal</title>
<ellipse fill="none" stroke="black" cx="2153" cy="-162" rx="75.29" ry="18"/>
<text text-anchor="middle" x="2153" y="-158.3" font-family="Times,serif" font-size="14.00">distribute_internal</text>
</g>
<!-- staking_contract::distribute_internal&#45;&gt;stake::withdraw_with_cap -->
<g id="edge25" class="edge">
<title>staking_contract::distribute_internal&#45;&gt;stake::withdraw_with_cap</title>
<path fill="none" stroke="black" d="M2089.29,-152.06C1998.18,-139.28 1830.81,-115.8 1732.28,-101.98"/>
<polygon fill="black" stroke="black" points="1732.79,-98.52 1722.4,-100.6 1731.82,-105.45 1732.79,-98.52"/>
</g>
<!-- genesis::create_employee_validators -->
<g id="node24" class="node">
<title>genesis::create_employee_validators</title>
<ellipse fill="none" stroke="black" cx="1151" cy="-569" rx="109.68" ry="18"/>
<text text-anchor="middle" x="1151" y="-565.3" font-family="Times,serif" font-size="14.00">create_employee_validators</text>
</g>
<!-- genesis::create_employee_validators&#45;&gt;vesting::create_vesting_schedule -->
<g id="edge26" class="edge">
<title>genesis::create_employee_validators&#45;&gt;vesting::create_vesting_schedule</title>
<path fill="none" stroke="black" d="M1260.74,-567.96C1679.21,-567.62 3156.21,-564.9 3254,-543 3277.38,-537.76 3301.81,-526.95 3321.22,-516.92"/>
<polygon fill="black" stroke="black" points="3322.65,-520.12 3329.83,-512.33 3319.36,-513.94 3322.65,-520.12"/>
</g>
<!-- transaction_validation::module_prologue -->
<g id="node25" class="node">
<title>transaction_validation::module_prologue</title>
<ellipse fill="none" stroke="black" cx="3702" cy="-162" rx="73.39" ry="18"/>
<text text-anchor="middle" x="3702" y="-158.3" font-family="Times,serif" font-size="14.00">module_prologue</text>
</g>
<!-- transaction_validation::module_prologue&#45;&gt;transaction_validation::prologue_common -->
<g id="edge27" class="edge">
<title>transaction_validation::module_prologue&#45;&gt;transaction_validation::prologue_common</title>
<path fill="none" stroke="black" d="M3658.69,-147.2C3645.96,-143.35 3631.98,-139.32 3619,-136 3571.71,-123.9 3517.92,-112.56 3476.22,-104.29"/>
<polygon fill="black" stroke="black" points="3477.05,-100.88 3466.56,-102.38 3475.69,-107.75 3477.05,-100.88"/>
</g>
<!-- transaction_validation::multi_agent_script_prologue -->
<g id="node26" class="node">
<title>transaction_validation::multi_agent_script_prologue</title>
<ellipse fill="none" stroke="black" cx="3498" cy="-162" rx="112.38" ry="18"/>
<text text-anchor="middle" x="3498" y="-158.3" font-family="Times,serif" font-size="14.00">multi_agent_script_prologue</text>
</g>
<!-- transaction_validation::multi_agent_script_prologue&#45;&gt;transaction_validation::prologue_common -->
<g id="edge28" class="edge">
<title>transaction_validation::multi_agent_script_prologue&#45;&gt;transaction_validation::prologue_common</title>
<path fill="none" stroke="black" d="M3475.73,-144.05C3464,-135.13 3449.45,-124.06 3436.67,-114.34"/>
<polygon fill="black" stroke="black" points="3439.03,-111.73 3428.95,-108.46 3434.79,-117.3 3439.03,-111.73"/>
</g>
<!-- transaction_validation::script_prologue -->
<g id="node27" class="node">
<title>transaction_validation::script_prologue</title>
<ellipse fill="none" stroke="black" cx="3302" cy="-162" rx="65.79" ry="18"/>
<text text-anchor="middle" x="3302" y="-158.3" font-family="Times,serif" font-size="14.00">script_prologue</text>
</g>
<!-- transaction_validation::script_prologue&#45;&gt;transaction_validation::prologue_common -->
<g id="edge29" class="edge">
<title>transaction_validation::script_prologue&#45;&gt;transaction_validation::prologue_common</title>
<path fill="none" stroke="black" d="M3325.86,-144.94C3339.54,-135.74 3356.93,-124.03 3372.01,-113.88"/>
<polygon fill="black" stroke="black" points="3373.93,-116.8 3380.27,-108.32 3370.02,-111 3373.93,-116.8"/>
</g>
<!-- voting::get_proposal_state&#45;&gt;voting::is_voting_closed -->
<g id="edge30" class="edge">
<title>voting::get_proposal_state&#45;&gt;voting::is_voting_closed</title>
<path fill="none" stroke="black" d="M839.12,-226.82C844.76,-216.19 852.13,-202.31 858.56,-190.2"/>
<polygon fill="black" stroke="black" points="861.59,-191.96 863.18,-181.49 855.4,-188.68 861.59,-191.96"/>
</g>
<!-- vesting::reset_lockup -->
<g id="node29" class="node">
<title>vesting::reset_lockup</title>
<ellipse fill="none" stroke="black" cx="2550" cy="-494" rx="55.79" ry="18"/>
<text text-anchor="middle" x="2550" y="-490.3" font-family="Times,serif" font-size="14.00">reset_lockup</text>
</g>
<!-- vesting::reset_lockup&#45;&gt;staking_contract::reset_lockup -->
<g id="edge31" class="edge">
<title>vesting::reset_lockup&#45;&gt;staking_contract::reset_lockup</title>
<path fill="none" stroke="black" d="M2495.83,-489.43C2393.46,-481.05 2166.34,-454.55 1993,-377 1979.29,-370.87 1965.69,-361.47 1954.49,-352.62"/>
<polygon fill="black" stroke="black" points="1956.82,-350 1946.87,-346.35 1952.37,-355.4 1956.82,-350"/>
</g>
<!-- aptos_governance::reconfigure -->
<g id="node30" class="node">
<title>aptos_governance::reconfigure</title>
<ellipse fill="none" stroke="black" cx="656" cy="-411" rx="51.19" ry="18"/>
<text text-anchor="middle" x="656" y="-407.3" font-family="Times,serif" font-size="14.00">reconfigure</text>
</g>
<!-- aptos_governance::reconfigure&#45;&gt;reconfiguration::reconfigure -->
<g id="edge32" class="edge">
<title>aptos_governance::reconfigure&#45;&gt;reconfiguration::reconfigure</title>
<path fill="none" stroke="black" d="M700.01,-401.48C730.49,-395.9 772.07,-388.95 809,-385 843.74,-381.29 932.66,-387.42 966,-377 1026.39,-358.13 1027.85,-324.45 1087,-302 1174.79,-268.68 1283.49,-255.07 1350.27,-249.59"/>
<polygon fill="black" stroke="black" points="1350.23,-253.1 1359.92,-248.83 1349.68,-246.12 1350.23,-253.1"/>
</g>
<!-- block::block_prologue -->
<g id="node31" class="node">
<title>block::block_prologue</title>
<ellipse fill="none" stroke="black" cx="1661" cy="-328" rx="65.79" ry="18"/>
<text text-anchor="middle" x="1661" y="-324.3" font-family="Times,serif" font-size="14.00">block_prologue</text>
</g>
<!-- block::block_prologue&#45;&gt;reconfiguration::reconfigure -->
<g id="edge33" class="edge">
<title>block::block_prologue&#45;&gt;reconfiguration::reconfigure</title>
<path fill="none" stroke="black" d="M1619.88,-313.62C1575.76,-299.27 1505.79,-276.51 1459.39,-261.42"/>
<polygon fill="black" stroke="black" points="1460.74,-258.18 1450.15,-258.41 1458.58,-264.83 1460.74,-258.18"/>
</g>
<!-- consensus_config::set -->
<g id="node32" class="node">
<title>consensus_config::set</title>
<ellipse fill="none" stroke="black" cx="1778" cy="-328" rx="27" ry="18"/>
<text text-anchor="middle" x="1778" y="-324.3" font-family="Times,serif" font-size="14.00">set</text>
</g>
<!-- consensus_config::set&#45;&gt;reconfiguration::reconfigure -->
<g id="edge34" class="edge">
<title>consensus_config::set&#45;&gt;reconfiguration::reconfigure</title>
<path fill="none" stroke="black" d="M1760.56,-313.7C1754.09,-309.36 1746.5,-304.91 1739,-302 1650.79,-267.81 1541.17,-254.44 1473.91,-249.25"/>
<polygon fill="black" stroke="black" points="1474.42,-245.77 1464.19,-248.54 1473.91,-252.76 1474.42,-245.77"/>
</g>
<!-- gas_schedule::set_gas_schedule -->
<g id="node33" class="node">
<title>gas_schedule::set_gas_schedule</title>
<ellipse fill="none" stroke="black" cx="1374" cy="-328" rx="71.49" ry="18"/>
<text text-anchor="middle" x="1374" y="-324.3" font-family="Times,serif" font-size="14.00">set_gas_schedule</text>
</g>
<!-- gas_schedule::set_gas_schedule&#45;&gt;reconfiguration::reconfigure -->
<g id="edge35" class="edge">
<title>gas_schedule::set_gas_schedule&#45;&gt;reconfiguration::reconfigure</title>
<path fill="none" stroke="black" d="M1382.06,-309.82C1387,-299.3 1393.43,-285.59 1399.07,-273.57"/>
<polygon fill="black" stroke="black" points="1402.23,-275.06 1403.31,-264.52 1395.89,-272.09 1402.23,-275.06"/>
</g>
<!-- gas_schedule::set_storage_gas_config -->
<g id="node34" class="node">
<title>gas_schedule::set_storage_gas_config</title>
<ellipse fill="none" stroke="black" cx="1192" cy="-328" rx="92.88" ry="18"/>
<text text-anchor="middle" x="1192" y="-324.3" font-family="Times,serif" font-size="14.00">set_storage_gas_config</text>
</g>
<!-- gas_schedule::set_storage_gas_config&#45;&gt;reconfiguration::reconfigure -->
<g id="edge36" class="edge">
<title>gas_schedule::set_storage_gas_config&#45;&gt;reconfiguration::reconfigure</title>
<path fill="none" stroke="black" d="M1233.9,-311.57C1271.88,-297.59 1327.72,-277.03 1366.71,-262.67"/>
<polygon fill="black" stroke="black" points="1367.89,-265.97 1376.07,-259.23 1365.47,-259.4 1367.89,-265.97"/>
</g>
<!-- version::set_version -->
<g id="node35" class="node">
<title>version::set_version</title>
<ellipse fill="none" stroke="black" cx="1520" cy="-328" rx="50.89" ry="18"/>
<text text-anchor="middle" x="1520" y="-324.3" font-family="Times,serif" font-size="14.00">set_version</text>
</g>
<!-- version::set_version&#45;&gt;reconfiguration::reconfigure -->
<g id="edge37" class="edge">
<title>version::set_version&#45;&gt;reconfiguration::reconfigure</title>
<path fill="none" stroke="black" d="M1498.92,-311.19C1482.72,-299.04 1460.11,-282.09 1442.02,-268.51"/>
<polygon fill="black" stroke="black" points="1444.34,-265.88 1434.24,-262.68 1440.14,-271.48 1444.34,-265.88"/>
</g>
<!-- genesis::create_initialize_validators -->
<g id="node36" class="node">
<title>genesis::create_initialize_validators</title>
<ellipse fill="none" stroke="black" cx="961" cy="-494" rx="105.88" ry="18"/>
<text text-anchor="middle" x="961" y="-490.3" font-family="Times,serif" font-size="14.00">create_initialize_validators</text>
</g>
<!-- genesis::create_initialize_validators&#45;&gt;genesis::create_initialize_validators_with_commission -->
<g id="edge38" class="edge">
<title>genesis::create_initialize_validators&#45;&gt;genesis::create_initialize_validators_with_commission</title>
<path fill="none" stroke="black" d="M968.21,-475.82C972.6,-465.37 978.31,-451.77 983.32,-439.81"/>
<polygon fill="black" stroke="black" points="986.45,-441.4 987.1,-430.83 980,-438.69 986.45,-441.4"/>
</g>
<!-- staking_contract::distribute -->
<g id="node37" class="node">
<title>staking_contract::distribute</title>
<ellipse fill="none" stroke="black" cx="2272" cy="-245" rx="44.39" ry="18"/>
<text text-anchor="middle" x="2272" y="-241.3" font-family="Times,serif" font-size="14.00">distribute</text>
</g>
<!-- staking_contract::distribute&#45;&gt;staking_contract::distribute_internal -->
<g id="edge39" class="edge">
<title>staking_contract::distribute&#45;&gt;staking_contract::distribute_internal</title>
<path fill="none" stroke="black" d="M2249.9,-228.95C2232.11,-216.84 2206.81,-199.63 2186.53,-185.82"/>
<polygon fill="black" stroke="black" points="2188.52,-182.94 2178.28,-180.21 2184.58,-188.73 2188.52,-182.94"/>
</g>
<!-- staking_contract::request_commission -->
<g id="node38" class="node">
<title>staking_contract::request_commission</title>
<ellipse fill="none" stroke="black" cx="1994" cy="-245" rx="83.69" ry="18"/>
<text text-anchor="middle" x="1994" y="-241.3" font-family="Times,serif" font-size="14.00">request_commission</text>
</g>
<!-- staking_contract::request_commission&#45;&gt;staking_contract::distribute_internal -->
<g id="edge40" class="edge">
<title>staking_contract::request_commission&#45;&gt;staking_contract::distribute_internal</title>
<path fill="none" stroke="black" d="M2025.41,-228C2050.21,-215.36 2085.01,-197.64 2112,-183.89"/>
<polygon fill="black" stroke="black" points="2113.25,-187.18 2120.57,-179.52 2110.08,-180.94 2113.25,-187.18"/>
</g>
<!-- staking_contract::switch_operator -->
<g id="node39" class="node">
<title>staking_contract::switch_operator</title>
<ellipse fill="none" stroke="black" cx="2402" cy="-245" rx="67.69" ry="18"/>
<text text-anchor="middle" x="2402" y="-241.3" font-family="Times,serif" font-size="14.00">switch_operator</text>
</g>
<!-- staking_contract::switch_operator&#45;&gt;staking_contract::distribute_internal -->
<g id="edge41" class="edge">
<title>staking_contract::switch_operator&#45;&gt;staking_contract::distribute_internal</title>
<path fill="none" stroke="black" d="M2360.32,-230.44C2318.28,-216.77 2253.18,-195.59 2207.17,-180.62"/>
<polygon fill="black" stroke="black" points="2208.52,-177.38 2197.93,-177.61 2206.35,-184.04 2208.52,-177.38"/>
</g>
<!-- staking_contract::unlock_stake -->
<g id="node40" class="node">
<title>staking_contract::unlock_stake</title>
<ellipse fill="none" stroke="black" cx="2153" cy="-245" rx="57.39" ry="18"/>
<text text-anchor="middle" x="2153" y="-241.3" font-family="Times,serif" font-size="14.00">unlock_stake</text>
</g>
<!-- staking_contract::unlock_stake&#45;&gt;staking_contract::distribute_internal -->
<g id="edge42" class="edge">
<title>staking_contract::unlock_stake&#45;&gt;staking_contract::distribute_internal</title>
<path fill="none" stroke="black" d="M2153,-226.82C2153,-216.69 2153,-203.6 2153,-191.92"/>
<polygon fill="black" stroke="black" points="2156.5,-191.95 2153,-181.95 2149.5,-191.95 2156.5,-191.95"/>
</g>
<!-- aptos_governance::add_approved_script_hash&#45;&gt;voting::get_proposal_state -->
<g id="edge45" class="edge">
<title>aptos_governance::add_approved_script_hash&#45;&gt;voting::get_proposal_state</title>
<path fill="none" stroke="black" d="M438.58,-314.48C525.64,-299.25 671.7,-273.69 758.65,-258.48"/>
<polygon fill="black" stroke="black" points="758.99,-261.98 768.24,-256.8 757.79,-255.08 758.99,-261.98"/>
</g>
<!-- genesis::initialize_for_verification -->
<g id="node42" class="node">
<title>genesis::initialize_for_verification</title>
<ellipse fill="none" stroke="black" cx="922" cy="-569" rx="100.98" ry="18"/>
<text text-anchor="middle" x="922" y="-565.3" font-family="Times,serif" font-size="14.00">initialize_for_verification</text>
</g>
<!-- genesis::initialize_for_verification&#45;&gt;genesis::create_initialize_validators -->
<g id="edge46" class="edge">
<title>genesis::initialize_for_verification&#45;&gt;genesis::create_initialize_validators</title>
<path fill="none" stroke="black" d="M931.24,-550.7C935.73,-542.31 941.22,-532.02 946.27,-522.58"/>
<polygon fill="black" stroke="black" points="949.35,-524.23 950.98,-513.76 943.18,-520.93 949.35,-524.23"/>
</g>
<!-- vesting::withdraw_stake -->
<g id="node43" class="node">
<title>vesting::withdraw_stake</title>
<ellipse fill="none" stroke="black" cx="2690" cy="-328" rx="66.09" ry="18"/>
<text text-anchor="middle" x="2690" y="-324.3" font-family="Times,serif" font-size="14.00">withdraw_stake</text>
</g>
<!-- vesting::withdraw_stake&#45;&gt;staking_contract::distribute -->
<g id="edge47" class="edge">
<title>vesting::withdraw_stake&#45;&gt;staking_contract::distribute</title>
<path fill="none" stroke="black" d="M2632.28,-318.98C2590.6,-313.46 2532.92,-306.35 2482,-302 2447.19,-299.02 2357.27,-307.39 2325,-294 2312.84,-288.95 2301.65,-279.84 2292.72,-270.91"/>
<polygon fill="black" stroke="black" points="2295.31,-268.55 2285.93,-263.64 2290.2,-273.33 2295.31,-268.55"/>
</g>
<!-- staking_contract::switch_operator_with_same_commission -->
<g id="node44" class="node">
<title>staking_contract::switch_operator_with_same_commission</title>
<ellipse fill="none" stroke="black" cx="2312" cy="-328" rx="157.87" ry="18"/>
<text text-anchor="middle" x="2312" y="-324.3" font-family="Times,serif" font-size="14.00">switch_operator_with_same_commission</text>
</g>
<!-- staking_contract::switch_operator_with_same_commission&#45;&gt;staking_contract::switch_operator -->
<g id="edge48" class="edge">
<title>staking_contract::switch_operator_with_same_commission&#45;&gt;staking_contract::switch_operator</title>
<path fill="none" stroke="black" d="M2331.09,-309.82C2343.91,-298.28 2360.98,-282.92 2375.16,-270.15"/>
<polygon fill="black" stroke="black" points="2377.34,-272.9 2382.43,-263.61 2372.66,-267.7 2377.34,-272.9"/>
</g>
<!-- vesting::update_operator -->
<g id="node45" class="node">
<title>vesting::update_operator</title>
<ellipse fill="none" stroke="black" cx="3112" cy="-411" rx="67.69" ry="18"/>
<text text-anchor="middle" x="3112" y="-407.3" font-family="Times,serif" font-size="14.00">update_operator</text>
</g>
<!-- vesting::update_operator&#45;&gt;staking_contract::switch_operator -->
<g id="edge49" class="edge">
<title>vesting::update_operator&#45;&gt;staking_contract::switch_operator</title>
<path fill="none" stroke="black" d="M3086.64,-394.01C3046.71,-369.69 2966.01,-323.92 2891,-302 2750.56,-260.96 2579.24,-249.77 2481.16,-246.86"/>
<polygon fill="black" stroke="black" points="2481.47,-243.36 2471.38,-246.59 2481.28,-250.36 2481.47,-243.36"/>
</g>
<!-- staking_proxy::set_staking_contract_operator -->
<g id="node46" class="node">
<title>staking_proxy::set_staking_contract_operator</title>
<ellipse fill="none" stroke="black" cx="3847" cy="-494" rx="116.18" ry="18"/>
<text text-anchor="middle" x="3847" y="-490.3" font-family="Times,serif" font-size="14.00">set_staking_contract_operator</text>
</g>
<!-- staking_proxy::set_staking_contract_operator&#45;&gt;staking_contract::switch_operator -->
<g id="edge50" class="edge">
<title>staking_proxy::set_staking_contract_operator&#45;&gt;staking_contract::switch_operator</title>
<path fill="none" stroke="black" d="M3822.73,-476.19C3764.66,-437.04 3611.85,-340.21 3468,-302 3281.9,-252.56 2695.54,-246.49 2481.34,-245.95"/>
<polygon fill="black" stroke="black" points="2481.42,-242.45 2471.42,-245.93 2481.41,-249.45 2481.42,-242.45"/>
</g>
<!-- staking_contract::unlock_rewards -->
<g id="node47" class="node">
<title>staking_contract::unlock_rewards</title>
<ellipse fill="none" stroke="black" cx="2069" cy="-328" rx="66.89" ry="18"/>
<text text-anchor="middle" x="2069" y="-324.3" font-family="Times,serif" font-size="14.00">unlock_rewards</text>
</g>
<!-- staking_contract::unlock_rewards&#45;&gt;staking_contract::unlock_stake -->
<g id="edge51" class="edge">
<title>staking_contract::unlock_rewards&#45;&gt;staking_contract::unlock_stake</title>
<path fill="none" stroke="black" d="M2086.4,-310.22C2098.42,-298.63 2114.59,-283.04 2127.98,-270.12"/>
<polygon fill="black" stroke="black" points="2130.05,-273 2134.82,-263.54 2125.19,-267.96 2130.05,-273"/>
</g>
<!-- vesting::unlock_stake&#45;&gt;staking_contract::unlock_stake -->
<g id="edge52" class="edge">
<title>vesting::unlock_stake&#45;&gt;staking_contract::unlock_stake</title>
<path fill="none" stroke="black" d="M2933.98,-396.38C2920.37,-390.78 2904.77,-383.97 2891,-377 2832.85,-347.57 2827.71,-319.75 2765,-302 2706.62,-285.48 2276.56,-313.18 2219,-294 2204.05,-289.02 2189.62,-279.3 2178.1,-269.9"/>
<polygon fill="black" stroke="black" points="2180.53,-267.38 2170.66,-263.52 2175.97,-272.69 2180.53,-267.38"/>
</g>
<!-- aptos_governance::add_approved_script_hash_script -->
<g id="node49" class="node">
<title>aptos_governance::add_approved_script_hash_script</title>
<ellipse fill="none" stroke="black" cx="367" cy="-411" rx="128.88" ry="18"/>
<text text-anchor="middle" x="367" y="-407.3" font-family="Times,serif" font-size="14.00">add_approved_script_hash_script</text>
</g>
<!-- aptos_governance::add_approved_script_hash_script&#45;&gt;aptos_governance::add_approved_script_hash -->
<g id="edge54" class="edge">
<title>aptos_governance::add_approved_script_hash_script&#45;&gt;aptos_governance::add_approved_script_hash</title>
<path fill="none" stroke="black" d="M367,-392.82C367,-382.69 367,-369.6 367,-357.92"/>
<polygon fill="black" stroke="black" points="370.5,-357.95 367,-347.95 363.5,-357.95 370.5,-357.95"/>
</g>
<!-- vesting::distribute -->
<g id="node50" class="node">
<title>vesting::distribute</title>
<ellipse fill="none" stroke="black" cx="2690" cy="-411" rx="44.39" ry="18"/>
<text text-anchor="middle" x="2690" y="-407.3" font-family="Times,serif" font-size="14.00">distribute</text>
</g>
<!-- vesting::distribute&#45;&gt;vesting::withdraw_stake -->
<g id="edge55" class="edge">
<title>vesting::distribute&#45;&gt;vesting::withdraw_stake</title>
<path fill="none" stroke="black" d="M2690,-392.82C2690,-382.69 2690,-369.6 2690,-357.92"/>
<polygon fill="black" stroke="black" points="2693.5,-357.95 2690,-347.95 2686.5,-357.95 2693.5,-357.95"/>
</g>
<!-- vesting::admin_withdraw -->
<g id="node51" class="node">
<title>vesting::admin_withdraw</title>
<ellipse fill="none" stroke="black" cx="2823" cy="-411" rx="70.69" ry="18"/>
<text text-anchor="middle" x="2823" y="-407.3" font-family="Times,serif" font-size="14.00">admin_withdraw</text>
</g>
<!-- vesting::admin_withdraw&#45;&gt;vesting::withdraw_stake -->
<g id="edge56" class="edge">
<title>vesting::admin_withdraw&#45;&gt;vesting::withdraw_stake</title>
<path fill="none" stroke="black" d="M2796.72,-394C2776.5,-381.68 2748.34,-364.53 2726.02,-350.93"/>
<polygon fill="black" stroke="black" points="2727.88,-347.97 2717.51,-345.76 2724.23,-353.95 2727.88,-347.97"/>
</g>
<!-- vesting::update_operator_with_same_commission -->
<g id="node52" class="node">
<title>vesting::update_operator_with_same_commission</title>
<ellipse fill="none" stroke="black" cx="3086" cy="-494" rx="158.67" ry="18"/>
<text text-anchor="middle" x="3086" y="-490.3" font-family="Times,serif" font-size="14.00">update_operator_with_same_commission</text>
</g>
<!-- vesting::update_operator_with_same_commission&#45;&gt;vesting::update_operator -->
<g id="edge57" class="edge">
<title>vesting::update_operator_with_same_commission&#45;&gt;vesting::update_operator</title>
<path fill="none" stroke="black" d="M3091.51,-475.82C3094.84,-465.48 3099.14,-452.05 3102.95,-440.18"/>
<polygon fill="black" stroke="black" points="3106.22,-441.46 3105.94,-430.87 3099.55,-439.33 3106.22,-441.46"/>
</g>
<!-- staking_proxy::set_vesting_contract_operator -->
<g id="node53" class="node">
<title>staking_proxy::set_vesting_contract_operator</title>
<ellipse fill="none" stroke="black" cx="3596" cy="-494" rx="116.18" ry="18"/>
<text text-anchor="middle" x="3596" y="-490.3" font-family="Times,serif" font-size="14.00">set_vesting_contract_operator</text>
</g>
<!-- staking_proxy::set_vesting_contract_operator&#45;&gt;vesting::update_operator -->
<g id="edge58" class="edge">
<title>staking_proxy::set_vesting_contract_operator&#45;&gt;vesting::update_operator</title>
<path fill="none" stroke="black" d="M3527.33,-479.1C3508.16,-475.36 3487.29,-471.4 3468,-468 3368.72,-450.5 3253.38,-432.85 3181.53,-422.16"/>
<polygon fill="black" stroke="black" points="3182.29,-418.74 3171.88,-420.73 3181.26,-425.66 3182.29,-418.74"/>
</g>
<!-- staking_proxy::set_operator -->
<g id="node54" class="node">
<title>staking_proxy::set_operator</title>
<ellipse fill="none" stroke="black" cx="3721" cy="-569" rx="53.89" ry="18"/>
<text text-anchor="middle" x="3721" y="-565.3" font-family="Times,serif" font-size="14.00">set_operator</text>
</g>
<!-- staking_proxy::set_operator&#45;&gt;staking_proxy::set_staking_contract_operator -->
<g id="edge59" class="edge">
<title>staking_proxy::set_operator&#45;&gt;staking_proxy::set_staking_contract_operator</title>
<path fill="none" stroke="black" d="M3747.11,-552.87C3764.66,-542.7 3788.12,-529.11 3807.89,-517.66"/>
<polygon fill="black" stroke="black" points="3809.64,-520.69 3816.53,-512.65 3806.13,-514.64 3809.64,-520.69"/>
</g>
<!-- staking_proxy::set_operator&#45;&gt;staking_proxy::set_vesting_contract_operator -->
<g id="edge64" class="edge">
<title>staking_proxy::set_operator&#45;&gt;staking_proxy::set_vesting_contract_operator</title>
<path fill="none" stroke="black" d="M3695.1,-552.87C3677.68,-542.7 3654.41,-529.11 3634.8,-517.66"/>
<polygon fill="black" stroke="black" points="3636.63,-514.68 3626.23,-512.66 3633.1,-520.72 3636.63,-514.68"/>
</g>
<!-- vesting::unlock_rewards&#45;&gt;staking_contract::unlock_rewards -->
<g id="edge60" class="edge">
<title>vesting::unlock_rewards&#45;&gt;staking_contract::unlock_rewards</title>
<path fill="none" stroke="black" d="M2494.57,-408.6C2393.96,-405.82 2207.99,-397.96 2145,-377 2128.44,-371.49 2111.84,-361.63 2098.4,-352.28"/>
<polygon fill="black" stroke="black" points="2100.59,-349.54 2090.44,-346.51 2096.49,-355.21 2100.59,-349.54"/>
</g>
<!-- vesting::terminate_vesting_contract -->
<g id="node56" class="node">
<title>vesting::terminate_vesting_contract</title>
<ellipse fill="none" stroke="black" cx="2803" cy="-494" rx="106.68" ry="18"/>
<text text-anchor="middle" x="2803" y="-490.3" font-family="Times,serif" font-size="14.00">terminate_vesting_contract</text>
</g>
<!-- vesting::terminate_vesting_contract&#45;&gt;vesting::unlock_stake -->
<g id="edge61" class="edge">
<title>vesting::terminate_vesting_contract&#45;&gt;vesting::unlock_stake</title>
<path fill="none" stroke="black" d="M2858.22,-478.16C2873.13,-473.25 2889.01,-467.17 2903,-460 2916.2,-453.23 2929.64,-443.97 2940.92,-435.39"/>
<polygon fill="black" stroke="black" points="2942.92,-438.27 2948.64,-429.35 2938.61,-432.76 2942.92,-438.27"/>
</g>
<!-- vesting::terminate_vesting_contract&#45;&gt;vesting::distribute -->
<g id="edge63" class="edge">
<title>vesting::terminate_vesting_contract&#45;&gt;vesting::distribute</title>
<path fill="none" stroke="black" d="M2769.78,-476.52C2760.83,-471.61 2751.32,-465.94 2743,-460 2732.99,-452.87 2722.8,-444.07 2714.06,-435.97"/>
<polygon fill="black" stroke="black" points="2716.62,-433.57 2706.96,-429.22 2711.8,-438.65 2716.62,-433.57"/>
</g>
</g>
</svg>
