<?xml version="1.0" encoding="UTF-8" standalone="no"?>
<!DOCTYPE svg PUBLIC "-//W3C//DTD SVG 1.1//EN"
 "http://www.w3.org/Graphics/SVG/1.1/DTD/svg11.dtd">
<!-- Generated by graphviz version 7.0.0 (20221023.0053)
 -->
<!-- Title: G Pages: 1 -->
<svg width="967pt" height="332pt"
 viewBox="0.00 0.00 966.55 332.00" xmlns="http://www.w3.org/2000/svg" xmlns:xlink="http://www.w3.org/1999/xlink">
<g id="graph0" class="graph" transform="scale(1 1) rotate(0) translate(4 328)">
<title>G</title>
<polygon fill="white" stroke="none" points="-4,4 -4,-328 962.55,-328 962.55,4 -4,4"/>
<!-- timestamp -->
<g id="node1" class="node">
<title>timestamp</title>
<ellipse fill="none" stroke="black" cx="503.46" cy="-18" rx="48.19" ry="18"/>
<text text-anchor="middle" x="503.46" y="-14.3" font-family="Times,serif" font-size="14.00">timestamp</text>
</g>
<!-- voting -->
<g id="node2" class="node">
<title>voting</title>
<ellipse fill="none" stroke="black" cx="534.46" cy="-90" rx="33.29" ry="18"/>
<text text-anchor="middle" x="534.46" y="-86.3" font-family="Times,serif" font-size="14.00">voting</text>
</g>
<!-- voting&#45;&gt;timestamp -->
<g id="edge1" class="edge">
<title>voting&#45;&gt;timestamp</title>
<path fill="none" stroke="black" d="M526.95,-72.05C523.53,-64.32 519.38,-54.96 515.53,-46.27"/>
<polygon fill="black" stroke="black" points="518.75,-44.9 511.51,-37.17 512.35,-47.73 518.75,-44.9"/>
</g>
<!-- stake -->
<g id="node3" class="node">
<title>stake</title>
<ellipse fill="none" stroke="black" cx="690.46" cy="-90" rx="28.7" ry="18"/>
<text text-anchor="middle" x="690.46" y="-86.3" font-family="Times,serif" font-size="14.00">stake</text>
</g>
<!-- stake&#45;&gt;timestamp -->
<g id="edge2" class="edge">
<title>stake&#45;&gt;timestamp</title>
<path fill="none" stroke="black" d="M666.39,-79.99C636.32,-68.73 584.28,-49.25 547.1,-35.34"/>
<polygon fill="black" stroke="black" points="548.57,-32.15 537.98,-31.92 546.12,-38.71 548.57,-32.15"/>
</g>
<!-- reconfiguration -->
<g id="node4" class="node">
<title>reconfiguration</title>
<ellipse fill="none" stroke="black" cx="380.46" cy="-162" rx="64.99" ry="18"/>
<text text-anchor="middle" x="380.46" y="-158.3" font-family="Times,serif" font-size="14.00">reconfiguration</text>
</g>
<!-- reconfiguration&#45;&gt;timestamp -->
<g id="edge3" class="edge">
<title>reconfiguration&#45;&gt;timestamp</title>
<path fill="none" stroke="black" d="M395.05,-144.15C416.53,-119.36 456.79,-72.88 481.74,-44.07"/>
<polygon fill="black" stroke="black" points="484.37,-46.38 488.27,-36.53 479.08,-41.8 484.37,-46.38"/>
</g>
<!-- reconfiguration&#45;&gt;stake -->
<g id="edge10" class="edge">
<title>reconfiguration&#45;&gt;stake</title>
<path fill="none" stroke="black" d="M429.58,-149.91C491.42,-135.94 596.34,-112.25 652.43,-99.59"/>
<polygon fill="black" stroke="black" points="653.16,-103.01 662.14,-97.39 651.62,-96.18 653.16,-103.01"/>
</g>
<!-- aptos_governance -->
<g id="node5" class="node">
<title>aptos_governance</title>
<ellipse fill="none" stroke="black" cx="609.46" cy="-234" rx="74.19" ry="18"/>
<text text-anchor="middle" x="609.46" y="-230.3" font-family="Times,serif" font-size="14.00">aptos_governance</text>
</g>
<!-- aptos_governance&#45;&gt;timestamp -->
<g id="edge4" class="edge">
<title>aptos_governance&#45;&gt;timestamp</title>
<path fill="none" stroke="black" d="M609.86,-215.5C609.78,-184.18 605.83,-117.57 576.46,-72 567.8,-58.57 554.46,-47.43 541.53,-38.89"/>
<polygon fill="black" stroke="black" points="543.44,-35.95 533.1,-33.66 539.75,-41.9 543.44,-35.95"/>
</g>
<!-- aptos_governance&#45;&gt;voting -->
<g id="edge9" class="edge">
<title>aptos_governance&#45;&gt;voting</title>
<path fill="none" stroke="black" d="M600.41,-215.87C587.56,-191.54 563.89,-146.73 548.68,-117.93"/>
<polygon fill="black" stroke="black" points="551.78,-116.29 544.01,-109.09 545.59,-119.56 551.78,-116.29"/>
</g>
<!-- aptos_governance&#45;&gt;stake -->
<g id="edge11" class="edge">
<title>aptos_governance&#45;&gt;stake</title>
<path fill="none" stroke="black" d="M622.91,-215.84C630.56,-205.71 640.06,-192.46 647.46,-180 659.36,-159.96 670.74,-136.14 678.79,-118.18"/>
<polygon fill="black" stroke="black" points="681.91,-119.79 682.75,-109.23 675.51,-116.97 681.91,-119.79"/>
</g>
<!-- aptos_governance&#45;&gt;reconfiguration -->
<g id="edge17" class="edge">
<title>aptos_governance&#45;&gt;reconfiguration</title>
<path fill="none" stroke="black" d="M564.49,-219.25C526.98,-207.79 473.46,-191.43 433.8,-179.3"/>
<polygon fill="black" stroke="black" points="435.04,-176.02 424.45,-176.45 432.99,-182.72 435.04,-176.02"/>
</g>
<!-- block -->
<g id="node6" class="node">
<title>block</title>
<ellipse fill="none" stroke="black" cx="486.46" cy="-234" rx="30.59" ry="18"/>
<text text-anchor="middle" x="486.46" y="-230.3" font-family="Times,serif" font-size="14.00">block</text>
</g>
<!-- block&#45;&gt;timestamp -->
<g id="edge5" class="edge">
<title>block&#45;&gt;timestamp</title>
<path fill="none" stroke="black" d="M486.15,-215.53C485.85,-185.9 486.15,-123.92 492.46,-72 493.45,-63.85 495.04,-55.09 496.71,-47.09"/>
<polygon fill="black" stroke="black" points="500.08,-48.06 498.83,-37.54 493.25,-46.55 500.08,-48.06"/>
</g>
<!-- block&#45;&gt;stake -->
<g id="edge12" class="edge">
<title>block&#45;&gt;stake</title>
<path fill="none" stroke="black" d="M505.65,-219.64C541.83,-194.46 620.26,-139.87 662.37,-110.55"/>
<polygon fill="black" stroke="black" points="664.31,-113.46 670.52,-104.88 660.31,-107.72 664.31,-113.46"/>
</g>
<!-- block&#45;&gt;reconfiguration -->
<g id="edge18" class="edge">
<title>block&#45;&gt;reconfiguration</title>
<path fill="none" stroke="black" d="M466.52,-219.83C451.74,-210.08 431.26,-196.55 413.98,-185.14"/>
<polygon fill="black" stroke="black" points="416.31,-182.48 406.03,-179.89 412.45,-188.32 416.31,-182.48"/>
</g>
<!-- vesting -->
<g id="node7" class="node">
<title>vesting</title>
<ellipse fill="none" stroke="black" cx="897.46" cy="-234" rx="36.29" ry="18"/>
<text text-anchor="middle" x="897.46" y="-230.3" font-family="Times,serif" font-size="14.00">vesting</text>
</g>
<!-- vesting&#45;&gt;timestamp -->
<g id="edge6" class="edge">
<title>vesting&#45;&gt;timestamp</title>
<path fill="none" stroke="black" d="M904.93,-216C912.11,-196.82 919.92,-165.5 905.46,-144 866.27,-85.76 659.54,-44.54 558.77,-27.59"/>
<polygon fill="black" stroke="black" points="559.54,-24.17 549.1,-25.99 558.4,-31.08 559.54,-24.17"/>
</g>
<!-- vesting&#45;&gt;stake -->
<g id="edge14" class="edge">
<title>vesting&#45;&gt;stake</title>
<path fill="none" stroke="black" d="M900.07,-215.64C902.01,-195.83 901.85,-163.64 884.46,-144 864.11,-121.02 780.22,-104.61 729.65,-96.58"/>
<polygon fill="black" stroke="black" points="730.4,-93.15 719.99,-95.09 729.33,-100.07 730.4,-93.15"/>
</g>
<!-- staking_contract -->
<g id="node10" class="node">
<title>staking_contract</title>
<ellipse fill="none" stroke="black" cx="806.46" cy="-162" rx="68.79" ry="18"/>
<text text-anchor="middle" x="806.46" y="-158.3" font-family="Times,serif" font-size="14.00">staking_contract</text>
</g>
<!-- vesting&#45;&gt;staking_contract -->
<g id="edge28" class="edge">
<title>vesting&#45;&gt;staking_contract</title>
<path fill="none" stroke="black" d="M878.6,-218.5C866.47,-209.17 850.45,-196.84 836.58,-186.17"/>
<polygon fill="black" stroke="black" points="839.1,-183.69 829.04,-180.37 834.83,-189.24 839.1,-183.69"/>
</g>
<!-- transaction_validation -->
<g id="node8" class="node">
<title>transaction_validation</title>
<ellipse fill="none" stroke="black" cx="199.46" cy="-90" rx="89.08" ry="18"/>
<text text-anchor="middle" x="199.46" y="-86.3" font-family="Times,serif" font-size="14.00">transaction_validation</text>
</g>
<!-- transaction_validation&#45;&gt;timestamp -->
<g id="edge7" class="edge">
<title>transaction_validation&#45;&gt;timestamp</title>
<path fill="none" stroke="black" d="M256.64,-75.83C312.84,-62.89 397.83,-43.32 451.98,-30.85"/>
<polygon fill="black" stroke="black" points="452.61,-34.3 461.57,-28.65 451.04,-27.48 452.61,-34.3"/>
</g>
<!-- genesis -->
<g id="node9" class="node">
<title>genesis</title>
<ellipse fill="none" stroke="black" cx="380.46" cy="-306" rx="36.29" ry="18"/>
<text text-anchor="middle" x="380.46" y="-302.3" font-family="Times,serif" font-size="14.00">genesis</text>
</g>
<!-- genesis&#45;&gt;timestamp -->
<g id="edge8" class="edge">
<title>genesis&#45;&gt;timestamp</title>
<path fill="none" stroke="black" d="M343.89,-305.61C258.34,-306.17 49.11,-302.26 5.46,-252 -5.04,-239.92 2.99,-231.81 5.46,-216 17.3,-140 32.36,-105.79 101.46,-72 160.56,-43.1 347.64,-28.15 444.32,-22.18"/>
<polygon fill="black" stroke="black" points="444.37,-25.69 454.14,-21.59 443.95,-18.7 444.37,-25.69"/>
</g>
<!-- genesis&#45;&gt;stake -->
<g id="edge15" class="edge">
<title>genesis&#45;&gt;stake</title>
<path fill="none" stroke="black" d="M416.97,-304.44C491.6,-302.44 657.54,-293.35 692.46,-252 723.87,-214.81 711.62,-153.71 700.57,-118.44"/>
<polygon fill="black" stroke="black" points="704.04,-117.78 697.56,-109.4 697.4,-119.99 704.04,-117.78"/>
</g>
<!-- genesis&#45;&gt;reconfiguration -->
<g id="edge22" class="edge">
<title>genesis&#45;&gt;reconfiguration</title>
<path fill="none" stroke="black" d="M344.85,-302.13C286.24,-296.58 173.49,-282.17 149.46,-252 103.76,-194.63 221.64,-174.2 305.32,-166.95"/>
<polygon fill="black" stroke="black" points="305.43,-170.45 315.11,-166.16 304.86,-163.48 305.43,-170.45"/>
</g>
<!-- genesis&#45;&gt;aptos_governance -->
<g id="edge23" class="edge">
<title>genesis&#45;&gt;aptos_governance</title>
<path fill="none" stroke="black" d="M410.87,-295.7C447.28,-284.57 508.99,-265.71 553.98,-251.96"/>
<polygon fill="black" stroke="black" points="554.75,-255.38 563.29,-249.11 552.7,-248.69 554.75,-255.38"/>
</g>
<!-- genesis&#45;&gt;block -->
<g id="edge24" class="edge">
<title>genesis&#45;&gt;block</title>
<path fill="none" stroke="black" d="M401.65,-291C417.66,-280.43 439.81,-265.81 457.46,-254.15"/>
<polygon fill="black" stroke="black" points="459.05,-257.29 465.47,-248.86 455.19,-251.45 459.05,-257.29"/>
</g>
<!-- genesis&#45;&gt;vesting -->
<g id="edge25" class="edge">
<title>genesis&#45;&gt;vesting</title>
<path fill="none" stroke="black" d="M415.18,-300.3C505.76,-288.03 749.26,-255.07 851.38,-241.24"/>
<polygon fill="black" stroke="black" points="851.6,-244.74 861.04,-239.93 850.66,-237.8 851.6,-244.74"/>
</g>
<!-- genesis&#45;&gt;transaction_validation -->
<g id="edge27" class="edge">
<title>genesis&#45;&gt;transaction_validation</title>
<path fill="none" stroke="black" d="M343.9,-305.35C261.04,-305.28 62.88,-299.99 21.46,-252 -27.2,-195.64 78.8,-139.52 147.25,-110.76"/>
<polygon fill="black" stroke="black" points="148.57,-114 156.49,-106.96 145.91,-107.53 148.57,-114"/>
</g>
<!-- genesis&#45;&gt;staking_contract -->
<g id="edge29" class="edge">
<title>genesis&#45;&gt;staking_contract</title>
<path fill="none" stroke="black" d="M416.54,-302.51C493.78,-296.68 672.39,-280.47 725.46,-252 752.67,-237.4 775.46,-209.99 789.87,-189.43"/>
<polygon fill="black" stroke="black" points="792.71,-191.47 795.4,-181.23 786.9,-187.56 792.71,-191.47"/>
</g>
<!-- consensus_config -->
<g id="node12" class="node">
<title>consensus_config</title>
<ellipse fill="none" stroke="black" cx="231.46" cy="-234" rx="73.39" ry="18"/>
<text text-anchor="middle" x="231.46" y="-230.3" font-family="Times,serif" font-size="14.00">consensus_config</text>
</g>
<!-- genesis&#45;&gt;consensus_config -->
<g id="edge31" class="edge">
<title>genesis&#45;&gt;consensus_config</title>
<path fill="none" stroke="black" d="M354.84,-292.97C332.83,-282.63 300.62,-267.49 274.64,-255.29"/>
<polygon fill="black" stroke="black" points="276.2,-252.15 265.66,-251.07 273.22,-258.49 276.2,-252.15"/>
</g>
<!-- gas_schedule -->
<g id="node13" class="node">
<title>gas_schedule</title>
<ellipse fill="none" stroke="black" cx="380.46" cy="-234" rx="57.69" ry="18"/>
<text text-anchor="middle" x="380.46" y="-230.3" font-family="Times,serif" font-size="14.00">gas_schedule</text>
</g>
<!-- genesis&#45;&gt;gas_schedule -->
<g id="edge32" class="edge">
<title>genesis&#45;&gt;gas_schedule</title>
<path fill="none" stroke="black" d="M380.46,-287.7C380.46,-280.41 380.46,-271.73 380.46,-263.54"/>
<polygon fill="black" stroke="black" points="383.96,-263.62 380.46,-253.62 376.96,-263.62 383.96,-263.62"/>
</g>
<!-- version -->
<g id="node14" class="node">
<title>version</title>
<ellipse fill="none" stroke="black" cx="66.46" cy="-234" rx="36.29" ry="18"/>
<text text-anchor="middle" x="66.46" y="-230.3" font-family="Times,serif" font-size="14.00">version</text>
</g>
<!-- genesis&#45;&gt;version -->
<g id="edge33" class="edge">
<title>genesis&#45;&gt;version</title>
<path fill="none" stroke="black" d="M346.38,-299.61C295.76,-291.28 197.94,-273.93 116.46,-252 112.96,-251.06 109.35,-250 105.75,-248.89"/>
<polygon fill="black" stroke="black" points="107.11,-245.65 96.52,-245.91 104.96,-252.31 107.11,-245.65"/>
</g>
<!-- staking_contract&#45;&gt;stake -->
<g id="edge13" class="edge">
<title>staking_contract&#45;&gt;stake</title>
<path fill="none" stroke="black" d="M779.84,-144.94C762.01,-134.18 738.51,-120 720.08,-108.88"/>
<polygon fill="black" stroke="black" points="722.1,-106.01 711.73,-103.84 718.48,-112 722.1,-106.01"/>
</g>
<!-- staking_proxy -->
<g id="node11" class="node">
<title>staking_proxy</title>
<ellipse fill="none" stroke="black" cx="897.46" cy="-306" rx="61.19" ry="18"/>
<text text-anchor="middle" x="897.46" y="-302.3" font-family="Times,serif" font-size="14.00">staking_proxy</text>
</g>
<!-- staking_proxy&#45;&gt;stake -->
<g id="edge16" class="edge">
<title>staking_proxy&#45;&gt;stake</title>
<path fill="none" stroke="black" d="M916.9,-288.46C926.58,-278.92 937.3,-266.05 942.46,-252 959.95,-204.37 945.26,-175.46 905.46,-144 854.69,-103.87 777.71,-93.6 730.96,-91.27"/>
<polygon fill="black" stroke="black" points="731.11,-87.77 720.98,-90.89 730.84,-94.77 731.11,-87.77"/>
</g>
<!-- staking_proxy&#45;&gt;vesting -->
<g id="edge26" class="edge">
<title>staking_proxy&#45;&gt;vesting</title>
<path fill="none" stroke="black" d="M897.46,-287.7C897.46,-280.41 897.46,-271.73 897.46,-263.54"/>
<polygon fill="black" stroke="black" points="900.96,-263.62 897.46,-253.62 893.96,-263.62 900.96,-263.62"/>
</g>
<!-- staking_proxy&#45;&gt;staking_contract -->
<g id="edge30" class="edge">
<title>staking_proxy&#45;&gt;staking_contract</title>
<path fill="none" stroke="black" d="M881.83,-288.59C872.66,-278.5 861.19,-265.03 852.46,-252 839.39,-232.5 827.31,-208.82 818.81,-190.79"/>
<polygon fill="black" stroke="black" points="822.01,-189.37 814.64,-181.75 815.66,-192.3 822.01,-189.37"/>
</g>
<!-- consensus_config&#45;&gt;reconfiguration -->
<g id="edge19" class="edge">
<title>consensus_config&#45;&gt;reconfiguration</title>
<path fill="none" stroke="black" d="M264.53,-217.46C286.23,-207.27 314.83,-193.83 338.18,-182.86"/>
<polygon fill="black" stroke="black" points="339.57,-186.07 347.13,-178.65 336.6,-179.74 339.57,-186.07"/>
</g>
<!-- gas_schedule&#45;&gt;reconfiguration -->
<g id="edge20" class="edge">
<title>gas_schedule&#45;&gt;reconfiguration</title>
<path fill="none" stroke="black" d="M380.46,-215.7C380.46,-208.41 380.46,-199.73 380.46,-191.54"/>
<polygon fill="black" stroke="black" points="383.96,-191.62 380.46,-181.62 376.96,-191.62 383.96,-191.62"/>
</g>
<!-- version&#45;&gt;reconfiguration -->
<g id="edge21" class="edge">
<title>version&#45;&gt;reconfiguration</title>
<path fill="none" stroke="black" d="M95.08,-222.56C102.02,-220.22 109.46,-217.88 116.46,-216 183.04,-198.08 260.55,-183.21 314.28,-173.83"/>
<polygon fill="black" stroke="black" points="314.62,-177.32 323.88,-172.17 313.43,-170.43 314.62,-177.32"/>
</g>
</g>
</svg>
