<?xml version="1.0" encoding="UTF-8" standalone="no"?>
<!DOCTYPE svg PUBLIC "-//W3C//DTD SVG 1.1//EN"
 "http://www.w3.org/Graphics/SVG/1.1/DTD/svg11.dtd">
<!-- Generated by graphviz version 7.0.0 (20221023.0053)
 -->
<!-- Title: G Pages: 1 -->
<svg width="220pt" height="188pt"
 viewBox="0.00 0.00 220.39 188.00" xmlns="http://www.w3.org/2000/svg" xmlns:xlink="http://www.w3.org/1999/xlink">
<g id="graph0" class="graph" transform="scale(1 1) rotate(0) translate(4 184)">
<title>G</title>
<polygon fill="white" stroke="none" points="-4,4 -4,-184 216.39,-184 216.39,4 -4,4"/>
<!-- transaction_fee -->
<g id="node1" class="node">
<title>transaction_fee</title>
<ellipse fill="none" stroke="black" cx="64.34" cy="-18" rx="64.19" ry="18"/>
<text text-anchor="middle" x="64.34" y="-14.3" font-family="Times,serif" font-size="14.00">transaction_fee</text>
</g>
<!-- transaction_validation -->
<g id="node2" class="node">
<title>transaction_validation</title>
<ellipse fill="none" stroke="black" cx="123.34" cy="-90" rx="89.08" ry="18"/>
<text text-anchor="middle" x="123.34" y="-86.3" font-family="Times,serif" font-size="14.00">transaction_validation</text>
</g>
<!-- transaction_validation&#45;&gt;transaction_fee -->
<g id="edge1" class="edge">
<title>transaction_validation&#45;&gt;transaction_fee</title>
<path fill="none" stroke="black" d="M109.06,-72.05C102.1,-63.8 93.59,-53.7 85.87,-44.54"/>
<polygon fill="black" stroke="black" points="88.59,-42.34 79.47,-36.95 83.24,-46.85 88.59,-42.34"/>
</g>
<!-- genesis -->
<g id="node3" class="node">
<title>genesis</title>
<ellipse fill="none" stroke="black" cx="64.34" cy="-162" rx="36.29" ry="18"/>
<text text-anchor="middle" x="64.34" y="-158.3" font-family="Times,serif" font-size="14.00">genesis</text>
</g>
<!-- genesis&#45;&gt;transaction_fee -->
<g id="edge2" class="edge">
<title>genesis&#45;&gt;transaction_fee</title>
<path fill="none" stroke="black" d="M48.67,-145.38C39.96,-135.56 29.98,-122.11 25.34,-108 20.35,-92.8 20.35,-87.2 25.34,-72 28.61,-62.06 34.52,-52.46 40.78,-44.21"/>
<polygon fill="black" stroke="black" points="43.29,-46.67 46.9,-36.71 37.87,-42.24 43.29,-46.67"/>
</g>
<!-- genesis&#45;&gt;transaction_validation -->
<g id="edge3" class="edge">
<title>genesis&#45;&gt;transaction_validation</title>
<path fill="none" stroke="black" d="M77.73,-145.12C84.84,-136.68 93.76,-126.1 101.81,-116.55"/>
<polygon fill="black" stroke="black" points="104.44,-118.86 108.21,-108.95 99.09,-114.35 104.44,-118.86"/>
</g>
</g>
</svg>
