<?xml version="1.0" encoding="UTF-8" standalone="no"?>
<!DOCTYPE svg PUBLIC "-//W3C//DTD SVG 1.1//EN"
 "http://www.w3.org/Graphics/SVG/1.1/DTD/svg11.dtd">
<!-- Generated by graphviz version 7.0.0 (20221023.0053)
 -->
<!-- Title: G Pages: 1 -->
<svg width="152pt" height="238pt"
 viewBox="0.00 0.00 151.64 238.00" xmlns="http://www.w3.org/2000/svg" xmlns:xlink="http://www.w3.org/1999/xlink">
<g id="graph0" class="graph" transform="scale(1 1) rotate(0) translate(4 234)">
<title>G</title>
<polygon fill="white" stroke="none" points="-4,4 -4,-234 147.64,-234 147.64,4 -4,4"/>
<g id="clust1" class="cluster">
<title>cluster_voting</title>
<polygon fill="none" stroke="black" points="21.64,-64 21.64,-139 109.64,-139 109.64,-64 21.64,-64"/>
<text text-anchor="middle" x="65.64" y="-123.8" font-family="Times,serif" font-size="14.00">voting</text>
</g>
<g id="clust2" class="cluster">
<title>cluster_aptos_governance</title>
<polygon fill="none" stroke="black" points="21.64,-147 21.64,-222 135.64,-222 135.64,-147 21.64,-147"/>
<text text-anchor="middle" x="78.64" y="-206.8" font-family="Times,serif" font-size="14.00">aptos_governance</text>
</g>
<!-- get_script_hash -->
<g id="node1" class="node">
<title>get_script_hash</title>
<ellipse fill="none" stroke="black" cx="65.64" cy="-18" rx="65.79" ry="18"/>
<text text-anchor="middle" x="65.64" y="-14.3" font-family="Times,serif" font-size="14.00">get_script_hash</text>
</g>
<!-- voting::resolve -->
<g id="node2" class="node">
<title>voting::resolve</title>
<ellipse fill="none" stroke="black" cx="65.64" cy="-90" rx="36.29" ry="18"/>
<text text-anchor="middle" x="65.64" y="-86.3" font-family="Times,serif" font-size="14.00">resolve</text>
</g>
<!-- voting::resolve&#45;&gt;get_script_hash -->
<g id="edge1" class="edge">
<title>voting::resolve&#45;&gt;get_script_hash</title>
<path fill="none" stroke="black" d="M65.64,-71.7C65.64,-64.41 65.64,-55.73 65.64,-47.54"/>
<polygon fill="black" stroke="black" points="69.14,-47.62 65.64,-37.62 62.14,-47.62 69.14,-47.62"/>
</g>
<!-- aptos_governance::resolve -->
<g id="node3" class="node">
<title>aptos_governance::resolve</title>
<ellipse fill="none" stroke="black" cx="65.64" cy="-173" rx="36.29" ry="18"/>
<text text-anchor="middle" x="65.64" y="-169.3" font-family="Times,serif" font-size="14.00">resolve</text>
</g>
<!-- aptos_governance::resolve&#45;&gt;voting::resolve -->
<g id="edge2" class="edge">
<title>aptos_governance::resolve&#45;&gt;voting::resolve</title>
<path fill="none" stroke="black" d="M65.64,-154.82C65.64,-144.69 65.64,-131.6 65.64,-119.92"/>
<polygon fill="black" stroke="black" points="69.14,-119.95 65.64,-109.95 62.14,-119.95 69.14,-119.95"/>
</g>
</g>
</svg>
