<?xml version="1.0" encoding="UTF-8" standalone="no"?>
<!DOCTYPE svg PUBLIC "-//W3C//DTD SVG 1.1//EN"
 "http://www.w3.org/Graphics/SVG/1.1/DTD/svg11.dtd">
<!-- Generated by graphviz version 7.0.0 (20221023.0053)
 -->
<!-- Title: G Pages: 1 -->
<svg width="1482pt" height="692pt"
 viewBox="0.00 0.00 1482.00 692.00" xmlns="http://www.w3.org/2000/svg" xmlns:xlink="http://www.w3.org/1999/xlink">
<g id="graph0" class="graph" transform="scale(1 1) rotate(0) translate(4 688)">
<title>G</title>
<polygon fill="white" stroke="none" points="-4,4 -4,-688 1478,-688 1478,4 -4,4"/>
<!-- transaction_fee -->
<g id="node1" class="node">
<title>transaction_fee</title>
<ellipse fill="none" stroke="black" cx="523" cy="-666" rx="64.19" ry="18"/>
<text text-anchor="middle" x="523" y="-662.3" font-family="Times,serif" font-size="14.00">transaction_fee</text>
</g>
<!-- system_addresses -->
<g id="node2" class="node">
<title>system_addresses</title>
<ellipse fill="none" stroke="black" cx="517" cy="-306" rx="73.39" ry="18"/>
<text text-anchor="middle" x="517" y="-302.3" font-family="Times,serif" font-size="14.00">system_addresses</text>
</g>
<!-- transaction_fee&#45;&gt;system_addresses -->
<g id="edge1" class="edge">
<title>transaction_fee&#45;&gt;system_addresses</title>
<path fill="none" stroke="black" d="M522.71,-647.73C521.75,-590.43 518.66,-406.18 517.47,-335.22"/>
<polygon fill="black" stroke="black" points="520.98,-335.55 517.31,-325.61 513.98,-335.66 520.98,-335.55"/>
</g>
<!-- coin -->
<g id="node3" class="node">
<title>coin</title>
<ellipse fill="none" stroke="black" cx="997" cy="-522" rx="27" ry="18"/>
<text text-anchor="middle" x="997" y="-518.3" font-family="Times,serif" font-size="14.00">coin</text>
</g>
<!-- transaction_fee&#45;&gt;coin -->
<g id="edge2" class="edge">
<title>transaction_fee&#45;&gt;coin</title>
<path fill="none" stroke="black" d="M565.48,-652.27C657.92,-624.58 875.88,-559.29 961.54,-533.62"/>
<polygon fill="black" stroke="black" points="962.47,-537 971.04,-530.78 960.46,-530.29 962.47,-537"/>
</g>
<!-- aptos_coin -->
<g id="node4" class="node">
<title>aptos_coin</title>
<ellipse fill="none" stroke="black" cx="446" cy="-594" rx="48.99" ry="18"/>
<text text-anchor="middle" x="446" y="-590.3" font-family="Times,serif" font-size="14.00">aptos_coin</text>
</g>
<!-- transaction_fee&#45;&gt;aptos_coin -->
<g id="edge3" class="edge">
<title>transaction_fee&#45;&gt;aptos_coin</title>
<path fill="none" stroke="black" d="M504.75,-648.41C495,-639.54 482.82,-628.47 472.08,-618.71"/>
<polygon fill="black" stroke="black" points="474.73,-616.38 464.97,-612.25 470.02,-621.56 474.73,-616.38"/>
</g>
<!-- signer -->
<g id="node5" class="node">
<title>signer</title>
<ellipse fill="none" stroke="black" cx="1360" cy="-90" rx="32.49" ry="18"/>
<text text-anchor="middle" x="1360" y="-86.3" font-family="Times,serif" font-size="14.00">signer</text>
</g>
<!-- system_addresses&#45;&gt;signer -->
<g id="edge4" class="edge">
<title>system_addresses&#45;&gt;signer</title>
<path fill="none" stroke="black" d="M552.25,-289.79C597.28,-270.75 677.9,-237.98 749,-216 957.71,-151.48 1216.96,-111.02 1317.45,-96.77"/>
<polygon fill="black" stroke="black" points="1317.71,-100.27 1327.12,-95.41 1316.74,-93.33 1317.71,-100.27"/>
</g>
<!-- error -->
<g id="node6" class="node">
<title>error</title>
<ellipse fill="none" stroke="black" cx="550" cy="-90" rx="27.9" ry="18"/>
<text text-anchor="middle" x="550" y="-86.3" font-family="Times,serif" font-size="14.00">error</text>
</g>
<!-- system_addresses&#45;&gt;error -->
<g id="edge5" class="edge">
<title>system_addresses&#45;&gt;error</title>
<path fill="none" stroke="black" d="M519.64,-287.85C525.3,-251.14 538.64,-164.66 545.6,-119.53"/>
<polygon fill="black" stroke="black" points="549.05,-120.14 547.11,-109.73 542.13,-119.08 549.05,-120.14"/>
</g>
<!-- coin&#45;&gt;system_addresses -->
<g id="edge11" class="edge">
<title>coin&#45;&gt;system_addresses</title>
<path fill="none" stroke="black" d="M970.82,-517.19C904.93,-506.68 728.64,-472.82 604,-396 577.16,-379.46 552.66,-352.87 536.54,-333.05"/>
<polygon fill="black" stroke="black" points="539.44,-331.06 530.48,-325.4 533.95,-335.41 539.44,-331.06"/>
</g>
<!-- coin&#45;&gt;signer -->
<g id="edge8" class="edge">
<title>coin&#45;&gt;signer</title>
<path fill="none" stroke="black" d="M1024.05,-521.1C1081.59,-520.37 1219.33,-513.57 1323,-468 1381.52,-442.27 1436,-442.93 1436,-379 1436,-379 1436,-379 1436,-233 1436,-186.98 1404.58,-141.43 1382.15,-114.78"/>
<polygon fill="black" stroke="black" points="1384.85,-112.56 1375.65,-107.31 1379.57,-117.15 1384.85,-112.56"/>
</g>
<!-- coin&#45;&gt;error -->
<g id="edge9" class="edge">
<title>coin&#45;&gt;error</title>
<path fill="none" stroke="black" d="M969.83,-520.75C834.89,-519.32 240.41,-510.64 171,-468 100.21,-424.51 76,-390.08 76,-307 76,-307 76,-307 76,-233 76,-165.88 135.92,-169.51 198,-144 305.04,-100.02 443.83,-92.02 510.64,-90.9"/>
<polygon fill="black" stroke="black" points="510.41,-94.4 520.36,-90.78 510.32,-87.4 510.41,-94.4"/>
</g>
<!-- option -->
<g id="node7" class="node">
<title>option</title>
<ellipse fill="none" stroke="black" cx="904" cy="-90" rx="33.29" ry="18"/>
<text text-anchor="middle" x="904" y="-86.3" font-family="Times,serif" font-size="14.00">option</text>
</g>
<!-- coin&#45;&gt;option -->
<g id="edge6" class="edge">
<title>coin&#45;&gt;option</title>
<path fill="none" stroke="black" d="M1023.62,-517.48C1113.18,-504.91 1398,-458.67 1398,-379 1398,-379 1398,-379 1398,-305 1398,-110.3 1070.9,-90.76 949.04,-90.24"/>
<polygon fill="black" stroke="black" points="949.08,-86.74 939.08,-90.25 949.08,-93.74 949.08,-86.74"/>
</g>
<!-- string -->
<g id="node8" class="node">
<title>string</title>
<ellipse fill="none" stroke="black" cx="1092" cy="-162" rx="30.59" ry="18"/>
<text text-anchor="middle" x="1092" y="-158.3" font-family="Times,serif" font-size="14.00">string</text>
</g>
<!-- coin&#45;&gt;string -->
<g id="edge7" class="edge">
<title>coin&#45;&gt;string</title>
<path fill="none" stroke="black" d="M1023.81,-518.92C1063.2,-514.76 1137.7,-502.61 1190,-468 1224.04,-445.48 1232.26,-434.06 1247,-396 1275.94,-321.28 1304.2,-280.74 1257,-216 1253.12,-210.68 1177.47,-187.87 1129.96,-173.97"/>
<polygon fill="black" stroke="black" points="1131.16,-170.67 1120.58,-171.23 1129.2,-177.39 1131.16,-170.67"/>
</g>
<!-- type_info -->
<g id="node9" class="node">
<title>type_info</title>
<ellipse fill="none" stroke="black" cx="1204" cy="-234" rx="44.39" ry="18"/>
<text text-anchor="middle" x="1204" y="-230.3" font-family="Times,serif" font-size="14.00">type_info</text>
</g>
<!-- coin&#45;&gt;type_info -->
<g id="edge10" class="edge">
<title>coin&#45;&gt;type_info</title>
<path fill="none" stroke="black" d="M1022.9,-516.14C1073.31,-505.11 1183.45,-472.92 1227,-396 1250.87,-353.84 1232.41,-295.86 1217.64,-262.21"/>
<polygon fill="black" stroke="black" points="1220.83,-260.78 1213.47,-253.17 1214.47,-263.71 1220.83,-260.78"/>
</g>
<!-- event -->
<g id="node10" class="node">
<title>event</title>
<ellipse fill="none" stroke="black" cx="1188" cy="-378" rx="29.8" ry="18"/>
<text text-anchor="middle" x="1188" y="-374.3" font-family="Times,serif" font-size="14.00">event</text>
</g>
<!-- coin&#45;&gt;event -->
<g id="edge12" class="edge">
<title>coin&#45;&gt;event</title>
<path fill="none" stroke="black" d="M1014.63,-507.9C1048.07,-483.03 1120.94,-428.86 1160.73,-399.27"/>
<polygon fill="black" stroke="black" points="1162.71,-402.17 1168.64,-393.39 1158.53,-396.55 1162.71,-402.17"/>
</g>
<!-- account -->
<g id="node11" class="node">
<title>account</title>
<ellipse fill="none" stroke="black" cx="997" cy="-450" rx="38.19" ry="18"/>
<text text-anchor="middle" x="997" y="-446.3" font-family="Times,serif" font-size="14.00">account</text>
</g>
<!-- coin&#45;&gt;account -->
<g id="edge13" class="edge">
<title>coin&#45;&gt;account</title>
<path fill="none" stroke="black" d="M997,-503.7C997,-496.41 997,-487.73 997,-479.54"/>
<polygon fill="black" stroke="black" points="1000.5,-479.62 997,-469.62 993.5,-479.62 1000.5,-479.62"/>
</g>
<!-- optional_aggregator -->
<g id="node12" class="node">
<title>optional_aggregator</title>
<ellipse fill="none" stroke="black" cx="261" cy="-450" rx="81.49" ry="18"/>
<text text-anchor="middle" x="261" y="-446.3" font-family="Times,serif" font-size="14.00">optional_aggregator</text>
</g>
<!-- coin&#45;&gt;optional_aggregator -->
<g id="edge14" class="edge">
<title>coin&#45;&gt;optional_aggregator</title>
<path fill="none" stroke="black" d="M970.37,-518.47C869.92,-508.91 511.26,-474.8 345.78,-459.06"/>
<polygon fill="black" stroke="black" points="346.48,-455.61 336.19,-458.15 345.81,-462.58 346.48,-455.61"/>
</g>
<!-- aptos_coin&#45;&gt;system_addresses -->
<g id="edge20" class="edge">
<title>aptos_coin&#45;&gt;system_addresses</title>
<path fill="none" stroke="black" d="M447.53,-575.85C450.44,-546.18 457.67,-483.48 471,-432 479.9,-397.64 494.66,-359.55 505.06,-334.55"/>
<polygon fill="black" stroke="black" points="508.24,-336.01 508.9,-325.44 501.79,-333.29 508.24,-336.01"/>
</g>
<!-- aptos_coin&#45;&gt;coin -->
<g id="edge21" class="edge">
<title>aptos_coin&#45;&gt;coin</title>
<path fill="none" stroke="black" d="M491.56,-587.21C597.97,-573.69 861.26,-540.24 959.36,-527.78"/>
<polygon fill="black" stroke="black" points="959.5,-531.29 968.98,-526.56 958.62,-524.35 959.5,-531.29"/>
</g>
<!-- aptos_coin&#45;&gt;signer -->
<g id="edge18" class="edge">
<title>aptos_coin&#45;&gt;signer</title>
<path fill="none" stroke="black" d="M494.89,-591.47C699.19,-584.42 1474,-551.11 1474,-451 1474,-451 1474,-451 1474,-233 1474,-179.4 1423.99,-134.51 1390.22,-110.3"/>
<polygon fill="black" stroke="black" points="1392.63,-107.72 1382.42,-104.9 1388.64,-113.47 1392.63,-107.72"/>
</g>
<!-- aptos_coin&#45;&gt;error -->
<g id="edge19" class="edge">
<title>aptos_coin&#45;&gt;error</title>
<path fill="none" stroke="black" d="M397.65,-590.27C314.54,-584.82 148.81,-570.41 100,-540 59.08,-514.51 38,-499.21 38,-451 38,-451 38,-451 38,-233 38,-184.79 58.65,-168.78 100,-144 168.91,-102.71 414.27,-93.57 510.69,-91.56"/>
<polygon fill="black" stroke="black" points="510.51,-95.06 520.44,-91.37 510.38,-88.07 510.51,-95.06"/>
</g>
<!-- aptos_coin&#45;&gt;option -->
<g id="edge16" class="edge">
<title>aptos_coin&#45;&gt;option</title>
<path fill="none" stroke="black" d="M396.65,-593.44C304.17,-591.41 114,-572.46 114,-451 114,-451 114,-451 114,-377 114,-283.9 172.49,-270.46 248,-216 319.22,-164.63 346.75,-165.08 432,-144 585.7,-105.99 774.37,-95.18 859.08,-92.16"/>
<polygon fill="black" stroke="black" points="859.18,-95.65 869.06,-91.82 858.95,-88.66 859.18,-95.65"/>
</g>
<!-- aptos_coin&#45;&gt;string -->
<g id="edge17" class="edge">
<title>aptos_coin&#45;&gt;string</title>
<path fill="none" stroke="black" d="M480.81,-581.03C572.48,-548.89 817.35,-458.91 874,-396 930.52,-333.23 875.24,-275.69 935,-216 965.81,-185.22 1015.09,-172.31 1050.21,-166.9"/>
<polygon fill="black" stroke="black" points="1050.61,-170.38 1060.03,-165.54 1049.65,-163.44 1050.61,-170.38"/>
</g>
<!-- vector -->
<g id="node13" class="node">
<title>vector</title>
<ellipse fill="none" stroke="black" cx="1014" cy="-18" rx="32.49" ry="18"/>
<text text-anchor="middle" x="1014" y="-14.3" font-family="Times,serif" font-size="14.00">vector</text>
</g>
<!-- aptos_coin&#45;&gt;vector -->
<g id="edge15" class="edge">
<title>aptos_coin&#45;&gt;vector</title>
<path fill="none" stroke="black" d="M397.01,-591.81C303.87,-588.7 105.61,-577.72 50,-540 12.45,-514.53 0,-496.37 0,-451 0,-451 0,-451 0,-161 0,-61.54 775.05,-27.45 969.94,-20.45"/>
<polygon fill="black" stroke="black" points="970.03,-23.95 979.9,-20.1 969.78,-16.96 970.03,-23.95"/>
</g>
<!-- option&#45;&gt;vector -->
<g id="edge22" class="edge">
<title>option&#45;&gt;vector</title>
<path fill="none" stroke="black" d="M924.95,-75.67C941.54,-65.11 964.95,-50.22 983.6,-38.35"/>
<polygon fill="black" stroke="black" points="985.29,-41.42 991.85,-33.09 981.54,-35.51 985.29,-41.42"/>
</g>
<!-- string&#45;&gt;option -->
<g id="edge24" class="edge">
<title>string&#45;&gt;option</title>
<path fill="none" stroke="black" d="M1066.65,-151.56C1034.35,-139.54 978.29,-118.66 941.17,-104.84"/>
<polygon fill="black" stroke="black" points="942.78,-101.71 932.19,-101.5 940.34,-108.27 942.78,-101.71"/>
</g>
<!-- string&#45;&gt;vector -->
<g id="edge23" class="edge">
<title>string&#45;&gt;vector</title>
<path fill="none" stroke="black" d="M1082.9,-144.43C1069.51,-120.06 1044.38,-74.31 1028.46,-45.32"/>
<polygon fill="black" stroke="black" points="1031.65,-43.87 1023.77,-36.79 1025.52,-47.24 1031.65,-43.87"/>
</g>
<!-- type_info&#45;&gt;error -->
<g id="edge26" class="edge">
<title>type_info&#45;&gt;error</title>
<path fill="none" stroke="black" d="M1170.8,-221.76C1164.27,-219.72 1157.45,-217.7 1151,-216 940.53,-160.52 683.37,-114.01 587.97,-97.46"/>
<polygon fill="black" stroke="black" points="588.83,-94.06 578.38,-95.81 587.64,-100.96 588.83,-94.06"/>
</g>
<!-- type_info&#45;&gt;string -->
<g id="edge25" class="edge">
<title>type_info&#45;&gt;string</title>
<path fill="none" stroke="black" d="M1180.52,-218.33C1163.53,-207.7 1140.42,-193.26 1122.07,-181.8"/>
<polygon fill="black" stroke="black" points="1124.06,-178.91 1113.72,-176.58 1120.35,-184.85 1124.06,-178.91"/>
</g>
<!-- features -->
<g id="node14" class="node">
<title>features</title>
<ellipse fill="none" stroke="black" cx="1204" cy="-162" rx="38.19" ry="18"/>
<text text-anchor="middle" x="1204" y="-158.3" font-family="Times,serif" font-size="14.00">features</text>
</g>
<!-- type_info&#45;&gt;features -->
<g id="edge27" class="edge">
<title>type_info&#45;&gt;features</title>
<path fill="none" stroke="black" d="M1204,-215.7C1204,-208.41 1204,-199.73 1204,-191.54"/>
<polygon fill="black" stroke="black" points="1207.5,-191.62 1204,-181.62 1200.5,-191.62 1207.5,-191.62"/>
</g>
<!-- bcs -->
<g id="node15" class="node">
<title>bcs</title>
<ellipse fill="none" stroke="black" cx="971" cy="-234" rx="27" ry="18"/>
<text text-anchor="middle" x="971" y="-230.3" font-family="Times,serif" font-size="14.00">bcs</text>
</g>
<!-- event&#45;&gt;bcs -->
<g id="edge28" class="edge">
<title>event&#45;&gt;bcs</title>
<path fill="none" stroke="black" d="M1193.96,-359.92C1199.6,-340.36 1205.04,-308.41 1189,-288 1187.58,-286.19 1069.06,-258.08 1007.4,-243.55"/>
<polygon fill="black" stroke="black" points="1008.24,-240.15 997.7,-241.27 1006.63,-246.97 1008.24,-240.15"/>
</g>
<!-- guid -->
<g id="node16" class="node">
<title>guid</title>
<ellipse fill="none" stroke="black" cx="1153" cy="-306" rx="27" ry="18"/>
<text text-anchor="middle" x="1153" y="-302.3" font-family="Times,serif" font-size="14.00">guid</text>
</g>
<!-- event&#45;&gt;guid -->
<g id="edge29" class="edge">
<title>event&#45;&gt;guid</title>
<path fill="none" stroke="black" d="M1179.71,-360.41C1175.7,-352.39 1170.78,-342.57 1166.27,-333.54"/>
<polygon fill="black" stroke="black" points="1169.51,-332.2 1161.91,-324.82 1163.25,-335.33 1169.51,-332.2"/>
</g>
<!-- account&#45;&gt;system_addresses -->
<g id="edge36" class="edge">
<title>account&#45;&gt;system_addresses</title>
<path fill="none" stroke="black" d="M958.54,-449.01C893.61,-447.73 759.24,-439.51 656,-396 631.43,-385.64 630.23,-374.74 608,-360 591.34,-348.96 572.32,-337.68 555.99,-328.38"/>
<polygon fill="black" stroke="black" points="557.96,-325.48 547.53,-323.62 554.52,-331.58 557.96,-325.48"/>
</g>
<!-- account&#45;&gt;signer -->
<g id="edge32" class="edge">
<title>account&#45;&gt;signer</title>
<path fill="none" stroke="black" d="M1033.53,-444.62C1090.71,-437.11 1197.84,-420.22 1227,-396 1314.93,-322.98 1346.39,-180.63 1356.14,-119.74"/>
<polygon fill="black" stroke="black" points="1359.6,-120.28 1357.64,-109.86 1352.68,-119.23 1359.6,-120.28"/>
</g>
<!-- account&#45;&gt;error -->
<g id="edge33" class="edge">
<title>account&#45;&gt;error</title>
<path fill="none" stroke="black" d="M959.3,-445.95C891.21,-439.81 751.16,-424.08 712,-396 614.93,-326.4 570.83,-180.42 556.05,-119.09"/>
<polygon fill="black" stroke="black" points="559.49,-118.42 553.82,-109.47 552.67,-120 559.49,-118.42"/>
</g>
<!-- account&#45;&gt;option -->
<g id="edge31" class="edge">
<title>account&#45;&gt;option</title>
<path fill="none" stroke="black" d="M1002.07,-431.67C1012.76,-392.05 1034.42,-292.41 1007,-216 991.79,-173.62 955.31,-135.35 930.12,-112.63"/>
<polygon fill="black" stroke="black" points="932.69,-110.24 922.87,-106.26 928.07,-115.49 932.69,-110.24"/>
</g>
<!-- account&#45;&gt;type_info -->
<g id="edge34" class="edge">
<title>account&#45;&gt;type_info</title>
<path fill="none" stroke="black" d="M1015.41,-433.91C1026.99,-423.88 1041.81,-410.02 1053,-396 1087.82,-352.4 1077.79,-327.69 1117,-288 1130.9,-273.93 1149.25,-262.05 1165.51,-253.12"/>
<polygon fill="black" stroke="black" points="1166.76,-256.41 1173.97,-248.65 1163.49,-250.22 1166.76,-256.41"/>
</g>
<!-- account&#45;&gt;event -->
<g id="edge43" class="edge">
<title>account&#45;&gt;event</title>
<path fill="none" stroke="black" d="M1026.92,-438.44C1056.67,-427.88 1103.59,-411.09 1144,-396 1146.85,-394.94 1149.8,-393.82 1152.76,-392.7"/>
<polygon fill="black" stroke="black" points="1153.87,-396.02 1161.96,-389.17 1151.37,-389.48 1153.87,-396.02"/>
</g>
<!-- account&#45;&gt;vector -->
<g id="edge30" class="edge">
<title>account&#45;&gt;vector</title>
<path fill="none" stroke="black" d="M1035.55,-449.49C1089.43,-448.43 1188.44,-439.98 1258,-396 1391.04,-311.88 1504.47,-190.61 1401,-72 1356.96,-21.51 1150.36,-17.39 1058.37,-18.13"/>
<polygon fill="black" stroke="black" points="1058.43,-14.63 1048.47,-18.24 1058.51,-21.63 1058.43,-14.63"/>
</g>
<!-- account&#45;&gt;bcs -->
<g id="edge38" class="edge">
<title>account&#45;&gt;bcs</title>
<path fill="none" stroke="black" d="M994.92,-431.85C990.46,-395.14 979.95,-308.66 974.47,-263.53"/>
<polygon fill="black" stroke="black" points="977.96,-263.24 973.28,-253.73 971.01,-264.08 977.96,-263.24"/>
</g>
<!-- account&#45;&gt;guid -->
<g id="edge41" class="edge">
<title>account&#45;&gt;guid</title>
<path fill="none" stroke="black" d="M1028.83,-439.54C1052.45,-431.2 1084.22,-417.07 1106,-396 1123.64,-378.94 1136.07,-353.81 1143.7,-334.6"/>
<polygon fill="black" stroke="black" points="1146.88,-336.09 1147.11,-325.5 1140.32,-333.64 1146.88,-336.09"/>
</g>
<!-- table -->
<g id="node17" class="node">
<title>table</title>
<ellipse fill="none" stroke="black" cx="398" cy="-306" rx="27.9" ry="18"/>
<text text-anchor="middle" x="398" y="-302.3" font-family="Times,serif" font-size="14.00">table</text>
</g>
<!-- account&#45;&gt;table -->
<g id="edge35" class="edge">
<title>account&#45;&gt;table</title>
<path fill="none" stroke="black" d="M958.8,-447.08C888.34,-442.81 733.64,-430.08 608,-396 542.01,-378.1 469.5,-343.86 429.29,-323.46"/>
<polygon fill="black" stroke="black" points="430.92,-320.36 420.42,-318.91 427.72,-326.59 430.92,-320.36"/>
</g>
<!-- hash -->
<g id="node18" class="node">
<title>hash</title>
<ellipse fill="none" stroke="black" cx="785" cy="-234" rx="27" ry="18"/>
<text text-anchor="middle" x="785" y="-230.3" font-family="Times,serif" font-size="14.00">hash</text>
</g>
<!-- account&#45;&gt;hash -->
<g id="edge37" class="edge">
<title>account&#45;&gt;hash</title>
<path fill="none" stroke="black" d="M958.84,-447.24C891.69,-443.27 756.79,-431.02 728,-396 694.09,-354.76 736.09,-291.88 763.98,-258.2"/>
<polygon fill="black" stroke="black" points="766.58,-260.55 770.42,-250.67 761.26,-256 766.58,-260.55"/>
</g>
<!-- ed25519 -->
<g id="node19" class="node">
<title>ed25519</title>
<ellipse fill="none" stroke="black" cx="839" cy="-306" rx="40.89" ry="18"/>
<text text-anchor="middle" x="839" y="-302.3" font-family="Times,serif" font-size="14.00">ed25519</text>
</g>
<!-- account&#45;&gt;ed25519 -->
<g id="edge39" class="edge">
<title>account&#45;&gt;ed25519</title>
<path fill="none" stroke="black" d="M979.79,-433.53C952.01,-408.57 897.13,-359.24 864.7,-330.1"/>
<polygon fill="black" stroke="black" points="867.09,-327.54 857.31,-323.46 862.41,-332.75 867.09,-327.54"/>
</g>
<!-- multi_ed25519 -->
<g id="node20" class="node">
<title>multi_ed25519</title>
<ellipse fill="none" stroke="black" cx="801" cy="-378" rx="64.19" ry="18"/>
<text text-anchor="middle" x="801" y="-374.3" font-family="Times,serif" font-size="14.00">multi_ed25519</text>
</g>
<!-- account&#45;&gt;multi_ed25519 -->
<g id="edge40" class="edge">
<title>account&#45;&gt;multi_ed25519</title>
<path fill="none" stroke="black" d="M967.23,-438.37C936.14,-427.26 886.86,-409.66 850.01,-396.5"/>
<polygon fill="black" stroke="black" points="851.51,-393.32 840.92,-393.26 849.16,-399.92 851.51,-393.32"/>
</g>
<!-- from_bcs -->
<g id="node21" class="node">
<title>from_bcs</title>
<ellipse fill="none" stroke="black" cx="1098" cy="-234" rx="44.39" ry="18"/>
<text text-anchor="middle" x="1098" y="-230.3" font-family="Times,serif" font-size="14.00">from_bcs</text>
</g>
<!-- account&#45;&gt;from_bcs -->
<g id="edge42" class="edge">
<title>account&#45;&gt;from_bcs</title>
<path fill="none" stroke="black" d="M1008.09,-432.68C1014.85,-422.4 1023.41,-408.7 1030,-396 1053.61,-350.46 1075.69,-294.85 1087.97,-262.33"/>
<polygon fill="black" stroke="black" points="1091.13,-263.86 1091.36,-253.27 1084.58,-261.41 1091.13,-263.86"/>
</g>
<!-- optional_aggregator&#45;&gt;error -->
<g id="edge45" class="edge">
<title>optional_aggregator&#45;&gt;error</title>
<path fill="none" stroke="black" d="M223.76,-433.54C206.92,-424.82 188.12,-412.34 176,-396 151.59,-363.1 152,-347.97 152,-307 152,-307 152,-307 152,-233 152,-157.22 411.22,-111.27 511.26,-96.36"/>
<polygon fill="black" stroke="black" points="511.76,-99.82 521.15,-94.91 510.75,-92.89 511.76,-99.82"/>
</g>
<!-- optional_aggregator&#45;&gt;option -->
<g id="edge44" class="edge">
<title>optional_aggregator&#45;&gt;option</title>
<path fill="none" stroke="black" d="M246.5,-432.28C221.25,-401.06 174.99,-332.99 209,-288 289.92,-180.96 721.15,-115.22 860.52,-96.53"/>
<polygon fill="black" stroke="black" points="860.62,-100.05 870.07,-95.26 859.7,-93.11 860.62,-100.05"/>
</g>
<!-- aggregator -->
<g id="node22" class="node">
<title>aggregator</title>
<ellipse fill="none" stroke="black" cx="266" cy="-306" rx="48.19" ry="18"/>
<text text-anchor="middle" x="266" y="-302.3" font-family="Times,serif" font-size="14.00">aggregator</text>
</g>
<!-- optional_aggregator&#45;&gt;aggregator -->
<g id="edge46" class="edge">
<title>optional_aggregator&#45;&gt;aggregator</title>
<path fill="none" stroke="black" d="M258.49,-431.58C256.26,-413.61 253.68,-384.81 256,-360 256.76,-351.86 258.17,-343.1 259.69,-335.1"/>
<polygon fill="black" stroke="black" points="263.07,-336.05 261.64,-325.55 256.21,-334.65 263.07,-336.05"/>
</g>
<!-- aggregator_factory -->
<g id="node23" class="node">
<title>aggregator_factory</title>
<ellipse fill="none" stroke="black" cx="342" cy="-378" rx="77.19" ry="18"/>
<text text-anchor="middle" x="342" y="-374.3" font-family="Times,serif" font-size="14.00">aggregator_factory</text>
</g>
<!-- optional_aggregator&#45;&gt;aggregator_factory -->
<g id="edge47" class="edge">
<title>optional_aggregator&#45;&gt;aggregator_factory</title>
<path fill="none" stroke="black" d="M280.61,-432.05C290.66,-423.37 303.07,-412.64 314.1,-403.11"/>
<polygon fill="black" stroke="black" points="316.15,-405.97 321.43,-396.78 311.57,-400.67 316.15,-405.97"/>
</g>
<!-- features&#45;&gt;signer -->
<g id="edge48" class="edge">
<title>features&#45;&gt;signer</title>
<path fill="none" stroke="black" d="M1230.82,-148.97C1256.85,-137.29 1296.5,-119.49 1325,-106.7"/>
<polygon fill="black" stroke="black" points="1326.26,-109.98 1333.95,-102.69 1323.39,-103.59 1326.26,-109.98"/>
</g>
<!-- features&#45;&gt;error -->
<g id="edge49" class="edge">
<title>features&#45;&gt;error</title>
<path fill="none" stroke="black" d="M1171.22,-152.23C1158.99,-149.23 1144.93,-146.1 1132,-144 929.37,-111.02 683.46,-97.06 589.28,-92.66"/>
<polygon fill="black" stroke="black" points="589.7,-89.18 579.55,-92.22 589.38,-96.17 589.7,-89.18"/>
</g>
<!-- ed25519&#45;&gt;error -->
<g id="edge51" class="edge">
<title>ed25519&#45;&gt;error</title>
<path fill="none" stroke="black" d="M839.91,-287.7C840.01,-268.23 837.33,-236.65 821,-216 761.8,-141.13 647.47,-109.29 588.01,-97.31"/>
<polygon fill="black" stroke="black" points="588.85,-93.91 578.37,-95.46 587.53,-100.78 588.85,-93.91"/>
</g>
<!-- ed25519&#45;&gt;option -->
<g id="edge50" class="edge">
<title>ed25519&#45;&gt;option</title>
<path fill="none" stroke="black" d="M844.21,-287.85C855.38,-251.07 881.74,-164.29 895.42,-119.24"/>
<polygon fill="black" stroke="black" points="898.77,-120.27 898.33,-109.68 892.07,-118.23 898.77,-120.27"/>
</g>
<!-- ed25519&#45;&gt;type_info -->
<g id="edge52" class="edge">
<title>ed25519&#45;&gt;type_info</title>
<path fill="none" stroke="black" d="M877.79,-300.22C937.14,-292.49 1053.85,-275.7 1151,-252 1153.94,-251.28 1156.94,-250.49 1159.96,-249.65"/>
<polygon fill="black" stroke="black" points="1160.79,-253.05 1169.39,-246.86 1158.81,-246.34 1160.79,-253.05"/>
</g>
<!-- ed25519&#45;&gt;bcs -->
<g id="edge54" class="edge">
<title>ed25519&#45;&gt;bcs</title>
<path fill="none" stroke="black" d="M864.45,-291.5C886.15,-280 917.4,-263.43 940.44,-251.2"/>
<polygon fill="black" stroke="black" points="941.86,-254.41 949.06,-246.64 938.58,-248.23 941.86,-254.41"/>
</g>
<!-- ed25519&#45;&gt;hash -->
<g id="edge53" class="edge">
<title>ed25519&#45;&gt;hash</title>
<path fill="none" stroke="black" d="M826.2,-288.41C819.56,-279.8 811.31,-269.11 803.95,-259.56"/>
<polygon fill="black" stroke="black" points="806.77,-257.49 797.89,-251.71 801.23,-261.76 806.77,-257.49"/>
</g>
<!-- multi_ed25519&#45;&gt;error -->
<g id="edge56" class="edge">
<title>multi_ed25519&#45;&gt;error</title>
<path fill="none" stroke="black" d="M782.32,-360.33C771.18,-350.14 756.92,-336.67 745,-324 676.62,-251.31 602.81,-158.81 568.94,-115.47"/>
<polygon fill="black" stroke="black" points="571.8,-113.45 562.89,-107.71 566.27,-117.75 571.8,-113.45"/>
</g>
<!-- multi_ed25519&#45;&gt;option -->
<g id="edge55" class="edge">
<title>multi_ed25519&#45;&gt;option</title>
<path fill="none" stroke="black" d="M787.26,-359.98C764.81,-329.97 725.05,-266.08 749,-216 773.74,-164.26 831.51,-127.08 869.11,-107.32"/>
<polygon fill="black" stroke="black" points="870.47,-110.56 877.79,-102.9 867.29,-104.32 870.47,-110.56"/>
</g>
<!-- multi_ed25519&#45;&gt;bcs -->
<g id="edge58" class="edge">
<title>multi_ed25519&#45;&gt;bcs</title>
<path fill="none" stroke="black" d="M830.91,-361.77C848.62,-352.09 871.03,-338.65 889,-324 912.82,-304.57 936.19,-278.29 951.85,-259.33"/>
<polygon fill="black" stroke="black" points="954.55,-261.55 958.14,-251.58 949.12,-257.14 954.55,-261.55"/>
</g>
<!-- multi_ed25519&#45;&gt;hash -->
<g id="edge57" class="edge">
<title>multi_ed25519&#45;&gt;hash</title>
<path fill="none" stroke="black" d="M796.33,-359.95C793.7,-349.63 790.64,-336.15 789,-324 786.31,-304.04 785.33,-281.37 785,-263.9"/>
<polygon fill="black" stroke="black" points="788.5,-263.95 784.89,-253.99 781.5,-264.03 788.5,-263.95"/>
</g>
<!-- multi_ed25519&#45;&gt;ed25519 -->
<g id="edge59" class="edge">
<title>multi_ed25519&#45;&gt;ed25519</title>
<path fill="none" stroke="black" d="M810.39,-359.7C814.64,-351.87 819.76,-342.44 824.49,-333.73"/>
<polygon fill="black" stroke="black" points="827.56,-335.41 829.25,-324.95 821.41,-332.07 827.56,-335.41"/>
</g>
<!-- from_bcs&#45;&gt;string -->
<g id="edge60" class="edge">
<title>from_bcs&#45;&gt;string</title>
<path fill="none" stroke="black" d="M1096.52,-215.7C1095.89,-208.41 1095.15,-199.73 1094.45,-191.54"/>
<polygon fill="black" stroke="black" points="1097.94,-191.28 1093.6,-181.61 1090.96,-191.87 1097.94,-191.28"/>
</g>
<!-- aggregator_factory&#45;&gt;system_addresses -->
<g id="edge63" class="edge">
<title>aggregator_factory&#45;&gt;system_addresses</title>
<path fill="none" stroke="black" d="M379.54,-361.98C405.81,-351.47 441.12,-337.35 469.37,-326.05"/>
<polygon fill="black" stroke="black" points="470.43,-329.4 478.42,-322.43 467.83,-322.9 470.43,-329.4"/>
</g>
<!-- aggregator_factory&#45;&gt;error -->
<g id="edge61" class="edge">
<title>aggregator_factory&#45;&gt;error</title>
<path fill="none" stroke="black" d="M342.9,-359.65C344.48,-340.98 348.86,-310.89 361,-288 401.78,-211.08 481.35,-143.12 523.04,-110.86"/>
<polygon fill="black" stroke="black" points="525.03,-113.75 530.86,-104.9 520.78,-108.18 525.03,-113.75"/>
</g>
<!-- aggregator_factory&#45;&gt;table -->
<g id="edge62" class="edge">
<title>aggregator_factory&#45;&gt;table</title>
<path fill="none" stroke="black" d="M355.56,-360.05C362.45,-351.44 370.95,-340.81 378.54,-331.33"/>
<polygon fill="black" stroke="black" points="381.26,-333.53 384.77,-323.54 375.79,-329.16 381.26,-333.53"/>
</g>
<!-- aggregator_factory&#45;&gt;aggregator -->
<g id="edge64" class="edge">
<title>aggregator_factory&#45;&gt;aggregator</title>
<path fill="none" stroke="black" d="M323.6,-360.05C314.06,-351.27 302.25,-340.39 291.81,-330.77"/>
<polygon fill="black" stroke="black" points="294.28,-328.29 284.56,-324.09 289.54,-333.44 294.28,-328.29"/>
</g>
</g>
</svg>
