<?xml version="1.0" encoding="UTF-8" standalone="no"?>
<!DOCTYPE svg PUBLIC "-//W3C//DTD SVG 1.1//EN"
 "http://www.w3.org/Graphics/SVG/1.1/DTD/svg11.dtd">
<!-- Generated by graphviz version 7.0.0 (20221023.0053)
 -->
<!-- Title: G Pages: 1 -->
<svg width="2402pt" height="836pt"
 viewBox="0.00 0.00 2402.00 836.00" xmlns="http://www.w3.org/2000/svg" xmlns:xlink="http://www.w3.org/1999/xlink">
<g id="graph0" class="graph" transform="scale(1 1) rotate(0) translate(4 832)">
<title>G</title>
<polygon fill="white" stroke="none" points="-4,4 -4,-832 2398,-832 2398,4 -4,4"/>
<!-- version -->
<g id="node1" class="node">
<title>version</title>
<ellipse fill="none" stroke="black" cx="992" cy="-810" rx="36.29" ry="18"/>
<text text-anchor="middle" x="992" y="-806.3" font-family="Times,serif" font-size="14.00">version</text>
</g>
<!-- signer -->
<g id="node2" class="node">
<title>signer</title>
<ellipse fill="none" stroke="black" cx="209" cy="-90" rx="32.49" ry="18"/>
<text text-anchor="middle" x="209" y="-86.3" font-family="Times,serif" font-size="14.00">signer</text>
</g>
<!-- version&#45;&gt;signer -->
<g id="edge1" class="edge">
<title>version&#45;&gt;signer</title>
<path fill="none" stroke="black" d="M955.5,-807.85C844.71,-804.01 513.67,-789.92 412,-756 208.54,-688.12 38,-665.49 38,-451 38,-451 38,-451 38,-233 38,-164.51 120.19,-122.74 170.61,-103.55"/>
<polygon fill="black" stroke="black" points="171.54,-106.94 179.72,-100.21 169.13,-100.37 171.54,-106.94"/>
</g>
<!-- error -->
<g id="node3" class="node">
<title>error</title>
<ellipse fill="none" stroke="black" cx="1578" cy="-90" rx="27.9" ry="18"/>
<text text-anchor="middle" x="1578" y="-86.3" font-family="Times,serif" font-size="14.00">error</text>
</g>
<!-- version&#45;&gt;error -->
<g id="edge2" class="edge">
<title>version&#45;&gt;error</title>
<path fill="none" stroke="black" d="M1028.42,-809.24C1248.75,-810.22 2394,-808.51 2394,-667 2394,-667 2394,-667 2394,-233 2394,-174.49 2350.71,-167.21 2297,-144 2173.35,-90.55 1749.3,-89.51 1617.45,-90.54"/>
<polygon fill="black" stroke="black" points="1617.81,-87.04 1607.84,-90.62 1617.87,-94.03 1617.81,-87.04"/>
</g>
<!-- system_addresses -->
<g id="node4" class="node">
<title>system_addresses</title>
<ellipse fill="none" stroke="black" cx="1105" cy="-306" rx="73.39" ry="18"/>
<text text-anchor="middle" x="1105" y="-302.3" font-family="Times,serif" font-size="14.00">system_addresses</text>
</g>
<!-- version&#45;&gt;system_addresses -->
<g id="edge3" class="edge">
<title>version&#45;&gt;system_addresses</title>
<path fill="none" stroke="black" d="M955.42,-809.15C804.77,-808.38 246.42,-791.19 379,-576 510.37,-362.77 672.94,-467.4 913,-396 968.85,-379.39 1029.19,-349.2 1067.02,-328.64"/>
<polygon fill="black" stroke="black" points="1068.67,-331.72 1075.74,-323.84 1065.29,-325.59 1068.67,-331.72"/>
</g>
<!-- reconfiguration -->
<g id="node5" class="node">
<title>reconfiguration</title>
<ellipse fill="none" stroke="black" cx="1927" cy="-738" rx="64.99" ry="18"/>
<text text-anchor="middle" x="1927" y="-734.3" font-family="Times,serif" font-size="14.00">reconfiguration</text>
</g>
<!-- version&#45;&gt;reconfiguration -->
<g id="edge4" class="edge">
<title>version&#45;&gt;reconfiguration</title>
<path fill="none" stroke="black" d="M1027.8,-806.32C1165.69,-796 1664.19,-758.68 1853.44,-744.51"/>
<polygon fill="black" stroke="black" points="1853.69,-748 1863.4,-743.76 1853.17,-741.02 1853.69,-748"/>
</g>
<!-- system_addresses&#45;&gt;signer -->
<g id="edge5" class="edge">
<title>system_addresses&#45;&gt;signer</title>
<path fill="none" stroke="black" d="M1039.46,-297.49C1012.12,-294.43 980.04,-290.93 951,-288 775.6,-270.33 727.78,-291.6 556,-252 468,-231.72 447.74,-218.38 366,-180 320.64,-158.7 270.69,-129.28 239.58,-110.2"/>
<polygon fill="black" stroke="black" points="241.42,-107.22 231.07,-104.95 237.74,-113.18 241.42,-107.22"/>
</g>
<!-- system_addresses&#45;&gt;error -->
<g id="edge6" class="edge">
<title>system_addresses&#45;&gt;error</title>
<path fill="none" stroke="black" d="M1148.98,-291.21C1177.12,-281.7 1214.03,-267.93 1245,-252 1321.96,-212.43 1328.87,-181.19 1407,-144 1451.06,-123.03 1505.4,-107.84 1540.83,-99.24"/>
<polygon fill="black" stroke="black" points="1541.24,-102.74 1550.16,-97.02 1539.63,-95.93 1541.24,-102.74"/>
</g>
<!-- reconfiguration&#45;&gt;signer -->
<g id="edge7" class="edge">
<title>reconfiguration&#45;&gt;signer</title>
<path fill="none" stroke="black" d="M1862.21,-735.49C1534.59,-727.46 76,-686.55 76,-595 76,-595 76,-595 76,-449 76,-308.63 88.43,-265.92 158,-144 164.43,-132.74 173.78,-122.07 182.73,-113.3"/>
<polygon fill="black" stroke="black" points="185.04,-115.93 189.96,-106.54 180.26,-110.81 185.04,-115.93"/>
</g>
<!-- reconfiguration&#45;&gt;error -->
<g id="edge8" class="edge">
<title>reconfiguration&#45;&gt;error</title>
<path fill="none" stroke="black" d="M1990.53,-733.88C2053.24,-728.98 2150.8,-716.37 2229,-684 2292.68,-657.64 2356,-663.92 2356,-595 2356,-595 2356,-595 2356,-233 2356,-166.24 2297.54,-167.35 2235,-144 2120.76,-101.35 1741.37,-92.98 1617.5,-91.37"/>
<polygon fill="black" stroke="black" points="1617.88,-87.88 1607.84,-91.26 1617.8,-94.88 1617.88,-87.88"/>
</g>
<!-- reconfiguration&#45;&gt;system_addresses -->
<g id="edge9" class="edge">
<title>reconfiguration&#45;&gt;system_addresses</title>
<path fill="none" stroke="black" d="M1861.76,-736.7C1684.81,-735.32 1205.3,-727.55 1150,-684 1117.42,-658.35 1122,-636.47 1122,-595 1122,-595 1122,-595 1122,-449 1122,-409.46 1115.42,-364.16 1110.45,-335.57"/>
<polygon fill="black" stroke="black" points="1113.92,-335.12 1108.71,-325.9 1107.03,-336.36 1113.92,-335.12"/>
</g>
<!-- event -->
<g id="node6" class="node">
<title>event</title>
<ellipse fill="none" stroke="black" cx="1744" cy="-378" rx="29.8" ry="18"/>
<text text-anchor="middle" x="1744" y="-374.3" font-family="Times,serif" font-size="14.00">event</text>
</g>
<!-- reconfiguration&#45;&gt;event -->
<g id="edge10" class="edge">
<title>reconfiguration&#45;&gt;event</title>
<path fill="none" stroke="black" d="M1957.51,-721.67C1996.78,-699.53 2060,-654.62 2060,-595 2060,-595 2060,-595 2060,-521 2060,-509.67 2050.58,-510.05 2041,-504 1935.89,-437.64 1897.31,-444.84 1783,-396 1781.27,-395.26 1779.5,-394.5 1777.72,-393.73"/>
<polygon fill="black" stroke="black" points="1779.44,-390.67 1768.88,-389.91 1776.66,-397.09 1779.44,-390.67"/>
</g>
<!-- account -->
<g id="node7" class="node">
<title>account</title>
<ellipse fill="none" stroke="black" cx="1246" cy="-450" rx="38.19" ry="18"/>
<text text-anchor="middle" x="1246" y="-446.3" font-family="Times,serif" font-size="14.00">account</text>
</g>
<!-- reconfiguration&#45;&gt;account -->
<g id="edge11" class="edge">
<title>reconfiguration&#45;&gt;account</title>
<path fill="none" stroke="black" d="M1892.29,-722.42C1776.64,-673.85 1404.91,-517.74 1284.23,-467.05"/>
<polygon fill="black" stroke="black" points="1285.64,-463.85 1275.07,-463.21 1282.93,-470.31 1285.64,-463.85"/>
</g>
<!-- chain_status -->
<g id="node8" class="node">
<title>chain_status</title>
<ellipse fill="none" stroke="black" cx="2274" cy="-378" rx="53.89" ry="18"/>
<text text-anchor="middle" x="2274" y="-374.3" font-family="Times,serif" font-size="14.00">chain_status</text>
</g>
<!-- reconfiguration&#45;&gt;chain_status -->
<g id="edge12" class="edge">
<title>reconfiguration&#45;&gt;chain_status</title>
<path fill="none" stroke="black" d="M1991.76,-735.99C2085.26,-730.72 2247,-705.62 2247,-595 2247,-595 2247,-595 2247,-521 2247,-480.86 2257.54,-435.44 2265.45,-407.01"/>
<polygon fill="black" stroke="black" points="2268.72,-408.32 2268.12,-397.74 2261.99,-406.38 2268.72,-408.32"/>
</g>
<!-- timestamp -->
<g id="node9" class="node">
<title>timestamp</title>
<ellipse fill="none" stroke="black" cx="1984" cy="-522" rx="48.19" ry="18"/>
<text text-anchor="middle" x="1984" y="-518.3" font-family="Times,serif" font-size="14.00">timestamp</text>
</g>
<!-- reconfiguration&#45;&gt;timestamp -->
<g id="edge13" class="edge">
<title>reconfiguration&#45;&gt;timestamp</title>
<path fill="none" stroke="black" d="M1931.57,-719.85C1941.37,-683.07 1964.48,-596.29 1976.48,-551.24"/>
<polygon fill="black" stroke="black" points="1979.83,-552.26 1979.02,-541.7 1973.06,-550.46 1979.83,-552.26"/>
</g>
<!-- stake -->
<g id="node10" class="node">
<title>stake</title>
<ellipse fill="none" stroke="black" cx="1188" cy="-666" rx="28.7" ry="18"/>
<text text-anchor="middle" x="1188" y="-662.3" font-family="Times,serif" font-size="14.00">stake</text>
</g>
<!-- reconfiguration&#45;&gt;stake -->
<g id="edge14" class="edge">
<title>reconfiguration&#45;&gt;stake</title>
<path fill="none" stroke="black" d="M1866.21,-731.24C1719.69,-717.36 1350.14,-682.36 1227.93,-670.78"/>
<polygon fill="black" stroke="black" points="1228.35,-667.31 1218.06,-669.85 1227.69,-674.28 1228.35,-667.31"/>
</g>
<!-- storage_gas -->
<g id="node11" class="node">
<title>storage_gas</title>
<ellipse fill="none" stroke="black" cx="2140" cy="-450" rx="51.99" ry="18"/>
<text text-anchor="middle" x="2140" y="-446.3" font-family="Times,serif" font-size="14.00">storage_gas</text>
</g>
<!-- reconfiguration&#45;&gt;storage_gas -->
<g id="edge15" class="edge">
<title>reconfiguration&#45;&gt;storage_gas</title>
<path fill="none" stroke="black" d="M1984.19,-729.22C2014.72,-722.23 2050.69,-709 2074,-684 2127.67,-626.43 2138.14,-528.46 2139.89,-479.96"/>
<polygon fill="black" stroke="black" points="2143.39,-480.08 2140.14,-470 2136.39,-479.91 2143.39,-480.08"/>
</g>
<!-- bcs -->
<g id="node12" class="node">
<title>bcs</title>
<ellipse fill="none" stroke="black" cx="1413" cy="-234" rx="27" ry="18"/>
<text text-anchor="middle" x="1413" y="-230.3" font-family="Times,serif" font-size="14.00">bcs</text>
</g>
<!-- event&#45;&gt;bcs -->
<g id="edge16" class="edge">
<title>event&#45;&gt;bcs</title>
<path fill="none" stroke="black" d="M1748.79,-359.83C1753.2,-339.88 1756.68,-307.27 1739,-288 1700.75,-246.32 1542.62,-262.34 1487,-252 1474.63,-249.7 1461.19,-246.75 1449.2,-243.96"/>
<polygon fill="black" stroke="black" points="1450.25,-240.61 1439.71,-241.7 1448.63,-247.42 1450.25,-240.61"/>
</g>
<!-- guid -->
<g id="node13" class="node">
<title>guid</title>
<ellipse fill="none" stroke="black" cx="1703" cy="-306" rx="27" ry="18"/>
<text text-anchor="middle" x="1703" y="-302.3" font-family="Times,serif" font-size="14.00">guid</text>
</g>
<!-- event&#45;&gt;guid -->
<g id="edge17" class="edge">
<title>event&#45;&gt;guid</title>
<path fill="none" stroke="black" d="M1734.49,-360.76C1729.63,-352.46 1723.59,-342.15 1718.11,-332.79"/>
<polygon fill="black" stroke="black" points="1721.3,-331.31 1713.22,-324.45 1715.26,-334.85 1721.3,-331.31"/>
</g>
<!-- account&#45;&gt;signer -->
<g id="edge20" class="edge">
<title>account&#45;&gt;signer</title>
<path fill="none" stroke="black" d="M1245.44,-431.61C1243.3,-397.64 1233.3,-322.77 1187,-288 1140.51,-253.09 721.93,-263.79 665,-252 580.57,-234.52 338.07,-141.45 245.51,-105.33"/>
<polygon fill="black" stroke="black" points="246.98,-102.15 236.39,-101.77 244.43,-108.67 246.98,-102.15"/>
</g>
<!-- account&#45;&gt;error -->
<g id="edge21" class="edge">
<title>account&#45;&gt;error</title>
<path fill="none" stroke="black" d="M1272.94,-437.09C1278.19,-435.14 1283.7,-433.32 1289,-432 1358.87,-414.61 1553.42,-439.23 1611,-396 1645.26,-370.28 1648,-349.84 1648,-307 1648,-307 1648,-307 1648,-233 1648,-187.51 1618.75,-141.5 1598.06,-114.64"/>
<polygon fill="black" stroke="black" points="1601.07,-112.81 1592.11,-107.16 1595.6,-117.16 1601.07,-112.81"/>
</g>
<!-- account&#45;&gt;system_addresses -->
<g id="edge24" class="edge">
<title>account&#45;&gt;system_addresses</title>
<path fill="none" stroke="black" d="M1234.56,-432.61C1221.16,-413.99 1197.76,-383.17 1174,-360 1163.08,-349.35 1150.03,-338.85 1138.24,-330.05"/>
<polygon fill="black" stroke="black" points="1140.48,-327.35 1130.34,-324.27 1136.35,-333 1140.48,-327.35"/>
</g>
<!-- account&#45;&gt;event -->
<g id="edge31" class="edge">
<title>account&#45;&gt;event</title>
<path fill="none" stroke="black" d="M1280.5,-441.75C1297.2,-438.42 1317.58,-434.64 1336,-432 1496.92,-408.89 1541.85,-433.64 1700,-396 1703.32,-395.21 1706.72,-394.23 1710.1,-393.14"/>
<polygon fill="black" stroke="black" points="1710.96,-396.54 1719.2,-389.89 1708.6,-389.95 1710.96,-396.54"/>
</g>
<!-- account&#45;&gt;bcs -->
<g id="edge26" class="edge">
<title>account&#45;&gt;bcs</title>
<path fill="none" stroke="black" d="M1274.68,-437.65C1279.46,-435.76 1284.37,-433.82 1289,-432 1329.86,-415.93 1351.58,-428.59 1381,-396 1413.97,-359.48 1417.02,-298.99 1415.52,-263.48"/>
<polygon fill="black" stroke="black" points="1419.01,-263.32 1414.93,-253.55 1412.03,-263.74 1419.01,-263.32"/>
</g>
<!-- account&#45;&gt;guid -->
<g id="edge29" class="edge">
<title>account&#45;&gt;guid</title>
<path fill="none" stroke="black" d="M1280.51,-441.84C1297.22,-438.54 1317.6,-434.75 1336,-432 1408.08,-421.23 1602.87,-438.62 1662,-396 1681.73,-381.78 1692.21,-355.69 1697.62,-335.42"/>
<polygon fill="black" stroke="black" points="1701,-336.3 1699.9,-325.77 1694.19,-334.69 1701,-336.3"/>
</g>
<!-- vector -->
<g id="node14" class="node">
<title>vector</title>
<ellipse fill="none" stroke="black" cx="527" cy="-18" rx="32.49" ry="18"/>
<text text-anchor="middle" x="527" y="-14.3" font-family="Times,serif" font-size="14.00">vector</text>
</g>
<!-- account&#45;&gt;vector -->
<g id="edge18" class="edge">
<title>account&#45;&gt;vector</title>
<path fill="none" stroke="black" d="M1248.03,-431.84C1249.15,-421.48 1250.44,-408 1251,-396 1253.38,-345.46 1255.91,-317.78 1215,-288 1129.22,-225.55 1079.93,-284.74 979,-252 891.54,-223.63 647.19,-87.19 559.14,-37.31"/>
<polygon fill="black" stroke="black" points="560.94,-34.31 550.52,-32.42 557.49,-40.4 560.94,-34.31"/>
</g>
<!-- option -->
<g id="node15" class="node">
<title>option</title>
<ellipse fill="none" stroke="black" cx="527" cy="-90" rx="33.29" ry="18"/>
<text text-anchor="middle" x="527" y="-86.3" font-family="Times,serif" font-size="14.00">option</text>
</g>
<!-- account&#45;&gt;option -->
<g id="edge19" class="edge">
<title>account&#45;&gt;option</title>
<path fill="none" stroke="black" d="M1222.03,-435.6C1118.1,-377.49 710.98,-149.99 697,-144 654.05,-125.6 602.56,-110.46 567.58,-101.13"/>
<polygon fill="black" stroke="black" points="568.86,-97.85 558.3,-98.7 567.09,-104.62 568.86,-97.85"/>
</g>
<!-- type_info -->
<g id="node16" class="node">
<title>type_info</title>
<ellipse fill="none" stroke="black" cx="1032" cy="-234" rx="44.39" ry="18"/>
<text text-anchor="middle" x="1032" y="-230.3" font-family="Times,serif" font-size="14.00">type_info</text>
</g>
<!-- account&#45;&gt;type_info -->
<g id="edge22" class="edge">
<title>account&#45;&gt;type_info</title>
<path fill="none" stroke="black" d="M1262.86,-433.6C1272.23,-423.86 1282.98,-410.41 1288,-396 1304.38,-348.95 1296,-320.21 1258,-288 1244.65,-276.68 1145.38,-256.33 1082.93,-244.4"/>
<polygon fill="black" stroke="black" points="1083.69,-240.99 1073.21,-242.56 1082.38,-247.86 1083.69,-240.99"/>
</g>
<!-- table -->
<g id="node17" class="node">
<title>table</title>
<ellipse fill="none" stroke="black" cx="914" cy="-306" rx="27.9" ry="18"/>
<text text-anchor="middle" x="914" y="-302.3" font-family="Times,serif" font-size="14.00">table</text>
</g>
<!-- account&#45;&gt;table -->
<g id="edge23" class="edge">
<title>account&#45;&gt;table</title>
<path fill="none" stroke="black" d="M1208.26,-446.35C1138.98,-440.82 995.01,-425.98 956,-396 936.64,-381.12 925.8,-355.11 920.01,-335.03"/>
<polygon fill="black" stroke="black" points="923.43,-334.3 917.53,-325.5 916.66,-336.05 923.43,-334.3"/>
</g>
<!-- hash -->
<g id="node18" class="node">
<title>hash</title>
<ellipse fill="none" stroke="black" cx="1523" cy="-234" rx="27" ry="18"/>
<text text-anchor="middle" x="1523" y="-230.3" font-family="Times,serif" font-size="14.00">hash</text>
</g>
<!-- account&#45;&gt;hash -->
<g id="edge25" class="edge">
<title>account&#45;&gt;hash</title>
<path fill="none" stroke="black" d="M1273.41,-436.95C1278.52,-435.06 1283.86,-433.3 1289,-432 1354.53,-415.44 1546.13,-446.54 1591,-396 1627.62,-354.76 1577.96,-290.92 1546.08,-257.36"/>
<polygon fill="black" stroke="black" points="1548.58,-254.92 1539.09,-250.21 1543.58,-259.81 1548.58,-254.92"/>
</g>
<!-- ed25519 -->
<g id="node19" class="node">
<title>ed25519</title>
<ellipse fill="none" stroke="black" cx="1351" cy="-306" rx="40.89" ry="18"/>
<text text-anchor="middle" x="1351" y="-302.3" font-family="Times,serif" font-size="14.00">ed25519</text>
</g>
<!-- account&#45;&gt;ed25519 -->
<g id="edge27" class="edge">
<title>account&#45;&gt;ed25519</title>
<path fill="none" stroke="black" d="M1281.92,-443.5C1309.57,-437.17 1346,-423.81 1364,-396 1375.79,-377.78 1370.95,-353.12 1364.06,-334.38"/>
<polygon fill="black" stroke="black" points="1367.35,-333.19 1360.33,-325.25 1360.87,-335.83 1367.35,-333.19"/>
</g>
<!-- multi_ed25519 -->
<g id="node20" class="node">
<title>multi_ed25519</title>
<ellipse fill="none" stroke="black" cx="1518" cy="-378" rx="64.19" ry="18"/>
<text text-anchor="middle" x="1518" y="-374.3" font-family="Times,serif" font-size="14.00">multi_ed25519</text>
</g>
<!-- account&#45;&gt;multi_ed25519 -->
<g id="edge28" class="edge">
<title>account&#45;&gt;multi_ed25519</title>
<path fill="none" stroke="black" d="M1279.08,-440.49C1324.25,-428.86 1405.89,-407.85 1461.01,-393.67"/>
<polygon fill="black" stroke="black" points="1461.73,-397.1 1470.54,-391.21 1459.98,-390.32 1461.73,-397.1"/>
</g>
<!-- from_bcs -->
<g id="node21" class="node">
<title>from_bcs</title>
<ellipse fill="none" stroke="black" cx="718" cy="-234" rx="44.39" ry="18"/>
<text text-anchor="middle" x="718" y="-230.3" font-family="Times,serif" font-size="14.00">from_bcs</text>
</g>
<!-- account&#45;&gt;from_bcs -->
<g id="edge30" class="edge">
<title>account&#45;&gt;from_bcs</title>
<path fill="none" stroke="black" d="M1207.89,-447.53C1096.27,-442.89 775.7,-426.95 741,-396 704.11,-363.1 706.92,-299.91 712.38,-263.24"/>
<polygon fill="black" stroke="black" points="715.76,-264.27 713.95,-253.83 708.85,-263.12 715.76,-264.27"/>
</g>
<!-- chain_status&#45;&gt;error -->
<g id="edge32" class="edge">
<title>chain_status&#45;&gt;error</title>
<path fill="none" stroke="black" d="M2274.93,-359.78C2276.26,-315.77 2273.03,-198.82 2206,-144 2160.47,-106.76 1748.32,-94.69 1617.59,-91.78"/>
<polygon fill="black" stroke="black" points="1617.78,-88.28 1607.71,-91.56 1617.63,-95.28 1617.78,-88.28"/>
</g>
<!-- chain_status&#45;&gt;system_addresses -->
<g id="edge33" class="edge">
<title>chain_status&#45;&gt;system_addresses</title>
<path fill="none" stroke="black" d="M2228.41,-368.08C2211.12,-365.02 2191.22,-361.9 2173,-360 1787.21,-319.73 1688.09,-348.76 1301,-324 1262.25,-321.52 1219.26,-317.89 1183.43,-314.62"/>
<polygon fill="black" stroke="black" points="1183.86,-311.14 1173.58,-313.71 1183.21,-318.12 1183.86,-311.14"/>
</g>
<!-- timestamp&#45;&gt;error -->
<g id="edge34" class="edge">
<title>timestamp&#45;&gt;error</title>
<path fill="none" stroke="black" d="M1991.69,-503.91C2002.79,-477.62 2022,-425.45 2022,-379 2022,-379 2022,-379 2022,-233 2022,-192.03 2028.9,-170.9 1998,-144 1941.85,-95.1 1711.48,-90.41 1617.85,-90.57"/>
<polygon fill="black" stroke="black" points="1617.85,-87.07 1607.86,-90.61 1617.88,-94.07 1617.85,-87.07"/>
</g>
<!-- timestamp&#45;&gt;system_addresses -->
<g id="edge35" class="edge">
<title>timestamp&#45;&gt;system_addresses</title>
<path fill="none" stroke="black" d="M1943.34,-511.98C1853.34,-491.93 1630.59,-441.8 1445,-396 1346.1,-371.59 1231.59,-341.17 1163.89,-322.95"/>
<polygon fill="black" stroke="black" points="1165.06,-319.64 1154.49,-320.42 1163.24,-326.4 1165.06,-319.64"/>
</g>
<!-- stake&#45;&gt;signer -->
<g id="edge38" class="edge">
<title>stake&#45;&gt;signer</title>
<path fill="none" stroke="black" d="M1158.92,-664.88C1015.92,-664.06 391.27,-657.85 319,-612 188.5,-529.2 152,-461.55 152,-307 152,-307 152,-307 152,-233 152,-189.89 174.9,-144.38 191.67,-116.83"/>
<polygon fill="black" stroke="black" points="194.57,-118.8 196.93,-108.48 188.64,-115.07 194.57,-118.8"/>
</g>
<!-- stake&#45;&gt;error -->
<g id="edge39" class="edge">
<title>stake&#45;&gt;error</title>
<path fill="none" stroke="black" d="M1216.8,-665.5C1359.51,-666.38 1984,-650.59 1984,-307 1984,-307 1984,-307 1984,-233 1984,-155.6 1717.8,-110.44 1616.5,-96.06"/>
<polygon fill="black" stroke="black" points="1617.16,-92.62 1606.77,-94.7 1616.19,-99.55 1617.16,-92.62"/>
</g>
<!-- stake&#45;&gt;system_addresses -->
<g id="edge40" class="edge">
<title>stake&#45;&gt;system_addresses</title>
<path fill="none" stroke="black" d="M1182.47,-648.16C1174.31,-621.79 1160,-568.98 1160,-523 1160,-523 1160,-523 1160,-449 1160,-406.57 1138.38,-361.53 1122.25,-333.83"/>
<polygon fill="black" stroke="black" points="1125.33,-332.16 1117.18,-325.4 1119.34,-335.77 1125.33,-332.16"/>
</g>
<!-- stake&#45;&gt;event -->
<g id="edge41" class="edge">
<title>stake&#45;&gt;event</title>
<path fill="none" stroke="black" d="M1209.8,-653.79C1295.5,-609.7 1609.66,-448.1 1711.73,-395.6"/>
<polygon fill="black" stroke="black" points="1713.11,-398.82 1720.4,-391.14 1709.91,-392.6 1713.11,-398.82"/>
</g>
<!-- stake&#45;&gt;account -->
<g id="edge42" class="edge">
<title>stake&#45;&gt;account</title>
<path fill="none" stroke="black" d="M1192.65,-647.85C1202.62,-611.07 1226.14,-524.29 1238.35,-479.24"/>
<polygon fill="black" stroke="black" points="1241.7,-480.26 1240.93,-469.69 1234.94,-478.43 1241.7,-480.26"/>
</g>
<!-- stake&#45;&gt;timestamp -->
<g id="edge45" class="edge">
<title>stake&#45;&gt;timestamp</title>
<path fill="none" stroke="black" d="M1216.91,-664.62C1328.53,-662.86 1731.17,-653.68 1851,-612 1892.13,-597.69 1932.76,-567.54 1958.08,-546.31"/>
<polygon fill="black" stroke="black" points="1960.22,-549.08 1965.53,-539.92 1955.66,-543.77 1960.22,-549.08"/>
</g>
<!-- stake&#45;&gt;vector -->
<g id="edge36" class="edge">
<title>stake&#45;&gt;vector</title>
<path fill="none" stroke="black" d="M1159.11,-665.23C1021.96,-666.03 436.09,-666.16 263,-612 132.2,-571.07 0,-588.05 0,-451 0,-451 0,-451 0,-161 0,-103.47 41.95,-96.5 94,-72 162.41,-39.8 387.52,-25.59 483.27,-20.89"/>
<polygon fill="black" stroke="black" points="483.22,-24.4 493.04,-20.43 482.89,-17.41 483.22,-24.4"/>
</g>
<!-- stake&#45;&gt;option -->
<g id="edge37" class="edge">
<title>stake&#45;&gt;option</title>
<path fill="none" stroke="black" d="M1159.2,-665.21C1019.03,-665.95 412.3,-666.01 350,-612 230.14,-508.08 397.57,-183.42 430,-144 445.02,-125.74 468.04,-112.78 487.89,-104.25"/>
<polygon fill="black" stroke="black" points="489.16,-107.52 497.12,-100.53 486.54,-101.03 489.16,-107.52"/>
</g>
<!-- coin -->
<g id="node22" class="node">
<title>coin</title>
<ellipse fill="none" stroke="black" cx="646" cy="-522" rx="27" ry="18"/>
<text text-anchor="middle" x="646" y="-518.3" font-family="Times,serif" font-size="14.00">coin</text>
</g>
<!-- stake&#45;&gt;coin -->
<g id="edge43" class="edge">
<title>stake&#45;&gt;coin</title>
<path fill="none" stroke="black" d="M1161.86,-658.15C1073.19,-634.92 783.73,-559.08 681.86,-532.39"/>
<polygon fill="black" stroke="black" points="682.96,-529.07 672.4,-529.92 681.19,-535.84 682.96,-529.07"/>
</g>
<!-- aptos_coin -->
<g id="node23" class="node">
<title>aptos_coin</title>
<ellipse fill="none" stroke="black" cx="437" cy="-594" rx="48.99" ry="18"/>
<text text-anchor="middle" x="437" y="-590.3" font-family="Times,serif" font-size="14.00">aptos_coin</text>
</g>
<!-- stake&#45;&gt;aptos_coin -->
<g id="edge44" class="edge">
<title>stake&#45;&gt;aptos_coin</title>
<path fill="none" stroke="black" d="M1159.48,-662.34C1048.89,-652.03 647.08,-614.58 495.46,-600.45"/>
<polygon fill="black" stroke="black" points="495.91,-596.98 485.63,-599.53 495.26,-603.95 495.91,-596.98"/>
</g>
<!-- staking_config -->
<g id="node24" class="node">
<title>staking_config</title>
<ellipse fill="none" stroke="black" cx="1855" cy="-378" rx="63.09" ry="18"/>
<text text-anchor="middle" x="1855" y="-374.3" font-family="Times,serif" font-size="14.00">staking_config</text>
</g>
<!-- stake&#45;&gt;staking_config -->
<g id="edge46" class="edge">
<title>stake&#45;&gt;staking_config</title>
<path fill="none" stroke="black" d="M1216.68,-664.07C1273.06,-661.4 1401.51,-651.15 1501,-612 1634.92,-559.3 1770.87,-451.1 1827.55,-402.98"/>
<polygon fill="black" stroke="black" points="1829.8,-405.67 1835.12,-396.51 1825.25,-400.35 1829.8,-405.67"/>
</g>
<!-- math64 -->
<g id="node25" class="node">
<title>math64</title>
<ellipse fill="none" stroke="black" cx="1454" cy="-594" rx="37.89" ry="18"/>
<text text-anchor="middle" x="1454" y="-590.3" font-family="Times,serif" font-size="14.00">math64</text>
</g>
<!-- stake&#45;&gt;math64 -->
<g id="edge47" class="edge">
<title>stake&#45;&gt;math64</title>
<path fill="none" stroke="black" d="M1214.86,-659.01C1255.57,-649.79 1335.22,-631.16 1402,-612 1405.56,-610.98 1409.24,-609.87 1412.93,-608.73"/>
<polygon fill="black" stroke="black" points="1413.95,-612.08 1422.43,-605.72 1411.84,-605.41 1413.95,-612.08"/>
</g>
<!-- bls12381 -->
<g id="node26" class="node">
<title>bls12381</title>
<ellipse fill="none" stroke="black" cx="527" cy="-162" rx="42.79" ry="18"/>
<text text-anchor="middle" x="527" y="-158.3" font-family="Times,serif" font-size="14.00">bls12381</text>
</g>
<!-- stake&#45;&gt;bls12381 -->
<g id="edge48" class="edge">
<title>stake&#45;&gt;bls12381</title>
<path fill="none" stroke="black" d="M1159.06,-665.38C1020.94,-666.92 433.3,-669.98 379,-612 260.11,-485.07 439.42,-260.66 504.74,-187.1"/>
<polygon fill="black" stroke="black" points="507.02,-189.79 511.1,-180.01 501.82,-185.11 507.02,-189.79"/>
</g>
<!-- storage_gas&#45;&gt;error -->
<g id="edge49" class="edge">
<title>storage_gas&#45;&gt;error</title>
<path fill="none" stroke="black" d="M2152.61,-432.15C2159.56,-422.12 2167.81,-408.87 2173,-396 2188.14,-358.49 2192,-347.45 2192,-307 2192,-307 2192,-307 2192,-233 2192,-114.58 1752.99,-94.9 1617.4,-91.64"/>
<polygon fill="black" stroke="black" points="1617.57,-88.14 1607.49,-91.42 1617.41,-95.14 1617.57,-88.14"/>
</g>
<!-- storage_gas&#45;&gt;system_addresses -->
<g id="edge50" class="edge">
<title>storage_gas&#45;&gt;system_addresses</title>
<path fill="none" stroke="black" d="M2113.09,-434.24C2073.62,-413.42 1997.1,-376.16 1927,-360 1655.44,-297.38 1578.96,-344.04 1301,-324 1262.42,-321.22 1219.62,-317.57 1183.88,-314.37"/>
<polygon fill="black" stroke="black" points="1184.32,-310.89 1174.05,-313.48 1183.69,-317.87 1184.32,-310.89"/>
</g>
<!-- state_storage -->
<g id="node27" class="node">
<title>state_storage</title>
<ellipse fill="none" stroke="black" cx="2107" cy="-378" rx="56.59" ry="18"/>
<text text-anchor="middle" x="2107" y="-374.3" font-family="Times,serif" font-size="14.00">state_storage</text>
</g>
<!-- storage_gas&#45;&gt;state_storage -->
<g id="edge51" class="edge">
<title>storage_gas&#45;&gt;state_storage</title>
<path fill="none" stroke="black" d="M2132.01,-432.05C2128.42,-424.43 2124.08,-415.23 2120.04,-406.65"/>
<polygon fill="black" stroke="black" points="2123.22,-405.2 2115.79,-397.64 2116.89,-408.18 2123.22,-405.2"/>
</g>
<!-- option&#45;&gt;vector -->
<g id="edge52" class="edge">
<title>option&#45;&gt;vector</title>
<path fill="none" stroke="black" d="M527,-71.7C527,-64.41 527,-55.73 527,-47.54"/>
<polygon fill="black" stroke="black" points="530.5,-47.62 527,-37.62 523.5,-47.62 530.5,-47.62"/>
</g>
<!-- type_info&#45;&gt;error -->
<g id="edge54" class="edge">
<title>type_info&#45;&gt;error</title>
<path fill="none" stroke="black" d="M1057.4,-218.87C1094.27,-198.99 1165.29,-163.08 1230,-144 1338.99,-111.86 1473.23,-98.45 1538.55,-93.51"/>
<polygon fill="black" stroke="black" points="1538.69,-97.01 1548.41,-92.8 1538.19,-90.03 1538.69,-97.01"/>
</g>
<!-- string -->
<g id="node28" class="node">
<title>string</title>
<ellipse fill="none" stroke="black" cx="657" cy="-162" rx="30.59" ry="18"/>
<text text-anchor="middle" x="657" y="-158.3" font-family="Times,serif" font-size="14.00">string</text>
</g>
<!-- type_info&#45;&gt;string -->
<g id="edge53" class="edge">
<title>type_info&#45;&gt;string</title>
<path fill="none" stroke="black" d="M992.22,-225.58C920.26,-212.14 769.25,-183.95 697.08,-170.48"/>
<polygon fill="black" stroke="black" points="697.74,-167.04 687.27,-168.65 696.46,-173.93 697.74,-167.04"/>
</g>
<!-- features -->
<g id="node29" class="node">
<title>features</title>
<ellipse fill="none" stroke="black" cx="1026" cy="-162" rx="38.19" ry="18"/>
<text text-anchor="middle" x="1026" y="-158.3" font-family="Times,serif" font-size="14.00">features</text>
</g>
<!-- type_info&#45;&gt;features -->
<g id="edge55" class="edge">
<title>type_info&#45;&gt;features</title>
<path fill="none" stroke="black" d="M1030.52,-215.7C1029.89,-208.41 1029.15,-199.73 1028.45,-191.54"/>
<polygon fill="black" stroke="black" points="1031.94,-191.28 1027.6,-181.61 1024.96,-191.87 1031.94,-191.28"/>
</g>
<!-- ed25519&#45;&gt;error -->
<g id="edge57" class="edge">
<title>ed25519&#45;&gt;error</title>
<path fill="none" stroke="black" d="M1352.39,-287.63C1354.71,-268.39 1360.84,-237.28 1377,-216 1420.41,-158.82 1498.17,-121.47 1543.19,-103.51"/>
<polygon fill="black" stroke="black" points="1544.42,-106.79 1552.48,-99.91 1541.89,-100.26 1544.42,-106.79"/>
</g>
<!-- ed25519&#45;&gt;bcs -->
<g id="edge60" class="edge">
<title>ed25519&#45;&gt;bcs</title>
<path fill="none" stroke="black" d="M1365.38,-288.76C1373.46,-279.64 1383.68,-268.11 1392.57,-258.06"/>
<polygon fill="black" stroke="black" points="1394.95,-260.66 1398.96,-250.85 1389.71,-256.02 1394.95,-260.66"/>
</g>
<!-- ed25519&#45;&gt;option -->
<g id="edge56" class="edge">
<title>ed25519&#45;&gt;option</title>
<path fill="none" stroke="black" d="M1328.78,-290.46C1272.95,-254.21 1127.43,-161.49 1073,-144 979.84,-114.07 684.47,-98.04 571.52,-92.88"/>
<polygon fill="black" stroke="black" points="571.89,-89.39 561.74,-92.44 571.57,-96.39 571.89,-89.39"/>
</g>
<!-- ed25519&#45;&gt;type_info -->
<g id="edge58" class="edge">
<title>ed25519&#45;&gt;type_info</title>
<path fill="none" stroke="black" d="M1318.87,-294.47C1311.41,-292.19 1303.46,-289.9 1296,-288 1256.41,-277.94 1147.85,-256.91 1082.93,-244.58"/>
<polygon fill="black" stroke="black" points="1083.69,-241.17 1073.22,-242.74 1082.39,-248.05 1083.69,-241.17"/>
</g>
<!-- ed25519&#45;&gt;hash -->
<g id="edge59" class="edge">
<title>ed25519&#45;&gt;hash</title>
<path fill="none" stroke="black" d="M1380.18,-293.13C1410.53,-280.77 1457.97,-261.47 1489.75,-248.53"/>
<polygon fill="black" stroke="black" points="1490.94,-251.83 1498.88,-244.82 1488.3,-245.34 1490.94,-251.83"/>
</g>
<!-- multi_ed25519&#45;&gt;error -->
<g id="edge62" class="edge">
<title>multi_ed25519&#45;&gt;error</title>
<path fill="none" stroke="black" d="M1524.81,-359.91C1534.02,-336.12 1550.29,-291.48 1559,-252 1569.11,-206.18 1574.11,-151.77 1576.37,-119.38"/>
<polygon fill="black" stroke="black" points="1579.85,-119.82 1577.01,-109.62 1572.86,-119.37 1579.85,-119.82"/>
</g>
<!-- multi_ed25519&#45;&gt;bcs -->
<g id="edge64" class="edge">
<title>multi_ed25519&#45;&gt;bcs</title>
<path fill="none" stroke="black" d="M1505.33,-359.87C1486.81,-334.82 1452.24,-288.06 1431.05,-259.42"/>
<polygon fill="black" stroke="black" points="1434.09,-257.63 1425.33,-251.67 1428.46,-261.79 1434.09,-257.63"/>
</g>
<!-- multi_ed25519&#45;&gt;option -->
<g id="edge61" class="edge">
<title>multi_ed25519&#45;&gt;option</title>
<path fill="none" stroke="black" d="M1515.77,-359.61C1510.55,-326.32 1494.31,-253.55 1449,-216 1313.18,-103.45 738.07,-91.96 572.04,-91.01"/>
<polygon fill="black" stroke="black" points="572.11,-87.51 562.1,-90.97 572.08,-94.51 572.11,-87.51"/>
</g>
<!-- multi_ed25519&#45;&gt;hash -->
<g id="edge63" class="edge">
<title>multi_ed25519&#45;&gt;hash</title>
<path fill="none" stroke="black" d="M1518.61,-359.59C1519.46,-335.61 1520.99,-292.14 1522,-263.42"/>
<polygon fill="black" stroke="black" points="1525.49,-263.74 1522.34,-253.62 1518.49,-263.49 1525.49,-263.74"/>
</g>
<!-- multi_ed25519&#45;&gt;ed25519 -->
<g id="edge65" class="edge">
<title>multi_ed25519&#45;&gt;ed25519</title>
<path fill="none" stroke="black" d="M1483.4,-362.5C1456.29,-351.13 1418.56,-335.32 1390.31,-323.48"/>
<polygon fill="black" stroke="black" points="1391.97,-320.38 1381.39,-319.74 1389.26,-326.83 1391.97,-320.38"/>
</g>
<!-- from_bcs&#45;&gt;string -->
<g id="edge66" class="edge">
<title>from_bcs&#45;&gt;string</title>
<path fill="none" stroke="black" d="M703.85,-216.76C696.09,-207.86 686.33,-196.65 677.72,-186.78"/>
<polygon fill="black" stroke="black" points="680.44,-184.57 671.23,-179.33 675.16,-189.17 680.44,-184.57"/>
</g>
<!-- coin&#45;&gt;signer -->
<g id="edge69" class="edge">
<title>coin&#45;&gt;signer</title>
<path fill="none" stroke="black" d="M620.6,-515.37C590.96,-507.95 541.39,-492.85 505,-468 363.79,-371.54 258.55,-187 222.52,-117.96"/>
<polygon fill="black" stroke="black" points="225.73,-116.53 218.03,-109.24 219.5,-119.74 225.73,-116.53"/>
</g>
<!-- coin&#45;&gt;error -->
<g id="edge70" class="edge">
<title>coin&#45;&gt;error</title>
<path fill="none" stroke="black" d="M640.41,-504.11C627.28,-460.9 599.93,-345.67 660,-288 677.11,-271.58 1051.21,-189.36 1073,-180 1100.88,-168.03 1102.36,-154.03 1131,-144 1206.07,-117.72 1444.35,-99.72 1538.84,-93.45"/>
<polygon fill="black" stroke="black" points="1538.89,-96.96 1548.64,-92.81 1538.44,-89.97 1538.89,-96.96"/>
</g>
<!-- coin&#45;&gt;system_addresses -->
<g id="edge72" class="edge">
<title>coin&#45;&gt;system_addresses</title>
<path fill="none" stroke="black" d="M672.41,-517.41C737.12,-507.56 906.72,-475.42 1022,-396 1047.12,-378.69 1070.3,-352.6 1085.75,-333.14"/>
<polygon fill="black" stroke="black" points="1088.4,-335.43 1091.75,-325.38 1082.86,-331.14 1088.4,-335.43"/>
</g>
<!-- coin&#45;&gt;event -->
<g id="edge73" class="edge">
<title>coin&#45;&gt;event</title>
<path fill="none" stroke="black" d="M673.29,-519.98C780.5,-515.81 1172.74,-498.7 1293,-468 1331.17,-458.25 1335.99,-442.36 1374,-432 1509.96,-394.96 1551.09,-424.93 1689,-396 1695.11,-394.72 1701.52,-393.05 1707.71,-391.26"/>
<polygon fill="black" stroke="black" points="1708.53,-394.67 1717.07,-388.4 1706.48,-387.97 1708.53,-394.67"/>
</g>
<!-- coin&#45;&gt;account -->
<g id="edge74" class="edge">
<title>coin&#45;&gt;account</title>
<path fill="none" stroke="black" d="M672.56,-517.9C765.51,-507.06 1077.1,-470.7 1197.73,-456.63"/>
<polygon fill="black" stroke="black" points="1198.1,-460.11 1207.63,-455.48 1197.29,-453.16 1198.1,-460.11"/>
</g>
<!-- coin&#45;&gt;option -->
<g id="edge67" class="edge">
<title>coin&#45;&gt;option</title>
<path fill="none" stroke="black" d="M620.69,-515.19C595.94,-508.2 559.01,-493.99 538,-468 445.27,-353.28 404.81,-278.22 466,-144 472.24,-130.3 483.97,-118.77 495.49,-110"/>
<polygon fill="black" stroke="black" points="497.2,-113.08 503.34,-104.45 493.15,-107.37 497.2,-113.08"/>
</g>
<!-- coin&#45;&gt;type_info -->
<g id="edge71" class="edge">
<title>coin&#45;&gt;type_info</title>
<path fill="none" stroke="black" d="M643.19,-503.86C637.1,-460.04 627.99,-343.52 692,-288 713.24,-269.58 887.09,-249.59 977.63,-240.3"/>
<polygon fill="black" stroke="black" points="977.93,-243.79 987.52,-239.3 977.22,-236.82 977.93,-243.79"/>
</g>
<!-- coin&#45;&gt;string -->
<g id="edge68" class="edge">
<title>coin&#45;&gt;string</title>
<path fill="none" stroke="black" d="M621.54,-514.15C600,-506.68 569.95,-492.4 556,-468 532.18,-426.33 543,-406.21 556,-360 571.24,-305.85 596.95,-302.37 622,-252 631.89,-232.12 640.99,-208.73 647.44,-190.92"/>
<polygon fill="black" stroke="black" points="650.72,-192.13 650.77,-181.54 644.12,-189.79 650.72,-192.13"/>
</g>
<!-- optional_aggregator -->
<g id="node30" class="node">
<title>optional_aggregator</title>
<ellipse fill="none" stroke="black" cx="755" cy="-450" rx="81.49" ry="18"/>
<text text-anchor="middle" x="755" y="-446.3" font-family="Times,serif" font-size="14.00">optional_aggregator</text>
</g>
<!-- coin&#45;&gt;optional_aggregator -->
<g id="edge75" class="edge">
<title>coin&#45;&gt;optional_aggregator</title>
<path fill="none" stroke="black" d="M664.99,-508.81C680.08,-499.11 701.62,-485.28 719.84,-473.58"/>
<polygon fill="black" stroke="black" points="721.49,-476.68 728.02,-468.33 717.71,-470.79 721.49,-476.68"/>
</g>
<!-- aptos_coin&#45;&gt;signer -->
<g id="edge79" class="edge">
<title>aptos_coin&#45;&gt;signer</title>
<path fill="none" stroke="black" d="M427.09,-576.26C394.89,-521.27 291.84,-340.51 232,-180 224.63,-160.22 218.73,-137.13 214.76,-119.42"/>
<polygon fill="black" stroke="black" points="218.23,-118.9 212.69,-109.87 211.39,-120.38 218.23,-118.9"/>
</g>
<!-- aptos_coin&#45;&gt;error -->
<g id="edge80" class="edge">
<title>aptos_coin&#45;&gt;error</title>
<path fill="none" stroke="black" d="M441.28,-575.77C460.44,-500.12 540.74,-198.71 617,-144 692.74,-89.66 1366.6,-89.78 1538.32,-90.71"/>
<polygon fill="black" stroke="black" points="1538.27,-94.21 1548.29,-90.77 1538.31,-87.21 1538.27,-94.21"/>
</g>
<!-- aptos_coin&#45;&gt;system_addresses -->
<g id="edge81" class="edge">
<title>aptos_coin&#45;&gt;system_addresses</title>
<path fill="none" stroke="black" d="M482.01,-586.37C570.54,-572.29 772.39,-535.11 930,-468 988.99,-442.88 1009.91,-441.58 1055,-396 1072.4,-378.41 1085.69,-353.54 1094.18,-334.56"/>
<polygon fill="black" stroke="black" points="1097.32,-336.13 1098.03,-325.55 1090.88,-333.38 1097.32,-336.13"/>
</g>
<!-- aptos_coin&#45;&gt;vector -->
<g id="edge76" class="edge">
<title>aptos_coin&#45;&gt;vector</title>
<path fill="none" stroke="black" d="M405.28,-580.02C317.19,-541.64 76,-419.7 76,-235 76,-235 76,-235 76,-161 76,-104.11 116.97,-97.14 168,-72 222.73,-45.04 400.14,-28.54 483.27,-22.1"/>
<polygon fill="black" stroke="black" points="483.37,-25.6 493.08,-21.36 482.84,-18.62 483.37,-25.6"/>
</g>
<!-- aptos_coin&#45;&gt;option -->
<g id="edge77" class="edge">
<title>aptos_coin&#45;&gt;option</title>
<path fill="none" stroke="black" d="M432.13,-575.98C429.44,-565.67 426.36,-552.19 425,-540 423.22,-524.1 424.78,-520 425,-504 426.78,-375.96 418.95,-343.28 433,-216 436.58,-183.6 428.89,-171.11 447,-144 457.7,-127.98 475.07,-115.61 490.88,-106.87"/>
<polygon fill="black" stroke="black" points="492.36,-110.05 499.63,-102.35 489.14,-103.84 492.36,-110.05"/>
</g>
<!-- aptos_coin&#45;&gt;coin -->
<g id="edge82" class="edge">
<title>aptos_coin&#45;&gt;coin</title>
<path fill="none" stroke="black" d="M472.45,-581.13C511.25,-568.13 573.03,-547.44 611.46,-534.57"/>
<polygon fill="black" stroke="black" points="612.31,-537.98 620.68,-531.48 610.08,-531.34 612.31,-537.98"/>
</g>
<!-- aptos_coin&#45;&gt;string -->
<g id="edge78" class="edge">
<title>aptos_coin&#45;&gt;string</title>
<path fill="none" stroke="black" d="M434.1,-575.88C429.72,-545.72 423.74,-481.6 442,-432 481.77,-323.95 583.38,-226.23 631.28,-184.45"/>
<polygon fill="black" stroke="black" points="633.4,-187.24 638.69,-178.07 628.83,-181.94 633.4,-187.24"/>
</g>
<!-- staking_config&#45;&gt;error -->
<g id="edge83" class="edge">
<title>staking_config&#45;&gt;error</title>
<path fill="none" stroke="black" d="M1843.7,-359.92C1816.16,-319.14 1741.9,-214.21 1662,-144 1645.91,-129.86 1625.66,-116.96 1609.07,-107.43"/>
<polygon fill="black" stroke="black" points="1611.04,-104.53 1600.61,-102.69 1607.62,-110.63 1611.04,-104.53"/>
</g>
<!-- staking_config&#45;&gt;system_addresses -->
<g id="edge84" class="edge">
<title>staking_config&#45;&gt;system_addresses</title>
<path fill="none" stroke="black" d="M1809.51,-365.12C1800.76,-363.16 1791.63,-361.33 1783,-360 1570.7,-327.22 1515.12,-341.28 1301,-324 1262.6,-320.9 1219.99,-317.23 1184.33,-314.1"/>
<polygon fill="black" stroke="black" points="1184.79,-310.62 1174.52,-313.23 1184.18,-317.6 1184.79,-310.62"/>
</g>
<!-- bls12381&#45;&gt;error -->
<g id="edge86" class="edge">
<title>bls12381&#45;&gt;error</title>
<path fill="none" stroke="black" d="M559.54,-149.85C567.46,-147.54 575.96,-145.39 584,-144 772.55,-111.33 1378.74,-95.52 1538.89,-91.85"/>
<polygon fill="black" stroke="black" points="1538.63,-95.36 1548.55,-91.63 1538.47,-88.36 1538.63,-95.36"/>
</g>
<!-- bls12381&#45;&gt;option -->
<g id="edge85" class="edge">
<title>bls12381&#45;&gt;option</title>
<path fill="none" stroke="black" d="M527,-143.7C527,-136.41 527,-127.73 527,-119.54"/>
<polygon fill="black" stroke="black" points="530.5,-119.62 527,-109.62 523.5,-119.62 530.5,-119.62"/>
</g>
<!-- state_storage&#45;&gt;error -->
<g id="edge87" class="edge">
<title>state_storage&#45;&gt;error</title>
<path fill="none" stroke="black" d="M2107.6,-359.55C2108.06,-315.53 2102.58,-199.52 2036,-144 1972.94,-91.41 1716.8,-89.07 1617.55,-90.22"/>
<polygon fill="black" stroke="black" points="1617.72,-86.72 1607.77,-90.35 1617.81,-93.72 1617.72,-86.72"/>
</g>
<!-- state_storage&#45;&gt;system_addresses -->
<g id="edge88" class="edge">
<title>state_storage&#45;&gt;system_addresses</title>
<path fill="none" stroke="black" d="M2055.37,-370.26C2027.22,-366.77 1991.74,-362.7 1960,-360 1667.73,-335.14 1593.6,-344.68 1301,-324 1262.42,-321.27 1219.62,-317.63 1183.88,-314.42"/>
<polygon fill="black" stroke="black" points="1184.32,-310.95 1174.04,-313.53 1183.69,-317.92 1184.32,-310.95"/>
</g>
<!-- string&#45;&gt;vector -->
<g id="edge89" class="edge">
<title>string&#45;&gt;vector</title>
<path fill="none" stroke="black" d="M642.84,-145.53C620.18,-120.78 575.6,-72.08 548.83,-42.85"/>
<polygon fill="black" stroke="black" points="551.5,-40.58 542.16,-35.56 546.34,-45.3 551.5,-40.58"/>
</g>
<!-- string&#45;&gt;option -->
<g id="edge90" class="edge">
<title>string&#45;&gt;option</title>
<path fill="none" stroke="black" d="M634.95,-149.13C614.38,-138.05 583.42,-121.38 559.92,-108.73"/>
<polygon fill="black" stroke="black" points="561.83,-105.78 551.37,-104.12 558.52,-111.95 561.83,-105.78"/>
</g>
<!-- features&#45;&gt;signer -->
<g id="edge91" class="edge">
<title>features&#45;&gt;signer</title>
<path fill="none" stroke="black" d="M988.5,-157.79C853.94,-146.26 395.76,-107 252.31,-94.71"/>
<polygon fill="black" stroke="black" points="252.74,-91.23 242.48,-93.87 252.14,-98.21 252.74,-91.23"/>
</g>
<!-- features&#45;&gt;error -->
<g id="edge92" class="edge">
<title>features&#45;&gt;error</title>
<path fill="none" stroke="black" d="M1055.4,-150.2C1062.71,-147.85 1070.57,-145.59 1078,-144 1246.99,-107.84 1453.64,-95.91 1538.63,-92.36"/>
<polygon fill="black" stroke="black" points="1538.67,-95.86 1548.52,-91.97 1538.39,-88.87 1538.67,-95.86"/>
</g>
<!-- optional_aggregator&#45;&gt;error -->
<g id="edge94" class="edge">
<title>optional_aggregator&#45;&gt;error</title>
<path fill="none" stroke="black" d="M743.6,-431.69C723.74,-399.17 688.27,-328.58 725,-288 778.95,-228.39 1013.11,-288 1085,-252 1104.41,-242.28 1100.47,-228.8 1118,-216 1148.84,-193.49 1162,-197.37 1196,-180 1225.06,-165.15 1229.22,-154.85 1260,-144 1356.5,-110 1477.34,-97.53 1538.55,-93.18"/>
<polygon fill="black" stroke="black" points="1538.72,-96.68 1548.46,-92.52 1538.25,-89.69 1538.72,-96.68"/>
</g>
<!-- optional_aggregator&#45;&gt;option -->
<g id="edge93" class="edge">
<title>optional_aggregator&#45;&gt;option</title>
<path fill="none" stroke="black" d="M726.45,-432.74C666.2,-396.56 527.31,-302.79 475,-180 468.73,-165.28 468.95,-158.81 475,-144 480,-131.76 489.35,-120.82 498.75,-112.1"/>
<polygon fill="black" stroke="black" points="500.84,-114.91 506.13,-105.73 496.27,-109.61 500.84,-114.91"/>
</g>
<!-- aggregator -->
<g id="node31" class="node">
<title>aggregator</title>
<ellipse fill="none" stroke="black" cx="782" cy="-306" rx="48.19" ry="18"/>
<text text-anchor="middle" x="782" y="-302.3" font-family="Times,serif" font-size="14.00">aggregator</text>
</g>
<!-- optional_aggregator&#45;&gt;aggregator -->
<g id="edge95" class="edge">
<title>optional_aggregator&#45;&gt;aggregator</title>
<path fill="none" stroke="black" d="M747.54,-431.85C740.69,-413.61 732.76,-384.13 741,-360 744.54,-349.65 751,-339.76 757.77,-331.38"/>
<polygon fill="black" stroke="black" points="760.2,-333.92 764.12,-324.07 754.92,-329.33 760.2,-333.92"/>
</g>
<!-- aggregator_factory -->
<g id="node32" class="node">
<title>aggregator_factory</title>
<ellipse fill="none" stroke="black" cx="827" cy="-378" rx="77.19" ry="18"/>
<text text-anchor="middle" x="827" y="-374.3" font-family="Times,serif" font-size="14.00">aggregator_factory</text>
</g>
<!-- optional_aggregator&#45;&gt;aggregator_factory -->
<g id="edge96" class="edge">
<title>optional_aggregator&#45;&gt;aggregator_factory</title>
<path fill="none" stroke="black" d="M772.43,-432.05C781.18,-423.54 791.96,-413.07 801.61,-403.68"/>
<polygon fill="black" stroke="black" points="803.92,-406.32 808.65,-396.84 799.04,-401.31 803.92,-406.32"/>
</g>
<!-- aggregator_factory&#45;&gt;error -->
<g id="edge97" class="edge">
<title>aggregator_factory&#45;&gt;error</title>
<path fill="none" stroke="black" d="M831.62,-359.77C838.12,-339.13 852.05,-305.2 877,-288 966.16,-226.53 1014.44,-283.7 1118,-252 1224.45,-219.42 1238.84,-180.52 1344,-144 1411.11,-120.69 1492.66,-104.92 1539.62,-96.98"/>
<polygon fill="black" stroke="black" points="1540,-100.47 1549.29,-95.38 1538.85,-93.56 1540,-100.47"/>
</g>
<!-- aggregator_factory&#45;&gt;system_addresses -->
<g id="edge99" class="edge">
<title>aggregator_factory&#45;&gt;system_addresses</title>
<path fill="none" stroke="black" d="M877.99,-364.16C924.91,-352.35 994.57,-334.81 1044.34,-322.27"/>
<polygon fill="black" stroke="black" points="1044.96,-325.73 1053.8,-319.89 1043.25,-318.94 1044.96,-325.73"/>
</g>
<!-- aggregator_factory&#45;&gt;table -->
<g id="edge98" class="edge">
<title>aggregator_factory&#45;&gt;table</title>
<path fill="none" stroke="black" d="M847.62,-360.41C859.75,-350.65 875.2,-338.22 888.14,-327.81"/>
<polygon fill="black" stroke="black" points="890.26,-330.59 895.86,-321.6 885.87,-325.14 890.26,-330.59"/>
</g>
<!-- aggregator_factory&#45;&gt;aggregator -->
<g id="edge100" class="edge">
<title>aggregator_factory&#45;&gt;aggregator</title>
<path fill="none" stroke="black" d="M815.88,-359.7C810.73,-351.7 804.51,-342.02 798.81,-333.15"/>
<polygon fill="black" stroke="black" points="801.86,-331.41 793.5,-324.9 795.97,-335.2 801.86,-331.41"/>
</g>
</g>
</svg>
