<?xml version="1.0" encoding="UTF-8" standalone="no"?>
<!DOCTYPE svg PUBLIC "-//W3C//DTD SVG 1.1//EN"
 "http://www.w3.org/Graphics/SVG/1.1/DTD/svg11.dtd">
<!-- Generated by graphviz version 7.0.0 (20221023.0053)
 -->
<!-- Title: G Pages: 1 -->
<svg width="3339pt" height="772pt"
 viewBox="0.00 0.00 3338.64 772.00" xmlns="http://www.w3.org/2000/svg" xmlns:xlink="http://www.w3.org/1999/xlink">
<g id="graph0" class="graph" transform="scale(1 1) rotate(0) translate(4 768)">
<title>G</title>
<polygon fill="white" stroke="none" points="-4,4 -4,-768 3334.64,-768 3334.64,4 -4,4"/>
<g id="clust15" class="cluster">
<title>cluster_optional_aggregator</title>
<polygon fill="none" stroke="black" points="3060,-174 3060,-332 3185,-332 3185,-174 3060,-174"/>
<text text-anchor="middle" x="3122.5" y="-316.8" font-family="Times,serif" font-size="14.00">optional_aggregator</text>
</g>
<g id="clust1" class="cluster">
<title>cluster_signer</title>
<polygon fill="none" stroke="black" points="652,-570 652,-720 802,-720 802,-570 652,-570"/>
<text text-anchor="middle" x="727" y="-704.8" font-family="Times,serif" font-size="14.00">signer</text>
</g>
<g id="clust2" class="cluster">
<title>cluster_error</title>
<polygon fill="none" stroke="black" points="629,-8 629,-166 1340,-166 1340,-8 629,-8"/>
<text text-anchor="middle" x="984.5" y="-150.8" font-family="Times,serif" font-size="14.00">error</text>
</g>
<g id="clust3" class="cluster">
<title>cluster_reconfiguration</title>
<polygon fill="none" stroke="black" points="918,-570 918,-720 1128,-720 1128,-570 918,-570"/>
<text text-anchor="middle" x="1023" y="-704.8" font-family="Times,serif" font-size="14.00">reconfiguration</text>
</g>
<g id="clust4" class="cluster">
<title>cluster_event</title>
<polygon fill="none" stroke="black" points="1162,-340 1162,-498 1348,-498 1348,-340 1162,-340"/>
<text text-anchor="middle" x="1255" y="-482.8" font-family="Times,serif" font-size="14.00">event</text>
</g>
<g id="clust5" class="cluster">
<title>cluster_chain_status</title>
<polygon fill="none" stroke="black" points="1206,-570 1206,-645 1316,-645 1316,-570 1206,-570"/>
<text text-anchor="middle" x="1261" y="-629.8" font-family="Times,serif" font-size="14.00">chain_status</text>
</g>
<g id="clust6" class="cluster">
<title>cluster_timestamp</title>
<polygon fill="none" stroke="black" points="2048,-340 2048,-498 2222,-498 2222,-340 2048,-340"/>
<text text-anchor="middle" x="2135" y="-482.8" font-family="Times,serif" font-size="14.00">timestamp</text>
</g>
<g id="clust7" class="cluster">
<title>cluster_stake</title>
<polygon fill="none" stroke="black" points="2230,-340 2230,-645 2698,-645 2698,-340 2230,-340"/>
<text text-anchor="middle" x="2464" y="-629.8" font-family="Times,serif" font-size="14.00">stake</text>
</g>
<g id="clust8" class="cluster">
<title>cluster_storage_gas</title>
<polygon fill="none" stroke="black" points="8,-8 8,-332 542,-332 542,-8 8,-8"/>
<text text-anchor="middle" x="275" y="-316.8" font-family="Times,serif" font-size="14.00">storage_gas</text>
</g>
<g id="clust9" class="cluster">
<title>cluster_bcs</title>
<polygon fill="none" stroke="black" points="1356,-340 1356,-415 1452,-415 1452,-340 1356,-340"/>
<text text-anchor="middle" x="1404" y="-399.8" font-family="Times,serif" font-size="14.00">bcs</text>
</g>
<g id="clust10" class="cluster">
<title>cluster_staking_config</title>
<polygon fill="none" stroke="black" points="1386,-423 1386,-498 2040,-498 2040,-423 1386,-423"/>
<text text-anchor="middle" x="1713" y="-482.8" font-family="Times,serif" font-size="14.00">staking_config</text>
</g>
<g id="clust11" class="cluster">
<title>cluster_state_storage</title>
<polygon fill="none" stroke="black" points="550,-174 550,-249 764,-249 764,-174 550,-174"/>
<text text-anchor="middle" x="657" y="-233.8" font-family="Times,serif" font-size="14.00">state_storage</text>
</g>
<g id="clust12" class="cluster">
<title>cluster_vector</title>
<polygon fill="none" stroke="black" points="2698,-8 2698,-83 2802,-83 2802,-8 2698,-8"/>
<text text-anchor="middle" x="2750" y="-67.8" font-family="Times,serif" font-size="14.00">vector</text>
</g>
<g id="clust13" class="cluster">
<title>cluster_coin</title>
<polygon fill="none" stroke="black" points="2706,-257 2706,-415 3052,-415 3052,-257 2706,-257"/>
<text text-anchor="middle" x="2879" y="-399.8" font-family="Times,serif" font-size="14.00">coin</text>
</g>
<g id="clust14" class="cluster">
<title>cluster_option</title>
<polygon fill="none" stroke="black" points="3193,-91 3193,-249 3319,-249 3319,-91 3193,-91"/>
<text text-anchor="middle" x="3256" y="-233.8" font-family="Times,serif" font-size="14.00">option</text>
</g>
<g id="clust16" class="cluster">
<title>cluster_aggregator</title>
<polygon fill="none" stroke="black" points="2978,-174 2978,-249 3052,-249 3052,-174 2978,-174"/>
<text text-anchor="middle" x="3015" y="-233.8" font-family="Times,serif" font-size="14.00">aggregator</text>
</g>
<g id="clust17" class="cluster">
<title>cluster_type_info</title>
<polygon fill="none" stroke="black" points="2646,-174 2646,-249 2894,-249 2894,-174 2646,-174"/>
<text text-anchor="middle" x="2770" y="-233.8" font-family="Times,serif" font-size="14.00">type_info</text>
</g>
<!-- set_version -->
<g id="node1" class="node">
<title>set_version</title>
<ellipse fill="none" stroke="black" cx="841" cy="-746" rx="50.89" ry="18"/>
<text text-anchor="middle" x="841" y="-742.3" font-family="Times,serif" font-size="14.00">set_version</text>
</g>
<!-- signer::address_of -->
<g id="node2" class="node">
<title>signer::address_of</title>
<ellipse fill="none" stroke="black" cx="736" cy="-671" rx="48.99" ry="18"/>
<text text-anchor="middle" x="736" y="-667.3" font-family="Times,serif" font-size="14.00">address_of</text>
</g>
<!-- set_version&#45;&gt;signer::address_of -->
<g id="edge1" class="edge">
<title>set_version&#45;&gt;signer::address_of</title>
<path fill="none" stroke="black" d="M818.73,-729.52C803.84,-719.16 784.02,-705.38 767.51,-693.91"/>
<polygon fill="black" stroke="black" points="769.69,-691.16 759.48,-688.32 765.69,-696.91 769.69,-691.16"/>
</g>
<!-- error::invalid_argument -->
<g id="node3" class="node">
<title>error::invalid_argument</title>
<ellipse fill="none" stroke="black" cx="822" cy="-117" rx="73.39" ry="18"/>
<text text-anchor="middle" x="822" y="-113.3" font-family="Times,serif" font-size="14.00">invalid_argument</text>
</g>
<!-- set_version&#45;&gt;error::invalid_argument -->
<g id="edge2" class="edge">
<title>set_version&#45;&gt;error::invalid_argument</title>
<path fill="none" stroke="black" d="M837.34,-727.78C831.82,-700.27 822,-644.67 822,-597 822,-597 822,-597 822,-282 822,-234.54 822,-179.34 822,-146.62"/>
<polygon fill="black" stroke="black" points="825.5,-146.75 822,-136.75 818.5,-146.75 825.5,-146.75"/>
</g>
<!-- error::permission_denied -->
<g id="node4" class="node">
<title>error::permission_denied</title>
<ellipse fill="none" stroke="black" cx="991" cy="-117" rx="77.19" ry="18"/>
<text text-anchor="middle" x="991" y="-113.3" font-family="Times,serif" font-size="14.00">permission_denied</text>
</g>
<!-- set_version&#45;&gt;error::permission_denied -->
<g id="edge3" class="edge">
<title>set_version&#45;&gt;error::permission_denied</title>
<path fill="none" stroke="black" d="M844.66,-727.78C850.18,-700.27 860,-644.67 860,-597 860,-597 860,-597 860,-282 860,-220.43 917.06,-168.7 955.86,-140.63"/>
<polygon fill="black" stroke="black" points="957.4,-143.83 963.57,-135.22 953.37,-138.11 957.4,-143.83"/>
</g>
<!-- reconfiguration::reconfigure -->
<g id="node5" class="node">
<title>reconfiguration::reconfigure</title>
<ellipse fill="none" stroke="black" cx="1069" cy="-671" rx="51.19" ry="18"/>
<text text-anchor="middle" x="1069" y="-667.3" font-family="Times,serif" font-size="14.00">reconfigure</text>
</g>
<!-- set_version&#45;&gt;reconfiguration::reconfigure -->
<g id="edge4" class="edge">
<title>set_version&#45;&gt;reconfiguration::reconfigure</title>
<path fill="none" stroke="black" d="M877.89,-733.19C916.87,-720.71 978.52,-700.97 1021.21,-687.3"/>
<polygon fill="black" stroke="black" points="1022.27,-690.64 1030.73,-684.25 1020.13,-683.97 1022.27,-690.64"/>
</g>
<!-- signer::borrow_address -->
<g id="node6" class="node">
<title>signer::borrow_address</title>
<ellipse fill="none" stroke="black" cx="727" cy="-596" rx="66.89" ry="18"/>
<text text-anchor="middle" x="727" y="-592.3" font-family="Times,serif" font-size="14.00">borrow_address</text>
</g>
<!-- signer::address_of&#45;&gt;signer::borrow_address -->
<g id="edge5" class="edge">
<title>signer::address_of&#45;&gt;signer::borrow_address</title>
<path fill="none" stroke="black" d="M733.87,-652.7C732.88,-644.67 731.67,-634.9 730.55,-625.8"/>
<polygon fill="black" stroke="black" points="734.03,-625.43 729.33,-615.93 727.08,-626.28 734.03,-625.43"/>
</g>
<!-- error::canonical -->
<g id="node7" class="node">
<title>error::canonical</title>
<ellipse fill="none" stroke="black" cx="991" cy="-34" rx="44.39" ry="18"/>
<text text-anchor="middle" x="991" y="-30.3" font-family="Times,serif" font-size="14.00">canonical</text>
</g>
<!-- error::invalid_argument&#45;&gt;error::canonical -->
<g id="edge6" class="edge">
<title>error::invalid_argument&#45;&gt;error::canonical</title>
<path fill="none" stroke="black" d="M854.19,-100.57C882.37,-87.07 923.36,-67.42 953.12,-53.16"/>
<polygon fill="black" stroke="black" points="954.27,-56.49 961.77,-49.01 951.24,-50.18 954.27,-56.49"/>
</g>
<!-- error::permission_denied&#45;&gt;error::canonical -->
<g id="edge7" class="edge">
<title>error::permission_denied&#45;&gt;error::canonical</title>
<path fill="none" stroke="black" d="M991,-98.82C991,-88.69 991,-75.6 991,-63.92"/>
<polygon fill="black" stroke="black" points="994.5,-63.95 991,-53.95 987.5,-63.95 994.5,-63.95"/>
</g>
<!-- error::invalid_state -->
<g id="node8" class="node">
<title>error::invalid_state</title>
<ellipse fill="none" stroke="black" cx="1142" cy="-117" rx="55.79" ry="18"/>
<text text-anchor="middle" x="1142" y="-113.3" font-family="Times,serif" font-size="14.00">invalid_state</text>
</g>
<!-- reconfiguration::reconfigure&#45;&gt;error::invalid_state -->
<g id="edge8" class="edge">
<title>reconfiguration::reconfigure&#45;&gt;error::invalid_state</title>
<path fill="none" stroke="black" d="M1110.62,-660.06C1117.84,-656.48 1124.47,-651.61 1129,-645 1157.16,-603.86 1146.8,-250.97 1143.09,-146.82"/>
<polygon fill="black" stroke="black" points="1146.59,-146.77 1142.73,-136.9 1139.6,-147.02 1146.59,-146.77"/>
</g>
<!-- event::emit_event -->
<g id="node9" class="node">
<title>event::emit_event</title>
<ellipse fill="none" stroke="black" cx="1271" cy="-449" rx="50.09" ry="18"/>
<text text-anchor="middle" x="1271" y="-445.3" font-family="Times,serif" font-size="14.00">emit_event</text>
</g>
<!-- reconfiguration::reconfigure&#45;&gt;event::emit_event -->
<g id="edge9" class="edge">
<title>reconfiguration::reconfigure&#45;&gt;event::emit_event</title>
<path fill="none" stroke="black" d="M1117.37,-664.73C1132.88,-661.13 1149.31,-655.09 1162,-645 1191.57,-621.49 1183.69,-603.05 1202,-570 1219.85,-537.77 1241.07,-501.11 1255.22,-476.88"/>
<polygon fill="black" stroke="black" points="1258.21,-478.7 1260.24,-468.3 1252.17,-475.16 1258.21,-478.7"/>
</g>
<!-- chain_status::is_genesis -->
<g id="node10" class="node">
<title>chain_status::is_genesis</title>
<ellipse fill="none" stroke="black" cx="1261" cy="-596" rx="46.59" ry="18"/>
<text text-anchor="middle" x="1261" y="-592.3" font-family="Times,serif" font-size="14.00">is_genesis</text>
</g>
<!-- reconfiguration::reconfigure&#45;&gt;chain_status::is_genesis -->
<g id="edge10" class="edge">
<title>reconfiguration::reconfigure&#45;&gt;chain_status::is_genesis</title>
<path fill="none" stroke="black" d="M1118.6,-666.17C1143.85,-662.84 1174.51,-656.62 1200,-645 1213.09,-639.03 1225.87,-629.7 1236.32,-620.84"/>
<polygon fill="black" stroke="black" points="1238.56,-623.53 1243.72,-614.28 1233.92,-618.29 1238.56,-623.53"/>
</g>
<!-- timestamp::now_microseconds -->
<g id="node11" class="node">
<title>timestamp::now_microseconds</title>
<ellipse fill="none" stroke="black" cx="2135" cy="-366" rx="79.09" ry="18"/>
<text text-anchor="middle" x="2135" y="-362.3" font-family="Times,serif" font-size="14.00">now_microseconds</text>
</g>
<!-- reconfiguration::reconfigure&#45;&gt;timestamp::now_microseconds -->
<g id="edge11" class="edge">
<title>reconfiguration::reconfigure&#45;&gt;timestamp::now_microseconds</title>
<path fill="none" stroke="black" d="M1119.97,-667.97C1188.91,-664.77 1305.04,-657.57 1320,-645 1359.21,-612.05 1342.38,-455.46 1382,-423 1388.39,-417.76 1852.3,-386.01 2048.69,-372.78"/>
<polygon fill="black" stroke="black" points="2048.85,-376.27 2058.6,-372.11 2048.38,-369.29 2048.85,-376.27"/>
</g>
<!-- stake::on_new_epoch -->
<g id="node12" class="node">
<title>stake::on_new_epoch</title>
<ellipse fill="none" stroke="black" cx="2302" cy="-596" rx="63.89" ry="18"/>
<text text-anchor="middle" x="2302" y="-592.3" font-family="Times,serif" font-size="14.00">on_new_epoch</text>
</g>
<!-- reconfiguration::reconfigure&#45;&gt;stake::on_new_epoch -->
<g id="edge12" class="edge">
<title>reconfiguration::reconfigure&#45;&gt;stake::on_new_epoch</title>
<path fill="none" stroke="black" d="M1119.25,-667.03C1311.44,-655.65 2000.61,-614.84 2228.36,-601.36"/>
<polygon fill="black" stroke="black" points="2228.53,-604.86 2238.31,-600.77 2228.12,-597.87 2228.53,-604.86"/>
</g>
<!-- storage_gas::on_reconfig -->
<g id="node13" class="node">
<title>storage_gas::on_reconfig</title>
<ellipse fill="none" stroke="black" cx="466" cy="-283" rx="53.09" ry="18"/>
<text text-anchor="middle" x="466" y="-279.3" font-family="Times,serif" font-size="14.00">on_reconfig</text>
</g>
<!-- reconfiguration::reconfigure&#45;&gt;storage_gas::on_reconfig -->
<g id="edge13" class="edge">
<title>reconfiguration::reconfigure&#45;&gt;storage_gas::on_reconfig</title>
<path fill="none" stroke="black" d="M1018.12,-667.9C979.57,-665.2 930.95,-659.04 917,-645 878.93,-606.7 898,-579 898,-525 898,-525 898,-525 898,-448 898,-369 642.33,-314.49 524.37,-293.54"/>
<polygon fill="black" stroke="black" points="525,-290.1 514.54,-291.83 523.79,-297 525,-290.1"/>
</g>
<!-- reconfiguration::reconfiguration_enabled -->
<g id="node14" class="node">
<title>reconfiguration::reconfiguration_enabled</title>
<ellipse fill="none" stroke="black" cx="1023" cy="-596" rx="96.68" ry="18"/>
<text text-anchor="middle" x="1023" y="-592.3" font-family="Times,serif" font-size="14.00">reconfiguration_enabled</text>
</g>
<!-- reconfiguration::reconfigure&#45;&gt;reconfiguration::reconfiguration_enabled -->
<g id="edge14" class="edge">
<title>reconfiguration::reconfigure&#45;&gt;reconfiguration::reconfiguration_enabled</title>
<path fill="none" stroke="black" d="M1058.33,-653.07C1052.89,-644.44 1046.15,-633.74 1040.02,-624.01"/>
<polygon fill="black" stroke="black" points="1043.03,-622.22 1034.74,-615.63 1037.11,-625.95 1043.03,-622.22"/>
</g>
<!-- error::invalid_state&#45;&gt;error::canonical -->
<g id="edge15" class="edge">
<title>error::invalid_state&#45;&gt;error::canonical</title>
<path fill="none" stroke="black" d="M1114.3,-101.14C1089.8,-88 1053.89,-68.73 1027.13,-54.38"/>
<polygon fill="black" stroke="black" points="1028.81,-51.31 1018.34,-49.67 1025.5,-57.48 1028.81,-51.31"/>
</g>
<!-- bcs::to_bytes -->
<g id="node15" class="node">
<title>bcs::to_bytes</title>
<ellipse fill="none" stroke="black" cx="1404" cy="-366" rx="40.09" ry="18"/>
<text text-anchor="middle" x="1404" y="-362.3" font-family="Times,serif" font-size="14.00">to_bytes</text>
</g>
<!-- event::emit_event&#45;&gt;bcs::to_bytes -->
<g id="edge16" class="edge">
<title>event::emit_event&#45;&gt;bcs::to_bytes</title>
<path fill="none" stroke="black" d="M1307.44,-436.33C1321.89,-430.91 1338.29,-423.72 1352,-415 1362.58,-408.28 1372.98,-399.29 1381.67,-390.91"/>
<polygon fill="black" stroke="black" points="1384.07,-393.46 1388.66,-383.92 1379.12,-388.52 1384.07,-393.46"/>
</g>
<!-- event::write_to_event_store -->
<g id="node16" class="node">
<title>event::write_to_event_store</title>
<ellipse fill="none" stroke="black" cx="1255" cy="-366" rx="85.29" ry="18"/>
<text text-anchor="middle" x="1255" y="-362.3" font-family="Times,serif" font-size="14.00">write_to_event_store</text>
</g>
<!-- event::emit_event&#45;&gt;event::write_to_event_store -->
<g id="edge17" class="edge">
<title>event::emit_event&#45;&gt;event::write_to_event_store</title>
<path fill="none" stroke="black" d="M1267.61,-430.82C1265.58,-420.58 1262.97,-407.33 1260.64,-395.55"/>
<polygon fill="black" stroke="black" points="1264.11,-395.05 1258.74,-385.92 1257.24,-396.41 1264.11,-395.05"/>
</g>
<!-- timestamp::now_seconds -->
<g id="node17" class="node">
<title>timestamp::now_seconds</title>
<ellipse fill="none" stroke="black" cx="2156" cy="-449" rx="57.69" ry="18"/>
<text text-anchor="middle" x="2156" y="-445.3" font-family="Times,serif" font-size="14.00">now_seconds</text>
</g>
<!-- stake::on_new_epoch&#45;&gt;timestamp::now_seconds -->
<g id="edge18" class="edge">
<title>stake::on_new_epoch&#45;&gt;timestamp::now_seconds</title>
<path fill="none" stroke="black" d="M2276.7,-579.13C2262.01,-569.33 2243.59,-555.98 2229,-542 2208.06,-521.94 2187.86,-495.78 2174.04,-476.48"/>
<polygon fill="black" stroke="black" points="2176.91,-474.48 2168.29,-468.32 2171.19,-478.51 2176.91,-474.48"/>
</g>
<!-- staking_config::get -->
<g id="node18" class="node">
<title>staking_config::get</title>
<ellipse fill="none" stroke="black" cx="1593" cy="-449" rx="27" ry="18"/>
<text text-anchor="middle" x="1593" y="-445.3" font-family="Times,serif" font-size="14.00">get</text>
</g>
<!-- stake::on_new_epoch&#45;&gt;staking_config::get -->
<g id="edge19" class="edge">
<title>stake::on_new_epoch&#45;&gt;staking_config::get</title>
<path fill="none" stroke="black" d="M2239.27,-592.09C2092.51,-584.33 1731.47,-559.38 1629,-498 1620.14,-492.69 1612.74,-484.29 1607,-475.99"/>
<polygon fill="black" stroke="black" points="1610.12,-474.38 1601.84,-467.77 1604.19,-478.1 1610.12,-474.38"/>
</g>
<!-- staking_config::get_recurring_lockup_duration -->
<g id="node19" class="node">
<title>staking_config::get_recurring_lockup_duration</title>
<ellipse fill="none" stroke="black" cx="1758" cy="-449" rx="120.48" ry="18"/>
<text text-anchor="middle" x="1758" y="-445.3" font-family="Times,serif" font-size="14.00">get_recurring_lockup_duration</text>
</g>
<!-- stake::on_new_epoch&#45;&gt;staking_config::get_recurring_lockup_duration -->
<g id="edge20" class="edge">
<title>stake::on_new_epoch&#45;&gt;staking_config::get_recurring_lockup_duration</title>
<path fill="none" stroke="black" d="M2250.34,-585.12C2171.29,-569.51 2015.93,-536.88 1887,-498 1860.71,-490.07 1832.03,-479.59 1808.41,-470.45"/>
<polygon fill="black" stroke="black" points="1809.93,-467.28 1799.35,-466.9 1807.38,-473.8 1809.93,-467.28"/>
</g>
<!-- staking_config::get_required_stake -->
<g id="node20" class="node">
<title>staking_config::get_required_stake</title>
<ellipse fill="none" stroke="black" cx="1471" cy="-449" rx="77.19" ry="18"/>
<text text-anchor="middle" x="1471" y="-445.3" font-family="Times,serif" font-size="14.00">get_required_stake</text>
</g>
<!-- stake::on_new_epoch&#45;&gt;staking_config::get_required_stake -->
<g id="edge21" class="edge">
<title>stake::on_new_epoch&#45;&gt;staking_config::get_required_stake</title>
<path fill="none" stroke="black" d="M2238.54,-593.1C2095.74,-588.3 1752.92,-573.76 1642,-542 1590.09,-527.13 1536.19,-494.85 1503.11,-472.77"/>
<polygon fill="black" stroke="black" points="1505.44,-470.12 1495.2,-467.4 1501.51,-475.91 1505.44,-470.12"/>
</g>
<!-- stake::append -->
<g id="node21" class="node">
<title>stake::append</title>
<ellipse fill="none" stroke="black" cx="2446" cy="-524" rx="36.29" ry="18"/>
<text text-anchor="middle" x="2446" y="-520.3" font-family="Times,serif" font-size="14.00">append</text>
</g>
<!-- stake::on_new_epoch&#45;&gt;stake::append -->
<g id="edge22" class="edge">
<title>stake::on_new_epoch&#45;&gt;stake::append</title>
<path fill="none" stroke="black" d="M2332.89,-579.98C2355.78,-568.86 2387.01,-553.67 2410.86,-542.08"/>
<polygon fill="black" stroke="black" points="2412.08,-545.38 2419.55,-537.86 2409.02,-539.08 2412.08,-545.38"/>
</g>
<!-- stake::generate_validator_info -->
<g id="node22" class="node">
<title>stake::generate_validator_info</title>
<ellipse fill="none" stroke="black" cx="2595" cy="-524" rx="94.78" ry="18"/>
<text text-anchor="middle" x="2595" y="-520.3" font-family="Times,serif" font-size="14.00">generate_validator_info</text>
</g>
<!-- stake::on_new_epoch&#45;&gt;stake::generate_validator_info -->
<g id="edge23" class="edge">
<title>stake::on_new_epoch&#45;&gt;stake::generate_validator_info</title>
<path fill="none" stroke="black" d="M2349.73,-583.6C2397.74,-572.13 2472.25,-554.32 2526.56,-541.35"/>
<polygon fill="black" stroke="black" points="2527.09,-544.82 2536,-539.09 2525.46,-538.01 2527.09,-544.82"/>
</g>
<!-- stake::update_stake_pool -->
<g id="node23" class="node">
<title>stake::update_stake_pool</title>
<ellipse fill="none" stroke="black" cx="2315" cy="-524" rx="76.89" ry="18"/>
<text text-anchor="middle" x="2315" y="-520.3" font-family="Times,serif" font-size="14.00">update_stake_pool</text>
</g>
<!-- stake::on_new_epoch&#45;&gt;stake::update_stake_pool -->
<g id="edge24" class="edge">
<title>stake::on_new_epoch&#45;&gt;stake::update_stake_pool</title>
<path fill="none" stroke="black" d="M2305.21,-577.7C2306.58,-570.32 2308.22,-561.52 2309.75,-553.25"/>
<polygon fill="black" stroke="black" points="2313.16,-554.06 2311.55,-543.59 2306.28,-552.79 2313.16,-554.06"/>
</g>
<!-- error::not_found -->
<g id="node24" class="node">
<title>error::not_found</title>
<ellipse fill="none" stroke="black" cx="684" cy="-117" rx="46.59" ry="18"/>
<text text-anchor="middle" x="684" y="-113.3" font-family="Times,serif" font-size="14.00">not_found</text>
</g>
<!-- storage_gas::on_reconfig&#45;&gt;error::not_found -->
<g id="edge25" class="edge">
<title>storage_gas::on_reconfig&#45;&gt;error::not_found</title>
<path fill="none" stroke="black" d="M518.71,-280C600.85,-276.33 751.69,-267.19 768,-249 790.25,-224.18 788.07,-200.61 768,-174 760.21,-163.67 751.4,-172.13 740,-166 728.26,-159.68 716.8,-150.57 707.34,-141.97"/>
<polygon fill="black" stroke="black" points="710.03,-139.69 700.37,-135.36 705.22,-144.78 710.03,-139.69"/>
</g>
<!-- state_storage::current_items_and_bytes -->
<g id="node25" class="node">
<title>state_storage::current_items_and_bytes</title>
<ellipse fill="none" stroke="black" cx="657" cy="-200" rx="99.38" ry="18"/>
<text text-anchor="middle" x="657" y="-196.3" font-family="Times,serif" font-size="14.00">current_items_and_bytes</text>
</g>
<!-- storage_gas::on_reconfig&#45;&gt;state_storage::current_items_and_bytes -->
<g id="edge26" class="edge">
<title>storage_gas::on_reconfig&#45;&gt;state_storage::current_items_and_bytes</title>
<path fill="none" stroke="black" d="M499.14,-268.48C513.56,-262.56 530.64,-255.49 546,-249 566.89,-240.18 589.91,-230.25 609.54,-221.73"/>
<polygon fill="black" stroke="black" points="610.9,-224.96 618.68,-217.76 608.11,-218.54 610.9,-224.96"/>
</g>
<!-- storage_gas::calculate_create_gas -->
<g id="node26" class="node">
<title>storage_gas::calculate_create_gas</title>
<ellipse fill="none" stroke="black" cx="451" cy="-200" rx="83.39" ry="18"/>
<text text-anchor="middle" x="451" y="-196.3" font-family="Times,serif" font-size="14.00">calculate_create_gas</text>
</g>
<!-- storage_gas::on_reconfig&#45;&gt;storage_gas::calculate_create_gas -->
<g id="edge27" class="edge">
<title>storage_gas::on_reconfig&#45;&gt;storage_gas::calculate_create_gas</title>
<path fill="none" stroke="black" d="M462.82,-264.82C460.92,-254.58 458.47,-241.33 456.29,-229.55"/>
<polygon fill="black" stroke="black" points="459.77,-229.12 454.5,-219.92 452.88,-230.39 459.77,-229.12"/>
</g>
<!-- storage_gas::calculate_read_gas -->
<g id="node27" class="node">
<title>storage_gas::calculate_read_gas</title>
<ellipse fill="none" stroke="black" cx="93" cy="-200" rx="77.19" ry="18"/>
<text text-anchor="middle" x="93" y="-196.3" font-family="Times,serif" font-size="14.00">calculate_read_gas</text>
</g>
<!-- storage_gas::on_reconfig&#45;&gt;storage_gas::calculate_read_gas -->
<g id="edge28" class="edge">
<title>storage_gas::on_reconfig&#45;&gt;storage_gas::calculate_read_gas</title>
<path fill="none" stroke="black" d="M412.58,-282.07C353.93,-280.74 257.65,-274.35 179,-249 160.58,-243.06 141.63,-232.99 126.23,-223.6"/>
<polygon fill="black" stroke="black" points="128.27,-220.75 117.94,-218.39 124.54,-226.67 128.27,-220.75"/>
</g>
<!-- storage_gas::calculate_write_gas -->
<g id="node28" class="node">
<title>storage_gas::calculate_write_gas</title>
<ellipse fill="none" stroke="black" cx="269" cy="-200" rx="80.69" ry="18"/>
<text text-anchor="middle" x="269" y="-196.3" font-family="Times,serif" font-size="14.00">calculate_write_gas</text>
</g>
<!-- storage_gas::on_reconfig&#45;&gt;storage_gas::calculate_write_gas -->
<g id="edge29" class="edge">
<title>storage_gas::on_reconfig&#45;&gt;storage_gas::calculate_write_gas</title>
<path fill="none" stroke="black" d="M424.7,-271.26C404.56,-265.52 380.18,-257.82 359,-249 341.16,-241.57 322.18,-231.76 306.28,-222.94"/>
<polygon fill="black" stroke="black" points="308.06,-219.93 297.63,-218.07 304.62,-226.03 308.06,-219.93"/>
</g>
<!-- timestamp::now_seconds&#45;&gt;timestamp::now_microseconds -->
<g id="edge30" class="edge">
<title>timestamp::now_seconds&#45;&gt;timestamp::now_microseconds</title>
<path fill="none" stroke="black" d="M2151.55,-430.82C2148.89,-420.58 2145.45,-407.33 2142.4,-395.55"/>
<polygon fill="black" stroke="black" points="2145.8,-394.7 2139.9,-385.9 2139.02,-396.46 2145.8,-394.7"/>
</g>
<!-- vector::is_empty -->
<g id="node29" class="node">
<title>vector::is_empty</title>
<ellipse fill="none" stroke="black" cx="2750" cy="-34" rx="43.59" ry="18"/>
<text text-anchor="middle" x="2750" y="-30.3" font-family="Times,serif" font-size="14.00">is_empty</text>
</g>
<!-- stake::append&#45;&gt;vector::is_empty -->
<g id="edge31" class="edge">
<title>stake::append&#45;&gt;vector::is_empty</title>
<path fill="none" stroke="black" d="M2419.27,-511.41C2413.35,-509.26 2407.04,-507.3 2401,-506 2386.85,-502.96 2281.65,-507.8 2271,-498 2227.72,-458.15 2252,-425.83 2252,-367 2252,-367 2252,-367 2252,-199 2252,-106 2569.27,-56.98 2697.33,-40.98"/>
<polygon fill="black" stroke="black" points="2697.4,-44.5 2706.9,-39.81 2696.54,-37.55 2697.4,-44.5"/>
</g>
<!-- stake::get_next_epoch_voting_power -->
<g id="node30" class="node">
<title>stake::get_next_epoch_voting_power</title>
<ellipse fill="none" stroke="black" cx="2570" cy="-449" rx="119.68" ry="18"/>
<text text-anchor="middle" x="2570" y="-445.3" font-family="Times,serif" font-size="14.00">get_next_epoch_voting_power</text>
</g>
<!-- stake::generate_validator_info&#45;&gt;stake::get_next_epoch_voting_power -->
<g id="edge32" class="edge">
<title>stake::generate_validator_info&#45;&gt;stake::get_next_epoch_voting_power</title>
<path fill="none" stroke="black" d="M2589.08,-505.7C2586.26,-497.49 2582.83,-487.46 2579.65,-478.19"/>
<polygon fill="black" stroke="black" points="2583.01,-477.19 2576.46,-468.86 2576.39,-479.46 2583.01,-477.19"/>
</g>
<!-- stake::update_stake_pool&#45;&gt;event::emit_event -->
<g id="edge33" class="edge">
<title>stake::update_stake_pool&#45;&gt;event::emit_event</title>
<path fill="none" stroke="black" d="M2237.95,-522.61C2029.46,-521.33 1464.32,-516.19 1382,-498 1355.87,-492.23 1328.24,-480.3 1307.09,-469.78"/>
<polygon fill="black" stroke="black" points="1308.8,-466.73 1298.3,-465.3 1305.62,-472.96 1308.8,-466.73"/>
</g>
<!-- stake::update_stake_pool&#45;&gt;timestamp::now_seconds -->
<g id="edge36" class="edge">
<title>stake::update_stake_pool&#45;&gt;timestamp::now_seconds</title>
<path fill="none" stroke="black" d="M2260.79,-510.83C2249.06,-507.36 2236.9,-503.1 2226,-498 2211.68,-491.3 2197.06,-481.78 2184.92,-472.99"/>
<polygon fill="black" stroke="black" points="2187.08,-470.24 2176.97,-467.06 2182.89,-475.85 2187.08,-470.24"/>
</g>
<!-- coin::extract_all -->
<g id="node31" class="node">
<title>coin::extract_all</title>
<ellipse fill="none" stroke="black" cx="2996" cy="-366" rx="48.19" ry="18"/>
<text text-anchor="middle" x="2996" y="-362.3" font-family="Times,serif" font-size="14.00">extract_all</text>
</g>
<!-- stake::update_stake_pool&#45;&gt;coin::extract_all -->
<g id="edge34" class="edge">
<title>stake::update_stake_pool&#45;&gt;coin::extract_all</title>
<path fill="none" stroke="black" d="M2368.91,-510.85C2379.5,-508.89 2390.56,-507.13 2401,-506 2443.43,-501.4 2743.73,-508.87 2785,-498 2859.5,-478.37 2932.79,-422.33 2970.27,-390.26"/>
<polygon fill="black" stroke="black" points="2972.18,-393.24 2977.43,-384.04 2967.59,-387.96 2972.18,-393.24"/>
</g>
<!-- coin::merge -->
<g id="node32" class="node">
<title>coin::merge</title>
<ellipse fill="none" stroke="black" cx="2897" cy="-366" rx="33.29" ry="18"/>
<text text-anchor="middle" x="2897" y="-362.3" font-family="Times,serif" font-size="14.00">merge</text>
</g>
<!-- stake::update_stake_pool&#45;&gt;coin::merge -->
<g id="edge35" class="edge">
<title>stake::update_stake_pool&#45;&gt;coin::merge</title>
<path fill="none" stroke="black" d="M2368.92,-510.9C2379.5,-508.93 2390.56,-507.16 2401,-506 2433.92,-502.33 2666.97,-506.45 2699,-498 2774.94,-477.97 2793.46,-463.8 2855,-415 2863.45,-408.3 2871.54,-399.76 2878.33,-391.74"/>
<polygon fill="black" stroke="black" points="2880.86,-394.18 2884.44,-384.21 2875.42,-389.77 2880.86,-394.18"/>
</g>
<!-- staking_config::get_reward_rate -->
<g id="node33" class="node">
<title>staking_config::get_reward_rate</title>
<ellipse fill="none" stroke="black" cx="1964" cy="-449" rx="67.69" ry="18"/>
<text text-anchor="middle" x="1964" y="-445.3" font-family="Times,serif" font-size="14.00">get_reward_rate</text>
</g>
<!-- stake::update_stake_pool&#45;&gt;staking_config::get_reward_rate -->
<g id="edge37" class="edge">
<title>stake::update_stake_pool&#45;&gt;staking_config::get_reward_rate</title>
<path fill="none" stroke="black" d="M2241.95,-517.94C2168.13,-512.56 2062.38,-504.01 2044,-498 2026.61,-492.31 2009,-482.3 1994.74,-472.89"/>
<polygon fill="black" stroke="black" points="1996.93,-470.14 1986.7,-467.38 1992.97,-475.92 1996.93,-470.14"/>
</g>
<!-- stake::distribute_rewards -->
<g id="node34" class="node">
<title>stake::distribute_rewards</title>
<ellipse fill="none" stroke="black" cx="2356" cy="-449" rx="76.09" ry="18"/>
<text text-anchor="middle" x="2356" y="-445.3" font-family="Times,serif" font-size="14.00">distribute_rewards</text>
</g>
<!-- stake::update_stake_pool&#45;&gt;stake::distribute_rewards -->
<g id="edge38" class="edge">
<title>stake::update_stake_pool&#45;&gt;stake::distribute_rewards</title>
<path fill="none" stroke="black" d="M2324.72,-505.7C2329.52,-497.15 2335.42,-486.65 2340.8,-477.07"/>
<polygon fill="black" stroke="black" points="2343.77,-478.93 2345.61,-468.5 2337.66,-475.5 2343.77,-478.93"/>
</g>
<!-- error::not_found&#45;&gt;error::canonical -->
<g id="edge39" class="edge">
<title>error::not_found&#45;&gt;error::canonical</title>
<path fill="none" stroke="black" d="M712.05,-102.16C720.85,-98.17 730.7,-94.08 740,-91 807.38,-68.69 887.87,-52.5 939.2,-43.42"/>
<polygon fill="black" stroke="black" points="939.59,-46.91 948.84,-41.75 938.39,-40.01 939.59,-46.91"/>
</g>
<!-- state_storage::current_items_and_bytes&#45;&gt;error::not_found -->
<g id="edge40" class="edge">
<title>state_storage::current_items_and_bytes&#45;&gt;error::not_found</title>
<path fill="none" stroke="black" d="M662.73,-181.82C666.2,-171.41 670.71,-157.87 674.69,-145.94"/>
<polygon fill="black" stroke="black" points="677.96,-147.18 677.8,-136.59 671.32,-144.97 677.96,-147.18"/>
</g>
<!-- storage_gas::calculate_gas -->
<g id="node35" class="node">
<title>storage_gas::calculate_gas</title>
<ellipse fill="none" stroke="black" cx="269" cy="-117" rx="57.69" ry="18"/>
<text text-anchor="middle" x="269" y="-113.3" font-family="Times,serif" font-size="14.00">calculate_gas</text>
</g>
<!-- storage_gas::calculate_create_gas&#45;&gt;storage_gas::calculate_gas -->
<g id="edge41" class="edge">
<title>storage_gas::calculate_create_gas&#45;&gt;storage_gas::calculate_gas</title>
<path fill="none" stroke="black" d="M415.91,-183.38C386.12,-170.12 343.28,-151.06 311.54,-136.93"/>
<polygon fill="black" stroke="black" points="313.18,-133.83 302.62,-132.96 310.33,-140.23 313.18,-133.83"/>
</g>
<!-- storage_gas::calculate_read_gas&#45;&gt;storage_gas::calculate_gas -->
<g id="edge42" class="edge">
<title>storage_gas::calculate_read_gas&#45;&gt;storage_gas::calculate_gas</title>
<path fill="none" stroke="black" d="M126.93,-183.38C155.53,-170.22 196.56,-151.34 227.18,-137.25"/>
<polygon fill="black" stroke="black" points="228.54,-140.47 236.16,-133.11 225.61,-134.12 228.54,-140.47"/>
</g>
<!-- storage_gas::calculate_write_gas&#45;&gt;storage_gas::calculate_gas -->
<g id="edge43" class="edge">
<title>storage_gas::calculate_write_gas&#45;&gt;storage_gas::calculate_gas</title>
<path fill="none" stroke="black" d="M269,-181.82C269,-171.69 269,-158.6 269,-146.92"/>
<polygon fill="black" stroke="black" points="272.5,-146.95 269,-136.95 265.5,-146.95 272.5,-146.95"/>
</g>
<!-- coin::value -->
<g id="node36" class="node">
<title>coin::value</title>
<ellipse fill="none" stroke="black" cx="2816" cy="-366" rx="29.8" ry="18"/>
<text text-anchor="middle" x="2816" y="-362.3" font-family="Times,serif" font-size="14.00">value</text>
</g>
<!-- stake::get_next_epoch_voting_power&#45;&gt;coin::value -->
<g id="edge44" class="edge">
<title>stake::get_next_epoch_voting_power&#45;&gt;coin::value</title>
<path fill="none" stroke="black" d="M2670.22,-438.82C2713.55,-433.48 2758.52,-425.66 2777,-415 2786.33,-409.62 2794.33,-401.09 2800.61,-392.71"/>
<polygon fill="black" stroke="black" points="2803.32,-394.94 2806.1,-384.72 2797.55,-390.98 2803.32,-394.94"/>
</g>
<!-- stake::distribute_rewards&#45;&gt;coin::merge -->
<g id="edge46" class="edge">
<title>stake::distribute_rewards&#45;&gt;coin::merge</title>
<path fill="none" stroke="black" d="M2397,-433.54C2410.8,-429.32 2426.41,-425.25 2441,-423 2463.74,-419.5 2834.14,-424.71 2855,-415 2865.32,-410.2 2874.13,-401.51 2880.97,-392.83"/>
<polygon fill="black" stroke="black" points="2883.72,-395 2886.72,-384.83 2878.04,-390.91 2883.72,-395"/>
</g>
<!-- stake::distribute_rewards&#45;&gt;coin::value -->
<g id="edge45" class="edge">
<title>stake::distribute_rewards&#45;&gt;coin::value</title>
<path fill="none" stroke="black" d="M2397.44,-433.45C2411.13,-429.28 2426.56,-425.25 2441,-423 2459.45,-420.12 2760.24,-423.22 2777,-415 2786.81,-410.19 2794.98,-401.62 2801.26,-393.05"/>
<polygon fill="black" stroke="black" points="2804.11,-395.09 2806.71,-384.82 2798.27,-391.22 2804.11,-395.09"/>
</g>
<!-- coin::mint -->
<g id="node37" class="node">
<title>coin::mint</title>
<ellipse fill="none" stroke="black" cx="2741" cy="-366" rx="27.1" ry="18"/>
<text text-anchor="middle" x="2741" y="-362.3" font-family="Times,serif" font-size="14.00">mint</text>
</g>
<!-- stake::distribute_rewards&#45;&gt;coin::mint -->
<g id="edge47" class="edge">
<title>stake::distribute_rewards&#45;&gt;coin::mint</title>
<path fill="none" stroke="black" d="M2397.45,-433.51C2411.14,-429.34 2426.57,-425.3 2441,-423 2469.65,-418.42 2676,-427.87 2702,-415 2711.79,-410.16 2719.96,-401.58 2726.24,-393.01"/>
<polygon fill="black" stroke="black" points="2729.09,-395.06 2731.7,-384.79 2723.25,-391.19 2729.09,-395.06"/>
</g>
<!-- stake::calculate_rewards_amount -->
<g id="node38" class="node">
<title>stake::calculate_rewards_amount</title>
<ellipse fill="none" stroke="black" cx="2385" cy="-366" rx="105.08" ry="18"/>
<text text-anchor="middle" x="2385" y="-362.3" font-family="Times,serif" font-size="14.00">calculate_rewards_amount</text>
</g>
<!-- stake::distribute_rewards&#45;&gt;stake::calculate_rewards_amount -->
<g id="edge48" class="edge">
<title>stake::distribute_rewards&#45;&gt;stake::calculate_rewards_amount</title>
<path fill="none" stroke="black" d="M2362.15,-430.82C2365.85,-420.48 2370.66,-407.05 2374.91,-395.18"/>
<polygon fill="black" stroke="black" points="2378.17,-396.45 2378.25,-385.86 2371.58,-394.09 2378.17,-396.45"/>
</g>
<!-- storage_gas::interpolate -->
<g id="node39" class="node">
<title>storage_gas::interpolate</title>
<ellipse fill="none" stroke="black" cx="269" cy="-34" rx="48.19" ry="18"/>
<text text-anchor="middle" x="269" y="-30.3" font-family="Times,serif" font-size="14.00">interpolate</text>
</g>
<!-- storage_gas::calculate_gas&#45;&gt;storage_gas::interpolate -->
<g id="edge49" class="edge">
<title>storage_gas::calculate_gas&#45;&gt;storage_gas::interpolate</title>
<path fill="none" stroke="black" d="M269,-98.82C269,-88.69 269,-75.6 269,-63.92"/>
<polygon fill="black" stroke="black" points="272.5,-63.95 269,-53.95 265.5,-63.95 272.5,-63.95"/>
</g>
<!-- option::borrow_mut -->
<g id="node40" class="node">
<title>option::borrow_mut</title>
<ellipse fill="none" stroke="black" cx="3256" cy="-200" rx="54.69" ry="18"/>
<text text-anchor="middle" x="3256" y="-196.3" font-family="Times,serif" font-size="14.00">borrow_mut</text>
</g>
<!-- coin::mint&#45;&gt;option::borrow_mut -->
<g id="edge50" class="edge">
<title>coin::mint&#45;&gt;option::borrow_mut</title>
<path fill="none" stroke="black" d="M2756.75,-351.08C2762.68,-346.67 2769.76,-342.34 2777,-340 2798.78,-332.95 3169.59,-344.14 3189,-332 3225.11,-309.43 3242.6,-260.7 3250.41,-229.46"/>
<polygon fill="black" stroke="black" points="3253.78,-230.43 3252.61,-219.9 3246.96,-228.87 3253.78,-230.43"/>
</g>
<!-- option::is_some -->
<g id="node41" class="node">
<title>option::is_some</title>
<ellipse fill="none" stroke="black" cx="3248" cy="-117" rx="40.09" ry="18"/>
<text text-anchor="middle" x="3248" y="-113.3" font-family="Times,serif" font-size="14.00">is_some</text>
</g>
<!-- coin::mint&#45;&gt;option::is_some -->
<g id="edge51" class="edge">
<title>coin::mint&#45;&gt;option::is_some</title>
<path fill="none" stroke="black" d="M2756.75,-351.07C2762.68,-346.66 2769.76,-342.34 2777,-340 2824.69,-324.6 3181.38,-350.4 3228,-332 3279.23,-311.78 3297.63,-299.32 3320,-249 3333.54,-218.54 3334.65,-203.94 3320,-174 3312.37,-158.4 3298.06,-145.88 3284.19,-136.68"/>
<polygon fill="black" stroke="black" points="3286.39,-133.92 3276.04,-131.63 3282.7,-139.87 3286.39,-133.92"/>
</g>
<!-- optional_aggregator::add -->
<g id="node42" class="node">
<title>optional_aggregator::add</title>
<ellipse fill="none" stroke="black" cx="3095" cy="-283" rx="27" ry="18"/>
<text text-anchor="middle" x="3095" y="-279.3" font-family="Times,serif" font-size="14.00">add</text>
</g>
<!-- coin::mint&#45;&gt;optional_aggregator::add -->
<g id="edge52" class="edge">
<title>coin::mint&#45;&gt;optional_aggregator::add</title>
<path fill="none" stroke="black" d="M2756.76,-351.11C2762.7,-346.71 2769.77,-342.38 2777,-340 2806.46,-330.31 3028.19,-345.73 3056,-332 3065.79,-327.17 3073.96,-318.59 3080.25,-310.02"/>
<polygon fill="black" stroke="black" points="3083.09,-312.07 3085.7,-301.8 3077.26,-308.2 3083.09,-312.07"/>
</g>
<!-- coin::coin_address -->
<g id="node43" class="node">
<title>coin::coin_address</title>
<ellipse fill="none" stroke="black" cx="2771" cy="-283" rx="56.59" ry="18"/>
<text text-anchor="middle" x="2771" y="-279.3" font-family="Times,serif" font-size="14.00">coin_address</text>
</g>
<!-- coin::mint&#45;&gt;coin::coin_address -->
<g id="edge53" class="edge">
<title>coin::mint&#45;&gt;coin::coin_address</title>
<path fill="none" stroke="black" d="M2747.22,-348.22C2751.11,-337.72 2756.21,-323.93 2760.7,-311.82"/>
<polygon fill="black" stroke="black" points="2763.87,-313.33 2764.06,-302.74 2757.3,-310.9 2763.87,-313.33"/>
</g>
<!-- coin::zero -->
<g id="node44" class="node">
<title>coin::zero</title>
<ellipse fill="none" stroke="black" cx="2873" cy="-283" rx="27" ry="18"/>
<text text-anchor="middle" x="2873" y="-279.3" font-family="Times,serif" font-size="14.00">zero</text>
</g>
<!-- coin::mint&#45;&gt;coin::zero -->
<g id="edge54" class="edge">
<title>coin::mint&#45;&gt;coin::zero</title>
<path fill="none" stroke="black" d="M2757.27,-351.27C2763.14,-346.99 2770.05,-342.69 2777,-340 2802.08,-330.28 2813.79,-345.6 2837,-332 2845.91,-326.78 2853.33,-318.4 2859.06,-310.09"/>
<polygon fill="black" stroke="black" points="2861.88,-312.18 2864.21,-301.85 2855.94,-308.47 2861.88,-312.18"/>
</g>
<!-- option::borrow_mut&#45;&gt;option::is_some -->
<g id="edge55" class="edge">
<title>option::borrow_mut&#45;&gt;option::is_some</title>
<path fill="none" stroke="black" d="M3254.3,-181.82C3253.29,-171.58 3251.98,-158.33 3250.82,-146.55"/>
<polygon fill="black" stroke="black" points="3254.34,-146.55 3249.87,-136.94 3247.37,-147.23 3254.34,-146.55"/>
</g>
<!-- option::is_some&#45;&gt;vector::is_empty -->
<g id="edge56" class="edge">
<title>option::is_some&#45;&gt;vector::is_empty</title>
<path fill="none" stroke="black" d="M3210.57,-109.91C3122.45,-95.58 2901.78,-59.69 2801.29,-43.34"/>
<polygon fill="black" stroke="black" points="2801.86,-39.89 2791.43,-41.74 2800.74,-46.8 2801.86,-39.89"/>
</g>
<!-- optional_aggregator::add&#45;&gt;option::borrow_mut -->
<g id="edge57" class="edge">
<title>optional_aggregator::add&#45;&gt;option::borrow_mut</title>
<path fill="none" stroke="black" d="M3119.74,-275.41C3139.17,-269.75 3166.6,-260.65 3189,-249 3202.29,-242.09 3215.91,-232.8 3227.38,-224.24"/>
<polygon fill="black" stroke="black" points="3229.44,-227.07 3235.24,-218.21 3225.18,-221.52 3229.44,-227.07"/>
</g>
<!-- optional_aggregator::add&#45;&gt;option::is_some -->
<g id="edge58" class="edge">
<title>optional_aggregator::add&#45;&gt;option::is_some</title>
<path fill="none" stroke="black" d="M3078.06,-268.66C3071.52,-264.2 3063.75,-259.69 3056,-257 3038.7,-251 2986.3,-262.56 2974,-249 2951.6,-224.31 2952.92,-199.82 2974,-174 3001.56,-140.24 3125.19,-126.29 3196.61,-120.97"/>
<polygon fill="black" stroke="black" points="3196.79,-124.47 3206.52,-120.27 3196.3,-117.48 3196.79,-124.47"/>
</g>
<!-- aggregator::add -->
<g id="node45" class="node">
<title>aggregator::add</title>
<ellipse fill="none" stroke="black" cx="3017" cy="-200" rx="27" ry="18"/>
<text text-anchor="middle" x="3017" y="-196.3" font-family="Times,serif" font-size="14.00">add</text>
</g>
<!-- optional_aggregator::add&#45;&gt;aggregator::add -->
<g id="edge59" class="edge">
<title>optional_aggregator::add&#45;&gt;aggregator::add</title>
<path fill="none" stroke="black" d="M3078.08,-268.84C3070.99,-263.04 3062.83,-255.97 3056,-249 3048.95,-241.8 3041.82,-233.43 3035.63,-225.72"/>
<polygon fill="black" stroke="black" points="3038.46,-223.65 3029.54,-217.94 3032.95,-227.97 3038.46,-223.65"/>
</g>
<!-- optional_aggregator::add_integer -->
<g id="node46" class="node">
<title>optional_aggregator::add_integer</title>
<ellipse fill="none" stroke="black" cx="3120" cy="-200" rx="51.99" ry="18"/>
<text text-anchor="middle" x="3120" y="-196.3" font-family="Times,serif" font-size="14.00">add_integer</text>
</g>
<!-- optional_aggregator::add&#45;&gt;optional_aggregator::add_integer -->
<g id="edge60" class="edge">
<title>optional_aggregator::add&#45;&gt;optional_aggregator::add_integer</title>
<path fill="none" stroke="black" d="M3100.18,-265.22C3103.39,-254.82 3107.59,-241.21 3111.3,-229.19"/>
<polygon fill="black" stroke="black" points="3114.6,-230.35 3114.21,-219.77 3107.91,-228.29 3114.6,-230.35"/>
</g>
<!-- type_info::account_address -->
<g id="node47" class="node">
<title>type_info::account_address</title>
<ellipse fill="none" stroke="black" cx="2817" cy="-200" rx="68.79" ry="18"/>
<text text-anchor="middle" x="2817" y="-196.3" font-family="Times,serif" font-size="14.00">account_address</text>
</g>
<!-- coin::coin_address&#45;&gt;type_info::account_address -->
<g id="edge61" class="edge">
<title>coin::coin_address&#45;&gt;type_info::account_address</title>
<path fill="none" stroke="black" d="M2780.76,-264.82C2786.85,-254.08 2794.84,-240.03 2801.76,-227.84"/>
<polygon fill="black" stroke="black" points="2804.62,-229.89 2806.51,-219.47 2798.53,-226.44 2804.62,-229.89"/>
</g>
<!-- type_info::type_of -->
<g id="node48" class="node">
<title>type_info::type_of</title>
<ellipse fill="none" stroke="black" cx="2692" cy="-200" rx="37.89" ry="18"/>
<text text-anchor="middle" x="2692" y="-196.3" font-family="Times,serif" font-size="14.00">type_of</text>
</g>
<!-- coin::coin_address&#45;&gt;type_info::type_of -->
<g id="edge62" class="edge">
<title>coin::coin_address&#45;&gt;type_info::type_of</title>
<path fill="none" stroke="black" d="M2755.01,-265.61C2743.62,-253.93 2728.13,-238.04 2715.36,-224.95"/>
<polygon fill="black" stroke="black" points="2717.97,-222.61 2708.48,-217.9 2712.96,-227.5 2717.97,-222.61"/>
</g>
<!-- error::out_of_range -->
<g id="node49" class="node">
<title>error::out_of_range</title>
<ellipse fill="none" stroke="black" cx="1274" cy="-117" rx="57.69" ry="18"/>
<text text-anchor="middle" x="1274" y="-113.3" font-family="Times,serif" font-size="14.00">out_of_range</text>
</g>
<!-- optional_aggregator::add_integer&#45;&gt;error::out_of_range -->
<g id="edge63" class="edge">
<title>optional_aggregator::add_integer&#45;&gt;error::out_of_range</title>
<path fill="none" stroke="black" d="M3090.04,-184.86C3079.52,-180.56 3067.45,-176.34 3056,-174 2886.28,-139.26 1650.62,-122.45 1343.14,-118.78"/>
<polygon fill="black" stroke="black" points="1343.3,-115.28 1333.26,-118.67 1343.21,-122.28 1343.3,-115.28"/>
</g>
<!-- error::out_of_range&#45;&gt;error::canonical -->
<g id="edge64" class="edge">
<title>error::out_of_range&#45;&gt;error::canonical</title>
<path fill="none" stroke="black" d="M1239.12,-102.21C1228.85,-98.36 1217.54,-94.32 1207,-91 1150.41,-73.16 1084.21,-56.62 1040.16,-46.21"/>
<polygon fill="black" stroke="black" points="1041.19,-42.86 1030.66,-43.98 1039.6,-49.67 1041.19,-42.86"/>
</g>
</g>
</svg>
