<?xml version="1.0" encoding="UTF-8" standalone="no"?>
<!DOCTYPE svg PUBLIC "-//W3C//DTD SVG 1.1//EN"
 "http://www.w3.org/Graphics/SVG/1.1/DTD/svg11.dtd">
<!-- Generated by graphviz version 7.0.0 (20221023.0053)
 -->
<!-- Title: G Pages: 1 -->
<svg width="2644pt" height="836pt"
 viewBox="0.00 0.00 2643.79 836.00" xmlns="http://www.w3.org/2000/svg" xmlns:xlink="http://www.w3.org/1999/xlink">
<g id="graph0" class="graph" transform="scale(1 1) rotate(0) translate(4 832)">
<title>G</title>
<polygon fill="white" stroke="none" points="-4,4 -4,-832 2639.79,-832 2639.79,4 -4,4"/>
<!-- vesting -->
<g id="node1" class="node">
<title>vesting</title>
<ellipse fill="none" stroke="black" cx="1726" cy="-810" rx="36.29" ry="18"/>
<text text-anchor="middle" x="1726" y="-806.3" font-family="Times,serif" font-size="14.00">vesting</text>
</g>
<!-- vector -->
<g id="node2" class="node">
<title>vector</title>
<ellipse fill="none" stroke="black" cx="1067" cy="-18" rx="32.49" ry="18"/>
<text text-anchor="middle" x="1067" y="-14.3" font-family="Times,serif" font-size="14.00">vector</text>
</g>
<!-- vesting&#45;&gt;vector -->
<g id="edge1" class="edge">
<title>vesting&#45;&gt;vector</title>
<path fill="none" stroke="black" d="M1762.56,-809.21C1884.76,-809.44 2277.69,-806.16 2392,-756 2445.28,-732.62 2488,-725.18 2488,-667 2488,-667 2488,-667 2488,-161 2488,-19.05 1350.85,-17.43 1111.06,-18.67"/>
<polygon fill="black" stroke="black" points="1111.18,-15.17 1101.2,-18.72 1111.22,-22.17 1111.18,-15.17"/>
</g>
<!-- string -->
<g id="node3" class="node">
<title>string</title>
<ellipse fill="none" stroke="black" cx="452" cy="-162" rx="30.59" ry="18"/>
<text text-anchor="middle" x="452" y="-158.3" font-family="Times,serif" font-size="14.00">string</text>
</g>
<!-- vesting&#45;&gt;string -->
<g id="edge2" class="edge">
<title>vesting&#45;&gt;string</title>
<path fill="none" stroke="black" d="M1689.69,-807.76C1450.79,-799.39 114,-748.87 114,-667 114,-667 114,-667 114,-449 114,-293.07 326.24,-204.68 414.35,-174.7"/>
<polygon fill="black" stroke="black" points="415.37,-178.05 423.76,-171.57 413.17,-171.4 415.37,-178.05"/>
</g>
<!-- signer -->
<g id="node4" class="node">
<title>signer</title>
<ellipse fill="none" stroke="black" cx="247" cy="-90" rx="32.49" ry="18"/>
<text text-anchor="middle" x="247" y="-86.3" font-family="Times,serif" font-size="14.00">signer</text>
</g>
<!-- vesting&#45;&gt;signer -->
<g id="edge3" class="edge">
<title>vesting&#45;&gt;signer</title>
<path fill="none" stroke="black" d="M1689.44,-808.83C1495.59,-807.77 586.41,-800.46 309,-756 167.88,-733.38 0,-809.92 0,-667 0,-667 0,-667 0,-449 0,-295.3 58.3,-256.53 163,-144 177.01,-128.95 196.19,-116.42 212.69,-107.33"/>
<polygon fill="black" stroke="black" points="214,-110.59 221.21,-102.83 210.73,-104.4 214,-110.59"/>
</g>
<!-- error -->
<g id="node5" class="node">
<title>error</title>
<ellipse fill="none" stroke="black" cx="1612" cy="-90" rx="27.9" ry="18"/>
<text text-anchor="middle" x="1612" y="-86.3" font-family="Times,serif" font-size="14.00">error</text>
</g>
<!-- vesting&#45;&gt;error -->
<g id="edge4" class="edge">
<title>vesting&#45;&gt;error</title>
<path fill="none" stroke="black" d="M1762.4,-809.69C1909.21,-811.53 2450,-808.7 2450,-667 2450,-667 2450,-667 2450,-377 2450,-260.11 2425.7,-208.17 2328,-144 2271.25,-106.73 1792.48,-94.51 1651.13,-91.7"/>
<polygon fill="black" stroke="black" points="1651.61,-88.2 1641.54,-91.51 1651.47,-95.2 1651.61,-88.2"/>
</g>
<!-- system_addresses -->
<g id="node6" class="node">
<title>system_addresses</title>
<ellipse fill="none" stroke="black" cx="1017" cy="-306" rx="73.39" ry="18"/>
<text text-anchor="middle" x="1017" y="-302.3" font-family="Times,serif" font-size="14.00">system_addresses</text>
</g>
<!-- vesting&#45;&gt;system_addresses -->
<g id="edge5" class="edge">
<title>vesting&#45;&gt;system_addresses</title>
<path fill="none" stroke="black" d="M1689.4,-808.34C1553.4,-805.59 1082.04,-793.42 1027,-756 890.58,-663.27 972.8,-417.19 1005.46,-334.52"/>
<polygon fill="black" stroke="black" points="1008.65,-335.96 1009.15,-325.38 1002.16,-333.35 1008.65,-335.96"/>
</g>
<!-- bcs -->
<g id="node7" class="node">
<title>bcs</title>
<ellipse fill="none" stroke="black" cx="1857" cy="-234" rx="27" ry="18"/>
<text text-anchor="middle" x="1857" y="-230.3" font-family="Times,serif" font-size="14.00">bcs</text>
</g>
<!-- vesting&#45;&gt;bcs -->
<g id="edge6" class="edge">
<title>vesting&#45;&gt;bcs</title>
<path fill="none" stroke="black" d="M1761.04,-804.57C1860.43,-791.04 2137,-746.27 2137,-667 2137,-667 2137,-667 2137,-521 2137,-449.16 1954.33,-306.79 1884.08,-254.69"/>
<polygon fill="black" stroke="black" points="1886.29,-251.97 1876.16,-248.85 1882.13,-257.6 1886.29,-251.97"/>
</g>
<!-- event -->
<g id="node8" class="node">
<title>event</title>
<ellipse fill="none" stroke="black" cx="1858" cy="-378" rx="29.8" ry="18"/>
<text text-anchor="middle" x="1858" y="-374.3" font-family="Times,serif" font-size="14.00">event</text>
</g>
<!-- vesting&#45;&gt;event -->
<g id="edge7" class="edge">
<title>vesting&#45;&gt;event</title>
<path fill="none" stroke="black" d="M1761.51,-805.59C1818.14,-799.37 1924.97,-784.14 1949,-756 2042.59,-646.41 2023.68,-546.37 1936,-432 1924.15,-416.55 1906.47,-404.01 1890.94,-395.02"/>
<polygon fill="black" stroke="black" points="1892.91,-392.1 1882.46,-390.35 1889.53,-398.24 1892.91,-392.1"/>
</g>
<!-- account -->
<g id="node9" class="node">
<title>account</title>
<ellipse fill="none" stroke="black" cx="1433" cy="-450" rx="38.19" ry="18"/>
<text text-anchor="middle" x="1433" y="-446.3" font-family="Times,serif" font-size="14.00">account</text>
</g>
<!-- vesting&#45;&gt;account -->
<g id="edge8" class="edge">
<title>vesting&#45;&gt;account</title>
<path fill="none" stroke="black" d="M1739.7,-792.88C1780.02,-743.46 1890.71,-592.12 1814,-504 1771.63,-455.33 1576.15,-449.94 1482.84,-450.22"/>
<polygon fill="black" stroke="black" points="1482.94,-446.72 1472.96,-450.27 1482.98,-453.72 1482.94,-446.72"/>
</g>
<!-- coin -->
<g id="node10" class="node">
<title>coin</title>
<ellipse fill="none" stroke="black" cx="1025" cy="-522" rx="27" ry="18"/>
<text text-anchor="middle" x="1025" y="-518.3" font-family="Times,serif" font-size="14.00">coin</text>
</g>
<!-- vesting&#45;&gt;coin -->
<g id="edge9" class="edge">
<title>vesting&#45;&gt;coin</title>
<path fill="none" stroke="black" d="M1689.35,-808.41C1573.14,-806.16 1214.15,-796.05 1106,-756 1054.64,-736.98 1030.97,-732.74 1006,-684 983.98,-641.01 1000.02,-583.31 1012.99,-549.94"/>
<polygon fill="black" stroke="black" points="1016.09,-551.6 1016.63,-541.01 1009.61,-548.95 1016.09,-551.6"/>
</g>
<!-- aptos_coin -->
<g id="node11" class="node">
<title>aptos_coin</title>
<ellipse fill="none" stroke="black" cx="872" cy="-594" rx="48.99" ry="18"/>
<text text-anchor="middle" x="872" y="-590.3" font-family="Times,serif" font-size="14.00">aptos_coin</text>
</g>
<!-- vesting&#45;&gt;aptos_coin -->
<g id="edge10" class="edge">
<title>vesting&#45;&gt;aptos_coin</title>
<path fill="none" stroke="black" d="M1689.63,-808.82C1542.5,-807.8 996.41,-801 935,-756 892.51,-724.86 878.67,-660.75 874.17,-623.51"/>
<polygon fill="black" stroke="black" points="877.69,-623.52 873.16,-613.94 870.72,-624.25 877.69,-623.52"/>
</g>
<!-- aptos_account -->
<g id="node12" class="node">
<title>aptos_account</title>
<ellipse fill="none" stroke="black" cx="1076" cy="-666" rx="61.19" ry="18"/>
<text text-anchor="middle" x="1076" y="-662.3" font-family="Times,serif" font-size="14.00">aptos_account</text>
</g>
<!-- vesting&#45;&gt;aptos_account -->
<g id="edge11" class="edge">
<title>vesting&#45;&gt;aptos_account</title>
<path fill="none" stroke="black" d="M1689.62,-809.2C1578.49,-809.26 1245.31,-805.25 1151,-756 1124.65,-742.24 1103.81,-714.89 1090.85,-694.13"/>
<polygon fill="black" stroke="black" points="1093.88,-692.36 1085.75,-685.56 1087.86,-695.94 1093.88,-692.36"/>
</g>
<!-- timestamp -->
<g id="node13" class="node">
<title>timestamp</title>
<ellipse fill="none" stroke="black" cx="1613" cy="-522" rx="48.19" ry="18"/>
<text text-anchor="middle" x="1613" y="-518.3" font-family="Times,serif" font-size="14.00">timestamp</text>
</g>
<!-- vesting&#45;&gt;timestamp -->
<g id="edge12" class="edge">
<title>vesting&#45;&gt;timestamp</title>
<path fill="none" stroke="black" d="M1719.27,-791.97C1700.47,-744.39 1647.27,-609.75 1624.06,-551"/>
<polygon fill="black" stroke="black" points="1627.32,-549.73 1620.39,-541.71 1620.81,-552.3 1627.32,-549.73"/>
</g>
<!-- simple_map -->
<g id="node14" class="node">
<title>simple_map</title>
<ellipse fill="none" stroke="black" cx="2216" cy="-378" rx="54.69" ry="18"/>
<text text-anchor="middle" x="2216" y="-374.3" font-family="Times,serif" font-size="14.00">simple_map</text>
</g>
<!-- vesting&#45;&gt;simple_map -->
<g id="edge13" class="edge">
<title>vesting&#45;&gt;simple_map</title>
<path fill="none" stroke="black" d="M1762.44,-808.21C1853.04,-805.66 2085.83,-795.35 2151,-756 2192.27,-731.08 2213,-715.21 2213,-667 2213,-667 2213,-667 2213,-521 2213,-481.73 2214.16,-436.37 2215.04,-407.69"/>
<polygon fill="black" stroke="black" points="2218.53,-408.1 2215.35,-398 2211.53,-407.88 2218.53,-408.1"/>
</g>
<!-- math64 -->
<g id="node15" class="node">
<title>math64</title>
<ellipse fill="none" stroke="black" cx="1205" cy="-594" rx="37.89" ry="18"/>
<text text-anchor="middle" x="1205" y="-590.3" font-family="Times,serif" font-size="14.00">math64</text>
</g>
<!-- vesting&#45;&gt;math64 -->
<g id="edge14" class="edge">
<title>vesting&#45;&gt;math64</title>
<path fill="none" stroke="black" d="M1693.16,-801.85C1654.46,-792.98 1588.54,-776.51 1534,-756 1421.98,-713.87 1296.86,-646.67 1238.44,-614.03"/>
<polygon fill="black" stroke="black" points="1240.4,-611.12 1229.97,-609.28 1236.98,-617.23 1240.4,-611.12"/>
</g>
<!-- stake -->
<g id="node16" class="node">
<title>stake</title>
<ellipse fill="none" stroke="black" cx="1423" cy="-666" rx="28.7" ry="18"/>
<text text-anchor="middle" x="1423" y="-662.3" font-family="Times,serif" font-size="14.00">stake</text>
</g>
<!-- vesting&#45;&gt;stake -->
<g id="edge15" class="edge">
<title>vesting&#45;&gt;stake</title>
<path fill="none" stroke="black" d="M1700.17,-796.89C1645.08,-771.08 1516.19,-710.67 1455.58,-682.27"/>
<polygon fill="black" stroke="black" points="1457.34,-679.23 1446.8,-678.16 1454.37,-685.57 1457.34,-679.23"/>
</g>
<!-- pool_u64 -->
<g id="node17" class="node">
<title>pool_u64</title>
<ellipse fill="none" stroke="black" cx="2289" cy="-450" rx="44.39" ry="18"/>
<text text-anchor="middle" x="2289" y="-446.3" font-family="Times,serif" font-size="14.00">pool_u64</text>
</g>
<!-- vesting&#45;&gt;pool_u64 -->
<g id="edge16" class="edge">
<title>vesting&#45;&gt;pool_u64</title>
<path fill="none" stroke="black" d="M1762.5,-809C1864.18,-808.4 2148.32,-802.51 2227,-756 2268.5,-731.47 2289,-715.21 2289,-667 2289,-667 2289,-667 2289,-593 2289,-553.74 2289,-508.38 2289,-479.69"/>
<polygon fill="black" stroke="black" points="2292.5,-480 2289,-470 2285.5,-480 2292.5,-480"/>
</g>
<!-- staking_contract -->
<g id="node18" class="node">
<title>staking_contract</title>
<ellipse fill="none" stroke="black" cx="1871" cy="-738" rx="68.79" ry="18"/>
<text text-anchor="middle" x="1871" y="-734.3" font-family="Times,serif" font-size="14.00">staking_contract</text>
</g>
<!-- vesting&#45;&gt;staking_contract -->
<g id="edge17" class="edge">
<title>vesting&#45;&gt;staking_contract</title>
<path fill="none" stroke="black" d="M1751.26,-796.81C1772.63,-786.49 1803.7,-771.49 1828.83,-759.36"/>
<polygon fill="black" stroke="black" points="1830.35,-762.51 1837.83,-755.01 1827.31,-756.21 1830.35,-762.51"/>
</g>
<!-- fixed_point32 -->
<g id="node19" class="node">
<title>fixed_point32</title>
<ellipse fill="none" stroke="black" cx="2576" cy="-738" rx="59.59" ry="18"/>
<text text-anchor="middle" x="2576" y="-734.3" font-family="Times,serif" font-size="14.00">fixed_point32</text>
</g>
<!-- vesting&#45;&gt;fixed_point32 -->
<g id="edge18" class="edge">
<title>vesting&#45;&gt;fixed_point32</title>
<path fill="none" stroke="black" d="M1762.58,-808.54C1874.11,-806.72 2219.48,-797.83 2502,-756 2508.03,-755.11 2514.3,-753.98 2520.52,-752.74"/>
<polygon fill="black" stroke="black" points="2521.07,-756.2 2530.13,-750.71 2519.62,-749.35 2521.07,-756.2"/>
</g>
<!-- string&#45;&gt;vector -->
<g id="edge19" class="edge">
<title>string&#45;&gt;vector</title>
<path fill="none" stroke="black" d="M477.08,-151.08C524.04,-132.87 628.72,-93.96 720,-72 827.88,-46.05 957.83,-30.2 1023.89,-23.21"/>
<polygon fill="black" stroke="black" points="1023.98,-26.72 1033.57,-22.21 1023.26,-19.76 1023.98,-26.72"/>
</g>
<!-- option -->
<g id="node20" class="node">
<title>option</title>
<ellipse fill="none" stroke="black" cx="762" cy="-90" rx="33.29" ry="18"/>
<text text-anchor="middle" x="762" y="-86.3" font-family="Times,serif" font-size="14.00">option</text>
</g>
<!-- string&#45;&gt;option -->
<g id="edge20" class="edge">
<title>string&#45;&gt;option</title>
<path fill="none" stroke="black" d="M478.74,-152.69C488.53,-149.77 499.72,-146.58 510,-144 583.21,-125.6 669.47,-108.42 719.72,-98.85"/>
<polygon fill="black" stroke="black" points="720.12,-102.33 729.3,-97.04 718.82,-95.46 720.12,-102.33"/>
</g>
<!-- system_addresses&#45;&gt;signer -->
<g id="edge21" class="edge">
<title>system_addresses&#45;&gt;signer</title>
<path fill="none" stroke="black" d="M961.03,-293.93C951.03,-291.95 940.71,-289.91 931,-288 849.67,-271.96 825.06,-282.55 748,-252 737.51,-247.84 586.56,-147.98 576,-144 478.39,-107.24 355.1,-95.97 290.71,-92.52"/>
<polygon fill="black" stroke="black" points="291.06,-89.03 280.9,-92.04 290.71,-96.02 291.06,-89.03"/>
</g>
<!-- system_addresses&#45;&gt;error -->
<g id="edge22" class="edge">
<title>system_addresses&#45;&gt;error</title>
<path fill="none" stroke="black" d="M1016.75,-287.54C1017.3,-253.8 1023.79,-179.79 1068,-144 1107.08,-112.36 1454.41,-96.78 1572.73,-92.36"/>
<polygon fill="black" stroke="black" points="1572.71,-95.86 1582.57,-92 1572.45,-88.86 1572.71,-95.86"/>
</g>
<!-- event&#45;&gt;bcs -->
<g id="edge23" class="edge">
<title>event&#45;&gt;bcs</title>
<path fill="none" stroke="black" d="M1857.88,-359.59C1857.71,-335.61 1857.4,-292.14 1857.2,-263.42"/>
<polygon fill="black" stroke="black" points="1860.7,-263.6 1857.13,-253.62 1853.7,-263.65 1860.7,-263.6"/>
</g>
<!-- guid -->
<g id="node21" class="node">
<title>guid</title>
<ellipse fill="none" stroke="black" cx="1819" cy="-306" rx="27" ry="18"/>
<text text-anchor="middle" x="1819" y="-302.3" font-family="Times,serif" font-size="14.00">guid</text>
</g>
<!-- event&#45;&gt;guid -->
<g id="edge24" class="edge">
<title>event&#45;&gt;guid</title>
<path fill="none" stroke="black" d="M1848.76,-360.41C1844.18,-352.19 1838.54,-342.06 1833.4,-332.85"/>
<polygon fill="black" stroke="black" points="1836.57,-331.34 1828.64,-324.31 1830.45,-334.75 1836.57,-331.34"/>
</g>
<!-- account&#45;&gt;vector -->
<g id="edge25" class="edge">
<title>account&#45;&gt;vector</title>
<path fill="none" stroke="black" d="M1430.41,-431.57C1422.08,-381.05 1391.66,-232.53 1311,-144 1254.44,-81.92 1159.93,-46.03 1106.66,-29.73"/>
<polygon fill="black" stroke="black" points="1107.97,-26.47 1097.39,-26.97 1105.98,-33.18 1107.97,-26.47"/>
</g>
<!-- account&#45;&gt;signer -->
<g id="edge27" class="edge">
<title>account&#45;&gt;signer</title>
<path fill="none" stroke="black" d="M1394.63,-449.19C1250.93,-449.51 750.38,-446.94 703,-396 670.31,-360.85 725.42,-330.44 703,-288 676.49,-237.8 544.15,-166.42 492,-144 425,-115.2 340.74,-101.4 290.53,-95.3"/>
<polygon fill="black" stroke="black" points="290.97,-91.82 280.63,-94.15 290.16,-98.78 290.97,-91.82"/>
</g>
<!-- account&#45;&gt;error -->
<g id="edge28" class="edge">
<title>account&#45;&gt;error</title>
<path fill="none" stroke="black" d="M1463.1,-438.62C1470.24,-436.31 1477.86,-433.96 1485,-432 1555.71,-412.59 1600.16,-453.22 1646,-396 1664.02,-373.51 1713.52,-573.14 1629,-144 1627.35,-135.62 1624.81,-126.71 1622.2,-118.64"/>
<polygon fill="black" stroke="black" points="1625.57,-117.68 1619.03,-109.35 1618.95,-119.95 1625.57,-117.68"/>
</g>
<!-- account&#45;&gt;system_addresses -->
<g id="edge31" class="edge">
<title>account&#45;&gt;system_addresses</title>
<path fill="none" stroke="black" d="M1398.17,-442.07C1362.24,-434.07 1305.22,-418.99 1260,-396 1236.23,-383.91 1235.96,-371.71 1212,-360 1172.7,-340.8 1125.42,-327.73 1087.26,-319.37"/>
<polygon fill="black" stroke="black" points="1088.23,-316 1077.72,-317.35 1086.78,-322.85 1088.23,-316"/>
</g>
<!-- account&#45;&gt;bcs -->
<g id="edge33" class="edge">
<title>account&#45;&gt;bcs</title>
<path fill="none" stroke="black" d="M1460.46,-437.12C1465.56,-435.21 1470.89,-433.4 1476,-432 1573.24,-405.31 1613.38,-447.62 1700,-396 1752,-365.01 1739.48,-330.08 1783,-288 1796.57,-274.88 1813.58,-262.47 1827.88,-252.96"/>
<polygon fill="black" stroke="black" points="1829.51,-256.07 1835.99,-247.69 1825.7,-250.2 1829.51,-256.07"/>
</g>
<!-- account&#45;&gt;event -->
<g id="edge38" class="edge">
<title>account&#45;&gt;event</title>
<path fill="none" stroke="black" d="M1467.55,-442.09C1484.27,-438.85 1504.65,-435.04 1523,-432 1635.05,-413.45 1664.12,-415.54 1776,-396 1790.21,-393.52 1805.72,-390.41 1819.39,-387.53"/>
<polygon fill="black" stroke="black" points="1819.85,-391.01 1828.9,-385.5 1818.38,-384.16 1819.85,-391.01"/>
</g>
<!-- account&#45;&gt;option -->
<g id="edge26" class="edge">
<title>account&#45;&gt;option</title>
<path fill="none" stroke="black" d="M1402.49,-438.82C1375.37,-429.28 1335.03,-413.83 1302,-396 1277.26,-382.65 1273.89,-374.8 1250,-360 1083.93,-257.12 876.22,-149.17 795.88,-108.16"/>
<polygon fill="black" stroke="black" points="797.7,-105.16 787.2,-103.74 794.52,-111.39 797.7,-105.16"/>
</g>
<!-- account&#45;&gt;guid -->
<g id="edge36" class="edge">
<title>account&#45;&gt;guid</title>
<path fill="none" stroke="black" d="M1468.02,-442.21C1484.66,-439.03 1504.84,-435.24 1523,-432 1618.38,-415.01 1652.94,-442.38 1738,-396 1765.43,-381.05 1788.45,-353.2 1802.86,-332.62"/>
<polygon fill="black" stroke="black" points="1805.68,-334.69 1808.37,-324.44 1799.88,-330.78 1805.68,-334.69"/>
</g>
<!-- type_info -->
<g id="node22" class="node">
<title>type_info</title>
<ellipse fill="none" stroke="black" cx="1129" cy="-234" rx="44.39" ry="18"/>
<text text-anchor="middle" x="1129" y="-230.3" font-family="Times,serif" font-size="14.00">type_info</text>
</g>
<!-- account&#45;&gt;type_info -->
<g id="edge29" class="edge">
<title>account&#45;&gt;type_info</title>
<path fill="none" stroke="black" d="M1412.58,-434.63C1360.39,-397.89 1221.87,-300.38 1159.82,-256.69"/>
<polygon fill="black" stroke="black" points="1161.97,-253.93 1151.78,-251.03 1157.94,-259.65 1161.97,-253.93"/>
</g>
<!-- table -->
<g id="node23" class="node">
<title>table</title>
<ellipse fill="none" stroke="black" cx="894" cy="-306" rx="27.9" ry="18"/>
<text text-anchor="middle" x="894" y="-302.3" font-family="Times,serif" font-size="14.00">table</text>
</g>
<!-- account&#45;&gt;table -->
<g id="edge30" class="edge">
<title>account&#45;&gt;table</title>
<path fill="none" stroke="black" d="M1398.04,-442.23C1315.99,-425.9 1105.19,-381.43 935,-324 932.32,-323.09 929.56,-322.1 926.8,-321.06"/>
<polygon fill="black" stroke="black" points="928.34,-317.9 917.76,-317.47 925.76,-324.41 928.34,-317.9"/>
</g>
<!-- hash -->
<g id="node24" class="node">
<title>hash</title>
<ellipse fill="none" stroke="black" cx="1474" cy="-234" rx="27" ry="18"/>
<text text-anchor="middle" x="1474" y="-230.3" font-family="Times,serif" font-size="14.00">hash</text>
</g>
<!-- account&#45;&gt;hash -->
<g id="edge32" class="edge">
<title>account&#45;&gt;hash</title>
<path fill="none" stroke="black" d="M1436.29,-431.85C1443.32,-395.14 1459.89,-308.66 1468.53,-263.53"/>
<polygon fill="black" stroke="black" points="1471.97,-264.2 1470.41,-253.72 1465.09,-262.88 1471.97,-264.2"/>
</g>
<!-- ed25519 -->
<g id="node25" class="node">
<title>ed25519</title>
<ellipse fill="none" stroke="black" cx="1543" cy="-306" rx="40.89" ry="18"/>
<text text-anchor="middle" x="1543" y="-302.3" font-family="Times,serif" font-size="14.00">ed25519</text>
</g>
<!-- account&#45;&gt;ed25519 -->
<g id="edge34" class="edge">
<title>account&#45;&gt;ed25519</title>
<path fill="none" stroke="black" d="M1463.41,-438.66C1470.47,-436.37 1477.97,-434.02 1485,-432 1548.39,-413.74 1588.4,-448 1629,-396 1638.85,-383.39 1636.8,-373.97 1629,-360 1619.44,-342.88 1601.83,-330.61 1585.02,-322.21"/>
<polygon fill="black" stroke="black" points="1586.66,-319.11 1576.11,-318.11 1583.73,-325.47 1586.66,-319.11"/>
</g>
<!-- multi_ed25519 -->
<g id="node26" class="node">
<title>multi_ed25519</title>
<ellipse fill="none" stroke="black" cx="1556" cy="-378" rx="64.19" ry="18"/>
<text text-anchor="middle" x="1556" y="-374.3" font-family="Times,serif" font-size="14.00">multi_ed25519</text>
</g>
<!-- account&#45;&gt;multi_ed25519 -->
<g id="edge35" class="edge">
<title>account&#45;&gt;multi_ed25519</title>
<path fill="none" stroke="black" d="M1456.72,-435.5C1474.27,-425.51 1498.54,-411.7 1518.69,-400.24"/>
<polygon fill="black" stroke="black" points="1520.22,-403.39 1527.18,-395.4 1516.75,-397.31 1520.22,-403.39"/>
</g>
<!-- from_bcs -->
<g id="node27" class="node">
<title>from_bcs</title>
<ellipse fill="none" stroke="black" cx="452" cy="-234" rx="44.39" ry="18"/>
<text text-anchor="middle" x="452" y="-230.3" font-family="Times,serif" font-size="14.00">from_bcs</text>
</g>
<!-- account&#45;&gt;from_bcs -->
<g id="edge37" class="edge">
<title>account&#45;&gt;from_bcs</title>
<path fill="none" stroke="black" d="M1394.68,-449.15C1259.43,-449.25 805.2,-445.77 670,-396 588.93,-366.16 512.01,-296.3 474.99,-259.18"/>
<polygon fill="black" stroke="black" points="477.86,-257.11 468.35,-252.43 472.87,-262.01 477.86,-257.11"/>
</g>
<!-- coin&#45;&gt;string -->
<g id="edge40" class="edge">
<title>coin&#45;&gt;string</title>
<path fill="none" stroke="black" d="M998.09,-519.48C897.23,-513.63 545.11,-491.67 501,-468 464.55,-448.44 461.41,-432.54 442,-396 410.66,-337.01 408.66,-318.09 399,-252 396.69,-236.17 392.88,-230.78 399,-216 404.19,-203.48 413.92,-192.38 423.65,-183.61"/>
<polygon fill="black" stroke="black" points="425.87,-186.32 431.29,-177.21 421.37,-180.95 425.87,-186.32"/>
</g>
<!-- coin&#45;&gt;signer -->
<g id="edge41" class="edge">
<title>coin&#45;&gt;signer</title>
<path fill="none" stroke="black" d="M997.9,-519.95C891.07,-515.59 502.73,-497.82 457,-468 390.9,-424.9 291.4,-197.49 258.22,-118.25"/>
<polygon fill="black" stroke="black" points="261.47,-116.96 254.4,-109.08 255.01,-119.65 261.47,-116.96"/>
</g>
<!-- coin&#45;&gt;error -->
<g id="edge42" class="edge">
<title>coin&#45;&gt;error</title>
<path fill="none" stroke="black" d="M1040.63,-507.02C1091.24,-462.04 1256.03,-318.12 1405,-216 1454.43,-182.12 1467.62,-174.84 1519,-144 1539.61,-131.63 1563.13,-118.23 1581.36,-108"/>
<polygon fill="black" stroke="black" points="1582.82,-111.2 1589.84,-103.26 1579.4,-105.09 1582.82,-111.2"/>
</g>
<!-- coin&#45;&gt;system_addresses -->
<g id="edge44" class="edge">
<title>coin&#45;&gt;system_addresses</title>
<path fill="none" stroke="black" d="M1024.36,-503.85C1022.99,-467.14 1019.75,-380.66 1018.07,-335.53"/>
<polygon fill="black" stroke="black" points="1021.57,-335.61 1017.7,-325.74 1014.58,-335.87 1021.57,-335.61"/>
</g>
<!-- coin&#45;&gt;event -->
<g id="edge45" class="edge">
<title>coin&#45;&gt;event</title>
<path fill="none" stroke="black" d="M1052.21,-520.67C1123.65,-519.21 1321.98,-511.24 1480,-468 1518,-457.6 1523.29,-443.39 1561,-432 1652.49,-404.38 1679.02,-413.37 1773,-396 1788.06,-393.22 1804.59,-389.96 1819.03,-387.04"/>
<polygon fill="black" stroke="black" points="1819.51,-390.52 1828.61,-385.1 1818.11,-383.66 1819.51,-390.52"/>
</g>
<!-- coin&#45;&gt;account -->
<g id="edge46" class="edge">
<title>coin&#45;&gt;account</title>
<path fill="none" stroke="black" d="M1051.14,-516.51C1118.74,-504.92 1300.02,-473.81 1386.22,-459.03"/>
<polygon fill="black" stroke="black" points="1386.73,-462.49 1396,-457.35 1385.55,-455.59 1386.73,-462.49"/>
</g>
<!-- coin&#45;&gt;option -->
<g id="edge39" class="edge">
<title>coin&#45;&gt;option</title>
<path fill="none" stroke="black" d="M997.77,-520.7C907.49,-519.3 619.23,-511.46 539,-468 502.62,-448.29 493.92,-434.96 480,-396 463.85,-350.8 456.67,-329.95 480,-288 494.75,-261.49 513.59,-270.02 538,-252 596.79,-208.59 601.76,-185.38 662,-144 682.36,-130.01 706.84,-116.98 726.48,-107.34"/>
<polygon fill="black" stroke="black" points="727.99,-110.5 735.48,-103.01 724.95,-104.19 727.99,-110.5"/>
</g>
<!-- coin&#45;&gt;type_info -->
<g id="edge43" class="edge">
<title>coin&#45;&gt;type_info</title>
<path fill="none" stroke="black" d="M1031.53,-504.21C1044.67,-470.29 1075.09,-391.11 1099,-324 1106.24,-303.69 1114,-280.61 1119.82,-263.04"/>
<polygon fill="black" stroke="black" points="1123.14,-264.15 1122.95,-253.56 1116.49,-261.96 1123.14,-264.15"/>
</g>
<!-- optional_aggregator -->
<g id="node28" class="node">
<title>optional_aggregator</title>
<ellipse fill="none" stroke="black" cx="662" cy="-450" rx="81.49" ry="18"/>
<text text-anchor="middle" x="662" y="-446.3" font-family="Times,serif" font-size="14.00">optional_aggregator</text>
</g>
<!-- coin&#45;&gt;optional_aggregator -->
<g id="edge47" class="edge">
<title>coin&#45;&gt;optional_aggregator</title>
<path fill="none" stroke="black" d="M999.18,-516.02C944.34,-505.45 814.59,-480.42 732.97,-464.69"/>
<polygon fill="black" stroke="black" points="733.76,-461.27 723.28,-462.82 732.43,-468.15 733.76,-461.27"/>
</g>
<!-- aptos_coin&#45;&gt;vector -->
<g id="edge48" class="edge">
<title>aptos_coin&#45;&gt;vector</title>
<path fill="none" stroke="black" d="M823.12,-592.17C699.87,-589.52 379.27,-578.98 281,-540 173.31,-497.29 76,-494.85 76,-379 76,-379 76,-379 76,-161 76,-144.01 16.24,-136.8 206,-72 359.49,-19.58 869.65,-17.92 1023.02,-18.66"/>
<polygon fill="black" stroke="black" points="1022.73,-22.15 1032.75,-18.71 1022.77,-15.15 1022.73,-22.15"/>
</g>
<!-- aptos_coin&#45;&gt;string -->
<g id="edge50" class="edge">
<title>aptos_coin&#45;&gt;string</title>
<path fill="none" stroke="black" d="M823.1,-591.7C699.19,-587.91 380.48,-574.83 349,-540 302.24,-488.26 360.89,-268.13 391,-216 398.64,-202.77 410.82,-191.21 422.29,-182.29"/>
<polygon fill="black" stroke="black" points="424.03,-185.35 430.02,-176.61 419.89,-179.71 424.03,-185.35"/>
</g>
<!-- aptos_coin&#45;&gt;signer -->
<g id="edge51" class="edge">
<title>aptos_coin&#45;&gt;signer</title>
<path fill="none" stroke="black" d="M823.61,-590.85C698.39,-584.92 370.67,-566.99 330,-540 215.02,-463.69 231.75,-388.85 214,-252 207.82,-204.4 200.81,-190.15 214,-144 216.83,-134.11 222.09,-124.27 227.6,-115.81"/>
<polygon fill="black" stroke="black" points="230.32,-118.02 233.17,-107.82 224.58,-114.01 230.32,-118.02"/>
</g>
<!-- aptos_coin&#45;&gt;error -->
<g id="edge52" class="edge">
<title>aptos_coin&#45;&gt;error</title>
<path fill="none" stroke="black" d="M919.8,-589.24C1078.95,-575.6 1585.89,-522.68 1674,-396 1738.34,-303.49 1687.93,-248.6 1646,-144 1642.08,-134.23 1636.3,-124.31 1630.61,-115.73"/>
<polygon fill="black" stroke="black" points="1633.55,-113.82 1624.96,-107.62 1627.8,-117.82 1633.55,-113.82"/>
</g>
<!-- aptos_coin&#45;&gt;system_addresses -->
<g id="edge53" class="edge">
<title>aptos_coin&#45;&gt;system_addresses</title>
<path fill="none" stroke="black" d="M875.08,-575.84C882.99,-535.3 906.9,-431.65 956,-360 963.61,-348.9 974.07,-338.68 984.19,-330.24"/>
<polygon fill="black" stroke="black" points="986.08,-333.2 991.73,-324.24 981.73,-327.73 986.08,-333.2"/>
</g>
<!-- aptos_coin&#45;&gt;coin -->
<g id="edge54" class="edge">
<title>aptos_coin&#45;&gt;coin</title>
<path fill="none" stroke="black" d="M901.86,-579.34C928,-567.38 965.89,-550.04 992.72,-537.77"/>
<polygon fill="black" stroke="black" points="994.11,-540.98 1001.75,-533.64 991.2,-534.62 994.11,-540.98"/>
</g>
<!-- aptos_coin&#45;&gt;option -->
<g id="edge49" class="edge">
<title>aptos_coin&#45;&gt;option</title>
<path fill="none" stroke="black" d="M823.97,-590.07C744.71,-582.73 585.99,-557.12 492,-468 467.09,-444.37 470.8,-429.65 464,-396 454.49,-348.94 441.69,-331.5 462,-288 472.55,-265.42 486.98,-269.22 505,-252 554.07,-205.09 555.25,-179.68 613,-144 646.6,-123.25 689.48,-109.08 720.6,-100.65"/>
<polygon fill="black" stroke="black" points="721.25,-104.1 730.04,-98.19 719.48,-97.33 721.25,-104.1"/>
</g>
<!-- aptos_account&#45;&gt;error -->
<g id="edge55" class="edge">
<title>aptos_account&#45;&gt;error</title>
<path fill="none" stroke="black" d="M1081.69,-647.79C1088.23,-629.24 1100.02,-599.26 1115,-576 1173.19,-485.64 1353.93,-282.97 1438,-216 1463.83,-195.42 1475.66,-198.52 1503,-180 1533.8,-159.14 1566.52,-131.62 1587.98,-112.73"/>
<polygon fill="black" stroke="black" points="1590.16,-115.47 1595.32,-106.21 1585.51,-110.24 1590.16,-115.47"/>
</g>
<!-- aptos_account&#45;&gt;account -->
<g id="edge56" class="edge">
<title>aptos_account&#45;&gt;account</title>
<path fill="none" stroke="black" d="M1088.27,-648.02C1103.03,-628.56 1129.41,-596.69 1158,-576 1232.68,-521.95 1334.46,-483.19 1390.91,-464.21"/>
<polygon fill="black" stroke="black" points="1391.75,-467.62 1400.14,-461.15 1389.55,-460.97 1391.75,-467.62"/>
</g>
<!-- aptos_account&#45;&gt;coin -->
<g id="edge57" class="edge">
<title>aptos_account&#45;&gt;coin</title>
<path fill="none" stroke="black" d="M1066.06,-647.75C1060.5,-637.59 1053.75,-624.34 1049,-612 1041.35,-592.12 1035.17,-568.86 1031,-551.11"/>
<polygon fill="black" stroke="black" points="1034.45,-550.52 1028.83,-541.54 1027.63,-552.07 1034.45,-550.52"/>
</g>
<!-- aptos_account&#45;&gt;aptos_coin -->
<g id="edge58" class="edge">
<title>aptos_account&#45;&gt;aptos_coin</title>
<path fill="none" stroke="black" d="M1037.15,-651.67C1003.1,-639.99 953.57,-622.99 917.64,-610.66"/>
<polygon fill="black" stroke="black" points="918.99,-607.42 908.39,-607.49 916.72,-614.04 918.99,-607.42"/>
</g>
<!-- timestamp&#45;&gt;error -->
<g id="edge59" class="edge">
<title>timestamp&#45;&gt;error</title>
<path fill="none" stroke="black" d="M1646.52,-508.61C1718.46,-481.69 1882.34,-418.47 1897,-396 1917.55,-364.5 1969.47,-330.21 1893,-216 1837.63,-133.3 1713.92,-104.76 1650.74,-95.36"/>
<polygon fill="black" stroke="black" points="1651.56,-91.94 1641.18,-94.02 1650.6,-98.87 1651.56,-91.94"/>
</g>
<!-- timestamp&#45;&gt;system_addresses -->
<g id="edge60" class="edge">
<title>timestamp&#45;&gt;system_addresses</title>
<path fill="none" stroke="black" d="M1565.63,-518.18C1472.77,-512.11 1270.39,-496.03 1207,-468 1188.11,-459.65 1091.54,-374.04 1043.8,-331.18"/>
<polygon fill="black" stroke="black" points="1046.38,-328.8 1036.6,-324.72 1041.7,-334 1046.38,-328.8"/>
</g>
<!-- simple_map&#45;&gt;error -->
<g id="edge62" class="edge">
<title>simple_map&#45;&gt;error</title>
<path fill="none" stroke="black" d="M2240.92,-361.6C2253.36,-352.4 2267.18,-339.48 2274,-324 2306.27,-250.8 2328.26,-202.78 2274,-144 2231.68,-98.15 1787.6,-91.95 1651.46,-91.12"/>
<polygon fill="black" stroke="black" points="1651.52,-87.62 1641.5,-91.07 1651.49,-94.62 1651.52,-87.62"/>
</g>
<!-- simple_map&#45;&gt;option -->
<g id="edge61" class="edge">
<title>simple_map&#45;&gt;option</title>
<path fill="none" stroke="black" d="M2203.39,-360.1C2187.63,-340.12 2158.82,-307.16 2127,-288 2033.78,-231.87 1999.05,-240.35 1893,-216 1477.83,-120.66 959.63,-97.24 806.53,-92.23"/>
<polygon fill="black" stroke="black" points="806.93,-88.74 796.83,-91.92 806.71,-95.74 806.93,-88.74"/>
</g>
<!-- comparator -->
<g id="node29" class="node">
<title>comparator</title>
<ellipse fill="none" stroke="black" cx="2067" cy="-306" rx="51.19" ry="18"/>
<text text-anchor="middle" x="2067" y="-302.3" font-family="Times,serif" font-size="14.00">comparator</text>
</g>
<!-- simple_map&#45;&gt;comparator -->
<g id="edge63" class="edge">
<title>simple_map&#45;&gt;comparator</title>
<path fill="none" stroke="black" d="M2185.49,-362.67C2162.77,-351.99 2131.54,-337.32 2106.85,-325.72"/>
<polygon fill="black" stroke="black" points="2108.62,-322.68 2098.08,-321.6 2105.64,-329.02 2108.62,-322.68"/>
</g>
<!-- stake&#45;&gt;vector -->
<g id="edge64" class="edge">
<title>stake&#45;&gt;vector</title>
<path fill="none" stroke="black" d="M1394.39,-662.84C1196.42,-647.81 38,-558.37 38,-523 38,-523 38,-523 38,-161 38,-110.4 64.03,-95.2 109,-72 190.8,-29.79 845.59,-20.96 1022.87,-19.33"/>
<polygon fill="black" stroke="black" points="1022.84,-22.83 1032.81,-19.25 1022.78,-15.83 1022.84,-22.83"/>
</g>
<!-- stake&#45;&gt;signer -->
<g id="edge66" class="edge">
<title>stake&#45;&gt;signer</title>
<path fill="none" stroke="black" d="M1396.35,-658.7C1367.21,-650.96 1320,-635.83 1285,-612 1267.06,-599.78 1271.26,-586 1252,-576 1210.48,-554.45 456.37,-493.26 417,-468 292.49,-388.12 258.28,-192.63 249.67,-119.35"/>
<polygon fill="black" stroke="black" points="253.19,-119.36 248.62,-109.8 246.23,-120.12 253.19,-119.36"/>
</g>
<!-- stake&#45;&gt;error -->
<g id="edge67" class="edge">
<title>stake&#45;&gt;error</title>
<path fill="none" stroke="black" d="M1449.82,-659.12C1489.25,-650.23 1565.01,-632.26 1628,-612 1831.98,-546.4 1884.25,-519.99 2059,-396 2099.38,-367.35 2123.18,-368.92 2144,-324 2236.08,-125.33 1789.08,-96.05 1651.36,-91.74"/>
<polygon fill="black" stroke="black" points="1651.74,-88.25 1641.64,-91.47 1651.54,-95.25 1651.74,-88.25"/>
</g>
<!-- stake&#45;&gt;system_addresses -->
<g id="edge68" class="edge">
<title>stake&#45;&gt;system_addresses</title>
<path fill="none" stroke="black" d="M1414.63,-648.48C1404.19,-629.16 1384.79,-597.14 1361,-576 1284.91,-508.36 1243.53,-524.74 1159,-468 1117.33,-440.03 1104.96,-433.85 1072,-396 1055.55,-377.11 1040.86,-352.74 1030.81,-334.28"/>
<polygon fill="black" stroke="black" points="1033.94,-332.71 1026.16,-325.51 1027.75,-335.99 1033.94,-332.71"/>
</g>
<!-- stake&#45;&gt;event -->
<g id="edge69" class="edge">
<title>stake&#45;&gt;event</title>
<path fill="none" stroke="black" d="M1432.67,-648.6C1452.22,-616.71 1499.43,-545.8 1556,-504 1567.42,-495.56 1745.6,-423.91 1822.79,-393.04"/>
<polygon fill="black" stroke="black" points="1824.02,-396.32 1832.01,-389.36 1821.42,-389.82 1824.02,-396.32"/>
</g>
<!-- stake&#45;&gt;account -->
<g id="edge70" class="edge">
<title>stake&#45;&gt;account</title>
<path fill="none" stroke="black" d="M1428.68,-648.04C1431.82,-637.74 1435.41,-624.27 1437,-612 1443,-565.78 1439.49,-511.48 1436.31,-479.23"/>
<polygon fill="black" stroke="black" points="1439.82,-479.09 1435.29,-469.52 1432.85,-479.83 1439.82,-479.09"/>
</g>
<!-- stake&#45;&gt;coin -->
<g id="edge71" class="edge">
<title>stake&#45;&gt;coin</title>
<path fill="none" stroke="black" d="M1401.86,-653.43C1383.36,-643.1 1355.94,-627.29 1333,-612 1310.81,-597.21 1309.32,-586.93 1285,-576 1210.93,-542.72 1115.6,-530.14 1063.4,-525.54"/>
<polygon fill="black" stroke="black" points="1063.78,-522.06 1053.52,-524.72 1063.2,-529.03 1063.78,-522.06"/>
</g>
<!-- stake&#45;&gt;aptos_coin -->
<g id="edge72" class="edge">
<title>stake&#45;&gt;aptos_coin</title>
<path fill="none" stroke="black" d="M1394.92,-661.43C1308.54,-650.46 1045.59,-617.05 928.86,-602.22"/>
<polygon fill="black" stroke="black" points="929.56,-598.78 919.2,-601 928.68,-605.73 929.56,-598.78"/>
</g>
<!-- stake&#45;&gt;timestamp -->
<g id="edge73" class="edge">
<title>stake&#45;&gt;timestamp</title>
<path fill="none" stroke="black" d="M1449.82,-658.69C1477.45,-651.16 1520.64,-636.42 1551,-612 1571.92,-595.17 1588.77,-569.48 1599.6,-550.01"/>
<polygon fill="black" stroke="black" points="1602.64,-551.74 1604.26,-541.27 1596.47,-548.45 1602.64,-551.74"/>
</g>
<!-- stake&#45;&gt;math64 -->
<g id="edge75" class="edge">
<title>stake&#45;&gt;math64</title>
<path fill="none" stroke="black" d="M1397.67,-656.97C1365.1,-646.64 1306.8,-628.09 1257,-612 1253.52,-610.88 1249.91,-609.71 1246.29,-608.53"/>
<polygon fill="black" stroke="black" points="1247.54,-605.25 1236.95,-605.48 1245.37,-611.91 1247.54,-605.25"/>
</g>
<!-- stake&#45;&gt;option -->
<g id="edge65" class="edge">
<title>stake&#45;&gt;option</title>
<path fill="none" stroke="black" d="M1406.22,-651.06C1393.63,-640.5 1376.05,-625.55 1361,-612 1343.71,-596.44 1343.27,-587.42 1323,-576 1270.4,-546.35 1120.5,-514.27 1061,-504 1007.31,-494.74 609.08,-507.91 572,-468 494.72,-384.82 546.29,-307.15 614,-216 628.07,-197.06 635.88,-196.23 653,-180 669.65,-164.22 672.5,-158.84 690,-144 703.53,-132.53 719.33,-120.74 732.67,-111.2"/>
<polygon fill="black" stroke="black" points="734.5,-114.19 740.65,-105.56 730.46,-108.48 734.5,-114.19"/>
</g>
<!-- staking_config -->
<g id="node30" class="node">
<title>staking_config</title>
<ellipse fill="none" stroke="black" cx="1742" cy="-522" rx="63.09" ry="18"/>
<text text-anchor="middle" x="1742" y="-518.3" font-family="Times,serif" font-size="14.00">staking_config</text>
</g>
<!-- stake&#45;&gt;staking_config -->
<g id="edge74" class="edge">
<title>stake&#45;&gt;staking_config</title>
<path fill="none" stroke="black" d="M1449.09,-657.74C1480.68,-648.59 1535.23,-631.67 1580,-612 1625.2,-592.14 1674.58,-564.01 1706.79,-544.72"/>
<polygon fill="black" stroke="black" points="1708.57,-547.73 1715.33,-539.57 1704.96,-541.74 1708.57,-547.73"/>
</g>
<!-- bls12381 -->
<g id="node31" class="node">
<title>bls12381</title>
<ellipse fill="none" stroke="black" cx="1214" cy="-162" rx="42.79" ry="18"/>
<text text-anchor="middle" x="1214" y="-158.3" font-family="Times,serif" font-size="14.00">bls12381</text>
</g>
<!-- stake&#45;&gt;bls12381 -->
<g id="edge76" class="edge">
<title>stake&#45;&gt;bls12381</title>
<path fill="none" stroke="black" d="M1417.03,-648.18C1410.6,-630.21 1399.94,-600.96 1390,-576 1331.67,-429.52 1255.62,-256.64 1226.29,-190.56"/>
<polygon fill="black" stroke="black" points="1229.55,-189.29 1222.29,-181.57 1223.15,-192.13 1229.55,-189.29"/>
</g>
<!-- pool_u64&#45;&gt;vector -->
<g id="edge77" class="edge">
<title>pool_u64&#45;&gt;vector</title>
<path fill="none" stroke="black" d="M2306.42,-433.47C2316.31,-423.68 2328.06,-410.24 2335,-396 2384.08,-295.28 2414.42,-215.32 2328,-144 2232.14,-64.89 1322.94,-28.04 1111.01,-20.49"/>
<polygon fill="black" stroke="black" points="1111.37,-17 1101.26,-20.15 1111.13,-24 1111.37,-17"/>
</g>
<!-- pool_u64&#45;&gt;error -->
<g id="edge78" class="edge">
<title>pool_u64&#45;&gt;error</title>
<path fill="none" stroke="black" d="M2298.51,-432.11C2312.24,-406.09 2336,-354.26 2336,-307 2336,-307 2336,-307 2336,-233 2336,-190.16 2333.69,-169.13 2299,-144 2246.46,-105.94 1789.67,-94.33 1651.45,-91.67"/>
<polygon fill="black" stroke="black" points="1651.78,-88.17 1641.71,-91.49 1651.65,-95.17 1651.78,-88.17"/>
</g>
<!-- pool_u64&#45;&gt;simple_map -->
<g id="edge79" class="edge">
<title>pool_u64&#45;&gt;simple_map</title>
<path fill="none" stroke="black" d="M2272.44,-433.12C2263.3,-424.36 2251.76,-413.29 2241.5,-403.45"/>
<polygon fill="black" stroke="black" points="2243.99,-400.99 2234.35,-396.6 2239.15,-406.05 2243.99,-400.99"/>
</g>
<!-- staking_contract&#45;&gt;vector -->
<g id="edge80" class="edge">
<title>staking_contract&#45;&gt;vector</title>
<path fill="none" stroke="black" d="M1938.15,-733.47C2083.04,-724.03 2412,-691.92 2412,-595 2412,-595 2412,-595 2412,-377 2412,-270.7 2440.07,-211.55 2358,-144 2265.42,-67.8 2216.36,-91.19 2098,-72 1903.43,-40.45 1282.08,-23.99 1110.98,-19.98"/>
<polygon fill="black" stroke="black" points="1111.27,-16.49 1101.2,-19.75 1111.11,-23.48 1111.27,-16.49"/>
</g>
<!-- staking_contract&#45;&gt;signer -->
<g id="edge81" class="edge">
<title>staking_contract&#45;&gt;signer</title>
<path fill="none" stroke="black" d="M1802.82,-735C1483.58,-725.22 152,-679.34 152,-595 152,-595 152,-595 152,-233 152,-183.49 192.4,-138.17 220.5,-112.62"/>
<polygon fill="black" stroke="black" points="222.79,-115.27 227.99,-106.05 218.17,-110.02 222.79,-115.27"/>
</g>
<!-- staking_contract&#45;&gt;error -->
<g id="edge82" class="edge">
<title>staking_contract&#45;&gt;error</title>
<path fill="none" stroke="black" d="M1906.36,-722.25C1924.88,-713.23 1946.96,-700.29 1963,-684 2027.21,-618.79 2140.04,-412.59 2163,-324 2168.21,-303.9 2163.21,-224.12 2159,-216 2135.25,-170.22 2115.65,-163.73 2068,-144 1992.8,-112.87 1747.37,-97.68 1651.17,-92.81"/>
<polygon fill="black" stroke="black" points="1651.61,-89.32 1641.45,-92.32 1651.27,-96.32 1651.61,-89.32"/>
</g>
<!-- staking_contract&#45;&gt;bcs -->
<g id="edge83" class="edge">
<title>staking_contract&#45;&gt;bcs</title>
<path fill="none" stroke="black" d="M1898.62,-721.28C1912.56,-712.06 1928.66,-699.23 1939,-684 1984.26,-617.31 1974.4,-583.47 1961,-504 1945.24,-410.56 1895.94,-308.26 1871.31,-261.26"/>
<polygon fill="black" stroke="black" points="1874.52,-259.85 1866.74,-252.66 1868.34,-263.13 1874.52,-259.85"/>
</g>
<!-- staking_contract&#45;&gt;event -->
<g id="edge84" class="edge">
<title>staking_contract&#45;&gt;event</title>
<path fill="none" stroke="black" d="M1887.12,-720.19C1909.43,-695.09 1947,-645.33 1947,-595 1947,-595 1947,-595 1947,-521 1947,-472.43 1909.16,-426.82 1882.82,-400.97"/>
<polygon fill="black" stroke="black" points="1885.5,-398.68 1875.84,-394.33 1880.68,-403.76 1885.5,-398.68"/>
</g>
<!-- staking_contract&#45;&gt;account -->
<g id="edge85" class="edge">
<title>staking_contract&#45;&gt;account</title>
<path fill="none" stroke="black" d="M1875.53,-719.73C1885.68,-676.63 1905.07,-563.52 1847,-504 1821.88,-478.25 1586.58,-460.56 1482.32,-453.92"/>
<polygon fill="black" stroke="black" points="1482.58,-450.42 1472.38,-453.29 1482.14,-457.41 1482.58,-450.42"/>
</g>
<!-- staking_contract&#45;&gt;coin -->
<g id="edge86" class="edge">
<title>staking_contract&#45;&gt;coin</title>
<path fill="none" stroke="black" d="M1801.91,-737.11C1670.06,-734.76 1376.28,-717.02 1158,-612 1118.09,-592.8 1076.31,-563 1050.46,-543.24"/>
<polygon fill="black" stroke="black" points="1052.94,-540.74 1042.89,-537.39 1048.66,-546.27 1052.94,-540.74"/>
</g>
<!-- staking_contract&#45;&gt;aptos_coin -->
<g id="edge87" class="edge">
<title>staking_contract&#45;&gt;aptos_coin</title>
<path fill="none" stroke="black" d="M1802.04,-737.37C1624.07,-737.58 1153.01,-733.33 1006,-684 964.5,-670.07 923.58,-639.83 898.09,-618.48"/>
<polygon fill="black" stroke="black" points="900.45,-615.89 890.58,-612.05 895.9,-621.21 900.45,-615.89"/>
</g>
<!-- staking_contract&#45;&gt;simple_map -->
<g id="edge88" class="edge">
<title>staking_contract&#45;&gt;simple_map</title>
<path fill="none" stroke="black" d="M1927.77,-727.56C1961.7,-719.89 2004.41,-706.54 2037,-684 2088.66,-648.27 2172.09,-474.82 2203.5,-406.62"/>
<polygon fill="black" stroke="black" points="2206.64,-408.17 2207.62,-397.63 2200.27,-405.26 2206.64,-408.17"/>
</g>
<!-- staking_contract&#45;&gt;stake -->
<g id="edge90" class="edge">
<title>staking_contract&#45;&gt;stake</title>
<path fill="none" stroke="black" d="M1813.35,-727.99C1720.74,-713.52 1541.22,-685.47 1462.08,-673.11"/>
<polygon fill="black" stroke="black" points="1462.63,-669.65 1452.21,-671.56 1461.55,-676.57 1462.63,-669.65"/>
</g>
<!-- staking_contract&#45;&gt;pool_u64 -->
<g id="edge91" class="edge">
<title>staking_contract&#45;&gt;pool_u64</title>
<path fill="none" stroke="black" d="M1930.19,-728.45C2000.69,-715.31 2117.86,-683.68 2189,-612 2229.16,-571.54 2260.76,-512.1 2277,-477.91"/>
<polygon fill="black" stroke="black" points="2280.04,-479.66 2281.08,-469.12 2273.69,-476.71 2280.04,-479.66"/>
</g>
<!-- staking_contract&#45;&gt;staking_config -->
<g id="edge89" class="edge">
<title>staking_contract&#45;&gt;staking_config</title>
<path fill="none" stroke="black" d="M1860.66,-719.85C1838.25,-682.68 1785.06,-594.44 1758.17,-549.82"/>
<polygon fill="black" stroke="black" points="1761.33,-548.29 1753.17,-541.53 1755.33,-551.9 1761.33,-548.29"/>
</g>
<!-- option&#45;&gt;vector -->
<g id="edge92" class="edge">
<title>option&#45;&gt;vector</title>
<path fill="none" stroke="black" d="M792.36,-82.03C847.54,-69.37 964.28,-42.57 1026.3,-28.34"/>
<polygon fill="black" stroke="black" points="1026.77,-31.82 1035.74,-26.17 1025.21,-25 1026.77,-31.82"/>
</g>
<!-- type_info&#45;&gt;string -->
<g id="edge93" class="edge">
<title>type_info&#45;&gt;string</title>
<path fill="none" stroke="black" d="M1086.14,-228.57C963.77,-215.92 613.92,-179.74 493.39,-167.28"/>
<polygon fill="black" stroke="black" points="493.95,-163.82 483.64,-166.27 493.23,-170.78 493.95,-163.82"/>
</g>
<!-- type_info&#45;&gt;error -->
<g id="edge94" class="edge">
<title>type_info&#45;&gt;error</title>
<path fill="none" stroke="black" d="M1164.13,-222.67C1252.93,-196.57 1485.73,-128.12 1575.74,-101.66"/>
<polygon fill="black" stroke="black" points="1576.67,-105.03 1585.28,-98.86 1574.7,-98.32 1576.67,-105.03"/>
</g>
<!-- features -->
<g id="node32" class="node">
<title>features</title>
<ellipse fill="none" stroke="black" cx="1115" cy="-162" rx="38.19" ry="18"/>
<text text-anchor="middle" x="1115" y="-158.3" font-family="Times,serif" font-size="14.00">features</text>
</g>
<!-- type_info&#45;&gt;features -->
<g id="edge95" class="edge">
<title>type_info&#45;&gt;features</title>
<path fill="none" stroke="black" d="M1125.54,-215.7C1124.06,-208.32 1122.3,-199.52 1120.65,-191.25"/>
<polygon fill="black" stroke="black" points="1124.11,-190.71 1118.72,-181.59 1117.25,-192.08 1124.11,-190.71"/>
</g>
<!-- ed25519&#45;&gt;error -->
<g id="edge97" class="edge">
<title>ed25519&#45;&gt;error</title>
<path fill="none" stroke="black" d="M1548.53,-287.85C1560.44,-250.9 1588.63,-163.49 1603.09,-118.62"/>
<polygon fill="black" stroke="black" points="1606.34,-119.97 1606.08,-109.38 1599.68,-117.82 1606.34,-119.97"/>
</g>
<!-- ed25519&#45;&gt;bcs -->
<g id="edge100" class="edge">
<title>ed25519&#45;&gt;bcs</title>
<path fill="none" stroke="black" d="M1579.02,-296.97C1639.4,-283.51 1760.37,-256.54 1820.84,-243.06"/>
<polygon fill="black" stroke="black" points="1821.27,-246.55 1830.27,-240.96 1819.75,-239.72 1821.27,-246.55"/>
</g>
<!-- ed25519&#45;&gt;option -->
<g id="edge96" class="edge">
<title>ed25519&#45;&gt;option</title>
<path fill="none" stroke="black" d="M1540.56,-287.56C1536.99,-267.97 1528.62,-236.27 1510,-216 1459.16,-160.65 1429.54,-163.64 1357,-144 1253.1,-115.88 926.47,-98.51 806.64,-92.95"/>
<polygon fill="black" stroke="black" points="807.04,-89.47 796.89,-92.51 806.72,-96.46 807.04,-89.47"/>
</g>
<!-- ed25519&#45;&gt;type_info -->
<g id="edge98" class="edge">
<title>ed25519&#45;&gt;type_info</title>
<path fill="none" stroke="black" d="M1505.16,-298.6C1430.64,-286 1264.79,-257.96 1180.43,-243.7"/>
<polygon fill="black" stroke="black" points="1181.26,-240.29 1170.82,-242.07 1180.1,-247.19 1181.26,-240.29"/>
</g>
<!-- ed25519&#45;&gt;hash -->
<g id="edge99" class="edge">
<title>ed25519&#45;&gt;hash</title>
<path fill="none" stroke="black" d="M1527.34,-289.12C1518.15,-279.79 1506.38,-267.85 1496.23,-257.56"/>
<polygon fill="black" stroke="black" points="1498.76,-255.14 1489.25,-250.47 1493.78,-260.05 1498.76,-255.14"/>
</g>
<!-- multi_ed25519&#45;&gt;error -->
<g id="edge102" class="edge">
<title>multi_ed25519&#45;&gt;error</title>
<path fill="none" stroke="black" d="M1571.23,-360.17C1579.17,-350.35 1588.21,-337.3 1593,-324 1618.18,-254.01 1617.05,-164.82 1614.37,-119.79"/>
<polygon fill="black" stroke="black" points="1617.86,-119.56 1613.7,-109.82 1610.88,-120.03 1617.86,-119.56"/>
</g>
<!-- multi_ed25519&#45;&gt;bcs -->
<g id="edge104" class="edge">
<title>multi_ed25519&#45;&gt;bcs</title>
<path fill="none" stroke="black" d="M1587.93,-361.94C1645.78,-334.65 1767.29,-277.32 1825.11,-250.04"/>
<polygon fill="black" stroke="black" points="1826.54,-253.24 1834.09,-245.81 1823.56,-246.91 1826.54,-253.24"/>
</g>
<!-- multi_ed25519&#45;&gt;option -->
<g id="edge101" class="edge">
<title>multi_ed25519&#45;&gt;option</title>
<path fill="none" stroke="black" d="M1529.87,-361.13C1513.71,-351.01 1492.72,-337.34 1475,-324 1377.05,-250.28 1378.53,-192.63 1266,-144 1183.87,-108.51 914.15,-95.96 806.72,-92.3"/>
<polygon fill="black" stroke="black" points="806.97,-88.81 796.86,-91.97 806.74,-95.8 806.97,-88.81"/>
</g>
<!-- multi_ed25519&#45;&gt;hash -->
<g id="edge103" class="edge">
<title>multi_ed25519&#45;&gt;hash</title>
<path fill="none" stroke="black" d="M1529.98,-361.15C1516.95,-351.9 1502.05,-339.07 1493,-324 1482.04,-305.75 1477.36,-282.07 1475.37,-263.72"/>
<polygon fill="black" stroke="black" points="1478.86,-263.45 1474.53,-253.78 1471.89,-264.04 1478.86,-263.45"/>
</g>
<!-- multi_ed25519&#45;&gt;ed25519 -->
<g id="edge105" class="edge">
<title>multi_ed25519&#45;&gt;ed25519</title>
<path fill="none" stroke="black" d="M1552.79,-359.7C1551.42,-352.32 1549.78,-343.52 1548.25,-335.25"/>
<polygon fill="black" stroke="black" points="1551.72,-334.79 1546.45,-325.59 1544.84,-336.06 1551.72,-334.79"/>
</g>
<!-- from_bcs&#45;&gt;string -->
<g id="edge106" class="edge">
<title>from_bcs&#45;&gt;string</title>
<path fill="none" stroke="black" d="M452,-215.7C452,-208.41 452,-199.73 452,-191.54"/>
<polygon fill="black" stroke="black" points="455.5,-191.62 452,-181.62 448.5,-191.62 455.5,-191.62"/>
</g>
<!-- optional_aggregator&#45;&gt;error -->
<g id="edge108" class="edge">
<title>optional_aggregator&#45;&gt;error</title>
<path fill="none" stroke="black" d="M667.33,-431.66C673.73,-412.73 685.78,-382.17 703,-360 796.4,-239.71 827.69,-200.79 969,-144 1079.51,-99.59 1450.16,-92.39 1572.47,-91.22"/>
<polygon fill="black" stroke="black" points="1572.36,-94.73 1582.33,-91.14 1572.3,-87.73 1572.36,-94.73"/>
</g>
<!-- optional_aggregator&#45;&gt;option -->
<g id="edge107" class="edge">
<title>optional_aggregator&#45;&gt;option</title>
<path fill="none" stroke="black" d="M644.8,-432.32C617.12,-403.34 567.82,-341.67 589,-288 601.06,-257.44 668.43,-204.79 690,-180 708.44,-158.81 728.47,-133.88 742.71,-115.81"/>
<polygon fill="black" stroke="black" points="745.24,-118.26 748.66,-108.23 739.73,-113.94 745.24,-118.26"/>
</g>
<!-- aggregator -->
<g id="node33" class="node">
<title>aggregator</title>
<ellipse fill="none" stroke="black" cx="646" cy="-306" rx="48.19" ry="18"/>
<text text-anchor="middle" x="646" y="-302.3" font-family="Times,serif" font-size="14.00">aggregator</text>
</g>
<!-- optional_aggregator&#45;&gt;aggregator -->
<g id="edge109" class="edge">
<title>optional_aggregator&#45;&gt;aggregator</title>
<path fill="none" stroke="black" d="M649.27,-431.85C642.71,-421.92 635.39,-408.88 632,-396 626.71,-375.9 630.68,-352.68 635.73,-335.01"/>
<polygon fill="black" stroke="black" points="638.99,-336.31 638.66,-325.72 632.31,-334.2 638.99,-336.31"/>
</g>
<!-- aggregator_factory -->
<g id="node34" class="node">
<title>aggregator_factory</title>
<ellipse fill="none" stroke="black" cx="789" cy="-378" rx="77.19" ry="18"/>
<text text-anchor="middle" x="789" y="-374.3" font-family="Times,serif" font-size="14.00">aggregator_factory</text>
</g>
<!-- optional_aggregator&#45;&gt;aggregator_factory -->
<g id="edge110" class="edge">
<title>optional_aggregator&#45;&gt;aggregator_factory</title>
<path fill="none" stroke="black" d="M691.46,-432.76C708.89,-423.15 731.19,-410.87 750.06,-400.46"/>
<polygon fill="black" stroke="black" points="751.75,-403.53 758.82,-395.64 748.37,-397.4 751.75,-403.53"/>
</g>
<!-- comparator&#45;&gt;bcs -->
<g id="edge111" class="edge">
<title>comparator&#45;&gt;bcs</title>
<path fill="none" stroke="black" d="M2030.9,-292.97C1991.84,-279.95 1929.99,-259.33 1891.54,-246.51"/>
<polygon fill="black" stroke="black" points="1892.92,-243.28 1882.32,-243.44 1890.7,-249.92 1892.92,-243.28"/>
</g>
<!-- staking_config&#45;&gt;error -->
<g id="edge112" class="edge">
<title>staking_config&#45;&gt;error</title>
<path fill="none" stroke="black" d="M1775.38,-506.33C1865.2,-466.54 2106.63,-357.31 2127,-324 2135.35,-310.35 2135.32,-301.66 2127,-288 2024.36,-119.52 1753.21,-94.63 1651.39,-91.33"/>
<polygon fill="black" stroke="black" points="1651.71,-87.84 1641.62,-91.07 1651.53,-94.84 1651.71,-87.84"/>
</g>
<!-- staking_config&#45;&gt;system_addresses -->
<g id="edge113" class="edge">
<title>staking_config&#45;&gt;system_addresses</title>
<path fill="none" stroke="black" d="M1696.06,-509.39C1687.44,-507.43 1678.47,-505.53 1670,-504 1544.8,-481.35 1508.98,-500.61 1386,-468 1305.1,-446.55 1288.75,-429.38 1212,-396 1159.48,-373.16 1099.64,-345.62 1060.26,-327.28"/>
<polygon fill="black" stroke="black" points="1061.88,-324.17 1051.33,-323.12 1058.92,-330.52 1061.88,-324.17"/>
</g>
<!-- bls12381&#45;&gt;error -->
<g id="edge115" class="edge">
<title>bls12381&#45;&gt;error</title>
<path fill="none" stroke="black" d="M1252.89,-154.16C1329.29,-140.72 1498.13,-111.03 1573.89,-97.7"/>
<polygon fill="black" stroke="black" points="1574.49,-101.15 1583.74,-95.97 1573.28,-94.26 1574.49,-101.15"/>
</g>
<!-- bls12381&#45;&gt;option -->
<g id="edge114" class="edge">
<title>bls12381&#45;&gt;option</title>
<path fill="none" stroke="black" d="M1182.08,-149.54C1175.5,-147.47 1168.58,-145.5 1162,-144 1034.6,-115 880.5,-100.12 806.24,-94.18"/>
<polygon fill="black" stroke="black" points="806.78,-90.71 796.54,-93.42 806.23,-97.69 806.78,-90.71"/>
</g>
<!-- features&#45;&gt;signer -->
<g id="edge116" class="edge">
<title>features&#45;&gt;signer</title>
<path fill="none" stroke="black" d="M1077.42,-157.97C936.6,-146.61 440.52,-106.61 290.38,-94.5"/>
<polygon fill="black" stroke="black" points="290.71,-91.01 280.46,-93.7 290.15,-97.99 290.71,-91.01"/>
</g>
<!-- features&#45;&gt;error -->
<g id="edge117" class="edge">
<title>features&#45;&gt;error</title>
<path fill="none" stroke="black" d="M1143.52,-149.51C1149.54,-147.41 1155.92,-145.44 1162,-144 1311.09,-108.75 1493.77,-96.46 1572.65,-92.6"/>
<polygon fill="black" stroke="black" points="1572.62,-96.1 1582.45,-92.14 1572.3,-89.11 1572.62,-96.1"/>
</g>
<!-- aggregator_factory&#45;&gt;error -->
<g id="edge118" class="edge">
<title>aggregator_factory&#45;&gt;error</title>
<path fill="none" stroke="black" d="M800.03,-360.02C830.76,-314.47 922.61,-189.89 1036,-144 1133.77,-104.43 1458.93,-94.11 1572.46,-91.68"/>
<polygon fill="black" stroke="black" points="1572.26,-95.19 1582.19,-91.49 1572.12,-88.19 1572.26,-95.19"/>
</g>
<!-- aggregator_factory&#45;&gt;system_addresses -->
<g id="edge120" class="edge">
<title>aggregator_factory&#45;&gt;system_addresses</title>
<path fill="none" stroke="black" d="M834.32,-363.09C870.92,-351.85 922.58,-335.99 961.63,-324"/>
<polygon fill="black" stroke="black" points="962.56,-327.37 971.1,-321.09 960.51,-320.68 962.56,-327.37"/>
</g>
<!-- aggregator_factory&#45;&gt;table -->
<g id="edge119" class="edge">
<title>aggregator_factory&#45;&gt;table</title>
<path fill="none" stroke="black" d="M813.62,-360.59C829.18,-350.21 849.34,-336.77 865.58,-325.94"/>
<polygon fill="black" stroke="black" points="867.47,-328.89 873.85,-320.43 863.59,-323.07 867.47,-328.89"/>
</g>
<!-- aggregator_factory&#45;&gt;aggregator -->
<g id="edge121" class="edge">
<title>aggregator_factory&#45;&gt;aggregator</title>
<path fill="none" stroke="black" d="M756.91,-361.29C735.44,-350.78 707.08,-336.9 684.41,-325.8"/>
<polygon fill="black" stroke="black" points="686,-322.68 675.48,-321.43 682.92,-328.97 686,-322.68"/>
</g>
</g>
</svg>
