<?xml version="1.0" encoding="UTF-8" standalone="no"?>
<!DOCTYPE svg PUBLIC "-//W3C//DTD SVG 1.1//EN"
 "http://www.w3.org/Graphics/SVG/1.1/DTD/svg11.dtd">
<!-- Generated by graphviz version 7.0.0 (20221023.0053)
 -->
<!-- Title: G Pages: 1 -->
<svg width="1787pt" height="542pt"
 viewBox="0.00 0.00 1787.00 542.00" xmlns="http://www.w3.org/2000/svg" xmlns:xlink="http://www.w3.org/1999/xlink">
<g id="graph0" class="graph" transform="scale(1 1) rotate(0) translate(4 538)">
<title>G</title>
<polygon fill="white" stroke="none" points="-4,4 -4,-538 1783,-538 1783,4 -4,4"/>
<g id="clust1" class="cluster">
<title>cluster_event</title>
<polygon fill="none" stroke="black" points="8,-91 8,-249 194,-249 194,-91 8,-91"/>
<text text-anchor="middle" x="101" y="-233.8" font-family="Times,serif" font-size="14.00">event</text>
</g>
<g id="clust2" class="cluster">
<title>cluster_aptos_account</title>
<polygon fill="none" stroke="black" points="1279,-340 1279,-490 1579,-490 1579,-340 1279,-340"/>
<text text-anchor="middle" x="1429" y="-474.8" font-family="Times,serif" font-size="14.00">aptos_account</text>
</g>
<g id="clust3" class="cluster">
<title>cluster_simple_map</title>
<polygon fill="none" stroke="black" points="652,-257 652,-415 1073,-415 1073,-257 652,-257"/>
<text text-anchor="middle" x="862.5" y="-399.8" font-family="Times,serif" font-size="14.00">simple_map</text>
</g>
<g id="clust4" class="cluster">
<title>cluster_bcs</title>
<polygon fill="none" stroke="black" points="202,-91 202,-166 298,-166 298,-91 202,-91"/>
<text text-anchor="middle" x="250" y="-150.8" font-family="Times,serif" font-size="14.00">bcs</text>
</g>
<g id="clust5" class="cluster">
<title>cluster_error</title>
<polygon fill="none" stroke="black" points="1081,-174 1081,-332 1505,-332 1505,-174 1081,-174"/>
<text text-anchor="middle" x="1293" y="-316.8" font-family="Times,serif" font-size="14.00">error</text>
</g>
<g id="clust6" class="cluster">
<title>cluster_coin</title>
<polygon fill="none" stroke="black" points="1081,-340 1081,-415 1271,-415 1271,-340 1081,-340"/>
<text text-anchor="middle" x="1176" y="-399.8" font-family="Times,serif" font-size="14.00">coin</text>
</g>
<g id="clust7" class="cluster">
<title>cluster_option</title>
<polygon fill="none" stroke="black" points="566,-91 566,-249 897,-249 897,-91 566,-91"/>
<text text-anchor="middle" x="731.5" y="-233.8" font-family="Times,serif" font-size="14.00">option</text>
</g>
<g id="clust8" class="cluster">
<title>cluster_signer</title>
<polygon fill="none" stroke="black" points="1621,-257 1621,-415 1771,-415 1771,-257 1621,-257"/>
<text text-anchor="middle" x="1696" y="-399.8" font-family="Times,serif" font-size="14.00">signer</text>
</g>
<g id="clust9" class="cluster">
<title>cluster_account</title>
<polygon fill="none" stroke="black" points="1513,-257 1513,-332 1613,-332 1613,-257 1513,-257"/>
<text text-anchor="middle" x="1563" y="-316.8" font-family="Times,serif" font-size="14.00">account</text>
</g>
<g id="clust10" class="cluster">
<title>cluster_vector</title>
<polygon fill="none" stroke="black" points="609,-8 609,-83 816,-83 816,-8 609,-8"/>
<text text-anchor="middle" x="712.5" y="-67.8" font-family="Times,serif" font-size="14.00">vector</text>
</g>
<g id="clust11" class="cluster">
<title>cluster_comparator</title>
<polygon fill="none" stroke="black" points="306,-91 306,-249 558,-249 558,-91 306,-91"/>
<text text-anchor="middle" x="432" y="-233.8" font-family="Times,serif" font-size="14.00">comparator</text>
</g>
<!-- set_beneficiary -->
<g id="node1" class="node">
<title>set_beneficiary</title>
<ellipse fill="none" stroke="black" cx="896" cy="-516" rx="64.19" ry="18"/>
<text text-anchor="middle" x="896" y="-512.3" font-family="Times,serif" font-size="14.00">set_beneficiary</text>
</g>
<!-- event::emit_event -->
<g id="node2" class="node">
<title>event::emit_event</title>
<ellipse fill="none" stroke="black" cx="136" cy="-200" rx="50.09" ry="18"/>
<text text-anchor="middle" x="136" y="-196.3" font-family="Times,serif" font-size="14.00">emit_event</text>
</g>
<!-- set_beneficiary&#45;&gt;event::emit_event -->
<g id="edge1" class="edge">
<title>set_beneficiary&#45;&gt;event::emit_event</title>
<path fill="none" stroke="black" d="M833.62,-511.25C798.72,-507.93 754.77,-501.69 717,-490 495.72,-421.51 255.1,-276.61 168.95,-222.22"/>
<polygon fill="black" stroke="black" points="171.05,-219.41 160.73,-217.01 167.3,-225.32 171.05,-219.41"/>
</g>
<!-- aptos_account::assert_account_is_registered_for_apt -->
<g id="node3" class="node">
<title>aptos_account::assert_account_is_registered_for_apt</title>
<ellipse fill="none" stroke="black" cx="1429" cy="-441" rx="141.88" ry="18"/>
<text text-anchor="middle" x="1429" y="-437.3" font-family="Times,serif" font-size="14.00">assert_account_is_registered_for_apt</text>
</g>
<!-- set_beneficiary&#45;&gt;aptos_account::assert_account_is_registered_for_apt -->
<g id="edge2" class="edge">
<title>set_beneficiary&#45;&gt;aptos_account::assert_account_is_registered_for_apt</title>
<path fill="none" stroke="black" d="M952.79,-507.22C1041.09,-495.13 1212.71,-471.62 1324,-456.38"/>
<polygon fill="black" stroke="black" points="1324.31,-459.87 1333.75,-455.05 1323.36,-452.94 1324.31,-459.87"/>
</g>
<!-- simple_map::borrow_mut -->
<g id="node4" class="node">
<title>simple_map::borrow_mut</title>
<ellipse fill="none" stroke="black" cx="1010" cy="-366" rx="54.69" ry="18"/>
<text text-anchor="middle" x="1010" y="-362.3" font-family="Times,serif" font-size="14.00">borrow_mut</text>
</g>
<!-- set_beneficiary&#45;&gt;simple_map::borrow_mut -->
<g id="edge3" class="edge">
<title>set_beneficiary&#45;&gt;simple_map::borrow_mut</title>
<path fill="none" stroke="black" d="M947.72,-504.95C956.33,-501.38 964.55,-496.55 971,-490 996.07,-464.56 1005.04,-423.11 1008.24,-395.45"/>
<polygon fill="black" stroke="black" points="1011.7,-395.97 1009.17,-385.68 1004.74,-395.31 1011.7,-395.97"/>
</g>
<!-- simple_map::add -->
<g id="node5" class="node">
<title>simple_map::add</title>
<ellipse fill="none" stroke="black" cx="687" cy="-366" rx="27" ry="18"/>
<text text-anchor="middle" x="687" y="-362.3" font-family="Times,serif" font-size="14.00">add</text>
</g>
<!-- set_beneficiary&#45;&gt;simple_map::add -->
<g id="edge4" class="edge">
<title>set_beneficiary&#45;&gt;simple_map::add</title>
<path fill="none" stroke="black" d="M837.38,-508.37C820.59,-504.68 802.84,-498.94 788,-490 748.58,-466.26 717.7,-421.35 700.94,-392.86"/>
<polygon fill="black" stroke="black" points="704.16,-391.44 696.16,-384.49 698.08,-394.91 704.16,-391.44"/>
</g>
<!-- simple_map::contains_key -->
<g id="node6" class="node">
<title>simple_map::contains_key</title>
<ellipse fill="none" stroke="black" cx="789" cy="-366" rx="57.39" ry="18"/>
<text text-anchor="middle" x="789" y="-362.3" font-family="Times,serif" font-size="14.00">contains_key</text>
</g>
<!-- set_beneficiary&#45;&gt;simple_map::contains_key -->
<g id="edge5" class="edge">
<title>set_beneficiary&#45;&gt;simple_map::contains_key</title>
<path fill="none" stroke="black" d="M843.99,-505.22C835.41,-501.63 827.28,-496.72 821,-490 796.98,-464.31 790.47,-422.92 788.97,-395.34"/>
<polygon fill="black" stroke="black" points="792.48,-395.5 788.65,-385.62 785.48,-395.73 792.48,-395.5"/>
</g>
<!-- get_beneficiary -->
<g id="node7" class="node">
<title>get_beneficiary</title>
<ellipse fill="none" stroke="black" cx="896" cy="-441" rx="65.79" ry="18"/>
<text text-anchor="middle" x="896" y="-437.3" font-family="Times,serif" font-size="14.00">get_beneficiary</text>
</g>
<!-- set_beneficiary&#45;&gt;get_beneficiary -->
<g id="edge6" class="edge">
<title>set_beneficiary&#45;&gt;get_beneficiary</title>
<path fill="none" stroke="black" d="M896,-497.7C896,-489.67 896,-479.9 896,-470.8"/>
<polygon fill="black" stroke="black" points="899.5,-470.94 896,-460.94 892.5,-470.94 899.5,-470.94"/>
</g>
<!-- verify_admin -->
<g id="node8" class="node">
<title>verify_admin</title>
<ellipse fill="none" stroke="black" cx="1647" cy="-441" rx="58.49" ry="18"/>
<text text-anchor="middle" x="1647" y="-437.3" font-family="Times,serif" font-size="14.00">verify_admin</text>
</g>
<!-- set_beneficiary&#45;&gt;verify_admin -->
<g id="edge7" class="edge">
<title>set_beneficiary&#45;&gt;verify_admin</title>
<path fill="none" stroke="black" d="M960.36,-514.85C1119.98,-514.15 1525.37,-510.38 1583,-490 1597.32,-484.93 1611.09,-475.44 1622.16,-466.22"/>
<polygon fill="black" stroke="black" points="1624.44,-468.87 1629.64,-459.64 1619.82,-463.61 1624.44,-468.87"/>
</g>
<!-- bcs::to_bytes -->
<g id="node9" class="node">
<title>bcs::to_bytes</title>
<ellipse fill="none" stroke="black" cx="250" cy="-117" rx="40.09" ry="18"/>
<text text-anchor="middle" x="250" y="-113.3" font-family="Times,serif" font-size="14.00">to_bytes</text>
</g>
<!-- event::emit_event&#45;&gt;bcs::to_bytes -->
<g id="edge8" class="edge">
<title>event::emit_event&#45;&gt;bcs::to_bytes</title>
<path fill="none" stroke="black" d="M165.62,-185.2C176.19,-179.77 187.96,-173.13 198,-166 208.07,-158.85 218.25,-149.92 226.9,-141.7"/>
<polygon fill="black" stroke="black" points="229.18,-144.37 233.89,-134.88 224.29,-139.36 229.18,-144.37"/>
</g>
<!-- event::write_to_event_store -->
<g id="node10" class="node">
<title>event::write_to_event_store</title>
<ellipse fill="none" stroke="black" cx="101" cy="-117" rx="85.29" ry="18"/>
<text text-anchor="middle" x="101" y="-113.3" font-family="Times,serif" font-size="14.00">write_to_event_store</text>
</g>
<!-- event::emit_event&#45;&gt;event::write_to_event_store -->
<g id="edge9" class="edge">
<title>event::emit_event&#45;&gt;event::write_to_event_store</title>
<path fill="none" stroke="black" d="M128.58,-181.82C124.03,-171.3 118.11,-157.59 112.91,-145.57"/>
<polygon fill="black" stroke="black" points="116.19,-144.33 109.01,-136.54 109.77,-147.11 116.19,-144.33"/>
</g>
<!-- error::not_found -->
<g id="node11" class="node">
<title>error::not_found</title>
<ellipse fill="none" stroke="black" cx="1300" cy="-283" rx="46.59" ry="18"/>
<text text-anchor="middle" x="1300" y="-279.3" font-family="Times,serif" font-size="14.00">not_found</text>
</g>
<!-- aptos_account::assert_account_is_registered_for_apt&#45;&gt;error::not_found -->
<g id="edge10" class="edge">
<title>aptos_account::assert_account_is_registered_for_apt&#45;&gt;error::not_found</title>
<path fill="none" stroke="black" d="M1347.38,-425.84C1342.12,-422.86 1337.25,-419.28 1333,-415 1306,-387.78 1300.02,-341.91 1299.23,-312.3"/>
<polygon fill="black" stroke="black" points="1302.74,-312.57 1299.17,-302.59 1295.74,-312.62 1302.74,-312.57"/>
</g>
<!-- coin::is_account_registered -->
<g id="node12" class="node">
<title>coin::is_account_registered</title>
<ellipse fill="none" stroke="black" cx="1176" cy="-366" rx="87.18" ry="18"/>
<text text-anchor="middle" x="1176" y="-362.3" font-family="Times,serif" font-size="14.00">is_account_registered</text>
</g>
<!-- aptos_account::assert_account_is_registered_for_apt&#45;&gt;coin::is_account_registered -->
<g id="edge11" class="edge">
<title>aptos_account::assert_account_is_registered_for_apt&#45;&gt;coin::is_account_registered</title>
<path fill="none" stroke="black" d="M1328.19,-427.96C1310.26,-424.6 1291.92,-420.35 1275,-415 1254.14,-408.41 1232.13,-398.11 1214.18,-388.73"/>
<polygon fill="black" stroke="black" points="1215.92,-385.7 1205.45,-384.07 1212.62,-391.87 1215.92,-385.7"/>
</g>
<!-- aptos_account::assert_account_exists -->
<g id="node13" class="node">
<title>aptos_account::assert_account_exists</title>
<ellipse fill="none" stroke="black" cx="1429" cy="-366" rx="87.18" ry="18"/>
<text text-anchor="middle" x="1429" y="-362.3" font-family="Times,serif" font-size="14.00">assert_account_exists</text>
</g>
<!-- aptos_account::assert_account_is_registered_for_apt&#45;&gt;aptos_account::assert_account_exists -->
<g id="edge12" class="edge">
<title>aptos_account::assert_account_is_registered_for_apt&#45;&gt;aptos_account::assert_account_exists</title>
<path fill="none" stroke="black" d="M1429,-422.7C1429,-414.67 1429,-404.9 1429,-395.8"/>
<polygon fill="black" stroke="black" points="1432.5,-395.94 1429,-385.94 1425.5,-395.94 1432.5,-395.94"/>
</g>
<!-- option::extract -->
<g id="node14" class="node">
<title>option::extract</title>
<ellipse fill="none" stroke="black" cx="855" cy="-200" rx="34.39" ry="18"/>
<text text-anchor="middle" x="855" y="-196.3" font-family="Times,serif" font-size="14.00">extract</text>
</g>
<!-- simple_map::borrow_mut&#45;&gt;option::extract -->
<g id="edge13" class="edge">
<title>simple_map::borrow_mut&#45;&gt;option::extract</title>
<path fill="none" stroke="black" d="M994.28,-348.37C966.73,-319.22 909.61,-258.78 877.74,-225.06"/>
<polygon fill="black" stroke="black" points="880.3,-222.67 870.88,-217.81 875.21,-227.48 880.3,-222.67"/>
</g>
<!-- option::is_some -->
<g id="node15" class="node">
<title>option::is_some</title>
<ellipse fill="none" stroke="black" cx="849" cy="-117" rx="40.09" ry="18"/>
<text text-anchor="middle" x="849" y="-113.3" font-family="Times,serif" font-size="14.00">is_some</text>
</g>
<!-- simple_map::borrow_mut&#45;&gt;option::is_some -->
<g id="edge14" class="edge">
<title>simple_map::borrow_mut&#45;&gt;option::is_some</title>
<path fill="none" stroke="black" d="M1008.93,-347.68C1005.86,-311.53 994.21,-226.98 951,-174 935.56,-155.07 911.95,-141.53 891.33,-132.51"/>
<polygon fill="black" stroke="black" points="892.86,-129.35 882.28,-128.78 890.19,-135.82 892.86,-129.35"/>
</g>
<!-- error::invalid_argument -->
<g id="node16" class="node">
<title>error::invalid_argument</title>
<ellipse fill="none" stroke="black" cx="1162" cy="-283" rx="73.39" ry="18"/>
<text text-anchor="middle" x="1162" y="-279.3" font-family="Times,serif" font-size="14.00">invalid_argument</text>
</g>
<!-- simple_map::borrow_mut&#45;&gt;error::invalid_argument -->
<g id="edge15" class="edge">
<title>simple_map::borrow_mut&#45;&gt;error::invalid_argument</title>
<path fill="none" stroke="black" d="M1040.2,-350.57C1051.78,-344.92 1065.08,-338.3 1077,-332 1092.83,-323.64 1110.07,-314.01 1124.85,-305.58"/>
<polygon fill="black" stroke="black" points="1126.4,-308.72 1133.34,-300.71 1122.92,-302.65 1126.4,-308.72"/>
</g>
<!-- simple_map::find -->
<g id="node17" class="node">
<title>simple_map::find</title>
<ellipse fill="none" stroke="black" cx="687" cy="-283" rx="27" ry="18"/>
<text text-anchor="middle" x="687" y="-279.3" font-family="Times,serif" font-size="14.00">find</text>
</g>
<!-- simple_map::borrow_mut&#45;&gt;simple_map::find -->
<g id="edge16" class="edge">
<title>simple_map::borrow_mut&#45;&gt;simple_map::find</title>
<path fill="none" stroke="black" d="M977.46,-351.13C967.48,-347.2 956.39,-343.13 946,-340 868.36,-316.6 774.84,-298.88 724.13,-290.1"/>
<polygon fill="black" stroke="black" points="725.02,-286.71 714.57,-288.47 723.84,-293.61 725.02,-286.71"/>
</g>
<!-- simple_map::add&#45;&gt;option::extract -->
<g id="edge17" class="edge">
<title>simple_map::add&#45;&gt;option::extract</title>
<path fill="none" stroke="black" d="M703.87,-351.58C709.69,-347.43 716.4,-343.13 723,-340 734.7,-334.46 740.24,-339.19 751,-332 791.39,-305.01 823.4,-257.36 840.74,-227.57"/>
<polygon fill="black" stroke="black" points="843.62,-229.59 845.5,-219.16 837.53,-226.14 843.62,-229.59"/>
</g>
<!-- simple_map::add&#45;&gt;error::invalid_argument -->
<g id="edge19" class="edge">
<title>simple_map::add&#45;&gt;error::invalid_argument</title>
<path fill="none" stroke="black" d="M702.75,-351.09C708.69,-346.69 715.76,-342.36 723,-340 760.41,-327.82 1039.06,-342.43 1077,-332 1095.9,-326.8 1115.07,-316.5 1130.41,-306.77"/>
<polygon fill="black" stroke="black" points="1132.21,-309.78 1138.64,-301.35 1128.36,-303.93 1132.21,-309.78"/>
</g>
<!-- simple_map::add&#45;&gt;simple_map::find -->
<g id="edge20" class="edge">
<title>simple_map::add&#45;&gt;simple_map::find</title>
<path fill="none" stroke="black" d="M687,-347.82C687,-337.69 687,-324.6 687,-312.92"/>
<polygon fill="black" stroke="black" points="690.5,-312.95 687,-302.95 683.5,-312.95 690.5,-312.95"/>
</g>
<!-- option::is_none -->
<g id="node18" class="node">
<title>option::is_none</title>
<ellipse fill="none" stroke="black" cx="764" cy="-200" rx="38.19" ry="18"/>
<text text-anchor="middle" x="764" y="-196.3" font-family="Times,serif" font-size="14.00">is_none</text>
</g>
<!-- simple_map::add&#45;&gt;option::is_none -->
<g id="edge18" class="edge">
<title>simple_map::add&#45;&gt;option::is_none</title>
<path fill="none" stroke="black" d="M704.63,-352.1C711.18,-346.55 718.18,-339.59 723,-332 743.26,-300.11 754.15,-257.48 759.51,-229.64"/>
<polygon fill="black" stroke="black" points="762.95,-230.28 761.27,-219.82 756.06,-229.05 762.95,-230.28"/>
</g>
<!-- simple_map::contains_key&#45;&gt;option::is_some -->
<g id="edge21" class="edge">
<title>simple_map::contains_key&#45;&gt;option::is_some</title>
<path fill="none" stroke="black" d="M811.78,-349.31C838.31,-329.5 880.7,-292.68 898,-249 910.28,-218.01 909.72,-205.2 898,-174 893.37,-161.69 884.67,-150.31 875.88,-141.07"/>
<polygon fill="black" stroke="black" points="878.55,-138.79 868.96,-134.28 873.64,-143.78 878.55,-138.79"/>
</g>
<!-- simple_map::contains_key&#45;&gt;simple_map::find -->
<g id="edge22" class="edge">
<title>simple_map::contains_key&#45;&gt;simple_map::find</title>
<path fill="none" stroke="black" d="M768.85,-349C752.63,-336.12 729.75,-317.95 712.3,-304.09"/>
<polygon fill="black" stroke="black" points="714.93,-301.71 704.92,-298.23 710.58,-307.19 714.93,-301.71"/>
</g>
<!-- get_beneficiary&#45;&gt;simple_map::contains_key -->
<g id="edge24" class="edge">
<title>get_beneficiary&#45;&gt;simple_map::contains_key</title>
<path fill="none" stroke="black" d="M870.03,-424.1C865.32,-421.13 860.49,-418.01 856,-415 844.02,-406.98 831.09,-397.83 819.81,-389.69"/>
<polygon fill="black" stroke="black" points="822.16,-387.07 812.01,-384.02 818.04,-392.73 822.16,-387.07"/>
</g>
<!-- simple_map::borrow -->
<g id="node19" class="node">
<title>simple_map::borrow</title>
<ellipse fill="none" stroke="black" cx="901" cy="-366" rx="36.29" ry="18"/>
<text text-anchor="middle" x="901" y="-362.3" font-family="Times,serif" font-size="14.00">borrow</text>
</g>
<!-- get_beneficiary&#45;&gt;simple_map::borrow -->
<g id="edge23" class="edge">
<title>get_beneficiary&#45;&gt;simple_map::borrow</title>
<path fill="none" stroke="black" d="M897.18,-422.7C897.74,-414.67 898.4,-404.9 899.03,-395.8"/>
<polygon fill="black" stroke="black" points="902.51,-396.15 899.7,-385.94 895.53,-395.68 902.51,-396.15"/>
</g>
<!-- signer::address_of -->
<g id="node20" class="node">
<title>signer::address_of</title>
<ellipse fill="none" stroke="black" cx="1687" cy="-366" rx="48.99" ry="18"/>
<text text-anchor="middle" x="1687" y="-362.3" font-family="Times,serif" font-size="14.00">address_of</text>
</g>
<!-- verify_admin&#45;&gt;signer::address_of -->
<g id="edge25" class="edge">
<title>verify_admin&#45;&gt;signer::address_of</title>
<path fill="none" stroke="black" d="M1656.28,-423.07C1660.99,-414.47 1666.83,-403.81 1672.15,-394.11"/>
<polygon fill="black" stroke="black" points="1675.17,-395.87 1676.91,-385.42 1669.03,-392.51 1675.17,-395.87"/>
</g>
<!-- error::unauthenticated -->
<g id="node21" class="node">
<title>error::unauthenticated</title>
<ellipse fill="none" stroke="black" cx="1431" cy="-283" rx="66.09" ry="18"/>
<text text-anchor="middle" x="1431" y="-279.3" font-family="Times,serif" font-size="14.00">unauthenticated</text>
</g>
<!-- verify_admin&#45;&gt;error::unauthenticated -->
<g id="edge26" class="edge">
<title>verify_admin&#45;&gt;error::unauthenticated</title>
<path fill="none" stroke="black" d="M1625.2,-423.88C1622.23,-421.12 1619.38,-418.13 1617,-415 1594.83,-385.88 1612.65,-361.46 1583,-340 1569.6,-330.3 1524.65,-337.35 1509,-332 1492.01,-326.19 1474.83,-316.16 1460.93,-306.77"/>
<polygon fill="black" stroke="black" points="1463.32,-304.17 1453.12,-301.3 1459.3,-309.9 1463.32,-304.17"/>
</g>
<!-- error::canonical -->
<g id="node22" class="node">
<title>error::canonical</title>
<ellipse fill="none" stroke="black" cx="1300" cy="-200" rx="44.39" ry="18"/>
<text text-anchor="middle" x="1300" y="-196.3" font-family="Times,serif" font-size="14.00">canonical</text>
</g>
<!-- error::not_found&#45;&gt;error::canonical -->
<g id="edge27" class="edge">
<title>error::not_found&#45;&gt;error::canonical</title>
<path fill="none" stroke="black" d="M1300,-264.82C1300,-254.69 1300,-241.6 1300,-229.92"/>
<polygon fill="black" stroke="black" points="1303.5,-229.95 1300,-219.95 1296.5,-229.95 1303.5,-229.95"/>
</g>
<!-- aptos_account::assert_account_exists&#45;&gt;error::not_found -->
<g id="edge28" class="edge">
<title>aptos_account::assert_account_exists&#45;&gt;error::not_found</title>
<path fill="none" stroke="black" d="M1389.67,-349.67C1378.45,-344.66 1366.44,-338.64 1356,-332 1345.03,-325.02 1333.95,-316.03 1324.58,-307.71"/>
<polygon fill="black" stroke="black" points="1327.03,-305.22 1317.29,-301.06 1322.31,-310.39 1327.03,-305.22"/>
</g>
<!-- account::exists_at -->
<g id="node23" class="node">
<title>account::exists_at</title>
<ellipse fill="none" stroke="black" cx="1563" cy="-283" rx="41.69" ry="18"/>
<text text-anchor="middle" x="1563" y="-279.3" font-family="Times,serif" font-size="14.00">exists_at</text>
</g>
<!-- aptos_account::assert_account_exists&#45;&gt;account::exists_at -->
<g id="edge29" class="edge">
<title>aptos_account::assert_account_exists&#45;&gt;account::exists_at</title>
<path fill="none" stroke="black" d="M1472.66,-350.08C1484.83,-345.1 1497.79,-339.01 1509,-332 1519.96,-325.14 1530.85,-316.03 1539.94,-307.58"/>
<polygon fill="black" stroke="black" points="1542.18,-310.29 1546.97,-300.84 1537.33,-305.24 1542.18,-310.29"/>
</g>
<!-- option::extract&#45;&gt;option::is_some -->
<g id="edge30" class="edge">
<title>option::extract&#45;&gt;option::is_some</title>
<path fill="none" stroke="black" d="M853.73,-181.82C852.97,-171.58 851.99,-158.33 851.11,-146.55"/>
<polygon fill="black" stroke="black" points="854.63,-146.66 850.4,-136.94 847.65,-147.17 854.63,-146.66"/>
</g>
<!-- vector::is_empty -->
<g id="node24" class="node">
<title>vector::is_empty</title>
<ellipse fill="none" stroke="black" cx="764" cy="-34" rx="43.59" ry="18"/>
<text text-anchor="middle" x="764" y="-30.3" font-family="Times,serif" font-size="14.00">is_empty</text>
</g>
<!-- option::is_some&#45;&gt;vector::is_empty -->
<g id="edge31" class="edge">
<title>option::is_some&#45;&gt;vector::is_empty</title>
<path fill="none" stroke="black" d="M832.61,-100.38C820.23,-88.58 803.01,-72.18 788.92,-58.75"/>
<polygon fill="black" stroke="black" points="791.38,-56.26 781.72,-51.89 786.55,-61.32 791.38,-56.26"/>
</g>
<!-- error::invalid_argument&#45;&gt;error::canonical -->
<g id="edge32" class="edge">
<title>error::invalid_argument&#45;&gt;error::canonical</title>
<path fill="none" stroke="black" d="M1189.26,-266C1211.26,-253.09 1242.31,-234.86 1265.94,-220.99"/>
<polygon fill="black" stroke="black" points="1267.41,-224.19 1274.26,-216.11 1263.87,-218.15 1267.41,-224.19"/>
</g>
<!-- option::none -->
<g id="node25" class="node">
<title>option::none</title>
<ellipse fill="none" stroke="black" cx="680" cy="-200" rx="27.9" ry="18"/>
<text text-anchor="middle" x="680" y="-196.3" font-family="Times,serif" font-size="14.00">none</text>
</g>
<!-- simple_map::find&#45;&gt;option::none -->
<g id="edge33" class="edge">
<title>simple_map::find&#45;&gt;option::none</title>
<path fill="none" stroke="black" d="M685.52,-264.82C684.63,-254.58 683.48,-241.33 682.47,-229.55"/>
<polygon fill="black" stroke="black" points="685.98,-229.6 681.64,-219.94 679.01,-230.2 685.98,-229.6"/>
</g>
<!-- option::some -->
<g id="node26" class="node">
<title>option::some</title>
<ellipse fill="none" stroke="black" cx="604" cy="-200" rx="29.8" ry="18"/>
<text text-anchor="middle" x="604" y="-196.3" font-family="Times,serif" font-size="14.00">some</text>
</g>
<!-- simple_map::find&#45;&gt;option::some -->
<g id="edge34" class="edge">
<title>simple_map::find&#45;&gt;option::some</title>
<path fill="none" stroke="black" d="M668.65,-269.77C660.43,-263.92 650.85,-256.55 643,-249 635.74,-242.01 628.56,-233.7 622.38,-225.97"/>
<polygon fill="black" stroke="black" points="625.22,-223.92 616.32,-218.16 619.68,-228.2 625.22,-223.92"/>
</g>
<!-- comparator::compare -->
<g id="node27" class="node">
<title>comparator::compare</title>
<ellipse fill="none" stroke="black" cx="356" cy="-200" rx="41.69" ry="18"/>
<text text-anchor="middle" x="356" y="-196.3" font-family="Times,serif" font-size="14.00">compare</text>
</g>
<!-- simple_map::find&#45;&gt;comparator::compare -->
<g id="edge35" class="edge">
<title>simple_map::find&#45;&gt;comparator::compare</title>
<path fill="none" stroke="black" d="M659.95,-280.96C598.77,-278.27 451.59,-269.78 407,-249 395.31,-243.55 384.55,-234.37 375.95,-225.49"/>
<polygon fill="black" stroke="black" points="378.75,-223.37 369.44,-218.32 373.57,-228.08 378.75,-223.37"/>
</g>
<!-- comparator::is_smaller_than -->
<g id="node28" class="node">
<title>comparator::is_smaller_than</title>
<ellipse fill="none" stroke="black" cx="483" cy="-200" rx="66.89" ry="18"/>
<text text-anchor="middle" x="483" y="-196.3" font-family="Times,serif" font-size="14.00">is_smaller_than</text>
</g>
<!-- simple_map::find&#45;&gt;comparator::is_smaller_than -->
<g id="edge36" class="edge">
<title>simple_map::find&#45;&gt;comparator::is_smaller_than</title>
<path fill="none" stroke="black" d="M660.91,-277.39C635.11,-272.31 594.84,-262.96 562,-249 545.96,-242.18 529.3,-232.5 515.45,-223.62"/>
<polygon fill="black" stroke="black" points="517.44,-220.75 507.17,-218.18 513.6,-226.6 517.44,-220.75"/>
</g>
<!-- option::is_none&#45;&gt;vector::is_empty -->
<g id="edge37" class="edge">
<title>option::is_none&#45;&gt;vector::is_empty</title>
<path fill="none" stroke="black" d="M764,-181.76C764,-153.63 764,-97.6 764,-63.49"/>
<polygon fill="black" stroke="black" points="767.5,-63.52 764,-53.52 760.5,-63.52 767.5,-63.52"/>
</g>
<!-- simple_map::borrow&#45;&gt;option::extract -->
<g id="edge38" class="edge">
<title>simple_map::borrow&#45;&gt;option::extract</title>
<path fill="none" stroke="black" d="M896.16,-347.76C888.24,-319.51 872.42,-263.11 862.87,-229.04"/>
<polygon fill="black" stroke="black" points="866.25,-228.15 860.18,-219.47 859.51,-230.04 866.25,-228.15"/>
</g>
<!-- simple_map::borrow&#45;&gt;option::is_some -->
<g id="edge39" class="edge">
<title>simple_map::borrow&#45;&gt;option::is_some</title>
<path fill="none" stroke="black" d="M910.1,-348.3C927.64,-313.65 961.8,-232.33 931,-174 921.87,-156.7 904.72,-143.74 888.46,-134.67"/>
<polygon fill="black" stroke="black" points="890.37,-131.71 879.88,-130.21 887.14,-137.92 890.37,-131.71"/>
</g>
<!-- simple_map::borrow&#45;&gt;error::invalid_argument -->
<g id="edge40" class="edge">
<title>simple_map::borrow&#45;&gt;error::invalid_argument</title>
<path fill="none" stroke="black" d="M921.66,-350.99C929.03,-346.69 937.59,-342.45 946,-340 1001.99,-323.65 1021.06,-348.54 1077,-332 1095.66,-326.48 1114.69,-316.25 1129.99,-306.65"/>
<polygon fill="black" stroke="black" points="1131.73,-309.7 1138.2,-301.32 1127.91,-303.83 1131.73,-309.7"/>
</g>
<!-- simple_map::borrow&#45;&gt;simple_map::find -->
<g id="edge41" class="edge">
<title>simple_map::borrow&#45;&gt;simple_map::find</title>
<path fill="none" stroke="black" d="M878.47,-351.73C871.12,-347.68 862.84,-343.4 855,-340 810.54,-320.69 757.11,-303.92 722.63,-293.89"/>
<polygon fill="black" stroke="black" points="723.74,-290.57 713.16,-291.17 721.81,-297.29 723.74,-290.57"/>
</g>
<!-- signer::borrow_address -->
<g id="node29" class="node">
<title>signer::borrow_address</title>
<ellipse fill="none" stroke="black" cx="1696" cy="-283" rx="66.89" ry="18"/>
<text text-anchor="middle" x="1696" y="-279.3" font-family="Times,serif" font-size="14.00">borrow_address</text>
</g>
<!-- signer::address_of&#45;&gt;signer::borrow_address -->
<g id="edge42" class="edge">
<title>signer::address_of&#45;&gt;signer::borrow_address</title>
<path fill="none" stroke="black" d="M1688.91,-347.82C1690.05,-337.58 1691.52,-324.33 1692.83,-312.55"/>
<polygon fill="black" stroke="black" points="1696.27,-313.26 1693.9,-302.94 1689.31,-312.49 1696.27,-313.26"/>
</g>
<!-- error::unauthenticated&#45;&gt;error::canonical -->
<g id="edge43" class="edge">
<title>error::unauthenticated&#45;&gt;error::canonical</title>
<path fill="none" stroke="black" d="M1405.12,-266C1384.56,-253.28 1355.65,-235.41 1333.35,-221.62"/>
<polygon fill="black" stroke="black" points="1335.26,-218.69 1324.91,-216.4 1331.58,-224.64 1335.26,-218.69"/>
</g>
<!-- vector::singleton -->
<g id="node30" class="node">
<title>vector::singleton</title>
<ellipse fill="none" stroke="black" cx="660" cy="-34" rx="42.79" ry="18"/>
<text text-anchor="middle" x="660" y="-30.3" font-family="Times,serif" font-size="14.00">singleton</text>
</g>
<!-- option::some&#45;&gt;vector::singleton -->
<g id="edge44" class="edge">
<title>option::some&#45;&gt;vector::singleton</title>
<path fill="none" stroke="black" d="M609.78,-182.07C619.42,-153.83 638.87,-96.87 650.53,-62.72"/>
<polygon fill="black" stroke="black" points="653.76,-64.11 653.68,-53.52 647.13,-61.85 653.76,-64.11"/>
</g>
<!-- comparator::compare&#45;&gt;bcs::to_bytes -->
<g id="edge45" class="edge">
<title>comparator::compare&#45;&gt;bcs::to_bytes</title>
<path fill="none" stroke="black" d="M331.14,-185.2C321.74,-179.63 311.12,-172.89 302,-166 292.29,-158.67 282.32,-149.83 273.73,-141.74"/>
<polygon fill="black" stroke="black" points="276.4,-139.45 266.76,-135.04 271.55,-144.5 276.4,-139.45"/>
</g>
<!-- comparator::compare_u8_vector -->
<g id="node31" class="node">
<title>comparator::compare_u8_vector</title>
<ellipse fill="none" stroke="black" cx="395" cy="-117" rx="81.49" ry="18"/>
<text text-anchor="middle" x="395" y="-113.3" font-family="Times,serif" font-size="14.00">compare_u8_vector</text>
</g>
<!-- comparator::compare&#45;&gt;comparator::compare_u8_vector -->
<g id="edge46" class="edge">
<title>comparator::compare&#45;&gt;comparator::compare_u8_vector</title>
<path fill="none" stroke="black" d="M364.08,-182.22C369.19,-171.61 375.91,-157.65 381.78,-145.45"/>
<polygon fill="black" stroke="black" points="384.82,-147.21 386,-136.68 378.51,-144.18 384.82,-147.21"/>
</g>
</g>
</svg>
