<?xml version="1.0" encoding="UTF-8" standalone="no"?>
<!DOCTYPE svg PUBLIC "-//W3C//DTD SVG 1.1//EN"
 "http://www.w3.org/Graphics/SVG/1.1/DTD/svg11.dtd">
<!-- Generated by graphviz version 7.0.0 (20221023.0053)
 -->
<!-- Title: G Pages: 1 -->
<svg width="2585pt" height="531pt"
 viewBox="0.00 0.00 2585.00 531.00" xmlns="http://www.w3.org/2000/svg" xmlns:xlink="http://www.w3.org/1999/xlink">
<g id="graph0" class="graph" transform="scale(1 1) rotate(0) translate(4 527)">
<title>G</title>
<polygon fill="white" stroke="none" points="-4,4 -4,-527 2581,-527 2581,4 -4,4"/>
<g id="clust1" class="cluster">
<title>cluster_vector</title>
<polygon fill="none" stroke="black" points="1655,-8 1655,-155 1849,-155 1849,-8 1655,-8"/>
<text text-anchor="middle" x="1752" y="-139.8" font-family="Times,serif" font-size="14.00">vector</text>
</g>
<g id="clust2" class="cluster">
<title>cluster_signer</title>
<polygon fill="none" stroke="black" points="2419,-80 2419,-238 2569,-238 2569,-80 2419,-80"/>
<text text-anchor="middle" x="2494" y="-222.8" font-family="Times,serif" font-size="14.00">signer</text>
</g>
<g id="clust3" class="cluster">
<title>cluster_bcs</title>
<polygon fill="none" stroke="black" points="305,-80 305,-155 401,-155 401,-80 305,-80"/>
<text text-anchor="middle" x="353" y="-139.8" font-family="Times,serif" font-size="14.00">bcs</text>
</g>
<g id="clust4" class="cluster">
<title>cluster_account</title>
<polygon fill="none" stroke="black" points="334,-163 334,-404 1219,-404 1219,-163 334,-163"/>
<text text-anchor="middle" x="776.5" y="-388.8" font-family="Times,serif" font-size="14.00">account</text>
</g>
<g id="clust5" class="cluster">
<title>cluster_coin</title>
<polygon fill="none" stroke="black" points="1867,-329 1867,-479 2057,-479 2057,-329 1867,-329"/>
<text text-anchor="middle" x="1962" y="-463.8" font-family="Times,serif" font-size="14.00">coin</text>
</g>
<g id="clust6" class="cluster">
<title>cluster_option</title>
<polygon fill="none" stroke="black" points="1583,-163 1583,-238 1827,-238 1827,-163 1583,-163"/>
<text text-anchor="middle" x="1705" y="-222.8" font-family="Times,serif" font-size="14.00">option</text>
</g>
<g id="clust7" class="cluster">
<title>cluster_error</title>
<polygon fill="none" stroke="black" points="1867,-80 1867,-238 2411,-238 2411,-80 1867,-80"/>
<text text-anchor="middle" x="2139" y="-222.8" font-family="Times,serif" font-size="14.00">error</text>
</g>
<g id="clust8" class="cluster">
<title>cluster_guid</title>
<polygon fill="none" stroke="black" points="1383,-163 1383,-238 1463,-238 1463,-163 1383,-163"/>
<text text-anchor="middle" x="1423" y="-222.8" font-family="Times,serif" font-size="14.00">guid</text>
</g>
<g id="clust9" class="cluster">
<title>cluster_event</title>
<polygon fill="none" stroke="black" points="8,-80 8,-238 296,-238 296,-80 8,-80"/>
<text text-anchor="middle" x="152" y="-222.8" font-family="Times,serif" font-size="14.00">event</text>
</g>
<g id="clust10" class="cluster">
<title>cluster_hash</title>
<polygon fill="none" stroke="black" points="1471,-163 1471,-238 1575,-238 1575,-163 1471,-163"/>
<text text-anchor="middle" x="1523" y="-222.8" font-family="Times,serif" font-size="14.00">hash</text>
</g>
<g id="clust11" class="cluster">
<title>cluster_from_bcs</title>
<polygon fill="none" stroke="black" points="1227,-80 1227,-238 1345,-238 1345,-80 1227,-80"/>
<text text-anchor="middle" x="1286" y="-222.8" font-family="Times,serif" font-size="14.00">from_bcs</text>
</g>
<g id="clust12" class="cluster">
<title>cluster_type_info</title>
<polygon fill="none" stroke="black" points="1335,-246 1335,-321 1427,-321 1427,-246 1335,-246"/>
<text text-anchor="middle" x="1381" y="-305.8" font-family="Times,serif" font-size="14.00">type_info</text>
</g>
<!-- create_vesting_contract_account -->
<g id="node1" class="node">
<title>create_vesting_contract_account</title>
<ellipse fill="none" stroke="black" cx="1847" cy="-505" rx="126.18" ry="18"/>
<text text-anchor="middle" x="1847" y="-501.3" font-family="Times,serif" font-size="14.00">create_vesting_contract_account</text>
</g>
<!-- vector::append -->
<g id="node2" class="node">
<title>vector::append</title>
<ellipse fill="none" stroke="black" cx="1701" cy="-106" rx="36.29" ry="18"/>
<text text-anchor="middle" x="1701" y="-102.3" font-family="Times,serif" font-size="14.00">append</text>
</g>
<!-- create_vesting_contract_account&#45;&gt;vector::append -->
<g id="edge1" class="edge">
<title>create_vesting_contract_account&#45;&gt;vector::append</title>
<path fill="none" stroke="black" d="M1847,-486.68C1847,-459.05 1847,-403.28 1847,-356 1847,-356 1847,-356 1847,-271 1847,-222.48 1866.21,-196.39 1831,-163 1817.23,-149.95 1763.04,-163.35 1746,-155 1735.34,-149.78 1725.92,-140.89 1718.49,-132.16"/>
<polygon fill="black" stroke="black" points="1721.38,-130.17 1712.44,-124.49 1715.88,-134.51 1721.38,-130.17"/>
</g>
<!-- signer::address_of -->
<g id="node3" class="node">
<title>signer::address_of</title>
<ellipse fill="none" stroke="black" cx="2476" cy="-189" rx="48.99" ry="18"/>
<text text-anchor="middle" x="2476" y="-185.3" font-family="Times,serif" font-size="14.00">address_of</text>
</g>
<!-- create_vesting_contract_account&#45;&gt;signer::address_of -->
<g id="edge2" class="edge">
<title>create_vesting_contract_account&#45;&gt;signer::address_of</title>
<path fill="none" stroke="black" d="M1962.16,-497.36C1994.55,-493.67 2029.51,-487.92 2061,-479 2208.26,-437.27 2249.77,-419.41 2367,-321 2404.3,-289.69 2438.69,-244.49 2458.5,-216.2"/>
<polygon fill="black" stroke="black" points="2461.22,-218.42 2464.02,-208.2 2455.46,-214.44 2461.22,-218.42"/>
</g>
<!-- bcs::to_bytes -->
<g id="node4" class="node">
<title>bcs::to_bytes</title>
<ellipse fill="none" stroke="black" cx="353" cy="-106" rx="40.09" ry="18"/>
<text text-anchor="middle" x="353" y="-102.3" font-family="Times,serif" font-size="14.00">to_bytes</text>
</g>
<!-- create_vesting_contract_account&#45;&gt;bcs::to_bytes -->
<g id="edge3" class="edge">
<title>create_vesting_contract_account&#45;&gt;bcs::to_bytes</title>
<path fill="none" stroke="black" d="M1724.44,-500.45C1371.91,-489.65 377.33,-454.8 330,-404 260.12,-328.99 312.25,-192.07 339.34,-134.09"/>
<polygon fill="black" stroke="black" points="342.4,-135.8 343.57,-125.27 336.09,-132.77 342.4,-135.8"/>
</g>
<!-- account::create_resource_account -->
<g id="node5" class="node">
<title>account::create_resource_account</title>
<ellipse fill="none" stroke="black" cx="1114" cy="-355" rx="97.48" ry="18"/>
<text text-anchor="middle" x="1114" y="-351.3" font-family="Times,serif" font-size="14.00">create_resource_account</text>
</g>
<!-- create_vesting_contract_account&#45;&gt;account::create_resource_account -->
<g id="edge4" class="edge">
<title>create_vesting_contract_account&#45;&gt;account::create_resource_account</title>
<path fill="none" stroke="black" d="M1776.05,-489.67C1637.35,-461.67 1331.43,-399.9 1189.3,-371.2"/>
<polygon fill="black" stroke="black" points="1190.1,-367.8 1179.61,-369.25 1188.72,-374.66 1190.1,-367.8"/>
</g>
<!-- coin::register -->
<g id="node6" class="node">
<title>coin::register</title>
<ellipse fill="none" stroke="black" cx="1937" cy="-430" rx="37.09" ry="18"/>
<text text-anchor="middle" x="1937" y="-426.3" font-family="Times,serif" font-size="14.00">register</text>
</g>
<!-- create_vesting_contract_account&#45;&gt;coin::register -->
<g id="edge5" class="edge">
<title>create_vesting_contract_account&#45;&gt;coin::register</title>
<path fill="none" stroke="black" d="M1867.87,-487.07C1880.36,-476.94 1896.37,-463.95 1909.84,-453.03"/>
<polygon fill="black" stroke="black" points="1911.94,-455.83 1917.5,-446.81 1907.53,-450.4 1911.94,-455.83"/>
</g>
<!-- vector::is_empty -->
<g id="node7" class="node">
<title>vector::is_empty</title>
<ellipse fill="none" stroke="black" cx="1707" cy="-34" rx="43.59" ry="18"/>
<text text-anchor="middle" x="1707" y="-30.3" font-family="Times,serif" font-size="14.00">is_empty</text>
</g>
<!-- vector::append&#45;&gt;vector::is_empty -->
<g id="edge6" class="edge">
<title>vector::append&#45;&gt;vector::is_empty</title>
<path fill="none" stroke="black" d="M1702.48,-87.7C1703.11,-80.41 1703.85,-71.73 1704.55,-63.54"/>
<polygon fill="black" stroke="black" points="1708.04,-63.87 1705.4,-53.61 1701.06,-63.28 1708.04,-63.87"/>
</g>
<!-- vector::reverse -->
<g id="node8" class="node">
<title>vector::reverse</title>
<ellipse fill="none" stroke="black" cx="1805" cy="-34" rx="36.29" ry="18"/>
<text text-anchor="middle" x="1805" y="-30.3" font-family="Times,serif" font-size="14.00">reverse</text>
</g>
<!-- vector::append&#45;&gt;vector::reverse -->
<g id="edge7" class="edge">
<title>vector::append&#45;&gt;vector::reverse</title>
<path fill="none" stroke="black" d="M1722.05,-90.83C1737.13,-80.68 1757.68,-66.85 1774.55,-55.5"/>
<polygon fill="black" stroke="black" points="1776.39,-58.48 1782.73,-49.99 1772.48,-52.67 1776.39,-58.48"/>
</g>
<!-- signer::borrow_address -->
<g id="node9" class="node">
<title>signer::borrow_address</title>
<ellipse fill="none" stroke="black" cx="2494" cy="-106" rx="66.89" ry="18"/>
<text text-anchor="middle" x="2494" y="-102.3" font-family="Times,serif" font-size="14.00">borrow_address</text>
</g>
<!-- signer::address_of&#45;&gt;signer::borrow_address -->
<g id="edge8" class="edge">
<title>signer::address_of&#45;&gt;signer::borrow_address</title>
<path fill="none" stroke="black" d="M2479.82,-170.82C2482.09,-160.58 2485.04,-147.33 2487.66,-135.55"/>
<polygon fill="black" stroke="black" points="2491.05,-136.43 2489.8,-125.91 2484.21,-134.91 2491.05,-136.43"/>
</g>
<!-- account::create_resource_account&#45;&gt;signer::address_of -->
<g id="edge11" class="edge">
<title>account::create_resource_account&#45;&gt;signer::address_of</title>
<path fill="none" stroke="black" d="M1209.68,-351.14C1333.27,-346.95 1554.99,-337.76 1744,-321 2011.25,-297.3 2076.55,-277.48 2343,-246 2374.97,-242.22 2385.2,-250.2 2415,-238 2428.64,-232.41 2441.76,-222.84 2452.31,-213.7"/>
<polygon fill="black" stroke="black" points="2454.37,-216.57 2459.41,-207.25 2449.66,-211.39 2454.37,-216.57"/>
</g>
<!-- option::is_none -->
<g id="node10" class="node">
<title>option::is_none</title>
<ellipse fill="none" stroke="black" cx="1703" cy="-189" rx="38.19" ry="18"/>
<text text-anchor="middle" x="1703" y="-185.3" font-family="Times,serif" font-size="14.00">is_none</text>
</g>
<!-- account::create_resource_account&#45;&gt;option::is_none -->
<g id="edge9" class="edge">
<title>account::create_resource_account&#45;&gt;option::is_none</title>
<path fill="none" stroke="black" d="M1180.85,-341.5C1194.77,-336.71 1208.65,-330.1 1220,-321 1249.97,-296.96 1229.95,-265.6 1263,-246 1281.78,-234.86 1635.96,-246.67 1656,-238 1667.24,-233.14 1677.17,-224.19 1684.97,-215.33"/>
<polygon fill="black" stroke="black" points="1687.48,-217.78 1691.07,-207.82 1682.05,-213.37 1687.48,-217.78"/>
</g>
<!-- option::some -->
<g id="node11" class="node">
<title>option::some</title>
<ellipse fill="none" stroke="black" cx="1789" cy="-189" rx="29.8" ry="18"/>
<text text-anchor="middle" x="1789" y="-185.3" font-family="Times,serif" font-size="14.00">some</text>
</g>
<!-- account::create_resource_account&#45;&gt;option::some -->
<g id="edge10" class="edge">
<title>account::create_resource_account&#45;&gt;option::some</title>
<path fill="none" stroke="black" d="M1198.07,-345.62C1218.06,-340.69 1238.39,-332.99 1255,-321 1286.71,-298.11 1267.05,-265.4 1301,-246 1322.66,-233.62 1727.57,-248.92 1750,-238 1759.82,-233.22 1767.99,-224.66 1774.28,-216.08"/>
<polygon fill="black" stroke="black" points="1777.13,-218.12 1779.72,-207.84 1771.29,-214.25 1777.13,-218.12"/>
</g>
<!-- error::already_exists -->
<g id="node12" class="node">
<title>error::already_exists</title>
<ellipse fill="none" stroke="black" cx="2342" cy="-189" rx="61.19" ry="18"/>
<text text-anchor="middle" x="2342" y="-185.3" font-family="Times,serif" font-size="14.00">already_exists</text>
</g>
<!-- account::create_resource_account&#45;&gt;error::already_exists -->
<g id="edge12" class="edge">
<title>account::create_resource_account&#45;&gt;error::already_exists</title>
<path fill="none" stroke="black" d="M1198.48,-345.69C1262.38,-339.29 1352.25,-330.04 1431,-321 1697.11,-290.46 1761.97,-267.1 2029,-246 2055.93,-243.87 2246.33,-246.42 2272,-238 2287.62,-232.88 2302.92,-223.1 2315.21,-213.7"/>
<polygon fill="black" stroke="black" points="2317.19,-216.61 2322.8,-207.62 2312.81,-211.14 2317.19,-216.61"/>
</g>
<!-- error::invalid_state -->
<g id="node13" class="node">
<title>error::invalid_state</title>
<ellipse fill="none" stroke="black" cx="2207" cy="-189" rx="55.79" ry="18"/>
<text text-anchor="middle" x="2207" y="-185.3" font-family="Times,serif" font-size="14.00">invalid_state</text>
</g>
<!-- account::create_resource_account&#45;&gt;error::invalid_state -->
<g id="edge13" class="edge">
<title>account::create_resource_account&#45;&gt;error::invalid_state</title>
<path fill="none" stroke="black" d="M1198.02,-345.52C1236.45,-340.24 1276.78,-332.27 1292,-321 1322.2,-298.64 1298.98,-265.66 1331,-246 1350.2,-234.21 2120.64,-245.15 2142,-238 2156.8,-233.05 2171.01,-223.33 2182.35,-213.93"/>
<polygon fill="black" stroke="black" points="2184.43,-216.77 2189.65,-207.55 2179.82,-211.5 2184.43,-216.77"/>
</g>
<!-- account::create_account_unchecked -->
<g id="node14" class="node">
<title>account::create_account_unchecked</title>
<ellipse fill="none" stroke="black" cx="699" cy="-272" rx="105.08" ry="18"/>
<text text-anchor="middle" x="699" y="-268.3" font-family="Times,serif" font-size="14.00">create_account_unchecked</text>
</g>
<!-- account::create_resource_account&#45;&gt;account::create_account_unchecked -->
<g id="edge14" class="edge">
<title>account::create_resource_account&#45;&gt;account::create_account_unchecked</title>
<path fill="none" stroke="black" d="M1061.26,-339.47C1044.38,-335.39 1025.51,-331.4 1008,-329 922.51,-317.26 898.25,-339.69 814,-321 788.7,-315.39 761.91,-304.52 740.55,-294.54"/>
<polygon fill="black" stroke="black" points="742.12,-291.42 731.59,-290.25 739.09,-297.73 742.12,-291.42"/>
</g>
<!-- account::create_resource_address -->
<g id="node15" class="node">
<title>account::create_resource_address</title>
<ellipse fill="none" stroke="black" cx="479" cy="-272" rx="96.68" ry="18"/>
<text text-anchor="middle" x="479" y="-268.3" font-family="Times,serif" font-size="14.00">create_resource_address</text>
</g>
<!-- account::create_resource_account&#45;&gt;account::create_resource_address -->
<g id="edge15" class="edge">
<title>account::create_resource_account&#45;&gt;account::create_resource_address</title>
<path fill="none" stroke="black" d="M1061.83,-339.37C1044.81,-335.22 1025.73,-331.23 1008,-329 961.36,-323.13 630.85,-331.35 585,-321 561.45,-315.68 536.78,-304.87 517.18,-294.85"/>
<polygon fill="black" stroke="black" points="518.95,-291.83 508.47,-290.26 515.69,-298.02 518.95,-291.83"/>
</g>
<!-- account::create_signer -->
<g id="node16" class="node">
<title>account::create_signer</title>
<ellipse fill="none" stroke="black" cx="659" cy="-189" rx="57.69" ry="18"/>
<text text-anchor="middle" x="659" y="-185.3" font-family="Times,serif" font-size="14.00">create_signer</text>
</g>
<!-- account::create_resource_account&#45;&gt;account::create_signer -->
<g id="edge16" class="edge">
<title>account::create_resource_account&#45;&gt;account::create_signer</title>
<path fill="none" stroke="black" d="M1062.11,-339.36C1045.02,-335.19 1025.83,-331.18 1008,-329 998.94,-327.89 357.41,-327.49 351,-321 327.57,-297.29 329.64,-271.59 351,-246 380.89,-210.18 509.2,-197.22 590.49,-192.57"/>
<polygon fill="black" stroke="black" points="590.33,-196.08 600.12,-192.05 589.95,-189.09 590.33,-196.08"/>
</g>
<!-- account::exists_at -->
<g id="node17" class="node">
<title>account::exists_at</title>
<ellipse fill="none" stroke="black" cx="866" cy="-189" rx="41.69" ry="18"/>
<text text-anchor="middle" x="866" y="-185.3" font-family="Times,serif" font-size="14.00">exists_at</text>
</g>
<!-- account::create_resource_account&#45;&gt;account::exists_at -->
<g id="edge17" class="edge">
<title>account::create_resource_account&#45;&gt;account::exists_at</title>
<path fill="none" stroke="black" d="M1062.11,-339.37C1045.02,-335.19 1025.83,-331.19 1008,-329 990.49,-326.85 385.39,-333.55 373,-321 349.58,-297.28 349.7,-269.84 373,-246 386.71,-231.97 706.69,-241.44 726,-238 761.28,-231.71 799.68,-218.02 827.32,-206.87"/>
<polygon fill="black" stroke="black" points="828.42,-210.2 836.33,-203.16 825.75,-203.73 828.42,-210.2"/>
</g>
<!-- account::rotate_authentication_key_internal -->
<g id="node18" class="node">
<title>account::rotate_authentication_key_internal</title>
<ellipse fill="none" stroke="black" cx="956" cy="-272" rx="133.48" ry="18"/>
<text text-anchor="middle" x="956" y="-268.3" font-family="Times,serif" font-size="14.00">rotate_authentication_key_internal</text>
</g>
<!-- account::create_resource_account&#45;&gt;account::rotate_authentication_key_internal -->
<g id="edge18" class="edge">
<title>account::create_resource_account&#45;&gt;account::rotate_authentication_key_internal</title>
<path fill="none" stroke="black" d="M1082.03,-337.61C1058.14,-325.37 1025.25,-308.5 999.05,-295.07"/>
<polygon fill="black" stroke="black" points="1000.86,-292.06 990.36,-290.62 997.66,-298.29 1000.86,-292.06"/>
</g>
<!-- coin::register&#45;&gt;signer::address_of -->
<g id="edge19" class="edge">
<title>coin::register&#45;&gt;signer::address_of</title>
<path fill="none" stroke="black" d="M1974.32,-428.73C2014.7,-427.43 2080.51,-422.32 2134,-404 2263.04,-359.81 2393.66,-259.02 2448.78,-213.31"/>
<polygon fill="black" stroke="black" points="2450.99,-216.03 2456.42,-206.92 2446.5,-210.66 2450.99,-216.03"/>
</g>
<!-- coin::register&#45;&gt;error::already_exists -->
<g id="edge20" class="edge">
<title>coin::register&#45;&gt;error::already_exists</title>
<path fill="none" stroke="black" d="M1973.5,-425.7C1998.21,-422.46 2031.13,-416.15 2058,-404 2165.76,-355.26 2271.28,-259.63 2317.57,-214.58"/>
<polygon fill="black" stroke="black" points="2319.75,-217.34 2324.43,-207.84 2314.84,-212.35 2319.75,-217.34"/>
</g>
<!-- account::new_event_handle -->
<g id="node19" class="node">
<title>account::new_event_handle</title>
<ellipse fill="none" stroke="black" cx="791" cy="-355" rx="76.89" ry="18"/>
<text text-anchor="middle" x="791" y="-351.3" font-family="Times,serif" font-size="14.00">new_event_handle</text>
</g>
<!-- coin::register&#45;&gt;account::new_event_handle -->
<g id="edge21" class="edge">
<title>coin::register&#45;&gt;account::new_event_handle</title>
<path fill="none" stroke="black" d="M1899.67,-429.19C1723.11,-429.97 976.14,-431.59 876,-404 857.1,-398.79 837.93,-388.49 822.59,-378.77"/>
<polygon fill="black" stroke="black" points="824.64,-375.93 814.36,-373.35 820.79,-381.77 824.64,-375.93"/>
</g>
<!-- account::register_coin -->
<g id="node20" class="node">
<title>account::register_coin</title>
<ellipse fill="none" stroke="black" cx="942" cy="-355" rx="56.59" ry="18"/>
<text text-anchor="middle" x="942" y="-351.3" font-family="Times,serif" font-size="14.00">register_coin</text>
</g>
<!-- coin::register&#45;&gt;account::register_coin -->
<g id="edge22" class="edge">
<title>coin::register&#45;&gt;account::register_coin</title>
<path fill="none" stroke="black" d="M1899.46,-429.3C1736.32,-430.43 1093.25,-433 1008,-404 993.08,-398.92 978.66,-389.19 967.13,-379.81"/>
<polygon fill="black" stroke="black" points="969.56,-377.29 959.69,-373.45 965.01,-382.61 969.56,-377.29"/>
</g>
<!-- coin::is_account_registered -->
<g id="node21" class="node">
<title>coin::is_account_registered</title>
<ellipse fill="none" stroke="black" cx="1962" cy="-355" rx="87.18" ry="18"/>
<text text-anchor="middle" x="1962" y="-351.3" font-family="Times,serif" font-size="14.00">is_account_registered</text>
</g>
<!-- coin::register&#45;&gt;coin::is_account_registered -->
<g id="edge23" class="edge">
<title>coin::register&#45;&gt;coin::is_account_registered</title>
<path fill="none" stroke="black" d="M1942.8,-412.07C1945.66,-403.71 1949.19,-393.42 1952.43,-383.94"/>
<polygon fill="black" stroke="black" points="1955.64,-385.37 1955.57,-374.78 1949.02,-383.1 1955.64,-385.37"/>
</g>
<!-- option::is_none&#45;&gt;vector::is_empty -->
<g id="edge24" class="edge">
<title>option::is_none&#45;&gt;vector::is_empty</title>
<path fill="none" stroke="black" d="M1676.54,-175.71C1668.45,-170.54 1660.51,-163.67 1656,-155 1640.63,-125.42 1642.29,-110.38 1656,-80 1660.05,-71.03 1666.87,-63.12 1674.23,-56.55"/>
<polygon fill="black" stroke="black" points="1676.24,-59.42 1681.8,-50.41 1671.83,-53.99 1676.24,-59.42"/>
</g>
<!-- vector::singleton -->
<g id="node22" class="node">
<title>vector::singleton</title>
<ellipse fill="none" stroke="black" cx="1798" cy="-106" rx="42.79" ry="18"/>
<text text-anchor="middle" x="1798" y="-102.3" font-family="Times,serif" font-size="14.00">singleton</text>
</g>
<!-- option::some&#45;&gt;vector::singleton -->
<g id="edge25" class="edge">
<title>option::some&#45;&gt;vector::singleton</title>
<path fill="none" stroke="black" d="M1790.91,-170.82C1792.05,-160.58 1793.52,-147.33 1794.83,-135.55"/>
<polygon fill="black" stroke="black" points="1798.27,-136.26 1795.9,-125.94 1791.31,-135.49 1798.27,-136.26"/>
</g>
<!-- error::canonical -->
<g id="node23" class="node">
<title>error::canonical</title>
<ellipse fill="none" stroke="black" cx="2146" cy="-106" rx="44.39" ry="18"/>
<text text-anchor="middle" x="2146" y="-102.3" font-family="Times,serif" font-size="14.00">canonical</text>
</g>
<!-- error::already_exists&#45;&gt;error::canonical -->
<g id="edge26" class="edge">
<title>error::already_exists&#45;&gt;error::canonical</title>
<path fill="none" stroke="black" d="M2307.41,-173.71C2273.75,-159.79 2222.59,-138.65 2186.92,-123.91"/>
<polygon fill="black" stroke="black" points="2188.36,-120.72 2177.78,-120.14 2185.69,-127.19 2188.36,-120.72"/>
</g>
<!-- error::invalid_state&#45;&gt;error::canonical -->
<g id="edge27" class="edge">
<title>error::invalid_state&#45;&gt;error::canonical</title>
<path fill="none" stroke="black" d="M2194.36,-171.22C2185.96,-160.07 2174.77,-145.21 2165.28,-132.6"/>
<polygon fill="black" stroke="black" points="2168.14,-130.58 2159.32,-124.69 2162.54,-134.79 2168.14,-130.58"/>
</g>
<!-- account::create_account_unchecked&#45;&gt;bcs::to_bytes -->
<g id="edge30" class="edge">
<title>account::create_account_unchecked&#45;&gt;bcs::to_bytes</title>
<path fill="none" stroke="black" d="M643.8,-256.3C626.92,-251.19 608.47,-244.97 592,-238 514.78,-205.33 429.95,-155.12 385.05,-127.31"/>
<polygon fill="black" stroke="black" points="386.92,-124.36 376.59,-122.04 383.22,-130.3 386.92,-124.36"/>
</g>
<!-- account::create_account_unchecked&#45;&gt;account::create_signer -->
<g id="edge33" class="edge">
<title>account::create_account_unchecked&#45;&gt;account::create_signer</title>
<path fill="none" stroke="black" d="M690.52,-253.82C685.27,-243.19 678.41,-229.31 672.43,-217.2"/>
<polygon fill="black" stroke="black" points="675.71,-215.93 668.14,-208.51 669.43,-219.03 675.71,-215.93"/>
</g>
<!-- option::none -->
<g id="node24" class="node">
<title>option::none</title>
<ellipse fill="none" stroke="black" cx="1619" cy="-189" rx="27.9" ry="18"/>
<text text-anchor="middle" x="1619" y="-185.3" font-family="Times,serif" font-size="14.00">none</text>
</g>
<!-- account::create_account_unchecked&#45;&gt;option::none -->
<g id="edge28" class="edge">
<title>account::create_account_unchecked&#45;&gt;option::none</title>
<path fill="none" stroke="black" d="M755.06,-256.42C773.68,-252.22 794.61,-248.19 814,-246 835.12,-243.62 1559.8,-247.11 1579,-238 1589.22,-233.15 1597.75,-224.28 1604.27,-215.48"/>
<polygon fill="black" stroke="black" points="1607.03,-217.66 1609.7,-207.4 1601.22,-213.75 1607.03,-217.66"/>
</g>
<!-- error::invalid_argument -->
<g id="node25" class="node">
<title>error::invalid_argument</title>
<ellipse fill="none" stroke="black" cx="1948" cy="-189" rx="73.39" ry="18"/>
<text text-anchor="middle" x="1948" y="-185.3" font-family="Times,serif" font-size="14.00">invalid_argument</text>
</g>
<!-- account::create_account_unchecked&#45;&gt;error::invalid_argument -->
<g id="edge29" class="edge">
<title>account::create_account_unchecked&#45;&gt;error::invalid_argument</title>
<path fill="none" stroke="black" d="M755.06,-256.39C773.68,-252.19 794.61,-248.16 814,-246 870.15,-239.74 1775.61,-249.15 1831,-238 1857.82,-232.6 1886.25,-221.09 1908.37,-210.69"/>
<polygon fill="black" stroke="black" points="1909.84,-213.86 1917.33,-206.36 1906.8,-207.56 1909.84,-213.86"/>
</g>
<!-- guid::create -->
<g id="node26" class="node">
<title>guid::create</title>
<ellipse fill="none" stroke="black" cx="1423" cy="-189" rx="31.7" ry="18"/>
<text text-anchor="middle" x="1423" y="-185.3" font-family="Times,serif" font-size="14.00">create</text>
</g>
<!-- account::create_account_unchecked&#45;&gt;guid::create -->
<g id="edge31" class="edge">
<title>account::create_account_unchecked&#45;&gt;guid::create</title>
<path fill="none" stroke="black" d="M755.36,-256.4C773.91,-252.22 794.72,-248.21 814,-246 845.08,-242.44 1348.32,-250.48 1377,-238 1388.27,-233.1 1398.13,-223.96 1405.79,-214.97"/>
<polygon fill="black" stroke="black" points="1408.33,-217.4 1411.76,-207.38 1402.83,-213.07 1408.33,-217.4"/>
</g>
<!-- event::new_event_handle -->
<g id="node27" class="node">
<title>event::new_event_handle</title>
<ellipse fill="none" stroke="black" cx="211" cy="-189" rx="76.89" ry="18"/>
<text text-anchor="middle" x="211" y="-185.3" font-family="Times,serif" font-size="14.00">new_event_handle</text>
</g>
<!-- account::create_account_unchecked&#45;&gt;event::new_event_handle -->
<g id="edge32" class="edge">
<title>account::create_account_unchecked&#45;&gt;event::new_event_handle</title>
<path fill="none" stroke="black" d="M642.53,-256.46C624.29,-252.34 603.9,-248.35 585,-246 528.74,-239.01 385.48,-249.67 330,-238 302.9,-232.3 274.06,-220.82 251.56,-210.51"/>
<polygon fill="black" stroke="black" points="253.29,-207.46 242.75,-206.37 250.31,-213.79 253.29,-207.46"/>
</g>
<!-- account::create_resource_address&#45;&gt;vector::append -->
<g id="edge34" class="edge">
<title>account::create_resource_address&#45;&gt;vector::append</title>
<path fill="none" stroke="black" d="M530.61,-256.41C547.77,-252.21 567.08,-248.18 585,-246 606.07,-243.44 1331.49,-249.99 1349,-238 1378.62,-217.72 1351.11,-185.61 1379,-163 1420.43,-129.41 1574.67,-114.95 1653.69,-109.64"/>
<polygon fill="black" stroke="black" points="1653.51,-113.16 1663.27,-109.02 1653.06,-106.18 1653.51,-113.16"/>
</g>
<!-- account::create_resource_address&#45;&gt;bcs::to_bytes -->
<g id="edge36" class="edge">
<title>account::create_resource_address&#45;&gt;bcs::to_bytes</title>
<path fill="none" stroke="black" d="M465.75,-253.76C443.46,-224.74 398.35,-166.02 372.45,-132.32"/>
<polygon fill="black" stroke="black" points="375.48,-130.52 366.62,-124.72 369.93,-134.78 375.48,-130.52"/>
</g>
<!-- hash::sha3_256 -->
<g id="node28" class="node">
<title>hash::sha3_256</title>
<ellipse fill="none" stroke="black" cx="1523" cy="-189" rx="44.39" ry="18"/>
<text text-anchor="middle" x="1523" y="-185.3" font-family="Times,serif" font-size="14.00">sha3_256</text>
</g>
<!-- account::create_resource_address&#45;&gt;hash::sha3_256 -->
<g id="edge35" class="edge">
<title>account::create_resource_address&#45;&gt;hash::sha3_256</title>
<path fill="none" stroke="black" d="M530.61,-256.4C547.77,-252.2 567.07,-248.17 585,-246 609.32,-243.06 1444.06,-246.6 1467,-238 1480.17,-233.06 1492.34,-223.53 1501.96,-214.25"/>
<polygon fill="black" stroke="black" points="1504.19,-216.97 1508.65,-207.36 1499.17,-212.09 1504.19,-216.97"/>
</g>
<!-- from_bcs::to_address -->
<g id="node29" class="node">
<title>from_bcs::to_address</title>
<ellipse fill="none" stroke="black" cx="1284" cy="-189" rx="48.19" ry="18"/>
<text text-anchor="middle" x="1284" y="-185.3" font-family="Times,serif" font-size="14.00">to_address</text>
</g>
<!-- account::create_resource_address&#45;&gt;from_bcs::to_address -->
<g id="edge37" class="edge">
<title>account::create_resource_address&#45;&gt;from_bcs::to_address</title>
<path fill="none" stroke="black" d="M530.89,-256.37C547.98,-252.19 567.17,-248.19 585,-246 620.18,-241.68 1189.58,-249.81 1223,-238 1237.1,-233.02 1250.43,-223.34 1261.02,-213.97"/>
<polygon fill="black" stroke="black" points="1263.21,-216.71 1268.11,-207.32 1258.42,-211.61 1263.21,-216.71"/>
</g>
<!-- account::rotate_authentication_key_internal&#45;&gt;signer::address_of -->
<g id="edge38" class="edge">
<title>account::rotate_authentication_key_internal&#45;&gt;signer::address_of</title>
<path fill="none" stroke="black" d="M1026.11,-256.25C1048.93,-252.09 1074.44,-248.13 1098,-246 1134.44,-242.71 2380.47,-250.08 2415,-238 2429.11,-233.07 2442.45,-223.39 2453.03,-214.02"/>
<polygon fill="black" stroke="black" points="2455.23,-216.75 2460.13,-207.36 2450.44,-211.65 2455.23,-216.75"/>
</g>
<!-- account::rotate_authentication_key_internal&#45;&gt;account::exists_at -->
<g id="edge41" class="edge">
<title>account::rotate_authentication_key_internal&#45;&gt;account::exists_at</title>
<path fill="none" stroke="black" d="M936.91,-253.82C923.84,-242.05 906.33,-226.3 891.99,-213.39"/>
<polygon fill="black" stroke="black" points="894.43,-210.88 884.66,-206.79 889.75,-216.08 894.43,-210.88"/>
</g>
<!-- account::rotate_authentication_key_internal&#45;&gt;error::invalid_argument -->
<g id="edge39" class="edge">
<title>account::rotate_authentication_key_internal&#45;&gt;error::invalid_argument</title>
<path fill="none" stroke="black" d="M1026.11,-256.32C1048.93,-252.17 1074.45,-248.19 1098,-246 1179.1,-238.47 1751.18,-254.19 1831,-238 1857.63,-232.6 1885.85,-221.2 1907.91,-210.87"/>
<polygon fill="black" stroke="black" points="1909.35,-214.06 1916.84,-206.57 1906.31,-207.75 1909.35,-214.06"/>
</g>
<!-- error::not_found -->
<g id="node30" class="node">
<title>error::not_found</title>
<ellipse fill="none" stroke="black" cx="2086" cy="-189" rx="46.59" ry="18"/>
<text text-anchor="middle" x="2086" y="-185.3" font-family="Times,serif" font-size="14.00">not_found</text>
</g>
<!-- account::rotate_authentication_key_internal&#45;&gt;error::not_found -->
<g id="edge40" class="edge">
<title>account::rotate_authentication_key_internal&#45;&gt;error::not_found</title>
<path fill="none" stroke="black" d="M1026.11,-256.28C1048.93,-252.13 1074.44,-248.16 1098,-246 1123.78,-243.64 2005.76,-247.09 2030,-238 2043.17,-233.06 2055.35,-223.53 2064.96,-214.25"/>
<polygon fill="black" stroke="black" points="2067.19,-216.98 2071.65,-207.37 2062.17,-212.1 2067.19,-216.98"/>
</g>
<!-- account::new_event_handle&#45;&gt;event::new_event_handle -->
<g id="edge42" class="edge">
<title>account::new_event_handle&#45;&gt;event::new_event_handle</title>
<path fill="none" stroke="black" d="M714.96,-351.64C592.94,-347.39 363.65,-337.35 330,-321 283.08,-298.19 246.04,-248.01 226.43,-216.8"/>
<polygon fill="black" stroke="black" points="229.44,-215.01 221.24,-208.3 223.46,-218.66 229.44,-215.01"/>
</g>
<!-- account::create_guid -->
<g id="node31" class="node">
<title>account::create_guid</title>
<ellipse fill="none" stroke="black" cx="1159" cy="-272" rx="51.99" ry="18"/>
<text text-anchor="middle" x="1159" y="-268.3" font-family="Times,serif" font-size="14.00">create_guid</text>
</g>
<!-- account::new_event_handle&#45;&gt;account::create_guid -->
<g id="edge43" class="edge">
<title>account::new_event_handle&#45;&gt;account::create_guid</title>
<path fill="none" stroke="black" d="M832.46,-339.55C846.15,-335.39 861.58,-331.34 876,-329 924.73,-321.08 1051.65,-337.99 1098,-321 1111.84,-315.93 1124.99,-306.43 1135.51,-297.21"/>
<polygon fill="black" stroke="black" points="1137.62,-300.03 1142.58,-290.66 1132.86,-294.89 1137.62,-300.03"/>
</g>
<!-- type_info::type_of -->
<g id="node32" class="node">
<title>type_info::type_of</title>
<ellipse fill="none" stroke="black" cx="1381" cy="-272" rx="37.89" ry="18"/>
<text text-anchor="middle" x="1381" y="-268.3" font-family="Times,serif" font-size="14.00">type_of</text>
</g>
<!-- account::register_coin&#45;&gt;type_info::type_of -->
<g id="edge44" class="edge">
<title>account::register_coin&#45;&gt;type_info::type_of</title>
<path fill="none" stroke="black" d="M973.61,-339.64C984.31,-335.43 996.47,-331.33 1008,-329 1101.72,-310.04 1128.69,-336.81 1223,-321 1264.48,-314.05 1310.3,-299.3 1341.87,-287.98"/>
<polygon fill="black" stroke="black" points="1342.8,-291.36 1350.99,-284.65 1340.4,-284.79 1342.8,-291.36"/>
</g>
<!-- event::emit_event -->
<g id="node33" class="node">
<title>event::emit_event</title>
<ellipse fill="none" stroke="black" cx="66" cy="-189" rx="50.09" ry="18"/>
<text text-anchor="middle" x="66" y="-185.3" font-family="Times,serif" font-size="14.00">emit_event</text>
</g>
<!-- account::register_coin&#45;&gt;event::emit_event -->
<g id="edge45" class="edge">
<title>account::register_coin&#45;&gt;event::emit_event</title>
<path fill="none" stroke="black" d="M910.92,-339.49C900.39,-335.27 888.4,-331.2 877,-329 817.32,-317.47 389.58,-333.06 330,-321 233.66,-301.5 209.62,-288.02 125,-238 113.34,-231.11 101.55,-222.03 91.6,-213.63"/>
<polygon fill="black" stroke="black" points="94.03,-211.1 84.19,-207.17 89.44,-216.38 94.03,-211.1"/>
</g>
<!-- error::invalid_argument&#45;&gt;error::canonical -->
<g id="edge46" class="edge">
<title>error::invalid_argument&#45;&gt;error::canonical</title>
<path fill="none" stroke="black" d="M1984.32,-173.14C2018.41,-159.19 2069.36,-138.35 2104.92,-123.8"/>
<polygon fill="black" stroke="black" points="2106.1,-127.1 2114.03,-120.08 2103.45,-120.63 2106.1,-127.1"/>
</g>
<!-- from_bcs::from_bytes -->
<g id="node34" class="node">
<title>from_bcs::from_bytes</title>
<ellipse fill="none" stroke="black" cx="1286" cy="-106" rx="51.19" ry="18"/>
<text text-anchor="middle" x="1286" y="-102.3" font-family="Times,serif" font-size="14.00">from_bytes</text>
</g>
<!-- from_bcs::to_address&#45;&gt;from_bcs::from_bytes -->
<g id="edge47" class="edge">
<title>from_bcs::to_address&#45;&gt;from_bcs::from_bytes</title>
<path fill="none" stroke="black" d="M1284.42,-170.82C1284.67,-160.69 1285,-147.6 1285.29,-135.92"/>
<polygon fill="black" stroke="black" points="1288.78,-136.03 1285.53,-125.95 1281.79,-135.86 1288.78,-136.03"/>
</g>
<!-- error::not_found&#45;&gt;error::canonical -->
<g id="edge48" class="edge">
<title>error::not_found&#45;&gt;error::canonical</title>
<path fill="none" stroke="black" d="M2098.43,-171.22C2106.64,-160.14 2117.55,-145.41 2126.85,-132.85"/>
<polygon fill="black" stroke="black" points="2129.54,-135.1 2132.68,-124.98 2123.92,-130.93 2129.54,-135.1"/>
</g>
<!-- account::create_guid&#45;&gt;signer::address_of -->
<g id="edge49" class="edge">
<title>account::create_guid&#45;&gt;signer::address_of</title>
<path fill="none" stroke="black" d="M1204.08,-262.72C1238.67,-256.79 1287.67,-249.29 1331,-246 1361.03,-243.72 2386.58,-247.96 2415,-238 2429.11,-233.06 2442.44,-223.38 2453.03,-214.01"/>
<polygon fill="black" stroke="black" points="2455.23,-216.74 2460.12,-207.35 2450.44,-211.64 2455.23,-216.74"/>
</g>
<!-- account::create_guid&#45;&gt;guid::create -->
<g id="edge50" class="edge">
<title>account::create_guid&#45;&gt;guid::create</title>
<path fill="none" stroke="black" d="M1189.63,-257.14C1200.57,-252.8 1213.13,-248.5 1225,-246 1258.1,-239.04 1346.25,-252.09 1377,-238 1388.18,-232.88 1398.01,-223.71 1405.69,-214.75"/>
<polygon fill="black" stroke="black" points="1408.21,-217.21 1411.68,-207.2 1402.73,-212.86 1408.21,-217.21"/>
</g>
<!-- event::emit_event&#45;&gt;bcs::to_bytes -->
<g id="edge51" class="edge">
<title>event::emit_event&#45;&gt;bcs::to_bytes</title>
<path fill="none" stroke="black" d="M94.13,-173.68C103.68,-169.47 114.59,-165.36 125,-163 162.96,-154.38 264.01,-169.83 300,-155 312.48,-149.86 323.92,-140.43 332.95,-131.28"/>
<polygon fill="black" stroke="black" points="335.28,-133.91 339.5,-124.19 330.14,-129.16 335.28,-133.91"/>
</g>
<!-- event::write_to_event_store -->
<g id="node35" class="node">
<title>event::write_to_event_store</title>
<ellipse fill="none" stroke="black" cx="101" cy="-106" rx="85.29" ry="18"/>
<text text-anchor="middle" x="101" y="-102.3" font-family="Times,serif" font-size="14.00">write_to_event_store</text>
</g>
<!-- event::emit_event&#45;&gt;event::write_to_event_store -->
<g id="edge52" class="edge">
<title>event::emit_event&#45;&gt;event::write_to_event_store</title>
<path fill="none" stroke="black" d="M73.42,-170.82C77.97,-160.3 83.89,-146.59 89.09,-134.57"/>
<polygon fill="black" stroke="black" points="92.23,-136.11 92.99,-125.54 85.81,-133.33 92.23,-136.11"/>
</g>
</g>
</svg>
