<?xml version="1.0" encoding="UTF-8" standalone="no"?>
<!DOCTYPE svg PUBLIC "-//W3C//DTD SVG 1.1//EN"
 "http://www.w3.org/Graphics/SVG/1.1/DTD/svg11.dtd">
<!-- Generated by graphviz version 7.0.0 (20221023.0053)
 -->
<!-- Title: G Pages: 1 -->
<svg width="1510pt" height="459pt"
 viewBox="0.00 0.00 1509.69 459.00" xmlns="http://www.w3.org/2000/svg" xmlns:xlink="http://www.w3.org/1999/xlink">
<g id="graph0" class="graph" transform="scale(1 1) rotate(0) translate(4 455)">
<title>G</title>
<polygon fill="white" stroke="none" points="-4,4 -4,-455 1505.69,-455 1505.69,4 -4,4"/>
<g id="clust1" class="cluster">
<title>cluster_simple_map</title>
<polygon fill="none" stroke="black" points="112.69,-257 112.69,-407 524.69,-407 524.69,-257 112.69,-257"/>
<text text-anchor="middle" x="318.69" y="-391.8" font-family="Times,serif" font-size="14.00">simple_map</text>
</g>
<g id="clust2" class="cluster">
<title>cluster_option</title>
<polygon fill="none" stroke="black" points="63.69,-91 63.69,-249 394.69,-249 394.69,-91 63.69,-91"/>
<text text-anchor="middle" x="229.19" y="-233.8" font-family="Times,serif" font-size="14.00">option</text>
</g>
<g id="clust3" class="cluster">
<title>cluster_error</title>
<polygon fill="none" stroke="black" points="766.69,-174 766.69,-332 1079.69,-332 1079.69,-174 766.69,-174"/>
<text text-anchor="middle" x="923.19" y="-316.8" font-family="Times,serif" font-size="14.00">error</text>
</g>
<g id="clust4" class="cluster">
<title>cluster_account</title>
<polygon fill="none" stroke="black" points="1245.69,-174 1245.69,-332 1493.69,-332 1493.69,-174 1245.69,-174"/>
<text text-anchor="middle" x="1369.69" y="-316.8" font-family="Times,serif" font-size="14.00">account</text>
</g>
<g id="clust5" class="cluster">
<title>cluster_signer</title>
<polygon fill="none" stroke="black" points="1087.69,-174 1087.69,-332 1237.69,-332 1237.69,-174 1087.69,-174"/>
<text text-anchor="middle" x="1162.69" y="-316.8" font-family="Times,serif" font-size="14.00">signer</text>
</g>
<g id="clust6" class="cluster">
<title>cluster_vector</title>
<polygon fill="none" stroke="black" points="144.69,-8 144.69,-83 351.69,-83 351.69,-8 144.69,-8"/>
<text text-anchor="middle" x="248.19" y="-67.8" font-family="Times,serif" font-size="14.00">vector</text>
</g>
<g id="clust7" class="cluster">
<title>cluster_comparator</title>
<polygon fill="none" stroke="black" points="506.69,-91 506.69,-249 758.69,-249 758.69,-91 506.69,-91"/>
<text text-anchor="middle" x="632.69" y="-233.8" font-family="Times,serif" font-size="14.00">comparator</text>
</g>
<g id="clust8" class="cluster">
<title>cluster_bcs</title>
<polygon fill="none" stroke="black" points="402.69,-91 402.69,-166 498.69,-166 498.69,-91 402.69,-91"/>
<text text-anchor="middle" x="450.69" y="-150.8" font-family="Times,serif" font-size="14.00">bcs</text>
</g>
<!-- set_management_role -->
<g id="node1" class="node">
<title>set_management_role</title>
<ellipse fill="none" stroke="black" cx="445.69" cy="-433" rx="89.08" ry="18"/>
<text text-anchor="middle" x="445.69" y="-429.3" font-family="Times,serif" font-size="14.00">set_management_role</text>
</g>
<!-- simple_map::borrow_mut -->
<g id="node2" class="node">
<title>simple_map::borrow_mut</title>
<ellipse fill="none" stroke="black" cx="307.69" cy="-358" rx="54.69" ry="18"/>
<text text-anchor="middle" x="307.69" y="-354.3" font-family="Times,serif" font-size="14.00">borrow_mut</text>
</g>
<!-- set_management_role&#45;&gt;simple_map::borrow_mut -->
<g id="edge1" class="edge">
<title>set_management_role&#45;&gt;simple_map::borrow_mut</title>
<path fill="none" stroke="black" d="M396.21,-417.73C387.83,-414.63 379.37,-411.04 371.69,-407 358.82,-400.23 345.78,-390.97 334.85,-382.38"/>
<polygon fill="black" stroke="black" points="337.37,-379.92 327.4,-376.36 332.97,-385.37 337.37,-379.92"/>
</g>
<!-- simple_map::add -->
<g id="node3" class="node">
<title>simple_map::add</title>
<ellipse fill="none" stroke="black" cx="407.69" cy="-358" rx="27" ry="18"/>
<text text-anchor="middle" x="407.69" y="-354.3" font-family="Times,serif" font-size="14.00">add</text>
</g>
<!-- set_management_role&#45;&gt;simple_map::add -->
<g id="edge2" class="edge">
<title>set_management_role&#45;&gt;simple_map::add</title>
<path fill="none" stroke="black" d="M436.68,-414.7C432.1,-405.91 426.44,-395.03 421.34,-385.24"/>
<polygon fill="black" stroke="black" points="424.53,-383.77 416.81,-376.52 418.32,-387 424.53,-383.77"/>
</g>
<!-- simple_map::create -->
<g id="node4" class="node">
<title>simple_map::create</title>
<ellipse fill="none" stroke="black" cx="484.69" cy="-358" rx="31.7" ry="18"/>
<text text-anchor="middle" x="484.69" y="-354.3" font-family="Times,serif" font-size="14.00">create</text>
</g>
<!-- set_management_role&#45;&gt;simple_map::create -->
<g id="edge3" class="edge">
<title>set_management_role&#45;&gt;simple_map::create</title>
<path fill="none" stroke="black" d="M454.93,-414.7C459.56,-406.03 465.27,-395.34 470.45,-385.65"/>
<polygon fill="black" stroke="black" points="473.44,-387.48 475.07,-377.01 467.27,-384.18 473.44,-387.48"/>
</g>
<!-- simple_map::contains_key -->
<g id="node5" class="node">
<title>simple_map::contains_key</title>
<ellipse fill="none" stroke="black" cx="177.69" cy="-358" rx="57.39" ry="18"/>
<text text-anchor="middle" x="177.69" y="-354.3" font-family="Times,serif" font-size="14.00">contains_key</text>
</g>
<!-- set_management_role&#45;&gt;simple_map::contains_key -->
<g id="edge4" class="edge">
<title>set_management_role&#45;&gt;simple_map::contains_key</title>
<path fill="none" stroke="black" d="M357.05,-430.67C320.88,-427.68 279.27,-421.05 243.69,-407 229.34,-401.34 215.25,-391.81 203.81,-382.72"/>
<polygon fill="black" stroke="black" points="206.33,-380.27 196.4,-376.58 201.87,-385.66 206.33,-380.27"/>
</g>
<!-- get_vesting_account_signer_internal -->
<g id="node6" class="node">
<title>get_vesting_account_signer_internal</title>
<ellipse fill="none" stroke="black" cx="1295.69" cy="-358" rx="139.98" ry="18"/>
<text text-anchor="middle" x="1295.69" y="-354.3" font-family="Times,serif" font-size="14.00">get_vesting_account_signer_internal</text>
</g>
<!-- set_management_role&#45;&gt;get_vesting_account_signer_internal -->
<g id="edge5" class="edge">
<title>set_management_role&#45;&gt;get_vesting_account_signer_internal</title>
<path fill="none" stroke="black" d="M534.28,-430.35C681.73,-427.29 971.3,-419.84 1072.69,-407 1124.37,-400.46 1181.82,-387.96 1225.47,-377.36"/>
<polygon fill="black" stroke="black" points="1226.19,-380.79 1235.07,-375 1224.52,-373.99 1226.19,-380.79"/>
</g>
<!-- verify_admin -->
<g id="node7" class="node">
<title>verify_admin</title>
<ellipse fill="none" stroke="black" cx="1005.69" cy="-358" rx="58.49" ry="18"/>
<text text-anchor="middle" x="1005.69" y="-354.3" font-family="Times,serif" font-size="14.00">verify_admin</text>
</g>
<!-- set_management_role&#45;&gt;verify_admin -->
<g id="edge6" class="edge">
<title>set_management_role&#45;&gt;verify_admin</title>
<path fill="none" stroke="black" d="M518.9,-422.46C629.2,-408.08 836.24,-381.09 941.18,-367.41"/>
<polygon fill="black" stroke="black" points="941.58,-370.89 951.05,-366.12 940.68,-363.95 941.58,-370.89"/>
</g>
<!-- option::extract -->
<g id="node8" class="node">
<title>option::extract</title>
<ellipse fill="none" stroke="black" cx="105.69" cy="-200" rx="34.39" ry="18"/>
<text text-anchor="middle" x="105.69" y="-196.3" font-family="Times,serif" font-size="14.00">extract</text>
</g>
<!-- simple_map::borrow_mut&#45;&gt;option::extract -->
<g id="edge7" class="edge">
<title>simple_map::borrow_mut&#45;&gt;option::extract</title>
<path fill="none" stroke="black" d="M267.22,-345.52C259.45,-343.52 251.34,-341.58 243.69,-340 219.92,-335.1 210.06,-345.17 189.69,-332 151.7,-307.44 127.47,-258.97 115.25,-228.37"/>
<polygon fill="black" stroke="black" points="118.66,-227.49 111.83,-219.4 112.12,-229.99 118.66,-227.49"/>
</g>
<!-- option::is_some -->
<g id="node9" class="node">
<title>option::is_some</title>
<ellipse fill="none" stroke="black" cx="111.69" cy="-117" rx="40.09" ry="18"/>
<text text-anchor="middle" x="111.69" y="-113.3" font-family="Times,serif" font-size="14.00">is_some</text>
</g>
<!-- simple_map::borrow_mut&#45;&gt;option::is_some -->
<g id="edge8" class="edge">
<title>simple_map::borrow_mut&#45;&gt;option::is_some</title>
<path fill="none" stroke="black" d="M268,-345.19C260.01,-343.17 251.63,-341.31 243.69,-340 217.54,-335.69 147.97,-344.66 124.69,-332 58.42,-295.96 36.15,-244.62 62.69,-174 67.31,-161.69 76.01,-150.31 84.81,-141.07"/>
<polygon fill="black" stroke="black" points="87.04,-143.78 91.73,-134.28 82.14,-138.79 87.04,-143.78"/>
</g>
<!-- error::invalid_argument -->
<g id="node10" class="node">
<title>error::invalid_argument</title>
<ellipse fill="none" stroke="black" cx="847.69" cy="-283" rx="73.39" ry="18"/>
<text text-anchor="middle" x="847.69" y="-279.3" font-family="Times,serif" font-size="14.00">invalid_argument</text>
</g>
<!-- simple_map::borrow_mut&#45;&gt;error::invalid_argument -->
<g id="edge9" class="edge">
<title>simple_map::borrow_mut&#45;&gt;error::invalid_argument</title>
<path fill="none" stroke="black" d="M347.01,-345.18C355.11,-343.13 363.62,-341.26 371.69,-340 440.71,-329.2 459.17,-338.98 528.69,-332 615.29,-323.3 714.32,-307.47 778.76,-296.38"/>
<polygon fill="black" stroke="black" points="779.24,-299.85 788.49,-294.69 778.04,-292.95 779.24,-299.85"/>
</g>
<!-- simple_map::find -->
<g id="node11" class="node">
<title>simple_map::find</title>
<ellipse fill="none" stroke="black" cx="356.69" cy="-283" rx="27" ry="18"/>
<text text-anchor="middle" x="356.69" y="-279.3" font-family="Times,serif" font-size="14.00">find</text>
</g>
<!-- simple_map::borrow_mut&#45;&gt;simple_map::find -->
<g id="edge10" class="edge">
<title>simple_map::borrow_mut&#45;&gt;simple_map::find</title>
<path fill="none" stroke="black" d="M319.05,-340.07C325.22,-330.88 332.97,-319.33 339.83,-309.11"/>
<polygon fill="black" stroke="black" points="342.54,-311.35 345.21,-301.1 336.73,-307.45 342.54,-311.35"/>
</g>
<!-- simple_map::add&#45;&gt;option::extract -->
<g id="edge11" class="edge">
<title>simple_map::add&#45;&gt;option::extract</title>
<path fill="none" stroke="black" d="M387.25,-345.7C382.29,-343.43 376.91,-341.33 371.69,-340 341.7,-332.37 260.18,-346.2 232.69,-332 194.76,-312.41 207.54,-281.64 172.69,-257 163.85,-250.75 158.73,-254.95 149.69,-249 140.25,-242.8 131.48,-234.13 124.3,-225.86"/>
<polygon fill="black" stroke="black" points="127.18,-223.85 118.12,-218.35 121.77,-228.3 127.18,-223.85"/>
</g>
<!-- simple_map::add&#45;&gt;error::invalid_argument -->
<g id="edge13" class="edge">
<title>simple_map::add&#45;&gt;error::invalid_argument</title>
<path fill="none" stroke="black" d="M428.16,-345.84C433.11,-343.56 438.49,-341.43 443.69,-340 480.28,-329.97 491.02,-336.6 528.69,-332 614.43,-321.52 712.65,-306.25 777.19,-295.76"/>
<polygon fill="black" stroke="black" points="777.64,-299.23 786.95,-294.17 776.51,-292.32 777.64,-299.23"/>
</g>
<!-- simple_map::add&#45;&gt;simple_map::find -->
<g id="edge14" class="edge">
<title>simple_map::add&#45;&gt;simple_map::find</title>
<path fill="none" stroke="black" d="M396.62,-341.16C390.07,-331.79 381.63,-319.7 374.19,-309.06"/>
<polygon fill="black" stroke="black" points="377.19,-307.24 368.6,-301.05 371.46,-311.25 377.19,-307.24"/>
</g>
<!-- option::is_none -->
<g id="node12" class="node">
<title>option::is_none</title>
<ellipse fill="none" stroke="black" cx="196.69" cy="-200" rx="38.19" ry="18"/>
<text text-anchor="middle" x="196.69" y="-196.3" font-family="Times,serif" font-size="14.00">is_none</text>
</g>
<!-- simple_map::add&#45;&gt;option::is_none -->
<g id="edge12" class="edge">
<title>simple_map::add&#45;&gt;option::is_none</title>
<path fill="none" stroke="black" d="M387.15,-346.07C382.19,-343.78 376.84,-341.58 371.69,-340 349.76,-333.25 340.99,-342.68 320.69,-332 273.42,-307.14 234.1,-257.26 213.11,-226.74"/>
<polygon fill="black" stroke="black" points="216.28,-225.17 207.8,-218.82 210.47,-229.07 216.28,-225.17"/>
</g>
<!-- simple_map::contains_key&#45;&gt;option::is_some -->
<g id="edge15" class="edge">
<title>simple_map::contains_key&#45;&gt;option::is_some</title>
<path fill="none" stroke="black" d="M120.92,-354.8C84.31,-352.06 41.42,-345.88 29.69,-332 -15.64,-278.37 -3.1,-236.1 29.69,-174 38.82,-156.7 55.96,-143.74 72.22,-134.67"/>
<polygon fill="black" stroke="black" points="73.54,-137.92 80.81,-130.21 70.32,-131.71 73.54,-137.92"/>
</g>
<!-- simple_map::contains_key&#45;&gt;simple_map::find -->
<g id="edge16" class="edge">
<title>simple_map::contains_key&#45;&gt;simple_map::find</title>
<path fill="none" stroke="black" d="M211.78,-343.1C243.9,-330 291.72,-310.5 323.53,-297.52"/>
<polygon fill="black" stroke="black" points="324.72,-300.82 332.66,-293.8 322.08,-294.33 324.72,-300.82"/>
</g>
<!-- account::create_signer_with_capability -->
<g id="node13" class="node">
<title>account::create_signer_with_capability</title>
<ellipse fill="none" stroke="black" cx="1369.69" cy="-283" rx="116.18" ry="18"/>
<text text-anchor="middle" x="1369.69" y="-279.3" font-family="Times,serif" font-size="14.00">create_signer_with_capability</text>
</g>
<!-- get_vesting_account_signer_internal&#45;&gt;account::create_signer_with_capability -->
<g id="edge17" class="edge">
<title>get_vesting_account_signer_internal&#45;&gt;account::create_signer_with_capability</title>
<path fill="none" stroke="black" d="M1313.22,-339.7C1322.44,-330.61 1333.91,-319.3 1344.1,-309.25"/>
<polygon fill="black" stroke="black" points="1346.54,-311.75 1351.2,-302.24 1341.62,-306.77 1346.54,-311.75"/>
</g>
<!-- signer::address_of -->
<g id="node14" class="node">
<title>signer::address_of</title>
<ellipse fill="none" stroke="black" cx="1153.69" cy="-283" rx="48.99" ry="18"/>
<text text-anchor="middle" x="1153.69" y="-279.3" font-family="Times,serif" font-size="14.00">address_of</text>
</g>
<!-- verify_admin&#45;&gt;signer::address_of -->
<g id="edge18" class="edge">
<title>verify_admin&#45;&gt;signer::address_of</title>
<path fill="none" stroke="black" d="M1049.07,-345.56C1060.59,-341.86 1072.83,-337.32 1083.69,-332 1097.89,-325.04 1112.48,-315.48 1124.65,-306.73"/>
<polygon fill="black" stroke="black" points="1126.65,-309.6 1132.61,-300.84 1122.49,-303.97 1126.65,-309.6"/>
</g>
<!-- error::unauthenticated -->
<g id="node15" class="node">
<title>error::unauthenticated</title>
<ellipse fill="none" stroke="black" cx="1005.69" cy="-283" rx="66.09" ry="18"/>
<text text-anchor="middle" x="1005.69" y="-279.3" font-family="Times,serif" font-size="14.00">unauthenticated</text>
</g>
<!-- verify_admin&#45;&gt;error::unauthenticated -->
<g id="edge19" class="edge">
<title>verify_admin&#45;&gt;error::unauthenticated</title>
<path fill="none" stroke="black" d="M1005.69,-339.7C1005.69,-331.67 1005.69,-321.9 1005.69,-312.8"/>
<polygon fill="black" stroke="black" points="1009.19,-312.94 1005.69,-302.94 1002.19,-312.94 1009.19,-312.94"/>
</g>
<!-- option::extract&#45;&gt;option::is_some -->
<g id="edge20" class="edge">
<title>option::extract&#45;&gt;option::is_some</title>
<path fill="none" stroke="black" d="M106.96,-181.82C107.72,-171.58 108.7,-158.33 109.57,-146.55"/>
<polygon fill="black" stroke="black" points="113.04,-147.17 110.28,-136.94 106.05,-146.66 113.04,-147.17"/>
</g>
<!-- vector::is_empty -->
<g id="node16" class="node">
<title>vector::is_empty</title>
<ellipse fill="none" stroke="black" cx="196.69" cy="-34" rx="43.59" ry="18"/>
<text text-anchor="middle" x="196.69" y="-30.3" font-family="Times,serif" font-size="14.00">is_empty</text>
</g>
<!-- option::is_some&#45;&gt;vector::is_empty -->
<g id="edge21" class="edge">
<title>option::is_some&#45;&gt;vector::is_empty</title>
<path fill="none" stroke="black" d="M128.08,-100.38C140.46,-88.58 157.67,-72.18 171.76,-58.75"/>
<polygon fill="black" stroke="black" points="174.14,-61.32 178.96,-51.89 169.31,-56.26 174.14,-61.32"/>
</g>
<!-- error::canonical -->
<g id="node17" class="node">
<title>error::canonical</title>
<ellipse fill="none" stroke="black" cx="926.69" cy="-200" rx="44.39" ry="18"/>
<text text-anchor="middle" x="926.69" y="-196.3" font-family="Times,serif" font-size="14.00">canonical</text>
</g>
<!-- error::invalid_argument&#45;&gt;error::canonical -->
<g id="edge22" class="edge">
<title>error::invalid_argument&#45;&gt;error::canonical</title>
<path fill="none" stroke="black" d="M864.06,-265.22C875.33,-253.66 890.48,-238.13 903.05,-225.23"/>
<polygon fill="black" stroke="black" points="905.34,-227.9 909.82,-218.29 900.33,-223.01 905.34,-227.9"/>
</g>
<!-- option::none -->
<g id="node18" class="node">
<title>option::none</title>
<ellipse fill="none" stroke="black" cx="280.69" cy="-200" rx="27.9" ry="18"/>
<text text-anchor="middle" x="280.69" y="-196.3" font-family="Times,serif" font-size="14.00">none</text>
</g>
<!-- simple_map::find&#45;&gt;option::none -->
<g id="edge23" class="edge">
<title>simple_map::find&#45;&gt;option::none</title>
<path fill="none" stroke="black" d="M339.68,-268.93C332.58,-263.14 324.43,-256.05 317.69,-249 310.94,-241.94 304.22,-233.69 298.4,-226.04"/>
<polygon fill="black" stroke="black" points="301.23,-223.98 292.47,-218.02 295.6,-228.14 301.23,-223.98"/>
</g>
<!-- option::some -->
<g id="node19" class="node">
<title>option::some</title>
<ellipse fill="none" stroke="black" cx="356.69" cy="-200" rx="29.8" ry="18"/>
<text text-anchor="middle" x="356.69" y="-196.3" font-family="Times,serif" font-size="14.00">some</text>
</g>
<!-- simple_map::find&#45;&gt;option::some -->
<g id="edge24" class="edge">
<title>simple_map::find&#45;&gt;option::some</title>
<path fill="none" stroke="black" d="M356.69,-264.82C356.69,-254.69 356.69,-241.6 356.69,-229.92"/>
<polygon fill="black" stroke="black" points="360.19,-229.95 356.69,-219.95 353.19,-229.95 360.19,-229.95"/>
</g>
<!-- comparator::compare -->
<g id="node20" class="node">
<title>comparator::compare</title>
<ellipse fill="none" stroke="black" cx="556.69" cy="-200" rx="41.69" ry="18"/>
<text text-anchor="middle" x="556.69" y="-196.3" font-family="Times,serif" font-size="14.00">compare</text>
</g>
<!-- simple_map::find&#45;&gt;comparator::compare -->
<g id="edge25" class="edge">
<title>simple_map::find&#45;&gt;comparator::compare</title>
<path fill="none" stroke="black" d="M379.24,-272.87C412.53,-259.38 475.33,-233.95 516.59,-217.24"/>
<polygon fill="black" stroke="black" points="517.74,-220.55 525.69,-213.55 515.11,-214.06 517.74,-220.55"/>
</g>
<!-- comparator::is_smaller_than -->
<g id="node21" class="node">
<title>comparator::is_smaller_than</title>
<ellipse fill="none" stroke="black" cx="683.69" cy="-200" rx="66.89" ry="18"/>
<text text-anchor="middle" x="683.69" y="-196.3" font-family="Times,serif" font-size="14.00">is_smaller_than</text>
</g>
<!-- simple_map::find&#45;&gt;comparator::is_smaller_than -->
<g id="edge26" class="edge">
<title>simple_map::find&#45;&gt;comparator::is_smaller_than</title>
<path fill="none" stroke="black" d="M383.96,-282.2C431.04,-281.73 529.98,-277.1 607.69,-249 623.98,-243.11 640.44,-233.29 653.86,-224.07"/>
<polygon fill="black" stroke="black" points="655.7,-227.06 661.81,-218.4 651.63,-221.36 655.7,-227.06"/>
</g>
<!-- option::is_none&#45;&gt;vector::is_empty -->
<g id="edge27" class="edge">
<title>option::is_none&#45;&gt;vector::is_empty</title>
<path fill="none" stroke="black" d="M196.69,-181.76C196.69,-153.63 196.69,-97.6 196.69,-63.49"/>
<polygon fill="black" stroke="black" points="200.19,-63.52 196.69,-53.52 193.19,-63.52 200.19,-63.52"/>
</g>
<!-- account::create_signer -->
<g id="node22" class="node">
<title>account::create_signer</title>
<ellipse fill="none" stroke="black" cx="1369.69" cy="-200" rx="57.69" ry="18"/>
<text text-anchor="middle" x="1369.69" y="-196.3" font-family="Times,serif" font-size="14.00">create_signer</text>
</g>
<!-- account::create_signer_with_capability&#45;&gt;account::create_signer -->
<g id="edge28" class="edge">
<title>account::create_signer_with_capability&#45;&gt;account::create_signer</title>
<path fill="none" stroke="black" d="M1369.69,-264.82C1369.69,-254.69 1369.69,-241.6 1369.69,-229.92"/>
<polygon fill="black" stroke="black" points="1373.19,-229.95 1369.69,-219.95 1366.19,-229.95 1373.19,-229.95"/>
</g>
<!-- signer::borrow_address -->
<g id="node23" class="node">
<title>signer::borrow_address</title>
<ellipse fill="none" stroke="black" cx="1162.69" cy="-200" rx="66.89" ry="18"/>
<text text-anchor="middle" x="1162.69" y="-196.3" font-family="Times,serif" font-size="14.00">borrow_address</text>
</g>
<!-- signer::address_of&#45;&gt;signer::borrow_address -->
<g id="edge29" class="edge">
<title>signer::address_of&#45;&gt;signer::borrow_address</title>
<path fill="none" stroke="black" d="M1155.6,-264.82C1156.73,-254.58 1158.21,-241.33 1159.51,-229.55"/>
<polygon fill="black" stroke="black" points="1162.96,-230.26 1160.58,-219.94 1156,-229.49 1162.96,-230.26"/>
</g>
<!-- error::unauthenticated&#45;&gt;error::canonical -->
<g id="edge30" class="edge">
<title>error::unauthenticated&#45;&gt;error::canonical</title>
<path fill="none" stroke="black" d="M989.32,-265.22C978.05,-253.66 962.9,-238.13 950.32,-225.23"/>
<polygon fill="black" stroke="black" points="953.04,-223.01 943.55,-218.29 948.03,-227.9 953.04,-223.01"/>
</g>
<!-- vector::singleton -->
<g id="node24" class="node">
<title>vector::singleton</title>
<ellipse fill="none" stroke="black" cx="300.69" cy="-34" rx="42.79" ry="18"/>
<text text-anchor="middle" x="300.69" y="-30.3" font-family="Times,serif" font-size="14.00">singleton</text>
</g>
<!-- option::some&#45;&gt;vector::singleton -->
<g id="edge31" class="edge">
<title>option::some&#45;&gt;vector::singleton</title>
<path fill="none" stroke="black" d="M350.9,-182.07C341.26,-153.83 321.81,-96.87 310.15,-62.72"/>
<polygon fill="black" stroke="black" points="313.55,-61.85 307.01,-53.52 306.93,-64.11 313.55,-61.85"/>
</g>
<!-- bcs::to_bytes -->
<g id="node25" class="node">
<title>bcs::to_bytes</title>
<ellipse fill="none" stroke="black" cx="450.69" cy="-117" rx="40.09" ry="18"/>
<text text-anchor="middle" x="450.69" y="-113.3" font-family="Times,serif" font-size="14.00">to_bytes</text>
</g>
<!-- comparator::compare&#45;&gt;bcs::to_bytes -->
<g id="edge32" class="edge">
<title>comparator::compare&#45;&gt;bcs::to_bytes</title>
<path fill="none" stroke="black" d="M531.82,-185.2C522.43,-179.63 511.8,-172.89 502.69,-166 492.98,-158.67 483.01,-149.83 474.42,-141.74"/>
<polygon fill="black" stroke="black" points="477.09,-139.45 467.45,-135.04 472.23,-144.5 477.09,-139.45"/>
</g>
<!-- comparator::compare_u8_vector -->
<g id="node26" class="node">
<title>comparator::compare_u8_vector</title>
<ellipse fill="none" stroke="black" cx="595.69" cy="-117" rx="81.49" ry="18"/>
<text text-anchor="middle" x="595.69" y="-113.3" font-family="Times,serif" font-size="14.00">compare_u8_vector</text>
</g>
<!-- comparator::compare&#45;&gt;comparator::compare_u8_vector -->
<g id="edge33" class="edge">
<title>comparator::compare&#45;&gt;comparator::compare_u8_vector</title>
<path fill="none" stroke="black" d="M564.77,-182.22C569.88,-171.61 576.6,-157.65 582.47,-145.45"/>
<polygon fill="black" stroke="black" points="585.51,-147.21 586.69,-136.68 579.2,-144.18 585.51,-147.21"/>
</g>
</g>
</svg>
