<?xml version="1.0" encoding="UTF-8" standalone="no"?>
<!DOCTYPE svg PUBLIC "-//W3C//DTD SVG 1.1//EN"
 "http://www.w3.org/Graphics/SVG/1.1/DTD/svg11.dtd">
<!-- Generated by graphviz version 7.0.0 (20221023.0053)
 -->
<!-- Title: G Pages: 1 -->
<svg width="260pt" height="227pt"
 viewBox="0.00 0.00 260.00 227.00" xmlns="http://www.w3.org/2000/svg" xmlns:xlink="http://www.w3.org/1999/xlink">
<g id="graph0" class="graph" transform="scale(1 1) rotate(0) translate(4 223)">
<title>G</title>
<polygon fill="white" stroke="none" points="-4,4 -4,-223 256,-223 256,4 -4,4"/>
<g id="clust1" class="cluster">
<title>cluster_genesis</title>
<polygon fill="none" stroke="black" points="8,-136 8,-211 244,-211 244,-136 8,-136"/>
<text text-anchor="middle" x="126" y="-195.8" font-family="Times,serif" font-size="14.00">genesis</text>
</g>
<!-- set_management_role -->
<g id="node1" class="node">
<title>set_management_role</title>
<ellipse fill="none" stroke="black" cx="126" cy="-18" rx="89.08" ry="18"/>
<text text-anchor="middle" x="126" y="-14.3" font-family="Times,serif" font-size="14.00">set_management_role</text>
</g>
<!-- set_beneficiary_resetter -->
<g id="node2" class="node">
<title>set_beneficiary_resetter</title>
<ellipse fill="none" stroke="black" cx="126" cy="-90" rx="94.78" ry="18"/>
<text text-anchor="middle" x="126" y="-86.3" font-family="Times,serif" font-size="14.00">set_beneficiary_resetter</text>
</g>
<!-- set_beneficiary_resetter&#45;&gt;set_management_role -->
<g id="edge1" class="edge">
<title>set_beneficiary_resetter&#45;&gt;set_management_role</title>
<path fill="none" stroke="black" d="M126,-71.7C126,-64.41 126,-55.73 126,-47.54"/>
<polygon fill="black" stroke="black" points="129.5,-47.62 126,-37.62 122.5,-47.62 129.5,-47.62"/>
</g>
<!-- genesis::create_employee_validators -->
<g id="node3" class="node">
<title>genesis::create_employee_validators</title>
<ellipse fill="none" stroke="black" cx="126" cy="-162" rx="109.68" ry="18"/>
<text text-anchor="middle" x="126" y="-158.3" font-family="Times,serif" font-size="14.00">create_employee_validators</text>
</g>
<!-- genesis::create_employee_validators&#45;&gt;set_beneficiary_resetter -->
<g id="edge2" class="edge">
<title>genesis::create_employee_validators&#45;&gt;set_beneficiary_resetter</title>
<path fill="none" stroke="black" d="M126,-143.7C126,-136.41 126,-127.73 126,-119.54"/>
<polygon fill="black" stroke="black" points="129.5,-119.62 126,-109.62 122.5,-119.62 129.5,-119.62"/>
</g>
</g>
</svg>
