<?xml version="1.0" encoding="UTF-8" standalone="no"?>
<!DOCTYPE svg PUBLIC "-//W3C//DTD SVG 1.1//EN"
 "http://www.w3.org/Graphics/SVG/1.1/DTD/svg11.dtd">
<!-- Generated by graphviz version 7.0.0 (20221023.0053)
 -->
<!-- Title: G Pages: 1 -->
<svg width="1173pt" height="542pt"
 viewBox="0.00 0.00 1172.73 542.00" xmlns="http://www.w3.org/2000/svg" xmlns:xlink="http://www.w3.org/1999/xlink">
<g id="graph0" class="graph" transform="scale(1 1) rotate(0) translate(4 538)">
<title>G</title>
<polygon fill="white" stroke="none" points="-4,4 -4,-538 1168.73,-538 1168.73,4 -4,4"/>
<g id="clust1" class="cluster">
<title>cluster_string</title>
<polygon fill="none" stroke="black" points="328,-340 328,-490 506,-490 506,-340 328,-340"/>
<text text-anchor="middle" x="417" y="-474.8" font-family="Times,serif" font-size="14.00">string</text>
</g>
<g id="clust2" class="cluster">
<title>cluster_signer</title>
<polygon fill="none" stroke="black" points="514,-340 514,-490 664,-490 664,-340 514,-340"/>
<text text-anchor="middle" x="589" y="-474.8" font-family="Times,serif" font-size="14.00">signer</text>
</g>
<g id="clust3" class="cluster">
<title>cluster_error</title>
<polygon fill="none" stroke="black" points="8,-174 8,-332 454,-332 454,-174 8,-174"/>
<text text-anchor="middle" x="231" y="-316.8" font-family="Times,serif" font-size="14.00">error</text>
</g>
<g id="clust4" class="cluster">
<title>cluster_simple_map</title>
<polygon fill="none" stroke="black" points="742,-257 742,-415 1056,-415 1056,-257 742,-257"/>
<text text-anchor="middle" x="899" y="-399.8" font-family="Times,serif" font-size="14.00">simple_map</text>
</g>
<g id="clust5" class="cluster">
<title>cluster_option</title>
<polygon fill="none" stroke="black" points="826,-91 826,-249 1062,-249 1062,-91 826,-91"/>
<text text-anchor="middle" x="944" y="-233.8" font-family="Times,serif" font-size="14.00">option</text>
</g>
<g id="clust6" class="cluster">
<title>cluster_vector</title>
<polygon fill="none" stroke="black" points="866,-8 866,-83 1073,-83 1073,-8 866,-8"/>
<text text-anchor="middle" x="969.5" y="-67.8" font-family="Times,serif" font-size="14.00">vector</text>
</g>
<g id="clust7" class="cluster">
<title>cluster_comparator</title>
<polygon fill="none" stroke="black" points="462,-91 462,-249 714,-249 714,-91 462,-91"/>
<text text-anchor="middle" x="588" y="-233.8" font-family="Times,serif" font-size="14.00">comparator</text>
</g>
<g id="clust8" class="cluster">
<title>cluster_bcs</title>
<polygon fill="none" stroke="black" points="722,-91 722,-166 818,-166 818,-91 722,-91"/>
<text text-anchor="middle" x="770" y="-150.8" font-family="Times,serif" font-size="14.00">bcs</text>
</g>
<!-- reset_beneficiary -->
<g id="node1" class="node">
<title>reset_beneficiary</title>
<ellipse fill="none" stroke="black" cx="732" cy="-516" rx="71.49" ry="18"/>
<text text-anchor="middle" x="732" y="-512.3" font-family="Times,serif" font-size="14.00">reset_beneficiary</text>
</g>
<!-- string::utf8 -->
<g id="node2" class="node">
<title>string::utf8</title>
<ellipse fill="none" stroke="black" cx="444" cy="-441" rx="27" ry="18"/>
<text text-anchor="middle" x="444" y="-437.3" font-family="Times,serif" font-size="14.00">utf8</text>
</g>
<!-- reset_beneficiary&#45;&gt;string::utf8 -->
<g id="edge1" class="edge">
<title>reset_beneficiary&#45;&gt;string::utf8</title>
<path fill="none" stroke="black" d="M662.74,-511.07C608.2,-507.26 537.03,-500.5 510,-490 494.58,-484.01 479.49,-473.5 467.64,-463.83"/>
<polygon fill="black" stroke="black" points="469.92,-461.18 460.04,-457.35 465.38,-466.5 469.92,-461.18"/>
</g>
<!-- signer::address_of -->
<g id="node3" class="node">
<title>signer::address_of</title>
<ellipse fill="none" stroke="black" cx="598" cy="-441" rx="48.99" ry="18"/>
<text text-anchor="middle" x="598" y="-437.3" font-family="Times,serif" font-size="14.00">address_of</text>
</g>
<!-- reset_beneficiary&#45;&gt;signer::address_of -->
<g id="edge2" class="edge">
<title>reset_beneficiary&#45;&gt;signer::address_of</title>
<path fill="none" stroke="black" d="M692.75,-500.59C685.08,-497.38 677.18,-493.79 670,-490 655.71,-482.46 640.71,-472.78 628.13,-464.09"/>
<polygon fill="black" stroke="black" points="630.46,-461.45 620.27,-458.56 626.43,-467.17 630.46,-461.45"/>
</g>
<!-- error::permission_denied -->
<g id="node4" class="node">
<title>error::permission_denied</title>
<ellipse fill="none" stroke="black" cx="93" cy="-283" rx="77.19" ry="18"/>
<text text-anchor="middle" x="93" y="-279.3" font-family="Times,serif" font-size="14.00">permission_denied</text>
</g>
<!-- reset_beneficiary&#45;&gt;error::permission_denied -->
<g id="edge3" class="edge">
<title>reset_beneficiary&#45;&gt;error::permission_denied</title>
<path fill="none" stroke="black" d="M712.16,-498.33C709.84,-495.73 707.7,-492.92 706,-490 671.44,-430.54 721.93,-382.68 668,-340 657.35,-331.57 192.12,-335.53 179,-332 159.9,-326.86 140.51,-316.57 124.98,-306.83"/>
<polygon fill="black" stroke="black" points="126.93,-303.92 116.64,-301.39 123.11,-309.79 126.93,-303.92"/>
</g>
<!-- simple_map::remove -->
<g id="node5" class="node">
<title>simple_map::remove</title>
<ellipse fill="none" stroke="black" cx="878" cy="-366" rx="37.89" ry="18"/>
<text text-anchor="middle" x="878" y="-362.3" font-family="Times,serif" font-size="14.00">remove</text>
</g>
<!-- reset_beneficiary&#45;&gt;simple_map::remove -->
<g id="edge4" class="edge">
<title>reset_beneficiary&#45;&gt;simple_map::remove</title>
<path fill="none" stroke="black" d="M797.74,-508.46C822.81,-504.62 847.44,-498.75 856,-490 880.18,-465.28 882.78,-423.65 881.3,-395.76"/>
<polygon fill="black" stroke="black" points="884.79,-395.59 880.54,-385.89 877.81,-396.13 884.79,-395.59"/>
</g>
<!-- simple_map::contains_key -->
<g id="node6" class="node">
<title>simple_map::contains_key</title>
<ellipse fill="none" stroke="black" cx="991" cy="-366" rx="57.39" ry="18"/>
<text text-anchor="middle" x="991" y="-362.3" font-family="Times,serif" font-size="14.00">contains_key</text>
</g>
<!-- reset_beneficiary&#45;&gt;simple_map::contains_key -->
<g id="edge5" class="edge">
<title>reset_beneficiary&#45;&gt;simple_map::contains_key</title>
<path fill="none" stroke="black" d="M802.82,-513.04C829,-509.85 858.09,-503.23 882,-490 923.54,-467.02 957.13,-421.95 975.55,-393.22"/>
<polygon fill="black" stroke="black" points="978.3,-395.42 980.62,-385.08 972.36,-391.71 978.3,-395.42"/>
</g>
<!-- get_role_holder -->
<g id="node7" class="node">
<title>get_role_holder</title>
<ellipse fill="none" stroke="black" cx="781" cy="-441" rx="66.09" ry="18"/>
<text text-anchor="middle" x="781" y="-437.3" font-family="Times,serif" font-size="14.00">get_role_holder</text>
</g>
<!-- reset_beneficiary&#45;&gt;get_role_holder -->
<g id="edge6" class="edge">
<title>reset_beneficiary&#45;&gt;get_role_holder</title>
<path fill="none" stroke="black" d="M743.36,-498.07C749.26,-489.29 756.59,-478.36 763.22,-468.49"/>
<polygon fill="black" stroke="black" points="766.02,-470.6 768.68,-460.35 760.2,-466.7 766.02,-470.6"/>
</g>
<!-- string::internal_check_utf8 -->
<g id="node8" class="node">
<title>string::internal_check_utf8</title>
<ellipse fill="none" stroke="black" cx="417" cy="-366" rx="81.49" ry="18"/>
<text text-anchor="middle" x="417" y="-362.3" font-family="Times,serif" font-size="14.00">internal_check_utf8</text>
</g>
<!-- string::utf8&#45;&gt;string::internal_check_utf8 -->
<g id="edge7" class="edge">
<title>string::utf8&#45;&gt;string::internal_check_utf8</title>
<path fill="none" stroke="black" d="M437.74,-423.07C434.65,-414.71 430.84,-404.42 427.33,-394.94"/>
<polygon fill="black" stroke="black" points="430.69,-393.93 423.94,-385.77 424.13,-396.36 430.69,-393.93"/>
</g>
<!-- signer::borrow_address -->
<g id="node9" class="node">
<title>signer::borrow_address</title>
<ellipse fill="none" stroke="black" cx="589" cy="-366" rx="66.89" ry="18"/>
<text text-anchor="middle" x="589" y="-362.3" font-family="Times,serif" font-size="14.00">borrow_address</text>
</g>
<!-- signer::address_of&#45;&gt;signer::borrow_address -->
<g id="edge8" class="edge">
<title>signer::address_of&#45;&gt;signer::borrow_address</title>
<path fill="none" stroke="black" d="M595.87,-422.7C594.88,-414.67 593.67,-404.9 592.55,-395.8"/>
<polygon fill="black" stroke="black" points="596.03,-395.43 591.33,-385.93 589.08,-396.28 596.03,-395.43"/>
</g>
<!-- error::canonical -->
<g id="node10" class="node">
<title>error::canonical</title>
<ellipse fill="none" stroke="black" cx="235" cy="-200" rx="44.39" ry="18"/>
<text text-anchor="middle" x="235" y="-196.3" font-family="Times,serif" font-size="14.00">canonical</text>
</g>
<!-- error::permission_denied&#45;&gt;error::canonical -->
<g id="edge9" class="edge">
<title>error::permission_denied&#45;&gt;error::canonical</title>
<path fill="none" stroke="black" d="M121.39,-265.8C144.06,-252.88 175.91,-234.71 200.12,-220.9"/>
<polygon fill="black" stroke="black" points="201.71,-224.02 208.67,-216.02 198.25,-217.94 201.71,-224.02"/>
</g>
<!-- option::extract -->
<g id="node11" class="node">
<title>option::extract</title>
<ellipse fill="none" stroke="black" cx="1020" cy="-200" rx="34.39" ry="18"/>
<text text-anchor="middle" x="1020" y="-196.3" font-family="Times,serif" font-size="14.00">extract</text>
</g>
<!-- simple_map::remove&#45;&gt;option::extract -->
<g id="edge10" class="edge">
<title>simple_map::remove&#45;&gt;option::extract</title>
<path fill="none" stroke="black" d="M901.56,-351.56C908.95,-347.59 917.21,-343.4 925,-340 934.92,-335.67 939.73,-338.98 948,-332 980.55,-304.5 1000.97,-258.38 1011.42,-228.84"/>
<polygon fill="black" stroke="black" points="1014.7,-230.07 1014.58,-219.47 1008.07,-227.83 1014.7,-230.07"/>
</g>
<!-- option::is_some -->
<g id="node12" class="node">
<title>option::is_some</title>
<ellipse fill="none" stroke="black" cx="1014" cy="-117" rx="40.09" ry="18"/>
<text text-anchor="middle" x="1014" y="-113.3" font-family="Times,serif" font-size="14.00">is_some</text>
</g>
<!-- simple_map::remove&#45;&gt;option::is_some -->
<g id="edge11" class="edge">
<title>simple_map::remove&#45;&gt;option::is_some</title>
<path fill="none" stroke="black" d="M899.63,-350.92C907.33,-346.62 916.27,-342.4 925,-340 943.34,-334.97 1082.87,-345.76 1096,-332 1144.48,-281.2 1128.79,-236.1 1096,-174 1086.87,-156.7 1069.72,-143.74 1053.46,-134.67"/>
<polygon fill="black" stroke="black" points="1055.37,-131.71 1044.88,-130.21 1052.14,-137.92 1055.37,-131.71"/>
</g>
<!-- error::invalid_argument -->
<g id="node13" class="node">
<title>error::invalid_argument</title>
<ellipse fill="none" stroke="black" cx="373" cy="-283" rx="73.39" ry="18"/>
<text text-anchor="middle" x="373" y="-279.3" font-family="Times,serif" font-size="14.00">invalid_argument</text>
</g>
<!-- simple_map::remove&#45;&gt;error::invalid_argument -->
<g id="edge12" class="edge">
<title>simple_map::remove&#45;&gt;error::invalid_argument</title>
<path fill="none" stroke="black" d="M856.32,-351.12C848.61,-346.83 839.69,-342.57 831,-340 791.21,-328.24 779.24,-336.48 738,-332 636.47,-320.96 519.47,-305 445.88,-294.56"/>
<polygon fill="black" stroke="black" points="446.79,-291.16 436.4,-293.22 445.8,-298.09 446.79,-291.16"/>
</g>
<!-- simple_map::find -->
<g id="node14" class="node">
<title>simple_map::find</title>
<ellipse fill="none" stroke="black" cx="862" cy="-283" rx="27" ry="18"/>
<text text-anchor="middle" x="862" y="-279.3" font-family="Times,serif" font-size="14.00">find</text>
</g>
<!-- simple_map::remove&#45;&gt;simple_map::find -->
<g id="edge13" class="edge">
<title>simple_map::remove&#45;&gt;simple_map::find</title>
<path fill="none" stroke="black" d="M874.61,-347.82C872.57,-337.51 869.93,-324.14 867.59,-312.31"/>
<polygon fill="black" stroke="black" points="871.05,-311.77 865.68,-302.64 864.19,-313.13 871.05,-311.77"/>
</g>
<!-- simple_map::contains_key&#45;&gt;option::is_some -->
<g id="edge14" class="edge">
<title>simple_map::contains_key&#45;&gt;option::is_some</title>
<path fill="none" stroke="black" d="M1044.87,-359.52C1080.57,-354.64 1122.82,-346.06 1134,-332 1177.72,-277.05 1171.72,-233.23 1134,-174 1118.17,-149.14 1088.1,-135.14 1062.03,-127.35"/>
<polygon fill="black" stroke="black" points="1063.18,-124.04 1052.61,-124.78 1061.34,-130.79 1063.18,-124.04"/>
</g>
<!-- simple_map::contains_key&#45;&gt;simple_map::find -->
<g id="edge15" class="edge">
<title>simple_map::contains_key&#45;&gt;simple_map::find</title>
<path fill="none" stroke="black" d="M966.13,-349.38C944.67,-335.91 913.65,-316.43 891.06,-302.24"/>
<polygon fill="black" stroke="black" points="892.94,-299.3 882.61,-296.94 889.22,-305.22 892.94,-299.3"/>
</g>
<!-- get_role_holder&#45;&gt;simple_map::contains_key -->
<g id="edge18" class="edge">
<title>get_role_holder&#45;&gt;simple_map::contains_key</title>
<path fill="none" stroke="black" d="M844.08,-435.35C869.92,-431.86 899.65,-425.73 925,-415 938.97,-409.09 952.79,-399.73 964.15,-390.84"/>
<polygon fill="black" stroke="black" points="966.35,-393.56 971.89,-384.53 961.93,-388.14 966.35,-393.56"/>
</g>
<!-- error::not_found -->
<g id="node15" class="node">
<title>error::not_found</title>
<ellipse fill="none" stroke="black" cx="235" cy="-283" rx="46.59" ry="18"/>
<text text-anchor="middle" x="235" y="-279.3" font-family="Times,serif" font-size="14.00">not_found</text>
</g>
<!-- get_role_holder&#45;&gt;error::not_found -->
<g id="edge16" class="edge">
<title>get_role_holder&#45;&gt;error::not_found</title>
<path fill="none" stroke="black" d="M749.86,-424.74C745.58,-421.86 741.48,-418.61 738,-415 711.78,-387.8 730.2,-359.75 698,-340 678.72,-328.17 312.13,-340.05 291,-332 277.99,-327.04 265.93,-317.64 256.36,-308.46"/>
<polygon fill="black" stroke="black" points="258.87,-306.01 249.37,-301.31 253.86,-310.91 258.87,-306.01"/>
</g>
<!-- simple_map::borrow -->
<g id="node16" class="node">
<title>simple_map::borrow</title>
<ellipse fill="none" stroke="black" cx="786" cy="-366" rx="36.29" ry="18"/>
<text text-anchor="middle" x="786" y="-362.3" font-family="Times,serif" font-size="14.00">borrow</text>
</g>
<!-- get_role_holder&#45;&gt;simple_map::borrow -->
<g id="edge17" class="edge">
<title>get_role_holder&#45;&gt;simple_map::borrow</title>
<path fill="none" stroke="black" d="M782.18,-422.7C782.74,-414.67 783.4,-404.9 784.03,-395.8"/>
<polygon fill="black" stroke="black" points="787.51,-396.15 784.7,-385.94 780.53,-395.68 787.51,-396.15"/>
</g>
<!-- option::extract&#45;&gt;option::is_some -->
<g id="edge19" class="edge">
<title>option::extract&#45;&gt;option::is_some</title>
<path fill="none" stroke="black" d="M1018.73,-181.82C1017.97,-171.58 1016.99,-158.33 1016.11,-146.55"/>
<polygon fill="black" stroke="black" points="1019.63,-146.66 1015.4,-136.94 1012.65,-147.17 1019.63,-146.66"/>
</g>
<!-- vector::is_empty -->
<g id="node17" class="node">
<title>vector::is_empty</title>
<ellipse fill="none" stroke="black" cx="1021" cy="-34" rx="43.59" ry="18"/>
<text text-anchor="middle" x="1021" y="-30.3" font-family="Times,serif" font-size="14.00">is_empty</text>
</g>
<!-- option::is_some&#45;&gt;vector::is_empty -->
<g id="edge20" class="edge">
<title>option::is_some&#45;&gt;vector::is_empty</title>
<path fill="none" stroke="black" d="M1015.48,-98.82C1016.37,-88.58 1017.52,-75.33 1018.53,-63.55"/>
<polygon fill="black" stroke="black" points="1021.99,-64.2 1019.36,-53.94 1015.02,-63.6 1021.99,-64.2"/>
</g>
<!-- error::invalid_argument&#45;&gt;error::canonical -->
<g id="edge21" class="edge">
<title>error::invalid_argument&#45;&gt;error::canonical</title>
<path fill="none" stroke="black" d="M345.74,-266C323.74,-253.09 292.69,-234.86 269.06,-220.99"/>
<polygon fill="black" stroke="black" points="271.13,-218.15 260.74,-216.11 267.59,-224.19 271.13,-218.15"/>
</g>
<!-- option::none -->
<g id="node18" class="node">
<title>option::none</title>
<ellipse fill="none" stroke="black" cx="862" cy="-200" rx="27.9" ry="18"/>
<text text-anchor="middle" x="862" y="-196.3" font-family="Times,serif" font-size="14.00">none</text>
</g>
<!-- simple_map::find&#45;&gt;option::none -->
<g id="edge22" class="edge">
<title>simple_map::find&#45;&gt;option::none</title>
<path fill="none" stroke="black" d="M862,-264.82C862,-254.69 862,-241.6 862,-229.92"/>
<polygon fill="black" stroke="black" points="865.5,-229.95 862,-219.95 858.5,-229.95 865.5,-229.95"/>
</g>
<!-- option::some -->
<g id="node19" class="node">
<title>option::some</title>
<ellipse fill="none" stroke="black" cx="938" cy="-200" rx="29.8" ry="18"/>
<text text-anchor="middle" x="938" y="-196.3" font-family="Times,serif" font-size="14.00">some</text>
</g>
<!-- simple_map::find&#45;&gt;option::some -->
<g id="edge23" class="edge">
<title>simple_map::find&#45;&gt;option::some</title>
<path fill="none" stroke="black" d="M878.36,-268.4C884.99,-262.65 892.58,-255.72 899,-249 905.96,-241.71 913.06,-233.32 919.26,-225.61"/>
<polygon fill="black" stroke="black" points="921.93,-227.87 925.37,-217.85 916.43,-223.54 921.93,-227.87"/>
</g>
<!-- comparator::compare -->
<g id="node20" class="node">
<title>comparator::compare</title>
<ellipse fill="none" stroke="black" cx="512" cy="-200" rx="41.69" ry="18"/>
<text text-anchor="middle" x="512" y="-196.3" font-family="Times,serif" font-size="14.00">compare</text>
</g>
<!-- simple_map::find&#45;&gt;comparator::compare -->
<g id="edge24" class="edge">
<title>simple_map::find&#45;&gt;comparator::compare</title>
<path fill="none" stroke="black" d="M835.05,-281.2C770.94,-278.95 611.13,-271.22 563,-249 551.29,-243.59 540.52,-234.42 531.93,-225.54"/>
<polygon fill="black" stroke="black" points="534.73,-223.42 525.42,-218.36 529.55,-228.12 534.73,-223.42"/>
</g>
<!-- comparator::is_smaller_than -->
<g id="node21" class="node">
<title>comparator::is_smaller_than</title>
<ellipse fill="none" stroke="black" cx="639" cy="-200" rx="66.89" ry="18"/>
<text text-anchor="middle" x="639" y="-196.3" font-family="Times,serif" font-size="14.00">is_smaller_than</text>
</g>
<!-- simple_map::find&#45;&gt;comparator::is_smaller_than -->
<g id="edge25" class="edge">
<title>simple_map::find&#45;&gt;comparator::is_smaller_than</title>
<path fill="none" stroke="black" d="M838.56,-273.48C803.15,-260.62 735.22,-235.95 688.53,-218.99"/>
<polygon fill="black" stroke="black" points="689.76,-215.71 679.16,-215.59 687.37,-222.29 689.76,-215.71"/>
</g>
<!-- error::not_found&#45;&gt;error::canonical -->
<g id="edge26" class="edge">
<title>error::not_found&#45;&gt;error::canonical</title>
<path fill="none" stroke="black" d="M235,-264.82C235,-254.69 235,-241.6 235,-229.92"/>
<polygon fill="black" stroke="black" points="238.5,-229.95 235,-219.95 231.5,-229.95 238.5,-229.95"/>
</g>
<!-- simple_map::borrow&#45;&gt;option::extract -->
<g id="edge27" class="edge">
<title>simple_map::borrow&#45;&gt;option::extract</title>
<path fill="none" stroke="black" d="M807.2,-351.01C814.47,-346.82 822.84,-342.64 831,-340 859.53,-330.77 872.45,-347.7 898,-332 932.14,-311.03 915.53,-280.47 948,-257 958.84,-249.17 965.63,-256.04 977,-249 986.4,-243.18 994.95,-234.7 1001.9,-226.48"/>
<polygon fill="black" stroke="black" points="1004.63,-228.67 1008.1,-218.66 999.15,-224.32 1004.63,-228.67"/>
</g>
<!-- simple_map::borrow&#45;&gt;option::is_some -->
<g id="edge28" class="edge">
<title>simple_map::borrow&#45;&gt;option::is_some</title>
<path fill="none" stroke="black" d="M806.68,-351.06C814.05,-346.77 822.61,-342.51 831,-340 876.26,-326.44 892.29,-347.26 937,-332 1000.46,-310.34 1031.2,-308.04 1063,-249 1078.81,-219.65 1074.72,-205.2 1063,-174 1058.37,-161.69 1049.67,-150.31 1040.88,-141.07"/>
<polygon fill="black" stroke="black" points="1043.55,-138.79 1033.96,-134.28 1038.64,-143.78 1043.55,-138.79"/>
</g>
<!-- simple_map::borrow&#45;&gt;error::invalid_argument -->
<g id="edge29" class="edge">
<title>simple_map::borrow&#45;&gt;error::invalid_argument</title>
<path fill="none" stroke="black" d="M762.98,-351.61C754.71,-347.32 745.15,-342.92 736,-340 642.09,-310.09 529.25,-295.88 454.58,-289.32"/>
<polygon fill="black" stroke="black" points="455.15,-285.86 444.89,-288.5 454.56,-292.83 455.15,-285.86"/>
</g>
<!-- simple_map::borrow&#45;&gt;simple_map::find -->
<g id="edge30" class="edge">
<title>simple_map::borrow&#45;&gt;simple_map::find</title>
<path fill="none" stroke="black" d="M800.65,-349.38C811.91,-337.39 827.62,-320.65 840.32,-307.1"/>
<polygon fill="black" stroke="black" points="842.83,-309.54 847.12,-299.85 837.73,-304.75 842.83,-309.54"/>
</g>
<!-- vector::singleton -->
<g id="node22" class="node">
<title>vector::singleton</title>
<ellipse fill="none" stroke="black" cx="917" cy="-34" rx="42.79" ry="18"/>
<text text-anchor="middle" x="917" y="-30.3" font-family="Times,serif" font-size="14.00">singleton</text>
</g>
<!-- option::some&#45;&gt;vector::singleton -->
<g id="edge31" class="edge">
<title>option::some&#45;&gt;vector::singleton</title>
<path fill="none" stroke="black" d="M935.79,-181.76C932.18,-153.51 924.95,-97.11 920.59,-63.04"/>
<polygon fill="black" stroke="black" points="924.11,-62.99 919.37,-53.51 917.17,-63.87 924.11,-62.99"/>
</g>
<!-- bcs::to_bytes -->
<g id="node23" class="node">
<title>bcs::to_bytes</title>
<ellipse fill="none" stroke="black" cx="770" cy="-117" rx="40.09" ry="18"/>
<text text-anchor="middle" x="770" y="-113.3" font-family="Times,serif" font-size="14.00">to_bytes</text>
</g>
<!-- comparator::compare&#45;&gt;bcs::to_bytes -->
<g id="edge32" class="edge">
<title>comparator::compare&#45;&gt;bcs::to_bytes</title>
<path fill="none" stroke="black" d="M535.87,-184.83C544.18,-180.57 553.74,-176.4 563,-174 596.39,-165.34 686.21,-179.38 718,-166 730.01,-160.94 741,-151.83 749.75,-142.9"/>
<polygon fill="black" stroke="black" points="752.22,-145.38 756.39,-135.64 747.06,-140.66 752.22,-145.38"/>
</g>
<!-- comparator::compare_u8_vector -->
<g id="node24" class="node">
<title>comparator::compare_u8_vector</title>
<ellipse fill="none" stroke="black" cx="551" cy="-117" rx="81.49" ry="18"/>
<text text-anchor="middle" x="551" y="-113.3" font-family="Times,serif" font-size="14.00">compare_u8_vector</text>
</g>
<!-- comparator::compare&#45;&gt;comparator::compare_u8_vector -->
<g id="edge33" class="edge">
<title>comparator::compare&#45;&gt;comparator::compare_u8_vector</title>
<path fill="none" stroke="black" d="M520.08,-182.22C525.19,-171.61 531.91,-157.65 537.78,-145.45"/>
<polygon fill="black" stroke="black" points="540.82,-147.21 542,-136.68 534.51,-144.18 540.82,-147.21"/>
</g>
</g>
</svg>
