<?xml version="1.0" encoding="UTF-8" standalone="no"?>
<!DOCTYPE svg PUBLIC "-//W3C//DTD SVG 1.1//EN"
 "http://www.w3.org/Graphics/SVG/1.1/DTD/svg11.dtd">
<!-- Generated by graphviz version 7.0.0 (20221023.0053)
 -->
<!-- Title: G Pages: 1 -->
<svg width="1798pt" height="542pt"
 viewBox="0.00 0.00 1798.00 542.00" xmlns="http://www.w3.org/2000/svg" xmlns:xlink="http://www.w3.org/1999/xlink">
<g id="graph0" class="graph" transform="scale(1 1) rotate(0) translate(4 538)">
<title>G</title>
<polygon fill="white" stroke="none" points="-4,4 -4,-538 1794,-538 1794,4 -4,4"/>
<g id="clust1" class="cluster">
<title>cluster_string</title>
<polygon fill="none" stroke="black" points="8,-340 8,-490 186,-490 186,-340 8,-340"/>
<text text-anchor="middle" x="97" y="-474.8" font-family="Times,serif" font-size="14.00">string</text>
</g>
<g id="clust2" class="cluster">
<title>cluster_simple_map</title>
<polygon fill="none" stroke="black" points="486,-257 486,-415 898,-415 898,-257 486,-257"/>
<text text-anchor="middle" x="692" y="-399.8" font-family="Times,serif" font-size="14.00">simple_map</text>
</g>
<g id="clust3" class="cluster">
<title>cluster_option</title>
<polygon fill="none" stroke="black" points="608,-91 608,-249 939,-249 939,-91 608,-91"/>
<text text-anchor="middle" x="773.5" y="-233.8" font-family="Times,serif" font-size="14.00">option</text>
</g>
<g id="clust4" class="cluster">
<title>cluster_error</title>
<polygon fill="none" stroke="black" points="1311,-174 1311,-332 1624,-332 1624,-174 1311,-174"/>
<text text-anchor="middle" x="1467.5" y="-316.8" font-family="Times,serif" font-size="14.00">error</text>
</g>
<g id="clust5" class="cluster">
<title>cluster_account</title>
<polygon fill="none" stroke="black" points="212,-174 212,-332 460,-332 460,-174 212,-174"/>
<text text-anchor="middle" x="336" y="-316.8" font-family="Times,serif" font-size="14.00">account</text>
</g>
<g id="clust6" class="cluster">
<title>cluster_signer</title>
<polygon fill="none" stroke="black" points="1632,-174 1632,-332 1782,-332 1782,-174 1632,-174"/>
<text text-anchor="middle" x="1707" y="-316.8" font-family="Times,serif" font-size="14.00">signer</text>
</g>
<g id="clust7" class="cluster">
<title>cluster_vector</title>
<polygon fill="none" stroke="black" points="689,-8 689,-83 896,-83 896,-8 689,-8"/>
<text text-anchor="middle" x="792.5" y="-67.8" font-family="Times,serif" font-size="14.00">vector</text>
</g>
<g id="clust8" class="cluster">
<title>cluster_comparator</title>
<polygon fill="none" stroke="black" points="1051,-91 1051,-249 1303,-249 1303,-91 1051,-91"/>
<text text-anchor="middle" x="1177" y="-233.8" font-family="Times,serif" font-size="14.00">comparator</text>
</g>
<g id="clust9" class="cluster">
<title>cluster_bcs</title>
<polygon fill="none" stroke="black" points="947,-91 947,-166 1043,-166 1043,-91 947,-91"/>
<text text-anchor="middle" x="995" y="-150.8" font-family="Times,serif" font-size="14.00">bcs</text>
</g>
<!-- set_beneficiary_resetter -->
<g id="node1" class="node">
<title>set_beneficiary_resetter</title>
<ellipse fill="none" stroke="black" cx="392" cy="-516" rx="94.78" ry="18"/>
<text text-anchor="middle" x="392" y="-512.3" font-family="Times,serif" font-size="14.00">set_beneficiary_resetter</text>
</g>
<!-- string::utf8 -->
<g id="node2" class="node">
<title>string::utf8</title>
<ellipse fill="none" stroke="black" cx="124" cy="-441" rx="27" ry="18"/>
<text text-anchor="middle" x="124" y="-437.3" font-family="Times,serif" font-size="14.00">utf8</text>
</g>
<!-- set_beneficiary_resetter&#45;&gt;string::utf8 -->
<g id="edge1" class="edge">
<title>set_beneficiary_resetter&#45;&gt;string::utf8</title>
<path fill="none" stroke="black" d="M339.37,-500.66C286.25,-486.2 205.67,-464.25 159.62,-451.7"/>
<polygon fill="black" stroke="black" points="160.72,-448.38 150.15,-449.12 158.88,-455.13 160.72,-448.38"/>
</g>
<!-- set_management_role -->
<g id="node3" class="node">
<title>set_management_role</title>
<ellipse fill="none" stroke="black" cx="633" cy="-441" rx="89.08" ry="18"/>
<text text-anchor="middle" x="633" y="-437.3" font-family="Times,serif" font-size="14.00">set_management_role</text>
</g>
<!-- set_beneficiary_resetter&#45;&gt;set_management_role -->
<g id="edge2" class="edge">
<title>set_beneficiary_resetter&#45;&gt;set_management_role</title>
<path fill="none" stroke="black" d="M440.77,-500.23C479.32,-488.55 533.28,-472.21 574.22,-459.81"/>
<polygon fill="black" stroke="black" points="575.12,-463.19 583.68,-456.94 573.09,-456.49 575.12,-463.19"/>
</g>
<!-- string::internal_check_utf8 -->
<g id="node4" class="node">
<title>string::internal_check_utf8</title>
<ellipse fill="none" stroke="black" cx="97" cy="-366" rx="81.49" ry="18"/>
<text text-anchor="middle" x="97" y="-362.3" font-family="Times,serif" font-size="14.00">internal_check_utf8</text>
</g>
<!-- string::utf8&#45;&gt;string::internal_check_utf8 -->
<g id="edge3" class="edge">
<title>string::utf8&#45;&gt;string::internal_check_utf8</title>
<path fill="none" stroke="black" d="M117.74,-423.07C114.65,-414.71 110.84,-404.42 107.33,-394.94"/>
<polygon fill="black" stroke="black" points="110.69,-393.93 103.94,-385.77 104.13,-396.36 110.69,-393.93"/>
</g>
<!-- simple_map::borrow_mut -->
<g id="node5" class="node">
<title>simple_map::borrow_mut</title>
<ellipse fill="none" stroke="black" cx="763" cy="-366" rx="54.69" ry="18"/>
<text text-anchor="middle" x="763" y="-362.3" font-family="Times,serif" font-size="14.00">borrow_mut</text>
</g>
<!-- set_management_role&#45;&gt;simple_map::borrow_mut -->
<g id="edge4" class="edge">
<title>set_management_role&#45;&gt;simple_map::borrow_mut</title>
<path fill="none" stroke="black" d="M677.79,-425C685.04,-422.01 692.34,-418.66 699,-415 711.61,-408.06 724.5,-398.88 735.38,-390.4"/>
<polygon fill="black" stroke="black" points="737.56,-393.13 743.18,-384.15 733.19,-387.67 737.56,-393.13"/>
</g>
<!-- simple_map::add -->
<g id="node6" class="node">
<title>simple_map::add</title>
<ellipse fill="none" stroke="black" cx="863" cy="-366" rx="27" ry="18"/>
<text text-anchor="middle" x="863" y="-362.3" font-family="Times,serif" font-size="14.00">add</text>
</g>
<!-- set_management_role&#45;&gt;simple_map::add -->
<g id="edge5" class="edge">
<title>set_management_role&#45;&gt;simple_map::add</title>
<path fill="none" stroke="black" d="M718.49,-435.5C761.61,-431.95 808.59,-425.73 827,-415 835.93,-409.8 843.34,-401.42 849.07,-393.11"/>
<polygon fill="black" stroke="black" points="851.89,-395.2 854.22,-384.86 845.96,-391.49 851.89,-395.2"/>
</g>
<!-- simple_map::create -->
<g id="node7" class="node">
<title>simple_map::create</title>
<ellipse fill="none" stroke="black" cx="526" cy="-366" rx="31.7" ry="18"/>
<text text-anchor="middle" x="526" y="-362.3" font-family="Times,serif" font-size="14.00">create</text>
</g>
<!-- set_management_role&#45;&gt;simple_map::create -->
<g id="edge6" class="edge">
<title>set_management_role&#45;&gt;simple_map::create</title>
<path fill="none" stroke="black" d="M585.71,-425.45C579.15,-422.49 572.71,-419.02 567,-415 558.14,-408.77 550.01,-400.2 543.37,-392.02"/>
<polygon fill="black" stroke="black" points="546.32,-390.12 537.46,-384.3 540.76,-394.37 546.32,-390.12"/>
</g>
<!-- simple_map::contains_key -->
<g id="node8" class="node">
<title>simple_map::contains_key</title>
<ellipse fill="none" stroke="black" cx="633" cy="-366" rx="57.39" ry="18"/>
<text text-anchor="middle" x="633" y="-362.3" font-family="Times,serif" font-size="14.00">contains_key</text>
</g>
<!-- set_management_role&#45;&gt;simple_map::contains_key -->
<g id="edge7" class="edge">
<title>set_management_role&#45;&gt;simple_map::contains_key</title>
<path fill="none" stroke="black" d="M633,-422.7C633,-414.67 633,-404.9 633,-395.8"/>
<polygon fill="black" stroke="black" points="636.5,-395.94 633,-385.94 629.5,-395.94 636.5,-395.94"/>
</g>
<!-- get_vesting_account_signer_internal -->
<g id="node9" class="node">
<title>get_vesting_account_signer_internal</title>
<ellipse fill="none" stroke="black" cx="336" cy="-366" rx="139.98" ry="18"/>
<text text-anchor="middle" x="336" y="-362.3" font-family="Times,serif" font-size="14.00">get_vesting_account_signer_internal</text>
</g>
<!-- set_management_role&#45;&gt;get_vesting_account_signer_internal -->
<g id="edge8" class="edge">
<title>set_management_role&#45;&gt;get_vesting_account_signer_internal</title>
<path fill="none" stroke="black" d="M560.34,-430.28C535.34,-426.33 507.29,-421.21 482,-415 451.48,-407.5 418.14,-396.75 391.04,-387.31"/>
<polygon fill="black" stroke="black" points="392.24,-384.03 381.64,-384.01 389.91,-390.63 392.24,-384.03"/>
</g>
<!-- verify_admin -->
<g id="node10" class="node">
<title>verify_admin</title>
<ellipse fill="none" stroke="black" cx="1550" cy="-366" rx="58.49" ry="18"/>
<text text-anchor="middle" x="1550" y="-362.3" font-family="Times,serif" font-size="14.00">verify_admin</text>
</g>
<!-- set_management_role&#45;&gt;verify_admin -->
<g id="edge9" class="edge">
<title>set_management_role&#45;&gt;verify_admin</title>
<path fill="none" stroke="black" d="M714.78,-433.49C893.75,-419.24 1317.32,-385.52 1482.44,-372.38"/>
<polygon fill="black" stroke="black" points="1482.68,-375.87 1492.37,-371.59 1482.12,-368.89 1482.68,-375.87"/>
</g>
<!-- option::extract -->
<g id="node11" class="node">
<title>option::extract</title>
<ellipse fill="none" stroke="black" cx="650" cy="-200" rx="34.39" ry="18"/>
<text text-anchor="middle" x="650" y="-196.3" font-family="Times,serif" font-size="14.00">extract</text>
</g>
<!-- simple_map::borrow_mut&#45;&gt;option::extract -->
<g id="edge10" class="edge">
<title>simple_map::borrow_mut&#45;&gt;option::extract</title>
<path fill="none" stroke="black" d="M736.15,-350.04C728.67,-344.99 720.96,-338.88 715,-332 688.1,-300.98 669.24,-256.88 659.01,-228.6"/>
<polygon fill="black" stroke="black" points="662.37,-227.6 655.77,-219.31 655.76,-229.91 662.37,-227.6"/>
</g>
<!-- option::is_some -->
<g id="node12" class="node">
<title>option::is_some</title>
<ellipse fill="none" stroke="black" cx="656" cy="-117" rx="40.09" ry="18"/>
<text text-anchor="middle" x="656" y="-113.3" font-family="Times,serif" font-size="14.00">is_some</text>
</g>
<!-- simple_map::borrow_mut&#45;&gt;option::is_some -->
<g id="edge11" class="edge">
<title>simple_map::borrow_mut&#45;&gt;option::is_some</title>
<path fill="none" stroke="black" d="M730.09,-351.17C720.19,-347.27 709.24,-343.23 699,-340 684.61,-335.47 678.5,-340.46 666,-332 628.53,-306.62 620.76,-292.12 607,-249 596.86,-217.25 595.28,-205.2 607,-174 611.63,-161.69 620.33,-150.31 629.12,-141.07"/>
<polygon fill="black" stroke="black" points="631.36,-143.78 636.04,-134.28 626.45,-138.79 631.36,-143.78"/>
</g>
<!-- error::invalid_argument -->
<g id="node13" class="node">
<title>error::invalid_argument</title>
<ellipse fill="none" stroke="black" cx="1392" cy="-283" rx="73.39" ry="18"/>
<text text-anchor="middle" x="1392" y="-279.3" font-family="Times,serif" font-size="14.00">invalid_argument</text>
</g>
<!-- simple_map::borrow_mut&#45;&gt;error::invalid_argument -->
<g id="edge12" class="edge">
<title>simple_map::borrow_mut&#45;&gt;error::invalid_argument</title>
<path fill="none" stroke="black" d="M794.35,-350.78C804.57,-346.68 816.1,-342.62 827,-340 832.86,-338.59 1159.62,-306.64 1313.48,-291.64"/>
<polygon fill="black" stroke="black" points="1313.57,-295.15 1323.19,-290.7 1312.9,-288.19 1313.57,-295.15"/>
</g>
<!-- simple_map::find -->
<g id="node14" class="node">
<title>simple_map::find</title>
<ellipse fill="none" stroke="black" cx="863" cy="-283" rx="27" ry="18"/>
<text text-anchor="middle" x="863" y="-279.3" font-family="Times,serif" font-size="14.00">find</text>
</g>
<!-- simple_map::borrow_mut&#45;&gt;simple_map::find -->
<g id="edge13" class="edge">
<title>simple_map::borrow_mut&#45;&gt;simple_map::find</title>
<path fill="none" stroke="black" d="M782.76,-349C798.41,-336.32 820.41,-318.5 837.41,-304.73"/>
<polygon fill="black" stroke="black" points="839.53,-307.52 845.09,-298.5 835.12,-302.08 839.53,-307.52"/>
</g>
<!-- simple_map::add&#45;&gt;option::extract -->
<g id="edge14" class="edge">
<title>simple_map::add&#45;&gt;option::extract</title>
<path fill="none" stroke="black" d="M846.72,-351.3C840.84,-347.03 833.94,-342.73 827,-340 803.6,-330.8 793.07,-344.04 771,-332 732.28,-310.88 739.09,-286.16 706,-257 701.19,-252.76 698.87,-253.17 694,-249 685.77,-241.95 677.53,-233.44 670.44,-225.56"/>
<polygon fill="black" stroke="black" points="673.21,-223.41 663.99,-218.18 667.94,-228.01 673.21,-223.41"/>
</g>
<!-- simple_map::add&#45;&gt;error::invalid_argument -->
<g id="edge16" class="edge">
<title>simple_map::add&#45;&gt;error::invalid_argument</title>
<path fill="none" stroke="black" d="M889.23,-360.98C967.39,-349.02 1200.66,-313.3 1319.98,-295.03"/>
<polygon fill="black" stroke="black" points="1320.31,-298.52 1329.66,-293.55 1319.25,-291.6 1320.31,-298.52"/>
</g>
<!-- simple_map::add&#45;&gt;simple_map::find -->
<g id="edge17" class="edge">
<title>simple_map::add&#45;&gt;simple_map::find</title>
<path fill="none" stroke="black" d="M863,-347.82C863,-337.69 863,-324.6 863,-312.92"/>
<polygon fill="black" stroke="black" points="866.5,-312.95 863,-302.95 859.5,-312.95 866.5,-312.95"/>
</g>
<!-- option::is_none -->
<g id="node15" class="node">
<title>option::is_none</title>
<ellipse fill="none" stroke="black" cx="741" cy="-200" rx="38.19" ry="18"/>
<text text-anchor="middle" x="741" y="-196.3" font-family="Times,serif" font-size="14.00">is_none</text>
</g>
<!-- simple_map::add&#45;&gt;option::is_none -->
<g id="edge15" class="edge">
<title>simple_map::add&#45;&gt;option::is_none</title>
<path fill="none" stroke="black" d="M846.4,-351.34C840,-345.68 832.82,-338.85 827,-332 798.4,-298.37 771.5,-254.74 755.64,-227.3"/>
<polygon fill="black" stroke="black" points="758.87,-225.9 750.87,-218.95 752.79,-229.37 758.87,-225.9"/>
</g>
<!-- simple_map::contains_key&#45;&gt;option::is_some -->
<g id="edge18" class="edge">
<title>simple_map::contains_key&#45;&gt;option::is_some</title>
<path fill="none" stroke="black" d="M595.95,-352.02C587.25,-347.13 579.05,-340.61 574,-332 538.48,-271.43 541.21,-236.1 574,-174 583.13,-156.7 600.28,-143.74 616.54,-134.67"/>
<polygon fill="black" stroke="black" points="617.86,-137.92 625.12,-130.21 614.63,-131.71 617.86,-137.92"/>
</g>
<!-- simple_map::contains_key&#45;&gt;simple_map::find -->
<g id="edge19" class="edge">
<title>simple_map::contains_key&#45;&gt;simple_map::find</title>
<path fill="none" stroke="black" d="M668.2,-351.42C678.13,-347.65 688.97,-343.61 699,-340 743.51,-323.98 795.21,-306.51 828.47,-295.42"/>
<polygon fill="black" stroke="black" points="829.19,-298.87 837.58,-292.39 826.98,-292.23 829.19,-298.87"/>
</g>
<!-- account::create_signer_with_capability -->
<g id="node16" class="node">
<title>account::create_signer_with_capability</title>
<ellipse fill="none" stroke="black" cx="336" cy="-283" rx="116.18" ry="18"/>
<text text-anchor="middle" x="336" y="-279.3" font-family="Times,serif" font-size="14.00">create_signer_with_capability</text>
</g>
<!-- get_vesting_account_signer_internal&#45;&gt;account::create_signer_with_capability -->
<g id="edge20" class="edge">
<title>get_vesting_account_signer_internal&#45;&gt;account::create_signer_with_capability</title>
<path fill="none" stroke="black" d="M336,-347.82C336,-337.69 336,-324.6 336,-312.92"/>
<polygon fill="black" stroke="black" points="339.5,-312.95 336,-302.95 332.5,-312.95 339.5,-312.95"/>
</g>
<!-- signer::address_of -->
<g id="node17" class="node">
<title>signer::address_of</title>
<ellipse fill="none" stroke="black" cx="1698" cy="-283" rx="48.99" ry="18"/>
<text text-anchor="middle" x="1698" y="-279.3" font-family="Times,serif" font-size="14.00">address_of</text>
</g>
<!-- verify_admin&#45;&gt;signer::address_of -->
<g id="edge21" class="edge">
<title>verify_admin&#45;&gt;signer::address_of</title>
<path fill="none" stroke="black" d="M1586.04,-351.52C1599.49,-346.03 1614.71,-339.27 1628,-332 1641.77,-324.47 1656.2,-314.89 1668.36,-306.28"/>
<polygon fill="black" stroke="black" points="1670.28,-309.21 1676.34,-300.52 1666.18,-303.53 1670.28,-309.21"/>
</g>
<!-- error::unauthenticated -->
<g id="node18" class="node">
<title>error::unauthenticated</title>
<ellipse fill="none" stroke="black" cx="1550" cy="-283" rx="66.09" ry="18"/>
<text text-anchor="middle" x="1550" y="-279.3" font-family="Times,serif" font-size="14.00">unauthenticated</text>
</g>
<!-- verify_admin&#45;&gt;error::unauthenticated -->
<g id="edge22" class="edge">
<title>verify_admin&#45;&gt;error::unauthenticated</title>
<path fill="none" stroke="black" d="M1550,-347.82C1550,-337.69 1550,-324.6 1550,-312.92"/>
<polygon fill="black" stroke="black" points="1553.5,-312.95 1550,-302.95 1546.5,-312.95 1553.5,-312.95"/>
</g>
<!-- option::extract&#45;&gt;option::is_some -->
<g id="edge23" class="edge">
<title>option::extract&#45;&gt;option::is_some</title>
<path fill="none" stroke="black" d="M651.27,-181.82C652.03,-171.58 653.01,-158.33 653.89,-146.55"/>
<polygon fill="black" stroke="black" points="657.35,-147.17 654.6,-136.94 650.37,-146.66 657.35,-147.17"/>
</g>
<!-- vector::is_empty -->
<g id="node19" class="node">
<title>vector::is_empty</title>
<ellipse fill="none" stroke="black" cx="741" cy="-34" rx="43.59" ry="18"/>
<text text-anchor="middle" x="741" y="-30.3" font-family="Times,serif" font-size="14.00">is_empty</text>
</g>
<!-- option::is_some&#45;&gt;vector::is_empty -->
<g id="edge24" class="edge">
<title>option::is_some&#45;&gt;vector::is_empty</title>
<path fill="none" stroke="black" d="M672.39,-100.38C684.77,-88.58 701.99,-72.18 716.08,-58.75"/>
<polygon fill="black" stroke="black" points="718.45,-61.32 723.28,-51.89 713.62,-56.26 718.45,-61.32"/>
</g>
<!-- error::canonical -->
<g id="node20" class="node">
<title>error::canonical</title>
<ellipse fill="none" stroke="black" cx="1471" cy="-200" rx="44.39" ry="18"/>
<text text-anchor="middle" x="1471" y="-196.3" font-family="Times,serif" font-size="14.00">canonical</text>
</g>
<!-- error::invalid_argument&#45;&gt;error::canonical -->
<g id="edge25" class="edge">
<title>error::invalid_argument&#45;&gt;error::canonical</title>
<path fill="none" stroke="black" d="M1408.37,-265.22C1419.64,-253.66 1434.79,-238.13 1447.37,-225.23"/>
<polygon fill="black" stroke="black" points="1449.66,-227.9 1454.13,-218.29 1444.65,-223.01 1449.66,-227.9"/>
</g>
<!-- option::none -->
<g id="node21" class="node">
<title>option::none</title>
<ellipse fill="none" stroke="black" cx="825" cy="-200" rx="27.9" ry="18"/>
<text text-anchor="middle" x="825" y="-196.3" font-family="Times,serif" font-size="14.00">none</text>
</g>
<!-- simple_map::find&#45;&gt;option::none -->
<g id="edge26" class="edge">
<title>simple_map::find&#45;&gt;option::none</title>
<path fill="none" stroke="black" d="M855.31,-265.61C850.24,-254.81 843.49,-240.42 837.65,-227.96"/>
<polygon fill="black" stroke="black" points="840.87,-226.58 833.45,-219.02 834.53,-229.56 840.87,-226.58"/>
</g>
<!-- option::some -->
<g id="node22" class="node">
<title>option::some</title>
<ellipse fill="none" stroke="black" cx="901" cy="-200" rx="29.8" ry="18"/>
<text text-anchor="middle" x="901" y="-196.3" font-family="Times,serif" font-size="14.00">some</text>
</g>
<!-- simple_map::find&#45;&gt;option::some -->
<g id="edge27" class="edge">
<title>simple_map::find&#45;&gt;option::some</title>
<path fill="none" stroke="black" d="M870.69,-265.61C875.76,-254.81 882.51,-240.42 888.35,-227.96"/>
<polygon fill="black" stroke="black" points="891.47,-229.56 892.55,-219.02 885.13,-226.58 891.47,-229.56"/>
</g>
<!-- comparator::compare -->
<g id="node23" class="node">
<title>comparator::compare</title>
<ellipse fill="none" stroke="black" cx="1101" cy="-200" rx="41.69" ry="18"/>
<text text-anchor="middle" x="1101" y="-196.3" font-family="Times,serif" font-size="14.00">compare</text>
</g>
<!-- simple_map::find&#45;&gt;comparator::compare -->
<g id="edge28" class="edge">
<title>simple_map::find&#45;&gt;comparator::compare</title>
<path fill="none" stroke="black" d="M886.69,-273.94C926.7,-260.32 1008.18,-232.59 1058.34,-215.52"/>
<polygon fill="black" stroke="black" points="1059.39,-218.86 1067.72,-212.33 1057.13,-212.23 1059.39,-218.86"/>
</g>
<!-- comparator::is_smaller_than -->
<g id="node24" class="node">
<title>comparator::is_smaller_than</title>
<ellipse fill="none" stroke="black" cx="1228" cy="-200" rx="66.89" ry="18"/>
<text text-anchor="middle" x="1228" y="-196.3" font-family="Times,serif" font-size="14.00">is_smaller_than</text>
</g>
<!-- simple_map::find&#45;&gt;comparator::is_smaller_than -->
<g id="edge29" class="edge">
<title>simple_map::find&#45;&gt;comparator::is_smaller_than</title>
<path fill="none" stroke="black" d="M890.19,-282.87C942.49,-283.69 1060.07,-281.37 1152,-249 1168.46,-243.2 1185.05,-233.31 1198.51,-224"/>
<polygon fill="black" stroke="black" points="1200.4,-226.96 1206.48,-218.28 1196.31,-221.27 1200.4,-226.96"/>
</g>
<!-- option::is_none&#45;&gt;vector::is_empty -->
<g id="edge30" class="edge">
<title>option::is_none&#45;&gt;vector::is_empty</title>
<path fill="none" stroke="black" d="M741,-181.76C741,-153.63 741,-97.6 741,-63.49"/>
<polygon fill="black" stroke="black" points="744.5,-63.52 741,-53.52 737.5,-63.52 744.5,-63.52"/>
</g>
<!-- account::create_signer -->
<g id="node25" class="node">
<title>account::create_signer</title>
<ellipse fill="none" stroke="black" cx="336" cy="-200" rx="57.69" ry="18"/>
<text text-anchor="middle" x="336" y="-196.3" font-family="Times,serif" font-size="14.00">create_signer</text>
</g>
<!-- account::create_signer_with_capability&#45;&gt;account::create_signer -->
<g id="edge31" class="edge">
<title>account::create_signer_with_capability&#45;&gt;account::create_signer</title>
<path fill="none" stroke="black" d="M336,-264.82C336,-254.69 336,-241.6 336,-229.92"/>
<polygon fill="black" stroke="black" points="339.5,-229.95 336,-219.95 332.5,-229.95 339.5,-229.95"/>
</g>
<!-- signer::borrow_address -->
<g id="node26" class="node">
<title>signer::borrow_address</title>
<ellipse fill="none" stroke="black" cx="1707" cy="-200" rx="66.89" ry="18"/>
<text text-anchor="middle" x="1707" y="-196.3" font-family="Times,serif" font-size="14.00">borrow_address</text>
</g>
<!-- signer::address_of&#45;&gt;signer::borrow_address -->
<g id="edge32" class="edge">
<title>signer::address_of&#45;&gt;signer::borrow_address</title>
<path fill="none" stroke="black" d="M1699.91,-264.82C1701.05,-254.58 1702.52,-241.33 1703.83,-229.55"/>
<polygon fill="black" stroke="black" points="1707.27,-230.26 1704.9,-219.94 1700.31,-229.49 1707.27,-230.26"/>
</g>
<!-- error::unauthenticated&#45;&gt;error::canonical -->
<g id="edge33" class="edge">
<title>error::unauthenticated&#45;&gt;error::canonical</title>
<path fill="none" stroke="black" d="M1533.63,-265.22C1522.36,-253.66 1507.21,-238.13 1494.63,-225.23"/>
<polygon fill="black" stroke="black" points="1497.35,-223.01 1487.87,-218.29 1492.34,-227.9 1497.35,-223.01"/>
</g>
<!-- vector::singleton -->
<g id="node27" class="node">
<title>vector::singleton</title>
<ellipse fill="none" stroke="black" cx="845" cy="-34" rx="42.79" ry="18"/>
<text text-anchor="middle" x="845" y="-30.3" font-family="Times,serif" font-size="14.00">singleton</text>
</g>
<!-- option::some&#45;&gt;vector::singleton -->
<g id="edge34" class="edge">
<title>option::some&#45;&gt;vector::singleton</title>
<path fill="none" stroke="black" d="M895.22,-182.07C885.58,-153.83 866.13,-96.87 854.47,-62.72"/>
<polygon fill="black" stroke="black" points="857.87,-61.85 851.32,-53.52 851.24,-64.11 857.87,-61.85"/>
</g>
<!-- bcs::to_bytes -->
<g id="node28" class="node">
<title>bcs::to_bytes</title>
<ellipse fill="none" stroke="black" cx="995" cy="-117" rx="40.09" ry="18"/>
<text text-anchor="middle" x="995" y="-113.3" font-family="Times,serif" font-size="14.00">to_bytes</text>
</g>
<!-- comparator::compare&#45;&gt;bcs::to_bytes -->
<g id="edge35" class="edge">
<title>comparator::compare&#45;&gt;bcs::to_bytes</title>
<path fill="none" stroke="black" d="M1076.14,-185.2C1066.74,-179.63 1056.12,-172.89 1047,-166 1037.29,-158.67 1027.32,-149.83 1018.73,-141.74"/>
<polygon fill="black" stroke="black" points="1021.4,-139.45 1011.76,-135.04 1016.55,-144.5 1021.4,-139.45"/>
</g>
<!-- comparator::compare_u8_vector -->
<g id="node29" class="node">
<title>comparator::compare_u8_vector</title>
<ellipse fill="none" stroke="black" cx="1140" cy="-117" rx="81.49" ry="18"/>
<text text-anchor="middle" x="1140" y="-113.3" font-family="Times,serif" font-size="14.00">compare_u8_vector</text>
</g>
<!-- comparator::compare&#45;&gt;comparator::compare_u8_vector -->
<g id="edge36" class="edge">
<title>comparator::compare&#45;&gt;comparator::compare_u8_vector</title>
<path fill="none" stroke="black" d="M1109.08,-182.22C1114.19,-171.61 1120.91,-157.65 1126.78,-145.45"/>
<polygon fill="black" stroke="black" points="1129.82,-147.21 1131,-136.68 1123.51,-144.18 1129.82,-147.21"/>
</g>
</g>
</svg>
