<?xml version="1.0" encoding="UTF-8" standalone="no"?>
<!DOCTYPE svg PUBLIC "-//W3C//DTD SVG 1.1//EN"
 "http://www.w3.org/Graphics/SVG/1.1/DTD/svg11.dtd">
<!-- Generated by graphviz version 7.0.0 (20221023.0053)
 -->
<!-- Title: G Pages: 1 -->
<svg width="2105pt" height="625pt"
 viewBox="0.00 0.00 2105.00 625.00" xmlns="http://www.w3.org/2000/svg" xmlns:xlink="http://www.w3.org/1999/xlink">
<g id="graph0" class="graph" transform="scale(1 1) rotate(0) translate(4 621)">
<title>G</title>
<polygon fill="white" stroke="none" points="-4,4 -4,-621 2101,-621 2101,4 -4,4"/>
<g id="clust1" class="cluster">
<title>cluster_event</title>
<polygon fill="none" stroke="black" points="8,-340 8,-498 194,-498 194,-340 8,-340"/>
<text text-anchor="middle" x="101" y="-482.8" font-family="Times,serif" font-size="14.00">event</text>
</g>
<g id="clust2" class="cluster">
<title>cluster_staking_contract</title>
<polygon fill="none" stroke="black" points="757,-423 757,-573 1009,-573 1009,-423 757,-423"/>
<text text-anchor="middle" x="883" y="-557.8" font-family="Times,serif" font-size="14.00">staking_contract</text>
</g>
<g id="clust3" class="cluster">
<title>cluster_bcs</title>
<polygon fill="none" stroke="black" points="130,-91 130,-166 226,-166 226,-91 130,-91"/>
<text text-anchor="middle" x="178" y="-150.8" font-family="Times,serif" font-size="14.00">bcs</text>
</g>
<g id="clust4" class="cluster">
<title>cluster_signer</title>
<polygon fill="none" stroke="black" points="1683,-340 1683,-498 1833,-498 1833,-340 1683,-340"/>
<text text-anchor="middle" x="1758" y="-482.8" font-family="Times,serif" font-size="14.00">signer</text>
</g>
<g id="clust5" class="cluster">
<title>cluster_simple_map</title>
<polygon fill="none" stroke="black" points="542,-257 542,-415 800,-415 800,-257 542,-257"/>
<text text-anchor="middle" x="671" y="-399.8" font-family="Times,serif" font-size="14.00">simple_map</text>
</g>
<g id="clust6" class="cluster">
<title>cluster_stake</title>
<polygon fill="none" stroke="black" points="1241,-257 1241,-498 1675,-498 1675,-257 1241,-257"/>
<text text-anchor="middle" x="1458" y="-482.8" font-family="Times,serif" font-size="14.00">stake</text>
</g>
<g id="clust7" class="cluster">
<title>cluster_account</title>
<polygon fill="none" stroke="black" points="1841,-340 1841,-498 2089,-498 2089,-340 1841,-340"/>
<text text-anchor="middle" x="1965" y="-482.8" font-family="Times,serif" font-size="14.00">account</text>
</g>
<g id="clust8" class="cluster">
<title>cluster_error</title>
<polygon fill="none" stroke="black" points="808,-174 808,-332 1233,-332 1233,-174 808,-174"/>
<text text-anchor="middle" x="1020.5" y="-316.8" font-family="Times,serif" font-size="14.00">error</text>
</g>
<g id="clust9" class="cluster">
<title>cluster_option</title>
<polygon fill="none" stroke="black" points="494,-91 494,-249 730,-249 730,-91 494,-91"/>
<text text-anchor="middle" x="612" y="-233.8" font-family="Times,serif" font-size="14.00">option</text>
</g>
<g id="clust10" class="cluster">
<title>cluster_vector</title>
<polygon fill="none" stroke="black" points="534,-8 534,-83 741,-83 741,-8 534,-8"/>
<text text-anchor="middle" x="637.5" y="-67.8" font-family="Times,serif" font-size="14.00">vector</text>
</g>
<g id="clust11" class="cluster">
<title>cluster_comparator</title>
<polygon fill="none" stroke="black" points="234,-91 234,-249 486,-249 486,-91 234,-91"/>
<text text-anchor="middle" x="360" y="-233.8" font-family="Times,serif" font-size="14.00">comparator</text>
</g>
<!-- update_voter -->
<g id="node1" class="node">
<title>update_voter</title>
<ellipse fill="none" stroke="black" cx="1009" cy="-599" rx="56.59" ry="18"/>
<text text-anchor="middle" x="1009" y="-595.3" font-family="Times,serif" font-size="14.00">update_voter</text>
</g>
<!-- event::emit_event -->
<g id="node2" class="node">
<title>event::emit_event</title>
<ellipse fill="none" stroke="black" cx="136" cy="-449" rx="50.09" ry="18"/>
<text text-anchor="middle" x="136" y="-445.3" font-family="Times,serif" font-size="14.00">emit_event</text>
</g>
<!-- update_voter&#45;&gt;event::emit_event -->
<g id="edge1" class="edge">
<title>update_voter&#45;&gt;event::emit_event</title>
<path fill="none" stroke="black" d="M953.88,-594.21C901.9,-590.26 821.91,-583.21 753,-573 541.9,-541.73 293.63,-486.55 187.89,-462.16"/>
<polygon fill="black" stroke="black" points="188.92,-458.81 178.39,-459.97 187.34,-465.63 188.92,-458.81"/>
</g>
<!-- staking_contract::update_voter -->
<g id="node3" class="node">
<title>staking_contract::update_voter</title>
<ellipse fill="none" stroke="black" cx="943" cy="-524" rx="56.59" ry="18"/>
<text text-anchor="middle" x="943" y="-520.3" font-family="Times,serif" font-size="14.00">update_voter</text>
</g>
<!-- update_voter&#45;&gt;staking_contract::update_voter -->
<g id="edge2" class="edge">
<title>update_voter&#45;&gt;staking_contract::update_voter</title>
<path fill="none" stroke="black" d="M994.02,-581.44C985.64,-572.17 975.03,-560.43 965.65,-550.06"/>
<polygon fill="black" stroke="black" points="968.46,-547.95 959.16,-542.87 963.27,-552.64 968.46,-547.95"/>
</g>
<!-- get_vesting_account_signer_internal -->
<g id="node4" class="node">
<title>get_vesting_account_signer_internal</title>
<ellipse fill="none" stroke="black" cx="1628" cy="-524" rx="139.98" ry="18"/>
<text text-anchor="middle" x="1628" y="-520.3" font-family="Times,serif" font-size="14.00">get_vesting_account_signer_internal</text>
</g>
<!-- update_voter&#45;&gt;get_vesting_account_signer_internal -->
<g id="edge3" class="edge">
<title>update_voter&#45;&gt;get_vesting_account_signer_internal</title>
<path fill="none" stroke="black" d="M1061.51,-591.81C1161.6,-580 1381.67,-554.05 1516.15,-538.19"/>
<polygon fill="black" stroke="black" points="1516.26,-541.7 1525.78,-537.06 1515.44,-534.75 1516.26,-541.7"/>
</g>
<!-- verify_admin -->
<g id="node5" class="node">
<title>verify_admin</title>
<ellipse fill="none" stroke="black" cx="1076" cy="-524" rx="58.49" ry="18"/>
<text text-anchor="middle" x="1076" y="-520.3" font-family="Times,serif" font-size="14.00">verify_admin</text>
</g>
<!-- update_voter&#45;&gt;verify_admin -->
<g id="edge4" class="edge">
<title>update_voter&#45;&gt;verify_admin</title>
<path fill="none" stroke="black" d="M1024.2,-581.44C1032.71,-572.17 1043.49,-560.43 1053,-550.06"/>
<polygon fill="black" stroke="black" points="1055.42,-552.6 1059.6,-542.87 1050.26,-547.87 1055.42,-552.6"/>
</g>
<!-- bcs::to_bytes -->
<g id="node6" class="node">
<title>bcs::to_bytes</title>
<ellipse fill="none" stroke="black" cx="178" cy="-117" rx="40.09" ry="18"/>
<text text-anchor="middle" x="178" y="-113.3" font-family="Times,serif" font-size="14.00">to_bytes</text>
</g>
<!-- event::emit_event&#45;&gt;bcs::to_bytes -->
<g id="edge5" class="edge">
<title>event::emit_event&#45;&gt;bcs::to_bytes</title>
<path fill="none" stroke="black" d="M171.51,-435.86C180.78,-430.9 189.66,-424.11 195,-415 245.98,-328.07 209.37,-201.12 189.08,-145.65"/>
<polygon fill="black" stroke="black" points="192.37,-144.48 185.57,-136.36 185.82,-146.95 192.37,-144.48"/>
</g>
<!-- event::write_to_event_store -->
<g id="node7" class="node">
<title>event::write_to_event_store</title>
<ellipse fill="none" stroke="black" cx="101" cy="-366" rx="85.29" ry="18"/>
<text text-anchor="middle" x="101" y="-362.3" font-family="Times,serif" font-size="14.00">write_to_event_store</text>
</g>
<!-- event::emit_event&#45;&gt;event::write_to_event_store -->
<g id="edge6" class="edge">
<title>event::emit_event&#45;&gt;event::write_to_event_store</title>
<path fill="none" stroke="black" d="M128.58,-430.82C124.03,-420.3 118.11,-406.59 112.91,-394.57"/>
<polygon fill="black" stroke="black" points="116.19,-393.33 109.01,-385.54 109.77,-396.11 116.19,-393.33"/>
</g>
<!-- staking_contract::update_voter&#45;&gt;event::emit_event -->
<g id="edge8" class="edge">
<title>staking_contract::update_voter&#45;&gt;event::emit_event</title>
<path fill="none" stroke="black" d="M889.11,-518.13C744.22,-505.02 347.02,-469.09 195.66,-455.4"/>
<polygon fill="black" stroke="black" points="196.12,-451.92 185.84,-454.51 195.49,-458.9 196.12,-451.92"/>
</g>
<!-- signer::address_of -->
<g id="node8" class="node">
<title>signer::address_of</title>
<ellipse fill="none" stroke="black" cx="1740" cy="-449" rx="48.99" ry="18"/>
<text text-anchor="middle" x="1740" y="-445.3" font-family="Times,serif" font-size="14.00">address_of</text>
</g>
<!-- staking_contract::update_voter&#45;&gt;signer::address_of -->
<g id="edge7" class="edge">
<title>staking_contract::update_voter&#45;&gt;signer::address_of</title>
<path fill="none" stroke="black" d="M983.19,-511.02C991.64,-508.96 1000.55,-507.12 1009,-506 1045.9,-501.1 1643.9,-510.39 1679,-498 1693.1,-493.02 1706.43,-483.35 1717.02,-473.98"/>
<polygon fill="black" stroke="black" points="1719.21,-476.72 1724.11,-467.32 1714.43,-471.61 1719.21,-476.72"/>
</g>
<!-- simple_map::borrow_mut -->
<g id="node9" class="node">
<title>simple_map::borrow_mut</title>
<ellipse fill="none" stroke="black" cx="737" cy="-366" rx="54.69" ry="18"/>
<text text-anchor="middle" x="737" y="-362.3" font-family="Times,serif" font-size="14.00">borrow_mut</text>
</g>
<!-- staking_contract::update_voter&#45;&gt;simple_map::borrow_mut -->
<g id="edge9" class="edge">
<title>staking_contract::update_voter&#45;&gt;simple_map::borrow_mut</title>
<path fill="none" stroke="black" d="M886.14,-522.7C837.96,-521.18 773.93,-515.73 756,-498 729.29,-471.58 728.94,-425.49 732.18,-395.61"/>
<polygon fill="black" stroke="black" points="735.64,-396.16 733.47,-385.79 728.7,-395.25 735.64,-396.16"/>
</g>
<!-- stake::get_delegated_voter -->
<g id="node10" class="node">
<title>stake::get_delegated_voter</title>
<ellipse fill="none" stroke="black" cx="1585" cy="-449" rx="81.79" ry="18"/>
<text text-anchor="middle" x="1585" y="-445.3" font-family="Times,serif" font-size="14.00">get_delegated_voter</text>
</g>
<!-- staking_contract::update_voter&#45;&gt;stake::get_delegated_voter -->
<g id="edge10" class="edge">
<title>staking_contract::update_voter&#45;&gt;stake::get_delegated_voter</title>
<path fill="none" stroke="black" d="M983.19,-511.05C991.64,-508.98 1000.56,-507.14 1009,-506 1062.41,-498.78 1441.79,-511.38 1494,-498 1514.2,-492.82 1534.91,-482.38 1551.45,-472.56"/>
<polygon fill="black" stroke="black" points="1553.21,-475.59 1559.89,-467.36 1549.54,-469.63 1553.21,-475.59"/>
</g>
<!-- stake::set_delegated_voter_with_cap -->
<g id="node11" class="node">
<title>stake::set_delegated_voter_with_cap</title>
<ellipse fill="none" stroke="black" cx="1367" cy="-449" rx="117.78" ry="18"/>
<text text-anchor="middle" x="1367" y="-445.3" font-family="Times,serif" font-size="14.00">set_delegated_voter_with_cap</text>
</g>
<!-- staking_contract::update_voter&#45;&gt;stake::set_delegated_voter_with_cap -->
<g id="edge11" class="edge">
<title>staking_contract::update_voter&#45;&gt;stake::set_delegated_voter_with_cap</title>
<path fill="none" stroke="black" d="M984.75,-511.59C992.77,-509.59 1001.12,-507.63 1009,-506 1095.84,-488.07 1195.59,-472.9 1267.7,-462.9"/>
<polygon fill="black" stroke="black" points="1268.1,-466.38 1277.53,-461.54 1267.15,-459.44 1268.1,-466.38"/>
</g>
<!-- staking_contract::assert_staking_contract_exists -->
<g id="node12" class="node">
<title>staking_contract::assert_staking_contract_exists</title>
<ellipse fill="none" stroke="black" cx="883" cy="-449" rx="117.78" ry="18"/>
<text text-anchor="middle" x="883" y="-445.3" font-family="Times,serif" font-size="14.00">assert_staking_contract_exists</text>
</g>
<!-- staking_contract::update_voter&#45;&gt;staking_contract::assert_staking_contract_exists -->
<g id="edge12" class="edge">
<title>staking_contract::update_voter&#45;&gt;staking_contract::assert_staking_contract_exists</title>
<path fill="none" stroke="black" d="M929.08,-506.07C921.77,-497.17 912.64,-486.06 904.44,-476.09"/>
<polygon fill="black" stroke="black" points="907.27,-474.02 898.22,-468.52 901.86,-478.46 907.27,-474.02"/>
</g>
<!-- account::create_signer_with_capability -->
<g id="node13" class="node">
<title>account::create_signer_with_capability</title>
<ellipse fill="none" stroke="black" cx="1965" cy="-449" rx="116.18" ry="18"/>
<text text-anchor="middle" x="1965" y="-445.3" font-family="Times,serif" font-size="14.00">create_signer_with_capability</text>
</g>
<!-- get_vesting_account_signer_internal&#45;&gt;account::create_signer_with_capability -->
<g id="edge13" class="edge">
<title>get_vesting_account_signer_internal&#45;&gt;account::create_signer_with_capability</title>
<path fill="none" stroke="black" d="M1745.51,-513.95C1775.59,-510.27 1807.71,-505.13 1837,-498 1864.4,-491.33 1893.93,-480.51 1917.72,-470.83"/>
<polygon fill="black" stroke="black" points="1918.92,-474.12 1926.82,-467.06 1916.24,-467.66 1918.92,-474.12"/>
</g>
<!-- verify_admin&#45;&gt;signer::address_of -->
<g id="edge14" class="edge">
<title>verify_admin&#45;&gt;signer::address_of</title>
<path fill="none" stroke="black" d="M1133.73,-520.53C1211.96,-517.18 1356.03,-511.05 1479,-506 1501.22,-505.09 1658.13,-505.7 1679,-498 1693.03,-492.83 1706.35,-483.12 1716.95,-473.79"/>
<polygon fill="black" stroke="black" points="1719.12,-476.55 1724.06,-467.17 1714.35,-471.42 1719.12,-476.55"/>
</g>
<!-- error::unauthenticated -->
<g id="node14" class="node">
<title>error::unauthenticated</title>
<ellipse fill="none" stroke="black" cx="994" cy="-283" rx="66.09" ry="18"/>
<text text-anchor="middle" x="994" y="-279.3" font-family="Times,serif" font-size="14.00">unauthenticated</text>
</g>
<!-- verify_admin&#45;&gt;error::unauthenticated -->
<g id="edge15" class="edge">
<title>verify_admin&#45;&gt;error::unauthenticated</title>
<path fill="none" stroke="black" d="M1070.1,-505.81C1056.1,-465 1020.75,-361.96 1003.61,-312.01"/>
<polygon fill="black" stroke="black" points="1007,-311.11 1000.45,-302.79 1000.38,-313.38 1007,-311.11"/>
</g>
<!-- signer::borrow_address -->
<g id="node15" class="node">
<title>signer::borrow_address</title>
<ellipse fill="none" stroke="black" cx="1758" cy="-366" rx="66.89" ry="18"/>
<text text-anchor="middle" x="1758" y="-362.3" font-family="Times,serif" font-size="14.00">borrow_address</text>
</g>
<!-- signer::address_of&#45;&gt;signer::borrow_address -->
<g id="edge16" class="edge">
<title>signer::address_of&#45;&gt;signer::borrow_address</title>
<path fill="none" stroke="black" d="M1743.82,-430.82C1746.09,-420.58 1749.04,-407.33 1751.66,-395.55"/>
<polygon fill="black" stroke="black" points="1755.05,-396.43 1753.8,-385.91 1748.21,-394.91 1755.05,-396.43"/>
</g>
<!-- option::extract -->
<g id="node16" class="node">
<title>option::extract</title>
<ellipse fill="none" stroke="black" cx="688" cy="-200" rx="34.39" ry="18"/>
<text text-anchor="middle" x="688" y="-196.3" font-family="Times,serif" font-size="14.00">extract</text>
</g>
<!-- simple_map::borrow_mut&#45;&gt;option::extract -->
<g id="edge17" class="edge">
<title>simple_map::borrow_mut&#45;&gt;option::extract</title>
<path fill="none" stroke="black" d="M731.85,-347.76C723.37,-319.39 706.41,-262.62 696.25,-228.6"/>
<polygon fill="black" stroke="black" points="699.73,-228.04 693.52,-219.46 693.02,-230.04 699.73,-228.04"/>
</g>
<!-- option::is_some -->
<g id="node17" class="node">
<title>option::is_some</title>
<ellipse fill="none" stroke="black" cx="682" cy="-117" rx="40.09" ry="18"/>
<text text-anchor="middle" x="682" y="-113.3" font-family="Times,serif" font-size="14.00">is_some</text>
</g>
<!-- simple_map::borrow_mut&#45;&gt;option::is_some -->
<g id="edge18" class="edge">
<title>simple_map::borrow_mut&#45;&gt;option::is_some</title>
<path fill="none" stroke="black" d="M745.8,-348.01C762.54,-313.17 794.65,-232.04 764,-174 754.87,-156.7 737.72,-143.74 721.46,-134.67"/>
<polygon fill="black" stroke="black" points="723.37,-131.71 712.88,-130.21 720.14,-137.92 723.37,-131.71"/>
</g>
<!-- error::invalid_argument -->
<g id="node18" class="node">
<title>error::invalid_argument</title>
<ellipse fill="none" stroke="black" cx="1152" cy="-283" rx="73.39" ry="18"/>
<text text-anchor="middle" x="1152" y="-279.3" font-family="Times,serif" font-size="14.00">invalid_argument</text>
</g>
<!-- simple_map::borrow_mut&#45;&gt;error::invalid_argument -->
<g id="edge19" class="edge">
<title>simple_map::borrow_mut&#45;&gt;error::invalid_argument</title>
<path fill="none" stroke="black" d="M790.95,-362.41C871.39,-358.08 1018.69,-348.21 1069,-332 1087.07,-326.18 1105.5,-316.02 1120.4,-306.54"/>
<polygon fill="black" stroke="black" points="1121.94,-309.72 1128.37,-301.3 1118.09,-303.87 1121.94,-309.72"/>
</g>
<!-- simple_map::find -->
<g id="node19" class="node">
<title>simple_map::find</title>
<ellipse fill="none" stroke="black" cx="592" cy="-283" rx="27" ry="18"/>
<text text-anchor="middle" x="592" y="-279.3" font-family="Times,serif" font-size="14.00">find</text>
</g>
<!-- simple_map::borrow_mut&#45;&gt;simple_map::find -->
<g id="edge20" class="edge">
<title>simple_map::borrow_mut&#45;&gt;simple_map::find</title>
<path fill="none" stroke="black" d="M710.07,-349.95C685.16,-336.04 648.19,-315.39 622.27,-300.91"/>
<polygon fill="black" stroke="black" points="624.01,-297.87 613.57,-296.05 620.59,-303.98 624.01,-297.87"/>
</g>
<!-- stake::assert_stake_pool_exists -->
<g id="node20" class="node">
<title>stake::assert_stake_pool_exists</title>
<ellipse fill="none" stroke="black" cx="1367" cy="-366" rx="97.48" ry="18"/>
<text text-anchor="middle" x="1367" y="-362.3" font-family="Times,serif" font-size="14.00">assert_stake_pool_exists</text>
</g>
<!-- stake::get_delegated_voter&#45;&gt;stake::assert_stake_pool_exists -->
<g id="edge21" class="edge">
<title>stake::get_delegated_voter&#45;&gt;stake::assert_stake_pool_exists</title>
<path fill="none" stroke="black" d="M1544.51,-432.95C1509.28,-419.86 1457.99,-400.81 1419.6,-386.54"/>
<polygon fill="black" stroke="black" points="1421.15,-383.38 1410.55,-383.18 1418.71,-389.95 1421.15,-383.38"/>
</g>
<!-- stake::set_delegated_voter_with_cap&#45;&gt;stake::assert_stake_pool_exists -->
<g id="edge22" class="edge">
<title>stake::set_delegated_voter_with_cap&#45;&gt;stake::assert_stake_pool_exists</title>
<path fill="none" stroke="black" d="M1367,-430.82C1367,-420.69 1367,-407.6 1367,-395.92"/>
<polygon fill="black" stroke="black" points="1370.5,-395.95 1367,-385.95 1363.5,-395.95 1370.5,-395.95"/>
</g>
<!-- error::not_found -->
<g id="node21" class="node">
<title>error::not_found</title>
<ellipse fill="none" stroke="black" cx="863" cy="-283" rx="46.59" ry="18"/>
<text text-anchor="middle" x="863" y="-279.3" font-family="Times,serif" font-size="14.00">not_found</text>
</g>
<!-- staking_contract::assert_staking_contract_exists&#45;&gt;error::not_found -->
<g id="edge23" class="edge">
<title>staking_contract::assert_staking_contract_exists&#45;&gt;error::not_found</title>
<path fill="none" stroke="black" d="M880.9,-430.76C877.45,-402.51 870.57,-346.11 866.42,-312.04"/>
<polygon fill="black" stroke="black" points="869.94,-312.02 865.26,-302.51 862.99,-312.86 869.94,-312.02"/>
</g>
<!-- simple_map::contains_key -->
<g id="node22" class="node">
<title>simple_map::contains_key</title>
<ellipse fill="none" stroke="black" cx="607" cy="-366" rx="57.39" ry="18"/>
<text text-anchor="middle" x="607" y="-362.3" font-family="Times,serif" font-size="14.00">contains_key</text>
</g>
<!-- staking_contract::assert_staking_contract_exists&#45;&gt;simple_map::contains_key -->
<g id="edge24" class="edge">
<title>staking_contract::assert_staking_contract_exists&#45;&gt;simple_map::contains_key</title>
<path fill="none" stroke="black" d="M776.2,-441.09C742.28,-436.32 705.23,-428.33 673,-415 658.74,-409.1 644.68,-399.54 633.21,-390.49"/>
<polygon fill="black" stroke="black" points="635.74,-388.04 625.79,-384.39 631.29,-393.45 635.74,-388.04"/>
</g>
<!-- account::create_signer -->
<g id="node23" class="node">
<title>account::create_signer</title>
<ellipse fill="none" stroke="black" cx="1965" cy="-366" rx="57.69" ry="18"/>
<text text-anchor="middle" x="1965" y="-362.3" font-family="Times,serif" font-size="14.00">create_signer</text>
</g>
<!-- account::create_signer_with_capability&#45;&gt;account::create_signer -->
<g id="edge25" class="edge">
<title>account::create_signer_with_capability&#45;&gt;account::create_signer</title>
<path fill="none" stroke="black" d="M1965,-430.82C1965,-420.69 1965,-407.6 1965,-395.92"/>
<polygon fill="black" stroke="black" points="1968.5,-395.95 1965,-385.95 1961.5,-395.95 1968.5,-395.95"/>
</g>
<!-- error::canonical -->
<g id="node24" class="node">
<title>error::canonical</title>
<ellipse fill="none" stroke="black" cx="994" cy="-200" rx="44.39" ry="18"/>
<text text-anchor="middle" x="994" y="-196.3" font-family="Times,serif" font-size="14.00">canonical</text>
</g>
<!-- error::unauthenticated&#45;&gt;error::canonical -->
<g id="edge26" class="edge">
<title>error::unauthenticated&#45;&gt;error::canonical</title>
<path fill="none" stroke="black" d="M994,-264.82C994,-254.69 994,-241.6 994,-229.92"/>
<polygon fill="black" stroke="black" points="997.5,-229.95 994,-219.95 990.5,-229.95 997.5,-229.95"/>
</g>
<!-- option::extract&#45;&gt;option::is_some -->
<g id="edge27" class="edge">
<title>option::extract&#45;&gt;option::is_some</title>
<path fill="none" stroke="black" d="M686.73,-181.82C685.97,-171.58 684.99,-158.33 684.11,-146.55"/>
<polygon fill="black" stroke="black" points="687.63,-146.66 683.4,-136.94 680.65,-147.17 687.63,-146.66"/>
</g>
<!-- vector::is_empty -->
<g id="node25" class="node">
<title>vector::is_empty</title>
<ellipse fill="none" stroke="black" cx="689" cy="-34" rx="43.59" ry="18"/>
<text text-anchor="middle" x="689" y="-30.3" font-family="Times,serif" font-size="14.00">is_empty</text>
</g>
<!-- option::is_some&#45;&gt;vector::is_empty -->
<g id="edge28" class="edge">
<title>option::is_some&#45;&gt;vector::is_empty</title>
<path fill="none" stroke="black" d="M683.48,-98.82C684.37,-88.58 685.52,-75.33 686.53,-63.55"/>
<polygon fill="black" stroke="black" points="689.99,-64.2 687.36,-53.94 683.02,-63.6 689.99,-64.2"/>
</g>
<!-- error::invalid_argument&#45;&gt;error::canonical -->
<g id="edge29" class="edge">
<title>error::invalid_argument&#45;&gt;error::canonical</title>
<path fill="none" stroke="black" d="M1121.16,-266.19C1095.28,-252.92 1058.25,-233.94 1030.82,-219.87"/>
<polygon fill="black" stroke="black" points="1032.66,-216.89 1022.16,-215.44 1029.47,-223.12 1032.66,-216.89"/>
</g>
<!-- option::none -->
<g id="node26" class="node">
<title>option::none</title>
<ellipse fill="none" stroke="black" cx="530" cy="-200" rx="27.9" ry="18"/>
<text text-anchor="middle" x="530" y="-196.3" font-family="Times,serif" font-size="14.00">none</text>
</g>
<!-- simple_map::find&#45;&gt;option::none -->
<g id="edge30" class="edge">
<title>simple_map::find&#45;&gt;option::none</title>
<path fill="none" stroke="black" d="M580.05,-266.38C571.21,-254.84 559.01,-238.9 548.86,-225.64"/>
<polygon fill="black" stroke="black" points="551.69,-223.58 542.84,-217.77 546.14,-227.84 551.69,-223.58"/>
</g>
<!-- option::some -->
<g id="node27" class="node">
<title>option::some</title>
<ellipse fill="none" stroke="black" cx="606" cy="-200" rx="29.8" ry="18"/>
<text text-anchor="middle" x="606" y="-196.3" font-family="Times,serif" font-size="14.00">some</text>
</g>
<!-- simple_map::find&#45;&gt;option::some -->
<g id="edge31" class="edge">
<title>simple_map::find&#45;&gt;option::some</title>
<path fill="none" stroke="black" d="M594.97,-264.82C596.75,-254.51 599.06,-241.14 601.11,-229.31"/>
<polygon fill="black" stroke="black" points="604.52,-230.09 602.78,-219.64 597.63,-228.9 604.52,-230.09"/>
</g>
<!-- comparator::compare -->
<g id="node28" class="node">
<title>comparator::compare</title>
<ellipse fill="none" stroke="black" cx="284" cy="-200" rx="41.69" ry="18"/>
<text text-anchor="middle" x="284" y="-196.3" font-family="Times,serif" font-size="14.00">compare</text>
</g>
<!-- simple_map::find&#45;&gt;comparator::compare -->
<g id="edge32" class="edge">
<title>simple_map::find&#45;&gt;comparator::compare</title>
<path fill="none" stroke="black" d="M565.04,-280.64C507.65,-277.41 375.37,-268.07 335,-249 323.34,-243.49 312.58,-234.3 303.98,-225.43"/>
<polygon fill="black" stroke="black" points="306.79,-223.31 297.46,-218.27 301.61,-228.02 306.79,-223.31"/>
</g>
<!-- comparator::is_smaller_than -->
<g id="node29" class="node">
<title>comparator::is_smaller_than</title>
<ellipse fill="none" stroke="black" cx="411" cy="-200" rx="66.89" ry="18"/>
<text text-anchor="middle" x="411" y="-196.3" font-family="Times,serif" font-size="14.00">is_smaller_than</text>
</g>
<!-- simple_map::find&#45;&gt;comparator::is_smaller_than -->
<g id="edge33" class="edge">
<title>simple_map::find&#45;&gt;comparator::is_smaller_than</title>
<path fill="none" stroke="black" d="M567.07,-275.69C546.04,-269.96 515.38,-260.62 490,-249 474.27,-241.79 457.77,-232.14 443.95,-223.39"/>
<polygon fill="black" stroke="black" points="445.97,-220.53 435.67,-218.03 442.17,-226.4 445.97,-220.53"/>
</g>
<!-- stake::assert_stake_pool_exists&#45;&gt;error::invalid_argument -->
<g id="edge34" class="edge">
<title>stake::assert_stake_pool_exists&#45;&gt;error::invalid_argument</title>
<path fill="none" stroke="black" d="M1302.45,-352.19C1281.22,-347.04 1257.75,-340.32 1237,-332 1219.58,-325.02 1201.33,-315.09 1186.22,-306.08"/>
<polygon fill="black" stroke="black" points="1188.44,-303.33 1178.08,-301.11 1184.79,-309.31 1188.44,-303.33"/>
</g>
<!-- stake::stake_pool_exists -->
<g id="node30" class="node">
<title>stake::stake_pool_exists</title>
<ellipse fill="none" stroke="black" cx="1367" cy="-283" rx="73.39" ry="18"/>
<text text-anchor="middle" x="1367" y="-279.3" font-family="Times,serif" font-size="14.00">stake_pool_exists</text>
</g>
<!-- stake::assert_stake_pool_exists&#45;&gt;stake::stake_pool_exists -->
<g id="edge35" class="edge">
<title>stake::assert_stake_pool_exists&#45;&gt;stake::stake_pool_exists</title>
<path fill="none" stroke="black" d="M1367,-347.82C1367,-337.69 1367,-324.6 1367,-312.92"/>
<polygon fill="black" stroke="black" points="1370.5,-312.95 1367,-302.95 1363.5,-312.95 1370.5,-312.95"/>
</g>
<!-- error::not_found&#45;&gt;error::canonical -->
<g id="edge36" class="edge">
<title>error::not_found&#45;&gt;error::canonical</title>
<path fill="none" stroke="black" d="M887.03,-267.14C907.75,-254.33 937.87,-235.71 960.87,-221.48"/>
<polygon fill="black" stroke="black" points="962.61,-224.52 969.28,-216.29 958.93,-218.57 962.61,-224.52"/>
</g>
<!-- simple_map::contains_key&#45;&gt;option::is_some -->
<g id="edge37" class="edge">
<title>simple_map::contains_key&#45;&gt;option::is_some</title>
<path fill="none" stroke="black" d="M633.63,-349.58C663.76,-330.4 711.23,-294.57 731,-249 744.27,-218.42 742.72,-205.2 731,-174 726.37,-161.69 717.67,-150.31 708.88,-141.07"/>
<polygon fill="black" stroke="black" points="711.55,-138.79 701.96,-134.28 706.64,-143.78 711.55,-138.79"/>
</g>
<!-- simple_map::contains_key&#45;&gt;simple_map::find -->
<g id="edge38" class="edge">
<title>simple_map::contains_key&#45;&gt;simple_map::find</title>
<path fill="none" stroke="black" d="M603.82,-347.82C601.91,-337.51 599.43,-324.14 597.24,-312.31"/>
<polygon fill="black" stroke="black" points="600.71,-311.84 595.45,-302.64 593.83,-313.11 600.71,-311.84"/>
</g>
<!-- vector::singleton -->
<g id="node31" class="node">
<title>vector::singleton</title>
<ellipse fill="none" stroke="black" cx="585" cy="-34" rx="42.79" ry="18"/>
<text text-anchor="middle" x="585" y="-30.3" font-family="Times,serif" font-size="14.00">singleton</text>
</g>
<!-- option::some&#45;&gt;vector::singleton -->
<g id="edge39" class="edge">
<title>option::some&#45;&gt;vector::singleton</title>
<path fill="none" stroke="black" d="M603.79,-181.76C600.18,-153.51 592.95,-97.11 588.59,-63.04"/>
<polygon fill="black" stroke="black" points="592.11,-62.99 587.37,-53.51 585.17,-63.87 592.11,-62.99"/>
</g>
<!-- comparator::compare&#45;&gt;bcs::to_bytes -->
<g id="edge40" class="edge">
<title>comparator::compare&#45;&gt;bcs::to_bytes</title>
<path fill="none" stroke="black" d="M259.14,-185.2C249.74,-179.63 239.12,-172.89 230,-166 220.29,-158.67 210.32,-149.83 201.73,-141.74"/>
<polygon fill="black" stroke="black" points="204.4,-139.45 194.76,-135.04 199.55,-144.5 204.4,-139.45"/>
</g>
<!-- comparator::compare_u8_vector -->
<g id="node32" class="node">
<title>comparator::compare_u8_vector</title>
<ellipse fill="none" stroke="black" cx="323" cy="-117" rx="81.49" ry="18"/>
<text text-anchor="middle" x="323" y="-113.3" font-family="Times,serif" font-size="14.00">compare_u8_vector</text>
</g>
<!-- comparator::compare&#45;&gt;comparator::compare_u8_vector -->
<g id="edge41" class="edge">
<title>comparator::compare&#45;&gt;comparator::compare_u8_vector</title>
<path fill="none" stroke="black" d="M292.08,-182.22C297.19,-171.61 303.91,-157.65 309.78,-145.45"/>
<polygon fill="black" stroke="black" points="312.82,-147.21 314,-136.68 306.51,-144.18 312.82,-147.21"/>
</g>
</g>
</svg>
