<?xml version="1.0" encoding="UTF-8" standalone="no"?>
<!DOCTYPE svg PUBLIC "-//W3C//DTD SVG 1.1//EN"
 "http://www.w3.org/Graphics/SVG/1.1/DTD/svg11.dtd">
<!-- Generated by graphviz version 7.0.0 (20221023.0053)
 -->
<!-- Title: G Pages: 1 -->
<svg width="1908pt" height="625pt"
 viewBox="0.00 0.00 1907.91 625.00" xmlns="http://www.w3.org/2000/svg" xmlns:xlink="http://www.w3.org/1999/xlink">
<g id="graph0" class="graph" transform="scale(1 1) rotate(0) translate(4 621)">
<title>G</title>
<polygon fill="white" stroke="none" points="-4,4 -4,-621 1903.91,-621 1903.91,4 -4,4"/>
<g id="clust1" class="cluster">
<title>cluster_event</title>
<polygon fill="none" stroke="black" points="15.91,-257 15.91,-415 201.91,-415 201.91,-257 15.91,-257"/>
<text text-anchor="middle" x="108.91" y="-399.8" font-family="Times,serif" font-size="14.00">event</text>
</g>
<g id="clust2" class="cluster">
<title>cluster_stake</title>
<polygon fill="none" stroke="black" points="727.91,-257 727.91,-498 1109.91,-498 1109.91,-257 727.91,-257"/>
<text text-anchor="middle" x="918.91" y="-482.8" font-family="Times,serif" font-size="14.00">stake</text>
</g>
<g id="clust3" class="cluster">
<title>cluster_staking_contract</title>
<polygon fill="none" stroke="black" points="1170.91,-423 1170.91,-573 1422.91,-573 1422.91,-423 1170.91,-423"/>
<text text-anchor="middle" x="1296.91" y="-557.8" font-family="Times,serif" font-size="14.00">staking_contract</text>
</g>
<g id="clust4" class="cluster">
<title>cluster_bcs</title>
<polygon fill="none" stroke="black" points="345.91,-91 345.91,-166 441.91,-166 441.91,-91 345.91,-91"/>
<text text-anchor="middle" x="393.91" y="-150.8" font-family="Times,serif" font-size="14.00">bcs</text>
</g>
<g id="clust5" class="cluster">
<title>cluster_signer</title>
<polygon fill="none" stroke="black" points="1453.91,-340 1453.91,-498 1603.91,-498 1603.91,-340 1453.91,-340"/>
<text text-anchor="middle" x="1528.91" y="-482.8" font-family="Times,serif" font-size="14.00">signer</text>
</g>
<g id="clust6" class="cluster">
<title>cluster_simple_map</title>
<polygon fill="none" stroke="black" points="1117.91,-257 1117.91,-415 1375.91,-415 1375.91,-257 1117.91,-257"/>
<text text-anchor="middle" x="1246.91" y="-399.8" font-family="Times,serif" font-size="14.00">simple_map</text>
</g>
<g id="clust7" class="cluster">
<title>cluster_account</title>
<polygon fill="none" stroke="black" points="1643.91,-340 1643.91,-498 1891.91,-498 1891.91,-340 1643.91,-340"/>
<text text-anchor="middle" x="1767.91" y="-482.8" font-family="Times,serif" font-size="14.00">account</text>
</g>
<g id="clust8" class="cluster">
<title>cluster_error</title>
<polygon fill="none" stroke="black" points="1383.91,-174 1383.91,-332 1807.91,-332 1807.91,-174 1383.91,-174"/>
<text text-anchor="middle" x="1595.91" y="-316.8" font-family="Times,serif" font-size="14.00">error</text>
</g>
<g id="clust9" class="cluster">
<title>cluster_option</title>
<polygon fill="none" stroke="black" points="1038.91,-91 1038.91,-249 1274.91,-249 1274.91,-91 1038.91,-91"/>
<text text-anchor="middle" x="1156.91" y="-233.8" font-family="Times,serif" font-size="14.00">option</text>
</g>
<g id="clust10" class="cluster">
<title>cluster_timestamp</title>
<polygon fill="none" stroke="black" points="209.91,-257 209.91,-415 383.91,-415 383.91,-257 209.91,-257"/>
<text text-anchor="middle" x="296.91" y="-399.8" font-family="Times,serif" font-size="14.00">timestamp</text>
</g>
<g id="clust11" class="cluster">
<title>cluster_staking_config</title>
<polygon fill="none" stroke="black" points="391.91,-340 391.91,-415 719.91,-415 719.91,-340 391.91,-340"/>
<text text-anchor="middle" x="555.91" y="-399.8" font-family="Times,serif" font-size="14.00">staking_config</text>
</g>
<g id="clust12" class="cluster">
<title>cluster_vector</title>
<polygon fill="none" stroke="black" points="1059.91,-8 1059.91,-83 1266.91,-83 1266.91,-8 1059.91,-8"/>
<text text-anchor="middle" x="1163.41" y="-67.8" font-family="Times,serif" font-size="14.00">vector</text>
</g>
<g id="clust13" class="cluster">
<title>cluster_comparator</title>
<polygon fill="none" stroke="black" points="778.91,-91 778.91,-249 1030.91,-249 1030.91,-91 778.91,-91"/>
<text text-anchor="middle" x="904.91" y="-233.8" font-family="Times,serif" font-size="14.00">comparator</text>
</g>
<!-- reset_lockup -->
<g id="node1" class="node">
<title>reset_lockup</title>
<ellipse fill="none" stroke="black" cx="1234.91" cy="-599" rx="55.79" ry="18"/>
<text text-anchor="middle" x="1234.91" y="-595.3" font-family="Times,serif" font-size="14.00">reset_lockup</text>
</g>
<!-- event::emit_event -->
<g id="node2" class="node">
<title>event::emit_event</title>
<ellipse fill="none" stroke="black" cx="143.91" cy="-366" rx="50.09" ry="18"/>
<text text-anchor="middle" x="143.91" y="-362.3" font-family="Times,serif" font-size="14.00">emit_event</text>
</g>
<!-- reset_lockup&#45;&gt;event::emit_event -->
<g id="edge1" class="edge">
<title>reset_lockup&#45;&gt;event::emit_event</title>
<path fill="none" stroke="black" d="M1179.35,-596.58C1001.9,-591.36 451.02,-569.63 289.91,-498 236.61,-474.3 189.27,-423.67 163.78,-392.76"/>
<polygon fill="black" stroke="black" points="166.54,-390.61 157.54,-385.03 161.1,-395.01 166.54,-390.61"/>
</g>
<!-- stake::get_lockup_secs -->
<g id="node3" class="node">
<title>stake::get_lockup_secs</title>
<ellipse fill="none" stroke="black" cx="1032.91" cy="-449" rx="68.79" ry="18"/>
<text text-anchor="middle" x="1032.91" y="-445.3" font-family="Times,serif" font-size="14.00">get_lockup_secs</text>
</g>
<!-- reset_lockup&#45;&gt;stake::get_lockup_secs -->
<g id="edge2" class="edge">
<title>reset_lockup&#45;&gt;stake::get_lockup_secs</title>
<path fill="none" stroke="black" d="M1194.86,-586.23C1185.36,-582.64 1175.5,-578.24 1166.91,-573 1122.38,-545.86 1079.55,-502.55 1054.74,-475.23"/>
<polygon fill="black" stroke="black" points="1057.63,-473.21 1048.35,-468.09 1052.41,-477.88 1057.63,-473.21"/>
</g>
<!-- staking_contract::reset_lockup -->
<g id="node4" class="node">
<title>staking_contract::reset_lockup</title>
<ellipse fill="none" stroke="black" cx="1234.91" cy="-524" rx="55.79" ry="18"/>
<text text-anchor="middle" x="1234.91" y="-520.3" font-family="Times,serif" font-size="14.00">reset_lockup</text>
</g>
<!-- reset_lockup&#45;&gt;staking_contract::reset_lockup -->
<g id="edge3" class="edge">
<title>reset_lockup&#45;&gt;staking_contract::reset_lockup</title>
<path fill="none" stroke="black" d="M1234.91,-580.7C1234.91,-572.67 1234.91,-562.9 1234.91,-553.8"/>
<polygon fill="black" stroke="black" points="1238.41,-553.94 1234.91,-543.94 1231.41,-553.94 1238.41,-553.94"/>
</g>
<!-- get_vesting_account_signer_internal -->
<g id="node5" class="node">
<title>get_vesting_account_signer_internal</title>
<ellipse fill="none" stroke="black" cx="1755.91" cy="-524" rx="139.98" ry="18"/>
<text text-anchor="middle" x="1755.91" y="-520.3" font-family="Times,serif" font-size="14.00">get_vesting_account_signer_internal</text>
</g>
<!-- reset_lockup&#45;&gt;get_vesting_account_signer_internal -->
<g id="edge4" class="edge">
<title>reset_lockup&#45;&gt;get_vesting_account_signer_internal</title>
<path fill="none" stroke="black" d="M1290.82,-597.57C1360.61,-596.22 1483.42,-591.17 1586.91,-573 1624.42,-566.41 1665.55,-554.83 1697.85,-544.69"/>
<polygon fill="black" stroke="black" points="1698.53,-548.15 1707,-541.78 1696.41,-541.48 1698.53,-548.15"/>
</g>
<!-- verify_admin -->
<g id="node6" class="node">
<title>verify_admin</title>
<ellipse fill="none" stroke="black" cx="1519.91" cy="-524" rx="58.49" ry="18"/>
<text text-anchor="middle" x="1519.91" y="-520.3" font-family="Times,serif" font-size="14.00">verify_admin</text>
</g>
<!-- reset_lockup&#45;&gt;verify_admin -->
<g id="edge5" class="edge">
<title>reset_lockup&#45;&gt;verify_admin</title>
<path fill="none" stroke="black" d="M1290.2,-595.87C1329.16,-593.16 1382.15,-586.99 1426.91,-573 1447.35,-566.61 1468.68,-555.93 1485.75,-546.26"/>
<polygon fill="black" stroke="black" points="1487.08,-549.54 1493.96,-541.49 1483.56,-543.49 1487.08,-549.54"/>
</g>
<!-- bcs::to_bytes -->
<g id="node7" class="node">
<title>bcs::to_bytes</title>
<ellipse fill="none" stroke="black" cx="393.91" cy="-117" rx="40.09" ry="18"/>
<text text-anchor="middle" x="393.91" y="-113.3" font-family="Times,serif" font-size="14.00">to_bytes</text>
</g>
<!-- event::emit_event&#45;&gt;bcs::to_bytes -->
<g id="edge6" class="edge">
<title>event::emit_event&#45;&gt;bcs::to_bytes</title>
<path fill="none" stroke="black" d="M97.3,-359.13C64.66,-353.95 25.11,-345.15 14.91,-332 -5.53,-305.67 -4.18,-284.33 14.91,-257 89.83,-149.71 257.08,-124.98 342.12,-119.46"/>
<polygon fill="black" stroke="black" points="342.26,-122.96 352.04,-118.89 341.86,-115.97 342.26,-122.96"/>
</g>
<!-- event::write_to_event_store -->
<g id="node8" class="node">
<title>event::write_to_event_store</title>
<ellipse fill="none" stroke="black" cx="108.91" cy="-283" rx="85.29" ry="18"/>
<text text-anchor="middle" x="108.91" y="-279.3" font-family="Times,serif" font-size="14.00">write_to_event_store</text>
</g>
<!-- event::emit_event&#45;&gt;event::write_to_event_store -->
<g id="edge7" class="edge">
<title>event::emit_event&#45;&gt;event::write_to_event_store</title>
<path fill="none" stroke="black" d="M136.48,-347.82C131.94,-337.3 126.01,-323.59 120.82,-311.57"/>
<polygon fill="black" stroke="black" points="124.1,-310.33 116.92,-302.54 117.67,-313.11 124.1,-310.33"/>
</g>
<!-- stake::assert_stake_pool_exists -->
<g id="node9" class="node">
<title>stake::assert_stake_pool_exists</title>
<ellipse fill="none" stroke="black" cx="1004.91" cy="-366" rx="97.48" ry="18"/>
<text text-anchor="middle" x="1004.91" y="-362.3" font-family="Times,serif" font-size="14.00">assert_stake_pool_exists</text>
</g>
<!-- stake::get_lockup_secs&#45;&gt;stake::assert_stake_pool_exists -->
<g id="edge8" class="edge">
<title>stake::get_lockup_secs&#45;&gt;stake::assert_stake_pool_exists</title>
<path fill="none" stroke="black" d="M1026.97,-430.82C1023.39,-420.48 1018.75,-407.05 1014.65,-395.18"/>
<polygon fill="black" stroke="black" points="1018,-394.17 1011.43,-385.86 1011.39,-396.46 1018,-394.17"/>
</g>
<!-- staking_contract::reset_lockup&#45;&gt;event::emit_event -->
<g id="edge10" class="edge">
<title>staking_contract::reset_lockup&#45;&gt;event::emit_event</title>
<path fill="none" stroke="black" d="M1179.15,-522.5C1085.04,-521.16 888.78,-516.21 723.91,-498 529.34,-476.51 483.93,-448.96 289.91,-423 252.74,-418.03 240.78,-428.8 205.91,-415 192.16,-409.56 178.92,-400.1 168.23,-391"/>
<polygon fill="black" stroke="black" points="170.81,-388.62 161.02,-384.56 166.15,-393.83 170.81,-388.62"/>
</g>
<!-- signer::address_of -->
<g id="node10" class="node">
<title>signer::address_of</title>
<ellipse fill="none" stroke="black" cx="1519.91" cy="-449" rx="48.99" ry="18"/>
<text text-anchor="middle" x="1519.91" y="-445.3" font-family="Times,serif" font-size="14.00">address_of</text>
</g>
<!-- staking_contract::reset_lockup&#45;&gt;signer::address_of -->
<g id="edge9" class="edge">
<title>staking_contract::reset_lockup&#45;&gt;signer::address_of</title>
<path fill="none" stroke="black" d="M1290.2,-520.87C1329.16,-518.16 1382.15,-511.99 1426.91,-498 1447.78,-491.47 1469.59,-480.47 1486.83,-470.65"/>
<polygon fill="black" stroke="black" points="1488.25,-473.87 1495.11,-465.81 1484.72,-467.83 1488.25,-473.87"/>
</g>
<!-- simple_map::borrow_mut -->
<g id="node11" class="node">
<title>simple_map::borrow_mut</title>
<ellipse fill="none" stroke="black" cx="1312.91" cy="-366" rx="54.69" ry="18"/>
<text text-anchor="middle" x="1312.91" y="-362.3" font-family="Times,serif" font-size="14.00">borrow_mut</text>
</g>
<!-- staking_contract::reset_lockup&#45;&gt;simple_map::borrow_mut -->
<g id="edge11" class="edge">
<title>staking_contract::reset_lockup&#45;&gt;simple_map::borrow_mut</title>
<path fill="none" stroke="black" d="M1189.09,-513.48C1181.53,-509.86 1174.63,-504.88 1169.91,-498 1151.04,-470.52 1147.56,-447.73 1169.91,-423 1181.74,-409.91 1232.47,-421.42 1248.91,-415 1262.96,-409.51 1276.6,-400.05 1287.66,-390.96"/>
<polygon fill="black" stroke="black" points="1289.86,-393.69 1295.15,-384.5 1285.29,-388.39 1289.86,-393.69"/>
</g>
<!-- stake::increase_lockup_with_cap -->
<g id="node12" class="node">
<title>stake::increase_lockup_with_cap</title>
<ellipse fill="none" stroke="black" cx="840.91" cy="-449" rx="104.78" ry="18"/>
<text text-anchor="middle" x="840.91" y="-445.3" font-family="Times,serif" font-size="14.00">increase_lockup_with_cap</text>
</g>
<!-- staking_contract::reset_lockup&#45;&gt;stake::increase_lockup_with_cap -->
<g id="edge12" class="edge">
<title>staking_contract::reset_lockup&#45;&gt;stake::increase_lockup_with_cap</title>
<path fill="none" stroke="black" d="M1178.82,-523.05C1121.68,-521.93 1030.92,-516.91 954.91,-498 930.13,-491.84 903.77,-481.04 882.65,-471.25"/>
<polygon fill="black" stroke="black" points="884.33,-468.17 873.79,-467.05 881.33,-474.5 884.33,-468.17"/>
</g>
<!-- staking_contract::assert_staking_contract_exists -->
<g id="node13" class="node">
<title>staking_contract::assert_staking_contract_exists</title>
<ellipse fill="none" stroke="black" cx="1296.91" cy="-449" rx="117.78" ry="18"/>
<text text-anchor="middle" x="1296.91" y="-445.3" font-family="Times,serif" font-size="14.00">assert_staking_contract_exists</text>
</g>
<!-- staking_contract::reset_lockup&#45;&gt;staking_contract::assert_staking_contract_exists -->
<g id="edge13" class="edge">
<title>staking_contract::reset_lockup&#45;&gt;staking_contract::assert_staking_contract_exists</title>
<path fill="none" stroke="black" d="M1248.98,-506.44C1256.66,-497.39 1266.34,-485.99 1274.99,-475.81"/>
<polygon fill="black" stroke="black" points="1277.46,-478.3 1281.27,-468.41 1272.13,-473.77 1277.46,-478.3"/>
</g>
<!-- account::create_signer_with_capability -->
<g id="node14" class="node">
<title>account::create_signer_with_capability</title>
<ellipse fill="none" stroke="black" cx="1767.91" cy="-449" rx="116.18" ry="18"/>
<text text-anchor="middle" x="1767.91" y="-445.3" font-family="Times,serif" font-size="14.00">create_signer_with_capability</text>
</g>
<!-- get_vesting_account_signer_internal&#45;&gt;account::create_signer_with_capability -->
<g id="edge14" class="edge">
<title>get_vesting_account_signer_internal&#45;&gt;account::create_signer_with_capability</title>
<path fill="none" stroke="black" d="M1758.75,-505.7C1760.09,-497.58 1761.71,-487.68 1763.22,-478.5"/>
<polygon fill="black" stroke="black" points="1766.63,-479.36 1764.8,-468.92 1759.72,-478.22 1766.63,-479.36"/>
</g>
<!-- verify_admin&#45;&gt;signer::address_of -->
<g id="edge15" class="edge">
<title>verify_admin&#45;&gt;signer::address_of</title>
<path fill="none" stroke="black" d="M1519.91,-505.7C1519.91,-497.67 1519.91,-487.9 1519.91,-478.8"/>
<polygon fill="black" stroke="black" points="1523.41,-478.94 1519.91,-468.94 1516.41,-478.94 1523.41,-478.94"/>
</g>
<!-- error::unauthenticated -->
<g id="node15" class="node">
<title>error::unauthenticated</title>
<ellipse fill="none" stroke="black" cx="1733.91" cy="-283" rx="66.09" ry="18"/>
<text text-anchor="middle" x="1733.91" y="-279.3" font-family="Times,serif" font-size="14.00">unauthenticated</text>
</g>
<!-- verify_admin&#45;&gt;error::unauthenticated -->
<g id="edge16" class="edge">
<title>verify_admin&#45;&gt;error::unauthenticated</title>
<path fill="none" stroke="black" d="M1574.34,-517.3C1586.85,-513.56 1599.06,-507.56 1607.91,-498 1656.58,-445.43 1594.52,-395.44 1639.91,-340 1645.71,-332.91 1650.8,-336.26 1658.91,-332 1673.3,-324.43 1688.53,-314.98 1701.48,-306.47"/>
<polygon fill="black" stroke="black" points="1703.25,-309.5 1709.62,-301.03 1699.36,-303.68 1703.25,-309.5"/>
</g>
<!-- error::invalid_argument -->
<g id="node16" class="node">
<title>error::invalid_argument</title>
<ellipse fill="none" stroke="black" cx="1464.91" cy="-283" rx="73.39" ry="18"/>
<text text-anchor="middle" x="1464.91" y="-279.3" font-family="Times,serif" font-size="14.00">invalid_argument</text>
</g>
<!-- stake::assert_stake_pool_exists&#45;&gt;error::invalid_argument -->
<g id="edge17" class="edge">
<title>stake::assert_stake_pool_exists&#45;&gt;error::invalid_argument</title>
<path fill="none" stroke="black" d="M1058.31,-350.56C1075.89,-346.4 1095.61,-342.35 1113.91,-340 1172.56,-332.46 1322.94,-347.89 1379.91,-332 1398.79,-326.73 1417.96,-316.43 1433.3,-306.71"/>
<polygon fill="black" stroke="black" points="1435.1,-309.72 1441.53,-301.3 1431.25,-303.87 1435.1,-309.72"/>
</g>
<!-- stake::stake_pool_exists -->
<g id="node17" class="node">
<title>stake::stake_pool_exists</title>
<ellipse fill="none" stroke="black" cx="1004.91" cy="-283" rx="73.39" ry="18"/>
<text text-anchor="middle" x="1004.91" y="-279.3" font-family="Times,serif" font-size="14.00">stake_pool_exists</text>
</g>
<!-- stake::assert_stake_pool_exists&#45;&gt;stake::stake_pool_exists -->
<g id="edge18" class="edge">
<title>stake::assert_stake_pool_exists&#45;&gt;stake::stake_pool_exists</title>
<path fill="none" stroke="black" d="M1004.91,-347.82C1004.91,-337.69 1004.91,-324.6 1004.91,-312.92"/>
<polygon fill="black" stroke="black" points="1008.41,-312.95 1004.91,-302.95 1001.41,-312.95 1008.41,-312.95"/>
</g>
<!-- signer::borrow_address -->
<g id="node18" class="node">
<title>signer::borrow_address</title>
<ellipse fill="none" stroke="black" cx="1528.91" cy="-366" rx="66.89" ry="18"/>
<text text-anchor="middle" x="1528.91" y="-362.3" font-family="Times,serif" font-size="14.00">borrow_address</text>
</g>
<!-- signer::address_of&#45;&gt;signer::borrow_address -->
<g id="edge19" class="edge">
<title>signer::address_of&#45;&gt;signer::borrow_address</title>
<path fill="none" stroke="black" d="M1521.82,-430.82C1522.95,-420.58 1524.43,-407.33 1525.74,-395.55"/>
<polygon fill="black" stroke="black" points="1529.18,-396.26 1526.8,-385.94 1522.22,-395.49 1529.18,-396.26"/>
</g>
<!-- simple_map::borrow_mut&#45;&gt;error::invalid_argument -->
<g id="edge22" class="edge">
<title>simple_map::borrow_mut&#45;&gt;error::invalid_argument</title>
<path fill="none" stroke="black" d="M1343.11,-350.57C1354.69,-344.92 1367.98,-338.3 1379.91,-332 1395.74,-323.64 1412.97,-314.01 1427.76,-305.58"/>
<polygon fill="black" stroke="black" points="1429.31,-308.72 1436.25,-300.71 1425.83,-302.65 1429.31,-308.72"/>
</g>
<!-- option::extract -->
<g id="node19" class="node">
<title>option::extract</title>
<ellipse fill="none" stroke="black" cx="1232.91" cy="-200" rx="34.39" ry="18"/>
<text text-anchor="middle" x="1232.91" y="-196.3" font-family="Times,serif" font-size="14.00">extract</text>
</g>
<!-- simple_map::borrow_mut&#45;&gt;option::extract -->
<g id="edge20" class="edge">
<title>simple_map::borrow_mut&#45;&gt;option::extract</title>
<path fill="none" stroke="black" d="M1304.5,-347.76C1290.52,-319.11 1262.43,-261.53 1245.9,-227.63"/>
<polygon fill="black" stroke="black" points="1249.16,-226.34 1241.63,-218.88 1242.87,-229.4 1249.16,-226.34"/>
</g>
<!-- option::is_some -->
<g id="node20" class="node">
<title>option::is_some</title>
<ellipse fill="none" stroke="black" cx="1226.91" cy="-117" rx="40.09" ry="18"/>
<text text-anchor="middle" x="1226.91" y="-113.3" font-family="Times,serif" font-size="14.00">is_some</text>
</g>
<!-- simple_map::borrow_mut&#45;&gt;option::is_some -->
<g id="edge21" class="edge">
<title>simple_map::borrow_mut&#45;&gt;option::is_some</title>
<path fill="none" stroke="black" d="M1315.33,-347.69C1319.39,-312.6 1324.39,-231.58 1293.91,-174 1286.28,-159.59 1273.23,-147.4 1260.66,-138.11"/>
<polygon fill="black" stroke="black" points="1262.7,-135.26 1252.49,-132.44 1258.71,-141.02 1262.7,-135.26"/>
</g>
<!-- simple_map::find -->
<g id="node21" class="node">
<title>simple_map::find</title>
<ellipse fill="none" stroke="black" cx="1152.91" cy="-283" rx="27" ry="18"/>
<text text-anchor="middle" x="1152.91" y="-279.3" font-family="Times,serif" font-size="14.00">find</text>
</g>
<!-- simple_map::borrow_mut&#45;&gt;simple_map::find -->
<g id="edge23" class="edge">
<title>simple_map::borrow_mut&#45;&gt;simple_map::find</title>
<path fill="none" stroke="black" d="M1283.93,-350.33C1255.7,-336.04 1212.92,-314.38 1183.99,-299.73"/>
<polygon fill="black" stroke="black" points="1185.86,-296.76 1175.36,-295.37 1182.7,-303.01 1185.86,-296.76"/>
</g>
<!-- stake::increase_lockup_with_cap&#45;&gt;event::emit_event -->
<g id="edge25" class="edge">
<title>stake::increase_lockup_with_cap&#45;&gt;event::emit_event</title>
<path fill="none" stroke="black" d="M746.37,-440.92C669.1,-435.35 556.99,-427.76 458.91,-423 430.82,-421.64 232.37,-424.52 205.91,-415 191.7,-409.89 178.16,-400.19 167.38,-390.85"/>
<polygon fill="black" stroke="black" points="169.87,-388.39 160.14,-384.21 165.14,-393.55 169.87,-388.39"/>
</g>
<!-- stake::increase_lockup_with_cap&#45;&gt;stake::assert_stake_pool_exists -->
<g id="edge29" class="edge">
<title>stake::increase_lockup_with_cap&#45;&gt;stake::assert_stake_pool_exists</title>
<path fill="none" stroke="black" d="M874.1,-431.61C899.33,-419.15 934.25,-401.9 961.66,-388.36"/>
<polygon fill="black" stroke="black" points="963,-391.6 970.41,-384.04 959.9,-385.33 963,-391.6"/>
</g>
<!-- stake::increase_lockup_with_cap&#45;&gt;error::invalid_argument -->
<g id="edge24" class="edge">
<title>stake::increase_lockup_with_cap&#45;&gt;error::invalid_argument</title>
<path fill="none" stroke="black" d="M897.07,-433.38C915.38,-429.24 935.89,-425.24 954.91,-423 978.36,-420.24 1360.48,-428.42 1379.91,-415 1409.45,-394.59 1390.28,-370.06 1409.91,-340 1417.4,-328.53 1427.49,-317.43 1436.98,-308.18"/>
<polygon fill="black" stroke="black" points="1439.09,-311 1443.99,-301.6 1434.3,-305.89 1439.09,-311"/>
</g>
<!-- timestamp::now_seconds -->
<g id="node22" class="node">
<title>timestamp::now_seconds</title>
<ellipse fill="none" stroke="black" cx="306.91" cy="-366" rx="57.69" ry="18"/>
<text text-anchor="middle" x="306.91" y="-362.3" font-family="Times,serif" font-size="14.00">now_seconds</text>
</g>
<!-- stake::increase_lockup_with_cap&#45;&gt;timestamp::now_seconds -->
<g id="edge26" class="edge">
<title>stake::increase_lockup_with_cap&#45;&gt;timestamp::now_seconds</title>
<path fill="none" stroke="black" d="M743.41,-442.04C615.33,-434.04 404.58,-420.23 387.91,-415 370.04,-409.4 351.94,-399.2 337.4,-389.63"/>
<polygon fill="black" stroke="black" points="339.43,-386.78 329.19,-384.04 335.48,-392.56 339.43,-386.78"/>
</g>
<!-- staking_config::get -->
<g id="node23" class="node">
<title>staking_config::get</title>
<ellipse fill="none" stroke="black" cx="684.91" cy="-366" rx="27" ry="18"/>
<text text-anchor="middle" x="684.91" y="-362.3" font-family="Times,serif" font-size="14.00">get</text>
</g>
<!-- stake::increase_lockup_with_cap&#45;&gt;staking_config::get -->
<g id="edge27" class="edge">
<title>stake::increase_lockup_with_cap&#45;&gt;staking_config::get</title>
<path fill="none" stroke="black" d="M769.82,-435.44C753.9,-430.64 737.66,-424.04 723.91,-415 715.01,-409.15 707.15,-400.63 700.86,-392.38"/>
<polygon fill="black" stroke="black" points="703.74,-390.39 695.11,-384.24 698.02,-394.43 703.74,-390.39"/>
</g>
<!-- staking_config::get_recurring_lockup_duration -->
<g id="node24" class="node">
<title>staking_config::get_recurring_lockup_duration</title>
<ellipse fill="none" stroke="black" cx="519.91" cy="-366" rx="120.48" ry="18"/>
<text text-anchor="middle" x="519.91" y="-362.3" font-family="Times,serif" font-size="14.00">get_recurring_lockup_duration</text>
</g>
<!-- stake::increase_lockup_with_cap&#45;&gt;staking_config::get_recurring_lockup_duration -->
<g id="edge28" class="edge">
<title>stake::increase_lockup_with_cap&#45;&gt;staking_config::get_recurring_lockup_duration</title>
<path fill="none" stroke="black" d="M759.37,-437.41C724.96,-432.07 684.67,-424.64 648.91,-415 622,-407.75 592.83,-397.14 569.05,-387.74"/>
<polygon fill="black" stroke="black" points="570.52,-384.56 559.93,-384.09 567.91,-391.06 570.52,-384.56"/>
</g>
<!-- error::not_found -->
<g id="node25" class="node">
<title>error::not_found</title>
<ellipse fill="none" stroke="black" cx="1602.91" cy="-283" rx="46.59" ry="18"/>
<text text-anchor="middle" x="1602.91" y="-279.3" font-family="Times,serif" font-size="14.00">not_found</text>
</g>
<!-- staking_contract::assert_staking_contract_exists&#45;&gt;error::not_found -->
<g id="edge30" class="edge">
<title>staking_contract::assert_staking_contract_exists&#45;&gt;error::not_found</title>
<path fill="none" stroke="black" d="M1372.78,-434.93C1386.09,-430.2 1399.12,-423.77 1409.91,-415 1439.22,-391.17 1418.34,-360.75 1449.91,-340 1467.98,-328.12 1526.95,-340.33 1546.91,-332 1559.57,-326.71 1571.45,-317.44 1580.98,-308.44"/>
<polygon fill="black" stroke="black" points="1583.37,-311 1587.95,-301.45 1578.41,-306.06 1583.37,-311"/>
</g>
<!-- simple_map::contains_key -->
<g id="node26" class="node">
<title>simple_map::contains_key</title>
<ellipse fill="none" stroke="black" cx="1182.91" cy="-366" rx="57.39" ry="18"/>
<text text-anchor="middle" x="1182.91" y="-362.3" font-family="Times,serif" font-size="14.00">contains_key</text>
</g>
<!-- staking_contract::assert_staking_contract_exists&#45;&gt;simple_map::contains_key -->
<g id="edge31" class="edge">
<title>staking_contract::assert_staking_contract_exists&#45;&gt;simple_map::contains_key</title>
<path fill="none" stroke="black" d="M1271.91,-431C1264.48,-425.89 1256.34,-420.26 1248.91,-415 1237.37,-406.84 1224.8,-397.75 1213.75,-389.69"/>
<polygon fill="black" stroke="black" points="1215.86,-386.9 1205.72,-383.82 1211.73,-392.55 1215.86,-386.9"/>
</g>
<!-- account::create_signer -->
<g id="node27" class="node">
<title>account::create_signer</title>
<ellipse fill="none" stroke="black" cx="1767.91" cy="-366" rx="57.69" ry="18"/>
<text text-anchor="middle" x="1767.91" y="-362.3" font-family="Times,serif" font-size="14.00">create_signer</text>
</g>
<!-- account::create_signer_with_capability&#45;&gt;account::create_signer -->
<g id="edge32" class="edge">
<title>account::create_signer_with_capability&#45;&gt;account::create_signer</title>
<path fill="none" stroke="black" d="M1767.91,-430.82C1767.91,-420.69 1767.91,-407.6 1767.91,-395.92"/>
<polygon fill="black" stroke="black" points="1771.41,-395.95 1767.91,-385.95 1764.41,-395.95 1771.41,-395.95"/>
</g>
<!-- error::canonical -->
<g id="node28" class="node">
<title>error::canonical</title>
<ellipse fill="none" stroke="black" cx="1602.91" cy="-200" rx="44.39" ry="18"/>
<text text-anchor="middle" x="1602.91" y="-196.3" font-family="Times,serif" font-size="14.00">canonical</text>
</g>
<!-- error::unauthenticated&#45;&gt;error::canonical -->
<g id="edge33" class="edge">
<title>error::unauthenticated&#45;&gt;error::canonical</title>
<path fill="none" stroke="black" d="M1708.03,-266C1687.46,-253.28 1658.56,-235.41 1636.26,-221.62"/>
<polygon fill="black" stroke="black" points="1638.17,-218.69 1627.82,-216.4 1634.49,-224.64 1638.17,-218.69"/>
</g>
<!-- error::invalid_argument&#45;&gt;error::canonical -->
<g id="edge34" class="edge">
<title>error::invalid_argument&#45;&gt;error::canonical</title>
<path fill="none" stroke="black" d="M1492.17,-266C1514.17,-253.09 1545.22,-234.86 1568.85,-220.99"/>
<polygon fill="black" stroke="black" points="1570.32,-224.19 1577.17,-216.11 1566.77,-218.15 1570.32,-224.19"/>
</g>
<!-- option::extract&#45;&gt;option::is_some -->
<g id="edge35" class="edge">
<title>option::extract&#45;&gt;option::is_some</title>
<path fill="none" stroke="black" d="M1231.64,-181.82C1230.88,-171.58 1229.89,-158.33 1229.02,-146.55"/>
<polygon fill="black" stroke="black" points="1232.54,-146.66 1228.31,-136.94 1225.56,-147.17 1232.54,-146.66"/>
</g>
<!-- vector::is_empty -->
<g id="node29" class="node">
<title>vector::is_empty</title>
<ellipse fill="none" stroke="black" cx="1214.91" cy="-34" rx="43.59" ry="18"/>
<text text-anchor="middle" x="1214.91" y="-30.3" font-family="Times,serif" font-size="14.00">is_empty</text>
</g>
<!-- option::is_some&#45;&gt;vector::is_empty -->
<g id="edge36" class="edge">
<title>option::is_some&#45;&gt;vector::is_empty</title>
<path fill="none" stroke="black" d="M1224.36,-98.82C1222.85,-88.58 1220.88,-75.33 1219.14,-63.55"/>
<polygon fill="black" stroke="black" points="1222.64,-63.31 1217.71,-53.93 1215.72,-64.33 1222.64,-63.31"/>
</g>
<!-- option::none -->
<g id="node30" class="node">
<title>option::none</title>
<ellipse fill="none" stroke="black" cx="1152.91" cy="-200" rx="27.9" ry="18"/>
<text text-anchor="middle" x="1152.91" y="-196.3" font-family="Times,serif" font-size="14.00">none</text>
</g>
<!-- simple_map::find&#45;&gt;option::none -->
<g id="edge37" class="edge">
<title>simple_map::find&#45;&gt;option::none</title>
<path fill="none" stroke="black" d="M1152.91,-264.82C1152.91,-254.69 1152.91,-241.6 1152.91,-229.92"/>
<polygon fill="black" stroke="black" points="1156.41,-229.95 1152.91,-219.95 1149.41,-229.95 1156.41,-229.95"/>
</g>
<!-- option::some -->
<g id="node31" class="node">
<title>option::some</title>
<ellipse fill="none" stroke="black" cx="1076.91" cy="-200" rx="29.8" ry="18"/>
<text text-anchor="middle" x="1076.91" y="-196.3" font-family="Times,serif" font-size="14.00">some</text>
</g>
<!-- simple_map::find&#45;&gt;option::some -->
<g id="edge38" class="edge">
<title>simple_map::find&#45;&gt;option::some</title>
<path fill="none" stroke="black" d="M1136.54,-268.4C1129.92,-262.65 1122.33,-255.72 1115.91,-249 1108.95,-241.71 1101.85,-233.32 1095.65,-225.61"/>
<polygon fill="black" stroke="black" points="1098.48,-223.54 1089.54,-217.85 1092.98,-227.87 1098.48,-223.54"/>
</g>
<!-- comparator::compare -->
<g id="node32" class="node">
<title>comparator::compare</title>
<ellipse fill="none" stroke="black" cx="980.91" cy="-200" rx="41.69" ry="18"/>
<text text-anchor="middle" x="980.91" y="-196.3" font-family="Times,serif" font-size="14.00">compare</text>
</g>
<!-- simple_map::find&#45;&gt;comparator::compare -->
<g id="edge39" class="edge">
<title>simple_map::find&#45;&gt;comparator::compare</title>
<path fill="none" stroke="black" d="M1135.96,-268.68C1129.42,-264.22 1121.65,-259.7 1113.91,-257 1080.58,-245.38 1067.22,-263.19 1034.91,-249 1022.6,-243.59 1011.13,-234.3 1001.96,-225.32"/>
<polygon fill="black" stroke="black" points="1004.73,-223.15 995.27,-218.38 999.68,-228.01 1004.73,-223.15"/>
</g>
<!-- comparator::is_smaller_than -->
<g id="node33" class="node">
<title>comparator::is_smaller_than</title>
<ellipse fill="none" stroke="black" cx="853.91" cy="-200" rx="66.89" ry="18"/>
<text text-anchor="middle" x="853.91" y="-196.3" font-family="Times,serif" font-size="14.00">is_smaller_than</text>
</g>
<!-- simple_map::find&#45;&gt;comparator::is_smaller_than -->
<g id="edge40" class="edge">
<title>simple_map::find&#45;&gt;comparator::is_smaller_than</title>
<path fill="none" stroke="black" d="M1136.04,-268.43C1129.51,-263.95 1121.73,-259.48 1113.91,-257 1074.89,-244.64 968.97,-261.23 929.91,-249 913.13,-243.75 896.4,-233.82 882.93,-224.35"/>
<polygon fill="black" stroke="black" points="885.09,-221.6 874.96,-218.51 880.95,-227.25 885.09,-221.6"/>
</g>
<!-- timestamp::now_microseconds -->
<g id="node34" class="node">
<title>timestamp::now_microseconds</title>
<ellipse fill="none" stroke="black" cx="296.91" cy="-283" rx="79.09" ry="18"/>
<text text-anchor="middle" x="296.91" y="-279.3" font-family="Times,serif" font-size="14.00">now_microseconds</text>
</g>
<!-- timestamp::now_seconds&#45;&gt;timestamp::now_microseconds -->
<g id="edge41" class="edge">
<title>timestamp::now_seconds&#45;&gt;timestamp::now_microseconds</title>
<path fill="none" stroke="black" d="M304.79,-347.82C303.52,-337.58 301.89,-324.33 300.43,-312.55"/>
<polygon fill="black" stroke="black" points="303.94,-312.43 299.25,-302.93 297,-313.29 303.94,-312.43"/>
</g>
<!-- error::not_found&#45;&gt;error::canonical -->
<g id="edge42" class="edge">
<title>error::not_found&#45;&gt;error::canonical</title>
<path fill="none" stroke="black" d="M1602.91,-264.82C1602.91,-254.69 1602.91,-241.6 1602.91,-229.92"/>
<polygon fill="black" stroke="black" points="1606.41,-229.95 1602.91,-219.95 1599.41,-229.95 1606.41,-229.95"/>
</g>
<!-- simple_map::contains_key&#45;&gt;option::is_some -->
<g id="edge43" class="edge">
<title>simple_map::contains_key&#45;&gt;option::is_some</title>
<path fill="none" stroke="black" d="M1202.02,-348.9C1224.7,-328.41 1261.28,-290.64 1275.91,-249 1286.96,-217.55 1287.63,-205.2 1275.91,-174 1271.28,-161.69 1262.58,-150.31 1253.78,-141.07"/>
<polygon fill="black" stroke="black" points="1256.46,-138.79 1246.87,-134.28 1251.55,-143.78 1256.46,-138.79"/>
</g>
<!-- simple_map::contains_key&#45;&gt;simple_map::find -->
<g id="edge44" class="edge">
<title>simple_map::contains_key&#45;&gt;simple_map::find</title>
<path fill="none" stroke="black" d="M1176.55,-347.82C1172.62,-337.23 1167.5,-323.4 1163.03,-311.33"/>
<polygon fill="black" stroke="black" points="1166.44,-310.46 1159.68,-302.29 1159.87,-312.89 1166.44,-310.46"/>
</g>
<!-- vector::singleton -->
<g id="node35" class="node">
<title>vector::singleton</title>
<ellipse fill="none" stroke="black" cx="1110.91" cy="-34" rx="42.79" ry="18"/>
<text text-anchor="middle" x="1110.91" y="-30.3" font-family="Times,serif" font-size="14.00">singleton</text>
</g>
<!-- option::some&#45;&gt;vector::singleton -->
<g id="edge45" class="edge">
<title>option::some&#45;&gt;vector::singleton</title>
<path fill="none" stroke="black" d="M1080.48,-181.76C1086.34,-153.51 1098.03,-97.11 1105.09,-63.04"/>
<polygon fill="black" stroke="black" points="1108.47,-63.99 1107.07,-53.49 1101.62,-62.57 1108.47,-63.99"/>
</g>
<!-- comparator::compare&#45;&gt;bcs::to_bytes -->
<g id="edge46" class="edge">
<title>comparator::compare&#45;&gt;bcs::to_bytes</title>
<path fill="none" stroke="black" d="M957.04,-184.83C948.73,-180.57 939.17,-176.4 929.91,-174 896.52,-165.34 809.26,-169.05 774.91,-166 655.14,-155.38 515.03,-135.9 442.68,-125.31"/>
<polygon fill="black" stroke="black" points="443.56,-121.91 433.16,-123.92 442.54,-128.83 443.56,-121.91"/>
</g>
<!-- comparator::compare_u8_vector -->
<g id="node36" class="node">
<title>comparator::compare_u8_vector</title>
<ellipse fill="none" stroke="black" cx="941.91" cy="-117" rx="81.49" ry="18"/>
<text text-anchor="middle" x="941.91" y="-113.3" font-family="Times,serif" font-size="14.00">compare_u8_vector</text>
</g>
<!-- comparator::compare&#45;&gt;comparator::compare_u8_vector -->
<g id="edge47" class="edge">
<title>comparator::compare&#45;&gt;comparator::compare_u8_vector</title>
<path fill="none" stroke="black" d="M972.83,-182.22C967.72,-171.61 961,-157.65 955.13,-145.45"/>
<polygon fill="black" stroke="black" points="958.4,-144.18 950.9,-136.68 952.09,-147.21 958.4,-144.18"/>
</g>
</g>
</svg>
