<?xml version="1.0" encoding="UTF-8" standalone="no"?>
<!DOCTYPE svg PUBLIC "-//W3C//DTD SVG 1.1//EN"
 "http://www.w3.org/Graphics/SVG/1.1/DTD/svg11.dtd">
<!-- Generated by graphviz version 7.0.0 (20221023.0053)
 -->
<!-- Title: G Pages: 1 -->
<svg width="532pt" height="299pt"
 viewBox="0.00 0.00 532.40 299.00" xmlns="http://www.w3.org/2000/svg" xmlns:xlink="http://www.w3.org/1999/xlink">
<g id="graph0" class="graph" transform="scale(1 1) rotate(0) translate(4 295)">
<title>G</title>
<polygon fill="white" stroke="none" points="-4,4 -4,-295 528.4,-295 528.4,4 -4,4"/>
<g id="clust1" class="cluster">
<title>cluster_aptos_governance</title>
<polygon fill="none" stroke="black" points="8,-136 8,-283 444,-283 444,-136 8,-136"/>
<text text-anchor="middle" x="226" y="-267.8" font-family="Times,serif" font-size="14.00">aptos_governance</text>
</g>
<!-- is_voting_closed -->
<g id="node1" class="node">
<title>is_voting_closed</title>
<ellipse fill="none" stroke="black" cx="371" cy="-18" rx="70.39" ry="18"/>
<text text-anchor="middle" x="371" y="-14.3" font-family="Times,serif" font-size="14.00">is_voting_closed</text>
</g>
<!-- get_proposal_state -->
<g id="node2" class="node">
<title>get_proposal_state</title>
<ellipse fill="none" stroke="black" cx="371" cy="-90" rx="76.89" ry="18"/>
<text text-anchor="middle" x="371" y="-86.3" font-family="Times,serif" font-size="14.00">get_proposal_state</text>
</g>
<!-- get_proposal_state&#45;&gt;is_voting_closed -->
<g id="edge1" class="edge">
<title>get_proposal_state&#45;&gt;is_voting_closed</title>
<path fill="none" stroke="black" d="M371,-71.7C371,-64.41 371,-55.73 371,-47.54"/>
<polygon fill="black" stroke="black" points="374.5,-47.62 371,-37.62 367.5,-47.62 374.5,-47.62"/>
</g>
<!-- resolve -->
<g id="node3" class="node">
<title>resolve</title>
<ellipse fill="none" stroke="black" cx="488" cy="-162" rx="36.29" ry="18"/>
<text text-anchor="middle" x="488" y="-158.3" font-family="Times,serif" font-size="14.00">resolve</text>
</g>
<!-- resolve&#45;&gt;get_proposal_state -->
<g id="edge2" class="edge">
<title>resolve&#45;&gt;get_proposal_state</title>
<path fill="none" stroke="black" d="M466.48,-147.39C460.52,-143.66 454.03,-139.64 448,-136 435.24,-128.29 421.19,-120.01 408.63,-112.69"/>
<polygon fill="black" stroke="black" points="410.63,-109.81 400.23,-107.81 407.11,-115.86 410.63,-109.81"/>
</g>
<!-- aptos_governance::vote -->
<g id="node4" class="node">
<title>aptos_governance::vote</title>
<ellipse fill="none" stroke="black" cx="319" cy="-234" rx="27" ry="18"/>
<text text-anchor="middle" x="319" y="-230.3" font-family="Times,serif" font-size="14.00">vote</text>
</g>
<!-- aptos_governance::vote&#45;&gt;get_proposal_state -->
<g id="edge3" class="edge">
<title>aptos_governance::vote&#45;&gt;get_proposal_state</title>
<path fill="none" stroke="black" d="M330.64,-217.54C337.78,-207.36 346.56,-193.47 352,-180 359.83,-160.6 364.65,-137.45 367.47,-119.63"/>
<polygon fill="black" stroke="black" points="370.93,-120.14 368.9,-109.75 364,-119.14 370.93,-120.14"/>
</g>
<!-- aptos_governance::add_approved_script_hash -->
<g id="node5" class="node">
<title>aptos_governance::add_approved_script_hash</title>
<ellipse fill="none" stroke="black" cx="238" cy="-162" rx="104.78" ry="18"/>
<text text-anchor="middle" x="238" y="-158.3" font-family="Times,serif" font-size="14.00">add_approved_script_hash</text>
</g>
<!-- aptos_governance::vote&#45;&gt;aptos_governance::add_approved_script_hash -->
<g id="edge6" class="edge">
<title>aptos_governance::vote&#45;&gt;aptos_governance::add_approved_script_hash</title>
<path fill="none" stroke="black" d="M303,-219.17C292.53,-210.13 278.58,-198.07 266.28,-187.44"/>
<polygon fill="black" stroke="black" points="268.69,-184.9 258.84,-181.01 264.12,-190.2 268.69,-184.9"/>
</g>
<!-- aptos_governance::add_approved_script_hash&#45;&gt;get_proposal_state -->
<g id="edge4" class="edge">
<title>aptos_governance::add_approved_script_hash&#45;&gt;get_proposal_state</title>
<path fill="none" stroke="black" d="M269.52,-144.41C287.75,-134.82 310.89,-122.64 330.46,-112.34"/>
<polygon fill="black" stroke="black" points="332.06,-115.45 339.28,-107.69 328.8,-109.25 332.06,-115.45"/>
</g>
<!-- aptos_governance::resolve -->
<g id="node6" class="node">
<title>aptos_governance::resolve</title>
<ellipse fill="none" stroke="black" cx="400" cy="-234" rx="36.29" ry="18"/>
<text text-anchor="middle" x="400" y="-230.3" font-family="Times,serif" font-size="14.00">resolve</text>
</g>
<!-- aptos_governance::resolve&#45;&gt;resolve -->
<g id="edge5" class="edge">
<title>aptos_governance::resolve&#45;&gt;resolve</title>
<path fill="none" stroke="black" d="M418.66,-218.15C430.8,-208.5 446.83,-195.75 460.42,-184.94"/>
<polygon fill="black" stroke="black" points="462.53,-187.73 468.18,-178.77 458.17,-182.25 462.53,-187.73"/>
</g>
<!-- aptos_governance::add_approved_script_hash_script -->
<g id="node7" class="node">
<title>aptos_governance::add_approved_script_hash_script</title>
<ellipse fill="none" stroke="black" cx="145" cy="-234" rx="128.88" ry="18"/>
<text text-anchor="middle" x="145" y="-230.3" font-family="Times,serif" font-size="14.00">add_approved_script_hash_script</text>
</g>
<!-- aptos_governance::add_approved_script_hash_script&#45;&gt;aptos_governance::add_approved_script_hash -->
<g id="edge7" class="edge">
<title>aptos_governance::add_approved_script_hash_script&#45;&gt;aptos_governance::add_approved_script_hash</title>
<path fill="none" stroke="black" d="M167.51,-216.05C179.19,-207.26 193.65,-196.38 206.43,-186.76"/>
<polygon fill="black" stroke="black" points="208.28,-189.75 214.16,-180.94 204.07,-184.16 208.28,-189.75"/>
</g>
</g>
</svg>
