<?xml version="1.0" encoding="UTF-8" standalone="no"?>
<!DOCTYPE svg PUBLIC "-//W3C//DTD SVG 1.1//EN"
 "http://www.w3.org/Graphics/SVG/1.1/DTD/svg11.dtd">
<!-- Generated by graphviz version 7.0.0 (20221023.0053)
 -->
<!-- Title: G Pages: 1 -->
<svg width="1222pt" height="548pt"
 viewBox="0.00 0.00 1222.00 548.00" xmlns="http://www.w3.org/2000/svg" xmlns:xlink="http://www.w3.org/1999/xlink">
<g id="graph0" class="graph" transform="scale(1 1) rotate(0) translate(4 544)">
<title>G</title>
<polygon fill="white" stroke="none" points="-4,4 -4,-544 1218,-544 1218,4 -4,4"/>
<!-- voting -->
<g id="node1" class="node">
<title>voting</title>
<ellipse fill="none" stroke="black" cx="503" cy="-522" rx="33.29" ry="18"/>
<text text-anchor="middle" x="503" y="-518.3" font-family="Times,serif" font-size="14.00">voting</text>
</g>
<!-- option -->
<g id="node2" class="node">
<title>option</title>
<ellipse fill="none" stroke="black" cx="264" cy="-90" rx="33.29" ry="18"/>
<text text-anchor="middle" x="264" y="-86.3" font-family="Times,serif" font-size="14.00">option</text>
</g>
<!-- voting&#45;&gt;option -->
<g id="edge1" class="edge">
<title>voting&#45;&gt;option</title>
<path fill="none" stroke="black" d="M469.35,-520.59C416.12,-518.63 310.57,-509.34 233,-468 183.63,-441.69 144,-434.94 144,-379 144,-379 144,-379 144,-305 144,-227.12 205.21,-151.32 240.2,-114.36"/>
<polygon fill="black" stroke="black" points="242.57,-116.94 247.01,-107.33 237.54,-112.08 242.57,-116.94"/>
</g>
<!-- string -->
<g id="node3" class="node">
<title>string</title>
<ellipse fill="none" stroke="black" cx="129" cy="-162" rx="30.59" ry="18"/>
<text text-anchor="middle" x="129" y="-158.3" font-family="Times,serif" font-size="14.00">string</text>
</g>
<!-- voting&#45;&gt;string -->
<g id="edge2" class="edge">
<title>voting&#45;&gt;string</title>
<path fill="none" stroke="black" d="M469.82,-519.37C384.54,-514.77 159.69,-499.89 93,-468 41.39,-443.32 0,-436.21 0,-379 0,-379 0,-379 0,-305 0,-247.52 58.62,-203.01 96.83,-180.1"/>
<polygon fill="black" stroke="black" points="98.32,-183.28 105.22,-175.24 94.81,-177.22 98.32,-183.28"/>
</g>
<!-- signer -->
<g id="node4" class="node">
<title>signer</title>
<ellipse fill="none" stroke="black" cx="487" cy="-90" rx="32.49" ry="18"/>
<text text-anchor="middle" x="487" y="-86.3" font-family="Times,serif" font-size="14.00">signer</text>
</g>
<!-- voting&#45;&gt;signer -->
<g id="edge3" class="edge">
<title>voting&#45;&gt;signer</title>
<path fill="none" stroke="black" d="M470.36,-517.22C412.75,-510 296.05,-492.73 264,-468 235.52,-446.02 235.46,-430.97 227,-396 193.89,-259.11 375.68,-148.02 453.24,-107.5"/>
<polygon fill="black" stroke="black" points="454.38,-110.85 461.68,-103.17 451.19,-104.62 454.38,-110.85"/>
</g>
<!-- error -->
<g id="node5" class="node">
<title>error</title>
<ellipse fill="none" stroke="black" cx="763" cy="-90" rx="27.9" ry="18"/>
<text text-anchor="middle" x="763" y="-86.3" font-family="Times,serif" font-size="14.00">error</text>
</g>
<!-- voting&#45;&gt;error -->
<g id="edge4" class="edge">
<title>voting&#45;&gt;error</title>
<path fill="none" stroke="black" d="M536.24,-520.15C662.88,-516.68 1110.8,-502.06 1164,-468 1202.21,-443.54 1214,-424.37 1214,-379 1214,-379 1214,-379 1214,-233 1214,-167.67 1157.08,-169.67 1097,-144 996.87,-101.21 866.53,-92.6 802.3,-91.11"/>
<polygon fill="black" stroke="black" points="802.67,-87.62 792.61,-90.93 802.54,-94.61 802.67,-87.62"/>
</g>
<!-- type_info -->
<g id="node6" class="node">
<title>type_info</title>
<ellipse fill="none" stroke="black" cx="442" cy="-234" rx="44.39" ry="18"/>
<text text-anchor="middle" x="442" y="-230.3" font-family="Times,serif" font-size="14.00">type_info</text>
</g>
<!-- voting&#45;&gt;type_info -->
<g id="edge5" class="edge">
<title>voting&#45;&gt;type_info</title>
<path fill="none" stroke="black" d="M470.72,-517.37C411.41,-508.72 286.82,-480.82 239,-396 197.92,-323.14 323.63,-271.18 395.5,-248.2"/>
<polygon fill="black" stroke="black" points="396.16,-251.66 404.66,-245.34 394.08,-244.98 396.16,-251.66"/>
</g>
<!-- table -->
<g id="node7" class="node">
<title>table</title>
<ellipse fill="none" stroke="black" cx="276" cy="-378" rx="27.9" ry="18"/>
<text text-anchor="middle" x="276" y="-374.3" font-family="Times,serif" font-size="14.00">table</text>
</g>
<!-- voting&#45;&gt;table -->
<g id="edge6" class="edge">
<title>voting&#45;&gt;table</title>
<path fill="none" stroke="black" d="M482.05,-507.9C441.35,-482.44 351.53,-426.25 305.09,-397.2"/>
<polygon fill="black" stroke="black" points="307.22,-394.4 296.88,-392.06 303.5,-400.33 307.22,-394.4"/>
</g>
<!-- bcs -->
<g id="node8" class="node">
<title>bcs</title>
<ellipse fill="none" stroke="black" cx="756" cy="-234" rx="27" ry="18"/>
<text text-anchor="middle" x="756" y="-230.3" font-family="Times,serif" font-size="14.00">bcs</text>
</g>
<!-- voting&#45;&gt;bcs -->
<g id="edge7" class="edge">
<title>voting&#45;&gt;bcs</title>
<path fill="none" stroke="black" d="M534.47,-515.63C618.31,-500.6 843.51,-455.33 885,-396 902.27,-371.3 869.9,-293.88 865,-288 859.65,-281.57 818.91,-262.69 788.8,-249.3"/>
<polygon fill="black" stroke="black" points="790.21,-246.1 779.65,-245.26 787.38,-252.5 790.21,-246.1"/>
</g>
<!-- from_bcs -->
<g id="node9" class="node">
<title>from_bcs</title>
<ellipse fill="none" stroke="black" cx="72" cy="-378" rx="44.39" ry="18"/>
<text text-anchor="middle" x="72" y="-374.3" font-family="Times,serif" font-size="14.00">from_bcs</text>
</g>
<!-- voting&#45;&gt;from_bcs -->
<g id="edge8" class="edge">
<title>voting&#45;&gt;from_bcs</title>
<path fill="none" stroke="black" d="M469.75,-519.75C389.22,-516.19 186.2,-503.8 130,-468 107.56,-453.7 91.99,-427.25 82.67,-406.89"/>
<polygon fill="black" stroke="black" points="85.89,-405.52 78.74,-397.71 79.46,-408.28 85.89,-405.52"/>
</g>
<!-- event -->
<g id="node10" class="node">
<title>event</title>
<ellipse fill="none" stroke="black" cx="846" cy="-378" rx="29.8" ry="18"/>
<text text-anchor="middle" x="846" y="-374.3" font-family="Times,serif" font-size="14.00">event</text>
</g>
<!-- voting&#45;&gt;event -->
<g id="edge9" class="edge">
<title>voting&#45;&gt;event</title>
<path fill="none" stroke="black" d="M528.78,-510.33C589.71,-485.1 742.64,-421.79 811.47,-393.29"/>
<polygon fill="black" stroke="black" points="812.47,-396.67 820.37,-389.61 809.79,-390.2 812.47,-396.67"/>
</g>
<!-- account -->
<g id="node11" class="node">
<title>account</title>
<ellipse fill="none" stroke="black" cx="503" cy="-450" rx="38.19" ry="18"/>
<text text-anchor="middle" x="503" y="-446.3" font-family="Times,serif" font-size="14.00">account</text>
</g>
<!-- voting&#45;&gt;account -->
<g id="edge10" class="edge">
<title>voting&#45;&gt;account</title>
<path fill="none" stroke="black" d="M503,-503.7C503,-496.41 503,-487.73 503,-479.54"/>
<polygon fill="black" stroke="black" points="506.5,-479.62 503,-469.62 499.5,-479.62 506.5,-479.62"/>
</g>
<!-- transaction_context -->
<g id="node12" class="node">
<title>transaction_context</title>
<ellipse fill="none" stroke="black" cx="1059" cy="-450" rx="79.09" ry="18"/>
<text text-anchor="middle" x="1059" y="-446.3" font-family="Times,serif" font-size="14.00">transaction_context</text>
</g>
<!-- voting&#45;&gt;transaction_context -->
<g id="edge11" class="edge">
<title>voting&#45;&gt;transaction_context</title>
<path fill="none" stroke="black" d="M535.94,-517.99C611.94,-510.89 805.34,-491.85 966,-468 973.42,-466.9 981.15,-465.65 988.85,-464.34"/>
<polygon fill="black" stroke="black" points="989.32,-467.81 998.57,-462.65 988.12,-460.91 989.32,-467.81"/>
</g>
<!-- timestamp -->
<g id="node13" class="node">
<title>timestamp</title>
<ellipse fill="none" stroke="black" cx="887" cy="-234" rx="48.19" ry="18"/>
<text text-anchor="middle" x="887" y="-230.3" font-family="Times,serif" font-size="14.00">timestamp</text>
</g>
<!-- voting&#45;&gt;timestamp -->
<g id="edge12" class="edge">
<title>voting&#45;&gt;timestamp</title>
<path fill="none" stroke="black" d="M536.11,-519.14C592.67,-515.1 710.83,-502.89 804,-468 862.07,-446.26 1012.5,-377.99 1043,-324 1050.87,-310.07 1052.32,-301.01 1043,-288 1021.07,-257.39 980.46,-244.25 946.16,-238.7"/>
<polygon fill="black" stroke="black" points="946.7,-235.24 936.31,-237.31 945.72,-242.17 946.7,-235.24"/>
</g>
<!-- simple_map -->
<g id="node14" class="node">
<title>simple_map</title>
<ellipse fill="none" stroke="black" cx="1079" cy="-378" rx="54.69" ry="18"/>
<text text-anchor="middle" x="1079" y="-374.3" font-family="Times,serif" font-size="14.00">simple_map</text>
</g>
<!-- voting&#45;&gt;simple_map -->
<g id="edge13" class="edge">
<title>voting&#45;&gt;simple_map</title>
<path fill="none" stroke="black" d="M536.43,-520.83C662.67,-519.86 1105.34,-513.23 1147,-468 1157.84,-456.23 1154.02,-446.38 1147,-432 1140.57,-418.84 1129.12,-408 1117.43,-399.62"/>
<polygon fill="black" stroke="black" points="1119.63,-396.88 1109.36,-394.28 1115.76,-402.72 1119.63,-396.88"/>
</g>
<!-- vector -->
<g id="node15" class="node">
<title>vector</title>
<ellipse fill="none" stroke="black" cx="188" cy="-18" rx="32.49" ry="18"/>
<text text-anchor="middle" x="188" y="-14.3" font-family="Times,serif" font-size="14.00">vector</text>
</g>
<!-- option&#45;&gt;vector -->
<g id="edge14" class="edge">
<title>option&#45;&gt;vector</title>
<path fill="none" stroke="black" d="M247.88,-74.15C237.67,-64.75 224.27,-52.41 212.73,-41.78"/>
<polygon fill="black" stroke="black" points="215.2,-39.29 205.47,-35.09 210.45,-44.44 215.2,-39.29"/>
</g>
<!-- string&#45;&gt;option -->
<g id="edge16" class="edge">
<title>string&#45;&gt;option</title>
<path fill="none" stroke="black" d="M151.29,-149.44C172.92,-138.23 206,-121.08 230.74,-108.25"/>
<polygon fill="black" stroke="black" points="232.16,-111.45 239.43,-103.74 228.94,-105.24 232.16,-111.45"/>
</g>
<!-- string&#45;&gt;vector -->
<g id="edge15" class="edge">
<title>string&#45;&gt;vector</title>
<path fill="none" stroke="black" d="M136,-144.15C146.02,-120.03 164.58,-75.36 176.6,-46.43"/>
<polygon fill="black" stroke="black" points="179.82,-47.8 180.43,-37.22 173.36,-45.11 179.82,-47.8"/>
</g>
<!-- type_info&#45;&gt;string -->
<g id="edge17" class="edge">
<title>type_info&#45;&gt;string</title>
<path fill="none" stroke="black" d="M403.62,-224.42C343.81,-211.04 228.97,-185.36 168.49,-171.83"/>
<polygon fill="black" stroke="black" points="169.5,-168.47 158.98,-169.7 167.97,-175.3 169.5,-168.47"/>
</g>
<!-- type_info&#45;&gt;error -->
<g id="edge18" class="edge">
<title>type_info&#45;&gt;error</title>
<path fill="none" stroke="black" d="M475.68,-221.81C501.61,-212.47 537.84,-197.84 567,-180 588.26,-166.99 588.31,-156.28 610,-144 647.04,-123.03 693.78,-108.32 725.8,-99.81"/>
<polygon fill="black" stroke="black" points="726.6,-103.22 735.41,-97.33 724.86,-96.44 726.6,-103.22"/>
</g>
<!-- features -->
<g id="node16" class="node">
<title>features</title>
<ellipse fill="none" stroke="black" cx="520" cy="-162" rx="38.19" ry="18"/>
<text text-anchor="middle" x="520" y="-158.3" font-family="Times,serif" font-size="14.00">features</text>
</g>
<!-- type_info&#45;&gt;features -->
<g id="edge19" class="edge">
<title>type_info&#45;&gt;features</title>
<path fill="none" stroke="black" d="M459.7,-217.12C470.01,-207.86 483.2,-196.03 494.61,-185.79"/>
<polygon fill="black" stroke="black" points="496.68,-188.64 501.78,-179.35 492,-183.43 496.68,-188.64"/>
</g>
<!-- from_bcs&#45;&gt;string -->
<g id="edge20" class="edge">
<title>from_bcs&#45;&gt;string</title>
<path fill="none" stroke="black" d="M76.57,-359.85C86.37,-323.07 109.48,-236.29 121.48,-191.24"/>
<polygon fill="black" stroke="black" points="124.83,-192.26 124.02,-181.7 118.06,-190.46 124.83,-192.26"/>
</g>
<!-- event&#45;&gt;bcs -->
<g id="edge21" class="edge">
<title>event&#45;&gt;bcs</title>
<path fill="none" stroke="black" d="M851.02,-359.98C855.57,-341.06 859.78,-310.24 847,-288 840.36,-276.45 811.81,-260.88 788.43,-249.61"/>
<polygon fill="black" stroke="black" points="790.06,-246.51 779.52,-245.41 787.07,-252.84 790.06,-246.51"/>
</g>
<!-- guid -->
<g id="node17" class="node">
<title>guid</title>
<ellipse fill="none" stroke="black" cx="811" cy="-306" rx="27" ry="18"/>
<text text-anchor="middle" x="811" y="-302.3" font-family="Times,serif" font-size="14.00">guid</text>
</g>
<!-- event&#45;&gt;guid -->
<g id="edge22" class="edge">
<title>event&#45;&gt;guid</title>
<path fill="none" stroke="black" d="M837.71,-360.41C833.7,-352.39 828.78,-342.57 824.27,-333.54"/>
<polygon fill="black" stroke="black" points="827.51,-332.2 819.91,-324.82 821.25,-335.33 827.51,-332.2"/>
</g>
<!-- account&#45;&gt;option -->
<g id="edge24" class="edge">
<title>account&#45;&gt;option</title>
<path fill="none" stroke="black" d="M481.36,-434.77C467.24,-424.88 448.92,-410.85 435,-396 355.58,-311.28 336.46,-285.53 288,-180 279.11,-160.65 272.98,-137.36 269.14,-119.47"/>
<polygon fill="black" stroke="black" points="272.6,-118.91 267.19,-109.8 265.74,-120.3 272.6,-118.91"/>
</g>
<!-- account&#45;&gt;signer -->
<g id="edge25" class="edge">
<title>account&#45;&gt;signer</title>
<path fill="none" stroke="black" d="M489.68,-432.96C464.1,-400.99 408.88,-326.04 389,-252 384.85,-236.55 382.4,-230.58 389,-216 399,-193.91 414.19,-198.39 430,-180 446.67,-160.6 462.09,-135.93 472.68,-117.49"/>
<polygon fill="black" stroke="black" points="475.59,-119.45 477.44,-109.02 469.49,-116.02 475.59,-119.45"/>
</g>
<!-- account&#45;&gt;error -->
<g id="edge26" class="edge">
<title>account&#45;&gt;error</title>
<path fill="none" stroke="black" d="M541.48,-448.19C672.39,-445.11 1095.04,-432.4 1143,-396 1176.61,-370.5 1176,-349.19 1176,-307 1176,-307 1176,-307 1176,-233 1176,-154.32 904.58,-109.89 801.81,-95.88"/>
<polygon fill="black" stroke="black" points="802.29,-92.42 791.92,-94.56 801.37,-99.35 802.29,-92.42"/>
</g>
<!-- account&#45;&gt;type_info -->
<g id="edge27" class="edge">
<title>account&#45;&gt;type_info</title>
<path fill="none" stroke="black" d="M498.11,-431.85C487.63,-395.07 462.89,-308.29 450.05,-263.24"/>
<polygon fill="black" stroke="black" points="453.43,-262.35 447.33,-253.69 446.7,-264.26 453.43,-262.35"/>
</g>
<!-- account&#45;&gt;table -->
<g id="edge28" class="edge">
<title>account&#45;&gt;table</title>
<path fill="none" stroke="black" d="M469.92,-440.65C432.66,-430.99 370.44,-414.07 318,-396 315.27,-395.06 312.45,-394.04 309.64,-392.98"/>
<polygon fill="black" stroke="black" points="310.94,-389.73 300.35,-389.35 308.39,-396.25 310.94,-389.73"/>
</g>
<!-- account&#45;&gt;bcs -->
<g id="edge31" class="edge">
<title>account&#45;&gt;bcs</title>
<path fill="none" stroke="black" d="M539.81,-444.71C594.94,-437.53 695.16,-421.34 720,-396 754.77,-360.54 758.96,-299.25 758.04,-263.39"/>
<polygon fill="black" stroke="black" points="761.55,-263.64 757.63,-253.79 754.56,-263.93 761.55,-263.64"/>
</g>
<!-- account&#45;&gt;from_bcs -->
<g id="edge35" class="edge">
<title>account&#45;&gt;from_bcs</title>
<path fill="none" stroke="black" d="M467.36,-443.21C391.24,-430.85 212.48,-401.82 123.79,-387.41"/>
<polygon fill="black" stroke="black" points="124.58,-383.99 114.15,-385.85 123.46,-390.9 124.58,-383.99"/>
</g>
<!-- account&#45;&gt;event -->
<g id="edge36" class="edge">
<title>account&#45;&gt;event</title>
<path fill="none" stroke="black" d="M539.87,-444.8C596.83,-437.78 709.33,-421.85 802,-396 805.11,-395.13 808.3,-394.13 811.47,-393.06"/>
<polygon fill="black" stroke="black" points="812.45,-396.43 820.65,-389.72 810.06,-389.85 812.45,-396.43"/>
</g>
<!-- account&#45;&gt;vector -->
<g id="edge23" class="edge">
<title>account&#45;&gt;vector</title>
<path fill="none" stroke="black" d="M473.38,-438.12C451.16,-429.03 420.78,-414.59 398,-396 279.46,-299.3 216.42,-117.02 195.76,-47.19"/>
<polygon fill="black" stroke="black" points="199.15,-46.33 193.01,-37.7 192.43,-48.28 199.15,-46.33"/>
</g>
<!-- account&#45;&gt;guid -->
<g id="edge34" class="edge">
<title>account&#45;&gt;guid</title>
<path fill="none" stroke="black" d="M540.34,-445.36C603.76,-438.55 729.07,-422.15 764,-396 784.09,-380.96 796.43,-354.79 803.39,-334.7"/>
<polygon fill="black" stroke="black" points="806.64,-336.03 806.35,-325.44 799.97,-333.9 806.64,-336.03"/>
</g>
<!-- system_addresses -->
<g id="node18" class="node">
<title>system_addresses</title>
<ellipse fill="none" stroke="black" cx="763" cy="-162" rx="73.39" ry="18"/>
<text text-anchor="middle" x="763" y="-158.3" font-family="Times,serif" font-size="14.00">system_addresses</text>
</g>
<!-- account&#45;&gt;system_addresses -->
<g id="edge29" class="edge">
<title>account&#45;&gt;system_addresses</title>
<path fill="none" stroke="black" d="M538.71,-443.27C586.4,-434.89 667.2,-417.87 687,-396 741.59,-335.71 685.99,-289.88 720,-216 724.59,-206.04 731.47,-196.36 738.4,-188.05"/>
<polygon fill="black" stroke="black" points="740.84,-190.58 744.83,-180.76 735.59,-185.95 740.84,-190.58"/>
</g>
<!-- hash -->
<g id="node19" class="node">
<title>hash</title>
<ellipse fill="none" stroke="black" cx="531" cy="-234" rx="27" ry="18"/>
<text text-anchor="middle" x="531" y="-230.3" font-family="Times,serif" font-size="14.00">hash</text>
</g>
<!-- account&#45;&gt;hash -->
<g id="edge30" class="edge">
<title>account&#45;&gt;hash</title>
<path fill="none" stroke="black" d="M502.12,-431.86C500.99,-402.19 500.28,-339.51 511,-288 512.82,-279.26 515.86,-270.06 519.03,-261.82"/>
<polygon fill="black" stroke="black" points="522.21,-263.29 522.76,-252.71 515.73,-260.64 522.21,-263.29"/>
</g>
<!-- ed25519 -->
<g id="node20" class="node">
<title>ed25519</title>
<ellipse fill="none" stroke="black" cx="573" cy="-306" rx="40.89" ry="18"/>
<text text-anchor="middle" x="573" y="-302.3" font-family="Times,serif" font-size="14.00">ed25519</text>
</g>
<!-- account&#45;&gt;ed25519 -->
<g id="edge32" class="edge">
<title>account&#45;&gt;ed25519</title>
<path fill="none" stroke="black" d="M509.46,-431.95C516.52,-413.79 528.52,-384.37 541,-360 545.6,-351.02 551.13,-341.5 556.28,-333.05"/>
<polygon fill="black" stroke="black" points="559.19,-335 561.5,-324.66 553.25,-331.3 559.19,-335"/>
</g>
<!-- multi_ed25519 -->
<g id="node21" class="node">
<title>multi_ed25519</title>
<ellipse fill="none" stroke="black" cx="614" cy="-378" rx="64.19" ry="18"/>
<text text-anchor="middle" x="614" y="-374.3" font-family="Times,serif" font-size="14.00">multi_ed25519</text>
</g>
<!-- account&#45;&gt;multi_ed25519 -->
<g id="edge33" class="edge">
<title>account&#45;&gt;multi_ed25519</title>
<path fill="none" stroke="black" d="M525.2,-435C540.68,-425.24 561.64,-412.02 579.32,-400.87"/>
<polygon fill="black" stroke="black" points="580.87,-404.03 587.46,-395.74 577.13,-398.11 580.87,-404.03"/>
</g>
<!-- timestamp&#45;&gt;error -->
<g id="edge37" class="edge">
<title>timestamp&#45;&gt;error</title>
<path fill="none" stroke="black" d="M882,-215.65C875.79,-196.43 863.68,-165.34 845,-144 831.22,-128.26 811.68,-115.38 795.12,-106.26"/>
<polygon fill="black" stroke="black" points="797.1,-103.35 786.62,-101.78 793.84,-109.54 797.1,-103.35"/>
</g>
<!-- timestamp&#45;&gt;system_addresses -->
<g id="edge38" class="edge">
<title>timestamp&#45;&gt;system_addresses</title>
<path fill="none" stroke="black" d="M861.31,-218.5C843.91,-208.67 820.62,-195.53 801.08,-184.5"/>
<polygon fill="black" stroke="black" points="803,-181.56 792.57,-179.69 799.56,-187.66 803,-181.56"/>
</g>
<!-- simple_map&#45;&gt;option -->
<g id="edge39" class="edge">
<title>simple_map&#45;&gt;option</title>
<path fill="none" stroke="black" d="M1077.02,-359.63C1073.71,-339.17 1065.09,-305.75 1043,-288 968.16,-227.86 915.91,-294.87 830,-252 809.18,-241.61 813.09,-225.81 792,-216 662.63,-155.83 610.97,-216.33 473,-180 408.23,-162.95 337.42,-129.35 297.09,-108.67"/>
<polygon fill="black" stroke="black" points="298.86,-105.65 288.37,-104.15 295.64,-111.86 298.86,-105.65"/>
</g>
<!-- simple_map&#45;&gt;error -->
<g id="edge40" class="edge">
<title>simple_map&#45;&gt;error</title>
<path fill="none" stroke="black" d="M1094.28,-360.27C1109.13,-341.88 1127.61,-311.78 1114,-288 1045.83,-168.87 875.64,-116.58 800.11,-98.69"/>
<polygon fill="black" stroke="black" points="801.26,-95.36 790.73,-96.54 799.7,-102.18 801.26,-95.36"/>
</g>
<!-- comparator -->
<g id="node22" class="node">
<title>comparator</title>
<ellipse fill="none" stroke="black" cx="983" cy="-306" rx="51.19" ry="18"/>
<text text-anchor="middle" x="983" y="-302.3" font-family="Times,serif" font-size="14.00">comparator</text>
</g>
<!-- simple_map&#45;&gt;comparator -->
<g id="edge41" class="edge">
<title>simple_map&#45;&gt;comparator</title>
<path fill="none" stroke="black" d="M1057.22,-361.12C1044.24,-351.65 1027.57,-339.5 1013.32,-329.11"/>
<polygon fill="black" stroke="black" points="1015.73,-326.54 1005.59,-323.47 1011.61,-332.19 1015.73,-326.54"/>
</g>
<!-- features&#45;&gt;signer -->
<g id="edge42" class="edge">
<title>features&#45;&gt;signer</title>
<path fill="none" stroke="black" d="M512.01,-144.05C508.32,-136.23 503.85,-126.75 499.72,-117.98"/>
<polygon fill="black" stroke="black" points="502.99,-116.71 495.56,-109.16 496.66,-119.7 502.99,-116.71"/>
</g>
<!-- features&#45;&gt;error -->
<g id="edge43" class="edge">
<title>features&#45;&gt;error</title>
<path fill="none" stroke="black" d="M550.45,-150.79C557.51,-148.5 565,-146.11 572,-144 625.52,-127.84 688.03,-110.84 726.57,-100.58"/>
<polygon fill="black" stroke="black" points="727.02,-104.08 735.79,-98.14 725.23,-97.32 727.02,-104.08"/>
</g>
<!-- system_addresses&#45;&gt;signer -->
<g id="edge44" class="edge">
<title>system_addresses&#45;&gt;signer</title>
<path fill="none" stroke="black" d="M713.34,-148.4C660.06,-134.89 576.49,-113.7 527.19,-101.19"/>
<polygon fill="black" stroke="black" points="528.34,-97.87 517.79,-98.81 526.62,-104.66 528.34,-97.87"/>
</g>
<!-- system_addresses&#45;&gt;error -->
<g id="edge45" class="edge">
<title>system_addresses&#45;&gt;error</title>
<path fill="none" stroke="black" d="M763,-143.7C763,-136.41 763,-127.73 763,-119.54"/>
<polygon fill="black" stroke="black" points="766.5,-119.62 763,-109.62 759.5,-119.62 766.5,-119.62"/>
</g>
<!-- ed25519&#45;&gt;option -->
<g id="edge46" class="edge">
<title>ed25519&#45;&gt;option</title>
<path fill="none" stroke="black" d="M577.45,-287.9C581.49,-268.03 584.48,-235.48 567,-216 505.81,-147.8 446.45,-219.97 364,-180 346.88,-171.7 310.77,-137.62 286.95,-114.13"/>
<polygon fill="black" stroke="black" points="289.72,-111.95 280.16,-107.39 284.79,-116.92 289.72,-111.95"/>
</g>
<!-- ed25519&#45;&gt;error -->
<g id="edge47" class="edge">
<title>ed25519&#45;&gt;error</title>
<path fill="none" stroke="black" d="M581.74,-288.4C587.14,-278.01 594.14,-264.31 600,-252 622.6,-204.58 611.11,-181.39 648,-144 669.42,-122.29 701.4,-108.54 726.21,-100.5"/>
<polygon fill="black" stroke="black" points="727.04,-103.91 735.59,-97.65 725,-97.21 727.04,-103.91"/>
</g>
<!-- ed25519&#45;&gt;type_info -->
<g id="edge48" class="edge">
<title>ed25519&#45;&gt;type_info</title>
<path fill="none" stroke="black" d="M547.74,-291.5C527.97,-280.94 500.22,-266.11 478.11,-254.29"/>
<polygon fill="black" stroke="black" points="479.88,-251.27 469.41,-249.65 476.58,-257.45 479.88,-251.27"/>
</g>
<!-- ed25519&#45;&gt;bcs -->
<g id="edge50" class="edge">
<title>ed25519&#45;&gt;bcs</title>
<path fill="none" stroke="black" d="M603.22,-293.44C636.1,-280.86 688.54,-260.81 722.62,-247.77"/>
<polygon fill="black" stroke="black" points="723.48,-251.18 731.57,-244.34 720.98,-244.65 723.48,-251.18"/>
</g>
<!-- ed25519&#45;&gt;hash -->
<g id="edge49" class="edge">
<title>ed25519&#45;&gt;hash</title>
<path fill="none" stroke="black" d="M563.05,-288.41C558.11,-280.19 552.04,-270.06 546.51,-260.85"/>
<polygon fill="black" stroke="black" points="549.52,-259.06 541.37,-252.29 543.52,-262.66 549.52,-259.06"/>
</g>
<!-- multi_ed25519&#45;&gt;option -->
<g id="edge51" class="edge">
<title>multi_ed25519&#45;&gt;option</title>
<path fill="none" stroke="black" d="M578.23,-362.6C516.07,-335.83 387.92,-272.56 316,-180 300.86,-160.51 286.94,-136.18 277.32,-117.89"/>
<polygon fill="black" stroke="black" points="280.56,-116.54 272.87,-109.25 274.33,-119.74 280.56,-116.54"/>
</g>
<!-- multi_ed25519&#45;&gt;error -->
<g id="edge52" class="edge">
<title>multi_ed25519&#45;&gt;error</title>
<path fill="none" stroke="black" d="M617.36,-359.55C626.85,-311.63 654.85,-179.23 681,-144 693.47,-127.2 712.96,-114.29 729.82,-105.41"/>
<polygon fill="black" stroke="black" points="731.14,-108.67 738.53,-101.08 728.02,-102.4 731.14,-108.67"/>
</g>
<!-- multi_ed25519&#45;&gt;bcs -->
<g id="edge54" class="edge">
<title>multi_ed25519&#45;&gt;bcs</title>
<path fill="none" stroke="black" d="M630.85,-360.15C656.52,-334.48 705.46,-285.54 733.94,-257.06"/>
<polygon fill="black" stroke="black" points="736.07,-259.88 740.66,-250.34 731.12,-254.93 736.07,-259.88"/>
</g>
<!-- multi_ed25519&#45;&gt;hash -->
<g id="edge53" class="edge">
<title>multi_ed25519&#45;&gt;hash</title>
<path fill="none" stroke="black" d="M573.02,-363.92C554.27,-355.64 533.84,-342.86 523,-324 512.36,-305.49 515.47,-281.15 520.63,-262.61"/>
<polygon fill="black" stroke="black" points="523.96,-263.68 523.63,-253.09 517.28,-261.57 523.96,-263.68"/>
</g>
<!-- multi_ed25519&#45;&gt;ed25519 -->
<g id="edge55" class="edge">
<title>multi_ed25519&#45;&gt;ed25519</title>
<path fill="none" stroke="black" d="M604.08,-360.05C599.44,-352.14 593.82,-342.54 588.63,-333.69"/>
<polygon fill="black" stroke="black" points="591.67,-331.95 583.6,-325.1 585.63,-335.49 591.67,-331.95"/>
</g>
<!-- comparator&#45;&gt;bcs -->
<g id="edge56" class="edge">
<title>comparator&#45;&gt;bcs</title>
<path fill="none" stroke="black" d="M943.26,-294.25C897.13,-281.68 823.95,-261.39 797,-252 794.26,-251.05 791.44,-250.01 788.63,-248.92"/>
<polygon fill="black" stroke="black" points="789.94,-245.68 779.35,-245.21 787.34,-252.18 789.94,-245.68"/>
</g>
</g>
</svg>
