<?xml version="1.0" encoding="UTF-8" standalone="no"?>
<!DOCTYPE svg PUBLIC "-//W3C//DTD SVG 1.1//EN"
 "http://www.w3.org/Graphics/SVG/1.1/DTD/svg11.dtd">
<!-- Generated by graphviz version 7.0.0 (20221023.0053)
 -->
<!-- Title: G Pages: 1 -->
<svg width="230pt" height="227pt"
 viewBox="0.00 0.00 230.00 227.00" xmlns="http://www.w3.org/2000/svg" xmlns:xlink="http://www.w3.org/1999/xlink">
<g id="graph0" class="graph" transform="scale(1 1) rotate(0) translate(4 223)">
<title>G</title>
<polygon fill="white" stroke="none" points="-4,4 -4,-223 226,-223 226,4 -4,4"/>
<g id="clust1" class="cluster">
<title>cluster_aptos_governance</title>
<polygon fill="none" stroke="black" points="8,-64 8,-211 214,-211 214,-64 8,-64"/>
<text text-anchor="middle" x="111" y="-195.8" font-family="Times,serif" font-size="14.00">aptos_governance</text>
</g>
<!-- is_resolved -->
<g id="node1" class="node">
<title>is_resolved</title>
<ellipse fill="none" stroke="black" cx="111" cy="-18" rx="50.89" ry="18"/>
<text text-anchor="middle" x="111" y="-14.3" font-family="Times,serif" font-size="14.00">is_resolved</text>
</g>
<!-- aptos_governance::remove_approved_hash -->
<g id="node2" class="node">
<title>aptos_governance::remove_approved_hash</title>
<ellipse fill="none" stroke="black" cx="111" cy="-90" rx="94.78" ry="18"/>
<text text-anchor="middle" x="111" y="-86.3" font-family="Times,serif" font-size="14.00">remove_approved_hash</text>
</g>
<!-- aptos_governance::remove_approved_hash&#45;&gt;is_resolved -->
<g id="edge1" class="edge">
<title>aptos_governance::remove_approved_hash&#45;&gt;is_resolved</title>
<path fill="none" stroke="black" d="M111,-71.7C111,-64.41 111,-55.73 111,-47.54"/>
<polygon fill="black" stroke="black" points="114.5,-47.62 111,-37.62 107.5,-47.62 114.5,-47.62"/>
</g>
<!-- aptos_governance::resolve -->
<g id="node3" class="node">
<title>aptos_governance::resolve</title>
<ellipse fill="none" stroke="black" cx="111" cy="-162" rx="36.29" ry="18"/>
<text text-anchor="middle" x="111" y="-158.3" font-family="Times,serif" font-size="14.00">resolve</text>
</g>
<!-- aptos_governance::resolve&#45;&gt;aptos_governance::remove_approved_hash -->
<g id="edge2" class="edge">
<title>aptos_governance::resolve&#45;&gt;aptos_governance::remove_approved_hash</title>
<path fill="none" stroke="black" d="M111,-143.7C111,-136.41 111,-127.73 111,-119.54"/>
<polygon fill="black" stroke="black" points="114.5,-119.62 111,-109.62 107.5,-119.62 114.5,-119.62"/>
</g>
</g>
</svg>
