<?xml version="1.0" encoding="UTF-8" standalone="no"?>
<!DOCTYPE svg PUBLIC "-//W3C//DTD SVG 1.1//EN"
 "http://www.w3.org/Graphics/SVG/1.1/DTD/svg11.dtd">
<!-- Generated by graphviz version 7.0.0 (20221023.0053)
 -->
<!-- Title: G Pages: 1 -->
<svg width="644pt" height="371pt"
 viewBox="0.00 0.00 643.69 371.00" xmlns="http://www.w3.org/2000/svg" xmlns:xlink="http://www.w3.org/1999/xlink">
<g id="graph0" class="graph" transform="scale(1 1) rotate(0) translate(4 367)">
<title>G</title>
<polygon fill="white" stroke="none" points="-4,4 -4,-367 639.69,-367 639.69,4 -4,4"/>
<g id="clust1" class="cluster">
<title>cluster_aptos_governance</title>
<polygon fill="none" stroke="black" points="8,-208 8,-355 444,-355 444,-208 8,-208"/>
<text text-anchor="middle" x="226" y="-339.8" font-family="Times,serif" font-size="14.00">aptos_governance</text>
</g>
<!-- is_voting_period_over -->
<g id="node1" class="node">
<title>is_voting_period_over</title>
<ellipse fill="none" stroke="black" cx="504" cy="-18" rx="90.18" ry="18"/>
<text text-anchor="middle" x="504" y="-14.3" font-family="Times,serif" font-size="14.00">is_voting_period_over</text>
</g>
<!-- is_voting_closed -->
<g id="node2" class="node">
<title>is_voting_closed</title>
<ellipse fill="none" stroke="black" cx="555" cy="-90" rx="70.39" ry="18"/>
<text text-anchor="middle" x="555" y="-86.3" font-family="Times,serif" font-size="14.00">is_voting_closed</text>
</g>
<!-- is_voting_closed&#45;&gt;is_voting_period_over -->
<g id="edge1" class="edge">
<title>is_voting_closed&#45;&gt;is_voting_period_over</title>
<path fill="none" stroke="black" d="M542.65,-72.05C536.85,-64.09 529.8,-54.41 523.31,-45.51"/>
<polygon fill="black" stroke="black" points="526.2,-43.52 517.48,-37.5 520.54,-47.64 526.2,-43.52"/>
</g>
<!-- vote -->
<g id="node3" class="node">
<title>vote</title>
<ellipse fill="none" stroke="black" cx="479" cy="-234" rx="27" ry="18"/>
<text text-anchor="middle" x="479" y="-230.3" font-family="Times,serif" font-size="14.00">vote</text>
</g>
<!-- vote&#45;&gt;is_voting_period_over -->
<g id="edge2" class="edge">
<title>vote&#45;&gt;is_voting_period_over</title>
<path fill="none" stroke="black" d="M475.58,-215.7C470.34,-185.78 462.29,-122.74 476,-72 478.38,-63.2 482.41,-54.21 486.68,-46.2"/>
<polygon fill="black" stroke="black" points="489.65,-48.06 491.57,-37.64 483.57,-44.59 489.65,-48.06"/>
</g>
<!-- get_proposal_state -->
<g id="node4" class="node">
<title>get_proposal_state</title>
<ellipse fill="none" stroke="black" cx="559" cy="-162" rx="76.89" ry="18"/>
<text text-anchor="middle" x="559" y="-158.3" font-family="Times,serif" font-size="14.00">get_proposal_state</text>
</g>
<!-- get_proposal_state&#45;&gt;is_voting_closed -->
<g id="edge3" class="edge">
<title>get_proposal_state&#45;&gt;is_voting_closed</title>
<path fill="none" stroke="black" d="M558.01,-143.7C557.59,-136.41 557.1,-127.73 556.63,-119.54"/>
<polygon fill="black" stroke="black" points="560.13,-119.4 556.06,-109.62 553.14,-119.8 560.13,-119.4"/>
</g>
<!-- aptos_governance::vote -->
<g id="node5" class="node">
<title>aptos_governance::vote</title>
<ellipse fill="none" stroke="black" cx="319" cy="-306" rx="27" ry="18"/>
<text text-anchor="middle" x="319" y="-302.3" font-family="Times,serif" font-size="14.00">vote</text>
</g>
<!-- aptos_governance::vote&#45;&gt;vote -->
<g id="edge4" class="edge">
<title>aptos_governance::vote&#45;&gt;vote</title>
<path fill="none" stroke="black" d="M340.21,-294.68C345.04,-292.41 350.17,-290.07 355,-288 395.73,-270.53 407.81,-270.7 448,-252 448.22,-251.9 448.45,-251.79 448.67,-251.69"/>
<polygon fill="black" stroke="black" points="450.15,-254.86 457.5,-247.23 447,-248.61 450.15,-254.86"/>
</g>
<!-- aptos_governance::vote&#45;&gt;get_proposal_state -->
<g id="edge6" class="edge">
<title>aptos_governance::vote&#45;&gt;get_proposal_state</title>
<path fill="none" stroke="black" d="M340,-294.14C344.84,-291.9 350.03,-289.71 355,-288 423.93,-264.29 457.71,-297.06 515,-252 534.25,-236.86 545.69,-211.1 552.05,-191.18"/>
<polygon fill="black" stroke="black" points="555.38,-192.28 554.81,-181.7 548.66,-190.33 555.38,-192.28"/>
</g>
<!-- aptos_governance::add_approved_script_hash -->
<g id="node7" class="node">
<title>aptos_governance::add_approved_script_hash</title>
<ellipse fill="none" stroke="black" cx="319" cy="-234" rx="104.78" ry="18"/>
<text text-anchor="middle" x="319" y="-230.3" font-family="Times,serif" font-size="14.00">add_approved_script_hash</text>
</g>
<!-- aptos_governance::vote&#45;&gt;aptos_governance::add_approved_script_hash -->
<g id="edge9" class="edge">
<title>aptos_governance::vote&#45;&gt;aptos_governance::add_approved_script_hash</title>
<path fill="none" stroke="black" d="M319,-287.7C319,-280.41 319,-271.73 319,-263.54"/>
<polygon fill="black" stroke="black" points="322.5,-263.62 319,-253.62 315.5,-263.62 322.5,-263.62"/>
</g>
<!-- resolve -->
<g id="node6" class="node">
<title>resolve</title>
<ellipse fill="none" stroke="black" cx="598" cy="-234" rx="36.29" ry="18"/>
<text text-anchor="middle" x="598" y="-230.3" font-family="Times,serif" font-size="14.00">resolve</text>
</g>
<!-- resolve&#45;&gt;get_proposal_state -->
<g id="edge5" class="edge">
<title>resolve&#45;&gt;get_proposal_state</title>
<path fill="none" stroke="black" d="M588.76,-216.41C584.35,-208.51 578.97,-198.85 574.01,-189.94"/>
<polygon fill="black" stroke="black" points="577.11,-188.31 569.18,-181.28 570.99,-191.72 577.11,-188.31"/>
</g>
<!-- aptos_governance::add_approved_script_hash&#45;&gt;get_proposal_state -->
<g id="edge7" class="edge">
<title>aptos_governance::add_approved_script_hash&#45;&gt;get_proposal_state</title>
<path fill="none" stroke="black" d="M370.78,-217.9C409.2,-206.69 461.58,-191.41 501.33,-179.82"/>
<polygon fill="black" stroke="black" points="502.12,-183.24 510.74,-177.08 500.16,-176.52 502.12,-183.24"/>
</g>
<!-- aptos_governance::resolve -->
<g id="node8" class="node">
<title>aptos_governance::resolve</title>
<ellipse fill="none" stroke="black" cx="400" cy="-306" rx="36.29" ry="18"/>
<text text-anchor="middle" x="400" y="-302.3" font-family="Times,serif" font-size="14.00">resolve</text>
</g>
<!-- aptos_governance::resolve&#45;&gt;resolve -->
<g id="edge8" class="edge">
<title>aptos_governance::resolve&#45;&gt;resolve</title>
<path fill="none" stroke="black" d="M428.79,-294.82C462.96,-282.74 520.11,-262.54 558.42,-248.99"/>
<polygon fill="black" stroke="black" points="559.49,-252.33 567.75,-245.7 557.15,-245.73 559.49,-252.33"/>
</g>
<!-- aptos_governance::add_approved_script_hash_script -->
<g id="node9" class="node">
<title>aptos_governance::add_approved_script_hash_script</title>
<ellipse fill="none" stroke="black" cx="145" cy="-306" rx="128.88" ry="18"/>
<text text-anchor="middle" x="145" y="-302.3" font-family="Times,serif" font-size="14.00">add_approved_script_hash_script</text>
</g>
<!-- aptos_governance::add_approved_script_hash_script&#45;&gt;aptos_governance::add_approved_script_hash -->
<g id="edge10" class="edge">
<title>aptos_governance::add_approved_script_hash_script&#45;&gt;aptos_governance::add_approved_script_hash</title>
<path fill="none" stroke="black" d="M185.8,-288.59C210.51,-278.64 242.25,-265.88 268.54,-255.3"/>
<polygon fill="black" stroke="black" points="269.69,-258.61 277.66,-251.63 267.07,-252.12 269.69,-258.61"/>
</g>
</g>
</svg>
