<?xml version="1.0" encoding="UTF-8" standalone="no"?>
<!DOCTYPE svg PUBLIC "-//W3C//DTD SVG 1.1//EN"
 "http://www.w3.org/Graphics/SVG/1.1/DTD/svg11.dtd">
<!-- Generated by graphviz version 7.0.0 (20221023.0053)
 -->
<!-- Title: G Pages: 1 -->
<svg width="1625pt" height="459pt"
 viewBox="0.00 0.00 1625.34 459.00" xmlns="http://www.w3.org/2000/svg" xmlns:xlink="http://www.w3.org/1999/xlink">
<g id="graph0" class="graph" transform="scale(1 1) rotate(0) translate(4 455)">
<title>G</title>
<polygon fill="white" stroke="none" points="-4,4 -4,-455 1621.34,-455 1621.34,4 -4,4"/>
<g id="clust1" class="cluster">
<title>cluster_string</title>
<polygon fill="none" stroke="black" points="8,-257 8,-407 186,-407 186,-257 8,-257"/>
<text text-anchor="middle" x="97" y="-391.8" font-family="Times,serif" font-size="14.00">string</text>
</g>
<g id="clust2" class="cluster">
<title>cluster_error</title>
<polygon fill="none" stroke="black" points="194,-174 194,-332 486,-332 486,-174 194,-174"/>
<text text-anchor="middle" x="340" y="-316.8" font-family="Times,serif" font-size="14.00">error</text>
</g>
<g id="clust3" class="cluster">
<title>cluster_table</title>
<polygon fill="none" stroke="black" points="1231,-257 1231,-407 1391,-407 1391,-257 1231,-257"/>
<text text-anchor="middle" x="1311" y="-391.8" font-family="Times,serif" font-size="14.00">table</text>
</g>
<g id="clust4" class="cluster">
<title>cluster_bcs</title>
<polygon fill="none" stroke="black" points="1161,-91 1161,-166 1257,-166 1257,-91 1161,-91"/>
<text text-anchor="middle" x="1209" y="-150.8" font-family="Times,serif" font-size="14.00">bcs</text>
</g>
<g id="clust5" class="cluster">
<title>cluster_event</title>
<polygon fill="none" stroke="black" points="1005,-257 1005,-407 1191,-407 1191,-257 1005,-257"/>
<text text-anchor="middle" x="1098" y="-391.8" font-family="Times,serif" font-size="14.00">event</text>
</g>
<g id="clust6" class="cluster">
<title>cluster_timestamp</title>
<polygon fill="none" stroke="black" points="1419,-174 1419,-332 1593,-332 1593,-174 1419,-174"/>
<text text-anchor="middle" x="1506" y="-316.8" font-family="Times,serif" font-size="14.00">timestamp</text>
</g>
<g id="clust7" class="cluster">
<title>cluster_simple_map</title>
<polygon fill="none" stroke="black" points="524,-257 524,-407 854,-407 854,-257 524,-257"/>
<text text-anchor="middle" x="689" y="-391.8" font-family="Times,serif" font-size="14.00">simple_map</text>
</g>
<g id="clust8" class="cluster">
<title>cluster_option</title>
<polygon fill="none" stroke="black" points="562,-91 562,-249 893,-249 893,-91 562,-91"/>
<text text-anchor="middle" x="727.5" y="-233.8" font-family="Times,serif" font-size="14.00">option</text>
</g>
<g id="clust9" class="cluster">
<title>cluster_vector</title>
<polygon fill="none" stroke="black" points="625,-8 625,-83 832,-83 832,-8 625,-8"/>
<text text-anchor="middle" x="728.5" y="-67.8" font-family="Times,serif" font-size="14.00">vector</text>
</g>
<g id="clust10" class="cluster">
<title>cluster_comparator</title>
<polygon fill="none" stroke="black" points="901,-91 901,-249 1153,-249 1153,-91 901,-91"/>
<text text-anchor="middle" x="1027" y="-233.8" font-family="Times,serif" font-size="14.00">comparator</text>
</g>
<!-- vote -->
<g id="node1" class="node">
<title>vote</title>
<ellipse fill="none" stroke="black" cx="891" cy="-433" rx="27" ry="18"/>
<text text-anchor="middle" x="891" y="-429.3" font-family="Times,serif" font-size="14.00">vote</text>
</g>
<!-- string::utf8 -->
<g id="node2" class="node">
<title>string::utf8</title>
<ellipse fill="none" stroke="black" cx="124" cy="-358" rx="27" ry="18"/>
<text text-anchor="middle" x="124" y="-354.3" font-family="Times,serif" font-size="14.00">utf8</text>
</g>
<!-- vote&#45;&gt;string::utf8 -->
<g id="edge1" class="edge">
<title>vote&#45;&gt;string::utf8</title>
<path fill="none" stroke="black" d="M863.6,-432.11C785.64,-432.12 555.95,-430.04 367,-407 292.82,-397.95 207.38,-379.07 160.15,-367.88"/>
<polygon fill="black" stroke="black" points="161,-364.48 150.46,-365.56 159.37,-371.29 161,-364.48"/>
</g>
<!-- error::invalid_state -->
<g id="node3" class="node">
<title>error::invalid_state</title>
<ellipse fill="none" stroke="black" cx="258" cy="-283" rx="55.79" ry="18"/>
<text text-anchor="middle" x="258" y="-279.3" font-family="Times,serif" font-size="14.00">invalid_state</text>
</g>
<!-- vote&#45;&gt;error::invalid_state -->
<g id="edge2" class="edge">
<title>vote&#45;&gt;error::invalid_state</title>
<path fill="none" stroke="black" d="M863.68,-431.21C789.51,-428.89 585.58,-421.36 520,-407 428.48,-386.96 405.22,-376.91 323,-332 310.11,-324.96 296.89,-315.65 285.77,-307.11"/>
<polygon fill="black" stroke="black" points="288.19,-304.55 278.17,-301.11 283.85,-310.05 288.19,-304.55"/>
</g>
<!-- table::borrow_mut -->
<g id="node4" class="node">
<title>table::borrow_mut</title>
<ellipse fill="none" stroke="black" cx="1302" cy="-358" rx="54.69" ry="18"/>
<text text-anchor="middle" x="1302" y="-354.3" font-family="Times,serif" font-size="14.00">borrow_mut</text>
</g>
<!-- vote&#45;&gt;table::borrow_mut -->
<g id="edge3" class="edge">
<title>vote&#45;&gt;table::borrow_mut</title>
<path fill="none" stroke="black" d="M918,-430.95C982.29,-428.27 1142.95,-420.4 1195,-407 1219.35,-400.73 1245.1,-389.35 1265.24,-379.23"/>
<polygon fill="black" stroke="black" points="1266.59,-382.48 1273.88,-374.79 1263.38,-376.25 1266.59,-382.48"/>
</g>
<!-- bcs::to_bytes -->
<g id="node5" class="node">
<title>bcs::to_bytes</title>
<ellipse fill="none" stroke="black" cx="1209" cy="-117" rx="40.09" ry="18"/>
<text text-anchor="middle" x="1209" y="-113.3" font-family="Times,serif" font-size="14.00">to_bytes</text>
</g>
<!-- vote&#45;&gt;bcs::to_bytes -->
<g id="edge4" class="edge">
<title>vote&#45;&gt;bcs::to_bytes</title>
<path fill="none" stroke="black" d="M895.86,-414.93C907.26,-378.4 939.56,-293.04 1001,-257 1030.94,-239.44 1128.79,-269.23 1157,-249 1190,-225.33 1202.07,-177.29 1206.48,-146.43"/>
<polygon fill="black" stroke="black" points="1209.93,-147 1207.67,-136.65 1202.98,-146.15 1209.93,-147"/>
</g>
<!-- event::emit_event -->
<g id="node6" class="node">
<title>event::emit_event</title>
<ellipse fill="none" stroke="black" cx="1098" cy="-358" rx="50.09" ry="18"/>
<text text-anchor="middle" x="1098" y="-354.3" font-family="Times,serif" font-size="14.00">emit_event</text>
</g>
<!-- vote&#45;&gt;event::emit_event -->
<g id="edge5" class="edge">
<title>vote&#45;&gt;event::emit_event</title>
<path fill="none" stroke="black" d="M917.21,-427.64C939.38,-423.54 971.78,-416.61 999,-407 1020.48,-399.41 1043.43,-388.48 1061.82,-378.96"/>
<polygon fill="black" stroke="black" points="1063.25,-382.17 1070.46,-374.41 1059.99,-375.97 1063.25,-382.17"/>
</g>
<!-- timestamp::now_seconds -->
<g id="node7" class="node">
<title>timestamp::now_seconds</title>
<ellipse fill="none" stroke="black" cx="1506" cy="-283" rx="57.69" ry="18"/>
<text text-anchor="middle" x="1506" y="-279.3" font-family="Times,serif" font-size="14.00">now_seconds</text>
</g>
<!-- vote&#45;&gt;timestamp::now_seconds -->
<g id="edge6" class="edge">
<title>vote&#45;&gt;timestamp::now_seconds</title>
<path fill="none" stroke="black" d="M918.38,-432.24C1017.67,-432.91 1355.1,-433.22 1395,-407 1422.74,-388.77 1406.54,-365.33 1428,-340 1439.47,-326.46 1454.89,-314.5 1468.98,-305.15"/>
<polygon fill="black" stroke="black" points="1470.64,-308.24 1477.19,-299.91 1466.88,-302.34 1470.64,-308.24"/>
</g>
<!-- simple_map::borrow_mut -->
<g id="node8" class="node">
<title>simple_map::borrow_mut</title>
<ellipse fill="none" stroke="black" cx="587" cy="-358" rx="54.69" ry="18"/>
<text text-anchor="middle" x="587" y="-354.3" font-family="Times,serif" font-size="14.00">borrow_mut</text>
</g>
<!-- vote&#45;&gt;simple_map::borrow_mut -->
<g id="edge7" class="edge">
<title>vote&#45;&gt;simple_map::borrow_mut</title>
<path fill="none" stroke="black" d="M863.93,-430.99C809.6,-428.68 689.22,-421.99 651,-407 636.96,-401.49 623.31,-392.02 612.25,-382.94"/>
<polygon fill="black" stroke="black" points="614.63,-380.37 604.77,-376.49 610.06,-385.67 614.63,-380.37"/>
</g>
<!-- simple_map::add -->
<g id="node9" class="node">
<title>simple_map::add</title>
<ellipse fill="none" stroke="black" cx="687" cy="-358" rx="27" ry="18"/>
<text text-anchor="middle" x="687" y="-354.3" font-family="Times,serif" font-size="14.00">add</text>
</g>
<!-- vote&#45;&gt;simple_map::add -->
<g id="edge8" class="edge">
<title>vote&#45;&gt;simple_map::add</title>
<path fill="none" stroke="black" d="M863.8,-430.45C822.48,-427.69 746.24,-420.85 723,-407 714.12,-401.71 706.72,-393.31 700.98,-385.01"/>
<polygon fill="black" stroke="black" points="704.1,-383.4 695.83,-376.78 698.17,-387.12 704.1,-383.4"/>
</g>
<!-- simple_map::contains_key -->
<g id="node10" class="node">
<title>simple_map::contains_key</title>
<ellipse fill="none" stroke="black" cx="789" cy="-358" rx="57.39" ry="18"/>
<text text-anchor="middle" x="789" y="-354.3" font-family="Times,serif" font-size="14.00">contains_key</text>
</g>
<!-- vote&#45;&gt;simple_map::contains_key -->
<g id="edge9" class="edge">
<title>vote&#45;&gt;simple_map::contains_key</title>
<path fill="none" stroke="black" d="M873.23,-419.28C858.69,-408.88 837.76,-393.9 820.4,-381.47"/>
<polygon fill="black" stroke="black" points="822.59,-378.73 812.42,-375.76 818.51,-384.43 822.59,-378.73"/>
</g>
<!-- is_voting_period_over -->
<g id="node11" class="node">
<title>is_voting_period_over</title>
<ellipse fill="none" stroke="black" cx="1527" cy="-358" rx="90.18" ry="18"/>
<text text-anchor="middle" x="1527" y="-354.3" font-family="Times,serif" font-size="14.00">is_voting_period_over</text>
</g>
<!-- vote&#45;&gt;is_voting_period_over -->
<g id="edge10" class="edge">
<title>vote&#45;&gt;is_voting_period_over</title>
<path fill="none" stroke="black" d="M918.14,-432.1C1012.5,-432.21 1325.77,-430.76 1423,-407 1445.82,-401.42 1469.72,-390.77 1488.85,-380.92"/>
<polygon fill="black" stroke="black" points="1490.42,-384.05 1497.61,-376.27 1487.14,-377.87 1490.42,-384.05"/>
</g>
<!-- string::internal_check_utf8 -->
<g id="node12" class="node">
<title>string::internal_check_utf8</title>
<ellipse fill="none" stroke="black" cx="97" cy="-283" rx="81.49" ry="18"/>
<text text-anchor="middle" x="97" y="-279.3" font-family="Times,serif" font-size="14.00">internal_check_utf8</text>
</g>
<!-- string::utf8&#45;&gt;string::internal_check_utf8 -->
<g id="edge11" class="edge">
<title>string::utf8&#45;&gt;string::internal_check_utf8</title>
<path fill="none" stroke="black" d="M117.74,-340.07C114.65,-331.71 110.84,-321.42 107.33,-311.94"/>
<polygon fill="black" stroke="black" points="110.69,-310.93 103.94,-302.77 104.13,-313.36 110.69,-310.93"/>
</g>
<!-- error::canonical -->
<g id="node13" class="node">
<title>error::canonical</title>
<ellipse fill="none" stroke="black" cx="331" cy="-200" rx="44.39" ry="18"/>
<text text-anchor="middle" x="331" y="-196.3" font-family="Times,serif" font-size="14.00">canonical</text>
</g>
<!-- error::invalid_state&#45;&gt;error::canonical -->
<g id="edge12" class="edge">
<title>error::invalid_state&#45;&gt;error::canonical</title>
<path fill="none" stroke="black" d="M273.13,-265.22C283.44,-253.77 297.27,-238.42 308.83,-225.6"/>
<polygon fill="black" stroke="black" points="311.28,-228.1 315.38,-218.33 306.08,-223.42 311.28,-228.1"/>
</g>
<!-- table::borrow_box_mut -->
<g id="node14" class="node">
<title>table::borrow_box_mut</title>
<ellipse fill="none" stroke="black" cx="1311" cy="-283" rx="72.29" ry="18"/>
<text text-anchor="middle" x="1311" y="-279.3" font-family="Times,serif" font-size="14.00">borrow_box_mut</text>
</g>
<!-- table::borrow_mut&#45;&gt;table::borrow_box_mut -->
<g id="edge13" class="edge">
<title>table::borrow_mut&#45;&gt;table::borrow_box_mut</title>
<path fill="none" stroke="black" d="M1304.13,-339.7C1305.12,-331.67 1306.33,-321.9 1307.45,-312.8"/>
<polygon fill="black" stroke="black" points="1310.92,-313.28 1308.67,-302.93 1303.97,-312.43 1310.92,-313.28"/>
</g>
<!-- event::emit_event&#45;&gt;bcs::to_bytes -->
<g id="edge14" class="edge">
<title>event::emit_event&#45;&gt;bcs::to_bytes</title>
<path fill="none" stroke="black" d="M1147.64,-355.01C1164.14,-351.75 1181.08,-345.1 1192,-332 1236.06,-279.17 1225.42,-191.27 1216.06,-146.34"/>
<polygon fill="black" stroke="black" points="1219.48,-145.6 1213.89,-136.6 1212.65,-147.12 1219.48,-145.6"/>
</g>
<!-- event::write_to_event_store -->
<g id="node15" class="node">
<title>event::write_to_event_store</title>
<ellipse fill="none" stroke="black" cx="1098" cy="-283" rx="85.29" ry="18"/>
<text text-anchor="middle" x="1098" y="-279.3" font-family="Times,serif" font-size="14.00">write_to_event_store</text>
</g>
<!-- event::emit_event&#45;&gt;event::write_to_event_store -->
<g id="edge15" class="edge">
<title>event::emit_event&#45;&gt;event::write_to_event_store</title>
<path fill="none" stroke="black" d="M1098,-339.7C1098,-331.67 1098,-321.9 1098,-312.8"/>
<polygon fill="black" stroke="black" points="1101.5,-312.94 1098,-302.94 1094.5,-312.94 1101.5,-312.94"/>
</g>
<!-- timestamp::now_microseconds -->
<g id="node16" class="node">
<title>timestamp::now_microseconds</title>
<ellipse fill="none" stroke="black" cx="1506" cy="-200" rx="79.09" ry="18"/>
<text text-anchor="middle" x="1506" y="-196.3" font-family="Times,serif" font-size="14.00">now_microseconds</text>
</g>
<!-- timestamp::now_seconds&#45;&gt;timestamp::now_microseconds -->
<g id="edge16" class="edge">
<title>timestamp::now_seconds&#45;&gt;timestamp::now_microseconds</title>
<path fill="none" stroke="black" d="M1506,-264.82C1506,-254.69 1506,-241.6 1506,-229.92"/>
<polygon fill="black" stroke="black" points="1509.5,-229.95 1506,-219.95 1502.5,-229.95 1509.5,-229.95"/>
</g>
<!-- option::extract -->
<g id="node17" class="node">
<title>option::extract</title>
<ellipse fill="none" stroke="black" cx="604" cy="-200" rx="34.39" ry="18"/>
<text text-anchor="middle" x="604" y="-196.3" font-family="Times,serif" font-size="14.00">extract</text>
</g>
<!-- simple_map::borrow_mut&#45;&gt;option::extract -->
<g id="edge17" class="edge">
<title>simple_map::borrow_mut&#45;&gt;option::extract</title>
<path fill="none" stroke="black" d="M586.39,-339.56C585.96,-319.53 586.02,-285.73 590,-257 591.28,-247.75 593.48,-237.82 595.77,-228.92"/>
<polygon fill="black" stroke="black" points="599.1,-230 598.35,-219.43 592.35,-228.16 599.1,-230"/>
</g>
<!-- option::is_some -->
<g id="node18" class="node">
<title>option::is_some</title>
<ellipse fill="none" stroke="black" cx="610" cy="-117" rx="40.09" ry="18"/>
<text text-anchor="middle" x="610" y="-113.3" font-family="Times,serif" font-size="14.00">is_some</text>
</g>
<!-- simple_map::borrow_mut&#45;&gt;option::is_some -->
<g id="edge18" class="edge">
<title>simple_map::borrow_mut&#45;&gt;option::is_some</title>
<path fill="none" stroke="black" d="M573.17,-340.33C547.49,-307.22 497.68,-231.41 528,-174 537.13,-156.7 554.28,-143.74 570.54,-134.67"/>
<polygon fill="black" stroke="black" points="571.86,-137.92 579.12,-130.21 568.63,-131.71 571.86,-137.92"/>
</g>
<!-- error::invalid_argument -->
<g id="node19" class="node">
<title>error::invalid_argument</title>
<ellipse fill="none" stroke="black" cx="405" cy="-283" rx="73.39" ry="18"/>
<text text-anchor="middle" x="405" y="-279.3" font-family="Times,serif" font-size="14.00">invalid_argument</text>
</g>
<!-- simple_map::borrow_mut&#45;&gt;error::invalid_argument -->
<g id="edge19" class="edge">
<title>simple_map::borrow_mut&#45;&gt;error::invalid_argument</title>
<path fill="none" stroke="black" d="M541.8,-347.52C525.79,-343.54 507.83,-338.34 492,-332 474.26,-324.9 455.59,-314.96 440.11,-305.97"/>
<polygon fill="black" stroke="black" points="442.13,-303.1 431.75,-301.01 438.56,-309.12 442.13,-303.1"/>
</g>
<!-- simple_map::find -->
<g id="node20" class="node">
<title>simple_map::find</title>
<ellipse fill="none" stroke="black" cx="789" cy="-283" rx="27" ry="18"/>
<text text-anchor="middle" x="789" y="-279.3" font-family="Times,serif" font-size="14.00">find</text>
</g>
<!-- simple_map::borrow_mut&#45;&gt;simple_map::find -->
<g id="edge20" class="edge">
<title>simple_map::borrow_mut&#45;&gt;simple_map::find</title>
<path fill="none" stroke="black" d="M622.65,-344.12C660.01,-330.61 718.28,-309.56 755.01,-296.28"/>
<polygon fill="black" stroke="black" points="756.03,-299.64 764.25,-292.95 753.65,-293.05 756.03,-299.64"/>
</g>
<!-- simple_map::add&#45;&gt;option::extract -->
<g id="edge21" class="edge">
<title>simple_map::add&#45;&gt;option::extract</title>
<path fill="none" stroke="black" d="M678.27,-340.6C663.99,-313.75 635.48,-260.17 618.24,-227.76"/>
<polygon fill="black" stroke="black" points="621.36,-226.17 613.57,-218.99 615.18,-229.46 621.36,-226.17"/>
</g>
<!-- simple_map::add&#45;&gt;error::invalid_argument -->
<g id="edge23" class="edge">
<title>simple_map::add&#45;&gt;error::invalid_argument</title>
<path fill="none" stroke="black" d="M666.56,-345.72C661.6,-343.44 656.22,-341.34 651,-340 594.5,-325.51 576.82,-345.2 520,-332 494.1,-325.99 466.57,-314.68 444.94,-304.56"/>
<polygon fill="black" stroke="black" points="446.72,-301.53 436.19,-300.36 443.69,-307.84 446.72,-301.53"/>
</g>
<!-- simple_map::add&#45;&gt;simple_map::find -->
<g id="edge24" class="edge">
<title>simple_map::add&#45;&gt;simple_map::find</title>
<path fill="none" stroke="black" d="M704.77,-344.28C720.61,-332.94 744.04,-316.18 762.17,-303.2"/>
<polygon fill="black" stroke="black" points="763.77,-306.36 769.86,-297.7 759.69,-300.67 763.77,-306.36"/>
</g>
<!-- option::is_none -->
<g id="node21" class="node">
<title>option::is_none</title>
<ellipse fill="none" stroke="black" cx="695" cy="-200" rx="38.19" ry="18"/>
<text text-anchor="middle" x="695" y="-196.3" font-family="Times,serif" font-size="14.00">is_none</text>
</g>
<!-- simple_map::add&#45;&gt;option::is_none -->
<g id="edge22" class="edge">
<title>simple_map::add&#45;&gt;option::is_none</title>
<path fill="none" stroke="black" d="M687.89,-339.71C689.25,-313.12 691.88,-261.9 693.53,-229.69"/>
<polygon fill="black" stroke="black" points="697.01,-230.05 694.03,-219.88 690.02,-229.69 697.01,-230.05"/>
</g>
<!-- simple_map::contains_key&#45;&gt;option::is_some -->
<g id="edge25" class="edge">
<title>simple_map::contains_key&#45;&gt;option::is_some</title>
<path fill="none" stroke="black" d="M750.63,-344.42C691.5,-324.17 582.61,-283.14 561,-249 543.18,-220.83 549.28,-205.2 561,-174 565.63,-161.69 574.33,-150.31 583.12,-141.07"/>
<polygon fill="black" stroke="black" points="585.36,-143.78 590.04,-134.28 580.45,-138.79 585.36,-143.78"/>
</g>
<!-- simple_map::contains_key&#45;&gt;simple_map::find -->
<g id="edge26" class="edge">
<title>simple_map::contains_key&#45;&gt;simple_map::find</title>
<path fill="none" stroke="black" d="M789,-339.7C789,-331.67 789,-321.9 789,-312.8"/>
<polygon fill="black" stroke="black" points="792.5,-312.94 789,-302.94 785.5,-312.94 792.5,-312.94"/>
</g>
<!-- is_voting_period_over&#45;&gt;timestamp::now_seconds -->
<g id="edge27" class="edge">
<title>is_voting_period_over&#45;&gt;timestamp::now_seconds</title>
<path fill="none" stroke="black" d="M1522.02,-339.7C1519.66,-331.49 1516.78,-321.46 1514.11,-312.19"/>
<polygon fill="black" stroke="black" points="1517.56,-311.53 1511.43,-302.88 1510.83,-313.46 1517.56,-311.53"/>
</g>
<!-- option::extract&#45;&gt;option::is_some -->
<g id="edge28" class="edge">
<title>option::extract&#45;&gt;option::is_some</title>
<path fill="none" stroke="black" d="M605.27,-181.82C606.03,-171.58 607.01,-158.33 607.89,-146.55"/>
<polygon fill="black" stroke="black" points="611.35,-147.17 608.6,-136.94 604.37,-146.66 611.35,-147.17"/>
</g>
<!-- vector::is_empty -->
<g id="node22" class="node">
<title>vector::is_empty</title>
<ellipse fill="none" stroke="black" cx="677" cy="-34" rx="43.59" ry="18"/>
<text text-anchor="middle" x="677" y="-30.3" font-family="Times,serif" font-size="14.00">is_empty</text>
</g>
<!-- option::is_some&#45;&gt;vector::is_empty -->
<g id="edge29" class="edge">
<title>option::is_some&#45;&gt;vector::is_empty</title>
<path fill="none" stroke="black" d="M623.56,-99.61C632.91,-88.3 645.53,-73.05 656.15,-60.2"/>
<polygon fill="black" stroke="black" points="658.82,-62.47 662.5,-52.53 653.43,-58.01 658.82,-62.47"/>
</g>
<!-- error::invalid_argument&#45;&gt;error::canonical -->
<g id="edge30" class="edge">
<title>error::invalid_argument&#45;&gt;error::canonical</title>
<path fill="none" stroke="black" d="M389.67,-265.22C379.21,-253.77 365.19,-238.42 353.48,-225.6"/>
<polygon fill="black" stroke="black" points="356.16,-223.35 346.83,-218.33 350.99,-228.07 356.16,-223.35"/>
</g>
<!-- option::none -->
<g id="node23" class="node">
<title>option::none</title>
<ellipse fill="none" stroke="black" cx="857" cy="-200" rx="27.9" ry="18"/>
<text text-anchor="middle" x="857" y="-196.3" font-family="Times,serif" font-size="14.00">none</text>
</g>
<!-- simple_map::find&#45;&gt;option::none -->
<g id="edge31" class="edge">
<title>simple_map::find&#45;&gt;option::none</title>
<path fill="none" stroke="black" d="M803.2,-267.5C808.59,-261.84 814.7,-255.22 820,-249 826.24,-241.68 832.74,-233.47 838.52,-225.93"/>
<polygon fill="black" stroke="black" points="841.22,-228.16 844.46,-218.08 835.64,-223.93 841.22,-228.16"/>
</g>
<!-- option::some -->
<g id="node24" class="node">
<title>option::some</title>
<ellipse fill="none" stroke="black" cx="781" cy="-200" rx="29.8" ry="18"/>
<text text-anchor="middle" x="781" y="-196.3" font-family="Times,serif" font-size="14.00">some</text>
</g>
<!-- simple_map::find&#45;&gt;option::some -->
<g id="edge32" class="edge">
<title>simple_map::find&#45;&gt;option::some</title>
<path fill="none" stroke="black" d="M787.3,-264.82C786.29,-254.58 784.98,-241.33 783.82,-229.55"/>
<polygon fill="black" stroke="black" points="787.34,-229.55 782.87,-219.94 780.37,-230.23 787.34,-229.55"/>
</g>
<!-- comparator::compare -->
<g id="node25" class="node">
<title>comparator::compare</title>
<ellipse fill="none" stroke="black" cx="1103" cy="-200" rx="41.69" ry="18"/>
<text text-anchor="middle" x="1103" y="-196.3" font-family="Times,serif" font-size="14.00">compare</text>
</g>
<!-- simple_map::find&#45;&gt;comparator::compare -->
<g id="edge33" class="edge">
<title>simple_map::find&#45;&gt;comparator::compare</title>
<path fill="none" stroke="black" d="M815.48,-278.04C850.87,-272.82 915.57,-263.54 971,-257 988.96,-254.88 1035.53,-256.49 1052,-249 1063.74,-243.66 1074.51,-234.5 1083.1,-225.61"/>
<polygon fill="black" stroke="black" points="1085.49,-228.18 1089.6,-218.42 1080.3,-223.48 1085.49,-228.18"/>
</g>
<!-- comparator::is_smaller_than -->
<g id="node26" class="node">
<title>comparator::is_smaller_than</title>
<ellipse fill="none" stroke="black" cx="976" cy="-200" rx="66.89" ry="18"/>
<text text-anchor="middle" x="976" y="-196.3" font-family="Times,serif" font-size="14.00">is_smaller_than</text>
</g>
<!-- simple_map::find&#45;&gt;comparator::is_smaller_than -->
<g id="edge34" class="edge">
<title>simple_map::find&#45;&gt;comparator::is_smaller_than</title>
<path fill="none" stroke="black" d="M814.53,-276.12C836.83,-270.53 869.8,-261.19 897,-249 912.79,-241.92 929.3,-232.29 943.11,-223.51"/>
<polygon fill="black" stroke="black" points="944.9,-226.53 951.38,-218.15 941.08,-220.66 944.9,-226.53"/>
</g>
<!-- option::is_none&#45;&gt;vector::is_empty -->
<g id="edge35" class="edge">
<title>option::is_none&#45;&gt;vector::is_empty</title>
<path fill="none" stroke="black" d="M693.11,-181.76C690.01,-153.51 683.82,-97.11 680.08,-63.04"/>
<polygon fill="black" stroke="black" points="683.6,-63.07 679.03,-53.51 676.64,-63.84 683.6,-63.07"/>
</g>
<!-- vector::singleton -->
<g id="node27" class="node">
<title>vector::singleton</title>
<ellipse fill="none" stroke="black" cx="781" cy="-34" rx="42.79" ry="18"/>
<text text-anchor="middle" x="781" y="-30.3" font-family="Times,serif" font-size="14.00">singleton</text>
</g>
<!-- option::some&#45;&gt;vector::singleton -->
<g id="edge36" class="edge">
<title>option::some&#45;&gt;vector::singleton</title>
<path fill="none" stroke="black" d="M781,-181.76C781,-153.63 781,-97.6 781,-63.49"/>
<polygon fill="black" stroke="black" points="784.5,-63.52 781,-53.52 777.5,-63.52 784.5,-63.52"/>
</g>
<!-- comparator::compare&#45;&gt;bcs::to_bytes -->
<g id="edge37" class="edge">
<title>comparator::compare&#45;&gt;bcs::to_bytes</title>
<path fill="none" stroke="black" d="M1127.86,-185.2C1137.26,-179.63 1147.88,-172.89 1157,-166 1166.71,-158.67 1176.68,-149.83 1185.27,-141.74"/>
<polygon fill="black" stroke="black" points="1187.45,-144.5 1192.24,-135.04 1182.6,-139.45 1187.45,-144.5"/>
</g>
<!-- comparator::compare_u8_vector -->
<g id="node28" class="node">
<title>comparator::compare_u8_vector</title>
<ellipse fill="none" stroke="black" cx="1064" cy="-117" rx="81.49" ry="18"/>
<text text-anchor="middle" x="1064" y="-113.3" font-family="Times,serif" font-size="14.00">compare_u8_vector</text>
</g>
<!-- comparator::compare&#45;&gt;comparator::compare_u8_vector -->
<g id="edge38" class="edge">
<title>comparator::compare&#45;&gt;comparator::compare_u8_vector</title>
<path fill="none" stroke="black" d="M1094.92,-182.22C1089.81,-171.61 1083.09,-157.65 1077.22,-145.45"/>
<polygon fill="black" stroke="black" points="1080.49,-144.18 1073,-136.68 1074.18,-147.21 1080.49,-144.18"/>
</g>
</g>
</svg>
