<?xml version="1.0" encoding="UTF-8" standalone="no"?>
<!DOCTYPE svg PUBLIC "-//W3C//DTD SVG 1.1//EN"
 "http://www.w3.org/Graphics/SVG/1.1/DTD/svg11.dtd">
<!-- Generated by graphviz version 7.0.0 (20221023.0053)
 -->
<!-- Title: G Pages: 1 -->
<svg width="536pt" height="371pt"
 viewBox="0.00 0.00 535.64 371.00" xmlns="http://www.w3.org/2000/svg" xmlns:xlink="http://www.w3.org/1999/xlink">
<g id="graph0" class="graph" transform="scale(1 1) rotate(0) translate(4 367)">
<title>G</title>
<polygon fill="white" stroke="none" points="-4,4 -4,-367 531.64,-367 531.64,4 -4,4"/>
<g id="clust1" class="cluster">
<title>cluster_aptos_governance</title>
<polygon fill="none" stroke="black" points="8,-208 8,-355 444,-355 444,-208 8,-208"/>
<text text-anchor="middle" x="226" y="-339.8" font-family="Times,serif" font-size="14.00">aptos_governance</text>
</g>
<!-- can_be_resolved_early -->
<g id="node1" class="node">
<title>can_be_resolved_early</title>
<ellipse fill="none" stroke="black" cx="436" cy="-18" rx="91.78" ry="18"/>
<text text-anchor="middle" x="436" y="-14.3" font-family="Times,serif" font-size="14.00">can_be_resolved_early</text>
</g>
<!-- is_voting_closed -->
<g id="node2" class="node">
<title>is_voting_closed</title>
<ellipse fill="none" stroke="black" cx="387" cy="-90" rx="70.39" ry="18"/>
<text text-anchor="middle" x="387" y="-86.3" font-family="Times,serif" font-size="14.00">is_voting_closed</text>
</g>
<!-- is_voting_closed&#45;&gt;can_be_resolved_early -->
<g id="edge1" class="edge">
<title>is_voting_closed&#45;&gt;can_be_resolved_early</title>
<path fill="none" stroke="black" d="M398.86,-72.05C404.44,-64.09 411.21,-54.41 417.44,-45.51"/>
<polygon fill="black" stroke="black" points="420.17,-47.71 423.04,-37.52 414.44,-43.7 420.17,-47.71"/>
</g>
<!-- resolve -->
<g id="node3" class="node">
<title>resolve</title>
<ellipse fill="none" stroke="black" cx="488" cy="-234" rx="36.29" ry="18"/>
<text text-anchor="middle" x="488" y="-230.3" font-family="Times,serif" font-size="14.00">resolve</text>
</g>
<!-- resolve&#45;&gt;can_be_resolved_early -->
<g id="edge2" class="edge">
<title>resolve&#45;&gt;can_be_resolved_early</title>
<path fill="none" stroke="black" d="M487.76,-215.59C486.87,-185.53 482.96,-122.25 466,-72 462.96,-62.98 458.35,-53.76 453.65,-45.58"/>
<polygon fill="black" stroke="black" points="456.72,-43.91 448.54,-37.18 450.74,-47.54 456.72,-43.91"/>
</g>
<!-- get_proposal_state -->
<g id="node4" class="node">
<title>get_proposal_state</title>
<ellipse fill="none" stroke="black" cx="383" cy="-162" rx="76.89" ry="18"/>
<text text-anchor="middle" x="383" y="-158.3" font-family="Times,serif" font-size="14.00">get_proposal_state</text>
</g>
<!-- resolve&#45;&gt;get_proposal_state -->
<g id="edge5" class="edge">
<title>resolve&#45;&gt;get_proposal_state</title>
<path fill="none" stroke="black" d="M467,-219C452.7,-209.46 433.43,-196.62 416.96,-185.64"/>
<polygon fill="black" stroke="black" points="419.17,-182.91 408.91,-180.27 415.29,-188.73 419.17,-182.91"/>
</g>
<!-- get_proposal_state&#45;&gt;is_voting_closed -->
<g id="edge3" class="edge">
<title>get_proposal_state&#45;&gt;is_voting_closed</title>
<path fill="none" stroke="black" d="M383.99,-143.7C384.41,-136.41 384.9,-127.73 385.37,-119.54"/>
<polygon fill="black" stroke="black" points="388.86,-119.8 385.94,-109.62 381.87,-119.4 388.86,-119.8"/>
</g>
<!-- aptos_governance::resolve -->
<g id="node5" class="node">
<title>aptos_governance::resolve</title>
<ellipse fill="none" stroke="black" cx="400" cy="-306" rx="36.29" ry="18"/>
<text text-anchor="middle" x="400" y="-302.3" font-family="Times,serif" font-size="14.00">resolve</text>
</g>
<!-- aptos_governance::resolve&#45;&gt;resolve -->
<g id="edge4" class="edge">
<title>aptos_governance::resolve&#45;&gt;resolve</title>
<path fill="none" stroke="black" d="M418.66,-290.15C430.8,-280.5 446.83,-267.75 460.42,-256.94"/>
<polygon fill="black" stroke="black" points="462.53,-259.73 468.18,-250.77 458.17,-254.25 462.53,-259.73"/>
</g>
<!-- aptos_governance::vote -->
<g id="node6" class="node">
<title>aptos_governance::vote</title>
<ellipse fill="none" stroke="black" cx="319" cy="-306" rx="27" ry="18"/>
<text text-anchor="middle" x="319" y="-302.3" font-family="Times,serif" font-size="14.00">vote</text>
</g>
<!-- aptos_governance::vote&#45;&gt;get_proposal_state -->
<g id="edge6" class="edge">
<title>aptos_governance::vote&#45;&gt;get_proposal_state</title>
<path fill="none" stroke="black" d="M334.18,-291.13C344.15,-281.18 356.65,-266.95 364,-252 373.34,-233.02 378.1,-209.55 380.53,-191.47"/>
<polygon fill="black" stroke="black" points="383.98,-192.05 381.66,-181.72 377.03,-191.25 383.98,-192.05"/>
</g>
<!-- aptos_governance::add_approved_script_hash -->
<g id="node7" class="node">
<title>aptos_governance::add_approved_script_hash</title>
<ellipse fill="none" stroke="black" cx="250" cy="-234" rx="104.78" ry="18"/>
<text text-anchor="middle" x="250" y="-230.3" font-family="Times,serif" font-size="14.00">add_approved_script_hash</text>
</g>
<!-- aptos_governance::vote&#45;&gt;aptos_governance::add_approved_script_hash -->
<g id="edge8" class="edge">
<title>aptos_governance::vote&#45;&gt;aptos_governance::add_approved_script_hash</title>
<path fill="none" stroke="black" d="M304.7,-290.5C296.13,-281.8 284.99,-270.49 275,-260.36"/>
<polygon fill="black" stroke="black" points="277.53,-257.95 268.02,-253.28 272.55,-262.86 277.53,-257.95"/>
</g>
<!-- aptos_governance::add_approved_script_hash&#45;&gt;get_proposal_state -->
<g id="edge7" class="edge">
<title>aptos_governance::add_approved_script_hash&#45;&gt;get_proposal_state</title>
<path fill="none" stroke="black" d="M281.52,-216.41C299.75,-206.82 322.89,-194.64 342.46,-184.34"/>
<polygon fill="black" stroke="black" points="344.06,-187.45 351.28,-179.69 340.8,-181.25 344.06,-187.45"/>
</g>
<!-- aptos_governance::add_approved_script_hash_script -->
<g id="node8" class="node">
<title>aptos_governance::add_approved_script_hash_script</title>
<ellipse fill="none" stroke="black" cx="145" cy="-306" rx="128.88" ry="18"/>
<text text-anchor="middle" x="145" y="-302.3" font-family="Times,serif" font-size="14.00">add_approved_script_hash_script</text>
</g>
<!-- aptos_governance::add_approved_script_hash_script&#45;&gt;aptos_governance::add_approved_script_hash -->
<g id="edge9" class="edge">
<title>aptos_governance::add_approved_script_hash_script&#45;&gt;aptos_governance::add_approved_script_hash</title>
<path fill="none" stroke="black" d="M170.69,-287.88C184.13,-278.91 200.79,-267.81 215.36,-258.09"/>
<polygon fill="black" stroke="black" points="216.94,-261.25 223.32,-252.79 213.06,-255.42 216.94,-261.25"/>
</g>
</g>
</svg>
