<?xml version="1.0" encoding="UTF-8" standalone="no"?>
<!DOCTYPE svg PUBLIC "-//W3C//DTD SVG 1.1//EN"
 "http://www.w3.org/Graphics/SVG/1.1/DTD/svg11.dtd">
<!-- Generated by graphviz version 7.0.0 (20221023.0053)
 -->
<!-- Title: G Pages: 1 -->
<svg width="1821pt" height="550pt"
 viewBox="0.00 0.00 1821.00 550.00" xmlns="http://www.w3.org/2000/svg" xmlns:xlink="http://www.w3.org/1999/xlink">
<g id="graph0" class="graph" transform="scale(1 1) rotate(0) translate(4 546)">
<title>G</title>
<polygon fill="white" stroke="none" points="-4,4 -4,-546 1817,-546 1817,4 -4,4"/>
<g id="clust1" class="cluster">
<title>cluster_option</title>
<polygon fill="none" stroke="black" points="866,-91 866,-249 1193,-249 1193,-91 866,-91"/>
<text text-anchor="middle" x="1029.5" y="-233.8" font-family="Times,serif" font-size="14.00">option</text>
</g>
<g id="clust2" class="cluster">
<title>cluster_string</title>
<polygon fill="none" stroke="black" points="469,-340 469,-498 647,-498 647,-340 469,-340"/>
<text text-anchor="middle" x="558" y="-482.8" font-family="Times,serif" font-size="14.00">string</text>
</g>
<g id="clust3" class="cluster">
<title>cluster_error</title>
<polygon fill="none" stroke="black" points="8,-174 8,-332 300,-332 300,-174 8,-174"/>
<text text-anchor="middle" x="154" y="-316.8" font-family="Times,serif" font-size="14.00">error</text>
</g>
<g id="clust4" class="cluster">
<title>cluster_table</title>
<polygon fill="none" stroke="black" points="1275,-174 1275,-332 1561,-332 1561,-174 1275,-174"/>
<text text-anchor="middle" x="1418" y="-316.8" font-family="Times,serif" font-size="14.00">table</text>
</g>
<g id="clust5" class="cluster">
<title>cluster_from_bcs</title>
<polygon fill="none" stroke="black" points="763,-340 763,-498 881,-498 881,-340 763,-340"/>
<text text-anchor="middle" x="822" y="-482.8" font-family="Times,serif" font-size="14.00">from_bcs</text>
</g>
<g id="clust6" class="cluster">
<title>cluster_event</title>
<polygon fill="none" stroke="black" points="308,-91 308,-249 494,-249 494,-91 308,-91"/>
<text text-anchor="middle" x="401" y="-233.8" font-family="Times,serif" font-size="14.00">event</text>
</g>
<g id="clust8" class="cluster">
<title>cluster_timestamp</title>
<polygon fill="none" stroke="black" points="1631,-91 1631,-249 1805,-249 1805,-91 1631,-91"/>
<text text-anchor="middle" x="1718" y="-233.8" font-family="Times,serif" font-size="14.00">timestamp</text>
</g>
<g id="clust9" class="cluster">
<title>cluster_simple_map</title>
<polygon fill="none" stroke="black" points="889,-257 889,-415 977,-415 977,-257 889,-257"/>
<text text-anchor="middle" x="933" y="-399.8" font-family="Times,serif" font-size="14.00">simple_map</text>
</g>
<g id="clust10" class="cluster">
<title>cluster_bcs</title>
<polygon fill="none" stroke="black" points="502,-91 502,-166 598,-166 598,-91 502,-91"/>
<text text-anchor="middle" x="550" y="-150.8" font-family="Times,serif" font-size="14.00">bcs</text>
</g>
<g id="clust11" class="cluster">
<title>cluster_vector</title>
<polygon fill="none" stroke="black" points="974,-8 974,-83 1181,-83 1181,-8 974,-8"/>
<text text-anchor="middle" x="1077.5" y="-67.8" font-family="Times,serif" font-size="14.00">vector</text>
</g>
<g id="clust12" class="cluster">
<title>cluster_comparator</title>
<polygon fill="none" stroke="black" points="606,-91 606,-249 858,-249 858,-91 606,-91"/>
<text text-anchor="middle" x="732" y="-233.8" font-family="Times,serif" font-size="14.00">comparator</text>
</g>
<g id="clust7" class="cluster">
<title>cluster_transaction_context</title>
<polygon fill="none" stroke="black" points="1008,-423 1008,-498 1156,-498 1156,-423 1008,-423"/>
<text text-anchor="middle" x="1082" y="-482.8" font-family="Times,serif" font-size="14.00">transaction_context</text>
</g>
<!-- resolve -->
<g id="node1" class="node">
<title>resolve</title>
<ellipse fill="none" stroke="black" cx="968" cy="-524" rx="36.29" ry="18"/>
<text text-anchor="middle" x="968" y="-520.3" font-family="Times,serif" font-size="14.00">resolve</text>
</g>
<!-- option::extract -->
<g id="node2" class="node">
<title>option::extract</title>
<ellipse fill="none" stroke="black" cx="1060" cy="-200" rx="34.39" ry="18"/>
<text text-anchor="middle" x="1060" y="-196.3" font-family="Times,serif" font-size="14.00">extract</text>
</g>
<!-- resolve&#45;&gt;option::extract -->
<g id="edge1" class="edge">
<title>resolve&#45;&gt;option::extract</title>
<path fill="none" stroke="black" d="M972.95,-505.69C988.02,-452.93 1033.48,-293.83 1052.01,-228.97"/>
<polygon fill="black" stroke="black" points="1055.34,-230.04 1054.73,-219.46 1048.61,-228.12 1055.34,-230.04"/>
</g>
<!-- string::utf8 -->
<g id="node3" class="node">
<title>string::utf8</title>
<ellipse fill="none" stroke="black" cx="585" cy="-449" rx="27" ry="18"/>
<text text-anchor="middle" x="585" y="-445.3" font-family="Times,serif" font-size="14.00">utf8</text>
</g>
<!-- resolve&#45;&gt;string::utf8 -->
<g id="edge2" class="edge">
<title>resolve&#45;&gt;string::utf8</title>
<path fill="none" stroke="black" d="M931.44,-522.52C859.74,-521.17 703.3,-516.19 653,-498 636.86,-492.17 621.07,-481.42 608.77,-471.57"/>
<polygon fill="black" stroke="black" points="611.17,-469.02 601.26,-465.28 606.68,-474.38 611.17,-469.02"/>
</g>
<!-- error::invalid_argument -->
<g id="node4" class="node">
<title>error::invalid_argument</title>
<ellipse fill="none" stroke="black" cx="219" cy="-283" rx="73.39" ry="18"/>
<text text-anchor="middle" x="219" y="-279.3" font-family="Times,serif" font-size="14.00">invalid_argument</text>
</g>
<!-- resolve&#45;&gt;error::invalid_argument -->
<g id="edge3" class="edge">
<title>resolve&#45;&gt;error::invalid_argument</title>
<path fill="none" stroke="black" d="M931.58,-521.39C868.53,-518.28 744.28,-510.61 729,-498 672.4,-451.28 737.22,-387.18 681,-340 625.6,-293.5 421.72,-284.65 304.14,-283.53"/>
<polygon fill="black" stroke="black" points="304.23,-280.03 294.2,-283.46 304.18,-287.03 304.23,-280.03"/>
</g>
<!-- error::invalid_state -->
<g id="node5" class="node">
<title>error::invalid_state</title>
<ellipse fill="none" stroke="black" cx="72" cy="-283" rx="55.79" ry="18"/>
<text text-anchor="middle" x="72" y="-279.3" font-family="Times,serif" font-size="14.00">invalid_state</text>
</g>
<!-- resolve&#45;&gt;error::invalid_state -->
<g id="edge4" class="edge">
<title>resolve&#45;&gt;error::invalid_state</title>
<path fill="none" stroke="black" d="M931.55,-521.82C862.43,-519.27 717.6,-512.28 700,-498 642.9,-451.68 709.85,-384.07 651,-340 628.14,-322.88 164.06,-341.14 137,-332 122.21,-327 108,-317.28 96.66,-307.89"/>
<polygon fill="black" stroke="black" points="99.2,-305.46 89.36,-301.52 94.59,-310.73 99.2,-305.46"/>
</g>
<!-- table::borrow_mut -->
<g id="node6" class="node">
<title>table::borrow_mut</title>
<ellipse fill="none" stroke="black" cx="1479" cy="-283" rx="54.69" ry="18"/>
<text text-anchor="middle" x="1479" y="-279.3" font-family="Times,serif" font-size="14.00">borrow_mut</text>
</g>
<!-- resolve&#45;&gt;table::borrow_mut -->
<g id="edge5" class="edge">
<title>resolve&#45;&gt;table::borrow_mut</title>
<path fill="none" stroke="black" d="M1004.47,-522.11C1097,-519.65 1335.96,-512 1369,-498 1419.4,-476.64 1434.35,-463.36 1460,-415 1477.07,-382.81 1480.29,-340.25 1480.26,-312.51"/>
<polygon fill="black" stroke="black" points="1483.76,-312.7 1480.09,-302.76 1476.76,-312.82 1483.76,-312.7"/>
</g>
<!-- from_bcs::to_u64 -->
<g id="node7" class="node">
<title>from_bcs::to_u64</title>
<ellipse fill="none" stroke="black" cx="830" cy="-449" rx="35.19" ry="18"/>
<text text-anchor="middle" x="830" y="-445.3" font-family="Times,serif" font-size="14.00">to_u64</text>
</g>
<!-- resolve&#45;&gt;from_bcs::to_u64 -->
<g id="edge6" class="edge">
<title>resolve&#45;&gt;from_bcs::to_u64</title>
<path fill="none" stroke="black" d="M943.96,-510.28C921.8,-498.56 888.67,-481.04 863.84,-467.9"/>
<polygon fill="black" stroke="black" points="865.58,-464.86 855.1,-463.28 862.3,-471.05 865.58,-464.86"/>
</g>
<!-- event::emit_event -->
<g id="node8" class="node">
<title>event::emit_event</title>
<ellipse fill="none" stroke="black" cx="436" cy="-200" rx="50.09" ry="18"/>
<text text-anchor="middle" x="436" y="-196.3" font-family="Times,serif" font-size="14.00">emit_event</text>
</g>
<!-- resolve&#45;&gt;event::emit_event -->
<g id="edge7" class="edge">
<title>resolve&#45;&gt;event::emit_event</title>
<path fill="none" stroke="black" d="M931.27,-523.23C878.44,-522.81 784.53,-519.02 759,-498 702.03,-451.1 755.83,-396.19 708,-340 649.42,-271.2 548.32,-232.4 487.25,-214.15"/>
<polygon fill="black" stroke="black" points="488.37,-210.83 477.79,-211.4 486.42,-217.55 488.37,-210.83"/>
</g>
<!-- transaction_context::get_script_hash -->
<g id="node9" class="node">
<title>transaction_context::get_script_hash</title>
<ellipse fill="none" stroke="black" cx="1082" cy="-449" rx="65.79" ry="18"/>
<text text-anchor="middle" x="1082" y="-445.3" font-family="Times,serif" font-size="14.00">get_script_hash</text>
</g>
<!-- resolve&#45;&gt;transaction_context::get_script_hash -->
<g id="edge8" class="edge">
<title>resolve&#45;&gt;transaction_context::get_script_hash</title>
<path fill="none" stroke="black" d="M989.71,-509.1C1006.1,-498.6 1028.92,-483.99 1047.76,-471.92"/>
<polygon fill="black" stroke="black" points="1049.39,-475.04 1055.92,-466.7 1045.62,-469.14 1049.39,-475.04"/>
</g>
<!-- timestamp::now_seconds -->
<g id="node10" class="node">
<title>timestamp::now_seconds</title>
<ellipse fill="none" stroke="black" cx="1718" cy="-200" rx="57.69" ry="18"/>
<text text-anchor="middle" x="1718" y="-196.3" font-family="Times,serif" font-size="14.00">now_seconds</text>
</g>
<!-- resolve&#45;&gt;timestamp::now_seconds -->
<g id="edge9" class="edge">
<title>resolve&#45;&gt;timestamp::now_seconds</title>
<path fill="none" stroke="black" d="M1004.43,-522.91C1098.18,-522.36 1345.88,-518.93 1425,-498 1584.87,-455.72 1670.98,-472.62 1758,-332 1775.54,-303.66 1768.17,-288.74 1758,-257 1754.48,-246.02 1747.93,-235.36 1741.14,-226.35"/>
<polygon fill="black" stroke="black" points="1744.04,-224.36 1735.04,-218.77 1738.59,-228.76 1744.04,-224.36"/>
</g>
<!-- simple_map::borrow -->
<g id="node11" class="node">
<title>simple_map::borrow</title>
<ellipse fill="none" stroke="black" cx="933" cy="-366" rx="36.29" ry="18"/>
<text text-anchor="middle" x="933" y="-362.3" font-family="Times,serif" font-size="14.00">borrow</text>
</g>
<!-- resolve&#45;&gt;simple_map::borrow -->
<g id="edge10" class="edge">
<title>resolve&#45;&gt;simple_map::borrow</title>
<path fill="none" stroke="black" d="M964.12,-505.71C958.13,-479 946.56,-427.45 939.34,-395.27"/>
<polygon fill="black" stroke="black" points="942.83,-394.84 937.23,-385.85 936,-396.37 942.83,-394.84"/>
</g>
<!-- can_be_resolved_early -->
<g id="node12" class="node">
<title>can_be_resolved_early</title>
<ellipse fill="none" stroke="black" cx="1175" cy="-283" rx="91.78" ry="18"/>
<text text-anchor="middle" x="1175" y="-279.3" font-family="Times,serif" font-size="14.00">can_be_resolved_early</text>
</g>
<!-- resolve&#45;&gt;can_be_resolved_early -->
<g id="edge11" class="edge">
<title>resolve&#45;&gt;can_be_resolved_early</title>
<path fill="none" stroke="black" d="M1004.48,-523.52C1054.2,-523.38 1139.43,-519.84 1160,-498 1207.36,-447.74 1193.98,-358.01 1183.01,-312.36"/>
<polygon fill="black" stroke="black" points="1186.41,-311.53 1180.54,-302.71 1179.62,-313.26 1186.41,-311.53"/>
</g>
<!-- get_proposal_state -->
<g id="node13" class="node">
<title>get_proposal_state</title>
<ellipse fill="none" stroke="black" cx="1283" cy="-449" rx="76.89" ry="18"/>
<text text-anchor="middle" x="1283" y="-445.3" font-family="Times,serif" font-size="14.00">get_proposal_state</text>
</g>
<!-- resolve&#45;&gt;get_proposal_state -->
<g id="edge12" class="edge">
<title>resolve&#45;&gt;get_proposal_state</title>
<path fill="none" stroke="black" d="M1004.57,-522.92C1049.25,-521.9 1126.71,-517.18 1190,-498 1210.02,-491.93 1230.83,-481.62 1247.69,-472.1"/>
<polygon fill="black" stroke="black" points="1249.43,-475.14 1256.32,-467.08 1245.91,-469.08 1249.43,-475.14"/>
</g>
<!-- option::is_some -->
<g id="node14" class="node">
<title>option::is_some</title>
<ellipse fill="none" stroke="black" cx="1145" cy="-117" rx="40.09" ry="18"/>
<text text-anchor="middle" x="1145" y="-113.3" font-family="Times,serif" font-size="14.00">is_some</text>
</g>
<!-- option::extract&#45;&gt;option::is_some -->
<g id="edge13" class="edge">
<title>option::extract&#45;&gt;option::is_some</title>
<path fill="none" stroke="black" d="M1075.99,-183.76C1088.53,-171.81 1106.2,-154.97 1120.52,-141.32"/>
<polygon fill="black" stroke="black" points="1122.58,-144.2 1127.41,-134.76 1117.75,-139.13 1122.58,-144.2"/>
</g>
<!-- string::internal_check_utf8 -->
<g id="node15" class="node">
<title>string::internal_check_utf8</title>
<ellipse fill="none" stroke="black" cx="558" cy="-366" rx="81.49" ry="18"/>
<text text-anchor="middle" x="558" y="-362.3" font-family="Times,serif" font-size="14.00">internal_check_utf8</text>
</g>
<!-- string::utf8&#45;&gt;string::internal_check_utf8 -->
<g id="edge14" class="edge">
<title>string::utf8&#45;&gt;string::internal_check_utf8</title>
<path fill="none" stroke="black" d="M579.41,-431.22C575.94,-420.82 571.4,-407.21 567.4,-395.19"/>
<polygon fill="black" stroke="black" points="570.73,-394.14 564.25,-385.76 564.09,-396.35 570.73,-394.14"/>
</g>
<!-- error::canonical -->
<g id="node16" class="node">
<title>error::canonical</title>
<ellipse fill="none" stroke="black" cx="145" cy="-200" rx="44.39" ry="18"/>
<text text-anchor="middle" x="145" y="-196.3" font-family="Times,serif" font-size="14.00">canonical</text>
</g>
<!-- error::invalid_argument&#45;&gt;error::canonical -->
<g id="edge15" class="edge">
<title>error::invalid_argument&#45;&gt;error::canonical</title>
<path fill="none" stroke="black" d="M203.67,-265.22C193.21,-253.77 179.19,-238.42 167.48,-225.6"/>
<polygon fill="black" stroke="black" points="170.16,-223.35 160.83,-218.33 164.99,-228.07 170.16,-223.35"/>
</g>
<!-- error::invalid_state&#45;&gt;error::canonical -->
<g id="edge16" class="edge">
<title>error::invalid_state&#45;&gt;error::canonical</title>
<path fill="none" stroke="black" d="M87.13,-265.22C97.44,-253.77 111.27,-238.42 122.83,-225.6"/>
<polygon fill="black" stroke="black" points="125.28,-228.1 129.38,-218.33 120.08,-223.42 125.28,-228.1"/>
</g>
<!-- table::borrow_box_mut -->
<g id="node17" class="node">
<title>table::borrow_box_mut</title>
<ellipse fill="none" stroke="black" cx="1481" cy="-200" rx="72.29" ry="18"/>
<text text-anchor="middle" x="1481" y="-196.3" font-family="Times,serif" font-size="14.00">borrow_box_mut</text>
</g>
<!-- table::borrow_mut&#45;&gt;table::borrow_box_mut -->
<g id="edge17" class="edge">
<title>table::borrow_mut&#45;&gt;table::borrow_box_mut</title>
<path fill="none" stroke="black" d="M1479.42,-264.82C1479.67,-254.69 1480,-241.6 1480.29,-229.92"/>
<polygon fill="black" stroke="black" points="1483.78,-230.03 1480.53,-219.95 1476.79,-229.86 1483.78,-230.03"/>
</g>
<!-- from_bcs::from_bytes -->
<g id="node18" class="node">
<title>from_bcs::from_bytes</title>
<ellipse fill="none" stroke="black" cx="822" cy="-366" rx="51.19" ry="18"/>
<text text-anchor="middle" x="822" y="-362.3" font-family="Times,serif" font-size="14.00">from_bytes</text>
</g>
<!-- from_bcs::to_u64&#45;&gt;from_bcs::from_bytes -->
<g id="edge18" class="edge">
<title>from_bcs::to_u64&#45;&gt;from_bcs::from_bytes</title>
<path fill="none" stroke="black" d="M828.3,-430.82C827.29,-420.58 825.98,-407.33 824.82,-395.55"/>
<polygon fill="black" stroke="black" points="828.34,-395.55 823.87,-385.94 821.37,-396.23 828.34,-395.55"/>
</g>
<!-- bcs::to_bytes -->
<g id="node19" class="node">
<title>bcs::to_bytes</title>
<ellipse fill="none" stroke="black" cx="550" cy="-117" rx="40.09" ry="18"/>
<text text-anchor="middle" x="550" y="-113.3" font-family="Times,serif" font-size="14.00">to_bytes</text>
</g>
<!-- event::emit_event&#45;&gt;bcs::to_bytes -->
<g id="edge19" class="edge">
<title>event::emit_event&#45;&gt;bcs::to_bytes</title>
<path fill="none" stroke="black" d="M465.62,-185.2C476.19,-179.77 487.96,-173.13 498,-166 508.07,-158.85 518.25,-149.92 526.9,-141.7"/>
<polygon fill="black" stroke="black" points="529.18,-144.37 533.89,-134.88 524.29,-139.36 529.18,-144.37"/>
</g>
<!-- event::write_to_event_store -->
<g id="node20" class="node">
<title>event::write_to_event_store</title>
<ellipse fill="none" stroke="black" cx="401" cy="-117" rx="85.29" ry="18"/>
<text text-anchor="middle" x="401" y="-113.3" font-family="Times,serif" font-size="14.00">write_to_event_store</text>
</g>
<!-- event::emit_event&#45;&gt;event::write_to_event_store -->
<g id="edge20" class="edge">
<title>event::emit_event&#45;&gt;event::write_to_event_store</title>
<path fill="none" stroke="black" d="M428.58,-181.82C424.03,-171.3 418.11,-157.59 412.91,-145.57"/>
<polygon fill="black" stroke="black" points="416.19,-144.33 409.01,-136.54 409.77,-147.11 416.19,-144.33"/>
</g>
<!-- timestamp::now_microseconds -->
<g id="node21" class="node">
<title>timestamp::now_microseconds</title>
<ellipse fill="none" stroke="black" cx="1718" cy="-117" rx="79.09" ry="18"/>
<text text-anchor="middle" x="1718" y="-113.3" font-family="Times,serif" font-size="14.00">now_microseconds</text>
</g>
<!-- timestamp::now_seconds&#45;&gt;timestamp::now_microseconds -->
<g id="edge21" class="edge">
<title>timestamp::now_seconds&#45;&gt;timestamp::now_microseconds</title>
<path fill="none" stroke="black" d="M1718,-181.82C1718,-171.69 1718,-158.6 1718,-146.92"/>
<polygon fill="black" stroke="black" points="1721.5,-146.95 1718,-136.95 1714.5,-146.95 1721.5,-146.95"/>
</g>
<!-- simple_map::borrow&#45;&gt;option::extract -->
<g id="edge22" class="edge">
<title>simple_map::borrow&#45;&gt;option::extract</title>
<path fill="none" stroke="black" d="M947.01,-348.96C951.36,-343.7 956.05,-337.73 960,-332 981.8,-300.36 975.81,-284.15 1003,-257 1008.07,-251.94 1011.43,-253.5 1017,-249 1025.47,-242.15 1033.72,-233.57 1040.69,-225.57"/>
<polygon fill="black" stroke="black" points="1043.24,-227.97 1046.98,-218.05 1037.88,-223.47 1043.24,-227.97"/>
</g>
<!-- simple_map::borrow&#45;&gt;error::invalid_argument -->
<g id="edge24" class="edge">
<title>simple_map::borrow&#45;&gt;error::invalid_argument</title>
<path fill="none" stroke="black" d="M911.3,-351.38C903.32,-347 894.02,-342.61 885,-340 777.9,-308.97 456.24,-292.97 302.54,-286.92"/>
<polygon fill="black" stroke="black" points="302.97,-283.43 292.84,-286.54 302.7,-290.43 302.97,-283.43"/>
</g>
<!-- simple_map::borrow&#45;&gt;option::is_some -->
<g id="edge23" class="edge">
<title>simple_map::borrow&#45;&gt;option::is_some</title>
<path fill="none" stroke="black" d="M958.96,-353.15C970.43,-347.43 983.82,-340.05 995,-332 1034.28,-303.7 1029.66,-276.43 1074,-257 1086.24,-251.64 1184.87,-258.76 1194,-249 1216.77,-224.66 1205.72,-205.2 1194,-174 1189.37,-161.69 1180.67,-150.31 1171.88,-141.07"/>
<polygon fill="black" stroke="black" points="1174.55,-138.79 1164.96,-134.28 1169.64,-143.78 1174.55,-138.79"/>
</g>
<!-- simple_map::find -->
<g id="node22" class="node">
<title>simple_map::find</title>
<ellipse fill="none" stroke="black" cx="924" cy="-283" rx="27" ry="18"/>
<text text-anchor="middle" x="924" y="-279.3" font-family="Times,serif" font-size="14.00">find</text>
</g>
<!-- simple_map::borrow&#45;&gt;simple_map::find -->
<g id="edge25" class="edge">
<title>simple_map::borrow&#45;&gt;simple_map::find</title>
<path fill="none" stroke="black" d="M931.09,-347.82C929.95,-337.58 928.48,-324.33 927.17,-312.55"/>
<polygon fill="black" stroke="black" points="930.69,-312.49 926.1,-302.94 923.73,-313.26 930.69,-312.49"/>
</g>
<!-- can_be_resolved_early&#45;&gt;option::is_some -->
<g id="edge27" class="edge">
<title>can_be_resolved_early&#45;&gt;option::is_some</title>
<path fill="none" stroke="black" d="M1210.96,-266.01C1217.4,-261.46 1223.24,-255.84 1227,-249 1243.06,-219.79 1242.56,-203.48 1227,-174 1217.87,-156.7 1200.72,-143.74 1184.46,-134.67"/>
<polygon fill="black" stroke="black" points="1186.37,-131.71 1175.88,-130.21 1183.14,-137.92 1186.37,-131.71"/>
</g>
<!-- option::borrow -->
<g id="node23" class="node">
<title>option::borrow</title>
<ellipse fill="none" stroke="black" cx="1149" cy="-200" rx="36.29" ry="18"/>
<text text-anchor="middle" x="1149" y="-196.3" font-family="Times,serif" font-size="14.00">borrow</text>
</g>
<!-- can_be_resolved_early&#45;&gt;option::borrow -->
<g id="edge26" class="edge">
<title>can_be_resolved_early&#45;&gt;option::borrow</title>
<path fill="none" stroke="black" d="M1169.49,-264.82C1166.14,-254.41 1161.8,-240.87 1157.97,-228.94"/>
<polygon fill="black" stroke="black" points="1161.36,-228.05 1154.97,-219.59 1154.69,-230.19 1161.36,-228.05"/>
</g>
<!-- table::borrow -->
<g id="node24" class="node">
<title>table::borrow</title>
<ellipse fill="none" stroke="black" cx="1329" cy="-283" rx="36.29" ry="18"/>
<text text-anchor="middle" x="1329" y="-279.3" font-family="Times,serif" font-size="14.00">borrow</text>
</g>
<!-- get_proposal_state&#45;&gt;table::borrow -->
<g id="edge28" class="edge">
<title>get_proposal_state&#45;&gt;table::borrow</title>
<path fill="none" stroke="black" d="M1284.55,-430.81C1286.83,-409.21 1291.96,-371.17 1302,-340 1305.19,-330.11 1309.8,-319.73 1314.31,-310.64"/>
<polygon fill="black" stroke="black" points="1317.29,-312.49 1318.78,-302 1311.07,-309.27 1317.29,-312.49"/>
</g>
<!-- is_voting_closed -->
<g id="node25" class="node">
<title>is_voting_closed</title>
<ellipse fill="none" stroke="black" cx="1381" cy="-366" rx="70.39" ry="18"/>
<text text-anchor="middle" x="1381" y="-362.3" font-family="Times,serif" font-size="14.00">is_voting_closed</text>
</g>
<!-- get_proposal_state&#45;&gt;is_voting_closed -->
<g id="edge29" class="edge">
<title>get_proposal_state&#45;&gt;is_voting_closed</title>
<path fill="none" stroke="black" d="M1303.31,-431.22C1317.46,-419.52 1336.54,-403.74 1352.26,-390.76"/>
<polygon fill="black" stroke="black" points="1354.41,-393.52 1359.89,-384.45 1349.95,-388.12 1354.41,-393.52"/>
</g>
<!-- vector::is_empty -->
<g id="node26" class="node">
<title>vector::is_empty</title>
<ellipse fill="none" stroke="black" cx="1129" cy="-34" rx="43.59" ry="18"/>
<text text-anchor="middle" x="1129" y="-30.3" font-family="Times,serif" font-size="14.00">is_empty</text>
</g>
<!-- option::is_some&#45;&gt;vector::is_empty -->
<g id="edge30" class="edge">
<title>option::is_some&#45;&gt;vector::is_empty</title>
<path fill="none" stroke="black" d="M1141.61,-98.82C1139.58,-88.58 1136.97,-75.33 1134.64,-63.55"/>
<polygon fill="black" stroke="black" points="1138.11,-63.05 1132.74,-53.92 1131.24,-64.41 1138.11,-63.05"/>
</g>
<!-- option::none -->
<g id="node27" class="node">
<title>option::none</title>
<ellipse fill="none" stroke="black" cx="902" cy="-200" rx="27.9" ry="18"/>
<text text-anchor="middle" x="902" y="-196.3" font-family="Times,serif" font-size="14.00">none</text>
</g>
<!-- simple_map::find&#45;&gt;option::none -->
<g id="edge31" class="edge">
<title>simple_map::find&#45;&gt;option::none</title>
<path fill="none" stroke="black" d="M919.33,-264.82C916.51,-254.41 912.83,-240.87 909.59,-228.94"/>
<polygon fill="black" stroke="black" points="913.05,-228.35 907.06,-219.61 906.3,-230.18 913.05,-228.35"/>
</g>
<!-- option::some -->
<g id="node28" class="node">
<title>option::some</title>
<ellipse fill="none" stroke="black" cx="978" cy="-200" rx="29.8" ry="18"/>
<text text-anchor="middle" x="978" y="-196.3" font-family="Times,serif" font-size="14.00">some</text>
</g>
<!-- simple_map::find&#45;&gt;option::some -->
<g id="edge32" class="edge">
<title>simple_map::find&#45;&gt;option::some</title>
<path fill="none" stroke="black" d="M934.67,-266C942.16,-254.75 952.35,-239.48 960.96,-226.56"/>
<polygon fill="black" stroke="black" points="963.69,-228.77 966.33,-218.51 957.87,-224.89 963.69,-228.77"/>
</g>
<!-- comparator::compare -->
<g id="node29" class="node">
<title>comparator::compare</title>
<ellipse fill="none" stroke="black" cx="656" cy="-200" rx="41.69" ry="18"/>
<text text-anchor="middle" x="656" y="-196.3" font-family="Times,serif" font-size="14.00">compare</text>
</g>
<!-- simple_map::find&#45;&gt;comparator::compare -->
<g id="edge33" class="edge">
<title>simple_map::find&#45;&gt;comparator::compare</title>
<path fill="none" stroke="black" d="M897.55,-278.03C839.91,-269.37 708.07,-249.52 707,-249 695.68,-243.49 685.18,-234.59 676.69,-225.94"/>
<polygon fill="black" stroke="black" points="679.28,-223.6 669.93,-218.62 674.14,-228.35 679.28,-223.6"/>
</g>
<!-- comparator::is_smaller_than -->
<g id="node30" class="node">
<title>comparator::is_smaller_than</title>
<ellipse fill="none" stroke="black" cx="783" cy="-200" rx="66.89" ry="18"/>
<text text-anchor="middle" x="783" y="-196.3" font-family="Times,serif" font-size="14.00">is_smaller_than</text>
</g>
<!-- simple_map::find&#45;&gt;comparator::is_smaller_than -->
<g id="edge34" class="edge">
<title>simple_map::find&#45;&gt;comparator::is_smaller_than</title>
<path fill="none" stroke="black" d="M903.17,-271.29C891.06,-264.97 875.56,-256.72 862,-249 847.41,-240.69 831.55,-231.16 817.9,-222.79"/>
<polygon fill="black" stroke="black" points="820.04,-220 809.69,-217.73 816.36,-225.96 820.04,-220"/>
</g>
<!-- option::borrow&#45;&gt;option::is_some -->
<g id="edge35" class="edge">
<title>option::borrow&#45;&gt;option::is_some</title>
<path fill="none" stroke="black" d="M1148.15,-181.82C1147.65,-171.69 1147,-158.6 1146.43,-146.92"/>
<polygon fill="black" stroke="black" points="1149.92,-146.76 1145.94,-136.94 1142.93,-147.1 1149.92,-146.76"/>
</g>
<!-- table::borrow_box -->
<g id="node31" class="node">
<title>table::borrow_box</title>
<ellipse fill="none" stroke="black" cx="1337" cy="-200" rx="53.89" ry="18"/>
<text text-anchor="middle" x="1337" y="-196.3" font-family="Times,serif" font-size="14.00">borrow_box</text>
</g>
<!-- table::borrow&#45;&gt;table::borrow_box -->
<g id="edge36" class="edge">
<title>table::borrow&#45;&gt;table::borrow_box</title>
<path fill="none" stroke="black" d="M1330.7,-264.82C1331.71,-254.58 1333.02,-241.33 1334.18,-229.55"/>
<polygon fill="black" stroke="black" points="1337.63,-230.23 1335.13,-219.94 1330.66,-229.55 1337.63,-230.23"/>
</g>
<!-- is_voting_closed&#45;&gt;table::borrow_mut -->
<g id="edge37" class="edge">
<title>is_voting_closed&#45;&gt;table::borrow_mut</title>
<path fill="none" stroke="black" d="M1400.83,-348.61C1415.27,-336.67 1435.03,-320.35 1451.06,-307.09"/>
<polygon fill="black" stroke="black" points="1452.89,-310.12 1458.37,-301.06 1448.43,-304.73 1452.89,-310.12"/>
</g>
<!-- is_voting_closed&#45;&gt;can_be_resolved_early -->
<g id="edge38" class="edge">
<title>is_voting_closed&#45;&gt;can_be_resolved_early</title>
<path fill="none" stroke="black" d="M1332.74,-352.47C1313.3,-346.92 1290.83,-339.86 1271,-332 1252.07,-324.49 1231.8,-314.64 1214.79,-305.82"/>
<polygon fill="black" stroke="black" points="1216.48,-302.76 1206,-301.2 1213.22,-308.95 1216.48,-302.76"/>
</g>
<!-- is_voting_period_over -->
<g id="node32" class="node">
<title>is_voting_period_over</title>
<ellipse fill="none" stroke="black" cx="1659" cy="-283" rx="90.18" ry="18"/>
<text text-anchor="middle" x="1659" y="-279.3" font-family="Times,serif" font-size="14.00">is_voting_period_over</text>
</g>
<!-- is_voting_closed&#45;&gt;is_voting_period_over -->
<g id="edge39" class="edge">
<title>is_voting_closed&#45;&gt;is_voting_period_over</title>
<path fill="none" stroke="black" d="M1445.17,-358.21C1481.07,-353.25 1526.25,-345.05 1565,-332 1584.56,-325.41 1605.1,-315.33 1621.98,-306.11"/>
<polygon fill="black" stroke="black" points="1623.63,-309.19 1630.65,-301.25 1620.21,-303.08 1623.63,-309.19"/>
</g>
<!-- vector::singleton -->
<g id="node33" class="node">
<title>vector::singleton</title>
<ellipse fill="none" stroke="black" cx="1025" cy="-34" rx="42.79" ry="18"/>
<text text-anchor="middle" x="1025" y="-30.3" font-family="Times,serif" font-size="14.00">singleton</text>
</g>
<!-- option::some&#45;&gt;vector::singleton -->
<g id="edge40" class="edge">
<title>option::some&#45;&gt;vector::singleton</title>
<path fill="none" stroke="black" d="M982.94,-181.76C991.04,-153.51 1007.2,-97.11 1016.96,-63.04"/>
<polygon fill="black" stroke="black" points="1020.32,-64.04 1019.71,-53.46 1013.59,-62.11 1020.32,-64.04"/>
</g>
<!-- comparator::compare&#45;&gt;bcs::to_bytes -->
<g id="edge41" class="edge">
<title>comparator::compare&#45;&gt;bcs::to_bytes</title>
<path fill="none" stroke="black" d="M631.14,-185.2C621.74,-179.63 611.12,-172.89 602,-166 592.29,-158.67 582.32,-149.83 573.73,-141.74"/>
<polygon fill="black" stroke="black" points="576.4,-139.45 566.76,-135.04 571.55,-144.5 576.4,-139.45"/>
</g>
<!-- comparator::compare_u8_vector -->
<g id="node34" class="node">
<title>comparator::compare_u8_vector</title>
<ellipse fill="none" stroke="black" cx="695" cy="-117" rx="81.49" ry="18"/>
<text text-anchor="middle" x="695" y="-113.3" font-family="Times,serif" font-size="14.00">compare_u8_vector</text>
</g>
<!-- comparator::compare&#45;&gt;comparator::compare_u8_vector -->
<g id="edge42" class="edge">
<title>comparator::compare&#45;&gt;comparator::compare_u8_vector</title>
<path fill="none" stroke="black" d="M664.08,-182.22C669.19,-171.61 675.91,-157.65 681.78,-145.45"/>
<polygon fill="black" stroke="black" points="684.82,-147.21 686,-136.68 678.51,-144.18 684.82,-147.21"/>
</g>
<!-- is_voting_period_over&#45;&gt;timestamp::now_seconds -->
<g id="edge43" class="edge">
<title>is_voting_period_over&#45;&gt;timestamp::now_seconds</title>
<path fill="none" stroke="black" d="M1671.51,-264.82C1679.55,-253.79 1690.13,-239.27 1699.16,-226.86"/>
<polygon fill="black" stroke="black" points="1701.76,-229.24 1704.82,-219.1 1696.1,-225.12 1701.76,-229.24"/>
</g>
</g>
</svg>
