<?xml version="1.0" encoding="UTF-8" standalone="no"?>
<!DOCTYPE svg PUBLIC "-//W3C//DTD SVG 1.1//EN"
 "http://www.w3.org/Graphics/SVG/1.1/DTD/svg11.dtd">
<!-- Generated by graphviz version 7.0.0 (20221023.0053)
 -->
<!-- Title: G Pages: 1 -->
<svg width="370pt" height="227pt"
 viewBox="0.00 0.00 370.00 227.00" xmlns="http://www.w3.org/2000/svg" xmlns:xlink="http://www.w3.org/1999/xlink">
<g id="graph0" class="graph" transform="scale(1 1) rotate(0) translate(4 223)">
<title>G</title>
<polygon fill="white" stroke="none" points="-4,4 -4,-223 366,-223 366,4 -4,4"/>
<g id="clust1" class="cluster">
<title>cluster_aptos_governance</title>
<polygon fill="none" stroke="black" points="8,-64 8,-211 354,-211 354,-64 8,-64"/>
<text text-anchor="middle" x="181" y="-195.8" font-family="Times,serif" font-size="14.00">aptos_governance</text>
</g>
<!-- get_execution_hash -->
<g id="node1" class="node">
<title>get_execution_hash</title>
<ellipse fill="none" stroke="black" cx="193" cy="-18" rx="80.69" ry="18"/>
<text text-anchor="middle" x="193" y="-14.3" font-family="Times,serif" font-size="14.00">get_execution_hash</text>
</g>
<!-- aptos_governance::add_approved_script_hash -->
<g id="node2" class="node">
<title>aptos_governance::add_approved_script_hash</title>
<ellipse fill="none" stroke="black" cx="193" cy="-90" rx="104.78" ry="18"/>
<text text-anchor="middle" x="193" y="-86.3" font-family="Times,serif" font-size="14.00">add_approved_script_hash</text>
</g>
<!-- aptos_governance::add_approved_script_hash&#45;&gt;get_execution_hash -->
<g id="edge1" class="edge">
<title>aptos_governance::add_approved_script_hash&#45;&gt;get_execution_hash</title>
<path fill="none" stroke="black" d="M193,-71.7C193,-64.41 193,-55.73 193,-47.54"/>
<polygon fill="black" stroke="black" points="196.5,-47.62 193,-37.62 189.5,-47.62 196.5,-47.62"/>
</g>
<!-- aptos_governance::vote -->
<g id="node3" class="node">
<title>aptos_governance::vote</title>
<ellipse fill="none" stroke="black" cx="319" cy="-162" rx="27" ry="18"/>
<text text-anchor="middle" x="319" y="-158.3" font-family="Times,serif" font-size="14.00">vote</text>
</g>
<!-- aptos_governance::vote&#45;&gt;aptos_governance::add_approved_script_hash -->
<g id="edge2" class="edge">
<title>aptos_governance::vote&#45;&gt;aptos_governance::add_approved_script_hash</title>
<path fill="none" stroke="black" d="M298.76,-149.75C281.1,-139.94 254.96,-125.42 233.09,-113.27"/>
<polygon fill="black" stroke="black" points="234.83,-110.24 224.39,-108.44 231.43,-116.36 234.83,-110.24"/>
</g>
<!-- aptos_governance::add_approved_script_hash_script -->
<g id="node4" class="node">
<title>aptos_governance::add_approved_script_hash_script</title>
<ellipse fill="none" stroke="black" cx="145" cy="-162" rx="128.88" ry="18"/>
<text text-anchor="middle" x="145" y="-158.3" font-family="Times,serif" font-size="14.00">add_approved_script_hash_script</text>
</g>
<!-- aptos_governance::add_approved_script_hash_script&#45;&gt;aptos_governance::add_approved_script_hash -->
<g id="edge3" class="edge">
<title>aptos_governance::add_approved_script_hash_script&#45;&gt;aptos_governance::add_approved_script_hash</title>
<path fill="none" stroke="black" d="M156.87,-143.7C162.27,-135.81 168.79,-126.3 174.8,-117.55"/>
<polygon fill="black" stroke="black" points="177.65,-119.58 180.42,-109.35 171.87,-115.62 177.65,-119.58"/>
</g>
</g>
</svg>
