<?xml version="1.0" encoding="UTF-8" standalone="no"?>
<!DOCTYPE svg PUBLIC "-//W3C//DTD SVG 1.1//EN"
 "http://www.w3.org/Graphics/SVG/1.1/DTD/svg11.dtd">
<!-- Generated by graphviz version 7.0.0 (20221023.0053)
 -->
<!-- Title: G Pages: 1 -->
<svg width="532pt" height="227pt"
 viewBox="0.00 0.00 532.40 227.00" xmlns="http://www.w3.org/2000/svg" xmlns:xlink="http://www.w3.org/1999/xlink">
<g id="graph0" class="graph" transform="scale(1 1) rotate(0) translate(4 223)">
<title>G</title>
<polygon fill="white" stroke="none" points="-4,4 -4,-223 528.4,-223 528.4,4 -4,4"/>
<g id="clust1" class="cluster">
<title>cluster_aptos_governance</title>
<polygon fill="none" stroke="black" points="8,-64 8,-211 444,-211 444,-64 8,-64"/>
<text text-anchor="middle" x="226" y="-195.8" font-family="Times,serif" font-size="14.00">aptos_governance</text>
</g>
<!-- get_proposal_state -->
<g id="node1" class="node">
<title>get_proposal_state</title>
<ellipse fill="none" stroke="black" cx="371" cy="-18" rx="76.89" ry="18"/>
<text text-anchor="middle" x="371" y="-14.3" font-family="Times,serif" font-size="14.00">get_proposal_state</text>
</g>
<!-- resolve -->
<g id="node2" class="node">
<title>resolve</title>
<ellipse fill="none" stroke="black" cx="488" cy="-90" rx="36.29" ry="18"/>
<text text-anchor="middle" x="488" y="-86.3" font-family="Times,serif" font-size="14.00">resolve</text>
</g>
<!-- resolve&#45;&gt;get_proposal_state -->
<g id="edge1" class="edge">
<title>resolve&#45;&gt;get_proposal_state</title>
<path fill="none" stroke="black" d="M466.48,-75.39C460.52,-71.66 454.03,-67.64 448,-64 435.24,-56.29 421.19,-48.01 408.63,-40.69"/>
<polygon fill="black" stroke="black" points="410.63,-37.81 400.23,-35.81 407.11,-43.86 410.63,-37.81"/>
</g>
<!-- aptos_governance::vote -->
<g id="node3" class="node">
<title>aptos_governance::vote</title>
<ellipse fill="none" stroke="black" cx="319" cy="-162" rx="27" ry="18"/>
<text text-anchor="middle" x="319" y="-158.3" font-family="Times,serif" font-size="14.00">vote</text>
</g>
<!-- aptos_governance::vote&#45;&gt;get_proposal_state -->
<g id="edge2" class="edge">
<title>aptos_governance::vote&#45;&gt;get_proposal_state</title>
<path fill="none" stroke="black" d="M330.64,-145.54C337.78,-135.36 346.56,-121.47 352,-108 359.83,-88.6 364.65,-65.45 367.47,-47.63"/>
<polygon fill="black" stroke="black" points="370.93,-48.14 368.9,-37.75 364,-47.14 370.93,-48.14"/>
</g>
<!-- aptos_governance::add_approved_script_hash -->
<g id="node4" class="node">
<title>aptos_governance::add_approved_script_hash</title>
<ellipse fill="none" stroke="black" cx="238" cy="-90" rx="104.78" ry="18"/>
<text text-anchor="middle" x="238" y="-86.3" font-family="Times,serif" font-size="14.00">add_approved_script_hash</text>
</g>
<!-- aptos_governance::vote&#45;&gt;aptos_governance::add_approved_script_hash -->
<g id="edge5" class="edge">
<title>aptos_governance::vote&#45;&gt;aptos_governance::add_approved_script_hash</title>
<path fill="none" stroke="black" d="M303,-147.17C292.53,-138.13 278.58,-126.07 266.28,-115.44"/>
<polygon fill="black" stroke="black" points="268.69,-112.9 258.84,-109.01 264.12,-118.2 268.69,-112.9"/>
</g>
<!-- aptos_governance::add_approved_script_hash&#45;&gt;get_proposal_state -->
<g id="edge3" class="edge">
<title>aptos_governance::add_approved_script_hash&#45;&gt;get_proposal_state</title>
<path fill="none" stroke="black" d="M269.52,-72.41C287.75,-62.82 310.89,-50.64 330.46,-40.34"/>
<polygon fill="black" stroke="black" points="332.06,-43.45 339.28,-35.69 328.8,-37.25 332.06,-43.45"/>
</g>
<!-- aptos_governance::resolve -->
<g id="node5" class="node">
<title>aptos_governance::resolve</title>
<ellipse fill="none" stroke="black" cx="400" cy="-162" rx="36.29" ry="18"/>
<text text-anchor="middle" x="400" y="-158.3" font-family="Times,serif" font-size="14.00">resolve</text>
</g>
<!-- aptos_governance::resolve&#45;&gt;resolve -->
<g id="edge4" class="edge">
<title>aptos_governance::resolve&#45;&gt;resolve</title>
<path fill="none" stroke="black" d="M418.66,-146.15C430.8,-136.5 446.83,-123.75 460.42,-112.94"/>
<polygon fill="black" stroke="black" points="462.53,-115.73 468.18,-106.77 458.17,-110.25 462.53,-115.73"/>
</g>
<!-- aptos_governance::add_approved_script_hash_script -->
<g id="node6" class="node">
<title>aptos_governance::add_approved_script_hash_script</title>
<ellipse fill="none" stroke="black" cx="145" cy="-162" rx="128.88" ry="18"/>
<text text-anchor="middle" x="145" y="-158.3" font-family="Times,serif" font-size="14.00">add_approved_script_hash_script</text>
</g>
<!-- aptos_governance::add_approved_script_hash_script&#45;&gt;aptos_governance::add_approved_script_hash -->
<g id="edge6" class="edge">
<title>aptos_governance::add_approved_script_hash_script&#45;&gt;aptos_governance::add_approved_script_hash</title>
<path fill="none" stroke="black" d="M167.51,-144.05C179.19,-135.26 193.65,-124.38 206.43,-114.76"/>
<polygon fill="black" stroke="black" points="208.28,-117.75 214.16,-108.94 204.07,-112.16 208.28,-117.75"/>
</g>
</g>
</svg>
