<?xml version="1.0" encoding="UTF-8" standalone="no"?>
<!DOCTYPE svg PUBLIC "-//W3C//DTD SVG 1.1//EN"
 "http://www.w3.org/Graphics/SVG/1.1/DTD/svg11.dtd">
<!-- Generated by graphviz version 7.0.0 (20221023.0053)
 -->
<!-- Title: G Pages: 1 -->
<svg width="1018pt" height="188pt"
 viewBox="0.00 0.00 1017.88 188.00" xmlns="http://www.w3.org/2000/svg" xmlns:xlink="http://www.w3.org/1999/xlink">
<g id="graph0" class="graph" transform="scale(1 1) rotate(0) translate(4 184)">
<title>G</title>
<polygon fill="white" stroke="none" points="-4,4 -4,-184 1013.88,-184 1013.88,4 -4,4"/>
<!-- contains -->
<g id="node1" class="node">
<title>contains</title>
<ellipse fill="none" stroke="black" cx="529.59" cy="-18" rx="40.09" ry="18"/>
<text text-anchor="middle" x="529.59" y="-14.3" font-family="Times,serif" font-size="14.00">contains</text>
</g>
<!-- is_enabled -->
<g id="node2" class="node">
<title>is_enabled</title>
<ellipse fill="none" stroke="black" cx="529.59" cy="-90" rx="48.19" ry="18"/>
<text text-anchor="middle" x="529.59" y="-86.3" font-family="Times,serif" font-size="14.00">is_enabled</text>
</g>
<!-- is_enabled&#45;&gt;contains -->
<g id="edge1" class="edge">
<title>is_enabled&#45;&gt;contains</title>
<path fill="none" stroke="black" d="M529.59,-71.7C529.59,-64.41 529.59,-55.73 529.59,-47.54"/>
<polygon fill="black" stroke="black" points="533.09,-47.62 529.59,-37.62 526.09,-47.62 533.09,-47.62"/>
</g>
<!-- aptos_stdlib_chain_id_enabled -->
<g id="node3" class="node">
<title>aptos_stdlib_chain_id_enabled</title>
<ellipse fill="none" stroke="black" cx="119.59" cy="-162" rx="119.68" ry="18"/>
<text text-anchor="middle" x="119.59" y="-158.3" font-family="Times,serif" font-size="14.00">aptos_stdlib_chain_id_enabled</text>
</g>
<!-- aptos_stdlib_chain_id_enabled&#45;&gt;is_enabled -->
<g id="edge2" class="edge">
<title>aptos_stdlib_chain_id_enabled&#45;&gt;is_enabled</title>
<path fill="none" stroke="black" d="M196.71,-147.83C277.96,-133.96 403.83,-112.47 475.25,-100.28"/>
<polygon fill="black" stroke="black" points="475.46,-103.79 484.73,-98.66 474.29,-96.89 475.46,-103.79"/>
</g>
<!-- code_dependency_check_enabled -->
<g id="node4" class="node">
<title>code_dependency_check_enabled</title>
<ellipse fill="none" stroke="black" cx="387.59" cy="-162" rx="129.98" ry="18"/>
<text text-anchor="middle" x="387.59" y="-158.3" font-family="Times,serif" font-size="14.00">code_dependency_check_enabled</text>
</g>
<!-- code_dependency_check_enabled&#45;&gt;is_enabled -->
<g id="edge3" class="edge">
<title>code_dependency_check_enabled&#45;&gt;is_enabled</title>
<path fill="none" stroke="black" d="M421.6,-144.23C442.61,-133.88 469.62,-120.56 491.37,-109.84"/>
<polygon fill="black" stroke="black" points="492.8,-113.04 500.22,-105.48 489.7,-106.76 492.8,-113.04"/>
</g>
<!-- sha_512_and_ripemd_160_enabled -->
<g id="node5" class="node">
<title>sha_512_and_ripemd_160_enabled</title>
<ellipse fill="none" stroke="black" cx="671.59" cy="-162" rx="135.68" ry="18"/>
<text text-anchor="middle" x="671.59" y="-158.3" font-family="Times,serif" font-size="14.00">sha_512_and_ripemd_160_enabled</text>
</g>
<!-- sha_512_and_ripemd_160_enabled&#45;&gt;is_enabled -->
<g id="edge4" class="edge">
<title>sha_512_and_ripemd_160_enabled&#45;&gt;is_enabled</title>
<path fill="none" stroke="black" d="M637.58,-144.23C616.56,-133.88 589.56,-120.56 567.81,-109.84"/>
<polygon fill="black" stroke="black" points="569.47,-106.76 558.96,-105.48 566.38,-113.04 569.47,-106.76"/>
</g>
<!-- treat_friend_as_private -->
<g id="node6" class="node">
<title>treat_friend_as_private</title>
<ellipse fill="none" stroke="black" cx="917.59" cy="-162" rx="92.08" ry="18"/>
<text text-anchor="middle" x="917.59" y="-158.3" font-family="Times,serif" font-size="14.00">treat_friend_as_private</text>
</g>
<!-- treat_friend_as_private&#45;&gt;is_enabled -->
<g id="edge5" class="edge">
<title>treat_friend_as_private&#45;&gt;is_enabled</title>
<path fill="none" stroke="black" d="M851.77,-149.13C776.2,-135.49 653.65,-113.38 583.49,-100.72"/>
<polygon fill="black" stroke="black" points="584.23,-97.3 573.77,-98.97 582.99,-104.19 584.23,-97.3"/>
</g>
</g>
</svg>
