<?xml version="1.0" encoding="UTF-8" standalone="no"?>
<!DOCTYPE svg PUBLIC "-//W3C//DTD SVG 1.1//EN"
 "http://www.w3.org/Graphics/SVG/1.1/DTD/svg11.dtd">
<!-- Generated by graphviz version 7.0.0 (20221023.0053)
 -->
<!-- Title: G Pages: 1 -->
<svg width="1018pt" height="116pt"
 viewBox="0.00 0.00 1017.88 116.00" xmlns="http://www.w3.org/2000/svg" xmlns:xlink="http://www.w3.org/1999/xlink">
<g id="graph0" class="graph" transform="scale(1 1) rotate(0) translate(4 112)">
<title>G</title>
<polygon fill="white" stroke="none" points="-4,4 -4,-112 1013.88,-112 1013.88,4 -4,4"/>
<!-- is_enabled -->
<g id="node1" class="node">
<title>is_enabled</title>
<ellipse fill="none" stroke="black" cx="529.59" cy="-18" rx="48.19" ry="18"/>
<text text-anchor="middle" x="529.59" y="-14.3" font-family="Times,serif" font-size="14.00">is_enabled</text>
</g>
<!-- aptos_stdlib_chain_id_enabled -->
<g id="node2" class="node">
<title>aptos_stdlib_chain_id_enabled</title>
<ellipse fill="none" stroke="black" cx="119.59" cy="-90" rx="119.68" ry="18"/>
<text text-anchor="middle" x="119.59" y="-86.3" font-family="Times,serif" font-size="14.00">aptos_stdlib_chain_id_enabled</text>
</g>
<!-- aptos_stdlib_chain_id_enabled&#45;&gt;is_enabled -->
<g id="edge1" class="edge">
<title>aptos_stdlib_chain_id_enabled&#45;&gt;is_enabled</title>
<path fill="none" stroke="black" d="M196.71,-75.83C277.96,-61.96 403.83,-40.47 475.25,-28.28"/>
<polygon fill="black" stroke="black" points="475.46,-31.79 484.73,-26.66 474.29,-24.89 475.46,-31.79"/>
</g>
<!-- code_dependency_check_enabled -->
<g id="node3" class="node">
<title>code_dependency_check_enabled</title>
<ellipse fill="none" stroke="black" cx="387.59" cy="-90" rx="129.98" ry="18"/>
<text text-anchor="middle" x="387.59" y="-86.3" font-family="Times,serif" font-size="14.00">code_dependency_check_enabled</text>
</g>
<!-- code_dependency_check_enabled&#45;&gt;is_enabled -->
<g id="edge2" class="edge">
<title>code_dependency_check_enabled&#45;&gt;is_enabled</title>
<path fill="none" stroke="black" d="M421.6,-72.23C442.61,-61.88 469.62,-48.56 491.37,-37.84"/>
<polygon fill="black" stroke="black" points="492.8,-41.04 500.22,-33.48 489.7,-34.76 492.8,-41.04"/>
</g>
<!-- sha_512_and_ripemd_160_enabled -->
<g id="node4" class="node">
<title>sha_512_and_ripemd_160_enabled</title>
<ellipse fill="none" stroke="black" cx="671.59" cy="-90" rx="135.68" ry="18"/>
<text text-anchor="middle" x="671.59" y="-86.3" font-family="Times,serif" font-size="14.00">sha_512_and_ripemd_160_enabled</text>
</g>
<!-- sha_512_and_ripemd_160_enabled&#45;&gt;is_enabled -->
<g id="edge3" class="edge">
<title>sha_512_and_ripemd_160_enabled&#45;&gt;is_enabled</title>
<path fill="none" stroke="black" d="M637.58,-72.23C616.56,-61.88 589.56,-48.56 567.81,-37.84"/>
<polygon fill="black" stroke="black" points="569.47,-34.76 558.96,-33.48 566.38,-41.04 569.47,-34.76"/>
</g>
<!-- treat_friend_as_private -->
<g id="node5" class="node">
<title>treat_friend_as_private</title>
<ellipse fill="none" stroke="black" cx="917.59" cy="-90" rx="92.08" ry="18"/>
<text text-anchor="middle" x="917.59" y="-86.3" font-family="Times,serif" font-size="14.00">treat_friend_as_private</text>
</g>
<!-- treat_friend_as_private&#45;&gt;is_enabled -->
<g id="edge4" class="edge">
<title>treat_friend_as_private&#45;&gt;is_enabled</title>
<path fill="none" stroke="black" d="M851.77,-77.13C776.2,-63.49 653.65,-41.38 583.49,-28.72"/>
<polygon fill="black" stroke="black" points="584.23,-25.3 573.77,-26.97 582.99,-32.19 584.23,-25.3"/>
</g>
</g>
</svg>
