<?xml version="1.0" encoding="UTF-8" standalone="no"?>
<!DOCTYPE svg PUBLIC "-//W3C//DTD SVG 1.1//EN"
 "http://www.w3.org/Graphics/SVG/1.1/DTD/svg11.dtd">
<!-- Generated by graphviz version 7.0.0 (20221023.0053)
 -->
<!-- Title: G Pages: 1 -->
<svg width="961pt" height="531pt"
 viewBox="0.00 0.00 960.88 531.00" xmlns="http://www.w3.org/2000/svg" xmlns:xlink="http://www.w3.org/1999/xlink">
<g id="graph0" class="graph" transform="scale(1 1) rotate(0) translate(4 527)">
<title>G</title>
<polygon fill="white" stroke="none" points="-4,4 -4,-527 956.88,-527 956.88,4 -4,4"/>
<g id="clust1" class="cluster">
<title>cluster_error</title>
<polygon fill="none" stroke="black" points="8,-174 8,-332 282,-332 282,-174 8,-174"/>
<text text-anchor="middle" x="145" y="-316.8" font-family="Times,serif" font-size="14.00">error</text>
</g>
<g id="clust2" class="cluster">
<title>cluster_simple_map</title>
<polygon fill="none" stroke="black" points="629,-257 629,-407 887,-407 887,-257 629,-257"/>
<text text-anchor="middle" x="758" y="-391.8" font-family="Times,serif" font-size="14.00">simple_map</text>
</g>
<g id="clust3" class="cluster">
<title>cluster_option</title>
<polygon fill="none" stroke="black" points="654,-91 654,-249 890,-249 890,-91 654,-91"/>
<text text-anchor="middle" x="772" y="-233.8" font-family="Times,serif" font-size="14.00">option</text>
</g>
<g id="clust4" class="cluster">
<title>cluster_vector</title>
<polygon fill="none" stroke="black" points="672,-8 672,-83 879,-83 879,-8 672,-8"/>
<text text-anchor="middle" x="775.5" y="-67.8" font-family="Times,serif" font-size="14.00">vector</text>
</g>
<g id="clust5" class="cluster">
<title>cluster_comparator</title>
<polygon fill="none" stroke="black" points="290,-91 290,-249 542,-249 542,-91 290,-91"/>
<text text-anchor="middle" x="416" y="-233.8" font-family="Times,serif" font-size="14.00">comparator</text>
</g>
<g id="clust6" class="cluster">
<title>cluster_bcs</title>
<polygon fill="none" stroke="black" points="550,-91 550,-166 646,-166 646,-91 550,-91"/>
<text text-anchor="middle" x="598" y="-150.8" font-family="Times,serif" font-size="14.00">bcs</text>
</g>
<!-- update_property_value -->
<g id="node1" class="node">
<title>update_property_value</title>
<ellipse fill="none" stroke="black" cx="692" cy="-505" rx="91.78" ry="18"/>
<text text-anchor="middle" x="692" y="-501.3" font-family="Times,serif" font-size="14.00">update_property_value</text>
</g>
<!-- error::not_found -->
<g id="node2" class="node">
<title>error::not_found</title>
<ellipse fill="none" stroke="black" cx="63" cy="-283" rx="46.59" ry="18"/>
<text text-anchor="middle" x="63" y="-279.3" font-family="Times,serif" font-size="14.00">not_found</text>
</g>
<!-- update_property_value&#45;&gt;error::not_found -->
<g id="edge1" class="edge">
<title>update_property_value&#45;&gt;error::not_found</title>
<path fill="none" stroke="black" d="M622.68,-492.83C511.16,-472.8 287.39,-424.02 119,-332 107.42,-325.67 96.09,-316.66 86.68,-308.15"/>
<polygon fill="black" stroke="black" points="89.08,-305.6 79.41,-301.29 84.28,-310.7 89.08,-305.6"/>
</g>
<!-- simple_map::borrow_mut -->
<g id="node3" class="node">
<title>simple_map::borrow_mut</title>
<ellipse fill="none" stroke="black" cx="692" cy="-358" rx="54.69" ry="18"/>
<text text-anchor="middle" x="692" y="-354.3" font-family="Times,serif" font-size="14.00">borrow_mut</text>
</g>
<!-- update_property_value&#45;&gt;simple_map::borrow_mut -->
<g id="edge2" class="edge">
<title>update_property_value&#45;&gt;simple_map::borrow_mut</title>
<path fill="none" stroke="black" d="M692,-486.51C692,-461.88 692,-416.71 692,-387.28"/>
<polygon fill="black" stroke="black" points="695.5,-387.62 692,-377.62 688.5,-387.62 695.5,-387.62"/>
</g>
<!-- contains_key -->
<g id="node4" class="node">
<title>contains_key</title>
<ellipse fill="none" stroke="black" cx="799" cy="-433" rx="57.39" ry="18"/>
<text text-anchor="middle" x="799" y="-429.3" font-family="Times,serif" font-size="14.00">contains_key</text>
</g>
<!-- update_property_value&#45;&gt;contains_key -->
<g id="edge3" class="edge">
<title>update_property_value&#45;&gt;contains_key</title>
<path fill="none" stroke="black" d="M717.63,-487.23C732.07,-477.79 750.26,-465.88 765.79,-455.73"/>
<polygon fill="black" stroke="black" points="767.33,-458.9 773.78,-450.5 763.5,-453.04 767.33,-458.9"/>
</g>
<!-- error::canonical -->
<g id="node5" class="node">
<title>error::canonical</title>
<ellipse fill="none" stroke="black" cx="132" cy="-200" rx="44.39" ry="18"/>
<text text-anchor="middle" x="132" y="-196.3" font-family="Times,serif" font-size="14.00">canonical</text>
</g>
<!-- error::not_found&#45;&gt;error::canonical -->
<g id="edge4" class="edge">
<title>error::not_found&#45;&gt;error::canonical</title>
<path fill="none" stroke="black" d="M76.96,-265.61C86.69,-254.19 99.84,-238.75 110.85,-225.83"/>
<polygon fill="black" stroke="black" points="113.26,-228.4 117.08,-218.52 107.93,-223.86 113.26,-228.4"/>
</g>
<!-- option::extract -->
<g id="node6" class="node">
<title>option::extract</title>
<ellipse fill="none" stroke="black" cx="848" cy="-200" rx="34.39" ry="18"/>
<text text-anchor="middle" x="848" y="-196.3" font-family="Times,serif" font-size="14.00">extract</text>
</g>
<!-- simple_map::borrow_mut&#45;&gt;option::extract -->
<g id="edge5" class="edge">
<title>simple_map::borrow_mut&#45;&gt;option::extract</title>
<path fill="none" stroke="black" d="M715.79,-341.57C719.98,-338.55 724.21,-335.29 728,-332 766.71,-298.39 805.74,-253.2 828.36,-225.64"/>
<polygon fill="black" stroke="black" points="830.82,-228.15 834.42,-218.18 825.39,-223.73 830.82,-228.15"/>
</g>
<!-- option::is_some -->
<g id="node7" class="node">
<title>option::is_some</title>
<ellipse fill="none" stroke="black" cx="842" cy="-117" rx="40.09" ry="18"/>
<text text-anchor="middle" x="842" y="-113.3" font-family="Times,serif" font-size="14.00">is_some</text>
</g>
<!-- simple_map::borrow_mut&#45;&gt;option::is_some -->
<g id="edge6" class="edge">
<title>simple_map::borrow_mut&#45;&gt;option::is_some</title>
<path fill="none" stroke="black" d="M733.73,-346.16C751.11,-341.35 769.07,-335.91 777,-332 833.22,-304.31 862.57,-304.86 891,-249 906.12,-219.29 902.72,-205.2 891,-174 886.37,-161.69 877.67,-150.31 868.88,-141.07"/>
<polygon fill="black" stroke="black" points="871.55,-138.79 861.96,-134.28 866.64,-143.78 871.55,-138.79"/>
</g>
<!-- error::invalid_argument -->
<g id="node8" class="node">
<title>error::invalid_argument</title>
<ellipse fill="none" stroke="black" cx="201" cy="-283" rx="73.39" ry="18"/>
<text text-anchor="middle" x="201" y="-279.3" font-family="Times,serif" font-size="14.00">invalid_argument</text>
</g>
<!-- simple_map::borrow_mut&#45;&gt;error::invalid_argument -->
<g id="edge7" class="edge">
<title>simple_map::borrow_mut&#45;&gt;error::invalid_argument</title>
<path fill="none" stroke="black" d="M643.13,-349.73C556.47,-336.85 375.51,-309.95 274.02,-294.86"/>
<polygon fill="black" stroke="black" points="274.55,-291.4 264.15,-293.39 273.52,-298.32 274.55,-291.4"/>
</g>
<!-- simple_map::find -->
<g id="node9" class="node">
<title>simple_map::find</title>
<ellipse fill="none" stroke="black" cx="692" cy="-283" rx="27" ry="18"/>
<text text-anchor="middle" x="692" y="-279.3" font-family="Times,serif" font-size="14.00">find</text>
</g>
<!-- simple_map::borrow_mut&#45;&gt;simple_map::find -->
<g id="edge8" class="edge">
<title>simple_map::borrow_mut&#45;&gt;simple_map::find</title>
<path fill="none" stroke="black" d="M692,-339.7C692,-331.67 692,-321.9 692,-312.8"/>
<polygon fill="black" stroke="black" points="695.5,-312.94 692,-302.94 688.5,-312.94 695.5,-312.94"/>
</g>
<!-- simple_map::contains_key -->
<g id="node10" class="node">
<title>simple_map::contains_key</title>
<ellipse fill="none" stroke="black" cx="822" cy="-358" rx="57.39" ry="18"/>
<text text-anchor="middle" x="822" y="-354.3" font-family="Times,serif" font-size="14.00">contains_key</text>
</g>
<!-- contains_key&#45;&gt;simple_map::contains_key -->
<g id="edge9" class="edge">
<title>contains_key&#45;&gt;simple_map::contains_key</title>
<path fill="none" stroke="black" d="M804.45,-414.7C807.06,-406.43 810.24,-396.31 813.18,-386.99"/>
<polygon fill="black" stroke="black" points="816.47,-388.21 816.13,-377.62 809.79,-386.11 816.47,-388.21"/>
</g>
<!-- option::extract&#45;&gt;option::is_some -->
<g id="edge10" class="edge">
<title>option::extract&#45;&gt;option::is_some</title>
<path fill="none" stroke="black" d="M846.73,-181.82C845.97,-171.58 844.99,-158.33 844.11,-146.55"/>
<polygon fill="black" stroke="black" points="847.63,-146.66 843.4,-136.94 840.65,-147.17 847.63,-146.66"/>
</g>
<!-- vector::is_empty -->
<g id="node11" class="node">
<title>vector::is_empty</title>
<ellipse fill="none" stroke="black" cx="827" cy="-34" rx="43.59" ry="18"/>
<text text-anchor="middle" x="827" y="-30.3" font-family="Times,serif" font-size="14.00">is_empty</text>
</g>
<!-- option::is_some&#45;&gt;vector::is_empty -->
<g id="edge11" class="edge">
<title>option::is_some&#45;&gt;vector::is_empty</title>
<path fill="none" stroke="black" d="M838.82,-98.82C836.92,-88.58 834.47,-75.33 832.29,-63.55"/>
<polygon fill="black" stroke="black" points="835.77,-63.12 830.5,-53.92 828.88,-64.39 835.77,-63.12"/>
</g>
<!-- error::invalid_argument&#45;&gt;error::canonical -->
<g id="edge12" class="edge">
<title>error::invalid_argument&#45;&gt;error::canonical</title>
<path fill="none" stroke="black" d="M186.7,-265.22C177.11,-253.96 164.3,-238.92 153.49,-226.22"/>
<polygon fill="black" stroke="black" points="156.17,-223.98 147.02,-218.64 150.84,-228.52 156.17,-223.98"/>
</g>
<!-- option::none -->
<g id="node12" class="node">
<title>option::none</title>
<ellipse fill="none" stroke="black" cx="768" cy="-200" rx="27.9" ry="18"/>
<text text-anchor="middle" x="768" y="-196.3" font-family="Times,serif" font-size="14.00">none</text>
</g>
<!-- simple_map::find&#45;&gt;option::none -->
<g id="edge13" class="edge">
<title>simple_map::find&#45;&gt;option::none</title>
<path fill="none" stroke="black" d="M709.01,-268.93C716.11,-263.14 724.26,-256.05 731,-249 737.75,-241.94 744.46,-233.69 750.29,-226.04"/>
<polygon fill="black" stroke="black" points="753.08,-228.14 756.22,-218.02 747.46,-223.98 753.08,-228.14"/>
</g>
<!-- option::some -->
<g id="node13" class="node">
<title>option::some</title>
<ellipse fill="none" stroke="black" cx="692" cy="-200" rx="29.8" ry="18"/>
<text text-anchor="middle" x="692" y="-196.3" font-family="Times,serif" font-size="14.00">some</text>
</g>
<!-- simple_map::find&#45;&gt;option::some -->
<g id="edge14" class="edge">
<title>simple_map::find&#45;&gt;option::some</title>
<path fill="none" stroke="black" d="M692,-264.82C692,-254.69 692,-241.6 692,-229.92"/>
<polygon fill="black" stroke="black" points="695.5,-229.95 692,-219.95 688.5,-229.95 695.5,-229.95"/>
</g>
<!-- comparator::compare -->
<g id="node14" class="node">
<title>comparator::compare</title>
<ellipse fill="none" stroke="black" cx="492" cy="-200" rx="41.69" ry="18"/>
<text text-anchor="middle" x="492" y="-196.3" font-family="Times,serif" font-size="14.00">compare</text>
</g>
<!-- simple_map::find&#45;&gt;comparator::compare -->
<g id="edge15" class="edge">
<title>simple_map::find&#45;&gt;comparator::compare</title>
<path fill="none" stroke="black" d="M669.45,-272.87C636.15,-259.38 573.36,-233.95 532.1,-217.24"/>
<polygon fill="black" stroke="black" points="533.58,-214.06 523,-213.55 530.95,-220.55 533.58,-214.06"/>
</g>
<!-- comparator::is_smaller_than -->
<g id="node15" class="node">
<title>comparator::is_smaller_than</title>
<ellipse fill="none" stroke="black" cx="365" cy="-200" rx="66.89" ry="18"/>
<text text-anchor="middle" x="365" y="-196.3" font-family="Times,serif" font-size="14.00">is_smaller_than</text>
</g>
<!-- simple_map::find&#45;&gt;comparator::is_smaller_than -->
<g id="edge16" class="edge">
<title>simple_map::find&#45;&gt;comparator::is_smaller_than</title>
<path fill="none" stroke="black" d="M664.73,-282.2C617.65,-281.73 518.7,-277.1 441,-249 424.7,-243.11 408.24,-233.29 394.83,-224.07"/>
<polygon fill="black" stroke="black" points="397.05,-221.36 386.88,-218.4 392.99,-227.06 397.05,-221.36"/>
</g>
<!-- simple_map::contains_key&#45;&gt;option::is_some -->
<g id="edge17" class="edge">
<title>simple_map::contains_key&#45;&gt;option::is_some</title>
<path fill="none" stroke="black" d="M874.29,-350.21C895.92,-346.23 917.47,-340.32 924,-332 967.34,-276.75 956.79,-236.1 924,-174 914.87,-156.7 897.72,-143.74 881.46,-134.67"/>
<polygon fill="black" stroke="black" points="883.37,-131.71 872.88,-130.21 880.14,-137.92 883.37,-131.71"/>
</g>
<!-- simple_map::contains_key&#45;&gt;simple_map::find -->
<g id="edge18" class="edge">
<title>simple_map::contains_key&#45;&gt;simple_map::find</title>
<path fill="none" stroke="black" d="M794.75,-341.7C773.41,-329.71 743.76,-313.07 721.8,-300.73"/>
<polygon fill="black" stroke="black" points="723.76,-297.82 713.32,-295.97 720.33,-303.92 723.76,-297.82"/>
</g>
<!-- vector::singleton -->
<g id="node16" class="node">
<title>vector::singleton</title>
<ellipse fill="none" stroke="black" cx="723" cy="-34" rx="42.79" ry="18"/>
<text text-anchor="middle" x="723" y="-30.3" font-family="Times,serif" font-size="14.00">singleton</text>
</g>
<!-- option::some&#45;&gt;vector::singleton -->
<g id="edge19" class="edge">
<title>option::some&#45;&gt;vector::singleton</title>
<path fill="none" stroke="black" d="M695.26,-181.76C700.6,-153.51 711.26,-97.11 717.7,-63.04"/>
<polygon fill="black" stroke="black" points="721.09,-63.97 719.5,-53.5 714.21,-62.67 721.09,-63.97"/>
</g>
<!-- bcs::to_bytes -->
<g id="node17" class="node">
<title>bcs::to_bytes</title>
<ellipse fill="none" stroke="black" cx="598" cy="-117" rx="40.09" ry="18"/>
<text text-anchor="middle" x="598" y="-113.3" font-family="Times,serif" font-size="14.00">to_bytes</text>
</g>
<!-- comparator::compare&#45;&gt;bcs::to_bytes -->
<g id="edge20" class="edge">
<title>comparator::compare&#45;&gt;bcs::to_bytes</title>
<path fill="none" stroke="black" d="M516.86,-185.2C526.26,-179.63 536.88,-172.89 546,-166 555.71,-158.67 565.68,-149.83 574.27,-141.74"/>
<polygon fill="black" stroke="black" points="576.45,-144.5 581.24,-135.04 571.6,-139.45 576.45,-144.5"/>
</g>
<!-- comparator::compare_u8_vector -->
<g id="node18" class="node">
<title>comparator::compare_u8_vector</title>
<ellipse fill="none" stroke="black" cx="453" cy="-117" rx="81.49" ry="18"/>
<text text-anchor="middle" x="453" y="-113.3" font-family="Times,serif" font-size="14.00">compare_u8_vector</text>
</g>
<!-- comparator::compare&#45;&gt;comparator::compare_u8_vector -->
<g id="edge21" class="edge">
<title>comparator::compare&#45;&gt;comparator::compare_u8_vector</title>
<path fill="none" stroke="black" d="M483.92,-182.22C478.81,-171.61 472.09,-157.65 466.22,-145.45"/>
<polygon fill="black" stroke="black" points="469.49,-144.18 462,-136.68 463.18,-147.21 469.49,-144.18"/>
</g>
</g>
</svg>
