<?xml version="1.0" encoding="UTF-8" standalone="no"?>
<!DOCTYPE svg PUBLIC "-//W3C//DTD SVG 1.1//EN"
 "http://www.w3.org/Graphics/SVG/1.1/DTD/svg11.dtd">
<!-- Generated by graphviz version 7.0.0 (20221023.0053)
 -->
<!-- Title: G Pages: 1 -->
<svg width="1358pt" height="443pt"
 viewBox="0.00 0.00 1358.10 443.00" xmlns="http://www.w3.org/2000/svg" xmlns:xlink="http://www.w3.org/1999/xlink">
<g id="graph0" class="graph" transform="scale(1 1) rotate(0) translate(4 439)">
<title>G</title>
<polygon fill="white" stroke="none" points="-4,4 -4,-439 1354.1,-439 1354.1,4 -4,4"/>
<g id="clust1" class="cluster">
<title>cluster_token</title>
<polygon fill="none" stroke="black" points="666.1,-208 666.1,-427 1342.1,-427 1342.1,-208 666.1,-208"/>
<text text-anchor="middle" x="1004.1" y="-411.8" font-family="Times,serif" font-size="14.00">token</text>
</g>
<!-- contains_key -->
<g id="node1" class="node">
<title>contains_key</title>
<ellipse fill="none" stroke="black" cx="828.1" cy="-18" rx="57.39" ry="18"/>
<text text-anchor="middle" x="828.1" y="-14.3" font-family="Times,serif" font-size="14.00">contains_key</text>
</g>
<!-- borrow -->
<g id="node2" class="node">
<title>borrow</title>
<ellipse fill="none" stroke="black" cx="373.1" cy="-162" rx="36.29" ry="18"/>
<text text-anchor="middle" x="373.1" y="-158.3" font-family="Times,serif" font-size="14.00">borrow</text>
</g>
<!-- borrow&#45;&gt;contains_key -->
<g id="edge1" class="edge">
<title>borrow&#45;&gt;contains_key</title>
<path fill="none" stroke="black" d="M398.93,-149.09C439.83,-130.58 522.36,-94.7 595.1,-72 653.02,-53.92 720.82,-39.2 768.3,-29.9"/>
<polygon fill="black" stroke="black" points="768.67,-33.39 777.82,-28.06 767.34,-26.52 768.67,-33.39"/>
</g>
<!-- remove -->
<g id="node3" class="node">
<title>remove</title>
<ellipse fill="none" stroke="black" cx="642.1" cy="-90" rx="37.89" ry="18"/>
<text text-anchor="middle" x="642.1" y="-86.3" font-family="Times,serif" font-size="14.00">remove</text>
</g>
<!-- remove&#45;&gt;contains_key -->
<g id="edge2" class="edge">
<title>remove&#45;&gt;contains_key</title>
<path fill="none" stroke="black" d="M671.16,-78.06C700.79,-66.91 747.2,-49.44 781.88,-36.39"/>
<polygon fill="black" stroke="black" points="782.69,-39.83 790.82,-33.03 780.22,-33.28 782.69,-39.83"/>
</g>
<!-- update_property_map -->
<g id="node4" class="node">
<title>update_property_map</title>
<ellipse fill="none" stroke="black" cx="876.1" cy="-162" rx="88.28" ry="18"/>
<text text-anchor="middle" x="876.1" y="-158.3" font-family="Times,serif" font-size="14.00">update_property_map</text>
</g>
<!-- update_property_map&#45;&gt;contains_key -->
<g id="edge3" class="edge">
<title>update_property_map&#45;&gt;contains_key</title>
<path fill="none" stroke="black" d="M900.02,-144.23C911.1,-134.97 923.12,-122.43 929.1,-108 935.22,-93.22 937.37,-85.69 929.1,-72 918.56,-54.58 900.2,-42.6 881.99,-34.5"/>
<polygon fill="black" stroke="black" points="883.33,-31.27 872.75,-30.74 880.69,-37.76 883.33,-31.27"/>
</g>
<!-- update_property_value -->
<g id="node5" class="node">
<title>update_property_value</title>
<ellipse fill="none" stroke="black" cx="828.1" cy="-90" rx="91.78" ry="18"/>
<text text-anchor="middle" x="828.1" y="-86.3" font-family="Times,serif" font-size="14.00">update_property_value</text>
</g>
<!-- update_property_map&#45;&gt;update_property_value -->
<g id="edge16" class="edge">
<title>update_property_map&#45;&gt;update_property_value</title>
<path fill="none" stroke="black" d="M864.23,-143.7C858.82,-135.81 852.3,-126.3 846.3,-117.55"/>
<polygon fill="black" stroke="black" points="849.22,-115.62 840.68,-109.35 843.45,-119.58 849.22,-115.62"/>
</g>
<!-- update_property_value&#45;&gt;contains_key -->
<g id="edge4" class="edge">
<title>update_property_value&#45;&gt;contains_key</title>
<path fill="none" stroke="black" d="M828.1,-71.7C828.1,-64.41 828.1,-55.73 828.1,-47.54"/>
<polygon fill="black" stroke="black" points="831.6,-47.62 828.1,-37.62 824.6,-47.62 831.6,-47.62"/>
</g>
<!-- token::burn -->
<g id="node6" class="node">
<title>token::burn</title>
<ellipse fill="none" stroke="black" cx="917.1" cy="-378" rx="27" ry="18"/>
<text text-anchor="middle" x="917.1" y="-374.3" font-family="Times,serif" font-size="14.00">burn</text>
</g>
<!-- token::burn&#45;&gt;contains_key -->
<g id="edge5" class="edge">
<title>token::burn&#45;&gt;contains_key</title>
<path fill="none" stroke="black" d="M933.72,-363.62C960.47,-340.48 1010.1,-290.11 1010.1,-235 1010.1,-235 1010.1,-235 1010.1,-161 1010.1,-94.64 933.95,-54.71 880.16,-34.79"/>
<polygon fill="black" stroke="black" points="881.41,-31.52 870.82,-31.46 879.07,-38.12 881.41,-31.52"/>
</g>
<!-- read_bool -->
<g id="node10" class="node">
<title>read_bool</title>
<ellipse fill="none" stroke="black" cx="494.1" cy="-234" rx="46.29" ry="18"/>
<text text-anchor="middle" x="494.1" y="-230.3" font-family="Times,serif" font-size="14.00">read_bool</text>
</g>
<!-- token::burn&#45;&gt;read_bool -->
<g id="edge18" class="edge">
<title>token::burn&#45;&gt;read_bool</title>
<path fill="none" stroke="black" d="M896.58,-365.99C891.63,-363.7 886.27,-361.53 881.1,-360 765.41,-325.84 723.68,-369.82 612.1,-324 575.63,-309.03 540.44,-279.98 518.13,-259.14"/>
<polygon fill="black" stroke="black" points="520.69,-256.75 511.04,-252.37 515.86,-261.81 520.69,-256.75"/>
</g>
<!-- token::burn_by_creator -->
<g id="node7" class="node">
<title>token::burn_by_creator</title>
<ellipse fill="none" stroke="black" cx="1265.1" cy="-378" rx="68.79" ry="18"/>
<text text-anchor="middle" x="1265.1" y="-374.3" font-family="Times,serif" font-size="14.00">burn_by_creator</text>
</g>
<!-- token::burn_by_creator&#45;&gt;contains_key -->
<g id="edge6" class="edge">
<title>token::burn_by_creator&#45;&gt;contains_key</title>
<path fill="none" stroke="black" d="M1247.28,-360.52C1222.62,-335.82 1181.1,-286.56 1181.1,-235 1181.1,-235 1181.1,-235 1181.1,-161 1181.1,-98.51 988.27,-50.82 887.65,-30.19"/>
<polygon fill="black" stroke="black" points="888.42,-26.78 877.92,-28.23 887.03,-33.64 888.42,-26.78"/>
</g>
<!-- token::burn_by_creator&#45;&gt;read_bool -->
<g id="edge19" class="edge">
<title>token::burn_by_creator&#45;&gt;read_bool</title>
<path fill="none" stroke="black" d="M1215.78,-365.13C1206.3,-363.17 1196.42,-361.34 1187.1,-360 962.17,-327.72 896.6,-382.76 677.1,-324 661.99,-319.96 580.28,-278.95 531.3,-254.04"/>
<polygon fill="black" stroke="black" points="532.93,-250.94 522.43,-249.52 529.75,-257.18 532.93,-250.94"/>
</g>
<!-- token::mutate_one_token -->
<g id="node8" class="node">
<title>token::mutate_one_token</title>
<ellipse fill="none" stroke="black" cx="762.1" cy="-306" rx="76.09" ry="18"/>
<text text-anchor="middle" x="762.1" y="-302.3" font-family="Times,serif" font-size="14.00">mutate_one_token</text>
</g>
<!-- token::mutate_one_token&#45;&gt;contains_key -->
<g id="edge7" class="edge">
<title>token::mutate_one_token&#45;&gt;contains_key</title>
<path fill="none" stroke="black" d="M747.28,-288.17C739.63,-278.35 731.09,-265.31 727.1,-252 704.08,-175.38 685.71,-140.46 727.1,-72 737.63,-54.58 755.99,-42.6 774.2,-34.5"/>
<polygon fill="black" stroke="black" points="775.5,-37.76 783.44,-30.74 772.86,-31.27 775.5,-37.76"/>
</g>
<!-- token::mutate_one_token&#45;&gt;read_bool -->
<g id="edge20" class="edge">
<title>token::mutate_one_token&#45;&gt;read_bool</title>
<path fill="none" stroke="black" d="M709.36,-292.75C666.12,-282.49 603.42,-267.14 549.1,-252 546.17,-251.19 543.17,-250.32 540.15,-249.44"/>
<polygon fill="black" stroke="black" points="541.25,-246.12 530.67,-246.61 539.25,-252.83 541.25,-246.12"/>
</g>
<!-- token::update_token_property_internal -->
<g id="node16" class="node">
<title>token::update_token_property_internal</title>
<ellipse fill="none" stroke="black" cx="859.1" cy="-234" rx="123.48" ry="18"/>
<text text-anchor="middle" x="859.1" y="-230.3" font-family="Times,serif" font-size="14.00">update_token_property_internal</text>
</g>
<!-- token::mutate_one_token&#45;&gt;token::update_token_property_internal -->
<g id="edge21" class="edge">
<title>token::mutate_one_token&#45;&gt;token::update_token_property_internal</title>
<path fill="none" stroke="black" d="M785.08,-288.41C797.46,-279.48 812.95,-268.3 826.55,-258.49"/>
<polygon fill="black" stroke="black" points="828.31,-261.53 834.37,-252.84 824.21,-255.86 828.31,-261.53"/>
</g>
<!-- read_address -->
<g id="node9" class="node">
<title>read_address</title>
<ellipse fill="none" stroke="black" cx="373.1" cy="-234" rx="56.59" ry="18"/>
<text text-anchor="middle" x="373.1" y="-230.3" font-family="Times,serif" font-size="14.00">read_address</text>
</g>
<!-- read_address&#45;&gt;borrow -->
<g id="edge8" class="edge">
<title>read_address&#45;&gt;borrow</title>
<path fill="none" stroke="black" d="M373.1,-215.7C373.1,-208.41 373.1,-199.73 373.1,-191.54"/>
<polygon fill="black" stroke="black" points="376.6,-191.62 373.1,-181.62 369.6,-191.62 376.6,-191.62"/>
</g>
<!-- read_bool&#45;&gt;borrow -->
<g id="edge9" class="edge">
<title>read_bool&#45;&gt;borrow</title>
<path fill="none" stroke="black" d="M469.02,-218.5C450.75,-207.92 425.82,-193.5 405.95,-182.01"/>
<polygon fill="black" stroke="black" points="407.81,-179.04 397.4,-177.06 404.3,-185.1 407.81,-179.04"/>
</g>
<!-- read_string -->
<g id="node11" class="node">
<title>read_string</title>
<ellipse fill="none" stroke="black" cx="608.1" cy="-234" rx="50.09" ry="18"/>
<text text-anchor="middle" x="608.1" y="-230.3" font-family="Times,serif" font-size="14.00">read_string</text>
</g>
<!-- read_string&#45;&gt;borrow -->
<g id="edge10" class="edge">
<title>read_string&#45;&gt;borrow</title>
<path fill="none" stroke="black" d="M578.11,-219.27C568.92,-215.33 558.69,-211.24 549.1,-208 505.01,-193.12 453.28,-180.44 417.37,-172.37"/>
<polygon fill="black" stroke="black" points="418.29,-168.99 407.77,-170.25 416.77,-175.83 418.29,-168.99"/>
</g>
<!-- read_u128 -->
<g id="node12" class="node">
<title>read_u128</title>
<ellipse fill="none" stroke="black" cx="48.1" cy="-234" rx="48.19" ry="18"/>
<text text-anchor="middle" x="48.1" y="-230.3" font-family="Times,serif" font-size="14.00">read_u128</text>
</g>
<!-- read_u128&#45;&gt;borrow -->
<g id="edge11" class="edge">
<title>read_u128&#45;&gt;borrow</title>
<path fill="none" stroke="black" d="M76.28,-218.99C85.31,-214.96 95.47,-210.87 105.1,-208 180.7,-185.45 271.89,-173.16 326.04,-167.35"/>
<polygon fill="black" stroke="black" points="326.25,-170.84 335.84,-166.33 325.53,-163.88 326.25,-170.84"/>
</g>
<!-- read_u64 -->
<g id="node13" class="node">
<title>read_u64</title>
<ellipse fill="none" stroke="black" cx="158.1" cy="-234" rx="43.59" ry="18"/>
<text text-anchor="middle" x="158.1" y="-230.3" font-family="Times,serif" font-size="14.00">read_u64</text>
</g>
<!-- read_u64&#45;&gt;borrow -->
<g id="edge12" class="edge">
<title>read_u64&#45;&gt;borrow</title>
<path fill="none" stroke="black" d="M184.68,-219.38C193.01,-215.41 202.32,-211.26 211.1,-208 250.26,-193.45 296.27,-181.1 329.23,-173.04"/>
<polygon fill="black" stroke="black" points="329.93,-176.47 338.84,-170.73 328.29,-169.67 329.93,-176.47"/>
</g>
<!-- read_u8 -->
<g id="node14" class="node">
<title>read_u8</title>
<ellipse fill="none" stroke="black" cx="259.1" cy="-234" rx="38.99" ry="18"/>
<text text-anchor="middle" x="259.1" y="-230.3" font-family="Times,serif" font-size="14.00">read_u8</text>
</g>
<!-- read_u8&#45;&gt;borrow -->
<g id="edge13" class="edge">
<title>read_u8&#45;&gt;borrow</title>
<path fill="none" stroke="black" d="M281.89,-219C298.97,-208.52 322.54,-194.04 341.44,-182.44"/>
<polygon fill="black" stroke="black" points="343.13,-185.5 349.82,-177.29 339.47,-179.54 343.13,-185.5"/>
</g>
<!-- token::mutate_tokendata_property -->
<g id="node15" class="node">
<title>token::mutate_tokendata_property</title>
<ellipse fill="none" stroke="black" cx="1070.1" cy="-378" rx="107.78" ry="18"/>
<text text-anchor="middle" x="1070.1" y="-374.3" font-family="Times,serif" font-size="14.00">mutate_tokendata_property</text>
</g>
<!-- token::mutate_tokendata_property&#45;&gt;update_property_map -->
<g id="edge14" class="edge">
<title>token::mutate_tokendata_property&#45;&gt;update_property_map</title>
<path fill="none" stroke="black" d="M1066.5,-359.63C1058.66,-325.87 1036.93,-250.98 991.1,-208 977.89,-195.61 960.87,-186.5 944,-179.85"/>
<polygon fill="black" stroke="black" points="945.57,-176.7 934.98,-176.54 943.16,-183.27 945.57,-176.7"/>
</g>
<!-- token::update_token_property_internal&#45;&gt;update_property_map -->
<g id="edge15" class="edge">
<title>token::update_token_property_internal&#45;&gt;update_property_map</title>
<path fill="none" stroke="black" d="M863.3,-215.7C865.09,-208.32 867.23,-199.52 869.23,-191.25"/>
<polygon fill="black" stroke="black" points="872.63,-192.12 871.58,-181.58 865.82,-190.47 872.63,-192.12"/>
</g>
<!-- token::mutate_token_properties -->
<g id="node17" class="node">
<title>token::mutate_token_properties</title>
<ellipse fill="none" stroke="black" cx="773.1" cy="-378" rx="98.58" ry="18"/>
<text text-anchor="middle" x="773.1" y="-374.3" font-family="Times,serif" font-size="14.00">mutate_token_properties</text>
</g>
<!-- token::mutate_token_properties&#45;&gt;token::mutate_one_token -->
<g id="edge17" class="edge">
<title>token::mutate_token_properties&#45;&gt;token::mutate_one_token</title>
<path fill="none" stroke="black" d="M770.38,-359.7C769.22,-352.32 767.84,-343.52 766.54,-335.25"/>
<polygon fill="black" stroke="black" points="770.03,-334.93 765.02,-325.6 763.11,-336.02 770.03,-334.93"/>
</g>
</g>
</svg>
