<?xml version="1.0" encoding="UTF-8" standalone="no"?>
<!DOCTYPE svg PUBLIC "-//W3C//DTD SVG 1.1//EN"
 "http://www.w3.org/Graphics/SVG/1.1/DTD/svg11.dtd">
<!-- Generated by graphviz version 7.0.0 (20221023.0053)
 -->
<!-- Title: G Pages: 1 -->
<svg width="889pt" height="542pt"
 viewBox="0.00 0.00 889.00 542.00" xmlns="http://www.w3.org/2000/svg" xmlns:xlink="http://www.w3.org/1999/xlink">
<g id="graph0" class="graph" transform="scale(1 1) rotate(0) translate(4 538)">
<title>G</title>
<polygon fill="white" stroke="none" points="-4,4 -4,-538 885,-538 885,4 -4,4"/>
<g id="clust1" class="cluster">
<title>cluster_string</title>
<polygon fill="none" stroke="black" points="159,-415 159,-490 239,-490 239,-415 159,-415"/>
<text text-anchor="middle" x="199" y="-474.8" font-family="Times,serif" font-size="14.00">string</text>
</g>
<g id="clust2" class="cluster">
<title>cluster_error</title>
<polygon fill="none" stroke="black" points="8,-174 8,-332 170,-332 170,-174 8,-174"/>
<text text-anchor="middle" x="89" y="-316.8" font-family="Times,serif" font-size="14.00">error</text>
</g>
<g id="clust3" class="cluster">
<title>cluster_simple_map</title>
<polygon fill="none" stroke="black" points="279,-257 279,-407 431,-407 431,-257 279,-257"/>
<text text-anchor="middle" x="355" y="-391.8" font-family="Times,serif" font-size="14.00">simple_map</text>
</g>
<g id="clust4" class="cluster">
<title>cluster_option</title>
<polygon fill="none" stroke="black" points="178,-91 178,-249 509,-249 509,-91 178,-91"/>
<text text-anchor="middle" x="343.5" y="-233.8" font-family="Times,serif" font-size="14.00">option</text>
</g>
<g id="clust5" class="cluster">
<title>cluster_vector</title>
<polygon fill="none" stroke="black" points="241,-8 241,-83 448,-83 448,-8 241,-8"/>
<text text-anchor="middle" x="344.5" y="-67.8" font-family="Times,serif" font-size="14.00">vector</text>
</g>
<g id="clust6" class="cluster">
<title>cluster_comparator</title>
<polygon fill="none" stroke="black" points="517,-91 517,-249 769,-249 769,-91 517,-91"/>
<text text-anchor="middle" x="643" y="-233.8" font-family="Times,serif" font-size="14.00">comparator</text>
</g>
<g id="clust7" class="cluster">
<title>cluster_bcs</title>
<polygon fill="none" stroke="black" points="777,-91 777,-166 873,-166 873,-91 777,-91"/>
<text text-anchor="middle" x="825" y="-150.8" font-family="Times,serif" font-size="14.00">bcs</text>
</g>
<!-- new -->
<g id="node1" class="node">
<title>new</title>
<ellipse fill="none" stroke="black" cx="282" cy="-516" rx="27" ry="18"/>
<text text-anchor="middle" x="282" y="-512.3" font-family="Times,serif" font-size="14.00">new</text>
</g>
<!-- string::length -->
<g id="node2" class="node">
<title>string::length</title>
<ellipse fill="none" stroke="black" cx="199" cy="-441" rx="32.49" ry="18"/>
<text text-anchor="middle" x="199" y="-437.3" font-family="Times,serif" font-size="14.00">length</text>
</g>
<!-- new&#45;&gt;string::length -->
<g id="edge1" class="edge">
<title>new&#45;&gt;string::length</title>
<path fill="none" stroke="black" d="M262.61,-503.03C256.77,-499.12 250.45,-494.6 245,-490 236.32,-482.68 227.51,-473.89 219.96,-465.85"/>
<polygon fill="black" stroke="black" points="222.69,-463.64 213.35,-458.64 217.53,-468.37 222.69,-463.64"/>
</g>
<!-- error::invalid_argument -->
<g id="node3" class="node">
<title>error::invalid_argument</title>
<ellipse fill="none" stroke="black" cx="89" cy="-283" rx="73.39" ry="18"/>
<text text-anchor="middle" x="89" y="-279.3" font-family="Times,serif" font-size="14.00">invalid_argument</text>
</g>
<!-- new&#45;&gt;error::invalid_argument -->
<g id="edge2" class="edge">
<title>new&#45;&gt;error::invalid_argument</title>
<path fill="none" stroke="black" d="M278.07,-497.83C272.68,-476.85 261.49,-440.96 243,-415 210.52,-369.4 158.73,-329.77 124.3,-306.37"/>
<polygon fill="black" stroke="black" points="126.6,-303.69 116.34,-301.05 122.71,-309.51 126.6,-303.69"/>
</g>
<!-- simple_map::add -->
<g id="node4" class="node">
<title>simple_map::add</title>
<ellipse fill="none" stroke="black" cx="314" cy="-358" rx="27" ry="18"/>
<text text-anchor="middle" x="314" y="-354.3" font-family="Times,serif" font-size="14.00">add</text>
</g>
<!-- new&#45;&gt;simple_map::add -->
<g id="edge3" class="edge">
<title>new&#45;&gt;simple_map::add</title>
<path fill="none" stroke="black" d="M285.55,-497.71C291.05,-470.86 301.71,-418.9 308.31,-386.76"/>
<polygon fill="black" stroke="black" points="311.65,-387.88 310.23,-377.38 304.79,-386.47 311.65,-387.88"/>
</g>
<!-- empty -->
<g id="node5" class="node">
<title>empty</title>
<ellipse fill="none" stroke="black" cx="378" cy="-441" rx="33.29" ry="18"/>
<text text-anchor="middle" x="378" y="-437.3" font-family="Times,serif" font-size="14.00">empty</text>
</g>
<!-- new&#45;&gt;empty -->
<g id="edge4" class="edge">
<title>new&#45;&gt;empty</title>
<path fill="none" stroke="black" d="M300.67,-502.85C306.61,-498.87 313.15,-494.34 319,-490 330.04,-481.8 341.86,-472.33 352,-463.98"/>
<polygon fill="black" stroke="black" points="354.15,-466.75 359.6,-457.66 349.68,-461.36 354.15,-466.75"/>
</g>
<!-- error::canonical -->
<g id="node6" class="node">
<title>error::canonical</title>
<ellipse fill="none" stroke="black" cx="89" cy="-200" rx="44.39" ry="18"/>
<text text-anchor="middle" x="89" y="-196.3" font-family="Times,serif" font-size="14.00">canonical</text>
</g>
<!-- error::invalid_argument&#45;&gt;error::canonical -->
<g id="edge5" class="edge">
<title>error::invalid_argument&#45;&gt;error::canonical</title>
<path fill="none" stroke="black" d="M89,-264.82C89,-254.69 89,-241.6 89,-229.92"/>
<polygon fill="black" stroke="black" points="92.5,-229.95 89,-219.95 85.5,-229.95 92.5,-229.95"/>
</g>
<!-- simple_map::add&#45;&gt;error::invalid_argument -->
<g id="edge8" class="edge">
<title>simple_map::add&#45;&gt;error::invalid_argument</title>
<path fill="none" stroke="black" d="M292.17,-347C286.05,-344.46 279.34,-341.91 273,-340 255.22,-334.64 249.95,-336.74 232,-332 200.62,-323.71 166.11,-312.2 138.86,-302.53"/>
<polygon fill="black" stroke="black" points="140.05,-299.24 129.46,-299.16 137.69,-305.83 140.05,-299.24"/>
</g>
<!-- option::extract -->
<g id="node7" class="node">
<title>option::extract</title>
<ellipse fill="none" stroke="black" cx="220" cy="-200" rx="34.39" ry="18"/>
<text text-anchor="middle" x="220" y="-196.3" font-family="Times,serif" font-size="14.00">extract</text>
</g>
<!-- simple_map::add&#45;&gt;option::extract -->
<g id="edge6" class="edge">
<title>simple_map::add&#45;&gt;option::extract</title>
<path fill="none" stroke="black" d="M304.29,-340.89C288.04,-313.92 255.18,-259.38 235.63,-226.95"/>
<polygon fill="black" stroke="black" points="238.73,-225.31 230.57,-218.55 232.74,-228.92 238.73,-225.31"/>
</g>
<!-- option::is_none -->
<g id="node8" class="node">
<title>option::is_none</title>
<ellipse fill="none" stroke="black" cx="311" cy="-200" rx="38.19" ry="18"/>
<text text-anchor="middle" x="311" y="-196.3" font-family="Times,serif" font-size="14.00">is_none</text>
</g>
<!-- simple_map::add&#45;&gt;option::is_none -->
<g id="edge7" class="edge">
<title>simple_map::add&#45;&gt;option::is_none</title>
<path fill="none" stroke="black" d="M313.67,-339.71C313.16,-313.12 312.17,-261.9 311.55,-229.69"/>
<polygon fill="black" stroke="black" points="315.05,-229.81 311.36,-219.88 308.06,-229.95 315.05,-229.81"/>
</g>
<!-- simple_map::find -->
<g id="node9" class="node">
<title>simple_map::find</title>
<ellipse fill="none" stroke="black" cx="396" cy="-283" rx="27" ry="18"/>
<text text-anchor="middle" x="396" y="-279.3" font-family="Times,serif" font-size="14.00">find</text>
</g>
<!-- simple_map::add&#45;&gt;simple_map::find -->
<g id="edge9" class="edge">
<title>simple_map::add&#45;&gt;simple_map::find</title>
<path fill="none" stroke="black" d="M329.81,-342.92C341.72,-332.32 358.26,-317.59 371.83,-305.52"/>
<polygon fill="black" stroke="black" points="373.97,-308.3 379.11,-299.04 369.31,-303.07 373.97,-308.3"/>
</g>
<!-- simple_map::create -->
<g id="node10" class="node">
<title>simple_map::create</title>
<ellipse fill="none" stroke="black" cx="391" cy="-358" rx="31.7" ry="18"/>
<text text-anchor="middle" x="391" y="-354.3" font-family="Times,serif" font-size="14.00">create</text>
</g>
<!-- empty&#45;&gt;simple_map::create -->
<g id="edge10" class="edge">
<title>empty&#45;&gt;simple_map::create</title>
<path fill="none" stroke="black" d="M380.76,-422.82C382.41,-412.51 384.56,-399.14 386.46,-387.31"/>
<polygon fill="black" stroke="black" points="389.88,-388.08 388.01,-377.65 382.97,-386.97 389.88,-388.08"/>
</g>
<!-- option::is_some -->
<g id="node11" class="node">
<title>option::is_some</title>
<ellipse fill="none" stroke="black" cx="231" cy="-117" rx="40.09" ry="18"/>
<text text-anchor="middle" x="231" y="-113.3" font-family="Times,serif" font-size="14.00">is_some</text>
</g>
<!-- option::extract&#45;&gt;option::is_some -->
<g id="edge11" class="edge">
<title>option::extract&#45;&gt;option::is_some</title>
<path fill="none" stroke="black" d="M222.33,-181.82C223.72,-171.58 225.52,-158.33 227.12,-146.55"/>
<polygon fill="black" stroke="black" points="230.55,-147.31 228.43,-136.93 223.62,-146.37 230.55,-147.31"/>
</g>
<!-- vector::is_empty -->
<g id="node12" class="node">
<title>vector::is_empty</title>
<ellipse fill="none" stroke="black" cx="293" cy="-34" rx="43.59" ry="18"/>
<text text-anchor="middle" x="293" y="-30.3" font-family="Times,serif" font-size="14.00">is_empty</text>
</g>
<!-- option::is_none&#45;&gt;vector::is_empty -->
<g id="edge12" class="edge">
<title>option::is_none&#45;&gt;vector::is_empty</title>
<path fill="none" stroke="black" d="M309.11,-181.76C306.01,-153.51 299.82,-97.11 296.08,-63.04"/>
<polygon fill="black" stroke="black" points="299.6,-63.07 295.03,-53.51 292.64,-63.84 299.6,-63.07"/>
</g>
<!-- option::none -->
<g id="node13" class="node">
<title>option::none</title>
<ellipse fill="none" stroke="black" cx="473" cy="-200" rx="27.9" ry="18"/>
<text text-anchor="middle" x="473" y="-196.3" font-family="Times,serif" font-size="14.00">none</text>
</g>
<!-- simple_map::find&#45;&gt;option::none -->
<g id="edge13" class="edge">
<title>simple_map::find&#45;&gt;option::none</title>
<path fill="none" stroke="black" d="M413.47,-268.99C420.76,-263.21 429.11,-256.12 436,-249 442.79,-241.98 449.52,-233.74 455.34,-226.09"/>
<polygon fill="black" stroke="black" points="458.14,-228.19 461.27,-218.07 452.51,-224.03 458.14,-228.19"/>
</g>
<!-- option::some -->
<g id="node14" class="node">
<title>option::some</title>
<ellipse fill="none" stroke="black" cx="397" cy="-200" rx="29.8" ry="18"/>
<text text-anchor="middle" x="397" y="-196.3" font-family="Times,serif" font-size="14.00">some</text>
</g>
<!-- simple_map::find&#45;&gt;option::some -->
<g id="edge14" class="edge">
<title>simple_map::find&#45;&gt;option::some</title>
<path fill="none" stroke="black" d="M396.21,-264.82C396.34,-254.69 396.5,-241.6 396.64,-229.92"/>
<polygon fill="black" stroke="black" points="400.14,-229.99 396.77,-219.95 393.14,-229.9 400.14,-229.99"/>
</g>
<!-- comparator::compare -->
<g id="node15" class="node">
<title>comparator::compare</title>
<ellipse fill="none" stroke="black" cx="719" cy="-200" rx="41.69" ry="18"/>
<text text-anchor="middle" x="719" y="-196.3" font-family="Times,serif" font-size="14.00">compare</text>
</g>
<!-- simple_map::find&#45;&gt;comparator::compare -->
<g id="edge15" class="edge">
<title>simple_map::find&#45;&gt;comparator::compare</title>
<path fill="none" stroke="black" d="M423.17,-280.85C483.14,-277.97 624.92,-269.17 668,-249 679.68,-243.53 690.44,-234.35 699.04,-225.47"/>
<polygon fill="black" stroke="black" points="701.41,-228.06 705.55,-218.31 696.24,-223.35 701.41,-228.06"/>
</g>
<!-- comparator::is_smaller_than -->
<g id="node16" class="node">
<title>comparator::is_smaller_than</title>
<ellipse fill="none" stroke="black" cx="592" cy="-200" rx="66.89" ry="18"/>
<text text-anchor="middle" x="592" y="-196.3" font-family="Times,serif" font-size="14.00">is_smaller_than</text>
</g>
<!-- simple_map::find&#45;&gt;comparator::is_smaller_than -->
<g id="edge16" class="edge">
<title>simple_map::find&#45;&gt;comparator::is_smaller_than</title>
<path fill="none" stroke="black" d="M421.79,-276.84C445.97,-271.52 482.81,-262.14 513,-249 528.99,-242.04 545.63,-232.35 559.5,-223.49"/>
<polygon fill="black" stroke="black" points="561.33,-226.47 567.78,-218.07 557.5,-220.61 561.33,-226.47"/>
</g>
<!-- option::is_some&#45;&gt;vector::is_empty -->
<g id="edge17" class="edge">
<title>option::is_some&#45;&gt;vector::is_empty</title>
<path fill="none" stroke="black" d="M243.55,-99.61C252.15,-88.37 263.72,-73.25 273.51,-60.46"/>
<polygon fill="black" stroke="black" points="276.04,-62.92 279.34,-52.85 270.48,-58.66 276.04,-62.92"/>
</g>
<!-- vector::singleton -->
<g id="node17" class="node">
<title>vector::singleton</title>
<ellipse fill="none" stroke="black" cx="397" cy="-34" rx="42.79" ry="18"/>
<text text-anchor="middle" x="397" y="-30.3" font-family="Times,serif" font-size="14.00">singleton</text>
</g>
<!-- option::some&#45;&gt;vector::singleton -->
<g id="edge18" class="edge">
<title>option::some&#45;&gt;vector::singleton</title>
<path fill="none" stroke="black" d="M397,-181.76C397,-153.63 397,-97.6 397,-63.49"/>
<polygon fill="black" stroke="black" points="400.5,-63.52 397,-53.52 393.5,-63.52 400.5,-63.52"/>
</g>
<!-- bcs::to_bytes -->
<g id="node18" class="node">
<title>bcs::to_bytes</title>
<ellipse fill="none" stroke="black" cx="825" cy="-117" rx="40.09" ry="18"/>
<text text-anchor="middle" x="825" y="-113.3" font-family="Times,serif" font-size="14.00">to_bytes</text>
</g>
<!-- comparator::compare&#45;&gt;bcs::to_bytes -->
<g id="edge19" class="edge">
<title>comparator::compare&#45;&gt;bcs::to_bytes</title>
<path fill="none" stroke="black" d="M743.86,-185.2C753.26,-179.63 763.88,-172.89 773,-166 782.71,-158.67 792.68,-149.83 801.27,-141.74"/>
<polygon fill="black" stroke="black" points="803.45,-144.5 808.24,-135.04 798.6,-139.45 803.45,-144.5"/>
</g>
<!-- comparator::compare_u8_vector -->
<g id="node19" class="node">
<title>comparator::compare_u8_vector</title>
<ellipse fill="none" stroke="black" cx="680" cy="-117" rx="81.49" ry="18"/>
<text text-anchor="middle" x="680" y="-113.3" font-family="Times,serif" font-size="14.00">compare_u8_vector</text>
</g>
<!-- comparator::compare&#45;&gt;comparator::compare_u8_vector -->
<g id="edge20" class="edge">
<title>comparator::compare&#45;&gt;comparator::compare_u8_vector</title>
<path fill="none" stroke="black" d="M710.92,-182.22C705.81,-171.61 699.09,-157.65 693.22,-145.45"/>
<polygon fill="black" stroke="black" points="696.49,-144.18 689,-136.68 690.18,-147.21 696.49,-144.18"/>
</g>
</g>
</svg>
