<?xml version="1.0" encoding="UTF-8" standalone="no"?>
<!DOCTYPE svg PUBLIC "-//W3C//DTD SVG 1.1//EN"
 "http://www.w3.org/Graphics/SVG/1.1/DTD/svg11.dtd">
<!-- Generated by graphviz version 7.0.0 (20221023.0053)
 -->
<!-- Title: G Pages: 1 -->
<svg width="472pt" height="299pt"
 viewBox="0.00 0.00 472.00 299.00" xmlns="http://www.w3.org/2000/svg" xmlns:xlink="http://www.w3.org/1999/xlink">
<g id="graph0" class="graph" transform="scale(1 1) rotate(0) translate(4 295)">
<title>G</title>
<polygon fill="white" stroke="none" points="-4,4 -4,-295 468,-295 468,4 -4,4"/>
<g id="clust1" class="cluster">
<title>cluster_token</title>
<polygon fill="none" stroke="black" points="8,-64 8,-283 456,-283 456,-64 8,-64"/>
<text text-anchor="middle" x="232" y="-267.8" font-family="Times,serif" font-size="14.00">token</text>
</g>
<!-- update_property_map -->
<g id="node1" class="node">
<title>update_property_map</title>
<ellipse fill="none" stroke="black" cx="245" cy="-18" rx="88.28" ry="18"/>
<text text-anchor="middle" x="245" y="-14.3" font-family="Times,serif" font-size="14.00">update_property_map</text>
</g>
<!-- token::mutate_tokendata_property -->
<g id="node2" class="node">
<title>token::mutate_tokendata_property</title>
<ellipse fill="none" stroke="black" cx="340" cy="-234" rx="107.78" ry="18"/>
<text text-anchor="middle" x="340" y="-230.3" font-family="Times,serif" font-size="14.00">mutate_tokendata_property</text>
</g>
<!-- token::mutate_tokendata_property&#45;&gt;update_property_map -->
<g id="edge1" class="edge">
<title>token::mutate_tokendata_property&#45;&gt;update_property_map</title>
<path fill="none" stroke="black" d="M338.82,-215.64C335.94,-183.49 326.41,-113.46 296,-64 291.26,-56.29 284.79,-49.16 278.04,-42.96"/>
<polygon fill="black" stroke="black" points="280.49,-40.45 270.62,-36.61 275.94,-45.77 280.49,-40.45"/>
</g>
<!-- token::update_token_property_internal -->
<g id="node3" class="node">
<title>token::update_token_property_internal</title>
<ellipse fill="none" stroke="black" cx="164" cy="-90" rx="123.48" ry="18"/>
<text text-anchor="middle" x="164" y="-86.3" font-family="Times,serif" font-size="14.00">update_token_property_internal</text>
</g>
<!-- token::update_token_property_internal&#45;&gt;update_property_map -->
<g id="edge2" class="edge">
<title>token::update_token_property_internal&#45;&gt;update_property_map</title>
<path fill="none" stroke="black" d="M183.61,-72.05C193.58,-63.43 205.89,-52.8 216.85,-43.32"/>
<polygon fill="black" stroke="black" points="218.87,-46.21 224.15,-37.02 214.29,-40.91 218.87,-46.21"/>
</g>
<!-- token::mutate_one_token -->
<g id="node4" class="node">
<title>token::mutate_one_token</title>
<ellipse fill="none" stroke="black" cx="139" cy="-162" rx="76.09" ry="18"/>
<text text-anchor="middle" x="139" y="-158.3" font-family="Times,serif" font-size="14.00">mutate_one_token</text>
</g>
<!-- token::mutate_one_token&#45;&gt;token::update_token_property_internal -->
<g id="edge3" class="edge">
<title>token::mutate_one_token&#45;&gt;token::update_token_property_internal</title>
<path fill="none" stroke="black" d="M145.18,-143.7C147.87,-136.15 151.1,-127.12 154.11,-118.68"/>
<polygon fill="black" stroke="black" points="157.31,-120.12 157.38,-109.53 150.72,-117.77 157.31,-120.12"/>
</g>
<!-- token::mutate_token_properties -->
<g id="node5" class="node">
<title>token::mutate_token_properties</title>
<ellipse fill="none" stroke="black" cx="115" cy="-234" rx="98.58" ry="18"/>
<text text-anchor="middle" x="115" y="-230.3" font-family="Times,serif" font-size="14.00">mutate_token_properties</text>
</g>
<!-- token::mutate_token_properties&#45;&gt;token::mutate_one_token -->
<g id="edge4" class="edge">
<title>token::mutate_token_properties&#45;&gt;token::mutate_one_token</title>
<path fill="none" stroke="black" d="M120.93,-215.7C123.49,-208.24 126.55,-199.32 129.41,-190.97"/>
<polygon fill="black" stroke="black" points="132.71,-192.13 132.64,-181.54 126.09,-189.86 132.71,-192.13"/>
</g>
</g>
</svg>
