<?xml version="1.0" encoding="UTF-8" standalone="no"?>
<!DOCTYPE svg PUBLIC "-//W3C//DTD SVG 1.1//EN"
 "http://www.w3.org/Graphics/SVG/1.1/DTD/svg11.dtd">
<!-- Generated by graphviz version 7.0.0 (20221023.0053)
 -->
<!-- Title: G Pages: 1 -->
<svg width="979pt" height="614pt"
 viewBox="0.00 0.00 979.27 614.00" xmlns="http://www.w3.org/2000/svg" xmlns:xlink="http://www.w3.org/1999/xlink">
<g id="graph0" class="graph" transform="scale(1 1) rotate(0) translate(4 610)">
<title>G</title>
<polygon fill="white" stroke="none" points="-4,4 -4,-610 975.27,-610 975.27,4 -4,4"/>
<g id="clust1" class="cluster">
<title>cluster_string</title>
<polygon fill="none" stroke="black" points="100,-415 100,-562 278,-562 278,-415 100,-415"/>
<text text-anchor="middle" x="189" y="-546.8" font-family="Times,serif" font-size="14.00">string</text>
</g>
<g id="clust2" class="cluster">
<title>cluster_error</title>
<polygon fill="none" stroke="black" points="8,-174 8,-332 300,-332 300,-174 8,-174"/>
<text text-anchor="middle" x="154" y="-316.8" font-family="Times,serif" font-size="14.00">error</text>
</g>
<g id="clust3" class="cluster">
<title>cluster_from_bcs</title>
<polygon fill="none" stroke="black" points="286,-415 286,-562 404,-562 404,-415 286,-415"/>
<text text-anchor="middle" x="345" y="-546.8" font-family="Times,serif" font-size="14.00">from_bcs</text>
</g>
<g id="clust4" class="cluster">
<title>cluster_simple_map</title>
<polygon fill="none" stroke="black" points="666,-257 666,-407 887,-407 887,-257 666,-257"/>
<text text-anchor="middle" x="776.5" y="-391.8" font-family="Times,serif" font-size="14.00">simple_map</text>
</g>
<g id="clust5" class="cluster">
<title>cluster_option</title>
<polygon fill="none" stroke="black" points="672,-91 672,-249 908,-249 908,-91 672,-91"/>
<text text-anchor="middle" x="790" y="-233.8" font-family="Times,serif" font-size="14.00">option</text>
</g>
<g id="clust6" class="cluster">
<title>cluster_vector</title>
<polygon fill="none" stroke="black" points="690,-8 690,-83 897,-83 897,-8 690,-8"/>
<text text-anchor="middle" x="793.5" y="-67.8" font-family="Times,serif" font-size="14.00">vector</text>
</g>
<g id="clust7" class="cluster">
<title>cluster_comparator</title>
<polygon fill="none" stroke="black" points="308,-91 308,-249 560,-249 560,-91 308,-91"/>
<text text-anchor="middle" x="434" y="-233.8" font-family="Times,serif" font-size="14.00">comparator</text>
</g>
<g id="clust8" class="cluster">
<title>cluster_bcs</title>
<polygon fill="none" stroke="black" points="568,-91 568,-166 664,-166 664,-91 568,-91"/>
<text text-anchor="middle" x="616" y="-150.8" font-family="Times,serif" font-size="14.00">bcs</text>
</g>
<!-- read_u128 -->
<g id="node1" class="node">
<title>read_u128</title>
<ellipse fill="none" stroke="black" cx="389" cy="-588" rx="48.19" ry="18"/>
<text text-anchor="middle" x="389" y="-584.3" font-family="Times,serif" font-size="14.00">read_u128</text>
</g>
<!-- string::utf8 -->
<g id="node2" class="node">
<title>string::utf8</title>
<ellipse fill="none" stroke="black" cx="216" cy="-513" rx="27" ry="18"/>
<text text-anchor="middle" x="216" y="-509.3" font-family="Times,serif" font-size="14.00">utf8</text>
</g>
<!-- read_u128&#45;&gt;string::utf8 -->
<g id="edge1" class="edge">
<title>read_u128&#45;&gt;string::utf8</title>
<path fill="none" stroke="black" d="M344.49,-580.71C324.75,-576.89 301.6,-570.97 282,-562 267.16,-555.21 252.31,-544.81 240.46,-535.42"/>
<polygon fill="black" stroke="black" points="242.79,-532.8 232.84,-529.16 238.35,-538.21 242.79,-532.8"/>
</g>
<!-- error::invalid_state -->
<g id="node3" class="node">
<title>error::invalid_state</title>
<ellipse fill="none" stroke="black" cx="72" cy="-283" rx="55.79" ry="18"/>
<text text-anchor="middle" x="72" y="-279.3" font-family="Times,serif" font-size="14.00">invalid_state</text>
</g>
<!-- read_u128&#45;&gt;error::invalid_state -->
<g id="edge2" class="edge">
<title>read_u128&#45;&gt;error::invalid_state</title>
<path fill="none" stroke="black" d="M403.7,-570.65C405.46,-567.92 406.99,-565 408,-562 428.86,-500.09 446.85,-467.53 408,-415 333.1,-313.72 249.5,-388.67 137,-332 123.79,-325.34 110.43,-316.02 99.29,-307.37"/>
<polygon fill="black" stroke="black" points="101.67,-304.79 91.68,-301.27 97.29,-310.26 101.67,-304.79"/>
</g>
<!-- from_bcs::to_u128 -->
<g id="node4" class="node">
<title>from_bcs::to_u128</title>
<ellipse fill="none" stroke="black" cx="350" cy="-513" rx="39.79" ry="18"/>
<text text-anchor="middle" x="350" y="-509.3" font-family="Times,serif" font-size="14.00">to_u128</text>
</g>
<!-- read_u128&#45;&gt;from_bcs::to_u128 -->
<g id="edge3" class="edge">
<title>read_u128&#45;&gt;from_bcs::to_u128</title>
<path fill="none" stroke="black" d="M379.95,-570.07C375.33,-561.41 369.59,-550.66 364.37,-540.9"/>
<polygon fill="black" stroke="black" points="367.51,-539.35 359.71,-532.17 361.33,-542.64 367.51,-539.35"/>
</g>
<!-- borrow -->
<g id="node5" class="node">
<title>borrow</title>
<ellipse fill="none" stroke="black" cx="710" cy="-513" rx="36.29" ry="18"/>
<text text-anchor="middle" x="710" y="-509.3" font-family="Times,serif" font-size="14.00">borrow</text>
</g>
<!-- read_u128&#45;&gt;borrow -->
<g id="edge4" class="edge">
<title>read_u128&#45;&gt;borrow</title>
<path fill="none" stroke="black" d="M429.33,-577.83C489.88,-564.06 603.84,-538.14 666.31,-523.94"/>
<polygon fill="black" stroke="black" points="666.9,-527.39 675.87,-521.76 665.34,-520.57 666.9,-527.39"/>
</g>
<!-- string::internal_check_utf8 -->
<g id="node6" class="node">
<title>string::internal_check_utf8</title>
<ellipse fill="none" stroke="black" cx="189" cy="-441" rx="81.49" ry="18"/>
<text text-anchor="middle" x="189" y="-437.3" font-family="Times,serif" font-size="14.00">internal_check_utf8</text>
</g>
<!-- string::utf8&#45;&gt;string::internal_check_utf8 -->
<g id="edge5" class="edge">
<title>string::utf8&#45;&gt;string::internal_check_utf8</title>
<path fill="none" stroke="black" d="M209.46,-495.05C206.56,-487.52 203.05,-478.44 199.78,-469.94"/>
<polygon fill="black" stroke="black" points="203.07,-468.76 196.21,-460.69 196.54,-471.28 203.07,-468.76"/>
</g>
<!-- error::canonical -->
<g id="node7" class="node">
<title>error::canonical</title>
<ellipse fill="none" stroke="black" cx="145" cy="-200" rx="44.39" ry="18"/>
<text text-anchor="middle" x="145" y="-196.3" font-family="Times,serif" font-size="14.00">canonical</text>
</g>
<!-- error::invalid_state&#45;&gt;error::canonical -->
<g id="edge6" class="edge">
<title>error::invalid_state&#45;&gt;error::canonical</title>
<path fill="none" stroke="black" d="M87.13,-265.22C97.44,-253.77 111.27,-238.42 122.83,-225.6"/>
<polygon fill="black" stroke="black" points="125.28,-228.1 129.38,-218.33 120.08,-223.42 125.28,-228.1"/>
</g>
<!-- from_bcs::from_bytes -->
<g id="node8" class="node">
<title>from_bcs::from_bytes</title>
<ellipse fill="none" stroke="black" cx="345" cy="-441" rx="51.19" ry="18"/>
<text text-anchor="middle" x="345" y="-437.3" font-family="Times,serif" font-size="14.00">from_bytes</text>
</g>
<!-- from_bcs::to_u128&#45;&gt;from_bcs::from_bytes -->
<g id="edge7" class="edge">
<title>from_bcs::to_u128&#45;&gt;from_bcs::from_bytes</title>
<path fill="none" stroke="black" d="M348.76,-494.7C348.24,-487.41 347.62,-478.73 347.04,-470.54"/>
<polygon fill="black" stroke="black" points="350.53,-470.34 346.33,-460.61 343.55,-470.84 350.53,-470.34"/>
</g>
<!-- simple_map::borrow -->
<g id="node9" class="node">
<title>simple_map::borrow</title>
<ellipse fill="none" stroke="black" cx="710" cy="-358" rx="36.29" ry="18"/>
<text text-anchor="middle" x="710" y="-354.3" font-family="Times,serif" font-size="14.00">borrow</text>
</g>
<!-- borrow&#45;&gt;simple_map::borrow -->
<g id="edge8" class="edge">
<title>borrow&#45;&gt;simple_map::borrow</title>
<path fill="none" stroke="black" d="M710,-494.75C710,-468.81 710,-419.44 710,-387.93"/>
<polygon fill="black" stroke="black" points="713.5,-387.94 710,-377.94 706.5,-387.94 713.5,-387.94"/>
</g>
<!-- contains_key -->
<g id="node10" class="node">
<title>contains_key</title>
<ellipse fill="none" stroke="black" cx="808" cy="-441" rx="57.39" ry="18"/>
<text text-anchor="middle" x="808" y="-437.3" font-family="Times,serif" font-size="14.00">contains_key</text>
</g>
<!-- borrow&#45;&gt;contains_key -->
<g id="edge9" class="edge">
<title>borrow&#45;&gt;contains_key</title>
<path fill="none" stroke="black" d="M729.83,-497.83C743.26,-488.24 761.29,-475.36 776.65,-464.39"/>
<polygon fill="black" stroke="black" points="778.47,-467.39 784.57,-458.73 774.4,-461.7 778.47,-467.39"/>
</g>
<!-- option::extract -->
<g id="node11" class="node">
<title>option::extract</title>
<ellipse fill="none" stroke="black" cx="866" cy="-200" rx="34.39" ry="18"/>
<text text-anchor="middle" x="866" y="-196.3" font-family="Times,serif" font-size="14.00">extract</text>
</g>
<!-- simple_map::borrow&#45;&gt;option::extract -->
<g id="edge10" class="edge">
<title>simple_map::borrow&#45;&gt;option::extract</title>
<path fill="none" stroke="black" d="M731.51,-343.19C736.43,-339.73 741.52,-335.89 746,-332 784.71,-298.39 823.74,-253.2 846.36,-225.64"/>
<polygon fill="black" stroke="black" points="848.82,-228.15 852.42,-218.18 843.39,-223.73 848.82,-228.15"/>
</g>
<!-- option::is_some -->
<g id="node12" class="node">
<title>option::is_some</title>
<ellipse fill="none" stroke="black" cx="860" cy="-117" rx="40.09" ry="18"/>
<text text-anchor="middle" x="860" y="-113.3" font-family="Times,serif" font-size="14.00">is_some</text>
</g>
<!-- simple_map::borrow&#45;&gt;option::is_some -->
<g id="edge11" class="edge">
<title>simple_map::borrow&#45;&gt;option::is_some</title>
<path fill="none" stroke="black" d="M737.51,-346.06C743.54,-343.88 749.94,-341.73 756,-340 773.01,-335.14 778.81,-339.15 795,-332 852.33,-306.68 880.57,-304.86 909,-249 924.12,-219.29 920.72,-205.2 909,-174 904.37,-161.69 895.67,-150.31 886.88,-141.07"/>
<polygon fill="black" stroke="black" points="889.55,-138.79 879.96,-134.28 884.64,-143.78 889.55,-138.79"/>
</g>
<!-- error::invalid_argument -->
<g id="node13" class="node">
<title>error::invalid_argument</title>
<ellipse fill="none" stroke="black" cx="219" cy="-283" rx="73.39" ry="18"/>
<text text-anchor="middle" x="219" y="-279.3" font-family="Times,serif" font-size="14.00">invalid_argument</text>
</g>
<!-- simple_map::borrow&#45;&gt;error::invalid_argument -->
<g id="edge12" class="edge">
<title>simple_map::borrow&#45;&gt;error::invalid_argument</title>
<path fill="none" stroke="black" d="M675.47,-351.87C596.07,-340.06 399.1,-310.78 291.68,-294.81"/>
<polygon fill="black" stroke="black" points="292.21,-291.35 281.8,-293.34 291.18,-298.27 292.21,-291.35"/>
</g>
<!-- simple_map::find -->
<g id="node14" class="node">
<title>simple_map::find</title>
<ellipse fill="none" stroke="black" cx="710" cy="-283" rx="27" ry="18"/>
<text text-anchor="middle" x="710" y="-279.3" font-family="Times,serif" font-size="14.00">find</text>
</g>
<!-- simple_map::borrow&#45;&gt;simple_map::find -->
<g id="edge13" class="edge">
<title>simple_map::borrow&#45;&gt;simple_map::find</title>
<path fill="none" stroke="black" d="M710,-339.7C710,-331.67 710,-321.9 710,-312.8"/>
<polygon fill="black" stroke="black" points="713.5,-312.94 710,-302.94 706.5,-312.94 713.5,-312.94"/>
</g>
<!-- simple_map::contains_key -->
<g id="node15" class="node">
<title>simple_map::contains_key</title>
<ellipse fill="none" stroke="black" cx="822" cy="-358" rx="57.39" ry="18"/>
<text text-anchor="middle" x="822" y="-354.3" font-family="Times,serif" font-size="14.00">contains_key</text>
</g>
<!-- contains_key&#45;&gt;simple_map::contains_key -->
<g id="edge14" class="edge">
<title>contains_key&#45;&gt;simple_map::contains_key</title>
<path fill="none" stroke="black" d="M810.97,-422.82C812.74,-412.58 815.03,-399.33 817.07,-387.55"/>
<polygon fill="black" stroke="black" points="820.47,-388.37 818.73,-377.92 813.58,-387.18 820.47,-388.37"/>
</g>
<!-- option::extract&#45;&gt;option::is_some -->
<g id="edge15" class="edge">
<title>option::extract&#45;&gt;option::is_some</title>
<path fill="none" stroke="black" d="M864.73,-181.82C863.97,-171.58 862.99,-158.33 862.11,-146.55"/>
<polygon fill="black" stroke="black" points="865.63,-146.66 861.4,-136.94 858.65,-147.17 865.63,-146.66"/>
</g>
<!-- vector::is_empty -->
<g id="node16" class="node">
<title>vector::is_empty</title>
<ellipse fill="none" stroke="black" cx="845" cy="-34" rx="43.59" ry="18"/>
<text text-anchor="middle" x="845" y="-30.3" font-family="Times,serif" font-size="14.00">is_empty</text>
</g>
<!-- option::is_some&#45;&gt;vector::is_empty -->
<g id="edge16" class="edge">
<title>option::is_some&#45;&gt;vector::is_empty</title>
<path fill="none" stroke="black" d="M856.82,-98.82C854.92,-88.58 852.47,-75.33 850.29,-63.55"/>
<polygon fill="black" stroke="black" points="853.77,-63.12 848.5,-53.92 846.88,-64.39 853.77,-63.12"/>
</g>
<!-- error::invalid_argument&#45;&gt;error::canonical -->
<g id="edge17" class="edge">
<title>error::invalid_argument&#45;&gt;error::canonical</title>
<path fill="none" stroke="black" d="M203.67,-265.22C193.21,-253.77 179.19,-238.42 167.48,-225.6"/>
<polygon fill="black" stroke="black" points="170.16,-223.35 160.83,-218.33 164.99,-228.07 170.16,-223.35"/>
</g>
<!-- option::none -->
<g id="node17" class="node">
<title>option::none</title>
<ellipse fill="none" stroke="black" cx="786" cy="-200" rx="27.9" ry="18"/>
<text text-anchor="middle" x="786" y="-196.3" font-family="Times,serif" font-size="14.00">none</text>
</g>
<!-- simple_map::find&#45;&gt;option::none -->
<g id="edge18" class="edge">
<title>simple_map::find&#45;&gt;option::none</title>
<path fill="none" stroke="black" d="M727.01,-268.93C734.11,-263.14 742.26,-256.05 749,-249 755.75,-241.94 762.46,-233.69 768.29,-226.04"/>
<polygon fill="black" stroke="black" points="771.08,-228.14 774.22,-218.02 765.46,-223.98 771.08,-228.14"/>
</g>
<!-- option::some -->
<g id="node18" class="node">
<title>option::some</title>
<ellipse fill="none" stroke="black" cx="710" cy="-200" rx="29.8" ry="18"/>
<text text-anchor="middle" x="710" y="-196.3" font-family="Times,serif" font-size="14.00">some</text>
</g>
<!-- simple_map::find&#45;&gt;option::some -->
<g id="edge19" class="edge">
<title>simple_map::find&#45;&gt;option::some</title>
<path fill="none" stroke="black" d="M710,-264.82C710,-254.69 710,-241.6 710,-229.92"/>
<polygon fill="black" stroke="black" points="713.5,-229.95 710,-219.95 706.5,-229.95 713.5,-229.95"/>
</g>
<!-- comparator::compare -->
<g id="node19" class="node">
<title>comparator::compare</title>
<ellipse fill="none" stroke="black" cx="510" cy="-200" rx="41.69" ry="18"/>
<text text-anchor="middle" x="510" y="-196.3" font-family="Times,serif" font-size="14.00">compare</text>
</g>
<!-- simple_map::find&#45;&gt;comparator::compare -->
<g id="edge20" class="edge">
<title>simple_map::find&#45;&gt;comparator::compare</title>
<path fill="none" stroke="black" d="M687.45,-272.87C654.15,-259.38 591.36,-233.95 550.1,-217.24"/>
<polygon fill="black" stroke="black" points="551.58,-214.06 541,-213.55 548.95,-220.55 551.58,-214.06"/>
</g>
<!-- comparator::is_smaller_than -->
<g id="node20" class="node">
<title>comparator::is_smaller_than</title>
<ellipse fill="none" stroke="black" cx="383" cy="-200" rx="66.89" ry="18"/>
<text text-anchor="middle" x="383" y="-196.3" font-family="Times,serif" font-size="14.00">is_smaller_than</text>
</g>
<!-- simple_map::find&#45;&gt;comparator::is_smaller_than -->
<g id="edge21" class="edge">
<title>simple_map::find&#45;&gt;comparator::is_smaller_than</title>
<path fill="none" stroke="black" d="M682.73,-282.2C635.65,-281.73 536.7,-277.1 459,-249 442.7,-243.11 426.24,-233.29 412.83,-224.07"/>
<polygon fill="black" stroke="black" points="415.05,-221.36 404.88,-218.4 410.99,-227.06 415.05,-221.36"/>
</g>
<!-- simple_map::contains_key&#45;&gt;option::is_some -->
<g id="edge22" class="edge">
<title>simple_map::contains_key&#45;&gt;option::is_some</title>
<path fill="none" stroke="black" d="M876.86,-352.25C904.34,-348.62 933.54,-342.4 942,-332 986.3,-277.52 974.79,-236.1 942,-174 932.87,-156.7 915.72,-143.74 899.46,-134.67"/>
<polygon fill="black" stroke="black" points="901.37,-131.71 890.88,-130.21 898.14,-137.92 901.37,-131.71"/>
</g>
<!-- simple_map::contains_key&#45;&gt;simple_map::find -->
<g id="edge23" class="edge">
<title>simple_map::contains_key&#45;&gt;simple_map::find</title>
<path fill="none" stroke="black" d="M797.97,-341.34C780.51,-329.96 756.81,-314.51 738.41,-302.52"/>
<polygon fill="black" stroke="black" points="740.36,-299.61 730.07,-297.08 736.54,-305.47 740.36,-299.61"/>
</g>
<!-- vector::singleton -->
<g id="node21" class="node">
<title>vector::singleton</title>
<ellipse fill="none" stroke="black" cx="741" cy="-34" rx="42.79" ry="18"/>
<text text-anchor="middle" x="741" y="-30.3" font-family="Times,serif" font-size="14.00">singleton</text>
</g>
<!-- option::some&#45;&gt;vector::singleton -->
<g id="edge24" class="edge">
<title>option::some&#45;&gt;vector::singleton</title>
<path fill="none" stroke="black" d="M713.26,-181.76C718.6,-153.51 729.26,-97.11 735.7,-63.04"/>
<polygon fill="black" stroke="black" points="739.09,-63.97 737.5,-53.5 732.21,-62.67 739.09,-63.97"/>
</g>
<!-- bcs::to_bytes -->
<g id="node22" class="node">
<title>bcs::to_bytes</title>
<ellipse fill="none" stroke="black" cx="616" cy="-117" rx="40.09" ry="18"/>
<text text-anchor="middle" x="616" y="-113.3" font-family="Times,serif" font-size="14.00">to_bytes</text>
</g>
<!-- comparator::compare&#45;&gt;bcs::to_bytes -->
<g id="edge25" class="edge">
<title>comparator::compare&#45;&gt;bcs::to_bytes</title>
<path fill="none" stroke="black" d="M534.86,-185.2C544.26,-179.63 554.88,-172.89 564,-166 573.71,-158.67 583.68,-149.83 592.27,-141.74"/>
<polygon fill="black" stroke="black" points="594.45,-144.5 599.24,-135.04 589.6,-139.45 594.45,-144.5"/>
</g>
<!-- comparator::compare_u8_vector -->
<g id="node23" class="node">
<title>comparator::compare_u8_vector</title>
<ellipse fill="none" stroke="black" cx="471" cy="-117" rx="81.49" ry="18"/>
<text text-anchor="middle" x="471" y="-113.3" font-family="Times,serif" font-size="14.00">compare_u8_vector</text>
</g>
<!-- comparator::compare&#45;&gt;comparator::compare_u8_vector -->
<g id="edge26" class="edge">
<title>comparator::compare&#45;&gt;comparator::compare_u8_vector</title>
<path fill="none" stroke="black" d="M501.92,-182.22C496.81,-171.61 490.09,-157.65 484.22,-145.45"/>
<polygon fill="black" stroke="black" points="487.49,-144.18 480,-136.68 481.18,-147.21 487.49,-144.18"/>
</g>
</g>
</svg>
