<?xml version="1.0" encoding="UTF-8" standalone="no"?>
<!DOCTYPE svg PUBLIC "-//W3C//DTD SVG 1.1//EN"
 "http://www.w3.org/Graphics/SVG/1.1/DTD/svg11.dtd">
<!-- Generated by graphviz version 7.0.0 (20221023.0053)
 -->
<!-- Title: G Pages: 1 -->
<svg width="1210pt" height="539pt"
 viewBox="0.00 0.00 1210.00 539.00" xmlns="http://www.w3.org/2000/svg" xmlns:xlink="http://www.w3.org/1999/xlink">
<g id="graph0" class="graph" transform="scale(1 1) rotate(0) translate(4 535)">
<title>G</title>
<polygon fill="white" stroke="none" points="-4,4 -4,-535 1206,-535 1206,4 -4,4"/>
<g id="clust1" class="cluster">
<title>cluster_string</title>
<polygon fill="none" stroke="black" points="227,-340 227,-415 307,-415 307,-340 227,-340"/>
<text text-anchor="middle" x="267" y="-399.8" font-family="Times,serif" font-size="14.00">string</text>
</g>
<g id="clust2" class="cluster">
<title>cluster_error</title>
<polygon fill="none" stroke="black" points="8,-174 8,-332 441,-332 441,-174 8,-174"/>
<text text-anchor="middle" x="224.5" y="-316.8" font-family="Times,serif" font-size="14.00">error</text>
</g>
<g id="clust3" class="cluster">
<title>cluster_simple_map</title>
<polygon fill="none" stroke="black" points="449,-257 449,-415 816,-415 816,-257 449,-257"/>
<text text-anchor="middle" x="632.5" y="-399.8" font-family="Times,serif" font-size="14.00">simple_map</text>
</g>
<g id="clust4" class="cluster">
<title>cluster_option</title>
<polygon fill="none" stroke="black" points="499,-91 499,-249 830,-249 830,-91 499,-91"/>
<text text-anchor="middle" x="664.5" y="-233.8" font-family="Times,serif" font-size="14.00">option</text>
</g>
<g id="clust5" class="cluster">
<title>cluster_vector</title>
<polygon fill="none" stroke="black" points="562,-8 562,-83 769,-83 769,-8 562,-8"/>
<text text-anchor="middle" x="665.5" y="-67.8" font-family="Times,serif" font-size="14.00">vector</text>
</g>
<g id="clust6" class="cluster">
<title>cluster_comparator</title>
<polygon fill="none" stroke="black" points="942,-91 942,-249 1194,-249 1194,-91 942,-91"/>
<text text-anchor="middle" x="1068" y="-233.8" font-family="Times,serif" font-size="14.00">comparator</text>
</g>
<g id="clust7" class="cluster">
<title>cluster_bcs</title>
<polygon fill="none" stroke="black" points="838,-91 838,-166 934,-166 934,-91 838,-91"/>
<text text-anchor="middle" x="886" y="-150.8" font-family="Times,serif" font-size="14.00">bcs</text>
</g>
<!-- new_with_key_and_property_value -->
<g id="node1" class="node">
<title>new_with_key_and_property_value</title>
<ellipse fill="none" stroke="black" cx="337" cy="-513" rx="137.28" ry="18"/>
<text text-anchor="middle" x="337" y="-509.3" font-family="Times,serif" font-size="14.00">new_with_key_and_property_value</text>
</g>
<!-- string::length -->
<g id="node2" class="node">
<title>string::length</title>
<ellipse fill="none" stroke="black" cx="267" cy="-366" rx="32.49" ry="18"/>
<text text-anchor="middle" x="267" y="-362.3" font-family="Times,serif" font-size="14.00">length</text>
</g>
<!-- new_with_key_and_property_value&#45;&gt;string::length -->
<g id="edge1" class="edge">
<title>new_with_key_and_property_value&#45;&gt;string::length</title>
<path fill="none" stroke="black" d="M328.7,-494.8C316.63,-469.81 294.15,-423.24 279.92,-393.75"/>
<polygon fill="black" stroke="black" points="283.24,-392.58 275.74,-385.1 276.93,-395.62 283.24,-392.58"/>
</g>
<!-- error::invalid_argument -->
<g id="node3" class="node">
<title>error::invalid_argument</title>
<ellipse fill="none" stroke="black" cx="89" cy="-283" rx="73.39" ry="18"/>
<text text-anchor="middle" x="89" y="-279.3" font-family="Times,serif" font-size="14.00">invalid_argument</text>
</g>
<!-- new_with_key_and_property_value&#45;&gt;error::invalid_argument -->
<g id="edge2" class="edge">
<title>new_with_key_and_property_value&#45;&gt;error::invalid_argument</title>
<path fill="none" stroke="black" d="M316.03,-494.9C292.88,-475.84 254.68,-443.9 223,-415 183.74,-379.19 140.04,-335.75 113.54,-308.99"/>
<polygon fill="black" stroke="black" points="116.14,-306.66 106.63,-302 111.16,-311.58 116.14,-306.66"/>
</g>
<!-- empty -->
<g id="node4" class="node">
<title>empty</title>
<ellipse fill="none" stroke="black" cx="641" cy="-441" rx="33.29" ry="18"/>
<text text-anchor="middle" x="641" y="-437.3" font-family="Times,serif" font-size="14.00">empty</text>
</g>
<!-- new_with_key_and_property_value&#45;&gt;empty -->
<g id="edge3" class="edge">
<title>new_with_key_and_property_value&#45;&gt;empty</title>
<path fill="none" stroke="black" d="M402.96,-496.81C462.74,-483.05 549,-463.18 599.6,-451.53"/>
<polygon fill="black" stroke="black" points="600.31,-454.96 609.27,-449.31 598.74,-448.14 600.31,-454.96"/>
</g>
<!-- add -->
<g id="node5" class="node">
<title>add</title>
<ellipse fill="none" stroke="black" cx="384" cy="-441" rx="27" ry="18"/>
<text text-anchor="middle" x="384" y="-437.3" font-family="Times,serif" font-size="14.00">add</text>
</g>
<!-- new_with_key_and_property_value&#45;&gt;add -->
<g id="edge4" class="edge">
<title>new_with_key_and_property_value&#45;&gt;add</title>
<path fill="none" stroke="black" d="M348.62,-494.7C354.21,-486.37 361.01,-476.23 367.16,-467.08"/>
<polygon fill="black" stroke="black" points="369.97,-469.18 372.63,-458.93 364.15,-465.28 369.97,-469.18"/>
</g>
<!-- error::canonical -->
<g id="node6" class="node">
<title>error::canonical</title>
<ellipse fill="none" stroke="black" cx="242" cy="-200" rx="44.39" ry="18"/>
<text text-anchor="middle" x="242" y="-196.3" font-family="Times,serif" font-size="14.00">canonical</text>
</g>
<!-- error::invalid_argument&#45;&gt;error::canonical -->
<g id="edge5" class="edge">
<title>error::invalid_argument&#45;&gt;error::canonical</title>
<path fill="none" stroke="black" d="M118.86,-266.19C143.74,-253.02 179.25,-234.22 205.75,-220.19"/>
<polygon fill="black" stroke="black" points="207.24,-223.36 214.44,-215.59 203.97,-217.17 207.24,-223.36"/>
</g>
<!-- simple_map::create -->
<g id="node7" class="node">
<title>simple_map::create</title>
<ellipse fill="none" stroke="black" cx="776" cy="-366" rx="31.7" ry="18"/>
<text text-anchor="middle" x="776" y="-362.3" font-family="Times,serif" font-size="14.00">create</text>
</g>
<!-- empty&#45;&gt;simple_map::create -->
<g id="edge6" class="edge">
<title>empty&#45;&gt;simple_map::create</title>
<path fill="none" stroke="black" d="M673.4,-436.29C692.47,-432.96 716.42,-426.7 735,-415 744.16,-409.23 752.36,-400.76 758.97,-392.54"/>
<polygon fill="black" stroke="black" points="761.63,-394.83 764.83,-384.73 756.03,-390.63 761.63,-394.83"/>
</g>
<!-- add&#45;&gt;string::length -->
<g id="edge7" class="edge">
<title>add&#45;&gt;string::length</title>
<path fill="none" stroke="black" d="M358.71,-434.2C344.53,-430.22 326.95,-423.99 313,-415 303.31,-408.75 294.18,-400.08 286.65,-391.81"/>
<polygon fill="black" stroke="black" points="289.33,-389.56 280.14,-384.29 284.04,-394.14 289.33,-389.56"/>
</g>
<!-- add&#45;&gt;error::invalid_argument -->
<g id="edge9" class="edge">
<title>add&#45;&gt;error::invalid_argument</title>
<path fill="none" stroke="black" d="M361.4,-430.51C354.13,-426.57 346.53,-421.4 341,-415 317.53,-387.83 340.14,-360.97 311,-340 298.44,-330.96 186.82,-336.44 172,-332 153.69,-326.52 135.1,-316.29 120.17,-306.69"/>
<polygon fill="black" stroke="black" points="122.45,-304 112.19,-301.36 118.56,-309.82 122.45,-304"/>
</g>
<!-- error::already_exists -->
<g id="node8" class="node">
<title>error::already_exists</title>
<ellipse fill="none" stroke="black" cx="242" cy="-283" rx="61.19" ry="18"/>
<text text-anchor="middle" x="242" y="-279.3" font-family="Times,serif" font-size="14.00">already_exists</text>
</g>
<!-- add&#45;&gt;error::already_exists -->
<g id="edge8" class="edge">
<title>add&#45;&gt;error::already_exists</title>
<path fill="none" stroke="black" d="M378.68,-423.01C370.41,-397.58 354.03,-351.36 341,-340 330.92,-331.21 324.12,-337.64 312,-332 297.77,-325.38 283.26,-315.96 271.17,-307.22"/>
<polygon fill="black" stroke="black" points="273.36,-304.49 263.26,-301.32 269.18,-310.1 273.36,-304.49"/>
</g>
<!-- error::invalid_state -->
<g id="node9" class="node">
<title>error::invalid_state</title>
<ellipse fill="none" stroke="black" cx="377" cy="-283" rx="55.79" ry="18"/>
<text text-anchor="middle" x="377" y="-279.3" font-family="Times,serif" font-size="14.00">invalid_state</text>
</g>
<!-- add&#45;&gt;error::invalid_state -->
<g id="edge10" class="edge">
<title>add&#45;&gt;error::invalid_state</title>
<path fill="none" stroke="black" d="M383.22,-422.71C382.03,-396.12 379.73,-344.9 378.29,-312.69"/>
<polygon fill="black" stroke="black" points="381.79,-312.71 377.85,-302.88 374.8,-313.03 381.79,-312.71"/>
</g>
<!-- simple_map::length -->
<g id="node10" class="node">
<title>simple_map::length</title>
<ellipse fill="none" stroke="black" cx="694" cy="-366" rx="32.49" ry="18"/>
<text text-anchor="middle" x="694" y="-362.3" font-family="Times,serif" font-size="14.00">length</text>
</g>
<!-- add&#45;&gt;simple_map::length -->
<g id="edge11" class="edge">
<title>add&#45;&gt;simple_map::length</title>
<path fill="none" stroke="black" d="M410.88,-438.03C476.7,-433.14 641.36,-420.44 652,-415 662.14,-409.82 670.91,-401.06 677.77,-392.43"/>
<polygon fill="black" stroke="black" points="680.48,-394.65 683.55,-384.51 674.83,-390.52 680.48,-394.65"/>
</g>
<!-- simple_map::add -->
<g id="node11" class="node">
<title>simple_map::add</title>
<ellipse fill="none" stroke="black" cx="484" cy="-366" rx="27" ry="18"/>
<text text-anchor="middle" x="484" y="-362.3" font-family="Times,serif" font-size="14.00">add</text>
</g>
<!-- add&#45;&gt;simple_map::add -->
<g id="edge12" class="edge">
<title>add&#45;&gt;simple_map::add</title>
<path fill="none" stroke="black" d="M401.88,-426.95C417.24,-415.74 439.61,-399.41 457.12,-386.62"/>
<polygon fill="black" stroke="black" points="459.04,-389.55 465.05,-380.83 454.91,-383.9 459.04,-389.55"/>
</g>
<!-- simple_map::contains_key -->
<g id="node12" class="node">
<title>simple_map::contains_key</title>
<ellipse fill="none" stroke="black" cx="586" cy="-366" rx="57.39" ry="18"/>
<text text-anchor="middle" x="586" y="-362.3" font-family="Times,serif" font-size="14.00">contains_key</text>
</g>
<!-- add&#45;&gt;simple_map::contains_key -->
<g id="edge13" class="edge">
<title>add&#45;&gt;simple_map::contains_key</title>
<path fill="none" stroke="black" d="M411.09,-438.57C439.29,-436.27 484.26,-430.33 520,-415 533.94,-409.02 547.76,-399.65 559.12,-390.77"/>
<polygon fill="black" stroke="black" points="561.32,-393.49 566.86,-384.47 556.9,-388.07 561.32,-393.49"/>
</g>
<!-- error::already_exists&#45;&gt;error::canonical -->
<g id="edge14" class="edge">
<title>error::already_exists&#45;&gt;error::canonical</title>
<path fill="none" stroke="black" d="M242,-264.82C242,-254.69 242,-241.6 242,-229.92"/>
<polygon fill="black" stroke="black" points="245.5,-229.95 242,-219.95 238.5,-229.95 245.5,-229.95"/>
</g>
<!-- error::invalid_state&#45;&gt;error::canonical -->
<g id="edge15" class="edge">
<title>error::invalid_state&#45;&gt;error::canonical</title>
<path fill="none" stroke="black" d="M351.29,-266.57C329.96,-253.78 299.47,-235.48 276.1,-221.46"/>
<polygon fill="black" stroke="black" points="277.93,-218.47 267.55,-216.33 274.32,-224.48 277.93,-218.47"/>
</g>
<!-- simple_map::add&#45;&gt;error::invalid_argument -->
<g id="edge18" class="edge">
<title>simple_map::add&#45;&gt;error::invalid_argument</title>
<path fill="none" stroke="black" d="M458.31,-359.5C429.79,-353.64 382.33,-344.57 341,-340 303.63,-335.87 208.07,-342.6 172,-332 153.66,-326.61 135.07,-316.4 120.15,-306.77"/>
<polygon fill="black" stroke="black" points="122.42,-304.08 112.17,-301.43 118.53,-309.9 122.42,-304.08"/>
</g>
<!-- option::extract -->
<g id="node13" class="node">
<title>option::extract</title>
<ellipse fill="none" stroke="black" cx="541" cy="-200" rx="34.39" ry="18"/>
<text text-anchor="middle" x="541" y="-196.3" font-family="Times,serif" font-size="14.00">extract</text>
</g>
<!-- simple_map::add&#45;&gt;option::extract -->
<g id="edge16" class="edge">
<title>simple_map::add&#45;&gt;option::extract</title>
<path fill="none" stroke="black" d="M489.89,-348.07C499.7,-319.83 519.5,-262.87 531.37,-228.72"/>
<polygon fill="black" stroke="black" points="534.59,-230.11 534.56,-219.52 527.98,-227.81 534.59,-230.11"/>
</g>
<!-- option::is_none -->
<g id="node14" class="node">
<title>option::is_none</title>
<ellipse fill="none" stroke="black" cx="632" cy="-200" rx="38.19" ry="18"/>
<text text-anchor="middle" x="632" y="-196.3" font-family="Times,serif" font-size="14.00">is_none</text>
</g>
<!-- simple_map::add&#45;&gt;option::is_none -->
<g id="edge17" class="edge">
<title>simple_map::add&#45;&gt;option::is_none</title>
<path fill="none" stroke="black" d="M500.78,-351.41C507.59,-345.65 515.38,-338.73 522,-332 556.09,-297.34 591.56,-253.44 612.71,-226.29"/>
<polygon fill="black" stroke="black" points="615.29,-228.68 618.64,-218.63 609.75,-224.39 615.29,-228.68"/>
</g>
<!-- simple_map::find -->
<g id="node15" class="node">
<title>simple_map::find</title>
<ellipse fill="none" stroke="black" cx="749" cy="-283" rx="27" ry="18"/>
<text text-anchor="middle" x="749" y="-279.3" font-family="Times,serif" font-size="14.00">find</text>
</g>
<!-- simple_map::add&#45;&gt;simple_map::find -->
<g id="edge19" class="edge">
<title>simple_map::add&#45;&gt;simple_map::find</title>
<path fill="none" stroke="black" d="M500.22,-351.14C506.09,-346.85 513.01,-342.58 520,-340 553.1,-327.77 564.45,-339.19 599,-332 639.83,-323.5 685.25,-308.09 715.3,-297.02"/>
<polygon fill="black" stroke="black" points="716.46,-300.32 724.6,-293.55 714.01,-293.77 716.46,-300.32"/>
</g>
<!-- simple_map::contains_key&#45;&gt;simple_map::find -->
<g id="edge21" class="edge">
<title>simple_map::contains_key&#45;&gt;simple_map::find</title>
<path fill="none" stroke="black" d="M615.52,-350.33C644.44,-335.96 688.36,-314.13 717.84,-299.49"/>
<polygon fill="black" stroke="black" points="719.24,-302.7 726.63,-295.11 716.12,-296.43 719.24,-302.7"/>
</g>
<!-- option::is_some -->
<g id="node16" class="node">
<title>option::is_some</title>
<ellipse fill="none" stroke="black" cx="547" cy="-117" rx="40.09" ry="18"/>
<text text-anchor="middle" x="547" y="-113.3" font-family="Times,serif" font-size="14.00">is_some</text>
</g>
<!-- simple_map::contains_key&#45;&gt;option::is_some -->
<g id="edge20" class="edge">
<title>simple_map::contains_key&#45;&gt;option::is_some</title>
<path fill="none" stroke="black" d="M567.9,-348.68C546.42,-327.96 511.78,-289.97 498,-249 487.37,-217.41 486.28,-205.2 498,-174 502.63,-161.69 511.33,-150.31 520.12,-141.07"/>
<polygon fill="black" stroke="black" points="522.36,-143.78 527.04,-134.28 517.45,-138.79 522.36,-143.78"/>
</g>
<!-- option::extract&#45;&gt;option::is_some -->
<g id="edge22" class="edge">
<title>option::extract&#45;&gt;option::is_some</title>
<path fill="none" stroke="black" d="M542.27,-181.82C543.03,-171.58 544.01,-158.33 544.89,-146.55"/>
<polygon fill="black" stroke="black" points="548.35,-147.17 545.6,-136.94 541.37,-146.66 548.35,-147.17"/>
</g>
<!-- vector::is_empty -->
<g id="node17" class="node">
<title>vector::is_empty</title>
<ellipse fill="none" stroke="black" cx="614" cy="-34" rx="43.59" ry="18"/>
<text text-anchor="middle" x="614" y="-30.3" font-family="Times,serif" font-size="14.00">is_empty</text>
</g>
<!-- option::is_none&#45;&gt;vector::is_empty -->
<g id="edge23" class="edge">
<title>option::is_none&#45;&gt;vector::is_empty</title>
<path fill="none" stroke="black" d="M630.11,-181.76C627.01,-153.51 620.82,-97.11 617.08,-63.04"/>
<polygon fill="black" stroke="black" points="620.6,-63.07 616.03,-53.51 613.64,-63.84 620.6,-63.07"/>
</g>
<!-- option::none -->
<g id="node18" class="node">
<title>option::none</title>
<ellipse fill="none" stroke="black" cx="794" cy="-200" rx="27.9" ry="18"/>
<text text-anchor="middle" x="794" y="-196.3" font-family="Times,serif" font-size="14.00">none</text>
</g>
<!-- simple_map::find&#45;&gt;option::none -->
<g id="edge24" class="edge">
<title>simple_map::find&#45;&gt;option::none</title>
<path fill="none" stroke="black" d="M758.11,-265.61C764.21,-254.63 772.37,-239.93 779.37,-227.33"/>
<polygon fill="black" stroke="black" points="782.38,-229.13 784.17,-218.69 776.26,-225.73 782.38,-229.13"/>
</g>
<!-- option::some -->
<g id="node19" class="node">
<title>option::some</title>
<ellipse fill="none" stroke="black" cx="718" cy="-200" rx="29.8" ry="18"/>
<text text-anchor="middle" x="718" y="-196.3" font-family="Times,serif" font-size="14.00">some</text>
</g>
<!-- simple_map::find&#45;&gt;option::some -->
<g id="edge25" class="edge">
<title>simple_map::find&#45;&gt;option::some</title>
<path fill="none" stroke="black" d="M742.58,-265.22C738.53,-254.64 733.21,-240.74 728.55,-228.58"/>
<polygon fill="black" stroke="black" points="731.91,-227.54 725.06,-219.45 725.37,-230.04 731.91,-227.54"/>
</g>
<!-- comparator::compare -->
<g id="node20" class="node">
<title>comparator::compare</title>
<ellipse fill="none" stroke="black" cx="1144" cy="-200" rx="41.69" ry="18"/>
<text text-anchor="middle" x="1144" y="-196.3" font-family="Times,serif" font-size="14.00">compare</text>
</g>
<!-- simple_map::find&#45;&gt;comparator::compare -->
<g id="edge26" class="edge">
<title>simple_map::find&#45;&gt;comparator::compare</title>
<path fill="none" stroke="black" d="M776.28,-281.64C847.35,-280.36 1036.57,-274.56 1093,-249 1104.75,-243.68 1115.52,-234.52 1124.11,-225.63"/>
<polygon fill="black" stroke="black" points="1126.5,-228.2 1130.61,-218.43 1121.31,-223.5 1126.5,-228.2"/>
</g>
<!-- comparator::is_smaller_than -->
<g id="node21" class="node">
<title>comparator::is_smaller_than</title>
<ellipse fill="none" stroke="black" cx="1017" cy="-200" rx="66.89" ry="18"/>
<text text-anchor="middle" x="1017" y="-196.3" font-family="Times,serif" font-size="14.00">is_smaller_than</text>
</g>
<!-- simple_map::find&#45;&gt;comparator::is_smaller_than -->
<g id="edge27" class="edge">
<title>simple_map::find&#45;&gt;comparator::is_smaller_than</title>
<path fill="none" stroke="black" d="M773.26,-274.67C815.86,-261.79 905.11,-234.82 962.98,-217.33"/>
<polygon fill="black" stroke="black" points="963.75,-220.75 972.31,-214.51 961.72,-214.05 963.75,-220.75"/>
</g>
<!-- option::is_some&#45;&gt;vector::is_empty -->
<g id="edge28" class="edge">
<title>option::is_some&#45;&gt;vector::is_empty</title>
<path fill="none" stroke="black" d="M560.56,-99.61C569.91,-88.3 582.53,-73.05 593.15,-60.2"/>
<polygon fill="black" stroke="black" points="595.82,-62.47 599.5,-52.53 590.43,-58.01 595.82,-62.47"/>
</g>
<!-- vector::singleton -->
<g id="node22" class="node">
<title>vector::singleton</title>
<ellipse fill="none" stroke="black" cx="718" cy="-34" rx="42.79" ry="18"/>
<text text-anchor="middle" x="718" y="-30.3" font-family="Times,serif" font-size="14.00">singleton</text>
</g>
<!-- option::some&#45;&gt;vector::singleton -->
<g id="edge29" class="edge">
<title>option::some&#45;&gt;vector::singleton</title>
<path fill="none" stroke="black" d="M718,-181.76C718,-153.63 718,-97.6 718,-63.49"/>
<polygon fill="black" stroke="black" points="721.5,-63.52 718,-53.52 714.5,-63.52 721.5,-63.52"/>
</g>
<!-- bcs::to_bytes -->
<g id="node23" class="node">
<title>bcs::to_bytes</title>
<ellipse fill="none" stroke="black" cx="886" cy="-117" rx="40.09" ry="18"/>
<text text-anchor="middle" x="886" y="-113.3" font-family="Times,serif" font-size="14.00">to_bytes</text>
</g>
<!-- comparator::compare&#45;&gt;bcs::to_bytes -->
<g id="edge30" class="edge">
<title>comparator::compare&#45;&gt;bcs::to_bytes</title>
<path fill="none" stroke="black" d="M1120.13,-184.83C1111.82,-180.57 1102.26,-176.4 1093,-174 1059.61,-165.34 969.79,-179.38 938,-166 925.99,-160.94 915,-151.83 906.25,-142.9"/>
<polygon fill="black" stroke="black" points="908.94,-140.66 899.61,-135.64 903.78,-145.38 908.94,-140.66"/>
</g>
<!-- comparator::compare_u8_vector -->
<g id="node24" class="node">
<title>comparator::compare_u8_vector</title>
<ellipse fill="none" stroke="black" cx="1105" cy="-117" rx="81.49" ry="18"/>
<text text-anchor="middle" x="1105" y="-113.3" font-family="Times,serif" font-size="14.00">compare_u8_vector</text>
</g>
<!-- comparator::compare&#45;&gt;comparator::compare_u8_vector -->
<g id="edge31" class="edge">
<title>comparator::compare&#45;&gt;comparator::compare_u8_vector</title>
<path fill="none" stroke="black" d="M1135.92,-182.22C1130.81,-171.61 1124.09,-157.65 1118.22,-145.45"/>
<polygon fill="black" stroke="black" points="1121.49,-144.18 1114,-136.68 1115.18,-147.21 1121.49,-144.18"/>
</g>
</g>
</svg>
