<?xml version="1.0" encoding="UTF-8" standalone="no"?>
<!DOCTYPE svg PUBLIC "-//W3C//DTD SVG 1.1//EN"
 "http://www.w3.org/Graphics/SVG/1.1/DTD/svg11.dtd">
<!-- Generated by graphviz version 7.0.0 (20221023.0053)
 -->
<!-- Title: G Pages: 1 -->
<svg width="979pt" height="625pt"
 viewBox="0.00 0.00 978.56 625.00" xmlns="http://www.w3.org/2000/svg" xmlns:xlink="http://www.w3.org/1999/xlink">
<g id="graph0" class="graph" transform="scale(1 1) rotate(0) translate(4 621)">
<title>G</title>
<polygon fill="white" stroke="none" points="-4,4 -4,-621 974.56,-621 974.56,4 -4,4"/>
<g id="clust1" class="cluster">
<title>cluster_string</title>
<polygon fill="none" stroke="black" points="146,-340 146,-498 324,-498 324,-340 146,-340"/>
<text text-anchor="middle" x="235" y="-482.8" font-family="Times,serif" font-size="14.00">string</text>
</g>
<g id="clust2" class="cluster">
<title>cluster_error</title>
<polygon fill="none" stroke="black" points="8,-174 8,-332 300,-332 300,-174 8,-174"/>
<text text-anchor="middle" x="154" y="-316.8" font-family="Times,serif" font-size="14.00">error</text>
</g>
<g id="clust3" class="cluster">
<title>cluster_from_bcs</title>
<polygon fill="none" stroke="black" points="332,-423 332,-573 450,-573 450,-423 332,-423"/>
<text text-anchor="middle" x="391" y="-557.8" font-family="Times,serif" font-size="14.00">from_bcs</text>
</g>
<g id="clust4" class="cluster">
<title>cluster_simple_map</title>
<polygon fill="none" stroke="black" points="666,-257 666,-415 887,-415 887,-257 666,-257"/>
<text text-anchor="middle" x="776.5" y="-399.8" font-family="Times,serif" font-size="14.00">simple_map</text>
</g>
<g id="clust5" class="cluster">
<title>cluster_option</title>
<polygon fill="none" stroke="black" points="672,-91 672,-249 908,-249 908,-91 672,-91"/>
<text text-anchor="middle" x="790" y="-233.8" font-family="Times,serif" font-size="14.00">option</text>
</g>
<g id="clust6" class="cluster">
<title>cluster_vector</title>
<polygon fill="none" stroke="black" points="690,-8 690,-83 897,-83 897,-8 690,-8"/>
<text text-anchor="middle" x="793.5" y="-67.8" font-family="Times,serif" font-size="14.00">vector</text>
</g>
<g id="clust7" class="cluster">
<title>cluster_comparator</title>
<polygon fill="none" stroke="black" points="308,-91 308,-249 560,-249 560,-91 308,-91"/>
<text text-anchor="middle" x="434" y="-233.8" font-family="Times,serif" font-size="14.00">comparator</text>
</g>
<g id="clust8" class="cluster">
<title>cluster_bcs</title>
<polygon fill="none" stroke="black" points="568,-91 568,-166 664,-166 664,-91 568,-91"/>
<text text-anchor="middle" x="616" y="-150.8" font-family="Times,serif" font-size="14.00">bcs</text>
</g>
<!-- read_string -->
<g id="node1" class="node">
<title>read_string</title>
<ellipse fill="none" stroke="black" cx="453" cy="-599" rx="50.09" ry="18"/>
<text text-anchor="middle" x="453" y="-595.3" font-family="Times,serif" font-size="14.00">read_string</text>
</g>
<!-- string::utf8 -->
<g id="node2" class="node">
<title>string::utf8</title>
<ellipse fill="none" stroke="black" cx="213" cy="-449" rx="27" ry="18"/>
<text text-anchor="middle" x="213" y="-445.3" font-family="Times,serif" font-size="14.00">utf8</text>
</g>
<!-- read_string&#45;&gt;string::utf8 -->
<g id="edge1" class="edge">
<title>read_string&#45;&gt;string::utf8</title>
<path fill="none" stroke="black" d="M404.01,-594.6C380.03,-591.38 351.38,-585.12 328,-573 284.36,-550.37 248.43,-504.39 228.91,-475.51"/>
<polygon fill="black" stroke="black" points="231.95,-473.77 223.54,-467.33 226.1,-477.61 231.95,-473.77"/>
</g>
<!-- error::invalid_state -->
<g id="node3" class="node">
<title>error::invalid_state</title>
<ellipse fill="none" stroke="black" cx="72" cy="-283" rx="55.79" ry="18"/>
<text text-anchor="middle" x="72" y="-279.3" font-family="Times,serif" font-size="14.00">invalid_state</text>
</g>
<!-- read_string&#45;&gt;error::invalid_state -->
<g id="edge2" class="edge">
<title>read_string&#45;&gt;error::invalid_state</title>
<path fill="none" stroke="black" d="M461.3,-580.95C476.07,-547.98 502.68,-474.19 473,-423 435.75,-358.76 399.35,-360.58 328,-340 287.18,-328.22 177.06,-346.13 137,-332 122.39,-326.85 108.28,-317.2 96.97,-307.9"/>
<polygon fill="black" stroke="black" points="99.53,-305.5 89.68,-301.6 94.95,-310.79 99.53,-305.5"/>
</g>
<!-- from_bcs::to_string -->
<g id="node4" class="node">
<title>from_bcs::to_string</title>
<ellipse fill="none" stroke="black" cx="395" cy="-524" rx="42.49" ry="18"/>
<text text-anchor="middle" x="395" y="-520.3" font-family="Times,serif" font-size="14.00">to_string</text>
</g>
<!-- read_string&#45;&gt;from_bcs::to_string -->
<g id="edge3" class="edge">
<title>read_string&#45;&gt;from_bcs::to_string</title>
<path fill="none" stroke="black" d="M439.84,-581.44C432.57,-572.29 423.39,-560.73 415.23,-550.46"/>
<polygon fill="black" stroke="black" points="418.01,-548.34 409.05,-542.68 412.53,-552.69 418.01,-548.34"/>
</g>
<!-- borrow -->
<g id="node5" class="node">
<title>borrow</title>
<ellipse fill="none" stroke="black" cx="710" cy="-524" rx="36.29" ry="18"/>
<text text-anchor="middle" x="710" y="-520.3" font-family="Times,serif" font-size="14.00">borrow</text>
</g>
<!-- read_string&#45;&gt;borrow -->
<g id="edge4" class="edge">
<title>read_string&#45;&gt;borrow</title>
<path fill="none" stroke="black" d="M491.48,-587.07C538.89,-573.6 619.17,-550.8 668.11,-536.9"/>
<polygon fill="black" stroke="black" points="668.82,-540.33 677.49,-534.24 666.91,-533.6 668.82,-540.33"/>
</g>
<!-- string::internal_check_utf8 -->
<g id="node6" class="node">
<title>string::internal_check_utf8</title>
<ellipse fill="none" stroke="black" cx="235" cy="-366" rx="81.49" ry="18"/>
<text text-anchor="middle" x="235" y="-362.3" font-family="Times,serif" font-size="14.00">internal_check_utf8</text>
</g>
<!-- string::utf8&#45;&gt;string::internal_check_utf8 -->
<g id="edge5" class="edge">
<title>string::utf8&#45;&gt;string::internal_check_utf8</title>
<path fill="none" stroke="black" d="M217.67,-430.82C220.48,-420.48 224.12,-407.05 227.35,-395.18"/>
<polygon fill="black" stroke="black" points="230.63,-396.46 229.87,-385.89 223.87,-394.63 230.63,-396.46"/>
</g>
<!-- error::canonical -->
<g id="node7" class="node">
<title>error::canonical</title>
<ellipse fill="none" stroke="black" cx="145" cy="-200" rx="44.39" ry="18"/>
<text text-anchor="middle" x="145" y="-196.3" font-family="Times,serif" font-size="14.00">canonical</text>
</g>
<!-- error::invalid_state&#45;&gt;error::canonical -->
<g id="edge6" class="edge">
<title>error::invalid_state&#45;&gt;error::canonical</title>
<path fill="none" stroke="black" d="M87.13,-265.22C97.44,-253.77 111.27,-238.42 122.83,-225.6"/>
<polygon fill="black" stroke="black" points="125.28,-228.1 129.38,-218.33 120.08,-223.42 125.28,-228.1"/>
</g>
<!-- from_bcs::to_string&#45;&gt;string::internal_check_utf8 -->
<g id="edge8" class="edge">
<title>from_bcs::to_string&#45;&gt;string::internal_check_utf8</title>
<path fill="none" stroke="black" d="M431.15,-514.07C438.98,-510.39 446.31,-505.24 451,-498 469.14,-470.04 471.4,-449.36 451,-423 434.17,-401.25 369.58,-386.4 315.37,-377.49"/>
<polygon fill="black" stroke="black" points="316.26,-374.09 305.83,-375.97 315.16,-381 316.26,-374.09"/>
</g>
<!-- string::bytes -->
<g id="node8" class="node">
<title>string::bytes</title>
<ellipse fill="none" stroke="black" cx="287" cy="-449" rx="29.5" ry="18"/>
<text text-anchor="middle" x="287" y="-445.3" font-family="Times,serif" font-size="14.00">bytes</text>
</g>
<!-- from_bcs::to_string&#45;&gt;string::bytes -->
<g id="edge7" class="edge">
<title>from_bcs::to_string&#45;&gt;string::bytes</title>
<path fill="none" stroke="black" d="M359.61,-513.55C348.89,-509.73 337.46,-504.62 328,-498 319.13,-491.79 311,-483.22 304.35,-475.04"/>
<polygon fill="black" stroke="black" points="307.3,-473.14 298.45,-467.32 301.74,-477.39 307.3,-473.14"/>
</g>
<!-- from_bcs::from_bytes -->
<g id="node9" class="node">
<title>from_bcs::from_bytes</title>
<ellipse fill="none" stroke="black" cx="391" cy="-449" rx="51.19" ry="18"/>
<text text-anchor="middle" x="391" y="-445.3" font-family="Times,serif" font-size="14.00">from_bytes</text>
</g>
<!-- from_bcs::to_string&#45;&gt;from_bcs::from_bytes -->
<g id="edge9" class="edge">
<title>from_bcs::to_string&#45;&gt;from_bcs::from_bytes</title>
<path fill="none" stroke="black" d="M394.05,-505.7C393.61,-497.67 393.08,-487.9 392.58,-478.8"/>
<polygon fill="black" stroke="black" points="396.08,-478.73 392.04,-468.94 389.09,-479.12 396.08,-478.73"/>
</g>
<!-- simple_map::borrow -->
<g id="node10" class="node">
<title>simple_map::borrow</title>
<ellipse fill="none" stroke="black" cx="710" cy="-366" rx="36.29" ry="18"/>
<text text-anchor="middle" x="710" y="-362.3" font-family="Times,serif" font-size="14.00">borrow</text>
</g>
<!-- borrow&#45;&gt;simple_map::borrow -->
<g id="edge10" class="edge">
<title>borrow&#45;&gt;simple_map::borrow</title>
<path fill="none" stroke="black" d="M710,-505.71C710,-479.12 710,-427.9 710,-395.69"/>
<polygon fill="black" stroke="black" points="713.5,-395.88 710,-385.88 706.5,-395.88 713.5,-395.88"/>
</g>
<!-- contains_key -->
<g id="node11" class="node">
<title>contains_key</title>
<ellipse fill="none" stroke="black" cx="809" cy="-449" rx="57.39" ry="18"/>
<text text-anchor="middle" x="809" y="-445.3" font-family="Times,serif" font-size="14.00">contains_key</text>
</g>
<!-- borrow&#45;&gt;contains_key -->
<g id="edge11" class="edge">
<title>borrow&#45;&gt;contains_key</title>
<path fill="none" stroke="black" d="M729.56,-508.58C743.5,-498.3 762.52,-484.27 778.46,-472.52"/>
<polygon fill="black" stroke="black" points="780.23,-475.56 786.2,-466.81 776.08,-469.93 780.23,-475.56"/>
</g>
<!-- option::extract -->
<g id="node12" class="node">
<title>option::extract</title>
<ellipse fill="none" stroke="black" cx="866" cy="-200" rx="34.39" ry="18"/>
<text text-anchor="middle" x="866" y="-196.3" font-family="Times,serif" font-size="14.00">extract</text>
</g>
<!-- simple_map::borrow&#45;&gt;option::extract -->
<g id="edge12" class="edge">
<title>simple_map::borrow&#45;&gt;option::extract</title>
<path fill="none" stroke="black" d="M727.11,-349.83C733.18,-344.32 739.99,-337.98 746,-332 782.16,-296.05 821.66,-251.91 845.11,-225.14"/>
<polygon fill="black" stroke="black" points="847.48,-227.74 851.42,-217.9 842.21,-223.14 847.48,-227.74"/>
</g>
<!-- option::is_some -->
<g id="node13" class="node">
<title>option::is_some</title>
<ellipse fill="none" stroke="black" cx="860" cy="-117" rx="40.09" ry="18"/>
<text text-anchor="middle" x="860" y="-113.3" font-family="Times,serif" font-size="14.00">is_some</text>
</g>
<!-- simple_map::borrow&#45;&gt;option::is_some -->
<g id="edge13" class="edge">
<title>simple_map::borrow&#45;&gt;option::is_some</title>
<path fill="none" stroke="black" d="M731.85,-351.44C739.3,-347.28 747.81,-343.01 756,-340 772.2,-334.04 778.22,-338.98 794,-332 851.65,-306.51 880.3,-305.12 909,-249 924.18,-219.32 920.72,-205.2 909,-174 904.37,-161.69 895.67,-150.31 886.88,-141.07"/>
<polygon fill="black" stroke="black" points="889.55,-138.79 879.96,-134.28 884.64,-143.78 889.55,-138.79"/>
</g>
<!-- error::invalid_argument -->
<g id="node14" class="node">
<title>error::invalid_argument</title>
<ellipse fill="none" stroke="black" cx="219" cy="-283" rx="73.39" ry="18"/>
<text text-anchor="middle" x="219" y="-279.3" font-family="Times,serif" font-size="14.00">invalid_argument</text>
</g>
<!-- simple_map::borrow&#45;&gt;error::invalid_argument -->
<g id="edge14" class="edge">
<title>simple_map::borrow&#45;&gt;error::invalid_argument</title>
<path fill="none" stroke="black" d="M675.86,-359.37C596.34,-346.25 397.36,-313.42 290.13,-295.73"/>
<polygon fill="black" stroke="black" points="290.71,-292.28 280.28,-294.11 289.57,-299.19 290.71,-292.28"/>
</g>
<!-- simple_map::find -->
<g id="node15" class="node">
<title>simple_map::find</title>
<ellipse fill="none" stroke="black" cx="710" cy="-283" rx="27" ry="18"/>
<text text-anchor="middle" x="710" y="-279.3" font-family="Times,serif" font-size="14.00">find</text>
</g>
<!-- simple_map::borrow&#45;&gt;simple_map::find -->
<g id="edge15" class="edge">
<title>simple_map::borrow&#45;&gt;simple_map::find</title>
<path fill="none" stroke="black" d="M710,-347.82C710,-337.69 710,-324.6 710,-312.92"/>
<polygon fill="black" stroke="black" points="713.5,-312.95 710,-302.95 706.5,-312.95 713.5,-312.95"/>
</g>
<!-- simple_map::contains_key -->
<g id="node16" class="node">
<title>simple_map::contains_key</title>
<ellipse fill="none" stroke="black" cx="822" cy="-366" rx="57.39" ry="18"/>
<text text-anchor="middle" x="822" y="-362.3" font-family="Times,serif" font-size="14.00">contains_key</text>
</g>
<!-- contains_key&#45;&gt;simple_map::contains_key -->
<g id="edge16" class="edge">
<title>contains_key&#45;&gt;simple_map::contains_key</title>
<path fill="none" stroke="black" d="M811.76,-430.82C813.4,-420.58 815.53,-407.33 817.42,-395.55"/>
<polygon fill="black" stroke="black" points="820.83,-396.36 818.96,-385.93 813.92,-395.25 820.83,-396.36"/>
</g>
<!-- option::extract&#45;&gt;option::is_some -->
<g id="edge17" class="edge">
<title>option::extract&#45;&gt;option::is_some</title>
<path fill="none" stroke="black" d="M864.73,-181.82C863.97,-171.58 862.99,-158.33 862.11,-146.55"/>
<polygon fill="black" stroke="black" points="865.63,-146.66 861.4,-136.94 858.65,-147.17 865.63,-146.66"/>
</g>
<!-- vector::is_empty -->
<g id="node17" class="node">
<title>vector::is_empty</title>
<ellipse fill="none" stroke="black" cx="845" cy="-34" rx="43.59" ry="18"/>
<text text-anchor="middle" x="845" y="-30.3" font-family="Times,serif" font-size="14.00">is_empty</text>
</g>
<!-- option::is_some&#45;&gt;vector::is_empty -->
<g id="edge18" class="edge">
<title>option::is_some&#45;&gt;vector::is_empty</title>
<path fill="none" stroke="black" d="M856.82,-98.82C854.92,-88.58 852.47,-75.33 850.29,-63.55"/>
<polygon fill="black" stroke="black" points="853.77,-63.12 848.5,-53.92 846.88,-64.39 853.77,-63.12"/>
</g>
<!-- error::invalid_argument&#45;&gt;error::canonical -->
<g id="edge19" class="edge">
<title>error::invalid_argument&#45;&gt;error::canonical</title>
<path fill="none" stroke="black" d="M203.67,-265.22C193.21,-253.77 179.19,-238.42 167.48,-225.6"/>
<polygon fill="black" stroke="black" points="170.16,-223.35 160.83,-218.33 164.99,-228.07 170.16,-223.35"/>
</g>
<!-- option::none -->
<g id="node18" class="node">
<title>option::none</title>
<ellipse fill="none" stroke="black" cx="786" cy="-200" rx="27.9" ry="18"/>
<text text-anchor="middle" x="786" y="-196.3" font-family="Times,serif" font-size="14.00">none</text>
</g>
<!-- simple_map::find&#45;&gt;option::none -->
<g id="edge20" class="edge">
<title>simple_map::find&#45;&gt;option::none</title>
<path fill="none" stroke="black" d="M727.01,-268.93C734.11,-263.14 742.26,-256.05 749,-249 755.75,-241.94 762.46,-233.69 768.29,-226.04"/>
<polygon fill="black" stroke="black" points="771.08,-228.14 774.22,-218.02 765.46,-223.98 771.08,-228.14"/>
</g>
<!-- option::some -->
<g id="node19" class="node">
<title>option::some</title>
<ellipse fill="none" stroke="black" cx="710" cy="-200" rx="29.8" ry="18"/>
<text text-anchor="middle" x="710" y="-196.3" font-family="Times,serif" font-size="14.00">some</text>
</g>
<!-- simple_map::find&#45;&gt;option::some -->
<g id="edge21" class="edge">
<title>simple_map::find&#45;&gt;option::some</title>
<path fill="none" stroke="black" d="M710,-264.82C710,-254.69 710,-241.6 710,-229.92"/>
<polygon fill="black" stroke="black" points="713.5,-229.95 710,-219.95 706.5,-229.95 713.5,-229.95"/>
</g>
<!-- comparator::compare -->
<g id="node20" class="node">
<title>comparator::compare</title>
<ellipse fill="none" stroke="black" cx="510" cy="-200" rx="41.69" ry="18"/>
<text text-anchor="middle" x="510" y="-196.3" font-family="Times,serif" font-size="14.00">compare</text>
</g>
<!-- simple_map::find&#45;&gt;comparator::compare -->
<g id="edge22" class="edge">
<title>simple_map::find&#45;&gt;comparator::compare</title>
<path fill="none" stroke="black" d="M687.45,-272.87C654.15,-259.38 591.36,-233.95 550.1,-217.24"/>
<polygon fill="black" stroke="black" points="551.58,-214.06 541,-213.55 548.95,-220.55 551.58,-214.06"/>
</g>
<!-- comparator::is_smaller_than -->
<g id="node21" class="node">
<title>comparator::is_smaller_than</title>
<ellipse fill="none" stroke="black" cx="383" cy="-200" rx="66.89" ry="18"/>
<text text-anchor="middle" x="383" y="-196.3" font-family="Times,serif" font-size="14.00">is_smaller_than</text>
</g>
<!-- simple_map::find&#45;&gt;comparator::is_smaller_than -->
<g id="edge23" class="edge">
<title>simple_map::find&#45;&gt;comparator::is_smaller_than</title>
<path fill="none" stroke="black" d="M682.73,-282.2C635.65,-281.73 536.7,-277.1 459,-249 442.7,-243.11 426.24,-233.29 412.83,-224.07"/>
<polygon fill="black" stroke="black" points="415.05,-221.36 404.88,-218.4 410.99,-227.06 415.05,-221.36"/>
</g>
<!-- simple_map::contains_key&#45;&gt;option::is_some -->
<g id="edge24" class="edge">
<title>simple_map::contains_key&#45;&gt;option::is_some</title>
<path fill="none" stroke="black" d="M872.78,-357.32C901.48,-351.83 933.32,-343.38 942,-332 984.57,-276.15 974.79,-236.1 942,-174 932.87,-156.7 915.72,-143.74 899.46,-134.67"/>
<polygon fill="black" stroke="black" points="901.37,-131.71 890.88,-130.21 898.14,-137.92 901.37,-131.71"/>
</g>
<!-- simple_map::contains_key&#45;&gt;simple_map::find -->
<g id="edge25" class="edge">
<title>simple_map::contains_key&#45;&gt;simple_map::find</title>
<path fill="none" stroke="black" d="M799.87,-349C781.77,-335.9 756.09,-317.34 736.82,-303.4"/>
<polygon fill="black" stroke="black" points="739.05,-300.69 728.89,-297.66 734.94,-306.36 739.05,-300.69"/>
</g>
<!-- vector::singleton -->
<g id="node22" class="node">
<title>vector::singleton</title>
<ellipse fill="none" stroke="black" cx="741" cy="-34" rx="42.79" ry="18"/>
<text text-anchor="middle" x="741" y="-30.3" font-family="Times,serif" font-size="14.00">singleton</text>
</g>
<!-- option::some&#45;&gt;vector::singleton -->
<g id="edge26" class="edge">
<title>option::some&#45;&gt;vector::singleton</title>
<path fill="none" stroke="black" d="M713.26,-181.76C718.6,-153.51 729.26,-97.11 735.7,-63.04"/>
<polygon fill="black" stroke="black" points="739.09,-63.97 737.5,-53.5 732.21,-62.67 739.09,-63.97"/>
</g>
<!-- bcs::to_bytes -->
<g id="node23" class="node">
<title>bcs::to_bytes</title>
<ellipse fill="none" stroke="black" cx="616" cy="-117" rx="40.09" ry="18"/>
<text text-anchor="middle" x="616" y="-113.3" font-family="Times,serif" font-size="14.00">to_bytes</text>
</g>
<!-- comparator::compare&#45;&gt;bcs::to_bytes -->
<g id="edge27" class="edge">
<title>comparator::compare&#45;&gt;bcs::to_bytes</title>
<path fill="none" stroke="black" d="M534.86,-185.2C544.26,-179.63 554.88,-172.89 564,-166 573.71,-158.67 583.68,-149.83 592.27,-141.74"/>
<polygon fill="black" stroke="black" points="594.45,-144.5 599.24,-135.04 589.6,-139.45 594.45,-144.5"/>
</g>
<!-- comparator::compare_u8_vector -->
<g id="node24" class="node">
<title>comparator::compare_u8_vector</title>
<ellipse fill="none" stroke="black" cx="471" cy="-117" rx="81.49" ry="18"/>
<text text-anchor="middle" x="471" y="-113.3" font-family="Times,serif" font-size="14.00">compare_u8_vector</text>
</g>
<!-- comparator::compare&#45;&gt;comparator::compare_u8_vector -->
<g id="edge28" class="edge">
<title>comparator::compare&#45;&gt;comparator::compare_u8_vector</title>
<path fill="none" stroke="black" d="M501.92,-182.22C496.81,-171.61 490.09,-157.65 484.22,-145.45"/>
<polygon fill="black" stroke="black" points="487.49,-144.18 480,-136.68 481.18,-147.21 487.49,-144.18"/>
</g>
</g>
</svg>
