<?xml version="1.0" encoding="UTF-8" standalone="no"?>
<!DOCTYPE svg PUBLIC "-//W3C//DTD SVG 1.1//EN"
 "http://www.w3.org/Graphics/SVG/1.1/DTD/svg11.dtd">
<!-- Generated by graphviz version 7.0.0 (20221023.0053)
 -->
<!-- Title: G Pages: 1 -->
<svg width="1329pt" height="611pt"
 viewBox="0.00 0.00 1328.56 611.00" xmlns="http://www.w3.org/2000/svg" xmlns:xlink="http://www.w3.org/1999/xlink">
<g id="graph0" class="graph" transform="scale(1 1) rotate(0) translate(4 607)">
<title>G</title>
<polygon fill="white" stroke="none" points="-4,4 -4,-607 1324.56,-607 1324.56,4 -4,4"/>
<g id="clust1" class="cluster">
<title>cluster_error</title>
<polygon fill="none" stroke="black" points="8,-174 8,-332 553,-332 553,-174 8,-174"/>
<text text-anchor="middle" x="280.5" y="-316.8" font-family="Times,serif" font-size="14.00">error</text>
</g>
<g id="clust2" class="cluster">
<title>cluster_string</title>
<polygon fill="none" stroke="black" points="292,-340 292,-415 372,-415 372,-340 292,-340"/>
<text text-anchor="middle" x="332" y="-399.8" font-family="Times,serif" font-size="14.00">string</text>
</g>
<g id="clust3" class="cluster">
<title>cluster_simple_map</title>
<polygon fill="none" stroke="black" points="561,-257 561,-415 973,-415 973,-257 561,-257"/>
<text text-anchor="middle" x="767" y="-399.8" font-family="Times,serif" font-size="14.00">simple_map</text>
</g>
<g id="clust4" class="cluster">
<title>cluster_option</title>
<polygon fill="none" stroke="black" points="925,-91 925,-249 1256,-249 1256,-91 925,-91"/>
<text text-anchor="middle" x="1090.5" y="-233.8" font-family="Times,serif" font-size="14.00">option</text>
</g>
<g id="clust5" class="cluster">
<title>cluster_vector</title>
<polygon fill="none" stroke="black" points="986,-8 986,-83 1193,-83 1193,-8 986,-8"/>
<text text-anchor="middle" x="1089.5" y="-67.8" font-family="Times,serif" font-size="14.00">vector</text>
</g>
<g id="clust6" class="cluster">
<title>cluster_comparator</title>
<polygon fill="none" stroke="black" points="561,-91 561,-249 813,-249 813,-91 561,-91"/>
<text text-anchor="middle" x="687" y="-233.8" font-family="Times,serif" font-size="14.00">comparator</text>
</g>
<g id="clust7" class="cluster">
<title>cluster_bcs</title>
<polygon fill="none" stroke="black" points="821,-91 821,-166 917,-166 917,-91 821,-91"/>
<text text-anchor="middle" x="869" y="-150.8" font-family="Times,serif" font-size="14.00">bcs</text>
</g>
<!-- update_property_map -->
<g id="node1" class="node">
<title>update_property_map</title>
<ellipse fill="none" stroke="black" cx="566" cy="-585" rx="88.28" ry="18"/>
<text text-anchor="middle" x="566" y="-581.3" font-family="Times,serif" font-size="14.00">update_property_map</text>
</g>
<!-- error::invalid_state -->
<g id="node2" class="node">
<title>error::invalid_state</title>
<ellipse fill="none" stroke="black" cx="184" cy="-283" rx="55.79" ry="18"/>
<text text-anchor="middle" x="184" y="-279.3" font-family="Times,serif" font-size="14.00">invalid_state</text>
</g>
<!-- update_property_map&#45;&gt;error::invalid_state -->
<g id="edge1" class="edge">
<title>update_property_map&#45;&gt;error::invalid_state</title>
<path fill="none" stroke="black" d="M531.79,-568.17C476.64,-541.61 366.35,-484.14 288,-415 252.32,-383.51 219.7,-338.66 200.85,-310.45"/>
<polygon fill="black" stroke="black" points="203.8,-308.56 195.38,-302.13 197.95,-312.41 203.8,-308.56"/>
</g>
<!-- add -->
<g id="node3" class="node">
<title>add</title>
<ellipse fill="none" stroke="black" cx="506" cy="-441" rx="27" ry="18"/>
<text text-anchor="middle" x="506" y="-437.3" font-family="Times,serif" font-size="14.00">add</text>
</g>
<!-- update_property_map&#45;&gt;add -->
<g id="edge2" class="edge">
<title>update_property_map&#45;&gt;add</title>
<path fill="none" stroke="black" d="M549.79,-567.17C541.2,-557.34 531.17,-544.3 525,-531 516.15,-511.93 511.37,-488.63 508.81,-470.66"/>
<polygon fill="black" stroke="black" points="512.31,-470.44 507.6,-460.96 505.37,-471.31 512.31,-470.44"/>
</g>
<!-- contains_key -->
<g id="node4" class="node">
<title>contains_key</title>
<ellipse fill="none" stroke="black" cx="746" cy="-441" rx="57.39" ry="18"/>
<text text-anchor="middle" x="746" y="-437.3" font-family="Times,serif" font-size="14.00">contains_key</text>
</g>
<!-- update_property_map&#45;&gt;contains_key -->
<g id="edge3" class="edge">
<title>update_property_map&#45;&gt;contains_key</title>
<path fill="none" stroke="black" d="M641.86,-575.55C672.31,-568.38 705.28,-555.2 727,-531 741.61,-514.72 745.98,-490.01 746.9,-470.76"/>
<polygon fill="black" stroke="black" points="750.4,-470.89 747.07,-460.83 743.4,-470.77 750.4,-470.89"/>
</g>
<!-- update_property_value -->
<g id="node5" class="node">
<title>update_property_value</title>
<ellipse fill="none" stroke="black" cx="626" cy="-513" rx="91.78" ry="18"/>
<text text-anchor="middle" x="626" y="-509.3" font-family="Times,serif" font-size="14.00">update_property_value</text>
</g>
<!-- update_property_map&#45;&gt;update_property_value -->
<g id="edge4" class="edge">
<title>update_property_map&#45;&gt;update_property_value</title>
<path fill="none" stroke="black" d="M580.52,-567.05C587.67,-558.71 596.44,-548.49 604.36,-539.25"/>
<polygon fill="black" stroke="black" points="606.77,-541.81 610.62,-531.94 601.46,-537.25 606.77,-541.81"/>
</g>
<!-- error::canonical -->
<g id="node6" class="node">
<title>error::canonical</title>
<ellipse fill="none" stroke="black" cx="251" cy="-200" rx="44.39" ry="18"/>
<text text-anchor="middle" x="251" y="-196.3" font-family="Times,serif" font-size="14.00">canonical</text>
</g>
<!-- error::invalid_state&#45;&gt;error::canonical -->
<g id="edge5" class="edge">
<title>error::invalid_state&#45;&gt;error::canonical</title>
<path fill="none" stroke="black" d="M197.88,-265.22C207.2,-253.96 219.64,-238.92 230.13,-226.22"/>
<polygon fill="black" stroke="black" points="232.72,-228.59 236.4,-218.65 227.33,-224.13 232.72,-228.59"/>
</g>
<!-- add&#45;&gt;error::invalid_state -->
<g id="edge9" class="edge">
<title>add&#45;&gt;error::invalid_state</title>
<path fill="none" stroke="black" d="M480.48,-434.21C468.29,-430.4 454.18,-424.34 444,-415 416.47,-389.73 437.33,-360.36 406,-340 376.71,-320.96 281.89,-343.77 249,-332 234.41,-326.78 220.31,-317.13 208.99,-307.84"/>
<polygon fill="black" stroke="black" points="211.56,-305.43 201.7,-301.55 206.98,-310.73 211.56,-305.43"/>
</g>
<!-- string::length -->
<g id="node7" class="node">
<title>string::length</title>
<ellipse fill="none" stroke="black" cx="332" cy="-366" rx="32.49" ry="18"/>
<text text-anchor="middle" x="332" y="-362.3" font-family="Times,serif" font-size="14.00">length</text>
</g>
<!-- add&#45;&gt;string::length -->
<g id="edge6" class="edge">
<title>add&#45;&gt;string::length</title>
<path fill="none" stroke="black" d="M480.22,-434.63C461.91,-430.4 436.95,-423.74 416,-415 397.31,-407.21 377.59,-396.1 361.95,-386.54"/>
<polygon fill="black" stroke="black" points="363.94,-383.66 353.61,-381.33 360.24,-389.59 363.94,-383.66"/>
</g>
<!-- error::already_exists -->
<g id="node8" class="node">
<title>error::already_exists</title>
<ellipse fill="none" stroke="black" cx="319" cy="-283" rx="61.19" ry="18"/>
<text text-anchor="middle" x="319" y="-279.3" font-family="Times,serif" font-size="14.00">already_exists</text>
</g>
<!-- add&#45;&gt;error::already_exists -->
<g id="edge7" class="edge">
<title>add&#45;&gt;error::already_exists</title>
<path fill="none" stroke="black" d="M491.01,-425.83C487.84,-422.45 484.65,-418.73 482,-415 460.38,-384.52 474.32,-361.85 444,-340 424.32,-325.82 412.61,-340.79 390,-332 374.75,-326.07 359.5,-316.38 347.06,-307.25"/>
<polygon fill="black" stroke="black" points="349.43,-304.65 339.35,-301.37 345.18,-310.22 349.43,-304.65"/>
</g>
<!-- error::invalid_argument -->
<g id="node9" class="node">
<title>error::invalid_argument</title>
<ellipse fill="none" stroke="black" cx="472" cy="-283" rx="73.39" ry="18"/>
<text text-anchor="middle" x="472" y="-279.3" font-family="Times,serif" font-size="14.00">invalid_argument</text>
</g>
<!-- add&#45;&gt;error::invalid_argument -->
<g id="edge8" class="edge">
<title>add&#45;&gt;error::invalid_argument</title>
<path fill="none" stroke="black" d="M502.23,-422.71C496.41,-396 485.17,-344.45 478.16,-312.27"/>
<polygon fill="black" stroke="black" points="481.66,-311.87 476.11,-302.85 474.82,-313.36 481.66,-311.87"/>
</g>
<!-- simple_map::length -->
<g id="node10" class="node">
<title>simple_map::length</title>
<ellipse fill="none" stroke="black" cx="673" cy="-366" rx="32.49" ry="18"/>
<text text-anchor="middle" x="673" y="-362.3" font-family="Times,serif" font-size="14.00">length</text>
</g>
<!-- add&#45;&gt;simple_map::length -->
<g id="edge10" class="edge">
<title>add&#45;&gt;simple_map::length</title>
<path fill="none" stroke="black" d="M533.38,-439.67C560.21,-438.23 601.4,-432.92 632,-415 641.48,-409.45 649.83,-400.88 656.47,-392.51"/>
<polygon fill="black" stroke="black" points="659.22,-394.67 662.32,-384.54 653.58,-390.53 659.22,-394.67"/>
</g>
<!-- simple_map::add -->
<g id="node11" class="node">
<title>simple_map::add</title>
<ellipse fill="none" stroke="black" cx="596" cy="-366" rx="27" ry="18"/>
<text text-anchor="middle" x="596" y="-362.3" font-family="Times,serif" font-size="14.00">add</text>
</g>
<!-- add&#45;&gt;simple_map::add -->
<g id="edge11" class="edge">
<title>add&#45;&gt;simple_map::add</title>
<path fill="none" stroke="black" d="M522.51,-426.61C536,-415.67 555.29,-400.02 570.72,-387.5"/>
<polygon fill="black" stroke="black" points="572.56,-390.52 578.12,-381.51 568.15,-385.09 572.56,-390.52"/>
</g>
<!-- simple_map::contains_key -->
<g id="node12" class="node">
<title>simple_map::contains_key</title>
<ellipse fill="none" stroke="black" cx="908" cy="-366" rx="57.39" ry="18"/>
<text text-anchor="middle" x="908" y="-362.3" font-family="Times,serif" font-size="14.00">contains_key</text>
</g>
<!-- add&#45;&gt;simple_map::contains_key -->
<g id="edge12" class="edge">
<title>add&#45;&gt;simple_map::contains_key</title>
<path fill="none" stroke="black" d="M532.79,-436.98C566.93,-433.22 627.78,-426.84 680,-423 715.95,-420.36 808.01,-426.99 842,-415 856.76,-409.79 871.07,-400.14 882.57,-390.85"/>
<polygon fill="black" stroke="black" points="884.64,-393.69 890,-384.55 880.11,-388.35 884.64,-393.69"/>
</g>
<!-- contains_key&#45;&gt;simple_map::contains_key -->
<g id="edge13" class="edge">
<title>contains_key&#45;&gt;simple_map::contains_key</title>
<path fill="none" stroke="black" d="M794.6,-431.07C810.18,-427.24 827.21,-422 842,-415 855.61,-408.56 869.29,-399.2 880.64,-390.45"/>
<polygon fill="black" stroke="black" points="882.76,-393.24 888.39,-384.27 878.39,-387.77 882.76,-393.24"/>
</g>
<!-- update_property_value&#45;&gt;contains_key -->
<g id="edge16" class="edge">
<title>update_property_value&#45;&gt;contains_key</title>
<path fill="none" stroke="black" d="M654.44,-495.41C671.16,-485.65 692.46,-473.23 710.31,-462.82"/>
<polygon fill="black" stroke="black" points="711.63,-466.1 718.51,-458.04 708.11,-460.05 711.63,-466.1"/>
</g>
<!-- error::not_found -->
<g id="node13" class="node">
<title>error::not_found</title>
<ellipse fill="none" stroke="black" cx="63" cy="-283" rx="46.59" ry="18"/>
<text text-anchor="middle" x="63" y="-279.3" font-family="Times,serif" font-size="14.00">not_found</text>
</g>
<!-- update_property_value&#45;&gt;error::not_found -->
<g id="edge14" class="edge">
<title>update_property_value&#45;&gt;error::not_found</title>
<path fill="none" stroke="black" d="M572.91,-497.92C542.03,-488.77 502.85,-475.48 470,-459 439.15,-443.52 427.56,-441.96 406,-415 383.58,-386.96 405.41,-360.59 376,-340 352.59,-323.62 145.64,-342.33 119,-332 106.2,-327.04 94.3,-317.82 84.8,-308.77"/>
<polygon fill="black" stroke="black" points="87.36,-306.38 77.84,-301.72 82.37,-311.3 87.36,-306.38"/>
</g>
<!-- simple_map::borrow_mut -->
<g id="node14" class="node">
<title>simple_map::borrow_mut</title>
<ellipse fill="none" stroke="black" cx="778" cy="-366" rx="54.69" ry="18"/>
<text text-anchor="middle" x="778" y="-362.3" font-family="Times,serif" font-size="14.00">borrow_mut</text>
</g>
<!-- update_property_value&#45;&gt;simple_map::borrow_mut -->
<g id="edge15" class="edge">
<title>update_property_value&#45;&gt;simple_map::borrow_mut</title>
<path fill="none" stroke="black" d="M631.77,-494.73C639.49,-474.38 655.14,-441.06 680,-423 692.56,-413.88 699.94,-421.57 714,-415 727.37,-408.75 740.66,-399.42 751.65,-390.64"/>
<polygon fill="black" stroke="black" points="753.65,-393.53 759.11,-384.45 749.18,-388.14 753.65,-393.53"/>
</g>
<!-- error::already_exists&#45;&gt;error::canonical -->
<g id="edge17" class="edge">
<title>error::already_exists&#45;&gt;error::canonical</title>
<path fill="none" stroke="black" d="M304.91,-265.22C295.46,-253.96 282.83,-238.92 272.18,-226.22"/>
<polygon fill="black" stroke="black" points="274.92,-224.05 265.81,-218.64 269.56,-228.55 274.92,-224.05"/>
</g>
<!-- error::invalid_argument&#45;&gt;error::canonical -->
<g id="edge18" class="edge">
<title>error::invalid_argument&#45;&gt;error::canonical</title>
<path fill="none" stroke="black" d="M432.23,-267.43C393.27,-253.15 334.07,-231.45 294.02,-216.77"/>
<polygon fill="black" stroke="black" points="295.28,-213.5 284.69,-213.35 292.88,-220.08 295.28,-213.5"/>
</g>
<!-- simple_map::add&#45;&gt;error::invalid_argument -->
<g id="edge21" class="edge">
<title>simple_map::add&#45;&gt;error::invalid_argument</title>
<path fill="none" stroke="black" d="M577.17,-352.7C558.43,-340.46 529.26,-321.41 506.39,-306.47"/>
<polygon fill="black" stroke="black" points="508.58,-303.71 498.29,-301.17 504.75,-309.57 508.58,-303.71"/>
</g>
<!-- option::extract -->
<g id="node15" class="node">
<title>option::extract</title>
<ellipse fill="none" stroke="black" cx="1214" cy="-200" rx="34.39" ry="18"/>
<text text-anchor="middle" x="1214" y="-196.3" font-family="Times,serif" font-size="14.00">extract</text>
</g>
<!-- simple_map::add&#45;&gt;option::extract -->
<g id="edge19" class="edge">
<title>simple_map::add&#45;&gt;option::extract</title>
<path fill="none" stroke="black" d="M611.76,-351.1C617.69,-346.7 624.77,-342.37 632,-340 697.49,-318.56 875.73,-350.91 942,-332 1005.41,-313.91 1007.11,-276.8 1070,-257 1112.53,-243.61 1129.94,-268.57 1170,-249 1180.55,-243.84 1189.79,-234.97 1197.04,-226.24"/>
<polygon fill="black" stroke="black" points="1199.62,-228.62 1202.92,-218.56 1194.06,-224.37 1199.62,-228.62"/>
</g>
<!-- option::is_none -->
<g id="node16" class="node">
<title>option::is_none</title>
<ellipse fill="none" stroke="black" cx="1123" cy="-200" rx="38.19" ry="18"/>
<text text-anchor="middle" x="1123" y="-196.3" font-family="Times,serif" font-size="14.00">is_none</text>
</g>
<!-- simple_map::add&#45;&gt;option::is_none -->
<g id="edge20" class="edge">
<title>simple_map::add&#45;&gt;option::is_none</title>
<path fill="none" stroke="black" d="M611.78,-351.17C617.72,-346.78 624.79,-342.43 632,-340 670.36,-327.06 774.18,-339.28 814,-332 918.94,-312.81 939.32,-285.91 1042,-257 1056.94,-252.79 1062.48,-256.63 1076,-249 1086.4,-243.13 1096.01,-234.28 1103.78,-225.76"/>
<polygon fill="black" stroke="black" points="1106.33,-228.17 1110.2,-218.3 1101.02,-223.6 1106.33,-228.17"/>
</g>
<!-- simple_map::find -->
<g id="node17" class="node">
<title>simple_map::find</title>
<ellipse fill="none" stroke="black" cx="778" cy="-283" rx="27" ry="18"/>
<text text-anchor="middle" x="778" y="-279.3" font-family="Times,serif" font-size="14.00">find</text>
</g>
<!-- simple_map::add&#45;&gt;simple_map::find -->
<g id="edge22" class="edge">
<title>simple_map::add&#45;&gt;simple_map::find</title>
<path fill="none" stroke="black" d="M613.04,-351.91C618.87,-347.79 625.54,-343.42 632,-340 668.28,-320.81 712.63,-304.75 742.86,-294.82"/>
<polygon fill="black" stroke="black" points="743.83,-298.19 752.27,-291.79 741.68,-291.53 743.83,-298.19"/>
</g>
<!-- simple_map::contains_key&#45;&gt;simple_map::find -->
<g id="edge24" class="edge">
<title>simple_map::contains_key&#45;&gt;simple_map::find</title>
<path fill="none" stroke="black" d="M882.93,-349.38C861.08,-335.77 829.4,-316.03 806.57,-301.8"/>
<polygon fill="black" stroke="black" points="808.7,-299 798.36,-296.69 805,-304.95 808.7,-299"/>
</g>
<!-- option::is_some -->
<g id="node18" class="node">
<title>option::is_some</title>
<ellipse fill="none" stroke="black" cx="1208" cy="-117" rx="40.09" ry="18"/>
<text text-anchor="middle" x="1208" y="-113.3" font-family="Times,serif" font-size="14.00">is_some</text>
</g>
<!-- simple_map::contains_key&#45;&gt;option::is_some -->
<g id="edge23" class="edge">
<title>simple_map::contains_key&#45;&gt;option::is_some</title>
<path fill="none" stroke="black" d="M965.62,-364.22C1066.97,-362.25 1268.54,-355.39 1290,-332 1337.47,-280.25 1322.79,-236.1 1290,-174 1280.87,-156.7 1263.72,-143.74 1247.46,-134.67"/>
<polygon fill="black" stroke="black" points="1249.37,-131.71 1238.88,-130.21 1246.14,-137.92 1249.37,-131.71"/>
</g>
<!-- error::not_found&#45;&gt;error::canonical -->
<g id="edge25" class="edge">
<title>error::not_found&#45;&gt;error::canonical</title>
<path fill="none" stroke="black" d="M92.6,-268.66C101.11,-264.86 110.41,-260.74 119,-257 149.59,-243.68 184.34,-228.96 210.5,-217.95"/>
<polygon fill="black" stroke="black" points="211.53,-221.32 219.39,-214.22 208.82,-214.86 211.53,-221.32"/>
</g>
<!-- simple_map::borrow_mut&#45;&gt;error::invalid_argument -->
<g id="edge28" class="edge">
<title>simple_map::borrow_mut&#45;&gt;error::invalid_argument</title>
<path fill="none" stroke="black" d="M747.37,-350.73C737,-346.52 725.2,-342.41 714,-340 645.69,-325.32 624.1,-351.48 557,-332 538.31,-326.57 519.28,-316.36 503.98,-306.74"/>
<polygon fill="black" stroke="black" points="506.06,-303.92 495.77,-301.39 502.24,-309.78 506.06,-303.92"/>
</g>
<!-- simple_map::borrow_mut&#45;&gt;option::extract -->
<g id="edge26" class="edge">
<title>simple_map::borrow_mut&#45;&gt;option::extract</title>
<path fill="none" stroke="black" d="M808.61,-350.63C818.98,-346.41 830.79,-342.32 842,-340 891.65,-329.74 1022.62,-350.05 1070,-332 1124.96,-311.07 1171.73,-258.07 1196.06,-226.27"/>
<polygon fill="black" stroke="black" points="1198.79,-228.46 1201.96,-218.35 1193.18,-224.27 1198.79,-228.46"/>
</g>
<!-- simple_map::borrow_mut&#45;&gt;simple_map::find -->
<g id="edge29" class="edge">
<title>simple_map::borrow_mut&#45;&gt;simple_map::find</title>
<path fill="none" stroke="black" d="M778,-347.82C778,-337.69 778,-324.6 778,-312.92"/>
<polygon fill="black" stroke="black" points="781.5,-312.95 778,-302.95 774.5,-312.95 781.5,-312.95"/>
</g>
<!-- simple_map::borrow_mut&#45;&gt;option::is_some -->
<g id="edge27" class="edge">
<title>simple_map::borrow_mut&#45;&gt;option::is_some</title>
<path fill="none" stroke="black" d="M808.27,-350.71C818.72,-346.44 830.66,-342.3 842,-340 905.4,-327.15 1071.37,-351.65 1133,-332 1196.18,-311.85 1225.76,-307.5 1257,-249 1272.7,-219.6 1268.72,-205.2 1257,-174 1252.37,-161.69 1243.67,-150.31 1234.88,-141.07"/>
<polygon fill="black" stroke="black" points="1237.55,-138.79 1227.96,-134.28 1232.64,-143.78 1237.55,-138.79"/>
</g>
<!-- option::extract&#45;&gt;option::is_some -->
<g id="edge30" class="edge">
<title>option::extract&#45;&gt;option::is_some</title>
<path fill="none" stroke="black" d="M1212.73,-181.82C1211.97,-171.58 1210.99,-158.33 1210.11,-146.55"/>
<polygon fill="black" stroke="black" points="1213.63,-146.66 1209.4,-136.94 1206.65,-147.17 1213.63,-146.66"/>
</g>
<!-- vector::is_empty -->
<g id="node19" class="node">
<title>vector::is_empty</title>
<ellipse fill="none" stroke="black" cx="1141" cy="-34" rx="43.59" ry="18"/>
<text text-anchor="middle" x="1141" y="-30.3" font-family="Times,serif" font-size="14.00">is_empty</text>
</g>
<!-- option::is_none&#45;&gt;vector::is_empty -->
<g id="edge31" class="edge">
<title>option::is_none&#45;&gt;vector::is_empty</title>
<path fill="none" stroke="black" d="M1124.89,-181.76C1127.99,-153.51 1134.18,-97.11 1137.92,-63.04"/>
<polygon fill="black" stroke="black" points="1141.36,-63.84 1138.97,-53.51 1134.4,-63.07 1141.36,-63.84"/>
</g>
<!-- option::none -->
<g id="node20" class="node">
<title>option::none</title>
<ellipse fill="none" stroke="black" cx="961" cy="-200" rx="27.9" ry="18"/>
<text text-anchor="middle" x="961" y="-196.3" font-family="Times,serif" font-size="14.00">none</text>
</g>
<!-- simple_map::find&#45;&gt;option::none -->
<g id="edge32" class="edge">
<title>simple_map::find&#45;&gt;option::none</title>
<path fill="none" stroke="black" d="M800.07,-272.23C831.91,-258.14 890.96,-232 928,-215.61"/>
<polygon fill="black" stroke="black" points="929.16,-218.92 936.89,-211.67 926.33,-212.52 929.16,-218.92"/>
</g>
<!-- option::some -->
<g id="node21" class="node">
<title>option::some</title>
<ellipse fill="none" stroke="black" cx="1037" cy="-200" rx="29.8" ry="18"/>
<text text-anchor="middle" x="1037" y="-196.3" font-family="Times,serif" font-size="14.00">some</text>
</g>
<!-- simple_map::find&#45;&gt;option::some -->
<g id="edge33" class="edge">
<title>simple_map::find&#45;&gt;option::some</title>
<path fill="none" stroke="black" d="M804.62,-278.53C861.35,-271.06 989.66,-253.76 998,-249 1007.35,-243.66 1015.36,-235.14 1021.64,-226.75"/>
<polygon fill="black" stroke="black" points="1024.35,-228.99 1027.13,-218.76 1018.58,-225.02 1024.35,-228.99"/>
</g>
<!-- comparator::compare -->
<g id="node22" class="node">
<title>comparator::compare</title>
<ellipse fill="none" stroke="black" cx="611" cy="-200" rx="41.69" ry="18"/>
<text text-anchor="middle" x="611" y="-196.3" font-family="Times,serif" font-size="14.00">compare</text>
</g>
<!-- simple_map::find&#45;&gt;comparator::compare -->
<g id="edge34" class="edge">
<title>simple_map::find&#45;&gt;comparator::compare</title>
<path fill="none" stroke="black" d="M751.73,-278.21C727.27,-273.85 690.41,-265.12 662,-249 651.21,-242.88 640.93,-234.02 632.45,-225.57"/>
<polygon fill="black" stroke="black" points="635.11,-223.29 625.68,-218.47 630.05,-228.12 635.11,-223.29"/>
</g>
<!-- comparator::is_smaller_than -->
<g id="node23" class="node">
<title>comparator::is_smaller_than</title>
<ellipse fill="none" stroke="black" cx="738" cy="-200" rx="66.89" ry="18"/>
<text text-anchor="middle" x="738" y="-196.3" font-family="Times,serif" font-size="14.00">is_smaller_than</text>
</g>
<!-- simple_map::find&#45;&gt;comparator::is_smaller_than -->
<g id="edge35" class="edge">
<title>simple_map::find&#45;&gt;comparator::is_smaller_than</title>
<path fill="none" stroke="black" d="M769.91,-265.61C764.64,-254.95 757.65,-240.8 751.56,-228.45"/>
<polygon fill="black" stroke="black" points="754.73,-226.98 747.17,-219.56 748.46,-230.08 754.73,-226.98"/>
</g>
<!-- option::is_some&#45;&gt;vector::is_empty -->
<g id="edge36" class="edge">
<title>option::is_some&#45;&gt;vector::is_empty</title>
<path fill="none" stroke="black" d="M1194.44,-99.61C1185.09,-88.3 1172.47,-73.05 1161.85,-60.2"/>
<polygon fill="black" stroke="black" points="1164.57,-58.01 1155.5,-52.53 1159.18,-62.47 1164.57,-58.01"/>
</g>
<!-- vector::singleton -->
<g id="node24" class="node">
<title>vector::singleton</title>
<ellipse fill="none" stroke="black" cx="1037" cy="-34" rx="42.79" ry="18"/>
<text text-anchor="middle" x="1037" y="-30.3" font-family="Times,serif" font-size="14.00">singleton</text>
</g>
<!-- option::some&#45;&gt;vector::singleton -->
<g id="edge37" class="edge">
<title>option::some&#45;&gt;vector::singleton</title>
<path fill="none" stroke="black" d="M1037,-181.76C1037,-153.63 1037,-97.6 1037,-63.49"/>
<polygon fill="black" stroke="black" points="1040.5,-63.52 1037,-53.52 1033.5,-63.52 1040.5,-63.52"/>
</g>
<!-- bcs::to_bytes -->
<g id="node25" class="node">
<title>bcs::to_bytes</title>
<ellipse fill="none" stroke="black" cx="869" cy="-117" rx="40.09" ry="18"/>
<text text-anchor="middle" x="869" y="-113.3" font-family="Times,serif" font-size="14.00">to_bytes</text>
</g>
<!-- comparator::compare&#45;&gt;bcs::to_bytes -->
<g id="edge38" class="edge">
<title>comparator::compare&#45;&gt;bcs::to_bytes</title>
<path fill="none" stroke="black" d="M634.87,-184.83C643.18,-180.57 652.74,-176.4 662,-174 695.39,-165.34 785.21,-179.38 817,-166 829.01,-160.94 840,-151.83 848.75,-142.9"/>
<polygon fill="black" stroke="black" points="851.22,-145.38 855.39,-135.64 846.06,-140.66 851.22,-145.38"/>
</g>
<!-- comparator::compare_u8_vector -->
<g id="node26" class="node">
<title>comparator::compare_u8_vector</title>
<ellipse fill="none" stroke="black" cx="650" cy="-117" rx="81.49" ry="18"/>
<text text-anchor="middle" x="650" y="-113.3" font-family="Times,serif" font-size="14.00">compare_u8_vector</text>
</g>
<!-- comparator::compare&#45;&gt;comparator::compare_u8_vector -->
<g id="edge39" class="edge">
<title>comparator::compare&#45;&gt;comparator::compare_u8_vector</title>
<path fill="none" stroke="black" d="M619.08,-182.22C624.19,-171.61 630.91,-157.65 636.78,-145.45"/>
<polygon fill="black" stroke="black" points="639.82,-147.21 641,-136.68 633.51,-144.18 639.82,-147.21"/>
</g>
</g>
</svg>
