<?xml version="1.0" encoding="UTF-8" standalone="no"?>
<!DOCTYPE svg PUBLIC "-//W3C//DTD SVG 1.1//EN"
 "http://www.w3.org/Graphics/SVG/1.1/DTD/svg11.dtd">
<!-- Generated by graphviz version 7.0.0 (20221023.0053)
 -->
<!-- Title: G Pages: 1 -->
<svg width="608pt" height="371pt"
 viewBox="0.00 0.00 608.14 371.00" xmlns="http://www.w3.org/2000/svg" xmlns:xlink="http://www.w3.org/1999/xlink">
<g id="graph0" class="graph" transform="scale(1 1) rotate(0) translate(4 367)">
<title>G</title>
<polygon fill="white" stroke="none" points="-4,4 -4,-367 604.14,-367 604.14,4 -4,4"/>
<g id="clust1" class="cluster">
<title>cluster_token</title>
<polygon fill="none" stroke="black" points="144.14,-136 144.14,-355 592.14,-355 592.14,-136 144.14,-136"/>
<text text-anchor="middle" x="368.14" y="-339.8" font-family="Times,serif" font-size="14.00">token</text>
</g>
<!-- add -->
<g id="node1" class="node">
<title>add</title>
<ellipse fill="none" stroke="black" cx="259.14" cy="-18" rx="27" ry="18"/>
<text text-anchor="middle" x="259.14" y="-14.3" font-family="Times,serif" font-size="14.00">add</text>
</g>
<!-- new_with_key_and_property_value -->
<g id="node2" class="node">
<title>new_with_key_and_property_value</title>
<ellipse fill="none" stroke="black" cx="137.14" cy="-90" rx="137.28" ry="18"/>
<text text-anchor="middle" x="137.14" y="-86.3" font-family="Times,serif" font-size="14.00">new_with_key_and_property_value</text>
</g>
<!-- new_with_key_and_property_value&#45;&gt;add -->
<g id="edge1" class="edge">
<title>new_with_key_and_property_value&#45;&gt;add</title>
<path fill="none" stroke="black" d="M166.67,-72.05C185.59,-61.2 210.08,-47.15 229.1,-36.24"/>
<polygon fill="black" stroke="black" points="230.79,-39.3 237.72,-31.29 227.3,-33.23 230.79,-39.3"/>
</g>
<!-- update_property_map -->
<g id="node3" class="node">
<title>update_property_map</title>
<ellipse fill="none" stroke="black" cx="381.14" cy="-90" rx="88.28" ry="18"/>
<text text-anchor="middle" x="381.14" y="-86.3" font-family="Times,serif" font-size="14.00">update_property_map</text>
</g>
<!-- update_property_map&#45;&gt;add -->
<g id="edge2" class="edge">
<title>update_property_map&#45;&gt;add</title>
<path fill="none" stroke="black" d="M352.53,-72.59C333.43,-61.63 308.35,-47.24 289,-36.13"/>
<polygon fill="black" stroke="black" points="290.91,-33.19 280.49,-31.25 287.43,-39.27 290.91,-33.19"/>
</g>
<!-- token::mutate_tokendata_property -->
<g id="node4" class="node">
<title>token::mutate_tokendata_property</title>
<ellipse fill="none" stroke="black" cx="476.14" cy="-306" rx="107.78" ry="18"/>
<text text-anchor="middle" x="476.14" y="-302.3" font-family="Times,serif" font-size="14.00">mutate_tokendata_property</text>
</g>
<!-- token::mutate_tokendata_property&#45;&gt;update_property_map -->
<g id="edge3" class="edge">
<title>token::mutate_tokendata_property&#45;&gt;update_property_map</title>
<path fill="none" stroke="black" d="M474.96,-287.64C472.08,-255.49 462.55,-185.46 432.14,-136 427.4,-128.29 420.93,-121.16 414.18,-114.96"/>
<polygon fill="black" stroke="black" points="416.63,-112.45 406.76,-108.61 412.08,-117.77 416.63,-112.45"/>
</g>
<!-- token::update_token_property_internal -->
<g id="node5" class="node">
<title>token::update_token_property_internal</title>
<ellipse fill="none" stroke="black" cx="300.14" cy="-162" rx="123.48" ry="18"/>
<text text-anchor="middle" x="300.14" y="-158.3" font-family="Times,serif" font-size="14.00">update_token_property_internal</text>
</g>
<!-- token::update_token_property_internal&#45;&gt;update_property_map -->
<g id="edge4" class="edge">
<title>token::update_token_property_internal&#45;&gt;update_property_map</title>
<path fill="none" stroke="black" d="M319.75,-144.05C329.72,-135.43 342.02,-124.8 352.99,-115.32"/>
<polygon fill="black" stroke="black" points="355.01,-118.21 360.28,-109.02 350.43,-112.91 355.01,-118.21"/>
</g>
<!-- token::mutate_one_token -->
<g id="node6" class="node">
<title>token::mutate_one_token</title>
<ellipse fill="none" stroke="black" cx="275.14" cy="-234" rx="76.09" ry="18"/>
<text text-anchor="middle" x="275.14" y="-230.3" font-family="Times,serif" font-size="14.00">mutate_one_token</text>
</g>
<!-- token::mutate_one_token&#45;&gt;token::update_token_property_internal -->
<g id="edge5" class="edge">
<title>token::mutate_one_token&#45;&gt;token::update_token_property_internal</title>
<path fill="none" stroke="black" d="M281.32,-215.7C284.01,-208.15 287.24,-199.12 290.25,-190.68"/>
<polygon fill="black" stroke="black" points="293.45,-192.12 293.52,-181.53 286.86,-189.77 293.45,-192.12"/>
</g>
<!-- token::mutate_token_properties -->
<g id="node7" class="node">
<title>token::mutate_token_properties</title>
<ellipse fill="none" stroke="black" cx="251.14" cy="-306" rx="98.58" ry="18"/>
<text text-anchor="middle" x="251.14" y="-302.3" font-family="Times,serif" font-size="14.00">mutate_token_properties</text>
</g>
<!-- token::mutate_token_properties&#45;&gt;token::mutate_one_token -->
<g id="edge6" class="edge">
<title>token::mutate_token_properties&#45;&gt;token::mutate_one_token</title>
<path fill="none" stroke="black" d="M257.07,-287.7C259.63,-280.24 262.68,-271.32 265.55,-262.97"/>
<polygon fill="black" stroke="black" points="268.85,-264.13 268.78,-253.54 262.23,-261.86 268.85,-264.13"/>
</g>
</g>
</svg>
