<?xml version="1.0" encoding="UTF-8" standalone="no"?>
<!DOCTYPE svg PUBLIC "-//W3C//DTD SVG 1.1//EN"
 "http://www.w3.org/Graphics/SVG/1.1/DTD/svg11.dtd">
<!-- Generated by graphviz version 7.0.0 (20221023.0053)
 -->
<!-- Title: G Pages: 1 -->
<svg width="854pt" height="531pt"
 viewBox="0.00 0.00 854.32 531.00" xmlns="http://www.w3.org/2000/svg" xmlns:xlink="http://www.w3.org/1999/xlink">
<g id="graph0" class="graph" transform="scale(1 1) rotate(0) translate(4 527)">
<title>G</title>
<polygon fill="white" stroke="none" points="-4,4 -4,-527 850.32,-527 850.32,4 -4,4"/>
<g id="clust1" class="cluster">
<title>cluster_simple_map</title>
<polygon fill="none" stroke="black" points="387,-257 387,-407 608,-407 608,-257 387,-257"/>
<text text-anchor="middle" x="497.5" y="-391.8" font-family="Times,serif" font-size="14.00">simple_map</text>
</g>
<g id="clust2" class="cluster">
<title>cluster_option</title>
<polygon fill="none" stroke="black" points="372,-91 372,-249 608,-249 608,-91 372,-91"/>
<text text-anchor="middle" x="490" y="-233.8" font-family="Times,serif" font-size="14.00">option</text>
</g>
<g id="clust3" class="cluster">
<title>cluster_error</title>
<polygon fill="none" stroke="black" points="616,-174 616,-332 778,-332 778,-174 616,-174"/>
<text text-anchor="middle" x="697" y="-316.8" font-family="Times,serif" font-size="14.00">error</text>
</g>
<g id="clust4" class="cluster">
<title>cluster_vector</title>
<polygon fill="none" stroke="black" points="393,-8 393,-83 600,-83 600,-8 393,-8"/>
<text text-anchor="middle" x="496.5" y="-67.8" font-family="Times,serif" font-size="14.00">vector</text>
</g>
<g id="clust5" class="cluster">
<title>cluster_comparator</title>
<polygon fill="none" stroke="black" points="112,-91 112,-249 364,-249 364,-91 112,-91"/>
<text text-anchor="middle" x="238" y="-233.8" font-family="Times,serif" font-size="14.00">comparator</text>
</g>
<g id="clust6" class="cluster">
<title>cluster_bcs</title>
<polygon fill="none" stroke="black" points="8,-91 8,-166 104,-166 104,-91 8,-91"/>
<text text-anchor="middle" x="56" y="-150.8" font-family="Times,serif" font-size="14.00">bcs</text>
</g>
<!-- borrow -->
<g id="node1" class="node">
<title>borrow</title>
<ellipse fill="none" stroke="black" cx="486" cy="-505" rx="36.29" ry="18"/>
<text text-anchor="middle" x="486" y="-501.3" font-family="Times,serif" font-size="14.00">borrow</text>
</g>
<!-- simple_map::borrow -->
<g id="node2" class="node">
<title>simple_map::borrow</title>
<ellipse fill="none" stroke="black" cx="431" cy="-358" rx="36.29" ry="18"/>
<text text-anchor="middle" x="431" y="-354.3" font-family="Times,serif" font-size="14.00">borrow</text>
</g>
<!-- borrow&#45;&gt;simple_map::borrow -->
<g id="edge1" class="edge">
<title>borrow&#45;&gt;simple_map::borrow</title>
<path fill="none" stroke="black" d="M479.47,-486.8C470.09,-462.05 452.68,-416.15 441.48,-386.62"/>
<polygon fill="black" stroke="black" points="444.87,-385.7 438.05,-377.6 438.33,-388.19 444.87,-385.7"/>
</g>
<!-- contains_key -->
<g id="node3" class="node">
<title>contains_key</title>
<ellipse fill="none" stroke="black" cx="536" cy="-433" rx="57.39" ry="18"/>
<text text-anchor="middle" x="536" y="-429.3" font-family="Times,serif" font-size="14.00">contains_key</text>
</g>
<!-- borrow&#45;&gt;contains_key -->
<g id="edge2" class="edge">
<title>borrow&#45;&gt;contains_key</title>
<path fill="none" stroke="black" d="M497.6,-487.76C503.51,-479.49 510.83,-469.23 517.5,-459.9"/>
<polygon fill="black" stroke="black" points="520.27,-462.04 523.24,-451.87 514.58,-457.97 520.27,-462.04"/>
</g>
<!-- option::extract -->
<g id="node4" class="node">
<title>option::extract</title>
<ellipse fill="none" stroke="black" cx="566" cy="-200" rx="34.39" ry="18"/>
<text text-anchor="middle" x="566" y="-196.3" font-family="Times,serif" font-size="14.00">extract</text>
</g>
<!-- simple_map::borrow&#45;&gt;option::extract -->
<g id="edge3" class="edge">
<title>simple_map::borrow&#45;&gt;option::extract</title>
<path fill="none" stroke="black" d="M450.26,-342.57C454.29,-339.25 458.4,-335.63 462,-332 495.52,-298.22 528.74,-254.01 548.31,-226.56"/>
<polygon fill="black" stroke="black" points="551.1,-228.68 554.01,-218.49 545.38,-224.65 551.1,-228.68"/>
</g>
<!-- option::is_some -->
<g id="node5" class="node">
<title>option::is_some</title>
<ellipse fill="none" stroke="black" cx="560" cy="-117" rx="40.09" ry="18"/>
<text text-anchor="middle" x="560" y="-113.3" font-family="Times,serif" font-size="14.00">is_some</text>
</g>
<!-- simple_map::borrow&#45;&gt;option::is_some -->
<g id="edge4" class="edge">
<title>simple_map::borrow&#45;&gt;option::is_some</title>
<path fill="none" stroke="black" d="M457.82,-345.42C464.01,-343.22 470.65,-341.22 477,-340 493.64,-336.8 770.17,-344.14 782,-332 806.5,-306.85 803.58,-201.7 782,-174 761.1,-147.18 668.98,-131.19 610.17,-123.54"/>
<polygon fill="black" stroke="black" points="610.74,-120.09 600.38,-122.31 609.87,-127.03 610.74,-120.09"/>
</g>
<!-- error::invalid_argument -->
<g id="node6" class="node">
<title>error::invalid_argument</title>
<ellipse fill="none" stroke="black" cx="697" cy="-283" rx="73.39" ry="18"/>
<text text-anchor="middle" x="697" y="-279.3" font-family="Times,serif" font-size="14.00">invalid_argument</text>
</g>
<!-- simple_map::borrow&#45;&gt;error::invalid_argument -->
<g id="edge5" class="edge">
<title>simple_map::borrow&#45;&gt;error::invalid_argument</title>
<path fill="none" stroke="black" d="M457.85,-345.57C464.04,-343.36 470.67,-341.33 477,-340 535.83,-327.67 554.35,-348.99 612,-332 630.67,-326.5 649.69,-316.27 665,-306.67"/>
<polygon fill="black" stroke="black" points="666.73,-309.71 673.21,-301.33 662.92,-303.85 666.73,-309.71"/>
</g>
<!-- simple_map::find -->
<g id="node7" class="node">
<title>simple_map::find</title>
<ellipse fill="none" stroke="black" cx="426" cy="-283" rx="27" ry="18"/>
<text text-anchor="middle" x="426" y="-279.3" font-family="Times,serif" font-size="14.00">find</text>
</g>
<!-- simple_map::borrow&#45;&gt;simple_map::find -->
<g id="edge6" class="edge">
<title>simple_map::borrow&#45;&gt;simple_map::find</title>
<path fill="none" stroke="black" d="M429.82,-339.7C429.26,-331.67 428.6,-321.9 427.97,-312.8"/>
<polygon fill="black" stroke="black" points="431.47,-312.68 427.3,-302.94 424.49,-313.15 431.47,-312.68"/>
</g>
<!-- simple_map::contains_key -->
<g id="node8" class="node">
<title>simple_map::contains_key</title>
<ellipse fill="none" stroke="black" cx="543" cy="-358" rx="57.39" ry="18"/>
<text text-anchor="middle" x="543" y="-354.3" font-family="Times,serif" font-size="14.00">contains_key</text>
</g>
<!-- contains_key&#45;&gt;simple_map::contains_key -->
<g id="edge7" class="edge">
<title>contains_key&#45;&gt;simple_map::contains_key</title>
<path fill="none" stroke="black" d="M537.66,-414.7C538.43,-406.67 539.37,-396.9 540.24,-387.8"/>
<polygon fill="black" stroke="black" points="543.71,-388.22 541.18,-377.94 536.75,-387.56 543.71,-388.22"/>
</g>
<!-- option::extract&#45;&gt;option::is_some -->
<g id="edge8" class="edge">
<title>option::extract&#45;&gt;option::is_some</title>
<path fill="none" stroke="black" d="M564.73,-181.82C563.97,-171.58 562.99,-158.33 562.11,-146.55"/>
<polygon fill="black" stroke="black" points="565.63,-146.66 561.4,-136.94 558.65,-147.17 565.63,-146.66"/>
</g>
<!-- vector::is_empty -->
<g id="node9" class="node">
<title>vector::is_empty</title>
<ellipse fill="none" stroke="black" cx="548" cy="-34" rx="43.59" ry="18"/>
<text text-anchor="middle" x="548" y="-30.3" font-family="Times,serif" font-size="14.00">is_empty</text>
</g>
<!-- option::is_some&#45;&gt;vector::is_empty -->
<g id="edge9" class="edge">
<title>option::is_some&#45;&gt;vector::is_empty</title>
<path fill="none" stroke="black" d="M557.46,-98.82C555.94,-88.58 553.97,-75.33 552.23,-63.55"/>
<polygon fill="black" stroke="black" points="555.73,-63.31 550.8,-53.93 548.81,-64.33 555.73,-63.31"/>
</g>
<!-- error::canonical -->
<g id="node10" class="node">
<title>error::canonical</title>
<ellipse fill="none" stroke="black" cx="697" cy="-200" rx="44.39" ry="18"/>
<text text-anchor="middle" x="697" y="-196.3" font-family="Times,serif" font-size="14.00">canonical</text>
</g>
<!-- error::invalid_argument&#45;&gt;error::canonical -->
<g id="edge10" class="edge">
<title>error::invalid_argument&#45;&gt;error::canonical</title>
<path fill="none" stroke="black" d="M697,-264.82C697,-254.69 697,-241.6 697,-229.92"/>
<polygon fill="black" stroke="black" points="700.5,-229.95 697,-219.95 693.5,-229.95 700.5,-229.95"/>
</g>
<!-- option::none -->
<g id="node11" class="node">
<title>option::none</title>
<ellipse fill="none" stroke="black" cx="486" cy="-200" rx="27.9" ry="18"/>
<text text-anchor="middle" x="486" y="-196.3" font-family="Times,serif" font-size="14.00">none</text>
</g>
<!-- simple_map::find&#45;&gt;option::none -->
<g id="edge11" class="edge">
<title>simple_map::find&#45;&gt;option::none</title>
<path fill="none" stroke="black" d="M437.57,-266.38C446.12,-254.84 457.93,-238.9 467.75,-225.64"/>
<polygon fill="black" stroke="black" points="470.43,-227.9 473.57,-217.79 464.8,-223.74 470.43,-227.9"/>
</g>
<!-- option::some -->
<g id="node12" class="node">
<title>option::some</title>
<ellipse fill="none" stroke="black" cx="410" cy="-200" rx="29.8" ry="18"/>
<text text-anchor="middle" x="410" y="-196.3" font-family="Times,serif" font-size="14.00">some</text>
</g>
<!-- simple_map::find&#45;&gt;option::some -->
<g id="edge12" class="edge">
<title>simple_map::find&#45;&gt;option::some</title>
<path fill="none" stroke="black" d="M422.61,-264.82C420.57,-254.51 417.93,-241.14 415.59,-229.31"/>
<polygon fill="black" stroke="black" points="419.05,-228.77 413.68,-219.64 412.19,-230.13 419.05,-228.77"/>
</g>
<!-- comparator::compare -->
<g id="node13" class="node">
<title>comparator::compare</title>
<ellipse fill="none" stroke="black" cx="314" cy="-200" rx="41.69" ry="18"/>
<text text-anchor="middle" x="314" y="-196.3" font-family="Times,serif" font-size="14.00">compare</text>
</g>
<!-- simple_map::find&#45;&gt;comparator::compare -->
<g id="edge13" class="edge">
<title>simple_map::find&#45;&gt;comparator::compare</title>
<path fill="none" stroke="black" d="M404.95,-271.4C393.65,-265.37 379.68,-257.37 368,-249 357.65,-241.58 347.01,-232.49 337.95,-224.23"/>
<polygon fill="black" stroke="black" points="340.61,-221.93 330.9,-217.67 335.84,-227.05 340.61,-221.93"/>
</g>
<!-- comparator::is_smaller_than -->
<g id="node14" class="node">
<title>comparator::is_smaller_than</title>
<ellipse fill="none" stroke="black" cx="187" cy="-200" rx="66.89" ry="18"/>
<text text-anchor="middle" x="187" y="-196.3" font-family="Times,serif" font-size="14.00">is_smaller_than</text>
</g>
<!-- simple_map::find&#45;&gt;comparator::is_smaller_than -->
<g id="edge14" class="edge">
<title>simple_map::find&#45;&gt;comparator::is_smaller_than</title>
<path fill="none" stroke="black" d="M399.18,-279.58C366.16,-275.93 308.82,-267.38 263,-249 247.03,-242.59 230.72,-232.8 217.33,-223.73"/>
<polygon fill="black" stroke="black" points="219.58,-221.04 209.38,-218.18 215.57,-226.77 219.58,-221.04"/>
</g>
<!-- simple_map::contains_key&#45;&gt;option::is_some -->
<g id="edge15" class="edge">
<title>simple_map::contains_key&#45;&gt;option::is_some</title>
<path fill="none" stroke="black" d="M600.36,-355.7C675.13,-353.4 798.04,-347.32 812,-332 859.3,-280.1 855.94,-228.78 812,-174 787.3,-143.21 677.25,-128.27 611.02,-121.96"/>
<polygon fill="black" stroke="black" points="611.38,-118.47 601.1,-121.05 610.74,-125.45 611.38,-118.47"/>
</g>
<!-- simple_map::contains_key&#45;&gt;simple_map::find -->
<g id="edge16" class="edge">
<title>simple_map::contains_key&#45;&gt;simple_map::find</title>
<path fill="none" stroke="black" d="M517.9,-341.34C499.37,-329.78 474.13,-314.03 454.78,-301.96"/>
<polygon fill="black" stroke="black" points="456.89,-299.15 446.56,-296.83 453.19,-305.09 456.89,-299.15"/>
</g>
<!-- vector::singleton -->
<g id="node15" class="node">
<title>vector::singleton</title>
<ellipse fill="none" stroke="black" cx="444" cy="-34" rx="42.79" ry="18"/>
<text text-anchor="middle" x="444" y="-30.3" font-family="Times,serif" font-size="14.00">singleton</text>
</g>
<!-- option::some&#45;&gt;vector::singleton -->
<g id="edge17" class="edge">
<title>option::some&#45;&gt;vector::singleton</title>
<path fill="none" stroke="black" d="M413.57,-181.76C419.43,-153.51 431.12,-97.11 438.19,-63.04"/>
<polygon fill="black" stroke="black" points="441.56,-63.99 440.17,-53.49 434.71,-62.57 441.56,-63.99"/>
</g>
<!-- bcs::to_bytes -->
<g id="node16" class="node">
<title>bcs::to_bytes</title>
<ellipse fill="none" stroke="black" cx="56" cy="-117" rx="40.09" ry="18"/>
<text text-anchor="middle" x="56" y="-113.3" font-family="Times,serif" font-size="14.00">to_bytes</text>
</g>
<!-- comparator::compare&#45;&gt;bcs::to_bytes -->
<g id="edge18" class="edge">
<title>comparator::compare&#45;&gt;bcs::to_bytes</title>
<path fill="none" stroke="black" d="M290.13,-184.83C281.82,-180.57 272.26,-176.4 263,-174 229.61,-165.34 139.79,-179.38 108,-166 95.99,-160.94 85,-151.83 76.25,-142.9"/>
<polygon fill="black" stroke="black" points="78.94,-140.66 69.61,-135.64 73.78,-145.38 78.94,-140.66"/>
</g>
<!-- comparator::compare_u8_vector -->
<g id="node17" class="node">
<title>comparator::compare_u8_vector</title>
<ellipse fill="none" stroke="black" cx="275" cy="-117" rx="81.49" ry="18"/>
<text text-anchor="middle" x="275" y="-113.3" font-family="Times,serif" font-size="14.00">compare_u8_vector</text>
</g>
<!-- comparator::compare&#45;&gt;comparator::compare_u8_vector -->
<g id="edge19" class="edge">
<title>comparator::compare&#45;&gt;comparator::compare_u8_vector</title>
<path fill="none" stroke="black" d="M305.92,-182.22C300.81,-171.61 294.09,-157.65 288.22,-145.45"/>
<polygon fill="black" stroke="black" points="291.49,-144.18 284,-136.68 285.18,-147.21 291.49,-144.18"/>
</g>
</g>
</svg>
