<?xml version="1.0" encoding="UTF-8" standalone="no"?>
<!DOCTYPE svg PUBLIC "-//W3C//DTD SVG 1.1//EN"
 "http://www.w3.org/Graphics/SVG/1.1/DTD/svg11.dtd">
<!-- Generated by graphviz version 7.0.0 (20221023.0053)
 -->
<!-- Title: G Pages: 1 -->
<svg width="432pt" height="332pt"
 viewBox="0.00 0.00 431.55 332.00" xmlns="http://www.w3.org/2000/svg" xmlns:xlink="http://www.w3.org/1999/xlink">
<g id="graph0" class="graph" transform="scale(1 1) rotate(0) translate(4 328)">
<title>G</title>
<polygon fill="white" stroke="none" points="-4,4 -4,-328 427.55,-328 427.55,4 -4,4"/>
<!-- property_map -->
<g id="node1" class="node">
<title>property_map</title>
<ellipse fill="none" stroke="black" cx="240.55" cy="-306" rx="60.39" ry="18"/>
<text text-anchor="middle" x="240.55" y="-302.3" font-family="Times,serif" font-size="14.00">property_map</text>
</g>
<!-- string -->
<g id="node2" class="node">
<title>string</title>
<ellipse fill="none" stroke="black" cx="30.55" cy="-162" rx="30.59" ry="18"/>
<text text-anchor="middle" x="30.55" y="-158.3" font-family="Times,serif" font-size="14.00">string</text>
</g>
<!-- property_map&#45;&gt;string -->
<g id="edge1" class="edge">
<title>property_map&#45;&gt;string</title>
<path fill="none" stroke="black" d="M184.22,-299.08C126.72,-291.73 43.19,-277.01 23.55,-252 10.09,-234.86 13.53,-209.7 19.36,-190.5"/>
<polygon fill="black" stroke="black" points="22.63,-191.74 22.57,-181.14 16.01,-189.46 22.63,-191.74"/>
</g>
<!-- error -->
<g id="node3" class="node">
<title>error</title>
<ellipse fill="none" stroke="black" cx="255.55" cy="-90" rx="27.9" ry="18"/>
<text text-anchor="middle" x="255.55" y="-86.3" font-family="Times,serif" font-size="14.00">error</text>
</g>
<!-- property_map&#45;&gt;error -->
<g id="edge2" class="edge">
<title>property_map&#45;&gt;error</title>
<path fill="none" stroke="black" d="M286.2,-293.82C311.52,-285.71 342.11,-272.48 363.55,-252 389.27,-227.42 390.57,-214.67 398.55,-180 402.14,-164.41 407.69,-157.13 398.55,-144 375.35,-110.66 328.6,-98.24 294.86,-93.65"/>
<polygon fill="black" stroke="black" points="295.37,-90.19 285.03,-92.5 294.56,-97.14 295.37,-90.19"/>
</g>
<!-- type_info -->
<g id="node4" class="node">
<title>type_info</title>
<ellipse fill="none" stroke="black" cx="182.55" cy="-234" rx="44.39" ry="18"/>
<text text-anchor="middle" x="182.55" y="-230.3" font-family="Times,serif" font-size="14.00">type_info</text>
</g>
<!-- property_map&#45;&gt;type_info -->
<g id="edge3" class="edge">
<title>property_map&#45;&gt;type_info</title>
<path fill="none" stroke="black" d="M226.51,-288.05C219.57,-279.68 211.05,-269.4 203.37,-260.13"/>
<polygon fill="black" stroke="black" points="206.1,-257.94 197.02,-252.47 200.71,-262.41 206.1,-257.94"/>
</g>
<!-- bcs -->
<g id="node5" class="node">
<title>bcs</title>
<ellipse fill="none" stroke="black" cx="396.55" cy="-90" rx="27" ry="18"/>
<text text-anchor="middle" x="396.55" y="-86.3" font-family="Times,serif" font-size="14.00">bcs</text>
</g>
<!-- property_map&#45;&gt;bcs -->
<g id="edge4" class="edge">
<title>property_map&#45;&gt;bcs</title>
<path fill="none" stroke="black" d="M294.66,-297.78C326.35,-290.93 365.03,-277.65 390.55,-252 425.29,-217.07 423.99,-192.54 415.55,-144 414.03,-135.26 411.2,-126.06 408.18,-117.82"/>
<polygon fill="black" stroke="black" points="411.52,-116.74 404.6,-108.72 405,-119.31 411.52,-116.74"/>
</g>
<!-- from_bcs -->
<g id="node6" class="node">
<title>from_bcs</title>
<ellipse fill="none" stroke="black" cx="76.55" cy="-234" rx="44.39" ry="18"/>
<text text-anchor="middle" x="76.55" y="-230.3" font-family="Times,serif" font-size="14.00">from_bcs</text>
</g>
<!-- property_map&#45;&gt;from_bcs -->
<g id="edge5" class="edge">
<title>property_map&#45;&gt;from_bcs</title>
<path fill="none" stroke="black" d="M206.96,-290.67C180.82,-279.51 144.45,-263.98 116.76,-252.16"/>
<polygon fill="black" stroke="black" points="118.19,-248.97 107.62,-248.26 115.45,-255.41 118.19,-248.97"/>
</g>
<!-- simple_map -->
<g id="node7" class="node">
<title>simple_map</title>
<ellipse fill="none" stroke="black" cx="299.55" cy="-234" rx="54.69" ry="18"/>
<text text-anchor="middle" x="299.55" y="-230.3" font-family="Times,serif" font-size="14.00">simple_map</text>
</g>
<!-- property_map&#45;&gt;simple_map -->
<g id="edge6" class="edge">
<title>property_map&#45;&gt;simple_map</title>
<path fill="none" stroke="black" d="M254.83,-288.05C261.79,-279.8 270.3,-269.7 278.02,-260.54"/>
<polygon fill="black" stroke="black" points="280.65,-262.85 284.42,-252.95 275.3,-258.34 280.65,-262.85"/>
</g>
<!-- vector -->
<g id="node8" class="node">
<title>vector</title>
<ellipse fill="none" stroke="black" cx="49.55" cy="-18" rx="32.49" ry="18"/>
<text text-anchor="middle" x="49.55" y="-14.3" font-family="Times,serif" font-size="14.00">vector</text>
</g>
<!-- string&#45;&gt;vector -->
<g id="edge7" class="edge">
<title>string&#45;&gt;vector</title>
<path fill="none" stroke="black" d="M31.52,-143.54C32.67,-125.54 34.89,-96.71 38.55,-72 39.75,-63.88 41.41,-55.13 43.08,-47.13"/>
<polygon fill="black" stroke="black" points="46.45,-48.09 45.16,-37.58 39.61,-46.6 46.45,-48.09"/>
</g>
<!-- option -->
<g id="node9" class="node">
<title>option</title>
<ellipse fill="none" stroke="black" cx="80.55" cy="-90" rx="33.29" ry="18"/>
<text text-anchor="middle" x="80.55" y="-86.3" font-family="Times,serif" font-size="14.00">option</text>
</g>
<!-- string&#45;&gt;option -->
<g id="edge8" class="edge">
<title>string&#45;&gt;option</title>
<path fill="none" stroke="black" d="M41.89,-145.12C47.94,-136.64 55.53,-126.02 62.38,-116.43"/>
<polygon fill="black" stroke="black" points="65.06,-118.71 68.02,-108.54 59.36,-114.64 65.06,-118.71"/>
</g>
<!-- type_info&#45;&gt;string -->
<g id="edge9" class="edge">
<title>type_info&#45;&gt;string</title>
<path fill="none" stroke="black" d="M153.96,-219.83C128.45,-208.09 91.07,-190.87 64.15,-178.47"/>
<polygon fill="black" stroke="black" points="65.95,-175.45 55.4,-174.45 63.02,-181.81 65.95,-175.45"/>
</g>
<!-- type_info&#45;&gt;error -->
<g id="edge10" class="edge">
<title>type_info&#45;&gt;error</title>
<path fill="none" stroke="black" d="M191.35,-215.87C203.93,-191.41 227.15,-146.25 241.94,-117.46"/>
<polygon fill="black" stroke="black" points="245.01,-119.15 246.47,-108.66 238.78,-115.95 245.01,-119.15"/>
</g>
<!-- features -->
<g id="node10" class="node">
<title>features</title>
<ellipse fill="none" stroke="black" cx="155.55" cy="-162" rx="38.19" ry="18"/>
<text text-anchor="middle" x="155.55" y="-158.3" font-family="Times,serif" font-size="14.00">features</text>
</g>
<!-- type_info&#45;&gt;features -->
<g id="edge11" class="edge">
<title>type_info&#45;&gt;features</title>
<path fill="none" stroke="black" d="M176.01,-216.05C173.03,-208.32 169.42,-198.96 166.06,-190.27"/>
<polygon fill="black" stroke="black" points="169.43,-189.27 162.57,-181.2 162.9,-191.79 169.43,-189.27"/>
</g>
<!-- from_bcs&#45;&gt;string -->
<g id="edge12" class="edge">
<title>from_bcs&#45;&gt;string</title>
<path fill="none" stroke="black" d="M65.65,-216.41C60.18,-208.1 53.45,-197.85 47.34,-188.56"/>
<polygon fill="black" stroke="black" points="50.3,-186.69 41.88,-180.25 44.45,-190.53 50.3,-186.69"/>
</g>
<!-- simple_map&#45;&gt;error -->
<g id="edge14" class="edge">
<title>simple_map&#45;&gt;error</title>
<path fill="none" stroke="black" d="M292.19,-216.01C287.89,-205.71 282.53,-192.23 278.55,-180 272.01,-159.93 266.09,-136.84 261.89,-119.21"/>
<polygon fill="black" stroke="black" points="265.35,-118.66 259.68,-109.72 258.54,-120.25 265.35,-118.66"/>
</g>
<!-- simple_map&#45;&gt;option -->
<g id="edge13" class="edge">
<title>simple_map&#45;&gt;option</title>
<path fill="none" stroke="black" d="M257.92,-221.98C202.57,-207.24 111.3,-182.66 108.55,-180 92.25,-164.25 85.4,-139.12 82.54,-119.57"/>
<polygon fill="black" stroke="black" points="86.03,-119.29 81.4,-109.76 79.08,-120.1 86.03,-119.29"/>
</g>
<!-- comparator -->
<g id="node11" class="node">
<title>comparator</title>
<ellipse fill="none" stroke="black" cx="338.55" cy="-162" rx="51.19" ry="18"/>
<text text-anchor="middle" x="338.55" y="-158.3" font-family="Times,serif" font-size="14.00">comparator</text>
</g>
<!-- simple_map&#45;&gt;comparator -->
<g id="edge15" class="edge">
<title>simple_map&#45;&gt;comparator</title>
<path fill="none" stroke="black" d="M308.99,-216.05C313.4,-208.14 318.75,-198.54 323.68,-189.69"/>
<polygon fill="black" stroke="black" points="326.65,-191.55 328.46,-181.11 320.53,-188.14 326.65,-191.55"/>
</g>
<!-- option&#45;&gt;vector -->
<g id="edge16" class="edge">
<title>option&#45;&gt;vector</title>
<path fill="none" stroke="black" d="M73.04,-72.05C69.62,-64.32 65.47,-54.96 61.62,-46.27"/>
<polygon fill="black" stroke="black" points="64.84,-44.9 57.6,-37.17 58.44,-47.73 64.84,-44.9"/>
</g>
<!-- features&#45;&gt;error -->
<g id="edge18" class="edge">
<title>features&#45;&gt;error</title>
<path fill="none" stroke="black" d="M176.27,-146.5C191.28,-135.98 211.74,-121.67 228.11,-110.2"/>
<polygon fill="black" stroke="black" points="229.78,-113.31 235.97,-104.71 225.77,-107.57 229.78,-113.31"/>
</g>
<!-- signer -->
<g id="node12" class="node">
<title>signer</title>
<ellipse fill="none" stroke="black" cx="164.55" cy="-90" rx="32.49" ry="18"/>
<text text-anchor="middle" x="164.55" y="-86.3" font-family="Times,serif" font-size="14.00">signer</text>
</g>
<!-- features&#45;&gt;signer -->
<g id="edge17" class="edge">
<title>features&#45;&gt;signer</title>
<path fill="none" stroke="black" d="M157.77,-143.7C158.72,-136.32 159.85,-127.52 160.92,-119.25"/>
<polygon fill="black" stroke="black" points="164.35,-119.97 162.16,-109.61 157.41,-119.08 164.35,-119.97"/>
</g>
<!-- comparator&#45;&gt;bcs -->
<g id="edge19" class="edge">
<title>comparator&#45;&gt;bcs</title>
<path fill="none" stroke="black" d="M352.29,-144.41C359.6,-135.59 368.72,-124.58 376.78,-114.86"/>
<polygon fill="black" stroke="black" points="379.44,-117.14 383.12,-107.2 374.05,-112.67 379.44,-117.14"/>
</g>
</g>
</svg>
