<?xml version="1.0" encoding="UTF-8" standalone="no"?>
<!DOCTYPE svg PUBLIC "-//W3C//DTD SVG 1.1//EN"
 "http://www.w3.org/Graphics/SVG/1.1/DTD/svg11.dtd">
<!-- Generated by graphviz version 7.0.0 (20221023.0053)
 -->
<!-- Title: G Pages: 1 -->
<svg width="646pt" height="207pt"
 viewBox="0.00 0.00 645.59 207.00" xmlns="http://www.w3.org/2000/svg" xmlns:xlink="http://www.w3.org/1999/xlink">
<g id="graph0" class="graph" transform="scale(1 1) rotate(0) translate(4 203)">
<title>G</title>
<polygon fill="white" stroke="none" points="-4,4 -4,-203 641.59,-203 641.59,4 -4,4"/>
<g id="clust1" class="cluster">
<title>cluster_string</title>
<polygon fill="none" stroke="black" points="8,-8 8,-155 186,-155 186,-8 8,-8"/>
<text text-anchor="middle" x="97" y="-139.8" font-family="Times,serif" font-size="14.00">string</text>
</g>
<g id="clust2" class="cluster">
<title>cluster_type_info</title>
<polygon fill="none" stroke="black" points="194,-80 194,-155 310,-155 310,-80 194,-80"/>
<text text-anchor="middle" x="252" y="-139.8" font-family="Times,serif" font-size="14.00">type_info</text>
</g>
<g id="clust3" class="cluster">
<title>cluster_bcs</title>
<polygon fill="none" stroke="black" points="318,-80 318,-155 414,-155 414,-80 318,-80"/>
<text text-anchor="middle" x="366" y="-139.8" font-family="Times,serif" font-size="14.00">bcs</text>
</g>
<!-- create_property_value -->
<g id="node1" class="node">
<title>create_property_value</title>
<ellipse fill="none" stroke="black" cx="309" cy="-181" rx="89.08" ry="18"/>
<text text-anchor="middle" x="309" y="-177.3" font-family="Times,serif" font-size="14.00">create_property_value</text>
</g>
<!-- string::utf8 -->
<g id="node2" class="node">
<title>string::utf8</title>
<ellipse fill="none" stroke="black" cx="124" cy="-106" rx="27" ry="18"/>
<text text-anchor="middle" x="124" y="-102.3" font-family="Times,serif" font-size="14.00">utf8</text>
</g>
<!-- create_property_value&#45;&gt;string::utf8 -->
<g id="edge1" class="edge">
<title>create_property_value&#45;&gt;string::utf8</title>
<path fill="none" stroke="black" d="M237.3,-170.03C221.32,-166.42 204.76,-161.55 190,-155 174.98,-148.33 160.02,-137.85 148.15,-128.38"/>
<polygon fill="black" stroke="black" points="150.45,-125.74 140.52,-122.06 145.99,-131.14 150.45,-125.74"/>
</g>
<!-- type_info::type_name -->
<g id="node3" class="node">
<title>type_info::type_name</title>
<ellipse fill="none" stroke="black" cx="252" cy="-106" rx="50.09" ry="18"/>
<text text-anchor="middle" x="252" y="-102.3" font-family="Times,serif" font-size="14.00">type_name</text>
</g>
<!-- create_property_value&#45;&gt;type_info::type_name -->
<g id="edge2" class="edge">
<title>create_property_value&#45;&gt;type_info::type_name</title>
<path fill="none" stroke="black" d="M295.78,-163.07C288.73,-154.04 279.91,-142.74 272.03,-132.66"/>
<polygon fill="black" stroke="black" points="274.99,-130.76 266.08,-125.03 269.48,-135.07 274.99,-130.76"/>
</g>
<!-- bcs::to_bytes -->
<g id="node4" class="node">
<title>bcs::to_bytes</title>
<ellipse fill="none" stroke="black" cx="366" cy="-106" rx="40.09" ry="18"/>
<text text-anchor="middle" x="366" y="-102.3" font-family="Times,serif" font-size="14.00">to_bytes</text>
</g>
<!-- create_property_value&#45;&gt;bcs::to_bytes -->
<g id="edge3" class="edge">
<title>create_property_value&#45;&gt;bcs::to_bytes</title>
<path fill="none" stroke="black" d="M322.22,-163.07C329.37,-153.91 338.34,-142.42 346.3,-132.23"/>
<polygon fill="black" stroke="black" points="348.92,-134.57 352.31,-124.53 343.4,-130.26 348.92,-134.57"/>
</g>
<!-- create_property_value_raw -->
<g id="node5" class="node">
<title>create_property_value_raw</title>
<ellipse fill="none" stroke="black" cx="531" cy="-106" rx="106.68" ry="18"/>
<text text-anchor="middle" x="531" y="-102.3" font-family="Times,serif" font-size="14.00">create_property_value_raw</text>
</g>
<!-- create_property_value&#45;&gt;create_property_value_raw -->
<g id="edge4" class="edge">
<title>create_property_value&#45;&gt;create_property_value_raw</title>
<path fill="none" stroke="black" d="M371.2,-167.73C386.64,-164.13 403.04,-159.85 418,-155 441.14,-147.5 466.1,-137.15 486.66,-127.98"/>
<polygon fill="black" stroke="black" points="487.93,-131.24 495.6,-123.93 485.05,-124.87 487.93,-131.24"/>
</g>
<!-- string::internal_check_utf8 -->
<g id="node6" class="node">
<title>string::internal_check_utf8</title>
<ellipse fill="none" stroke="black" cx="97" cy="-34" rx="81.49" ry="18"/>
<text text-anchor="middle" x="97" y="-30.3" font-family="Times,serif" font-size="14.00">internal_check_utf8</text>
</g>
<!-- string::utf8&#45;&gt;string::internal_check_utf8 -->
<g id="edge5" class="edge">
<title>string::utf8&#45;&gt;string::internal_check_utf8</title>
<path fill="none" stroke="black" d="M117.46,-88.05C114.56,-80.52 111.05,-71.44 107.78,-62.94"/>
<polygon fill="black" stroke="black" points="111.07,-61.76 104.21,-53.69 104.54,-64.28 111.07,-61.76"/>
</g>
</g>
</svg>
