<?xml version="1.0" encoding="UTF-8" standalone="no"?>
<!DOCTYPE svg PUBLIC "-//W3C//DTD SVG 1.1//EN"
 "http://www.w3.org/Graphics/SVG/1.1/DTD/svg11.dtd">
<!-- Generated by graphviz version 7.0.0 (20221023.0053)
 -->
<!-- Title: G Pages: 1 -->
<svg width="472pt" height="371pt"
 viewBox="0.00 0.00 472.00 371.00" xmlns="http://www.w3.org/2000/svg" xmlns:xlink="http://www.w3.org/1999/xlink">
<g id="graph0" class="graph" transform="scale(1 1) rotate(0) translate(4 367)">
<title>G</title>
<polygon fill="white" stroke="none" points="-4,4 -4,-367 468,-367 468,4 -4,4"/>
<g id="clust1" class="cluster">
<title>cluster_token</title>
<polygon fill="none" stroke="black" points="8,-136 8,-355 456,-355 456,-136 8,-136"/>
<text text-anchor="middle" x="232" y="-339.8" font-family="Times,serif" font-size="14.00">token</text>
</g>
<!-- update_property_value -->
<g id="node1" class="node">
<title>update_property_value</title>
<ellipse fill="none" stroke="black" cx="245" cy="-18" rx="91.78" ry="18"/>
<text text-anchor="middle" x="245" y="-14.3" font-family="Times,serif" font-size="14.00">update_property_value</text>
</g>
<!-- update_property_map -->
<g id="node2" class="node">
<title>update_property_map</title>
<ellipse fill="none" stroke="black" cx="245" cy="-90" rx="88.28" ry="18"/>
<text text-anchor="middle" x="245" y="-86.3" font-family="Times,serif" font-size="14.00">update_property_map</text>
</g>
<!-- update_property_map&#45;&gt;update_property_value -->
<g id="edge1" class="edge">
<title>update_property_map&#45;&gt;update_property_value</title>
<path fill="none" stroke="black" d="M245,-71.7C245,-64.41 245,-55.73 245,-47.54"/>
<polygon fill="black" stroke="black" points="248.5,-47.62 245,-37.62 241.5,-47.62 248.5,-47.62"/>
</g>
<!-- token::mutate_tokendata_property -->
<g id="node3" class="node">
<title>token::mutate_tokendata_property</title>
<ellipse fill="none" stroke="black" cx="340" cy="-306" rx="107.78" ry="18"/>
<text text-anchor="middle" x="340" y="-302.3" font-family="Times,serif" font-size="14.00">mutate_tokendata_property</text>
</g>
<!-- token::mutate_tokendata_property&#45;&gt;update_property_map -->
<g id="edge2" class="edge">
<title>token::mutate_tokendata_property&#45;&gt;update_property_map</title>
<path fill="none" stroke="black" d="M338.82,-287.64C335.94,-255.49 326.41,-185.46 296,-136 291.26,-128.29 284.79,-121.16 278.04,-114.96"/>
<polygon fill="black" stroke="black" points="280.49,-112.45 270.62,-108.61 275.94,-117.77 280.49,-112.45"/>
</g>
<!-- token::update_token_property_internal -->
<g id="node4" class="node">
<title>token::update_token_property_internal</title>
<ellipse fill="none" stroke="black" cx="164" cy="-162" rx="123.48" ry="18"/>
<text text-anchor="middle" x="164" y="-158.3" font-family="Times,serif" font-size="14.00">update_token_property_internal</text>
</g>
<!-- token::update_token_property_internal&#45;&gt;update_property_map -->
<g id="edge3" class="edge">
<title>token::update_token_property_internal&#45;&gt;update_property_map</title>
<path fill="none" stroke="black" d="M183.61,-144.05C193.58,-135.43 205.89,-124.8 216.85,-115.32"/>
<polygon fill="black" stroke="black" points="218.87,-118.21 224.15,-109.02 214.29,-112.91 218.87,-118.21"/>
</g>
<!-- token::mutate_one_token -->
<g id="node5" class="node">
<title>token::mutate_one_token</title>
<ellipse fill="none" stroke="black" cx="139" cy="-234" rx="76.09" ry="18"/>
<text text-anchor="middle" x="139" y="-230.3" font-family="Times,serif" font-size="14.00">mutate_one_token</text>
</g>
<!-- token::mutate_one_token&#45;&gt;token::update_token_property_internal -->
<g id="edge4" class="edge">
<title>token::mutate_one_token&#45;&gt;token::update_token_property_internal</title>
<path fill="none" stroke="black" d="M145.18,-215.7C147.87,-208.15 151.1,-199.12 154.11,-190.68"/>
<polygon fill="black" stroke="black" points="157.31,-192.12 157.38,-181.53 150.72,-189.77 157.31,-192.12"/>
</g>
<!-- token::mutate_token_properties -->
<g id="node6" class="node">
<title>token::mutate_token_properties</title>
<ellipse fill="none" stroke="black" cx="115" cy="-306" rx="98.58" ry="18"/>
<text text-anchor="middle" x="115" y="-302.3" font-family="Times,serif" font-size="14.00">mutate_token_properties</text>
</g>
<!-- token::mutate_token_properties&#45;&gt;token::mutate_one_token -->
<g id="edge5" class="edge">
<title>token::mutate_token_properties&#45;&gt;token::mutate_one_token</title>
<path fill="none" stroke="black" d="M120.93,-287.7C123.49,-280.24 126.55,-271.32 129.41,-262.97"/>
<polygon fill="black" stroke="black" points="132.71,-264.13 132.64,-253.54 126.09,-261.86 132.71,-264.13"/>
</g>
</g>
</svg>
