<?xml version="1.0" encoding="UTF-8" standalone="no"?>
<!DOCTYPE svg PUBLIC "-//W3C//DTD SVG 1.1//EN"
 "http://www.w3.org/Graphics/SVG/1.1/DTD/svg11.dtd">
<!-- Generated by graphviz version 7.0.0 (20221023.0053)
 -->
<!-- Title: G Pages: 1 -->
<svg width="1164pt" height="467pt"
 viewBox="0.00 0.00 1163.72 467.00" xmlns="http://www.w3.org/2000/svg" xmlns:xlink="http://www.w3.org/1999/xlink">
<g id="graph0" class="graph" transform="scale(1 1) rotate(0) translate(4 463)">
<title>G</title>
<polygon fill="white" stroke="none" points="-4,4 -4,-463 1159.72,-463 1159.72,4 -4,4"/>
<g id="clust1" class="cluster">
<title>cluster_string</title>
<polygon fill="none" stroke="black" points="250,-340 250,-415 330,-415 330,-340 250,-340"/>
<text text-anchor="middle" x="290" y="-399.8" font-family="Times,serif" font-size="14.00">string</text>
</g>
<g id="clust2" class="cluster">
<title>cluster_error</title>
<polygon fill="none" stroke="black" points="8,-174 8,-332 440,-332 440,-174 8,-174"/>
<text text-anchor="middle" x="224" y="-316.8" font-family="Times,serif" font-size="14.00">error</text>
</g>
<g id="clust3" class="cluster">
<title>cluster_simple_map</title>
<polygon fill="none" stroke="black" points="513,-257 513,-415 798,-415 798,-257 513,-257"/>
<text text-anchor="middle" x="655.5" y="-399.8" font-family="Times,serif" font-size="14.00">simple_map</text>
</g>
<g id="clust4" class="cluster">
<title>cluster_option</title>
<polygon fill="none" stroke="black" points="812,-91 812,-249 1143,-249 1143,-91 812,-91"/>
<text text-anchor="middle" x="977.5" y="-233.8" font-family="Times,serif" font-size="14.00">option</text>
</g>
<g id="clust5" class="cluster">
<title>cluster_vector</title>
<polygon fill="none" stroke="black" points="855,-8 855,-83 1062,-83 1062,-8 855,-8"/>
<text text-anchor="middle" x="958.5" y="-67.8" font-family="Times,serif" font-size="14.00">vector</text>
</g>
<g id="clust6" class="cluster">
<title>cluster_comparator</title>
<polygon fill="none" stroke="black" points="448,-91 448,-249 700,-249 700,-91 448,-91"/>
<text text-anchor="middle" x="574" y="-233.8" font-family="Times,serif" font-size="14.00">comparator</text>
</g>
<g id="clust7" class="cluster">
<title>cluster_bcs</title>
<polygon fill="none" stroke="black" points="708,-91 708,-166 804,-166 804,-91 708,-91"/>
<text text-anchor="middle" x="756" y="-150.8" font-family="Times,serif" font-size="14.00">bcs</text>
</g>
<!-- add -->
<g id="node1" class="node">
<title>add</title>
<ellipse fill="none" stroke="black" cx="426" cy="-441" rx="27" ry="18"/>
<text text-anchor="middle" x="426" y="-437.3" font-family="Times,serif" font-size="14.00">add</text>
</g>
<!-- string::length -->
<g id="node2" class="node">
<title>string::length</title>
<ellipse fill="none" stroke="black" cx="290" cy="-366" rx="32.49" ry="18"/>
<text text-anchor="middle" x="290" y="-362.3" font-family="Times,serif" font-size="14.00">length</text>
</g>
<!-- add&#45;&gt;string::length -->
<g id="edge1" class="edge">
<title>add&#45;&gt;string::length</title>
<path fill="none" stroke="black" d="M399.71,-436.5C380.94,-433.12 355.63,-426.73 336,-415 325.85,-408.93 316.46,-400.04 308.85,-391.55"/>
<polygon fill="black" stroke="black" points="311.71,-389.51 302.57,-384.14 306.36,-394.03 311.71,-389.51"/>
</g>
<!-- error::already_exists -->
<g id="node3" class="node">
<title>error::already_exists</title>
<ellipse fill="none" stroke="black" cx="77" cy="-283" rx="61.19" ry="18"/>
<text text-anchor="middle" x="77" y="-279.3" font-family="Times,serif" font-size="14.00">already_exists</text>
</g>
<!-- add&#45;&gt;error::already_exists -->
<g id="edge2" class="edge">
<title>add&#45;&gt;error::already_exists</title>
<path fill="none" stroke="black" d="M400.42,-434.68C388.07,-430.97 373.83,-424.86 364,-415 338.65,-389.58 363.29,-360.76 334,-340 317.03,-327.98 166.73,-338.58 147,-332 131.41,-326.8 116.11,-317.02 103.81,-307.63"/>
<polygon fill="black" stroke="black" points="106.22,-305.07 96.22,-301.56 101.84,-310.54 106.22,-305.07"/>
</g>
<!-- error::invalid_argument -->
<g id="node4" class="node">
<title>error::invalid_argument</title>
<ellipse fill="none" stroke="black" cx="359" cy="-283" rx="73.39" ry="18"/>
<text text-anchor="middle" x="359" y="-279.3" font-family="Times,serif" font-size="14.00">invalid_argument</text>
</g>
<!-- add&#45;&gt;error::invalid_argument -->
<g id="edge3" class="edge">
<title>add&#45;&gt;error::invalid_argument</title>
<path fill="none" stroke="black" d="M424.07,-422.64C421.29,-402.09 414.99,-367.23 402,-340 396.91,-329.33 389.55,-318.74 382.35,-309.7"/>
<polygon fill="black" stroke="black" points="385.07,-307.5 375.98,-302.05 379.69,-311.98 385.07,-307.5"/>
</g>
<!-- error::invalid_state -->
<g id="node5" class="node">
<title>error::invalid_state</title>
<ellipse fill="none" stroke="black" cx="212" cy="-283" rx="55.79" ry="18"/>
<text text-anchor="middle" x="212" y="-279.3" font-family="Times,serif" font-size="14.00">invalid_state</text>
</g>
<!-- add&#45;&gt;error::invalid_state -->
<g id="edge4" class="edge">
<title>add&#45;&gt;error::invalid_state</title>
<path fill="none" stroke="black" d="M411.01,-425.83C407.84,-422.45 404.65,-418.73 402,-415 380.38,-384.52 394.91,-361 364,-340 347.94,-329.09 295.14,-338.91 277,-332 262.62,-326.52 248.63,-316.93 237.34,-307.75"/>
<polygon fill="black" stroke="black" points="239.94,-305.37 230.05,-301.55 235.4,-310.7 239.94,-305.37"/>
</g>
<!-- simple_map::length -->
<g id="node6" class="node">
<title>simple_map::length</title>
<ellipse fill="none" stroke="black" cx="758" cy="-366" rx="32.49" ry="18"/>
<text text-anchor="middle" x="758" y="-362.3" font-family="Times,serif" font-size="14.00">length</text>
</g>
<!-- add&#45;&gt;simple_map::length -->
<g id="edge5" class="edge">
<title>add&#45;&gt;simple_map::length</title>
<path fill="none" stroke="black" d="M453.19,-440.21C516.23,-440.3 670.47,-438.07 716,-415 726.16,-409.85 734.93,-401.1 741.79,-392.47"/>
<polygon fill="black" stroke="black" points="744.5,-394.68 747.57,-384.54 738.85,-390.56 744.5,-394.68"/>
</g>
<!-- simple_map::add -->
<g id="node7" class="node">
<title>simple_map::add</title>
<ellipse fill="none" stroke="black" cx="548" cy="-366" rx="27" ry="18"/>
<text text-anchor="middle" x="548" y="-362.3" font-family="Times,serif" font-size="14.00">add</text>
</g>
<!-- add&#45;&gt;simple_map::add -->
<g id="edge6" class="edge">
<title>add&#45;&gt;simple_map::add</title>
<path fill="none" stroke="black" d="M445.6,-428.27C465.34,-416.46 496.04,-398.09 518.68,-384.54"/>
<polygon fill="black" stroke="black" points="520.36,-387.61 527.15,-379.48 516.77,-381.61 520.36,-387.61"/>
</g>
<!-- simple_map::contains_key -->
<g id="node8" class="node">
<title>simple_map::contains_key</title>
<ellipse fill="none" stroke="black" cx="650" cy="-366" rx="57.39" ry="18"/>
<text text-anchor="middle" x="650" y="-362.3" font-family="Times,serif" font-size="14.00">contains_key</text>
</g>
<!-- add&#45;&gt;simple_map::contains_key -->
<g id="edge7" class="edge">
<title>add&#45;&gt;simple_map::contains_key</title>
<path fill="none" stroke="black" d="M453.32,-439.53C485.67,-438.11 540.64,-432.97 584,-415 598.25,-409.09 612.32,-399.53 623.78,-390.48"/>
<polygon fill="black" stroke="black" points="625.7,-393.44 631.2,-384.38 621.26,-388.03 625.7,-393.44"/>
</g>
<!-- error::canonical -->
<g id="node9" class="node">
<title>error::canonical</title>
<ellipse fill="none" stroke="black" cx="212" cy="-200" rx="44.39" ry="18"/>
<text text-anchor="middle" x="212" y="-196.3" font-family="Times,serif" font-size="14.00">canonical</text>
</g>
<!-- error::already_exists&#45;&gt;error::canonical -->
<g id="edge8" class="edge">
<title>error::already_exists&#45;&gt;error::canonical</title>
<path fill="none" stroke="black" d="M103.03,-266.38C124.39,-253.57 154.79,-235.33 178.06,-221.37"/>
<polygon fill="black" stroke="black" points="179.79,-224.41 186.57,-216.26 176.19,-218.4 179.79,-224.41"/>
</g>
<!-- error::invalid_argument&#45;&gt;error::canonical -->
<g id="edge9" class="edge">
<title>error::invalid_argument&#45;&gt;error::canonical</title>
<path fill="none" stroke="black" d="M329.96,-266C306.28,-252.95 272.74,-234.47 247.47,-220.54"/>
<polygon fill="black" stroke="black" points="249.32,-217.57 238.87,-215.81 245.94,-223.7 249.32,-217.57"/>
</g>
<!-- error::invalid_state&#45;&gt;error::canonical -->
<g id="edge10" class="edge">
<title>error::invalid_state&#45;&gt;error::canonical</title>
<path fill="none" stroke="black" d="M212,-264.82C212,-254.69 212,-241.6 212,-229.92"/>
<polygon fill="black" stroke="black" points="215.5,-229.95 212,-219.95 208.5,-229.95 215.5,-229.95"/>
</g>
<!-- simple_map::add&#45;&gt;error::invalid_argument -->
<g id="edge13" class="edge">
<title>simple_map::add&#45;&gt;error::invalid_argument</title>
<path fill="none" stroke="black" d="M525.58,-355.39C495.9,-342.67 442.89,-319.95 404.62,-303.55"/>
<polygon fill="black" stroke="black" points="406.21,-300.43 395.64,-299.7 403.46,-306.86 406.21,-300.43"/>
</g>
<!-- option::extract -->
<g id="node10" class="node">
<title>option::extract</title>
<ellipse fill="none" stroke="black" cx="1101" cy="-200" rx="34.39" ry="18"/>
<text text-anchor="middle" x="1101" y="-196.3" font-family="Times,serif" font-size="14.00">extract</text>
</g>
<!-- simple_map::add&#45;&gt;option::extract -->
<g id="edge11" class="edge">
<title>simple_map::add&#45;&gt;option::extract</title>
<path fill="none" stroke="black" d="M563.77,-351.13C569.7,-346.73 576.78,-342.39 584,-340 635.5,-322.94 774.73,-342.26 828,-332 934.3,-311.53 966.94,-309.08 1057,-249 1066.39,-242.73 1075.15,-234.05 1082.35,-225.79"/>
<polygon fill="black" stroke="black" points="1084.87,-228.24 1088.53,-218.3 1079.46,-223.78 1084.87,-228.24"/>
</g>
<!-- option::is_none -->
<g id="node11" class="node">
<title>option::is_none</title>
<ellipse fill="none" stroke="black" cx="1010" cy="-200" rx="38.19" ry="18"/>
<text text-anchor="middle" x="1010" y="-196.3" font-family="Times,serif" font-size="14.00">is_none</text>
</g>
<!-- simple_map::add&#45;&gt;option::is_none -->
<g id="edge12" class="edge">
<title>simple_map::add&#45;&gt;option::is_none</title>
<path fill="none" stroke="black" d="M564.19,-351.05C570.05,-346.76 576.98,-342.51 584,-340 626.83,-324.72 641.3,-340.35 686,-332 812.33,-308.4 853,-315.46 963,-249 973.08,-242.91 982.51,-234.16 990.25,-225.8"/>
<polygon fill="black" stroke="black" points="992.7,-228.31 996.65,-218.48 987.43,-223.7 992.7,-228.31"/>
</g>
<!-- simple_map::find -->
<g id="node12" class="node">
<title>simple_map::find</title>
<ellipse fill="none" stroke="black" cx="650" cy="-283" rx="27" ry="18"/>
<text text-anchor="middle" x="650" y="-279.3" font-family="Times,serif" font-size="14.00">find</text>
</g>
<!-- simple_map::add&#45;&gt;simple_map::find -->
<g id="edge14" class="edge">
<title>simple_map::add&#45;&gt;simple_map::find</title>
<path fill="none" stroke="black" d="M564.84,-351.62C581.01,-338.79 605.65,-319.22 624.28,-304.43"/>
<polygon fill="black" stroke="black" points="626.29,-307.3 631.95,-298.34 621.94,-301.81 626.29,-307.3"/>
</g>
<!-- simple_map::contains_key&#45;&gt;simple_map::find -->
<g id="edge16" class="edge">
<title>simple_map::contains_key&#45;&gt;simple_map::find</title>
<path fill="none" stroke="black" d="M650,-347.82C650,-337.69 650,-324.6 650,-312.92"/>
<polygon fill="black" stroke="black" points="653.5,-312.95 650,-302.95 646.5,-312.95 653.5,-312.95"/>
</g>
<!-- option::is_some -->
<g id="node13" class="node">
<title>option::is_some</title>
<ellipse fill="none" stroke="black" cx="1095" cy="-117" rx="40.09" ry="18"/>
<text text-anchor="middle" x="1095" y="-113.3" font-family="Times,serif" font-size="14.00">is_some</text>
</g>
<!-- simple_map::contains_key&#45;&gt;option::is_some -->
<g id="edge15" class="edge">
<title>simple_map::contains_key&#45;&gt;option::is_some</title>
<path fill="none" stroke="black" d="M682.1,-350.63C692.96,-346.42 705.31,-342.32 717,-340 817.76,-320.01 847.69,-354.18 948,-332 1040.37,-311.58 1091.75,-327.86 1144,-249 1162.41,-221.21 1155.72,-205.2 1144,-174 1139.37,-161.69 1130.67,-150.31 1121.88,-141.07"/>
<polygon fill="black" stroke="black" points="1124.55,-138.79 1114.96,-134.28 1119.64,-143.78 1124.55,-138.79"/>
</g>
<!-- option::extract&#45;&gt;option::is_some -->
<g id="edge17" class="edge">
<title>option::extract&#45;&gt;option::is_some</title>
<path fill="none" stroke="black" d="M1099.73,-181.82C1098.97,-171.58 1097.99,-158.33 1097.11,-146.55"/>
<polygon fill="black" stroke="black" points="1100.63,-146.66 1096.4,-136.94 1093.65,-147.17 1100.63,-146.66"/>
</g>
<!-- vector::is_empty -->
<g id="node14" class="node">
<title>vector::is_empty</title>
<ellipse fill="none" stroke="black" cx="1010" cy="-34" rx="43.59" ry="18"/>
<text text-anchor="middle" x="1010" y="-30.3" font-family="Times,serif" font-size="14.00">is_empty</text>
</g>
<!-- option::is_none&#45;&gt;vector::is_empty -->
<g id="edge18" class="edge">
<title>option::is_none&#45;&gt;vector::is_empty</title>
<path fill="none" stroke="black" d="M1010,-181.76C1010,-153.63 1010,-97.6 1010,-63.49"/>
<polygon fill="black" stroke="black" points="1013.5,-63.52 1010,-53.52 1006.5,-63.52 1013.5,-63.52"/>
</g>
<!-- option::none -->
<g id="node15" class="node">
<title>option::none</title>
<ellipse fill="none" stroke="black" cx="926" cy="-200" rx="27.9" ry="18"/>
<text text-anchor="middle" x="926" y="-196.3" font-family="Times,serif" font-size="14.00">none</text>
</g>
<!-- simple_map::find&#45;&gt;option::none -->
<g id="edge19" class="edge">
<title>simple_map::find&#45;&gt;option::none</title>
<path fill="none" stroke="black" d="M676.35,-278.63C737.54,-270.76 884.41,-251.66 889,-249 898.03,-243.76 905.61,-235.38 911.52,-227.07"/>
<polygon fill="black" stroke="black" points="914.36,-229.12 916.85,-218.82 908.48,-225.32 914.36,-229.12"/>
</g>
<!-- option::some -->
<g id="node16" class="node">
<title>option::some</title>
<ellipse fill="none" stroke="black" cx="850" cy="-200" rx="29.8" ry="18"/>
<text text-anchor="middle" x="850" y="-196.3" font-family="Times,serif" font-size="14.00">some</text>
</g>
<!-- simple_map::find&#45;&gt;option::some -->
<g id="edge20" class="edge">
<title>simple_map::find&#45;&gt;option::some</title>
<path fill="none" stroke="black" d="M672.55,-272.87C707.27,-258.81 774.08,-231.75 815.08,-215.14"/>
<polygon fill="black" stroke="black" points="816.31,-218.42 824.26,-211.42 813.68,-211.93 816.31,-218.42"/>
</g>
<!-- comparator::compare -->
<g id="node17" class="node">
<title>comparator::compare</title>
<ellipse fill="none" stroke="black" cx="650" cy="-200" rx="41.69" ry="18"/>
<text text-anchor="middle" x="650" y="-196.3" font-family="Times,serif" font-size="14.00">compare</text>
</g>
<!-- simple_map::find&#45;&gt;comparator::compare -->
<g id="edge21" class="edge">
<title>simple_map::find&#45;&gt;comparator::compare</title>
<path fill="none" stroke="black" d="M650,-264.82C650,-254.69 650,-241.6 650,-229.92"/>
<polygon fill="black" stroke="black" points="653.5,-229.95 650,-219.95 646.5,-229.95 653.5,-229.95"/>
</g>
<!-- comparator::is_smaller_than -->
<g id="node18" class="node">
<title>comparator::is_smaller_than</title>
<ellipse fill="none" stroke="black" cx="523" cy="-200" rx="66.89" ry="18"/>
<text text-anchor="middle" x="523" y="-196.3" font-family="Times,serif" font-size="14.00">is_smaller_than</text>
</g>
<!-- simple_map::find&#45;&gt;comparator::is_smaller_than -->
<g id="edge22" class="edge">
<title>simple_map::find&#45;&gt;comparator::is_smaller_than</title>
<path fill="none" stroke="black" d="M630.99,-269.87C611.73,-257.59 581.51,-238.32 557.93,-223.28"/>
<polygon fill="black" stroke="black" points="559.87,-220.37 549.56,-217.94 556.11,-226.27 559.87,-220.37"/>
</g>
<!-- option::is_some&#45;&gt;vector::is_empty -->
<g id="edge23" class="edge">
<title>option::is_some&#45;&gt;vector::is_empty</title>
<path fill="none" stroke="black" d="M1078.61,-100.38C1066.23,-88.58 1049.01,-72.18 1034.92,-58.75"/>
<polygon fill="black" stroke="black" points="1037.38,-56.26 1027.72,-51.89 1032.55,-61.32 1037.38,-56.26"/>
</g>
<!-- vector::singleton -->
<g id="node19" class="node">
<title>vector::singleton</title>
<ellipse fill="none" stroke="black" cx="906" cy="-34" rx="42.79" ry="18"/>
<text text-anchor="middle" x="906" y="-30.3" font-family="Times,serif" font-size="14.00">singleton</text>
</g>
<!-- option::some&#45;&gt;vector::singleton -->
<g id="edge24" class="edge">
<title>option::some&#45;&gt;vector::singleton</title>
<path fill="none" stroke="black" d="M855.78,-182.07C865.42,-153.83 884.87,-96.87 896.53,-62.72"/>
<polygon fill="black" stroke="black" points="899.76,-64.11 899.68,-53.52 893.13,-61.85 899.76,-64.11"/>
</g>
<!-- bcs::to_bytes -->
<g id="node20" class="node">
<title>bcs::to_bytes</title>
<ellipse fill="none" stroke="black" cx="756" cy="-117" rx="40.09" ry="18"/>
<text text-anchor="middle" x="756" y="-113.3" font-family="Times,serif" font-size="14.00">to_bytes</text>
</g>
<!-- comparator::compare&#45;&gt;bcs::to_bytes -->
<g id="edge25" class="edge">
<title>comparator::compare&#45;&gt;bcs::to_bytes</title>
<path fill="none" stroke="black" d="M674.86,-185.2C684.26,-179.63 694.88,-172.89 704,-166 713.71,-158.67 723.68,-149.83 732.27,-141.74"/>
<polygon fill="black" stroke="black" points="734.45,-144.5 739.24,-135.04 729.6,-139.45 734.45,-144.5"/>
</g>
<!-- comparator::compare_u8_vector -->
<g id="node21" class="node">
<title>comparator::compare_u8_vector</title>
<ellipse fill="none" stroke="black" cx="611" cy="-117" rx="81.49" ry="18"/>
<text text-anchor="middle" x="611" y="-113.3" font-family="Times,serif" font-size="14.00">compare_u8_vector</text>
</g>
<!-- comparator::compare&#45;&gt;comparator::compare_u8_vector -->
<g id="edge26" class="edge">
<title>comparator::compare&#45;&gt;comparator::compare_u8_vector</title>
<path fill="none" stroke="black" d="M641.92,-182.22C636.81,-171.61 630.09,-157.65 624.22,-145.45"/>
<polygon fill="black" stroke="black" points="627.49,-144.18 620,-136.68 621.18,-147.21 627.49,-144.18"/>
</g>
</g>
</svg>
