<?xml version="1.0" encoding="UTF-8" standalone="no"?>
<!DOCTYPE svg PUBLIC "-//W3C//DTD SVG 1.1//EN"
 "http://www.w3.org/Graphics/SVG/1.1/DTD/svg11.dtd">
<!-- Generated by graphviz version 7.0.0 (20221023.0053)
 -->
<!-- Title: G Pages: 1 -->
<svg width="747pt" height="299pt"
 viewBox="0.00 0.00 747.00 299.00" xmlns="http://www.w3.org/2000/svg" xmlns:xlink="http://www.w3.org/1999/xlink">
<g id="graph0" class="graph" transform="scale(1 1) rotate(0) translate(4 295)">
<title>G</title>
<polygon fill="white" stroke="none" points="-4,4 -4,-295 743,-295 743,4 -4,4"/>
<g id="clust1" class="cluster">
<title>cluster_token</title>
<polygon fill="none" stroke="black" points="8,-136 8,-283 450,-283 450,-136 8,-136"/>
<text text-anchor="middle" x="229" y="-267.8" font-family="Times,serif" font-size="14.00">token</text>
</g>
<!-- borrow -->
<g id="node1" class="node">
<title>borrow</title>
<ellipse fill="none" stroke="black" cx="431" cy="-18" rx="36.29" ry="18"/>
<text text-anchor="middle" x="431" y="-14.3" font-family="Times,serif" font-size="14.00">borrow</text>
</g>
<!-- read_address -->
<g id="node2" class="node">
<title>read_address</title>
<ellipse fill="none" stroke="black" cx="138" cy="-90" rx="56.59" ry="18"/>
<text text-anchor="middle" x="138" y="-86.3" font-family="Times,serif" font-size="14.00">read_address</text>
</g>
<!-- read_address&#45;&gt;borrow -->
<g id="edge1" class="edge">
<title>read_address&#45;&gt;borrow</title>
<path fill="none" stroke="black" d="M180.57,-77.88C188.36,-75.89 196.42,-73.86 204,-72 267.59,-56.39 341.47,-39.34 387.23,-28.91"/>
<polygon fill="black" stroke="black" points="387.79,-32.37 396.76,-26.74 386.24,-25.55 387.79,-32.37"/>
</g>
<!-- read_bool -->
<g id="node3" class="node">
<title>read_bool</title>
<ellipse fill="none" stroke="black" cx="259" cy="-90" rx="46.29" ry="18"/>
<text text-anchor="middle" x="259" y="-86.3" font-family="Times,serif" font-size="14.00">read_bool</text>
</g>
<!-- read_bool&#45;&gt;borrow -->
<g id="edge2" class="edge">
<title>read_bool&#45;&gt;borrow</title>
<path fill="none" stroke="black" d="M290.15,-76.32C319.07,-64.55 362.2,-47 393.11,-34.42"/>
<polygon fill="black" stroke="black" points="394.14,-37.78 402.09,-30.77 391.51,-31.29 394.14,-37.78"/>
</g>
<!-- read_string -->
<g id="node4" class="node">
<title>read_string</title>
<ellipse fill="none" stroke="black" cx="373" cy="-90" rx="50.09" ry="18"/>
<text text-anchor="middle" x="373" y="-86.3" font-family="Times,serif" font-size="14.00">read_string</text>
</g>
<!-- read_string&#45;&gt;borrow -->
<g id="edge3" class="edge">
<title>read_string&#45;&gt;borrow</title>
<path fill="none" stroke="black" d="M386.75,-72.41C393.85,-63.83 402.67,-53.19 410.56,-43.67"/>
<polygon fill="black" stroke="black" points="413.1,-46.09 416.79,-36.15 407.71,-41.62 413.1,-46.09"/>
</g>
<!-- read_u128 -->
<g id="node5" class="node">
<title>read_u128</title>
<ellipse fill="none" stroke="black" cx="489" cy="-90" rx="48.19" ry="18"/>
<text text-anchor="middle" x="489" y="-86.3" font-family="Times,serif" font-size="14.00">read_u128</text>
</g>
<!-- read_u128&#45;&gt;borrow -->
<g id="edge4" class="edge">
<title>read_u128&#45;&gt;borrow</title>
<path fill="none" stroke="black" d="M475.25,-72.41C468.15,-63.83 459.33,-53.19 451.44,-43.67"/>
<polygon fill="black" stroke="black" points="454.29,-41.62 445.21,-36.15 448.9,-46.09 454.29,-41.62"/>
</g>
<!-- read_u64 -->
<g id="node6" class="node">
<title>read_u64</title>
<ellipse fill="none" stroke="black" cx="599" cy="-90" rx="43.59" ry="18"/>
<text text-anchor="middle" x="599" y="-86.3" font-family="Times,serif" font-size="14.00">read_u64</text>
</g>
<!-- read_u64&#45;&gt;borrow -->
<g id="edge5" class="edge">
<title>read_u64&#45;&gt;borrow</title>
<path fill="none" stroke="black" d="M568.96,-76.49C540.97,-64.82 499.12,-47.38 468.85,-34.77"/>
<polygon fill="black" stroke="black" points="470.25,-31.56 459.67,-30.95 467.56,-38.02 470.25,-31.56"/>
</g>
<!-- read_u8 -->
<g id="node7" class="node">
<title>read_u8</title>
<ellipse fill="none" stroke="black" cx="700" cy="-90" rx="38.99" ry="18"/>
<text text-anchor="middle" x="700" y="-86.3" font-family="Times,serif" font-size="14.00">read_u8</text>
</g>
<!-- read_u8&#45;&gt;borrow -->
<g id="edge6" class="edge">
<title>read_u8&#45;&gt;borrow</title>
<path fill="none" stroke="black" d="M670.2,-77.9C664.21,-75.82 657.93,-73.76 652,-72 591.44,-54.07 520.21,-37.84 475.33,-28.2"/>
<polygon fill="black" stroke="black" points="476.23,-24.81 465.72,-26.15 474.77,-31.65 476.23,-24.81"/>
</g>
<!-- token::burn -->
<g id="node8" class="node">
<title>token::burn</title>
<ellipse fill="none" stroke="black" cx="259" cy="-234" rx="27" ry="18"/>
<text text-anchor="middle" x="259" y="-230.3" font-family="Times,serif" font-size="14.00">burn</text>
</g>
<!-- token::burn&#45;&gt;read_bool -->
<g id="edge7" class="edge">
<title>token::burn&#45;&gt;read_bool</title>
<path fill="none" stroke="black" d="M259,-215.59C259,-191.61 259,-148.14 259,-119.42"/>
<polygon fill="black" stroke="black" points="262.5,-119.62 259,-109.62 255.5,-119.62 262.5,-119.62"/>
</g>
<!-- token::burn_by_creator -->
<g id="node9" class="node">
<title>token::burn_by_creator</title>
<ellipse fill="none" stroke="black" cx="373" cy="-234" rx="68.79" ry="18"/>
<text text-anchor="middle" x="373" y="-230.3" font-family="Times,serif" font-size="14.00">burn_by_creator</text>
</g>
<!-- token::burn_by_creator&#45;&gt;read_bool -->
<g id="edge8" class="edge">
<title>token::burn_by_creator&#45;&gt;read_bool</title>
<path fill="none" stroke="black" d="M359.25,-215.87C339.26,-190.98 302.07,-144.65 279.04,-115.96"/>
<polygon fill="black" stroke="black" points="282.03,-114.1 273.04,-108.49 276.57,-118.48 282.03,-114.1"/>
</g>
<!-- token::mutate_one_token -->
<g id="node10" class="node">
<title>token::mutate_one_token</title>
<ellipse fill="none" stroke="black" cx="135" cy="-162" rx="76.09" ry="18"/>
<text text-anchor="middle" x="135" y="-158.3" font-family="Times,serif" font-size="14.00">mutate_one_token</text>
</g>
<!-- token::mutate_one_token&#45;&gt;read_bool -->
<g id="edge9" class="edge">
<title>token::mutate_one_token&#45;&gt;read_bool</title>
<path fill="none" stroke="black" d="M163.45,-144.94C181.39,-134.81 204.69,-121.66 223.79,-110.87"/>
<polygon fill="black" stroke="black" points="225.33,-114.03 232.31,-106.07 221.88,-107.93 225.33,-114.03"/>
</g>
<!-- token::mutate_token_properties -->
<g id="node11" class="node">
<title>token::mutate_token_properties</title>
<ellipse fill="none" stroke="black" cx="115" cy="-234" rx="98.58" ry="18"/>
<text text-anchor="middle" x="115" y="-230.3" font-family="Times,serif" font-size="14.00">mutate_token_properties</text>
</g>
<!-- token::mutate_token_properties&#45;&gt;token::mutate_one_token -->
<g id="edge10" class="edge">
<title>token::mutate_token_properties&#45;&gt;token::mutate_one_token</title>
<path fill="none" stroke="black" d="M119.94,-215.7C122.08,-208.24 124.62,-199.32 127.01,-190.97"/>
<polygon fill="black" stroke="black" points="130.32,-192.14 129.7,-181.56 123.58,-190.21 130.32,-192.14"/>
</g>
</g>
</svg>
