<?xml version="1.0" encoding="UTF-8" standalone="no"?>
<!DOCTYPE svg PUBLIC "-//W3C//DTD SVG 1.1//EN"
 "http://www.w3.org/Graphics/SVG/1.1/DTD/svg11.dtd">
<!-- Generated by graphviz version 7.0.0 (20221023.0053)
 -->
<!-- Title: G Pages: 1 -->
<svg width="1461pt" height="371pt"
 viewBox="0.00 0.00 1461.14 371.00" xmlns="http://www.w3.org/2000/svg" xmlns:xlink="http://www.w3.org/1999/xlink">
<g id="graph0" class="graph" transform="scale(1 1) rotate(0) translate(4 367)">
<title>G</title>
<polygon fill="white" stroke="none" points="-4,4 -4,-367 1457.14,-367 1457.14,4 -4,4"/>
<g id="clust1" class="cluster">
<title>cluster_token</title>
<polygon fill="none" stroke="black" points="136,-64 136,-355 1023,-355 1023,-64 136,-64"/>
<text text-anchor="middle" x="579.5" y="-339.8" font-family="Times,serif" font-size="14.00">token</text>
</g>
<g id="clust2" class="cluster">
<title>cluster_token_transfers</title>
<polygon fill="none" stroke="black" points="8,-208 8,-355 128,-355 128,-208 8,-208"/>
<text text-anchor="middle" x="68" y="-339.8" font-family="Times,serif" font-size="14.00">token_transfers</text>
</g>
<!-- empty -->
<g id="node1" class="node">
<title>empty</title>
<ellipse fill="none" stroke="black" cx="1093" cy="-18" rx="33.29" ry="18"/>
<text text-anchor="middle" x="1093" y="-14.3" font-family="Times,serif" font-size="14.00">empty</text>
</g>
<!-- new -->
<g id="node2" class="node">
<title>new</title>
<ellipse fill="none" stroke="black" cx="1058" cy="-162" rx="27" ry="18"/>
<text text-anchor="middle" x="1058" y="-158.3" font-family="Times,serif" font-size="14.00">new</text>
</g>
<!-- new&#45;&gt;empty -->
<g id="edge1" class="edge">
<title>new&#45;&gt;empty</title>
<path fill="none" stroke="black" d="M1062.22,-143.87C1068.13,-119.88 1078.95,-75.99 1086.06,-47.16"/>
<polygon fill="black" stroke="black" points="1089.41,-48.21 1088.4,-37.66 1082.61,-46.53 1089.41,-48.21"/>
</g>
<!-- new_with_key_and_property_value -->
<g id="node3" class="node">
<title>new_with_key_and_property_value</title>
<ellipse fill="none" stroke="black" cx="1316" cy="-90" rx="137.28" ry="18"/>
<text text-anchor="middle" x="1316" y="-86.3" font-family="Times,serif" font-size="14.00">new_with_key_and_property_value</text>
</g>
<!-- new_with_key_and_property_value&#45;&gt;empty -->
<g id="edge2" class="edge">
<title>new_with_key_and_property_value&#45;&gt;empty</title>
<path fill="none" stroke="black" d="M1264.56,-72.85C1224.23,-60.19 1168.95,-42.84 1132.16,-31.29"/>
<polygon fill="black" stroke="black" points="1133.41,-28.02 1122.82,-28.36 1131.31,-34.69 1133.41,-28.02"/>
</g>
<!-- token::mint_token -->
<g id="node4" class="node">
<title>token::mint_token</title>
<ellipse fill="none" stroke="black" cx="731" cy="-234" rx="51.19" ry="18"/>
<text text-anchor="middle" x="731" y="-230.3" font-family="Times,serif" font-size="14.00">mint_token</text>
</g>
<!-- token::mint_token&#45;&gt;empty -->
<g id="edge3" class="edge">
<title>token::mint_token&#45;&gt;empty</title>
<path fill="none" stroke="black" d="M769.72,-221.76C786.35,-217.15 806.04,-211.98 824,-208 894.48,-192.39 923.4,-219.23 984,-180 997.35,-171.36 1050.08,-88.24 1077,-44.95"/>
<polygon fill="black" stroke="black" points="1079.85,-46.99 1082.15,-36.65 1073.9,-43.3 1079.85,-46.99"/>
</g>
<!-- token::mint_token_to -->
<g id="node5" class="node">
<title>token::mint_token_to</title>
<ellipse fill="none" stroke="black" cx="881" cy="-306" rx="62.29" ry="18"/>
<text text-anchor="middle" x="881" y="-302.3" font-family="Times,serif" font-size="14.00">mint_token_to</text>
</g>
<!-- token::mint_token_to&#45;&gt;empty -->
<g id="edge4" class="edge">
<title>token::mint_token_to&#45;&gt;empty</title>
<path fill="none" stroke="black" d="M926.51,-293.4C978.06,-277.5 1059.38,-243.41 1094,-180 1116.88,-138.08 1108.78,-80.4 1100.85,-46.67"/>
<polygon fill="black" stroke="black" points="1104.32,-46.11 1098.48,-37.27 1097.53,-47.82 1104.32,-46.11"/>
</g>
<!-- token::split -->
<g id="node6" class="node">
<title>token::split</title>
<ellipse fill="none" stroke="black" cx="988" cy="-306" rx="27" ry="18"/>
<text text-anchor="middle" x="988" y="-302.3" font-family="Times,serif" font-size="14.00">split</text>
</g>
<!-- token::split&#45;&gt;empty -->
<g id="edge5" class="edge">
<title>token::split&#45;&gt;empty</title>
<path fill="none" stroke="black" d="M1015.22,-303.41C1048.03,-299.87 1101.87,-288.47 1127,-252 1174.4,-183.19 1153.56,-143.22 1127,-64 1124.49,-56.51 1120.19,-49.28 1115.47,-42.88"/>
<polygon fill="black" stroke="black" points="1118.39,-40.92 1109.38,-35.35 1112.95,-45.33 1118.39,-40.92"/>
</g>
<!-- token::withdraw_with_event_internal -->
<g id="node7" class="node">
<title>token::withdraw_with_event_internal</title>
<ellipse fill="none" stroke="black" cx="716" cy="-90" rx="118.08" ry="18"/>
<text text-anchor="middle" x="716" y="-86.3" font-family="Times,serif" font-size="14.00">withdraw_with_event_internal</text>
</g>
<!-- token::withdraw_with_event_internal&#45;&gt;empty -->
<g id="edge6" class="edge">
<title>token::withdraw_with_event_internal&#45;&gt;empty</title>
<path fill="none" stroke="black" d="M788.69,-75.5C866.44,-61.07 987.11,-38.66 1050.62,-26.87"/>
<polygon fill="black" stroke="black" points="1051.11,-30.34 1060.3,-25.07 1049.83,-23.46 1051.11,-30.34"/>
</g>
<!-- token::create_tokendata -->
<g id="node8" class="node">
<title>token::create_tokendata</title>
<ellipse fill="none" stroke="black" cx="903" cy="-234" rx="70.39" ry="18"/>
<text text-anchor="middle" x="903" y="-230.3" font-family="Times,serif" font-size="14.00">create_tokendata</text>
</g>
<!-- token::create_tokendata&#45;&gt;new -->
<g id="edge7" class="edge">
<title>token::create_tokendata&#45;&gt;new</title>
<path fill="none" stroke="black" d="M940.05,-218.27C964.92,-208.12 998.26,-193.98 1027,-180 1027.22,-179.89 1027.44,-179.78 1027.66,-179.68"/>
<polygon fill="black" stroke="black" points="1029.18,-182.83 1036.46,-175.14 1025.97,-176.61 1029.18,-182.83"/>
</g>
<!-- token::create_token_script -->
<g id="node9" class="node">
<title>token::create_token_script</title>
<ellipse fill="none" stroke="black" cx="721" cy="-306" rx="79.09" ry="18"/>
<text text-anchor="middle" x="721" y="-302.3" font-family="Times,serif" font-size="14.00">create_token_script</text>
</g>
<!-- token::create_token_script&#45;&gt;token::mint_token -->
<g id="edge8" class="edge">
<title>token::create_token_script&#45;&gt;token::mint_token</title>
<path fill="none" stroke="black" d="M723.47,-287.7C724.53,-280.32 725.78,-271.52 726.96,-263.25"/>
<polygon fill="black" stroke="black" points="730.39,-264 728.34,-253.6 723.46,-263.01 730.39,-264"/>
</g>
<!-- token::create_token_script&#45;&gt;token::create_tokendata -->
<g id="edge14" class="edge">
<title>token::create_token_script&#45;&gt;token::create_tokendata</title>
<path fill="none" stroke="black" d="M760.04,-289.98C787.76,-279.32 825.16,-264.94 854.75,-253.56"/>
<polygon fill="black" stroke="black" points="855.78,-256.91 863.85,-250.06 853.26,-250.38 855.78,-256.91"/>
</g>
<!-- token::mint_script -->
<g id="node10" class="node">
<title>token::mint_script</title>
<ellipse fill="none" stroke="black" cx="572" cy="-306" rx="51.19" ry="18"/>
<text text-anchor="middle" x="572" y="-302.3" font-family="Times,serif" font-size="14.00">mint_script</text>
</g>
<!-- token::mint_script&#45;&gt;token::mint_token -->
<g id="edge9" class="edge">
<title>token::mint_script&#45;&gt;token::mint_token</title>
<path fill="none" stroke="black" d="M603.03,-291.34C627.77,-280.45 662.62,-265.1 689.71,-253.18"/>
<polygon fill="black" stroke="black" points="690.92,-256.47 698.66,-249.24 688.1,-250.06 690.92,-256.47"/>
</g>
<!-- token::burn_by_creator -->
<g id="node11" class="node">
<title>token::burn_by_creator</title>
<ellipse fill="none" stroke="black" cx="906" cy="-162" rx="68.79" ry="18"/>
<text text-anchor="middle" x="906" y="-158.3" font-family="Times,serif" font-size="14.00">burn_by_creator</text>
</g>
<!-- token::burn_by_creator&#45;&gt;token::withdraw_with_event_internal -->
<g id="edge10" class="edge">
<title>token::burn_by_creator&#45;&gt;token::withdraw_with_event_internal</title>
<path fill="none" stroke="black" d="M867.55,-146.83C839.62,-136.54 801.42,-122.47 770.37,-111.03"/>
<polygon fill="black" stroke="black" points="771.72,-107.8 761.13,-107.63 769.3,-114.37 771.72,-107.8"/>
</g>
<!-- token::mutate_one_token -->
<g id="node12" class="node">
<title>token::mutate_one_token</title>
<ellipse fill="none" stroke="black" cx="519" cy="-162" rx="76.09" ry="18"/>
<text text-anchor="middle" x="519" y="-158.3" font-family="Times,serif" font-size="14.00">mutate_one_token</text>
</g>
<!-- token::mutate_one_token&#45;&gt;token::withdraw_with_event_internal -->
<g id="edge11" class="edge">
<title>token::mutate_one_token&#45;&gt;token::withdraw_with_event_internal</title>
<path fill="none" stroke="black" d="M559.82,-146.5C588.88,-136.17 628.28,-122.17 660.24,-110.81"/>
<polygon fill="black" stroke="black" points="661.09,-114.23 669.34,-107.58 658.74,-107.63 661.09,-114.23"/>
</g>
<!-- token::withdraw_token -->
<g id="node13" class="node">
<title>token::withdraw_token</title>
<ellipse fill="none" stroke="black" cx="336" cy="-162" rx="67.69" ry="18"/>
<text text-anchor="middle" x="336" y="-158.3" font-family="Times,serif" font-size="14.00">withdraw_token</text>
</g>
<!-- token::withdraw_token&#45;&gt;token::withdraw_with_event_internal -->
<g id="edge12" class="edge">
<title>token::withdraw_token&#45;&gt;token::withdraw_with_event_internal</title>
<path fill="none" stroke="black" d="M390.44,-150.97C453.49,-139.36 558.1,-120.09 631.69,-106.53"/>
<polygon fill="black" stroke="black" points="632.07,-110.02 641.28,-104.77 630.81,-103.13 632.07,-110.02"/>
</g>
<!-- token::withdraw_with_capability -->
<g id="node14" class="node">
<title>token::withdraw_with_capability</title>
<ellipse fill="none" stroke="black" cx="716" cy="-162" rx="102.88" ry="18"/>
<text text-anchor="middle" x="716" y="-158.3" font-family="Times,serif" font-size="14.00">withdraw_with_capability</text>
</g>
<!-- token::withdraw_with_capability&#45;&gt;token::withdraw_with_event_internal -->
<g id="edge13" class="edge">
<title>token::withdraw_with_capability&#45;&gt;token::withdraw_with_event_internal</title>
<path fill="none" stroke="black" d="M716,-143.7C716,-136.41 716,-127.73 716,-119.54"/>
<polygon fill="black" stroke="black" points="719.5,-119.62 716,-109.62 712.5,-119.62 719.5,-119.62"/>
</g>
<!-- token::mutate_token_properties -->
<g id="node15" class="node">
<title>token::mutate_token_properties</title>
<ellipse fill="none" stroke="black" cx="563" cy="-234" rx="98.58" ry="18"/>
<text text-anchor="middle" x="563" y="-230.3" font-family="Times,serif" font-size="14.00">mutate_token_properties</text>
</g>
<!-- token::mutate_token_properties&#45;&gt;token::mutate_one_token -->
<g id="edge15" class="edge">
<title>token::mutate_token_properties&#45;&gt;token::mutate_one_token</title>
<path fill="none" stroke="black" d="M552.12,-215.7C547.22,-207.9 541.32,-198.51 535.86,-189.83"/>
<polygon fill="black" stroke="black" points="538.84,-187.99 530.56,-181.39 532.92,-191.71 538.84,-187.99"/>
</g>
<!-- token::burn -->
<g id="node16" class="node">
<title>token::burn</title>
<ellipse fill="none" stroke="black" cx="419" cy="-234" rx="27" ry="18"/>
<text text-anchor="middle" x="419" y="-230.3" font-family="Times,serif" font-size="14.00">burn</text>
</g>
<!-- token::burn&#45;&gt;token::withdraw_token -->
<g id="edge16" class="edge">
<title>token::burn&#45;&gt;token::withdraw_token</title>
<path fill="none" stroke="black" d="M402.6,-219.17C391.62,-209.91 376.89,-197.49 364.07,-186.68"/>
<polygon fill="black" stroke="black" points="366.63,-184.26 356.73,-180.49 362.12,-189.61 366.63,-184.26"/>
</g>
<!-- token::transfer -->
<g id="node17" class="node">
<title>token::transfer</title>
<ellipse fill="none" stroke="black" cx="336" cy="-234" rx="37.89" ry="18"/>
<text text-anchor="middle" x="336" y="-230.3" font-family="Times,serif" font-size="14.00">transfer</text>
</g>
<!-- token::transfer&#45;&gt;token::withdraw_token -->
<g id="edge17" class="edge">
<title>token::transfer&#45;&gt;token::withdraw_token</title>
<path fill="none" stroke="black" d="M336,-215.7C336,-208.41 336,-199.73 336,-191.54"/>
<polygon fill="black" stroke="black" points="339.5,-191.62 336,-181.62 332.5,-191.62 339.5,-191.62"/>
</g>
<!-- token::direct_transfer -->
<g id="node18" class="node">
<title>token::direct_transfer</title>
<ellipse fill="none" stroke="black" cx="219" cy="-234" rx="61.99" ry="18"/>
<text text-anchor="middle" x="219" y="-230.3" font-family="Times,serif" font-size="14.00">direct_transfer</text>
</g>
<!-- token::direct_transfer&#45;&gt;token::withdraw_token -->
<g id="edge18" class="edge">
<title>token::direct_transfer&#45;&gt;token::withdraw_token</title>
<path fill="none" stroke="black" d="M245.26,-217.29C261.4,-207.63 282.31,-195.12 299.99,-184.55"/>
<polygon fill="black" stroke="black" points="301.34,-187.81 308.13,-179.68 297.75,-181.81 301.34,-187.81"/>
</g>
<!-- token_transfers::offer -->
<g id="node19" class="node">
<title>token_transfers::offer</title>
<ellipse fill="none" stroke="black" cx="80" cy="-234" rx="27.9" ry="18"/>
<text text-anchor="middle" x="80" y="-230.3" font-family="Times,serif" font-size="14.00">offer</text>
</g>
<!-- token_transfers::offer&#45;&gt;token::withdraw_token -->
<g id="edge19" class="edge">
<title>token_transfers::offer&#45;&gt;token::withdraw_token</title>
<path fill="none" stroke="black" d="M100.78,-221.65C110.12,-216.91 121.4,-211.66 132,-208 176.09,-192.77 227.36,-181.48 267.48,-174.03"/>
<polygon fill="black" stroke="black" points="268.05,-177.48 277.26,-172.25 266.79,-170.59 268.05,-177.48"/>
</g>
<!-- token::transfer_with_opt_in -->
<g id="node20" class="node">
<title>token::transfer_with_opt_in</title>
<ellipse fill="none" stroke="black" cx="418" cy="-306" rx="84.49" ry="18"/>
<text text-anchor="middle" x="418" y="-302.3" font-family="Times,serif" font-size="14.00">transfer_with_opt_in</text>
</g>
<!-- token::transfer_with_opt_in&#45;&gt;token::transfer -->
<g id="edge20" class="edge">
<title>token::transfer_with_opt_in&#45;&gt;token::transfer</title>
<path fill="none" stroke="black" d="M398.15,-288.05C387.35,-278.83 373.85,-267.31 362.19,-257.36"/>
<polygon fill="black" stroke="black" points="364.74,-254.93 354.87,-251.1 360.2,-260.26 364.74,-254.93"/>
</g>
<!-- token::direct_transfer_script -->
<g id="node21" class="node">
<title>token::direct_transfer_script</title>
<ellipse fill="none" stroke="black" cx="230" cy="-306" rx="85.59" ry="18"/>
<text text-anchor="middle" x="230" y="-302.3" font-family="Times,serif" font-size="14.00">direct_transfer_script</text>
</g>
<!-- token::direct_transfer_script&#45;&gt;token::direct_transfer -->
<g id="edge21" class="edge">
<title>token::direct_transfer_script&#45;&gt;token::direct_transfer</title>
<path fill="none" stroke="black" d="M227.28,-287.7C226.12,-280.32 224.74,-271.52 223.44,-263.25"/>
<polygon fill="black" stroke="black" points="226.93,-262.93 221.92,-253.6 220.02,-264.02 226.93,-262.93"/>
</g>
<!-- token_transfers::offer_script -->
<g id="node22" class="node">
<title>token_transfers::offer_script</title>
<ellipse fill="none" stroke="black" cx="68" cy="-306" rx="51.99" ry="18"/>
<text text-anchor="middle" x="68" y="-302.3" font-family="Times,serif" font-size="14.00">offer_script</text>
</g>
<!-- token_transfers::offer_script&#45;&gt;token_transfers::offer -->
<g id="edge22" class="edge">
<title>token_transfers::offer_script&#45;&gt;token_transfers::offer</title>
<path fill="none" stroke="black" d="M70.97,-287.7C72.23,-280.32 73.74,-271.52 75.16,-263.25"/>
<polygon fill="black" stroke="black" points="78.57,-264.04 76.81,-253.6 71.67,-262.86 78.57,-264.04"/>
</g>
</g>
</svg>
