<?xml version="1.0" encoding="UTF-8" standalone="no"?>
<!DOCTYPE svg PUBLIC "-//W3C//DTD SVG 1.1//EN"
 "http://www.w3.org/Graphics/SVG/1.1/DTD/svg11.dtd">
<!-- Generated by graphviz version 7.0.0 (20221023.0053)
 -->
<!-- Title: G Pages: 1 -->
<svg width="1657pt" height="617pt"
 viewBox="0.00 0.00 1657.00 617.00" xmlns="http://www.w3.org/2000/svg" xmlns:xlink="http://www.w3.org/1999/xlink">
<g id="graph0" class="graph" transform="scale(1 1) rotate(0) translate(4 613)">
<title>G</title>
<polygon fill="white" stroke="none" points="-4,4 -4,-613 1653,-613 1653,4 -4,4"/>
<g id="clust1" class="cluster">
<title>cluster_string</title>
<polygon fill="none" stroke="black" points="734,-415 734,-490 814,-490 814,-415 734,-415"/>
<text text-anchor="middle" x="774" y="-474.8" font-family="Times,serif" font-size="14.00">string</text>
</g>
<g id="clust2" class="cluster">
<title>cluster_signer</title>
<polygon fill="none" stroke="black" points="8,-415 8,-565 158,-565 158,-415 8,-415"/>
<text text-anchor="middle" x="83" y="-549.8" font-family="Times,serif" font-size="14.00">signer</text>
</g>
<g id="clust3" class="cluster">
<title>cluster_error</title>
<polygon fill="none" stroke="black" points="329,-174 329,-332 744,-332 744,-174 329,-174"/>
<text text-anchor="middle" x="536.5" y="-316.8" font-family="Times,serif" font-size="14.00">error</text>
</g>
<g id="clust4" class="cluster">
<title>cluster_table</title>
<polygon fill="none" stroke="black" points="198,-415 198,-565 592,-565 592,-415 198,-415"/>
<text text-anchor="middle" x="395" y="-549.8" font-family="Times,serif" font-size="14.00">table</text>
</g>
<g id="clust5" class="cluster">
<title>cluster_event</title>
<polygon fill="none" stroke="black" points="1455,-91 1455,-249 1641,-249 1641,-91 1455,-91"/>
<text text-anchor="middle" x="1548" y="-233.8" font-family="Times,serif" font-size="14.00">event</text>
</g>
<g id="clust6" class="cluster">
<title>cluster_property_map</title>
<polygon fill="none" stroke="black" points="898,-415 898,-565 991,-565 991,-415 898,-415"/>
<text text-anchor="middle" x="944.5" y="-549.8" font-family="Times,serif" font-size="14.00">property_map</text>
</g>
<g id="clust7" class="cluster">
<title>cluster_bcs</title>
<polygon fill="none" stroke="black" points="1351,-91 1351,-166 1447,-166 1447,-91 1351,-91"/>
<text text-anchor="middle" x="1399" y="-150.8" font-family="Times,serif" font-size="14.00">bcs</text>
</g>
<g id="clust8" class="cluster">
<title>cluster_simple_map</title>
<polygon fill="none" stroke="black" points="854,-257 854,-407 1006,-407 1006,-257 854,-257"/>
<text text-anchor="middle" x="930" y="-391.8" font-family="Times,serif" font-size="14.00">simple_map</text>
</g>
<g id="clust9" class="cluster">
<title>cluster_option</title>
<polygon fill="none" stroke="black" points="752,-91 752,-249 1083,-249 1083,-91 752,-91"/>
<text text-anchor="middle" x="917.5" y="-233.8" font-family="Times,serif" font-size="14.00">option</text>
</g>
<g id="clust10" class="cluster">
<title>cluster_vector</title>
<polygon fill="none" stroke="black" points="815,-8 815,-83 1022,-83 1022,-8 815,-8"/>
<text text-anchor="middle" x="918.5" y="-67.8" font-family="Times,serif" font-size="14.00">vector</text>
</g>
<g id="clust11" class="cluster">
<title>cluster_comparator</title>
<polygon fill="none" stroke="black" points="1091,-91 1091,-249 1343,-249 1343,-91 1091,-91"/>
<text text-anchor="middle" x="1217" y="-233.8" font-family="Times,serif" font-size="14.00">comparator</text>
</g>
<!-- create_tokendata -->
<g id="node1" class="node">
<title>create_tokendata</title>
<ellipse fill="none" stroke="black" cx="612" cy="-591" rx="70.39" ry="18"/>
<text text-anchor="middle" x="612" y="-587.3" font-family="Times,serif" font-size="14.00">create_tokendata</text>
</g>
<!-- string::length -->
<g id="node2" class="node">
<title>string::length</title>
<ellipse fill="none" stroke="black" cx="774" cy="-441" rx="32.49" ry="18"/>
<text text-anchor="middle" x="774" y="-437.3" font-family="Times,serif" font-size="14.00">length</text>
</g>
<!-- create_tokendata&#45;&gt;string::length -->
<g id="edge1" class="edge">
<title>create_tokendata&#45;&gt;string::length</title>
<path fill="none" stroke="black" d="M681.45,-587.66C750.31,-584.6 847.22,-578.03 859,-565 878.97,-542.91 877.82,-521.07 859,-498 847.82,-484.29 835.49,-498.55 820,-490 809.65,-484.29 800.22,-475.46 792.63,-466.93"/>
<polygon fill="black" stroke="black" points="795.48,-464.89 786.39,-459.45 790.11,-469.37 795.48,-464.89"/>
</g>
<!-- signer::address_of -->
<g id="node3" class="node">
<title>signer::address_of</title>
<ellipse fill="none" stroke="black" cx="92" cy="-516" rx="48.99" ry="18"/>
<text text-anchor="middle" x="92" y="-512.3" font-family="Times,serif" font-size="14.00">address_of</text>
</g>
<!-- create_tokendata&#45;&gt;signer::address_of -->
<g id="edge2" class="edge">
<title>create_tokendata&#45;&gt;signer::address_of</title>
<path fill="none" stroke="black" d="M541.31,-590.56C433.13,-590.66 231.89,-587.64 164,-565 147.72,-559.57 131.62,-549.42 118.8,-539.85"/>
<polygon fill="black" stroke="black" points="121.31,-537.38 111.27,-533.99 117.01,-542.9 121.31,-537.38"/>
</g>
<!-- error::already_exists -->
<g id="node4" class="node">
<title>error::already_exists</title>
<ellipse fill="none" stroke="black" cx="510" cy="-283" rx="61.19" ry="18"/>
<text text-anchor="middle" x="510" y="-279.3" font-family="Times,serif" font-size="14.00">already_exists</text>
</g>
<!-- create_tokendata&#45;&gt;error::already_exists -->
<g id="edge3" class="edge">
<title>create_tokendata&#45;&gt;error::already_exists</title>
<path fill="none" stroke="black" d="M613.15,-572.52C614.66,-540.35 615.22,-470.01 596,-415 581.92,-374.69 552.78,-334.57 532.34,-309.55"/>
<polygon fill="black" stroke="black" points="535.04,-307.33 525.95,-301.9 529.67,-311.82 535.04,-307.33"/>
</g>
<!-- error::invalid_argument -->
<g id="node5" class="node">
<title>error::invalid_argument</title>
<ellipse fill="none" stroke="black" cx="663" cy="-283" rx="73.39" ry="18"/>
<text text-anchor="middle" x="663" y="-279.3" font-family="Times,serif" font-size="14.00">invalid_argument</text>
</g>
<!-- create_tokendata&#45;&gt;error::invalid_argument -->
<g id="edge4" class="edge">
<title>create_tokendata&#45;&gt;error::invalid_argument</title>
<path fill="none" stroke="black" d="M622.68,-572.91C623.96,-570.33 625.12,-567.64 626,-565 655.51,-476.16 661.59,-364.17 662.77,-312.51"/>
<polygon fill="black" stroke="black" points="666.27,-312.86 662.94,-302.8 659.27,-312.74 666.27,-312.86"/>
</g>
<!-- error::not_found -->
<g id="node6" class="node">
<title>error::not_found</title>
<ellipse fill="none" stroke="black" cx="384" cy="-283" rx="46.59" ry="18"/>
<text text-anchor="middle" x="384" y="-279.3" font-family="Times,serif" font-size="14.00">not_found</text>
</g>
<!-- create_tokendata&#45;&gt;error::not_found -->
<g id="edge5" class="edge">
<title>create_tokendata&#45;&gt;error::not_found</title>
<path fill="none" stroke="black" d="M542.13,-588.29C426.24,-585.11 205.73,-577.45 194,-565 148.29,-516.47 163,-474.02 194,-415 224.53,-356.87 293.82,-319.49 339.74,-300.1"/>
<polygon fill="black" stroke="black" points="340.97,-303.38 348.91,-296.36 338.32,-296.9 340.97,-303.38"/>
</g>
<!-- table::contains -->
<g id="node7" class="node">
<title>table::contains</title>
<ellipse fill="none" stroke="black" cx="535" cy="-516" rx="40.09" ry="18"/>
<text text-anchor="middle" x="535" y="-512.3" font-family="Times,serif" font-size="14.00">contains</text>
</g>
<!-- create_tokendata&#45;&gt;table::contains -->
<g id="edge6" class="edge">
<title>create_tokendata&#45;&gt;table::contains</title>
<path fill="none" stroke="black" d="M594.53,-573.44C584.27,-563.71 571.15,-551.27 559.83,-540.54"/>
<polygon fill="black" stroke="black" points="562.38,-538.13 552.71,-533.79 557.56,-543.21 562.38,-538.13"/>
</g>
<!-- table::borrow_mut -->
<g id="node8" class="node">
<title>table::borrow_mut</title>
<ellipse fill="none" stroke="black" cx="400" cy="-516" rx="54.69" ry="18"/>
<text text-anchor="middle" x="400" y="-512.3" font-family="Times,serif" font-size="14.00">borrow_mut</text>
</g>
<!-- create_tokendata&#45;&gt;table::borrow_mut -->
<g id="edge7" class="edge">
<title>create_tokendata&#45;&gt;table::borrow_mut</title>
<path fill="none" stroke="black" d="M550.7,-581.81C529.78,-577.98 506.51,-572.54 486,-565 467.57,-558.22 448.37,-547.86 432.8,-538.5"/>
<polygon fill="black" stroke="black" points="434.77,-535.61 424.42,-533.34 431.1,-541.57 434.77,-535.61"/>
</g>
<!-- table::add -->
<g id="node9" class="node">
<title>table::add</title>
<ellipse fill="none" stroke="black" cx="273" cy="-516" rx="27" ry="18"/>
<text text-anchor="middle" x="273" y="-512.3" font-family="Times,serif" font-size="14.00">add</text>
</g>
<!-- create_tokendata&#45;&gt;table::add -->
<g id="edge8" class="edge">
<title>create_tokendata&#45;&gt;table::add</title>
<path fill="none" stroke="black" d="M542.06,-588.06C472.89,-585.36 372.27,-579.1 336,-565 321.03,-559.18 306.61,-548.68 295.35,-538.99"/>
<polygon fill="black" stroke="black" points="297.94,-536.61 288.17,-532.5 293.25,-541.8 297.94,-536.61"/>
</g>
<!-- event::emit_event -->
<g id="node10" class="node">
<title>event::emit_event</title>
<ellipse fill="none" stroke="black" cx="1513" cy="-200" rx="50.09" ry="18"/>
<text text-anchor="middle" x="1513" y="-196.3" font-family="Times,serif" font-size="14.00">emit_event</text>
</g>
<!-- create_tokendata&#45;&gt;event::emit_event -->
<g id="edge9" class="edge">
<title>create_tokendata&#45;&gt;event::emit_event</title>
<path fill="none" stroke="black" d="M682.31,-588.92C851.8,-584.43 1269,-561.26 1269,-442 1269,-442 1269,-442 1269,-357 1269,-268.11 1385.37,-227.59 1457.38,-211.03"/>
<polygon fill="black" stroke="black" points="1458.04,-214.47 1467.05,-208.9 1456.53,-207.63 1458.04,-214.47"/>
</g>
<!-- property_map::new -->
<g id="node11" class="node">
<title>property_map::new</title>
<ellipse fill="none" stroke="black" cx="933" cy="-516" rx="27" ry="18"/>
<text text-anchor="middle" x="933" y="-512.3" font-family="Times,serif" font-size="14.00">new</text>
</g>
<!-- create_tokendata&#45;&gt;property_map::new -->
<g id="edge10" class="edge">
<title>create_tokendata&#45;&gt;property_map::new</title>
<path fill="none" stroke="black" d="M682.67,-589.71C753.44,-588.36 856.76,-583.19 892,-565 902.01,-559.83 910.6,-551.07 917.28,-542.44"/>
<polygon fill="black" stroke="black" points="919.96,-544.71 922.9,-534.53 914.25,-540.66 919.96,-544.71"/>
</g>
<!-- create_token_data_id -->
<g id="node12" class="node">
<title>create_token_data_id</title>
<ellipse fill="none" stroke="black" cx="764" cy="-516" rx="85.59" ry="18"/>
<text text-anchor="middle" x="764" y="-512.3" font-family="Times,serif" font-size="14.00">create_token_data_id</text>
</g>
<!-- create_tokendata&#45;&gt;create_token_data_id -->
<g id="edge11" class="edge">
<title>create_tokendata&#45;&gt;create_token_data_id</title>
<path fill="none" stroke="black" d="M643.86,-574.7C666.11,-564.01 696.07,-549.63 720.5,-537.89"/>
<polygon fill="black" stroke="black" points="721.74,-541.18 729.23,-533.7 718.7,-534.87 721.74,-541.18"/>
</g>
<!-- signer::borrow_address -->
<g id="node13" class="node">
<title>signer::borrow_address</title>
<ellipse fill="none" stroke="black" cx="83" cy="-441" rx="66.89" ry="18"/>
<text text-anchor="middle" x="83" y="-437.3" font-family="Times,serif" font-size="14.00">borrow_address</text>
</g>
<!-- signer::address_of&#45;&gt;signer::borrow_address -->
<g id="edge12" class="edge">
<title>signer::address_of&#45;&gt;signer::borrow_address</title>
<path fill="none" stroke="black" d="M89.87,-497.7C88.88,-489.67 87.67,-479.9 86.55,-470.8"/>
<polygon fill="black" stroke="black" points="90.03,-470.43 85.33,-460.93 83.08,-471.28 90.03,-470.43"/>
</g>
<!-- error::canonical -->
<g id="node14" class="node">
<title>error::canonical</title>
<ellipse fill="none" stroke="black" cx="510" cy="-200" rx="44.39" ry="18"/>
<text text-anchor="middle" x="510" y="-196.3" font-family="Times,serif" font-size="14.00">canonical</text>
</g>
<!-- error::already_exists&#45;&gt;error::canonical -->
<g id="edge13" class="edge">
<title>error::already_exists&#45;&gt;error::canonical</title>
<path fill="none" stroke="black" d="M510,-264.82C510,-254.69 510,-241.6 510,-229.92"/>
<polygon fill="black" stroke="black" points="513.5,-229.95 510,-219.95 506.5,-229.95 513.5,-229.95"/>
</g>
<!-- error::invalid_argument&#45;&gt;error::canonical -->
<g id="edge14" class="edge">
<title>error::invalid_argument&#45;&gt;error::canonical</title>
<path fill="none" stroke="black" d="M633.14,-266.19C608.26,-253.02 572.75,-234.22 546.25,-220.19"/>
<polygon fill="black" stroke="black" points="548.03,-217.17 537.56,-215.59 544.76,-223.36 548.03,-217.17"/>
</g>
<!-- error::not_found&#45;&gt;error::canonical -->
<g id="edge15" class="edge">
<title>error::not_found&#45;&gt;error::canonical</title>
<path fill="none" stroke="black" d="M407.4,-266.95C427.15,-254.26 455.63,-235.95 477.58,-221.84"/>
<polygon fill="black" stroke="black" points="479.35,-224.86 485.87,-216.51 475.57,-218.97 479.35,-224.86"/>
</g>
<!-- table::contains_box -->
<g id="node15" class="node">
<title>table::contains_box</title>
<ellipse fill="none" stroke="black" cx="526" cy="-441" rx="57.69" ry="18"/>
<text text-anchor="middle" x="526" y="-437.3" font-family="Times,serif" font-size="14.00">contains_box</text>
</g>
<!-- table::contains&#45;&gt;table::contains_box -->
<g id="edge16" class="edge">
<title>table::contains&#45;&gt;table::contains_box</title>
<path fill="none" stroke="black" d="M532.87,-497.7C531.88,-489.67 530.67,-479.9 529.55,-470.8"/>
<polygon fill="black" stroke="black" points="533.03,-470.43 528.33,-460.93 526.08,-471.28 533.03,-470.43"/>
</g>
<!-- table::borrow_box_mut -->
<g id="node16" class="node">
<title>table::borrow_box_mut</title>
<ellipse fill="none" stroke="black" cx="378" cy="-441" rx="72.29" ry="18"/>
<text text-anchor="middle" x="378" y="-437.3" font-family="Times,serif" font-size="14.00">borrow_box_mut</text>
</g>
<!-- table::borrow_mut&#45;&gt;table::borrow_box_mut -->
<g id="edge17" class="edge">
<title>table::borrow_mut&#45;&gt;table::borrow_box_mut</title>
<path fill="none" stroke="black" d="M394.79,-497.7C392.31,-489.49 389.29,-479.46 386.5,-470.19"/>
<polygon fill="black" stroke="black" points="389.93,-469.44 383.69,-460.88 383.22,-471.46 389.93,-469.44"/>
</g>
<!-- table::add_box -->
<g id="node17" class="node">
<title>table::add_box</title>
<ellipse fill="none" stroke="black" cx="247" cy="-441" rx="40.89" ry="18"/>
<text text-anchor="middle" x="247" y="-437.3" font-family="Times,serif" font-size="14.00">add_box</text>
</g>
<!-- table::add&#45;&gt;table::add_box -->
<g id="edge18" class="edge">
<title>table::add&#45;&gt;table::add_box</title>
<path fill="none" stroke="black" d="M266.97,-498.07C263.97,-489.65 260.27,-479.27 256.88,-469.73"/>
<polygon fill="black" stroke="black" points="260.25,-468.76 253.6,-460.52 253.65,-471.11 260.25,-468.76"/>
</g>
<!-- bcs::to_bytes -->
<g id="node18" class="node">
<title>bcs::to_bytes</title>
<ellipse fill="none" stroke="black" cx="1399" cy="-117" rx="40.09" ry="18"/>
<text text-anchor="middle" x="1399" y="-113.3" font-family="Times,serif" font-size="14.00">to_bytes</text>
</g>
<!-- event::emit_event&#45;&gt;bcs::to_bytes -->
<g id="edge19" class="edge">
<title>event::emit_event&#45;&gt;bcs::to_bytes</title>
<path fill="none" stroke="black" d="M1483.38,-185.2C1472.81,-179.77 1461.04,-173.13 1451,-166 1440.93,-158.85 1430.75,-149.92 1422.1,-141.7"/>
<polygon fill="black" stroke="black" points="1424.71,-139.36 1415.11,-134.88 1419.82,-144.37 1424.71,-139.36"/>
</g>
<!-- event::write_to_event_store -->
<g id="node19" class="node">
<title>event::write_to_event_store</title>
<ellipse fill="none" stroke="black" cx="1548" cy="-117" rx="85.29" ry="18"/>
<text text-anchor="middle" x="1548" y="-113.3" font-family="Times,serif" font-size="14.00">write_to_event_store</text>
</g>
<!-- event::emit_event&#45;&gt;event::write_to_event_store -->
<g id="edge20" class="edge">
<title>event::emit_event&#45;&gt;event::write_to_event_store</title>
<path fill="none" stroke="black" d="M1520.42,-181.82C1524.97,-171.3 1530.89,-157.59 1536.09,-145.57"/>
<polygon fill="black" stroke="black" points="1539.23,-147.11 1539.99,-136.54 1532.81,-144.33 1539.23,-147.11"/>
</g>
<!-- property_map::new&#45;&gt;string::length -->
<g id="edge21" class="edge">
<title>property_map::new&#45;&gt;string::length</title>
<path fill="none" stroke="black" d="M911.69,-504.83C905.46,-502.23 898.57,-499.69 892,-498 860.82,-489.98 848.87,-504.26 820,-490 809.25,-484.69 799.64,-475.78 792.03,-467.07"/>
<polygon fill="black" stroke="black" points="794.82,-464.96 785.8,-459.4 789.39,-469.37 794.82,-464.96"/>
</g>
<!-- property_map::new&#45;&gt;error::invalid_argument -->
<g id="edge22" class="edge">
<title>property_map::new&#45;&gt;error::invalid_argument</title>
<path fill="none" stroke="black" d="M910.97,-505.61C902.44,-501.45 892.86,-496.11 885,-490 849.72,-462.56 850.04,-446.17 818,-415 776.86,-374.97 725.31,-332.84 693.26,-307.49"/>
<polygon fill="black" stroke="black" points="695.58,-304.86 685.55,-301.42 691.25,-310.36 695.58,-304.86"/>
</g>
<!-- simple_map::add -->
<g id="node20" class="node">
<title>simple_map::add</title>
<ellipse fill="none" stroke="black" cx="889" cy="-358" rx="27" ry="18"/>
<text text-anchor="middle" x="889" y="-354.3" font-family="Times,serif" font-size="14.00">add</text>
</g>
<!-- property_map::new&#45;&gt;simple_map::add -->
<g id="edge23" class="edge">
<title>property_map::new&#45;&gt;simple_map::add</title>
<path fill="none" stroke="black" d="M916.4,-501.49C913.14,-498.07 910.09,-494.17 908,-490 891.67,-457.43 888.28,-414.96 888.06,-387.34"/>
<polygon fill="black" stroke="black" points="891.56,-387.68 888.14,-377.65 884.56,-387.63 891.56,-387.68"/>
</g>
<!-- property_map::empty -->
<g id="node21" class="node">
<title>property_map::empty</title>
<ellipse fill="none" stroke="black" cx="950" cy="-441" rx="33.29" ry="18"/>
<text text-anchor="middle" x="950" y="-437.3" font-family="Times,serif" font-size="14.00">empty</text>
</g>
<!-- property_map::new&#45;&gt;property_map::empty -->
<g id="edge24" class="edge">
<title>property_map::new&#45;&gt;property_map::empty</title>
<path fill="none" stroke="black" d="M937.03,-497.7C938.93,-489.52 941.26,-479.54 943.41,-470.29"/>
<polygon fill="black" stroke="black" points="946.8,-471.18 945.66,-460.65 939.98,-469.6 946.8,-471.18"/>
</g>
<!-- create_token_data_id&#45;&gt;string::length -->
<g id="edge25" class="edge">
<title>create_token_data_id&#45;&gt;string::length</title>
<path fill="none" stroke="black" d="M766.37,-497.7C767.47,-489.67 768.81,-479.9 770.05,-470.8"/>
<polygon fill="black" stroke="black" points="773.52,-471.31 771.41,-460.93 766.58,-470.36 773.52,-471.31"/>
</g>
<!-- create_token_data_id&#45;&gt;error::invalid_argument -->
<g id="edge26" class="edge">
<title>create_token_data_id&#45;&gt;error::invalid_argument</title>
<path fill="none" stroke="black" d="M737.89,-498.56C734.96,-495.95 732.23,-493.09 730,-490 690.21,-434.92 673.21,-354.99 666.65,-312.71"/>
<polygon fill="black" stroke="black" points="670.12,-312.24 665.22,-302.85 663.2,-313.25 670.12,-312.24"/>
</g>
<!-- simple_map::add&#45;&gt;error::invalid_argument -->
<g id="edge29" class="edge">
<title>simple_map::add&#45;&gt;error::invalid_argument</title>
<path fill="none" stroke="black" d="M867.17,-346.98C861.06,-344.44 854.35,-341.9 848,-340 829.79,-334.55 824.38,-336.81 806,-332 774.6,-323.78 740.09,-312.27 712.84,-302.58"/>
<polygon fill="black" stroke="black" points="714.04,-299.29 703.44,-299.21 711.67,-305.88 714.04,-299.29"/>
</g>
<!-- option::extract -->
<g id="node22" class="node">
<title>option::extract</title>
<ellipse fill="none" stroke="black" cx="794" cy="-200" rx="34.39" ry="18"/>
<text text-anchor="middle" x="794" y="-196.3" font-family="Times,serif" font-size="14.00">extract</text>
</g>
<!-- simple_map::add&#45;&gt;option::extract -->
<g id="edge27" class="edge">
<title>simple_map::add&#45;&gt;option::extract</title>
<path fill="none" stroke="black" d="M879.19,-340.89C862.76,-313.92 829.55,-259.38 809.8,-226.95"/>
<polygon fill="black" stroke="black" points="812.88,-225.27 804.69,-218.55 806.9,-228.91 812.88,-225.27"/>
</g>
<!-- option::is_none -->
<g id="node23" class="node">
<title>option::is_none</title>
<ellipse fill="none" stroke="black" cx="885" cy="-200" rx="38.19" ry="18"/>
<text text-anchor="middle" x="885" y="-196.3" font-family="Times,serif" font-size="14.00">is_none</text>
</g>
<!-- simple_map::add&#45;&gt;option::is_none -->
<g id="edge28" class="edge">
<title>simple_map::add&#45;&gt;option::is_none</title>
<path fill="none" stroke="black" d="M888.56,-339.71C887.87,-313.12 886.56,-261.9 885.74,-229.69"/>
<polygon fill="black" stroke="black" points="889.24,-229.79 885.48,-219.88 882.24,-229.97 889.24,-229.79"/>
</g>
<!-- simple_map::find -->
<g id="node24" class="node">
<title>simple_map::find</title>
<ellipse fill="none" stroke="black" cx="971" cy="-283" rx="27" ry="18"/>
<text text-anchor="middle" x="971" y="-279.3" font-family="Times,serif" font-size="14.00">find</text>
</g>
<!-- simple_map::add&#45;&gt;simple_map::find -->
<g id="edge30" class="edge">
<title>simple_map::add&#45;&gt;simple_map::find</title>
<path fill="none" stroke="black" d="M904.81,-342.92C916.72,-332.32 933.26,-317.59 946.83,-305.52"/>
<polygon fill="black" stroke="black" points="948.97,-308.3 954.11,-299.04 944.31,-303.07 948.97,-308.3"/>
</g>
<!-- simple_map::create -->
<g id="node25" class="node">
<title>simple_map::create</title>
<ellipse fill="none" stroke="black" cx="966" cy="-358" rx="31.7" ry="18"/>
<text text-anchor="middle" x="966" y="-354.3" font-family="Times,serif" font-size="14.00">create</text>
</g>
<!-- property_map::empty&#45;&gt;simple_map::create -->
<g id="edge31" class="edge">
<title>property_map::empty&#45;&gt;simple_map::create</title>
<path fill="none" stroke="black" d="M953.39,-422.82C955.43,-412.51 958.07,-399.14 960.41,-387.31"/>
<polygon fill="black" stroke="black" points="963.81,-388.13 962.32,-377.64 956.95,-386.77 963.81,-388.13"/>
</g>
<!-- option::is_some -->
<g id="node26" class="node">
<title>option::is_some</title>
<ellipse fill="none" stroke="black" cx="805" cy="-117" rx="40.09" ry="18"/>
<text text-anchor="middle" x="805" y="-113.3" font-family="Times,serif" font-size="14.00">is_some</text>
</g>
<!-- option::extract&#45;&gt;option::is_some -->
<g id="edge32" class="edge">
<title>option::extract&#45;&gt;option::is_some</title>
<path fill="none" stroke="black" d="M796.33,-181.82C797.72,-171.58 799.52,-158.33 801.12,-146.55"/>
<polygon fill="black" stroke="black" points="804.55,-147.31 802.43,-136.93 797.62,-146.37 804.55,-147.31"/>
</g>
<!-- vector::is_empty -->
<g id="node27" class="node">
<title>vector::is_empty</title>
<ellipse fill="none" stroke="black" cx="867" cy="-34" rx="43.59" ry="18"/>
<text text-anchor="middle" x="867" y="-30.3" font-family="Times,serif" font-size="14.00">is_empty</text>
</g>
<!-- option::is_none&#45;&gt;vector::is_empty -->
<g id="edge33" class="edge">
<title>option::is_none&#45;&gt;vector::is_empty</title>
<path fill="none" stroke="black" d="M883.11,-181.76C880.01,-153.51 873.82,-97.11 870.08,-63.04"/>
<polygon fill="black" stroke="black" points="873.6,-63.07 869.03,-53.51 866.64,-63.84 873.6,-63.07"/>
</g>
<!-- option::none -->
<g id="node28" class="node">
<title>option::none</title>
<ellipse fill="none" stroke="black" cx="1047" cy="-200" rx="27.9" ry="18"/>
<text text-anchor="middle" x="1047" y="-196.3" font-family="Times,serif" font-size="14.00">none</text>
</g>
<!-- simple_map::find&#45;&gt;option::none -->
<g id="edge34" class="edge">
<title>simple_map::find&#45;&gt;option::none</title>
<path fill="none" stroke="black" d="M988.01,-268.93C995.11,-263.14 1003.26,-256.05 1010,-249 1016.75,-241.94 1023.46,-233.69 1029.29,-226.04"/>
<polygon fill="black" stroke="black" points="1032.08,-228.14 1035.22,-218.02 1026.46,-223.98 1032.08,-228.14"/>
</g>
<!-- option::some -->
<g id="node29" class="node">
<title>option::some</title>
<ellipse fill="none" stroke="black" cx="971" cy="-200" rx="29.8" ry="18"/>
<text text-anchor="middle" x="971" y="-196.3" font-family="Times,serif" font-size="14.00">some</text>
</g>
<!-- simple_map::find&#45;&gt;option::some -->
<g id="edge35" class="edge">
<title>simple_map::find&#45;&gt;option::some</title>
<path fill="none" stroke="black" d="M971,-264.82C971,-254.69 971,-241.6 971,-229.92"/>
<polygon fill="black" stroke="black" points="974.5,-229.95 971,-219.95 967.5,-229.95 974.5,-229.95"/>
</g>
<!-- comparator::compare -->
<g id="node30" class="node">
<title>comparator::compare</title>
<ellipse fill="none" stroke="black" cx="1293" cy="-200" rx="41.69" ry="18"/>
<text text-anchor="middle" x="1293" y="-196.3" font-family="Times,serif" font-size="14.00">compare</text>
</g>
<!-- simple_map::find&#45;&gt;comparator::compare -->
<g id="edge36" class="edge">
<title>simple_map::find&#45;&gt;comparator::compare</title>
<path fill="none" stroke="black" d="M998.07,-280.84C1057.82,-277.94 1199.08,-269.11 1242,-249 1253.68,-243.53 1264.44,-234.35 1273.03,-225.47"/>
<polygon fill="black" stroke="black" points="1275.41,-228.06 1279.55,-218.31 1270.23,-223.35 1275.41,-228.06"/>
</g>
<!-- comparator::is_smaller_than -->
<g id="node31" class="node">
<title>comparator::is_smaller_than</title>
<ellipse fill="none" stroke="black" cx="1166" cy="-200" rx="66.89" ry="18"/>
<text text-anchor="middle" x="1166" y="-196.3" font-family="Times,serif" font-size="14.00">is_smaller_than</text>
</g>
<!-- simple_map::find&#45;&gt;comparator::is_smaller_than -->
<g id="edge37" class="edge">
<title>simple_map::find&#45;&gt;comparator::is_smaller_than</title>
<path fill="none" stroke="black" d="M996.57,-276.81C1020.54,-271.46 1057.06,-262.07 1087,-249 1102.98,-242.03 1119.62,-232.33 1133.49,-223.47"/>
<polygon fill="black" stroke="black" points="1135.32,-226.45 1141.78,-218.05 1131.49,-220.59 1135.32,-226.45"/>
</g>
<!-- option::is_some&#45;&gt;vector::is_empty -->
<g id="edge38" class="edge">
<title>option::is_some&#45;&gt;vector::is_empty</title>
<path fill="none" stroke="black" d="M817.55,-99.61C826.15,-88.37 837.72,-73.25 847.51,-60.46"/>
<polygon fill="black" stroke="black" points="850.04,-62.92 853.34,-52.85 844.48,-58.66 850.04,-62.92"/>
</g>
<!-- vector::singleton -->
<g id="node32" class="node">
<title>vector::singleton</title>
<ellipse fill="none" stroke="black" cx="971" cy="-34" rx="42.79" ry="18"/>
<text text-anchor="middle" x="971" y="-30.3" font-family="Times,serif" font-size="14.00">singleton</text>
</g>
<!-- option::some&#45;&gt;vector::singleton -->
<g id="edge39" class="edge">
<title>option::some&#45;&gt;vector::singleton</title>
<path fill="none" stroke="black" d="M971,-181.76C971,-153.63 971,-97.6 971,-63.49"/>
<polygon fill="black" stroke="black" points="974.5,-63.52 971,-53.52 967.5,-63.52 974.5,-63.52"/>
</g>
<!-- comparator::compare&#45;&gt;bcs::to_bytes -->
<g id="edge40" class="edge">
<title>comparator::compare&#45;&gt;bcs::to_bytes</title>
<path fill="none" stroke="black" d="M1317.86,-185.2C1327.26,-179.63 1337.88,-172.89 1347,-166 1356.71,-158.67 1366.68,-149.83 1375.27,-141.74"/>
<polygon fill="black" stroke="black" points="1377.45,-144.5 1382.24,-135.04 1372.6,-139.45 1377.45,-144.5"/>
</g>
<!-- comparator::compare_u8_vector -->
<g id="node33" class="node">
<title>comparator::compare_u8_vector</title>
<ellipse fill="none" stroke="black" cx="1254" cy="-117" rx="81.49" ry="18"/>
<text text-anchor="middle" x="1254" y="-113.3" font-family="Times,serif" font-size="14.00">compare_u8_vector</text>
</g>
<!-- comparator::compare&#45;&gt;comparator::compare_u8_vector -->
<g id="edge41" class="edge">
<title>comparator::compare&#45;&gt;comparator::compare_u8_vector</title>
<path fill="none" stroke="black" d="M1284.92,-182.22C1279.81,-171.61 1273.09,-157.65 1267.22,-145.45"/>
<polygon fill="black" stroke="black" points="1270.49,-144.18 1263,-136.68 1264.18,-147.21 1270.49,-144.18"/>
</g>
</g>
</svg>
