<?xml version="1.0" encoding="UTF-8" standalone="no"?>
<!DOCTYPE svg PUBLIC "-//W3C//DTD SVG 1.1//EN"
 "http://www.w3.org/Graphics/SVG/1.1/DTD/svg11.dtd">
<!-- Generated by graphviz version 7.0.0 (20221023.0053)
 -->
<!-- Title: G Pages: 1 -->
<svg width="1951pt" height="708pt"
 viewBox="0.00 0.00 1950.75 708.00" xmlns="http://www.w3.org/2000/svg" xmlns:xlink="http://www.w3.org/1999/xlink">
<g id="graph0" class="graph" transform="scale(1 1) rotate(0) translate(4 704)">
<title>G</title>
<polygon fill="white" stroke="none" points="-4,4 -4,-704 1946.75,-704 1946.75,4 -4,4"/>
<g id="clust1" class="cluster">
<title>cluster_string</title>
<polygon fill="none" stroke="black" points="25.86,-340 25.86,-498 203.86,-498 203.86,-340 25.86,-340"/>
<text text-anchor="middle" x="114.86" y="-482.8" font-family="Times,serif" font-size="14.00">string</text>
</g>
<g id="clust2" class="cluster">
<title>cluster_signer</title>
<polygon fill="none" stroke="black" points="1418.86,-506 1418.86,-656 1568.86,-656 1568.86,-506 1418.86,-506"/>
<text text-anchor="middle" x="1493.86" y="-640.8" font-family="Times,serif" font-size="14.00">signer</text>
</g>
<g id="clust3" class="cluster">
<title>cluster_error</title>
<polygon fill="none" stroke="black" points="114.86,-174 114.86,-332 690.86,-332 690.86,-174 114.86,-174"/>
<text text-anchor="middle" x="402.86" y="-316.8" font-family="Times,serif" font-size="14.00">error</text>
</g>
<g id="clust4" class="cluster">
<title>cluster_table</title>
<polygon fill="none" stroke="black" points="1153.86,-340 1153.86,-498 1701.86,-498 1701.86,-340 1153.86,-340"/>
<text text-anchor="middle" x="1427.86" y="-482.8" font-family="Times,serif" font-size="14.00">table</text>
</g>
<g id="clust5" class="cluster">
<title>cluster_event</title>
<polygon fill="none" stroke="black" points="810.86,-423 810.86,-581 996.86,-581 996.86,-423 810.86,-423"/>
<text text-anchor="middle" x="903.86" y="-565.8" font-family="Times,serif" font-size="14.00">event</text>
</g>
<g id="clust6" class="cluster">
<title>cluster_property_map</title>
<polygon fill="none" stroke="black" points="504.86,-340 504.86,-581 696.86,-581 696.86,-340 504.86,-340"/>
<text text-anchor="middle" x="600.86" y="-565.8" font-family="Times,serif" font-size="14.00">property_map</text>
</g>
<g id="clust7" class="cluster">
<title>cluster_bcs</title>
<polygon fill="none" stroke="black" points="1272.86,-91 1272.86,-166 1368.86,-166 1368.86,-91 1272.86,-91"/>
<text text-anchor="middle" x="1320.86" y="-150.8" font-family="Times,serif" font-size="14.00">bcs</text>
</g>
<g id="clust8" class="cluster">
<title>cluster_simple_map</title>
<polygon fill="none" stroke="black" points="810.86,-257 810.86,-415 1113.86,-415 1113.86,-257 810.86,-257"/>
<text text-anchor="middle" x="962.36" y="-399.8" font-family="Times,serif" font-size="14.00">simple_map</text>
</g>
<g id="clust9" class="cluster">
<title>cluster_from_bcs</title>
<polygon fill="none" stroke="black" points="378.86,-340 378.86,-498 496.86,-498 496.86,-340 378.86,-340"/>
<text text-anchor="middle" x="437.86" y="-482.8" font-family="Times,serif" font-size="14.00">from_bcs</text>
</g>
<g id="clust10" class="cluster">
<title>cluster_option</title>
<polygon fill="none" stroke="black" points="768.86,-91 768.86,-249 1004.86,-249 1004.86,-91 768.86,-91"/>
<text text-anchor="middle" x="886.86" y="-233.8" font-family="Times,serif" font-size="14.00">option</text>
</g>
<g id="clust11" class="cluster">
<title>cluster_vector</title>
<polygon fill="none" stroke="black" points="775.86,-8 775.86,-83 982.86,-83 982.86,-8 775.86,-8"/>
<text text-anchor="middle" x="879.36" y="-67.8" font-family="Times,serif" font-size="14.00">vector</text>
</g>
<g id="clust12" class="cluster">
<title>cluster_comparator</title>
<polygon fill="none" stroke="black" points="1012.86,-91 1012.86,-249 1264.86,-249 1264.86,-91 1012.86,-91"/>
<text text-anchor="middle" x="1138.86" y="-233.8" font-family="Times,serif" font-size="14.00">comparator</text>
</g>
<!-- burn_by_creator -->
<g id="node1" class="node">
<title>burn_by_creator</title>
<ellipse fill="none" stroke="black" cx="915.86" cy="-682" rx="68.79" ry="18"/>
<text text-anchor="middle" x="915.86" y="-678.3" font-family="Times,serif" font-size="14.00">burn_by_creator</text>
</g>
<!-- string::utf8 -->
<g id="node2" class="node">
<title>string::utf8</title>
<ellipse fill="none" stroke="black" cx="168.86" cy="-449" rx="27" ry="18"/>
<text text-anchor="middle" x="168.86" y="-445.3" font-family="Times,serif" font-size="14.00">utf8</text>
</g>
<!-- burn_by_creator&#45;&gt;string::utf8 -->
<g id="edge1" class="edge">
<title>burn_by_creator&#45;&gt;string::utf8</title>
<path fill="none" stroke="black" d="M846.89,-680.9C673,-680.33 228.8,-676.85 204.86,-656 154.2,-611.88 157.97,-523.92 163.95,-478.54"/>
<polygon fill="black" stroke="black" points="167.4,-479.1 165.39,-468.7 160.48,-478.09 167.4,-479.1"/>
</g>
<!-- signer::address_of -->
<g id="node3" class="node">
<title>signer::address_of</title>
<ellipse fill="none" stroke="black" cx="1484.86" cy="-607" rx="48.99" ry="18"/>
<text text-anchor="middle" x="1484.86" y="-603.3" font-family="Times,serif" font-size="14.00">address_of</text>
</g>
<!-- burn_by_creator&#45;&gt;signer::address_of -->
<g id="edge2" class="edge">
<title>burn_by_creator&#45;&gt;signer::address_of</title>
<path fill="none" stroke="black" d="M984.15,-679.58C1110.9,-676.65 1373.28,-669.08 1412.86,-656 1429.16,-650.61 1445.25,-640.47 1458.08,-630.9"/>
<polygon fill="black" stroke="black" points="1459.87,-633.94 1465.6,-625.03 1455.56,-628.42 1459.87,-633.94"/>
</g>
<!-- error::invalid_argument -->
<g id="node4" class="node">
<title>error::invalid_argument</title>
<ellipse fill="none" stroke="black" cx="479.86" cy="-283" rx="73.39" ry="18"/>
<text text-anchor="middle" x="479.86" y="-279.3" font-family="Times,serif" font-size="14.00">invalid_argument</text>
</g>
<!-- burn_by_creator&#45;&gt;error::invalid_argument -->
<g id="edge3" class="edge">
<title>burn_by_creator&#45;&gt;error::invalid_argument</title>
<path fill="none" stroke="black" d="M847.16,-680.5C737.59,-679.15 532.73,-674.2 504.86,-656 442.12,-615.02 488.71,-549.73 427.86,-506 408.52,-492.1 390.4,-516.06 374.86,-498 351.96,-471.38 354.52,-368.62 374.86,-340 381.13,-331.18 388.03,-336.53 397.86,-332 414.05,-324.53 431.18,-314.82 445.58,-306.08"/>
<polygon fill="black" stroke="black" points="447.1,-309.26 453.77,-301.03 443.42,-303.3 447.1,-309.26"/>
</g>
<!-- error::not_found -->
<g id="node5" class="node">
<title>error::not_found</title>
<ellipse fill="none" stroke="black" cx="341.86" cy="-283" rx="46.59" ry="18"/>
<text text-anchor="middle" x="341.86" y="-279.3" font-family="Times,serif" font-size="14.00">not_found</text>
</g>
<!-- burn_by_creator&#45;&gt;error::not_found -->
<g id="edge4" class="edge">
<title>burn_by_creator&#45;&gt;error::not_found</title>
<path fill="none" stroke="black" d="M846.67,-681.13C672.79,-681.12 226.93,-678.83 163.86,-656 80.18,-625.71 5.86,-621.99 5.86,-533 5.86,-533 5.86,-533 5.86,-448 5.86,-399.48 -14.39,-372.25 21.86,-340 32.83,-330.25 272.18,-337.3 285.86,-332 298.66,-327.04 310.56,-317.82 320.07,-308.78"/>
<polygon fill="black" stroke="black" points="322.49,-311.3 327.02,-301.73 317.51,-306.39 322.49,-311.3"/>
</g>
<!-- error::permission_denied -->
<g id="node6" class="node">
<title>error::permission_denied</title>
<ellipse fill="none" stroke="black" cx="199.86" cy="-283" rx="77.19" ry="18"/>
<text text-anchor="middle" x="199.86" y="-279.3" font-family="Times,serif" font-size="14.00">permission_denied</text>
</g>
<!-- burn_by_creator&#45;&gt;error::permission_denied -->
<g id="edge5" class="edge">
<title>burn_by_creator&#45;&gt;error::permission_denied</title>
<path fill="none" stroke="black" d="M846.94,-680.86C679.39,-680.18 262.73,-676.45 240.86,-656 189.29,-607.78 216.52,-410.07 207.86,-340 206.75,-331.02 205.4,-321.25 204.14,-312.42"/>
<polygon fill="black" stroke="black" points="207.61,-312.02 202.7,-302.63 200.69,-313.03 207.61,-312.02"/>
</g>
<!-- table::contains -->
<g id="node7" class="node">
<title>table::contains</title>
<ellipse fill="none" stroke="black" cx="1292.86" cy="-449" rx="40.09" ry="18"/>
<text text-anchor="middle" x="1292.86" y="-445.3" font-family="Times,serif" font-size="14.00">contains</text>
</g>
<!-- burn_by_creator&#45;&gt;table::contains -->
<g id="edge6" class="edge">
<title>burn_by_creator&#45;&gt;table::contains</title>
<path fill="none" stroke="black" d="M983.59,-678.2C1058.92,-674.56 1172.26,-667.29 1188.86,-656 1250.44,-614.12 1277.43,-524.44 1287.59,-478.47"/>
<polygon fill="black" stroke="black" points="1291,-479.24 1289.61,-468.73 1284.15,-477.81 1291,-479.24"/>
</g>
<!-- table::borrow_mut -->
<g id="node8" class="node">
<title>table::borrow_mut</title>
<ellipse fill="none" stroke="black" cx="1405.86" cy="-449" rx="54.69" ry="18"/>
<text text-anchor="middle" x="1405.86" y="-445.3" font-family="Times,serif" font-size="14.00">borrow_mut</text>
</g>
<!-- burn_by_creator&#45;&gt;table::borrow_mut -->
<g id="edge7" class="edge">
<title>burn_by_creator&#45;&gt;table::borrow_mut</title>
<path fill="none" stroke="black" d="M984.92,-681.62C1064.43,-681.28 1189.41,-677.21 1230.86,-656 1309.54,-615.75 1367.17,-523.23 1392.14,-477.13"/>
<polygon fill="black" stroke="black" points="1395.07,-479.07 1396.66,-468.59 1388.89,-475.79 1395.07,-479.07"/>
</g>
<!-- table::remove -->
<g id="node9" class="node">
<title>table::remove</title>
<ellipse fill="none" stroke="black" cx="1515.86" cy="-449" rx="37.89" ry="18"/>
<text text-anchor="middle" x="1515.86" y="-445.3" font-family="Times,serif" font-size="14.00">remove</text>
</g>
<!-- burn_by_creator&#45;&gt;table::remove -->
<g id="edge8" class="edge">
<title>burn_by_creator&#45;&gt;table::remove</title>
<path fill="none" stroke="black" d="M984.77,-681.95C1076.44,-682.25 1232.97,-679.17 1284.86,-656 1328.48,-636.52 1330.84,-617.33 1361.86,-581 1388.37,-549.96 1380.07,-527.34 1414.86,-506 1435.92,-493.09 1447.9,-509.31 1469.86,-498 1480.37,-492.59 1489.84,-483.82 1497.41,-475.25"/>
<polygon fill="black" stroke="black" points="1499.96,-477.66 1503.62,-467.71 1494.56,-473.21 1499.96,-477.66"/>
</g>
<!-- event::emit_event -->
<g id="node10" class="node">
<title>event::emit_event</title>
<ellipse fill="none" stroke="black" cx="923.86" cy="-532" rx="50.09" ry="18"/>
<text text-anchor="middle" x="923.86" y="-528.3" font-family="Times,serif" font-size="14.00">emit_event</text>
</g>
<!-- burn_by_creator&#45;&gt;event::emit_event -->
<g id="edge9" class="edge">
<title>burn_by_creator&#45;&gt;event::emit_event</title>
<path fill="none" stroke="black" d="M916.8,-663.73C918.15,-638.67 920.68,-591.9 922.31,-561.63"/>
<polygon fill="black" stroke="black" points="925.81,-561.84 922.85,-551.67 918.82,-561.46 925.81,-561.84"/>
</g>
<!-- property_map::contains_key -->
<g id="node11" class="node">
<title>property_map::contains_key</title>
<ellipse fill="none" stroke="black" cx="603.86" cy="-366" rx="57.39" ry="18"/>
<text text-anchor="middle" x="603.86" y="-362.3" font-family="Times,serif" font-size="14.00">contains_key</text>
</g>
<!-- burn_by_creator&#45;&gt;property_map::contains_key -->
<g id="edge10" class="edge">
<title>burn_by_creator&#45;&gt;property_map::contains_key</title>
<path fill="none" stroke="black" d="M847.82,-678.86C774.81,-675.91 663.92,-669.36 623.86,-656 564.2,-636.1 534.35,-636.01 503.86,-581 466.93,-514.36 536.27,-431.74 577.08,-391.43"/>
<polygon fill="black" stroke="black" points="579.46,-394 584.22,-384.54 574.6,-388.96 579.46,-394"/>
</g>
<!-- property_map::read_bool -->
<g id="node12" class="node">
<title>property_map::read_bool</title>
<ellipse fill="none" stroke="black" cx="558.86" cy="-532" rx="46.29" ry="18"/>
<text text-anchor="middle" x="558.86" y="-528.3" font-family="Times,serif" font-size="14.00">read_bool</text>
</g>
<!-- burn_by_creator&#45;&gt;property_map::read_bool -->
<g id="edge11" class="edge">
<title>burn_by_creator&#45;&gt;property_map::read_bool</title>
<path fill="none" stroke="black" d="M862.74,-670.17C800.26,-655.94 694.81,-627.2 613.86,-581 602.52,-574.53 591.39,-565.48 582.15,-556.99"/>
<polygon fill="black" stroke="black" points="584.66,-554.55 575.01,-550.17 579.82,-559.61 584.66,-554.55"/>
</g>
<!-- create_token_id_raw -->
<g id="node13" class="node">
<title>create_token_id_raw</title>
<ellipse fill="none" stroke="black" cx="333.86" cy="-607" rx="84.49" ry="18"/>
<text text-anchor="middle" x="333.86" y="-603.3" font-family="Times,serif" font-size="14.00">create_token_id_raw</text>
</g>
<!-- burn_by_creator&#45;&gt;create_token_id_raw -->
<g id="edge12" class="edge">
<title>burn_by_creator&#45;&gt;create_token_id_raw</title>
<path fill="none" stroke="black" d="M847,-680.8C732.76,-679.9 509.1,-675.6 432.86,-656 411.11,-650.41 388.46,-639.83 370.32,-630.02"/>
<polygon fill="black" stroke="black" points="372.23,-627.08 361.79,-625.27 368.82,-633.2 372.23,-627.08"/>
</g>
<!-- destroy_collection_data -->
<g id="node14" class="node">
<title>destroy_collection_data</title>
<ellipse fill="none" stroke="black" cx="1847.86" cy="-607" rx="94.78" ry="18"/>
<text text-anchor="middle" x="1847.86" y="-603.3" font-family="Times,serif" font-size="14.00">destroy_collection_data</text>
</g>
<!-- burn_by_creator&#45;&gt;destroy_collection_data -->
<g id="edge13" class="edge">
<title>burn_by_creator&#45;&gt;destroy_collection_data</title>
<path fill="none" stroke="black" d="M984.6,-680.5C1169.96,-678.93 1671.07,-673.14 1743.86,-656 1766.89,-650.58 1790.97,-639.83 1810.16,-629.87"/>
<polygon fill="black" stroke="black" points="1811.78,-632.98 1818.94,-625.18 1808.48,-626.81 1811.78,-632.98"/>
</g>
<!-- destroy_token_data -->
<g id="node15" class="node">
<title>destroy_token_data</title>
<ellipse fill="none" stroke="black" cx="1655.86" cy="-607" rx="79.09" ry="18"/>
<text text-anchor="middle" x="1655.86" y="-603.3" font-family="Times,serif" font-size="14.00">destroy_token_data</text>
</g>
<!-- burn_by_creator&#45;&gt;destroy_token_data -->
<g id="edge14" class="edge">
<title>burn_by_creator&#45;&gt;destroy_token_data</title>
<path fill="none" stroke="black" d="M984.71,-680.26C1141.84,-678.29 1517.59,-671.97 1572.86,-656 1591.23,-650.7 1609.82,-640.49 1624.74,-630.85"/>
<polygon fill="black" stroke="black" points="1626.36,-633.97 1632.71,-625.5 1622.46,-628.16 1626.36,-633.97"/>
</g>
<!-- withdraw_with_event_internal -->
<g id="node16" class="node">
<title>withdraw_with_event_internal</title>
<ellipse fill="none" stroke="black" cx="1061.86" cy="-607" rx="118.08" ry="18"/>
<text text-anchor="middle" x="1061.86" y="-603.3" font-family="Times,serif" font-size="14.00">withdraw_with_event_internal</text>
</g>
<!-- burn_by_creator&#45;&gt;withdraw_with_event_internal -->
<g id="edge15" class="edge">
<title>burn_by_creator&#45;&gt;withdraw_with_event_internal</title>
<path fill="none" stroke="black" d="M946.82,-665.52C967.58,-655.14 995.23,-641.32 1018.21,-629.83"/>
<polygon fill="black" stroke="black" points="1019.67,-633.01 1027.05,-625.41 1016.54,-626.75 1019.67,-633.01"/>
</g>
<!-- string::internal_check_utf8 -->
<g id="node17" class="node">
<title>string::internal_check_utf8</title>
<ellipse fill="none" stroke="black" cx="114.86" cy="-366" rx="81.49" ry="18"/>
<text text-anchor="middle" x="114.86" y="-362.3" font-family="Times,serif" font-size="14.00">internal_check_utf8</text>
</g>
<!-- string::utf8&#45;&gt;string::internal_check_utf8 -->
<g id="edge16" class="edge">
<title>string::utf8&#45;&gt;string::internal_check_utf8</title>
<path fill="none" stroke="black" d="M158.19,-432C150.85,-420.97 140.91,-406.08 132.41,-393.32"/>
<polygon fill="black" stroke="black" points="135.55,-391.73 127.09,-385.35 129.73,-395.61 135.55,-391.73"/>
</g>
<!-- signer::borrow_address -->
<g id="node18" class="node">
<title>signer::borrow_address</title>
<ellipse fill="none" stroke="black" cx="1493.86" cy="-532" rx="66.89" ry="18"/>
<text text-anchor="middle" x="1493.86" y="-528.3" font-family="Times,serif" font-size="14.00">borrow_address</text>
</g>
<!-- signer::address_of&#45;&gt;signer::borrow_address -->
<g id="edge17" class="edge">
<title>signer::address_of&#45;&gt;signer::borrow_address</title>
<path fill="none" stroke="black" d="M1486.99,-588.7C1487.98,-580.67 1489.19,-570.9 1490.31,-561.8"/>
<polygon fill="black" stroke="black" points="1493.78,-562.28 1491.53,-551.93 1486.83,-561.43 1493.78,-562.28"/>
</g>
<!-- error::canonical -->
<g id="node19" class="node">
<title>error::canonical</title>
<ellipse fill="none" stroke="black" cx="410.86" cy="-200" rx="44.39" ry="18"/>
<text text-anchor="middle" x="410.86" y="-196.3" font-family="Times,serif" font-size="14.00">canonical</text>
</g>
<!-- error::invalid_argument&#45;&gt;error::canonical -->
<g id="edge18" class="edge">
<title>error::invalid_argument&#45;&gt;error::canonical</title>
<path fill="none" stroke="black" d="M465.56,-265.22C455.97,-253.96 443.16,-238.92 432.35,-226.22"/>
<polygon fill="black" stroke="black" points="435.03,-223.98 425.89,-218.64 429.71,-228.52 435.03,-223.98"/>
</g>
<!-- error::not_found&#45;&gt;error::canonical -->
<g id="edge19" class="edge">
<title>error::not_found&#45;&gt;error::canonical</title>
<path fill="none" stroke="black" d="M355.82,-265.61C365.55,-254.19 378.7,-238.75 389.71,-225.83"/>
<polygon fill="black" stroke="black" points="392.12,-228.4 395.94,-218.52 386.79,-223.86 392.12,-228.4"/>
</g>
<!-- error::permission_denied&#45;&gt;error::canonical -->
<g id="edge20" class="edge">
<title>error::permission_denied&#45;&gt;error::canonical</title>
<path fill="none" stroke="black" d="M238.56,-267.14C275.38,-253.01 330.63,-231.8 368.59,-217.23"/>
<polygon fill="black" stroke="black" points="369.79,-220.51 377.87,-213.66 367.28,-213.98 369.79,-220.51"/>
</g>
<!-- table::contains_box -->
<g id="node20" class="node">
<title>table::contains_box</title>
<ellipse fill="none" stroke="black" cx="1345.86" cy="-366" rx="57.69" ry="18"/>
<text text-anchor="middle" x="1345.86" y="-362.3" font-family="Times,serif" font-size="14.00">contains_box</text>
</g>
<!-- table::contains&#45;&gt;table::contains_box -->
<g id="edge21" class="edge">
<title>table::contains&#45;&gt;table::contains_box</title>
<path fill="none" stroke="black" d="M1303.84,-431.22C1310.97,-420.32 1320.42,-405.89 1328.54,-393.47"/>
<polygon fill="black" stroke="black" points="1331.34,-395.59 1333.88,-385.31 1325.48,-391.76 1331.34,-395.59"/>
</g>
<!-- table::borrow_box_mut -->
<g id="node21" class="node">
<title>table::borrow_box_mut</title>
<ellipse fill="none" stroke="black" cx="1493.86" cy="-366" rx="72.29" ry="18"/>
<text text-anchor="middle" x="1493.86" y="-362.3" font-family="Times,serif" font-size="14.00">borrow_box_mut</text>
</g>
<!-- table::borrow_mut&#45;&gt;table::borrow_box_mut -->
<g id="edge22" class="edge">
<title>table::borrow_mut&#45;&gt;table::borrow_box_mut</title>
<path fill="none" stroke="black" d="M1423.67,-431.61C1436.23,-420.05 1453.27,-404.37 1467.41,-391.35"/>
<polygon fill="black" stroke="black" points="1469.68,-394.02 1474.66,-384.67 1464.94,-388.87 1469.68,-394.02"/>
</g>
<!-- table::remove_box -->
<g id="node22" class="node">
<title>table::remove_box</title>
<ellipse fill="none" stroke="black" cx="1638.86" cy="-366" rx="55.49" ry="18"/>
<text text-anchor="middle" x="1638.86" y="-362.3" font-family="Times,serif" font-size="14.00">remove_box</text>
</g>
<!-- table::remove&#45;&gt;table::remove_box -->
<g id="edge23" class="edge">
<title>table::remove&#45;&gt;table::remove_box</title>
<path fill="none" stroke="black" d="M1540.69,-435.07C1551.4,-429.25 1563.94,-422.1 1574.86,-415 1586.66,-407.33 1599.14,-398.21 1609.92,-389.99"/>
<polygon fill="black" stroke="black" points="1611.92,-392.87 1617.7,-383.99 1607.64,-387.33 1611.92,-392.87"/>
</g>
<!-- bcs::to_bytes -->
<g id="node23" class="node">
<title>bcs::to_bytes</title>
<ellipse fill="none" stroke="black" cx="1320.86" cy="-117" rx="40.09" ry="18"/>
<text text-anchor="middle" x="1320.86" y="-113.3" font-family="Times,serif" font-size="14.00">to_bytes</text>
</g>
<!-- event::emit_event&#45;&gt;bcs::to_bytes -->
<g id="edge24" class="edge">
<title>event::emit_event&#45;&gt;bcs::to_bytes</title>
<path fill="none" stroke="black" d="M956.55,-517.97C969.66,-512.35 984.74,-505.38 997.86,-498 1054.38,-466.21 1076.86,-465.24 1117.86,-415 1140.78,-386.92 1127.62,-368.62 1149.86,-340 1190.72,-287.43 1228.68,-302.09 1268.86,-249 1292.51,-217.76 1306.92,-174.35 1314.39,-146.21"/>
<polygon fill="black" stroke="black" points="1317.76,-147.19 1316.81,-136.64 1310.97,-145.48 1317.76,-147.19"/>
</g>
<!-- event::write_to_event_store -->
<g id="node24" class="node">
<title>event::write_to_event_store</title>
<ellipse fill="none" stroke="black" cx="903.86" cy="-449" rx="85.29" ry="18"/>
<text text-anchor="middle" x="903.86" y="-445.3" font-family="Times,serif" font-size="14.00">write_to_event_store</text>
</g>
<!-- event::emit_event&#45;&gt;event::write_to_event_store -->
<g id="edge25" class="edge">
<title>event::emit_event&#45;&gt;event::write_to_event_store</title>
<path fill="none" stroke="black" d="M919.62,-513.82C917.09,-503.58 913.82,-490.33 910.91,-478.55"/>
<polygon fill="black" stroke="black" points="914.32,-477.77 908.53,-468.9 907.53,-479.45 914.32,-477.77"/>
</g>
<!-- simple_map::contains_key -->
<g id="node25" class="node">
<title>simple_map::contains_key</title>
<ellipse fill="none" stroke="black" cx="966.86" cy="-366" rx="57.39" ry="18"/>
<text text-anchor="middle" x="966.86" y="-362.3" font-family="Times,serif" font-size="14.00">contains_key</text>
</g>
<!-- property_map::contains_key&#45;&gt;simple_map::contains_key -->
<g id="edge26" class="edge">
<title>property_map::contains_key&#45;&gt;simple_map::contains_key</title>
<path fill="none" stroke="black" d="M643.95,-379.15C686.17,-392.26 754.86,-411.49 815.86,-419 832.4,-421.04 874.56,-422.46 890.86,-419 909.97,-414.95 928.04,-402.82 941.77,-391.18"/>
<polygon fill="black" stroke="black" points="943.89,-393.99 949,-384.71 939.22,-388.77 943.89,-393.99"/>
</g>
<!-- property_map::read_bool&#45;&gt;string::utf8 -->
<g id="edge27" class="edge">
<title>property_map::read_bool&#45;&gt;string::utf8</title>
<path fill="none" stroke="black" d="M518.51,-522.88C492.65,-517.78 458.33,-511.2 427.86,-506 404.38,-501.99 398.26,-502.48 374.86,-498 314.83,-486.49 245.77,-469.66 204.8,-459.29"/>
<polygon fill="black" stroke="black" points="205.8,-455.93 195.24,-456.85 204.07,-462.71 205.8,-455.93"/>
</g>
<!-- error::invalid_state -->
<g id="node26" class="node">
<title>error::invalid_state</title>
<ellipse fill="none" stroke="black" cx="626.86" cy="-283" rx="55.79" ry="18"/>
<text text-anchor="middle" x="626.86" y="-279.3" font-family="Times,serif" font-size="14.00">invalid_state</text>
</g>
<!-- property_map::read_bool&#45;&gt;error::invalid_state -->
<g id="edge28" class="edge">
<title>property_map::read_bool&#45;&gt;error::invalid_state</title>
<path fill="none" stroke="black" d="M586.4,-517.17C595.04,-513.18 604.72,-509.09 613.86,-506 628.98,-500.89 637.45,-509.15 648.86,-498 699.53,-448.49 692.64,-407.08 669.86,-340 666.02,-328.68 658.87,-317.86 651.48,-308.8"/>
<polygon fill="black" stroke="black" points="654.34,-306.76 645.13,-301.52 649.06,-311.36 654.34,-306.76"/>
</g>
<!-- from_bcs::to_bool -->
<g id="node27" class="node">
<title>from_bcs::to_bool</title>
<ellipse fill="none" stroke="black" cx="442.86" cy="-449" rx="37.89" ry="18"/>
<text text-anchor="middle" x="442.86" y="-445.3" font-family="Times,serif" font-size="14.00">to_bool</text>
</g>
<!-- property_map::read_bool&#45;&gt;from_bcs::to_bool -->
<g id="edge29" class="edge">
<title>property_map::read_bool&#45;&gt;from_bcs::to_bool</title>
<path fill="none" stroke="black" d="M532,-516.99C521.99,-511.45 510.68,-504.78 500.86,-498 489.83,-490.38 478.32,-481.16 468.5,-472.84"/>
<polygon fill="black" stroke="black" points="471.01,-470.39 461.15,-466.52 466.45,-475.7 471.01,-470.39"/>
</g>
<!-- property_map::borrow -->
<g id="node28" class="node">
<title>property_map::borrow</title>
<ellipse fill="none" stroke="black" cx="603.86" cy="-449" rx="36.29" ry="18"/>
<text text-anchor="middle" x="603.86" y="-445.3" font-family="Times,serif" font-size="14.00">borrow</text>
</g>
<!-- property_map::read_bool&#45;&gt;property_map::borrow -->
<g id="edge30" class="edge">
<title>property_map::read_bool&#45;&gt;property_map::borrow</title>
<path fill="none" stroke="black" d="M568.19,-514.22C574.22,-503.36 582.2,-488.98 589.09,-476.59"/>
<polygon fill="black" stroke="black" points="592.02,-478.53 593.81,-468.08 585.9,-475.13 592.02,-478.53"/>
</g>
<!-- create_token_data_id -->
<g id="node29" class="node">
<title>create_token_data_id</title>
<ellipse fill="none" stroke="black" cx="332.86" cy="-532" rx="85.59" ry="18"/>
<text text-anchor="middle" x="332.86" y="-528.3" font-family="Times,serif" font-size="14.00">create_token_data_id</text>
</g>
<!-- create_token_id_raw&#45;&gt;create_token_data_id -->
<g id="edge31" class="edge">
<title>create_token_id_raw&#45;&gt;create_token_data_id</title>
<path fill="none" stroke="black" d="M333.62,-588.7C333.51,-580.67 333.38,-570.9 333.26,-561.8"/>
<polygon fill="black" stroke="black" points="336.76,-561.89 333.12,-551.94 329.76,-561.99 336.76,-561.89"/>
</g>
<!-- withdraw_with_event_internal&#45;&gt;error::invalid_argument -->
<g id="edge32" class="edge">
<title>withdraw_with_event_internal&#45;&gt;error::invalid_argument</title>
<path fill="none" stroke="black" d="M943.81,-605.72C888.02,-603.37 828.88,-596.95 806.86,-581 712.11,-512.34 796.98,-406.74 700.86,-340 675.45,-322.35 591.48,-340.95 561.86,-332 543.73,-326.52 525.36,-316.3 510.62,-306.69"/>
<polygon fill="black" stroke="black" points="512.99,-304.07 502.75,-301.37 509.07,-309.87 512.99,-304.07"/>
</g>
<!-- withdraw_with_event_internal&#45;&gt;error::not_found -->
<g id="edge33" class="edge">
<title>withdraw_with_event_internal&#45;&gt;error::not_found</title>
<path fill="none" stroke="black" d="M1062.05,-588.5C1061.4,-550.98 1053.98,-462.97 1000.86,-423 983.62,-410.03 827.28,-421.96 806.86,-415 752.24,-396.38 755.62,-358.21 700.86,-340 668.9,-329.37 429.29,-344.1 397.86,-332 385.05,-327.07 373.15,-317.85 363.65,-308.8"/>
<polygon fill="black" stroke="black" points="366.2,-306.41 356.69,-301.75 361.22,-311.33 366.2,-306.41"/>
</g>
<!-- withdraw_with_event_internal&#45;&gt;table::contains -->
<g id="edge34" class="edge">
<title>withdraw_with_event_internal&#45;&gt;table::contains</title>
<path fill="none" stroke="black" d="M1148.75,-594.48C1166.66,-590.86 1182.36,-586.37 1189.86,-581 1221.1,-558.63 1207.87,-535.18 1232.86,-506 1236.56,-501.68 1238.58,-501.75 1242.86,-498 1251.59,-490.35 1260.84,-481.64 1268.98,-473.77"/>
<polygon fill="black" stroke="black" points="1271.21,-476.49 1275.91,-467 1266.31,-471.48 1271.21,-476.49"/>
</g>
<!-- withdraw_with_event_internal&#45;&gt;table::borrow_mut -->
<g id="edge35" class="edge">
<title>withdraw_with_event_internal&#45;&gt;table::borrow_mut</title>
<path fill="none" stroke="black" d="M1167.98,-598.79C1187.5,-594.96 1207.25,-589.3 1224.86,-581 1270.13,-559.66 1264.55,-529.26 1308.86,-506 1322.22,-498.99 1328.21,-504.44 1341.86,-498 1355.21,-491.71 1368.5,-482.37 1379.49,-473.6"/>
<polygon fill="black" stroke="black" points="1381.49,-476.48 1386.95,-467.41 1377.02,-471.09 1381.49,-476.48"/>
</g>
<!-- withdraw_with_event_internal&#45;&gt;table::remove -->
<g id="edge36" class="edge">
<title>withdraw_with_event_internal&#45;&gt;table::remove</title>
<path fill="none" stroke="black" d="M1168.43,-598.91C1213.46,-594.87 1260.21,-588.99 1280.86,-581 1334.01,-560.43 1331.51,-526.04 1384.86,-506 1420.38,-492.66 1435.7,-514.51 1469.86,-498 1480.66,-492.78 1490.27,-483.89 1497.88,-475.17"/>
<polygon fill="black" stroke="black" points="1500.53,-477.46 1504.1,-467.48 1495.09,-473.06 1500.53,-477.46"/>
</g>
<!-- withdraw_with_event_internal&#45;&gt;event::emit_event -->
<g id="edge37" class="edge">
<title>withdraw_with_event_internal&#45;&gt;event::emit_event</title>
<path fill="none" stroke="black" d="M1030.2,-589.25C1009.69,-578.4 982.87,-564.21 961.3,-552.8"/>
<polygon fill="black" stroke="black" points="962.99,-549.74 952.52,-548.16 959.72,-555.93 962.99,-549.74"/>
</g>
<!-- property_map::empty -->
<g id="node30" class="node">
<title>property_map::empty</title>
<ellipse fill="none" stroke="black" cx="655.86" cy="-532" rx="33.29" ry="18"/>
<text text-anchor="middle" x="655.86" y="-528.3" font-family="Times,serif" font-size="14.00">empty</text>
</g>
<!-- withdraw_with_event_internal&#45;&gt;property_map::empty -->
<g id="edge38" class="edge">
<title>withdraw_with_event_internal&#45;&gt;property_map::empty</title>
<path fill="none" stroke="black" d="M947.64,-602.1C850.99,-598.13 724.77,-591.12 702.86,-581 691.74,-575.86 681.84,-566.87 674.02,-558.04"/>
<polygon fill="black" stroke="black" points="676.95,-556.09 667.9,-550.59 671.54,-560.53 676.95,-556.09"/>
</g>
<!-- balance_of -->
<g id="node31" class="node">
<title>balance_of</title>
<ellipse fill="none" stroke="black" cx="1131.86" cy="-532" rx="49.29" ry="18"/>
<text text-anchor="middle" x="1131.86" y="-528.3" font-family="Times,serif" font-size="14.00">balance_of</text>
</g>
<!-- withdraw_with_event_internal&#45;&gt;balance_of -->
<g id="edge39" class="edge">
<title>withdraw_with_event_internal&#45;&gt;balance_of</title>
<path fill="none" stroke="black" d="M1078.45,-588.7C1087.42,-579.35 1098.65,-567.64 1108.49,-557.37"/>
<polygon fill="black" stroke="black" points="1110.91,-559.91 1115.3,-550.27 1105.86,-555.06 1110.91,-559.91"/>
</g>
<!-- option::is_some -->
<g id="node32" class="node">
<title>option::is_some</title>
<ellipse fill="none" stroke="black" cx="816.86" cy="-117" rx="40.09" ry="18"/>
<text text-anchor="middle" x="816.86" y="-113.3" font-family="Times,serif" font-size="14.00">is_some</text>
</g>
<!-- simple_map::contains_key&#45;&gt;option::is_some -->
<g id="edge40" class="edge">
<title>simple_map::contains_key&#45;&gt;option::is_some</title>
<path fill="none" stroke="black" d="M934.1,-350.77C882.53,-327.62 786.34,-281.16 767.86,-249 751.26,-220.1 756.14,-205.2 767.86,-174 772.49,-161.69 781.19,-150.31 789.99,-141.07"/>
<polygon fill="black" stroke="black" points="792.22,-143.78 796.9,-134.28 787.31,-138.79 792.22,-143.78"/>
</g>
<!-- simple_map::find -->
<g id="node33" class="node">
<title>simple_map::find</title>
<ellipse fill="none" stroke="black" cx="966.86" cy="-283" rx="27" ry="18"/>
<text text-anchor="middle" x="966.86" y="-279.3" font-family="Times,serif" font-size="14.00">find</text>
</g>
<!-- simple_map::contains_key&#45;&gt;simple_map::find -->
<g id="edge41" class="edge">
<title>simple_map::contains_key&#45;&gt;simple_map::find</title>
<path fill="none" stroke="black" d="M966.86,-347.82C966.86,-337.69 966.86,-324.6 966.86,-312.92"/>
<polygon fill="black" stroke="black" points="970.36,-312.95 966.86,-302.95 963.36,-312.95 970.36,-312.95"/>
</g>
<!-- error::invalid_state&#45;&gt;error::canonical -->
<g id="edge42" class="edge">
<title>error::invalid_state&#45;&gt;error::canonical</title>
<path fill="none" stroke="black" d="M592.15,-268.56C582.36,-264.79 571.7,-260.72 561.86,-257 525.4,-243.23 483.88,-227.85 453.62,-216.7"/>
<polygon fill="black" stroke="black" points="455.02,-213.49 444.43,-213.32 452.61,-220.06 455.02,-213.49"/>
</g>
<!-- from_bcs::from_bytes -->
<g id="node34" class="node">
<title>from_bcs::from_bytes</title>
<ellipse fill="none" stroke="black" cx="437.86" cy="-366" rx="51.19" ry="18"/>
<text text-anchor="middle" x="437.86" y="-362.3" font-family="Times,serif" font-size="14.00">from_bytes</text>
</g>
<!-- from_bcs::to_bool&#45;&gt;from_bcs::from_bytes -->
<g id="edge43" class="edge">
<title>from_bcs::to_bool&#45;&gt;from_bcs::from_bytes</title>
<path fill="none" stroke="black" d="M441.8,-430.82C441.18,-420.69 440.37,-407.6 439.65,-395.92"/>
<polygon fill="black" stroke="black" points="443.14,-395.71 439.03,-385.94 436.15,-396.14 443.14,-395.71"/>
</g>
<!-- property_map::borrow&#45;&gt;property_map::contains_key -->
<g id="edge45" class="edge">
<title>property_map::borrow&#45;&gt;property_map::contains_key</title>
<path fill="none" stroke="black" d="M603.86,-430.82C603.86,-420.69 603.86,-407.6 603.86,-395.92"/>
<polygon fill="black" stroke="black" points="607.36,-395.95 603.86,-385.95 600.36,-395.95 607.36,-395.95"/>
</g>
<!-- simple_map::borrow -->
<g id="node35" class="node">
<title>simple_map::borrow</title>
<ellipse fill="none" stroke="black" cx="854.86" cy="-366" rx="36.29" ry="18"/>
<text text-anchor="middle" x="854.86" y="-362.3" font-family="Times,serif" font-size="14.00">borrow</text>
</g>
<!-- property_map::borrow&#45;&gt;simple_map::borrow -->
<g id="edge44" class="edge">
<title>property_map::borrow&#45;&gt;simple_map::borrow</title>
<path fill="none" stroke="black" d="M633.64,-438.39C678.55,-423.9 763.73,-396.41 814.28,-380.1"/>
<polygon fill="black" stroke="black" points="815.24,-383.46 823.68,-377.06 813.09,-376.8 815.24,-383.46"/>
</g>
<!-- create_token_data_id&#45;&gt;error::invalid_argument -->
<g id="edge47" class="edge">
<title>create_token_data_id&#45;&gt;error::invalid_argument</title>
<path fill="none" stroke="black" d="M327.66,-513.78C317.63,-476.68 300.3,-388.62 344.86,-340 352.91,-331.22 386.63,-335.97 397.86,-332 415.3,-325.84 433.19,-315.86 447.8,-306.6"/>
<polygon fill="black" stroke="black" points="449.62,-309.59 456.07,-301.19 445.79,-303.74 449.62,-309.59"/>
</g>
<!-- string::length -->
<g id="node36" class="node">
<title>string::length</title>
<ellipse fill="none" stroke="black" cx="91.86" cy="-449" rx="32.49" ry="18"/>
<text text-anchor="middle" x="91.86" y="-445.3" font-family="Times,serif" font-size="14.00">length</text>
</g>
<!-- create_token_data_id&#45;&gt;string::length -->
<g id="edge46" class="edge">
<title>create_token_data_id&#45;&gt;string::length</title>
<path fill="none" stroke="black" d="M255.96,-523.8C208.85,-518.34 153.7,-509.76 132.86,-498 123.29,-492.6 114.93,-484.07 108.3,-475.68"/>
<polygon fill="black" stroke="black" points="111.18,-473.7 102.46,-467.68 105.52,-477.82 111.18,-473.7"/>
</g>
<!-- simple_map::create -->
<g id="node37" class="node">
<title>simple_map::create</title>
<ellipse fill="none" stroke="black" cx="1073.86" cy="-366" rx="31.7" ry="18"/>
<text text-anchor="middle" x="1073.86" y="-362.3" font-family="Times,serif" font-size="14.00">create</text>
</g>
<!-- property_map::empty&#45;&gt;simple_map::create -->
<g id="edge48" class="edge">
<title>property_map::empty&#45;&gt;simple_map::create</title>
<path fill="none" stroke="black" d="M688.64,-528.02C712.57,-524.35 744.6,-516.19 766.86,-498 796.12,-474.1 774.82,-443.01 806.86,-423 828.18,-409.69 1010.23,-425.92 1032.86,-415 1043.01,-410.1 1051.62,-401.4 1058.29,-392.73"/>
<polygon fill="black" stroke="black" points="1061,-394.96 1063.88,-384.77 1055.27,-390.94 1061,-394.96"/>
</g>
<!-- balance_of&#45;&gt;table::contains -->
<g id="edge49" class="edge">
<title>balance_of&#45;&gt;table::contains</title>
<path fill="none" stroke="black" d="M1162.17,-517.46C1172.4,-513.3 1183.98,-509.03 1194.86,-506 1215.7,-500.2 1223.53,-507.7 1242.86,-498 1253.99,-492.41 1264.3,-483.5 1272.62,-474.86"/>
<polygon fill="black" stroke="black" points="1275.11,-477.33 1279.23,-467.57 1269.92,-472.63 1275.11,-477.33"/>
</g>
<!-- table::borrow -->
<g id="node38" class="node">
<title>table::borrow</title>
<ellipse fill="none" stroke="black" cx="1197.86" cy="-449" rx="36.29" ry="18"/>
<text text-anchor="middle" x="1197.86" y="-445.3" font-family="Times,serif" font-size="14.00">borrow</text>
</g>
<!-- balance_of&#45;&gt;table::borrow -->
<g id="edge50" class="edge">
<title>balance_of&#45;&gt;table::borrow</title>
<path fill="none" stroke="black" d="M1145.54,-514.22C1154.77,-502.88 1167.13,-487.72 1177.51,-474.97"/>
<polygon fill="black" stroke="black" points="1180.09,-477.35 1183.7,-467.38 1174.67,-472.92 1180.09,-477.35"/>
</g>
<!-- vector::is_empty -->
<g id="node39" class="node">
<title>vector::is_empty</title>
<ellipse fill="none" stroke="black" cx="827.86" cy="-34" rx="43.59" ry="18"/>
<text text-anchor="middle" x="827.86" y="-30.3" font-family="Times,serif" font-size="14.00">is_empty</text>
</g>
<!-- option::is_some&#45;&gt;vector::is_empty -->
<g id="edge51" class="edge">
<title>option::is_some&#45;&gt;vector::is_empty</title>
<path fill="none" stroke="black" d="M819.19,-98.82C820.59,-88.58 822.39,-75.33 823.98,-63.55"/>
<polygon fill="black" stroke="black" points="827.41,-64.31 825.29,-53.93 820.48,-63.37 827.41,-64.31"/>
</g>
<!-- option::none -->
<g id="node40" class="node">
<title>option::none</title>
<ellipse fill="none" stroke="black" cx="890.86" cy="-200" rx="27.9" ry="18"/>
<text text-anchor="middle" x="890.86" y="-196.3" font-family="Times,serif" font-size="14.00">none</text>
</g>
<!-- simple_map::find&#45;&gt;option::none -->
<g id="edge52" class="edge">
<title>simple_map::find&#45;&gt;option::none</title>
<path fill="none" stroke="black" d="M949.85,-268.93C942.75,-263.14 934.6,-256.05 927.86,-249 921.12,-241.94 914.4,-233.69 908.57,-226.04"/>
<polygon fill="black" stroke="black" points="911.4,-223.98 902.64,-218.02 905.78,-228.14 911.4,-223.98"/>
</g>
<!-- option::some -->
<g id="node41" class="node">
<title>option::some</title>
<ellipse fill="none" stroke="black" cx="966.86" cy="-200" rx="29.8" ry="18"/>
<text text-anchor="middle" x="966.86" y="-196.3" font-family="Times,serif" font-size="14.00">some</text>
</g>
<!-- simple_map::find&#45;&gt;option::some -->
<g id="edge53" class="edge">
<title>simple_map::find&#45;&gt;option::some</title>
<path fill="none" stroke="black" d="M966.86,-264.82C966.86,-254.69 966.86,-241.6 966.86,-229.92"/>
<polygon fill="black" stroke="black" points="970.36,-229.95 966.86,-219.95 963.36,-229.95 970.36,-229.95"/>
</g>
<!-- comparator::compare -->
<g id="node42" class="node">
<title>comparator::compare</title>
<ellipse fill="none" stroke="black" cx="1062.86" cy="-200" rx="41.69" ry="18"/>
<text text-anchor="middle" x="1062.86" y="-196.3" font-family="Times,serif" font-size="14.00">compare</text>
</g>
<!-- simple_map::find&#45;&gt;comparator::compare -->
<g id="edge54" class="edge">
<title>simple_map::find&#45;&gt;comparator::compare</title>
<path fill="none" stroke="black" d="M984.22,-268.75C991.86,-262.81 1000.89,-255.66 1008.86,-249 1018.24,-241.16 1028.31,-232.32 1037.18,-224.4"/>
<polygon fill="black" stroke="black" points="1039.37,-227.14 1044.46,-217.85 1034.69,-221.93 1039.37,-227.14"/>
</g>
<!-- comparator::is_smaller_than -->
<g id="node43" class="node">
<title>comparator::is_smaller_than</title>
<ellipse fill="none" stroke="black" cx="1189.86" cy="-200" rx="66.89" ry="18"/>
<text text-anchor="middle" x="1189.86" y="-196.3" font-family="Times,serif" font-size="14.00">is_smaller_than</text>
</g>
<!-- simple_map::find&#45;&gt;comparator::is_smaller_than -->
<g id="edge55" class="edge">
<title>simple_map::find&#45;&gt;comparator::is_smaller_than</title>
<path fill="none" stroke="black" d="M993.44,-278.82C1023.54,-274.59 1073.62,-265.64 1113.86,-249 1129.64,-242.47 1145.82,-232.76 1159.17,-223.77"/>
<polygon fill="black" stroke="black" points="1160.88,-226.84 1167.1,-218.27 1156.89,-221.09 1160.88,-226.84"/>
</g>
<!-- simple_map::borrow&#45;&gt;error::invalid_argument -->
<g id="edge58" class="edge">
<title>simple_map::borrow&#45;&gt;error::invalid_argument</title>
<path fill="none" stroke="black" d="M832.77,-351.38C824.34,-346.9 814.46,-342.43 804.86,-340 752.49,-326.72 613.77,-347 561.86,-332 543.66,-326.74 525.29,-316.54 510.56,-306.89"/>
<polygon fill="black" stroke="black" points="512.93,-304.27 502.7,-301.54 508.99,-310.06 512.93,-304.27"/>
</g>
<!-- simple_map::borrow&#45;&gt;option::is_some -->
<g id="edge57" class="edge">
<title>simple_map::borrow&#45;&gt;option::is_some</title>
<path fill="none" stroke="black" d="M832.37,-351.53C803.47,-332.75 754.66,-295.68 734.86,-249 721.85,-218.31 719.3,-203.48 734.86,-174 743.99,-156.7 761.14,-143.74 777.4,-134.67"/>
<polygon fill="black" stroke="black" points="778.72,-137.92 785.98,-130.21 775.5,-131.71 778.72,-137.92"/>
</g>
<!-- simple_map::borrow&#45;&gt;simple_map::find -->
<g id="edge59" class="edge">
<title>simple_map::borrow&#45;&gt;simple_map::find</title>
<path fill="none" stroke="black" d="M874.89,-350.52C893.05,-337.38 919.98,-317.9 940.01,-303.42"/>
<polygon fill="black" stroke="black" points="941.94,-306.34 948,-297.64 937.84,-300.67 941.94,-306.34"/>
</g>
<!-- option::extract -->
<g id="node44" class="node">
<title>option::extract</title>
<ellipse fill="none" stroke="black" cx="810.86" cy="-200" rx="34.39" ry="18"/>
<text text-anchor="middle" x="810.86" y="-196.3" font-family="Times,serif" font-size="14.00">extract</text>
</g>
<!-- simple_map::borrow&#45;&gt;option::extract -->
<g id="edge56" class="edge">
<title>simple_map::borrow&#45;&gt;option::extract</title>
<path fill="none" stroke="black" d="M850.24,-347.76C842.66,-319.51 827.53,-263.11 818.39,-229.04"/>
<polygon fill="black" stroke="black" points="821.79,-228.22 815.82,-219.47 815.03,-230.04 821.79,-228.22"/>
</g>
<!-- table::borrow_box -->
<g id="node45" class="node">
<title>table::borrow_box</title>
<ellipse fill="none" stroke="black" cx="1215.86" cy="-366" rx="53.89" ry="18"/>
<text text-anchor="middle" x="1215.86" y="-362.3" font-family="Times,serif" font-size="14.00">borrow_box</text>
</g>
<!-- table::borrow&#45;&gt;table::borrow_box -->
<g id="edge60" class="edge">
<title>table::borrow&#45;&gt;table::borrow_box</title>
<path fill="none" stroke="black" d="M1201.68,-430.82C1203.95,-420.58 1206.9,-407.33 1209.52,-395.55"/>
<polygon fill="black" stroke="black" points="1212.91,-396.43 1211.66,-385.91 1206.07,-394.91 1212.91,-396.43"/>
</g>
<!-- vector::singleton -->
<g id="node46" class="node">
<title>vector::singleton</title>
<ellipse fill="none" stroke="black" cx="931.86" cy="-34" rx="42.79" ry="18"/>
<text text-anchor="middle" x="931.86" y="-30.3" font-family="Times,serif" font-size="14.00">singleton</text>
</g>
<!-- option::some&#45;&gt;vector::singleton -->
<g id="edge61" class="edge">
<title>option::some&#45;&gt;vector::singleton</title>
<path fill="none" stroke="black" d="M963.18,-181.76C957.15,-153.51 945.12,-97.11 937.85,-63.04"/>
<polygon fill="black" stroke="black" points="941.32,-62.54 935.81,-53.49 934.47,-64 941.32,-62.54"/>
</g>
<!-- comparator::compare&#45;&gt;bcs::to_bytes -->
<g id="edge62" class="edge">
<title>comparator::compare&#45;&gt;bcs::to_bytes</title>
<path fill="none" stroke="black" d="M1086.73,-184.83C1095.04,-180.57 1104.6,-176.4 1113.86,-174 1147.25,-165.34 1237.07,-179.38 1268.86,-166 1280.88,-160.94 1291.86,-151.83 1300.61,-142.9"/>
<polygon fill="black" stroke="black" points="1303.08,-145.38 1307.25,-135.64 1297.92,-140.66 1303.08,-145.38"/>
</g>
<!-- comparator::compare_u8_vector -->
<g id="node47" class="node">
<title>comparator::compare_u8_vector</title>
<ellipse fill="none" stroke="black" cx="1101.86" cy="-117" rx="81.49" ry="18"/>
<text text-anchor="middle" x="1101.86" y="-113.3" font-family="Times,serif" font-size="14.00">compare_u8_vector</text>
</g>
<!-- comparator::compare&#45;&gt;comparator::compare_u8_vector -->
<g id="edge63" class="edge">
<title>comparator::compare&#45;&gt;comparator::compare_u8_vector</title>
<path fill="none" stroke="black" d="M1070.94,-182.22C1076.05,-171.61 1082.77,-157.65 1088.64,-145.45"/>
<polygon fill="black" stroke="black" points="1091.68,-147.21 1092.87,-136.68 1085.37,-144.18 1091.68,-147.21"/>
</g>
<!-- option::extract&#45;&gt;option::is_some -->
<g id="edge64" class="edge">
<title>option::extract&#45;&gt;option::is_some</title>
<path fill="none" stroke="black" d="M812.13,-181.82C812.89,-171.58 813.87,-158.33 814.75,-146.55"/>
<polygon fill="black" stroke="black" points="818.21,-147.17 815.46,-136.94 811.23,-146.66 818.21,-147.17"/>
</g>
</g>
</svg>
