<?xml version="1.0" encoding="UTF-8" standalone="no"?>
<!DOCTYPE svg PUBLIC "-//W3C//DTD SVG 1.1//EN"
 "http://www.w3.org/Graphics/SVG/1.1/DTD/svg11.dtd">
<!-- Generated by graphviz version 7.0.0 (20221023.0053)
 -->
<!-- Title: G Pages: 1 -->
<svg width="743pt" height="371pt"
 viewBox="0.00 0.00 742.89 371.00" xmlns="http://www.w3.org/2000/svg" xmlns:xlink="http://www.w3.org/1999/xlink">
<g id="graph0" class="graph" transform="scale(1 1) rotate(0) translate(4 367)">
<title>G</title>
<polygon fill="white" stroke="none" points="-4,4 -4,-367 738.89,-367 738.89,4 -4,4"/>
<g id="clust1" class="cluster">
<title>cluster_token_transfers</title>
<polygon fill="none" stroke="black" points="606.89,-208 606.89,-355 726.89,-355 726.89,-208 606.89,-208"/>
<text text-anchor="middle" x="666.89" y="-339.8" font-family="Times,serif" font-size="14.00">token_transfers</text>
</g>
<!-- balance_of -->
<g id="node1" class="node">
<title>balance_of</title>
<ellipse fill="none" stroke="black" cx="206.89" cy="-18" rx="49.29" ry="18"/>
<text text-anchor="middle" x="206.89" y="-14.3" font-family="Times,serif" font-size="14.00">balance_of</text>
</g>
<!-- get_property_map -->
<g id="node2" class="node">
<title>get_property_map</title>
<ellipse fill="none" stroke="black" cx="100.89" cy="-90" rx="75.29" ry="18"/>
<text text-anchor="middle" x="100.89" y="-86.3" font-family="Times,serif" font-size="14.00">get_property_map</text>
</g>
<!-- get_property_map&#45;&gt;balance_of -->
<g id="edge1" class="edge">
<title>get_property_map&#45;&gt;balance_of</title>
<path fill="none" stroke="black" d="M125.75,-72.59C140.24,-63.02 158.69,-50.83 174.33,-40.5"/>
<polygon fill="black" stroke="black" points="175.97,-43.62 182.39,-35.18 172.11,-37.77 175.97,-43.62"/>
</g>
<!-- withdraw_with_event_internal -->
<g id="node3" class="node">
<title>withdraw_with_event_internal</title>
<ellipse fill="none" stroke="black" cx="312.89" cy="-90" rx="118.08" ry="18"/>
<text text-anchor="middle" x="312.89" y="-86.3" font-family="Times,serif" font-size="14.00">withdraw_with_event_internal</text>
</g>
<!-- withdraw_with_event_internal&#45;&gt;balance_of -->
<g id="edge2" class="edge">
<title>withdraw_with_event_internal&#45;&gt;balance_of</title>
<path fill="none" stroke="black" d="M287.23,-72.05C272.96,-62.63 255.04,-50.8 239.75,-40.7"/>
<polygon fill="black" stroke="black" points="241.68,-37.78 231.41,-35.19 237.83,-43.62 241.68,-37.78"/>
</g>
<!-- burn_by_creator -->
<g id="node4" class="node">
<title>burn_by_creator</title>
<ellipse fill="none" stroke="black" cx="68.89" cy="-162" rx="68.79" ry="18"/>
<text text-anchor="middle" x="68.89" y="-158.3" font-family="Times,serif" font-size="14.00">burn_by_creator</text>
</g>
<!-- burn_by_creator&#45;&gt;withdraw_with_event_internal -->
<g id="edge3" class="edge">
<title>burn_by_creator&#45;&gt;withdraw_with_event_internal</title>
<path fill="none" stroke="black" d="M113.93,-148.08C151.6,-137.27 205.81,-121.72 248.14,-109.58"/>
<polygon fill="black" stroke="black" points="249.08,-112.95 257.73,-106.83 247.15,-106.22 249.08,-112.95"/>
</g>
<!-- mutate_one_token -->
<g id="node5" class="node">
<title>mutate_one_token</title>
<ellipse fill="none" stroke="black" cx="231.89" cy="-162" rx="76.09" ry="18"/>
<text text-anchor="middle" x="231.89" y="-158.3" font-family="Times,serif" font-size="14.00">mutate_one_token</text>
</g>
<!-- mutate_one_token&#45;&gt;withdraw_with_event_internal -->
<g id="edge4" class="edge">
<title>mutate_one_token&#45;&gt;withdraw_with_event_internal</title>
<path fill="none" stroke="black" d="M251.09,-144.41C261.06,-135.8 273.43,-125.1 284.48,-115.55"/>
<polygon fill="black" stroke="black" points="286.57,-118.38 291.84,-109.19 281.99,-113.08 286.57,-118.38"/>
</g>
<!-- withdraw_token -->
<g id="node6" class="node">
<title>withdraw_token</title>
<ellipse fill="none" stroke="black" cx="393.89" cy="-162" rx="67.69" ry="18"/>
<text text-anchor="middle" x="393.89" y="-158.3" font-family="Times,serif" font-size="14.00">withdraw_token</text>
</g>
<!-- withdraw_token&#45;&gt;withdraw_with_event_internal -->
<g id="edge5" class="edge">
<title>withdraw_token&#45;&gt;withdraw_with_event_internal</title>
<path fill="none" stroke="black" d="M374.7,-144.41C364.73,-135.8 352.36,-125.1 341.31,-115.55"/>
<polygon fill="black" stroke="black" points="343.8,-113.08 333.94,-109.19 339.22,-118.38 343.8,-113.08"/>
</g>
<!-- withdraw_with_capability -->
<g id="node7" class="node">
<title>withdraw_with_capability</title>
<ellipse fill="none" stroke="black" cx="581.89" cy="-162" rx="102.88" ry="18"/>
<text text-anchor="middle" x="581.89" y="-158.3" font-family="Times,serif" font-size="14.00">withdraw_with_capability</text>
</g>
<!-- withdraw_with_capability&#45;&gt;withdraw_with_event_internal -->
<g id="edge6" class="edge">
<title>withdraw_with_capability&#45;&gt;withdraw_with_event_internal</title>
<path fill="none" stroke="black" d="M526.16,-146.5C484.31,-135.61 426.75,-120.63 381.97,-108.98"/>
<polygon fill="black" stroke="black" points="382.91,-105.6 372.35,-106.47 381.14,-112.38 382.91,-105.6"/>
</g>
<!-- mutate_token_properties -->
<g id="node8" class="node">
<title>mutate_token_properties</title>
<ellipse fill="none" stroke="black" cx="166.89" cy="-234" rx="98.58" ry="18"/>
<text text-anchor="middle" x="166.89" y="-230.3" font-family="Times,serif" font-size="14.00">mutate_token_properties</text>
</g>
<!-- mutate_token_properties&#45;&gt;mutate_one_token -->
<g id="edge7" class="edge">
<title>mutate_token_properties&#45;&gt;mutate_one_token</title>
<path fill="none" stroke="black" d="M182.63,-216.05C190.45,-207.63 200.06,-197.28 208.71,-187.97"/>
<polygon fill="black" stroke="black" points="211.03,-190.61 215.27,-180.9 205.9,-185.84 211.03,-190.61"/>
</g>
<!-- burn -->
<g id="node9" class="node">
<title>burn</title>
<ellipse fill="none" stroke="black" cx="310.89" cy="-234" rx="27" ry="18"/>
<text text-anchor="middle" x="310.89" y="-230.3" font-family="Times,serif" font-size="14.00">burn</text>
</g>
<!-- burn&#45;&gt;withdraw_token -->
<g id="edge8" class="edge">
<title>burn&#45;&gt;withdraw_token</title>
<path fill="none" stroke="black" d="M327.29,-219.17C338.27,-209.91 353,-197.49 365.82,-186.68"/>
<polygon fill="black" stroke="black" points="367.77,-189.61 373.16,-180.49 363.26,-184.26 367.77,-189.61"/>
</g>
<!-- transfer -->
<g id="node10" class="node">
<title>transfer</title>
<ellipse fill="none" stroke="black" cx="393.89" cy="-234" rx="37.89" ry="18"/>
<text text-anchor="middle" x="393.89" y="-230.3" font-family="Times,serif" font-size="14.00">transfer</text>
</g>
<!-- transfer&#45;&gt;withdraw_token -->
<g id="edge9" class="edge">
<title>transfer&#45;&gt;withdraw_token</title>
<path fill="none" stroke="black" d="M393.89,-215.7C393.89,-208.41 393.89,-199.73 393.89,-191.54"/>
<polygon fill="black" stroke="black" points="397.39,-191.62 393.89,-181.62 390.39,-191.62 397.39,-191.62"/>
</g>
<!-- direct_transfer -->
<g id="node11" class="node">
<title>direct_transfer</title>
<ellipse fill="none" stroke="black" cx="510.89" cy="-234" rx="61.99" ry="18"/>
<text text-anchor="middle" x="510.89" y="-230.3" font-family="Times,serif" font-size="14.00">direct_transfer</text>
</g>
<!-- direct_transfer&#45;&gt;withdraw_token -->
<g id="edge10" class="edge">
<title>direct_transfer&#45;&gt;withdraw_token</title>
<path fill="none" stroke="black" d="M484.64,-217.29C468.49,-207.63 447.58,-195.12 429.91,-184.55"/>
<polygon fill="black" stroke="black" points="432.15,-181.81 421.77,-179.68 428.55,-187.81 432.15,-181.81"/>
</g>
<!-- token_transfers::offer -->
<g id="node12" class="node">
<title>token_transfers::offer</title>
<ellipse fill="none" stroke="black" cx="654.89" cy="-234" rx="27.9" ry="18"/>
<text text-anchor="middle" x="654.89" y="-230.3" font-family="Times,serif" font-size="14.00">offer</text>
</g>
<!-- token_transfers::offer&#45;&gt;withdraw_token -->
<g id="edge11" class="edge">
<title>token_transfers::offer&#45;&gt;withdraw_token</title>
<path fill="none" stroke="black" d="M631.08,-224.2C616.9,-219.13 598.49,-212.82 581.89,-208 558.3,-201.15 500.19,-187.42 454.77,-176.91"/>
<polygon fill="black" stroke="black" points="455.82,-173.56 445.29,-174.72 454.25,-180.38 455.82,-173.56"/>
</g>
<!-- transfer_with_opt_in -->
<g id="node13" class="node">
<title>transfer_with_opt_in</title>
<ellipse fill="none" stroke="black" cx="322.89" cy="-306" rx="84.49" ry="18"/>
<text text-anchor="middle" x="322.89" y="-302.3" font-family="Times,serif" font-size="14.00">transfer_with_opt_in</text>
</g>
<!-- transfer_with_opt_in&#45;&gt;transfer -->
<g id="edge12" class="edge">
<title>transfer_with_opt_in&#45;&gt;transfer</title>
<path fill="none" stroke="black" d="M340.08,-288.05C349.19,-279.08 360.51,-267.92 370.41,-258.15"/>
<polygon fill="black" stroke="black" points="372.58,-260.93 377.24,-251.42 367.66,-255.95 372.58,-260.93"/>
</g>
<!-- direct_transfer_script -->
<g id="node14" class="node">
<title>direct_transfer_script</title>
<ellipse fill="none" stroke="black" cx="510.89" cy="-306" rx="85.59" ry="18"/>
<text text-anchor="middle" x="510.89" y="-302.3" font-family="Times,serif" font-size="14.00">direct_transfer_script</text>
</g>
<!-- direct_transfer_script&#45;&gt;direct_transfer -->
<g id="edge13" class="edge">
<title>direct_transfer_script&#45;&gt;direct_transfer</title>
<path fill="none" stroke="black" d="M510.89,-287.7C510.89,-280.41 510.89,-271.73 510.89,-263.54"/>
<polygon fill="black" stroke="black" points="514.39,-263.62 510.89,-253.62 507.39,-263.62 514.39,-263.62"/>
</g>
<!-- token_transfers::offer_script -->
<g id="node15" class="node">
<title>token_transfers::offer_script</title>
<ellipse fill="none" stroke="black" cx="666.89" cy="-306" rx="51.99" ry="18"/>
<text text-anchor="middle" x="666.89" y="-302.3" font-family="Times,serif" font-size="14.00">offer_script</text>
</g>
<!-- token_transfers::offer_script&#45;&gt;token_transfers::offer -->
<g id="edge14" class="edge">
<title>token_transfers::offer_script&#45;&gt;token_transfers::offer</title>
<path fill="none" stroke="black" d="M663.93,-287.7C662.66,-280.32 661.16,-271.52 659.74,-263.25"/>
<polygon fill="black" stroke="black" points="663.22,-262.86 658.08,-253.6 656.32,-264.04 663.22,-262.86"/>
</g>
</g>
</svg>
