<?xml version="1.0" encoding="UTF-8" standalone="no"?>
<!DOCTYPE svg PUBLIC "-//W3C//DTD SVG 1.1//EN"
 "http://www.w3.org/Graphics/SVG/1.1/DTD/svg11.dtd">
<!-- Generated by graphviz version 7.0.0 (20221023.0053)
 -->
<!-- Title: G Pages: 1 -->
<svg width="931pt" height="279pt"
 viewBox="0.00 0.00 931.00 279.00" xmlns="http://www.w3.org/2000/svg" xmlns:xlink="http://www.w3.org/1999/xlink">
<g id="graph0" class="graph" transform="scale(1 1) rotate(0) translate(4 275)">
<title>G</title>
<polygon fill="white" stroke="none" points="-4,4 -4,-275 927,-275 927,4 -4,4"/>
<g id="clust1" class="cluster">
<title>cluster_error</title>
<polygon fill="none" stroke="black" points="8,-8 8,-155 455,-155 455,-8 8,-8"/>
<text text-anchor="middle" x="231.5" y="-139.8" font-family="Times,serif" font-size="14.00">error</text>
</g>
<g id="clust2" class="cluster">
<title>cluster_table</title>
<polygon fill="none" stroke="black" points="621,-8 621,-155 915,-155 915,-8 621,-8"/>
<text text-anchor="middle" x="768" y="-139.8" font-family="Times,serif" font-size="14.00">table</text>
</g>
<g id="clust3" class="cluster">
<title>cluster_signer</title>
<polygon fill="none" stroke="black" points="463,-8 463,-155 613,-155 613,-8 463,-8"/>
<text text-anchor="middle" x="538" y="-139.8" font-family="Times,serif" font-size="14.00">signer</text>
</g>
<!-- mutate_tokendata_maximum -->
<g id="node1" class="node">
<title>mutate_tokendata_maximum</title>
<ellipse fill="none" stroke="black" cx="339" cy="-253" rx="115.08" ry="18"/>
<text text-anchor="middle" x="339" y="-249.3" font-family="Times,serif" font-size="14.00">mutate_tokendata_maximum</text>
</g>
<!-- error::invalid_argument -->
<g id="node2" class="node">
<title>error::invalid_argument</title>
<ellipse fill="none" stroke="black" cx="89" cy="-106" rx="73.39" ry="18"/>
<text text-anchor="middle" x="89" y="-102.3" font-family="Times,serif" font-size="14.00">invalid_argument</text>
</g>
<!-- mutate_tokendata_maximum&#45;&gt;error::invalid_argument -->
<g id="edge1" class="edge">
<title>mutate_tokendata_maximum&#45;&gt;error::invalid_argument</title>
<path fill="none" stroke="black" d="M310.32,-235.37C264.97,-209.06 176.68,-157.85 126.41,-128.69"/>
<polygon fill="black" stroke="black" points="128.3,-125.75 117.89,-123.76 124.79,-131.8 128.3,-125.75"/>
</g>
<!-- error::permission_denied -->
<g id="node3" class="node">
<title>error::permission_denied</title>
<ellipse fill="none" stroke="black" cx="258" cy="-106" rx="77.19" ry="18"/>
<text text-anchor="middle" x="258" y="-102.3" font-family="Times,serif" font-size="14.00">permission_denied</text>
</g>
<!-- mutate_tokendata_maximum&#45;&gt;error::permission_denied -->
<g id="edge2" class="edge">
<title>mutate_tokendata_maximum&#45;&gt;error::permission_denied</title>
<path fill="none" stroke="black" d="M323.35,-234.72C314.84,-224.76 304.55,-211.72 297,-199 284.9,-178.61 274.61,-153.78 267.64,-135.05"/>
<polygon fill="black" stroke="black" points="270.95,-133.92 264.26,-125.7 264.37,-136.3 270.95,-133.92"/>
</g>
<!-- table::borrow_mut -->
<g id="node4" class="node">
<title>table::borrow_mut</title>
<ellipse fill="none" stroke="black" cx="813" cy="-106" rx="54.69" ry="18"/>
<text text-anchor="middle" x="813" y="-102.3" font-family="Times,serif" font-size="14.00">borrow_mut</text>
</g>
<!-- mutate_tokendata_maximum&#45;&gt;table::borrow_mut -->
<g id="edge3" class="edge">
<title>mutate_tokendata_maximum&#45;&gt;table::borrow_mut</title>
<path fill="none" stroke="black" d="M415.22,-239.12C494.82,-224.26 622.42,-196.41 727,-155 745,-147.87 763.89,-137.66 779.38,-128.49"/>
<polygon fill="black" stroke="black" points="780.98,-131.61 787.72,-123.44 777.35,-125.63 780.98,-131.61"/>
</g>
<!-- assert_tokendata_exists -->
<g id="node5" class="node">
<title>assert_tokendata_exists</title>
<ellipse fill="none" stroke="black" cx="400" cy="-181" rx="93.68" ry="18"/>
<text text-anchor="middle" x="400" y="-177.3" font-family="Times,serif" font-size="14.00">assert_tokendata_exists</text>
</g>
<!-- mutate_tokendata_maximum&#45;&gt;assert_tokendata_exists -->
<g id="edge4" class="edge">
<title>mutate_tokendata_maximum&#45;&gt;assert_tokendata_exists</title>
<path fill="none" stroke="black" d="M354.08,-234.7C361.17,-226.56 369.77,-216.69 377.6,-207.7"/>
<polygon fill="black" stroke="black" points="380.17,-210.08 384.1,-200.25 374.89,-205.49 380.17,-210.08"/>
</g>
<!-- error::canonical -->
<g id="node6" class="node">
<title>error::canonical</title>
<ellipse fill="none" stroke="black" cx="258" cy="-34" rx="44.39" ry="18"/>
<text text-anchor="middle" x="258" y="-30.3" font-family="Times,serif" font-size="14.00">canonical</text>
</g>
<!-- error::invalid_argument&#45;&gt;error::canonical -->
<g id="edge5" class="edge">
<title>error::invalid_argument&#45;&gt;error::canonical</title>
<path fill="none" stroke="black" d="M125.25,-89.98C152.35,-78.76 189.38,-63.42 217.46,-51.79"/>
<polygon fill="black" stroke="black" points="218.44,-55.18 226.34,-48.11 215.76,-48.71 218.44,-55.18"/>
</g>
<!-- error::permission_denied&#45;&gt;error::canonical -->
<g id="edge6" class="edge">
<title>error::permission_denied&#45;&gt;error::canonical</title>
<path fill="none" stroke="black" d="M258,-87.7C258,-80.41 258,-71.73 258,-63.54"/>
<polygon fill="black" stroke="black" points="261.5,-63.62 258,-53.62 254.5,-63.62 261.5,-63.62"/>
</g>
<!-- table::borrow_box_mut -->
<g id="node7" class="node">
<title>table::borrow_box_mut</title>
<ellipse fill="none" stroke="black" cx="835" cy="-34" rx="72.29" ry="18"/>
<text text-anchor="middle" x="835" y="-30.3" font-family="Times,serif" font-size="14.00">borrow_box_mut</text>
</g>
<!-- table::borrow_mut&#45;&gt;table::borrow_box_mut -->
<g id="edge7" class="edge">
<title>table::borrow_mut&#45;&gt;table::borrow_box_mut</title>
<path fill="none" stroke="black" d="M818.44,-87.7C820.78,-80.24 823.58,-71.32 826.21,-62.97"/>
<polygon fill="black" stroke="black" points="829.51,-64.14 829.17,-53.55 822.83,-62.04 829.51,-64.14"/>
</g>
<!-- assert_tokendata_exists&#45;&gt;error::permission_denied -->
<g id="edge10" class="edge">
<title>assert_tokendata_exists&#45;&gt;error::permission_denied</title>
<path fill="none" stroke="black" d="M363.03,-164.06C356.64,-161.14 350.09,-158.05 344,-155 327.85,-146.91 310.39,-137.32 295.45,-128.85"/>
<polygon fill="black" stroke="black" points="297.28,-125.87 286.86,-123.95 293.81,-131.95 297.28,-125.87"/>
</g>
<!-- signer::address_of -->
<g id="node8" class="node">
<title>signer::address_of</title>
<ellipse fill="none" stroke="black" cx="529" cy="-106" rx="48.99" ry="18"/>
<text text-anchor="middle" x="529" y="-102.3" font-family="Times,serif" font-size="14.00">address_of</text>
</g>
<!-- assert_tokendata_exists&#45;&gt;signer::address_of -->
<g id="edge8" class="edge">
<title>assert_tokendata_exists&#45;&gt;signer::address_of</title>
<path fill="none" stroke="black" d="M439.87,-164.4C446.37,-161.49 452.95,-158.31 459,-155 472.77,-147.46 487.2,-137.89 499.36,-129.27"/>
<polygon fill="black" stroke="black" points="501.27,-132.21 507.34,-123.52 497.18,-126.53 501.27,-132.21"/>
</g>
<!-- error::not_found -->
<g id="node9" class="node">
<title>error::not_found</title>
<ellipse fill="none" stroke="black" cx="400" cy="-106" rx="46.59" ry="18"/>
<text text-anchor="middle" x="400" y="-102.3" font-family="Times,serif" font-size="14.00">not_found</text>
</g>
<!-- assert_tokendata_exists&#45;&gt;error::not_found -->
<g id="edge9" class="edge">
<title>assert_tokendata_exists&#45;&gt;error::not_found</title>
<path fill="none" stroke="black" d="M400,-162.7C400,-154.67 400,-144.9 400,-135.8"/>
<polygon fill="black" stroke="black" points="403.5,-135.94 400,-125.94 396.5,-135.94 403.5,-135.94"/>
</g>
<!-- table::contains -->
<g id="node10" class="node">
<title>table::contains</title>
<ellipse fill="none" stroke="black" cx="678" cy="-106" rx="40.09" ry="18"/>
<text text-anchor="middle" x="678" y="-102.3" font-family="Times,serif" font-size="14.00">contains</text>
</g>
<!-- assert_tokendata_exists&#45;&gt;table::contains -->
<g id="edge11" class="edge">
<title>assert_tokendata_exists&#45;&gt;table::contains</title>
<path fill="none" stroke="black" d="M488.26,-174.71C537.75,-170.78 594.03,-164.46 617,-155 630.82,-149.31 644.12,-139.53 654.75,-130.29"/>
<polygon fill="black" stroke="black" points="656.87,-133.09 661.89,-123.76 652.15,-127.92 656.87,-133.09"/>
</g>
<!-- signer::borrow_address -->
<g id="node11" class="node">
<title>signer::borrow_address</title>
<ellipse fill="none" stroke="black" cx="538" cy="-34" rx="66.89" ry="18"/>
<text text-anchor="middle" x="538" y="-30.3" font-family="Times,serif" font-size="14.00">borrow_address</text>
</g>
<!-- signer::address_of&#45;&gt;signer::borrow_address -->
<g id="edge12" class="edge">
<title>signer::address_of&#45;&gt;signer::borrow_address</title>
<path fill="none" stroke="black" d="M531.22,-87.7C532.17,-80.32 533.3,-71.52 534.37,-63.25"/>
<polygon fill="black" stroke="black" points="537.8,-63.97 535.61,-53.61 530.86,-63.08 537.8,-63.97"/>
</g>
<!-- error::not_found&#45;&gt;error::canonical -->
<g id="edge13" class="edge">
<title>error::not_found&#45;&gt;error::canonical</title>
<path fill="none" stroke="black" d="M371.95,-91.17C350.12,-80.41 319.62,-65.38 295.67,-53.57"/>
<polygon fill="black" stroke="black" points="297.39,-50.51 286.87,-49.23 294.29,-56.79 297.39,-50.51"/>
</g>
<!-- table::contains_box -->
<g id="node12" class="node">
<title>table::contains_box</title>
<ellipse fill="none" stroke="black" cx="687" cy="-34" rx="57.69" ry="18"/>
<text text-anchor="middle" x="687" y="-30.3" font-family="Times,serif" font-size="14.00">contains_box</text>
</g>
<!-- table::contains&#45;&gt;table::contains_box -->
<g id="edge14" class="edge">
<title>table::contains&#45;&gt;table::contains_box</title>
<path fill="none" stroke="black" d="M680.22,-87.7C681.17,-80.32 682.3,-71.52 683.37,-63.25"/>
<polygon fill="black" stroke="black" points="686.8,-63.97 684.61,-53.61 679.86,-63.08 686.8,-63.97"/>
</g>
</g>
</svg>
