<?xml version="1.0" encoding="UTF-8" standalone="no"?>
<!DOCTYPE svg PUBLIC "-//W3C//DTD SVG 1.1//EN"
 "http://www.w3.org/Graphics/SVG/1.1/DTD/svg11.dtd">
<!-- Generated by graphviz version 7.0.0 (20221023.0053)
 -->
<!-- Title: G Pages: 1 -->
<svg width="641pt" height="437pt"
 viewBox="0.00 0.00 641.00 437.00" xmlns="http://www.w3.org/2000/svg" xmlns:xlink="http://www.w3.org/1999/xlink">
<g id="graph0" class="graph" transform="scale(1 1) rotate(0) translate(4 433)">
<title>G</title>
<polygon fill="white" stroke="none" points="-4,4 -4,-433 637,-433 637,4 -4,4"/>
<g id="clust1" class="cluster">
<title>cluster_signer</title>
<polygon fill="none" stroke="black" points="8,-8 8,-155 158,-155 158,-8 8,-8"/>
<text text-anchor="middle" x="83" y="-139.8" font-family="Times,serif" font-size="14.00">signer</text>
</g>
<g id="clust2" class="cluster">
<title>cluster_table</title>
<polygon fill="none" stroke="black" points="459,-163 459,-313 625,-313 625,-163 459,-163"/>
<text text-anchor="middle" x="542" y="-297.8" font-family="Times,serif" font-size="14.00">table</text>
</g>
<g id="clust3" class="cluster">
<title>cluster_account</title>
<polygon fill="none" stroke="black" points="281,-163 281,-313 451,-313 451,-163 281,-163"/>
<text text-anchor="middle" x="366" y="-297.8" font-family="Times,serif" font-size="14.00">account</text>
</g>
<g id="clust4" class="cluster">
<title>cluster_event</title>
<polygon fill="none" stroke="black" points="103,-163 103,-238 273,-238 273,-163 103,-163"/>
<text text-anchor="middle" x="188" y="-222.8" font-family="Times,serif" font-size="14.00">event</text>
</g>
<g id="clust5" class="cluster">
<title>cluster_guid</title>
<polygon fill="none" stroke="black" points="313,-80 313,-155 393,-155 393,-80 313,-80"/>
<text text-anchor="middle" x="353" y="-139.8" font-family="Times,serif" font-size="14.00">guid</text>
</g>
<!-- opt_in_direct_transfer -->
<g id="node1" class="node">
<title>opt_in_direct_transfer</title>
<ellipse fill="none" stroke="black" cx="102" cy="-411" rx="89.08" ry="18"/>
<text text-anchor="middle" x="102" y="-407.3" font-family="Times,serif" font-size="14.00">opt_in_direct_transfer</text>
</g>
<!-- signer::address_of -->
<g id="node2" class="node">
<title>signer::address_of</title>
<ellipse fill="none" stroke="black" cx="83" cy="-106" rx="48.99" ry="18"/>
<text text-anchor="middle" x="83" y="-102.3" font-family="Times,serif" font-size="14.00">address_of</text>
</g>
<!-- opt_in_direct_transfer&#45;&gt;signer::address_of -->
<g id="edge1" class="edge">
<title>opt_in_direct_transfer&#45;&gt;signer::address_of</title>
<path fill="none" stroke="black" d="M98.33,-392.53C92.04,-361.56 79.44,-294.96 75,-238 72.41,-204.77 72.64,-196.25 75,-163 75.64,-153.98 76.86,-144.19 78.15,-135.37"/>
<polygon fill="black" stroke="black" points="81.59,-136.01 79.68,-125.58 74.68,-134.92 81.59,-136.01"/>
</g>
<!-- initialize_token_store -->
<g id="node3" class="node">
<title>initialize_token_store</title>
<ellipse fill="none" stroke="black" cx="263" cy="-339" rx="87.18" ry="18"/>
<text text-anchor="middle" x="263" y="-335.3" font-family="Times,serif" font-size="14.00">initialize_token_store</text>
</g>
<!-- opt_in_direct_transfer&#45;&gt;initialize_token_store -->
<g id="edge2" class="edge">
<title>opt_in_direct_transfer&#45;&gt;initialize_token_store</title>
<path fill="none" stroke="black" d="M138.53,-394.12C161.59,-384.09 191.58,-371.05 216.35,-360.28"/>
<polygon fill="black" stroke="black" points="217.45,-363.62 225.22,-356.42 214.66,-357.2 217.45,-363.62"/>
</g>
<!-- signer::borrow_address -->
<g id="node4" class="node">
<title>signer::borrow_address</title>
<ellipse fill="none" stroke="black" cx="83" cy="-34" rx="66.89" ry="18"/>
<text text-anchor="middle" x="83" y="-30.3" font-family="Times,serif" font-size="14.00">borrow_address</text>
</g>
<!-- signer::address_of&#45;&gt;signer::borrow_address -->
<g id="edge3" class="edge">
<title>signer::address_of&#45;&gt;signer::borrow_address</title>
<path fill="none" stroke="black" d="M83,-87.7C83,-80.41 83,-71.73 83,-63.54"/>
<polygon fill="black" stroke="black" points="86.5,-63.62 83,-53.62 79.5,-63.62 86.5,-63.62"/>
</g>
<!-- initialize_token_store&#45;&gt;signer::address_of -->
<g id="edge4" class="edge">
<title>initialize_token_store&#45;&gt;signer::address_of</title>
<path fill="none" stroke="black" d="M218.14,-323.29C179.82,-308.23 126.64,-280.89 99,-238 79.13,-207.16 77.86,-163.65 79.69,-135.38"/>
<polygon fill="black" stroke="black" points="83.15,-136.05 80.49,-125.79 76.17,-135.46 83.15,-136.05"/>
</g>
<!-- table::new -->
<g id="node5" class="node">
<title>table::new</title>
<ellipse fill="none" stroke="black" cx="518" cy="-264" rx="27" ry="18"/>
<text text-anchor="middle" x="518" y="-260.3" font-family="Times,serif" font-size="14.00">new</text>
</g>
<!-- initialize_token_store&#45;&gt;table::new -->
<g id="edge5" class="edge">
<title>initialize_token_store&#45;&gt;table::new</title>
<path fill="none" stroke="black" d="M349.57,-336.27C383.47,-333.17 422.05,-326.56 455,-313 469.85,-306.89 484.26,-296.37 495.55,-286.73"/>
<polygon fill="black" stroke="black" points="497.62,-289.57 502.74,-280.3 492.95,-284.35 497.62,-289.57"/>
</g>
<!-- account::new_event_handle -->
<g id="node6" class="node">
<title>account::new_event_handle</title>
<ellipse fill="none" stroke="black" cx="366" cy="-264" rx="76.89" ry="18"/>
<text text-anchor="middle" x="366" y="-260.3" font-family="Times,serif" font-size="14.00">new_event_handle</text>
</g>
<!-- initialize_token_store&#45;&gt;account::new_event_handle -->
<g id="edge6" class="edge">
<title>initialize_token_store&#45;&gt;account::new_event_handle</title>
<path fill="none" stroke="black" d="M286.63,-321.25C300.6,-311.35 318.48,-298.68 333.74,-287.87"/>
<polygon fill="black" stroke="black" points="335.46,-290.93 341.6,-282.29 331.42,-285.22 335.46,-290.93"/>
</g>
<!-- table::new_table_handle -->
<g id="node7" class="node">
<title>table::new_table_handle</title>
<ellipse fill="none" stroke="black" cx="542" cy="-189" rx="74.99" ry="18"/>
<text text-anchor="middle" x="542" y="-185.3" font-family="Times,serif" font-size="14.00">new_table_handle</text>
</g>
<!-- table::new&#45;&gt;table::new_table_handle -->
<g id="edge7" class="edge">
<title>table::new&#45;&gt;table::new_table_handle</title>
<path fill="none" stroke="black" d="M523.57,-246.07C526.28,-237.8 529.63,-227.64 532.71,-218.24"/>
<polygon fill="black" stroke="black" points="536.03,-219.38 535.82,-208.78 529.38,-217.19 536.03,-219.38"/>
</g>
<!-- event::new_event_handle -->
<g id="node8" class="node">
<title>event::new_event_handle</title>
<ellipse fill="none" stroke="black" cx="188" cy="-189" rx="76.89" ry="18"/>
<text text-anchor="middle" x="188" y="-185.3" font-family="Times,serif" font-size="14.00">new_event_handle</text>
</g>
<!-- account::new_event_handle&#45;&gt;event::new_event_handle -->
<g id="edge8" class="edge">
<title>account::new_event_handle&#45;&gt;event::new_event_handle</title>
<path fill="none" stroke="black" d="M314.05,-250.49C301.73,-246.95 288.75,-242.75 277,-238 259.11,-230.77 240.17,-220.9 224.39,-211.98"/>
<polygon fill="black" stroke="black" points="226.24,-209.01 215.83,-207.06 222.75,-215.08 226.24,-209.01"/>
</g>
<!-- account::create_guid -->
<g id="node9" class="node">
<title>account::create_guid</title>
<ellipse fill="none" stroke="black" cx="353" cy="-189" rx="51.99" ry="18"/>
<text text-anchor="middle" x="353" y="-185.3" font-family="Times,serif" font-size="14.00">create_guid</text>
</g>
<!-- account::new_event_handle&#45;&gt;account::create_guid -->
<g id="edge9" class="edge">
<title>account::new_event_handle&#45;&gt;account::create_guid</title>
<path fill="none" stroke="black" d="M362.92,-245.7C361.47,-237.58 359.71,-227.68 358.07,-218.5"/>
<polygon fill="black" stroke="black" points="361.57,-218.15 356.37,-208.92 354.68,-219.38 361.57,-218.15"/>
</g>
<!-- account::create_guid&#45;&gt;signer::address_of -->
<g id="edge10" class="edge">
<title>account::create_guid&#45;&gt;signer::address_of</title>
<path fill="none" stroke="black" d="M316.75,-175.77C304.19,-171.62 290.01,-167.01 277,-163 227.96,-147.86 171.57,-131.73 132.27,-120.68"/>
<polygon fill="black" stroke="black" points="133.44,-117.37 122.86,-118.05 131.55,-124.11 133.44,-117.37"/>
</g>
<!-- guid::create -->
<g id="node10" class="node">
<title>guid::create</title>
<ellipse fill="none" stroke="black" cx="353" cy="-106" rx="31.7" ry="18"/>
<text text-anchor="middle" x="353" y="-102.3" font-family="Times,serif" font-size="14.00">create</text>
</g>
<!-- account::create_guid&#45;&gt;guid::create -->
<g id="edge11" class="edge">
<title>account::create_guid&#45;&gt;guid::create</title>
<path fill="none" stroke="black" d="M353,-170.82C353,-160.69 353,-147.6 353,-135.92"/>
<polygon fill="black" stroke="black" points="356.5,-135.95 353,-125.95 349.5,-135.95 356.5,-135.95"/>
</g>
</g>
</svg>
