<?xml version="1.0" encoding="UTF-8" standalone="no"?>
<!DOCTYPE svg PUBLIC "-//W3C//DTD SVG 1.1//EN"
 "http://www.w3.org/Graphics/SVG/1.1/DTD/svg11.dtd">
<!-- Generated by graphviz version 7.0.0 (20221023.0053)
 -->
<!-- Title: G Pages: 1 -->
<svg width="766pt" height="282pt"
 viewBox="0.00 0.00 766.00 282.00" xmlns="http://www.w3.org/2000/svg" xmlns:xlink="http://www.w3.org/1999/xlink">
<g id="graph0" class="graph" transform="scale(1 1) rotate(0) translate(4 278)">
<title>G</title>
<polygon fill="white" stroke="none" points="-4,4 -4,-278 762,-278 762,4 -4,4"/>
<g id="clust1" class="cluster">
<title>cluster_signer</title>
<polygon fill="none" stroke="black" points="8,-80 8,-230 158,-230 158,-80 8,-80"/>
<text text-anchor="middle" x="83" y="-214.8" font-family="Times,serif" font-size="14.00">signer</text>
</g>
<g id="clust2" class="cluster">
<title>cluster_error</title>
<polygon fill="none" stroke="black" points="166,-8 166,-155 448,-155 448,-8 166,-8"/>
<text text-anchor="middle" x="307" y="-139.8" font-family="Times,serif" font-size="14.00">error</text>
</g>
<g id="clust3" class="cluster">
<title>cluster_table</title>
<polygon fill="none" stroke="black" points="456,-8 456,-155 750,-155 750,-8 456,-8"/>
<text text-anchor="middle" x="603" y="-139.8" font-family="Times,serif" font-size="14.00">table</text>
</g>
<!-- mutate_collection_description -->
<g id="node1" class="node">
<title>mutate_collection_description</title>
<ellipse fill="none" stroke="black" cx="332" cy="-256" rx="117.78" ry="18"/>
<text text-anchor="middle" x="332" y="-252.3" font-family="Times,serif" font-size="14.00">mutate_collection_description</text>
</g>
<!-- signer::address_of -->
<g id="node2" class="node">
<title>signer::address_of</title>
<ellipse fill="none" stroke="black" cx="92" cy="-181" rx="48.99" ry="18"/>
<text text-anchor="middle" x="92" y="-177.3" font-family="Times,serif" font-size="14.00">address_of</text>
</g>
<!-- mutate_collection_description&#45;&gt;signer::address_of -->
<g id="edge1" class="edge">
<title>mutate_collection_description&#45;&gt;signer::address_of</title>
<path fill="none" stroke="black" d="M278.91,-239.51C268.33,-236.39 257.31,-233.11 247,-230 210.73,-219.05 169.79,-206.36 139.1,-196.78"/>
<polygon fill="black" stroke="black" points="140.32,-193.49 129.73,-193.85 138.23,-200.17 140.32,-193.49"/>
</g>
<!-- error::permission_denied -->
<g id="node3" class="node">
<title>error::permission_denied</title>
<ellipse fill="none" stroke="black" cx="251" cy="-106" rx="77.19" ry="18"/>
<text text-anchor="middle" x="251" y="-102.3" font-family="Times,serif" font-size="14.00">permission_denied</text>
</g>
<!-- mutate_collection_description&#45;&gt;error::permission_denied -->
<g id="edge2" class="edge">
<title>mutate_collection_description&#45;&gt;error::permission_denied</title>
<path fill="none" stroke="black" d="M298.48,-238.31C295.34,-235.82 292.43,-233.06 290,-230 268.15,-202.45 258.43,-162.44 254.18,-135.61"/>
<polygon fill="black" stroke="black" points="257.66,-135.22 252.8,-125.8 250.73,-136.19 257.66,-135.22"/>
</g>
<!-- table::borrow_mut -->
<g id="node4" class="node">
<title>table::borrow_mut</title>
<ellipse fill="none" stroke="black" cx="648" cy="-106" rx="54.69" ry="18"/>
<text text-anchor="middle" x="648" y="-102.3" font-family="Times,serif" font-size="14.00">borrow_mut</text>
</g>
<!-- mutate_collection_description&#45;&gt;table::borrow_mut -->
<g id="edge3" class="edge">
<title>mutate_collection_description&#45;&gt;table::borrow_mut</title>
<path fill="none" stroke="black" d="M436.71,-247.48C456.94,-243.7 477.56,-238.14 496,-230 548.63,-206.76 598.19,-160.39 625.68,-131.69"/>
<polygon fill="black" stroke="black" points="628.14,-134.19 632.44,-124.5 623.04,-129.39 628.14,-134.19"/>
</g>
<!-- assert_collection_exists -->
<g id="node5" class="node">
<title>assert_collection_exists</title>
<ellipse fill="none" stroke="black" cx="393" cy="-181" rx="94.48" ry="18"/>
<text text-anchor="middle" x="393" y="-177.3" font-family="Times,serif" font-size="14.00">assert_collection_exists</text>
</g>
<!-- mutate_collection_description&#45;&gt;assert_collection_exists -->
<g id="edge4" class="edge">
<title>mutate_collection_description&#45;&gt;assert_collection_exists</title>
<path fill="none" stroke="black" d="M346.46,-237.7C353.9,-228.79 363.13,-217.75 371.4,-207.85"/>
<polygon fill="black" stroke="black" points="373.95,-210.26 377.68,-200.34 368.58,-205.77 373.95,-210.26"/>
</g>
<!-- signer::borrow_address -->
<g id="node6" class="node">
<title>signer::borrow_address</title>
<ellipse fill="none" stroke="black" cx="83" cy="-106" rx="66.89" ry="18"/>
<text text-anchor="middle" x="83" y="-102.3" font-family="Times,serif" font-size="14.00">borrow_address</text>
</g>
<!-- signer::address_of&#45;&gt;signer::borrow_address -->
<g id="edge5" class="edge">
<title>signer::address_of&#45;&gt;signer::borrow_address</title>
<path fill="none" stroke="black" d="M89.87,-162.7C88.88,-154.67 87.67,-144.9 86.55,-135.8"/>
<polygon fill="black" stroke="black" points="90.03,-135.43 85.33,-125.93 83.08,-136.28 90.03,-135.43"/>
</g>
<!-- error::canonical -->
<g id="node7" class="node">
<title>error::canonical</title>
<ellipse fill="none" stroke="black" cx="322" cy="-34" rx="44.39" ry="18"/>
<text text-anchor="middle" x="322" y="-30.3" font-family="Times,serif" font-size="14.00">canonical</text>
</g>
<!-- error::permission_denied&#45;&gt;error::canonical -->
<g id="edge6" class="edge">
<title>error::permission_denied&#45;&gt;error::canonical</title>
<path fill="none" stroke="black" d="M268.19,-88.05C277.07,-79.29 288.07,-68.45 297.8,-58.86"/>
<polygon fill="black" stroke="black" points="300.2,-61.41 304.87,-51.89 295.29,-56.42 300.2,-61.41"/>
</g>
<!-- table::borrow_box_mut -->
<g id="node8" class="node">
<title>table::borrow_box_mut</title>
<ellipse fill="none" stroke="black" cx="670" cy="-34" rx="72.29" ry="18"/>
<text text-anchor="middle" x="670" y="-30.3" font-family="Times,serif" font-size="14.00">borrow_box_mut</text>
</g>
<!-- table::borrow_mut&#45;&gt;table::borrow_box_mut -->
<g id="edge7" class="edge">
<title>table::borrow_mut&#45;&gt;table::borrow_box_mut</title>
<path fill="none" stroke="black" d="M653.44,-87.7C655.78,-80.24 658.58,-71.32 661.21,-62.97"/>
<polygon fill="black" stroke="black" points="664.51,-64.14 664.17,-53.55 657.83,-62.04 664.51,-64.14"/>
</g>
<!-- error::not_found -->
<g id="node9" class="node">
<title>error::not_found</title>
<ellipse fill="none" stroke="black" cx="393" cy="-106" rx="46.59" ry="18"/>
<text text-anchor="middle" x="393" y="-102.3" font-family="Times,serif" font-size="14.00">not_found</text>
</g>
<!-- assert_collection_exists&#45;&gt;error::not_found -->
<g id="edge8" class="edge">
<title>assert_collection_exists&#45;&gt;error::not_found</title>
<path fill="none" stroke="black" d="M393,-162.7C393,-154.67 393,-144.9 393,-135.8"/>
<polygon fill="black" stroke="black" points="396.5,-135.94 393,-125.94 389.5,-135.94 396.5,-135.94"/>
</g>
<!-- table::contains -->
<g id="node10" class="node">
<title>table::contains</title>
<ellipse fill="none" stroke="black" cx="513" cy="-106" rx="40.09" ry="18"/>
<text text-anchor="middle" x="513" y="-102.3" font-family="Times,serif" font-size="14.00">contains</text>
</g>
<!-- assert_collection_exists&#45;&gt;table::contains -->
<g id="edge9" class="edge">
<title>assert_collection_exists&#45;&gt;table::contains</title>
<path fill="none" stroke="black" d="M433.69,-164.45C439.96,-161.57 446.25,-158.4 452,-155 464.2,-147.79 476.68,-138.4 487.14,-129.84"/>
<polygon fill="black" stroke="black" points="489.19,-132.69 494.6,-123.58 484.69,-127.33 489.19,-132.69"/>
</g>
<!-- error::not_found&#45;&gt;error::canonical -->
<g id="edge10" class="edge">
<title>error::not_found&#45;&gt;error::canonical</title>
<path fill="none" stroke="black" d="M376.53,-88.76C367.57,-79.93 356.31,-68.83 346.36,-59.01"/>
<polygon fill="black" stroke="black" points="349.03,-56.74 339.46,-52.21 344.12,-61.72 349.03,-56.74"/>
</g>
<!-- table::contains_box -->
<g id="node11" class="node">
<title>table::contains_box</title>
<ellipse fill="none" stroke="black" cx="522" cy="-34" rx="57.69" ry="18"/>
<text text-anchor="middle" x="522" y="-30.3" font-family="Times,serif" font-size="14.00">contains_box</text>
</g>
<!-- table::contains&#45;&gt;table::contains_box -->
<g id="edge11" class="edge">
<title>table::contains&#45;&gt;table::contains_box</title>
<path fill="none" stroke="black" d="M515.22,-87.7C516.17,-80.32 517.3,-71.52 518.37,-63.25"/>
<polygon fill="black" stroke="black" points="521.8,-63.97 519.61,-53.61 514.86,-63.08 521.8,-63.97"/>
</g>
</g>
</svg>
