<?xml version="1.0" encoding="UTF-8" standalone="no"?>
<!DOCTYPE svg PUBLIC "-//W3C//DTD SVG 1.1//EN"
 "http://www.w3.org/Graphics/SVG/1.1/DTD/svg11.dtd">
<!-- Generated by graphviz version 7.0.0 (20221023.0053)
 -->
<!-- Title: G Pages: 1 -->
<svg width="743pt" height="299pt"
 viewBox="0.00 0.00 742.89 299.00" xmlns="http://www.w3.org/2000/svg" xmlns:xlink="http://www.w3.org/1999/xlink">
<g id="graph0" class="graph" transform="scale(1 1) rotate(0) translate(4 295)">
<title>G</title>
<polygon fill="white" stroke="none" points="-4,4 -4,-295 738.89,-295 738.89,4 -4,4"/>
<g id="clust1" class="cluster">
<title>cluster_token_transfers</title>
<polygon fill="none" stroke="black" points="606.89,-136 606.89,-283 726.89,-283 726.89,-136 606.89,-136"/>
<text text-anchor="middle" x="666.89" y="-267.8" font-family="Times,serif" font-size="14.00">token_transfers</text>
</g>
<!-- withdraw_with_event_internal -->
<g id="node1" class="node">
<title>withdraw_with_event_internal</title>
<ellipse fill="none" stroke="black" cx="312.89" cy="-18" rx="118.08" ry="18"/>
<text text-anchor="middle" x="312.89" y="-14.3" font-family="Times,serif" font-size="14.00">withdraw_with_event_internal</text>
</g>
<!-- burn_by_creator -->
<g id="node2" class="node">
<title>burn_by_creator</title>
<ellipse fill="none" stroke="black" cx="68.89" cy="-90" rx="68.79" ry="18"/>
<text text-anchor="middle" x="68.89" y="-86.3" font-family="Times,serif" font-size="14.00">burn_by_creator</text>
</g>
<!-- burn_by_creator&#45;&gt;withdraw_with_event_internal -->
<g id="edge1" class="edge">
<title>burn_by_creator&#45;&gt;withdraw_with_event_internal</title>
<path fill="none" stroke="black" d="M113.93,-76.08C151.6,-65.27 205.81,-49.72 248.14,-37.58"/>
<polygon fill="black" stroke="black" points="249.08,-40.95 257.73,-34.83 247.15,-34.22 249.08,-40.95"/>
</g>
<!-- mutate_one_token -->
<g id="node3" class="node">
<title>mutate_one_token</title>
<ellipse fill="none" stroke="black" cx="231.89" cy="-90" rx="76.09" ry="18"/>
<text text-anchor="middle" x="231.89" y="-86.3" font-family="Times,serif" font-size="14.00">mutate_one_token</text>
</g>
<!-- mutate_one_token&#45;&gt;withdraw_with_event_internal -->
<g id="edge2" class="edge">
<title>mutate_one_token&#45;&gt;withdraw_with_event_internal</title>
<path fill="none" stroke="black" d="M251.09,-72.41C261.06,-63.8 273.43,-53.1 284.48,-43.55"/>
<polygon fill="black" stroke="black" points="286.57,-46.38 291.84,-37.19 281.99,-41.08 286.57,-46.38"/>
</g>
<!-- withdraw_token -->
<g id="node4" class="node">
<title>withdraw_token</title>
<ellipse fill="none" stroke="black" cx="393.89" cy="-90" rx="67.69" ry="18"/>
<text text-anchor="middle" x="393.89" y="-86.3" font-family="Times,serif" font-size="14.00">withdraw_token</text>
</g>
<!-- withdraw_token&#45;&gt;withdraw_with_event_internal -->
<g id="edge3" class="edge">
<title>withdraw_token&#45;&gt;withdraw_with_event_internal</title>
<path fill="none" stroke="black" d="M374.7,-72.41C364.73,-63.8 352.36,-53.1 341.31,-43.55"/>
<polygon fill="black" stroke="black" points="343.8,-41.08 333.94,-37.19 339.22,-46.38 343.8,-41.08"/>
</g>
<!-- withdraw_with_capability -->
<g id="node5" class="node">
<title>withdraw_with_capability</title>
<ellipse fill="none" stroke="black" cx="581.89" cy="-90" rx="102.88" ry="18"/>
<text text-anchor="middle" x="581.89" y="-86.3" font-family="Times,serif" font-size="14.00">withdraw_with_capability</text>
</g>
<!-- withdraw_with_capability&#45;&gt;withdraw_with_event_internal -->
<g id="edge4" class="edge">
<title>withdraw_with_capability&#45;&gt;withdraw_with_event_internal</title>
<path fill="none" stroke="black" d="M526.16,-74.5C484.31,-63.61 426.75,-48.63 381.97,-36.98"/>
<polygon fill="black" stroke="black" points="382.91,-33.6 372.35,-34.47 381.14,-40.38 382.91,-33.6"/>
</g>
<!-- mutate_token_properties -->
<g id="node6" class="node">
<title>mutate_token_properties</title>
<ellipse fill="none" stroke="black" cx="166.89" cy="-162" rx="98.58" ry="18"/>
<text text-anchor="middle" x="166.89" y="-158.3" font-family="Times,serif" font-size="14.00">mutate_token_properties</text>
</g>
<!-- mutate_token_properties&#45;&gt;mutate_one_token -->
<g id="edge5" class="edge">
<title>mutate_token_properties&#45;&gt;mutate_one_token</title>
<path fill="none" stroke="black" d="M182.63,-144.05C190.45,-135.63 200.06,-125.28 208.71,-115.97"/>
<polygon fill="black" stroke="black" points="211.03,-118.61 215.27,-108.9 205.9,-113.84 211.03,-118.61"/>
</g>
<!-- burn -->
<g id="node7" class="node">
<title>burn</title>
<ellipse fill="none" stroke="black" cx="310.89" cy="-162" rx="27" ry="18"/>
<text text-anchor="middle" x="310.89" y="-158.3" font-family="Times,serif" font-size="14.00">burn</text>
</g>
<!-- burn&#45;&gt;withdraw_token -->
<g id="edge6" class="edge">
<title>burn&#45;&gt;withdraw_token</title>
<path fill="none" stroke="black" d="M327.29,-147.17C338.27,-137.91 353,-125.49 365.82,-114.68"/>
<polygon fill="black" stroke="black" points="367.77,-117.61 373.16,-108.49 363.26,-112.26 367.77,-117.61"/>
</g>
<!-- transfer -->
<g id="node8" class="node">
<title>transfer</title>
<ellipse fill="none" stroke="black" cx="393.89" cy="-162" rx="37.89" ry="18"/>
<text text-anchor="middle" x="393.89" y="-158.3" font-family="Times,serif" font-size="14.00">transfer</text>
</g>
<!-- transfer&#45;&gt;withdraw_token -->
<g id="edge7" class="edge">
<title>transfer&#45;&gt;withdraw_token</title>
<path fill="none" stroke="black" d="M393.89,-143.7C393.89,-136.41 393.89,-127.73 393.89,-119.54"/>
<polygon fill="black" stroke="black" points="397.39,-119.62 393.89,-109.62 390.39,-119.62 397.39,-119.62"/>
</g>
<!-- direct_transfer -->
<g id="node9" class="node">
<title>direct_transfer</title>
<ellipse fill="none" stroke="black" cx="510.89" cy="-162" rx="61.99" ry="18"/>
<text text-anchor="middle" x="510.89" y="-158.3" font-family="Times,serif" font-size="14.00">direct_transfer</text>
</g>
<!-- direct_transfer&#45;&gt;withdraw_token -->
<g id="edge8" class="edge">
<title>direct_transfer&#45;&gt;withdraw_token</title>
<path fill="none" stroke="black" d="M484.64,-145.29C468.49,-135.63 447.58,-123.12 429.91,-112.55"/>
<polygon fill="black" stroke="black" points="432.15,-109.81 421.77,-107.68 428.55,-115.81 432.15,-109.81"/>
</g>
<!-- token_transfers::offer -->
<g id="node10" class="node">
<title>token_transfers::offer</title>
<ellipse fill="none" stroke="black" cx="654.89" cy="-162" rx="27.9" ry="18"/>
<text text-anchor="middle" x="654.89" y="-158.3" font-family="Times,serif" font-size="14.00">offer</text>
</g>
<!-- token_transfers::offer&#45;&gt;withdraw_token -->
<g id="edge9" class="edge">
<title>token_transfers::offer&#45;&gt;withdraw_token</title>
<path fill="none" stroke="black" d="M631.08,-152.2C616.9,-147.13 598.49,-140.82 581.89,-136 558.3,-129.15 500.19,-115.42 454.77,-104.91"/>
<polygon fill="black" stroke="black" points="455.82,-101.56 445.29,-102.72 454.25,-108.38 455.82,-101.56"/>
</g>
<!-- transfer_with_opt_in -->
<g id="node11" class="node">
<title>transfer_with_opt_in</title>
<ellipse fill="none" stroke="black" cx="322.89" cy="-234" rx="84.49" ry="18"/>
<text text-anchor="middle" x="322.89" y="-230.3" font-family="Times,serif" font-size="14.00">transfer_with_opt_in</text>
</g>
<!-- transfer_with_opt_in&#45;&gt;transfer -->
<g id="edge10" class="edge">
<title>transfer_with_opt_in&#45;&gt;transfer</title>
<path fill="none" stroke="black" d="M340.08,-216.05C349.19,-207.08 360.51,-195.92 370.41,-186.15"/>
<polygon fill="black" stroke="black" points="372.58,-188.93 377.24,-179.42 367.66,-183.95 372.58,-188.93"/>
</g>
<!-- direct_transfer_script -->
<g id="node12" class="node">
<title>direct_transfer_script</title>
<ellipse fill="none" stroke="black" cx="510.89" cy="-234" rx="85.59" ry="18"/>
<text text-anchor="middle" x="510.89" y="-230.3" font-family="Times,serif" font-size="14.00">direct_transfer_script</text>
</g>
<!-- direct_transfer_script&#45;&gt;direct_transfer -->
<g id="edge11" class="edge">
<title>direct_transfer_script&#45;&gt;direct_transfer</title>
<path fill="none" stroke="black" d="M510.89,-215.7C510.89,-208.41 510.89,-199.73 510.89,-191.54"/>
<polygon fill="black" stroke="black" points="514.39,-191.62 510.89,-181.62 507.39,-191.62 514.39,-191.62"/>
</g>
<!-- token_transfers::offer_script -->
<g id="node13" class="node">
<title>token_transfers::offer_script</title>
<ellipse fill="none" stroke="black" cx="666.89" cy="-234" rx="51.99" ry="18"/>
<text text-anchor="middle" x="666.89" y="-230.3" font-family="Times,serif" font-size="14.00">offer_script</text>
</g>
<!-- token_transfers::offer_script&#45;&gt;token_transfers::offer -->
<g id="edge12" class="edge">
<title>token_transfers::offer_script&#45;&gt;token_transfers::offer</title>
<path fill="none" stroke="black" d="M663.93,-215.7C662.66,-208.32 661.16,-199.52 659.74,-191.25"/>
<polygon fill="black" stroke="black" points="663.22,-190.86 658.08,-181.6 656.32,-192.04 663.22,-190.86"/>
</g>
</g>
</svg>
