<?xml version="1.0" encoding="UTF-8" standalone="no"?>
<!DOCTYPE svg PUBLIC "-//W3C//DTD SVG 1.1//EN"
 "http://www.w3.org/Graphics/SVG/1.1/DTD/svg11.dtd">
<!-- Generated by graphviz version 7.0.0 (20221023.0053)
 -->
<!-- Title: G Pages: 1 -->
<svg width="931pt" height="290pt"
 viewBox="0.00 0.00 931.00 290.00" xmlns="http://www.w3.org/2000/svg" xmlns:xlink="http://www.w3.org/1999/xlink">
<g id="graph0" class="graph" transform="scale(1 1) rotate(0) translate(4 286)">
<title>G</title>
<polygon fill="white" stroke="none" points="-4,4 -4,-286 927,-286 927,4 -4,4"/>
<g id="clust1" class="cluster">
<title>cluster_string</title>
<polygon fill="none" stroke="black" points="130,-163 130,-238 210,-238 210,-163 130,-163"/>
<text text-anchor="middle" x="170" y="-222.8" font-family="Times,serif" font-size="14.00">string</text>
</g>
<g id="clust2" class="cluster">
<title>cluster_error</title>
<polygon fill="none" stroke="black" points="8,-8 8,-155 455,-155 455,-8 8,-8"/>
<text text-anchor="middle" x="231.5" y="-139.8" font-family="Times,serif" font-size="14.00">error</text>
</g>
<g id="clust3" class="cluster">
<title>cluster_table</title>
<polygon fill="none" stroke="black" points="621,-8 621,-155 915,-155 915,-8 621,-8"/>
<text text-anchor="middle" x="768" y="-139.8" font-family="Times,serif" font-size="14.00">table</text>
</g>
<g id="clust4" class="cluster">
<title>cluster_signer</title>
<polygon fill="none" stroke="black" points="463,-8 463,-155 613,-155 613,-8 463,-8"/>
<text text-anchor="middle" x="538" y="-139.8" font-family="Times,serif" font-size="14.00">signer</text>
</g>
<!-- mutate_tokendata_uri -->
<g id="node1" class="node">
<title>mutate_tokendata_uri</title>
<ellipse fill="none" stroke="black" cx="268" cy="-264" rx="87.99" ry="18"/>
<text text-anchor="middle" x="268" y="-260.3" font-family="Times,serif" font-size="14.00">mutate_tokendata_uri</text>
</g>
<!-- string::length -->
<g id="node2" class="node">
<title>string::length</title>
<ellipse fill="none" stroke="black" cx="170" cy="-189" rx="32.49" ry="18"/>
<text text-anchor="middle" x="170" y="-185.3" font-family="Times,serif" font-size="14.00">length</text>
</g>
<!-- mutate_tokendata_uri&#45;&gt;string::length -->
<g id="edge1" class="edge">
<title>mutate_tokendata_uri&#45;&gt;string::length</title>
<path fill="none" stroke="black" d="M230.97,-247.24C225.76,-244.45 220.62,-241.35 216,-238 206.67,-231.23 197.62,-222.44 190.05,-214.23"/>
<polygon fill="black" stroke="black" points="192.72,-211.98 183.47,-206.81 187.48,-216.62 192.72,-211.98"/>
</g>
<!-- error::invalid_argument -->
<g id="node3" class="node">
<title>error::invalid_argument</title>
<ellipse fill="none" stroke="black" cx="89" cy="-106" rx="73.39" ry="18"/>
<text text-anchor="middle" x="89" y="-102.3" font-family="Times,serif" font-size="14.00">invalid_argument</text>
</g>
<!-- mutate_tokendata_uri&#45;&gt;error::invalid_argument -->
<g id="edge2" class="edge">
<title>mutate_tokendata_uri&#45;&gt;error::invalid_argument</title>
<path fill="none" stroke="black" d="M260.88,-245.84C249.9,-220.18 228.57,-173.66 214,-163 198.67,-151.78 189.81,-161.63 172,-155 154.63,-148.54 136.68,-138.62 121.93,-129.47"/>
<polygon fill="black" stroke="black" points="123.86,-126.56 113.55,-124.13 120.1,-132.46 123.86,-126.56"/>
</g>
<!-- error::permission_denied -->
<g id="node4" class="node">
<title>error::permission_denied</title>
<ellipse fill="none" stroke="black" cx="258" cy="-106" rx="77.19" ry="18"/>
<text text-anchor="middle" x="258" y="-102.3" font-family="Times,serif" font-size="14.00">permission_denied</text>
</g>
<!-- mutate_tokendata_uri&#45;&gt;error::permission_denied -->
<g id="edge3" class="edge">
<title>mutate_tokendata_uri&#45;&gt;error::permission_denied</title>
<path fill="none" stroke="black" d="M266.89,-245.71C265.19,-219.12 261.9,-167.9 259.84,-135.69"/>
<polygon fill="black" stroke="black" points="263.34,-135.63 259.21,-125.88 256.36,-136.08 263.34,-135.63"/>
</g>
<!-- table::borrow_mut -->
<g id="node5" class="node">
<title>table::borrow_mut</title>
<ellipse fill="none" stroke="black" cx="813" cy="-106" rx="54.69" ry="18"/>
<text text-anchor="middle" x="813" y="-102.3" font-family="Times,serif" font-size="14.00">borrow_mut</text>
</g>
<!-- mutate_tokendata_uri&#45;&gt;table::borrow_mut -->
<g id="edge4" class="edge">
<title>mutate_tokendata_uri&#45;&gt;table::borrow_mut</title>
<path fill="none" stroke="black" d="M353.15,-259.06C398.16,-255.7 454.07,-249.48 503,-238 606.36,-213.75 630.58,-199.45 727,-155 744.32,-147.01 762.88,-136.87 778.31,-127.97"/>
<polygon fill="black" stroke="black" points="779.77,-131.17 786.64,-123.1 776.24,-125.12 779.77,-131.17"/>
</g>
<!-- assert_tokendata_exists -->
<g id="node6" class="node">
<title>assert_tokendata_exists</title>
<ellipse fill="none" stroke="black" cx="400" cy="-189" rx="93.68" ry="18"/>
<text text-anchor="middle" x="400" y="-185.3" font-family="Times,serif" font-size="14.00">assert_tokendata_exists</text>
</g>
<!-- mutate_tokendata_uri&#45;&gt;assert_tokendata_exists -->
<g id="edge5" class="edge">
<title>mutate_tokendata_uri&#45;&gt;assert_tokendata_exists</title>
<path fill="none" stroke="black" d="M297.62,-246.62C316.22,-236.33 340.42,-222.95 360.62,-211.78"/>
<polygon fill="black" stroke="black" points="362.09,-214.96 369.15,-207.06 358.71,-208.84 362.09,-214.96"/>
</g>
<!-- error::canonical -->
<g id="node7" class="node">
<title>error::canonical</title>
<ellipse fill="none" stroke="black" cx="258" cy="-34" rx="44.39" ry="18"/>
<text text-anchor="middle" x="258" y="-30.3" font-family="Times,serif" font-size="14.00">canonical</text>
</g>
<!-- error::invalid_argument&#45;&gt;error::canonical -->
<g id="edge6" class="edge">
<title>error::invalid_argument&#45;&gt;error::canonical</title>
<path fill="none" stroke="black" d="M125.25,-89.98C152.35,-78.76 189.38,-63.42 217.46,-51.79"/>
<polygon fill="black" stroke="black" points="218.44,-55.18 226.34,-48.11 215.76,-48.71 218.44,-55.18"/>
</g>
<!-- error::permission_denied&#45;&gt;error::canonical -->
<g id="edge7" class="edge">
<title>error::permission_denied&#45;&gt;error::canonical</title>
<path fill="none" stroke="black" d="M258,-87.7C258,-80.41 258,-71.73 258,-63.54"/>
<polygon fill="black" stroke="black" points="261.5,-63.62 258,-53.62 254.5,-63.62 261.5,-63.62"/>
</g>
<!-- table::borrow_box_mut -->
<g id="node8" class="node">
<title>table::borrow_box_mut</title>
<ellipse fill="none" stroke="black" cx="835" cy="-34" rx="72.29" ry="18"/>
<text text-anchor="middle" x="835" y="-30.3" font-family="Times,serif" font-size="14.00">borrow_box_mut</text>
</g>
<!-- table::borrow_mut&#45;&gt;table::borrow_box_mut -->
<g id="edge8" class="edge">
<title>table::borrow_mut&#45;&gt;table::borrow_box_mut</title>
<path fill="none" stroke="black" d="M818.44,-87.7C820.78,-80.24 823.58,-71.32 826.21,-62.97"/>
<polygon fill="black" stroke="black" points="829.51,-64.14 829.17,-53.55 822.83,-62.04 829.51,-64.14"/>
</g>
<!-- assert_tokendata_exists&#45;&gt;error::permission_denied -->
<g id="edge11" class="edge">
<title>assert_tokendata_exists&#45;&gt;error::permission_denied</title>
<path fill="none" stroke="black" d="M370.92,-171.41C349.29,-159.08 319.58,-142.13 296.06,-128.71"/>
<polygon fill="black" stroke="black" points="297.81,-125.68 287.39,-123.76 294.34,-131.76 297.81,-125.68"/>
</g>
<!-- signer::address_of -->
<g id="node9" class="node">
<title>signer::address_of</title>
<ellipse fill="none" stroke="black" cx="529" cy="-106" rx="48.99" ry="18"/>
<text text-anchor="middle" x="529" y="-102.3" font-family="Times,serif" font-size="14.00">address_of</text>
</g>
<!-- assert_tokendata_exists&#45;&gt;signer::address_of -->
<g id="edge9" class="edge">
<title>assert_tokendata_exists&#45;&gt;signer::address_of</title>
<path fill="none" stroke="black" d="M430.63,-171.56C439.85,-166.43 449.93,-160.63 459,-155 472.14,-146.84 486.27,-137.31 498.37,-128.9"/>
<polygon fill="black" stroke="black" points="500.16,-131.91 506.34,-123.31 496.15,-126.18 500.16,-131.91"/>
</g>
<!-- error::not_found -->
<g id="node10" class="node">
<title>error::not_found</title>
<ellipse fill="none" stroke="black" cx="400" cy="-106" rx="46.59" ry="18"/>
<text text-anchor="middle" x="400" y="-102.3" font-family="Times,serif" font-size="14.00">not_found</text>
</g>
<!-- assert_tokendata_exists&#45;&gt;error::not_found -->
<g id="edge10" class="edge">
<title>assert_tokendata_exists&#45;&gt;error::not_found</title>
<path fill="none" stroke="black" d="M400,-170.82C400,-160.69 400,-147.6 400,-135.92"/>
<polygon fill="black" stroke="black" points="403.5,-135.95 400,-125.95 396.5,-135.95 403.5,-135.95"/>
</g>
<!-- table::contains -->
<g id="node11" class="node">
<title>table::contains</title>
<ellipse fill="none" stroke="black" cx="678" cy="-106" rx="40.09" ry="18"/>
<text text-anchor="middle" x="678" y="-102.3" font-family="Times,serif" font-size="14.00">contains</text>
</g>
<!-- assert_tokendata_exists&#45;&gt;table::contains -->
<g id="edge12" class="edge">
<title>assert_tokendata_exists&#45;&gt;table::contains</title>
<path fill="none" stroke="black" d="M491.3,-184.55C531.2,-180.44 577.75,-172 617,-155 630.39,-149.2 643.37,-139.72 653.88,-130.71"/>
<polygon fill="black" stroke="black" points="656.22,-133.32 661.31,-124.03 651.54,-128.11 656.22,-133.32"/>
</g>
<!-- signer::borrow_address -->
<g id="node12" class="node">
<title>signer::borrow_address</title>
<ellipse fill="none" stroke="black" cx="538" cy="-34" rx="66.89" ry="18"/>
<text text-anchor="middle" x="538" y="-30.3" font-family="Times,serif" font-size="14.00">borrow_address</text>
</g>
<!-- signer::address_of&#45;&gt;signer::borrow_address -->
<g id="edge13" class="edge">
<title>signer::address_of&#45;&gt;signer::borrow_address</title>
<path fill="none" stroke="black" d="M531.22,-87.7C532.17,-80.32 533.3,-71.52 534.37,-63.25"/>
<polygon fill="black" stroke="black" points="537.8,-63.97 535.61,-53.61 530.86,-63.08 537.8,-63.97"/>
</g>
<!-- error::not_found&#45;&gt;error::canonical -->
<g id="edge14" class="edge">
<title>error::not_found&#45;&gt;error::canonical</title>
<path fill="none" stroke="black" d="M371.95,-91.17C350.12,-80.41 319.62,-65.38 295.67,-53.57"/>
<polygon fill="black" stroke="black" points="297.39,-50.51 286.87,-49.23 294.29,-56.79 297.39,-50.51"/>
</g>
<!-- table::contains_box -->
<g id="node13" class="node">
<title>table::contains_box</title>
<ellipse fill="none" stroke="black" cx="687" cy="-34" rx="57.69" ry="18"/>
<text text-anchor="middle" x="687" y="-30.3" font-family="Times,serif" font-size="14.00">contains_box</text>
</g>
<!-- table::contains&#45;&gt;table::contains_box -->
<g id="edge15" class="edge">
<title>table::contains&#45;&gt;table::contains_box</title>
<path fill="none" stroke="black" d="M680.22,-87.7C681.17,-80.32 682.3,-71.52 683.37,-63.25"/>
<polygon fill="black" stroke="black" points="686.8,-63.97 684.61,-53.61 679.86,-63.08 686.8,-63.97"/>
</g>
</g>
</svg>
