<?xml version="1.0" encoding="UTF-8" standalone="no"?>
<!DOCTYPE svg PUBLIC "-//W3C//DTD SVG 1.1//EN"
 "http://www.w3.org/Graphics/SVG/1.1/DTD/svg11.dtd">
<!-- Generated by graphviz version 7.0.0 (20221023.0053)
 -->
<!-- Title: G Pages: 1 -->
<svg width="1535pt" height="620pt"
 viewBox="0.00 0.00 1534.95 620.00" xmlns="http://www.w3.org/2000/svg" xmlns:xlink="http://www.w3.org/1999/xlink">
<g id="graph0" class="graph" transform="scale(1 1) rotate(0) translate(4 616)">
<title>G</title>
<polygon fill="white" stroke="none" points="-4,4 -4,-616 1530.95,-616 1530.95,4 -4,4"/>
<!-- token_transfers -->
<g id="node1" class="node">
<title>token_transfers</title>
<ellipse fill="none" stroke="black" cx="600" cy="-594" rx="64.99" ry="18"/>
<text text-anchor="middle" x="600" y="-590.3" font-family="Times,serif" font-size="14.00">token_transfers</text>
</g>
<!-- string -->
<g id="node2" class="node">
<title>string</title>
<ellipse fill="none" stroke="black" cx="428" cy="-162" rx="30.59" ry="18"/>
<text text-anchor="middle" x="428" y="-158.3" font-family="Times,serif" font-size="14.00">string</text>
</g>
<!-- token_transfers&#45;&gt;string -->
<g id="edge1" class="edge">
<title>token_transfers&#45;&gt;string</title>
<path fill="none" stroke="black" d="M565.65,-578.42C524.31,-559.14 455.64,-521.25 417,-468 351.11,-377.19 370.63,-323.72 402,-216 404.66,-206.87 408.81,-197.39 413.02,-189.02"/>
<polygon fill="black" stroke="black" points="415.97,-190.93 417.56,-180.45 409.78,-187.65 415.97,-190.93"/>
</g>
<!-- signer -->
<g id="node3" class="node">
<title>signer</title>
<ellipse fill="none" stroke="black" cx="76" cy="-90" rx="32.49" ry="18"/>
<text text-anchor="middle" x="76" y="-86.3" font-family="Times,serif" font-size="14.00">signer</text>
</g>
<!-- token_transfers&#45;&gt;signer -->
<g id="edge2" class="edge">
<title>token_transfers&#45;&gt;signer</title>
<path fill="none" stroke="black" d="M535.22,-591.3C380.07,-585.47 0,-560.05 0,-451 0,-451 0,-451 0,-233 0,-186.98 31.42,-141.43 53.85,-114.78"/>
<polygon fill="black" stroke="black" points="56.43,-117.15 60.35,-107.31 51.15,-112.56 56.43,-117.15"/>
</g>
<!-- error -->
<g id="node4" class="node">
<title>error</title>
<ellipse fill="none" stroke="black" cx="581" cy="-90" rx="27.9" ry="18"/>
<text text-anchor="middle" x="581" y="-86.3" font-family="Times,serif" font-size="14.00">error</text>
</g>
<!-- token_transfers&#45;&gt;error -->
<g id="edge3" class="edge">
<title>token_transfers&#45;&gt;error</title>
<path fill="none" stroke="black" d="M542.56,-585.36C429.72,-568.73 190,-524.73 190,-451 190,-451 190,-451 190,-377 190,-247.76 256.21,-215.31 364,-144 418.6,-107.88 495.55,-96.35 541.63,-92.69"/>
<polygon fill="black" stroke="black" points="541.68,-96.19 551.42,-92 541.2,-89.21 541.68,-96.19"/>
</g>
<!-- table -->
<g id="node5" class="node">
<title>table</title>
<ellipse fill="none" stroke="black" cx="1499" cy="-378" rx="27.9" ry="18"/>
<text text-anchor="middle" x="1499" y="-374.3" font-family="Times,serif" font-size="14.00">table</text>
</g>
<!-- token_transfers&#45;&gt;table -->
<g id="edge4" class="edge">
<title>token_transfers&#45;&gt;table</title>
<path fill="none" stroke="black" d="M665.39,-593.34C849.72,-592.86 1367.68,-581.28 1484,-468 1499.8,-452.61 1502.76,-427.23 1502.22,-407.5"/>
<polygon fill="black" stroke="black" points="1505.72,-407.37 1501.61,-397.6 1498.74,-407.8 1505.72,-407.37"/>
</g>
<!-- event -->
<g id="node6" class="node">
<title>event</title>
<ellipse fill="none" stroke="black" cx="1385" cy="-378" rx="29.8" ry="18"/>
<text text-anchor="middle" x="1385" y="-374.3" font-family="Times,serif" font-size="14.00">event</text>
</g>
<!-- token_transfers&#45;&gt;event -->
<g id="edge5" class="edge">
<title>token_transfers&#45;&gt;event</title>
<path fill="none" stroke="black" d="M649.28,-581.88C739.81,-561.2 938.49,-514.68 1104,-468 1192.74,-442.97 1295.77,-409.08 1349.01,-391.21"/>
<polygon fill="black" stroke="black" points="1349.8,-394.64 1358.16,-388.13 1347.56,-388 1349.8,-394.64"/>
</g>
<!-- account -->
<g id="node7" class="node">
<title>account</title>
<ellipse fill="none" stroke="black" cx="952" cy="-450" rx="38.19" ry="18"/>
<text text-anchor="middle" x="952" y="-446.3" font-family="Times,serif" font-size="14.00">account</text>
</g>
<!-- token_transfers&#45;&gt;account -->
<g id="edge6" class="edge">
<title>token_transfers&#45;&gt;account</title>
<path fill="none" stroke="black" d="M635.69,-578.6C702.22,-551.76 844.65,-494.31 913.36,-466.59"/>
<polygon fill="black" stroke="black" points="914.36,-469.96 922.32,-462.97 911.74,-463.47 914.36,-469.96"/>
</g>
<!-- token -->
<g id="node8" class="node">
<title>token</title>
<ellipse fill="none" stroke="black" cx="600" cy="-522" rx="30.59" ry="18"/>
<text text-anchor="middle" x="600" y="-518.3" font-family="Times,serif" font-size="14.00">token</text>
</g>
<!-- token_transfers&#45;&gt;token -->
<g id="edge7" class="edge">
<title>token_transfers&#45;&gt;token</title>
<path fill="none" stroke="black" d="M600,-575.7C600,-568.41 600,-559.73 600,-551.54"/>
<polygon fill="black" stroke="black" points="603.5,-551.62 600,-541.62 596.5,-551.62 603.5,-551.62"/>
</g>
<!-- vector -->
<g id="node9" class="node">
<title>vector</title>
<ellipse fill="none" stroke="black" cx="1164" cy="-18" rx="32.49" ry="18"/>
<text text-anchor="middle" x="1164" y="-14.3" font-family="Times,serif" font-size="14.00">vector</text>
</g>
<!-- string&#45;&gt;vector -->
<g id="edge8" class="edge">
<title>string&#45;&gt;vector</title>
<path fill="none" stroke="black" d="M442.01,-145.8C462.25,-124.98 501.87,-88.33 544,-72 649.38,-31.14 996.72,-21.67 1120.07,-19.57"/>
<polygon fill="black" stroke="black" points="1119.83,-23.07 1129.77,-19.41 1119.72,-16.07 1119.83,-23.07"/>
</g>
<!-- option -->
<g id="node10" class="node">
<title>option</title>
<ellipse fill="none" stroke="black" cx="1164" cy="-90" rx="33.29" ry="18"/>
<text text-anchor="middle" x="1164" y="-86.3" font-family="Times,serif" font-size="14.00">option</text>
</g>
<!-- string&#45;&gt;option -->
<g id="edge9" class="edge">
<title>string&#45;&gt;option</title>
<path fill="none" stroke="black" d="M450.83,-149.79C456.33,-147.52 462.28,-145.39 468,-144 592.43,-113.69 985.87,-97.3 1119.26,-92.51"/>
<polygon fill="black" stroke="black" points="1119.23,-96.01 1129.1,-92.16 1118.98,-89.01 1119.23,-96.01"/>
</g>
<!-- bcs -->
<g id="node11" class="node">
<title>bcs</title>
<ellipse fill="none" stroke="black" cx="941" cy="-234" rx="27" ry="18"/>
<text text-anchor="middle" x="941" y="-230.3" font-family="Times,serif" font-size="14.00">bcs</text>
</g>
<!-- event&#45;&gt;bcs -->
<g id="edge10" class="edge">
<title>event&#45;&gt;bcs</title>
<path fill="none" stroke="black" d="M1391.28,-359.92C1397.35,-340.06 1403.34,-307.53 1386,-288 1379.23,-280.38 1085.13,-249.7 978.83,-238.83"/>
<polygon fill="black" stroke="black" points="979.5,-235.39 969.2,-237.85 978.79,-242.35 979.5,-235.39"/>
</g>
<!-- guid -->
<g id="node12" class="node">
<title>guid</title>
<ellipse fill="none" stroke="black" cx="1350" cy="-306" rx="27" ry="18"/>
<text text-anchor="middle" x="1350" y="-302.3" font-family="Times,serif" font-size="14.00">guid</text>
</g>
<!-- event&#45;&gt;guid -->
<g id="edge11" class="edge">
<title>event&#45;&gt;guid</title>
<path fill="none" stroke="black" d="M1376.71,-360.41C1372.7,-352.39 1367.78,-342.57 1363.27,-333.54"/>
<polygon fill="black" stroke="black" points="1366.51,-332.2 1358.91,-324.82 1360.25,-335.33 1366.51,-332.2"/>
</g>
<!-- account&#45;&gt;signer -->
<g id="edge14" class="edge">
<title>account&#45;&gt;signer</title>
<path fill="none" stroke="black" d="M913.72,-448C832.02,-445.16 634.98,-434.55 475,-396 299.42,-353.69 206.16,-394.34 95,-252 65.25,-213.9 66.86,-154.46 71.15,-119.46"/>
<polygon fill="black" stroke="black" points="74.6,-120.06 72.52,-109.67 67.67,-119.09 74.6,-120.06"/>
</g>
<!-- account&#45;&gt;error -->
<g id="edge15" class="edge">
<title>account&#45;&gt;error</title>
<path fill="none" stroke="black" d="M913.66,-449.26C866.25,-447.62 785.41,-438.2 733,-396 705.29,-373.69 711.84,-356.78 698,-324 664.92,-245.64 678.27,-216.01 633,-144 625.75,-132.47 615.63,-121.43 606.24,-112.44"/>
<polygon fill="black" stroke="black" points="608.77,-110.01 599.04,-105.83 604.04,-115.17 608.77,-110.01"/>
</g>
<!-- account&#45;&gt;table -->
<g id="edge17" class="edge">
<title>account&#45;&gt;table</title>
<path fill="none" stroke="black" d="M989.83,-446.19C1070.17,-439.9 1263.62,-423.09 1424,-396 1436.57,-393.88 1450.2,-390.97 1462.34,-388.16"/>
<polygon fill="black" stroke="black" points="1463.06,-391.59 1471.98,-385.88 1461.44,-384.78 1463.06,-391.59"/>
</g>
<!-- account&#45;&gt;event -->
<g id="edge25" class="edge">
<title>account&#45;&gt;event</title>
<path fill="none" stroke="black" d="M988.36,-444.16C1083.39,-431.49 1332.46,-398.2 1341,-396 1344.3,-395.15 1347.7,-394.13 1351.06,-393.01"/>
<polygon fill="black" stroke="black" points="1351.94,-396.41 1360.16,-389.72 1349.57,-389.83 1351.94,-396.41"/>
</g>
<!-- account&#45;&gt;vector -->
<g id="edge12" class="edge">
<title>account&#45;&gt;vector</title>
<path fill="none" stroke="black" d="M979.47,-437.16C984.57,-435.25 989.9,-433.43 995,-432 1087.05,-406.29 1128.42,-450.39 1207,-396 1237.46,-374.92 1238.59,-359.55 1249,-324 1280.93,-214.96 1260.07,-171.93 1206,-72 1200.44,-61.73 1192.87,-51.44 1185.68,-42.7"/>
<polygon fill="black" stroke="black" points="1188.56,-40.69 1179.41,-35.36 1183.24,-45.24 1188.56,-40.69"/>
</g>
<!-- account&#45;&gt;option -->
<g id="edge13" class="edge">
<title>account&#45;&gt;option</title>
<path fill="none" stroke="black" d="M979.5,-437.28C984.6,-435.35 989.92,-433.49 995,-432 1074.11,-408.75 1116.71,-452.25 1177,-396 1259.59,-318.94 1253.88,-248.08 1210,-144 1205.24,-132.72 1197.13,-122.12 1189.03,-113.42"/>
<polygon fill="black" stroke="black" points="1191.66,-111.1 1182.13,-106.46 1186.69,-116.03 1191.66,-111.1"/>
</g>
<!-- account&#45;&gt;bcs -->
<g id="edge20" class="edge">
<title>account&#45;&gt;bcs</title>
<path fill="none" stroke="black" d="M951.12,-431.85C949.23,-395.14 944.79,-308.66 942.47,-263.53"/>
<polygon fill="black" stroke="black" points="945.97,-263.55 941.96,-253.74 938.98,-263.91 945.97,-263.55"/>
</g>
<!-- account&#45;&gt;guid -->
<g id="edge23" class="edge">
<title>account&#45;&gt;guid</title>
<path fill="none" stroke="black" d="M988.44,-443.94C1076.97,-431.58 1296.59,-400.55 1303,-396 1323.46,-381.47 1335.76,-355.24 1342.61,-335"/>
<polygon fill="black" stroke="black" points="1345.89,-336.23 1345.51,-325.64 1339.2,-334.16 1345.89,-336.23"/>
</g>
<!-- type_info -->
<g id="node13" class="node">
<title>type_info</title>
<ellipse fill="none" stroke="black" cx="547" cy="-234" rx="44.39" ry="18"/>
<text text-anchor="middle" x="547" y="-230.3" font-family="Times,serif" font-size="14.00">type_info</text>
</g>
<!-- account&#45;&gt;type_info -->
<g id="edge16" class="edge">
<title>account&#45;&gt;type_info</title>
<path fill="none" stroke="black" d="M913.68,-447.94C862.05,-445.02 768.71,-434.35 700,-396 668.61,-378.48 601.77,-301.06 567.78,-260.3"/>
<polygon fill="black" stroke="black" points="570.51,-258.11 561.43,-252.65 565.13,-262.58 570.51,-258.11"/>
</g>
<!-- system_addresses -->
<g id="node14" class="node">
<title>system_addresses</title>
<ellipse fill="none" stroke="black" cx="177" cy="-162" rx="73.39" ry="18"/>
<text text-anchor="middle" x="177" y="-158.3" font-family="Times,serif" font-size="14.00">system_addresses</text>
</g>
<!-- account&#45;&gt;system_addresses -->
<g id="edge18" class="edge">
<title>account&#45;&gt;system_addresses</title>
<path fill="none" stroke="black" d="M914.75,-445.65C857.84,-439.8 746.34,-425.43 656,-396 650.26,-394.13 334.7,-240.05 218.97,-183.51"/>
<polygon fill="black" stroke="black" points="220.61,-180.41 210.09,-179.17 217.54,-186.7 220.61,-180.41"/>
</g>
<!-- hash -->
<g id="node15" class="node">
<title>hash</title>
<ellipse fill="none" stroke="black" cx="1164" cy="-234" rx="27" ry="18"/>
<text text-anchor="middle" x="1164" y="-230.3" font-family="Times,serif" font-size="14.00">hash</text>
</g>
<!-- account&#45;&gt;hash -->
<g id="edge19" class="edge">
<title>account&#45;&gt;hash</title>
<path fill="none" stroke="black" d="M979.53,-437.39C984.63,-435.45 989.94,-433.56 995,-432 1064.66,-410.54 1107.9,-451.62 1155,-396 1186.37,-358.96 1179.37,-298.23 1171.59,-262.9"/>
<polygon fill="black" stroke="black" points="1175.06,-262.35 1169.33,-253.43 1168.25,-263.97 1175.06,-262.35"/>
</g>
<!-- ed25519 -->
<g id="node16" class="node">
<title>ed25519</title>
<ellipse fill="none" stroke="black" cx="1036" cy="-306" rx="40.89" ry="18"/>
<text text-anchor="middle" x="1036" y="-302.3" font-family="Times,serif" font-size="14.00">ed25519</text>
</g>
<!-- account&#45;&gt;ed25519 -->
<g id="edge21" class="edge">
<title>account&#45;&gt;ed25519</title>
<path fill="none" stroke="black" d="M961.97,-432.15C976.36,-407.81 1003.13,-362.57 1020.23,-333.67"/>
<polygon fill="black" stroke="black" points="1023.2,-335.52 1025.28,-325.13 1017.17,-331.95 1023.2,-335.52"/>
</g>
<!-- multi_ed25519 -->
<g id="node17" class="node">
<title>multi_ed25519</title>
<ellipse fill="none" stroke="black" cx="1082" cy="-378" rx="64.19" ry="18"/>
<text text-anchor="middle" x="1082" y="-374.3" font-family="Times,serif" font-size="14.00">multi_ed25519</text>
</g>
<!-- account&#45;&gt;multi_ed25519 -->
<g id="edge22" class="edge">
<title>account&#45;&gt;multi_ed25519</title>
<path fill="none" stroke="black" d="M976.45,-435.83C995.25,-425.71 1021.57,-411.54 1043.23,-399.88"/>
<polygon fill="black" stroke="black" points="1044.64,-403.09 1051.79,-395.27 1041.32,-396.93 1044.64,-403.09"/>
</g>
<!-- from_bcs -->
<g id="node18" class="node">
<title>from_bcs</title>
<ellipse fill="none" stroke="black" cx="528" cy="-378" rx="44.39" ry="18"/>
<text text-anchor="middle" x="528" y="-374.3" font-family="Times,serif" font-size="14.00">from_bcs</text>
</g>
<!-- account&#45;&gt;from_bcs -->
<g id="edge24" class="edge">
<title>account&#45;&gt;from_bcs</title>
<path fill="none" stroke="black" d="M916.05,-443.37C855.67,-433.88 730.07,-413.96 624,-396 609.51,-393.55 593.82,-390.8 579.39,-388.25"/>
<polygon fill="black" stroke="black" points="580.09,-384.82 569.64,-386.51 578.87,-391.71 580.09,-384.82"/>
</g>
<!-- token&#45;&gt;string -->
<g id="edge27" class="edge">
<title>token&#45;&gt;string</title>
<path fill="none" stroke="black" d="M569.35,-519.18C533.83,-515.39 475.97,-503.74 443,-468 371.72,-390.74 401.86,-250.19 419.07,-190.74"/>
<polygon fill="black" stroke="black" points="422.35,-192.01 421.87,-181.42 415.64,-189.99 422.35,-192.01"/>
</g>
<!-- token&#45;&gt;signer -->
<g id="edge28" class="edge">
<title>token&#45;&gt;signer</title>
<path fill="none" stroke="black" d="M569.74,-518.45C500.03,-512.18 330.21,-494.56 280,-468 162.74,-405.96 130.87,-371.85 74,-252 53.63,-209.08 61.19,-152.18 68.57,-118.79"/>
<polygon fill="black" stroke="black" points="71.88,-120.03 70.78,-109.49 65.06,-118.41 71.88,-120.03"/>
</g>
<!-- token&#45;&gt;error -->
<g id="edge29" class="edge">
<title>token&#45;&gt;error</title>
<path fill="none" stroke="black" d="M600.91,-503.77C603.16,-457.26 608.26,-325.3 600,-216 597.48,-182.71 591.25,-144.85 586.6,-119.6"/>
<polygon fill="black" stroke="black" points="590.05,-118.96 584.76,-109.78 583.17,-120.26 590.05,-118.96"/>
</g>
<!-- token&#45;&gt;table -->
<g id="edge30" class="edge">
<title>token&#45;&gt;table</title>
<path fill="none" stroke="black" d="M630.63,-520.93C775.47,-520.36 1387.44,-515.16 1457,-468 1477.43,-454.15 1488.17,-427.59 1493.66,-407.08"/>
<polygon fill="black" stroke="black" points="1497.01,-408.14 1495.91,-397.6 1490.2,-406.53 1497.01,-408.14"/>
</g>
<!-- token&#45;&gt;event -->
<g id="edge31" class="edge">
<title>token&#45;&gt;event</title>
<path fill="none" stroke="black" d="M630.16,-517.84C696.9,-510.67 862.01,-491.91 999,-468 1147.74,-442.04 1185.06,-434.71 1331,-396 1336.67,-394.5 1342.64,-392.77 1348.45,-391"/>
<polygon fill="black" stroke="black" points="1349.37,-394.38 1357.88,-388.06 1347.29,-387.7 1349.37,-394.38"/>
</g>
<!-- token&#45;&gt;account -->
<g id="edge32" class="edge">
<title>token&#45;&gt;account</title>
<path fill="none" stroke="black" d="M628.81,-515.27C689.75,-503.15 832.16,-474.83 905.91,-460.17"/>
<polygon fill="black" stroke="black" points="906.53,-463.61 915.65,-458.23 905.16,-456.75 906.53,-463.61"/>
</g>
<!-- token&#45;&gt;option -->
<g id="edge26" class="edge">
<title>token&#45;&gt;option</title>
<path fill="none" stroke="black" d="M630.66,-521.56C767.82,-523.34 1322.76,-522.54 1424,-396 1514.01,-283.49 1288.27,-153.43 1198.71,-107.83"/>
<polygon fill="black" stroke="black" points="1200.36,-104.74 1189.85,-103.37 1197.21,-110.99 1200.36,-104.74"/>
</g>
<!-- timestamp -->
<g id="node19" class="node">
<title>timestamp</title>
<ellipse fill="none" stroke="black" cx="152" cy="-234" rx="48.19" ry="18"/>
<text text-anchor="middle" x="152" y="-230.3" font-family="Times,serif" font-size="14.00">timestamp</text>
</g>
<!-- token&#45;&gt;timestamp -->
<g id="edge33" class="edge">
<title>token&#45;&gt;timestamp</title>
<path fill="none" stroke="black" d="M569.29,-521.91C516.04,-522.06 404.92,-516.03 328,-468 245.85,-416.7 188.29,-312.2 164.37,-262.48"/>
<polygon fill="black" stroke="black" points="167.6,-261.11 160.17,-253.55 161.26,-264.09 167.6,-261.11"/>
</g>
<!-- property_map -->
<g id="node20" class="node">
<title>property_map</title>
<ellipse fill="none" stroke="black" cx="512" cy="-450" rx="60.39" ry="18"/>
<text text-anchor="middle" x="512" y="-446.3" font-family="Times,serif" font-size="14.00">property_map</text>
</g>
<!-- token&#45;&gt;property_map -->
<g id="edge34" class="edge">
<title>token&#45;&gt;property_map</title>
<path fill="none" stroke="black" d="M582.19,-506.83C570.52,-497.55 554.99,-485.19 541.5,-474.46"/>
<polygon fill="black" stroke="black" points="543.75,-471.78 533.74,-468.3 539.39,-477.26 543.75,-471.78"/>
</g>
<!-- option&#45;&gt;vector -->
<g id="edge35" class="edge">
<title>option&#45;&gt;vector</title>
<path fill="none" stroke="black" d="M1164,-71.7C1164,-64.41 1164,-55.73 1164,-47.54"/>
<polygon fill="black" stroke="black" points="1167.5,-47.62 1164,-37.62 1160.5,-47.62 1167.5,-47.62"/>
</g>
<!-- type_info&#45;&gt;string -->
<g id="edge36" class="edge">
<title>type_info&#45;&gt;string</title>
<path fill="none" stroke="black" d="M522.63,-218.67C504.22,-207.83 478.81,-192.89 458.96,-181.21"/>
<polygon fill="black" stroke="black" points="460.85,-178.26 450.45,-176.21 457.3,-184.3 460.85,-178.26"/>
</g>
<!-- type_info&#45;&gt;error -->
<g id="edge37" class="edge">
<title>type_info&#45;&gt;error</title>
<path fill="none" stroke="black" d="M552.15,-215.89C555.19,-205.54 559.01,-192.07 562,-180 567.01,-159.82 571.89,-136.86 575.45,-119.32"/>
<polygon fill="black" stroke="black" points="578.86,-120.11 577.39,-109.62 571.99,-118.74 578.86,-120.11"/>
</g>
<!-- features -->
<g id="node21" class="node">
<title>features</title>
<ellipse fill="none" stroke="black" cx="515" cy="-162" rx="38.19" ry="18"/>
<text text-anchor="middle" x="515" y="-158.3" font-family="Times,serif" font-size="14.00">features</text>
</g>
<!-- type_info&#45;&gt;features -->
<g id="edge38" class="edge">
<title>type_info&#45;&gt;features</title>
<path fill="none" stroke="black" d="M539.25,-216.05C535.68,-208.23 531.34,-198.75 527.33,-189.98"/>
<polygon fill="black" stroke="black" points="530.65,-188.81 523.3,-181.17 524.28,-191.72 530.65,-188.81"/>
</g>
<!-- system_addresses&#45;&gt;signer -->
<g id="edge39" class="edge">
<title>system_addresses&#45;&gt;signer</title>
<path fill="none" stroke="black" d="M153.32,-144.59C138.83,-134.55 120.2,-121.63 104.86,-111"/>
<polygon fill="black" stroke="black" points="107.25,-108.4 97.04,-105.58 103.26,-114.15 107.25,-108.4"/>
</g>
<!-- system_addresses&#45;&gt;error -->
<g id="edge40" class="edge">
<title>system_addresses&#45;&gt;error</title>
<path fill="none" stroke="black" d="M232.65,-149.89C243.06,-147.88 253.85,-145.84 264,-144 364.37,-125.81 483.05,-106.57 542.7,-97.06"/>
<polygon fill="black" stroke="black" points="543,-100.55 552.32,-95.53 541.9,-93.64 543,-100.55"/>
</g>
<!-- ed25519&#45;&gt;error -->
<g id="edge42" class="edge">
<title>ed25519&#45;&gt;error</title>
<path fill="none" stroke="black" d="M1029.02,-288.04C1019.93,-267.99 1002.17,-234.96 977,-216 865.49,-132.01 696.1,-103.56 620.19,-94.69"/>
<polygon fill="black" stroke="black" points="620.67,-91.22 610.34,-93.59 619.89,-98.17 620.67,-91.22"/>
</g>
<!-- ed25519&#45;&gt;option -->
<g id="edge41" class="edge">
<title>ed25519&#45;&gt;option</title>
<path fill="none" stroke="black" d="M1046.04,-288.21C1068.25,-251.08 1121.66,-161.79 1148.31,-117.23"/>
<polygon fill="black" stroke="black" points="1151.27,-119.1 1153.4,-108.72 1145.26,-115.5 1151.27,-119.1"/>
</g>
<!-- ed25519&#45;&gt;bcs -->
<g id="edge45" class="edge">
<title>ed25519&#45;&gt;bcs</title>
<path fill="none" stroke="black" d="M1015.85,-290.15C1001.78,-279.79 982.85,-265.84 967.55,-254.56"/>
<polygon fill="black" stroke="black" points="969.91,-251.95 959.78,-248.84 965.76,-257.59 969.91,-251.95"/>
</g>
<!-- ed25519&#45;&gt;type_info -->
<g id="edge43" class="edge">
<title>ed25519&#45;&gt;type_info</title>
<path fill="none" stroke="black" d="M997.63,-299.51C910.67,-287.06 698.5,-256.69 599.49,-242.51"/>
<polygon fill="black" stroke="black" points="600.17,-239.08 589.78,-241.12 599.18,-246.01 600.17,-239.08"/>
</g>
<!-- ed25519&#45;&gt;hash -->
<g id="edge44" class="edge">
<title>ed25519&#45;&gt;hash</title>
<path fill="none" stroke="black" d="M1060.98,-291.34C1081.84,-279.93 1111.62,-263.64 1133.81,-251.51"/>
<polygon fill="black" stroke="black" points="1135.29,-254.69 1142.38,-246.82 1131.93,-248.55 1135.29,-254.69"/>
</g>
<!-- multi_ed25519&#45;&gt;error -->
<g id="edge47" class="edge">
<title>multi_ed25519&#45;&gt;error</title>
<path fill="none" stroke="black" d="M1087.18,-359.76C1091.78,-341.18 1096.32,-311.17 1086,-288 1042.46,-190.23 992.87,-182.48 893,-144 799.52,-107.98 680.91,-96.38 620.41,-92.69"/>
<polygon fill="black" stroke="black" points="620.8,-89.21 610.61,-92.14 620.4,-96.2 620.8,-89.21"/>
</g>
<!-- multi_ed25519&#45;&gt;option -->
<g id="edge46" class="edge">
<title>multi_ed25519&#45;&gt;option</title>
<path fill="none" stroke="black" d="M1106.52,-360.91C1135.8,-339.96 1182.98,-300.27 1200,-252 1216.26,-205.89 1194.83,-149.69 1178.74,-117.35"/>
<polygon fill="black" stroke="black" points="1181.96,-115.96 1174.25,-108.7 1175.75,-119.18 1181.96,-115.96"/>
</g>
<!-- multi_ed25519&#45;&gt;bcs -->
<g id="edge49" class="edge">
<title>multi_ed25519&#45;&gt;bcs</title>
<path fill="none" stroke="black" d="M1045.29,-363.03C1025.79,-354.17 1002.52,-341.13 986,-324 969.2,-306.58 957.33,-281.65 950.02,-262.6"/>
<polygon fill="black" stroke="black" points="953.35,-261.53 946.65,-253.32 946.77,-263.91 953.35,-261.53"/>
</g>
<!-- multi_ed25519&#45;&gt;hash -->
<g id="edge48" class="edge">
<title>multi_ed25519&#45;&gt;hash</title>
<path fill="none" stroke="black" d="M1094.63,-360.22C1102.09,-349.99 1111.51,-336.52 1119,-324 1131.14,-303.69 1143.14,-279.71 1151.69,-261.76"/>
<polygon fill="black" stroke="black" points="1154.81,-263.36 1155.9,-252.82 1148.47,-260.38 1154.81,-263.36"/>
</g>
<!-- multi_ed25519&#45;&gt;ed25519 -->
<g id="edge50" class="edge">
<title>multi_ed25519&#45;&gt;ed25519</title>
<path fill="none" stroke="black" d="M1070.86,-360.05C1065.61,-352.06 1059.22,-342.33 1053.35,-333.4"/>
<polygon fill="black" stroke="black" points="1056.28,-331.49 1047.86,-325.05 1050.43,-335.33 1056.28,-331.49"/>
</g>
<!-- from_bcs&#45;&gt;string -->
<g id="edge51" class="edge">
<title>from_bcs&#45;&gt;string</title>
<path fill="none" stroke="black" d="M519.99,-359.85C502.64,-322.73 461.5,-234.69 440.62,-190.01"/>
<polygon fill="black" stroke="black" points="443.82,-188.59 436.42,-181.01 437.48,-191.55 443.82,-188.59"/>
</g>
<!-- timestamp&#45;&gt;error -->
<g id="edge52" class="edge">
<title>timestamp&#45;&gt;error</title>
<path fill="none" stroke="black" d="M183.03,-219.99C204.98,-210.23 234.7,-195.87 259,-180 279.87,-166.37 279.47,-154.67 302,-144 381.49,-106.34 485.69,-95.43 541.55,-92.28"/>
<polygon fill="black" stroke="black" points="541.72,-95.77 551.53,-91.78 541.37,-88.78 541.72,-95.77"/>
</g>
<!-- timestamp&#45;&gt;system_addresses -->
<g id="edge53" class="edge">
<title>timestamp&#45;&gt;system_addresses</title>
<path fill="none" stroke="black" d="M158.18,-215.7C160.87,-208.15 164.1,-199.12 167.11,-190.68"/>
<polygon fill="black" stroke="black" points="170.31,-192.12 170.38,-181.53 163.72,-189.77 170.31,-192.12"/>
</g>
<!-- property_map&#45;&gt;string -->
<g id="edge54" class="edge">
<title>property_map&#45;&gt;string</title>
<path fill="none" stroke="black" d="M494.36,-432.47C485.06,-422.74 474.3,-409.69 468,-396 436.4,-327.36 429.56,-236.93 428.22,-191.56"/>
<polygon fill="black" stroke="black" points="431.72,-191.7 428,-181.78 424.72,-191.85 431.72,-191.7"/>
</g>
<!-- property_map&#45;&gt;error -->
<g id="edge55" class="edge">
<title>property_map&#45;&gt;error</title>
<path fill="none" stroke="black" d="M488.28,-433.08C475.86,-423.63 461.34,-410.65 452,-396 389.87,-298.57 317.94,-235.89 388,-144 406.62,-119.58 491.51,-103.62 542.3,-96.07"/>
<polygon fill="black" stroke="black" points="542.6,-99.57 552,-94.68 541.61,-92.64 542.6,-99.57"/>
</g>
<!-- property_map&#45;&gt;bcs -->
<g id="edge57" class="edge">
<title>property_map&#45;&gt;bcs</title>
<path fill="none" stroke="black" d="M571.69,-446.49C658.99,-441.75 816,-428.82 861,-396 905.26,-363.72 926.43,-300.03 935.37,-263.17"/>
<polygon fill="black" stroke="black" points="938.72,-264.22 937.52,-253.69 931.9,-262.67 938.72,-264.22"/>
</g>
<!-- property_map&#45;&gt;type_info -->
<g id="edge56" class="edge">
<title>property_map&#45;&gt;type_info</title>
<path fill="none" stroke="black" d="M496.35,-432.31C488.27,-422.54 479.24,-409.49 475,-396 470.2,-380.74 470.87,-375.46 475,-360 485.01,-322.58 509.21,-284.74 526.8,-260.65"/>
<polygon fill="black" stroke="black" points="529.54,-262.83 532.73,-252.73 523.93,-258.64 529.54,-262.83"/>
</g>
<!-- property_map&#45;&gt;from_bcs -->
<g id="edge58" class="edge">
<title>property_map&#45;&gt;from_bcs</title>
<path fill="none" stroke="black" d="M515.96,-431.7C517.64,-424.32 519.65,-415.52 521.54,-407.25"/>
<polygon fill="black" stroke="black" points="524.94,-408.11 523.75,-397.58 518.11,-406.55 524.94,-408.11"/>
</g>
<!-- simple_map -->
<g id="node22" class="node">
<title>simple_map</title>
<ellipse fill="none" stroke="black" cx="797" cy="-378" rx="54.69" ry="18"/>
<text text-anchor="middle" x="797" y="-374.3" font-family="Times,serif" font-size="14.00">simple_map</text>
</g>
<!-- property_map&#45;&gt;simple_map -->
<g id="edge59" class="edge">
<title>property_map&#45;&gt;simple_map</title>
<path fill="none" stroke="black" d="M557.47,-437.83C607.95,-425.43 689.34,-405.44 743.01,-392.26"/>
<polygon fill="black" stroke="black" points="743.67,-395.7 752.55,-389.92 742,-388.9 743.67,-395.7"/>
</g>
<!-- features&#45;&gt;signer -->
<g id="edge60" class="edge">
<title>features&#45;&gt;signer</title>
<path fill="none" stroke="black" d="M486.47,-149.59C480.44,-147.49 474.07,-145.49 468,-144 343.86,-113.52 193,-99.35 119.91,-93.88"/>
<polygon fill="black" stroke="black" points="120.18,-90.39 109.95,-93.15 119.67,-97.37 120.18,-90.39"/>
</g>
<!-- features&#45;&gt;error -->
<g id="edge61" class="edge">
<title>features&#45;&gt;error</title>
<path fill="none" stroke="black" d="M529.98,-145.12C538.65,-135.91 549.73,-124.17 559.34,-113.97"/>
<polygon fill="black" stroke="black" points="561.63,-116.64 565.95,-106.97 556.54,-111.84 561.63,-116.64"/>
</g>
<!-- simple_map&#45;&gt;error -->
<g id="edge63" class="edge">
<title>simple_map&#45;&gt;error</title>
<path fill="none" stroke="black" d="M766.32,-362.89C750.02,-353.92 730.94,-340.82 719,-324 671.08,-256.48 721.08,-209.93 671,-144 657,-125.57 634.58,-112.34 615.62,-103.71"/>
<polygon fill="black" stroke="black" points="617.2,-100.57 606.63,-99.86 614.45,-107.01 617.2,-100.57"/>
</g>
<!-- simple_map&#45;&gt;option -->
<g id="edge62" class="edge">
<title>simple_map&#45;&gt;option</title>
<path fill="none" stroke="black" d="M778.54,-360.75C760.15,-342.52 736.67,-312.31 752,-288 834.84,-156.57 1032.25,-110.92 1120.3,-96.74"/>
<polygon fill="black" stroke="black" points="1120.64,-100.23 1129.99,-95.24 1119.57,-93.31 1120.64,-100.23"/>
</g>
<!-- comparator -->
<g id="node23" class="node">
<title>comparator</title>
<ellipse fill="none" stroke="black" cx="812" cy="-306" rx="51.19" ry="18"/>
<text text-anchor="middle" x="812" y="-302.3" font-family="Times,serif" font-size="14.00">comparator</text>
</g>
<!-- simple_map&#45;&gt;comparator -->
<g id="edge64" class="edge">
<title>simple_map&#45;&gt;comparator</title>
<path fill="none" stroke="black" d="M800.71,-359.7C802.29,-352.32 804.17,-343.52 805.95,-335.25"/>
<polygon fill="black" stroke="black" points="809.34,-336.1 808.02,-325.58 802.5,-334.63 809.34,-336.1"/>
</g>
<!-- comparator&#45;&gt;bcs -->
<g id="edge65" class="edge">
<title>comparator&#45;&gt;bcs</title>
<path fill="none" stroke="black" d="M839.04,-290.33C859.87,-279.03 888.67,-263.4 910.35,-251.63"/>
<polygon fill="black" stroke="black" points="911.9,-254.77 919.02,-246.93 908.56,-248.62 911.9,-254.77"/>
</g>
</g>
</svg>
