<?xml version="1.0" encoding="UTF-8" standalone="no"?>
<!DOCTYPE svg PUBLIC "-//W3C//DTD SVG 1.1//EN"
 "http://www.w3.org/Graphics/SVG/1.1/DTD/svg11.dtd">
<!-- Generated by graphviz version 7.0.0 (20221023.0053)
 -->
<!-- Title: G Pages: 1 -->
<svg width="931pt" height="282pt"
 viewBox="0.00 0.00 931.00 282.00" xmlns="http://www.w3.org/2000/svg" xmlns:xlink="http://www.w3.org/1999/xlink">
<g id="graph0" class="graph" transform="scale(1 1) rotate(0) translate(4 278)">
<title>G</title>
<polygon fill="white" stroke="none" points="-4,4 -4,-278 927,-278 927,4 -4,4"/>
<g id="clust1" class="cluster">
<title>cluster_signer</title>
<polygon fill="none" stroke="black" points="8,-80 8,-230 158,-230 158,-80 8,-80"/>
<text text-anchor="middle" x="83" y="-214.8" font-family="Times,serif" font-size="14.00">signer</text>
</g>
<g id="clust2" class="cluster">
<title>cluster_error</title>
<polygon fill="none" stroke="black" points="166,-8 166,-155 613,-155 613,-8 166,-8"/>
<text text-anchor="middle" x="389.5" y="-139.8" font-family="Times,serif" font-size="14.00">error</text>
</g>
<g id="clust3" class="cluster">
<title>cluster_table</title>
<polygon fill="none" stroke="black" points="621,-8 621,-155 915,-155 915,-8 621,-8"/>
<text text-anchor="middle" x="768" y="-139.8" font-family="Times,serif" font-size="14.00">table</text>
</g>
<!-- mutate_collection_maximum -->
<g id="node1" class="node">
<title>mutate_collection_maximum</title>
<ellipse fill="none" stroke="black" cx="416" cy="-256" rx="115.88" ry="18"/>
<text text-anchor="middle" x="416" y="-252.3" font-family="Times,serif" font-size="14.00">mutate_collection_maximum</text>
</g>
<!-- signer::address_of -->
<g id="node2" class="node">
<title>signer::address_of</title>
<ellipse fill="none" stroke="black" cx="92" cy="-181" rx="48.99" ry="18"/>
<text text-anchor="middle" x="92" y="-177.3" font-family="Times,serif" font-size="14.00">address_of</text>
</g>
<!-- mutate_collection_maximum&#45;&gt;signer::address_of -->
<g id="edge1" class="edge">
<title>mutate_collection_maximum&#45;&gt;signer::address_of</title>
<path fill="none" stroke="black" d="M349.13,-240.92C332.73,-237.41 315.22,-233.61 299,-230 245.9,-218.17 185.28,-204.04 143.43,-194.19"/>
<polygon fill="black" stroke="black" points="144.42,-190.82 133.88,-191.94 142.81,-197.64 144.42,-190.82"/>
</g>
<!-- error::invalid_argument -->
<g id="node3" class="node">
<title>error::invalid_argument</title>
<ellipse fill="none" stroke="black" cx="247" cy="-106" rx="73.39" ry="18"/>
<text text-anchor="middle" x="247" y="-102.3" font-family="Times,serif" font-size="14.00">invalid_argument</text>
</g>
<!-- mutate_collection_maximum&#45;&gt;error::invalid_argument -->
<g id="edge2" class="edge">
<title>mutate_collection_maximum&#45;&gt;error::invalid_argument</title>
<path fill="none" stroke="black" d="M396.61,-238.02C366.69,-211.82 309.12,-161.4 274.77,-131.32"/>
<polygon fill="black" stroke="black" points="277.13,-128.73 267.3,-124.78 272.52,-134 277.13,-128.73"/>
</g>
<!-- error::permission_denied -->
<g id="node4" class="node">
<title>error::permission_denied</title>
<ellipse fill="none" stroke="black" cx="416" cy="-106" rx="77.19" ry="18"/>
<text text-anchor="middle" x="416" y="-102.3" font-family="Times,serif" font-size="14.00">permission_denied</text>
</g>
<!-- mutate_collection_maximum&#45;&gt;error::permission_denied -->
<g id="edge3" class="edge">
<title>mutate_collection_maximum&#45;&gt;error::permission_denied</title>
<path fill="none" stroke="black" d="M416,-237.73C416,-212.67 416,-165.9 416,-135.63"/>
<polygon fill="black" stroke="black" points="419.5,-135.67 416,-125.67 412.5,-135.67 419.5,-135.67"/>
</g>
<!-- table::borrow_mut -->
<g id="node5" class="node">
<title>table::borrow_mut</title>
<ellipse fill="none" stroke="black" cx="813" cy="-106" rx="54.69" ry="18"/>
<text text-anchor="middle" x="813" y="-102.3" font-family="Times,serif" font-size="14.00">borrow_mut</text>
</g>
<!-- mutate_collection_maximum&#45;&gt;table::borrow_mut -->
<g id="edge4" class="edge">
<title>mutate_collection_maximum&#45;&gt;table::borrow_mut</title>
<path fill="none" stroke="black" d="M525.66,-249.91C578.95,-246.21 636.64,-240.04 661,-230 714.19,-208.07 763.57,-161.28 790.87,-132.14"/>
<polygon fill="black" stroke="black" points="793.4,-134.56 797.59,-124.83 788.25,-129.83 793.4,-134.56"/>
</g>
<!-- assert_collection_exists -->
<g id="node6" class="node">
<title>assert_collection_exists</title>
<ellipse fill="none" stroke="black" cx="558" cy="-181" rx="94.48" ry="18"/>
<text text-anchor="middle" x="558" y="-177.3" font-family="Times,serif" font-size="14.00">assert_collection_exists</text>
</g>
<!-- mutate_collection_maximum&#45;&gt;assert_collection_exists -->
<g id="edge5" class="edge">
<title>mutate_collection_maximum&#45;&gt;assert_collection_exists</title>
<path fill="none" stroke="black" d="M448.58,-238.25C468.56,-227.98 494.36,-214.72 515.88,-203.65"/>
<polygon fill="black" stroke="black" points="517.42,-206.8 524.72,-199.11 514.22,-200.57 517.42,-206.8"/>
</g>
<!-- signer::borrow_address -->
<g id="node7" class="node">
<title>signer::borrow_address</title>
<ellipse fill="none" stroke="black" cx="83" cy="-106" rx="66.89" ry="18"/>
<text text-anchor="middle" x="83" y="-102.3" font-family="Times,serif" font-size="14.00">borrow_address</text>
</g>
<!-- signer::address_of&#45;&gt;signer::borrow_address -->
<g id="edge6" class="edge">
<title>signer::address_of&#45;&gt;signer::borrow_address</title>
<path fill="none" stroke="black" d="M89.87,-162.7C88.88,-154.67 87.67,-144.9 86.55,-135.8"/>
<polygon fill="black" stroke="black" points="90.03,-135.43 85.33,-125.93 83.08,-136.28 90.03,-135.43"/>
</g>
<!-- error::canonical -->
<g id="node8" class="node">
<title>error::canonical</title>
<ellipse fill="none" stroke="black" cx="416" cy="-34" rx="44.39" ry="18"/>
<text text-anchor="middle" x="416" y="-30.3" font-family="Times,serif" font-size="14.00">canonical</text>
</g>
<!-- error::invalid_argument&#45;&gt;error::canonical -->
<g id="edge7" class="edge">
<title>error::invalid_argument&#45;&gt;error::canonical</title>
<path fill="none" stroke="black" d="M283.25,-89.98C310.35,-78.76 347.38,-63.42 375.46,-51.79"/>
<polygon fill="black" stroke="black" points="376.44,-55.18 384.34,-48.11 373.76,-48.71 376.44,-55.18"/>
</g>
<!-- error::permission_denied&#45;&gt;error::canonical -->
<g id="edge8" class="edge">
<title>error::permission_denied&#45;&gt;error::canonical</title>
<path fill="none" stroke="black" d="M416,-87.7C416,-80.41 416,-71.73 416,-63.54"/>
<polygon fill="black" stroke="black" points="419.5,-63.62 416,-53.62 412.5,-63.62 419.5,-63.62"/>
</g>
<!-- table::borrow_box_mut -->
<g id="node9" class="node">
<title>table::borrow_box_mut</title>
<ellipse fill="none" stroke="black" cx="835" cy="-34" rx="72.29" ry="18"/>
<text text-anchor="middle" x="835" y="-30.3" font-family="Times,serif" font-size="14.00">borrow_box_mut</text>
</g>
<!-- table::borrow_mut&#45;&gt;table::borrow_box_mut -->
<g id="edge9" class="edge">
<title>table::borrow_mut&#45;&gt;table::borrow_box_mut</title>
<path fill="none" stroke="black" d="M818.44,-87.7C820.78,-80.24 823.58,-71.32 826.21,-62.97"/>
<polygon fill="black" stroke="black" points="829.51,-64.14 829.17,-53.55 822.83,-62.04 829.51,-64.14"/>
</g>
<!-- error::not_found -->
<g id="node10" class="node">
<title>error::not_found</title>
<ellipse fill="none" stroke="black" cx="558" cy="-106" rx="46.59" ry="18"/>
<text text-anchor="middle" x="558" y="-102.3" font-family="Times,serif" font-size="14.00">not_found</text>
</g>
<!-- assert_collection_exists&#45;&gt;error::not_found -->
<g id="edge10" class="edge">
<title>assert_collection_exists&#45;&gt;error::not_found</title>
<path fill="none" stroke="black" d="M558,-162.7C558,-154.67 558,-144.9 558,-135.8"/>
<polygon fill="black" stroke="black" points="561.5,-135.94 558,-125.94 554.5,-135.94 561.5,-135.94"/>
</g>
<!-- table::contains -->
<g id="node11" class="node">
<title>table::contains</title>
<ellipse fill="none" stroke="black" cx="678" cy="-106" rx="40.09" ry="18"/>
<text text-anchor="middle" x="678" y="-102.3" font-family="Times,serif" font-size="14.00">contains</text>
</g>
<!-- assert_collection_exists&#45;&gt;table::contains -->
<g id="edge11" class="edge">
<title>assert_collection_exists&#45;&gt;table::contains</title>
<path fill="none" stroke="black" d="M598.69,-164.45C604.96,-161.57 611.25,-158.4 617,-155 629.2,-147.79 641.68,-138.4 652.14,-129.84"/>
<polygon fill="black" stroke="black" points="654.19,-132.69 659.6,-123.58 649.69,-127.33 654.19,-132.69"/>
</g>
<!-- error::not_found&#45;&gt;error::canonical -->
<g id="edge12" class="edge">
<title>error::not_found&#45;&gt;error::canonical</title>
<path fill="none" stroke="black" d="M529.95,-91.17C508.12,-80.41 477.62,-65.38 453.67,-53.57"/>
<polygon fill="black" stroke="black" points="455.39,-50.51 444.87,-49.23 452.29,-56.79 455.39,-50.51"/>
</g>
<!-- table::contains_box -->
<g id="node12" class="node">
<title>table::contains_box</title>
<ellipse fill="none" stroke="black" cx="687" cy="-34" rx="57.69" ry="18"/>
<text text-anchor="middle" x="687" y="-30.3" font-family="Times,serif" font-size="14.00">contains_box</text>
</g>
<!-- table::contains&#45;&gt;table::contains_box -->
<g id="edge13" class="edge">
<title>table::contains&#45;&gt;table::contains_box</title>
<path fill="none" stroke="black" d="M680.22,-87.7C681.17,-80.32 682.3,-71.52 683.37,-63.25"/>
<polygon fill="black" stroke="black" points="686.8,-63.97 684.61,-53.61 679.86,-63.08 686.8,-63.97"/>
</g>
</g>
</svg>
