<?xml version="1.0" encoding="UTF-8" standalone="no"?>
<!DOCTYPE svg PUBLIC "-//W3C//DTD SVG 1.1//EN"
 "http://www.w3.org/Graphics/SVG/1.1/DTD/svg11.dtd">
<!-- Generated by graphviz version 7.0.0 (20221023.0053)
 -->
<!-- Title: G Pages: 1 -->
<svg width="2053pt" height="689pt"
 viewBox="0.00 0.00 2053.00 689.00" xmlns="http://www.w3.org/2000/svg" xmlns:xlink="http://www.w3.org/1999/xlink">
<g id="graph0" class="graph" transform="scale(1 1) rotate(0) translate(4 685)">
<title>G</title>
<polygon fill="white" stroke="none" points="-4,4 -4,-685 2049,-685 2049,4 -4,4"/>
<g id="clust1" class="cluster">
<title>cluster_string</title>
<polygon fill="none" stroke="black" points="199,-415 199,-490 279,-490 279,-415 199,-415"/>
<text text-anchor="middle" x="239" y="-474.8" font-family="Times,serif" font-size="14.00">string</text>
</g>
<g id="clust2" class="cluster">
<title>cluster_signer</title>
<polygon fill="none" stroke="black" points="1887,-91 1887,-249 2037,-249 2037,-91 1887,-91"/>
<text text-anchor="middle" x="1962" y="-233.8" font-family="Times,serif" font-size="14.00">signer</text>
</g>
<g id="clust3" class="cluster">
<title>cluster_error</title>
<polygon fill="none" stroke="black" points="8,-174 8,-332 594,-332 594,-174 8,-174"/>
<text text-anchor="middle" x="301" y="-316.8" font-family="Times,serif" font-size="14.00">error</text>
</g>
<g id="clust4" class="cluster">
<title>cluster_table</title>
<polygon fill="none" stroke="black" points="897,-257 897,-407 1459,-407 1459,-257 897,-257"/>
<text text-anchor="middle" x="1178" y="-391.8" font-family="Times,serif" font-size="14.00">table</text>
</g>
<g id="clust5" class="cluster">
<title>cluster_event</title>
<polygon fill="none" stroke="black" points="1467,-174 1467,-332 1755,-332 1755,-174 1467,-174"/>
<text text-anchor="middle" x="1611" y="-316.8" font-family="Times,serif" font-size="14.00">event</text>
</g>
<g id="clust6" class="cluster">
<title>cluster_property_map</title>
<polygon fill="none" stroke="black" points="762,-415 762,-565 855,-565 855,-415 762,-415"/>
<text text-anchor="middle" x="808.5" y="-549.8" font-family="Times,serif" font-size="14.00">property_map</text>
</g>
<g id="clust7" class="cluster">
<title>cluster_bcs</title>
<polygon fill="none" stroke="black" points="862,-91 862,-166 958,-166 958,-91 862,-91"/>
<text text-anchor="middle" x="910" y="-150.8" font-family="Times,serif" font-size="14.00">bcs</text>
</g>
<g id="clust8" class="cluster">
<title>cluster_simple_map</title>
<polygon fill="none" stroke="black" points="707,-257 707,-407 859,-407 859,-257 707,-257"/>
<text text-anchor="middle" x="783" y="-391.8" font-family="Times,serif" font-size="14.00">simple_map</text>
</g>
<g id="clust9" class="cluster">
<title>cluster_option</title>
<polygon fill="none" stroke="black" points="966,-91 966,-249 1297,-249 1297,-91 966,-91"/>
<text text-anchor="middle" x="1131.5" y="-233.8" font-family="Times,serif" font-size="14.00">option</text>
</g>
<g id="clust10" class="cluster">
<title>cluster_account</title>
<polygon fill="none" stroke="black" points="1763,-257 1763,-407 1933,-407 1933,-257 1763,-257"/>
<text text-anchor="middle" x="1848" y="-391.8" font-family="Times,serif" font-size="14.00">account</text>
</g>
<g id="clust11" class="cluster">
<title>cluster_vector</title>
<polygon fill="none" stroke="black" points="1144,-8 1144,-83 1351,-83 1351,-8 1144,-8"/>
<text text-anchor="middle" x="1247.5" y="-67.8" font-family="Times,serif" font-size="14.00">vector</text>
</g>
<g id="clust12" class="cluster">
<title>cluster_comparator</title>
<polygon fill="none" stroke="black" points="602,-91 602,-249 854,-249 854,-91 602,-91"/>
<text text-anchor="middle" x="728" y="-233.8" font-family="Times,serif" font-size="14.00">comparator</text>
</g>
<g id="clust13" class="cluster">
<title>cluster_guid</title>
<polygon fill="none" stroke="black" points="1799,-174 1799,-249 1879,-249 1879,-174 1799,-174"/>
<text text-anchor="middle" x="1839" y="-233.8" font-family="Times,serif" font-size="14.00">guid</text>
</g>
<!-- create_token_script -->
<g id="node1" class="node">
<title>create_token_script</title>
<ellipse fill="none" stroke="black" cx="838" cy="-663" rx="79.09" ry="18"/>
<text text-anchor="middle" x="838" y="-659.3" font-family="Times,serif" font-size="14.00">create_token_script</text>
</g>
<!-- create_token_mutability_config -->
<g id="node2" class="node">
<title>create_token_mutability_config</title>
<ellipse fill="none" stroke="black" cx="626" cy="-591" rx="123.48" ry="18"/>
<text text-anchor="middle" x="626" y="-587.3" font-family="Times,serif" font-size="14.00">create_token_mutability_config</text>
</g>
<!-- create_token_script&#45;&gt;create_token_mutability_config -->
<g id="edge1" class="edge">
<title>create_token_script&#45;&gt;create_token_mutability_config</title>
<path fill="none" stroke="black" d="M794.33,-647.58C762.83,-637.18 719.94,-623.02 685.34,-611.59"/>
<polygon fill="black" stroke="black" points="686.45,-608.27 675.86,-608.46 684.26,-614.92 686.45,-608.27"/>
</g>
<!-- create_tokendata -->
<g id="node3" class="node">
<title>create_tokendata</title>
<ellipse fill="none" stroke="black" cx="838" cy="-591" rx="70.39" ry="18"/>
<text text-anchor="middle" x="838" y="-587.3" font-family="Times,serif" font-size="14.00">create_tokendata</text>
</g>
<!-- create_token_script&#45;&gt;create_tokendata -->
<g id="edge2" class="edge">
<title>create_token_script&#45;&gt;create_tokendata</title>
<path fill="none" stroke="black" d="M838,-644.7C838,-637.41 838,-628.73 838,-620.54"/>
<polygon fill="black" stroke="black" points="841.5,-620.62 838,-610.62 834.5,-620.62 841.5,-620.62"/>
</g>
<!-- mint_token -->
<g id="node4" class="node">
<title>mint_token</title>
<ellipse fill="none" stroke="black" cx="1207" cy="-591" rx="51.19" ry="18"/>
<text text-anchor="middle" x="1207" y="-587.3" font-family="Times,serif" font-size="14.00">mint_token</text>
</g>
<!-- create_token_script&#45;&gt;mint_token -->
<g id="edge3" class="edge">
<title>create_token_script&#45;&gt;mint_token</title>
<path fill="none" stroke="black" d="M897.29,-650.75C967.44,-637.45 1083.31,-615.46 1151.68,-602.49"/>
<polygon fill="black" stroke="black" points="1151.98,-606 1161.15,-600.7 1150.68,-599.12 1151.98,-606"/>
</g>
<!-- string::length -->
<g id="node5" class="node">
<title>string::length</title>
<ellipse fill="none" stroke="black" cx="239" cy="-441" rx="32.49" ry="18"/>
<text text-anchor="middle" x="239" y="-437.3" font-family="Times,serif" font-size="14.00">length</text>
</g>
<!-- create_tokendata&#45;&gt;string::length -->
<g id="edge4" class="edge">
<title>create_tokendata&#45;&gt;string::length</title>
<path fill="none" stroke="black" d="M788.31,-577.9C778.33,-575.9 767.88,-574.12 758,-573 744.94,-571.52 295.73,-572.58 285,-565 254.56,-543.5 244.24,-499.3 240.75,-470.16"/>
<polygon fill="black" stroke="black" points="244.27,-470.19 239.82,-460.58 237.31,-470.87 244.27,-470.19"/>
</g>
<!-- signer::address_of -->
<g id="node6" class="node">
<title>signer::address_of</title>
<ellipse fill="none" stroke="black" cx="1957" cy="-200" rx="48.99" ry="18"/>
<text text-anchor="middle" x="1957" y="-196.3" font-family="Times,serif" font-size="14.00">address_of</text>
</g>
<!-- create_tokendata&#45;&gt;signer::address_of -->
<g id="edge5" class="edge">
<title>create_tokendata&#45;&gt;signer::address_of</title>
<path fill="none" stroke="black" d="M854.34,-573.12C856.17,-570.55 857.8,-567.81 859,-565 886.09,-501.69 841.89,-303.15 893,-257 903.21,-247.78 1869.83,-252.96 1883,-249 1899.88,-243.93 1916.53,-233.72 1929.76,-224.02"/>
<polygon fill="black" stroke="black" points="1931.74,-226.91 1937.53,-218.04 1927.47,-221.36 1931.74,-226.91"/>
</g>
<!-- error::already_exists -->
<g id="node7" class="node">
<title>error::already_exists</title>
<ellipse fill="none" stroke="black" cx="77" cy="-283" rx="61.19" ry="18"/>
<text text-anchor="middle" x="77" y="-279.3" font-family="Times,serif" font-size="14.00">already_exists</text>
</g>
<!-- create_tokendata&#45;&gt;error::already_exists -->
<g id="edge6" class="edge">
<title>create_tokendata&#45;&gt;error::already_exists</title>
<path fill="none" stroke="black" d="M788.31,-577.91C778.33,-575.91 767.87,-574.13 758,-573 746.02,-571.63 333.52,-572.4 324,-565 269.45,-522.56 324.54,-470.23 283,-415 240.44,-358.41 206.44,-370.48 147,-332 134.53,-323.93 121.03,-314.77 109.25,-306.64"/>
<polygon fill="black" stroke="black" points="111.26,-303.78 101.05,-300.95 107.27,-309.53 111.26,-303.78"/>
</g>
<!-- error::invalid_argument -->
<g id="node8" class="node">
<title>error::invalid_argument</title>
<ellipse fill="none" stroke="black" cx="513" cy="-283" rx="73.39" ry="18"/>
<text text-anchor="middle" x="513" y="-279.3" font-family="Times,serif" font-size="14.00">invalid_argument</text>
</g>
<!-- create_tokendata&#45;&gt;error::invalid_argument -->
<g id="edge7" class="edge">
<title>create_tokendata&#45;&gt;error::invalid_argument</title>
<path fill="none" stroke="black" d="M788.32,-577.85C778.34,-575.86 767.88,-574.09 758,-573 748.25,-571.92 58.89,-571.97 52,-565 -3.48,-508.89 77.79,-452.92 147,-415 262.33,-351.81 310.24,-384.05 431,-332 447.49,-324.89 464.79,-315.15 479.22,-306.29"/>
<polygon fill="black" stroke="black" points="480.81,-309.43 487.43,-301.16 477.1,-303.5 480.81,-309.43"/>
</g>
<!-- error::not_found -->
<g id="node9" class="node">
<title>error::not_found</title>
<ellipse fill="none" stroke="black" cx="375" cy="-283" rx="46.59" ry="18"/>
<text text-anchor="middle" x="375" y="-279.3" font-family="Times,serif" font-size="14.00">not_found</text>
</g>
<!-- create_tokendata&#45;&gt;error::not_found -->
<g id="edge8" class="edge">
<title>create_tokendata&#45;&gt;error::not_found</title>
<path fill="none" stroke="black" d="M788.31,-577.92C778.33,-575.93 767.87,-574.14 758,-573 747.04,-571.74 368.72,-572.88 361,-565 293.69,-496.32 338.19,-367.08 362.33,-311.05"/>
<polygon fill="black" stroke="black" points="365.38,-312.81 366.24,-302.25 358.99,-309.97 365.38,-312.81"/>
</g>
<!-- table::contains -->
<g id="node10" class="node">
<title>table::contains</title>
<ellipse fill="none" stroke="black" cx="959" cy="-358" rx="40.09" ry="18"/>
<text text-anchor="middle" x="959" y="-354.3" font-family="Times,serif" font-size="14.00">contains</text>
</g>
<!-- create_tokendata&#45;&gt;table::contains -->
<g id="edge9" class="edge">
<title>create_tokendata&#45;&gt;table::contains</title>
<path fill="none" stroke="black" d="M879.11,-576.1C884.27,-573.05 889.1,-569.39 893,-565 939.52,-512.7 919.62,-481.65 941,-415 943.94,-405.84 947.15,-395.83 950.04,-386.85"/>
<polygon fill="black" stroke="black" points="953.29,-388.19 953.02,-377.6 946.62,-386.04 953.29,-388.19"/>
</g>
<!-- table::borrow_mut -->
<g id="node11" class="node">
<title>table::borrow_mut</title>
<ellipse fill="none" stroke="black" cx="1195" cy="-358" rx="54.69" ry="18"/>
<text text-anchor="middle" x="1195" y="-354.3" font-family="Times,serif" font-size="14.00">borrow_mut</text>
</g>
<!-- create_tokendata&#45;&gt;table::borrow_mut -->
<g id="edge10" class="edge">
<title>create_tokendata&#45;&gt;table::borrow_mut</title>
<path fill="none" stroke="black" d="M908.06,-588.22C965.68,-585.71 1042.06,-579.64 1069,-565 1138.1,-527.44 1173.59,-434.3 1187.62,-387.21"/>
<polygon fill="black" stroke="black" points="1190.94,-388.33 1190.32,-377.75 1184.21,-386.41 1190.94,-388.33"/>
</g>
<!-- table::add -->
<g id="node12" class="node">
<title>table::add</title>
<ellipse fill="none" stroke="black" cx="1080" cy="-358" rx="27" ry="18"/>
<text text-anchor="middle" x="1080" y="-354.3" font-family="Times,serif" font-size="14.00">add</text>
</g>
<!-- create_tokendata&#45;&gt;table::add -->
<g id="edge11" class="edge">
<title>create_tokendata&#45;&gt;table::add</title>
<path fill="none" stroke="black" d="M906.72,-586.5C972.03,-579.05 1066.77,-556.61 1112,-490 1133.9,-457.74 1113.76,-412.01 1097.01,-383.99"/>
<polygon fill="black" stroke="black" points="1100.16,-382.42 1091.88,-375.81 1094.23,-386.14 1100.16,-382.42"/>
</g>
<!-- event::emit_event -->
<g id="node13" class="node">
<title>event::emit_event</title>
<ellipse fill="none" stroke="black" cx="1525" cy="-283" rx="50.09" ry="18"/>
<text text-anchor="middle" x="1525" y="-279.3" font-family="Times,serif" font-size="14.00">emit_event</text>
</g>
<!-- create_tokendata&#45;&gt;event::emit_event -->
<g id="edge12" class="edge">
<title>create_tokendata&#45;&gt;event::emit_event</title>
<path fill="none" stroke="black" d="M908.67,-589.58C965.45,-587.83 1046.86,-582.13 1116,-565 1292.74,-521.22 1375.19,-544.98 1494,-407 1516.68,-380.66 1523.18,-340.05 1524.83,-312.77"/>
<polygon fill="black" stroke="black" points="1528.32,-312.92 1525.22,-302.79 1521.33,-312.64 1528.32,-312.92"/>
</g>
<!-- property_map::new -->
<g id="node14" class="node">
<title>property_map::new</title>
<ellipse fill="none" stroke="black" cx="797" cy="-516" rx="27" ry="18"/>
<text text-anchor="middle" x="797" y="-512.3" font-family="Times,serif" font-size="14.00">new</text>
</g>
<!-- create_tokendata&#45;&gt;property_map::new -->
<g id="edge13" class="edge">
<title>create_tokendata&#45;&gt;property_map::new</title>
<path fill="none" stroke="black" d="M828.28,-572.7C823.29,-563.81 817.11,-552.8 811.56,-542.92"/>
<polygon fill="black" stroke="black" points="814.77,-541.5 806.83,-534.5 808.67,-544.93 814.77,-541.5"/>
</g>
<!-- create_token_data_id -->
<g id="node15" class="node">
<title>create_token_data_id</title>
<ellipse fill="none" stroke="black" cx="147" cy="-516" rx="85.59" ry="18"/>
<text text-anchor="middle" x="147" y="-512.3" font-family="Times,serif" font-size="14.00">create_token_data_id</text>
</g>
<!-- create_tokendata&#45;&gt;create_token_data_id -->
<g id="edge14" class="edge">
<title>create_tokendata&#45;&gt;create_token_data_id</title>
<path fill="none" stroke="black" d="M788.31,-577.89C778.33,-575.89 767.88,-574.12 758,-573 701.57,-566.62 302.27,-578.03 247,-565 224.8,-559.77 201.75,-549.1 183.37,-539.15"/>
<polygon fill="black" stroke="black" points="185.17,-536.15 174.73,-534.32 181.75,-542.26 185.17,-536.15"/>
</g>
<!-- mint_token&#45;&gt;signer::address_of -->
<g id="edge15" class="edge">
<title>mint_token&#45;&gt;signer::address_of</title>
<path fill="none" stroke="black" d="M1258.5,-589.94C1405.28,-589.49 1818.83,-586.34 1876,-565 1957.74,-534.49 2029,-529.25 2029,-442 2029,-442 2029,-442 2029,-357 2029,-307.42 1998.65,-256.46 1977.36,-226.81"/>
<polygon fill="black" stroke="black" points="1980.21,-224.78 1971.44,-218.82 1974.58,-228.94 1980.21,-224.78"/>
</g>
<!-- mint_token&#45;&gt;error::invalid_argument -->
<g id="edge16" class="edge">
<title>mint_token&#45;&gt;error::invalid_argument</title>
<path fill="none" stroke="black" d="M1156.71,-586.93C1098.89,-583.42 1001.1,-577.58 917,-573 763.41,-564.63 698.49,-589.29 581,-490 547.57,-461.75 542.79,-448.19 528,-407 516.88,-376.03 513.69,-338.15 512.93,-312.68"/>
<polygon fill="black" stroke="black" points="516.43,-312.71 512.75,-302.77 509.43,-312.84 516.43,-312.71"/>
</g>
<!-- mint_token&#45;&gt;error::not_found -->
<g id="edge17" class="edge">
<title>mint_token&#45;&gt;error::not_found</title>
<path fill="none" stroke="black" d="M1156.99,-586.55C1099.21,-582.68 1001.28,-576.49 917,-573 898.73,-572.24 604.41,-573.05 588,-565 478.55,-511.3 410.48,-371.08 385.65,-311.46"/>
<polygon fill="black" stroke="black" points="388.97,-310.33 381.96,-302.39 382.48,-312.97 388.97,-310.33"/>
</g>
<!-- mint_token&#45;&gt;table::contains -->
<g id="edge19" class="edge">
<title>mint_token&#45;&gt;table::contains</title>
<path fill="none" stroke="black" d="M1188.52,-573.97C1162.51,-552.45 1112.69,-514.97 1063,-498 1044.21,-491.58 988.21,-503.87 974,-490 947.1,-463.75 948.54,-417.28 953.03,-387.33"/>
<polygon fill="black" stroke="black" points="956.41,-388.3 954.66,-377.85 949.51,-387.11 956.41,-388.3"/>
</g>
<!-- mint_token&#45;&gt;table::borrow_mut -->
<g id="edge20" class="edge">
<title>mint_token&#45;&gt;table::borrow_mut</title>
<path fill="none" stroke="black" d="M1218,-573C1219.23,-570.41 1220.3,-567.7 1221,-565 1237.28,-502.62 1218.12,-426.86 1205.1,-386.86"/>
<polygon fill="black" stroke="black" points="1208.46,-385.89 1201.94,-377.54 1201.83,-388.13 1208.46,-385.89"/>
</g>
<!-- mint_token&#45;&gt;event::emit_event -->
<g id="edge21" class="edge">
<title>mint_token&#45;&gt;event::emit_event</title>
<path fill="none" stroke="black" d="M1249.35,-580.47C1321.89,-561.6 1467.96,-511.9 1529,-407 1545.85,-378.04 1540.56,-338.42 1533.93,-312.05"/>
<polygon fill="black" stroke="black" points="1537.4,-311.47 1531.36,-302.76 1530.65,-313.33 1537.4,-311.47"/>
</g>
<!-- error::permission_denied -->
<g id="node16" class="node">
<title>error::permission_denied</title>
<ellipse fill="none" stroke="black" cx="233" cy="-283" rx="77.19" ry="18"/>
<text text-anchor="middle" x="233" y="-279.3" font-family="Times,serif" font-size="14.00">permission_denied</text>
</g>
<!-- mint_token&#45;&gt;error::permission_denied -->
<g id="edge18" class="edge">
<title>mint_token&#45;&gt;error::permission_denied</title>
<path fill="none" stroke="black" d="M1156.99,-586.47C1099.22,-582.53 1001.29,-576.28 917,-573 893.85,-572.1 521.2,-574.34 500,-565 377.13,-510.86 283.6,-370.42 248.31,-311.09"/>
<polygon fill="black" stroke="black" points="251.43,-309.49 243.36,-302.62 245.39,-313.02 251.43,-309.49"/>
</g>
<!-- property_map::empty -->
<g id="node17" class="node">
<title>property_map::empty</title>
<ellipse fill="none" stroke="black" cx="814" cy="-441" rx="33.29" ry="18"/>
<text text-anchor="middle" x="814" y="-437.3" font-family="Times,serif" font-size="14.00">empty</text>
</g>
<!-- mint_token&#45;&gt;property_map::empty -->
<g id="edge22" class="edge">
<title>mint_token&#45;&gt;property_map::empty</title>
<path fill="none" stroke="black" d="M1172.98,-577.23C1122.39,-558.24 1024.33,-521.41 941,-490 910.84,-478.63 876.66,-465.71 851.36,-456.14"/>
<polygon fill="black" stroke="black" points="852.76,-452.93 842.17,-452.66 850.28,-459.47 852.76,-452.93"/>
</g>
<!-- create_token_id -->
<g id="node18" class="node">
<title>create_token_id</title>
<ellipse fill="none" stroke="black" cx="1648" cy="-516" rx="66.89" ry="18"/>
<text text-anchor="middle" x="1648" y="-512.3" font-family="Times,serif" font-size="14.00">create_token_id</text>
</g>
<!-- mint_token&#45;&gt;create_token_id -->
<g id="edge23" class="edge">
<title>mint_token&#45;&gt;create_token_id</title>
<path fill="none" stroke="black" d="M1258.15,-589.35C1343.43,-587.78 1510.85,-582.5 1567,-565 1584.75,-559.47 1602.72,-549.37 1617.21,-539.87"/>
<polygon fill="black" stroke="black" points="1619.09,-542.82 1625.39,-534.29 1615.15,-537.03 1619.09,-542.82"/>
</g>
<!-- deposit_token -->
<g id="node19" class="node">
<title>deposit_token</title>
<ellipse fill="none" stroke="black" cx="1807" cy="-516" rx="59.59" ry="18"/>
<text text-anchor="middle" x="1807" y="-512.3" font-family="Times,serif" font-size="14.00">deposit_token</text>
</g>
<!-- mint_token&#45;&gt;deposit_token -->
<g id="edge24" class="edge">
<title>mint_token&#45;&gt;deposit_token</title>
<path fill="none" stroke="black" d="M1258.44,-590.58C1371.4,-591.36 1637.9,-590.35 1724,-565 1742.6,-559.52 1761.46,-549.09 1776.49,-539.35"/>
<polygon fill="black" stroke="black" points="1778.17,-542.44 1784.52,-533.95 1774.26,-536.63 1778.17,-542.44"/>
</g>
<!-- signer::borrow_address -->
<g id="node20" class="node">
<title>signer::borrow_address</title>
<ellipse fill="none" stroke="black" cx="1962" cy="-117" rx="66.89" ry="18"/>
<text text-anchor="middle" x="1962" y="-113.3" font-family="Times,serif" font-size="14.00">borrow_address</text>
</g>
<!-- signer::address_of&#45;&gt;signer::borrow_address -->
<g id="edge25" class="edge">
<title>signer::address_of&#45;&gt;signer::borrow_address</title>
<path fill="none" stroke="black" d="M1958.06,-181.82C1958.69,-171.69 1959.49,-158.6 1960.21,-146.92"/>
<polygon fill="black" stroke="black" points="1963.71,-147.14 1960.83,-136.94 1956.72,-146.71 1963.71,-147.14"/>
</g>
<!-- error::canonical -->
<g id="node21" class="node">
<title>error::canonical</title>
<ellipse fill="none" stroke="black" cx="304" cy="-200" rx="44.39" ry="18"/>
<text text-anchor="middle" x="304" y="-196.3" font-family="Times,serif" font-size="14.00">canonical</text>
</g>
<!-- error::already_exists&#45;&gt;error::canonical -->
<g id="edge26" class="edge">
<title>error::already_exists&#45;&gt;error::canonical</title>
<path fill="none" stroke="black" d="M114.78,-268.5C125.22,-264.78 136.55,-260.73 147,-257 185.52,-243.25 229.36,-227.61 260.91,-216.37"/>
<polygon fill="black" stroke="black" points="261.86,-219.74 270.1,-213.09 259.5,-213.15 261.86,-219.74"/>
</g>
<!-- error::invalid_argument&#45;&gt;error::canonical -->
<g id="edge27" class="edge">
<title>error::invalid_argument&#45;&gt;error::canonical</title>
<path fill="none" stroke="black" d="M475.15,-267.33C438.75,-253.22 383.83,-231.94 346.07,-217.31"/>
<polygon fill="black" stroke="black" points="347.43,-214.08 336.84,-213.73 344.9,-220.6 347.43,-214.08"/>
</g>
<!-- error::not_found&#45;&gt;error::canonical -->
<g id="edge28" class="edge">
<title>error::not_found&#45;&gt;error::canonical</title>
<path fill="none" stroke="black" d="M360.63,-265.61C350.62,-254.19 337.09,-238.75 325.77,-225.83"/>
<polygon fill="black" stroke="black" points="328.57,-223.72 319.34,-218.51 323.3,-228.33 328.57,-223.72"/>
</g>
<!-- table::contains_box -->
<g id="node22" class="node">
<title>table::contains_box</title>
<ellipse fill="none" stroke="black" cx="963" cy="-283" rx="57.69" ry="18"/>
<text text-anchor="middle" x="963" y="-279.3" font-family="Times,serif" font-size="14.00">contains_box</text>
</g>
<!-- table::contains&#45;&gt;table::contains_box -->
<g id="edge29" class="edge">
<title>table::contains&#45;&gt;table::contains_box</title>
<path fill="none" stroke="black" d="M959.95,-339.7C960.39,-331.67 960.92,-321.9 961.42,-312.8"/>
<polygon fill="black" stroke="black" points="964.91,-313.12 961.96,-302.94 957.92,-312.73 964.91,-313.12"/>
</g>
<!-- table::borrow_box_mut -->
<g id="node23" class="node">
<title>table::borrow_box_mut</title>
<ellipse fill="none" stroke="black" cx="1211" cy="-283" rx="72.29" ry="18"/>
<text text-anchor="middle" x="1211" y="-279.3" font-family="Times,serif" font-size="14.00">borrow_box_mut</text>
</g>
<!-- table::borrow_mut&#45;&gt;table::borrow_box_mut -->
<g id="edge30" class="edge">
<title>table::borrow_mut&#45;&gt;table::borrow_box_mut</title>
<path fill="none" stroke="black" d="M1198.79,-339.7C1200.57,-331.58 1202.74,-321.68 1204.75,-312.5"/>
<polygon fill="black" stroke="black" points="1208.13,-313.42 1206.86,-302.91 1201.3,-311.93 1208.13,-313.42"/>
</g>
<!-- table::add_box -->
<g id="node24" class="node">
<title>table::add_box</title>
<ellipse fill="none" stroke="black" cx="1080" cy="-283" rx="40.89" ry="18"/>
<text text-anchor="middle" x="1080" y="-279.3" font-family="Times,serif" font-size="14.00">add_box</text>
</g>
<!-- table::add&#45;&gt;table::add_box -->
<g id="edge31" class="edge">
<title>table::add&#45;&gt;table::add_box</title>
<path fill="none" stroke="black" d="M1080,-339.7C1080,-331.67 1080,-321.9 1080,-312.8"/>
<polygon fill="black" stroke="black" points="1083.5,-312.94 1080,-302.94 1076.5,-312.94 1083.5,-312.94"/>
</g>
<!-- bcs::to_bytes -->
<g id="node25" class="node">
<title>bcs::to_bytes</title>
<ellipse fill="none" stroke="black" cx="910" cy="-117" rx="40.09" ry="18"/>
<text text-anchor="middle" x="910" y="-113.3" font-family="Times,serif" font-size="14.00">to_bytes</text>
</g>
<!-- event::emit_event&#45;&gt;bcs::to_bytes -->
<g id="edge32" class="edge">
<title>event::emit_event&#45;&gt;bcs::to_bytes</title>
<path fill="none" stroke="black" d="M1496.35,-267.9C1486.09,-263.53 1474.26,-259.28 1463,-257 1449.36,-254.24 973.45,-256.91 962,-249 928.58,-225.92 916.64,-177.71 912.37,-146.65"/>
<polygon fill="black" stroke="black" points="915.86,-146.31 911.22,-136.79 908.9,-147.13 915.86,-146.31"/>
</g>
<!-- event::write_to_event_store -->
<g id="node26" class="node">
<title>event::write_to_event_store</title>
<ellipse fill="none" stroke="black" cx="1560" cy="-200" rx="85.29" ry="18"/>
<text text-anchor="middle" x="1560" y="-196.3" font-family="Times,serif" font-size="14.00">write_to_event_store</text>
</g>
<!-- event::emit_event&#45;&gt;event::write_to_event_store -->
<g id="edge33" class="edge">
<title>event::emit_event&#45;&gt;event::write_to_event_store</title>
<path fill="none" stroke="black" d="M1532.42,-264.82C1536.97,-254.3 1542.89,-240.59 1548.09,-228.57"/>
<polygon fill="black" stroke="black" points="1551.23,-230.11 1551.99,-219.54 1544.81,-227.33 1551.23,-230.11"/>
</g>
<!-- property_map::new&#45;&gt;string::length -->
<g id="edge34" class="edge">
<title>property_map::new&#45;&gt;string::length</title>
<path fill="none" stroke="black" d="M769.9,-513.39C719.28,-510.21 606.98,-502.34 513,-490 430.03,-479.1 333.84,-460.96 280.34,-450.38"/>
<polygon fill="black" stroke="black" points="281.25,-446.99 270.76,-448.48 279.89,-453.86 281.25,-446.99"/>
</g>
<!-- property_map::new&#45;&gt;error::invalid_argument -->
<g id="edge35" class="edge">
<title>property_map::new&#45;&gt;error::invalid_argument</title>
<path fill="none" stroke="black" d="M771.88,-508.59C727.13,-496.03 632.88,-464.28 575,-407 547.93,-380.21 530.55,-339.15 521.27,-311.95"/>
<polygon fill="black" stroke="black" points="524.68,-311.09 518.26,-302.66 518.02,-313.25 524.68,-311.09"/>
</g>
<!-- property_map::new&#45;&gt;property_map::empty -->
<g id="edge37" class="edge">
<title>property_map::new&#45;&gt;property_map::empty</title>
<path fill="none" stroke="black" d="M801.03,-497.7C802.93,-489.52 805.26,-479.54 807.41,-470.29"/>
<polygon fill="black" stroke="black" points="810.8,-471.18 809.66,-460.65 803.98,-469.6 810.8,-471.18"/>
</g>
<!-- simple_map::add -->
<g id="node27" class="node">
<title>simple_map::add</title>
<ellipse fill="none" stroke="black" cx="742" cy="-358" rx="27" ry="18"/>
<text text-anchor="middle" x="742" y="-354.3" font-family="Times,serif" font-size="14.00">add</text>
</g>
<!-- property_map::new&#45;&gt;simple_map::add -->
<g id="edge36" class="edge">
<title>property_map::new&#45;&gt;simple_map::add</title>
<path fill="none" stroke="black" d="M780.65,-501.36C777.38,-497.94 774.26,-494.08 772,-490 754.1,-457.63 746.86,-415.11 743.95,-387.43"/>
<polygon fill="black" stroke="black" points="747.46,-387.34 743.06,-377.7 740.48,-387.98 747.46,-387.34"/>
</g>
<!-- create_token_data_id&#45;&gt;string::length -->
<g id="edge38" class="edge">
<title>create_token_data_id&#45;&gt;string::length</title>
<path fill="none" stroke="black" d="M179.47,-499.01C184.16,-496.23 188.81,-493.2 193,-490 202.03,-483.11 210.91,-474.42 218.43,-466.34"/>
<polygon fill="black" stroke="black" points="220.9,-468.82 224.98,-459.04 215.69,-464.14 220.9,-468.82"/>
</g>
<!-- create_token_data_id&#45;&gt;error::invalid_argument -->
<g id="edge39" class="edge">
<title>create_token_data_id&#45;&gt;error::invalid_argument</title>
<path fill="none" stroke="black" d="M149.74,-497.64C154.44,-474.31 166.47,-433.65 195,-415 216.59,-400.89 404.33,-419.31 427,-407 429.56,-405.61 470.45,-346.23 494.91,-310.49"/>
<polygon fill="black" stroke="black" points="497.72,-312.59 500.48,-302.36 491.94,-308.63 497.72,-312.59"/>
</g>
<!-- error::permission_denied&#45;&gt;error::canonical -->
<g id="edge40" class="edge">
<title>error::permission_denied&#45;&gt;error::canonical</title>
<path fill="none" stroke="black" d="M247.71,-265.22C257.68,-253.85 271.02,-238.63 282.21,-225.86"/>
<polygon fill="black" stroke="black" points="284.59,-228.45 288.55,-218.62 279.33,-223.84 284.59,-228.45"/>
</g>
<!-- simple_map::create -->
<g id="node28" class="node">
<title>simple_map::create</title>
<ellipse fill="none" stroke="black" cx="819" cy="-358" rx="31.7" ry="18"/>
<text text-anchor="middle" x="819" y="-354.3" font-family="Times,serif" font-size="14.00">create</text>
</g>
<!-- property_map::empty&#45;&gt;simple_map::create -->
<g id="edge41" class="edge">
<title>property_map::empty&#45;&gt;simple_map::create</title>
<path fill="none" stroke="black" d="M815.06,-422.82C815.69,-412.69 816.49,-399.6 817.21,-387.92"/>
<polygon fill="black" stroke="black" points="820.71,-388.14 817.83,-377.94 813.72,-387.71 820.71,-388.14"/>
</g>
<!-- deposit_token&#45;&gt;signer::address_of -->
<g id="edge42" class="edge">
<title>deposit_token&#45;&gt;signer::address_of</title>
<path fill="none" stroke="black" d="M1864.74,-510.92C1882.81,-507.39 1901.94,-501.09 1917,-490 1951.31,-464.72 1950.73,-447.15 1965,-407 1987.4,-343.98 1988.41,-322.9 1977,-257 1975.36,-247.56 1972.29,-237.6 1969.03,-228.75"/>
<polygon fill="black" stroke="black" points="1972.36,-227.67 1965.45,-219.65 1965.85,-230.23 1972.36,-227.67"/>
</g>
<!-- direct_deposit -->
<g id="node29" class="node">
<title>direct_deposit</title>
<ellipse fill="none" stroke="black" cx="1043" cy="-441" rx="60.39" ry="18"/>
<text text-anchor="middle" x="1043" y="-437.3" font-family="Times,serif" font-size="14.00">direct_deposit</text>
</g>
<!-- deposit_token&#45;&gt;direct_deposit -->
<g id="edge43" class="edge">
<title>deposit_token&#45;&gt;direct_deposit</title>
<path fill="none" stroke="black" d="M1760.64,-504.48C1748.75,-502.07 1735.94,-499.71 1724,-498 1502.51,-466.33 1237.73,-450.93 1113.68,-445.01"/>
<polygon fill="black" stroke="black" points="1114.14,-441.53 1103.99,-444.56 1113.81,-448.52 1114.14,-441.53"/>
</g>
<!-- initialize_token_store -->
<g id="node30" class="node">
<title>initialize_token_store</title>
<ellipse fill="none" stroke="black" cx="1821" cy="-441" rx="87.18" ry="18"/>
<text text-anchor="middle" x="1821" y="-437.3" font-family="Times,serif" font-size="14.00">initialize_token_store</text>
</g>
<!-- deposit_token&#45;&gt;initialize_token_store -->
<g id="edge44" class="edge">
<title>deposit_token&#45;&gt;initialize_token_store</title>
<path fill="none" stroke="black" d="M1810.32,-497.7C1811.88,-489.58 1813.77,-479.68 1815.54,-470.5"/>
<polygon fill="black" stroke="black" points="1818.93,-471.4 1817.37,-460.92 1812.05,-470.08 1818.93,-471.4"/>
</g>
<!-- simple_map::add&#45;&gt;error::invalid_argument -->
<g id="edge47" class="edge">
<title>simple_map::add&#45;&gt;error::invalid_argument</title>
<path fill="none" stroke="black" d="M720.92,-346.36C716.08,-344.11 710.91,-341.86 706,-340 662.94,-323.7 612.98,-309.33 574.69,-299.22"/>
<polygon fill="black" stroke="black" points="575.73,-295.88 565.17,-296.74 573.96,-302.65 575.73,-295.88"/>
</g>
<!-- option::extract -->
<g id="node31" class="node">
<title>option::extract</title>
<ellipse fill="none" stroke="black" cx="1255" cy="-200" rx="34.39" ry="18"/>
<text text-anchor="middle" x="1255" y="-196.3" font-family="Times,serif" font-size="14.00">extract</text>
</g>
<!-- simple_map::add&#45;&gt;option::extract -->
<g id="edge45" class="edge">
<title>simple_map::add&#45;&gt;option::extract</title>
<path fill="none" stroke="black" d="M762.97,-346.07C767.82,-343.83 773.02,-341.66 778,-340 794.79,-334.4 802.51,-342.16 817,-332 849.02,-309.55 829.1,-276.49 863,-257 896.53,-237.72 1175.78,-264.98 1211,-249 1221.7,-244.15 1230.96,-235.33 1238.19,-226.56"/>
<polygon fill="black" stroke="black" points="1240.81,-228.9 1244.05,-218.81 1235.22,-224.68 1240.81,-228.9"/>
</g>
<!-- option::is_none -->
<g id="node32" class="node">
<title>option::is_none</title>
<ellipse fill="none" stroke="black" cx="1164" cy="-200" rx="38.19" ry="18"/>
<text text-anchor="middle" x="1164" y="-196.3" font-family="Times,serif" font-size="14.00">is_none</text>
</g>
<!-- simple_map::add&#45;&gt;option::is_none -->
<g id="edge46" class="edge">
<title>simple_map::add&#45;&gt;option::is_none</title>
<path fill="none" stroke="black" d="M762.95,-346.55C769.56,-342.6 776.55,-337.66 782,-332 808.65,-304.32 792.02,-276.72 825,-257 852.86,-240.35 1087.25,-261.99 1117,-249 1128.22,-244.1 1138.15,-235.14 1145.95,-226.28"/>
<polygon fill="black" stroke="black" points="1148.46,-228.75 1152.06,-218.78 1143.03,-224.33 1148.46,-228.75"/>
</g>
<!-- simple_map::find -->
<g id="node33" class="node">
<title>simple_map::find</title>
<ellipse fill="none" stroke="black" cx="746" cy="-283" rx="27" ry="18"/>
<text text-anchor="middle" x="746" y="-279.3" font-family="Times,serif" font-size="14.00">find</text>
</g>
<!-- simple_map::add&#45;&gt;simple_map::find -->
<g id="edge48" class="edge">
<title>simple_map::add&#45;&gt;simple_map::find</title>
<path fill="none" stroke="black" d="M742.95,-339.7C743.39,-331.67 743.92,-321.9 744.42,-312.8"/>
<polygon fill="black" stroke="black" points="747.91,-313.12 744.96,-302.94 740.92,-312.73 747.91,-313.12"/>
</g>
<!-- direct_deposit&#45;&gt;error::invalid_argument -->
<g id="edge49" class="edge">
<title>direct_deposit&#45;&gt;error::invalid_argument</title>
<path fill="none" stroke="black" d="M990.81,-431.47C954.06,-425.82 903.65,-418.78 859,-415 845.87,-413.89 633.45,-413.51 622,-407 591.24,-389.51 602.3,-366.63 579,-340 568.77,-328.31 556.04,-316.93 544.5,-307.52"/>
<polygon fill="black" stroke="black" points="546.76,-304.84 536.75,-301.36 542.4,-310.32 546.76,-304.84"/>
</g>
<!-- direct_deposit&#45;&gt;error::not_found -->
<g id="edge50" class="edge">
<title>direct_deposit&#45;&gt;error::not_found</title>
<path fill="none" stroke="black" d="M991.21,-431.46C954.43,-425.77 903.82,-418.67 859,-415 796.96,-409.91 639.33,-422.33 579,-407 507.53,-388.84 492.32,-372.96 431,-332 420.35,-324.89 409.47,-316 400.17,-307.82"/>
<polygon fill="black" stroke="black" points="402.69,-305.38 392.92,-301.28 398,-310.58 402.69,-305.38"/>
</g>
<!-- direct_deposit&#45;&gt;table::contains -->
<g id="edge51" class="edge">
<title>direct_deposit&#45;&gt;table::contains</title>
<path fill="none" stroke="black" d="M1026,-423.61C1013.77,-411.82 997.1,-395.74 983.45,-382.57"/>
<polygon fill="black" stroke="black" points="986.12,-380.29 976.49,-375.87 981.26,-385.33 986.12,-380.29"/>
</g>
<!-- direct_deposit&#45;&gt;table::borrow_mut -->
<g id="edge52" class="edge">
<title>direct_deposit&#45;&gt;table::borrow_mut</title>
<path fill="none" stroke="black" d="M1076.84,-425.73C1089.31,-420.2 1103.45,-413.62 1116,-407 1131.31,-398.93 1147.73,-389.14 1161.62,-380.51"/>
<polygon fill="black" stroke="black" points="1163.35,-383.57 1169.95,-375.28 1159.62,-377.64 1163.35,-383.57"/>
</g>
<!-- direct_deposit&#45;&gt;table::add -->
<g id="edge53" class="edge">
<title>direct_deposit&#45;&gt;table::add</title>
<path fill="none" stroke="black" d="M1050.85,-422.82C1055.77,-412.05 1062.22,-397.93 1067.8,-385.71"/>
<polygon fill="black" stroke="black" points="1070.82,-387.53 1071.79,-376.98 1064.45,-384.62 1070.82,-387.53"/>
</g>
<!-- direct_deposit&#45;&gt;event::emit_event -->
<g id="edge54" class="edge">
<title>direct_deposit&#45;&gt;event::emit_event</title>
<path fill="none" stroke="black" d="M1103.16,-438.51C1212.18,-435.35 1433.85,-426.57 1463,-407 1471.67,-401.18 1497.35,-346.08 1512.81,-311.63"/>
<polygon fill="black" stroke="black" points="1515.94,-313.2 1516.82,-302.64 1509.55,-310.35 1515.94,-313.2"/>
</g>
<!-- merge -->
<g id="node34" class="node">
<title>merge</title>
<ellipse fill="none" stroke="black" cx="664" cy="-358" rx="33.29" ry="18"/>
<text text-anchor="middle" x="664" y="-354.3" font-family="Times,serif" font-size="14.00">merge</text>
</g>
<!-- direct_deposit&#45;&gt;merge -->
<g id="edge55" class="edge">
<title>direct_deposit&#45;&gt;merge</title>
<path fill="none" stroke="black" d="M990.79,-431.72C954.03,-426.18 903.62,-419.17 859,-415 841.72,-413.39 718.48,-414.86 703,-407 693.26,-402.06 685.11,-393.46 678.81,-384.9"/>
<polygon fill="black" stroke="black" points="681.81,-383.08 673.35,-376.7 675.98,-386.97 681.81,-383.08"/>
</g>
<!-- initialize_token_store&#45;&gt;signer::address_of -->
<g id="edge56" class="edge">
<title>initialize_token_store&#45;&gt;signer::address_of</title>
<path fill="none" stroke="black" d="M1897.58,-432.02C1912.63,-426.99 1926.87,-419.14 1937,-407 1979.08,-356.56 1971.26,-273.11 1963.35,-229.52"/>
<polygon fill="black" stroke="black" points="1966.81,-228.96 1961.45,-219.82 1959.94,-230.31 1966.81,-228.96"/>
</g>
<!-- table::new -->
<g id="node35" class="node">
<title>table::new</title>
<ellipse fill="none" stroke="black" cx="1399" cy="-358" rx="27" ry="18"/>
<text text-anchor="middle" x="1399" y="-354.3" font-family="Times,serif" font-size="14.00">new</text>
</g>
<!-- initialize_token_store&#45;&gt;table::new -->
<g id="edge57" class="edge">
<title>initialize_token_store&#45;&gt;table::new</title>
<path fill="none" stroke="black" d="M1758.73,-428.05C1669.69,-410.96 1508.74,-380.06 1436.21,-366.14"/>
<polygon fill="black" stroke="black" points="1436.92,-362.71 1426.44,-364.27 1435.6,-369.59 1436.92,-362.71"/>
</g>
<!-- account::new_event_handle -->
<g id="node36" class="node">
<title>account::new_event_handle</title>
<ellipse fill="none" stroke="black" cx="1848" cy="-358" rx="76.89" ry="18"/>
<text text-anchor="middle" x="1848" y="-354.3" font-family="Times,serif" font-size="14.00">new_event_handle</text>
</g>
<!-- initialize_token_store&#45;&gt;account::new_event_handle -->
<g id="edge58" class="edge">
<title>initialize_token_store&#45;&gt;account::new_event_handle</title>
<path fill="none" stroke="black" d="M1826.73,-422.82C1830.17,-412.48 1834.65,-399.05 1838.61,-387.18"/>
<polygon fill="black" stroke="black" points="1841.87,-388.46 1841.71,-377.87 1835.23,-386.25 1841.87,-388.46"/>
</g>
<!-- option::is_some -->
<g id="node37" class="node">
<title>option::is_some</title>
<ellipse fill="none" stroke="black" cx="1232" cy="-117" rx="40.09" ry="18"/>
<text text-anchor="middle" x="1232" y="-113.3" font-family="Times,serif" font-size="14.00">is_some</text>
</g>
<!-- option::extract&#45;&gt;option::is_some -->
<g id="edge59" class="edge">
<title>option::extract&#45;&gt;option::is_some</title>
<path fill="none" stroke="black" d="M1250.12,-181.82C1247.16,-171.41 1243.32,-157.87 1239.93,-145.94"/>
<polygon fill="black" stroke="black" points="1243.38,-145.27 1237.28,-136.61 1236.65,-147.19 1243.38,-145.27"/>
</g>
<!-- vector::is_empty -->
<g id="node38" class="node">
<title>vector::is_empty</title>
<ellipse fill="none" stroke="black" cx="1196" cy="-34" rx="43.59" ry="18"/>
<text text-anchor="middle" x="1196" y="-30.3" font-family="Times,serif" font-size="14.00">is_empty</text>
</g>
<!-- option::is_none&#45;&gt;vector::is_empty -->
<g id="edge60" class="edge">
<title>option::is_none&#45;&gt;vector::is_empty</title>
<path fill="none" stroke="black" d="M1166.74,-181.74C1170.2,-160.37 1176.5,-122.9 1183,-91 1184.86,-81.89 1187.09,-71.99 1189.17,-63.09"/>
<polygon fill="black" stroke="black" points="1192.52,-64.11 1191.43,-53.58 1185.71,-62.5 1192.52,-64.11"/>
</g>
<!-- option::none -->
<g id="node39" class="node">
<title>option::none</title>
<ellipse fill="none" stroke="black" cx="1002" cy="-200" rx="27.9" ry="18"/>
<text text-anchor="middle" x="1002" y="-196.3" font-family="Times,serif" font-size="14.00">none</text>
</g>
<!-- simple_map::find&#45;&gt;option::none -->
<g id="edge61" class="edge">
<title>simple_map::find&#45;&gt;option::none</title>
<path fill="none" stroke="black" d="M763.52,-269C770.49,-264.46 778.8,-259.81 787,-257 817.04,-246.71 826.99,-255.84 858,-249 896.62,-240.49 939.45,-225.46 968.28,-214.48"/>
<polygon fill="black" stroke="black" points="969.5,-217.76 977.57,-210.89 966.98,-211.23 969.5,-217.76"/>
</g>
<!-- option::some -->
<g id="node40" class="node">
<title>option::some</title>
<ellipse fill="none" stroke="black" cx="1078" cy="-200" rx="29.8" ry="18"/>
<text text-anchor="middle" x="1078" y="-196.3" font-family="Times,serif" font-size="14.00">some</text>
</g>
<!-- simple_map::find&#45;&gt;option::some -->
<g id="edge62" class="edge">
<title>simple_map::find&#45;&gt;option::some</title>
<path fill="none" stroke="black" d="M763.01,-268.91C770.05,-264.24 778.53,-259.52 787,-257 813.85,-249 1013.9,-261.44 1039,-249 1048.79,-244.15 1056.95,-235.58 1063.24,-227"/>
<polygon fill="black" stroke="black" points="1066.08,-229.05 1068.69,-218.78 1060.25,-225.18 1066.08,-229.05"/>
</g>
<!-- comparator::compare -->
<g id="node41" class="node">
<title>comparator::compare</title>
<ellipse fill="none" stroke="black" cx="652" cy="-200" rx="41.69" ry="18"/>
<text text-anchor="middle" x="652" y="-196.3" font-family="Times,serif" font-size="14.00">compare</text>
</g>
<!-- simple_map::find&#45;&gt;comparator::compare -->
<g id="edge63" class="edge">
<title>simple_map::find&#45;&gt;comparator::compare</title>
<path fill="none" stroke="black" d="M728.53,-269.22C720.59,-263.25 711.17,-255.95 703,-249 694.06,-241.4 684.62,-232.71 676.32,-224.83"/>
<polygon fill="black" stroke="black" points="678.88,-222.44 669.24,-218.04 674.04,-227.49 678.88,-222.44"/>
</g>
<!-- comparator::is_smaller_than -->
<g id="node42" class="node">
<title>comparator::is_smaller_than</title>
<ellipse fill="none" stroke="black" cx="779" cy="-200" rx="66.89" ry="18"/>
<text text-anchor="middle" x="779" y="-196.3" font-family="Times,serif" font-size="14.00">is_smaller_than</text>
</g>
<!-- simple_map::find&#45;&gt;comparator::is_smaller_than -->
<g id="edge64" class="edge">
<title>simple_map::find&#45;&gt;comparator::is_smaller_than</title>
<path fill="none" stroke="black" d="M752.84,-265.22C757.12,-254.72 762.73,-240.93 767.66,-228.82"/>
<polygon fill="black" stroke="black" points="770.84,-230.3 771.37,-219.72 764.36,-227.66 770.84,-230.3"/>
</g>
<!-- merge&#45;&gt;error::invalid_argument -->
<g id="edge65" class="edge">
<title>merge&#45;&gt;error::invalid_argument</title>
<path fill="none" stroke="black" d="M639.74,-345.27C616.97,-334.26 582.43,-317.57 555.16,-304.38"/>
<polygon fill="black" stroke="black" points="556.99,-301.38 546.46,-300.18 553.94,-307.68 556.99,-301.38"/>
</g>
<!-- table::new_table_handle -->
<g id="node43" class="node">
<title>table::new_table_handle</title>
<ellipse fill="none" stroke="black" cx="1376" cy="-283" rx="74.99" ry="18"/>
<text text-anchor="middle" x="1376" y="-279.3" font-family="Times,serif" font-size="14.00">new_table_handle</text>
</g>
<!-- table::new&#45;&gt;table::new_table_handle -->
<g id="edge66" class="edge">
<title>table::new&#45;&gt;table::new_table_handle</title>
<path fill="none" stroke="black" d="M1393.67,-340.07C1391.06,-331.8 1387.86,-321.64 1384.9,-312.24"/>
<polygon fill="black" stroke="black" points="1388.26,-311.28 1381.92,-302.79 1381.59,-313.38 1388.26,-311.28"/>
</g>
<!-- event::new_event_handle -->
<g id="node44" class="node">
<title>event::new_event_handle</title>
<ellipse fill="none" stroke="black" cx="1670" cy="-283" rx="76.89" ry="18"/>
<text text-anchor="middle" x="1670" y="-279.3" font-family="Times,serif" font-size="14.00">new_event_handle</text>
</g>
<!-- account::new_event_handle&#45;&gt;event::new_event_handle -->
<g id="edge67" class="edge">
<title>account::new_event_handle&#45;&gt;event::new_event_handle</title>
<path fill="none" stroke="black" d="M1796.05,-344.49C1783.73,-340.95 1770.75,-336.75 1759,-332 1741.11,-324.77 1722.17,-314.9 1706.39,-305.98"/>
<polygon fill="black" stroke="black" points="1708.24,-303.01 1697.83,-301.06 1704.75,-309.08 1708.24,-303.01"/>
</g>
<!-- account::create_guid -->
<g id="node45" class="node">
<title>account::create_guid</title>
<ellipse fill="none" stroke="black" cx="1848" cy="-283" rx="51.99" ry="18"/>
<text text-anchor="middle" x="1848" y="-279.3" font-family="Times,serif" font-size="14.00">create_guid</text>
</g>
<!-- account::new_event_handle&#45;&gt;account::create_guid -->
<g id="edge68" class="edge">
<title>account::new_event_handle&#45;&gt;account::create_guid</title>
<path fill="none" stroke="black" d="M1848,-339.7C1848,-331.67 1848,-321.9 1848,-312.8"/>
<polygon fill="black" stroke="black" points="1851.5,-312.94 1848,-302.94 1844.5,-312.94 1851.5,-312.94"/>
</g>
<!-- option::is_some&#45;&gt;vector::is_empty -->
<g id="edge69" class="edge">
<title>option::is_some&#45;&gt;vector::is_empty</title>
<path fill="none" stroke="black" d="M1224.54,-99.22C1219.79,-88.54 1213.54,-74.46 1208.09,-62.21"/>
<polygon fill="black" stroke="black" points="1211.45,-61.14 1204.19,-53.42 1205.05,-63.98 1211.45,-61.14"/>
</g>
<!-- vector::singleton -->
<g id="node46" class="node">
<title>vector::singleton</title>
<ellipse fill="none" stroke="black" cx="1300" cy="-34" rx="42.79" ry="18"/>
<text text-anchor="middle" x="1300" y="-30.3" font-family="Times,serif" font-size="14.00">singleton</text>
</g>
<!-- option::some&#45;&gt;vector::singleton -->
<g id="edge70" class="edge">
<title>option::some&#45;&gt;vector::singleton</title>
<path fill="none" stroke="black" d="M1095.26,-185.19C1101.71,-180.8 1109.34,-176.45 1117,-174 1134.38,-168.45 1267.5,-178.27 1281,-166 1309.07,-140.48 1308.84,-93.4 1305.14,-63.18"/>
<polygon fill="black" stroke="black" points="1308.65,-63.01 1303.75,-53.62 1301.72,-64.02 1308.65,-63.01"/>
</g>
<!-- comparator::compare&#45;&gt;bcs::to_bytes -->
<g id="edge71" class="edge">
<title>comparator::compare&#45;&gt;bcs::to_bytes</title>
<path fill="none" stroke="black" d="M675.87,-184.83C684.18,-180.57 693.74,-176.4 703,-174 736.39,-165.34 826.21,-179.38 858,-166 870.01,-160.94 881,-151.83 889.75,-142.9"/>
<polygon fill="black" stroke="black" points="892.22,-145.38 896.39,-135.64 887.06,-140.66 892.22,-145.38"/>
</g>
<!-- comparator::compare_u8_vector -->
<g id="node47" class="node">
<title>comparator::compare_u8_vector</title>
<ellipse fill="none" stroke="black" cx="691" cy="-117" rx="81.49" ry="18"/>
<text text-anchor="middle" x="691" y="-113.3" font-family="Times,serif" font-size="14.00">compare_u8_vector</text>
</g>
<!-- comparator::compare&#45;&gt;comparator::compare_u8_vector -->
<g id="edge72" class="edge">
<title>comparator::compare&#45;&gt;comparator::compare_u8_vector</title>
<path fill="none" stroke="black" d="M660.08,-182.22C665.19,-171.61 671.91,-157.65 677.78,-145.45"/>
<polygon fill="black" stroke="black" points="680.82,-147.21 682,-136.68 674.51,-144.18 680.82,-147.21"/>
</g>
<!-- account::create_guid&#45;&gt;signer::address_of -->
<g id="edge73" class="edge">
<title>account::create_guid&#45;&gt;signer::address_of</title>
<path fill="none" stroke="black" d="M1869.28,-266.19C1885.74,-253.96 1908.74,-236.87 1927.05,-223.25"/>
<polygon fill="black" stroke="black" points="1929,-226.17 1934.93,-217.4 1924.82,-220.55 1929,-226.17"/>
</g>
<!-- guid::create -->
<g id="node48" class="node">
<title>guid::create</title>
<ellipse fill="none" stroke="black" cx="1839" cy="-200" rx="31.7" ry="18"/>
<text text-anchor="middle" x="1839" y="-196.3" font-family="Times,serif" font-size="14.00">create</text>
</g>
<!-- account::create_guid&#45;&gt;guid::create -->
<g id="edge74" class="edge">
<title>account::create_guid&#45;&gt;guid::create</title>
<path fill="none" stroke="black" d="M1846.09,-264.82C1844.95,-254.58 1843.48,-241.33 1842.17,-229.55"/>
<polygon fill="black" stroke="black" points="1845.69,-229.49 1841.1,-219.94 1838.73,-230.26 1845.69,-229.49"/>
</g>
</g>
</svg>
