<?xml version="1.0" encoding="UTF-8" standalone="no"?>
<!DOCTYPE svg PUBLIC "-//W3C//DTD SVG 1.1//EN"
 "http://www.w3.org/Graphics/SVG/1.1/DTD/svg11.dtd">
<!-- Generated by graphviz version 7.0.0 (20221023.0053)
 -->
<!-- Title: G Pages: 1 -->
<svg width="1807pt" height="617pt"
 viewBox="0.00 0.00 1807.26 617.00" xmlns="http://www.w3.org/2000/svg" xmlns:xlink="http://www.w3.org/1999/xlink">
<g id="graph0" class="graph" transform="scale(1 1) rotate(0) translate(4 613)">
<title>G</title>
<polygon fill="white" stroke="none" points="-4,4 -4,-613 1803.26,-613 1803.26,4 -4,4"/>
<g id="clust1" class="cluster">
<title>cluster_error</title>
<polygon fill="none" stroke="black" points="302.26,-174 302.26,-332 1018.26,-332 1018.26,-174 302.26,-174"/>
<text text-anchor="middle" x="660.26" y="-316.8" font-family="Times,serif" font-size="14.00">error</text>
</g>
<g id="clust2" class="cluster">
<title>cluster_table</title>
<polygon fill="none" stroke="black" points="34.26,-340 34.26,-490 328.26,-490 328.26,-340 34.26,-340"/>
<text text-anchor="middle" x="181.26" y="-474.8" font-family="Times,serif" font-size="14.00">table</text>
</g>
<g id="clust3" class="cluster">
<title>cluster_property_map</title>
<polygon fill="none" stroke="black" points="617.26,-340 617.26,-565 909.26,-565 909.26,-340 617.26,-340"/>
<text text-anchor="middle" x="763.26" y="-549.8" font-family="Times,serif" font-size="14.00">property_map</text>
</g>
<g id="clust4" class="cluster">
<title>cluster_signer</title>
<polygon fill="none" stroke="black" points="336.26,-340 336.26,-490 486.26,-490 486.26,-340 336.26,-340"/>
<text text-anchor="middle" x="411.26" y="-474.8" font-family="Times,serif" font-size="14.00">signer</text>
</g>
<g id="clust5" class="cluster">
<title>cluster_string</title>
<polygon fill="none" stroke="black" points="917.26,-340 917.26,-415 997.26,-415 997.26,-340 917.26,-340"/>
<text text-anchor="middle" x="957.26" y="-399.8" font-family="Times,serif" font-size="14.00">string</text>
</g>
<g id="clust6" class="cluster">
<title>cluster_simple_map</title>
<polygon fill="none" stroke="black" points="1037.26,-257 1037.26,-415 1450.26,-415 1450.26,-257 1037.26,-257"/>
<text text-anchor="middle" x="1243.76" y="-399.8" font-family="Times,serif" font-size="14.00">simple_map</text>
</g>
<g id="clust7" class="cluster">
<title>cluster_option</title>
<polygon fill="none" stroke="black" points="1026.26,-91 1026.26,-249 1357.26,-249 1357.26,-91 1026.26,-91"/>
<text text-anchor="middle" x="1191.76" y="-233.8" font-family="Times,serif" font-size="14.00">option</text>
</g>
<g id="clust8" class="cluster">
<title>cluster_vector</title>
<polygon fill="none" stroke="black" points="1154.26,-8 1154.26,-83 1361.26,-83 1361.26,-8 1154.26,-8"/>
<text text-anchor="middle" x="1257.76" y="-67.8" font-family="Times,serif" font-size="14.00">vector</text>
</g>
<g id="clust9" class="cluster">
<title>cluster_comparator</title>
<polygon fill="none" stroke="black" points="1435.26,-91 1435.26,-249 1687.26,-249 1687.26,-91 1435.26,-91"/>
<text text-anchor="middle" x="1561.26" y="-233.8" font-family="Times,serif" font-size="14.00">comparator</text>
</g>
<g id="clust10" class="cluster">
<title>cluster_bcs</title>
<polygon fill="none" stroke="black" points="1695.26,-91 1695.26,-166 1791.26,-166 1791.26,-91 1695.26,-91"/>
<text text-anchor="middle" x="1743.26" y="-150.8" font-family="Times,serif" font-size="14.00">bcs</text>
</g>
<!-- mutate_tokendata_property -->
<g id="node1" class="node">
<title>mutate_tokendata_property</title>
<ellipse fill="none" stroke="black" cx="362.26" cy="-591" rx="107.78" ry="18"/>
<text text-anchor="middle" x="362.26" y="-587.3" font-family="Times,serif" font-size="14.00">mutate_tokendata_property</text>
</g>
<!-- error::permission_denied -->
<g id="node2" class="node">
<title>error::permission_denied</title>
<ellipse fill="none" stroke="black" cx="387.26" cy="-283" rx="77.19" ry="18"/>
<text text-anchor="middle" x="387.26" y="-279.3" font-family="Times,serif" font-size="14.00">permission_denied</text>
</g>
<!-- mutate_tokendata_property&#45;&gt;error::permission_denied -->
<g id="edge1" class="edge">
<title>mutate_tokendata_property&#45;&gt;error::permission_denied</title>
<path fill="none" stroke="black" d="M276.17,-579.89C253.51,-576.2 229.26,-571.34 207.26,-565 125.16,-541.36 77.44,-561.23 30.26,-490 -6.55,-434.42 -13.08,-390.66 30.26,-340 64.16,-300.37 204.58,-288.6 298.87,-285.21"/>
<polygon fill="black" stroke="black" points="298.74,-288.72 308.62,-284.89 298.51,-281.72 298.74,-288.72"/>
</g>
<!-- table::borrow_mut -->
<g id="node3" class="node">
<title>table::borrow_mut</title>
<ellipse fill="none" stroke="black" cx="140.26" cy="-441" rx="54.69" ry="18"/>
<text text-anchor="middle" x="140.26" y="-437.3" font-family="Times,serif" font-size="14.00">borrow_mut</text>
</g>
<!-- mutate_tokendata_property&#45;&gt;table::borrow_mut -->
<g id="edge2" class="edge">
<title>mutate_tokendata_property&#45;&gt;table::borrow_mut</title>
<path fill="none" stroke="black" d="M324.58,-573.73C319.02,-570.99 313.42,-568.04 308.26,-565 256.4,-534.42 200.9,-491.56 168.46,-465.35"/>
<polygon fill="black" stroke="black" points="170.69,-462.66 160.72,-459.06 166.27,-468.09 170.69,-462.66"/>
</g>
<!-- property_map::update_property_map -->
<g id="node4" class="node">
<title>property_map::update_property_map</title>
<ellipse fill="none" stroke="black" cx="713.26" cy="-516" rx="88.28" ry="18"/>
<text text-anchor="middle" x="713.26" y="-512.3" font-family="Times,serif" font-size="14.00">update_property_map</text>
</g>
<!-- mutate_tokendata_property&#45;&gt;property_map::update_property_map -->
<g id="edge3" class="edge">
<title>mutate_tokendata_property&#45;&gt;property_map::update_property_map</title>
<path fill="none" stroke="black" d="M440.57,-578.25C464.31,-574.39 490.41,-569.83 514.26,-565 559.85,-555.77 610.84,-543.43 649.79,-533.57"/>
<polygon fill="black" stroke="black" points="650.41,-537.03 659.24,-531.17 648.68,-530.24 650.41,-537.03"/>
</g>
<!-- assert_tokendata_exists -->
<g id="node5" class="node">
<title>assert_tokendata_exists</title>
<ellipse fill="none" stroke="black" cx="411.26" cy="-516" rx="93.68" ry="18"/>
<text text-anchor="middle" x="411.26" y="-512.3" font-family="Times,serif" font-size="14.00">assert_tokendata_exists</text>
</g>
<!-- mutate_tokendata_property&#45;&gt;assert_tokendata_exists -->
<g id="edge4" class="edge">
<title>mutate_tokendata_property&#45;&gt;assert_tokendata_exists</title>
<path fill="none" stroke="black" d="M373.87,-572.7C379.73,-563.97 386.96,-553.2 393.5,-543.46"/>
<polygon fill="black" stroke="black" points="396.22,-545.69 398.89,-535.43 390.41,-541.78 396.22,-545.69"/>
</g>
<!-- error::canonical -->
<g id="node6" class="node">
<title>error::canonical</title>
<ellipse fill="none" stroke="black" cx="655.26" cy="-200" rx="44.39" ry="18"/>
<text text-anchor="middle" x="655.26" y="-196.3" font-family="Times,serif" font-size="14.00">canonical</text>
</g>
<!-- error::permission_denied&#45;&gt;error::canonical -->
<g id="edge5" class="edge">
<title>error::permission_denied&#45;&gt;error::canonical</title>
<path fill="none" stroke="black" d="M433.03,-268.17C482.26,-253.29 560.11,-229.76 609.39,-214.86"/>
<polygon fill="black" stroke="black" points="610.35,-218.23 618.91,-211.99 608.32,-211.53 610.35,-218.23"/>
</g>
<!-- table::borrow_box_mut -->
<g id="node7" class="node">
<title>table::borrow_box_mut</title>
<ellipse fill="none" stroke="black" cx="114.26" cy="-366" rx="72.29" ry="18"/>
<text text-anchor="middle" x="114.26" y="-362.3" font-family="Times,serif" font-size="14.00">borrow_box_mut</text>
</g>
<!-- table::borrow_mut&#45;&gt;table::borrow_box_mut -->
<g id="edge6" class="edge">
<title>table::borrow_mut&#45;&gt;table::borrow_box_mut</title>
<path fill="none" stroke="black" d="M134.1,-422.7C131.17,-414.49 127.6,-404.46 124.3,-395.19"/>
<polygon fill="black" stroke="black" points="127.63,-394.1 120.97,-385.85 121.03,-396.45 127.63,-394.1"/>
</g>
<!-- error::invalid_state -->
<g id="node8" class="node">
<title>error::invalid_state</title>
<ellipse fill="none" stroke="black" cx="790.26" cy="-283" rx="55.79" ry="18"/>
<text text-anchor="middle" x="790.26" y="-279.3" font-family="Times,serif" font-size="14.00">invalid_state</text>
</g>
<!-- property_map::update_property_map&#45;&gt;error::invalid_state -->
<g id="edge7" class="edge">
<title>property_map::update_property_map&#45;&gt;error::invalid_state</title>
<path fill="none" stroke="black" d="M647.17,-503.73C633.81,-500.09 622.53,-495.54 618.26,-490 600.08,-466.42 605.43,-449.87 618.26,-423 625.88,-407.04 711.68,-342.01 759.14,-306.85"/>
<polygon fill="black" stroke="black" points="761.18,-309.69 767.14,-300.93 757.02,-304.06 761.18,-309.69"/>
</g>
<!-- property_map::add -->
<g id="node9" class="node">
<title>property_map::add</title>
<ellipse fill="none" stroke="black" cx="874.26" cy="-441" rx="27" ry="18"/>
<text text-anchor="middle" x="874.26" y="-437.3" font-family="Times,serif" font-size="14.00">add</text>
</g>
<!-- property_map::update_property_map&#45;&gt;property_map::add -->
<g id="edge8" class="edge">
<title>property_map::update_property_map&#45;&gt;property_map::add</title>
<path fill="none" stroke="black" d="M793.27,-507.99C808.99,-504.19 824.78,-498.5 838.26,-490 847,-484.49 854.37,-476.05 860.12,-467.77"/>
<polygon fill="black" stroke="black" points="862.91,-469.91 865.31,-459.59 857,-466.16 862.91,-469.91"/>
</g>
<!-- property_map::contains_key -->
<g id="node10" class="node">
<title>property_map::contains_key</title>
<ellipse fill="none" stroke="black" cx="844.26" cy="-366" rx="57.39" ry="18"/>
<text text-anchor="middle" x="844.26" y="-362.3" font-family="Times,serif" font-size="14.00">contains_key</text>
</g>
<!-- property_map::update_property_map&#45;&gt;property_map::contains_key -->
<g id="edge9" class="edge">
<title>property_map::update_property_map&#45;&gt;property_map::contains_key</title>
<path fill="none" stroke="black" d="M650.86,-502.9C645.2,-499.57 640.14,-495.34 636.26,-490 618.75,-465.91 618.15,-446.64 636.26,-423 653.86,-400.03 726.18,-384.37 780.64,-375.57"/>
<polygon fill="black" stroke="black" points="781.13,-379.04 790.47,-374.03 780.05,-372.12 781.13,-379.04"/>
</g>
<!-- property_map::update_property_value -->
<g id="node11" class="node">
<title>property_map::update_property_value</title>
<ellipse fill="none" stroke="black" cx="737.26" cy="-441" rx="91.78" ry="18"/>
<text text-anchor="middle" x="737.26" y="-437.3" font-family="Times,serif" font-size="14.00">update_property_value</text>
</g>
<!-- property_map::update_property_map&#45;&gt;property_map::update_property_value -->
<g id="edge10" class="edge">
<title>property_map::update_property_map&#45;&gt;property_map::update_property_value</title>
<path fill="none" stroke="black" d="M718.95,-497.7C721.65,-489.49 724.94,-479.46 727.99,-470.19"/>
<polygon fill="black" stroke="black" points="731.26,-471.46 731.06,-460.87 724.61,-469.27 731.26,-471.46"/>
</g>
<!-- assert_tokendata_exists&#45;&gt;error::permission_denied -->
<g id="edge13" class="edge">
<title>assert_tokendata_exists&#45;&gt;error::permission_denied</title>
<path fill="none" stroke="black" d="M476,-502.69C481.51,-499.38 486.43,-495.22 490.26,-490 529.65,-436.22 525.98,-396.29 490.26,-340 485.78,-332.95 480.69,-335.81 473.26,-332 457.19,-323.75 439.74,-314.14 424.79,-305.69"/>
<polygon fill="black" stroke="black" points="426.62,-302.7 416.2,-300.81 423.16,-308.79 426.62,-302.7"/>
</g>
<!-- signer::address_of -->
<g id="node12" class="node">
<title>signer::address_of</title>
<ellipse fill="none" stroke="black" cx="411.26" cy="-441" rx="48.99" ry="18"/>
<text text-anchor="middle" x="411.26" y="-437.3" font-family="Times,serif" font-size="14.00">address_of</text>
</g>
<!-- assert_tokendata_exists&#45;&gt;signer::address_of -->
<g id="edge11" class="edge">
<title>assert_tokendata_exists&#45;&gt;signer::address_of</title>
<path fill="none" stroke="black" d="M411.26,-497.7C411.26,-489.67 411.26,-479.9 411.26,-470.8"/>
<polygon fill="black" stroke="black" points="414.76,-470.94 411.26,-460.94 407.76,-470.94 414.76,-470.94"/>
</g>
<!-- error::not_found -->
<g id="node13" class="node">
<title>error::not_found</title>
<ellipse fill="none" stroke="black" cx="529.26" cy="-283" rx="46.59" ry="18"/>
<text text-anchor="middle" x="529.26" y="-279.3" font-family="Times,serif" font-size="14.00">not_found</text>
</g>
<!-- assert_tokendata_exists&#45;&gt;error::not_found -->
<g id="edge12" class="edge">
<title>assert_tokendata_exists&#45;&gt;error::not_found</title>
<path fill="none" stroke="black" d="M484.14,-504.41C499.3,-500.75 512.21,-496.01 517.26,-490 559.47,-439.75 547.41,-355.92 537.14,-312.31"/>
<polygon fill="black" stroke="black" points="540.6,-311.7 534.77,-302.85 533.81,-313.4 540.6,-311.7"/>
</g>
<!-- table::contains -->
<g id="node14" class="node">
<title>table::contains</title>
<ellipse fill="none" stroke="black" cx="271.26" cy="-441" rx="40.09" ry="18"/>
<text text-anchor="middle" x="271.26" y="-437.3" font-family="Times,serif" font-size="14.00">contains</text>
</g>
<!-- assert_tokendata_exists&#45;&gt;table::contains -->
<g id="edge14" class="edge">
<title>assert_tokendata_exists&#45;&gt;table::contains</title>
<path fill="none" stroke="black" d="M357.5,-500.87C348.84,-497.79 340.14,-494.17 332.26,-490 319.55,-483.27 306.83,-473.81 296.32,-465.07"/>
<polygon fill="black" stroke="black" points="298.72,-462.51 288.86,-458.64 294.15,-467.82 298.72,-462.51"/>
</g>
<!-- error::invalid_state&#45;&gt;error::canonical -->
<g id="edge15" class="edge">
<title>error::invalid_state&#45;&gt;error::canonical</title>
<path fill="none" stroke="black" d="M764.55,-266.57C743.22,-253.78 712.72,-235.48 689.36,-221.46"/>
<polygon fill="black" stroke="black" points="691.18,-218.47 680.81,-216.33 687.58,-224.48 691.18,-218.47"/>
</g>
<!-- property_map::add&#45;&gt;error::invalid_state -->
<g id="edge19" class="edge">
<title>property_map::add&#45;&gt;error::invalid_state</title>
<path fill="none" stroke="black" d="M901.47,-438.58C934.94,-436.19 988.88,-430.06 1001.26,-415 1022.43,-389.25 1024.18,-364.21 1001.26,-340 990.09,-328.2 870.55,-337.5 855.26,-332 840.68,-326.75 826.58,-317.1 815.26,-307.81"/>
<polygon fill="black" stroke="black" points="817.83,-305.41 807.97,-301.53 813.25,-310.71 817.83,-305.41"/>
</g>
<!-- string::length -->
<g id="node15" class="node">
<title>string::length</title>
<ellipse fill="none" stroke="black" cx="957.26" cy="-366" rx="32.49" ry="18"/>
<text text-anchor="middle" x="957.26" y="-362.3" font-family="Times,serif" font-size="14.00">length</text>
</g>
<!-- property_map::add&#45;&gt;string::length -->
<g id="edge16" class="edge">
<title>property_map::add&#45;&gt;string::length</title>
<path fill="none" stroke="black" d="M894.4,-428.48C900.68,-424.53 907.47,-419.87 913.26,-415 921.68,-407.91 930.06,-399.28 937.21,-391.29"/>
<polygon fill="black" stroke="black" points="939.79,-393.66 943.71,-383.81 934.51,-389.07 939.79,-393.66"/>
</g>
<!-- error::already_exists -->
<g id="node16" class="node">
<title>error::already_exists</title>
<ellipse fill="none" stroke="black" cx="655.26" cy="-283" rx="61.19" ry="18"/>
<text text-anchor="middle" x="655.26" y="-279.3" font-family="Times,serif" font-size="14.00">already_exists</text>
</g>
<!-- property_map::add&#45;&gt;error::already_exists -->
<g id="edge17" class="edge">
<title>property_map::add&#45;&gt;error::already_exists</title>
<path fill="none" stroke="black" d="M853.79,-428.86C848.83,-426.58 843.46,-424.44 838.26,-423 803.39,-413.36 788.94,-432.46 757.26,-415 714.81,-391.6 684.11,-342.41 668.05,-311.41"/>
<polygon fill="black" stroke="black" points="671.26,-310.01 663.66,-302.63 665,-313.14 671.26,-310.01"/>
</g>
<!-- error::invalid_argument -->
<g id="node17" class="node">
<title>error::invalid_argument</title>
<ellipse fill="none" stroke="black" cx="937.26" cy="-283" rx="73.39" ry="18"/>
<text text-anchor="middle" x="937.26" y="-279.3" font-family="Times,serif" font-size="14.00">invalid_argument</text>
</g>
<!-- property_map::add&#45;&gt;error::invalid_argument -->
<g id="edge18" class="edge">
<title>property_map::add&#45;&gt;error::invalid_argument</title>
<path fill="none" stroke="black" d="M853.75,-428.99C848.79,-426.7 843.43,-424.53 838.26,-423 825.36,-419.19 787.12,-425.12 778.26,-415 756.3,-389.92 755.94,-364.76 778.26,-340 789.78,-327.22 838.91,-337.36 855.26,-332 872.96,-326.2 891.01,-316.18 905.64,-306.78"/>
<polygon fill="black" stroke="black" points="907.53,-309.73 913.92,-301.28 903.66,-303.9 907.53,-309.73"/>
</g>
<!-- simple_map::length -->
<g id="node18" class="node">
<title>simple_map::length</title>
<ellipse fill="none" stroke="black" cx="1410.26" cy="-366" rx="32.49" ry="18"/>
<text text-anchor="middle" x="1410.26" y="-362.3" font-family="Times,serif" font-size="14.00">length</text>
</g>
<!-- property_map::add&#45;&gt;simple_map::length -->
<g id="edge20" class="edge">
<title>property_map::add&#45;&gt;simple_map::length</title>
<path fill="none" stroke="black" d="M901.57,-439.86C999.03,-439.17 1326.24,-435.36 1368.26,-415 1378.5,-410.04 1387.29,-401.32 1394.15,-392.66"/>
<polygon fill="black" stroke="black" points="1396.88,-394.85 1399.91,-384.7 1391.21,-390.75 1396.88,-394.85"/>
</g>
<!-- simple_map::add -->
<g id="node19" class="node">
<title>simple_map::add</title>
<ellipse fill="none" stroke="black" cx="1072.26" cy="-366" rx="27" ry="18"/>
<text text-anchor="middle" x="1072.26" y="-362.3" font-family="Times,serif" font-size="14.00">add</text>
</g>
<!-- property_map::add&#45;&gt;simple_map::add -->
<g id="edge21" class="edge">
<title>property_map::add&#45;&gt;simple_map::add</title>
<path fill="none" stroke="black" d="M901.18,-437.96C940.01,-434.65 1009.47,-427.21 1031.26,-415 1041.09,-409.49 1049.64,-400.66 1056.34,-392.07"/>
<polygon fill="black" stroke="black" points="1058.98,-394.4 1061.99,-384.24 1053.3,-390.31 1058.98,-394.4"/>
</g>
<!-- simple_map::contains_key -->
<g id="node20" class="node">
<title>simple_map::contains_key</title>
<ellipse fill="none" stroke="black" cx="1302.26" cy="-366" rx="57.39" ry="18"/>
<text text-anchor="middle" x="1302.26" y="-362.3" font-family="Times,serif" font-size="14.00">contains_key</text>
</g>
<!-- property_map::add&#45;&gt;simple_map::contains_key -->
<g id="edge22" class="edge">
<title>property_map::add&#45;&gt;simple_map::contains_key</title>
<path fill="none" stroke="black" d="M901.7,-440.05C975.16,-439.89 1174.84,-437.34 1236.26,-415 1250.97,-409.65 1265.27,-399.98 1276.78,-390.71"/>
<polygon fill="black" stroke="black" points="1278.83,-393.56 1284.21,-384.44 1274.31,-388.22 1278.83,-393.56"/>
</g>
<!-- property_map::contains_key&#45;&gt;simple_map::contains_key -->
<g id="edge23" class="edge">
<title>property_map::contains_key&#45;&gt;simple_map::contains_key</title>
<path fill="none" stroke="black" d="M861.54,-383.65C876.19,-397.04 898.56,-413.97 922.26,-419 938.83,-422.52 1210.68,-422.52 1227.26,-419 1246.19,-414.98 1264.04,-402.85 1277.57,-391.21"/>
<polygon fill="black" stroke="black" points="1279.64,-394.06 1284.68,-384.74 1274.93,-388.88 1279.64,-394.06"/>
</g>
<!-- property_map::update_property_value&#45;&gt;property_map::contains_key -->
<g id="edge26" class="edge">
<title>property_map::update_property_value&#45;&gt;property_map::contains_key</title>
<path fill="none" stroke="black" d="M761.81,-423.25C776.66,-413.12 795.78,-400.08 811.86,-389.1"/>
<polygon fill="black" stroke="black" points="813.39,-392.3 819.68,-383.77 809.44,-386.52 813.39,-392.3"/>
</g>
<!-- property_map::update_property_value&#45;&gt;error::not_found -->
<g id="edge24" class="edge">
<title>property_map::update_property_value&#45;&gt;error::not_found</title>
<path fill="none" stroke="black" d="M708.53,-423.47C704.04,-420.72 699.49,-417.84 695.26,-415 644.42,-380.84 632.98,-370.39 585.26,-332 575.43,-324.09 564.87,-315.16 555.6,-307.17"/>
<polygon fill="black" stroke="black" points="558.17,-304.76 548.32,-300.85 553.58,-310.04 558.17,-304.76"/>
</g>
<!-- simple_map::borrow_mut -->
<g id="node21" class="node">
<title>simple_map::borrow_mut</title>
<ellipse fill="none" stroke="black" cx="1172.26" cy="-366" rx="54.69" ry="18"/>
<text text-anchor="middle" x="1172.26" y="-362.3" font-family="Times,serif" font-size="14.00">borrow_mut</text>
</g>
<!-- property_map::update_property_value&#45;&gt;simple_map::borrow_mut -->
<g id="edge25" class="edge">
<title>property_map::update_property_value&#45;&gt;simple_map::borrow_mut</title>
<path fill="none" stroke="black" d="M801.74,-427.79C813.83,-425.89 826.4,-424.17 838.26,-423 868.13,-420.06 1079.93,-424.91 1108.26,-415 1122.6,-409.98 1136.37,-400.49 1147.44,-391.26"/>
<polygon fill="black" stroke="black" points="1149.72,-393.91 1154.92,-384.68 1145.1,-388.66 1149.72,-393.91"/>
</g>
<!-- signer::borrow_address -->
<g id="node22" class="node">
<title>signer::borrow_address</title>
<ellipse fill="none" stroke="black" cx="411.26" cy="-366" rx="66.89" ry="18"/>
<text text-anchor="middle" x="411.26" y="-362.3" font-family="Times,serif" font-size="14.00">borrow_address</text>
</g>
<!-- signer::address_of&#45;&gt;signer::borrow_address -->
<g id="edge27" class="edge">
<title>signer::address_of&#45;&gt;signer::borrow_address</title>
<path fill="none" stroke="black" d="M411.26,-422.7C411.26,-414.67 411.26,-404.9 411.26,-395.8"/>
<polygon fill="black" stroke="black" points="414.76,-395.94 411.26,-385.94 407.76,-395.94 414.76,-395.94"/>
</g>
<!-- error::not_found&#45;&gt;error::canonical -->
<g id="edge28" class="edge">
<title>error::not_found&#45;&gt;error::canonical</title>
<path fill="none" stroke="black" d="M552.66,-266.95C572.41,-254.26 600.89,-235.95 622.84,-221.84"/>
<polygon fill="black" stroke="black" points="624.61,-224.86 631.13,-216.51 620.83,-218.97 624.61,-224.86"/>
</g>
<!-- table::contains_box -->
<g id="node23" class="node">
<title>table::contains_box</title>
<ellipse fill="none" stroke="black" cx="262.26" cy="-366" rx="57.69" ry="18"/>
<text text-anchor="middle" x="262.26" y="-362.3" font-family="Times,serif" font-size="14.00">contains_box</text>
</g>
<!-- table::contains&#45;&gt;table::contains_box -->
<g id="edge29" class="edge">
<title>table::contains&#45;&gt;table::contains_box</title>
<path fill="none" stroke="black" d="M269.13,-422.7C268.14,-414.67 266.93,-404.9 265.81,-395.8"/>
<polygon fill="black" stroke="black" points="269.29,-395.43 264.59,-385.93 262.34,-396.28 269.29,-395.43"/>
</g>
<!-- error::already_exists&#45;&gt;error::canonical -->
<g id="edge30" class="edge">
<title>error::already_exists&#45;&gt;error::canonical</title>
<path fill="none" stroke="black" d="M655.26,-264.82C655.26,-254.69 655.26,-241.6 655.26,-229.92"/>
<polygon fill="black" stroke="black" points="658.76,-229.95 655.26,-219.95 651.76,-229.95 658.76,-229.95"/>
</g>
<!-- error::invalid_argument&#45;&gt;error::canonical -->
<g id="edge31" class="edge">
<title>error::invalid_argument&#45;&gt;error::canonical</title>
<path fill="none" stroke="black" d="M893.06,-268.32C880.83,-264.59 867.54,-260.59 855.26,-257 803.06,-241.74 742.95,-225.02 702.37,-213.86"/>
<polygon fill="black" stroke="black" points="703.49,-210.54 692.92,-211.27 701.64,-217.29 703.49,-210.54"/>
</g>
<!-- simple_map::add&#45;&gt;error::invalid_argument -->
<g id="edge34" class="edge">
<title>simple_map::add&#45;&gt;error::invalid_argument</title>
<path fill="none" stroke="black" d="M1053.09,-353.26C1046.22,-349.06 1038.4,-344.3 1031.26,-340 1012.49,-328.69 991.55,-316.2 974.21,-305.89"/>
<polygon fill="black" stroke="black" points="976.14,-302.97 965.75,-300.87 972.56,-308.99 976.14,-302.97"/>
</g>
<!-- option::extract -->
<g id="node24" class="node">
<title>option::extract</title>
<ellipse fill="none" stroke="black" cx="1163.26" cy="-200" rx="34.39" ry="18"/>
<text text-anchor="middle" x="1163.26" y="-196.3" font-family="Times,serif" font-size="14.00">extract</text>
</g>
<!-- simple_map::add&#45;&gt;option::extract -->
<g id="edge32" class="edge">
<title>simple_map::add&#45;&gt;option::extract</title>
<path fill="none" stroke="black" d="M1081.32,-348.68C1097.04,-320.33 1129.53,-261.78 1148.54,-227.54"/>
<polygon fill="black" stroke="black" points="1151.44,-229.51 1153.23,-219.07 1145.32,-226.12 1151.44,-229.51"/>
</g>
<!-- option::is_none -->
<g id="node25" class="node">
<title>option::is_none</title>
<ellipse fill="none" stroke="black" cx="1072.26" cy="-200" rx="38.19" ry="18"/>
<text text-anchor="middle" x="1072.26" y="-196.3" font-family="Times,serif" font-size="14.00">is_none</text>
</g>
<!-- simple_map::add&#45;&gt;option::is_none -->
<g id="edge33" class="edge">
<title>simple_map::add&#45;&gt;option::is_none</title>
<path fill="none" stroke="black" d="M1072.26,-347.76C1072.26,-319.63 1072.26,-263.6 1072.26,-229.49"/>
<polygon fill="black" stroke="black" points="1075.76,-229.52 1072.26,-219.52 1068.76,-229.52 1075.76,-229.52"/>
</g>
<!-- simple_map::find -->
<g id="node26" class="node">
<title>simple_map::find</title>
<ellipse fill="none" stroke="black" cx="1302.26" cy="-283" rx="27" ry="18"/>
<text text-anchor="middle" x="1302.26" y="-279.3" font-family="Times,serif" font-size="14.00">find</text>
</g>
<!-- simple_map::add&#45;&gt;simple_map::find -->
<g id="edge35" class="edge">
<title>simple_map::add&#45;&gt;simple_map::find</title>
<path fill="none" stroke="black" d="M1089.14,-351.59C1094.95,-347.44 1101.66,-343.14 1108.26,-340 1122.64,-333.16 1214.39,-307.8 1266.4,-293.67"/>
<polygon fill="black" stroke="black" points="1267.27,-297.06 1276.01,-291.07 1265.44,-290.31 1267.27,-297.06"/>
</g>
<!-- simple_map::contains_key&#45;&gt;simple_map::find -->
<g id="edge37" class="edge">
<title>simple_map::contains_key&#45;&gt;simple_map::find</title>
<path fill="none" stroke="black" d="M1302.26,-347.82C1302.26,-337.69 1302.26,-324.6 1302.26,-312.92"/>
<polygon fill="black" stroke="black" points="1305.76,-312.95 1302.26,-302.95 1298.76,-312.95 1305.76,-312.95"/>
</g>
<!-- option::is_some -->
<g id="node27" class="node">
<title>option::is_some</title>
<ellipse fill="none" stroke="black" cx="1309.26" cy="-117" rx="40.09" ry="18"/>
<text text-anchor="middle" x="1309.26" y="-113.3" font-family="Times,serif" font-size="14.00">is_some</text>
</g>
<!-- simple_map::contains_key&#45;&gt;option::is_some -->
<g id="edge36" class="edge">
<title>simple_map::contains_key&#45;&gt;option::is_some</title>
<path fill="none" stroke="black" d="M1338.05,-351.58C1348.14,-347.82 1359.12,-343.73 1369.26,-340 1379.02,-336.4 1385.29,-340.52 1391.26,-332 1431.55,-274.48 1424.05,-236.1 1391.26,-174 1382.13,-156.7 1364.98,-143.74 1348.72,-134.67"/>
<polygon fill="black" stroke="black" points="1350.63,-131.71 1340.14,-130.21 1347.4,-137.92 1350.63,-131.71"/>
</g>
<!-- simple_map::borrow_mut&#45;&gt;error::invalid_argument -->
<g id="edge40" class="edge">
<title>simple_map::borrow_mut&#45;&gt;error::invalid_argument</title>
<path fill="none" stroke="black" d="M1140.9,-350.83C1130.67,-346.73 1119.15,-342.66 1108.26,-340 1075.69,-332.05 1065.43,-341.42 1033.26,-332 1012.33,-325.87 990.47,-315.31 972.91,-305.66"/>
<polygon fill="black" stroke="black" points="974.85,-302.73 964.43,-300.86 971.41,-308.83 974.85,-302.73"/>
</g>
<!-- simple_map::borrow_mut&#45;&gt;option::extract -->
<g id="edge38" class="edge">
<title>simple_map::borrow_mut&#45;&gt;option::extract</title>
<path fill="none" stroke="black" d="M1171.31,-347.76C1169.77,-319.63 1166.69,-263.6 1164.82,-229.49"/>
<polygon fill="black" stroke="black" points="1168.32,-229.31 1164.28,-219.52 1161.33,-229.7 1168.32,-229.31"/>
</g>
<!-- simple_map::borrow_mut&#45;&gt;simple_map::find -->
<g id="edge41" class="edge">
<title>simple_map::borrow_mut&#45;&gt;simple_map::find</title>
<path fill="none" stroke="black" d="M1197.02,-349.57C1218.84,-335.98 1250.63,-316.17 1273.55,-301.89"/>
<polygon fill="black" stroke="black" points="1275.17,-305 1281.8,-296.75 1271.47,-299.06 1275.17,-305"/>
</g>
<!-- simple_map::borrow_mut&#45;&gt;option::is_some -->
<g id="edge39" class="edge">
<title>simple_map::borrow_mut&#45;&gt;option::is_some</title>
<path fill="none" stroke="black" d="M1203.25,-350.78C1213.55,-346.63 1225.21,-342.53 1236.26,-340 1258.42,-334.92 1320.96,-346.76 1338.26,-332 1392.11,-286.06 1383.16,-240.26 1358.26,-174 1353.63,-161.69 1344.93,-150.31 1336.13,-141.07"/>
<polygon fill="black" stroke="black" points="1338.81,-138.79 1329.22,-134.28 1333.9,-143.78 1338.81,-138.79"/>
</g>
<!-- option::extract&#45;&gt;option::is_some -->
<g id="edge42" class="edge">
<title>option::extract&#45;&gt;option::is_some</title>
<path fill="none" stroke="black" d="M1185.51,-185.9C1192.16,-182.03 1199.49,-177.81 1206.26,-174 1228.77,-161.34 1254.27,-147.47 1274.26,-136.71"/>
<polygon fill="black" stroke="black" points="1275.69,-139.91 1282.84,-132.1 1272.37,-133.75 1275.69,-139.91"/>
</g>
<!-- vector::is_empty -->
<g id="node28" class="node">
<title>vector::is_empty</title>
<ellipse fill="none" stroke="black" cx="1309.26" cy="-34" rx="43.59" ry="18"/>
<text text-anchor="middle" x="1309.26" y="-30.3" font-family="Times,serif" font-size="14.00">is_empty</text>
</g>
<!-- option::is_none&#45;&gt;vector::is_empty -->
<g id="edge43" class="edge">
<title>option::is_none&#45;&gt;vector::is_empty</title>
<path fill="none" stroke="black" d="M1096.56,-185.7C1132.84,-165.41 1202.75,-124.68 1257.26,-83 1266.92,-75.61 1276.89,-66.76 1285.48,-58.68"/>
<polygon fill="black" stroke="black" points="1287.66,-61.44 1292.45,-51.99 1282.81,-56.39 1287.66,-61.44"/>
</g>
<!-- option::none -->
<g id="node29" class="node">
<title>option::none</title>
<ellipse fill="none" stroke="black" cx="1243.26" cy="-200" rx="27.9" ry="18"/>
<text text-anchor="middle" x="1243.26" y="-196.3" font-family="Times,serif" font-size="14.00">none</text>
</g>
<!-- simple_map::find&#45;&gt;option::none -->
<g id="edge44" class="edge">
<title>simple_map::find&#45;&gt;option::none</title>
<path fill="none" stroke="black" d="M1290.88,-266.38C1282.53,-254.91 1271.01,-239.1 1261.4,-225.9"/>
<polygon fill="black" stroke="black" points="1264.41,-224.09 1255.69,-218.07 1258.75,-228.21 1264.41,-224.09"/>
</g>
<!-- option::some -->
<g id="node30" class="node">
<title>option::some</title>
<ellipse fill="none" stroke="black" cx="1319.26" cy="-200" rx="29.8" ry="18"/>
<text text-anchor="middle" x="1319.26" y="-196.3" font-family="Times,serif" font-size="14.00">some</text>
</g>
<!-- simple_map::find&#45;&gt;option::some -->
<g id="edge45" class="edge">
<title>simple_map::find&#45;&gt;option::some</title>
<path fill="none" stroke="black" d="M1305.86,-264.82C1308.03,-254.51 1310.83,-241.14 1313.32,-229.31"/>
<polygon fill="black" stroke="black" points="1316.72,-230.14 1315.35,-219.63 1309.87,-228.7 1316.72,-230.14"/>
</g>
<!-- comparator::compare -->
<g id="node31" class="node">
<title>comparator::compare</title>
<ellipse fill="none" stroke="black" cx="1485.26" cy="-200" rx="41.69" ry="18"/>
<text text-anchor="middle" x="1485.26" y="-196.3" font-family="Times,serif" font-size="14.00">compare</text>
</g>
<!-- simple_map::find&#45;&gt;comparator::compare -->
<g id="edge46" class="edge">
<title>simple_map::find&#45;&gt;comparator::compare</title>
<path fill="none" stroke="black" d="M1324.33,-272.23C1354.53,-258.86 1409.2,-234.67 1446.35,-218.22"/>
<polygon fill="black" stroke="black" points="1447.69,-221.46 1455.42,-214.21 1444.86,-215.06 1447.69,-221.46"/>
</g>
<!-- comparator::is_smaller_than -->
<g id="node32" class="node">
<title>comparator::is_smaller_than</title>
<ellipse fill="none" stroke="black" cx="1612.26" cy="-200" rx="66.89" ry="18"/>
<text text-anchor="middle" x="1612.26" y="-196.3" font-family="Times,serif" font-size="14.00">is_smaller_than</text>
</g>
<!-- simple_map::find&#45;&gt;comparator::is_smaller_than -->
<g id="edge47" class="edge">
<title>simple_map::find&#45;&gt;comparator::is_smaller_than</title>
<path fill="none" stroke="black" d="M1329.47,-281.84C1374.04,-280.77 1464.81,-275.22 1536.26,-249 1552.53,-243.03 1568.98,-233.21 1582.4,-224"/>
<polygon fill="black" stroke="black" points="1584.23,-226.99 1590.36,-218.34 1580.18,-221.28 1584.23,-226.99"/>
</g>
<!-- option::is_some&#45;&gt;vector::is_empty -->
<g id="edge48" class="edge">
<title>option::is_some&#45;&gt;vector::is_empty</title>
<path fill="none" stroke="black" d="M1309.26,-98.82C1309.26,-88.69 1309.26,-75.6 1309.26,-63.92"/>
<polygon fill="black" stroke="black" points="1312.76,-63.95 1309.26,-53.95 1305.76,-63.95 1312.76,-63.95"/>
</g>
<!-- vector::singleton -->
<g id="node33" class="node">
<title>vector::singleton</title>
<ellipse fill="none" stroke="black" cx="1205.26" cy="-34" rx="42.79" ry="18"/>
<text text-anchor="middle" x="1205.26" y="-30.3" font-family="Times,serif" font-size="14.00">singleton</text>
</g>
<!-- option::some&#45;&gt;vector::singleton -->
<g id="edge49" class="edge">
<title>option::some&#45;&gt;vector::singleton</title>
<path fill="none" stroke="black" d="M1300.25,-185.79C1294.02,-181.75 1286.98,-177.46 1280.26,-174 1271.75,-169.62 1267.09,-172.71 1260.26,-166 1231.66,-137.88 1217.2,-92.64 1210.46,-63.36"/>
<polygon fill="black" stroke="black" points="1213.92,-62.79 1208.41,-53.74 1207.07,-64.25 1213.92,-62.79"/>
</g>
<!-- bcs::to_bytes -->
<g id="node34" class="node">
<title>bcs::to_bytes</title>
<ellipse fill="none" stroke="black" cx="1743.26" cy="-117" rx="40.09" ry="18"/>
<text text-anchor="middle" x="1743.26" y="-113.3" font-family="Times,serif" font-size="14.00">to_bytes</text>
</g>
<!-- comparator::compare&#45;&gt;bcs::to_bytes -->
<g id="edge50" class="edge">
<title>comparator::compare&#45;&gt;bcs::to_bytes</title>
<path fill="none" stroke="black" d="M1509.13,-184.83C1517.44,-180.57 1527,-176.4 1536.26,-174 1569.65,-165.34 1659.47,-179.38 1691.26,-166 1703.27,-160.94 1714.26,-151.83 1723.01,-142.9"/>
<polygon fill="black" stroke="black" points="1725.48,-145.38 1729.65,-135.64 1720.32,-140.66 1725.48,-145.38"/>
</g>
<!-- comparator::compare_u8_vector -->
<g id="node35" class="node">
<title>comparator::compare_u8_vector</title>
<ellipse fill="none" stroke="black" cx="1524.26" cy="-117" rx="81.49" ry="18"/>
<text text-anchor="middle" x="1524.26" y="-113.3" font-family="Times,serif" font-size="14.00">compare_u8_vector</text>
</g>
<!-- comparator::compare&#45;&gt;comparator::compare_u8_vector -->
<g id="edge51" class="edge">
<title>comparator::compare&#45;&gt;comparator::compare_u8_vector</title>
<path fill="none" stroke="black" d="M1493.34,-182.22C1498.45,-171.61 1505.17,-157.65 1511.04,-145.45"/>
<polygon fill="black" stroke="black" points="1514.08,-147.21 1515.26,-136.68 1507.77,-144.18 1514.08,-147.21"/>
</g>
</g>
</svg>
