<?xml version="1.0" encoding="UTF-8" standalone="no"?>
<!DOCTYPE svg PUBLIC "-//W3C//DTD SVG 1.1//EN"
 "http://www.w3.org/Graphics/SVG/1.1/DTD/svg11.dtd">
<!-- Generated by graphviz version 7.0.0 (20221023.0053)
 -->
<!-- Title: G Pages: 1 -->
<svg width="766pt" height="279pt"
 viewBox="0.00 0.00 766.00 279.00" xmlns="http://www.w3.org/2000/svg" xmlns:xlink="http://www.w3.org/1999/xlink">
<g id="graph0" class="graph" transform="scale(1 1) rotate(0) translate(4 275)">
<title>G</title>
<polygon fill="white" stroke="none" points="-4,4 -4,-275 762,-275 762,4 -4,4"/>
<g id="clust1" class="cluster">
<title>cluster_error</title>
<polygon fill="none" stroke="black" points="8,-8 8,-155 290,-155 290,-8 8,-8"/>
<text text-anchor="middle" x="149" y="-139.8" font-family="Times,serif" font-size="14.00">error</text>
</g>
<g id="clust2" class="cluster">
<title>cluster_table</title>
<polygon fill="none" stroke="black" points="456,-8 456,-155 750,-155 750,-8 456,-8"/>
<text text-anchor="middle" x="603" y="-139.8" font-family="Times,serif" font-size="14.00">table</text>
</g>
<g id="clust3" class="cluster">
<title>cluster_signer</title>
<polygon fill="none" stroke="black" points="298,-8 298,-155 448,-155 448,-8 298,-8"/>
<text text-anchor="middle" x="373" y="-139.8" font-family="Times,serif" font-size="14.00">signer</text>
</g>
<!-- mutate_tokendata_royalty -->
<g id="node1" class="node">
<title>mutate_tokendata_royalty</title>
<ellipse fill="none" stroke="black" cx="299" cy="-253" rx="102.88" ry="18"/>
<text text-anchor="middle" x="299" y="-249.3" font-family="Times,serif" font-size="14.00">mutate_tokendata_royalty</text>
</g>
<!-- error::permission_denied -->
<g id="node2" class="node">
<title>error::permission_denied</title>
<ellipse fill="none" stroke="black" cx="93" cy="-106" rx="77.19" ry="18"/>
<text text-anchor="middle" x="93" y="-102.3" font-family="Times,serif" font-size="14.00">permission_denied</text>
</g>
<!-- mutate_tokendata_royalty&#45;&gt;error::permission_denied -->
<g id="edge1" class="edge">
<title>mutate_tokendata_royalty&#45;&gt;error::permission_denied</title>
<path fill="none" stroke="black" d="M261.96,-235.75C241.76,-226.21 216.72,-213.24 196,-199 166.95,-179.04 137.3,-151.67 117.32,-131.98"/>
<polygon fill="black" stroke="black" points="120,-129.71 110.45,-125.12 115.06,-134.66 120,-129.71"/>
</g>
<!-- table::borrow_mut -->
<g id="node3" class="node">
<title>table::borrow_mut</title>
<ellipse fill="none" stroke="black" cx="648" cy="-106" rx="54.69" ry="18"/>
<text text-anchor="middle" x="648" y="-102.3" font-family="Times,serif" font-size="14.00">borrow_mut</text>
</g>
<!-- mutate_tokendata_royalty&#45;&gt;table::borrow_mut -->
<g id="edge2" class="edge">
<title>mutate_tokendata_royalty&#45;&gt;table::borrow_mut</title>
<path fill="none" stroke="black" d="M347.42,-236.67C400.88,-219.16 489.05,-188.56 562,-155 579.33,-147.03 597.89,-136.89 613.31,-127.98"/>
<polygon fill="black" stroke="black" points="614.78,-131.18 621.65,-123.11 611.25,-125.14 614.78,-131.18"/>
</g>
<!-- assert_tokendata_exists -->
<g id="node4" class="node">
<title>assert_tokendata_exists</title>
<ellipse fill="none" stroke="black" cx="299" cy="-181" rx="93.68" ry="18"/>
<text text-anchor="middle" x="299" y="-177.3" font-family="Times,serif" font-size="14.00">assert_tokendata_exists</text>
</g>
<!-- mutate_tokendata_royalty&#45;&gt;assert_tokendata_exists -->
<g id="edge3" class="edge">
<title>mutate_tokendata_royalty&#45;&gt;assert_tokendata_exists</title>
<path fill="none" stroke="black" d="M299,-234.7C299,-227.41 299,-218.73 299,-210.54"/>
<polygon fill="black" stroke="black" points="302.5,-210.62 299,-200.62 295.5,-210.62 302.5,-210.62"/>
</g>
<!-- error::canonical -->
<g id="node5" class="node">
<title>error::canonical</title>
<ellipse fill="none" stroke="black" cx="164" cy="-34" rx="44.39" ry="18"/>
<text text-anchor="middle" x="164" y="-30.3" font-family="Times,serif" font-size="14.00">canonical</text>
</g>
<!-- error::permission_denied&#45;&gt;error::canonical -->
<g id="edge4" class="edge">
<title>error::permission_denied&#45;&gt;error::canonical</title>
<path fill="none" stroke="black" d="M110.19,-88.05C119.07,-79.29 130.07,-68.45 139.8,-58.86"/>
<polygon fill="black" stroke="black" points="142.2,-61.41 146.87,-51.89 137.29,-56.42 142.2,-61.41"/>
</g>
<!-- table::borrow_box_mut -->
<g id="node6" class="node">
<title>table::borrow_box_mut</title>
<ellipse fill="none" stroke="black" cx="670" cy="-34" rx="72.29" ry="18"/>
<text text-anchor="middle" x="670" y="-30.3" font-family="Times,serif" font-size="14.00">borrow_box_mut</text>
</g>
<!-- table::borrow_mut&#45;&gt;table::borrow_box_mut -->
<g id="edge5" class="edge">
<title>table::borrow_mut&#45;&gt;table::borrow_box_mut</title>
<path fill="none" stroke="black" d="M653.44,-87.7C655.78,-80.24 658.58,-71.32 661.21,-62.97"/>
<polygon fill="black" stroke="black" points="664.51,-64.14 664.17,-53.55 657.83,-62.04 664.51,-64.14"/>
</g>
<!-- assert_tokendata_exists&#45;&gt;error::permission_denied -->
<g id="edge8" class="edge">
<title>assert_tokendata_exists&#45;&gt;error::permission_denied</title>
<path fill="none" stroke="black" d="M227.87,-168.9C211.55,-165.33 194.45,-160.77 179,-155 161.13,-148.33 142.5,-138.36 127.17,-129.23"/>
<polygon fill="black" stroke="black" points="129.26,-126.4 118.9,-124.18 125.62,-132.38 129.26,-126.4"/>
</g>
<!-- signer::address_of -->
<g id="node7" class="node">
<title>signer::address_of</title>
<ellipse fill="none" stroke="black" cx="364" cy="-106" rx="48.99" ry="18"/>
<text text-anchor="middle" x="364" y="-102.3" font-family="Times,serif" font-size="14.00">address_of</text>
</g>
<!-- assert_tokendata_exists&#45;&gt;signer::address_of -->
<g id="edge6" class="edge">
<title>assert_tokendata_exists&#45;&gt;signer::address_of</title>
<path fill="none" stroke="black" d="M314.08,-163.07C322.26,-153.88 332.53,-142.35 341.62,-132.13"/>
<polygon fill="black" stroke="black" points="344.19,-134.51 348.22,-124.72 338.96,-129.86 344.19,-134.51"/>
</g>
<!-- error::not_found -->
<g id="node8" class="node">
<title>error::not_found</title>
<ellipse fill="none" stroke="black" cx="235" cy="-106" rx="46.59" ry="18"/>
<text text-anchor="middle" x="235" y="-102.3" font-family="Times,serif" font-size="14.00">not_found</text>
</g>
<!-- assert_tokendata_exists&#45;&gt;error::not_found -->
<g id="edge7" class="edge">
<title>assert_tokendata_exists&#45;&gt;error::not_found</title>
<path fill="none" stroke="black" d="M284.16,-163.07C276.1,-153.88 265.99,-142.35 257.03,-132.13"/>
<polygon fill="black" stroke="black" points="259.76,-129.94 250.54,-124.73 254.5,-134.55 259.76,-129.94"/>
</g>
<!-- table::contains -->
<g id="node9" class="node">
<title>table::contains</title>
<ellipse fill="none" stroke="black" cx="513" cy="-106" rx="40.09" ry="18"/>
<text text-anchor="middle" x="513" y="-102.3" font-family="Times,serif" font-size="14.00">contains</text>
</g>
<!-- assert_tokendata_exists&#45;&gt;table::contains -->
<g id="edge9" class="edge">
<title>assert_tokendata_exists&#45;&gt;table::contains</title>
<path fill="none" stroke="black" d="M385.36,-173.63C407.72,-169.92 431.3,-164.1 452,-155 465.36,-149.13 478.33,-139.63 488.85,-130.63"/>
<polygon fill="black" stroke="black" points="491.18,-133.25 496.29,-123.97 486.5,-128.04 491.18,-133.25"/>
</g>
<!-- signer::borrow_address -->
<g id="node10" class="node">
<title>signer::borrow_address</title>
<ellipse fill="none" stroke="black" cx="373" cy="-34" rx="66.89" ry="18"/>
<text text-anchor="middle" x="373" y="-30.3" font-family="Times,serif" font-size="14.00">borrow_address</text>
</g>
<!-- signer::address_of&#45;&gt;signer::borrow_address -->
<g id="edge10" class="edge">
<title>signer::address_of&#45;&gt;signer::borrow_address</title>
<path fill="none" stroke="black" d="M366.22,-87.7C367.17,-80.32 368.3,-71.52 369.37,-63.25"/>
<polygon fill="black" stroke="black" points="372.8,-63.97 370.61,-53.61 365.86,-63.08 372.8,-63.97"/>
</g>
<!-- error::not_found&#45;&gt;error::canonical -->
<g id="edge11" class="edge">
<title>error::not_found&#45;&gt;error::canonical</title>
<path fill="none" stroke="black" d="M218.53,-88.76C209.57,-79.93 198.31,-68.83 188.36,-59.01"/>
<polygon fill="black" stroke="black" points="191.03,-56.74 181.46,-52.21 186.12,-61.72 191.03,-56.74"/>
</g>
<!-- table::contains_box -->
<g id="node11" class="node">
<title>table::contains_box</title>
<ellipse fill="none" stroke="black" cx="522" cy="-34" rx="57.69" ry="18"/>
<text text-anchor="middle" x="522" y="-30.3" font-family="Times,serif" font-size="14.00">contains_box</text>
</g>
<!-- table::contains&#45;&gt;table::contains_box -->
<g id="edge12" class="edge">
<title>table::contains&#45;&gt;table::contains_box</title>
<path fill="none" stroke="black" d="M515.22,-87.7C516.17,-80.32 517.3,-71.52 518.37,-63.25"/>
<polygon fill="black" stroke="black" points="521.8,-63.97 519.61,-53.61 514.86,-63.08 521.8,-63.97"/>
</g>
</g>
</svg>
