<?xml version="1.0" encoding="UTF-8" standalone="no"?>
<!DOCTYPE svg PUBLIC "-//W3C//DTD SVG 1.1//EN"
 "http://www.w3.org/Graphics/SVG/1.1/DTD/svg11.dtd">
<!-- Generated by graphviz version 7.0.0 (20221023.0053)
 -->
<!-- Title: G Pages: 1 -->
<svg width="2023pt" height="697pt"
 viewBox="0.00 0.00 2023.07 697.00" xmlns="http://www.w3.org/2000/svg" xmlns:xlink="http://www.w3.org/1999/xlink">
<g id="graph0" class="graph" transform="scale(1 1) rotate(0) translate(4 693)">
<title>G</title>
<polygon fill="white" stroke="none" points="-4,4 -4,-693 2019.07,-693 2019.07,4 -4,4"/>
<g id="clust1" class="cluster">
<title>cluster_string</title>
<polygon fill="none" stroke="black" points="686.36,-340 686.36,-498 864.36,-498 864.36,-340 686.36,-340"/>
<text text-anchor="middle" x="775.36" y="-482.8" font-family="Times,serif" font-size="14.00">string</text>
</g>
<g id="clust2" class="cluster">
<title>cluster_signer</title>
<polygon fill="none" stroke="black" points="1032.36,-423 1032.36,-573 1182.36,-573 1182.36,-423 1032.36,-423"/>
<text text-anchor="middle" x="1107.36" y="-557.8" font-family="Times,serif" font-size="14.00">signer</text>
</g>
<g id="clust3" class="cluster">
<title>cluster_error</title>
<polygon fill="none" stroke="black" points="673.36,-174 673.36,-332 1250.36,-332 1250.36,-174 673.36,-174"/>
<text text-anchor="middle" x="961.86" y="-316.8" font-family="Times,serif" font-size="14.00">error</text>
</g>
<g id="clust4" class="cluster">
<title>cluster_table</title>
<polygon fill="none" stroke="black" points="1258.36,-257 1258.36,-415 1806.36,-415 1806.36,-257 1258.36,-257"/>
<text text-anchor="middle" x="1532.36" y="-399.8" font-family="Times,serif" font-size="14.00">table</text>
</g>
<g id="clust5" class="cluster">
<title>cluster_event</title>
<polygon fill="none" stroke="black" points="1814.36,-340 1814.36,-498 2000.36,-498 2000.36,-340 1814.36,-340"/>
<text text-anchor="middle" x="1907.36" y="-482.8" font-family="Times,serif" font-size="14.00">event</text>
</g>
<g id="clust6" class="cluster">
<title>cluster_property_map</title>
<polygon fill="none" stroke="black" points="17.36,-340 17.36,-573 209.36,-573 209.36,-340 17.36,-340"/>
<text text-anchor="middle" x="113.36" y="-557.8" font-family="Times,serif" font-size="14.00">property_map</text>
</g>
<g id="clust7" class="cluster">
<title>cluster_bcs</title>
<polygon fill="none" stroke="black" points="1288.36,-91 1288.36,-166 1384.36,-166 1384.36,-91 1288.36,-91"/>
<text text-anchor="middle" x="1336.36" y="-150.8" font-family="Times,serif" font-size="14.00">bcs</text>
</g>
<g id="clust8" class="cluster">
<title>cluster_simple_map</title>
<polygon fill="none" stroke="black" points="217.36,-257 217.36,-415 520.36,-415 520.36,-257 217.36,-257"/>
<text text-anchor="middle" x="368.86" y="-399.8" font-family="Times,serif" font-size="14.00">simple_map</text>
</g>
<g id="clust9" class="cluster">
<title>cluster_from_bcs</title>
<polygon fill="none" stroke="black" points="528.36,-340 528.36,-498 646.36,-498 646.36,-340 528.36,-340"/>
<text text-anchor="middle" x="587.36" y="-482.8" font-family="Times,serif" font-size="14.00">from_bcs</text>
</g>
<g id="clust10" class="cluster">
<title>cluster_option</title>
<polygon fill="none" stroke="black" points="169.36,-91 169.36,-249 405.36,-249 405.36,-91 169.36,-91"/>
<text text-anchor="middle" x="287.36" y="-233.8" font-family="Times,serif" font-size="14.00">option</text>
</g>
<g id="clust11" class="cluster">
<title>cluster_vector</title>
<polygon fill="none" stroke="black" points="151.36,-8 151.36,-83 358.36,-83 358.36,-8 151.36,-8"/>
<text text-anchor="middle" x="254.86" y="-67.8" font-family="Times,serif" font-size="14.00">vector</text>
</g>
<g id="clust12" class="cluster">
<title>cluster_comparator</title>
<polygon fill="none" stroke="black" points="413.36,-91 413.36,-249 665.36,-249 665.36,-91 413.36,-91"/>
<text text-anchor="middle" x="539.36" y="-233.8" font-family="Times,serif" font-size="14.00">comparator</text>
</g>
<!-- burn -->
<g id="node1" class="node">
<title>burn</title>
<ellipse fill="none" stroke="black" cx="1078.36" cy="-671" rx="27" ry="18"/>
<text text-anchor="middle" x="1078.36" y="-667.3" font-family="Times,serif" font-size="14.00">burn</text>
</g>
<!-- string::utf8 -->
<g id="node2" class="node">
<title>string::utf8</title>
<ellipse fill="none" stroke="black" cx="721.36" cy="-449" rx="27" ry="18"/>
<text text-anchor="middle" x="721.36" y="-445.3" font-family="Times,serif" font-size="14.00">utf8</text>
</g>
<!-- burn&#45;&gt;string::utf8 -->
<g id="edge1" class="edge">
<title>burn&#45;&gt;string::utf8</title>
<path fill="none" stroke="black" d="M1051.05,-670.04C976.72,-669.54 773.45,-663.83 730.36,-617 695.85,-579.5 704.43,-514.93 713.24,-478.03"/>
<polygon fill="black" stroke="black" points="716.57,-479.11 715.67,-468.55 709.79,-477.37 716.57,-479.11"/>
</g>
<!-- signer::address_of -->
<g id="node3" class="node">
<title>signer::address_of</title>
<ellipse fill="none" stroke="black" cx="1107.36" cy="-524" rx="48.99" ry="18"/>
<text text-anchor="middle" x="1107.36" y="-520.3" font-family="Times,serif" font-size="14.00">address_of</text>
</g>
<!-- burn&#45;&gt;signer::address_of -->
<g id="edge2" class="edge">
<title>burn&#45;&gt;signer::address_of</title>
<path fill="none" stroke="black" d="M1081.8,-652.8C1086.71,-628.27 1095.77,-582.95 1101.68,-553.4"/>
<polygon fill="black" stroke="black" points="1105.1,-554.16 1103.63,-543.66 1098.23,-552.78 1105.1,-554.16"/>
</g>
<!-- error::invalid_argument -->
<g id="node4" class="node">
<title>error::invalid_argument</title>
<ellipse fill="none" stroke="black" cx="884.36" cy="-283" rx="73.39" ry="18"/>
<text text-anchor="middle" x="884.36" y="-279.3" font-family="Times,serif" font-size="14.00">invalid_argument</text>
</g>
<!-- burn&#45;&gt;error::invalid_argument -->
<g id="edge3" class="edge">
<title>burn&#45;&gt;error::invalid_argument</title>
<path fill="none" stroke="black" d="M1053.86,-662.99C1030.61,-655.2 996.08,-640.52 974.36,-617 944.35,-584.5 936.36,-569.24 936.36,-525 936.36,-525 936.36,-525 936.36,-448 936.36,-398.04 914.16,-343.34 898.77,-311.44"/>
<polygon fill="black" stroke="black" points="901.91,-309.9 894.33,-302.5 895.64,-313.02 901.91,-309.9"/>
</g>
<!-- error::not_found -->
<g id="node5" class="node">
<title>error::not_found</title>
<ellipse fill="none" stroke="black" cx="1195.36" cy="-283" rx="46.59" ry="18"/>
<text text-anchor="middle" x="1195.36" y="-279.3" font-family="Times,serif" font-size="14.00">not_found</text>
</g>
<!-- burn&#45;&gt;error::not_found -->
<g id="edge4" class="edge">
<title>burn&#45;&gt;error::not_found</title>
<path fill="none" stroke="black" d="M1065.95,-654.53C1046.83,-629.11 1012.36,-576.17 1012.36,-525 1012.36,-525 1012.36,-525 1012.36,-448 1012.36,-407.04 1028.11,-425.26 1139.36,-332 1148.85,-324.04 1159.17,-315.24 1168.33,-307.37"/>
<polygon fill="black" stroke="black" points="1170.59,-310.05 1175.89,-300.87 1166.03,-304.74 1170.59,-310.05"/>
</g>
<!-- error::permission_denied -->
<g id="node6" class="node">
<title>error::permission_denied</title>
<ellipse fill="none" stroke="black" cx="1053.36" cy="-283" rx="77.19" ry="18"/>
<text text-anchor="middle" x="1053.36" y="-279.3" font-family="Times,serif" font-size="14.00">permission_denied</text>
</g>
<!-- burn&#45;&gt;error::permission_denied -->
<g id="edge5" class="edge">
<title>burn&#45;&gt;error::permission_denied</title>
<path fill="none" stroke="black" d="M1055.68,-660.55C1037.53,-651.84 1012.79,-637.2 998.36,-617 973.79,-582.62 974.36,-567.26 974.36,-525 974.36,-525 974.36,-525 974.36,-448 974.36,-398.83 974.89,-383.21 998.36,-340 1004.68,-328.36 1014.14,-317.48 1023.43,-308.47"/>
<polygon fill="black" stroke="black" points="1025.72,-311.11 1030.72,-301.77 1020.99,-305.96 1025.72,-311.11"/>
</g>
<!-- table::contains -->
<g id="node7" class="node">
<title>table::contains</title>
<ellipse fill="none" stroke="black" cx="1432.36" cy="-366" rx="40.09" ry="18"/>
<text text-anchor="middle" x="1432.36" y="-362.3" font-family="Times,serif" font-size="14.00">contains</text>
</g>
<!-- burn&#45;&gt;table::contains -->
<g id="edge6" class="edge">
<title>burn&#45;&gt;table::contains</title>
<path fill="none" stroke="black" d="M1105.21,-667.06C1182.42,-658 1402.22,-627.77 1444.36,-573 1484.47,-520.87 1460.88,-437.56 1444.32,-394.61"/>
<polygon fill="black" stroke="black" points="1447.65,-393.49 1440.67,-385.51 1441.15,-396.1 1447.65,-393.49"/>
</g>
<!-- table::borrow_mut -->
<g id="node8" class="node">
<title>table::borrow_mut</title>
<ellipse fill="none" stroke="black" cx="1647.36" cy="-366" rx="54.69" ry="18"/>
<text text-anchor="middle" x="1647.36" y="-362.3" font-family="Times,serif" font-size="14.00">borrow_mut</text>
</g>
<!-- burn&#45;&gt;table::borrow_mut -->
<g id="edge7" class="edge">
<title>burn&#45;&gt;table::borrow_mut</title>
<path fill="none" stroke="black" d="M1105.44,-668.14C1180.4,-662.67 1389.21,-645.24 1451.36,-617 1549.77,-572.28 1612.38,-449.5 1636.32,-394.39"/>
<polygon fill="black" stroke="black" points="1639.45,-395.98 1640.13,-385.41 1633.01,-393.25 1639.45,-395.98"/>
</g>
<!-- table::remove -->
<g id="node9" class="node">
<title>table::remove</title>
<ellipse fill="none" stroke="black" cx="1537.36" cy="-366" rx="37.89" ry="18"/>
<text text-anchor="middle" x="1537.36" y="-362.3" font-family="Times,serif" font-size="14.00">remove</text>
</g>
<!-- burn&#45;&gt;table::remove -->
<g id="edge8" class="edge">
<title>burn&#45;&gt;table::remove</title>
<path fill="none" stroke="black" d="M1105.51,-670.51C1164.62,-670.61 1308.23,-665.41 1415.36,-617 1501.46,-578.09 1527.22,-452.64 1534.57,-395.65"/>
<polygon fill="black" stroke="black" points="1538.04,-396.11 1535.73,-385.77 1531.09,-395.29 1538.04,-396.11"/>
</g>
<!-- event::emit_event -->
<g id="node10" class="node">
<title>event::emit_event</title>
<ellipse fill="none" stroke="black" cx="1925.36" cy="-449" rx="50.09" ry="18"/>
<text text-anchor="middle" x="1925.36" y="-445.3" font-family="Times,serif" font-size="14.00">emit_event</text>
</g>
<!-- burn&#45;&gt;event::emit_event -->
<g id="edge9" class="edge">
<title>burn&#45;&gt;event::emit_event</title>
<path fill="none" stroke="black" d="M1105.53,-669.45C1253.44,-666.35 1956.31,-649.92 1987.36,-617 2025.51,-576.56 1979.51,-510.57 1948.73,-474.85"/>
<polygon fill="black" stroke="black" points="1951.55,-472.75 1942.3,-467.59 1946.31,-477.39 1951.55,-472.75"/>
</g>
<!-- property_map::contains_key -->
<g id="node11" class="node">
<title>property_map::contains_key</title>
<ellipse fill="none" stroke="black" cx="144.36" cy="-366" rx="57.39" ry="18"/>
<text text-anchor="middle" x="144.36" y="-362.3" font-family="Times,serif" font-size="14.00">contains_key</text>
</g>
<!-- burn&#45;&gt;property_map::contains_key -->
<g id="edge10" class="edge">
<title>burn&#45;&gt;property_map::contains_key</title>
<path fill="none" stroke="black" d="M1050.99,-669.65C891.63,-667.36 88.17,-651.91 16.36,-573 -37.38,-513.95 58.71,-429.36 112.16,-389.46"/>
<polygon fill="black" stroke="black" points="114.07,-392.4 120.07,-383.67 109.93,-386.76 114.07,-392.4"/>
</g>
<!-- property_map::read_bool -->
<g id="node12" class="node">
<title>property_map::read_bool</title>
<ellipse fill="none" stroke="black" cx="155.36" cy="-524" rx="46.29" ry="18"/>
<text text-anchor="middle" x="155.36" y="-520.3" font-family="Times,serif" font-size="14.00">read_bool</text>
</g>
<!-- burn&#45;&gt;property_map::read_bool -->
<g id="edge11" class="edge">
<title>burn&#45;&gt;property_map::read_bool</title>
<path fill="none" stroke="black" d="M1051.78,-666.63C989.33,-658.64 828.38,-637.68 694.36,-617 515.4,-589.38 303.89,-551.85 207.69,-534.5"/>
<polygon fill="black" stroke="black" points="208.49,-531.09 198.03,-532.76 207.24,-537.98 208.49,-531.09"/>
</g>
<!-- create_token_id_raw -->
<g id="node13" class="node">
<title>create_token_id_raw</title>
<ellipse fill="none" stroke="black" cx="823.36" cy="-599" rx="84.49" ry="18"/>
<text text-anchor="middle" x="823.36" y="-595.3" font-family="Times,serif" font-size="14.00">create_token_id_raw</text>
</g>
<!-- burn&#45;&gt;create_token_id_raw -->
<g id="edge12" class="edge">
<title>burn&#45;&gt;create_token_id_raw</title>
<path fill="none" stroke="black" d="M1053.91,-663.29C1015.19,-652.66 938.6,-631.64 884.34,-616.74"/>
<polygon fill="black" stroke="black" points="885.49,-613.43 874.92,-614.15 883.64,-620.18 885.49,-613.43"/>
</g>
<!-- destroy_collection_data -->
<g id="node14" class="node">
<title>destroy_collection_data</title>
<ellipse fill="none" stroke="black" cx="1707.36" cy="-599" rx="94.78" ry="18"/>
<text text-anchor="middle" x="1707.36" y="-595.3" font-family="Times,serif" font-size="14.00">destroy_collection_data</text>
</g>
<!-- burn&#45;&gt;destroy_collection_data -->
<g id="edge13" class="edge">
<title>burn&#45;&gt;destroy_collection_data</title>
<path fill="none" stroke="black" d="M1105.21,-667.77C1182.16,-661.27 1410.03,-641.27 1598.36,-617 1607.34,-615.84 1616.72,-614.53 1626.05,-613.17"/>
<polygon fill="black" stroke="black" points="1626.5,-616.64 1635.87,-611.7 1625.47,-609.72 1626.5,-616.64"/>
</g>
<!-- destroy_token_data -->
<g id="node15" class="node">
<title>destroy_token_data</title>
<ellipse fill="none" stroke="black" cx="1899.36" cy="-599" rx="79.09" ry="18"/>
<text text-anchor="middle" x="1899.36" y="-595.3" font-family="Times,serif" font-size="14.00">destroy_token_data</text>
</g>
<!-- burn&#45;&gt;destroy_token_data -->
<g id="edge14" class="edge">
<title>burn&#45;&gt;destroy_token_data</title>
<path fill="none" stroke="black" d="M1105.43,-669.2C1201.83,-666.11 1537.2,-653.26 1811.36,-617 1817.88,-616.14 1824.65,-615.1 1831.41,-613.96"/>
<polygon fill="black" stroke="black" points="1831.98,-617.41 1841.23,-612.23 1830.77,-610.52 1831.98,-617.41"/>
</g>
<!-- withdraw_token -->
<g id="node16" class="node">
<title>withdraw_token</title>
<ellipse fill="none" stroke="black" cx="1174.36" cy="-599" rx="67.69" ry="18"/>
<text text-anchor="middle" x="1174.36" y="-595.3" font-family="Times,serif" font-size="14.00">withdraw_token</text>
</g>
<!-- burn&#45;&gt;withdraw_token -->
<g id="edge15" class="edge">
<title>burn&#45;&gt;withdraw_token</title>
<path fill="none" stroke="black" d="M1095.97,-657.16C1109.06,-647.62 1127.27,-634.34 1142.84,-622.98"/>
<polygon fill="black" stroke="black" points="1144.89,-625.82 1150.91,-617.1 1140.77,-620.16 1144.89,-625.82"/>
</g>
<!-- string::internal_check_utf8 -->
<g id="node17" class="node">
<title>string::internal_check_utf8</title>
<ellipse fill="none" stroke="black" cx="775.36" cy="-366" rx="81.49" ry="18"/>
<text text-anchor="middle" x="775.36" y="-362.3" font-family="Times,serif" font-size="14.00">internal_check_utf8</text>
</g>
<!-- string::utf8&#45;&gt;string::internal_check_utf8 -->
<g id="edge16" class="edge">
<title>string::utf8&#45;&gt;string::internal_check_utf8</title>
<path fill="none" stroke="black" d="M732.03,-432C739.38,-420.97 749.31,-406.08 757.81,-393.32"/>
<polygon fill="black" stroke="black" points="760.49,-395.61 763.13,-385.35 754.67,-391.73 760.49,-395.61"/>
</g>
<!-- signer::borrow_address -->
<g id="node18" class="node">
<title>signer::borrow_address</title>
<ellipse fill="none" stroke="black" cx="1107.36" cy="-449" rx="66.89" ry="18"/>
<text text-anchor="middle" x="1107.36" y="-445.3" font-family="Times,serif" font-size="14.00">borrow_address</text>
</g>
<!-- signer::address_of&#45;&gt;signer::borrow_address -->
<g id="edge17" class="edge">
<title>signer::address_of&#45;&gt;signer::borrow_address</title>
<path fill="none" stroke="black" d="M1107.36,-505.7C1107.36,-497.67 1107.36,-487.9 1107.36,-478.8"/>
<polygon fill="black" stroke="black" points="1110.86,-478.94 1107.36,-468.94 1103.86,-478.94 1110.86,-478.94"/>
</g>
<!-- error::canonical -->
<g id="node19" class="node">
<title>error::canonical</title>
<ellipse fill="none" stroke="black" cx="968.36" cy="-200" rx="44.39" ry="18"/>
<text text-anchor="middle" x="968.36" y="-196.3" font-family="Times,serif" font-size="14.00">canonical</text>
</g>
<!-- error::invalid_argument&#45;&gt;error::canonical -->
<g id="edge18" class="edge">
<title>error::invalid_argument&#45;&gt;error::canonical</title>
<path fill="none" stroke="black" d="M901.77,-265.22C913.94,-253.47 930.38,-237.62 943.88,-224.61"/>
<polygon fill="black" stroke="black" points="945.98,-227.45 950.75,-217.99 941.12,-222.41 945.98,-227.45"/>
</g>
<!-- error::not_found&#45;&gt;error::canonical -->
<g id="edge19" class="edge">
<title>error::not_found&#45;&gt;error::canonical</title>
<path fill="none" stroke="black" d="M1166.54,-268.45C1157.88,-264.56 1148.3,-260.45 1139.36,-257 1097.54,-240.87 1048.89,-225.23 1014.19,-214.6"/>
<polygon fill="black" stroke="black" points="1015.48,-211.33 1004.9,-211.77 1013.44,-218.03 1015.48,-211.33"/>
</g>
<!-- error::permission_denied&#45;&gt;error::canonical -->
<g id="edge20" class="edge">
<title>error::permission_denied&#45;&gt;error::canonical</title>
<path fill="none" stroke="black" d="M1035.75,-265.22C1023.43,-253.47 1006.79,-237.62 993.14,-224.61"/>
<polygon fill="black" stroke="black" points="995.83,-222.34 986.18,-217.98 991,-227.41 995.83,-222.34"/>
</g>
<!-- table::contains_box -->
<g id="node20" class="node">
<title>table::contains_box</title>
<ellipse fill="none" stroke="black" cx="1450.36" cy="-283" rx="57.69" ry="18"/>
<text text-anchor="middle" x="1450.36" y="-279.3" font-family="Times,serif" font-size="14.00">contains_box</text>
</g>
<!-- table::contains&#45;&gt;table::contains_box -->
<g id="edge21" class="edge">
<title>table::contains&#45;&gt;table::contains_box</title>
<path fill="none" stroke="black" d="M1436.18,-347.82C1438.45,-337.58 1441.4,-324.33 1444.02,-312.55"/>
<polygon fill="black" stroke="black" points="1447.41,-313.43 1446.16,-302.91 1440.57,-311.91 1447.41,-313.43"/>
</g>
<!-- table::borrow_box_mut -->
<g id="node21" class="node">
<title>table::borrow_box_mut</title>
<ellipse fill="none" stroke="black" cx="1726.36" cy="-283" rx="72.29" ry="18"/>
<text text-anchor="middle" x="1726.36" y="-279.3" font-family="Times,serif" font-size="14.00">borrow_box_mut</text>
</g>
<!-- table::borrow_mut&#45;&gt;table::borrow_box_mut -->
<g id="edge22" class="edge">
<title>table::borrow_mut&#45;&gt;table::borrow_box_mut</title>
<path fill="none" stroke="black" d="M1663.35,-348.61C1674.44,-337.23 1689.43,-321.87 1702,-308.97"/>
<polygon fill="black" stroke="black" points="1704.32,-311.61 1708.8,-302.01 1699.31,-306.72 1704.32,-311.61"/>
</g>
<!-- table::remove_box -->
<g id="node22" class="node">
<title>table::remove_box</title>
<ellipse fill="none" stroke="black" cx="1581.36" cy="-283" rx="55.49" ry="18"/>
<text text-anchor="middle" x="1581.36" y="-279.3" font-family="Times,serif" font-size="14.00">remove_box</text>
</g>
<!-- table::remove&#45;&gt;table::remove_box -->
<g id="edge23" class="edge">
<title>table::remove&#45;&gt;table::remove_box</title>
<path fill="none" stroke="black" d="M1546.48,-348.22C1552.34,-337.43 1560.08,-323.17 1566.78,-310.84"/>
<polygon fill="black" stroke="black" points="1569.68,-312.83 1571.38,-302.37 1563.53,-309.49 1569.68,-312.83"/>
</g>
<!-- bcs::to_bytes -->
<g id="node23" class="node">
<title>bcs::to_bytes</title>
<ellipse fill="none" stroke="black" cx="1336.36" cy="-117" rx="40.09" ry="18"/>
<text text-anchor="middle" x="1336.36" y="-113.3" font-family="Times,serif" font-size="14.00">to_bytes</text>
</g>
<!-- event::emit_event&#45;&gt;bcs::to_bytes -->
<g id="edge24" class="edge">
<title>event::emit_event&#45;&gt;bcs::to_bytes</title>
<path fill="none" stroke="black" d="M1968.04,-439.12C1980.94,-434.23 1993.71,-426.67 2001.36,-415 2019.64,-387.13 2019.64,-367.87 2001.36,-340 1931,-232.71 1525.53,-151.57 1384.61,-126.28"/>
<polygon fill="black" stroke="black" points="1385.31,-122.85 1374.85,-124.54 1384.08,-129.74 1385.31,-122.85"/>
</g>
<!-- event::write_to_event_store -->
<g id="node24" class="node">
<title>event::write_to_event_store</title>
<ellipse fill="none" stroke="black" cx="1907.36" cy="-366" rx="85.29" ry="18"/>
<text text-anchor="middle" x="1907.36" y="-362.3" font-family="Times,serif" font-size="14.00">write_to_event_store</text>
</g>
<!-- event::emit_event&#45;&gt;event::write_to_event_store -->
<g id="edge25" class="edge">
<title>event::emit_event&#45;&gt;event::write_to_event_store</title>
<path fill="none" stroke="black" d="M1921.54,-430.82C1919.27,-420.58 1916.32,-407.33 1913.7,-395.55"/>
<polygon fill="black" stroke="black" points="1917.15,-394.91 1911.56,-385.91 1910.32,-396.43 1917.15,-394.91"/>
</g>
<!-- simple_map::contains_key -->
<g id="node25" class="node">
<title>simple_map::contains_key</title>
<ellipse fill="none" stroke="black" cx="282.36" cy="-366" rx="57.39" ry="18"/>
<text text-anchor="middle" x="282.36" y="-362.3" font-family="Times,serif" font-size="14.00">contains_key</text>
</g>
<!-- property_map::contains_key&#45;&gt;simple_map::contains_key -->
<g id="edge26" class="edge">
<title>property_map::contains_key&#45;&gt;simple_map::contains_key</title>
<path fill="none" stroke="black" d="M202.04,-366C205.8,-366 209.57,-366 213.34,-366"/>
<polygon fill="black" stroke="black" points="213.12,-369.5 223.12,-366 213.12,-362.5 213.12,-369.5"/>
</g>
<!-- property_map::read_bool&#45;&gt;string::utf8 -->
<g id="edge27" class="edge">
<title>property_map::read_bool&#45;&gt;string::utf8</title>
<path fill="none" stroke="black" d="M201.91,-522.88C322.4,-522.28 638.06,-518.73 680.36,-498 690.62,-492.97 699.33,-484.07 706.04,-475.29"/>
<polygon fill="black" stroke="black" points="708.81,-477.45 711.66,-467.24 703.06,-473.44 708.81,-477.45"/>
</g>
<!-- error::invalid_state -->
<g id="node26" class="node">
<title>error::invalid_state</title>
<ellipse fill="none" stroke="black" cx="737.36" cy="-283" rx="55.79" ry="18"/>
<text text-anchor="middle" x="737.36" y="-279.3" font-family="Times,serif" font-size="14.00">invalid_state</text>
</g>
<!-- property_map::read_bool&#45;&gt;error::invalid_state -->
<g id="edge28" class="edge">
<title>property_map::read_bool&#45;&gt;error::invalid_state</title>
<path fill="none" stroke="black" d="M201.84,-522.18C321.77,-519.87 633.53,-512.49 650.36,-498 704.66,-451.26 648.76,-403.28 682.36,-340 688.79,-327.9 698.65,-316.66 708.26,-307.48"/>
<polygon fill="black" stroke="black" points="710.36,-310.3 715.42,-300.99 705.66,-305.11 710.36,-310.3"/>
</g>
<!-- from_bcs::to_bool -->
<g id="node27" class="node">
<title>from_bcs::to_bool</title>
<ellipse fill="none" stroke="black" cx="580.36" cy="-449" rx="37.89" ry="18"/>
<text text-anchor="middle" x="580.36" y="-445.3" font-family="Times,serif" font-size="14.00">to_bool</text>
</g>
<!-- property_map::read_bool&#45;&gt;from_bcs::to_bool -->
<g id="edge29" class="edge">
<title>property_map::read_bool&#45;&gt;from_bcs::to_bool</title>
<path fill="none" stroke="black" d="M200.18,-518.9C242.42,-514.72 307.43,-507.52 363.36,-498 423.77,-487.71 492.73,-471.72 536.4,-461.05"/>
<polygon fill="black" stroke="black" points="537.13,-464.48 546,-458.69 535.45,-457.68 537.13,-464.48"/>
</g>
<!-- property_map::borrow -->
<g id="node28" class="node">
<title>property_map::borrow</title>
<ellipse fill="none" stroke="black" cx="155.36" cy="-449" rx="36.29" ry="18"/>
<text text-anchor="middle" x="155.36" y="-445.3" font-family="Times,serif" font-size="14.00">borrow</text>
</g>
<!-- property_map::read_bool&#45;&gt;property_map::borrow -->
<g id="edge30" class="edge">
<title>property_map::read_bool&#45;&gt;property_map::borrow</title>
<path fill="none" stroke="black" d="M155.36,-505.7C155.36,-497.67 155.36,-487.9 155.36,-478.8"/>
<polygon fill="black" stroke="black" points="158.86,-478.94 155.36,-468.94 151.86,-478.94 158.86,-478.94"/>
</g>
<!-- create_token_data_id -->
<g id="node29" class="node">
<title>create_token_data_id</title>
<ellipse fill="none" stroke="black" cx="822.36" cy="-524" rx="85.59" ry="18"/>
<text text-anchor="middle" x="822.36" y="-520.3" font-family="Times,serif" font-size="14.00">create_token_data_id</text>
</g>
<!-- create_token_id_raw&#45;&gt;create_token_data_id -->
<g id="edge31" class="edge">
<title>create_token_id_raw&#45;&gt;create_token_data_id</title>
<path fill="none" stroke="black" d="M823.12,-580.7C823.01,-572.67 822.88,-562.9 822.75,-553.8"/>
<polygon fill="black" stroke="black" points="826.26,-553.89 822.62,-543.94 819.26,-553.99 826.26,-553.89"/>
</g>
<!-- withdraw_token&#45;&gt;signer::address_of -->
<g id="edge32" class="edge">
<title>withdraw_token&#45;&gt;signer::address_of</title>
<path fill="none" stroke="black" d="M1158.82,-581.07C1150.3,-571.79 1139.59,-560.11 1130.14,-549.82"/>
<polygon fill="black" stroke="black" points="1132.95,-547.7 1123.61,-542.7 1127.79,-552.44 1132.95,-547.7"/>
</g>
<!-- withdraw_with_event_internal -->
<g id="node30" class="node">
<title>withdraw_with_event_internal</title>
<ellipse fill="none" stroke="black" cx="1317.36" cy="-524" rx="118.08" ry="18"/>
<text text-anchor="middle" x="1317.36" y="-520.3" font-family="Times,serif" font-size="14.00">withdraw_with_event_internal</text>
</g>
<!-- withdraw_token&#45;&gt;withdraw_with_event_internal -->
<g id="edge33" class="edge">
<title>withdraw_token&#45;&gt;withdraw_with_event_internal</title>
<path fill="none" stroke="black" d="M1204.69,-582.52C1225.02,-572.14 1252.09,-558.32 1274.61,-546.83"/>
<polygon fill="black" stroke="black" points="1275.92,-550.08 1283.24,-542.42 1272.74,-543.85 1275.92,-550.08"/>
</g>
<!-- option::is_some -->
<g id="node31" class="node">
<title>option::is_some</title>
<ellipse fill="none" stroke="black" cx="217.36" cy="-117" rx="40.09" ry="18"/>
<text text-anchor="middle" x="217.36" y="-113.3" font-family="Times,serif" font-size="14.00">is_some</text>
</g>
<!-- simple_map::contains_key&#45;&gt;option::is_some -->
<g id="edge34" class="edge">
<title>simple_map::contains_key&#45;&gt;option::is_some</title>
<path fill="none" stroke="black" d="M248.81,-350.98C237.7,-346.84 225.16,-342.7 213.36,-340 196.37,-336.11 147.04,-344.93 135.36,-332 88.31,-279.87 102.57,-236.1 135.36,-174 144.49,-156.7 161.64,-143.74 177.9,-134.67"/>
<polygon fill="black" stroke="black" points="179.22,-137.92 186.48,-130.21 175.99,-131.71 179.22,-137.92"/>
</g>
<!-- simple_map::find -->
<g id="node32" class="node">
<title>simple_map::find</title>
<ellipse fill="none" stroke="black" cx="382.36" cy="-283" rx="27" ry="18"/>
<text text-anchor="middle" x="382.36" y="-279.3" font-family="Times,serif" font-size="14.00">find</text>
</g>
<!-- simple_map::contains_key&#45;&gt;simple_map::find -->
<g id="edge35" class="edge">
<title>simple_map::contains_key&#45;&gt;simple_map::find</title>
<path fill="none" stroke="black" d="M302.12,-349C317.77,-336.32 339.77,-318.5 356.77,-304.73"/>
<polygon fill="black" stroke="black" points="358.89,-307.52 364.46,-298.5 354.48,-302.08 358.89,-307.52"/>
</g>
<!-- error::invalid_state&#45;&gt;error::canonical -->
<g id="edge36" class="edge">
<title>error::invalid_state&#45;&gt;error::canonical</title>
<path fill="none" stroke="black" d="M771.67,-268.5C781.54,-264.69 792.35,-260.61 802.36,-257 843.23,-242.25 890.18,-226.53 923.69,-215.51"/>
<polygon fill="black" stroke="black" points="924.67,-218.87 933.08,-212.43 922.49,-212.22 924.67,-218.87"/>
</g>
<!-- from_bcs::from_bytes -->
<g id="node33" class="node">
<title>from_bcs::from_bytes</title>
<ellipse fill="none" stroke="black" cx="587.36" cy="-366" rx="51.19" ry="18"/>
<text text-anchor="middle" x="587.36" y="-362.3" font-family="Times,serif" font-size="14.00">from_bytes</text>
</g>
<!-- from_bcs::to_bool&#45;&gt;from_bcs::from_bytes -->
<g id="edge37" class="edge">
<title>from_bcs::to_bool&#45;&gt;from_bcs::from_bytes</title>
<path fill="none" stroke="black" d="M581.84,-430.82C582.73,-420.58 583.88,-407.33 584.89,-395.55"/>
<polygon fill="black" stroke="black" points="588.35,-396.2 585.72,-385.94 581.38,-395.6 588.35,-396.2"/>
</g>
<!-- property_map::borrow&#45;&gt;property_map::contains_key -->
<g id="edge39" class="edge">
<title>property_map::borrow&#45;&gt;property_map::contains_key</title>
<path fill="none" stroke="black" d="M153.03,-430.82C151.64,-420.58 149.84,-407.33 148.24,-395.55"/>
<polygon fill="black" stroke="black" points="151.75,-395.37 146.93,-385.93 144.81,-396.31 151.75,-395.37"/>
</g>
<!-- simple_map::borrow -->
<g id="node34" class="node">
<title>simple_map::borrow</title>
<ellipse fill="none" stroke="black" cx="394.36" cy="-366" rx="36.29" ry="18"/>
<text text-anchor="middle" x="394.36" y="-362.3" font-family="Times,serif" font-size="14.00">borrow</text>
</g>
<!-- property_map::borrow&#45;&gt;simple_map::borrow -->
<g id="edge38" class="edge">
<title>property_map::borrow&#45;&gt;simple_map::borrow</title>
<path fill="none" stroke="black" d="M192.04,-448.43C232.56,-447.44 298.67,-441.38 348.36,-415 358.8,-409.46 368.25,-400.67 375.83,-392.11"/>
<polygon fill="black" stroke="black" points="378.37,-394.53 382.05,-384.6 372.98,-390.07 378.37,-394.53"/>
</g>
<!-- create_token_data_id&#45;&gt;error::invalid_argument -->
<g id="edge41" class="edge">
<title>create_token_data_id&#45;&gt;error::invalid_argument</title>
<path fill="none" stroke="black" d="M859.42,-507.56C862.89,-504.83 865.99,-501.66 868.36,-498 905.33,-440.8 897.66,-356.16 890.25,-312.45"/>
<polygon fill="black" stroke="black" points="893.72,-311.95 888.48,-302.75 886.83,-313.21 893.72,-311.95"/>
</g>
<!-- string::length -->
<g id="node35" class="node">
<title>string::length</title>
<ellipse fill="none" stroke="black" cx="822.36" cy="-449" rx="32.49" ry="18"/>
<text text-anchor="middle" x="822.36" y="-445.3" font-family="Times,serif" font-size="14.00">length</text>
</g>
<!-- create_token_data_id&#45;&gt;string::length -->
<g id="edge40" class="edge">
<title>create_token_data_id&#45;&gt;string::length</title>
<path fill="none" stroke="black" d="M822.36,-505.7C822.36,-497.67 822.36,-487.9 822.36,-478.8"/>
<polygon fill="black" stroke="black" points="825.86,-478.94 822.36,-468.94 818.86,-478.94 825.86,-478.94"/>
</g>
<!-- withdraw_with_event_internal&#45;&gt;error::invalid_argument -->
<g id="edge42" class="edge">
<title>withdraw_with_event_internal&#45;&gt;error::invalid_argument</title>
<path fill="none" stroke="black" d="M1242.56,-509.65C1235.66,-506.54 1229.11,-502.71 1223.36,-498 1194.6,-474.45 1213.48,-448.42 1186.36,-423 1109.47,-350.91 1061.85,-378.7 967.36,-332 951.48,-324.15 934.45,-314.53 919.98,-305.97"/>
<polygon fill="black" stroke="black" points="922.1,-303.15 911.72,-301.02 918.5,-309.16 922.1,-303.15"/>
</g>
<!-- withdraw_with_event_internal&#45;&gt;error::not_found -->
<g id="edge43" class="edge">
<title>withdraw_with_event_internal&#45;&gt;error::not_found</title>
<path fill="none" stroke="black" d="M1269.86,-507.09C1265.97,-504.49 1262.38,-501.48 1259.36,-498 1211.66,-443.04 1238.72,-409.26 1216.36,-340 1213.35,-330.69 1209.72,-320.65 1206.32,-311.67"/>
<polygon fill="black" stroke="black" points="1209.62,-310.5 1202.75,-302.42 1203.09,-313.01 1209.62,-310.5"/>
</g>
<!-- withdraw_with_event_internal&#45;&gt;table::contains -->
<g id="edge44" class="edge">
<title>withdraw_with_event_internal&#45;&gt;table::contains</title>
<path fill="none" stroke="black" d="M1363.49,-507.14C1367.81,-504.51 1371.87,-501.48 1375.36,-498 1403.93,-469.53 1419.2,-424.38 1426.54,-395.22"/>
<polygon fill="black" stroke="black" points="1429.91,-396.17 1428.79,-385.64 1423.1,-394.57 1429.91,-396.17"/>
</g>
<!-- withdraw_with_event_internal&#45;&gt;table::borrow_mut -->
<g id="edge45" class="edge">
<title>withdraw_with_event_internal&#45;&gt;table::borrow_mut</title>
<path fill="none" stroke="black" d="M1402.51,-511.16C1417.72,-507.78 1433.21,-503.47 1447.36,-498 1507.08,-474.92 1515.23,-455.55 1570.36,-423 1576.53,-419.36 1578.39,-418.96 1584.36,-415 1595.97,-407.31 1608.26,-398.18 1618.87,-389.97"/>
<polygon fill="black" stroke="black" points="1620.81,-392.9 1626.52,-383.97 1616.49,-387.39 1620.81,-392.9"/>
</g>
<!-- withdraw_with_event_internal&#45;&gt;table::remove -->
<g id="edge46" class="edge">
<title>withdraw_with_event_internal&#45;&gt;table::remove</title>
<path fill="none" stroke="black" d="M1389.99,-509.42C1397.25,-506.36 1404.2,-502.6 1410.36,-498 1441.69,-474.6 1425.59,-447.13 1456.36,-423 1465.54,-415.8 1471.17,-420.69 1481.36,-415 1493.17,-408.41 1504.77,-399.08 1514.33,-390.4"/>
<polygon fill="black" stroke="black" points="1516.5,-393.15 1521.37,-383.74 1511.7,-388.07 1516.5,-393.15"/>
</g>
<!-- withdraw_with_event_internal&#45;&gt;event::emit_event -->
<g id="edge47" class="edge">
<title>withdraw_with_event_internal&#45;&gt;event::emit_event</title>
<path fill="none" stroke="black" d="M1408.06,-512.11C1534.7,-496.91 1760.9,-469.75 1867.17,-456.99"/>
<polygon fill="black" stroke="black" points="1867.29,-460.5 1876.8,-455.83 1866.45,-453.55 1867.29,-460.5"/>
</g>
<!-- property_map::empty -->
<g id="node36" class="node">
<title>property_map::empty</title>
<ellipse fill="none" stroke="black" cx="58.36" cy="-524" rx="33.29" ry="18"/>
<text text-anchor="middle" x="58.36" y="-520.3" font-family="Times,serif" font-size="14.00">empty</text>
</g>
<!-- withdraw_with_event_internal&#45;&gt;property_map::empty -->
<g id="edge48" class="edge">
<title>withdraw_with_event_internal&#45;&gt;property_map::empty</title>
<path fill="none" stroke="black" d="M1281.84,-541.56C1254.14,-554.23 1214.3,-570.24 1177.36,-577 1162.77,-579.67 123.87,-580.08 109.36,-577 94.72,-573.89 82.8,-562.53 74.17,-551.11"/>
<polygon fill="black" stroke="black" points="77.11,-549.21 68.57,-542.94 71.34,-553.17 77.11,-549.21"/>
</g>
<!-- balance_of -->
<g id="node37" class="node">
<title>balance_of</title>
<ellipse fill="none" stroke="black" cx="1317.36" cy="-449" rx="49.29" ry="18"/>
<text text-anchor="middle" x="1317.36" y="-445.3" font-family="Times,serif" font-size="14.00">balance_of</text>
</g>
<!-- withdraw_with_event_internal&#45;&gt;balance_of -->
<g id="edge49" class="edge">
<title>withdraw_with_event_internal&#45;&gt;balance_of</title>
<path fill="none" stroke="black" d="M1317.36,-505.7C1317.36,-497.67 1317.36,-487.9 1317.36,-478.8"/>
<polygon fill="black" stroke="black" points="1320.86,-478.94 1317.36,-468.94 1313.86,-478.94 1320.86,-478.94"/>
</g>
<!-- vector::is_empty -->
<g id="node38" class="node">
<title>vector::is_empty</title>
<ellipse fill="none" stroke="black" cx="203.36" cy="-34" rx="43.59" ry="18"/>
<text text-anchor="middle" x="203.36" y="-30.3" font-family="Times,serif" font-size="14.00">is_empty</text>
</g>
<!-- option::is_some&#45;&gt;vector::is_empty -->
<g id="edge50" class="edge">
<title>option::is_some&#45;&gt;vector::is_empty</title>
<path fill="none" stroke="black" d="M214.39,-98.82C212.62,-88.58 210.33,-75.33 208.29,-63.55"/>
<polygon fill="black" stroke="black" points="211.78,-63.18 206.63,-53.92 204.89,-64.37 211.78,-63.18"/>
</g>
<!-- option::none -->
<g id="node39" class="node">
<title>option::none</title>
<ellipse fill="none" stroke="black" cx="369.36" cy="-200" rx="27.9" ry="18"/>
<text text-anchor="middle" x="369.36" y="-196.3" font-family="Times,serif" font-size="14.00">none</text>
</g>
<!-- simple_map::find&#45;&gt;option::none -->
<g id="edge51" class="edge">
<title>simple_map::find&#45;&gt;option::none</title>
<path fill="none" stroke="black" d="M379.6,-264.82C377.95,-254.51 375.8,-241.14 373.9,-229.31"/>
<polygon fill="black" stroke="black" points="377.39,-228.97 372.35,-219.65 370.48,-230.08 377.39,-228.97"/>
</g>
<!-- option::some -->
<g id="node40" class="node">
<title>option::some</title>
<ellipse fill="none" stroke="black" cx="293.36" cy="-200" rx="29.8" ry="18"/>
<text text-anchor="middle" x="293.36" y="-196.3" font-family="Times,serif" font-size="14.00">some</text>
</g>
<!-- simple_map::find&#45;&gt;option::some -->
<g id="edge52" class="edge">
<title>simple_map::find&#45;&gt;option::some</title>
<path fill="none" stroke="black" d="M362.37,-270.75C352.79,-264.89 341.46,-257.24 332.36,-249 324.89,-242.24 317.66,-233.98 311.49,-226.24"/>
<polygon fill="black" stroke="black" points="314.33,-224.19 305.47,-218.38 308.77,-228.45 314.33,-224.19"/>
</g>
<!-- comparator::compare -->
<g id="node41" class="node">
<title>comparator::compare</title>
<ellipse fill="none" stroke="black" cx="615.36" cy="-200" rx="41.69" ry="18"/>
<text text-anchor="middle" x="615.36" y="-196.3" font-family="Times,serif" font-size="14.00">compare</text>
</g>
<!-- simple_map::find&#45;&gt;comparator::compare -->
<g id="edge53" class="edge">
<title>simple_map::find&#45;&gt;comparator::compare</title>
<path fill="none" stroke="black" d="M409.79,-281.8C446.8,-280.51 513.9,-274.46 564.36,-249 575.6,-243.33 586.08,-234.4 594.59,-225.77"/>
<polygon fill="black" stroke="black" points="597.12,-228.19 601.36,-218.48 591.99,-223.43 597.12,-228.19"/>
</g>
<!-- comparator::is_smaller_than -->
<g id="node42" class="node">
<title>comparator::is_smaller_than</title>
<ellipse fill="none" stroke="black" cx="488.36" cy="-200" rx="66.89" ry="18"/>
<text text-anchor="middle" x="488.36" y="-196.3" font-family="Times,serif" font-size="14.00">is_smaller_than</text>
</g>
<!-- simple_map::find&#45;&gt;comparator::is_smaller_than -->
<g id="edge54" class="edge">
<title>simple_map::find&#45;&gt;comparator::is_smaller_than</title>
<path fill="none" stroke="black" d="M399.39,-268.99C415.18,-256.92 439.04,-238.69 458.08,-224.14"/>
<polygon fill="black" stroke="black" points="459.96,-227.11 465.78,-218.26 455.71,-221.55 459.96,-227.11"/>
</g>
<!-- simple_map::borrow&#45;&gt;error::invalid_argument -->
<g id="edge57" class="edge">
<title>simple_map::borrow&#45;&gt;error::invalid_argument</title>
<path fill="none" stroke="black" d="M414.97,-350.8C422.33,-346.49 430.91,-342.29 439.36,-340 517.24,-318.9 724.72,-353.97 802.36,-332 820.72,-326.8 839.23,-316.5 854,-306.77"/>
<polygon fill="black" stroke="black" points="855.61,-309.91 861.88,-301.38 851.66,-304.14 855.61,-309.91"/>
</g>
<!-- simple_map::borrow&#45;&gt;option::is_some -->
<g id="edge56" class="edge">
<title>simple_map::borrow&#45;&gt;option::is_some</title>
<path fill="none" stroke="black" d="M373.17,-351.13C365.63,-346.84 356.89,-342.57 348.36,-340 309.92,-328.39 295.08,-348.26 258.36,-332 208.61,-309.97 190.2,-298.84 168.36,-249 154.98,-218.47 156.64,-205.2 168.36,-174 172.99,-161.69 181.69,-150.31 190.49,-141.07"/>
<polygon fill="black" stroke="black" points="192.72,-143.78 197.4,-134.28 187.81,-138.79 192.72,-143.78"/>
</g>
<!-- simple_map::borrow&#45;&gt;simple_map::find -->
<g id="edge58" class="edge">
<title>simple_map::borrow&#45;&gt;simple_map::find</title>
<path fill="none" stroke="black" d="M391.82,-347.82C390.29,-337.51 388.31,-324.14 386.55,-312.31"/>
<polygon fill="black" stroke="black" points="390.05,-312.03 385.12,-302.65 383.13,-313.06 390.05,-312.03"/>
</g>
<!-- option::extract -->
<g id="node43" class="node">
<title>option::extract</title>
<ellipse fill="none" stroke="black" cx="211.36" cy="-200" rx="34.39" ry="18"/>
<text text-anchor="middle" x="211.36" y="-196.3" font-family="Times,serif" font-size="14.00">extract</text>
</g>
<!-- simple_map::borrow&#45;&gt;option::extract -->
<g id="edge55" class="edge">
<title>simple_map::borrow&#45;&gt;option::extract</title>
<path fill="none" stroke="black" d="M372.9,-351.13C364.45,-345.44 354.77,-338.64 346.36,-332 303.13,-297.88 293.23,-288.01 254.36,-249 246.98,-241.6 239.26,-233.2 232.43,-225.53"/>
<polygon fill="black" stroke="black" points="235.12,-223.29 225.89,-218.09 229.87,-227.91 235.12,-223.29"/>
</g>
<!-- simple_map::create -->
<g id="node44" class="node">
<title>simple_map::create</title>
<ellipse fill="none" stroke="black" cx="480.36" cy="-366" rx="31.7" ry="18"/>
<text text-anchor="middle" x="480.36" y="-362.3" font-family="Times,serif" font-size="14.00">create</text>
</g>
<!-- property_map::empty&#45;&gt;simple_map::create -->
<g id="edge59" class="edge">
<title>property_map::empty&#45;&gt;simple_map::create</title>
<path fill="none" stroke="black" d="M82.82,-511.65C88.48,-509.43 94.54,-507.38 100.36,-506 143.75,-495.74 156.73,-507.17 200.36,-498 310.4,-474.89 346.5,-478.4 439.36,-415 448.3,-408.89 456.45,-400.35 463.09,-392.16"/>
<polygon fill="black" stroke="black" points="465.71,-394.49 468.98,-384.42 460.14,-390.26 465.71,-394.49"/>
</g>
<!-- balance_of&#45;&gt;table::contains -->
<g id="edge60" class="edge">
<title>balance_of&#45;&gt;table::contains</title>
<path fill="none" stroke="black" d="M1339.26,-432.57C1357.18,-419.95 1382.71,-401.97 1402.5,-388.03"/>
<polygon fill="black" stroke="black" points="1404.3,-391.04 1410.46,-382.42 1400.27,-385.32 1404.3,-391.04"/>
</g>
<!-- table::borrow -->
<g id="node45" class="node">
<title>table::borrow</title>
<ellipse fill="none" stroke="black" cx="1318.36" cy="-366" rx="36.29" ry="18"/>
<text text-anchor="middle" x="1318.36" y="-362.3" font-family="Times,serif" font-size="14.00">borrow</text>
</g>
<!-- balance_of&#45;&gt;table::borrow -->
<g id="edge61" class="edge">
<title>balance_of&#45;&gt;table::borrow</title>
<path fill="none" stroke="black" d="M1317.57,-430.82C1317.7,-420.69 1317.86,-407.6 1318,-395.92"/>
<polygon fill="black" stroke="black" points="1321.5,-395.99 1318.13,-385.95 1314.5,-395.9 1321.5,-395.99"/>
</g>
<!-- vector::singleton -->
<g id="node46" class="node">
<title>vector::singleton</title>
<ellipse fill="none" stroke="black" cx="307.36" cy="-34" rx="42.79" ry="18"/>
<text text-anchor="middle" x="307.36" y="-30.3" font-family="Times,serif" font-size="14.00">singleton</text>
</g>
<!-- option::some&#45;&gt;vector::singleton -->
<g id="edge62" class="edge">
<title>option::some&#45;&gt;vector::singleton</title>
<path fill="none" stroke="black" d="M294.83,-181.76C297.24,-153.51 302.06,-97.11 304.97,-63.04"/>
<polygon fill="black" stroke="black" points="308.42,-63.78 305.78,-53.52 301.44,-63.18 308.42,-63.78"/>
</g>
<!-- comparator::compare&#45;&gt;bcs::to_bytes -->
<g id="edge63" class="edge">
<title>comparator::compare&#45;&gt;bcs::to_bytes</title>
<path fill="none" stroke="black" d="M640.49,-185.15C649.37,-180.86 659.57,-176.59 669.36,-174 785.61,-143.24 1149.86,-125.61 1285.12,-119.99"/>
<polygon fill="black" stroke="black" points="1284.99,-123.5 1294.84,-119.59 1284.71,-116.5 1284.99,-123.5"/>
</g>
<!-- comparator::compare_u8_vector -->
<g id="node47" class="node">
<title>comparator::compare_u8_vector</title>
<ellipse fill="none" stroke="black" cx="576.36" cy="-117" rx="81.49" ry="18"/>
<text text-anchor="middle" x="576.36" y="-113.3" font-family="Times,serif" font-size="14.00">compare_u8_vector</text>
</g>
<!-- comparator::compare&#45;&gt;comparator::compare_u8_vector -->
<g id="edge64" class="edge">
<title>comparator::compare&#45;&gt;comparator::compare_u8_vector</title>
<path fill="none" stroke="black" d="M607.28,-182.22C602.17,-171.61 595.45,-157.65 589.58,-145.45"/>
<polygon fill="black" stroke="black" points="592.85,-144.18 585.36,-136.68 586.54,-147.21 592.85,-144.18"/>
</g>
<!-- option::extract&#45;&gt;option::is_some -->
<g id="edge65" class="edge">
<title>option::extract&#45;&gt;option::is_some</title>
<path fill="none" stroke="black" d="M212.63,-181.82C213.39,-171.58 214.37,-158.33 215.25,-146.55"/>
<polygon fill="black" stroke="black" points="218.71,-147.17 215.96,-136.94 211.73,-146.66 218.71,-147.17"/>
</g>
<!-- table::borrow_box -->
<g id="node48" class="node">
<title>table::borrow_box</title>
<ellipse fill="none" stroke="black" cx="1320.36" cy="-283" rx="53.89" ry="18"/>
<text text-anchor="middle" x="1320.36" y="-279.3" font-family="Times,serif" font-size="14.00">borrow_box</text>
</g>
<!-- table::borrow&#45;&gt;table::borrow_box -->
<g id="edge66" class="edge">
<title>table::borrow&#45;&gt;table::borrow_box</title>
<path fill="none" stroke="black" d="M1318.78,-347.82C1319.03,-337.69 1319.36,-324.6 1319.65,-312.92"/>
<polygon fill="black" stroke="black" points="1323.14,-313.03 1319.89,-302.95 1316.15,-312.86 1323.14,-313.03"/>
</g>
</g>
</svg>
