<?xml version="1.0" encoding="UTF-8" standalone="no"?>
<!DOCTYPE svg PUBLIC "-//W3C//DTD SVG 1.1//EN"
 "http://www.w3.org/Graphics/SVG/1.1/DTD/svg11.dtd">
<!-- Generated by graphviz version 7.0.0 (20221023.0053)
 -->
<!-- Title: G Pages: 1 -->
<svg width="1019pt" height="290pt"
 viewBox="0.00 0.00 1019.00 290.00" xmlns="http://www.w3.org/2000/svg" xmlns:xlink="http://www.w3.org/1999/xlink">
<g id="graph0" class="graph" transform="scale(1 1) rotate(0) translate(4 286)">
<title>G</title>
<polygon fill="white" stroke="none" points="-4,4 -4,-286 1015,-286 1015,4 -4,4"/>
<g id="clust1" class="cluster">
<title>cluster_string</title>
<polygon fill="none" stroke="black" points="8,-163 8,-238 88,-238 88,-163 8,-163"/>
<text text-anchor="middle" x="48" y="-222.8" font-family="Times,serif" font-size="14.00">string</text>
</g>
<g id="clust2" class="cluster">
<title>cluster_signer</title>
<polygon fill="none" stroke="black" points="96,-80 96,-238 246,-238 246,-80 96,-80"/>
<text text-anchor="middle" x="171" y="-222.8" font-family="Times,serif" font-size="14.00">signer</text>
</g>
<g id="clust3" class="cluster">
<title>cluster_error</title>
<polygon fill="none" stroke="black" points="254,-8 254,-155 701,-155 701,-8 254,-8"/>
<text text-anchor="middle" x="477.5" y="-139.8" font-family="Times,serif" font-size="14.00">error</text>
</g>
<g id="clust4" class="cluster">
<title>cluster_table</title>
<polygon fill="none" stroke="black" points="709,-8 709,-155 1003,-155 1003,-8 709,-8"/>
<text text-anchor="middle" x="856" y="-139.8" font-family="Times,serif" font-size="14.00">table</text>
</g>
<!-- mutate_collection_uri -->
<g id="node1" class="node">
<title>mutate_collection_uri</title>
<ellipse fill="none" stroke="black" cx="413" cy="-264" rx="88.28" ry="18"/>
<text text-anchor="middle" x="413" y="-260.3" font-family="Times,serif" font-size="14.00">mutate_collection_uri</text>
</g>
<!-- string::length -->
<g id="node2" class="node">
<title>string::length</title>
<ellipse fill="none" stroke="black" cx="48" cy="-189" rx="32.49" ry="18"/>
<text text-anchor="middle" x="48" y="-185.3" font-family="Times,serif" font-size="14.00">length</text>
</g>
<!-- mutate_collection_uri&#45;&gt;string::length -->
<g id="edge1" class="edge">
<title>mutate_collection_uri&#45;&gt;string::length</title>
<path fill="none" stroke="black" d="M324.58,-263.31C243.96,-262.3 131.57,-257.28 92,-238 81.44,-232.86 72.2,-223.98 64.96,-215.25"/>
<polygon fill="black" stroke="black" points="67.93,-213.38 59.07,-207.57 62.37,-217.63 67.93,-213.38"/>
</g>
<!-- signer::address_of -->
<g id="node3" class="node">
<title>signer::address_of</title>
<ellipse fill="none" stroke="black" cx="180" cy="-189" rx="48.99" ry="18"/>
<text text-anchor="middle" x="180" y="-185.3" font-family="Times,serif" font-size="14.00">address_of</text>
</g>
<!-- mutate_collection_uri&#45;&gt;signer::address_of -->
<g id="edge2" class="edge">
<title>mutate_collection_uri&#45;&gt;signer::address_of</title>
<path fill="none" stroke="black" d="M366.13,-248.32C325.8,-235.68 267.89,-217.54 227.41,-204.85"/>
<polygon fill="black" stroke="black" points="228.51,-201.53 217.92,-201.88 226.42,-208.21 228.51,-201.53"/>
</g>
<!-- error::invalid_argument -->
<g id="node4" class="node">
<title>error::invalid_argument</title>
<ellipse fill="none" stroke="black" cx="335" cy="-106" rx="73.39" ry="18"/>
<text text-anchor="middle" x="335" y="-102.3" font-family="Times,serif" font-size="14.00">invalid_argument</text>
</g>
<!-- mutate_collection_uri&#45;&gt;error::invalid_argument -->
<g id="edge3" class="edge">
<title>mutate_collection_uri&#45;&gt;error::invalid_argument</title>
<path fill="none" stroke="black" d="M404.35,-245.71C390.88,-218.77 364.77,-166.54 348.71,-134.42"/>
<polygon fill="black" stroke="black" points="351.96,-133.1 344.36,-125.72 345.7,-136.23 351.96,-133.1"/>
</g>
<!-- error::permission_denied -->
<g id="node5" class="node">
<title>error::permission_denied</title>
<ellipse fill="none" stroke="black" cx="504" cy="-106" rx="77.19" ry="18"/>
<text text-anchor="middle" x="504" y="-102.3" font-family="Times,serif" font-size="14.00">permission_denied</text>
</g>
<!-- mutate_collection_uri&#45;&gt;error::permission_denied -->
<g id="edge4" class="edge">
<title>mutate_collection_uri&#45;&gt;error::permission_denied</title>
<path fill="none" stroke="black" d="M423.09,-245.71C438.95,-218.51 469.86,-165.53 488.54,-133.5"/>
<polygon fill="black" stroke="black" points="491.37,-135.6 493.38,-125.2 485.32,-132.08 491.37,-135.6"/>
</g>
<!-- table::borrow_mut -->
<g id="node6" class="node">
<title>table::borrow_mut</title>
<ellipse fill="none" stroke="black" cx="901" cy="-106" rx="54.69" ry="18"/>
<text text-anchor="middle" x="901" y="-102.3" font-family="Times,serif" font-size="14.00">borrow_mut</text>
</g>
<!-- mutate_collection_uri&#45;&gt;table::borrow_mut -->
<g id="edge5" class="edge">
<title>mutate_collection_uri&#45;&gt;table::borrow_mut</title>
<path fill="none" stroke="black" d="M501.47,-262.64C585.7,-261.18 705.84,-255.88 749,-238 804.66,-214.94 854.48,-163.26 880.95,-132.15"/>
<polygon fill="black" stroke="black" points="883.41,-134.66 887.12,-124.74 878.03,-130.18 883.41,-134.66"/>
</g>
<!-- assert_collection_exists -->
<g id="node7" class="node">
<title>assert_collection_exists</title>
<ellipse fill="none" stroke="black" cx="646" cy="-189" rx="94.48" ry="18"/>
<text text-anchor="middle" x="646" y="-185.3" font-family="Times,serif" font-size="14.00">assert_collection_exists</text>
</g>
<!-- mutate_collection_uri&#45;&gt;assert_collection_exists -->
<g id="edge6" class="edge">
<title>mutate_collection_uri&#45;&gt;assert_collection_exists</title>
<path fill="none" stroke="black" d="M459.87,-248.32C496.68,-236.78 548.13,-220.66 587.61,-208.29"/>
<polygon fill="black" stroke="black" points="588.46,-211.69 596.96,-205.36 586.37,-205.01 588.46,-211.69"/>
</g>
<!-- signer::borrow_address -->
<g id="node8" class="node">
<title>signer::borrow_address</title>
<ellipse fill="none" stroke="black" cx="171" cy="-106" rx="66.89" ry="18"/>
<text text-anchor="middle" x="171" y="-102.3" font-family="Times,serif" font-size="14.00">borrow_address</text>
</g>
<!-- signer::address_of&#45;&gt;signer::borrow_address -->
<g id="edge7" class="edge">
<title>signer::address_of&#45;&gt;signer::borrow_address</title>
<path fill="none" stroke="black" d="M178.09,-170.82C176.95,-160.58 175.48,-147.33 174.17,-135.55"/>
<polygon fill="black" stroke="black" points="177.69,-135.49 173.1,-125.94 170.73,-136.26 177.69,-135.49"/>
</g>
<!-- error::canonical -->
<g id="node9" class="node">
<title>error::canonical</title>
<ellipse fill="none" stroke="black" cx="504" cy="-34" rx="44.39" ry="18"/>
<text text-anchor="middle" x="504" y="-30.3" font-family="Times,serif" font-size="14.00">canonical</text>
</g>
<!-- error::invalid_argument&#45;&gt;error::canonical -->
<g id="edge8" class="edge">
<title>error::invalid_argument&#45;&gt;error::canonical</title>
<path fill="none" stroke="black" d="M371.25,-89.98C398.35,-78.76 435.38,-63.42 463.46,-51.79"/>
<polygon fill="black" stroke="black" points="464.44,-55.18 472.34,-48.11 461.76,-48.71 464.44,-55.18"/>
</g>
<!-- error::permission_denied&#45;&gt;error::canonical -->
<g id="edge9" class="edge">
<title>error::permission_denied&#45;&gt;error::canonical</title>
<path fill="none" stroke="black" d="M504,-87.7C504,-80.41 504,-71.73 504,-63.54"/>
<polygon fill="black" stroke="black" points="507.5,-63.62 504,-53.62 500.5,-63.62 507.5,-63.62"/>
</g>
<!-- table::borrow_box_mut -->
<g id="node10" class="node">
<title>table::borrow_box_mut</title>
<ellipse fill="none" stroke="black" cx="923" cy="-34" rx="72.29" ry="18"/>
<text text-anchor="middle" x="923" y="-30.3" font-family="Times,serif" font-size="14.00">borrow_box_mut</text>
</g>
<!-- table::borrow_mut&#45;&gt;table::borrow_box_mut -->
<g id="edge10" class="edge">
<title>table::borrow_mut&#45;&gt;table::borrow_box_mut</title>
<path fill="none" stroke="black" d="M906.44,-87.7C908.78,-80.24 911.58,-71.32 914.21,-62.97"/>
<polygon fill="black" stroke="black" points="917.51,-64.14 917.17,-53.55 910.83,-62.04 917.51,-64.14"/>
</g>
<!-- error::not_found -->
<g id="node11" class="node">
<title>error::not_found</title>
<ellipse fill="none" stroke="black" cx="646" cy="-106" rx="46.59" ry="18"/>
<text text-anchor="middle" x="646" y="-102.3" font-family="Times,serif" font-size="14.00">not_found</text>
</g>
<!-- assert_collection_exists&#45;&gt;error::not_found -->
<g id="edge11" class="edge">
<title>assert_collection_exists&#45;&gt;error::not_found</title>
<path fill="none" stroke="black" d="M646,-170.82C646,-160.69 646,-147.6 646,-135.92"/>
<polygon fill="black" stroke="black" points="649.5,-135.95 646,-125.95 642.5,-135.95 649.5,-135.95"/>
</g>
<!-- table::contains -->
<g id="node12" class="node">
<title>table::contains</title>
<ellipse fill="none" stroke="black" cx="766" cy="-106" rx="40.09" ry="18"/>
<text text-anchor="middle" x="766" y="-102.3" font-family="Times,serif" font-size="14.00">contains</text>
</g>
<!-- assert_collection_exists&#45;&gt;table::contains -->
<g id="edge12" class="edge">
<title>assert_collection_exists&#45;&gt;table::contains</title>
<path fill="none" stroke="black" d="M677.47,-171.59C686.53,-166.55 696.31,-160.8 705,-155 716.62,-147.25 728.83,-137.91 739.24,-129.53"/>
<polygon fill="black" stroke="black" points="741.17,-132.48 746.71,-123.44 736.74,-127.05 741.17,-132.48"/>
</g>
<!-- error::not_found&#45;&gt;error::canonical -->
<g id="edge13" class="edge">
<title>error::not_found&#45;&gt;error::canonical</title>
<path fill="none" stroke="black" d="M617.95,-91.17C596.12,-80.41 565.62,-65.38 541.67,-53.57"/>
<polygon fill="black" stroke="black" points="543.39,-50.51 532.87,-49.23 540.29,-56.79 543.39,-50.51"/>
</g>
<!-- table::contains_box -->
<g id="node13" class="node">
<title>table::contains_box</title>
<ellipse fill="none" stroke="black" cx="775" cy="-34" rx="57.69" ry="18"/>
<text text-anchor="middle" x="775" y="-30.3" font-family="Times,serif" font-size="14.00">contains_box</text>
</g>
<!-- table::contains&#45;&gt;table::contains_box -->
<g id="edge14" class="edge">
<title>table::contains&#45;&gt;table::contains_box</title>
<path fill="none" stroke="black" d="M768.22,-87.7C769.17,-80.32 770.3,-71.52 771.37,-63.25"/>
<polygon fill="black" stroke="black" points="774.8,-63.97 772.61,-53.61 767.86,-63.08 774.8,-63.97"/>
</g>
</g>
</svg>
